<?xml version="1.0" encoding="utf-8"?>
<!-- Generator: Adobe Illustrator 26.0.0, SVG Export Plug-In . SVG Version: 6.00 Build 0)  -->
<svg version="1.1" id="Layer_1" xmlns="http://www.w3.org/2000/svg" xmlns:xlink="http://www.w3.org/1999/xlink" x="0px" y="0px"
	 viewBox="0 0 1003 498.9" style="enable-background:new 0 0 1003 498.9;" xml:space="preserve">
<style type="text/css">
	.st0{clip-path:url(#SVGID_00000066494111780354320230000017590590672466564013_);}
	.st1{fill:#C9C9C9;}
	.st2{fill:#EBF5FF;}
	.st3{fill:url(#SVGID_00000080920008290846623550000002069699090720458141_);}
</style>
<g>
	<defs>
		<rect id="SVGID_1_" y="-51.1" width="1002.7" height="550"/>
	</defs>
	<clipPath id="SVGID_00000058548031727351129260000015522757844689946528_">
		<use xlink:href="#SVGID_1_"  style="overflow:visible;"/>
	</clipPath>
	<g style="clip-path:url(#SVGID_00000058548031727351129260000015522757844689946528_);">
		<path class="st1" d="M97.9,0h806.8c1.7,0,3.4,0.3,5,1c1.6,0.7,3,1.6,4.2,2.8c1.2,1.2,2.2,2.6,2.8,4.2c0.7,1.6,1,3.3,1,5v472.8H85
			V13c0-3.4,1.4-6.7,3.8-9.1C91.2,1.4,94.5,0,97.9,0L97.9,0z"/>
		<path d="M97.2,1.5h808.2c2.8,0,5.4,1.1,7.4,3.1c2,1.9,3,4.6,3,7.3v472.4h-829V11.9c0-2.8,1.1-5.4,3.1-7.4
			C91.8,2.6,94.5,1.5,97.2,1.5z"/>
		<path class="st2" d="M100.3,5h802c2.7,0,5.2,1.1,7.1,2.9c1.9,1.9,2.9,4.4,2.9,7.1v452.4h-822V14.9c0-1.3,0.3-2.6,0.8-3.8
			c0.5-1.2,1.2-2.3,2.2-3.2c0.9-0.9,2-1.7,3.3-2.2S99,4.9,100.3,5z"/>
		
			<linearGradient id="SVGID_00000047739885308242128360000007673210229258150295_" gradientUnits="userSpaceOnUse" x1="501.3361" y1="-51.1728" x2="501.3361" y2="-37.1199" gradientTransform="matrix(1 0 0 -1 0 447.7645)">
			<stop  offset="0" style="stop-color:#FFFFFF;stop-opacity:0.66"/>
			<stop  offset="1" style="stop-color:#000000"/>
		</linearGradient>
		<path style="fill:url(#SVGID_00000047739885308242128360000007673210229258150295_);" d="M996.7,498.9H5.9c-2.1,0-4.1-1.6-5.9-4.5
			v-2.9c0-3.7,1.2-6.7,2.7-6.7H1000c1.5,0,2.7,3,2.7,6.7v2.9C1000.9,497.4,998.8,498.9,996.7,498.9z"/>
		<path class="st1" d="M996.7,490.4H5.9c-2.1,0-4.1-0.6-5.9-1.8v-1.1c0-0.7,0.3-1.4,0.8-1.9c0.5-0.5,1.2-0.8,1.9-0.8H1000
			c0.7,0,1.4,0.3,1.9,0.8c0.5,0.5,0.8,1.2,0.8,1.9v1.1C1000.9,489.8,998.9,490.4,996.7,490.4z"/>
	</g>
</g>
</svg>
