<svg width="16" height="16" viewBox="0 0 16 16" fill="none" xmlns="http://www.w3.org/2000/svg">
<path d="M9.44 10.6933C9.6 10.88 9.69333 11.0933 9.69333 11.3467C9.69333 11.6 9.61333 11.8 9.44 11.9733L5.72 15.6933C5.50667 15.9067 5.25333 16 4.96 16C4.66667 16 4.4 15.8933 4.2 15.6933L0.306667 11.8133C0.0933333 11.6 0 11.3467 0 11.0533C0 10.76 0.106667 10.48 0.306667 10.2533L3.86667 6.72C4.09333 6.49333 4.36 6.37333 4.66667 6.37333C4.97333 6.37333 5.22667 6.49333 5.42667 6.72L6.68 7.97333L5.37333 9.28L4.90667 8.81333C4.90667 8.81333 4.76 8.72 4.66667 8.72C4.57333 8.72 4.49333 8.74667 4.42667 8.78667L2.4 10.8133C2.4 10.8133 2.30667 10.96 2.30667 11.0533C2.30667 11.1467 2.33333 11.2267 2.4 11.2933L4.70667 13.6C4.70667 13.6 4.85333 13.6933 4.94667 13.6933C5.04 13.6933 5.12 13.6667 5.18667 13.6L7.18667 11.5733C7.18667 11.5733 7.28 11.44 7.28 11.36C7.28 11.28 7.25333 11.2 7.21333 11.1467L6.70667 10.64L8.01333 9.33333L9.41333 10.7067L9.44 10.6933ZM5.04 10.2933L10.3467 4.98667L11.04 5.68L5.73333 10.9867L5.04 10.2933ZM10.2533 0.306667C10.48 0.0933333 10.7467 0 11.0533 0C11.36 0 11.6267 0.106667 11.8533 0.306667L15.6933 4.14667C15.9067 4.37333 16 4.64 16 4.94667C16 5.25333 15.8933 5.50667 15.6933 5.70667L12.1333 9.26667C11.92 9.49333 11.6667 9.61333 11.3467 9.61333C11.0267 9.61333 10.7733 9.49333 10.56 9.26667L9.30667 8.01333L10.6133 6.70667L11.12 7.17333C11.12 7.17333 11.2533 7.26667 11.3333 7.26667C11.4133 7.26667 11.4933 7.24 11.5467 7.17333L13.5733 5.17333C13.5733 5.17333 13.6667 5.02667 13.6667 4.93333C13.6667 4.84 13.64 4.76 13.5733 4.69333L11.2667 2.38667C11.2667 2.38667 11.12 2.29333 11.0267 2.29333C10.9333 2.29333 10.8533 2.32 10.7867 2.38667L8.78667 4.41333C8.78667 4.41333 8.69333 4.54667 8.69333 4.62667C8.69333 4.70667 8.72 4.78667 8.78667 4.84L9.25333 5.34667L7.94667 6.65333L6.69333 5.4C6.46667 5.18667 6.34667 4.93333 6.34667 4.64C6.34667 4.34667 6.46667 4.06667 6.69333 3.84L10.28 0.306667H10.2533Z" fill="#ffa705"/>
</svg>
