<svg width="167" height="37" viewBox="0 0 167 37" fill="none" xmlns="http://www.w3.org/2000/svg">
<path d="M34.456 28V9.28H38.226L45.012 17.366L51.772 9.28H55.568V28H52.11V14.272L45.012 22.722L37.888 14.298V28H34.456ZM58.4731 28V12.92H61.8791V28H58.4731ZM58.4731 11.412V7.98H61.8791V11.412H58.4731ZM64.8981 28V12.92H76.6241C77.2828 12.92 77.8808 13.0847 78.4181 13.414C78.9728 13.7433 79.4061 14.1767 79.7181 14.714C80.0475 15.2513 80.2121 15.8493 80.2121 16.508V28H76.8061V16.638C76.8061 16.5513 76.7715 16.482 76.7021 16.43C76.6501 16.3607 76.5808 16.326 76.4941 16.326H68.6161C68.5295 16.326 68.4515 16.3607 68.3821 16.43C68.3301 16.482 68.3041 16.5513 68.3041 16.638V28H64.8981ZM82.9497 28V12.92H86.3557V28H82.9497ZM82.9497 11.412V7.98H86.3557V11.412H82.9497Z" fill="black"/>
<path d="M95.5253 28V12.738H87.8813V9.28H106.601V12.738H98.9833V28H95.5253ZM110.607 28C109.949 28 109.351 27.8353 108.813 27.506C108.276 27.1767 107.843 26.7433 107.513 26.206C107.184 25.6687 107.019 25.0707 107.019 24.412V16.508C107.019 15.8493 107.184 15.2513 107.513 14.714C107.843 14.1767 108.276 13.7433 108.813 13.414C109.351 13.0847 109.949 12.92 110.607 12.92H118.745C119.404 12.92 120.002 13.0847 120.539 13.414C121.094 13.7433 121.527 14.1767 121.839 14.714C122.169 15.2513 122.333 15.8493 122.333 16.508V24.412C122.333 25.0707 122.169 25.6687 121.839 26.206C121.527 26.7433 121.103 27.1767 120.565 27.506C120.028 27.8353 119.421 28 118.745 28H110.607ZM110.737 24.594H118.615C118.702 24.594 118.771 24.568 118.823 24.516C118.893 24.4467 118.927 24.3687 118.927 24.282V16.638C118.927 16.5513 118.893 16.482 118.823 16.43C118.771 16.3607 118.702 16.326 118.615 16.326H110.737C110.651 16.326 110.573 16.3607 110.503 16.43C110.451 16.482 110.425 16.5513 110.425 16.638V24.282C110.425 24.3687 110.451 24.4467 110.503 24.516C110.573 24.568 110.651 24.594 110.737 24.594ZM128 28C127.341 28 126.743 27.8353 126.206 27.506C125.669 27.1767 125.235 26.7433 124.906 26.206C124.577 25.6687 124.412 25.0707 124.412 24.412V16.508C124.412 15.8493 124.577 15.2513 124.906 14.714C125.235 14.1767 125.669 13.7433 126.206 13.414C126.743 13.0847 127.341 12.92 128 12.92H136.138C136.797 12.92 137.395 13.0847 137.932 13.414C138.487 13.7433 138.92 14.1767 139.232 14.714C139.561 15.2513 139.726 15.8493 139.726 16.508V24.412C139.726 25.0707 139.561 25.6687 139.232 26.206C138.92 26.7433 138.495 27.1767 137.958 27.506C137.421 27.8353 136.814 28 136.138 28H128ZM128.13 24.594H136.008C136.095 24.594 136.164 24.568 136.216 24.516C136.285 24.4467 136.32 24.3687 136.32 24.282V16.638C136.32 16.5513 136.285 16.482 136.216 16.43C136.164 16.3607 136.095 16.326 136.008 16.326H128.13C128.043 16.326 127.965 16.3607 127.896 16.43C127.844 16.482 127.818 16.5513 127.818 16.638V24.282C127.818 24.3687 127.844 24.4467 127.896 24.516C127.965 24.568 128.043 24.594 128.13 24.594ZM145.393 28C144.734 28 144.136 27.8353 143.599 27.506C143.062 27.1767 142.628 26.7433 142.299 26.206C141.97 25.6687 141.805 25.0707 141.805 24.412V7.954H145.237V24.282C145.237 24.3687 145.263 24.4467 145.315 24.516C145.384 24.568 145.462 24.594 145.549 24.594H148.435V28H145.393ZM153.77 28C153.111 28 152.513 27.8353 151.976 27.506C151.438 27.1767 151.005 26.7433 150.676 26.206C150.346 25.6687 150.182 25.0707 150.182 24.412V23.84H153.588V24.282C153.588 24.3687 153.614 24.4467 153.666 24.516C153.735 24.568 153.813 24.594 153.9 24.594H161.778C161.864 24.594 161.934 24.568 161.986 24.516C162.055 24.4467 162.09 24.3687 162.09 24.282V22.488C162.09 22.4013 162.055 22.332 161.986 22.28C161.934 22.2107 161.864 22.176 161.778 22.176H153.77C153.111 22.176 152.513 22.0113 151.976 21.682C151.438 21.3527 151.005 20.9193 150.676 20.382C150.346 19.8447 150.182 19.2467 150.182 18.588V16.508C150.182 15.8493 150.346 15.2513 150.676 14.714C151.005 14.1767 151.438 13.7433 151.976 13.414C152.513 13.0847 153.111 12.92 153.77 12.92H161.908C162.584 12.92 163.19 13.0847 163.728 13.414C164.265 13.7433 164.698 14.1767 165.028 14.714C165.357 15.2513 165.522 15.8493 165.522 16.508V17.08H162.09V16.638C162.09 16.5513 162.055 16.482 161.986 16.43C161.934 16.3607 161.864 16.326 161.778 16.326H153.9C153.813 16.326 153.735 16.3607 153.666 16.43C153.614 16.482 153.588 16.5513 153.588 16.638V18.432C153.588 18.5187 153.614 18.5967 153.666 18.666C153.735 18.718 153.813 18.744 153.9 18.744H161.908C162.584 18.744 163.19 18.9087 163.728 19.238C164.265 19.5673 164.698 20.0007 165.028 20.538C165.357 21.0753 165.522 21.6733 165.522 22.332V24.412C165.522 25.0707 165.357 25.6687 165.028 26.206C164.698 26.7433 164.265 27.1767 163.728 27.506C163.19 27.8353 162.584 28 161.908 28H153.77Z" fill="#F16334"/>
<path d="M13.7163 33C11.0505 33 8.54272 32.3062 6.35934 31.09C6.89087 28.8123 7.61867 26.5457 9.1315 24.7407C10.4235 23.1845 12.1735 21.714 14.2697 21.6559C15.7661 21.7278 16.7801 23.5576 15.8534 24.8347C16.9791 24.6799 18.1621 24.1464 18.6501 23.0352C19.1298 21.9047 18.9472 20.5972 18.6064 19.4529C20.0648 18.35 20.1111 16.1967 19.187 14.7262C17.1618 11.3788 13.5282 8.88827 9.58126 8.84128C7.9812 8.6782 4.11326 9.48257 0 10.6546C2.4914 5.52706 7.69772 2 13.7163 2C22.1582 2 29 8.94079 29 17.4986C29 26.0564 22.1582 33 13.7163 33ZM16.6684 17.5898C17.1127 17.225 17.3444 16.7164 17.358 16.1359C17.7533 17.0453 17.5188 18.1371 18.1213 18.9747C17.4643 18.7342 16.881 18.2919 16.6684 17.5898Z" fill="#F16334"/>
</svg>
