<?xml version="1.0" encoding="utf-8"?>
<!-- Generator: Adobe Illustrator 26.0.0, SVG Export Plug-In . SVG Version: 6.00 Build 0)  -->
<svg version="1.1" id="Layer_1" xmlns="http://www.w3.org/2000/svg" xmlns:xlink="http://www.w3.org/1999/xlink" x="0px" y="0px"
	 viewBox="0 0 371 365" style="enable-background:new 0 0 371 365;" xml:space="preserve">
<style type="text/css">
	.st0{fill:url(#SVGID_1_);}
	.st1{fill:url(#SVGID_00000051368824336439644040000001487844644297734788_);}
	.st2{fill:url(#SVGID_00000075153458619275398110000017343748331778372997_);}
	.st3{fill:none;stroke:#5FCECB;stroke-width:3.14;stroke-miterlimit:10;}
	.st4{fill:#5FCECB;}
	.st5{fill:#FFFFFF;}
	.st6{fill:#45AFAA;}
	.st7{fill:url(#SVGID_00000134936836950766164870000006206095103352354205_);}
	.st8{fill:url(#SVGID_00000111153794955362017050000006899436285082263702_);}
	.st9{fill:url(#SVGID_00000153671109655554322060000012311753976874320302_);}
	.st10{opacity:0.6;}
	.st11{fill:#D9D9D9;}
	.st12{fill:#ADADAD;}
	.st13{fill:url(#SVGID_00000007409453448689975690000013123881334127480992_);}
	.st14{fill:url(#SVGID_00000050624789572470612480000002198446467231297695_);}
	.st15{fill:url(#SVGID_00000048496045524209093790000013597368622829354422_);}
	.st16{fill:url(#SVGID_00000090261827269274406620000009983624465886631079_);}
	.st17{fill:url(#SVGID_00000080929633099683104470000008287014619291677837_);}
	.st18{fill:url(#SVGID_00000181806895761917167070000018176269754559188921_);}
	.st19{fill:url(#SVGID_00000023981860406744559770000010411545768794366888_);}
	.st20{fill:url(#SVGID_00000141440232915519806630000008021925118822571404_);}
	.st21{fill:url(#SVGID_00000003827027685672297760000016595768544986324908_);}
	.st22{fill:url(#SVGID_00000177444435704456357530000003878131983698534300_);}
	.st23{fill:url(#SVGID_00000111878749494506585070000001603903590551326348_);}
	.st24{fill:url(#SVGID_00000012470538948580822420000018183169673257475768_);}
	.st25{fill:url(#SVGID_00000115483424382370458340000013281869626733484950_);}
	.st26{fill:url(#SVGID_00000085966784616520539620000016083786284964963244_);}
	.st27{fill:url(#SVGID_00000017499581774515536940000013329619806732393611_);}
	.st28{fill:#1DA69A;}
	.st29{fill:url(#SVGID_00000018929327889071285030000003090216457150018989_);}
	.st30{fill:#EEF0F3;}
	.st31{fill:url(#SVGID_00000034768945975348001740000008129652430102966454_);}
</style>
<g>
	<radialGradient id="SVGID_1_" cx="189.7771" cy="189.0554" r="147.3443" gradientUnits="userSpaceOnUse">
		<stop  offset="0" style="stop-color:#074F44"/>
		<stop  offset="1" style="stop-color:#1DA69A"/>
	</radialGradient>
	<path class="st0" d="M134.5,84.5c26,5.3,52.9,3.3,77.9-5.7c65.9-23.4,120,6.9,133.7,26c15.8,22.2,18.4,51.4,11.1,78.1
		s-23.8,51-43.5,72.2c-15.4,16.6-33.5,31.8-55,40.4c-21.1,8.4-44.2,10.1-66.8,11.2c-29,1.5-58.6,2.2-86.2-4.6
		C83.1,296.6,59.9,283,58,261.4c-1.7-18.4,12.8-36.5,10.8-54.9c-2.8-25.7-35.1-38.4-45.8-62c-12.5-27.4,3.4-57.7,25-64.2
		C70.4,73.7,106.2,78.5,134.5,84.5z"/>
	
		<radialGradient id="SVGID_00000018938423633894625880000010842873909212228541_" cx="-69.7511" cy="439.2167" r="1" gradientTransform="matrix(1.691047e-02 293.292 322.959 -1.862099e-02 -141657.8438 20629.8223)" gradientUnits="userSpaceOnUse">
		<stop  offset="0" style="stop-color:#074F44"/>
		<stop  offset="1" style="stop-color:#1DA69A"/>
	</radialGradient>
	<path style="fill:url(#SVGID_00000018938423633894625880000010842873909212228541_);" d="M138.9,59.7C120,92,59.1,101.9,37.9,118.5
		c-19.4,15.2-29.7,50.3-28.7,78.3c1,28,22.3,55.8,50.2,58.2c12.1,1,24.3-2.6,36.5-1.8c38.9,2.7,60.6,46.3,94.9,65
		c39.4,21.6,89.7,6.3,126.2-19.9c23.2-16.7,44.1-38.9,51.5-66.5c7.4-27.6-2.2-61.1-27.4-74.7c-22.7-12.2-57.2-10.4-66.1-34.6
		c-6.2-16.9,5.9-34.6,8.6-52.4c4.2-27.9-17-55.7-43.9-64.2c-26.9-8.5-51.6-10-71.4,10.1C159.1,25.4,145.5,48.3,138.9,59.7z"/>
	
		<radialGradient id="SVGID_00000182503727289423829400000000279955966110779776_" cx="-69.412" cy="438.9974" r="1" gradientTransform="matrix(119.5765 123.6302 122.3227 -118.3119 -45222.3945 60675.9062)" gradientUnits="userSpaceOnUse">
		<stop  offset="0" style="stop-color:#074F44"/>
		<stop  offset="1" style="stop-color:#1DA69A"/>
	</radialGradient>
	<path style="fill:url(#SVGID_00000182503727289423829400000000279955966110779776_);" d="M337.9,21c-15.2-22-55-32.3-93.3-2.4
		C201.5,52.3,140.6,69,86.3,77.7c-56,9-82.5,50.3-83.3,75.9c-0.8,28.1,23.1,63.1,93.8,105.9c70.7,42.8,120,54.7,162.3,49.2
		c42.2-5.5,69.9-30.4,83.6-72c9.6-29.1,4.2-63.9,2-110.5C341.9,68.1,359.9,52.8,337.9,21z"/>
	<path class="st3" d="M108.1,278.3c27.4,0.3,54,8.8,76.5,24.5c58.9,40.7,122.8,20.9,142.4,3.6c22.8-20.1,34.4-50.8,35.3-81.2
		s-8.1-60.4-21.4-87.8c-10.4-21.4-23.8-42-42.8-56.3c-18.6-14-41.3-21.2-63.6-27.8c-28.7-8.4-58.2-16.2-88.1-15.4
		c-24.4,0.6-51.9,9.8-60.5,32.6c-7.4,19.3,1.5,42.2-6.2,61.4c-10.8,26.9-47.2,33-65.2,55.7c-21,26.5-14.5,62.7,5.3,74.7
		C40.4,274.9,77.8,278.1,108.1,278.3z"/>
	<path class="st4" d="M100,257.5c-0.9-1.1-2.1-2.2-2.5-3.4c-0.3-1.3-0.2-2.7,0.4-3.9c0.3-0.6,0.7-1.1,1.2-1.6c0.5-0.4,1.1-0.8,1.7-1
		c1.3-0.2,3-0.7,4.2,0.3c1,0.8,2.3,1.9,2.5,3c0.4,1.3,0.3,2.7-0.2,4c-0.8,1.3-1.9,2.2-3.3,2.7C103,258.2,101.4,257.6,100,257.5z"/>
	<path class="st4" d="M111.7,267.4c-1.8-0.6-3.7-5-2.6-7.2c0.9-1.9,4.9-3.4,6.9-2.6s3.7,4.9,2.8,7.1
		C117.9,266.9,113.9,268.4,111.7,267.4z"/>
	<path class="st4" d="M120.5,270.3c0.8-0.7,1.6-1.5,2.5-2.1c1.4-1.1,3.1-0.6,4.6-0.3c0.8,0.1,1.5,1.3,2.1,2.1c1,1.4,0.8,3.1,0.5,4.6
		c-0.1,0.8-1.2,1.6-2,2.2c-1.5,1.1-3.3,0.9-4.9,0.6c-0.9-0.2-1.6-1.5-2.3-2.4C119.9,273.6,120.8,271.9,120.5,270.3z"/>
	<path class="st4" d="M134.2,286.5c-2.8-1.3-3.5-3.4-2.1-6.2c1.4-2.8,3.5-3.5,6.3-2.1c2.8,1.3,3.5,3.4,2.1,6.3
		C139.1,287.2,137,287.9,134.2,286.5z"/>
	<path class="st4" d="M90.6,267.6c-1.2-0.1-1.6-1.2-2-2.5c-0.4-1.2-1-2.3-0.1-3.7c0.2-0.5,0.6-0.9,1-1.3c0.4-0.3,0.9-0.6,1.4-0.7
		c1.2-0.3,2.3-1.1,3.7-0.2c1.1,0.6,2,1.1,2.3,2.5c0.3,1.4,1,2.3,0.2,3.7c-0.6,1.1-1.6,1.9-2.8,2.3C93.1,268.1,91.8,268.1,90.6,267.6
		z"/>
	<path class="st4" d="M152.1,294c-0.6,1.1-1.6,2-2.8,2.5c-1.2,0.4-2.5,0.4-3.7-0.1c-1.5-0.6-1.6-1.9-2.2-3c-0.6-1.1-0.2-2.2,0.2-3.4
		c0.6-1.6,2-1.6,3.1-2.1c0.5-0.2,1-0.3,1.6-0.3c0.5,0,1.1,0.2,1.5,0.4c1.6,0.5,1.8,1.8,2.2,3C152.5,292.3,153.1,293.3,152.1,294z"/>
	<path class="st4" d="M85.4,255.6c-0.3,1.7-1.8,1.7-2.9,2.3c-1.1,0.6-2.2,0.2-3.4-0.2c-1.6-0.6-1.5-2-2.2-3.1
		c-0.7-1.3-0.1-2.2,0.3-3.4c0.5-1.6,2-1.5,3.1-2.1c1.1-0.6,2-0.2,3.1,0.2c1.6,0.5,1.7,1.8,2.2,3C86.2,253.4,86.4,254.5,85.4,255.6z"
		/>
	<path class="st4" d="M119,285.7c-0.7,1.8-4,3.3-6.3,2.2c-1-0.6-1.7-1.5-2.2-2.6c-0.4-1.1-0.5-2.3-0.1-3.4c0.2-0.6,0.6-1.1,1-1.6
		c0.4-0.4,1-0.8,1.5-1c0.6-0.2,1.2-0.4,1.8-0.3c0.6,0,1.2,0.1,1.8,0.4c0.6,0.3,1.1,0.6,1.5,1.1c0.4,0.5,0.8,1,1,1.6s0.3,1.2,0.3,1.8
		C119.5,284.5,119.3,285.1,119,285.7L119,285.7z"/>
	<path class="st4" d="M108.2,275.9c-0.6,1.1-1.5,1.9-2.7,2.3c-1.1,0.4-2.4,0.4-3.5,0c-1-0.6-1.8-1.5-2.2-2.6
		c-0.4-1.1-0.5-2.3-0.2-3.4c0.8-2.1,4-3.4,6.2-2.6c1.1,0.6,1.9,1.5,2.4,2.7C108.6,273.5,108.6,274.8,108.2,275.9z"/>
	<path class="st4" d="M124.1,297.9c-0.8-0.9-1.5-1.9-2.1-3c-0.4-1.1-0.3-2.3,0.2-3.3c0.7-1,1.8-1.7,2.9-2c1.1-0.3,2.3-0.3,3.3,0.2
		c1,0.6,1.7,1.6,2,2.7c0.4,1.1,0.3,2.3-0.1,3.3c-0.7,1-1.7,1.8-2.9,2.2C126.5,298.3,125.3,297.9,124.1,297.9z"/>
	<path class="st4" d="M155.3,301.1c0.2-0.5,0.5-1,0.8-1.4c0.4-0.4,0.8-0.7,1.4-0.9c0.5-0.2,1.1-0.2,1.6-0.2c0.5,0.1,1.1,0.2,1.5,0.5
		c2.6,1.5,3,2.8,1.8,5.6c-0.2,0.5-0.5,0.9-0.9,1.3c-0.4,0.4-0.9,0.6-1.4,0.8c-0.5,0.2-1.1,0.2-1.6,0.1c-0.5-0.1-1-0.3-1.5-0.6
		C154.6,305.1,154.1,303.6,155.3,301.1z"/>
	<path class="st4" d="M135.6,307.1c-1.3-0.2-1.3-1.5-1.8-2.4c-0.7-1.2,0.1-2,0.4-3.1c0.4-1.3,1.5-1.4,2.5-1.9c1.2-0.6,2,0.1,3.1,0.4
		c1.3,0.4,1.4,1.5,1.9,2.5c0.7,1.2-0.1,2-0.4,3.1c-0.4,1.3-1.5,1.5-2.5,1.8C137.4,308.1,137.4,308.1,135.6,307.1z"/>
	<path class="st4" d="M81,278.5c-0.9-0.5-1.6-1.3-1.9-2.3c-0.3-1-0.2-2.1,0.3-3c0.2-0.5,0.5-1,0.9-1.4c0.4-0.4,0.9-0.7,1.4-0.9
		c0.5-0.2,1.1-0.3,1.7-0.3c0.6,0,1.1,0.2,1.6,0.4c0.5,0.3,1,0.6,1.3,1.1c0.4,0.4,0.6,1,0.7,1.5c0.1,0.6,0.2,1.1,0,1.7
		c-0.1,0.6-0.3,1.1-0.7,1.6c-0.5,0.9-1.3,1.7-2.3,2C83,279,81.9,278.9,81,278.5z"/>
	<path class="st4" d="M67.8,263c1.2-1.9,3.3-2.8,5.4-1.6c0.5,0.2,1,0.5,1.4,0.9c0.4,0.4,0.7,0.9,0.9,1.4c0.2,0.5,0.3,1.1,0.3,1.7
		c0,0.6-0.2,1.1-0.5,1.6c-0.3,0.5-0.6,0.9-1.1,1.3c-0.5,0.3-1,0.6-1.5,0.7c-0.6,0.1-1.1,0.1-1.7,0c-0.6-0.1-1.1-0.3-1.6-0.7
		c-0.9-0.5-1.6-1.3-1.9-2.3C67.2,265.1,67.3,264,67.8,263z"/>
	<path class="st4" d="M147.4,317.3c-0.7-0.4-1.3-0.9-1.7-1.6c-0.4-0.7-0.6-1.5-0.5-2.3c0.1-0.8,0.3-1.5,0.8-2.2
		c0.5-0.6,1.1-1.1,1.9-1.3c0.8-0.3,1.6-0.3,2.3-0.1c0.8,0.2,1.4,0.6,2,1.2c0.5,0.6,0.9,1.3,1,2.1s0,1.6-0.4,2.3
		c-0.5,0.9-1.3,1.6-2.3,2C149.4,317.8,148.4,317.8,147.4,317.3z"/>
	<path class="st4" d="M91.9,288.2c-0.7-0.3-1.3-0.9-1.7-1.6c-0.4-0.7-0.6-1.5-0.5-2.3c0-0.8,0.3-1.5,0.8-2.2
		c0.5-0.6,1.1-1.1,1.9-1.4c0.7-0.3,1.6-0.3,2.3-0.1c0.8,0.2,1.5,0.6,2,1.2c0.5,0.6,0.9,1.3,1,2.1c0.1,0.8,0,1.6-0.4,2.3
		c-0.5,0.9-1.3,1.6-2.3,2C94,288.7,92.9,288.6,91.9,288.2z"/>
	<path class="st4" d="M58.3,258.6c-1-0.4-1.7-1.2-2.1-2.2c-0.4-1-0.3-2.1,0.1-3c0.2-0.6,0.4-1.1,0.8-1.5c0.4-0.4,0.8-0.8,1.3-1
		c0.5-0.2,1.1-0.4,1.7-0.4c0.6,0,1.1,0.1,1.7,0.3c0.5,0.2,1,0.6,1.4,1c0.4,0.4,0.7,0.9,0.8,1.5c0.2,0.5,0.2,1.1,0.1,1.7
		c-0.1,0.6-0.3,1.1-0.6,1.6C62.6,258.7,60.4,259.3,58.3,258.6z"/>
	<path class="st4" d="M166.8,311.1c0.4-0.7,0.9-1.3,1.6-1.7c0.7-0.4,1.5-0.6,2.3-0.5c0.8,0.1,1.5,0.3,2.2,0.8
		c0.6,0.5,1.1,1.1,1.3,1.9s0.3,1.6,0.1,2.3c-0.2,0.8-0.6,1.4-1.2,2c-0.6,0.5-1.3,0.9-2.1,1c-0.8,0.1-1.6,0-2.3-0.4
		c-0.9-0.5-1.6-1.3-2-2.3C166.3,313.1,166.3,312,166.8,311.1z"/>
	<path class="st4" d="M102.9,298.7c-1.9-1.2-2.8-3.3-1.6-5.4c0.2-0.5,0.5-1,0.9-1.4c0.4-0.4,0.9-0.7,1.4-0.9
		c0.5-0.2,1.1-0.3,1.7-0.3s1.1,0.2,1.6,0.5c0.5,0.3,0.9,0.6,1.3,1.1c0.3,0.5,0.6,1,0.7,1.5c0.1,0.6,0.1,1.1,0,1.7
		c-0.1,0.6-0.3,1.1-0.7,1.6c-0.5,0.9-1.3,1.6-2.3,1.9C105,299.3,103.9,299.2,102.9,298.7z"/>
	<path class="st4" d="M112.6,303.5c0.5-1.2,4.1-2.5,5.4-1.9c1.1,0.5,2.4,3.8,2,5.1c-0.4,1.3-3.9,2.6-5.3,2.1
		C113.5,308.4,112.1,304.9,112.6,303.5z"/>
	<path class="st4" d="M130.7,316.7c-1,2.1-2.3,2.5-4.4,1.5c-2.2-1-2.7-2.3-1.4-4.7c1-2,2.3-2.4,4.5-1.2
		C131.6,313.4,131.8,314.5,130.7,316.7z"/>
	<path class="st4" d="M179.6,325.5c-2.1-1-2.5-2.3-1.5-4.4c1-2.1,2.3-2.6,4.7-1.4c2,1,2.3,2.3,1.2,4.5
		C183,326.4,181.9,326.6,179.6,325.5z"/>
	<path class="st4" d="M200.9,324.7c-0.8-0.4-1.4-1-1.7-1.9c-0.3-0.8-0.3-1.7,0.1-2.5c0.2-0.4,0.4-0.8,0.8-1.1
		c0.3-0.3,0.7-0.6,1.2-0.7c0.4-0.1,0.9-0.2,1.4-0.2c0.5,0,0.9,0.2,1.3,0.4c0.8,0.4,1.3,1.1,1.6,2s0.2,1.7-0.2,2.5
		c-0.4,0.8-1.1,1.4-1.9,1.6C202.6,325.2,201.7,325.1,200.9,324.7z"/>
	<path class="st4" d="M158.2,327c-0.4-0.2-0.8-0.5-1-0.8c-0.3-0.3-0.5-0.7-0.6-1.2c-0.1-0.4-0.2-0.9-0.1-1.3
		c0.1-0.4,0.2-0.9,0.4-1.3c0.2-0.4,0.5-0.7,0.9-1c0.4-0.3,0.8-0.5,1.2-0.6c0.4-0.1,0.9-0.1,1.3-0.1c0.4,0.1,0.9,0.2,1.3,0.5
		c0.7,0.5,1.3,1.2,1.5,2c0.2,0.8,0.1,1.7-0.3,2.5s-1.1,1.3-2,1.6C159.9,327.5,159,327.4,158.2,327z"/>
	<path class="st4" d="M135.6,323.4c0.3-0.6,0.7-1.1,1.3-1.4c0.6-0.3,1.2-0.5,1.9-0.4c0.7,0,1.3,0.3,1.8,0.7c0.5,0.4,0.9,0.9,1.1,1.6
		c0.2,0.6,0.2,1.3,0.1,1.9c-0.2,0.6-0.5,1.2-1,1.6c-0.5,0.4-1.1,0.7-1.8,0.8c-0.7,0.1-1.3,0-1.9-0.3c-0.7-0.5-1.2-1.2-1.5-2
		C135.4,325.1,135.4,324.3,135.6,323.4z"/>
	<path class="st4" d="M93.7,309.1c-1-0.4-2.1-3.3-1.7-4.4c0.4-1.1,3.3-2.1,4.4-1.7c1.1,0.4,2.1,3.3,1.7,4.4S94.8,309.5,93.7,309.1z"
		/>
	<path class="st4" d="M80.6,294.6c0.5-0.9,3.5-2,4.5-1.5c0.9,0.5,2,3.5,1.5,4.5c-0.4,0.9-3.5,2-4.4,1.5
		C81.2,298.6,80.2,295.6,80.6,294.6z"/>
	<path class="st4" d="M64.4,277.8c-0.4,1-3.4,2.1-4.4,1.6s-2-3.4-1.6-4.4c0.4-1,3.4-2.1,4.4-1.6C63.8,273.8,64.8,276.8,64.4,277.8z"
		/>
	<path class="st4" d="M70.9,289.1c-1-0.4-2.1-3.3-1.7-4.4c0.4-1.1,3.3-2.1,4.4-1.7c1.1,0.4,2.1,3.3,1.7,4.4
		C74.9,288.5,72,289.5,70.9,289.1z"/>
	<path class="st4" d="M107.6,314.3c2.1,1,2.2,1.3,1.1,3.6c-1.1,2.2-1.4,2.2-3.8,1c-1.8-0.9-2-1.4-0.8-3.6
		C105,313.3,105.3,313.2,107.6,314.3z"/>
	<path class="st4" d="M37.6,258.2c-0.6-0.3-1.1-0.8-1.4-1.5c-0.3-0.6-0.3-1.4,0-2c0.1-0.3,0.4-0.7,0.6-0.9c0.3-0.3,0.6-0.5,0.9-0.6
		c0.3-0.1,0.7-0.2,1.1-0.1c0.4,0,0.7,0.1,1.1,0.3c0.6,0.3,1,0.9,1.2,1.5c0.2,0.7,0.1,1.4-0.2,2c-0.3,0.6-0.8,1.1-1.5,1.3
		C39,258.5,38.3,258.5,37.6,258.2z"/>
	<path class="st4" d="M191.6,335c-0.6-0.3-1.1-0.8-1.4-1.4c-0.3-0.6-0.3-1.3-0.1-2c0.2-0.5,0.5-0.9,1-1.2c0.4-0.3,0.9-0.5,1.5-0.5
		c0.5,0,1.1,0.1,1.5,0.4c0.4,0.3,0.8,0.7,1,1.2c0.2,0.5,0.3,1,0.2,1.5c-0.1,0.5-0.3,1-0.7,1.4c-0.4,0.4-0.8,0.6-1.4,0.7
		S192.1,335.2,191.6,335z"/>
	<path class="st4" d="M119.6,327.4c-0.3,0.6-0.8,1.1-1.5,1.4c-0.6,0.3-1.4,0.3-2,0c-0.3-0.1-0.7-0.3-0.9-0.6
		c-0.3-0.3-0.5-0.6-0.6-0.9c-0.1-0.3-0.2-0.7-0.2-1.1c0-0.4,0.1-0.7,0.3-1.1c0.3-0.6,0.9-1.1,1.5-1.3c0.7-0.2,1.4-0.2,2,0.1
		c0.6,0.3,1.1,0.8,1.3,1.5C119.9,326.1,119.9,326.8,119.6,327.4z"/>
	<path class="st4" d="M168.8,332.9c0.3-0.6,0.8-1.1,1.5-1.4c0.6-0.3,1.4-0.3,2,0c0.3,0.1,0.7,0.4,0.9,0.6c0.3,0.3,0.5,0.6,0.6,0.9
		c0.1,0.3,0.2,0.7,0.2,1.1c0,0.4-0.1,0.7-0.3,1.1c-0.2,0.3-0.4,0.6-0.6,0.8c-0.3,0.2-0.6,0.4-0.9,0.5c-0.3,0.1-0.7,0.2-1,0.1
		c-0.3,0-0.7-0.1-1-0.3c-0.3-0.2-0.6-0.4-0.8-0.6c-0.2-0.3-0.4-0.6-0.5-0.9c-0.1-0.3-0.2-0.7-0.1-1S168.6,333.3,168.8,332.9z"/>
	<path class="st4" d="M212.6,334.1c-0.6-0.3-1.1-0.8-1.3-1.5c-0.2-0.6-0.2-1.4,0-2c0.1-0.3,0.4-0.6,0.6-0.9c0.3-0.2,0.6-0.4,0.9-0.6
		c0.4-0.1,0.7-0.2,1.1-0.1c0.4,0,0.7,0.1,1.1,0.3c0.6,0.3,1,0.9,1.2,1.6c0.2,0.7,0.1,1.4-0.2,2c-0.3,0.6-0.8,1.1-1.5,1.3
		C214,334.4,213.3,334.4,212.6,334.1z"/>
	<path class="st4" d="M147.6,333.8c0.1-0.3,0.3-0.6,0.6-0.9c0.3-0.2,0.6-0.4,0.9-0.6c0.3-0.1,0.7-0.2,1.1-0.2c0.4,0,0.7,0.1,1,0.3
		c0.3,0.2,0.6,0.4,0.9,0.6c0.2,0.3,0.4,0.6,0.5,0.9c0.1,0.3,0.2,0.7,0.1,1.1c0,0.4-0.1,0.7-0.3,1c-0.3,0.6-0.9,1.1-1.5,1.3
		c-0.7,0.2-1.4,0.2-2-0.1c-0.6-0.3-1.1-0.8-1.4-1.5C147.4,335.2,147.4,334.5,147.6,333.8z"/>
	<path class="st4" d="M47.7,264.7c0.3-0.6,0.8-1.1,1.5-1.4c0.6-0.3,1.4-0.3,2,0c0.3,0.1,0.7,0.4,0.9,0.6s0.5,0.6,0.6,0.9
		c0.1,0.4,0.2,0.7,0.2,1.1c0,0.4-0.1,0.7-0.3,1.1c-0.3,0.6-0.9,1.1-1.5,1.4c-0.7,0.2-1.4,0.2-2-0.1c-0.6-0.3-1.1-0.9-1.4-1.5
		C47.4,266,47.4,265.3,47.7,264.7z"/>
	<path class="st4" d="M160.5,347.4c-1.3-0.6-1.7-1.3-1.2-2.5c0.5-1.2,1.3-1.7,2.5-1.3c1.5,0.6,1.9,1.4,1.3,2.8
		C162.4,347.6,161.7,347.9,160.5,347.4z"/>
	<path class="st4" d="M127.8,338.2c-1.3-0.6-1.6-1.3-1.1-2.6c0.5-1.2,1.3-1.7,2.5-1.2c1.5,0.6,1.8,1.4,1.2,2.8
		c-0.1,0.3-0.2,0.5-0.4,0.7c-0.2,0.2-0.4,0.4-0.7,0.5c-0.3,0.1-0.5,0.1-0.8,0.1C128.3,338.4,128,338.3,127.8,338.2z"/>
	<path class="st4" d="M181.9,345.9c-1.3-0.6-1.6-1.3-1.2-2.5c0.5-1.2,1.3-1.7,2.5-1.3c1.5,0.6,1.8,1.4,1.2,2.8
		C183.9,346.2,183.2,346.4,181.9,345.9z"/>
	<path class="st4" d="M29.1,246.6c-0.6,1.3-1.3,1.6-2.6,1.1c-1.2-0.5-1.7-1.3-1.2-2.5c0.6-1.5,1.4-1.8,2.8-1.2
		c0.3,0.1,0.5,0.2,0.7,0.4c0.2,0.2,0.4,0.4,0.5,0.7c0.1,0.3,0.1,0.5,0.1,0.8C29.4,246.1,29.3,246.3,29.1,246.6z"/>
	<path class="st4" d="M83.3,316.7c0.6-1.3,1.3-1.6,2.6-1.1c1.2,0.5,1.7,1.3,1.2,2.5c-0.6,1.5-1.4,1.8-2.8,1.2
		C82.9,318.7,82.7,318,83.3,316.7z"/>
	<path class="st4" d="M75.5,308.3c-0.6,1.3-1.3,1.6-2.6,1.1s-1.7-1.3-1.2-2.5c0.6-1.5,1.4-1.8,2.8-1.1c0.3,0.1,0.5,0.2,0.7,0.4
		c0.2,0.2,0.4,0.4,0.5,0.7c0.1,0.3,0.1,0.5,0.1,0.8C75.8,307.8,75.7,308.1,75.5,308.3z"/>
	<path class="st4" d="M98.1,328.2c-0.9,0.4-1.9,0.7-2.9,0.9c-0.5,0.1-1.5-2.5-1-2.7c0.8-0.4,1.9-1.1,2.6-0.8
		C97.5,325.8,97.6,327.1,98.1,328.2z"/>
	<path class="st4" d="M48.9,285.9c1-0.3,1.9-0.6,2.9-0.8c0.5,0,1.4,2.5,0.9,2.8c-0.8,0.4-2,1-2.6,0.7
		C49.6,288.2,49.4,287,48.9,285.9z"/>
	<path class="st4" d="M237.4,331.4c-1.2,0.3-2.3,0.9-2.9,0.6c-0.6-0.3-0.8-1.6-1-2.5c-0.1-0.5,2.5-1.3,2.8-0.9
		C236.7,329.5,237,330.4,237.4,331.4z"/>
	<path class="st4" d="M205.9,344.3c-1.2,0.3-2.3,0.9-2.9,0.5c-0.6-0.3-0.8-1.6-1-2.5c-0.1-0.5,2.5-1.3,2.8-0.9
		C205.2,342.4,205.6,343.3,205.9,344.3z"/>
	<path class="st4" d="M61.3,299.7c-0.4-0.9-0.7-1.9-0.9-2.9c-0.1-0.5,2.5-1.5,2.7-1.1c0.5,0.8,1.1,1.9,0.8,2.6
		C63.6,299,62.4,299.2,61.3,299.7z"/>
	<path class="st4" d="M139,348.5c-0.3-1-0.6-1.9-0.8-2.9c-0.1-0.5,2.5-1.4,2.8-0.9c0.4,0.8,1,1.9,0.7,2.6
		C141.4,347.9,140.1,348,139,348.5z"/>
	<path class="st4" d="M16,237.4c-1.4-0.6-1.3-0.6-0.8-1.9c0.4-0.8,0.7-1.2,1.7-0.7c1.3,0.7,1.3,0.6,0.8,1.9
		C17.2,237.5,16.9,238,16,237.4z"/>
	<path class="st4" d="M41.3,277.9c-0.2,0.9-0.7,1.2-1.6,0.7c-1.3-0.7-1.3-0.6-0.8-1.9c0.4-0.8,0.7-1.2,1.7-0.7
		C41.9,276.6,42,276.6,41.3,277.9z"/>
	<path class="st4" d="M106.6,338.3c-1.1-0.3-0.9-0.9-0.4-1.7c0.6-1.2,0.6-1.1,1.9-0.6c1,0.4,0.9,1,0.5,1.7
		C108,339,108,339,106.6,338.3z"/>
	<path class="st4" d="M224.5,343.2c-0.2-0.9-0.6-1.6-0.3-2s1.1-0.5,1.6-0.7c0.3,0.6,0.5,1.3,0.6,1.9
		C226.3,342.7,225.3,342.9,224.5,343.2z"/>
	<path class="st4" d="M195.7,354.8c-0.9,0.2-1.8,0.7-2,0.5c-0.4-0.6-0.6-1.2-0.7-1.9c0.6-0.2,1.3-0.6,1.7-0.4
		S195.3,353.9,195.7,354.8z"/>
	<path class="st4" d="M174.2,356.1c-0.6,0.3-1.2,0.5-1.9,0.7c-0.5,0.1-1.2-1.5-0.8-1.8c0.2-0.2,0.5-0.4,0.8-0.5s0.6-0.1,0.9-0.1
		C173.6,354.5,173.8,355.3,174.2,356.1z"/>
	<path class="st4" d="M117.9,349.4c-0.3-0.6-0.5-1.3-0.6-2c0-0.6,1.5-1.1,1.9-0.7c0.2,0.2,0.3,0.5,0.4,0.8s0.1,0.6,0.1,0.9
		C119.5,348.8,118.7,349,117.9,349.4z"/>
	<path class="st4" d="M150.9,356.9c-0.2-0.2-0.4-0.6-0.6-1l1.9-0.6c0.2,0.6,0.6,1.2,0.4,1.7C152.3,357.9,151.6,357,150.9,356.9z"/>
	<path class="st4" d="M28.7,287.8c0.4,0,0.9,0,1.3,0.1c0.1,0.1,0.2,0.7,0.2,0.8c-0.3,0.2-0.7,0.3-1,0.2
		C29,288.9,29,288.4,28.7,287.8z"/>
	<path class="st4" d="M73.6,328.1c0.4,0,0.9,0,1.3,0.1c0.2,0.1,0.2,0.7,0.2,0.7c-0.3,0.2-0.6,0.3-1,0.2
		C74,329.2,73.9,328.7,73.6,328.1z"/>
	<path class="st4" d="M64.5,319.5c-0.6,0-1,0.2-1.1,0c-0.1-0.3-0.2-0.7-0.3-1c0.3-0.1,0.7-0.3,0.8-0.1C64,318.5,64.3,319,64.5,319.5
		z"/>
	<path class="st4" d="M4.3,225.1c0.4-0.1,0.8-0.2,1.2-0.2c0.2,0,0.2,0.5,0.4,0.7c-0.3,0.2-0.6,0.3-1,0.4
		C4.8,226,4.6,225.6,4.3,225.1"/>
	<path class="st4" d="M29.6,267.8c-0.6,0-1,0.2-1.1,0c-0.1-0.3-0.2-0.7-0.3-1c0.3-0.1,0.7-0.3,0.8-0.1
		C29.3,267,29.5,267.4,29.6,267.8z"/>
	<path class="st4" d="M205.6,364.9c-0.6,0-1,0.2-1.1,0c-0.1-0.3-0.2-0.7-0.3-1c0.3-0.1,0.7-0.2,0.8-0.1
		C205.1,363.8,205.3,364.3,205.6,364.9z"/>
	<path class="st4" d="M40.1,298c0.4-0.1,0.8-0.2,1.2-0.2c0.2,0,0.3,0.5,0.4,0.7c-0.3,0.2-0.6,0.3-1,0.4
		C40.6,299,40.4,298.5,40.1,298z"/>
	<path class="st4" d="M5.7,247.6c-0.1-0.4-0.2-0.8-0.2-1.3c0-0.2,0.5-0.2,0.7-0.4c0.2,0.3,0.3,0.6,0.4,1
		C6.6,247.1,6.2,247.2,5.7,247.6z"/>
	<path class="st4" d="M214.7,354c0-0.4,0-0.9,0.1-1.3c0.1-0.1,0.2-0.1,0.4-0.2s0.3,0,0.4,0c0.2,0.3,0.3,0.7,0.2,1
		C215.8,353.7,215.3,353.8,214.7,354z"/>
	<path class="st4" d="M18.1,257.8c-0.6,0-1,0.2-1.1,0c-0.1-0.3-0.2-0.7-0.3-1c0.3-0.1,0.7-0.2,0.8-0.1
		C17.7,256.7,17.9,257.2,18.1,257.8z"/>
	<path class="st4" d="M52.2,309.3c-0.1-0.4-0.2-0.8-0.2-1.2c0-0.2,0.5-0.2,0.7-0.4c0.2,0.3,0.3,0.6,0.4,1
		C53.1,308.8,52.6,309,52.2,309.3z"/>
	<path class="st4" d="M237.6,352.2c-0.6,0-1,0.2-1.1,0c-0.1-0.3-0.2-0.7-0.3-1c0.3-0.1,0.7-0.2,0.8-0.1
		C237.2,351.2,237.3,351.7,237.6,352.2z"/>
	<path class="st4" d="M247.3,341.4c-0.6,0-1,0.2-1.1,0c-0.2-0.3-0.2-0.7-0.3-1c0.3,0,0.7-0.2,0.8-0.1
		C247,340.6,247.2,341,247.3,341.4z"/>
	<path class="st4" d="M257.4,329.7c-0.6,0.2-1,0.4-1.1,0.3c-0.2-0.3-0.4-0.6-0.4-1c0-0.1,0.5-0.4,0.7-0.3
		C256.7,328.8,257,329.2,257.4,329.7z"/>
	<path class="st4" d="M85.6,339.7c-0.2-0.6-0.4-1-0.3-1.1c0.3-0.2,0.6-0.4,0.9-0.4c0.1,0,0.4,0.5,0.3,0.7S86.1,339.3,85.6,339.7z"/>
	<path class="st4" d="M277.3,328.8c0-0.4,0-0.9,0.1-1.3c0.1-0.2,0.7-0.2,0.8-0.2c0.2,0.3,0.3,0.7,0.2,1
		C278.4,328.5,277.9,328.5,277.3,328.8z"/>
	<path class="st4" d="M287,317.9c0-0.4,0-0.9,0.1-1.3c0.1-0.1,0.7-0.2,0.7-0.2c0.2,0.3,0.3,0.6,0.2,1
		C288.1,317.6,287.6,317.7,287,317.9z"/>
	<path class="st4" d="M313,50.9c0.4-1.2,2.1-1.2,2.5-0.1c4.3,12,12.2,45.5-14.3,83.4c-33.2,47.6-32.2,71.6-24.8,89.8
		c0,0-15.6-14.7-17.2-39.4C255.2,123.9,306.7,72.4,313,50.9z"/>
	<path class="st5" d="M310.3,70.2c-1.9,6.2-4,12.3-6.2,18.4c-2.2,6.1-4.7,12.1-7.3,18c-2.6,5.9-5.4,11.8-8.3,17.5
		c-3,5.8-6.2,11.4-9.4,17c-3.2,5.6-6.5,11.3-9.1,17.3c-2.7,6-4.7,12.4-5.5,19c-0.2,1.6-0.3,3.3-0.4,4.9c-0.1,1.6-0.1,3.3-0.1,5
		c0,3.3,0.3,6.6,0.8,9.9c1,6.5,3.1,12.9,5.9,18.9c0.1,0.2,0.2,0.3,0.3,0.4c0.1,0.1,0.3,0.2,0.4,0.3c0.2,0.1,0.3,0.1,0.5,0.1
		c0.2,0,0.3,0,0.5-0.1s0.3-0.2,0.4-0.3c0.1-0.1,0.2-0.3,0.3-0.4c0.1-0.2,0.1-0.3,0.1-0.5c0-0.2,0-0.3-0.1-0.5
		c-0.6-1.5-1.3-2.9-1.8-4.4c-0.3-0.7-0.5-1.5-0.8-2.3c-0.2-0.8-0.5-1.5-0.7-2.3c-0.9-3-1.6-6.2-2.1-9.3c-1-6.3-1-12.7-0.3-19
		c0.4-3.1,1-6.3,1.9-9.3c0.9-3.1,2-6.1,3.3-9c2.6-5.9,5.7-11.5,8.9-17.2c3.2-5.7,6.3-11.4,9.2-17.3c1.5-2.9,2.9-5.9,4.2-8.8
		c0.7-1.5,1.3-3,2-4.5c0.7-1.5,1.3-3,1.9-4.5c2.5-6,4.7-12.1,6.8-18.3c2.1-6.2,3.9-12.4,5.6-18.7c0-0.1,0-0.2,0-0.3
		c0-0.1-0.1-0.1-0.2-0.2c-0.1,0-0.2,0-0.3,0C310.4,70.1,310.4,70.2,310.3,70.2L310.3,70.2z"/>
	<path class="st6" d="M253.3,180c-1.6,1.7-4.4,1.2-5.3-1c-5.1-11.7-16.7-46.2,3.5-85.5c17-33.2,23.1-52.8,25.2-61.9
		c0.5-1.9,3.1-2.2,3.9-0.3C289.1,51.3,311.5,119.5,253.3,180z"/>
	
		<linearGradient id="SVGID_00000121269441366512497520000009714140992581041336_" gradientUnits="userSpaceOnUse" x1="249.9997" y1="240" x2="275.0003" y2="240" gradientTransform="matrix(1 0 0 -1 0 366)">
		<stop  offset="0" style="stop-color:#FFFFFF"/>
		<stop  offset="1" style="stop-color:#E9EFFD"/>
	</linearGradient>
	<path style="fill:url(#SVGID_00000121269441366512497520000009714140992581041336_);" d="M251.1,179c-0.1,0-0.1,0-0.2,0
		c-0.1,0-0.2,0-0.3-0.1c-0.1,0-0.2-0.1-0.3-0.2c-0.1-0.1-0.1-0.2-0.2-0.3c0-0.1-0.1-0.2-0.1-0.3c0-0.6,1.7-57.3,23.3-104.6
		c0.1-0.2,0.3-0.4,0.5-0.5c0.2-0.1,0.5-0.1,0.7,0s0.4,0.3,0.5,0.5c0.1,0.2,0.1,0.5,0,0.7c-21.4,46.9-23.1,103.3-23.1,103.8
		c0,0.2-0.1,0.4-0.2,0.6C251.4,178.8,251.3,179,251.1,179z"/>
	
		<linearGradient id="SVGID_00000075845314329528590720000013890696624909199246_" gradientUnits="userSpaceOnUse" x1="218.1527" y1="107.3727" x2="162.5727" y2="275.1397" gradientTransform="matrix(1 0 0 -1 0 366)">
		<stop  offset="0" style="stop-color:#F7F7F7"/>
		<stop  offset="1" style="stop-color:#FFFEFC"/>
	</linearGradient>
	<path style="fill:url(#SVGID_00000075845314329528590720000013890696624909199246_);" d="M73.3,264.6c0,1.2,0.5,2.3,1.3,3.1
		c0.8,0.8,1.9,1.3,3.1,1.3h237.9c1.2,0,2.3-0.5,3.1-1.3c0.8-0.8,1.3-1.9,1.3-3.1l2-135.9c0-2.4-2.8-7.1-8.1-6.7l-232.5-6
		c-1.5,0-3,0.2-4.4,0.8c-1.4,0.6-2.7,1.4-3.7,2.4c-1.1,1.1-1.9,2.3-2.5,3.7c-0.6,1.4-0.8,2.9-0.8,4.4L73.3,264.6z"/>
	
		<linearGradient id="SVGID_00000163069702849640293420000006926023492145980331_" gradientUnits="userSpaceOnUse" x1="70.8042" y1="104.5814" x2="321.9633" y2="241.9314" gradientTransform="matrix(1 0 0 -1 0 366)">
		<stop  offset="0" style="stop-color:#E3E3E3"/>
		<stop  offset="1" style="stop-color:#BCBCBC"/>
	</linearGradient>
	<path style="fill:url(#SVGID_00000163069702849640293420000006926023492145980331_);" d="M77.3,260.8c0,1.1,0.4,2.2,1.2,2.9
		c0.8,0.8,1.8,1.2,3,1.2h229.4c1.1,0,2.2-0.4,3-1.2c0.8-0.8,1.2-1.8,1.2-2.9L317,137c-0.2-7.5-6.8-10.1-10.8-10L82,121
		c-1.1,0-2.1,0.2-3.1,0.5c-1,0.4-1.9,1-2.6,1.7c-0.8,0.7-1.3,1.6-1.7,2.6c-0.4,1-0.6,2-0.6,3.1L77.3,260.8z"/>
	<g class="st10">
		<path class="st5" d="M312,201.9L312,201.9c-0.1,0-0.2,0-0.2-0.1c-0.1,0-0.1-0.1-0.2-0.1s-0.1-0.1-0.1-0.2c0-0.1,0-0.2,0-0.2
			l0.1-10.1c0-0.2,0.1-0.3,0.2-0.4c0.1-0.1,0.3-0.2,0.4-0.2h0c0.1,0,0.2,0,0.2,0.1c0.1,0,0.1,0.1,0.2,0.1c0.1,0.1,0.1,0.1,0.1,0.2
			c0,0.1,0,0.2,0,0.2l-0.1,10.1c0,0.2-0.1,0.3-0.2,0.4C312.3,201.8,312.1,201.9,312,201.9z"/>
		<path class="st5" d="M312.4,177.2L312.4,177.2c-0.1,0-0.2,0-0.2-0.1s-0.1-0.1-0.2-0.1c-0.1-0.1-0.1-0.1-0.1-0.2c0-0.1,0-0.2,0-0.2
			l0.6-38.6c0-2.3-0.7-4.1-2.1-5.4c-2.5-2.4-6.6-2.3-6.8-2.3l-71.3-1.9c-0.1,0-0.2,0-0.2-0.1c-0.1,0-0.1-0.1-0.2-0.1
			c-0.1-0.1-0.1-0.1-0.1-0.2c0-0.1,0-0.2,0-0.2c0-0.1,0-0.2,0-0.2c0-0.1,0.1-0.1,0.1-0.2c0.1-0.1,0.1-0.1,0.2-0.1c0.1,0,0.2,0,0.2,0
			l71.3,1.9c0.4,0,4.7-0.1,7.6,2.6c1.6,1.5,2.4,3.7,2.4,6.3l-0.6,38.6c0,0.2-0.1,0.3-0.2,0.4C312.7,177.1,312.5,177.2,312.4,177.2z"
			/>
	</g>
	<path class="st11" d="M60,269h269c3.3,0,6,2.7,6,6l0,0c0,3.3-2.7,6-6,6H60c-3.3,0-6-2.7-6-6l0,0C54,271.7,56.7,269,60,269z"/>
	<path class="st5" d="M229.7,55.9L88.1,55c-1.1,0-2.2,0.2-3.2,0.6c-1,0.4-1.9,1.1-2.7,1.9c-0.8,0.8-1.4,1.7-1.7,2.8
		c-0.4,1-0.6,2.1-0.5,3.2L89.7,265h157.5L256,85L229.7,55.9z"/>
	<path class="st4" d="M235.7,84.3c-1.1,0-2.1-0.3-3.1-0.7c-1-0.5-1.9-1.1-2.6-1.9c-0.7-0.8-1.3-1.7-1.6-2.7c-0.3-1-0.5-2.1-0.4-3.1
		l1.7-19.9L256,85L235.7,84.3z"/>
	<path class="st4" d="M98,81.4c12.7-0.5,61.4-2.5,73.7-3c1.6-0.1,2.8,1.4,2.8,3.2c0,1.7-1.2,3.1-2.6,3.2l-73.6,3.4
		c-1.4,0.1-2.6-1.1-2.8-2.8l0-0.4C95.2,83.2,96.4,81.5,98,81.4z"/>
	<path class="st4" d="M98.1,98.4c12.7-0.5,61.4-2.5,73.7-3c1.6-0.1,2.8,1.4,2.8,3.2c0,1.7-1.2,3.1-2.6,3.2l-73.6,3.4
		c-1.4,0.1-2.6-1.1-2.8-2.8l0-0.4C95.2,100.2,96.5,98.5,98.1,98.4z"/>
	<path class="st4" d="M101.5,115.7c19.6-0.7,94.8-3.6,113.8-4.3c2.4-0.1,4.4,1.3,4.4,3.1c0,1.7-1.8,3.1-4,3.2l-113.7,4.7
		c-2.2,0.1-4.1-1.1-4.4-2.7l-0.1-0.4C97.1,117.5,98.9,115.8,101.5,115.7z"/>
	<path class="st4" d="M101.2,132.8c15.2-0.6,73.8-3.2,88.5-3.8c1.9-0.1,3.4,1.3,3.4,3.1c0,1.7-1.4,3.1-3.1,3.2l-88.5,4.2
		c-1.7,0.1-3.2-1.1-3.4-2.7l-0.1-0.4C97.8,134.6,99.2,132.9,101.2,132.8z"/>
	<path class="st4" d="M102.5,149.9c19.6-0.7,94.8-3.6,113.8-4.3c2.4-0.1,4.4,1.3,4.4,3.1c0,1.7-1.8,3.1-4,3.2L103,156.6
		c-2.2,0.1-4.1-1.1-4.4-2.7l-0.1-0.4C98.2,151.6,100,149.9,102.5,149.9z"/>
	<path class="st4" d="M101.5,166.5c15.3-0.5,74.1-2.7,89-3.3c1.9-0.1,3.4,1.4,3.4,3.1c0,1.7-1.4,3.1-3.2,3.2l-88.9,3.7
		c-1.7,0.1-3.2-1.1-3.4-2.7l-0.1-0.4C98,168.3,99.5,166.6,101.5,166.5z"/>
	<path class="st4" d="M102.8,183.1c19.6-0.7,94.8-3.6,113.8-4.3c2.4-0.1,4.4,1.3,4.4,3.1c0,1.7-1.8,3.1-4,3.2l-113.7,4.7
		c-2.2,0.1-4.1-1.1-4.4-2.7l-0.1-0.4C98.4,184.9,100.3,183.2,102.8,183.1z"/>
	<path class="st4" d="M102.2,199.8c15.3-0.5,74.1-2.7,89-3.3c1.9-0.1,3.4,1.4,3.4,3.1c0,1.7-1.4,3.1-3.2,3.2l-88.9,3.7
		c-1.7,0.1-3.2-1.1-3.4-2.7l-0.1-0.4C98.8,201.5,100.3,199.8,102.2,199.8z"/>
	<path class="st4" d="M105.2,216.3c19.6-0.7,94.8-3.6,113.8-4.3c2.4-0.1,4.4,1.3,4.4,3.1c0,1.7-1.8,3.1-4,3.2l-113.7,4.7
		c-2.2,0.1-4.1-1.1-4.4-2.7l-0.1-0.4C100.8,218.1,102.7,216.4,105.2,216.3z"/>
	<path class="st4" d="M104.7,233.1c15.1-0.6,73.2-2.8,87.9-3.4c1.8-0.1,3.4,1.4,3.4,3.1c0,1.7-1.4,3.1-3.1,3.2l-87.8,3.8
		c-1.7,0.1-3.2-1.1-3.4-2.7l-0.1-0.4C101.4,234.8,102.8,233.1,104.7,233.1z"/>
	<path class="st12" d="M254.4,264c2.7,0.2,7.5,0.4,11.3,0.5c2.3,0.1,3.6-0.1,4.3-0.3c0,0.1,0,0.1,0,0.2c0,0.1-0.1,0.2-0.2,0.3
		c-0.1,0.1-0.3,0.1-0.5,0.1c-4.9,0.2-9.8,0.2-14.7,0c-0.1,0-0.2,0-0.3-0.1c-0.1,0-0.1-0.1-0.2-0.1c0-0.1-0.1-0.1-0.1-0.2
		c0-0.1,0-0.1,0.1-0.2C254.2,264.2,254.3,264.1,254.4,264z"/>
	
		<linearGradient id="SVGID_00000165928199459457367450000018030808525480279728_" gradientUnits="userSpaceOnUse" x1="270" y1="104.5001" x2="254" y2="104.5001" gradientTransform="matrix(1 0 0 -1 0 366)">
		<stop  offset="0" style="stop-color:#000000"/>
		<stop  offset="1" style="stop-color:#2C2C2C"/>
	</linearGradient>
	<path style="fill:url(#SVGID_00000165928199459457367450000018030808525480279728_);" d="M265.6,265c-3.9-0.2-8.8-0.6-11.6-0.9
		c2.8-3.6,11.6-6.1,11.6-6.1h2.5c1.7,2.6,2,5.2,1.9,6.5C269.2,264.8,267.9,265.1,265.6,265z"/>
	
		<linearGradient id="SVGID_00000023975298699713599180000005462222324869846966_" gradientUnits="userSpaceOnUse" x1="271.2976" y1="113.0781" x2="303.6366" y2="137.8741" gradientTransform="matrix(1 0 0 -1 0 366)">
		<stop  offset="0" style="stop-color:#FEBBBA"/>
		<stop  offset="1" style="stop-color:#FF928E"/>
	</linearGradient>
	<path style="fill:url(#SVGID_00000023975298699713599180000005462222324869846966_);" d="M269,254l-0.3,4.9c0,0.3-0.1,0.5-0.3,0.7
		c-0.2,0.2-0.4,0.3-0.7,0.4c-0.7,0.1-1.4,0-2-0.2c-0.2-0.1-0.4-0.2-0.6-0.4c-0.2-0.2-0.3-0.4-0.3-0.6L264,254H269z"/>
	<path class="st12" d="M301,264.3c1.2-0.1,1.7-0.7,1.9-1.3l0,0c0.2,0.6-0.2,1.3-1,1.6c-1,0.4-2,0.4-2.8,0.4c-0.9,0-1.7-0.4-2.1-0.9
		l0,0C297.9,264.5,299.1,264.5,301,264.3z"/>
	
		<linearGradient id="SVGID_00000009550809841395950080000014768977633559688639_" gradientUnits="userSpaceOnUse" x1="303" y1="106.5003" x2="293.9999" y2="106.5003" gradientTransform="matrix(1 0 0 -1 0 366)">
		<stop  offset="0" style="stop-color:#000000"/>
		<stop  offset="1" style="stop-color:#242424"/>
	</linearGradient>
	<path style="fill:url(#SVGID_00000009550809841395950080000014768977633559688639_);" d="M295.4,254h2c3-0.1,4.9,6.7,5.6,9.3
		c-0.2,0.7-0.8,1.3-2,1.5c-2,0.3-3.2,0.2-4.1-0.2c-1.6-2.3-2.5-5.6-2.8-7.6C293.6,254.8,295.4,254,295.4,254z"/>
	
		<linearGradient id="SVGID_00000183242907935987674890000013937777011431798713_" gradientUnits="userSpaceOnUse" x1="297.7169" y1="114.5837" x2="322.6199" y2="132.3677" gradientTransform="matrix(1 0 0 -1 0 366)">
		<stop  offset="0" style="stop-color:#FEBBBA"/>
		<stop  offset="1" style="stop-color:#FF928E"/>
	</linearGradient>
	<path style="fill:url(#SVGID_00000183242907935987674890000013937777011431798713_);" d="M296.9,250l1,4.2c0.1,0.2,0,0.5-0.1,0.7
		c-0.1,0.2-0.3,0.4-0.5,0.5c-0.6,0.3-1.4,0.6-2.1,0.5c-0.2,0-0.3-0.1-0.5-0.2c-0.1-0.1-0.2-0.3-0.3-0.4L293,251L296.9,250z"/>
	
		<linearGradient id="SVGID_00000110435343162444411100000004353326734788657304_" gradientUnits="userSpaceOnUse" x1="328.2573" y1="241.7344" x2="285.3993" y2="160.8694" gradientTransform="matrix(1 0 0 -1 0 366)">
		<stop  offset="0" style="stop-color:#171734"/>
		<stop  offset="1" style="stop-color:#030303"/>
	</linearGradient>
	<path style="fill:url(#SVGID_00000110435343162444411100000004353326734788657304_);" d="M298,251.2c-1.4,1.3-5.9,1.4-5.9,1.4
		c-16.3-39.7-23-45.4-23-45.4c2.4,15,0.4,48.2,0.4,48.2c-2.7,1.2-6.2,0-6.2,0c-0.2-21.2-3-42.3-8.3-62.8c11-0.3,16.9-4.1,18.8-5.6
		C283,202,298,251.2,298,251.2z"/>
	
		<linearGradient id="SVGID_00000133518631018655386730000006829131013514623884_" gradientUnits="userSpaceOnUse" x1="228.7353" y1="228.0131" x2="355.9603" y2="118.3301" gradientTransform="matrix(1 0 0 -1 0 366)">
		<stop  offset="0" style="stop-color:#171734"/>
		<stop  offset="1" style="stop-color:#000000"/>
	</linearGradient>
	<path style="fill:url(#SVGID_00000133518631018655386730000006829131013514623884_);" d="M271.1,141.3c2.1,10.6,1.4,29.6,0.9,38.3
		c-0.1,2.4,1.5,5.8,2.9,8.1c0.1,0.1,0.1,0.2,0.1,0.3c0,0.1,0,0.2,0,0.3c0,0.1-0.1,0.2-0.1,0.3c-0.1,0.1-0.1,0.1-0.2,0.2
		c-2.3,1.2-10,4.8-19,5.3c-0.3,0-0.6-0.1-0.8-0.3c-0.2-0.2-0.4-0.4-0.5-0.7c-6.6-25-14.4-41-14.4-41
		C248.5,138.3,271.1,141.3,271.1,141.3z"/>
	
		<linearGradient id="SVGID_00000005947912262035856940000001083416062908036995_" gradientUnits="userSpaceOnUse" x1="290.4462" y1="177.9191" x2="310.3242" y2="161.1061" gradientTransform="matrix(1 0 0 -1 0 366)">
		<stop  offset="0" style="stop-color:#FEBBBA"/>
		<stop  offset="1" style="stop-color:#FF928E"/>
	</linearGradient>
	<path style="fill:url(#SVGID_00000005947912262035856940000001083416062908036995_);" d="M284,171.7c-0.7,5-2.6,10.5-6.5,16.3
		l-1.5-1.3c0,0,1.7-7.3,0.7-15.5C279.1,170.7,282,171.2,284,171.7z"/>
	
		<linearGradient id="SVGID_00000027578838250944102980000008370541778480158139_" gradientUnits="userSpaceOnUse" x1="239.9599" y1="239.6219" x2="365.0739" y2="129.118" gradientTransform="matrix(1 0 0 -1 0 366)">
		<stop  offset="0" style="stop-color:#000000"/>
		<stop  offset="1" style="stop-color:#171734"/>
	</linearGradient>
	<path style="fill:url(#SVGID_00000027578838250944102980000008370541778480158139_);" d="M269,154.9l2.4-12.9c0,0,15.9,12,13.3,30
		c-2.1-0.5-5-1-7.5-0.5C276.5,165.7,274.3,159.4,269,154.9z"/>
	
		<linearGradient id="SVGID_00000047037767708162496730000003942439474882495932_" gradientUnits="userSpaceOnUse" x1="219.3749" y1="217.1927" x2="346.495" y2="106.4066" gradientTransform="matrix(1 0 0 -1 0 366)">
		<stop  offset="0" style="stop-color:#171734"/>
		<stop  offset="1" style="stop-color:#000000"/>
	</linearGradient>
	<path style="fill:url(#SVGID_00000047037767708162496730000003942439474882495932_);" d="M239.8,152l6.2,13.2
		c-1,8-5.3,11.4-9.9,12.8c-0.2-3-0.9-5.9-2.1-8.6C239.9,163.3,239.8,152,239.8,152z"/>
	
		<linearGradient id="SVGID_00000026872254191373976110000007904833172860254104_" gradientUnits="userSpaceOnUse" x1="236" y1="191.5" x2="221" y2="191.5" gradientTransform="matrix(1 0 0 -1 0 366)">
		<stop  offset="0" style="stop-color:#FEBBBA"/>
		<stop  offset="1" style="stop-color:#FF928E"/>
	</linearGradient>
	<path style="fill:url(#SVGID_00000026872254191373976110000007904833172860254104_);" d="M234,170c1.1,2.5,1.8,5.1,2,7.8
		c-11.9,4.3-15-4.1-15-4.1l2.2-0.4C228.1,173.8,231.6,172.3,234,170z"/>
	
		<linearGradient id="SVGID_00000151505199781184140490000010635172248162459281_" gradientUnits="userSpaceOnUse" x1="251.4538" y1="233.0679" x2="251.6478" y2="202.797" gradientTransform="matrix(1 0 0 -1 0 366)">
		<stop  offset="0" style="stop-color:#FEBBBA"/>
		<stop  offset="1" style="stop-color:#FF928E"/>
	</linearGradient>
	<path style="fill:url(#SVGID_00000151505199781184140490000010635172248162459281_);" d="M246,136.1l2.8,11.3
		c0.1,0.3,0.2,0.6,0.4,0.8c0.2,0.2,0.4,0.4,0.7,0.6c0.3,0.1,0.5,0.2,0.8,0.2c0.3,0,0.6,0,0.8-0.2c1.4-0.6,2.7-1.3,4.1-2
		c0.3-0.2,0.6-0.5,0.9-0.8c0.2-0.3,0.4-0.7,0.5-1.1c0.1-0.4,0.1-0.8,0-1.2c-0.1-0.4-0.2-0.8-0.4-1.1l-5.9-9.5L246,136.1z"/>
	
		<linearGradient id="SVGID_00000067935633361502702130000013702206620731656357_" gradientUnits="userSpaceOnUse" x1="241.4165" y1="237.8255" x2="253.0115" y2="217.6405" gradientTransform="matrix(1 0 0 -1 0 366)">
		<stop  offset="0" style="stop-color:#FEBBBA"/>
		<stop  offset="1" style="stop-color:#FF928E"/>
	</linearGradient>
	<path style="fill:url(#SVGID_00000067935633361502702130000013702206620731656357_);" d="M239,127.7c0,0.2,2.4,12.3,2.4,12.3
		l6.6-1.6l-0.6-11.8C247.4,126.6,239.4,124.6,239,127.7z"/>
	
		<linearGradient id="SVGID_00000029751189586400264020000014486515077721685406_" gradientUnits="userSpaceOnUse" x1="253.0243" y1="231.6339" x2="235.8388" y2="234.1434" gradientTransform="matrix(1 0 0 -1 0 366)">
		<stop  offset="0" style="stop-color:#000000"/>
		<stop  offset="1" style="stop-color:#000000"/>
	</linearGradient>
	<path style="fill:url(#SVGID_00000029751189586400264020000014486515077721685406_);" d="M246.5,129.3l0.8,6.2c0,0.1,0,0.2,0,0.2
		c-0.1,0.5-0.4,2.1-2.2,1.7c-1.6-0.4-3-0.8-4-0.5c-0.2,0.1-0.4,0.2-0.5,0.4c-0.1,0.2-0.2,0.4-0.1,0.6c0.2,1.1,0.8,3.5,1.6,5.6
		c0.1,0.2,0.2,0.4,0.4,0.5c0.2,0.1,0.4,0.1,0.6,0.1c1.3-0.4,4.1-1.3,6.2-2.5c0.1-0.1,0.3-0.2,0.3-0.3c0.1-0.1,0.1-0.3,0.1-0.4
		c-0.1-1.6-0.3-6.3-0.1-7.6c0.1-1.2,1.7-2,2.4-2.3c0.1,0,0.2-0.1,0.3-0.2c0.1-0.1,0.1-0.2,0.2-0.3c0.3-0.8,0.8-2.6-1.6-3.3
		c-0.1,0-0.2-0.1-0.3-0.2c-0.1-0.1-0.2-0.2-0.2-0.3c-0.1-0.1-0.1-0.2-0.1-0.3c0-0.1,0-0.2,0.1-0.3c0.3-0.9,0.5-2.3-1.3-3.1
		c-1.8-0.8-3.2,0.2-3.9,0.9c-0.1,0.1-0.3,0.2-0.5,0.3c-0.2,0-0.4,0-0.6-0.1c-0.2-0.1-0.5-0.2-0.8,0c-0.1,0.1-0.2,0.1-0.3,0.1
		c-0.1,0-0.2,0-0.4,0c-0.1,0-0.2-0.1-0.3-0.2c-0.1-0.1-0.2-0.2-0.2-0.3c-0.4-0.9-1.3-1.8-3.1-1.5c-3.2,0.5-3.5,3.9-2.7,5.9
		c0.8,2,4.2,1.2,5.9,0.2c1.3-0.8,3,0,3.7,0.5c0.1,0.1,0.2,0.2,0.3,0.3C246.4,129,246.4,129.2,246.5,129.3z"/>
	
		<linearGradient id="SVGID_00000036965141446568097310000004251336653216497542_" gradientUnits="userSpaceOnUse" x1="259.9637" y1="218.4278" x2="250.7117" y2="232.9058" gradientTransform="matrix(1 0 0 -1 0 366)">
		<stop  offset="0" style="stop-color:#FEBBBA"/>
		<stop  offset="1" style="stop-color:#FF928E"/>
	</linearGradient>
	<path style="fill:url(#SVGID_00000036965141446568097310000004251336653216497542_);" d="M249.6,135.9c0,0-1.5-3.6,0-4.5
		c1.5-0.9,3.7-0.4,3.2,2.2C252.3,136.8,249.6,135.9,249.6,135.9z"/>
	
		<linearGradient id="SVGID_00000155836181809663125900000013143317155745609137_" gradientUnits="userSpaceOnUse" x1="221.9998" y1="193.5002" x2="217.0001" y2="193.5002" gradientTransform="matrix(1 0 0 -1 0 366)">
		<stop  offset="0" style="stop-color:#FEBBBA"/>
		<stop  offset="1" style="stop-color:#FF928E"/>
	</linearGradient>
	<path style="fill:url(#SVGID_00000155836181809663125900000013143317155745609137_);" d="M221.3,174.9c-0.6,0.4-2.5-0.5-3.6-1.1
		c-0.3-0.1-0.5-0.4-0.6-0.7c-0.1-0.3-0.1-0.6,0-0.9c0.3-0.9,0.7-2,1.3-2.2C219.3,169.8,223.6,173.1,221.3,174.9z"/>
	<path class="st28" d="M325.7,205.3L164.5,148l-8.5,23.7l161.1,58.9c1.7,0.6,3.5,0.6,5.1,0c1.7-0.6,3.1-1.8,3.9-3.3
		c1.9-3.2,3.7-8.3,3.8-15.8c0-1.3-0.4-2.7-1.2-3.8S327,205.7,325.7,205.3z"/>
	<path class="st28" d="M114.3,142l22.7,2.7c0,3-1,6.9-4.5,11.3l-19-12C112.5,143.4,113.1,141.9,114.3,142z"/>
	
		<linearGradient id="SVGID_00000093149010343765199770000005056148146601671048_" gradientUnits="userSpaceOnUse" x1="126.1385" y1="237.9867" x2="239.8375" y2="121.1757" gradientTransform="matrix(1 0 0 -1 0 366)">
		<stop  offset="0" style="stop-color:#F2F3F4"/>
		<stop  offset="1" style="stop-color:#DCE1EC"/>
	</linearGradient>
	<path style="fill:url(#SVGID_00000093149010343765199770000005056148146601671048_);" d="M164.9,147.4c1,14.8-8.5,23.6-8.5,23.6
		L133,155.5c3.4-4.5,4.4-8.5,4.4-11.5L164.9,147.4z"/>
	<path class="st30" d="M323.5,212c0.1,0,0.2,0,0.3-0.1c0.1-0.1,0.1-0.2,0.2-0.3c0-0.1,0-0.2-0.1-0.3c-0.1-0.1-0.1-0.2-0.3-0.2
		L169.6,157c-0.1,0-0.1,0-0.2,0c-0.1,0-0.1,0-0.2,0c-0.1,0.1-0.2,0.1-0.2,0.3c0,0.1,0,0.2,0,0.4c0.1,0.1,0.2,0.2,0.3,0.2L323.4,212
		C323.4,212,323.5,212,323.5,212z"/>
	<path class="st30" d="M320.5,221c0.1,0,0.2,0,0.3-0.1c0.1-0.1,0.1-0.2,0.2-0.3c0-0.1,0-0.2-0.1-0.3c-0.1-0.1-0.1-0.2-0.3-0.2
		L166.6,166c-0.1,0-0.2,0-0.4,0c-0.1,0.1-0.2,0.1-0.2,0.3c0,0.1,0,0.2,0,0.4c0.1,0.1,0.2,0.2,0.3,0.2L320.4,221
		C320.4,221,320.5,221,320.5,221z"/>
	
		<linearGradient id="SVGID_00000023246295562792940280000012970144565251923125_" gradientUnits="userSpaceOnUse" x1="266.2719" y1="184.2074" x2="283.4639" y2="167.6024" gradientTransform="matrix(1 0 0 -1 0 366)">
		<stop  offset="0" style="stop-color:#FEBBBA"/>
		<stop  offset="1" style="stop-color:#FF928E"/>
	</linearGradient>
	<path style="fill:url(#SVGID_00000023246295562792940280000012970144565251923125_);" d="M276.7,186.5l-6.8-0.5l-2.9,2.5
		c0,0,0.7,0.9,2.9,0.4c2.2-0.5,5.1-0.6,5.1-0.6s3,1.2,3-1.1L276.7,186.5z"/>
</g>
</svg>
