<?xml version="1.0" encoding="utf-8"?>
<!-- Generator: Adobe Illustrator 26.0.0, SVG Export Plug-In . SVG Version: 6.00 Build 0)  -->
<svg version="1.1" id="Layer_1" xmlns="http://www.w3.org/2000/svg" xmlns:xlink="http://www.w3.org/1999/xlink" x="0px" y="0px"
	 viewBox="0 0 150 137" style="enable-background:new 0 0 150 137;" xml:space="preserve">
<style type="text/css">
	.st0{fill:url(#SVGID_1_);}
	.st1{fill:url(#SVGID_00000129895918675237647490000004297799953465389441_);}
	.st2{fill:url(#SVGID_00000079467180525121657770000000854551518492025238_);}
	.st3{fill:#FFFFFF;}
</style>
<g>
	
		<radialGradient id="SVGID_1_" cx="-177.4374" cy="322.3336" r="1" gradientTransform="matrix(70.2423 0 0 -70.1307 12539.5264 22674.4766)" gradientUnits="userSpaceOnUse">
		<stop  offset="0" style="stop-color:#074F44"/>
		<stop  offset="1" style="stop-color:#0A776A"/>
	</radialGradient>
	<path class="st0" d="M122,39.6c0,0-4.2-4.1-24.5-26.1c-20.3-22-42.9,0-48.3,6c-5.4,6-15.6,17.2-30.9,33.7
		C2.9,69.6-2.2,84.7,2.5,96.3c4.7,11.7,21.8,17.2,38.4,12.9c18.2-4.7,35.1-5.3,49.3,11.9c17.8,21.8,49.8,15.5,58-15
		C156.5,75.7,134.3,53.1,122,39.6z"/>
	
		<radialGradient id="SVGID_00000029008383084241417460000005101111405517915292_" cx="-177.0669" cy="321.9782" r="0.9994" gradientTransform="matrix(61.3679 0 0 -61.8831 10932.4355 20005.6035)" gradientUnits="userSpaceOnUse">
		<stop  offset="0" style="stop-color:#074F44"/>
		<stop  offset="1" style="stop-color:#1DA69A"/>
	</radialGradient>
	<path style="fill:url(#SVGID_00000029008383084241417460000005101111405517915292_);" d="M129.9,60.2
		c-5.6-18.7-22.7-27.5-37.8-22.1c-9.6,3.4-21.9,4.7-40.4-7.2C31.8,18-0.1,19.5,0,55.9c0.1,46.4,21.3,63.4,33.8,71.4
		c26.8,16.9,64.4,8.2,79.8-8.9C128.8,101.6,135.7,79.5,129.9,60.2z"/>
	
		<radialGradient id="SVGID_00000018222264204532549020000001122717979714289853_" cx="-177.2464" cy="322.106" r="1" gradientTransform="matrix(65.3678 0 0 -64.6178 11658.8174 20875.2852)" gradientUnits="userSpaceOnUse">
		<stop  offset="0" style="stop-color:#074F44"/>
		<stop  offset="1" style="stop-color:#1DA69A"/>
	</radialGradient>
	<path style="fill:url(#SVGID_00000018222264204532549020000001122717979714289853_);" d="M136.2,8.3c-6-8.7-21.7-12.8-36.9-0.9
		c-17,13.3-41,19.9-62.5,23.3c-22.1,3.6-32.6,19.9-32.9,30C3.6,71.7,13.1,85.5,41,102.4c27.9,16.9,47.4,21.6,64.1,19.4
		c16.7-2.2,27.6-12,33-28.4c3.8-11.5,1.7-25.2,0.8-43.6C137.8,26.9,144.9,20.8,136.2,8.3z"/>
	<path class="st3" d="M96.7,48.2H84.9l-4-4c-0.4-0.4-1.2-0.1-1.2,0.5v11c0,0.8,0.6,1.4,1.4,1.4h11c0.6,0,0.9-0.7,0.5-1.2l-4-4h5.6
		c0.4,0,0.7,0.3,0.7,0.7v45.3c0,0.4-0.3,0.7-0.7,0.7H60c-0.4,0-0.7-0.3-0.7-0.7v-2.9h29.9c1.1,0,2-0.8,2.1-1.9v-0.1l0-31.4H76.7
		c-0.8,0-1.4-0.6-1.4-1.4V43.9H52.7c-1.1,0-2.1,0.9-2.1,2.1v46.8c0,1.1,0.9,2.1,2.1,2.1h3v5.5c0,0.9,0.8,1.7,1.7,1.7h39.3
		c0.9,0,1.7-0.8,1.7-1.7V49.9C98.4,48.9,97.6,48.2,96.7,48.2z"/>
</g>
</svg>
