<svg width="25" height="25" viewBox="0 0 25 25" fill="none" xmlns="http://www.w3.org/2000/svg">
<path d="M12.0276 4.19455L19.5234 8.66643L24.6646 4.69054L17.2274 0L12.0276 4.19455Z" fill="#1976D2"/>
<path d="M13.3036 4.19722L8.10108 0L0.665283 4.68921L5.80781 8.66643L13.3036 4.19722Z" fill="#1976D2"/>
<path d="M12.665 13.0157L17.5982 17.2102L24.6646 12.5197L19.7821 8.54248L12.665 13.0144L5.54648 8.54248L0.665283 12.5197L7.73176 17.2102L12.665 13.0157Z" fill="#1976D2"/>
<path d="M19.9261 19.457V17.2224L17.7928 18.689C16.9928 19.2436 16.6262 18.125 12.6663 14.8958C8.63705 18.185 8.33706 19.229 7.53708 18.689L5.40381 17.2224V19.4596L12.6783 24.0022L19.9261 19.457Z" fill="#1976D2"/>
</svg>
