<?xml version="1.0" encoding="utf-8"?>
<!-- Generator: Adobe Illustrator 26.0.0, SVG Export Plug-In . SVG Version: 6.00 Build 0)  -->
<svg version="1.1" id="Layer_1" xmlns="http://www.w3.org/2000/svg" xmlns:xlink="http://www.w3.org/1999/xlink" x="0px" y="0px"
	 viewBox="0 0 523 380" style="enable-background:new 0 0 523 380;" xml:space="preserve">
<style type="text/css">
	.st0{fill:#FFFFFF;}
	.st1{fill-rule:evenodd;clip-rule:evenodd;fill:#DADBE2;}
	.st2{fill:#DADBE2;}
	.st3{fill:#1DA69A;}
	.st4{opacity:0.48;fill:#AEADAD;enable-background:new    ;}
</style>
<g>
	<path class="st0" d="M0,15c0-1.9,0.3-3.7,1-5.4S2.7,6.3,4.1,5C5.4,3.7,7,2.7,8.7,2s3.6-1,5.4-1h155l56.2,56.2v211.1
		c0,1.9-0.3,3.7-1,5.4c-0.7,1.7-1.7,3.3-3,4.6s-2.9,2.3-4.6,3c-1.7,0.7-3.6,1-5.4,1H14.1c-1.9,0-3.7-0.3-5.4-1s-3.3-1.7-4.6-3
		s-2.4-2.9-3.1-4.6s-1-3.6-1-5.4C0,268.3,0,15,0,15z"/>
	<path class="st1" d="M14.1,275.6h197.1c1.8,0,3.6-0.7,4.9-1.9c1.4-1.2,2.2-2.9,2.4-4.7V60.5L166.4,8.4H14c-1.8,0.2-3.5,0.9-4.8,2.1
		S7,13.3,6.7,15v254c0,0.9,0.2,1.8,0.6,2.7c0.4,0.8,0.9,1.6,1.6,2.2s1.5,1.1,2.4,1.4C12.2,275.6,13.2,275.7,14.1,275.6z M169.1,1
		h-155c-1.9,0-3.7,0.3-5.4,1C6.9,2.7,5.4,3.7,4.1,5S1.7,7.9,1,9.6S0,13.2,0,15v253.9c0,1.9,0.3,3.7,1,5.4c0.7,1.7,1.7,3.3,3,4.6
		c1.3,1.3,2.9,2.4,4.6,3c1.7,0.7,3.6,1,5.4,1h197.1c1.9,0,3.7-0.3,5.4-1s3.3-1.7,4.6-3.1c1.3-1.3,2.3-2.9,3-4.6s1-3.6,1-5.4V58.2
		L169.1,1z"/>
	<path class="st2" d="M169.1,1l56.2,56.2h-56.2V1z"/>
	<path class="st3" d="M24,173.9V170h174v3.9H24z M24,159v-3.9h174v3.9H24z M24,128.9V125h174v3.9H24z M198,98.9H24V95h174V98.9z
		 M198,204H24v-3.9h174V204z"/>
	<path class="st4" d="M24,80h174v3.9H24V80z M198,185.1v3.9H24v-3.9H198z M24,113.9V110h174v3.9H24z M24,140.1h174v3.9H24V140.1z"/>
	<path class="st3" d="M198,233.9H24V230h174V233.9z"/>
	<path class="st4" d="M24,215h174v3.9H24V215z M24,248.9V245h174v3.9H24z"/>
</g>
<g>
	<path class="st0" d="M297.9,112.1c0-1.9,0.3-3.7,1-5.4s1.7-3.3,3-4.6c1.3-1.3,2.9-2.3,4.6-3s3.6-1,5.4-1h154.9l56.2,56.2v211.1
		c0,1.9-0.3,3.7-1,5.4c-0.7,1.7-1.7,3.3-3,4.6c-1.3,1.3-2.9,2.3-4.6,3s-3.6,1-5.4,1H312c-1.9,0-3.7-0.3-5.4-1
		c-1.7-0.7-3.3-1.7-4.6-3s-2.3-2.9-3-4.6s-1-3.6-1-5.4V112.1H297.9z"/>
	<path class="st1" d="M311.9,372.7h197.2c1.8,0,3.6-0.7,5-1.9c1.4-1.2,2.2-3,2.3-4.8V157.4l-52.1-52.1H311.9
		c-1.8,0.1-3.5,0.9-4.8,2.1s-2.2,2.8-2.5,4.6v253.9c0,0.9,0.2,1.8,0.6,2.7c0.4,0.8,0.9,1.6,1.6,2.2s1.5,1.1,2.4,1.4s1.8,0.4,2.7,0.4
		L311.9,372.7L311.9,372.7z M466.8,98.1H311.9c-1.9,0-3.7,0.3-5.4,1c-1.7,0.7-3.3,1.7-4.6,3c-1.3,1.3-2.3,2.9-3,4.6s-1,3.6-1,5.4
		V366c0,1.9,0.3,3.7,1,5.4c0.7,1.7,1.7,3.3,3,4.6c1.3,1.3,2.9,2.4,4.6,3.1s3.6,1,5.4,1h197.2c1.9,0,3.7-0.3,5.4-1s3.3-1.7,4.6-3.1
		c1.3-1.3,2.3-2.9,3-4.6s1-3.6,1-5.4V154.9L466.8,98.1z"/>
	<path class="st2" d="M466.8,98.1l56.2,56.2h-56.2V98.1z"/>
	<path class="st2" d="M320.9,278.9c0-0.5,0.2-0.9,0.5-1.2c0.3-0.3,0.8-0.5,1.2-0.5h156.2c0.5,0,0.9,0.2,1.2,0.5
		c0.3,0.3,0.5,0.8,0.6,1.2c0,0.2,0,0.5-0.1,0.7s-0.2,0.4-0.4,0.6c-0.2,0.2-0.4,0.3-0.6,0.4s-0.4,0.1-0.7,0.1H322.6
		c-0.4,0-0.9-0.2-1.2-0.5S320.9,279.4,320.9,278.9z M320.9,172.1c0-0.4,0.2-0.9,0.5-1.2s0.7-0.5,1.2-0.5h117c0.5,0,0.9,0.2,1.2,0.5
		s0.5,0.8,0.5,1.2c0,0.5-0.2,0.9-0.5,1.2s-0.8,0.5-1.2,0.5h-117c-0.4,0-0.8-0.2-1.1-0.5C321.1,173,321,172.6,320.9,172.1
		L320.9,172.1z M320.9,287.8c0-0.4,0.2-0.7,0.4-1c0.3-0.3,0.6-0.4,1-0.4h172.5c0.4,0,0.7,0.2,1,0.4c0.3,0.3,0.4,0.6,0.4,1
		s-0.2,0.7-0.4,1c-0.3,0.3-0.6,0.4-1,0.4H322.3c-0.4,0-0.8-0.2-1-0.4C321,288.5,320.9,288.2,320.9,287.8z M320.9,181.7
		c0-0.2,0-0.5,0.1-0.7s0.2-0.4,0.4-0.6c0.2-0.2,0.4-0.3,0.6-0.4s0.4-0.1,0.7-0.1h75.6c0.2,0,0.4,0,0.7,0.1c0.2,0.1,0.4,0.2,0.6,0.4
		s0.3,0.3,0.4,0.6c0.1,0.2,0.1,0.4,0.1,0.7c0,0.2,0,0.4-0.1,0.7c-0.1,0.2-0.2,0.4-0.4,0.6c-0.2,0.2-0.3,0.3-0.6,0.4
		c-0.2,0.1-0.4,0.1-0.7,0.1h-75.6c-0.2,0-0.5,0-0.7-0.1s-0.4-0.2-0.6-0.4s-0.3-0.3-0.4-0.6S320.9,181.9,320.9,181.7z M320.9,297.4
		c0-0.4,0.2-0.9,0.5-1.2c0.3-0.3,0.7-0.5,1.2-0.5h171.7c0.5,0,0.9,0.2,1.2,0.5c0.3,0.3,0.5,0.8,0.5,1.2c0,0.5-0.2,0.9-0.5,1.2
		c-0.3,0.3-0.8,0.5-1.2,0.5H322.5c-0.4-0.1-0.8-0.3-1.1-0.6C321.1,298.3,320.9,297.9,320.9,297.4z M320.9,331.4
		c0-0.4,0.2-0.9,0.5-1.2c0.3-0.3,0.7-0.5,1.2-0.5h175.9c0.2,0,0.4,0,0.7,0.1c0.2,0.1,0.4,0.2,0.6,0.4s0.3,0.3,0.4,0.6
		c0.1,0.2,0.1,0.4,0.1,0.7c0,0.2,0,0.4-0.1,0.7c-0.1,0.2-0.2,0.4-0.4,0.6c-0.2,0.2-0.3,0.3-0.6,0.4c-0.2,0.1-0.4,0.1-0.7,0.1H322.6
		c-0.4,0-0.8-0.2-1.1-0.5C321.1,332.2,321,331.8,320.9,331.4L320.9,331.4z M320.9,207.3c0-0.2,0-0.5,0.1-0.7s0.2-0.4,0.4-0.6
		c0.2-0.2,0.4-0.3,0.6-0.4c0.2-0.1,0.4-0.1,0.7-0.1h168.4c0.2,0,0.4,0,0.7,0.1c0.2,0.1,0.4,0.2,0.6,0.4s0.3,0.3,0.4,0.6
		c0.1,0.2,0.1,0.4,0.1,0.7c0,0.2,0,0.4-0.1,0.7c-0.1,0.2-0.2,0.4-0.4,0.6c-0.2,0.2-0.3,0.3-0.6,0.4c-0.2,0.1-0.4,0.1-0.7,0.1H322.7
		c-0.2,0-0.5,0-0.7-0.1s-0.4-0.2-0.6-0.4s-0.3-0.4-0.4-0.6C321,207.8,320.9,207.5,320.9,207.3L320.9,207.3z M320.9,339.2
		c0-0.4,0.2-0.9,0.5-1.2c0.3-0.3,0.7-0.5,1.2-0.5h168.6c0.5,0,0.9,0.2,1.2,0.5c0.3,0.3,0.5,0.8,0.5,1.2c0,0.2,0,0.5-0.1,0.7
		s-0.2,0.4-0.4,0.6c-0.2,0.2-0.3,0.3-0.6,0.4c-0.2,0.1-0.4,0.1-0.7,0.1H322.6c-0.4-0.1-0.8-0.3-1.1-0.6
		C321.2,340.1,321,339.7,320.9,339.2L320.9,339.2z M320.9,215.2c0-0.2,0-0.5,0.1-0.7s0.2-0.4,0.4-0.6c0.2-0.2,0.4-0.3,0.6-0.4
		c0.2-0.1,0.4-0.1,0.7-0.1h172c0.5,0,0.9,0.2,1.2,0.5s0.5,0.8,0.5,1.2c0,0.5-0.2,0.9-0.5,1.2s-0.8,0.5-1.2,0.6h-172
		c-0.5,0-0.9-0.2-1.3-0.5C321.1,216.1,320.9,215.6,320.9,215.2L320.9,215.2z M320.9,347.2c0-0.4,0.2-0.9,0.5-1.2
		c0.3-0.3,0.7-0.5,1.2-0.6h172.1c0.5,0,0.9,0.2,1.2,0.6c0.3,0.3,0.5,0.8,0.5,1.2c0,0.5-0.2,0.9-0.5,1.2s-0.8,0.5-1.2,0.5h-172
		c-0.4,0-0.9-0.2-1.2-0.5C321.2,348,321,347.6,320.9,347.2L320.9,347.2z M320.9,223.1c0-0.4,0.2-0.9,0.5-1.2s0.7-0.5,1.2-0.6h172.1
		c0.4,0.1,0.8,0.3,1,0.6c0.3,0.3,0.4,0.7,0.4,1.1c0,0.4-0.1,0.8-0.4,1.1s-0.6,0.5-1,0.6h-172c-0.5,0-0.9-0.2-1.2-0.5
		C321.2,224,321,223.6,320.9,223.1L320.9,223.1z M320.9,231.2c0-0.5,0.2-0.9,0.5-1.3c0.3-0.3,0.8-0.5,1.3-0.5h160.7
		c0.2,0,0.5,0,0.7,0.1s0.4,0.2,0.6,0.4s0.3,0.4,0.4,0.6c0.1,0.2,0.1,0.4,0.1,0.7c0,0.5-0.2,0.9-0.5,1.2s-0.8,0.5-1.2,0.5H322.7
		c-0.5,0-0.9-0.2-1.2-0.5C321.2,232.1,321,231.7,320.9,231.2L320.9,231.2z M320.9,263.1c0-0.5,0.2-0.9,0.5-1.2
		c0.3-0.3,0.8-0.5,1.2-0.5H397c0.5,0,0.9,0.2,1.2,0.5s0.5,0.8,0.5,1.2c0,0.2,0,0.5-0.1,0.7s-0.2,0.4-0.4,0.6
		c-0.2,0.2-0.4,0.3-0.6,0.4s-0.4,0.1-0.7,0.1h-74.4c-0.5,0-0.9-0.2-1.2-0.5C321,264,320.9,263.6,320.9,263.1z M320.9,305.4
		c0-0.5,0.2-0.9,0.5-1.2c0.3-0.3,0.8-0.5,1.2-0.5h149c0.2,0,0.5,0,0.7,0.1s0.4,0.2,0.6,0.4c0.2,0.2,0.3,0.4,0.4,0.6s0.1,0.4,0.1,0.7
		c0,0.2,0,0.5-0.1,0.7s-0.2,0.4-0.4,0.6c-0.2,0.2-0.4,0.3-0.6,0.4s-0.4,0.1-0.7,0.1h-149c-0.4,0-0.9-0.2-1.2-0.5
		S320.9,305.8,320.9,305.4z M320.9,271c0-0.4,0.2-0.8,0.5-1.2c0.3-0.3,0.7-0.5,1.1-0.5h74.4c0.4,0.1,0.8,0.3,1,0.6
		c0.3,0.3,0.4,0.7,0.4,1.1s-0.1,0.8-0.4,1.1c-0.3,0.3-0.6,0.5-1,0.6h-74.4c-0.4-0.1-0.8-0.3-1.1-0.6
		C321.1,271.9,320.9,271.4,320.9,271z"/>
	<path class="st3" d="M320.9,155c0-0.5,0.2-0.9,0.5-1.2s0.8-0.5,1.2-0.5h85.7c0.3-0.1,0.5-0.1,0.8,0s0.5,0.2,0.7,0.3
		c0.2,0.2,0.4,0.4,0.5,0.6c0.1,0.2,0.2,0.5,0.2,0.8s-0.1,0.5-0.2,0.8c-0.1,0.2-0.3,0.5-0.5,0.6c-0.2,0.2-0.4,0.3-0.7,0.3
		c-0.3,0.1-0.5,0.1-0.8,0h-85.7c-0.5,0-0.9-0.2-1.3-0.5C321.1,156,320.9,155.5,320.9,155L320.9,155z"/>
	<path class="st2" d="M266.6,182.7h-23.5v-3.1h23.5v-6.9l8.9,8.1l-8.9,8.1V182.7z M265.7,194.1l13-12.2c0.2-0.2,0.3-0.5,0.3-0.8
		s-0.1-0.6-0.3-0.8c-2.1-2.1-10-9.3-13-12.3c-0.2-0.1-0.4-0.2-0.6-0.3c-0.2,0-0.4,0-0.6,0.1s-0.4,0.2-0.5,0.4s-0.2,0.4-0.2,0.6v8.1
		h-23.5v8.6h23.8v8.1c0.1,0.1,0.1,0.3,0.3,0.4c0.1,0.1,0.2,0.2,0.4,0.2c0.1,0,0.3,0.1,0.5,0C265.4,194.2,265.5,194.2,265.7,194.1z"
		/>
</g>
</svg>
