<?xml version="1.0" encoding="utf-8"?>
<!-- Generator: Adobe Illustrator 26.0.0, SVG Export Plug-In . SVG Version: 6.00 Build 0)  -->
<svg version="1.1" id="Layer_1" xmlns="http://www.w3.org/2000/svg" xmlns:xlink="http://www.w3.org/1999/xlink" x="0px" y="0px"
	 viewBox="0 0 37 37" style="enable-background:new 0 0 37 37;" xml:space="preserve">
<style type="text/css">
	.st0{fill:#1DA69A;}
</style>
<path class="st0" d="M17.6,37c-3.2,0-6.2-0.8-8.8-2.3c0.6-2.7,1.5-5.4,3.3-7.6c1.5-1.9,3.6-3.6,6.1-3.7c1.8,0.1,3,2.3,1.9,3.8
	c1.3-0.2,2.8-0.8,3.3-2.1c0.6-1.3,0.4-2.9-0.1-4.3c1.7-1.3,1.8-3.9,0.7-5.6c-2.4-4-6.8-7-11.5-7C10.7,8,6.1,8.9,1.2,10.3
	C4.2,4.2,10.4,0,17.6,0c10.1,0,18.2,8.3,18.2,18.5C35.8,28.7,27.6,37,17.6,37z M21.1,18.6c0.5-0.4,0.8-1,0.8-1.7
	c0.5,1.1,0.2,2.4,0.9,3.4C22,20,21.3,19.4,21.1,18.6z"/>
</svg>
