<svg width="50" height="50" viewBox="0 0 50 50" fill="none" xmlns="http://www.w3.org/2000/svg">
<path d="M25 0C11.1328 0 0 11.1816 0 24.9023C0 38.623 11.1328 50 25 50C38.8672 50 50 38.916 50 24.9023C50 10.8887 38.8672 0 25 0ZM39.1895 11.7871C39.4922 11.5625 38.916 9.41406 38.916 9.41406C38.9453 9.51172 40.4199 11.1523 41.0156 10.7812C41.1914 10.5762 41.4746 10.3613 41.7773 10.4492C42.1973 10.6055 42.6172 11.084 42.666 11.1914C42.8613 12.002 42.4219 12.7344 42.3145 12.959C42.1191 13.3398 41.2988 13.8379 41.2012 14.4336C41.123 14.4336 40.7129 14.5898 40.5176 14.5605C40.4883 14.5605 40.3809 14.5508 40.3223 14.4824C40.293 14.4043 40.1367 14.4824 40.0879 14.5117C40.1074 14.5313 40.1367 14.6875 40.1465 14.707C40.0684 14.6191 39.8926 14.502 39.5801 14.3555C39.2578 14.1992 39.082 14.0527 39.0625 13.9062C38.9844 13.6328 38.8379 13.5547 38.623 13.6621C38.6035 13.6816 38.5742 13.7598 38.5156 13.8867C38.457 14.0137 38.3984 14.1016 38.3301 14.1602C38.5254 13.7598 38.3789 13.5547 37.8809 13.5547C37.8516 13.4863 37.7734 13.3789 37.627 13.2324C37.4902 13.0859 37.4023 12.9688 37.373 12.8711C37.3535 12.832 37.3242 12.7539 37.3047 12.666C37.2852 12.5781 37.2754 12.5098 37.2656 12.4805C37.2559 12.4512 37.2266 12.4316 37.168 12.4219C37.1094 12.4219 37.0215 12.4219 36.8945 12.4414C36.9141 12.1387 38.1641 12.5488 39.1895 11.7871ZM7.12891 25.6055C7.03125 25.625 6.94336 25.6543 6.8457 25.6738C6.21094 25.5762 6.04492 25.4199 6.04492 24.8145C6.32812 24.707 6.5918 24.5996 6.875 24.4922H6.88477C6.89453 24.4922 6.89453 24.4824 6.9043 24.4824C8.35938 23.5645 7.12891 25.6055 7.12891 25.6055ZM21.4258 3.37891C21.4551 3.61328 21.4746 3.78906 21.4746 3.90625C21.5039 4.11133 21.4258 4.36523 21.2598 4.66797C21.084 4.9707 20.9961 5.21484 20.9961 5.39062C21.3379 5.44922 21.4746 5.74219 21.3867 6.25977C21.3281 6.61133 21.0059 7.06055 20.4297 7.60742C20 7.98828 19.8535 8.52539 20 9.21875C20.0879 9.54102 20.1465 9.98047 20.1953 10.5469C20.2344 11.0938 20.2734 11.4844 20.3027 11.7188C20.2832 11.6406 20.1758 11.582 19.9707 11.5332C19.7559 11.4746 19.6289 11.4062 19.5996 11.3184C19.5703 11.377 19.3164 11.9824 19.2578 12.0996C18.9844 12.4414 18.0762 13.1543 17.5586 13.2129C17.3828 13.2617 17.2656 13.2031 17.207 13.0664C17.0898 12.9199 17.1094 12.7051 17.2754 12.4121C17.4316 12.1191 17.4219 11.9141 17.2559 11.8066C17.2266 11.8945 17.207 12.0508 17.1875 12.2852C17.168 12.5195 17.1094 12.6953 16.9922 12.8125C16.8457 12.9297 16.7188 12.998 16.6016 13.0273C16.4844 13.0566 16.377 13.0469 16.2695 12.9883C16.1719 12.9297 16.0449 12.8516 15.8984 12.7441C15.752 12.6465 15.625 12.5781 15.5078 12.5488C15.1562 12.4316 14.7559 12.168 14.2871 11.7676C14.4043 11.9336 14.1309 12.002 13.6914 12.1973C13.6523 12.2168 13.4375 12.1973 13.3203 12.2461C13.1738 12.3145 12.8613 12.041 12.8223 12.002C12.1191 11.3379 11.0547 11.1719 11.1719 10.3711C11.0254 10.3418 9.38477 9.81445 9.29688 9.75586C12.6074 6.40625 16.7773 4.19922 21.4258 3.37891ZM13.2715 20.7812C13.0957 20.2539 12.9297 20.9863 12.7539 21.0938C12.7832 21.1914 12.8027 21.2891 12.832 21.3867C12.8027 21.416 12.7832 21.4551 12.7539 21.4844C12.3438 21.9141 11.5332 22.0703 11.5332 22.0703L11.4746 22.0605C11.4746 22.0605 11.4258 21.8555 11.3574 21.8945C11.3574 21.7676 10.9277 21.7773 10.9277 21.4062C10.752 21.2402 10.5859 21.0645 10.4102 20.8984C10.498 20.6543 10.5859 20.4199 10.6738 20.1758C10.8398 20.1465 11.0059 20.1074 11.1719 20.0781C11.2988 20.0781 11.1816 20.0293 11.1133 19.9609C11.1914 19.9512 11.2695 19.9316 11.3477 19.9219V19.7852C11.4551 19.8438 11.5527 19.9023 11.6602 19.9609C11.709 19.9512 11.748 19.9512 11.7969 19.9414C11.7969 19.3652 12.0312 19.2969 12.1191 19.1797C12.2168 19.1895 12.3242 19.209 12.4219 19.2188C12.4219 19.2188 12.5195 19.1895 12.5195 19.082C12.5684 19.0918 12.6074 19.0918 12.6563 19.1016C12.666 19.248 12.8223 19.3945 12.8223 19.5898C12.8125 19.9512 12.627 20.3418 12.7539 20.3418C12.9395 20.332 12.9492 19.9805 13.1152 19.9316C13.2812 19.8828 14.2188 19.9316 14.3359 20.0098C14.4531 20.0879 14.4531 20.2539 14.5117 20.3809V20.5371C14.4531 20.5859 14.3945 20.6445 14.3359 20.6934C13.9746 20.6934 13.6621 20.1758 13.291 20.5566C13.2813 20.625 13.4473 21.3086 13.2715 20.7812ZM35.9277 43.9453C35.7812 43.9746 35.2344 43.9062 34.8828 43.9062C34.3066 43.8574 33.584 43.0762 33.4961 42.9883C33.4668 43.1348 33.5156 43.3496 33.623 43.6426C33.623 43.7598 33.3887 43.8867 32.9297 44.0332C32.3828 44.1211 32.041 44.1016 31.9238 43.9941C32.041 44.1992 32.2559 44.4727 32.5781 44.8242L32.7539 44.6484C32.9297 44.8242 33.3984 44.7461 34.1504 44.4336C34.2676 44.4336 34.8633 44.1016 34.9805 44.043C35.127 44.0137 35.5371 44.1406 35.6445 44.1406C34.541 44.7168 33.1934 45.0391 32.1484 45.3906C32.1191 45.3613 32.0215 45.2637 31.8457 45.1074C31.6699 44.9512 31.543 44.834 31.4551 44.7754C31.543 44.8047 31.582 44.7754 31.582 44.6875C31.6992 44.4238 31.6992 44.209 31.582 44.0332C31.4648 43.8867 31.3184 43.7988 31.123 43.7695C30.8398 43.7012 30 43.8574 29.8828 43.8574C29.8828 43.8574 28.584 43.6523 28.6816 43.9746L28.7109 44.0332C28.6914 44.0137 28.6816 43.9941 28.6816 43.9746C28.6035 43.8184 28.5645 43.7305 28.4668 43.4668C28.3691 43.1738 28.2715 42.9688 28.1836 42.8613C28.0664 42.9492 28.0371 43.1055 28.0957 43.3398C28.1543 43.5742 28.1543 43.7305 28.0957 43.8184C28.0664 43.877 27.998 43.9258 27.8809 43.9648C27.7637 44.0137 27.6465 44.0625 27.5098 44.1211C27.3828 44.1797 27.2852 44.2188 27.2266 44.248C27.0801 44.3359 27.168 44.4824 27.4902 44.6875C27.5195 44.7168 27.6172 44.7559 27.7734 44.7949C27.9297 44.8438 28.0664 44.8828 28.1641 44.9316C28.2617 44.9707 28.3789 45.0391 28.5059 45.127C28.6426 45.2148 28.6914 45.3027 28.6816 45.4102C28.6719 45.5078 28.6035 45.6543 28.4863 45.8203C28.3691 45.9375 28.1641 45.9766 27.8516 45.9473C27.5488 45.918 27.3047 45.8594 27.1289 45.7715C26.5234 45.4199 26.4355 45.1074 26.8652 44.8145C26.6309 44.8145 26.3672 44.7363 26.0645 44.5703C25.7617 44.4141 25.6348 44.2383 25.6934 44.0723C25.5176 44.3945 25.332 44.5508 25.127 44.5508C25.0098 44.5215 24.9023 44.3652 24.8047 44.0918C24.707 43.8184 24.6387 43.6621 24.6094 43.6328C24.4336 43.3984 24.2676 43.3496 24.0918 43.4766C23.916 43.6035 23.7305 43.8086 23.5254 44.0625C23.3398 44.2969 23.2324 44.4141 23.1934 44.4141C23.418 44.502 23.4473 44.5898 23.2715 44.6777C22.9199 44.8828 22.6172 44.9414 22.3535 44.8535C22.2949 44.8242 22.207 44.7266 22.0898 44.5508C21.8848 44.1699 21.9141 43.9844 22.1777 43.9844C21.9727 43.8086 21.8945 43.584 21.9336 43.3105C21.9727 43.0371 22.1582 42.9102 22.4805 42.9395C22.5977 42.9395 22.7539 42.998 22.959 43.1152C23.1641 43.2324 23.3203 43.291 23.4375 43.291C23.5547 43.291 23.7109 43.2324 23.916 43.1152C24.0039 42.998 24.1211 42.8027 24.2676 42.5293C24.4141 42.2559 24.541 42.0605 24.6582 41.9434C25.0098 41.5918 25.5762 41.4746 26.3574 41.5918C26.2988 41.5918 26.3086 41.5234 26.377 41.3965C26.4453 41.2695 26.5527 41.1133 26.6992 40.9375C26.8457 40.7617 26.9336 40.6641 26.9629 40.6348C27.168 40.4004 27.2949 40.1367 27.3535 39.8535C27.3535 39.7949 27.373 39.6387 27.3926 39.3945C27.4219 39.1504 27.4512 38.9551 27.4805 38.8086C27.2461 38.8672 27.041 38.7207 26.875 38.3789C26.7285 38.0859 26.7285 37.9297 26.875 37.9004C26.123 38.0176 25.4688 37.9688 24.9219 37.7734C24.1113 37.4512 23.6426 37.1484 23.5254 36.8555C23.3789 37.0605 23.0469 37.0703 22.5195 36.8945C22.3145 36.7773 22.1387 36.4453 22.002 35.8887C21.8848 35.5371 21.7188 35.2441 21.5039 35C21.2891 34.7559 21.0645 34.6875 20.8301 34.8047L20.7422 34.8926C20.6543 34.9219 20.5859 34.9609 20.5273 35C20.4688 35.0488 20.4004 35.0879 20.332 35.1367C20.2637 35.1758 20.2148 35.2246 20.2051 35.2637C20.1855 35.3125 20.2148 35.3613 20.2734 35.4199C20.4199 35.5371 20.5371 35.7129 20.625 35.9668C20.7129 36.2109 20.6934 36.4355 20.5859 36.6406C20.5273 36.6992 20.3516 36.8262 20.0586 37.0117C19.7656 37.1973 19.5801 37.3828 19.4922 37.5586C19.4043 37.8516 19.5215 38.0859 19.8438 38.2812C20.166 38.4668 20.3223 38.6523 20.3223 38.8281C20.3223 38.9453 20.2441 39.082 20.0781 39.2383C19.9219 39.3945 19.8535 39.5508 19.8828 39.6973C19.8828 39.7266 19.9316 39.8535 20.0195 40.0684C20.1074 40.2832 20.1465 40.4492 20.1465 40.5664C20.1465 40.6836 20.0879 40.8008 19.9707 40.9082C18.9355 41.25 16.6406 40.1855 16.4062 39.7852H16.5332C16.416 39.668 16.3379 39.5215 16.2891 39.3262C16.25 39.1406 16.3281 38.9941 16.5332 38.916C16.416 38.9453 16.2402 38.916 16.0059 38.8281C15.625 38.6816 15.6152 38.5547 15.9668 38.4375C15.8789 38.4668 15.7812 38.4863 15.6641 38.5059C15.5469 38.5254 15.4492 38.5547 15.3613 38.6133C15.1367 38.8281 14.9707 38.9355 14.707 38.8184C14.6777 38.8184 14.2383 39.541 14.0527 39.5215C13.7988 39.4922 13.6426 39.082 13.6133 38.9941C13.584 38.9062 13.5547 38.8477 13.5254 38.8184C13.4668 38.7012 13.3594 38.584 13.1934 38.4473C13.0371 38.3203 12.9395 38.2129 12.9102 38.125C12.8809 38.0371 12.832 37.8516 12.7637 37.5781C12.6953 37.3047 12.5977 37.1094 12.4805 37.0117C12.3633 36.9141 12.1875 36.8359 11.9629 36.7773C11.9336 36.748 11.8359 36.7578 11.6797 36.7969C11.5234 36.8457 11.1426 36.8945 11.1426 36.6016C10.9961 36.7188 10.9277 36.7871 10.9277 36.8164C10.8984 36.5527 10.8301 36.3281 10.7129 36.1426C10.5957 35.957 10.4102 35.8691 10.1465 35.8984L10.2344 35.1172C10.293 35.0293 10.4492 34.9512 10.7129 34.9023C10.9766 34.8438 11.1523 34.7852 11.2402 34.7266C11.2988 34.7266 11.4551 34.5996 11.7188 34.3359C11.9531 34.1016 12.0605 33.9551 12.0312 33.9062C12.4414 34.3359 13.0078 34.4336 13.7598 34.248C14.5996 34.1309 15.1953 34.0039 15.5469 33.8574C16.6504 33.2812 16.3184 33.0762 16.6895 32.5488C16.416 32.7539 15.6934 33.7305 14.502 33.584C13.9746 33.4668 13.8965 33.291 14.2383 33.0566C14.2969 33.0273 14.4141 33.0176 14.6094 33.0176H15.0195C14.7852 32.959 14.6094 32.8809 14.4727 32.8027C14.3457 32.7148 14.3066 32.6172 14.3652 32.5C13.9844 32.2656 13.916 32.0312 14.1504 31.8066C14.4629 31.5137 14.8047 31.3965 15.1758 31.4551C15.1367 31.4453 15.1465 31.4062 15.1953 31.3281L15.8008 30.9375C15.8301 30.9082 15.9668 30.8496 16.2109 30.7617C16.4551 30.6738 16.6211 30.5762 16.709 30.459C16.7969 30.3711 16.8359 30.2344 16.8359 30.0488C16.8359 29.8633 16.8457 29.7168 16.8555 29.6387C16.875 29.5508 16.9629 29.541 17.1387 29.5996C17.1973 29.4531 17.4023 29.3359 17.7441 29.248C18.0859 29.1602 18.3203 29.043 18.4375 28.8965C18.291 28.7207 18.3105 28.5449 18.4863 28.3691C18.7793 28.1348 19.0234 28.1543 19.2285 28.418C19.3457 28.3887 19.4336 28.2812 19.4922 28.0859C19.5508 27.9004 19.6191 27.7734 19.707 27.7148C19.5605 27.4512 19.5898 27.2754 19.7949 27.1875C19.7656 27.1875 19.7168 27.1582 19.6387 27.0996C19.5703 27.041 19.4922 26.9824 19.4043 26.9238C19.3164 26.8652 19.2578 26.8359 19.2285 26.8359C19.3164 26.6309 19.4434 26.5332 19.6191 26.5332C19.4727 26.1523 19.6387 25.752 20.0977 25.3125C20.1855 25.2246 20.3223 25.1367 20.5078 25.0488C20.6934 24.9609 20.8691 24.8926 21.0352 24.834C21.1914 24.7754 21.2891 24.7363 21.3184 24.707C21.5527 24.502 21.7285 24.2969 21.8457 24.1016C21.9629 23.8965 21.9727 23.6914 21.8848 23.4668C21.7969 23.252 21.582 23.1152 21.2305 23.0566L21.1816 22.7539V21.8848C21.1523 21.7383 21.1426 21.6016 21.1426 21.4746V20.9961C21.1426 20.8105 21.1816 20.7031 21.2695 20.6934C21.3574 20.6738 21.4844 20.7031 21.6602 20.7617C21.8359 20.8496 22.0508 21.3379 22.3145 22.2461C22.3438 22.4805 22.4707 22.7539 22.7051 23.0762C22.8223 22.959 22.9199 22.8809 22.9883 22.832C23.0664 22.793 23.1152 22.7832 23.1445 22.8125C23.1738 22.8418 23.2422 22.9004 23.3398 22.9883C23.4375 23.0762 23.5254 23.1348 23.584 23.1641C23.7012 23.252 23.8965 23.3105 24.1699 23.3594C24.4434 23.3984 24.6289 23.457 24.7168 23.5059C25.2734 23.0957 25.6055 23.2031 25.7227 23.8086C25.752 23.6914 25.7422 23.5352 25.7031 23.3496C25.6641 23.1641 25.6348 23.0566 25.6348 23.0176C25.7812 22.7246 26.0156 22.6953 26.3281 22.9297C26.4746 23.0762 26.7969 23.0957 27.2852 22.998C27.7539 22.9004 28.0566 22.8809 28.2129 22.9199C28.1836 22.9102 28.0176 22.7539 27.9785 22.7539C28.0078 22.666 28.1152 22.4609 28.2129 22.5195C28.3398 22.5586 28.4668 22.4805 28.4961 22.4512C28.7402 22.3242 29.0625 21.8066 29.1504 21.748C28.7598 21.0059 29.2578 19.7559 29.1602 19.1797C29.1016 18.8281 28.9746 17.6562 28.0762 16.9141C27.9297 16.8262 27.0605 16.6406 26.4648 16.8262C26.0547 16.9824 25.918 17.4609 25.8887 17.832C25.5371 18.7402 24.5215 18.4961 24.4043 18.418C24.0137 18.1543 24.4922 17.3535 24.5898 17.1777C24.6875 17.002 24.8926 16.5527 24.9121 15.9961C24.9219 15.6738 24.9707 15.4688 25 15.3906H24.4727C24.4727 15.4199 24.3848 15.752 24.3848 15.7813C24.2676 15.6055 24.0918 15.5078 23.8379 15.4785C23.5938 15.4492 23.4082 15.5371 23.291 15.7422C23.2324 15.6836 23.0957 15.5273 22.8809 15.2637C22.666 15 22.5391 14.7656 22.5098 14.5703C22.5098 14.4824 22.4707 14.3359 22.4023 14.1309C22.334 13.9258 22.3047 13.7793 22.3145 13.6914C22.334 13.6035 22.4512 13.5645 22.6855 13.5645C22.7441 13.5645 22.9004 13.4473 22.8223 13.2129C22.793 13.125 22.6367 12.7051 22.5195 12.4707C22.1094 11.7188 21.5625 11.4941 20.8691 11.8164C20.8691 11.1719 21.0156 10.8301 21.3086 10.7715C21.5137 10.7129 21.7285 10.8203 21.9629 11.1035C22.168 11.3477 22.2461 11.543 22.207 11.709C22.2461 11.6211 22.3242 11.543 22.4414 11.4746C23.916 12.4219 24.3359 13.6426 24.3945 13.7891C24.4531 13.9355 24.4531 14.0234 24.3945 14.0527C24.8633 13.877 25.4785 14.0137 26.2695 14.4434C26.4453 14.5312 26.6895 14.7656 27.0117 15.166C27.334 15.5566 27.666 15.7227 28.0176 15.6641C28.3398 15.6641 28.9453 15.1953 29.7363 15.7031C29.9805 15.8594 31.1133 16.5723 31.8652 16.8359C32.0117 16.8945 32.627 17.2266 32.7344 18.457C32.7637 19.4824 33.7988 20.3418 34.2578 20.3711C34.082 20.3613 34.0918 20.5078 34.2578 20.8105C34.5312 21.3086 35.5566 22.3828 35.7129 22.5586C35.8691 22.7344 36.3477 23.3398 36.2109 23.8281C36.0938 23.8574 36.748 24.209 37.002 24.209C36.9434 24.1211 36.8945 23.9551 36.8457 23.7109C36.8066 23.4668 36.748 23.2812 36.6895 23.1641C36.6309 23.0762 36.4258 22.7539 36.084 22.207C35.5078 21.25 35.2246 20.5371 35.2539 20.0781C35.4004 20.0488 35.4883 20.0781 35.5371 20.166C35.625 20.3418 35.7031 20.8203 35.7324 20.9082C35.791 21.0254 35.9668 21.1621 36.2598 21.3184C36.5527 21.4746 36.7188 21.6309 36.7773 21.7773C36.6992 21.7773 36.6895 21.8652 36.6016 21.8652C36.5723 22.0703 36.6895 22.3242 36.9531 22.6465C37.2168 22.9688 37.3145 23.1836 37.2559 23.3008C37.7246 23.5742 37.832 24.668 38.125 24.8633C38.1543 24.9121 35.1562 25 35.8008 25.8398C37.334 27.832 35.4102 28.6328 35.459 28.6719C35.4883 28.7012 38.2422 28.3789 38.6523 26.8066C38.6914 26.6602 38.7207 25.4492 38.9355 25.5762C39.1504 25.7129 39.2871 25.791 39.3457 25.8203C39.4043 25.8496 39.502 25.9473 39.6484 26.123C40.3711 27.0215 40.5957 27.5 40.3027 27.5586C40.5957 27.5 40.8398 27.7246 41.0449 28.2324C41.25 28.7402 41.3086 29.1406 41.2207 29.4336H41.3086C41.2793 29.5508 41.2695 29.8242 41.2695 30.2637C41.2695 30.7031 41.2402 31.0938 41.1816 31.4648C41.123 31.8262 41.0059 32.0117 40.8301 32.0117C41.0059 32.0117 41.1328 32.1582 41.2207 32.4512C41.3086 32.7441 41.3086 32.9395 41.2207 33.0566C41.1914 33.1445 41.0938 33.1055 40.918 32.9492C40.7422 32.793 40.6445 32.6855 40.6152 32.627C40.3223 32.8027 40.2051 33.0078 40.2637 33.2324C40.3223 33.3496 40.5664 33.584 41.0059 33.9258C41.9629 34.5898 42.4609 34.9121 42.4805 34.8828C42.334 35.1172 42.3633 35.3223 42.5684 35.4883C42.8027 35.3418 42.9297 35.3125 42.959 35.3809C42.9883 35.4492 43.0176 35.5859 43.0469 35.7715C43.0762 35.957 43.1348 36.0645 43.2227 36.0938C43.3398 36.123 43.5156 36.2109 43.6621 36.3574C42.207 38.916 39.3359 42.1289 35.9277 43.9453Z" fill="#1DA69A"/>
</svg>
