<?xml version="1.0" encoding="utf-8"?>
<!-- Generator: Adobe Illustrator 26.0.0, SVG Export Plug-In . SVG Version: 6.00 Build 0)  -->
<svg version="1.1" id="Layer_1" xmlns="http://www.w3.org/2000/svg" xmlns:xlink="http://www.w3.org/1999/xlink" x="0px" y="0px"
	 viewBox="0 0 150 137" style="enable-background:new 0 0 150 137;" xml:space="preserve">
<style type="text/css">
	.st0{fill:url(#SVGID_1_);}
	.st1{fill:url(#SVGID_00000142162204575012565660000002384743656814678658_);}
	.st2{fill:url(#SVGID_00000043430996380562092210000016212692187216515479_);}
	.st3{fill:#FFFFFF;}
</style>
<g>
	
		<radialGradient id="SVGID_1_" cx="74.9999" cy="69.7858" r="71.6876" gradientTransform="matrix(1 0 0 -1 0 138)" gradientUnits="userSpaceOnUse">
		<stop  offset="0" style="stop-color:#074F44"/>
		<stop  offset="1" style="stop-color:#1DA69A"/>
	</radialGradient>
	<path class="st0" d="M141,4.8c-10.6-8.5-28.7-3.9-57.1-0.6c-28.2,3.3-40.3,3.5-57-0.5C11,0,0.4,7.1,0,20.6
		c-0.4,13.5,3.6,30.8,8.3,42.8C28,113.5,58,131.6,80.3,135.8c22.3,4.1,26.5-11.3,31.2-35.2c3.8-19.2,13.7-38.7,28.1-55.5
		C154.8,27.5,151.6,13.3,141,4.8z"/>
	
		<radialGradient id="SVGID_00000014595131917238398510000002900144467932454056_" cx="74.9978" cy="69.7844" r="65.3051" gradientTransform="matrix(1 0 0 -1 0 138)" gradientUnits="userSpaceOnUse">
		<stop  offset="0" style="stop-color:#074F44"/>
		<stop  offset="1" style="stop-color:#0A776A"/>
	</radialGradient>
	<path style="fill:url(#SVGID_00000014595131917238398510000002900144467932454056_);" d="M133.6,46.2c-6.4-10.6-22-13.3-45.5-20.5
		C64.7,18.5,54.9,14.4,42.5,5.3c-11.8-8.6-22-6.5-25.6,4.4c-3.6,10.9-4.7,26.5-3.9,37.9c3.4,47.8,22.9,73.1,39.7,84.3
		c16.8,11.2,24,0,33.7-17.8c7.8-14.3,20.5-26.8,36.2-35.5C139,69.6,140,56.8,133.6,46.2z"/>
	
		<radialGradient id="SVGID_00000172425977720005466810000001758668301524663185_" cx="75.0017" cy="69.7836" r="55.7698" gradientTransform="matrix(1 0 0 -1 0 138)" gradientUnits="userSpaceOnUse">
		<stop  offset="0" style="stop-color:#074F44"/>
		<stop  offset="1" style="stop-color:#1DA69A"/>
	</radialGradient>
	<path style="fill:url(#SVGID_00000172425977720005466810000001758668301524663185_);" d="M126.3,21.5c-7.9-7.1-22-4.3-43.9-3
		c-21.8,1.3-31.1,1-43.9-2.9c-12.1-3.6-20.5,1.5-21.2,12c-0.7,10.5,1.8,24.2,5.1,33.8c13.6,40,36.1,55.4,53.1,59.7
		c17,4.2,20.7-7.7,25.1-26.1c3.5-14.8,11.7-29.6,23.4-42.1C136.3,39.8,134.3,28.6,126.3,21.5z"/>
	<path class="st3" d="M79.2,76.6c-0.7,1.4-1.7,2.7-2.9,3.7c-1.2,1.1-2.7,2-4.2,2.7c-1.5,0.7-3.2,1-4.9,1c-0.9,0-1.8-0.1-2.7-0.3
		c-0.8-0.2-1.6-0.6-2.2-1c-0.6-0.5-1.2-1.1-1.5-1.8c-0.4-0.8-0.6-1.7-0.6-2.6c0-0.7,0.1-1.5,0.4-2.2l7.5-0.4c0,0.6,0.1,1,0.4,1.2
		c0.3,0.3,0.7,0.4,1.1,0.4c0.4,0,0.8-0.1,1.2-0.3c0.4-0.2,0.9-0.4,1.2-0.7c0.4-0.3,0.7-0.7,0.9-1.1c0.2-0.4,0.4-0.9,0.4-1.3
		c0-0.7-0.3-1.3-1-1.9c-0.7-0.6-1.7-0.9-3.3-0.9c-1.1,0-2.2,0.1-3.3,0.2c-1.1,0.2-2,0.3-2.7,0.3l0.8-6.3c0.9-0.5,1.7-1.1,2.7-1.7
		c0.9-0.6,1.7-1.2,2.5-1.8c0.9-0.6,1.7-1.3,2.5-1.9l-6.9,0.1l0.5-7.4c2.6-0.1,5-0.2,7.2-0.3c0.9,0,1.9,0,2.9-0.1
		c1,0,1.9-0.1,2.8-0.1c0.9,0,1.6-0.1,2.3-0.1c0.7,0,1.2,0,1.6,0l-1,9.1l-8.6,4.5c1.3,0.2,2.5,0.6,3.7,1.1c0.9,0.4,1.8,0.9,2.5,1.6
		c0.6,0.6,1.1,1.2,1.4,2c0.3,0.7,0.4,1.5,0.4,2.2C80.2,73.9,79.9,75.3,79.2,76.6z"/>
</g>
</svg>
