<?xml version="1.0" encoding="utf-8"?>
<!-- Generator: Adobe Illustrator 26.0.0, SVG Export Plug-In . SVG Version: 6.00 Build 0)  -->
<svg version="1.1" id="Layer_1" xmlns="http://www.w3.org/2000/svg" xmlns:xlink="http://www.w3.org/1999/xlink" x="0px" y="0px"
	 viewBox="0 0 150 137" style="enable-background:new 0 0 150 137;" xml:space="preserve">
<style type="text/css">
	.st0{fill:url(#SVGID_1_);}
	.st1{fill:url(#SVGID_00000160887261584110067730000003794690115687429519_);}
	.st2{fill:url(#SVGID_00000101065802303511703270000000121667363657710773_);}
	.st3{fill:#FFFFFF;}
</style>
<g>
	
		<radialGradient id="SVGID_1_" cx="-177.1332" cy="322.3013" r="1" gradientTransform="matrix(62.7882 0 0 -69.2937 11190.6963 22406.8809)" gradientUnits="userSpaceOnUse">
		<stop  offset="0" style="stop-color:#074F44"/>
		<stop  offset="1" style="stop-color:#0A776A"/>
	</radialGradient>
	<path class="st0" d="M117.4,18c-9.4-6.2-23.2-6.4-33.8-0.4c-11.6,6.6-18.4,8.7-29,8.6C44.6,26,24.9,20.2,12,32.4
		c-15.5,14.6-15.3,37-3,56.5c13.7,21.8,44.2,45.6,79.8,44.2c35.6-1.3,50.9-32.8,52.1-54.8C142.9,37.6,127,24.3,117.4,18z"/>
	
		<radialGradient id="SVGID_00000042002268629192473930000007173891434301506708_" cx="-177.2464" cy="322.4079" r="1" gradientTransform="matrix(65.3682 0 0 -72.1411 11665.542 23327.3457)" gradientUnits="userSpaceOnUse">
		<stop  offset="0" style="stop-color:#074F44"/>
		<stop  offset="1" style="stop-color:#1DA69A"/>
	</radialGradient>
	<path style="fill:url(#SVGID_00000042002268629192473930000007173891434301506708_);" d="M138.4,39.3c-7.7-9.7-19.6-17.4-31.5-17.1
		c-13,0.4-22.2-0.8-32.1-6.2C65.5,10.8,50.8-2.7,35,0.5C15.3,4.3,8.6,27.2,13.6,51.4c5.7,27,25.5,66.5,60.2,80.5
		c33.9,13.7,60-6.3,69.3-24.5C155.9,82.1,148.9,52.5,138.4,39.3z"/>
	
		<radialGradient id="SVGID_00000171694689207667154770000011449433002192860806_" cx="-176.9272" cy="321.9627" r="1" gradientTransform="matrix(58.5776 0 0 -61.5685 10431.2969 19890.1992)" gradientUnits="userSpaceOnUse">
		<stop  offset="0" style="stop-color:#074F44"/>
		<stop  offset="1" style="stop-color:#1DA69A"/>
	</radialGradient>
	<path style="fill:url(#SVGID_00000171694689207667154770000011449433002192860806_);" d="M125.1,51.6C117,13.3,103.3,7.2,94.3,5.1
		c-8.8-2-19.7,3.3-26.5,13c-7.5,10.6-12.3,15.3-20.6,19.4c-7.9,3.9-24.6,6.4-31.8,22.7c-8.6,19.6-3.1,40.1,11.1,53.2
		c15.9,14.6,45.3,24.4,72.9,9C126.8,107.1,129.4,72.3,125.1,51.6z"/>
	<path class="st3" d="M72.3,83.2l0.7-5.4c0.1-0.9,0.5-1.8,1.3-2.8c0.9-1,1.8-2,2.8-2.9c1.1-1,2.2-1.9,3.5-2.9
		c1.2-0.9,2.4-1.8,3.4-2.7c0.9-0.7,1.8-1.5,2.6-2.4c0.7-0.7,1-1.4,1-1.9c0-0.9-0.2-1.5-0.5-2c-0.3-0.5-0.7-0.7-1.2-0.7
		c-0.4,0-0.9,0.1-1.3,0.3c-0.3,0.2-0.6,0.5-0.8,0.8c-0.2,0.3-0.3,0.7-0.4,1.1c-0.1,0.4-0.1,0.8-0.1,1.2v0.4c0,0.1,0,0.1,0,0.2
		c-0.8,0.1-1.6,0.1-2.4,0.2c-0.7,0.1-1.5,0.1-2.4,0.2c-0.9,0.1-1.7,0.2-2.6,0.3c0-0.2,0-0.5-0.1-0.7c0-0.2,0-0.5,0-0.7
		c0-1.7,0.3-3.2,1-4.5c0.6-1.3,1.5-2.4,2.5-3.3c2.1-1.8,4.8-2.8,7.5-2.8c1.1,0,2.1,0.2,3.1,0.5c1,0.3,1.9,0.9,2.6,1.6
		c0.8,0.7,1.4,1.6,1.8,2.7c0.5,1.1,0.7,2.3,0.7,3.8c0,1.5-0.4,2.9-1.1,4.2c-0.8,1.5-1.9,2.8-3.1,4c-1.4,1.4-3,2.7-4.7,3.8
		c-1.9,1.3-3.8,2.5-5.9,3.5c0.8,0,1.8,0,3-0.1c1.2-0.1,2.5-0.1,3.7-0.2l4.1-0.3l-0.7,6.2C90,82,89.3,82,88.4,82.1
		c-0.9,0.1-1.8,0.1-2.8,0.2c-1,0.1-2,0.1-3,0.2c-1,0.1-2.1,0.1-3,0.2C77.2,82.8,74.8,83,72.3,83.2z"/>
</g>
</svg>
