<?xml version="1.0" encoding="utf-8"?>
<!-- Generator: Adobe Illustrator 26.0.0, SVG Export Plug-In . SVG Version: 6.00 Build 0)  -->
<svg version="1.1" id="Layer_1" xmlns="http://www.w3.org/2000/svg" xmlns:xlink="http://www.w3.org/1999/xlink" x="0px" y="0px"
	 viewBox="0 0 150 137" style="enable-background:new 0 0 150 137;" xml:space="preserve">
<style type="text/css">
	.st0{fill:url(#SVGID_1_);}
	.st1{fill:url(#SVGID_00000008827440355122974330000001175477687810856894_);}
	.st2{fill:url(#SVGID_00000053544350209612160570000018315619339236019872_);}
	.st3{fill:#FFFFFF;}
</style>
<g>
	
		<radialGradient id="SVGID_1_" cx="-177.4374" cy="322.3336" r="1" gradientTransform="matrix(70.2423 0 0 -70.1307 12539.5264 22674.4766)" gradientUnits="userSpaceOnUse">
		<stop  offset="0" style="stop-color:#074F44"/>
		<stop  offset="1" style="stop-color:#0A776A"/>
	</radialGradient>
	<path class="st0" d="M122,39.6c0,0-4.2-4.1-24.5-26.1c-20.3-22-42.9,0-48.3,6c-5.4,6-15.6,17.2-30.9,33.7
		C2.9,69.6-2.2,84.7,2.5,96.3c4.7,11.7,21.8,17.2,38.4,12.9c18.2-4.7,35.1-5.3,49.3,11.9c17.8,21.8,49.8,15.5,58-15
		C156.5,75.7,134.3,53.1,122,39.6z"/>
	
		<radialGradient id="SVGID_00000052098586666619488670000002431476643047487889_" cx="-177.0669" cy="321.9782" r="0.9994" gradientTransform="matrix(61.3679 0 0 -61.8831 10932.4355 20005.6035)" gradientUnits="userSpaceOnUse">
		<stop  offset="0" style="stop-color:#074F44"/>
		<stop  offset="1" style="stop-color:#1DA69A"/>
	</radialGradient>
	<path style="fill:url(#SVGID_00000052098586666619488670000002431476643047487889_);" d="M129.9,60.2
		c-5.6-18.7-22.7-27.5-37.8-22.1c-9.6,3.4-21.9,4.7-40.4-7.2C31.8,18-0.1,19.5,0,55.9c0.1,46.4,21.3,63.4,33.8,71.4
		c26.8,16.9,64.4,8.2,79.8-8.9C128.8,101.6,135.7,79.5,129.9,60.2z"/>
	
		<radialGradient id="SVGID_00000127035899769890084070000005930575015859468680_" cx="-177.2464" cy="322.106" r="1" gradientTransform="matrix(65.3678 0 0 -64.6178 11658.8174 20875.2852)" gradientUnits="userSpaceOnUse">
		<stop  offset="0" style="stop-color:#074F44"/>
		<stop  offset="1" style="stop-color:#1DA69A"/>
	</radialGradient>
	<path style="fill:url(#SVGID_00000127035899769890084070000005930575015859468680_);" d="M136.2,8.3c-6-8.7-21.7-12.8-36.9-0.9
		c-17,13.3-41,19.9-62.5,23.3c-22.1,3.6-32.6,19.9-32.9,30C3.6,71.7,13.1,85.5,41,102.4c27.9,16.9,47.4,21.6,64.1,19.4
		c16.7-2.2,27.6-12,33-28.4c3.8-11.5,1.7-25.2,0.8-43.6C137.8,26.9,144.9,20.8,136.2,8.3z"/>
	<path class="st3" d="M66.7,83.4c0.6-2.6,1.1-5.1,1.7-7.7c0.2-1.1,0.5-2.2,0.7-3.4c0.2-1.2,0.5-2.4,0.7-3.6c0.2-1.2,0.5-2.4,0.7-3.6
		c0.2-1.2,0.4-2.3,0.6-3.4c-0.7,0.1-1.4,0.1-2,0.3c-0.5,0.1-1.1,0.2-1.7,0.3c-0.6,0.1-1.1,0.2-1.5,0.2c0.1-0.4,0.1-1,0.3-1.8
		c0.1-0.8,0.2-1.6,0.4-2.5c0.1-1,0.3-2,0.4-3.2c0.7-0.1,1.6-0.3,2.7-0.6c1-0.2,2.3-0.4,4-0.6c1.7-0.3,3.7-0.6,6.2-1
		c-0.6,2.5-1.1,4.9-1.6,7.3c-0.5,2.4-1,4.7-1.4,7.1c-0.4,2.4-0.9,4.8-1.3,7.2c-0.4,2.4-0.8,4.9-1.2,7.4c-0.7,0.2-1.4,0.4-2.3,0.6
		c-0.9,0.2-1.7,0.4-2.5,0.5C68.6,83,67.6,83.2,66.7,83.4z"/>
</g>
</svg>
