<?xml version="1.0" encoding="utf-8"?>
<!-- Generator: Adobe Illustrator 26.0.0, SVG Export Plug-In . SVG Version: 6.00 Build 0)  -->
<svg version="1.1" id="Layer_1" xmlns="http://www.w3.org/2000/svg" xmlns:xlink="http://www.w3.org/1999/xlink" x="0px" y="0px"
	 viewBox="0 0 150 137" style="enable-background:new 0 0 150 137;" xml:space="preserve">
<style type="text/css">
	.st0{fill:url(#SVGID_1_);}
	.st1{fill:url(#SVGID_00000039091842639708909840000007453328181241804724_);}
	.st2{fill:url(#SVGID_00000040557580152640511190000016878095041541151368_);}
	.st3{fill:#FFFFFF;}
</style>
<g>
	
		<radialGradient id="SVGID_1_" cx="74.9999" cy="69.7858" r="71.6876" gradientTransform="matrix(1 0 0 -1 0 138)" gradientUnits="userSpaceOnUse">
		<stop  offset="0" style="stop-color:#074F44"/>
		<stop  offset="1" style="stop-color:#0A776A"/>
	</radialGradient>
	<path class="st0" d="M141,4.8c-10.6-8.5-28.7-3.9-57.1-0.6c-28.2,3.3-40.3,3.5-57-0.5C11,0,0.4,7.1,0,20.6
		c-0.4,13.5,3.6,30.8,8.3,42.8C28,113.5,58,131.6,80.3,135.8c22.3,4.1,26.5-11.3,31.2-35.2c3.8-19.2,13.7-38.7,28.1-55.5
		C154.8,27.5,151.6,13.3,141,4.8z"/>
	
		<radialGradient id="SVGID_00000010285024257623625900000003277057043329769120_" cx="74.9978" cy="69.7844" r="65.3051" gradientTransform="matrix(1 0 0 -1 0 138)" gradientUnits="userSpaceOnUse">
		<stop  offset="0" style="stop-color:#074F44"/>
		<stop  offset="1" style="stop-color:#1DA69A"/>
	</radialGradient>
	<path style="fill:url(#SVGID_00000010285024257623625900000003277057043329769120_);" d="M133.6,46.2c-6.4-10.6-22-13.3-45.5-20.5
		C64.7,18.5,54.9,14.4,42.5,5.3c-11.8-8.6-22-6.5-25.6,4.4c-3.6,10.9-4.7,26.5-3.9,37.9c3.4,47.8,22.9,73.1,39.7,84.3
		c16.8,11.2,24,0,33.7-17.8c7.8-14.3,20.5-26.8,36.2-35.5C139,69.6,140,56.8,133.6,46.2z"/>
	
		<radialGradient id="SVGID_00000006671803891605473160000012936493682718546870_" cx="75.0017" cy="69.7836" r="55.7698" gradientTransform="matrix(1 0 0 -1 0 138)" gradientUnits="userSpaceOnUse">
		<stop  offset="0" style="stop-color:#074F44"/>
		<stop  offset="1" style="stop-color:#1DA69A"/>
	</radialGradient>
	<path style="fill:url(#SVGID_00000006671803891605473160000012936493682718546870_);" d="M126.3,21.5c-7.9-7.1-22-4.3-43.9-3
		c-21.8,1.3-31.1,1-43.9-2.9c-12.1-3.6-20.5,1.5-21.2,12c-0.7,10.5,1.8,24.2,5.1,33.8c13.6,40,36.1,55.4,53.1,59.7
		c17,4.2,20.7-7.7,25.1-26.1c3.5-14.8,11.7-29.6,23.4-42.1C136.3,39.8,134.3,28.6,126.3,21.5z"/>
	<path class="st3" d="M92.6,52.3h-5.8l-3.1-10.1c-0.6-1.9-2.4-3.2-4.3-3.2c-0.4,0-0.9,0.1-1.3,0.2l-26.9,8.2c-2.4,0.7-3.7,3.2-3,5.6
		L56,78.6c0.5,1.8,2.1,3,3.9,3.2v1.8c0,2.4,2,4.4,4.4,4.4h28.3c2.4,0,4.4-2,4.4-4.4V56.7C97,54.3,95,52.3,92.6,52.3z M59.9,56.7v22
		c-0.4-0.1-0.8-0.5-0.9-0.9l-7.8-25.6c-0.2-0.5,0-0.9,0.1-1.1c0.1-0.2,0.4-0.5,0.8-0.7L79,42.1c0.1,0,0.3-0.1,0.4-0.1
		c0.6,0,1.2,0.4,1.4,1l2.8,9.2H64.3C61.9,52.3,59.9,54.3,59.9,56.7z M93.9,79.6l-6-6l-0.2-0.2l-0.5,0.5l-6.2,6l-3.3-3.1l-2.5-2.4
		l-5.9-5.6L63,74.9V57.4c0-1.1,0.9-2.1,2.1-2.1h26.8c1.1,0,2.1,0.9,2.1,2.1L93.9,79.6L93.9,79.6z M80.7,68.8c-2.4,0-4.4-2-4.4-4.4
		c0-2.5,2-4.4,4.4-4.4c2.5,0,4.4,2,4.4,4.4C85.2,66.8,83.2,68.8,80.7,68.8z"/>
</g>
</svg>
