<?xml version="1.0" encoding="utf-8"?>
<!-- Generator: Adobe Illustrator 26.0.0, SVG Export Plug-In . SVG Version: 6.00 Build 0)  -->
<svg version="1.1" id="Layer_1" xmlns="http://www.w3.org/2000/svg" xmlns:xlink="http://www.w3.org/1999/xlink" x="0px" y="0px"
	 viewBox="0 0 150 137" style="enable-background:new 0 0 150 137;" xml:space="preserve">
<style type="text/css">
	.st0{fill:url(#SVGID_1_);}
	.st1{fill:url(#SVGID_00000019672552368982656650000002276529273071661742_);}
	.st2{fill:url(#SVGID_00000054957610260148395220000010792867542756141994_);}
	.st3{fill:#FFFFFF;}
	.st4{fill:#1DA69A;}
</style>
<g>
	
		<radialGradient id="SVGID_1_" cx="74.9999" cy="69.7858" r="71.6876" gradientTransform="matrix(1 0 0 -1 0 138)" gradientUnits="userSpaceOnUse">
		<stop  offset="0" style="stop-color:#074F44"/>
		<stop  offset="1" style="stop-color:#1DA69A"/>
	</radialGradient>
	<path class="st0" d="M141,4.8c-10.6-8.5-28.7-3.9-57.1-0.6c-28.2,3.3-40.3,3.5-57-0.5C11,0,0.4,7.1,0,20.6
		c-0.4,13.5,3.6,30.8,8.3,42.8C28,113.5,58,131.6,80.3,135.8c22.3,4.1,26.5-11.3,31.2-35.2c3.8-19.2,13.7-38.7,28.1-55.5
		C154.8,27.5,151.6,13.3,141,4.8z"/>
	
		<radialGradient id="SVGID_00000042709616629284987060000009702510737135166131_" cx="74.9978" cy="69.7844" r="65.3051" gradientTransform="matrix(1 0 0 -1 0 138)" gradientUnits="userSpaceOnUse">
		<stop  offset="0" style="stop-color:#074F44"/>
		<stop  offset="1" style="stop-color:#0A776A"/>
	</radialGradient>
	<path style="fill:url(#SVGID_00000042709616629284987060000009702510737135166131_);" d="M133.6,46.2c-6.4-10.6-22-13.3-45.5-20.5
		C64.7,18.5,54.9,14.4,42.5,5.3c-11.8-8.6-22-6.5-25.6,4.4c-3.6,10.9-4.7,26.5-3.9,37.9c3.4,47.8,22.9,73.1,39.7,84.3
		c16.8,11.2,24,0,33.7-17.8c7.8-14.3,20.5-26.8,36.2-35.5C139,69.6,140,56.8,133.6,46.2z"/>
	
		<radialGradient id="SVGID_00000121275207810001675610000017128652515261358492_" cx="75.0017" cy="69.7836" r="55.7698" gradientTransform="matrix(1 0 0 -1 0 138)" gradientUnits="userSpaceOnUse">
		<stop  offset="0" style="stop-color:#074F44"/>
		<stop  offset="1" style="stop-color:#1DA69A"/>
	</radialGradient>
	<path style="fill:url(#SVGID_00000121275207810001675610000017128652515261358492_);" d="M126.3,21.5c-7.9-7.1-22-4.3-43.9-3
		c-21.8,1.3-31.1,1-43.9-2.9c-12.1-3.6-20.5,1.5-21.2,12c-0.7,10.5,1.8,24.2,5.1,33.8c13.6,40,36.1,55.4,53.1,59.7
		c17,4.2,20.7-7.7,25.1-26.1c3.5-14.8,11.7-29.6,23.4-42.1C136.3,39.8,134.3,28.6,126.3,21.5z"/>
	<path class="st3" d="M46,41c0-0.4,0.1-0.8,0.2-1.2c0.1-0.4,0.4-0.7,0.7-1c0.3-0.3,0.6-0.5,1-0.7c0.4-0.1,0.8-0.2,1.2-0.2h33.6
		l12.2,12.1v45.6c0,0.4-0.1,0.8-0.2,1.2c-0.1,0.4-0.4,0.7-0.7,1c-0.3,0.3-0.6,0.5-1,0.7c-0.4,0.1-0.8,0.2-1.2,0.2H49
		c-0.4,0-0.8-0.1-1.2-0.2c-0.4-0.1-0.7-0.4-1-0.7c-0.3-0.3-0.5-0.6-0.7-1c-0.1-0.4-0.2-0.8-0.2-1.2V41z"/>
	<path class="st4" d="M82.7,38l12.2,12.1H82.7V38z"/>
	<path class="st4" d="M50.9,45.1c0-0.1,0-0.2,0.1-0.3c0.1-0.1,0.2-0.1,0.3-0.1h29.2c0,0,0.1,0,0.1,0c0,0,0.1,0,0.1,0.1
		c0,0,0.1,0.1,0.1,0.1c0,0,0,0.1,0,0.1c0,0.1,0,0.1,0,0.1c0,0,0,0.1-0.1,0.1c0,0-0.1,0.1-0.1,0.1c0,0-0.1,0-0.1,0H51.3
		c-0.1,0-0.1,0-0.1,0c0,0-0.1,0-0.1-0.1c0,0-0.1-0.1-0.1-0.1C50.9,45.2,50.9,45.1,50.9,45.1z M50.9,77.1c0-0.1,0-0.2,0.1-0.3
		c0.1-0.1,0.2-0.1,0.3-0.1h33.9c0.1,0,0.1,0,0.1,0c0,0,0.1,0,0.1,0.1c0,0,0.1,0.1,0.1,0.1c0,0,0,0.1,0,0.1c0,0.1,0,0.1,0,0.1
		c0,0-0.1,0.1-0.1,0.1c0,0-0.1,0.1-0.1,0.1c0,0-0.1,0-0.1,0H51.2c-0.1,0-0.2,0-0.3-0.1C50.9,77.3,50.9,77.2,50.9,77.1L50.9,77.1z
		 M50.9,47c0,0,0-0.1,0-0.1c0,0,0-0.1,0.1-0.1c0,0,0.1-0.1,0.1-0.1c0,0,0.1,0,0.1,0h32.5c0.1,0,0.1,0,0.1,0c0,0,0.1,0,0.1,0.1
		c0,0,0.1,0.1,0.1,0.1c0,0,0,0.1,0,0.1c0,0,0,0.1,0,0.1c0,0,0,0.1-0.1,0.1c0,0-0.1,0.1-0.1,0.1c0,0-0.1,0-0.1,0H51.2
		c-0.1,0-0.2-0.1-0.2-0.1S50.9,47.1,50.9,47z M50.9,79c0-0.1,0-0.2,0.1-0.2c0.1-0.1,0.1-0.1,0.2-0.1h37.4c0.1,0,0.2,0,0.2,0.1
		C88.9,78.9,89,79,89,79c0,0.1,0,0.2-0.1,0.2c-0.1,0.1-0.1,0.1-0.2,0.1H51.2c-0.1,0-0.2,0-0.2-0.1C50.9,79.2,50.9,79.1,50.9,79
		L50.9,79z M50.9,49.1c0,0,0-0.1,0-0.1c0,0,0-0.1,0.1-0.1s0.1-0.1,0.1-0.1c0,0,0.1,0,0.1,0h23.5c0.1,0,0.1,0,0.2,0
		c0.1,0,0.1,0,0.2,0.1c0,0,0.1,0.1,0.1,0.1c0,0.1,0,0.1,0,0.2c0,0.1,0,0.1,0,0.2c0,0.1-0.1,0.1-0.1,0.1s-0.1,0.1-0.2,0.1
		c-0.1,0-0.1,0-0.2,0H51.3c-0.1,0-0.2,0-0.3-0.1C50.9,49.3,50.9,49.2,50.9,49.1z M50.9,81.2c0,0,0-0.1,0-0.1c0,0,0-0.1,0.1-0.1
		c0,0,0.1-0.1,0.1-0.1c0,0,0.1,0,0.1,0h37.3c0,0,0.1,0,0.1,0c0,0,0.1,0,0.1,0.1s0.1,0.1,0.1,0.1c0,0,0,0.1,0,0.1c0,0.1,0,0.1,0,0.1
		s0,0.1-0.1,0.1c0,0-0.1,0.1-0.1,0.1c0,0-0.1,0-0.1,0H51.2c-0.1,0-0.2-0.1-0.2-0.1C50.9,81.3,50.9,81.3,50.9,81.2L50.9,81.2z
		 M50.9,56.5c0-0.1,0-0.2,0.1-0.3c0.1-0.1,0.2-0.1,0.2-0.1h38.2c0.1,0,0.1,0,0.2,0c0.1,0,0.1,0,0.2,0.1c0,0,0.1,0.1,0.1,0.1
		c0,0.1,0,0.1,0,0.2c0,0.1,0,0.1,0,0.2c0,0.1-0.1,0.1-0.1,0.1c0,0-0.1,0.1-0.2,0.1c-0.1,0-0.1,0-0.2,0H51.2c0,0-0.1,0-0.1,0
		s-0.1,0-0.1-0.1s-0.1-0.1-0.1-0.1C50.9,56.5,50.9,56.5,50.9,56.5z M50.9,88.5c0,0,0-0.1,0-0.1c0,0,0-0.1,0.1-0.1
		c0,0,0.1-0.1,0.1-0.1s0.1,0,0.1,0h38.2c0.1,0,0.2,0,0.3,0.1c0.1,0.1,0.1,0.2,0.1,0.3c0,0.1,0,0.2-0.1,0.3c-0.1,0.1-0.2,0.1-0.3,0.1
		H51.2c-0.1,0-0.2-0.1-0.2-0.1C50.9,88.7,50.9,88.6,50.9,88.5z M50.9,58.2c0,0,0-0.1,0-0.1c0,0,0-0.1,0.1-0.1c0,0,0.1-0.1,0.1-0.1
		c0,0,0.1,0,0.1,0h36.5c0.1,0,0.1,0,0.1,0c0,0,0.1,0,0.1,0.1c0,0,0.1,0.1,0.1,0.1c0,0,0,0.1,0,0.1c0,0.1,0,0.2-0.1,0.3
		c-0.1,0.1-0.2,0.1-0.3,0.1H51.3c-0.1,0-0.2,0-0.3-0.1C50.9,58.4,50.9,58.3,50.9,58.2z M50.9,90.2c0,0,0-0.1,0-0.1
		c0,0,0-0.1,0.1-0.1c0,0,0.1-0.1,0.1-0.1s0.1,0,0.1,0h36.5c0.1,0,0.2,0,0.3,0.1c0.1,0.1,0.1,0.2,0.1,0.3c0,0,0,0.1,0,0.1
		s0,0.1-0.1,0.1c0,0-0.1,0.1-0.1,0.1s-0.1,0-0.1,0H51.2c-0.1,0-0.2-0.1-0.2-0.1C50.9,90.4,50.9,90.3,50.9,90.2z M50.9,59.9
		c0,0,0-0.1,0-0.1c0,0,0-0.1,0.1-0.1c0,0,0.1-0.1,0.1-0.1c0,0,0.1,0,0.1,0h37.4c0.1,0,0.2,0,0.3,0.1s0.1,0.2,0.1,0.3
		c0,0.1,0,0.2-0.1,0.3s-0.2,0.1-0.3,0.1H51.3c-0.1,0-0.2,0-0.3-0.1C50.9,60.1,50.9,60,50.9,59.9z M50.9,91.9c0,0,0-0.1,0-0.1
		c0,0,0-0.1,0.1-0.1c0,0,0.1-0.1,0.1-0.1s0.1,0,0.1,0h37.4c0.1,0,0.2,0,0.3,0.1c0.1,0.1,0.1,0.2,0.1,0.3c0,0,0,0.1,0,0.1
		c0,0,0,0.1-0.1,0.1c0,0-0.1,0.1-0.1,0.1c0,0-0.1,0-0.1,0H51.3c-0.1,0-0.2,0-0.3-0.1C50.9,92.1,50.9,92,50.9,91.9z M50.9,61.6
		c0-0.1,0-0.2,0.1-0.3c0.1-0.1,0.2-0.1,0.2-0.1h37.4c0.1,0,0.1,0,0.2,0c0.1,0,0.1,0,0.2,0.1c0,0,0.1,0.1,0.1,0.1c0,0.1,0,0.1,0,0.2
		c0,0.1,0,0.1,0,0.2c0,0.1-0.1,0.1-0.1,0.1c0,0-0.1,0.1-0.2,0.1c-0.1,0-0.1,0-0.2,0H51.3c-0.1,0-0.2,0-0.3-0.1
		C50.9,61.8,50.9,61.7,50.9,61.6z M50.9,63.3c0,0,0-0.1,0-0.1c0,0,0-0.1,0.1-0.1c0,0,0.1-0.1,0.1-0.1c0,0,0.1,0,0.1,0h35
		c0.1,0,0.1,0,0.1,0c0,0,0.1,0,0.1,0.1c0,0,0.1,0.1,0.1,0.1c0,0,0,0.1,0,0.1c0,0,0,0.1,0,0.1c0,0,0,0.1-0.1,0.1c0,0-0.1,0.1-0.1,0.1
		s-0.1,0-0.1,0h-35c-0.1,0-0.2,0-0.3-0.1C50.9,63.5,50.9,63.4,50.9,63.3z M50.9,65.1c0-0.1,0-0.2,0.1-0.3c0.1-0.1,0.2-0.1,0.3-0.1
		h35c0.1,0,0.2,0,0.3,0.1c0.1,0.1,0.1,0.2,0.1,0.3c0,0.1,0,0.2-0.1,0.3c-0.1,0.1-0.2,0.1-0.3,0.1h-35c-0.1,0-0.2,0-0.3-0.1
		C50.9,65.3,50.9,65.2,50.9,65.1z M50.9,66.8c0-0.1,0-0.2,0.1-0.3c0.1-0.1,0.2-0.1,0.3-0.1h35c0.1,0,0.1,0,0.1,0c0,0,0.1,0,0.1,0.1
		s0.1,0.1,0.1,0.1s0,0.1,0,0.1c0,0.1-0.1,0.2-0.1,0.3c-0.1,0.1-0.2,0.1-0.3,0.1h-35c-0.1,0-0.2-0.1-0.3-0.1
		C50.9,67,50.9,66.9,50.9,66.8z M50.9,68.6c0,0,0-0.1,0-0.1c0,0,0-0.1,0.1-0.1c0,0,0.1-0.1,0.1-0.1s0.1,0,0.1,0h35
		c0.1,0,0.1,0,0.2,0c0.1,0,0.1,0,0.2,0.1c0,0,0.1,0.1,0.1,0.1c0,0.1,0,0.1,0,0.2c0,0.1,0,0.1,0,0.2c0,0.1-0.1,0.1-0.1,0.1
		s-0.1,0.1-0.2,0.1c-0.1,0-0.1,0-0.2,0h-35c-0.1,0-0.2-0.1-0.2-0.1C50.9,68.8,50.9,68.7,50.9,68.6z M50.9,73.8c0-0.1,0-0.2,0.1-0.3
		c0.1-0.1,0.2-0.1,0.3-0.1h16.1c0.1,0,0.1,0,0.1,0c0,0,0.1,0,0.1,0.1s0.1,0.1,0.1,0.1c0,0,0,0.1,0,0.1c0,0.1,0,0.1,0,0.1
		c0,0,0,0.1-0.1,0.1c0,0-0.1,0.1-0.1,0.1c0,0-0.1,0-0.1,0H51.3c-0.1,0-0.1,0-0.1,0c0,0-0.1,0-0.1-0.1c0,0-0.1-0.1-0.1-0.1
		C50.9,73.9,50.9,73.9,50.9,73.8z M50.9,83c0-0.1,0-0.2,0.1-0.3c0.1-0.1,0.2-0.1,0.3-0.1h32.4c0.1,0,0.1,0,0.1,0s0.1,0,0.1,0.1
		c0,0,0.1,0.1,0.1,0.1c0,0,0,0.1,0,0.1c0,0.1,0,0.1,0,0.1s-0.1,0.1-0.1,0.1c0,0-0.1,0.1-0.1,0.1c0,0-0.1,0-0.1,0H51.2
		c-0.1,0-0.2,0-0.3-0.1C50.9,83.2,50.9,83.1,50.9,83L50.9,83z M50.9,75.5c0-0.1,0-0.2,0.1-0.3c0.1-0.1,0.2-0.1,0.2-0.1h16.1
		c0.1,0,0.1,0,0.2,0c0.1,0,0.1,0,0.2,0.1c0,0,0.1,0.1,0.1,0.1c0,0.1,0,0.1,0,0.2c0,0.1,0,0.1,0,0.2c0,0.1-0.1,0.1-0.1,0.1
		c0,0-0.1,0.1-0.2,0.1c-0.1,0-0.1,0-0.2,0H51.2c-0.1,0-0.2-0.1-0.3-0.1C50.9,75.7,50.9,75.6,50.9,75.5z"/>
</g>
</svg>
