<?xml version="1.0" encoding="utf-8"?>
<!-- Generator: Adobe Illustrator 26.0.0, SVG Export Plug-In . SVG Version: 6.00 Build 0)  -->
<svg version="1.1" id="Layer_1" xmlns="http://www.w3.org/2000/svg" xmlns:xlink="http://www.w3.org/1999/xlink" x="0px" y="0px"
	 viewBox="0 0 150 137" style="enable-background:new 0 0 150 137;" xml:space="preserve">
<style type="text/css">
	.st0{fill:url(#SVGID_1_);}
	.st1{fill:url(#SVGID_00000093149619510360091870000004970121567574185908_);}
	.st2{fill:url(#SVGID_00000160887993090722770720000003539839048335952048_);}
	.st3{fill:#FFFFFF;}
</style>
<g>
	
		<radialGradient id="SVGID_1_" cx="-177.1332" cy="322.3013" r="1" gradientTransform="matrix(62.7882 0 0 -69.2937 11190.6963 22406.8809)" gradientUnits="userSpaceOnUse">
		<stop  offset="0" style="stop-color:#074F44"/>
		<stop  offset="1" style="stop-color:#0A776A"/>
	</radialGradient>
	<path class="st0" d="M117.4,18c-9.4-6.2-23.2-6.4-33.8-0.4c-11.6,6.6-18.4,8.7-29,8.6C44.6,26,24.9,20.2,12,32.4
		c-15.5,14.6-15.3,37-3,56.5c13.7,21.8,44.2,45.6,79.8,44.2c35.6-1.3,50.9-32.8,52.1-54.8C142.9,37.6,127,24.3,117.4,18z"/>
	
		<radialGradient id="SVGID_00000094616527750795013560000014217545437955824267_" cx="-177.2464" cy="322.4079" r="1" gradientTransform="matrix(65.3682 0 0 -72.1411 11665.542 23327.3457)" gradientUnits="userSpaceOnUse">
		<stop  offset="0" style="stop-color:#074F44"/>
		<stop  offset="1" style="stop-color:#1DA69A"/>
	</radialGradient>
	<path style="fill:url(#SVGID_00000094616527750795013560000014217545437955824267_);" d="M138.4,39.3c-7.7-9.7-19.6-17.4-31.5-17.1
		c-13,0.4-22.2-0.8-32.1-6.2C65.5,10.8,50.8-2.7,35,0.5C15.3,4.3,8.6,27.2,13.6,51.4c5.7,27,25.5,66.5,60.2,80.5
		c33.9,13.7,60-6.3,69.3-24.5C155.9,82.1,148.9,52.5,138.4,39.3z"/>
	
		<radialGradient id="SVGID_00000121273156391829699960000014666786481263842236_" cx="-176.9272" cy="321.9627" r="1" gradientTransform="matrix(58.5776 0 0 -61.5685 10431.2969 19890.1992)" gradientUnits="userSpaceOnUse">
		<stop  offset="0" style="stop-color:#074F44"/>
		<stop  offset="1" style="stop-color:#1DA69A"/>
	</radialGradient>
	<path style="fill:url(#SVGID_00000121273156391829699960000014666786481263842236_);" d="M125.1,51.6C117,13.3,103.3,7.2,94.3,5.1
		c-8.8-2-19.7,3.3-26.5,13c-7.5,10.6-12.3,15.3-20.6,19.4c-7.9,3.9-24.6,6.4-31.8,22.7c-8.6,19.6-3.1,40.1,11.1,53.2
		c15.9,14.6,45.3,24.4,72.9,9C126.8,107.1,129.4,72.3,125.1,51.6z"/>
	<path class="st3" d="M67.9,68.2l9.2-9.2v20.4c0,2.1,1.7,3.8,3.9,3.8c2.1,0,3.9-1.7,3.9-3.8l0-20.4l9.3,9.3c1.5,1.5,3.9,1.5,5.4,0.1
		c1.6-1.5,1.5-4,0-5.6L83.2,46.4c-1.2-1.2-3.1-1.2-4.3,0L62.4,62.8c-1.4,1.4-1.6,3.8,0,5.4C63.9,69.8,66.4,69.7,67.9,68.2z
		 M60.9,79.8c2.2,0,3.9,1.8,3.9,3.9v2.9h32.2v-2.9c0-2.2,1.8-4,4-3.9c2.2,0,3.9,1.8,3.9,3.9v7.5c0,1.8-1.5,3.3-3.3,3.3H60.3
		c-1.8,0-3.3-1.5-3.3-3.3v-7.5C57,81.6,58.8,79.8,60.9,79.8z"/>
</g>
</svg>
