<?xml version="1.0" encoding="utf-8"?>
<!-- Generator: Adobe Illustrator 25.2.3, SVG Export Plug-In . SVG Version: 6.00 Build 0)  -->
<svg version="1.1" id="Layer_1" xmlns="http://www.w3.org/2000/svg" xmlns:xlink="http://www.w3.org/1999/xlink" x="0px" y="0px"
	 viewBox="0 0 276 506" style="enable-background:new 0 0 276 506;" xml:space="preserve">
<style type="text/css">
	.st0{fill:#646464;}
	.st1{fill:#FFFFFF;}
</style>
<path class="st0" d="M275.6,177.9v64.4c0,0.9-0.7,1.6-1.6,1.6h-0.5v225.6c0,20.2-16.4,36.5-36.5,36.5H39.6
	c-20.2,0-36.5-16.3-36.5-36.5V243.9H1.6c-0.9,0-1.6-0.7-1.6-1.6v-39c0-0.9,0.7-1.6,1.6-1.6h1.5v-11.1H1.6c-0.9,0-1.6-0.7-1.6-1.6
	v-39.5c0-0.9,0.7-1.6,1.6-1.6h1.5v-19.2H1.6c-0.9,0-1.6-0.7-1.6-1.6v-17.3c0-0.9,0.7-1.6,1.6-1.6h1.5V36.5C3.1,16.3,19.4,0,39.6,0
	H237c20.2,0,36.5,16.3,36.5,36.5v139.8h0.5C274.9,176.4,275.6,177.1,275.6,177.9z"/>
<path d="M237,503.3l-200.1-0.7c-18.2-0.1-32.8-14.8-32.8-33L5.9,35.5C6,17.3,20.8,2.6,39,2.7l200.1,0.7c18.2,0.1,32.8,14.8,32.8,33
	l-1.8,434.1C270,488.7,255.2,503.4,237,503.3z"/>
<path class="st1" d="M235.2,492.8H40.8C26.5,492.8,15,481.2,15,467V39c0-14.2,11.6-25.8,25.8-25.8h194.5c14.2,0,25.8,11.6,25.8,25.8
	V467C261,481.2,249.5,492.8,235.2,492.8z"/>
</svg>
