<?xml version="1.0" encoding="utf-8"?>
<!-- Generator: Adobe Illustrator 26.0.0, SVG Export Plug-In . SVG Version: 6.00 Build 0)  -->
<svg version="1.1" id="Layer_1" xmlns="http://www.w3.org/2000/svg" xmlns:xlink="http://www.w3.org/1999/xlink" x="0px" y="0px"
	 viewBox="0 0 637 594" style="enable-background:new 0 0 637 594;" xml:space="preserve">
<style type="text/css">
	.st0{fill:#FFFFFF;stroke:#DADBE2;stroke-miterlimit:10;}
	.st1{fill:#C8C8C8;}
	.st2{fill:#1DA69A;}
	.st3{fill:#FFFFFF;}
	.st4{fill:#FA8617;}
	.st5{fill:#EA4D6A;}
	.st6{fill:#DADBE2;}
</style>
<g>
	<g>
		<path class="st0" d="M637,581.7H390.6c-7.3,0-13.2-5.9-13.2-13.2V13.8c0-4,3.3-7.3,7.3-7.3H637V581.7z"/>
	</g>
	<path class="st1" d="M389.7,155.5c2.6,0,4.7-2.1,4.7-4.7c0-2.6-2.1-4.7-4.7-4.7s-4.7,2.1-4.7,4.7
		C385,153.4,387.1,155.5,389.7,155.5z"/>
	<g>
		<path class="st0" d="M204.7,292.5c0,2.2-1.8,4-4,4H22.9c-2.2,0-4-1.8-4-4v-60.7c0-2.2,1.8-4,4-4h177.8c2.2,0,4,1.8,4,4"/>
	</g>
	<path class="st1" d="M392.5,261.5H212v0.9h180.5V261.5z"/>
	<path class="st1" d="M389.7,266.3c2.6,0,4.7-2.1,4.7-4.7c0-2.6-2.1-4.7-4.7-4.7s-4.7,2.1-4.7,4.7
		C385,264.2,387.1,266.3,389.7,266.3z"/>
	<path class="st1" d="M386.5,392.8h-45v0.9h45V392.8z"/>
	<path class="st1" d="M386.5,150.6h-45v0.9h45V150.6z"/>
	<path class="st1" d="M389.7,397.6c2.6,0,4.7-2.1,4.7-4.7c0-2.6-2.1-4.7-4.7-4.7s-4.7,2.1-4.7,4.7
		C385,395.5,387.1,397.6,389.7,397.6z"/>
	<path class="st1" d="M386.5,503.6H206.1v0.9h180.5V503.6z"/>
	<path class="st1" d="M389.7,508.5c2.6,0,4.7-2.1,4.7-4.7c0-2.6-2.1-4.7-4.7-4.7s-4.7,2.1-4.7,4.7
		C385,506.4,387.1,508.5,389.7,508.5z"/>
	<path class="st2" d="M204.8,273.8c6.4,0,11.7-5.2,11.7-11.7s-5.2-11.7-11.7-11.7s-11.7,5.2-11.7,11.7S198.4,273.8,204.8,273.8z"/>
	<path class="st3" d="M204.8,272.3c5.6,0,10.2-4.6,10.2-10.2s-4.6-10.2-10.2-10.2c-5.6,0-10.2,4.6-10.2,10.2
		S199.2,272.3,204.8,272.3z"/>
	<g>
		<path class="st0" d="M332.6,181.1c0,2.2-1.8,4-4,4H150.8c-2.2,0-4-1.8-4-4v-60.7c0-2.2,1.8-4,4-4h177.8c2.2,0,4,1.8,4,4"/>
	</g>
	<path class="st4" d="M332.6,162.4c6.4,0,11.7-5.2,11.7-11.7c0-6.4-5.2-11.7-11.7-11.7c-6.4,0-11.7,5.2-11.7,11.7
		C321,157.2,326.2,162.4,332.6,162.4z"/>
	<path class="st3" d="M332.6,160.9c5.6,0,10.2-4.6,10.2-10.2c0-5.6-4.6-10.2-10.2-10.2c-5.6,0-10.2,4.6-10.2,10.2
		C322.5,156.4,327,160.9,332.6,160.9z"/>
	<g>
		<path class="st0" d="M331.8,423.1c0,2.2-1.8,4-4,4H149.9c-2.2,0-4-1.8-4-4v-60.7c0-2.2,1.8-4,4-4h177.8c2.2,0,4,1.8,4,4"/>
	</g>
	<path class="st5" d="M331.8,404.4c6.4,0,11.7-5.2,11.7-11.7c0-6.4-5.2-11.7-11.7-11.7c-6.4,0-11.7,5.2-11.7,11.7
		C320.1,399.2,325.4,404.4,331.8,404.4z"/>
	<path class="st3" d="M331.8,402.9c5.6,0,10.2-4.6,10.2-10.2c0-5.6-4.6-10.2-10.2-10.2c-5.6,0-10.2,4.6-10.2,10.2
		C321.6,398.4,326.2,402.9,331.8,402.9z"/>
	<g>
		<path class="st0" d="M195.9,534c0,2.2-1.8,4-4,4H14c-2.2,0-4-1.8-4-4v-60.7c0-2.2,1.8-4,4-4h177.8c2.2,0,4,1.8,4,4"/>
	</g>
	<path class="st4" d="M195.9,515.3c6.4,0,11.7-5.2,11.7-11.7s-5.2-11.7-11.7-11.7s-11.7,5.2-11.7,11.7S189.5,515.3,195.9,515.3z"/>
	<path class="st3" d="M195.9,513.8c5.6,0,10.2-4.6,10.2-10.2s-4.6-10.2-10.2-10.2c-5.6,0-10.2,4.6-10.2,10.2
		S190.3,513.8,195.9,513.8z"/>
	<path class="st4" d="M157.9,145.8c-0.5-0.2-0.8-0.5-1.1-1c-0.3-0.4-0.5-0.9-0.5-1.4l1.7-0.3c0.2,0.9,0.7,1.4,1.5,1.4
		c0.5,0,0.9-0.2,1.1-0.5c0.2-0.3,0.4-0.7,0.4-1.3c0-0.6-0.1-1-0.4-1.3c-0.3-0.3-0.7-0.4-1.2-0.4c-0.3,0-0.6,0.1-0.9,0.2
		c-0.3,0.2-0.6,0.4-0.8,0.7l-1.1-0.2l0.6-5.6h5.1v1.7h-3.7l-0.2,2.1c0.4-0.2,0.9-0.4,1.4-0.4c1,0,1.8,0.3,2.3,0.9
		c0.5,0.6,0.8,1.4,0.8,2.4c0,0.7-0.1,1.3-0.4,1.8c-0.3,0.5-0.6,0.9-1.1,1.2c-0.5,0.3-1.1,0.4-1.7,0.4
		C158.8,146.1,158.3,146,157.9,145.8z"/>
	<path class="st4" d="M167.7,137.6c-0.2-0.2-0.3-0.5-0.3-0.8c0-0.3,0.1-0.6,0.3-0.8c0.2-0.2,0.5-0.3,0.8-0.3c0.3,0,0.6,0.1,0.8,0.3
		c0.2,0.2,0.3,0.5,0.3,0.8c0,0.3-0.1,0.6-0.3,0.8c-0.2,0.2-0.5,0.3-0.8,0.3C168.2,137.9,168,137.8,167.7,137.6z M167.7,138.8h1.8
		v7.2h-1.8V138.8z"/>
	<path class="st4" d="M171.4,138.8h1.8v1.2c0.3-0.4,0.6-0.7,0.9-0.9c0.3-0.2,0.7-0.3,1.2-0.3c0.5,0,0.9,0.1,1.2,0.4
		c0.4,0.2,0.6,0.6,0.8,1.1c0.3-0.5,0.6-0.8,1-1.1c0.4-0.3,0.8-0.4,1.2-0.4c0.7,0,1.2,0.2,1.6,0.6c0.4,0.4,0.6,0.9,0.6,1.6v5.1h-1.8
		v-4.8c0-0.7-0.3-1-0.9-1c-0.5,0-0.8,0.3-1.1,0.8c-0.3,0.5-0.4,1.3-0.4,2.2v2.8h-1.8v-4.8c0-0.7-0.3-1-0.9-1c-0.5,0-0.8,0.3-1.1,0.8
		c-0.3,0.5-0.4,1.3-0.4,2.3v2.6h-1.8L171.4,138.8L171.4,138.8z"/>
	<path class="st4" d="M183.6,145.5c-0.4-0.4-0.6-0.9-0.6-1.6c0-0.7,0.3-1.3,0.8-1.7c0.5-0.4,1.3-0.6,2.2-0.6h1.3v-0.3
		c0-0.3-0.1-0.6-0.4-0.8c-0.2-0.2-0.5-0.3-0.9-0.3c-0.6,0-1,0.3-1.2,0.8l-1.5-0.3c0.1-0.6,0.4-1.1,0.9-1.4c0.5-0.4,1.1-0.6,1.8-0.6
		c1,0,1.7,0.3,2.2,0.8c0.5,0.5,0.8,1.3,0.8,2.2v4.3h-1.5l-0.2-0.9c-0.6,0.7-1.3,1-2.2,1C184.5,146.1,184,145.9,183.6,145.5z
		 M186.7,144.2c0.3-0.3,0.5-0.6,0.5-1.1V143H186c-0.4,0-0.7,0.1-0.9,0.2c-0.2,0.2-0.3,0.4-0.3,0.7c0,0.2,0.1,0.4,0.2,0.5
		c0.2,0.1,0.3,0.2,0.6,0.2C186,144.6,186.4,144.5,186.7,144.2z"/>
	<path class="st4" d="M191.1,148.4c-0.6-0.4-0.9-1-0.9-1.8c0-0.6,0.2-1.1,0.6-1.4c-0.2-0.3-0.4-0.7-0.4-1.1c0-0.3,0.1-0.6,0.2-0.9
		c0.2-0.3,0.4-0.5,0.7-0.6c-0.3-0.4-0.5-0.9-0.5-1.5c0-0.5,0.1-0.9,0.3-1.3c0.2-0.4,0.6-0.6,1-0.8c0.4-0.2,0.8-0.3,1.3-0.3
		c0.5,0,0.9,0.1,1.3,0.3l1.4-0.7l0.7,1.2l-1,0.5c0.2,0.3,0.3,0.7,0.3,1.1c0,0.5-0.1,0.9-0.3,1.3c-0.2,0.4-0.6,0.6-1,0.8
		c-0.4,0.2-0.8,0.3-1.3,0.3c-0.4,0-0.7-0.1-1-0.2c-0.2,0.1-0.3,0.3-0.3,0.5c0,0.2,0.1,0.3,0.2,0.4c0.1,0.1,0.3,0.1,0.5,0.1h1.5
		c0.8,0,1.4,0.2,1.8,0.6c0.5,0.4,0.7,0.9,0.7,1.6c0,0.6-0.2,1-0.5,1.4c-0.3,0.4-0.7,0.6-1.2,0.8c-0.5,0.2-1,0.3-1.6,0.3
		C192.5,149,191.7,148.8,191.1,148.4z M194.6,147.3c0.3-0.1,0.4-0.4,0.4-0.7c0-0.3-0.1-0.5-0.3-0.6c-0.2-0.1-0.5-0.2-0.9-0.2h-1
		c-0.3,0-0.6,0-0.8-0.1c-0.1,0.2-0.2,0.4-0.2,0.7c0,0.3,0.2,0.6,0.4,0.8c0.3,0.2,0.7,0.3,1.2,0.3
		C193.9,147.5,194.3,147.5,194.6,147.3z M194.2,141.8c0.2-0.2,0.3-0.4,0.3-0.7c0-0.3-0.1-0.5-0.3-0.7c-0.2-0.2-0.4-0.3-0.7-0.3
		s-0.5,0.1-0.7,0.3c-0.2,0.2-0.3,0.4-0.3,0.7c0,0.3,0.1,0.5,0.3,0.7c0.2,0.2,0.4,0.3,0.7,0.3C193.7,142.1,194,142,194.2,141.8z"/>
	<path class="st4" d="M199,145.6c-0.5-0.4-0.9-0.8-1.1-1.4c-0.2-0.6-0.4-1.1-0.4-1.8s0.1-1.2,0.4-1.8c0.2-0.6,0.6-1,1.1-1.4
		c0.5-0.4,1.2-0.6,1.9-0.6c0.7,0,1.4,0.2,1.9,0.5c0.5,0.4,0.9,0.8,1.1,1.3c0.2,0.5,0.4,1.1,0.4,1.7v0.7h-4.9c0,0.4,0.2,0.8,0.5,1.1
		c0.3,0.3,0.7,0.5,1.2,0.5c0.4,0,0.7-0.1,1-0.3c0.3-0.2,0.5-0.5,0.7-0.8l1.4,0.5c-0.3,0.7-0.7,1.2-1.2,1.5c-0.5,0.4-1.2,0.5-2,0.5
		C200.2,146.1,199.5,145.9,199,145.6z M202.5,141.6c-0.1-0.4-0.3-0.7-0.5-1c-0.2-0.3-0.6-0.4-1-0.4c-0.4,0-0.8,0.1-1,0.4
		s-0.4,0.6-0.5,1L202.5,141.6L202.5,141.6z"/>
	<path class="st4" d="M206.2,145.5c-0.5-0.4-0.8-0.8-1-1.4l1.4-0.8c0.1,0.4,0.3,0.7,0.6,0.9c0.2,0.2,0.5,0.3,0.9,0.3
		c0.3,0,0.5-0.1,0.6-0.2c0.2-0.1,0.3-0.3,0.3-0.5c0-0.2-0.1-0.4-0.3-0.5c-0.2-0.1-0.5-0.3-0.9-0.4c-0.1,0-0.2-0.1-0.3-0.1
		c-0.6-0.2-1-0.5-1.3-0.8c-0.3-0.3-0.5-0.8-0.5-1.3c0-0.4,0.1-0.7,0.3-1c0.2-0.3,0.5-0.5,0.8-0.7c0.3-0.2,0.7-0.3,1.2-0.3
		c0.5,0,0.9,0.1,1.3,0.3c0.4,0.2,0.7,0.5,0.9,0.9l-1.1,1c-0.3-0.4-0.7-0.6-1.2-0.6c-0.2,0-0.4,0.1-0.5,0.2c-0.1,0.1-0.2,0.2-0.2,0.4
		c0,0.2,0.1,0.3,0.3,0.5c0.2,0.2,0.6,0.3,1.2,0.5c0.6,0.2,1,0.5,1.3,0.8c0.3,0.3,0.4,0.7,0.4,1.2c0,0.7-0.2,1.3-0.7,1.7
		c-0.4,0.4-1,0.6-1.8,0.6C207.3,146.1,206.7,145.9,206.2,145.5z"/>
	<path class="st4" d="M215.6,135.9h1.8v4.1c0.2-0.4,0.6-0.7,0.9-0.9c0.4-0.2,0.8-0.3,1.3-0.3c0.7,0,1.2,0.2,1.6,0.6
		c0.4,0.4,0.6,0.9,0.6,1.6v5.1h-1.8v-4.5c0-0.4-0.1-0.8-0.3-1c-0.2-0.2-0.4-0.3-0.8-0.3c-0.3,0-0.6,0.1-0.8,0.3
		c-0.3,0.2-0.5,0.5-0.6,0.9c-0.2,0.4-0.2,0.9-0.2,1.5v3h-1.8L215.6,135.9L215.6,135.9z"/>
	<path class="st4" d="M223.9,145.5c-0.4-0.4-0.6-0.9-0.6-1.6c0-0.7,0.3-1.3,0.8-1.7c0.5-0.4,1.3-0.6,2.2-0.6h1.3v-0.3
		c0-0.3-0.1-0.6-0.4-0.8c-0.2-0.2-0.5-0.3-0.9-0.3c-0.6,0-1,0.3-1.2,0.8l-1.5-0.3c0.1-0.6,0.4-1.1,0.9-1.4c0.5-0.4,1.1-0.6,1.8-0.6
		c1,0,1.7,0.3,2.2,0.8c0.5,0.5,0.8,1.3,0.8,2.2v4.3h-1.5l-0.2-0.9c-0.6,0.7-1.3,1-2.2,1C224.9,146.1,224.3,145.9,223.9,145.5z
		 M227.1,144.2c0.3-0.3,0.5-0.6,0.5-1.1V143h-1.2c-0.4,0-0.7,0.1-0.9,0.2c-0.2,0.2-0.3,0.4-0.3,0.7c0,0.2,0.1,0.4,0.2,0.5
		c0.2,0.1,0.3,0.2,0.6,0.2C226.4,144.6,226.8,144.5,227.1,144.2z"/>
	<path class="st4" d="M230.1,138.8h1.8l1.5,5l1.5-5h1.8l-2.4,7.2h-1.6L230.1,138.8z"/>
	<path class="st4" d="M238.7,145.6c-0.5-0.4-0.9-0.8-1.1-1.4c-0.2-0.6-0.4-1.1-0.4-1.8s0.1-1.2,0.4-1.8c0.2-0.6,0.6-1,1.1-1.4
		c0.5-0.4,1.2-0.6,1.9-0.6c0.7,0,1.4,0.2,1.9,0.5c0.5,0.4,0.9,0.8,1.1,1.3c0.2,0.5,0.4,1.1,0.4,1.7v0.7h-4.9c0,0.4,0.2,0.8,0.5,1.1
		c0.3,0.3,0.7,0.5,1.2,0.5c0.4,0,0.7-0.1,1-0.3c0.3-0.2,0.5-0.5,0.7-0.8l1.4,0.5c-0.3,0.7-0.7,1.2-1.2,1.5c-0.5,0.4-1.2,0.5-2,0.5
		C239.9,146.1,239.2,145.9,238.7,145.6z M242.2,141.6c-0.1-0.4-0.3-0.7-0.5-1c-0.2-0.3-0.6-0.4-1-0.4c-0.4,0-0.8,0.1-1,0.4
		s-0.4,0.6-0.5,1L242.2,141.6L242.2,141.6z"/>
	<path class="st4" d="M249.1,138.8h1.8v1.2c0.3-0.4,0.6-0.7,1-0.9c0.4-0.2,0.8-0.3,1.2-0.3c0.7,0,1.2,0.2,1.6,0.6
		c0.4,0.4,0.6,0.9,0.6,1.6v5.1h-1.8v-4.6c0-0.4-0.1-0.7-0.3-0.9c-0.2-0.2-0.4-0.3-0.7-0.3c-0.3,0-0.6,0.1-0.8,0.3
		c-0.2,0.2-0.4,0.6-0.6,1c-0.2,0.4-0.2,1-0.2,1.6v2.9h-1.8V138.8z"/>
	<path class="st4" d="M258.6,145.6c-0.6-0.3-1-0.8-1.3-1.3c-0.3-0.6-0.4-1.2-0.4-1.9c0-0.7,0.1-1.3,0.4-1.9c0.3-0.6,0.7-1,1.3-1.3
		c0.6-0.3,1.2-0.5,1.9-0.5c0.7,0,1.4,0.2,2,0.5c0.6,0.3,1,0.8,1.3,1.3c0.3,0.6,0.4,1.2,0.4,1.9c0,0.7-0.1,1.3-0.4,1.9
		c-0.3,0.6-0.7,1-1.3,1.3c-0.6,0.3-1.2,0.5-2,0.5C259.8,146.1,259.2,145.9,258.6,145.6z M261.9,144c0.3-0.4,0.5-0.9,0.5-1.6
		c0-0.6-0.2-1.1-0.5-1.6c-0.3-0.4-0.8-0.6-1.3-0.6s-1,0.2-1.3,0.6c-0.3,0.4-0.5,0.9-0.5,1.6c0,0.6,0.2,1.1,0.5,1.6
		c0.3,0.4,0.8,0.6,1.3,0.6S261.6,144.4,261.9,144z"/>
	<path class="st4" d="M156.9,160.5c-0.4-0.4-0.6-0.9-0.6-1.6c0-0.7,0.3-1.3,0.8-1.7s1.3-0.6,2.2-0.6h1.3v-0.3c0-0.3-0.1-0.6-0.4-0.8
		c-0.2-0.2-0.5-0.3-0.9-0.3c-0.6,0-1,0.3-1.2,0.8l-1.5-0.3c0.1-0.6,0.4-1.1,0.9-1.4c0.5-0.4,1.1-0.6,1.8-0.6c1,0,1.7,0.3,2.2,0.8
		c0.5,0.5,0.8,1.3,0.8,2.2v4.3h-1.5l-0.2-0.9c-0.6,0.7-1.3,1-2.2,1C157.8,161.1,157.3,160.9,156.9,160.5z M160,159.1
		c0.3-0.3,0.5-0.6,0.5-1.1v-0.1h-1.2c-0.4,0-0.7,0.1-0.9,0.2c-0.2,0.2-0.3,0.4-0.3,0.7c0,0.2,0.1,0.4,0.2,0.5
		c0.2,0.1,0.3,0.2,0.6,0.2C159.3,159.5,159.7,159.4,160,159.1z"/>
	<path class="st4" d="M164.1,150.9h1.8v10.1h-1.8V150.9z"/>
	<path class="st4" d="M168.8,160.4c-0.5-0.4-0.7-1.1-0.7-2v-3.1H167v-1.5h1.1V152l1.8-1.1v2.9h1.9v1.5h-1.9v3.1
		c0,0.4,0.1,0.7,0.2,0.9c0.2,0.2,0.4,0.3,0.7,0.3c0.2,0,0.5-0.1,0.7-0.2l0.4,1.4c-0.4,0.2-0.8,0.3-1.2,0.3
		C170,161.1,169.3,160.8,168.8,160.4z"/>
	<path class="st4" d="M176.9,160.5c-0.4-0.4-0.6-0.9-0.6-1.6c0-0.7,0.3-1.3,0.8-1.7s1.3-0.6,2.2-0.6h1.3v-0.3c0-0.3-0.1-0.6-0.4-0.8
		c-0.2-0.2-0.5-0.3-0.9-0.3c-0.6,0-1,0.3-1.2,0.8l-1.5-0.3c0.1-0.6,0.4-1.1,0.9-1.4c0.5-0.4,1.1-0.6,1.8-0.6c1,0,1.7,0.3,2.2,0.8
		c0.5,0.5,0.8,1.3,0.8,2.2v4.3h-1.5l-0.2-0.9c-0.6,0.7-1.3,1-2.2,1C177.9,161.1,177.4,160.9,176.9,160.5z M180.1,159.1
		c0.3-0.3,0.5-0.6,0.5-1.1v-0.1h-1.2c-0.4,0-0.7,0.1-0.9,0.2c-0.2,0.2-0.3,0.4-0.3,0.7c0,0.2,0.1,0.4,0.2,0.5
		c0.2,0.1,0.3,0.2,0.6,0.2C179.4,159.5,179.8,159.4,180.1,159.1z"/>
	<path class="st4" d="M185.2,160.4c-0.5-0.4-0.7-1.1-0.7-2v-3.1h-1.1v-1.5h1.1V152l1.8-1.1v2.9h1.9v1.5h-1.9v3.1
		c0,0.4,0.1,0.7,0.2,0.9c0.2,0.2,0.4,0.3,0.7,0.3c0.2,0,0.5-0.1,0.7-0.2l0.4,1.4c-0.4,0.2-0.8,0.3-1.2,0.3
		C186.3,161.1,185.6,160.8,185.2,160.4z"/>
	<path class="st4" d="M190.4,160.4c-0.5-0.4-0.7-1.1-0.7-2v-3.1h-1.1v-1.5h1.1V152l1.8-1.1v2.9h1.9v1.5h-1.9v3.1
		c0,0.4,0.1,0.7,0.2,0.9c0.2,0.2,0.4,0.3,0.7,0.3c0.2,0,0.5-0.1,0.7-0.2l0.4,1.4c-0.4,0.2-0.8,0.3-1.2,0.3
		C191.5,161.1,190.9,160.8,190.4,160.4z"/>
	<path class="st4" d="M194.6,153.8h1.8v1.2c0.3-0.4,0.6-0.7,0.9-0.9c0.4-0.2,0.8-0.3,1.2-0.3c0.3,0,0.6,0,0.9,0.1l-0.3,1.6
		c-0.2-0.1-0.5-0.2-0.7-0.2c-0.6,0-1,0.3-1.4,0.8c-0.4,0.5-0.5,1.3-0.5,2.4v2.5h-1.8L194.6,153.8L194.6,153.8z"/>
	<path class="st4" d="M200.7,152.5c-0.2-0.2-0.3-0.5-0.3-0.8c0-0.3,0.1-0.6,0.3-0.8c0.2-0.2,0.5-0.3,0.8-0.3s0.6,0.1,0.8,0.3
		c0.2,0.2,0.3,0.5,0.3,0.8c0,0.3-0.1,0.6-0.3,0.8c-0.2,0.2-0.5,0.3-0.8,0.3S200.9,152.7,200.7,152.5z M200.6,153.8h1.8v7.2h-1.8
		V153.8z"/>
	<path class="st4" d="M206.8,160.8c-0.3-0.2-0.5-0.4-0.7-0.6v0.7h-1.8v-10.1h1.8v3.6c0.2-0.2,0.4-0.4,0.7-0.5c0.3-0.2,0.7-0.2,1-0.2
		c1.1,0,1.9,0.3,2.4,1c0.6,0.7,0.8,1.6,0.8,2.7c0,1.1-0.3,2-0.8,2.7c-0.6,0.7-1.4,1-2.4,1C207.4,161.1,207.1,161,206.8,160.8z
		 M208.8,159c0.3-0.4,0.5-0.9,0.5-1.6c0-0.7-0.2-1.2-0.5-1.6c-0.3-0.4-0.7-0.6-1.2-0.6c-0.5,0-0.9,0.2-1.2,0.6
		c-0.3,0.4-0.5,0.9-0.5,1.6s0.2,1.2,0.5,1.6c0.3,0.4,0.7,0.6,1.2,0.6C208.1,159.6,208.5,159.4,208.8,159z"/>
	<path class="st4" d="M213.3,160.5c-0.4-0.4-0.6-0.9-0.6-1.6v-5.1h1.8v4.6c0,0.4,0.1,0.7,0.3,0.9c0.2,0.2,0.4,0.3,0.7,0.3
		c0.3,0,0.6-0.1,0.8-0.3c0.2-0.2,0.4-0.6,0.6-1c0.2-0.4,0.2-1,0.2-1.6v-2.9h1.8v7.2h-1.8v-1.2c-0.3,0.4-0.6,0.7-1,0.9
		c-0.4,0.2-0.8,0.3-1.2,0.3C214.3,161.1,213.7,160.9,213.3,160.5z"/>
	<path class="st4" d="M221.9,160.4c-0.5-0.4-0.7-1.1-0.7-2v-3.1H220v-1.5h1.1V152l1.8-1.1v2.9h1.9v1.5h-1.9v3.1
		c0,0.4,0.1,0.7,0.2,0.9c0.2,0.2,0.4,0.3,0.7,0.3c0.2,0,0.5-0.1,0.7-0.2l0.4,1.4c-0.4,0.2-0.8,0.3-1.2,0.3
		C223,161.1,222.3,160.8,221.9,160.4z"/>
	<path class="st4" d="M226.9,160.5c-0.5-0.4-0.9-0.8-1.1-1.4c-0.2-0.6-0.4-1.1-0.4-1.8s0.1-1.2,0.4-1.8c0.2-0.6,0.6-1,1.1-1.4
		c0.5-0.4,1.2-0.6,1.9-0.6c0.7,0,1.4,0.2,1.9,0.5c0.5,0.4,0.9,0.8,1.1,1.3c0.2,0.5,0.4,1.1,0.4,1.7v0.7h-4.9c0,0.4,0.2,0.8,0.5,1.1
		c0.3,0.3,0.7,0.5,1.2,0.5c0.4,0,0.7-0.1,1-0.3c0.3-0.2,0.5-0.5,0.7-0.8l1.4,0.5c-0.3,0.7-0.7,1.2-1.2,1.5c-0.5,0.4-1.2,0.5-2,0.5
		C228.1,161.1,227.5,160.9,226.9,160.5z M230.4,156.5c-0.1-0.4-0.3-0.7-0.5-1c-0.2-0.3-0.6-0.4-1-0.4c-0.4,0-0.8,0.1-1,0.4
		s-0.4,0.6-0.5,1L230.4,156.5L230.4,156.5z"/>
	<path class="st4" d="M233.9,160.7c-0.2-0.2-0.3-0.5-0.3-0.9s0.1-0.6,0.3-0.9c0.2-0.2,0.5-0.3,0.9-0.3c0.3,0,0.6,0.1,0.9,0.3
		c0.2,0.2,0.3,0.5,0.3,0.9s-0.1,0.6-0.3,0.9c-0.2,0.2-0.5,0.3-0.9,0.3C234.5,161,234.2,160.9,233.9,160.7z"/>
	<path class="st2" d="M30.9,249.6h-2.8v-1.7h7.4v1.7h-2.8v8.3h-1.9V249.6z"/>
	<path class="st2" d="M36.9,247.8h1.8v4.1c0.2-0.4,0.6-0.7,0.9-0.9c0.4-0.2,0.8-0.3,1.3-0.3c0.7,0,1.2,0.2,1.6,0.6
		c0.4,0.4,0.6,0.9,0.6,1.6v5.1h-1.8v-4.5c0-0.4-0.1-0.8-0.3-1c-0.2-0.2-0.4-0.3-0.8-0.3c-0.3,0-0.6,0.1-0.8,0.3
		c-0.3,0.2-0.5,0.5-0.6,0.9c-0.2,0.4-0.2,0.9-0.2,1.5v3h-1.8L36.9,247.8L36.9,247.8z"/>
	<path class="st2" d="M46.3,257.4c-0.5-0.4-0.9-0.8-1.1-1.4c-0.2-0.6-0.4-1.1-0.4-1.8c0-0.6,0.1-1.2,0.4-1.8c0.2-0.6,0.6-1,1.1-1.4
		c0.5-0.4,1.2-0.6,1.9-0.6c0.7,0,1.4,0.2,1.9,0.5c0.5,0.4,0.9,0.8,1.1,1.3c0.2,0.5,0.4,1.1,0.4,1.7v0.7h-4.9c0,0.4,0.2,0.8,0.5,1.1
		c0.3,0.3,0.7,0.5,1.2,0.5c0.4,0,0.7-0.1,1-0.3c0.3-0.2,0.5-0.5,0.7-0.8l1.4,0.5c-0.3,0.7-0.7,1.2-1.2,1.5c-0.5,0.4-1.2,0.5-2,0.5
		C47.4,258,46.8,257.8,46.3,257.4z M49.7,253.5c-0.1-0.4-0.3-0.7-0.5-1c-0.2-0.3-0.6-0.4-1-0.4c-0.4,0-0.8,0.1-1,0.4
		c-0.3,0.3-0.4,0.6-0.5,1L49.7,253.5L49.7,253.5z"/>
	<path class="st2" d="M53.1,250.7h1.8v1.2c0.3-0.4,0.6-0.7,0.9-0.9c0.4-0.2,0.8-0.3,1.2-0.3c0.3,0,0.6,0,0.9,0.1l-0.3,1.6
		c-0.2-0.1-0.5-0.2-0.7-0.2c-0.6,0-1,0.3-1.4,0.8c-0.4,0.5-0.5,1.3-0.5,2.4v2.5h-1.8L53.1,250.7L53.1,250.7z"/>
	<path class="st2" d="M59.9,257.4c-0.5-0.4-0.9-0.8-1.1-1.4c-0.2-0.6-0.4-1.1-0.4-1.8c0-0.6,0.1-1.2,0.4-1.8c0.2-0.6,0.6-1,1.1-1.4
		c0.5-0.4,1.2-0.6,1.9-0.6c0.7,0,1.4,0.2,1.9,0.5c0.5,0.4,0.9,0.8,1.1,1.3c0.2,0.5,0.4,1.1,0.4,1.7v0.7h-4.9c0,0.4,0.2,0.8,0.5,1.1
		c0.3,0.3,0.7,0.5,1.2,0.5c0.4,0,0.7-0.1,1-0.3c0.3-0.2,0.5-0.5,0.7-0.8l1.4,0.5c-0.3,0.7-0.7,1.2-1.2,1.5c-0.5,0.4-1.2,0.5-2,0.5
		C61,258,60.4,257.8,59.9,257.4z M63.4,253.5c-0.1-0.4-0.3-0.7-0.5-1c-0.2-0.3-0.6-0.4-1-0.4c-0.4,0-0.8,0.1-1,0.4
		c-0.3,0.3-0.4,0.6-0.5,1L63.4,253.5L63.4,253.5z"/>
	<path class="st2" d="M70.5,257.4c-0.4-0.4-0.6-0.9-0.6-1.6c0-0.7,0.3-1.3,0.8-1.7c0.5-0.4,1.3-0.6,2.2-0.6h1.3v-0.3
		c0-0.3-0.1-0.6-0.4-0.8c-0.2-0.2-0.5-0.3-0.9-0.3c-0.6,0-1,0.3-1.2,0.8l-1.5-0.3c0.1-0.6,0.4-1.1,0.9-1.4c0.5-0.4,1.1-0.6,1.8-0.6
		c1,0,1.7,0.3,2.2,0.8c0.5,0.5,0.8,1.3,0.8,2.2v4.3h-1.5l-0.2-0.9c-0.6,0.7-1.3,1-2.2,1C71.5,258,70.9,257.8,70.5,257.4z
		 M73.7,256.1c0.3-0.3,0.5-0.6,0.5-1.1v-0.1H73c-0.4,0-0.7,0.1-0.9,0.2c-0.2,0.2-0.3,0.4-0.3,0.7c0,0.2,0.1,0.4,0.2,0.5
		c0.2,0.1,0.3,0.2,0.6,0.2C73,256.5,73.4,256.4,73.7,256.1z"/>
	<path class="st2" d="M77.7,250.7h1.8v1.2c0.3-0.4,0.6-0.7,0.9-0.9c0.4-0.2,0.8-0.3,1.2-0.3c0.3,0,0.6,0,0.9,0.1l-0.3,1.6
		c-0.2-0.1-0.5-0.2-0.7-0.2c-0.6,0-1,0.3-1.4,0.8c-0.4,0.5-0.5,1.3-0.5,2.4v2.5h-1.8L77.7,250.7L77.7,250.7z"/>
	<path class="st2" d="M84.5,257.4c-0.5-0.4-0.9-0.8-1.1-1.4c-0.2-0.6-0.4-1.1-0.4-1.8c0-0.6,0.1-1.2,0.4-1.8c0.2-0.6,0.6-1,1.1-1.4
		c0.5-0.4,1.2-0.6,1.9-0.6c0.7,0,1.4,0.2,1.9,0.5c0.5,0.4,0.9,0.8,1.1,1.3c0.2,0.5,0.4,1.1,0.4,1.7v0.7h-4.9c0,0.4,0.2,0.8,0.5,1.1
		c0.3,0.3,0.7,0.5,1.2,0.5c0.4,0,0.7-0.1,1-0.3c0.3-0.2,0.5-0.5,0.7-0.8l1.4,0.5c-0.3,0.7-0.7,1.2-1.2,1.5c-0.5,0.4-1.2,0.5-2,0.5
		C85.6,258,85,257.8,84.5,257.4z M87.9,253.5c-0.1-0.4-0.3-0.7-0.5-1c-0.2-0.3-0.6-0.4-1-0.4c-0.4,0-0.8,0.1-1,0.4
		c-0.3,0.3-0.4,0.6-0.5,1L87.9,253.5L87.9,253.5z"/>
	<path class="st2" d="M94.9,250.7h1.8v1.2c0.3-0.4,0.6-0.7,1-0.9c0.4-0.2,0.8-0.3,1.2-0.3c0.7,0,1.2,0.2,1.6,0.6
		c0.4,0.4,0.6,0.9,0.6,1.6v5.1h-1.8v-4.6c0-0.4-0.1-0.7-0.3-0.9c-0.2-0.2-0.4-0.3-0.7-0.3c-0.3,0-0.6,0.1-0.8,0.3
		c-0.2,0.2-0.4,0.6-0.6,1c-0.2,0.4-0.2,1-0.2,1.6v2.9h-1.8V250.7z"/>
	<path class="st2" d="M104.4,257.5c-0.6-0.3-1-0.8-1.3-1.3c-0.3-0.6-0.4-1.2-0.4-1.9s0.1-1.3,0.4-1.9c0.3-0.6,0.7-1,1.3-1.3
		c0.6-0.3,1.2-0.5,2-0.5s1.4,0.2,1.9,0.5c0.6,0.3,1,0.8,1.3,1.3c0.3,0.6,0.4,1.2,0.4,1.9s-0.1,1.3-0.4,1.9c-0.3,0.6-0.7,1-1.3,1.3
		c-0.6,0.3-1.2,0.5-1.9,0.5S104.9,257.8,104.4,257.5z M107.6,255.9c0.3-0.4,0.5-0.9,0.5-1.6c0-0.6-0.2-1.1-0.5-1.6
		c-0.3-0.4-0.8-0.6-1.3-0.6c-0.6,0-1,0.2-1.3,0.6c-0.3,0.4-0.5,0.9-0.5,1.6c0,0.6,0.2,1.1,0.5,1.6c0.3,0.4,0.8,0.6,1.3,0.6
		C106.9,256.5,107.3,256.3,107.6,255.9z"/>
	<path class="st2" d="M115.5,257c-0.5-0.7-0.8-1.6-0.8-2.7c0-1.1,0.3-2,0.8-2.7c0.5-0.7,1.3-1,2.3-1c0.4,0,0.8,0.1,1.1,0.2
		c0.3,0.2,0.6,0.3,0.8,0.6v-3.6h1.8v10.1h-1.8v-0.7c-0.1,0.2-0.3,0.4-0.7,0.6c-0.3,0.2-0.7,0.3-1.2,0.3
		C116.8,258,116.1,257.7,115.5,257z M119.4,255.9c0.3-0.4,0.5-0.9,0.5-1.6c0-0.7-0.2-1.2-0.5-1.6c-0.3-0.4-0.7-0.6-1.2-0.6
		c-0.5,0-0.9,0.2-1.2,0.6c-0.3,0.4-0.5,0.9-0.5,1.6c0,0.7,0.2,1.2,0.5,1.6c0.3,0.4,0.7,0.6,1.2,0.6
		C118.7,256.5,119.1,256.3,119.4,255.9z"/>
	<path class="st2" d="M124.1,257.4c-0.4-0.4-0.6-0.9-0.6-1.6v-5.1h1.8v4.6c0,0.4,0.1,0.7,0.3,0.9c0.2,0.2,0.4,0.3,0.7,0.3
		c0.3,0,0.6-0.1,0.8-0.3c0.2-0.2,0.4-0.6,0.6-1c0.2-0.4,0.2-1,0.2-1.6v-2.9h1.8v7.2h-1.8v-1.2c-0.3,0.4-0.6,0.7-1,0.9
		c-0.4,0.2-0.8,0.3-1.2,0.3C125,258,124.5,257.8,124.1,257.4z"/>
	<path class="st2" d="M131.7,250.7h1.8v0.7c0.1-0.2,0.3-0.4,0.7-0.6c0.3-0.2,0.7-0.3,1.1-0.3c1.1,0,1.9,0.3,2.4,1
		c0.6,0.7,0.8,1.6,0.8,2.7c0,1.1-0.3,2-0.8,2.7c-0.6,0.7-1.4,1-2.4,1c-0.4,0-0.7-0.1-1-0.2c-0.3-0.2-0.6-0.3-0.7-0.5v3.6h-1.8
		L131.7,250.7L131.7,250.7z M136.1,255.9c0.3-0.4,0.5-0.9,0.5-1.6c0-0.7-0.2-1.2-0.5-1.6c-0.3-0.4-0.7-0.6-1.2-0.6s-0.9,0.2-1.2,0.6
		c-0.3,0.4-0.5,0.9-0.5,1.6c0,0.7,0.2,1.2,0.5,1.6c0.3,0.4,0.7,0.6,1.2,0.6S135.8,256.3,136.1,255.9z"/>
	<path class="st2" d="M140,247.8h1.8v10.1H140V247.8z"/>
	<path class="st2" d="M143.9,249.4c-0.2-0.2-0.3-0.5-0.3-0.8c0-0.3,0.1-0.6,0.3-0.8c0.2-0.2,0.5-0.3,0.8-0.3c0.3,0,0.6,0.1,0.8,0.3
		c0.2,0.2,0.3,0.5,0.3,0.8c0,0.3-0.1,0.6-0.3,0.8c-0.2,0.2-0.5,0.3-0.8,0.3C144.4,249.8,144.1,249.7,143.9,249.4z M143.8,250.7h1.8
		v7.2h-1.8V250.7z"/>
	<path class="st2" d="M148.7,257.5c-0.5-0.3-0.9-0.8-1.2-1.3c-0.3-0.6-0.4-1.2-0.4-1.9c0-0.7,0.1-1.3,0.4-1.9c0.3-0.6,0.7-1,1.2-1.3
		c0.5-0.3,1.2-0.5,1.9-0.5c0.8,0,1.5,0.2,2,0.5c0.6,0.3,1,0.9,1.2,1.5l-1.6,0.6c-0.2-0.4-0.4-0.7-0.7-0.9c-0.3-0.2-0.6-0.3-1-0.3
		c-0.5,0-1,0.2-1.2,0.6c-0.3,0.4-0.4,0.9-0.4,1.6c0,0.7,0.1,1.2,0.4,1.6c0.3,0.4,0.7,0.6,1.2,0.6c0.4,0,0.7-0.1,1-0.3
		c0.3-0.2,0.5-0.5,0.7-0.9l1.6,0.6c-0.3,0.7-0.7,1.2-1.2,1.5c-0.6,0.3-1.2,0.5-2,0.5C149.9,258,149.2,257.8,148.7,257.5z"/>
	<path class="st2" d="M155.5,257.4c-0.4-0.4-0.6-0.9-0.6-1.6c0-0.7,0.3-1.3,0.8-1.7s1.3-0.6,2.2-0.6h1.3v-0.3c0-0.3-0.1-0.6-0.4-0.8
		c-0.2-0.2-0.5-0.3-0.9-0.3c-0.6,0-1,0.3-1.2,0.8l-1.5-0.3c0.1-0.6,0.4-1.1,0.9-1.4c0.5-0.4,1.1-0.6,1.8-0.6c1,0,1.7,0.3,2.2,0.8
		c0.5,0.5,0.8,1.3,0.8,2.2v4.3h-1.5l-0.2-0.9c-0.6,0.7-1.3,1-2.2,1C156.4,258,155.9,257.8,155.5,257.4z M158.7,256.1
		c0.3-0.3,0.5-0.6,0.5-1.1v-0.1H158c-0.4,0-0.7,0.1-0.9,0.2c-0.2,0.2-0.3,0.4-0.3,0.7c0,0.2,0.1,0.4,0.2,0.5
		c0.2,0.1,0.3,0.2,0.6,0.2C158,256.5,158.3,256.4,158.7,256.1z"/>
	<path class="st2" d="M163.7,257.3c-0.5-0.4-0.7-1.1-0.7-2v-3.1h-1.1v-1.5h1.1v-1.8l1.8-1.1v2.9h1.9v1.5h-1.9v3.1
		c0,0.4,0.1,0.7,0.2,0.9c0.2,0.2,0.4,0.3,0.7,0.3c0.2,0,0.5-0.1,0.7-0.2l0.4,1.4c-0.4,0.2-0.8,0.3-1.2,0.3
		C164.8,258,164.2,257.8,163.7,257.3z"/>
	<path class="st2" d="M168.8,257.4c-0.5-0.4-0.9-0.8-1.1-1.4c-0.2-0.6-0.4-1.1-0.4-1.8c0-0.6,0.1-1.2,0.4-1.8c0.2-0.6,0.6-1,1.1-1.4
		c0.5-0.4,1.2-0.6,1.9-0.6c0.7,0,1.4,0.2,1.9,0.5c0.5,0.4,0.9,0.8,1.1,1.3c0.2,0.5,0.4,1.1,0.4,1.7v0.7h-4.9c0,0.4,0.2,0.8,0.5,1.1
		c0.3,0.3,0.7,0.5,1.2,0.5c0.4,0,0.7-0.1,1-0.3c0.3-0.2,0.5-0.5,0.7-0.8l1.4,0.5c-0.3,0.7-0.7,1.2-1.2,1.5c-0.5,0.4-1.2,0.5-2,0.5
		C170,258,169.3,257.8,168.8,257.4z M172.3,253.5c-0.1-0.4-0.3-0.7-0.5-1c-0.2-0.3-0.6-0.4-1-0.4c-0.4,0-0.8,0.1-1,0.4
		s-0.4,0.6-0.5,1L172.3,253.5L172.3,253.5z"/>
	<path class="st2" d="M29.7,272.3c-0.5-0.4-0.7-1.1-0.7-2v-3.1h-1.1v-1.5H29v-1.8l1.8-1.1v2.9h1.9v1.5h-1.9v3.1
		c0,0.4,0.1,0.7,0.2,0.9c0.2,0.2,0.4,0.3,0.7,0.3c0.2,0,0.5-0.1,0.7-0.2l0.4,1.4c-0.4,0.2-0.8,0.3-1.2,0.3
		C30.8,272.9,30.2,272.7,29.7,272.3z"/>
	<path class="st2" d="M34.8,272.4c-0.5-0.4-0.9-0.8-1.1-1.4c-0.2-0.6-0.4-1.1-0.4-1.8c0-0.6,0.1-1.2,0.4-1.8c0.2-0.6,0.6-1,1.1-1.4
		c0.5-0.4,1.2-0.6,1.9-0.6c0.7,0,1.4,0.2,1.9,0.5c0.5,0.4,0.9,0.8,1.1,1.3s0.4,1.1,0.4,1.7v0.7h-4.9c0,0.4,0.2,0.8,0.5,1.1
		c0.3,0.3,0.7,0.5,1.2,0.5c0.4,0,0.7-0.1,1-0.3c0.3-0.2,0.5-0.5,0.7-0.8l1.4,0.5c-0.3,0.7-0.7,1.2-1.2,1.5c-0.5,0.4-1.2,0.5-2,0.5
		C36,272.9,35.3,272.8,34.8,272.4z M38.3,268.4c-0.1-0.4-0.3-0.7-0.5-1c-0.2-0.3-0.6-0.4-1-0.4c-0.4,0-0.8,0.1-1,0.4s-0.4,0.6-0.5,1
		L38.3,268.4L38.3,268.4z"/>
	<path class="st2" d="M42.9,269l-2.1-3.3h1.9l1.2,1.9l1.2-1.9h1.9l-2.1,3.3l2.4,3.8h-1.8l-1.5-2.3l-1.5,2.3h-1.9L42.9,269z"/>
	<path class="st2" d="M49.2,272.3c-0.5-0.4-0.7-1.1-0.7-2v-3.1h-1.1v-1.5h1.1v-1.8l1.8-1.1v2.9h1.9v1.5h-1.9v3.1
		c0,0.4,0.1,0.7,0.2,0.9c0.2,0.2,0.4,0.3,0.7,0.3c0.2,0,0.5-0.1,0.7-0.2l0.4,1.4c-0.4,0.2-0.8,0.3-1.2,0.3
		C50.3,272.9,49.6,272.7,49.2,272.3z"/>
	<path class="st2" d="M59.4,272.7c-0.3-0.2-0.5-0.4-0.6-0.6v0.7H57v-10.1h1.8v3.6c0.2-0.2,0.4-0.4,0.7-0.5c0.3-0.2,0.7-0.2,1-0.2
		c1.1,0,1.9,0.3,2.4,1c0.6,0.7,0.8,1.6,0.8,2.7s-0.3,2-0.8,2.7c-0.6,0.7-1.4,1-2.4,1C60.1,272.9,59.7,272.9,59.4,272.7z M61.5,270.9
		c0.3-0.4,0.5-0.9,0.5-1.6c0-0.7-0.2-1.2-0.5-1.6c-0.3-0.4-0.7-0.6-1.2-0.6s-0.9,0.2-1.2,0.6s-0.5,0.9-0.5,1.6s0.2,1.2,0.5,1.6
		c0.3,0.4,0.7,0.6,1.2,0.6C60.8,271.4,61.2,271.2,61.5,270.9z"/>
	<path class="st2" d="M65.4,262.8h1.8v10.1h-1.8V262.8z"/>
	<path class="st2" d="M70.4,272.5c-0.6-0.3-1-0.8-1.3-1.3c-0.3-0.6-0.4-1.2-0.4-1.9s0.1-1.3,0.4-1.9c0.3-0.6,0.7-1,1.3-1.3
		c0.6-0.3,1.2-0.5,1.9-0.5c0.7,0,1.4,0.2,1.9,0.5c0.6,0.3,1,0.8,1.3,1.3s0.4,1.2,0.4,1.9s-0.1,1.3-0.4,1.9c-0.3,0.6-0.7,1-1.3,1.3
		c-0.6,0.3-1.2,0.5-1.9,0.5C71.7,272.9,71,272.8,70.4,272.5z M73.7,270.8c0.3-0.4,0.5-0.9,0.5-1.6s-0.2-1.1-0.5-1.6
		c-0.3-0.4-0.8-0.6-1.3-0.6c-0.6,0-1,0.2-1.3,0.6c-0.3,0.4-0.5,0.9-0.5,1.6s0.2,1.1,0.5,1.6c0.3,0.4,0.8,0.6,1.3,0.6
		C73,271.4,73.4,271.2,73.7,270.8z"/>
	<path class="st2" d="M78.8,272.5c-0.5-0.3-0.9-0.8-1.2-1.3c-0.3-0.6-0.4-1.2-0.4-1.9s0.1-1.3,0.4-1.9c0.3-0.6,0.7-1,1.2-1.3
		c0.5-0.3,1.2-0.5,1.9-0.5c0.8,0,1.5,0.2,2,0.5c0.6,0.3,1,0.9,1.2,1.5l-1.6,0.6c-0.2-0.4-0.4-0.7-0.7-0.9c-0.3-0.2-0.6-0.3-1-0.3
		c-0.5,0-1,0.2-1.2,0.6c-0.3,0.4-0.4,0.9-0.4,1.6c0,0.7,0.1,1.2,0.4,1.6c0.3,0.4,0.7,0.6,1.2,0.6c0.4,0,0.7-0.1,1-0.3
		c0.3-0.2,0.5-0.5,0.7-0.9l1.6,0.6c-0.3,0.7-0.7,1.2-1.2,1.5c-0.6,0.3-1.2,0.5-2,0.5C80,272.9,79.4,272.8,78.8,272.5z"/>
	<path class="st2" d="M85.4,262.8h1.8v5.7l2.3-2.8h2.2l-2.9,3.3l3.1,3.9h-2.2l-2.5-3.4v3.4h-1.8V262.8z"/>
	<path class="st2" d="M93.2,272.4c-0.5-0.4-0.8-0.8-1-1.4l1.4-0.8c0.1,0.4,0.3,0.7,0.6,0.9c0.2,0.2,0.5,0.3,0.9,0.3
		c0.3,0,0.5-0.1,0.6-0.2c0.2-0.1,0.3-0.3,0.3-0.5c0-0.2-0.1-0.4-0.3-0.5c-0.2-0.1-0.5-0.3-0.9-0.4c-0.1,0-0.2-0.1-0.3-0.1
		c-0.6-0.2-1-0.5-1.3-0.8c-0.3-0.3-0.5-0.8-0.5-1.3c0-0.4,0.1-0.7,0.3-1c0.2-0.3,0.5-0.5,0.8-0.7c0.3-0.2,0.7-0.3,1.2-0.3
		c0.5,0,0.9,0.1,1.3,0.3c0.4,0.2,0.7,0.5,0.9,0.9l-1.1,1c-0.3-0.4-0.7-0.6-1.2-0.6c-0.2,0-0.4,0.1-0.5,0.2c-0.1,0.1-0.2,0.2-0.2,0.4
		c0,0.2,0.1,0.3,0.3,0.5c0.2,0.2,0.6,0.3,1.2,0.5c0.6,0.2,1,0.5,1.3,0.8c0.3,0.3,0.4,0.7,0.4,1.2c0,0.7-0.2,1.3-0.7,1.7
		c-0.4,0.4-1,0.6-1.8,0.6C94.3,272.9,93.7,272.8,93.2,272.4z"/>
	<path class="st2" d="M103.9,272.5c-0.6-0.3-1-0.8-1.3-1.3c-0.3-0.6-0.4-1.2-0.4-1.9s0.1-1.3,0.4-1.9c0.3-0.6,0.7-1,1.3-1.3
		c0.6-0.3,1.2-0.5,1.9-0.5s1.4,0.2,1.9,0.5c0.6,0.3,1,0.8,1.3,1.3c0.3,0.6,0.4,1.2,0.4,1.9s-0.1,1.3-0.4,1.9c-0.3,0.6-0.7,1-1.3,1.3
		c-0.6,0.3-1.2,0.5-1.9,0.5S104.4,272.8,103.9,272.5z M107.1,270.8c0.3-0.4,0.5-0.9,0.5-1.6s-0.2-1.1-0.5-1.6
		c-0.3-0.4-0.8-0.6-1.3-0.6s-1,0.2-1.3,0.6c-0.3,0.4-0.5,0.9-0.5,1.6s0.2,1.1,0.5,1.6c0.3,0.4,0.8,0.6,1.3,0.6
		S106.8,271.2,107.1,270.8z"/>
	<path class="st2" d="M111.1,265.7h1.8v1.2c0.3-0.4,0.6-0.7,1-0.9c0.4-0.2,0.8-0.3,1.2-0.3c0.7,0,1.2,0.2,1.6,0.6
		c0.4,0.4,0.6,0.9,0.6,1.6v5.1h-1.8v-4.6c0-0.4-0.1-0.7-0.3-0.9c-0.2-0.2-0.4-0.3-0.7-0.3c-0.3,0-0.6,0.1-0.8,0.3
		c-0.2,0.2-0.4,0.6-0.6,1c-0.2,0.4-0.2,1-0.2,1.6v2.9h-1.8V265.7z"/>
	<path class="st2" d="M123.7,272.3c-0.5-0.4-0.7-1.1-0.7-2v-3.1h-1.1v-1.5h1.1v-1.8l1.8-1.1v2.9h1.9v1.5h-1.9v3.1
		c0,0.4,0.1,0.7,0.2,0.9c0.2,0.2,0.4,0.3,0.7,0.3c0.2,0,0.5-0.1,0.7-0.2l0.4,1.4c-0.4,0.2-0.8,0.3-1.2,0.3
		C124.9,272.9,124.2,272.7,123.7,272.3z"/>
	<path class="st2" d="M127.9,262.8h1.8v4.1c0.2-0.4,0.6-0.7,0.9-0.9c0.4-0.2,0.8-0.3,1.3-0.3c0.7,0,1.2,0.2,1.6,0.6
		c0.4,0.4,0.6,0.9,0.6,1.6v5.1h-1.8v-4.5c0-0.4-0.1-0.8-0.3-1c-0.2-0.2-0.4-0.3-0.8-0.3c-0.3,0-0.6,0.1-0.8,0.3
		c-0.3,0.2-0.5,0.5-0.6,0.9c-0.2,0.4-0.2,0.9-0.2,1.5v3h-1.8L127.9,262.8L127.9,262.8z"/>
	<path class="st2" d="M137.3,272.4c-0.5-0.4-0.9-0.8-1.1-1.4c-0.2-0.6-0.4-1.1-0.4-1.8c0-0.6,0.1-1.2,0.4-1.8c0.2-0.6,0.6-1,1.1-1.4
		c0.5-0.4,1.2-0.6,1.9-0.6c0.7,0,1.4,0.2,1.9,0.5c0.5,0.4,0.9,0.8,1.1,1.3c0.2,0.5,0.4,1.1,0.4,1.7v0.7h-4.9c0,0.4,0.2,0.8,0.5,1.1
		c0.3,0.3,0.7,0.5,1.2,0.5c0.4,0,0.7-0.1,1-0.3c0.3-0.2,0.5-0.5,0.7-0.8l1.4,0.5c-0.3,0.7-0.7,1.2-1.2,1.5c-0.5,0.4-1.2,0.5-2,0.5
		C138.5,272.9,137.8,272.8,137.3,272.4z M140.8,268.4c-0.1-0.4-0.3-0.7-0.5-1c-0.2-0.3-0.6-0.4-1-0.4c-0.4,0-0.8,0.1-1,0.4
		s-0.4,0.6-0.5,1L140.8,268.4L140.8,268.4z"/>
	<path class="st2" d="M148.2,272.4c-0.5-0.4-0.8-0.8-1-1.4l1.4-0.8c0.1,0.4,0.3,0.7,0.6,0.9c0.2,0.2,0.5,0.3,0.9,0.3
		c0.3,0,0.5-0.1,0.6-0.2c0.2-0.1,0.3-0.3,0.3-0.5c0-0.2-0.1-0.4-0.3-0.5c-0.2-0.1-0.5-0.3-0.9-0.4c-0.1,0-0.2-0.1-0.3-0.1
		c-0.6-0.2-1-0.5-1.3-0.8c-0.3-0.3-0.5-0.8-0.5-1.3c0-0.4,0.1-0.7,0.3-1c0.2-0.3,0.5-0.5,0.8-0.7c0.3-0.2,0.7-0.3,1.2-0.3
		c0.5,0,0.9,0.1,1.3,0.3s0.7,0.5,0.9,0.9l-1.1,1c-0.3-0.4-0.7-0.6-1.2-0.6c-0.2,0-0.4,0.1-0.5,0.2c-0.1,0.1-0.2,0.2-0.2,0.4
		c0,0.2,0.1,0.3,0.3,0.5c0.2,0.2,0.6,0.3,1.2,0.5c0.6,0.2,1,0.5,1.3,0.8c0.3,0.3,0.4,0.7,0.4,1.2c0,0.7-0.2,1.3-0.7,1.7
		c-0.4,0.4-1,0.6-1.8,0.6C149.3,272.9,148.7,272.8,148.2,272.4z"/>
	<path class="st2" d="M154.1,264.4c-0.2-0.2-0.3-0.5-0.3-0.8c0-0.3,0.1-0.6,0.3-0.8c0.2-0.2,0.5-0.3,0.8-0.3c0.3,0,0.6,0.1,0.8,0.3
		c0.2,0.2,0.3,0.5,0.3,0.8c0,0.3-0.1,0.6-0.3,0.8c-0.2,0.2-0.5,0.3-0.8,0.3C154.6,264.7,154.4,264.6,154.1,264.4z M154.1,265.7h1.8
		v7.2h-1.8V265.7z"/>
	<path class="st2" d="M158.8,272.3c-0.5-0.4-0.7-1.1-0.7-2v-3.1H157v-1.5h1.1v-1.8l1.8-1.1v2.9h1.9v1.5h-1.9v3.1
		c0,0.4,0.1,0.7,0.2,0.9c0.2,0.2,0.4,0.3,0.7,0.3c0.2,0,0.5-0.1,0.7-0.2l0.4,1.4c-0.4,0.2-0.8,0.3-1.2,0.3
		C159.9,272.9,159.2,272.7,158.8,272.3z"/>
	<path class="st2" d="M163.9,272.4c-0.5-0.4-0.9-0.8-1.1-1.4c-0.2-0.6-0.4-1.1-0.4-1.8c0-0.6,0.1-1.2,0.4-1.8c0.2-0.6,0.6-1,1.1-1.4
		c0.5-0.4,1.2-0.6,1.9-0.6c0.7,0,1.4,0.2,1.9,0.5c0.5,0.4,0.9,0.8,1.1,1.3c0.2,0.5,0.4,1.1,0.4,1.7v0.7h-4.9c0,0.4,0.2,0.8,0.5,1.1
		c0.3,0.3,0.7,0.5,1.2,0.5c0.4,0,0.7-0.1,1-0.3c0.3-0.2,0.5-0.5,0.7-0.8l1.4,0.5c-0.3,0.7-0.7,1.2-1.2,1.5c-0.5,0.4-1.2,0.5-2,0.5
		C165,272.9,164.4,272.8,163.9,272.4z M167.4,268.4c-0.1-0.4-0.3-0.7-0.5-1c-0.2-0.3-0.6-0.4-1-0.4c-0.4,0-0.8,0.1-1,0.4
		s-0.4,0.6-0.5,1L167.4,268.4L167.4,268.4z"/>
	<path class="st2" d="M170.9,272.6c-0.2-0.2-0.3-0.5-0.3-0.9s0.1-0.6,0.3-0.9c0.2-0.2,0.5-0.3,0.9-0.3c0.3,0,0.6,0.1,0.9,0.3
		c0.2,0.2,0.3,0.5,0.3,0.9s-0.1,0.6-0.3,0.9c-0.2,0.2-0.5,0.3-0.9,0.3C171.4,272.9,171.1,272.8,170.9,272.6z"/>
	<path class="st5" d="M157.9,380.5h-2.8v-1.7h7.4v1.7h-2.8v8.3h-1.9V380.5z"/>
	<path class="st5" d="M163.9,378.7h1.8v4.1c0.2-0.4,0.6-0.7,0.9-0.9c0.4-0.2,0.8-0.3,1.3-0.3c0.7,0,1.2,0.2,1.6,0.6
		c0.4,0.4,0.6,0.9,0.6,1.6v5.1h-1.8v-4.5c0-0.4-0.1-0.8-0.3-1c-0.2-0.2-0.4-0.3-0.8-0.3c-0.3,0-0.6,0.1-0.8,0.3
		c-0.3,0.2-0.5,0.5-0.6,0.9c-0.2,0.4-0.2,0.9-0.2,1.5v3h-1.8L163.9,378.7L163.9,378.7z"/>
	<path class="st5" d="M173.3,388.3c-0.5-0.4-0.9-0.8-1.1-1.4c-0.2-0.6-0.4-1.1-0.4-1.8c0-0.6,0.1-1.2,0.4-1.8c0.2-0.6,0.6-1,1.1-1.4
		c0.5-0.4,1.2-0.6,1.9-0.6c0.7,0,1.4,0.2,1.9,0.5c0.5,0.4,0.9,0.8,1.1,1.3c0.2,0.5,0.4,1.1,0.4,1.7v0.7h-4.9c0,0.4,0.2,0.8,0.5,1.1
		c0.3,0.3,0.7,0.5,1.2,0.5c0.4,0,0.7-0.1,1-0.3c0.3-0.2,0.5-0.5,0.7-0.8l1.4,0.5c-0.3,0.7-0.7,1.2-1.2,1.5c-0.5,0.4-1.2,0.5-2,0.5
		C174.4,388.9,173.8,388.7,173.3,388.3z M176.8,384.3c-0.1-0.4-0.3-0.7-0.5-1c-0.2-0.3-0.6-0.4-1-0.4c-0.4,0-0.8,0.1-1,0.4
		s-0.4,0.6-0.5,1L176.8,384.3L176.8,384.3z"/>
	<path class="st5" d="M180.2,381.6h1.8v1.2c0.3-0.4,0.6-0.7,0.9-0.9c0.4-0.2,0.8-0.3,1.2-0.3c0.3,0,0.6,0,0.9,0.1l-0.3,1.6
		c-0.2-0.1-0.5-0.2-0.7-0.2c-0.6,0-1,0.3-1.4,0.8c-0.4,0.5-0.5,1.3-0.5,2.4v2.5h-1.8L180.2,381.6L180.2,381.6z"/>
	<path class="st5" d="M186.9,388.3c-0.5-0.4-0.9-0.8-1.1-1.4c-0.2-0.6-0.4-1.1-0.4-1.8c0-0.6,0.1-1.2,0.4-1.8c0.2-0.6,0.6-1,1.1-1.4
		c0.5-0.4,1.2-0.6,1.9-0.6c0.7,0,1.4,0.2,1.9,0.5c0.5,0.4,0.9,0.8,1.1,1.3c0.2,0.5,0.4,1.1,0.4,1.7v0.7h-4.9c0,0.4,0.2,0.8,0.5,1.1
		c0.3,0.3,0.7,0.5,1.2,0.5c0.4,0,0.7-0.1,1-0.3c0.3-0.2,0.5-0.5,0.7-0.8l1.4,0.5c-0.3,0.7-0.7,1.2-1.2,1.5c-0.5,0.4-1.2,0.5-2,0.5
		C188.1,388.9,187.4,388.7,186.9,388.3z M190.4,384.3c-0.1-0.4-0.3-0.7-0.5-1c-0.2-0.3-0.6-0.4-1-0.4c-0.4,0-0.8,0.1-1,0.4
		s-0.4,0.6-0.5,1L190.4,384.3L190.4,384.3z"/>
	<path class="st5" d="M197.5,388.3c-0.4-0.4-0.6-0.9-0.6-1.6c0-0.7,0.3-1.3,0.8-1.7s1.3-0.6,2.2-0.6h1.3V384c0-0.3-0.1-0.6-0.4-0.8
		c-0.2-0.2-0.5-0.3-0.9-0.3c-0.6,0-1,0.3-1.2,0.8l-1.5-0.3c0.1-0.6,0.4-1.1,0.9-1.4c0.5-0.4,1.1-0.6,1.8-0.6c1,0,1.7,0.3,2.2,0.8
		c0.5,0.5,0.8,1.3,0.8,2.2v4.3h-1.5l-0.2-0.9c-0.6,0.7-1.3,1-2.2,1C198.5,388.9,198,388.7,197.5,388.3z M200.7,386.9
		c0.3-0.3,0.5-0.6,0.5-1.1v-0.1H200c-0.4,0-0.7,0.1-0.9,0.2c-0.2,0.2-0.3,0.4-0.3,0.7c0,0.2,0.1,0.4,0.2,0.5
		c0.2,0.1,0.3,0.2,0.6,0.2C200,387.4,200.4,387.2,200.7,386.9z"/>
	<path class="st5" d="M204.8,381.6h1.8v1.2c0.3-0.4,0.6-0.7,0.9-0.9c0.4-0.2,0.8-0.3,1.2-0.3c0.3,0,0.6,0,0.9,0.1l-0.3,1.6
		c-0.2-0.1-0.5-0.2-0.7-0.2c-0.6,0-1,0.3-1.4,0.8c-0.4,0.5-0.5,1.3-0.5,2.4v2.5h-1.8L204.8,381.6L204.8,381.6z"/>
	<path class="st5" d="M211.5,388.3c-0.5-0.4-0.9-0.8-1.1-1.4c-0.2-0.6-0.4-1.1-0.4-1.8c0-0.6,0.1-1.2,0.4-1.8c0.2-0.6,0.6-1,1.1-1.4
		c0.5-0.4,1.2-0.6,1.9-0.6c0.7,0,1.4,0.2,1.9,0.5c0.5,0.4,0.9,0.8,1.1,1.3c0.2,0.5,0.4,1.1,0.4,1.7v0.7h-4.9c0,0.4,0.2,0.8,0.5,1.1
		c0.3,0.3,0.7,0.5,1.2,0.5c0.4,0,0.7-0.1,1-0.3c0.3-0.2,0.5-0.5,0.7-0.8l1.4,0.5c-0.3,0.7-0.7,1.2-1.2,1.5c-0.5,0.4-1.2,0.5-2,0.5
		C212.6,388.9,212,388.7,211.5,388.3z M215,384.3c-0.1-0.4-0.3-0.7-0.5-1c-0.2-0.3-0.6-0.4-1-0.4c-0.4,0-0.8,0.1-1,0.4
		s-0.4,0.6-0.5,1L215,384.3L215,384.3z"/>
	<path class="st5" d="M223.2,388.4c-0.6-0.3-1-0.8-1.3-1.3c-0.3-0.6-0.4-1.2-0.4-1.9s0.1-1.3,0.4-1.9c0.3-0.6,0.7-1,1.3-1.3
		c0.6-0.3,1.2-0.5,1.9-0.5c0.7,0,1.4,0.2,2,0.5c0.6,0.3,1,0.8,1.3,1.3c0.3,0.6,0.4,1.2,0.4,1.9s-0.1,1.3-0.4,1.9
		c-0.3,0.6-0.7,1-1.3,1.3c-0.6,0.3-1.2,0.5-2,0.5C224.4,388.9,223.7,388.7,223.2,388.4z M226.5,386.7c0.3-0.4,0.5-0.9,0.5-1.6
		c0-0.6-0.2-1.1-0.5-1.6c-0.3-0.4-0.8-0.6-1.3-0.6s-1,0.2-1.3,0.6c-0.3,0.4-0.5,0.9-0.5,1.6c0,0.6,0.2,1.1,0.5,1.6
		c0.3,0.4,0.8,0.6,1.3,0.6C225.7,387.4,226.1,387.1,226.5,386.7z"/>
	<path class="st5" d="M230.4,381.6h1.8v1.2c0.3-0.4,0.6-0.7,1-0.9c0.4-0.2,0.8-0.3,1.2-0.3c0.7,0,1.2,0.2,1.6,0.6
		c0.4,0.4,0.6,0.9,0.6,1.6v5.1h-1.8v-4.6c0-0.4-0.1-0.7-0.3-0.9c-0.2-0.2-0.4-0.3-0.7-0.3c-0.3,0-0.6,0.1-0.8,0.3
		c-0.2,0.2-0.4,0.6-0.6,1c-0.2,0.4-0.2,1-0.2,1.6v2.9h-1.8V381.6z"/>
	<path class="st5" d="M238.6,378.7h1.8v10.1h-1.8V378.7z"/>
	<path class="st5" d="M244.1,388.3l-2.6-6.7h1.8l1.7,4.5l1.6-4.5h1.8l-3.7,10.1h-1.7L244.1,388.3z"/>
	<path class="st5" d="M254.5,381.3l-1.9,1.1v-1.9l2.9-1.7h0.8v10h-1.8V381.3z"/>
	<path class="st5" d="M261.8,380.4h-3.9v-1.7h6v0.7l-3.8,9.2h-1.8L261.8,380.4z"/>
	<path class="st5" d="M266.4,388.5c-0.5-0.2-0.8-0.5-1.1-1c-0.3-0.4-0.5-0.9-0.5-1.4l1.7-0.3c0.2,0.9,0.7,1.4,1.5,1.4
		c0.5,0,0.9-0.2,1.1-0.5c0.2-0.3,0.4-0.7,0.4-1.3c0-0.6-0.1-1-0.4-1.3c-0.3-0.3-0.7-0.4-1.2-0.4c-0.3,0-0.6,0.1-0.9,0.2
		c-0.3,0.2-0.6,0.4-0.8,0.7l-1.1-0.2l0.6-5.6h5.1v1.7H267l-0.2,2.1c0.4-0.2,0.9-0.4,1.4-0.4c1,0,1.8,0.3,2.3,0.9
		c0.5,0.6,0.8,1.4,0.8,2.4c0,0.7-0.1,1.3-0.4,1.8c-0.3,0.5-0.6,0.9-1.1,1.2c-0.5,0.3-1.1,0.4-1.7,0.4
		C267.4,388.9,266.9,388.8,266.4,388.5z"/>
	<path class="st5" d="M155,396.5h1.8l1.3,4.9l1.2-4.9h1.7l1.2,4.9l1.3-4.9h1.8l-2.3,7.2h-1.6l-1.2-4.6l-1.2,4.6h-1.6L155,396.5z"/>
	<path class="st5" d="M167.5,403.3c-0.6-0.3-1-0.8-1.3-1.3c-0.3-0.6-0.4-1.2-0.4-1.9s0.1-1.3,0.4-1.9c0.3-0.6,0.7-1,1.3-1.3
		c0.6-0.3,1.2-0.5,1.9-0.5s1.4,0.2,2,0.5c0.6,0.3,1,0.8,1.3,1.3c0.3,0.6,0.4,1.2,0.4,1.9s-0.1,1.3-0.4,1.9c-0.3,0.6-0.7,1-1.3,1.3
		c-0.6,0.3-1.2,0.5-2,0.5S168.1,403.6,167.5,403.3z M170.8,401.7c0.3-0.4,0.5-0.9,0.5-1.6c0-0.6-0.2-1.1-0.5-1.6
		c-0.3-0.4-0.8-0.6-1.3-0.6c-0.6,0-1,0.2-1.3,0.6c-0.3,0.4-0.5,0.9-0.5,1.6c0,0.6,0.2,1.1,0.5,1.6c0.3,0.4,0.8,0.6,1.3,0.6
		C170,402.3,170.5,402.1,170.8,401.7z"/>
	<path class="st5" d="M174.7,396.5h1.8v1.2c0.3-0.4,0.6-0.7,0.9-0.9c0.4-0.2,0.8-0.3,1.2-0.3c0.3,0,0.6,0,0.9,0.1l-0.3,1.6
		c-0.2-0.1-0.5-0.2-0.7-0.2c-0.6,0-1,0.3-1.4,0.8c-0.4,0.5-0.5,1.3-0.5,2.4v2.5h-1.8L174.7,396.5L174.7,396.5z"/>
	<path class="st5" d="M180.7,402.8c-0.5-0.7-0.8-1.6-0.8-2.7s0.3-2,0.8-2.7c0.5-0.7,1.3-1,2.3-1c0.4,0,0.8,0.1,1.1,0.2
		c0.3,0.2,0.6,0.3,0.8,0.6v-3.6h1.8v10.1h-1.8V403c-0.1,0.2-0.3,0.4-0.7,0.6s-0.7,0.3-1.2,0.3C182.1,403.8,181.3,403.5,180.7,402.8z
		 M184.6,401.7c0.3-0.4,0.5-0.9,0.5-1.6s-0.2-1.2-0.5-1.6c-0.3-0.4-0.7-0.6-1.2-0.6c-0.5,0-0.9,0.2-1.2,0.6
		c-0.3,0.4-0.5,0.9-0.5,1.6c0,0.7,0.2,1.2,0.5,1.6c0.3,0.4,0.7,0.6,1.2,0.6S184.3,402.1,184.6,401.7z"/>
	<path class="st5" d="M189,403.2c-0.5-0.4-0.8-0.8-1-1.4l1.4-0.8c0.1,0.4,0.3,0.7,0.6,0.9c0.2,0.2,0.5,0.3,0.9,0.3
		c0.3,0,0.5-0.1,0.6-0.2c0.2-0.1,0.3-0.3,0.3-0.5c0-0.2-0.1-0.4-0.3-0.5c-0.2-0.1-0.5-0.3-0.9-0.4c-0.1,0-0.2-0.1-0.3-0.1
		c-0.6-0.2-1-0.5-1.3-0.8c-0.3-0.3-0.5-0.8-0.5-1.3c0-0.4,0.1-0.7,0.3-1c0.2-0.3,0.5-0.5,0.8-0.7c0.3-0.2,0.7-0.3,1.2-0.3
		c0.5,0,0.9,0.1,1.3,0.3c0.4,0.2,0.7,0.5,0.9,0.9l-1.1,1c-0.3-0.4-0.7-0.6-1.2-0.6c-0.2,0-0.4,0.1-0.5,0.2c-0.1,0.1-0.2,0.2-0.2,0.4
		c0,0.2,0.1,0.3,0.3,0.5c0.2,0.2,0.6,0.3,1.2,0.5c0.6,0.2,1,0.5,1.3,0.8c0.3,0.3,0.4,0.7,0.4,1.2c0,0.7-0.2,1.3-0.7,1.7
		c-0.4,0.4-1,0.6-1.8,0.6C190.2,403.8,189.5,403.6,189,403.2z"/>
	<path class="st5" d="M199.7,403.3c-0.6-0.3-1-0.8-1.3-1.3c-0.3-0.6-0.4-1.2-0.4-1.9s0.1-1.3,0.4-1.9c0.3-0.6,0.7-1,1.3-1.3
		c0.6-0.3,1.2-0.5,1.9-0.5s1.4,0.2,1.9,0.5c0.6,0.3,1,0.8,1.3,1.3c0.3,0.6,0.4,1.2,0.4,1.9s-0.1,1.3-0.4,1.9c-0.3,0.6-0.7,1-1.3,1.3
		c-0.6,0.3-1.2,0.5-1.9,0.5S200.3,403.6,199.7,403.3z M203,401.7c0.3-0.4,0.5-0.9,0.5-1.6c0-0.6-0.2-1.1-0.5-1.6
		c-0.3-0.4-0.8-0.6-1.3-0.6s-1,0.2-1.3,0.6c-0.3,0.4-0.5,0.9-0.5,1.6c0,0.6,0.2,1.1,0.5,1.6c0.3,0.4,0.8,0.6,1.3,0.6
		S202.7,402.1,203,401.7z"/>
	<path class="st5" d="M206.9,396.5h1.8v1.2c0.3-0.4,0.6-0.7,1-0.9c0.4-0.2,0.8-0.3,1.2-0.3c0.7,0,1.2,0.2,1.6,0.6
		c0.4,0.4,0.6,0.9,0.6,1.6v5.1h-1.8v-4.6c0-0.4-0.1-0.7-0.3-0.9c-0.2-0.2-0.4-0.3-0.7-0.3c-0.3,0-0.6,0.1-0.8,0.3
		c-0.2,0.2-0.4,0.6-0.6,1c-0.2,0.4-0.2,1-0.2,1.6v2.9h-1.8V396.5z"/>
	<path class="st5" d="M219.6,403.1c-0.5-0.4-0.7-1.1-0.7-2V398h-1.1v-1.5h1.1v-1.8l1.8-1.1v2.9h1.9v1.5h-1.9v3.1
		c0,0.4,0.1,0.7,0.2,0.9c0.2,0.2,0.4,0.3,0.7,0.3c0.2,0,0.5-0.1,0.7-0.2l0.4,1.4c-0.4,0.2-0.8,0.3-1.2,0.3
		C220.7,403.8,220.1,403.6,219.6,403.1z"/>
	<path class="st5" d="M223.8,393.6h1.8v4.1c0.2-0.4,0.6-0.7,0.9-0.9c0.4-0.2,0.8-0.3,1.3-0.3c0.7,0,1.2,0.2,1.6,0.6s0.6,0.9,0.6,1.6
		v5.1h-1.8v-4.5c0-0.4-0.1-0.8-0.3-1c-0.2-0.2-0.4-0.3-0.8-0.3c-0.3,0-0.6,0.1-0.8,0.3c-0.3,0.2-0.5,0.5-0.6,0.9
		c-0.2,0.4-0.2,0.9-0.2,1.5v3h-1.8L223.8,393.6L223.8,393.6z"/>
	<path class="st5" d="M233.2,403.3c-0.5-0.4-0.9-0.8-1.1-1.4c-0.2-0.6-0.4-1.1-0.4-1.8s0.1-1.2,0.4-1.8c0.2-0.6,0.6-1,1.1-1.4
		c0.5-0.4,1.2-0.6,1.9-0.6c0.7,0,1.4,0.2,1.9,0.5c0.5,0.4,0.9,0.8,1.1,1.3c0.2,0.5,0.4,1.1,0.4,1.7v0.7h-4.9c0,0.4,0.2,0.8,0.5,1.1
		c0.3,0.3,0.7,0.5,1.2,0.5c0.4,0,0.7-0.1,1-0.3c0.3-0.2,0.5-0.5,0.7-0.8l1.4,0.5c-0.3,0.7-0.7,1.2-1.2,1.5c-0.5,0.4-1.2,0.5-2,0.5
		C234.3,403.8,233.7,403.6,233.2,403.3z M236.6,399.3c-0.1-0.4-0.3-0.7-0.5-1c-0.2-0.3-0.6-0.4-1-0.4c-0.4,0-0.8,0.1-1,0.4
		s-0.4,0.6-0.5,1L236.6,399.3L236.6,399.3z"/>
	<path class="st5" d="M243.6,396.5h1.8v0.7c0.1-0.2,0.3-0.4,0.7-0.6c0.3-0.2,0.7-0.3,1.1-0.3c1.1,0,1.9,0.3,2.4,1
		c0.6,0.7,0.8,1.6,0.8,2.7s-0.3,2-0.8,2.7c-0.6,0.7-1.4,1-2.4,1c-0.4,0-0.7-0.1-1-0.2c-0.3-0.2-0.6-0.3-0.7-0.5v3.6h-1.8
		L243.6,396.5L243.6,396.5z M248,401.7c0.3-0.4,0.5-0.9,0.5-1.6c0-0.7-0.2-1.2-0.5-1.6c-0.3-0.4-0.7-0.6-1.2-0.6s-0.9,0.2-1.2,0.6
		c-0.3,0.4-0.5,0.9-0.5,1.6s0.2,1.2,0.5,1.6c0.3,0.4,0.7,0.6,1.2,0.6S247.7,402.1,248,401.7z"/>
	<path class="st5" d="M252.1,403.2c-0.4-0.4-0.6-0.9-0.6-1.6c0-0.7,0.3-1.3,0.8-1.7c0.5-0.4,1.3-0.6,2.2-0.6h1.3V399
		c0-0.3-0.1-0.6-0.4-0.8c-0.2-0.2-0.5-0.3-0.9-0.3c-0.6,0-1,0.3-1.2,0.8l-1.5-0.3c0.1-0.6,0.4-1.1,0.9-1.4c0.5-0.4,1.1-0.6,1.8-0.6
		c1,0,1.7,0.3,2.2,0.8c0.5,0.5,0.8,1.3,0.8,2.2v4.3h-1.5l-0.2-0.9c-0.6,0.7-1.3,1-2.2,1C253,403.8,252.5,403.6,252.1,403.2z
		 M255.3,401.9c0.3-0.3,0.5-0.6,0.5-1.1v-0.1h-1.2c-0.4,0-0.7,0.1-0.9,0.2c-0.2,0.2-0.3,0.4-0.3,0.7c0,0.2,0.1,0.4,0.2,0.5
		c0.2,0.1,0.3,0.2,0.6,0.2C254.6,402.3,254.9,402.2,255.3,401.9z"/>
	<path class="st5" d="M260.5,403.3c-0.5-0.4-0.9-0.8-1.1-1.4c-0.2-0.6-0.4-1.1-0.4-1.8s0.1-1.2,0.4-1.8c0.2-0.6,0.6-1,1.1-1.4
		c0.5-0.4,1.2-0.6,1.9-0.6c0.7,0,1.4,0.2,1.9,0.5c0.5,0.4,0.9,0.8,1.1,1.3c0.2,0.5,0.4,1.1,0.4,1.7v0.7h-4.9c0,0.4,0.2,0.8,0.5,1.1
		c0.3,0.3,0.7,0.5,1.2,0.5c0.4,0,0.7-0.1,1-0.3c0.3-0.2,0.5-0.5,0.7-0.8l1.4,0.5c-0.3,0.7-0.7,1.2-1.2,1.5c-0.5,0.4-1.2,0.5-2,0.5
		C261.6,403.8,261,403.6,260.5,403.3z M264,399.3c-0.1-0.4-0.3-0.7-0.5-1c-0.2-0.3-0.6-0.4-1-0.4c-0.4,0-0.8,0.1-1,0.4
		s-0.4,0.6-0.5,1L264,399.3L264,399.3z"/>
	<path class="st5" d="M267.5,403.4c-0.2-0.2-0.3-0.5-0.3-0.9c0-0.3,0.1-0.6,0.3-0.9c0.2-0.2,0.5-0.3,0.9-0.3c0.3,0,0.6,0.1,0.9,0.3
		c0.2,0.2,0.3,0.5,0.3,0.9c0,0.3-0.1,0.6-0.3,0.9c-0.2,0.2-0.5,0.3-0.9,0.3C268,403.8,267.7,403.7,267.5,403.4z"/>
	<path class="st4" d="M20.2,506.9l3.6-4.6c0.3-0.4,0.5-0.7,0.6-1c0.1-0.3,0.2-0.6,0.2-0.9c0-0.4-0.1-0.7-0.3-1
		c-0.2-0.2-0.5-0.3-0.9-0.3c-0.4,0-0.6,0.1-0.9,0.3c-0.2,0.2-0.4,0.6-0.4,1l-1.7-0.3c0-0.5,0.2-1,0.4-1.4c0.3-0.4,0.6-0.7,1.1-0.9
		c0.4-0.2,0.9-0.3,1.5-0.3c0.9,0,1.7,0.3,2.2,0.8c0.5,0.5,0.8,1.2,0.8,2.1c0,0.8-0.3,1.6-0.9,2.4L23,506h3.5v1.7h-6.3V506.9z"/>
	<path class="st4" d="M33.7,499.4H31v-1.7h7.4v1.7h-2.8v8.3h-1.9V499.4z"/>
	<path class="st4" d="M40.8,507.2l-2.6-6.7h1.8l1.7,4.5l1.6-4.5h1.8l-3.7,10.1h-1.7L40.8,507.2z"/>
	<path class="st4" d="M46.1,500.4h1.8v0.7c0.1-0.2,0.3-0.4,0.6-0.6c0.3-0.2,0.7-0.3,1.1-0.3c1.1,0,1.9,0.3,2.4,1
		c0.6,0.7,0.8,1.6,0.8,2.7c0,1.1-0.3,2-0.8,2.7c-0.6,0.7-1.4,1-2.4,1c-0.4,0-0.7-0.1-1-0.2c-0.3-0.2-0.6-0.3-0.7-0.5v3.6h-1.8V500.4
		z M50.5,505.6c0.3-0.4,0.5-0.9,0.5-1.6c0-0.7-0.2-1.2-0.5-1.6c-0.3-0.4-0.7-0.6-1.2-0.6s-0.9,0.2-1.2,0.6c-0.3,0.4-0.5,0.9-0.5,1.6
		c0,0.7,0.2,1.2,0.5,1.6c0.3,0.4,0.7,0.6,1.2,0.6S50.2,506,50.5,505.6z"/>
	<path class="st4" d="M55.7,507.2c-0.6-0.3-1-0.8-1.3-1.3c-0.3-0.6-0.4-1.2-0.4-1.9c0-0.7,0.1-1.3,0.4-1.9c0.3-0.6,0.7-1,1.3-1.3
		c0.6-0.3,1.2-0.5,2-0.5c0.7,0,1.4,0.2,2,0.5c0.6,0.3,1,0.8,1.3,1.3c0.3,0.6,0.4,1.2,0.4,1.9c0,0.7-0.1,1.3-0.4,1.9
		c-0.3,0.6-0.7,1-1.3,1.3c-0.6,0.3-1.2,0.5-2,0.5C56.9,507.7,56.3,507.6,55.7,507.2z M59,505.6c0.3-0.4,0.5-0.9,0.5-1.6
		c0-0.6-0.2-1.1-0.5-1.6c-0.3-0.4-0.8-0.6-1.3-0.6c-0.6,0-1,0.2-1.3,0.6c-0.3,0.4-0.5,0.9-0.5,1.6c0,0.6,0.2,1.1,0.5,1.6
		c0.3,0.4,0.8,0.6,1.3,0.6C58.2,506.2,58.7,506,59,505.6z"/>
	<path class="st4" d="M63.2,507.2c-0.5-0.4-0.8-0.8-1-1.4l1.4-0.8c0.1,0.4,0.3,0.7,0.6,0.9c0.2,0.2,0.5,0.3,0.9,0.3
		c0.3,0,0.5-0.1,0.6-0.2c0.2-0.1,0.3-0.3,0.3-0.5c0-0.2-0.1-0.4-0.3-0.5c-0.2-0.1-0.5-0.3-0.9-0.4c-0.1,0-0.2-0.1-0.3-0.1
		c-0.6-0.2-1-0.5-1.3-0.8c-0.3-0.3-0.5-0.8-0.5-1.3c0-0.4,0.1-0.7,0.3-1c0.2-0.3,0.5-0.5,0.8-0.7c0.3-0.2,0.7-0.3,1.2-0.3
		c0.5,0,0.9,0.1,1.3,0.3c0.4,0.2,0.7,0.5,0.9,0.9l-1.1,1c-0.3-0.4-0.7-0.6-1.2-0.6c-0.2,0-0.4,0.1-0.5,0.2c-0.1,0.1-0.2,0.2-0.2,0.4
		c0,0.2,0.1,0.3,0.3,0.5c0.2,0.2,0.6,0.3,1.2,0.5c0.6,0.2,1,0.5,1.3,0.8c0.3,0.3,0.4,0.7,0.4,1.2c0,0.7-0.2,1.3-0.7,1.7
		c-0.4,0.4-1,0.6-1.8,0.6C64.4,507.7,63.7,507.5,63.2,507.2z"/>
	<path class="st4" d="M71.8,500.4h1.8l1.3,4.9l1.2-4.9h1.7l1.2,4.9l1.3-4.9H82l-2.3,7.2h-1.6l-1.2-4.6l-1.2,4.6h-1.6L71.8,500.4z"/>
	<path class="st4" d="M84.2,507.2c-0.5-0.4-0.9-0.8-1.1-1.4c-0.2-0.6-0.4-1.1-0.4-1.8c0-0.6,0.1-1.2,0.4-1.8c0.2-0.6,0.6-1,1.1-1.4
		c0.5-0.4,1.2-0.6,1.9-0.6c0.7,0,1.4,0.2,1.9,0.5c0.5,0.4,0.9,0.8,1.1,1.3s0.4,1.1,0.4,1.7v0.7h-4.9c0,0.4,0.2,0.8,0.5,1.1
		c0.3,0.3,0.7,0.5,1.2,0.5c0.4,0,0.7-0.1,1-0.3c0.3-0.2,0.5-0.5,0.7-0.8l1.4,0.5c-0.3,0.7-0.7,1.2-1.2,1.5c-0.5,0.4-1.2,0.5-2,0.5
		C85.3,507.7,84.7,507.5,84.2,507.2z M87.7,503.2c-0.1-0.4-0.3-0.7-0.5-1c-0.2-0.3-0.6-0.4-1-0.4c-0.4,0-0.8,0.1-1,0.4
		c-0.3,0.3-0.4,0.6-0.5,1L87.7,503.2L87.7,503.2z"/>
	<path class="st4" d="M91.1,500.4h1.8v1.2c0.3-0.4,0.6-0.7,0.9-0.9c0.4-0.2,0.8-0.3,1.2-0.3c0.3,0,0.6,0,0.9,0.1l-0.3,1.6
		c-0.2-0.1-0.5-0.2-0.7-0.2c-0.6,0-1,0.3-1.4,0.8c-0.4,0.5-0.5,1.3-0.5,2.4v2.5h-1.8L91.1,500.4L91.1,500.4z"/>
	<path class="st4" d="M97.8,507.2c-0.5-0.4-0.9-0.8-1.1-1.4c-0.2-0.6-0.4-1.1-0.4-1.8c0-0.6,0.1-1.2,0.4-1.8c0.2-0.6,0.6-1,1.1-1.4
		s1.2-0.6,1.9-0.6c0.7,0,1.4,0.2,1.9,0.5c0.5,0.4,0.9,0.8,1.1,1.3c0.2,0.5,0.4,1.1,0.4,1.7v0.7h-4.9c0,0.4,0.2,0.8,0.5,1.1
		c0.3,0.3,0.7,0.5,1.2,0.5c0.4,0,0.7-0.1,1-0.3c0.3-0.2,0.5-0.5,0.7-0.8l1.4,0.5c-0.3,0.7-0.7,1.2-1.2,1.5c-0.5,0.4-1.2,0.5-2,0.5
		C98.9,507.7,98.3,507.5,97.8,507.2z M101.3,503.2c-0.1-0.4-0.3-0.7-0.5-1c-0.2-0.3-0.6-0.4-1-0.4c-0.4,0-0.8,0.1-1,0.4
		s-0.4,0.6-0.5,1L101.3,503.2L101.3,503.2z"/>
	<path class="st4" d="M108.2,502h-0.9v-1.5h0.9v-0.4c0-0.8,0.2-1.5,0.7-1.9c0.4-0.4,1.1-0.6,1.8-0.6c0.5,0,1,0.1,1.3,0.3l-0.4,1.4
		c-0.3-0.1-0.6-0.2-0.9-0.2c-0.5,0-0.8,0.3-0.8,0.9v0.5h1.5v1.5H110v5.7h-1.8V502z"/>
	<path class="st4" d="M113.9,507.2c-0.6-0.3-1-0.8-1.3-1.3c-0.3-0.6-0.4-1.2-0.4-1.9c0-0.7,0.1-1.3,0.4-1.9c0.3-0.6,0.7-1,1.3-1.3
		c0.6-0.3,1.2-0.5,1.9-0.5c0.7,0,1.4,0.2,2,0.5c0.6,0.3,1,0.8,1.3,1.3c0.3,0.6,0.4,1.2,0.4,1.9c0,0.7-0.1,1.3-0.4,1.9
		s-0.7,1-1.3,1.3c-0.6,0.3-1.2,0.5-2,0.5C115.1,507.7,114.5,507.6,113.9,507.2z M117.2,505.6c0.3-0.4,0.5-0.9,0.5-1.6
		c0-0.6-0.2-1.1-0.5-1.6c-0.3-0.4-0.8-0.6-1.3-0.6s-1,0.2-1.3,0.6c-0.3,0.4-0.5,0.9-0.5,1.6c0,0.6,0.2,1.1,0.5,1.6
		c0.3,0.4,0.8,0.6,1.3,0.6C116.4,506.2,116.9,506,117.2,505.6z"/>
	<path class="st4" d="M121.7,507.2c-0.4-0.4-0.6-0.9-0.6-1.6v-5.1h1.8v4.6c0,0.4,0.1,0.7,0.3,0.9c0.2,0.2,0.4,0.3,0.7,0.3
		c0.3,0,0.6-0.1,0.8-0.3c0.2-0.2,0.4-0.6,0.6-1c0.2-0.4,0.2-1,0.2-1.6v-2.9h1.8v7.2h-1.8v-1.2c-0.3,0.4-0.6,0.7-1,0.9
		c-0.4,0.2-0.8,0.3-1.2,0.3C122.7,507.7,122.2,507.5,121.7,507.2z"/>
	<path class="st4" d="M129.3,500.4h1.8v1.2c0.3-0.4,0.6-0.7,1-0.9c0.4-0.2,0.8-0.3,1.2-0.3c0.7,0,1.2,0.2,1.6,0.6s0.6,0.9,0.6,1.6
		v5.1h-1.8V503c0-0.4-0.1-0.7-0.3-0.9c-0.2-0.2-0.4-0.3-0.7-0.3c-0.3,0-0.6,0.1-0.8,0.3c-0.2,0.2-0.4,0.6-0.6,1
		c-0.2,0.4-0.2,1-0.2,1.6v2.9h-1.8L129.3,500.4L129.3,500.4z"/>
	<path class="st4" d="M137.9,506.7c-0.5-0.7-0.8-1.6-0.8-2.7c0-1.1,0.3-2,0.8-2.7c0.5-0.7,1.3-1,2.3-1c0.4,0,0.8,0.1,1.1,0.2
		c0.3,0.2,0.6,0.3,0.8,0.6v-3.6h1.8v10.1h-1.8v-0.7c-0.1,0.2-0.3,0.4-0.7,0.6c-0.3,0.2-0.7,0.3-1.2,0.3
		C139.3,507.7,138.5,507.4,137.9,506.7z M141.8,505.6c0.3-0.4,0.5-0.9,0.5-1.6c0-0.7-0.2-1.2-0.5-1.6c-0.3-0.4-0.7-0.6-1.2-0.6
		s-0.9,0.2-1.2,0.6c-0.3,0.4-0.5,0.9-0.5,1.6c0,0.7,0.2,1.2,0.5,1.6c0.3,0.4,0.7,0.6,1.2,0.6S141.5,506,141.8,505.6z"/>
	<path class="st4" d="M146,507.4c-0.2-0.2-0.3-0.5-0.3-0.9c0-0.3,0.1-0.6,0.3-0.9c0.2-0.2,0.5-0.3,0.9-0.3s0.6,0.1,0.9,0.3
		c0.2,0.2,0.3,0.5,0.3,0.9c0,0.3-0.1,0.6-0.3,0.9c-0.2,0.2-0.5,0.3-0.9,0.3S146.2,507.6,146,507.4z"/>
	<path class="st5" d="M332.2,392.1l3.1-3.1l1.1,1.1l-3.1,3.1l3.1,3.1l-1.1,1.1l-3.1-3.1l-3.1,3.1l-1.1-1.1l3.1-3.1l-3.1-3.1l1.1-1.1
		L332.2,392.1z"/>
	<path class="st2" d="M209.3,258.4c0-0.2-0.2-0.4-0.4-0.6c-0.4-0.3-0.9-0.2-1.2,0.2l-3.8,5.9l-2.3-1.4c-0.4-0.2-0.9-0.1-1.2,0.3
		c0,0,0,0,0,0c-0.2,0.4-0.1,0.9,0.3,1.2l3.2,2c0.3,0.2,0.6,0.1,0.8-0.2l4.5-6.9C209.3,258.8,209.3,258.6,209.3,258.4z"/>
	<path class="st4" d="M337.3,151.8l-3.6-6.2c-0.4-0.7-1.5-0.7-1.9,0l-3.6,6.2c-0.4,0.7,0.1,1.7,1,1.7h7.3
		C337.2,153.5,337.7,152.5,337.3,151.8z M332.7,152c-0.3,0-0.5-0.2-0.5-0.5s0.2-0.5,0.5-0.5s0.5,0.2,0.5,0.5S333,152,332.7,152z
		 M333.1,149.7c-0.1,0.5-0.1,0.8-0.1,0.9c0,0.1,0,0.1,0,0.2c0,0-0.1,0-0.1,0h-0.2c0,0-0.1,0-0.1,0c0,0,0-0.1,0-0.2
		c0-0.1,0-0.3-0.2-1.3c-0.1-0.9-0.1-1-0.1-1c0-0.1,0.1-0.3,0.2-0.4c0.1-0.1,0.2-0.2,0.4-0.2c0.2,0,0.3,0.1,0.4,0.2
		c0.1,0.1,0.1,0.2,0.1,0.4C333.3,148.4,333.3,148.5,333.1,149.7z"/>
	<path class="st4" d="M200.3,505.8l-3.6-6.2c-0.4-0.7-1.5-0.7-1.9,0l-3.6,6.2c-0.4,0.7,0.1,1.7,1,1.7h7.3
		C200.2,507.5,200.8,506.5,200.3,505.8z M195.8,506c-0.3,0-0.5-0.2-0.5-0.5s0.2-0.5,0.5-0.5s0.5,0.2,0.5,0.5S196.1,506,195.8,506z
		 M196.2,503.7c-0.1,0.5-0.1,0.8-0.1,0.9c0,0.1,0,0.1,0,0.2c0,0-0.1,0-0.1,0h-0.2c0,0-0.1,0-0.1,0c0,0,0-0.1,0-0.2
		c0-0.1,0-0.3-0.2-1.3c-0.1-0.9-0.1-1-0.1-1c0-0.1,0.1-0.3,0.2-0.4c0.1-0.1,0.2-0.2,0.4-0.2c0.2,0,0.3,0.1,0.4,0.2
		c0.1,0.1,0.1,0.2,0.1,0.4C196.4,502.4,196.4,502.5,196.2,503.7z"/>
	<path class="st6" d="M637,41.5H377.4V13.8c0-4,3.3-7.3,7.3-7.3H637L637,41.5L637,41.5z"/>
	<path class="st6" d="M525.3,168.8H415.2c-2.5,0-4.5-2-4.5-4.5V91.8c0-2.5,2-4.5,4.5-4.5h110.1c2.5,0,4.5,2,4.5,4.5v72.4
		C529.8,166.7,527.8,168.8,525.3,168.8z"/>
	<path class="st6" d="M637,110.8h-85c-2.7,0-4.9-2.2-4.9-4.9c0-2.7,2.2-4.9,4.9-4.9h85V110.8z"/>
	<path class="st6" d="M637,132.9h-85c-2.7,0-4.9-2.2-4.9-4.9c0-2.7,2.2-4.9,4.9-4.9h85V132.9z"/>
	<path class="st6" d="M637,155h-85c-2.7,0-4.9-2.2-4.9-4.9c0-2.7,2.2-4.9,4.9-4.9h85V155z"/>
	<path class="st6" d="M602.7,245.2H414.8c-2.7,0-4.9-2.2-4.9-4.9c0-2.7,2.2-4.9,4.9-4.9h187.9c2.7,0,4.9,2.2,4.9,4.9
		C607.6,243,605.4,245.2,602.7,245.2z"/>
	<path class="st6" d="M561.7,267.3H414.8c-2.7,0-4.9-2.2-4.9-4.9c0-2.7,2.2-4.9,4.9-4.9h146.9c2.7,0,4.9,2.2,4.9,4.9
		C566.6,265.1,564.4,267.3,561.7,267.3z"/>
	<path class="st6" d="M579.5,289.4H414.8c-2.7,0-4.9-2.2-4.9-4.9c0-2.7,2.2-4.9,4.9-4.9h164.7c2.7,0,4.9,2.2,4.9,4.9
		C584.4,287.2,582.2,289.4,579.5,289.4z"/>
	<path class="st6" d="M555.6,368.2H413.9c-2.7,0-4.9-2.2-4.9-4.9c0-2.7,2.2-4.9,4.9-4.9h141.7c2.7,0,4.9,2.2,4.9,4.9
		C560.5,366,558.3,368.2,555.6,368.2z"/>
	<path class="st6" d="M603.8,390.3H413.9c-2.7,0-4.9-2.2-4.9-4.9c0-2.7,2.2-4.9,4.9-4.9h189.9c2.7,0,4.9,2.2,4.9,4.9
		C608.7,388.1,606.5,390.3,603.8,390.3z"/>
	<path class="st6" d="M578.5,412.4H413.9c-2.7,0-4.9-2.2-4.9-4.9c0-2.7,2.2-4.9,4.9-4.9h164.7c2.7,0,4.9,2.2,4.9,4.9
		C583.5,410.2,581.3,412.4,578.5,412.4z"/>
	<path class="st6" d="M557.8,481.8H416c-2.7,0-4.9-2.2-4.9-4.9c0-2.7,2.2-4.9,4.9-4.9h141.7c2.7,0,4.9,2.2,4.9,4.9
		C562.7,479.6,560.5,481.8,557.8,481.8z"/>
	<path class="st6" d="M606,503.9H416c-2.7,0-4.9-2.2-4.9-4.9c0-2.7,2.2-4.9,4.9-4.9H606c2.7,0,4.9,2.2,4.9,4.9
		C610.9,501.7,608.7,503.9,606,503.9z"/>
	<path class="st6" d="M580.7,526H416c-2.7,0-4.9-2.2-4.9-4.9c0-2.7,2.2-4.9,4.9-4.9h164.7c2.7,0,4.9,2.2,4.9,4.9
		C585.6,523.8,583.4,526,580.7,526z"/>
</g>
</svg>
