<?xml version="1.0" encoding="utf-8"?>
<!-- Generator: Adobe Illustrator 26.0.0, SVG Export Plug-In . SVG Version: 6.00 Build 0)  -->
<svg version="1.1" id="Layer_1" xmlns="http://www.w3.org/2000/svg" xmlns:xlink="http://www.w3.org/1999/xlink" x="0px" y="0px"
	 viewBox="0 0 429 390" style="enable-background:new 0 0 429 390;" xml:space="preserve">
<style type="text/css">
	.st0{fill:url(#SVGID_1_);}
	.st1{fill:url(#SVGID_00000142146547140533040380000007759041118830013885_);}
	.st2{fill:url(#SVGID_00000041252997818144847100000011216882986696445574_);}
	.st3{opacity:0.36;fill:#105654;enable-background:new    ;}
	.st4{fill:url(#SVGID_00000137090345808631534930000008712693146562530208_);}
	.st5{fill:#FFFFFF;}
	.st6{opacity:0.47;fill:#FFFFFF;enable-background:new    ;}
	.st7{opacity:0.36;fill:#FFFFFF;enable-background:new    ;}
	.st8{fill:#1DA69A;}
	.st9{fill:url(#SVGID_00000161597007114317544280000008303111215348501410_);}
	.st10{fill:url(#SVGID_00000084508806647831213260000001522192280813652869_);}
	.st11{opacity:0.54;fill:#FFFFFF;enable-background:new    ;}
</style>
<g>
	
		<radialGradient id="SVGID_1_" cx="-40.7958" cy="451.7007" r="1" gradientTransform="matrix(200.792 0 0 -200.473 8408.4736 90751.0391)" gradientUnits="userSpaceOnUse">
		<stop  offset="0" style="stop-color:#074F44"/>
		<stop  offset="1" style="stop-color:#0A776A"/>
	</radialGradient>
	<path class="st0" d="M348.7,113.2c0,0-12.1-11.8-70.1-74.7c-58-62.9-122.7,0-138.2,17c-15.5,17-44.5,49.1-88.3,96.3
		C8.4,199-6.4,242,7.1,275.4c13.5,33.4,62.3,49.1,109.8,36.9C169,299,217.3,297,257.8,346.4c51,62.3,142.3,44.3,165.9-42.8
		C447.2,216.4,383.8,151.9,348.7,113.2z"/>
	
		<radialGradient id="SVGID_00000175298660399713702970000012272219942008138652_" cx="-40.7663" cy="451.6608" r="0.9994" gradientTransform="matrix(175.424 0 0 -176.897 7340.6577 80127.8359)" gradientUnits="userSpaceOnUse">
		<stop  offset="0" style="stop-color:#074F44"/>
		<stop  offset="1" style="stop-color:#1DA69A"/>
	</radialGradient>
	<path style="fill:url(#SVGID_00000175298660399713702970000012272219942008138652_);" d="M371.3,172
		c-16.1-53.5-64.9-78.5-108.1-63.2c-27.5,9.7-62.5,13.5-115.4-20.6C91,51.6-0.3,55.6,0,159.9c0.4,132.7,60.8,181.3,96.6,204
		c76.6,48.4,184,23.5,228.2-25.3C368.1,290.5,387.9,227.1,371.3,172z"/>
	
		<radialGradient id="SVGID_00000183950779201929644370000013930357715365643170_" cx="-40.7806" cy="451.6752" r="1" gradientTransform="matrix(186.858 0 0 -184.714 7827.749 83606.5391)" gradientUnits="userSpaceOnUse">
		<stop  offset="0" style="stop-color:#074F44"/>
		<stop  offset="1" style="stop-color:#1DA69A"/>
	</radialGradient>
	<path style="fill:url(#SVGID_00000183950779201929644370000013930357715365643170_);" d="M389.3,23.6
		c-17.2-24.8-62.1-36.5-105.4-2.7c-48.6,38-117.3,56.8-178.7,66.7c-63.2,10.2-93.1,56.8-94,85.7c-0.9,31.7,26.1,71.2,105.9,119.5
		c79.9,48.3,135.5,61.6,183.2,55.5s78.9-34.3,94.4-81.2c10.9-32.8,4.8-72.1,2.2-124.6C393.8,76.8,414.2,59.5,389.3,23.6z"/>
	<path class="st3" d="M282.7,262.8l-136.3,45c-1.6,0.5-3.3,0.4-4.8-0.4c-1.5-0.7-2.6-2.1-3.2-3.6l-45-136.3
		c-0.5-1.6-0.4-3.3,0.4-4.8c0.8-1.5,2.1-2.6,3.7-3.2l136.3-45c1.6-0.5,3.3-0.4,4.8,0.4c1.5,0.7,2.6,2.1,3.2,3.6l45,136.3
		c0.5,1.6,0.4,3.3-0.4,4.8C285.7,261.1,284.3,262.2,282.7,262.8z"/>
	
		<radialGradient id="SVGID_00000093162229096697049100000008722235158724669829_" cx="180.0405" cy="185.9447" r="97.0402" gradientTransform="matrix(1 0 0 -1 0 392)" gradientUnits="userSpaceOnUse">
		<stop  offset="0" style="stop-color:#074F44"/>
		<stop  offset="1" style="stop-color:#0A776A"/>
	</radialGradient>
	<path style="fill:url(#SVGID_00000093162229096697049100000008722235158724669829_);" d="M223.7,109.3l-136.3,45
		c-3.3,1.1-5.1,4.7-4,8l45,136.3c1.1,3.3,4.7,5.1,8,4l136.3-45c3.3-1.1,5.1-4.7,4-8l-45-136.3C230.6,110,227,108.2,223.7,109.3z"/>
	<path class="st5" d="M221.2,124.2L98,164.9L138.7,288l123.1-40.7L221.2,124.2z"/>
	<path class="st6" d="M178.8,193c-4,0-7.9-1.5-10.9-4.2c-3-2.7-4.8-6.5-5.1-10.5c-0.3-4,0.9-8,3.4-11.2c2.5-3.2,6.1-5.3,10-5.9
		c4-0.6,8,0.2,11.4,2.5c3.4,2.2,5.7,5.6,6.7,9.5c1,3.9,0.4,8-1.5,11.6c-1.9,3.5-5.2,6.2-9,7.4C182.2,192.7,180.5,193,178.8,193z
		 M178.8,164.1c-1.4,0-2.8,0.2-4.1,0.7c-3.1,1-5.7,3.2-7.2,6c-1.6,2.8-2,6.2-1.2,9.3c0.8,3.2,2.7,5.9,5.4,7.7c2.7,1.8,6,2.5,9.2,2
		s6.1-2.2,8.1-4.8c2-2.6,3-5.8,2.7-9c-0.3-3.2-1.7-6.3-4.1-8.5C185.2,165.3,182.1,164.1,178.8,164.1z"/>
	<path class="st7" d="M113.2,167.3l28-9.3c0.1,0,0.3-0.1,0.4,0c0.1,0,0.3,0,0.4,0.1c0.1,0.1,0.2,0.1,0.3,0.2
		c0.1,0.1,0.2,0.2,0.2,0.3c0,0.1,0.1,0.3,0,0.4c0,0.1,0,0.3-0.1,0.4c-0.1,0.1-0.1,0.2-0.2,0.3c-0.1,0.1-0.2,0.2-0.3,0.2l-28,9.3
		c-0.9,0.3-1.6,0.9-2,1.7c-0.4,0.8-0.5,1.8-0.2,2.6l7.4,22.2c0,0.1,0.1,0.3,0,0.4c0,0.1,0,0.3-0.1,0.4c-0.1,0.1-0.1,0.2-0.2,0.3
		c-0.1,0.1-0.2,0.2-0.3,0.2c-0.1,0-0.3,0.1-0.4,0c-0.1,0-0.3,0-0.4-0.1c-0.1-0.1-0.2-0.1-0.3-0.2c-0.1-0.1-0.2-0.2-0.2-0.3
		l-7.4-22.3c-0.4-1.4-0.3-2.9,0.3-4.1C110.7,168.8,111.8,167.8,113.2,167.3z"/>
	<path class="st7" d="M210.7,135.1l-28,9.3c-0.1,0-0.2,0.1-0.3,0.2c-0.1,0.1-0.2,0.2-0.2,0.3c-0.1,0.1-0.1,0.2-0.1,0.4
		c0,0.1,0,0.3,0.1,0.4c0.1,0.2,0.3,0.5,0.5,0.6c0.2,0.1,0.5,0.1,0.8,0.1l28-9.3c0.9-0.3,1.8-0.2,2.6,0.2c0.8,0.4,1.4,1.1,1.7,2
		l7.3,22.2c0.1,0.2,0.3,0.5,0.5,0.6c0.2,0.1,0.5,0.1,0.8,0.1c0.3-0.1,0.5-0.3,0.6-0.5c0.1-0.2,0.1-0.5,0.1-0.8l-7.4-22.2
		c-0.5-1.4-1.4-2.5-2.7-3.2C213.6,134.8,212.1,134.7,210.7,135.1z"/>
	<path class="st8" d="M200.2,162.6l-9.2,3.8c-0.6,0.2-1.1,0.7-1.4,1.2c-0.4,0.5-0.6,1.1-0.6,1.8c0,0.6,0.1,1.3,0.5,1.8
		c0.3,0.5,0.8,1,1.4,1.3l4.4,2.2l-4,8.1c-0.1,0.3-0.2,0.6-0.1,0.9c0,0.3,0.2,0.6,0.4,0.8c0.2,0.2,0.5,0.4,0.8,0.5
		c0.3,0.1,0.6,0.1,0.9,0c0.2-0.1,0.4-0.2,0.5-0.3c0.2-0.1,0.3-0.3,0.4-0.5l4-8.1l4.4,2.2c0.4,0.2,0.8,0.3,1.2,0.3
		c0.6,0.1,1.3-0.1,1.9-0.4s1-0.8,1.3-1.3c0.4-0.7,0.5-1.6,0.3-2.4l-2.5-9.6c-0.1-0.5-0.3-0.9-0.6-1.2c-0.3-0.4-0.7-0.7-1.1-0.9
		c-0.4-0.2-0.9-0.3-1.4-0.3C201.2,162.4,200.7,162.5,200.2,162.6L200.2,162.6z M204.1,175.3C204.1,175.3,204.1,175.3,204.1,175.3
		c0,0.1,0,0.1,0,0.1c0,0,0,0.1-0.1,0.1c0,0-0.1,0-0.1,0l-11.7-5.8c0,0,0-0.1,0-0.1c0,0,0-0.1,0-0.1c0,0,0,0,0-0.1c0,0,0.1,0,0.1,0
		l9.2-3.8l0.1,0c0,0,0,0,0,0.1L204.1,175.3z"/>
	<path class="st8" d="M186.9,211.5c-0.4-1.3-1.3-2.4-2.5-3.1c-1.2-0.7-2.5-1-3.9-0.9c-1.4,0.2-2.6,0.8-3.5,1.8s-1.5,2.3-1.6,3.6
		c-0.1,1.4,0.3,2.7,1.1,3.8c0.8,1.1,1.9,1.9,3.3,2.3c1.3,0.4,2.7,0.2,4-0.3c1.2-0.6,2.3-1.5,2.9-2.8c0.3-0.7,0.5-1.4,0.6-2.2
		C187.2,213,187.1,212.3,186.9,211.5z M178.7,214.3c-0.2-0.5-0.2-1.1,0-1.6c0.1-0.5,0.4-1,0.8-1.3c0.4-0.3,0.9-0.6,1.4-0.6
		s1.1,0,1.6,0.2c0.5,0.2,0.9,0.6,1.2,1.1c0.3,0.5,0.4,1,0.4,1.5c0,0.5-0.2,1-0.5,1.4c-0.3,0.4-0.8,0.8-1.3,0.9
		c-0.3,0.1-0.7,0.2-1.1,0.2c-0.7,0-1.4-0.4-1.9-0.9C179,214.9,178.8,214.6,178.7,214.3z"/>
	<path class="st8" d="M186.1,190.4L133.7,208c-0.5,0.2-0.9,0.4-1.3,0.8c-0.4,0.3-0.7,0.8-0.9,1.2c-0.2,0.5-0.4,1-0.4,1.5
		c0,0.5,0,1,0.2,1.5l1.5,4.4c0.1,0.2,0.1,0.4,0.3,0.6c0.1,0.2,0.3,0.3,0.5,0.4c0.2,0.1,0.4,0.2,0.6,0.2c0.2,0,0.4,0,0.6-0.1
		c0.2-0.1,0.4-0.2,0.6-0.3c0.2-0.1,0.3-0.3,0.4-0.5c0.1-0.2,0.1-0.4,0.1-0.6c0-0.2,0-0.4-0.1-0.6l-1.5-4.4c0-0.1-0.1-0.2-0.1-0.3
		c0-0.1,0-0.2,0.1-0.3c0-0.1,0.1-0.2,0.2-0.2c0.1-0.1,0.2-0.1,0.3-0.1l52.4-17.6c0.1-0.1,0.2-0.1,0.3-0.1c0.1,0,0.2,0,0.3,0.1
		c0.1,0,0.2,0.1,0.2,0.2c0.1,0.1,0.1,0.2,0.1,0.3l10.6,31.7l-8.3,14.8l-21.9-12.8c-0.7-0.4-1.4-0.6-2.1-0.7c-0.8-0.1-1.5,0-2.2,0.2
		c-0.7,0.2-1.4,0.6-1.9,1.2c-0.6,0.5-1,1.2-1.3,1.9l-11.5,27.6l-11.5-34.2c-0.2-0.4-0.4-0.7-0.8-0.8c-0.3-0.2-0.7-0.2-1.1-0.1
		c-0.4,0.1-0.7,0.4-0.9,0.7s-0.2,0.8-0.2,1.1l13.7,41c0.2,0.5,0.4,0.9,0.8,1.3c0.3,0.4,0.8,0.7,1.2,0.9c0.5,0.2,1,0.4,1.5,0.4
		c0.5,0,1,0,1.5-0.2l37.1-12.5c0.2-0.1,0.4-0.2,0.5-0.3c0.2-0.1,0.3-0.3,0.4-0.5c0.1-0.2,0.2-0.4,0.2-0.6c0-0.2,0-0.4-0.1-0.6
		c-0.1-0.2-0.2-0.4-0.3-0.5c-0.1-0.2-0.3-0.3-0.5-0.4c-0.2-0.1-0.4-0.2-0.6-0.2c-0.2,0-0.4,0-0.6,0.1l-37.1,12.4
		c-0.2,0.1-0.4,0.1-0.6,0c-0.2-0.1-0.3-0.3-0.4-0.5l-0.7-2.1l12.8-30.9c0.1-0.3,0.3-0.5,0.5-0.8c0.3-0.3,0.8-0.5,1.3-0.6
		c0.5-0.1,0.9,0,1.3,0.3l21.8,12.8c0.4,0.2,0.8,0.4,1.2,0.4c0.4,0.1,0.9,0,1.3-0.1c0.4-0.1,0.8-0.3,1.1-0.6c0.3-0.3,0.6-0.6,0.8-0.9
		l6.8-12.4l5.6,16.7c0,0.1,0,0.2,0,0.3s0,0.2-0.1,0.3c0,0.1-0.1,0.2-0.2,0.2c-0.1,0.1-0.2,0.1-0.3,0.2l-8.3,2.8
		c-0.2,0.1-0.4,0.2-0.5,0.3c-0.2,0.1-0.3,0.3-0.4,0.5c-0.1,0.3-0.2,0.6-0.2,0.9s0.2,0.6,0.4,0.8c0.2,0.2,0.5,0.4,0.8,0.5
		c0.3,0.1,0.6,0.1,0.9,0l8.3-2.8c0.5-0.2,0.9-0.4,1.3-0.8c0.4-0.3,0.7-0.8,0.9-1.2c0.2-0.5,0.4-1,0.4-1.5c0-0.5,0-1-0.2-1.5
		l-17.6-52.4c-0.2-0.5-0.4-0.9-0.8-1.3c-0.3-0.4-0.8-0.7-1.2-0.9c-0.5-0.2-1-0.4-1.5-0.4C187.1,190.2,186.6,190.3,186.1,190.4
		L186.1,190.4z"/>
	<path class="st8" d="M129.8,181.2l-3-9c-0.2-0.6-0.7-1.2-1.3-1.5c-0.3-0.1-0.6-0.2-0.9-0.3c-0.3,0-0.7,0-1,0.1l-8.9,3
		c-0.6,0.2-1.2,0.7-1.5,1.3c-0.3,0.6-0.3,1.3-0.1,1.9l3,8.9c0.1,0.3,0.3,0.6,0.5,0.9c0.2,0.2,0.5,0.5,0.8,0.6
		c0.3,0.1,0.6,0.2,0.9,0.3c0.3,0,0.7,0,1-0.1l9-3c0.3-0.1,0.6-0.3,0.9-0.5c0.2-0.2,0.5-0.5,0.6-0.8c0.1-0.3,0.2-0.6,0.3-0.9
		C130,181.8,129.9,181.5,129.8,181.2L129.8,181.2z M126.6,181.5l-7.7,2.6l-2.6-7.7l7.7-2.6L126.6,181.5z"/>
	<path class="st8" d="M211.8,141.1l-8.9,3c-0.6,0.2-1.2,0.7-1.5,1.3c-0.3,0.6-0.3,1.3-0.1,1.9l3,8.9c0.1,0.3,0.3,0.6,0.5,0.9
		c0.2,0.3,0.5,0.5,0.8,0.6c0.3,0.1,0.6,0.2,0.9,0.3c0.3,0,0.7,0,1-0.1l8.9-3c0.3-0.1,0.6-0.3,0.9-0.5c0.2-0.2,0.5-0.5,0.6-0.8
		s0.2-0.6,0.3-1c0-0.3,0-0.7-0.1-1l-3-8.9c-0.1-0.3-0.3-0.6-0.5-0.8c-0.2-0.3-0.5-0.5-0.8-0.6c-0.3-0.1-0.6-0.2-1-0.2
		C212.4,141,212.1,141,211.8,141.1z M214.8,152l-7.7,2.6l-2.6-7.7l7.7-2.6L214.8,152z"/>
	<path class="st8" d="M241.3,229.3l-8.9,3c-0.6,0.2-1.2,0.7-1.5,1.3c-0.1,0.3-0.2,0.6-0.3,0.9c0,0.3,0,0.7,0.1,1l3,9
		c0.1,0.3,0.3,0.6,0.5,0.9c0.2,0.3,0.5,0.5,0.8,0.6c0.3,0.1,0.6,0.2,1,0.3c0.3,0,0.7,0,1-0.1l8.9-3c0.3-0.1,0.6-0.3,0.9-0.5
		c0.2-0.2,0.5-0.5,0.6-0.8c0.1-0.3,0.2-0.6,0.3-1c0-0.3,0-0.7-0.1-1l-3-9c-0.1-0.3-0.3-0.6-0.5-0.9c-0.2-0.2-0.5-0.5-0.8-0.6
		c-0.3-0.1-0.6-0.2-1-0.3C242,229.1,241.6,229.2,241.3,229.3z M244.3,240.2l-7.7,2.6l-2.6-7.7l7.7-2.6L244.3,240.2z"/>
	<path class="st8" d="M127.1,191c-0.2-0.4-0.5-0.7-0.8-0.8c-0.4-0.2-0.8-0.2-1.1-0.1c-0.4,0.1-0.7,0.4-0.9,0.7
		c-0.2,0.3-0.2,0.8-0.1,1.1l0.8,2.3c0.1,0.2,0.1,0.4,0.3,0.6c0.1,0.2,0.3,0.3,0.5,0.4c0.2,0.1,0.4,0.2,0.6,0.2c0.2,0,0.4,0,0.6-0.1
		c0.2-0.1,0.4-0.2,0.6-0.3c0.2-0.2,0.3-0.3,0.4-0.5c0.1-0.2,0.1-0.4,0.1-0.6c0-0.2,0-0.4-0.1-0.6L127.1,191z"/>
	<path class="st8" d="M128.5,200.2c-0.4,0.1-0.7,0.4-0.9,0.8c-0.2,0.4-0.2,0.8-0.1,1.2l0.8,2.3c0.2,0.4,0.4,0.7,0.8,0.8
		c0.4,0.2,0.8,0.2,1.1,0.1c0.4-0.1,0.7-0.4,0.9-0.7c0.2-0.3,0.3-0.8,0.2-1.1l-0.8-2.3c-0.1-0.4-0.4-0.7-0.8-0.9
		c-0.2-0.1-0.4-0.2-0.6-0.2C128.9,200.1,128.7,200.1,128.5,200.2z"/>
	<path class="st8" d="M215.1,165.8c0.2-0.1,0.4-0.2,0.5-0.3c0.2-0.1,0.3-0.3,0.4-0.5c0.1-0.2,0.1-0.4,0.2-0.6c0-0.2,0-0.4-0.1-0.6
		l-0.8-2.3c-0.1-0.2-0.2-0.4-0.3-0.5c-0.1-0.2-0.3-0.3-0.5-0.4c-0.2-0.1-0.4-0.2-0.6-0.2c-0.2,0-0.4,0-0.6,0.1
		c-0.2,0.1-0.4,0.2-0.5,0.3c-0.2,0.1-0.3,0.3-0.4,0.5c-0.1,0.2-0.1,0.4-0.2,0.6c0,0.2,0,0.4,0.1,0.6l0.8,2.3
		c0.1,0.2,0.2,0.4,0.3,0.5c0.1,0.2,0.3,0.3,0.5,0.4c0.2,0.1,0.4,0.1,0.6,0.2C214.7,165.9,214.9,165.9,215.1,165.8z"/>
	<path class="st8" d="M216.5,174.9c0.1,0.4,0.4,0.7,0.8,0.9c0.4,0.2,0.8,0.2,1.2,0.1c0.4-0.1,0.7-0.4,0.9-0.8
		c0.2-0.4,0.2-0.8,0.1-1.2l-0.8-2.3c-0.1-0.2-0.2-0.4-0.3-0.5c-0.1-0.2-0.3-0.3-0.5-0.4c-0.2-0.1-0.4-0.2-0.6-0.2
		c-0.2,0-0.4,0-0.6,0.1c-0.2,0.1-0.4,0.2-0.5,0.3c-0.2,0.1-0.3,0.3-0.4,0.5c-0.1,0.2-0.1,0.4-0.2,0.6c0,0.2,0,0.4,0.1,0.6
		L216.5,174.9z"/>
	<path class="st8" d="M219.9,185.1c0.1,0.2,0.2,0.4,0.3,0.5c0.1,0.2,0.3,0.3,0.5,0.4c0.2,0.1,0.4,0.1,0.6,0.2c0.2,0,0.4,0,0.6-0.1
		c0.2-0.1,0.4-0.2,0.5-0.3c0.2-0.1,0.3-0.3,0.4-0.5c0.1-0.2,0.1-0.4,0.2-0.6c0-0.2,0-0.4-0.1-0.6l-0.8-2.3c-0.1-0.2-0.2-0.4-0.3-0.5
		c-0.1-0.2-0.3-0.3-0.5-0.4c-0.4-0.2-0.8-0.2-1.2-0.1c-0.4,0.1-0.7,0.4-0.9,0.8c-0.1,0.2-0.1,0.4-0.2,0.6c0,0.2,0,0.4,0.1,0.6
		L219.9,185.1z"/>
	<path class="st8" d="M223.3,195.2c0.1,0.2,0.2,0.4,0.3,0.5c0.1,0.2,0.3,0.3,0.5,0.4c0.2,0.1,0.4,0.1,0.6,0.2c0.2,0,0.4,0,0.6-0.1
		c0.2-0.1,0.4-0.2,0.5-0.3c0.2-0.1,0.3-0.3,0.4-0.5c0.1-0.2,0.1-0.4,0.1-0.6c0-0.2,0-0.4-0.1-0.6l-0.8-2.3c-0.1-0.4-0.4-0.7-0.8-0.9
		c-0.2-0.1-0.4-0.1-0.6-0.2c-0.2,0-0.4,0-0.6,0.1c-0.2,0.1-0.4,0.2-0.5,0.3c-0.2,0.1-0.3,0.3-0.4,0.5c-0.2,0.4-0.2,0.8-0.1,1.2
		L223.3,195.2z"/>
	<path class="st8" d="M226.7,205.4c0.1,0.2,0.2,0.4,0.3,0.5c0.1,0.2,0.3,0.3,0.5,0.4c0.2,0.1,0.4,0.1,0.6,0.2c0.2,0,0.4,0,0.6-0.1
		c0.2-0.1,0.4-0.2,0.5-0.3c0.2-0.1,0.3-0.3,0.4-0.5c0.1-0.2,0.1-0.4,0.2-0.6c0-0.2,0-0.4-0.1-0.6l-0.8-2.3c-0.1-0.2-0.2-0.4-0.3-0.5
		c-0.1-0.2-0.3-0.3-0.5-0.4c-0.2-0.1-0.4-0.1-0.6-0.2c-0.2,0-0.4,0-0.6,0.1c-0.2,0.1-0.4,0.2-0.5,0.3c-0.2,0.1-0.3,0.3-0.4,0.5
		c-0.1,0.2-0.1,0.4-0.2,0.6c0,0.2,0,0.4,0.1,0.6L226.7,205.4z"/>
	<path class="st8" d="M230.1,215.5c0.1,0.4,0.4,0.7,0.8,0.9c0.4,0.2,0.8,0.2,1.2,0.1c0.4-0.1,0.7-0.4,0.9-0.8
		c0.2-0.4,0.2-0.8,0.1-1.2l-0.8-2.3c-0.1-0.2-0.2-0.4-0.3-0.5c-0.1-0.2-0.3-0.3-0.5-0.4c-0.2-0.1-0.4-0.1-0.6-0.2
		c-0.2,0-0.4,0-0.6,0.1c-0.2,0.1-0.4,0.2-0.5,0.3c-0.2,0.1-0.3,0.3-0.4,0.5c-0.1,0.2-0.1,0.4-0.2,0.6c0,0.2,0,0.4,0.1,0.6
		L230.1,215.5z"/>
	<path class="st8" d="M233.5,225.7c0.1,0.4,0.4,0.7,0.8,0.9c0.4,0.2,0.8,0.2,1.2,0.1c0.4-0.1,0.7-0.4,0.9-0.8
		c0.2-0.4,0.2-0.8,0.1-1.2l-0.8-2.3c-0.1-0.4-0.4-0.7-0.8-0.9c-0.4-0.2-0.8-0.2-1.2-0.1c-0.4,0.1-0.7,0.4-0.9,0.8
		c-0.2,0.4-0.2,0.8-0.1,1.2L233.5,225.7z"/>
	<path class="st8" d="M195.3,155.9l2.3-0.8c0.4-0.1,0.7-0.4,0.9-0.8c0.1-0.2,0.1-0.4,0.2-0.6c0-0.2,0-0.4-0.1-0.6
		c-0.1-0.4-0.4-0.7-0.8-0.9c-0.4-0.2-0.8-0.2-1.2-0.1l-2.3,0.8c-0.4,0.1-0.7,0.4-0.9,0.8c-0.2,0.4-0.2,0.8-0.1,1.2
		c0.1,0.2,0.2,0.4,0.3,0.5c0.1,0.2,0.3,0.3,0.5,0.4C194.5,156,194.9,156.1,195.3,155.9z"/>
	<path class="st8" d="M185.2,159.3l2.3-0.8c0.4-0.1,0.7-0.4,0.9-0.8c0.1-0.2,0.1-0.4,0.2-0.6c0-0.2,0-0.4-0.1-0.6
		c-0.1-0.4-0.4-0.7-0.8-0.9c-0.4-0.2-0.8-0.2-1.2-0.1l-2.3,0.8c-0.2,0.1-0.4,0.2-0.5,0.3c-0.2,0.1-0.3,0.3-0.4,0.5
		c-0.1,0.2-0.2,0.4-0.2,0.6c0,0.2,0,0.4,0.1,0.6c0.1,0.2,0.2,0.4,0.3,0.5c0.1,0.2,0.3,0.3,0.5,0.4
		C184.3,159.4,184.8,159.5,185.2,159.3z"/>
	<path class="st8" d="M175,162.7l2.3-0.8c0.4-0.1,0.7-0.4,0.9-0.8c0.2-0.4,0.2-0.8,0.1-1.2c-0.1-0.2-0.2-0.4-0.3-0.5
		c-0.1-0.2-0.3-0.3-0.5-0.4c-0.2-0.1-0.4-0.1-0.6-0.2s-0.4,0-0.6,0.1l-2.3,0.8c-0.2,0.1-0.4,0.2-0.5,0.3c-0.2,0.1-0.3,0.3-0.4,0.5
		c-0.2,0.4-0.2,0.8-0.1,1.2c0.1,0.2,0.2,0.4,0.3,0.5c0.1,0.2,0.3,0.3,0.5,0.4c0.2,0.1,0.4,0.1,0.6,0.2
		C174.6,162.8,174.8,162.8,175,162.7z"/>
	<path class="st8" d="M164.9,166.1l2.3-0.8c0.2-0.1,0.4-0.2,0.5-0.3c0.2-0.1,0.3-0.3,0.4-0.5c0.1-0.2,0.1-0.4,0.2-0.6
		c0-0.2,0-0.4-0.1-0.6c-0.1-0.4-0.4-0.7-0.8-0.9c-0.2-0.1-0.4-0.1-0.6-0.2c-0.2,0-0.4,0-0.6,0.1l-2.3,0.8c-0.2,0.1-0.4,0.2-0.5,0.3
		c-0.2,0.1-0.3,0.3-0.4,0.5c-0.1,0.2-0.1,0.4-0.2,0.6c0,0.2,0,0.4,0.1,0.6c0.1,0.4,0.4,0.7,0.8,0.9
		C164,166.2,164.5,166.3,164.9,166.1z"/>
	<path class="st8" d="M154.8,169.5l2.3-0.8c0.4-0.1,0.7-0.4,0.9-0.8c0.1-0.2,0.1-0.4,0.2-0.6c0-0.2,0-0.4-0.1-0.6
		c-0.1-0.2-0.2-0.4-0.3-0.5c-0.1-0.2-0.3-0.3-0.5-0.4c-0.2-0.1-0.4-0.1-0.6-0.2c-0.2,0-0.4,0-0.6,0.1l-2.3,0.8
		c-0.4,0.1-0.7,0.4-0.9,0.8c-0.2,0.4-0.2,0.8-0.1,1.2c0.1,0.2,0.2,0.4,0.3,0.5c0.1,0.2,0.3,0.3,0.5,0.4
		C154,169.6,154.4,169.7,154.8,169.5z"/>
	<path class="st8" d="M144.6,172.9l2.3-0.8c0.4-0.1,0.7-0.4,0.9-0.8c0.1-0.2,0.1-0.4,0.2-0.6c0-0.2,0-0.4-0.1-0.6
		c-0.1-0.4-0.4-0.7-0.8-0.9c-0.4-0.2-0.8-0.2-1.2-0.1l-2.3,0.8c-0.2,0.1-0.4,0.2-0.5,0.3c-0.2,0.1-0.3,0.3-0.4,0.5
		c-0.1,0.2-0.2,0.4-0.2,0.6c0,0.2,0,0.4,0.1,0.6c0.1,0.2,0.2,0.4,0.3,0.5c0.1,0.2,0.3,0.3,0.5,0.4
		C143.8,173,144.2,173.1,144.6,172.9z"/>
	<path class="st8" d="M134.4,176.4l2.3-0.8c0.4-0.1,0.7-0.4,0.9-0.8c0.2-0.4,0.2-0.8,0.1-1.2c-0.1-0.4-0.4-0.7-0.8-0.9
		c-0.4-0.2-0.8-0.2-1.2-0.1l-2.3,0.8c-0.2,0.1-0.4,0.2-0.5,0.3c-0.2,0.1-0.3,0.3-0.4,0.5c-0.2,0.4-0.2,0.8-0.1,1.2
		c0.1,0.2,0.2,0.4,0.3,0.5c0.1,0.2,0.3,0.3,0.5,0.4c0.2,0.1,0.4,0.1,0.6,0.2C134,176.5,134.2,176.4,134.4,176.4z"/>
	<path class="st8" d="M226.1,240.4l-2.3,0.8c-0.2,0.1-0.4,0.1-0.6,0.3c-0.2,0.1-0.3,0.3-0.4,0.5c-0.1,0.2-0.2,0.4-0.2,0.6
		c0,0.2,0,0.4,0.1,0.6c0.1,0.2,0.2,0.4,0.3,0.6c0.1,0.2,0.3,0.3,0.5,0.4c0.2,0.1,0.4,0.1,0.6,0.1c0.2,0,0.4,0,0.6-0.1l2.3-0.8
		c0.2-0.1,0.4-0.2,0.6-0.3c0.2-0.1,0.3-0.3,0.4-0.5c0.1-0.2,0.2-0.4,0.2-0.6c0-0.2,0-0.4-0.1-0.6c-0.1-0.2-0.2-0.4-0.3-0.6
		c-0.2-0.2-0.3-0.3-0.5-0.4c-0.2-0.1-0.4-0.1-0.6-0.1C226.6,240.2,226.4,240.3,226.1,240.4z"/>
	<path class="st8" d="M216,243.8l-2.3,0.8c-0.4,0.1-0.7,0.4-0.9,0.8c-0.2,0.4-0.2,0.8-0.1,1.2c0.1,0.4,0.4,0.7,0.8,0.9
		c0.4,0.2,0.8,0.2,1.2,0.1l2.3-0.8c0.2-0.1,0.4-0.2,0.6-0.3c0.2-0.1,0.3-0.3,0.4-0.5c0.1-0.2,0.2-0.4,0.2-0.6c0-0.2,0-0.4-0.1-0.6
		c-0.1-0.2-0.2-0.4-0.3-0.6c-0.2-0.2-0.3-0.3-0.5-0.4c-0.2-0.1-0.4-0.1-0.6-0.1C216.4,243.6,216.2,243.7,216,243.8z"/>
	<path class="st3" d="M323.8,168.2H217.4c-3.5,0-6.4,2.8-6.4,6.4V281c0,3.5,2.8,6.4,6.4,6.4h106.4c3.5,0,6.4-2.8,6.4-6.4V174.5
		C330.1,171,327.3,168.2,323.8,168.2z"/>
	<path class="st5" d="M317.7,162.1H211.3c-3.5,0-6.4,2.8-6.4,6.4v106.4c0,3.5,2.8,6.4,6.4,6.4h106.4c3.5,0,6.4-2.8,6.4-6.4V168.5
		C324.1,165,321.2,162.1,317.7,162.1z"/>
	
		<radialGradient id="SVGID_00000129908135204137175160000003684746816732415131_" cx="264.456" cy="170.305" r="49.425" gradientTransform="matrix(1 0 0 -1 0 392)" gradientUnits="userSpaceOnUse">
		<stop  offset="0" style="stop-color:#074F44"/>
		<stop  offset="1" style="stop-color:#0A776A"/>
	</radialGradient>
	<path style="fill:url(#SVGID_00000129908135204137175160000003684746816732415131_);" d="M313.9,172.3H215v98.8h98.9V172.3z"/>
	<path class="st6" d="M315.5,272H213.7v-22.9l17.6-20.4c1.2-1.4,2.9-2.3,4.8-2.5c1.9-0.2,3.7,0.3,5.2,1.3l16.2,11.6
		c0.4,0.3,0.9,0.4,1.4,0.4s1-0.2,1.3-0.5l23.3-20.1c2.5-2.1,5.6-3.3,8.9-3.2c3.3,0,6.4,1.2,8.8,3.4l14.3,12.7L315.5,272z M216.7,269
		h95.9v-35.9l-13.3-11.8c-1.9-1.7-4.3-2.6-6.9-2.6c-2.5,0-5,0.9-6.9,2.5l-23.3,20c-0.9,0.8-2,1.2-3.1,1.3c-1.2,0.1-2.3-0.3-3.2-1
		l-16.2-11.6c-0.9-0.6-2-0.9-3.1-0.8c-1.1,0.1-2.1,0.7-2.9,1.5l-16.9,19.5V269z"/>
	<path class="st6" d="M270.5,212.9c-2.5,0-4.9-0.7-7-2.1c-2.1-1.4-3.7-3.3-4.6-5.6c-0.9-2.3-1.2-4.8-0.7-7.2
		c0.5-2.4,1.7-4.7,3.4-6.4c1.8-1.8,4-2.9,6.4-3.4c2.4-0.5,4.9-0.2,7.2,0.7c2.3,0.9,4.2,2.6,5.6,4.6c1.4,2.1,2.1,4.5,2.1,7
		c0,3.3-1.3,6.5-3.7,8.8C277,211.6,273.9,212.9,270.5,212.9z M270.5,190.9c-1.9,0-3.7,0.6-5.3,1.6c-1.6,1-2.8,2.5-3.5,4.3
		c-0.7,1.7-0.9,3.7-0.5,5.5c0.4,1.8,1.3,3.5,2.6,4.9c1.3,1.3,3,2.2,4.9,2.6c1.8,0.4,3.8,0.2,5.5-0.5c1.7-0.7,3.2-1.9,4.3-3.5
		c1-1.6,1.6-3.4,1.6-5.3c0-1.3-0.2-2.5-0.7-3.7c-0.5-1.2-1.2-2.2-2.1-3.1c-0.9-0.9-1.9-1.6-3.1-2.1
		C273,191.1,271.8,190.9,270.5,190.9L270.5,190.9z"/>
	<path class="st3" d="M220.8,225.5L160.6,248c-3.3,1.2-5,4.9-3.7,8.2l22.5,60.2c1.2,3.3,4.9,5,8.2,3.7l60.2-22.5
		c3.3-1.2,5-4.9,3.7-8.2L229,229.2C227.7,225.9,224.1,224.2,220.8,225.5z"/>
	<path class="st5" d="M215.8,223.2l-60.2,22.5c-3.3,1.2-5,4.9-3.7,8.2l22.5,60.2c1.2,3.3,4.9,5,8.2,3.7l60.2-22.5
		c3.3-1.2,5-4.9,3.7-8.2L224,226.9C222.7,223.6,219.1,221.9,215.8,223.2z"/>
	
		<radialGradient id="SVGID_00000180353463895837815200000013329535279493344657_" cx="199.1435" cy="121.52" r="41.0968" gradientTransform="matrix(1 0 0 -1 0 392)" gradientUnits="userSpaceOnUse">
		<stop  offset="0" style="stop-color:#074F44"/>
		<stop  offset="1" style="stop-color:#0A776A"/>
	</radialGradient>
	<path style="fill:url(#SVGID_00000180353463895837815200000013329535279493344657_);" d="M217.8,229.4L158,251.8l22.4,59.8
		l59.8-22.4L217.8,229.4z"/>
	<path class="st6" d="M179.5,313.1l-5.4-14.5l6.1-16.5c0.5-1.3,1.4-2.3,2.6-2.9c1.2-0.6,2.6-0.8,3.9-0.4l12.4,3.3
		c0.2,0.1,0.4,0,0.6,0c0.2-0.1,0.3-0.2,0.4-0.4l9.6-17.4c1.1-2,2.8-3.4,4.9-4.2c2.1-0.8,4.4-0.8,6.5,0l11.8,4.5l9.4,25.1
		L179.5,313.1z M177.3,298.6l4,10.7l57-21.4l-7.9-21l-10.5-4c-1.4-0.5-3-0.5-4.4,0c-1.4,0.5-2.6,1.5-3.3,2.8l-9.6,17.4
		c-0.4,0.8-1.1,1.4-1.9,1.7c-0.8,0.3-1.7,0.4-2.5,0.2l-12.4-3.3c-0.6-0.2-1.2-0.1-1.7,0.2c-0.5,0.3-0.9,0.7-1.1,1.3L177.3,298.6z"/>
	<path class="st6" d="M198,264.9c-1.6,0-3.1-0.4-4.5-1.3c-1.3-0.8-2.4-2-3.2-3.4c-0.7-1.4-1.1-3-1-4.5c0.1-1.6,0.6-3.1,1.5-4.4
		c0.9-1.3,2.1-2.3,3.6-3c1.4-0.6,3-0.9,4.6-0.7c1.6,0.2,3,0.8,4.3,1.8s2.2,2.3,2.7,3.7c0.5,1.3,0.7,2.7,0.5,4.1
		c-0.2,1.4-0.7,2.7-1.5,3.9c-0.8,1.1-1.9,2.1-3.1,2.7C200.8,264.5,199.4,264.9,198,264.9z M198,250.6c-1.2,0-2.4,0.4-3.3,1.1
		c-1,0.7-1.7,1.7-2,2.9c-0.4,1.1-0.3,2.4,0.1,3.5c0.4,1.1,1.1,2.1,2.1,2.8c1,0.7,2.2,1,3.4,1c1.2,0,2.4-0.5,3.3-1.2
		c0.9-0.7,1.6-1.8,2-2.9c0.3-1.2,0.3-2.4-0.2-3.5c-0.4-1.1-1.1-2-2.1-2.6C200.3,251,199.1,250.6,198,250.6z"/>
	<path class="st11" d="M223.9,197.3c-0.2,0-0.5-0.1-0.6-0.3c-0.2-0.2-0.3-0.4-0.3-0.7v-13.9c0-0.9,0.2-1.7,0.8-2.3
		c0.6-0.6,1.4-1,2.2-1.1h18.6c0.3,0,0.5,0.1,0.7,0.3c0.2,0.2,0.3,0.4,0.3,0.7s-0.1,0.5-0.3,0.7c-0.2,0.2-0.4,0.3-0.7,0.3h-18.6
		c-0.4,0-0.7,0.2-0.9,0.4c-0.2,0.3-0.4,0.6-0.3,1v13.9c0,0.2-0.1,0.5-0.3,0.7C224.4,197.1,224.1,197.2,223.9,197.3z"/>
	<path class="st11" d="M306.1,197.3c0.2,0,0.5-0.1,0.6-0.3c0.2-0.2,0.3-0.4,0.3-0.7v-13.9c0-0.9-0.3-1.7-0.8-2.3
		c-0.6-0.6-1.4-1-2.2-1.1h-18.6c-0.3,0-0.5,0.1-0.7,0.3c-0.2,0.2-0.3,0.4-0.3,0.7s0.1,0.5,0.3,0.7c0.2,0.2,0.4,0.3,0.7,0.3h18.6
		c0.4,0,0.7,0.2,0.9,0.4c0.2,0.3,0.4,0.6,0.3,1v13.9c0,0.2,0.1,0.5,0.3,0.7C305.6,197.1,305.8,197.2,306.1,197.3z"/>
	<path class="st11" d="M306.1,246.4c0.2,0,0.5,0.1,0.6,0.3c0.2,0.2,0.3,0.4,0.3,0.7v13.9c0,0.9-0.3,1.7-0.8,2.3
		c-0.6,0.6-1.4,1-2.2,1.1h-18.6c-0.3,0-0.5-0.1-0.7-0.3c-0.2-0.2-0.3-0.4-0.3-0.7c0-0.3,0.1-0.5,0.3-0.7c0.2-0.2,0.4-0.3,0.7-0.3
		h18.6c0.4,0,0.7-0.2,0.9-0.4c0.2-0.3,0.4-0.6,0.3-1v-13.9c0-0.2,0.1-0.5,0.3-0.7C305.6,246.5,305.8,246.4,306.1,246.4z"/>
	<path class="st5" d="M169.8,265.7c-0.1,0-0.1,0-0.2,0c-0.1,0-0.1,0-0.2-0.1c-0.1,0-0.1-0.1-0.2-0.1c0-0.1-0.1-0.1-0.1-0.2l-3-8
		c-0.2-0.5-0.2-1,0-1.5c0.2-0.5,0.6-0.9,1-1.1l10.7-4c0.1,0,0.3,0,0.4,0s0.2,0.2,0.3,0.3c0.1,0.1,0.1,0.3,0,0.4
		c-0.1,0.1-0.2,0.3-0.3,0.3l-10.7,4c-0.1,0-0.2,0.1-0.3,0.2c-0.1,0.1-0.1,0.2-0.2,0.3c0,0.1-0.1,0.2-0.1,0.3c0,0.1,0,0.2,0.1,0.3
		l3,8c0.1,0.1,0.1,0.3,0,0.4C170,265.5,169.9,265.6,169.8,265.7z"/>
	<path class="st5" d="M216.9,248c0.1,0,0.1-0.1,0.2-0.1c0.1-0.1,0.1-0.1,0.1-0.2s0-0.1,0-0.2c0-0.1,0-0.2-0.1-0.2l-3-8
		c-0.2-0.5-0.5-0.9-1-1.2c-0.5-0.2-1-0.3-1.5-0.1l-10.7,4c-0.1,0.1-0.3,0.2-0.3,0.3c-0.1,0.1-0.1,0.3,0,0.4c0.1,0.1,0.2,0.3,0.3,0.3
		s0.3,0.1,0.4,0l10.7-4c0.2-0.1,0.4,0,0.6,0.1c0.2,0.1,0.3,0.3,0.4,0.5l3,8c0,0.1,0.1,0.1,0.1,0.2c0.1,0.1,0.1,0.1,0.2,0.1
		c0.1,0,0.1,0.1,0.2,0.1C216.8,248,216.8,248,216.9,248z"/>
	<path class="st5" d="M180.3,292.2c-0.1,0.1-0.2,0.2-0.3,0.3c-0.1,0.1-0.1,0.3,0,0.4l2.9,7.8c0.2,0.5,0.5,0.9,1,1.1
		c0.5,0.2,1,0.3,1.5,0.1l10.7-4c0.1,0,0.1-0.1,0.2-0.1c0.1-0.1,0.1-0.1,0.1-0.2c0-0.1,0-0.1,0-0.2c0-0.1,0-0.2,0-0.2
		c0-0.1-0.1-0.1-0.1-0.2c-0.1-0.1-0.1-0.1-0.2-0.1c-0.1,0-0.1-0.1-0.2-0.1c-0.1,0-0.2,0-0.2,0l-10.7,4c-0.2,0.1-0.4,0-0.6-0.1
		c-0.2-0.1-0.3-0.3-0.4-0.5l-2.9-7.8c0-0.1-0.1-0.1-0.1-0.2c-0.1-0.1-0.1-0.1-0.2-0.1c-0.1,0-0.1-0.1-0.2-0.1
		C180.5,292.2,180.4,292.2,180.3,292.2z"/>
	<path class="st5" d="M227.4,274.5c0.1,0,0.1,0,0.2,0c0.1,0,0.1,0,0.2,0.1s0.1,0.1,0.2,0.1c0,0.1,0.1,0.1,0.1,0.2l2.9,7.8
		c0.2,0.5,0.2,1,0,1.5c-0.2,0.5-0.5,0.9-1,1.1l-10.7,4c-0.1,0-0.3,0-0.4,0c-0.1-0.1-0.2-0.2-0.3-0.3c0-0.1,0-0.1,0-0.2
		c0-0.1,0-0.2,0-0.2c0-0.1,0.1-0.1,0.1-0.2c0.1-0.1,0.1-0.1,0.2-0.1l10.7-4c0.2-0.1,0.4-0.2,0.4-0.4c0.1-0.2,0.1-0.4,0-0.6l-2.9-7.8
		c0-0.1-0.1-0.1-0.1-0.2s0-0.1,0-0.2c0-0.1,0.1-0.1,0.1-0.2C227.3,274.6,227.4,274.5,227.4,274.5z"/>
</g>
</svg>
