<?xml version="1.0" encoding="utf-8"?>
<!-- Generator: Adobe Illustrator 26.0.0, SVG Export Plug-In . SVG Version: 6.00 Build 0)  -->
<svg version="1.1" id="Layer_1" xmlns="http://www.w3.org/2000/svg" xmlns:xlink="http://www.w3.org/1999/xlink" x="0px" y="0px"
	 viewBox="0 0 546 356" style="enable-background:new 0 0 546 356;" xml:space="preserve">
<style type="text/css">
	.st0{fill:#FFFFFF;}
	.st1{fill:#FFFFFF;stroke:#E6E7E7;stroke-width:2;}
	.st2{fill:#929497;}
	.st3{fill:#106EF9;}
	.st4{fill:#00ADEE;}
	.st5{fill:#808184;}
	.st6{fill:#1DA69A;}
	.st7{fill:#A6A8AB;}
	.st8{fill:#FFFFFF;stroke:#E6E7E7;}
	.st9{fill:#D9D9D9;}
</style>
<path class="st0" d="M485.1,334.1c0,0-1.3,6.5-3.7,8.8c-2.4,2.3-5.5,3.6-9.1,3.6h-414c-7.1,0-12.8-5.5-12.8-12.4
	c0-3.4,0.2-10.6,0.2-10.6v-251c0-6.5,5.5-11.9,12.3-11.9h415.1c6.7,0,12.3,5.4,12.3,11.9v249.2L485.1,334.1z"/>
<path class="st1" d="M464.4,330.5H67.1c-3.7,0-6.6-2.9-6.6-6.6V82.2c0-3.7,2.9-6.6,6.6-6.6h397.2c3.7,0,6.6,2.9,6.6,6.6V324
	C470.9,327.6,468,330.5,464.4,330.5z"/>
<path class="st2" d="M79.3,106.1l3.7,1.4v1.5l-5.3-2.4v-1.2l5.3-2.3v1.6L79.3,106.1z"/>
<path class="st2" d="M85.3,109.3c0-0.1,0-0.2,0.1-0.3c0-0.1,0.1-0.2,0.2-0.3c0.2-0.2,0.4-0.2,0.7-0.2s0.5,0.1,0.7,0.2
	c0.1,0.1,0.1,0.2,0.2,0.3c0,0.1,0.1,0.2,0.1,0.3c0,0.1,0,0.2-0.1,0.3c0,0.1-0.1,0.2-0.2,0.3c-0.2,0.2-0.4,0.2-0.7,0.2
	c-0.2,0-0.5-0.1-0.7-0.2c-0.1-0.1-0.1-0.2-0.2-0.3C85.3,109.5,85.3,109.4,85.3,109.3z M86.8,107.4h-1.3l-0.1-6.5H87L86.8,107.4z"/>
<path class="st3" d="M89.3,110.1v-9.2H92c0.8,0,1.5,0.2,2.2,0.5c0.6,0.4,1.1,0.9,1.5,1.5c0.4,0.7,0.5,1.5,0.5,2.3v0.5
	c0,0.8-0.2,1.6-0.5,2.3c-0.3,0.6-0.9,1.2-1.5,1.5c-0.7,0.4-1.4,0.6-2.2,0.5H89.3z M90.9,102.2v6.6h1c0.4,0,0.7,0,1.1-0.2
	s0.6-0.3,0.9-0.6c0.5-0.6,0.7-1.4,0.7-2.3v-0.5c0.1-0.8-0.2-1.6-0.7-2.3c-0.2-0.3-0.5-0.5-0.9-0.6c-0.3-0.1-0.7-0.2-1-0.2H90.9z"/>
<path class="st3" d="M105.6,105.7c0,0.8-0.1,1.6-0.5,2.4c-0.3,0.6-0.7,1.2-1.3,1.6c-0.6,0.4-1.3,0.6-2,0.6s-1.4-0.2-2-0.6
	c-0.6-0.4-1.1-0.9-1.4-1.6c-0.3-0.7-0.5-1.5-0.5-2.3v-0.5c0-0.8,0.1-1.6,0.5-2.4c0.3-0.6,0.8-1.2,1.4-1.6c0.6-0.4,1.3-0.5,2-0.5
	c0.7,0,1.4,0.2,2,0.5c0.6,0.4,1.1,0.9,1.4,1.6c0.3,0.7,0.5,1.5,0.5,2.4L105.6,105.7z M104,105.2c0.1-0.8-0.2-1.6-0.6-2.3
	c-0.2-0.2-0.4-0.4-0.7-0.6c-0.3-0.1-0.6-0.2-0.9-0.2c-0.3,0-0.6,0.1-0.9,0.2c-0.3,0.1-0.5,0.3-0.7,0.6c-0.4,0.7-0.6,1.5-0.6,2.3v0.5
	c-0.1,0.8,0.2,1.6,0.6,2.3c0.2,0.3,0.4,0.5,0.7,0.6c0.3,0.1,0.6,0.2,0.9,0.2c0.3,0,0.6-0.1,0.9-0.2c0.3-0.1,0.5-0.3,0.7-0.6
	c0.4-0.7,0.6-1.5,0.6-2.4L104,105.2z"/>
<path class="st3" d="M114.7,107.1c0,0.4-0.1,0.9-0.3,1.3c-0.2,0.4-0.5,0.7-0.8,1c-0.7,0.6-1.6,0.9-2.5,0.8c-0.7,0-1.4-0.2-2-0.5
	c-0.6-0.4-1-0.9-1.3-1.5c-0.3-0.7-0.5-1.5-0.5-2.2v-0.9c0-0.8,0.1-1.6,0.5-2.3c0.3-0.6,0.7-1.2,1.3-1.5c0.6-0.4,1.3-0.6,2-0.5
	c0.9,0,1.8,0.2,2.5,0.8c0.7,0.6,1,1.4,1.1,2.3h-1.6c0-0.5-0.2-1-0.6-1.4c-0.4-0.3-0.9-0.5-1.4-0.4c-0.3,0-0.6,0-0.9,0.2
	c-0.3,0.1-0.5,0.3-0.7,0.6c-0.4,0.7-0.6,1.4-0.6,2.2v0.8c-0.1,0.8,0.1,1.6,0.5,2.3c0.2,0.3,0.4,0.5,0.7,0.6c0.3,0.1,0.6,0.2,0.9,0.2
	c0.5,0,1-0.1,1.4-0.4c0.4-0.4,0.6-0.9,0.6-1.4H114.7z"/>
<path class="st3" d="M123.1,102.2h-2.9v7.9h-1.6v-7.9h-2.9v-1.3h7.3V102.2z"/>
<path class="st3" d="M127.9,105.2l2.1-4.4h1.8l-3.1,5.8v3.4h-1.6v-3.4l-3.1-5.8h1.8L127.9,105.2z"/>
<path class="st3" d="M134.9,106.6v3.4h-1.6v-9.2h3.5c0.9,0,1.8,0.2,2.5,0.8c0.3,0.3,0.5,0.6,0.7,1c0.2,0.4,0.2,0.8,0.2,1.2
	c0,0.4,0,0.8-0.2,1.2c-0.2,0.4-0.4,0.7-0.7,1c-0.7,0.5-1.6,0.8-2.5,0.8H134.9z M134.9,105.4h2c0.5,0,0.9-0.1,1.3-0.4
	c0.2-0.2,0.3-0.3,0.4-0.5c0.1-0.2,0.1-0.4,0.1-0.6c0-0.2,0-0.4-0.1-0.6c-0.1-0.2-0.2-0.4-0.4-0.5c-0.2-0.2-0.4-0.3-0.6-0.4
	c-0.2-0.1-0.4-0.1-0.7-0.1h-2L134.9,105.4z"/>
<path class="st3" d="M147.4,106h-3.8v2.8h4.4v1.3h-6v-9.2h6v1.3h-4.4v2.5h3.8L147.4,106z"/>
<path class="st4" d="M164.6,110.1H163V106h-4.1v4.1h-1.6v-9.2h1.6v3.8h4.1v-3.8h1.6L164.6,110.1z"/>
<path class="st4" d="M168.7,101.6v1.7h1.2v1.1h-1.2v3.8c0,0.2,0,0.4,0.2,0.6c0.1,0.1,0.2,0.1,0.3,0.1c0.1,0,0.2,0,0.3,0
	c0.2,0,0.4,0,0.5-0.1v1.2c-0.3,0.1-0.7,0.1-1,0.1c-1.2,0-1.8-0.6-1.8-1.9v-3.9h-1.1v-1.1h1.1v-1.7L168.7,101.6z"/>
<path class="st4" d="M173,103.2l0,0.7c0.2-0.3,0.5-0.5,0.9-0.6c0.3-0.1,0.7-0.2,1.1-0.2c0.4,0,0.8,0,1.1,0.2
	c0.3,0.2,0.6,0.5,0.8,0.8c0.2-0.3,0.5-0.6,0.9-0.8c0.4-0.2,0.8-0.3,1.2-0.3c0.3,0,0.6,0,0.9,0.1c0.3,0.1,0.6,0.3,0.8,0.5
	c0.4,0.5,0.6,1.2,0.6,1.8v4.5h-1.5v-4.4c0-0.3-0.1-0.7-0.3-1c-0.1-0.1-0.3-0.2-0.4-0.2s-0.3-0.1-0.5-0.1c-0.3,0-0.6,0.1-0.9,0.3
	c-0.2,0.2-0.4,0.4-0.5,0.7v4.7h-1.5v-4.5c0-0.2,0-0.3-0.1-0.5c-0.1-0.2-0.1-0.3-0.3-0.4c-0.1-0.1-0.3-0.2-0.4-0.3
	c-0.2-0.1-0.3-0.1-0.5,0c-0.3,0-0.5,0-0.8,0.2c-0.2,0.1-0.4,0.3-0.5,0.6v4.9h-1.5v-6.8H173z"/>
<path class="st4" d="M185,110.1h-1.5v-9.7h1.5V110.1z"/>
<path class="st5" d="M191.1,106l-3.9-1.4v-1.5l5.5,2.3v1.2l-5.5,2.3v-1.5L191.1,106z"/>
<path class="st3" d="M79.3,121.6L83,123v1.5l-5.3-2.4V121l5.3-2.3v1.6L79.3,121.6z"/>
<path class="st3" d="M86.7,119.5c0.2-0.3,0.5-0.5,0.9-0.7c0.3-0.2,0.7-0.2,1.1-0.2c1.5,0,2.2,0.8,2.2,2.5v4.5h-1.5v-4.4
	c0-0.2,0-0.4-0.1-0.5c-0.1-0.2-0.1-0.3-0.3-0.5c-0.3-0.2-0.6-0.3-0.9-0.3c-0.3,0-0.6,0.1-0.8,0.2c-0.2,0.1-0.4,0.4-0.6,0.6v4.9h-1.5
	v-9.7h1.5V119.5z"/>
<path class="st3" d="M94.8,117.1v1.7H96v1.1h-1.2v3.8c0,0.2,0,0.4,0.2,0.6c0.1,0.1,0.2,0.1,0.3,0.1c0.1,0,0.2,0,0.3,0
	c0.2,0,0.4,0,0.5-0.1v1.2c-0.3,0.1-0.7,0.1-1,0.1c-1.2,0-1.8-0.6-1.8-1.9v-3.9h-1.1v-1.1h1.1v-1.7L94.8,117.1z"/>
<path class="st3" d="M99.1,118.7l0,0.7c0.2-0.3,0.5-0.5,0.9-0.6c0.3-0.1,0.7-0.2,1.1-0.2c0.4,0,0.8,0,1.1,0.2
	c0.3,0.2,0.6,0.5,0.8,0.8c0.2-0.3,0.5-0.6,0.9-0.8c0.4-0.2,0.8-0.3,1.2-0.3c0.3,0,0.6,0,0.9,0.1c0.3,0.1,0.6,0.3,0.8,0.5
	c0.4,0.5,0.6,1.2,0.6,1.8v4.5h-1.5v-4.4c0-0.3-0.1-0.7-0.3-1c-0.1-0.1-0.3-0.2-0.4-0.2c-0.2-0.1-0.3-0.1-0.5-0.1
	c-0.3,0-0.6,0.1-0.9,0.3c-0.2,0.2-0.4,0.4-0.5,0.7v4.7h-1.5v-4.5c0-0.2,0-0.3-0.1-0.5c-0.1-0.2-0.1-0.3-0.3-0.4
	c-0.1-0.1-0.3-0.2-0.4-0.3c-0.2-0.1-0.3-0.1-0.5,0c-0.3,0-0.5,0-0.8,0.2c-0.2,0.1-0.4,0.3-0.5,0.6v4.9h-1.5v-6.8H99.1z"/>
<path class="st3" d="M111.1,125.6h-1.5v-9.7h1.5V125.6z"/>
<path class="st3" d="M118.5,125.6H117v-9.7h1.5V125.6z"/>
<path class="st4" d="M124.8,125.6c-0.1-0.2-0.1-0.4-0.2-0.6c-0.5,0.5-1.1,0.7-1.7,0.8c-0.6,0-1.3-0.2-1.8-0.6
	c-0.2-0.2-0.4-0.4-0.5-0.7c-0.1-0.3-0.2-0.5-0.2-0.8c0-0.3,0.1-0.6,0.2-0.9c0.1-0.3,0.4-0.5,0.6-0.7c0.7-0.4,1.5-0.6,2.3-0.6h0.9
	v-0.5c0-0.2,0-0.3-0.1-0.5c-0.1-0.2-0.1-0.3-0.3-0.4c-0.1-0.1-0.3-0.2-0.4-0.2c-0.2-0.1-0.3-0.1-0.5,0c-0.3,0-0.6,0.1-0.9,0.3
	c-0.1,0.1-0.2,0.2-0.2,0.3c-0.1,0.1-0.1,0.2-0.1,0.4h-1.5c0-0.4,0.1-0.7,0.4-1c0.3-0.3,0.6-0.6,1-0.7c0.5-0.2,0.9-0.3,1.4-0.3
	c0.7,0,1.4,0.2,2,0.6c0.2,0.2,0.4,0.5,0.6,0.8c0.1,0.3,0.2,0.6,0.2,0.9v3.1c0,0.5,0.1,1,0.3,1.5v0.1L124.8,125.6z M123.1,124.5
	c0.3,0,0.6-0.1,0.9-0.2c0.3-0.1,0.5-0.3,0.6-0.6v-1.3h-0.8c-0.5,0-0.9,0.1-1.3,0.3c-0.1,0.1-0.3,0.2-0.3,0.4
	c-0.1,0.1-0.1,0.3-0.1,0.5c0,0.1,0,0.3,0.1,0.4s0.1,0.2,0.2,0.3C122.5,124.4,122.8,124.5,123.1,124.5z"/>
<path class="st4" d="M129.6,118.7l0,0.8c0.2-0.3,0.5-0.5,0.9-0.7c0.3-0.2,0.7-0.2,1.1-0.2c1.4,0,2.2,0.8,2.2,2.4v4.5h-1.5v-4.4
	c0-0.3-0.1-0.7-0.3-1c-0.1-0.1-0.3-0.2-0.4-0.3c-0.2-0.1-0.3-0.1-0.5-0.1c-0.3,0-0.6,0.1-0.8,0.2c-0.2,0.1-0.4,0.4-0.6,0.6v4.9h-1.5
	v-6.8H129.6z"/>
<path class="st4" d="M135.6,122.1c0-0.9,0.2-1.8,0.7-2.5c0.2-0.3,0.5-0.6,0.9-0.7c0.3-0.2,0.7-0.2,1.1-0.2c0.4,0,0.7,0,1,0.2
	c0.3,0.1,0.6,0.4,0.8,0.6l0.1-0.7h1.4v6.6c0,0.4,0,0.8-0.2,1.2c-0.1,0.4-0.4,0.7-0.7,1c-0.6,0.5-1.4,0.8-2.3,0.8
	c-0.5,0-1-0.1-1.5-0.3c-0.4-0.2-0.8-0.5-1.1-0.8l0.7-0.9c0.2,0.3,0.5,0.5,0.8,0.6c0.3,0.1,0.6,0.2,1,0.2c0.4,0,0.9-0.1,1.2-0.4
	c0.2-0.2,0.3-0.4,0.4-0.6c0.1-0.2,0.1-0.4,0.1-0.7v-0.5c-0.2,0.2-0.5,0.4-0.8,0.6c-0.3,0.1-0.6,0.2-1,0.2c-0.4,0-0.8-0.1-1.1-0.2
	c-0.3-0.2-0.6-0.4-0.9-0.7C135.8,124,135.5,123,135.6,122.1z M137.1,122.2c0,0.6,0.1,1.1,0.4,1.6c0.1,0.2,0.3,0.3,0.5,0.4
	c0.2,0.1,0.4,0.2,0.7,0.1c0.3,0,0.6-0.1,0.8-0.2c0.2-0.1,0.4-0.3,0.6-0.6v-3c-0.1-0.2-0.3-0.4-0.6-0.6c-0.2-0.1-0.5-0.2-0.8-0.2
	c-0.2,0-0.5,0-0.7,0.1c-0.2,0.1-0.4,0.3-0.5,0.5C137.2,121,137.1,121.6,137.1,122.2L137.1,122.2z"/>
<path class="st2" d="M149.3,120.6h-5.5v-1.3h5.5V120.6z M149.3,123.3h-5.5V122h5.5V123.3z"/>
<path class="st6" d="M152.4,116.7l-0.2,2.4h-0.9v-3.3h1.1L152.4,116.7z M154.3,116.7l-0.2,2.4h-0.9v-3.3h1.1V116.7z"/>
<path class="st6" d="M158.7,125.7c-0.4,0-0.9-0.1-1.3-0.2c-0.4-0.2-0.8-0.4-1.1-0.7c-0.3-0.3-0.5-0.7-0.7-1.1
	c-0.2-0.4-0.2-0.9-0.2-1.3v-0.2c0-0.6,0.1-1.3,0.4-1.8c0.2-0.5,0.6-0.9,1.1-1.3c0.5-0.3,1-0.5,1.6-0.4c0.4,0,0.8,0,1.2,0.2
	c0.4,0.2,0.7,0.4,1,0.7c0.6,0.7,0.8,1.6,0.8,2.5v0.6H157c0,0.5,0.2,1,0.6,1.3c0.2,0.2,0.4,0.3,0.6,0.4c0.2,0.1,0.4,0.1,0.7,0.1
	c0.3,0,0.7-0.1,1-0.2c0.3-0.1,0.6-0.4,0.8-0.6l0.8,0.8c-0.3,0.4-0.7,0.7-1.1,0.9C159.8,125.6,159.3,125.7,158.7,125.7z M158.6,119.8
	c-0.2,0-0.4,0-0.6,0.1c-0.2,0.1-0.3,0.2-0.5,0.3c-0.3,0.4-0.5,0.8-0.5,1.2h2.9v-0.1c0-0.4-0.2-0.8-0.4-1.2c-0.1-0.1-0.3-0.2-0.5-0.3
	S158.8,119.8,158.6,119.8z"/>
<path class="st6" d="M164.6,118.7l0,0.8c0.2-0.3,0.5-0.5,0.9-0.7c0.3-0.2,0.7-0.2,1.1-0.2c1.4,0,2.2,0.8,2.2,2.4v4.5h-1.5v-4.4
	c0-0.3-0.1-0.7-0.3-1c-0.1-0.1-0.3-0.2-0.4-0.3c-0.2-0.1-0.3-0.1-0.5-0.1c-0.3,0-0.6,0.1-0.8,0.2c-0.2,0.1-0.4,0.4-0.6,0.6v4.9h-1.5
	v-6.8H164.6z"/>
<path class="st6" d="M171.3,116.7l-0.2,2.4h-0.9v-3.3h1.1V116.7z M173.2,116.7l-0.2,2.4h-0.9v-3.3h1.1L173.2,116.7z"/>
<path class="st5" d="M179,121.6l-3.9-1.4v-1.5l5.5,2.3v1.2l-5.5,2.3V123L179,121.6z"/>
<path class="st2" d="M79.3,137.1l3.7,1.4v1.5l-5.3-2.4v-1.2l5.3-2.3v1.6L79.3,137.1z"/>
<path class="st3" d="M86.7,135c0.2-0.3,0.5-0.5,0.9-0.7c0.3-0.2,0.7-0.2,1.1-0.2c1.5,0,2.2,0.8,2.2,2.5v4.5h-1.5v-4.4
	c0-0.2,0-0.4-0.1-0.5c-0.1-0.2-0.1-0.3-0.3-0.5c-0.3-0.2-0.6-0.3-0.9-0.3c-0.3,0-0.6,0.1-0.8,0.2c-0.2,0.1-0.4,0.4-0.6,0.6v4.9h-1.5
	v-9.7h1.5V135z"/>
<path class="st3" d="M95.9,141.2c-0.4,0-0.9-0.1-1.3-0.2c-0.4-0.2-0.8-0.4-1.1-0.7c-0.3-0.3-0.6-0.7-0.7-1.1s-0.2-0.9-0.2-1.3v-0.2
	c0-0.6,0.1-1.3,0.4-1.8c0.2-0.5,0.6-0.9,1.1-1.3c0.5-0.3,1-0.5,1.6-0.4c0.4,0,0.8,0,1.2,0.2c0.4,0.2,0.7,0.4,1,0.7
	c0.6,0.7,0.8,1.6,0.8,2.5v0.6h-4.5c0,0.5,0.2,1,0.6,1.3c0.2,0.2,0.4,0.3,0.6,0.4c0.2,0.1,0.4,0.1,0.7,0.1c0.3,0,0.7-0.1,1-0.2
	c0.3-0.1,0.6-0.4,0.8-0.6l0.8,0.8c-0.3,0.4-0.7,0.7-1.1,0.9C97,141.1,96.4,141.2,95.9,141.2z M95.7,135.3c-0.2,0-0.4,0-0.6,0.1
	c-0.2,0.1-0.3,0.2-0.5,0.3c-0.3,0.4-0.5,0.8-0.5,1.2h2.9v-0.1c0-0.4-0.1-0.8-0.4-1.2c-0.1-0.1-0.3-0.2-0.5-0.3
	C96.1,135.4,95.9,135.3,95.7,135.3z"/>
<path class="st3" d="M104.4,141.1c-0.1-0.2-0.2-0.4-0.2-0.6c-0.2,0.2-0.5,0.4-0.8,0.6c-0.3,0.1-0.6,0.2-1,0.2
	c-0.6,0-1.2-0.2-1.7-0.6c-0.2-0.2-0.4-0.4-0.5-0.7c-0.1-0.3-0.2-0.5-0.2-0.8c0-0.3,0-0.6,0.2-0.9c0.1-0.3,0.4-0.5,0.6-0.7
	c0.7-0.4,1.5-0.6,2.3-0.6h0.9v-0.5c0-0.3-0.1-0.6-0.3-0.8c-0.1-0.1-0.3-0.2-0.4-0.3c-0.2-0.1-0.3-0.1-0.5-0.1
	c-0.3,0-0.6,0.1-0.9,0.3c-0.1,0.1-0.2,0.2-0.2,0.3c-0.1,0.1-0.1,0.2-0.1,0.4h-1.5c0-0.4,0.1-0.8,0.4-1c0.3-0.3,0.6-0.6,1-0.8
	c0.5-0.2,0.9-0.3,1.4-0.3c0.7,0,1.4,0.2,1.9,0.6c0.2,0.2,0.4,0.5,0.6,0.8c0.1,0.3,0.2,0.6,0.2,0.9v3.1c0,0.5,0.1,1,0.3,1.5v0.1
	L104.4,141.1z M102.7,140c0.3,0,0.6-0.1,0.9-0.2c0.3-0.1,0.5-0.3,0.6-0.6v-1.3h-0.8c-0.5,0-0.9,0.1-1.3,0.3
	c-0.1,0.1-0.2,0.2-0.3,0.4c-0.1,0.1-0.1,0.3-0.1,0.5c0,0.1,0,0.3,0.1,0.4c0.1,0.1,0.1,0.2,0.2,0.3C102.1,139.9,102.4,140,102.7,140z
	"/>
<path class="st3" d="M107.5,137.6c0-0.9,0.2-1.8,0.7-2.5c0.2-0.3,0.5-0.5,0.9-0.7c0.3-0.2,0.7-0.2,1.1-0.2c0.3,0,0.7,0.1,1,0.2
	c0.3,0.1,0.6,0.3,0.8,0.6v-3.5h1.6v9.7h-1.4l-0.1-0.7c-0.2,0.3-0.5,0.5-0.8,0.6c-0.3,0.1-0.7,0.2-1,0.2c-0.4,0-0.8-0.1-1.1-0.2
	c-0.3-0.2-0.6-0.4-0.9-0.7C107.7,139.5,107.5,138.5,107.5,137.6z M109,137.7c0,0.6,0.1,1.1,0.4,1.6c0.1,0.2,0.3,0.3,0.5,0.4
	c0.2,0.1,0.4,0.2,0.6,0.1c0.3,0,0.6-0.1,0.8-0.2c0.2-0.2,0.4-0.4,0.6-0.6v-2.9c-0.1-0.3-0.3-0.5-0.6-0.6c-0.2-0.1-0.5-0.2-0.8-0.2
	c-0.2,0-0.5,0-0.7,0.1c-0.2,0.1-0.4,0.3-0.5,0.4C109.1,136.5,109,137.1,109,137.7L109,137.7z"/>
<path class="st3" d="M118.6,141.2c-0.4,0-0.9-0.1-1.3-0.2c-0.4-0.2-0.8-0.4-1.1-0.7c-0.3-0.3-0.6-0.7-0.7-1.1
	c-0.2-0.4-0.2-0.9-0.2-1.3v-0.2c0-0.6,0.1-1.3,0.4-1.8c0.2-0.5,0.6-0.9,1.1-1.2c0.5-0.3,1-0.5,1.6-0.5c0.4,0,0.8,0,1.2,0.2
	c0.4,0.2,0.7,0.4,1,0.7c0.5,0.7,0.8,1.6,0.8,2.5v0.6h-4.5c0,0.5,0.2,1,0.6,1.3c0.2,0.2,0.4,0.3,0.6,0.4c0.2,0.1,0.4,0.1,0.7,0.1
	c0.3,0,0.7-0.1,1-0.2c0.3-0.1,0.6-0.4,0.8-0.6l0.8,0.8c-0.3,0.4-0.7,0.7-1.1,0.9C119.7,141.1,119.2,141.2,118.6,141.2z M118.4,135.3
	c-0.2,0-0.4,0-0.6,0.1c-0.2,0.1-0.3,0.2-0.5,0.3c-0.3,0.4-0.5,0.8-0.5,1.2h2.9v-0.1c0-0.4-0.1-0.8-0.4-1.2c-0.1-0.1-0.3-0.2-0.5-0.3
	C118.8,135.4,118.6,135.3,118.4,135.3z"/>
<path class="st3" d="M126.6,135.7c-0.2,0-0.4,0-0.7,0c-0.3,0-0.6,0-0.8,0.2c-0.3,0.1-0.5,0.4-0.6,0.6v4.7H123v-6.9h1.5l0,0.8
	c0.2-0.3,0.4-0.5,0.7-0.7c0.3-0.2,0.6-0.2,0.9-0.2c0.2,0,0.4,0,0.5,0.1L126.6,135.7z"/>
<path class="st2" d="M132,137.1l-3.9-1.4v-1.5l5.5,2.3v1.2l-5.5,2.3v-1.5L132,137.1z"/>
<path class="st2" d="M94.1,152.6l3.8,1.4v1.5l-5.3-2.4V152l5.3-2.3v1.6L94.1,152.6z"/>
<path class="st3" d="M101.4,149.8l0,0.7c0.2-0.3,0.5-0.5,0.9-0.6c0.3-0.1,0.7-0.2,1.1-0.2c0.4,0,0.8,0,1.1,0.2
	c0.3,0.2,0.6,0.5,0.8,0.8c0.2-0.3,0.5-0.6,0.9-0.8c0.4-0.2,0.8-0.3,1.2-0.3c0.3,0,0.6,0,0.9,0.1c0.3,0.1,0.6,0.3,0.8,0.5
	c0.4,0.5,0.6,1.2,0.6,1.8v4.5h-1.5v-4.4c0-0.3-0.1-0.7-0.3-1c-0.1-0.1-0.3-0.2-0.4-0.2c-0.2-0.1-0.3-0.1-0.5-0.1
	c-0.3,0-0.6,0.1-0.9,0.3c-0.2,0.2-0.4,0.4-0.5,0.7v4.7H104v-4.5c0-0.2,0-0.3-0.1-0.5c-0.1-0.2-0.1-0.3-0.3-0.4
	c-0.1-0.1-0.3-0.2-0.4-0.3c-0.2-0.1-0.3-0.1-0.5-0.1c-0.3,0-0.5,0-0.8,0.2c-0.2,0.1-0.4,0.3-0.5,0.6v4.9h-1.5v-6.8H101.4z"/>
<path class="st3" d="M114.8,156.7c-0.4,0-0.9-0.1-1.3-0.2c-0.4-0.2-0.8-0.4-1.1-0.7c-0.3-0.3-0.6-0.7-0.7-1.1
	c-0.2-0.4-0.2-0.9-0.2-1.3v-0.2c0-0.6,0.1-1.3,0.4-1.8c0.2-0.5,0.6-0.9,1.1-1.2c0.5-0.3,1-0.5,1.6-0.5c0.4,0,0.8,0,1.2,0.2
	c0.4,0.2,0.7,0.4,1,0.7c0.5,0.7,0.8,1.6,0.8,2.5v0.6H113c0,0.5,0.2,1,0.6,1.3c0.2,0.2,0.4,0.3,0.6,0.4c0.2,0.1,0.4,0.1,0.7,0.1
	c0.3,0,0.7-0.1,1-0.2c0.3-0.1,0.6-0.4,0.8-0.6l0.8,0.8c-0.3,0.4-0.7,0.7-1.1,0.9C115.8,156.6,115.3,156.7,114.8,156.7z M114.6,150.9
	c-0.2,0-0.4,0-0.6,0.1c-0.2,0.1-0.3,0.2-0.5,0.3c-0.3,0.4-0.5,0.8-0.5,1.2h2.9v-0.1c0-0.4-0.1-0.8-0.4-1.2c-0.1-0.1-0.3-0.2-0.5-0.3
	C115,150.9,114.8,150.9,114.6,150.9z"/>
<path class="st3" d="M121.1,148.1v1.7h1.2v1.1h-1.2v3.8c0,0.2,0,0.4,0.2,0.6c0.1,0.1,0.2,0.1,0.3,0.1c0.1,0,0.2,0,0.3,0
	c0.2,0,0.4,0,0.5-0.1v1.2c-0.3,0.1-0.7,0.1-1,0.1c-1.2,0-1.8-0.6-1.8-1.9v-3.9h-1.1v-1.1h1.1v-1.7L121.1,148.1z"/>
<path class="st3" d="M128.1,156.6c-0.1-0.2-0.2-0.4-0.2-0.6c-0.5,0.5-1.1,0.7-1.7,0.8c-0.6,0-1.3-0.2-1.8-0.6
	c-0.2-0.2-0.4-0.4-0.5-0.7c-0.1-0.3-0.2-0.5-0.2-0.8c0-0.3,0-0.6,0.2-0.9c0.1-0.3,0.4-0.5,0.6-0.7c0.7-0.4,1.5-0.6,2.3-0.6h1v-0.5
	c0-0.3-0.1-0.6-0.3-0.8c-0.1-0.1-0.3-0.2-0.4-0.3c-0.2-0.1-0.3-0.1-0.5-0.1c-0.3,0-0.6,0.1-0.9,0.3c-0.1,0.1-0.2,0.2-0.2,0.3
	c-0.1,0.1-0.1,0.2-0.1,0.4h-1.5c0-0.4,0.1-0.8,0.4-1c0.3-0.3,0.6-0.6,1-0.7c0.5-0.2,0.9-0.3,1.4-0.3c0.7,0,1.4,0.2,2,0.6
	c0.2,0.2,0.4,0.5,0.6,0.8c0.1,0.3,0.2,0.6,0.2,0.9v3.1c0,0.5,0.1,1,0.3,1.5v0.1L128.1,156.6z M126.4,155.5c0.3,0,0.6-0.1,0.9-0.2
	c0.3-0.1,0.5-0.3,0.6-0.6v-1.3H127c-0.5,0-0.9,0.1-1.3,0.3c-0.1,0.1-0.2,0.2-0.3,0.4c-0.1,0.1-0.1,0.3-0.1,0.5c0,0.1,0,0.3,0.1,0.4
	c0.1,0.1,0.1,0.2,0.2,0.3C125.8,155.4,126.1,155.5,126.4,155.5z"/>
<path class="st4" d="M138,155.5c0.4,0,0.7-0.1,1-0.3c0.1-0.1,0.2-0.2,0.3-0.4c0.1-0.1,0.1-0.3,0.1-0.5h1.5c0,0.4-0.2,0.8-0.4,1.2
	c-0.3,0.4-0.6,0.7-1,0.9c-0.4,0.2-0.9,0.3-1.4,0.3c-0.4,0-0.9-0.1-1.2-0.2c-0.4-0.2-0.7-0.4-1-0.7c-0.6-0.7-0.9-1.6-0.8-2.6V153
	c-0.1-0.9,0.2-1.8,0.8-2.5c0.3-0.3,0.6-0.6,1-0.7c0.4-0.2,0.8-0.2,1.2-0.2c0.7,0,1.5,0.2,2,0.7c0.3,0.2,0.5,0.5,0.6,0.8
	c0.1,0.3,0.2,0.7,0.2,1h-1.5c0-0.4-0.1-0.7-0.4-1c-0.1-0.1-0.3-0.2-0.4-0.3c-0.2-0.1-0.3-0.1-0.5-0.1c-0.2,0-0.4,0-0.6,0.1
	c-0.2,0.1-0.4,0.2-0.5,0.4c-0.3,0.5-0.5,1.1-0.4,1.6v0.3c0,0.6,0.1,1.2,0.4,1.7c0.1,0.2,0.3,0.3,0.5,0.4
	C137.5,155.4,137.7,155.5,138,155.5z"/>
<path class="st4" d="M143.9,150.5c0.2-0.3,0.5-0.5,0.9-0.7c0.3-0.2,0.7-0.2,1.1-0.2c1.5,0,2.2,0.8,2.2,2.5v4.5h-1.5v-4.4
	c0-0.2,0-0.4-0.1-0.5c-0.1-0.2-0.1-0.3-0.3-0.5c-0.3-0.2-0.6-0.3-0.9-0.3c-0.3,0-0.6,0.1-0.8,0.2s-0.4,0.4-0.6,0.6v4.9h-1.5v-9.7
	h1.5V150.5z"/>
<path class="st4" d="M154.2,156.6c-0.1-0.2-0.2-0.4-0.2-0.6c-0.2,0.2-0.5,0.4-0.8,0.6c-0.3,0.1-0.6,0.2-1,0.2
	c-0.6,0-1.2-0.2-1.7-0.6c-0.2-0.2-0.4-0.4-0.5-0.7c-0.1-0.3-0.2-0.5-0.2-0.8c0-0.3,0.1-0.6,0.2-0.9c0.1-0.3,0.4-0.5,0.6-0.7
	c0.7-0.4,1.5-0.6,2.3-0.6h0.9v-0.5c0-0.2,0-0.3-0.1-0.5c-0.1-0.2-0.1-0.3-0.3-0.4c-0.1-0.1-0.3-0.2-0.4-0.2c-0.2-0.1-0.3-0.1-0.5,0
	c-0.3,0-0.6,0.1-0.9,0.3c-0.1,0.1-0.2,0.2-0.2,0.3c-0.1,0.1-0.1,0.2-0.1,0.4H150c0-0.4,0.1-0.8,0.4-1c0.3-0.3,0.6-0.6,1-0.8
	c0.5-0.2,0.9-0.3,1.4-0.3c0.7,0,1.4,0.2,2,0.6c0.2,0.2,0.4,0.5,0.6,0.8c0.1,0.3,0.2,0.6,0.2,0.9v3.1c0,0.5,0.1,1,0.3,1.5v0.1
	L154.2,156.6z M152.5,155.5c0.3,0,0.6-0.1,0.9-0.2c0.3-0.1,0.5-0.3,0.6-0.6v-1.3h-0.8c-0.5,0-0.9,0.1-1.3,0.3
	c-0.1,0.1-0.3,0.2-0.3,0.4c-0.1,0.1-0.1,0.3-0.1,0.5c0,0.1,0,0.3,0.1,0.4c0.1,0.1,0.1,0.2,0.2,0.3
	C151.9,155.4,152.2,155.5,152.5,155.5z"/>
<path class="st4" d="M161.2,151.2c-0.2,0-0.4,0-0.7,0c-0.3,0-0.6,0-0.8,0.2c-0.3,0.1-0.5,0.4-0.6,0.6v4.7h-1.5v-6.9h1.5l0.1,0.8
	c0.2-0.3,0.4-0.5,0.6-0.7c0.3-0.2,0.6-0.2,0.9-0.2c0.2,0,0.4,0,0.5,0.1L161.2,151.2z"/>
<path class="st4" d="M166.5,154.7c0-0.1,0-0.3-0.1-0.4c-0.1-0.1-0.1-0.2-0.3-0.3c-0.4-0.2-0.7-0.3-1.1-0.4c-0.4-0.1-0.9-0.2-1.3-0.4
	c-0.3-0.1-0.6-0.3-0.8-0.6c-0.2-0.3-0.3-0.6-0.3-1c0-0.3,0.1-0.6,0.2-0.8c0.1-0.3,0.3-0.5,0.6-0.6c0.5-0.4,1.2-0.6,1.9-0.6
	c0.7,0,1.4,0.2,2,0.6c0.2,0.2,0.4,0.4,0.6,0.7c0.1,0.3,0.2,0.6,0.2,0.9h-1.5c0-0.1,0-0.3-0.1-0.4s-0.1-0.2-0.2-0.3
	c-0.2-0.2-0.6-0.3-0.9-0.3c-0.3,0-0.6,0.1-0.8,0.2c-0.1,0.1-0.2,0.2-0.2,0.3c-0.1,0.1-0.1,0.2-0.1,0.4c0,0.1,0,0.2,0.1,0.3
	c0.1,0.1,0.1,0.2,0.2,0.2c0.4,0.2,0.8,0.3,1.2,0.4c0.5,0.1,1,0.3,1.4,0.5c0.3,0.1,0.6,0.4,0.8,0.6c0.2,0.3,0.3,0.6,0.2,0.9
	c0,0.3-0.1,0.6-0.2,0.8c-0.1,0.3-0.3,0.5-0.6,0.7c-0.6,0.4-1.3,0.6-2,0.6c-0.5,0-1-0.1-1.5-0.3c-0.4-0.2-0.8-0.5-1-0.8
	c-0.2-0.3-0.4-0.7-0.4-1.1h1.5c0,0.2,0,0.3,0.1,0.5c0.1,0.1,0.2,0.3,0.3,0.4c0.3,0.2,0.7,0.3,1,0.3c0.3,0,0.6-0.1,0.9-0.2
	c0.1-0.1,0.2-0.2,0.2-0.3C166.4,155,166.5,154.8,166.5,154.7z"/>
<path class="st4" d="M172.8,156.7c-0.4,0-0.9-0.1-1.3-0.2c-0.4-0.2-0.8-0.4-1.1-0.7c-0.3-0.3-0.6-0.7-0.7-1.1
	c-0.2-0.4-0.2-0.9-0.2-1.3v-0.2c0-0.6,0.1-1.3,0.4-1.8c0.2-0.5,0.6-0.9,1.1-1.3c0.5-0.3,1-0.5,1.6-0.4c0.4,0,0.8,0,1.2,0.2
	c0.4,0.2,0.7,0.4,1,0.7c0.5,0.7,0.8,1.6,0.8,2.5v0.6h-4.5c0,0.5,0.2,1,0.6,1.3c0.2,0.2,0.4,0.3,0.6,0.4c0.2,0.1,0.4,0.1,0.7,0.1
	c0.3,0,0.7-0.1,1-0.2c0.3-0.1,0.6-0.4,0.8-0.6l0.8,0.8c-0.3,0.4-0.7,0.7-1.1,0.9C173.9,156.6,173.3,156.7,172.8,156.7z M172.6,150.9
	c-0.2,0-0.4,0-0.6,0.1c-0.2,0.1-0.3,0.2-0.5,0.3c-0.3,0.4-0.5,0.8-0.5,1.2h3v-0.1c0-0.4-0.1-0.8-0.4-1.2c-0.1-0.1-0.3-0.2-0.5-0.3
	C173,150.9,172.8,150.8,172.6,150.9z"/>
<path class="st4" d="M179.2,148.1v1.7h1.2v1.1h-1.2v3.8c0,0.2,0,0.4,0.2,0.6c0.1,0.1,0.2,0.1,0.3,0.1c0.1,0,0.2,0,0.3,0
	c0.2,0,0.4,0,0.5-0.1v1.2c-0.3,0.1-0.7,0.1-1,0.1c-1.2,0-1.8-0.6-1.8-1.9v-3.9h-1.1v-1.1h1.1v-1.7L179.2,148.1z"/>
<path class="st2" d="M187.6,151.7h-5.5v-1.3h5.5V151.7z M187.6,154.3h-5.5V153h5.5V154.3z"/>
<path class="st6" d="M190.7,147.8l-0.2,2.4h-0.9v-3.3h1.1V147.8z M192.6,147.8l-0.2,2.4h-0.9v-3.3h1.1V147.8z"/>
<path class="st6" d="M198.6,155.9c-0.2,0.3-0.5,0.5-0.9,0.6c-0.3,0.1-0.7,0.2-1.1,0.2c-0.3,0-0.6,0-0.9-0.1
	c-0.3-0.1-0.6-0.3-0.8-0.5c-0.4-0.5-0.6-1.2-0.6-1.9v-4.4h1.5v4.4c0,0.9,0.4,1.3,1.1,1.3c0.3,0,0.6,0,0.9-0.2
	c0.3-0.1,0.5-0.4,0.6-0.6v-4.9h1.6v6.8h-1.5L198.6,155.9z"/>
<path class="st6" d="M204,148.1v1.7h1.2v1.1H204v3.8c0,0.2,0,0.4,0.1,0.6c0.1,0.1,0.2,0.1,0.3,0.1c0.1,0,0.2,0,0.3,0
	c0.2,0,0.4,0,0.5-0.1v1.2c-0.3,0.1-0.7,0.1-1,0.1c-1.2,0-1.8-0.6-1.8-1.9v-3.9h-1.1v-1.1h1.1v-1.7L204,148.1z"/>
<path class="st6" d="M207.4,156.6v-5.7h-1v-1.1h1v-0.6c0-0.3,0-0.6,0.1-0.9s0.3-0.6,0.5-0.8c0.5-0.4,1.1-0.7,1.8-0.6
	c0.3,0,0.6,0,0.9,0.1l0,1.2c-0.2,0-0.4-0.1-0.6-0.1c-0.2,0-0.3,0-0.5,0c-0.1,0.1-0.3,0.1-0.4,0.2c-0.1,0.1-0.2,0.2-0.2,0.4
	c0,0.1-0.1,0.3,0,0.5v0.6h1.4v1.1H209v5.7L207.4,156.6z"/>
<path class="st6" d="M214.9,153.3h-3.3v-1.2h3.3V153.3z"/>
<path class="st6" d="M222.4,149.8c0,0.4-0.1,0.8-0.4,1.2c-0.2,0.4-0.6,0.6-0.9,0.8c0.4,0.2,0.8,0.5,1.1,0.9c0.3,0.4,0.4,0.8,0.4,1.3
	c0,0.4,0,0.7-0.2,1.1c-0.1,0.3-0.4,0.6-0.6,0.9c-0.6,0.5-1.4,0.7-2.2,0.7c-0.8,0-1.6-0.2-2.2-0.7c-0.3-0.2-0.5-0.5-0.6-0.9
	c-0.1-0.3-0.2-0.7-0.2-1.1c0-0.5,0.1-0.9,0.4-1.3c0.3-0.4,0.7-0.7,1.1-0.9c-0.4-0.2-0.7-0.5-0.9-0.8c-0.2-0.4-0.4-0.8-0.3-1.2
	c0-0.3,0-0.7,0.2-1c0.1-0.3,0.3-0.6,0.6-0.8c0.6-0.4,1.3-0.7,2.1-0.7c0.7,0,1.5,0.2,2.1,0.7c0.3,0.2,0.5,0.5,0.6,0.8
	C222.3,149.1,222.4,149.5,222.4,149.8z M221.1,154c0-0.2,0-0.4-0.1-0.6c-0.1-0.2-0.2-0.4-0.3-0.5c-0.1-0.1-0.3-0.2-0.5-0.3
	c-0.2-0.1-0.4-0.1-0.6-0.1c-0.2,0-0.4,0-0.6,0.1c-0.2,0.1-0.4,0.2-0.5,0.3c-0.1,0.1-0.2,0.3-0.3,0.5c-0.1,0.2-0.1,0.4-0.1,0.6
	c0,0.2,0,0.4,0.1,0.6c0.1,0.2,0.2,0.4,0.3,0.5c0.1,0.1,0.3,0.3,0.5,0.3c0.2,0.1,0.4,0.1,0.6,0.1c0.2,0,0.4,0,0.6-0.1
	c0.2-0.1,0.4-0.2,0.5-0.3c0.1-0.1,0.2-0.3,0.3-0.5C221.1,154.4,221.1,154.2,221.1,154L221.1,154z M220.9,149.9c0-0.4-0.1-0.7-0.4-1
	c-0.3-0.2-0.6-0.4-0.9-0.4c-0.3,0-0.7,0.1-0.9,0.4c-0.2,0.3-0.3,0.6-0.3,1c0,0.4,0.1,0.7,0.3,1c0.1,0.1,0.3,0.2,0.4,0.3
	c0.2,0.1,0.3,0.1,0.5,0.1c0.2,0,0.3,0,0.5-0.1c0.2-0.1,0.3-0.2,0.4-0.3c0.1-0.1,0.2-0.3,0.3-0.5
	C220.9,150.3,220.9,150.1,220.9,149.9z"/>
<path class="st6" d="M225.4,147.8l-0.2,2.4h-0.9v-3.3h1.1V147.8z M227.4,147.8l-0.2,2.4h-0.9v-3.3h1.1L227.4,147.8z"/>
<path class="st2" d="M233.3,157.4h-1.2l3.6-10h1.2L233.3,157.4z"/>
<path class="st2" d="M242.4,152.6l-3.9-1.4v-1.5l5.5,2.3v1.2l-5.5,2.3V154L242.4,152.6z"/>
<path class="st2" d="M94.1,168.1l3.8,1.4v1.5l-5.3-2.4v-1.2l5.3-2.3v1.6L94.1,168.1z"/>
<path class="st3" d="M101.4,165.3l0,0.7c0.2-0.3,0.5-0.5,0.9-0.6c0.3-0.1,0.7-0.2,1.1-0.2c0.4,0,0.8,0,1.1,0.2
	c0.3,0.2,0.6,0.5,0.8,0.8c0.2-0.3,0.5-0.6,0.9-0.8c0.4-0.2,0.8-0.3,1.2-0.3c0.3,0,0.6,0,0.9,0.1c0.3,0.1,0.6,0.3,0.8,0.5
	c0.4,0.5,0.6,1.2,0.6,1.8v4.5h-1.5v-4.4c0-0.3-0.1-0.7-0.3-1c-0.1-0.1-0.3-0.2-0.4-0.2c-0.2-0.1-0.3-0.1-0.5-0.1
	c-0.3,0-0.6,0.1-0.9,0.3c-0.2,0.2-0.4,0.5-0.5,0.7v4.7H104v-4.5c0-0.2,0-0.3-0.1-0.5s-0.1-0.3-0.3-0.4c-0.1-0.1-0.3-0.2-0.4-0.3
	c-0.2-0.1-0.3-0.1-0.5-0.1c-0.3,0-0.5,0-0.8,0.2c-0.2,0.1-0.4,0.3-0.5,0.6v4.9h-1.5v-6.8H101.4z"/>
<path class="st3" d="M114.8,172.2c-0.4,0-0.9-0.1-1.3-0.2c-0.4-0.2-0.8-0.4-1.1-0.7c-0.3-0.3-0.6-0.7-0.7-1.1
	c-0.2-0.4-0.2-0.9-0.2-1.3v-0.2c0-0.6,0.1-1.3,0.4-1.8c0.2-0.5,0.6-0.9,1.1-1.2c0.5-0.3,1-0.5,1.6-0.5c0.4,0,0.8,0,1.2,0.2
	c0.4,0.2,0.7,0.4,1,0.7c0.5,0.7,0.8,1.6,0.8,2.5v0.6H113c0,0.5,0.2,1,0.6,1.3c0.2,0.2,0.4,0.3,0.6,0.4c0.2,0.1,0.4,0.1,0.7,0.1
	c0.3,0,0.7-0.1,1-0.2c0.3-0.1,0.6-0.4,0.8-0.6l0.8,0.8c-0.3,0.4-0.7,0.7-1.1,1C115.8,172.1,115.3,172.2,114.8,172.2z M114.6,166.4
	c-0.2,0-0.4,0-0.6,0.1c-0.2,0.1-0.3,0.2-0.5,0.3c-0.3,0.4-0.5,0.8-0.5,1.2h2.9v-0.1c0-0.4-0.1-0.8-0.4-1.2c-0.1-0.1-0.3-0.2-0.5-0.3
	C115,166.4,114.8,166.4,114.6,166.4z"/>
<path class="st3" d="M121.1,163.6v1.7h1.2v1.1h-1.2v3.8c0,0.2,0,0.4,0.2,0.6c0.1,0.1,0.2,0.1,0.3,0.1c0.1,0,0.2,0,0.3,0
	c0.2,0,0.4,0,0.5-0.1v1.2c-0.3,0.1-0.7,0.1-1,0.1c-1.2,0-1.8-0.6-1.8-1.9v-3.9h-1.1v-1.1h1.1v-1.7L121.1,163.6z"/>
<path class="st3" d="M128.1,172.1c-0.1-0.2-0.2-0.4-0.2-0.6c-0.5,0.5-1.1,0.7-1.7,0.8c-0.6,0-1.3-0.2-1.8-0.6
	c-0.2-0.2-0.4-0.4-0.5-0.7c-0.1-0.3-0.2-0.5-0.2-0.8c0-0.3,0-0.6,0.2-0.9c0.1-0.3,0.4-0.5,0.6-0.7c0.7-0.4,1.5-0.6,2.3-0.6h1v-0.5
	c0-0.3-0.1-0.6-0.3-0.8c-0.1-0.1-0.3-0.2-0.4-0.3c-0.2-0.1-0.3-0.1-0.5-0.1c-0.3,0-0.6,0.1-0.9,0.3c-0.1,0.1-0.2,0.2-0.2,0.3
	c-0.1,0.1-0.1,0.2-0.1,0.4h-1.5c0-0.4,0.1-0.8,0.4-1c0.3-0.3,0.6-0.6,1-0.7c0.5-0.2,0.9-0.3,1.4-0.3c0.7,0,1.4,0.2,2,0.6
	c0.2,0.2,0.4,0.5,0.6,0.8c0.1,0.3,0.2,0.6,0.2,0.9v3.1c0,0.5,0.1,1,0.3,1.5v0.1L128.1,172.1z M126.4,171c0.3,0,0.6-0.1,0.9-0.2
	c0.3-0.1,0.5-0.3,0.6-0.6v-1.3H127c-0.5,0-0.9,0.1-1.3,0.3c-0.1,0.1-0.2,0.2-0.3,0.4c-0.1,0.1-0.1,0.3-0.1,0.5c0,0.1,0,0.3,0.1,0.4
	c0.1,0.1,0.1,0.2,0.2,0.3C125.8,170.9,126.1,171,126.4,171z"/>
<path class="st4" d="M136.6,165.3l0,0.8c0.2-0.3,0.5-0.5,0.9-0.7c0.3-0.2,0.7-0.2,1.1-0.2c1.4,0,2.2,0.8,2.2,2.4v4.5h-1.5v-4.4
	c0-0.3-0.1-0.7-0.3-1c-0.1-0.1-0.3-0.2-0.4-0.3c-0.2-0.1-0.3-0.1-0.5-0.1c-0.3,0-0.6,0.1-0.8,0.2c-0.2,0.1-0.4,0.4-0.6,0.6v4.9h-1.5
	v-6.8H136.6z"/>
<path class="st4" d="M146.9,172.1c-0.1-0.2-0.1-0.4-0.2-0.6c-0.2,0.2-0.5,0.4-0.8,0.6c-0.3,0.1-0.6,0.2-1,0.2
	c-0.6,0-1.2-0.2-1.7-0.6c-0.2-0.2-0.4-0.4-0.5-0.7c-0.1-0.3-0.2-0.5-0.2-0.8c0-0.3,0.1-0.6,0.2-0.9c0.1-0.3,0.4-0.5,0.6-0.7
	c0.7-0.4,1.5-0.6,2.3-0.6h1v-0.5c0-0.2,0-0.3-0.1-0.5c-0.1-0.2-0.1-0.3-0.3-0.4c-0.1-0.1-0.3-0.2-0.4-0.2c-0.2-0.1-0.3-0.1-0.5,0
	c-0.3,0-0.6,0.1-0.9,0.3c-0.1,0.1-0.2,0.2-0.2,0.3c-0.1,0.1-0.1,0.2-0.1,0.4h-1.6c0-0.4,0.1-0.7,0.4-1c0.3-0.3,0.6-0.6,1-0.7
	c0.5-0.2,0.9-0.3,1.4-0.3c0.7,0,1.4,0.2,2,0.6c0.2,0.2,0.4,0.5,0.6,0.8c0.1,0.3,0.2,0.6,0.2,0.9v3.1c0,0.5,0.1,1,0.3,1.5v0.1
	L146.9,172.1z M145.2,171c0.3,0,0.6-0.1,0.9-0.2c0.3-0.1,0.5-0.3,0.6-0.6v-1.3h-0.8c-0.5,0-0.9,0.1-1.3,0.3
	c-0.1,0.1-0.3,0.2-0.3,0.4c-0.1,0.1-0.1,0.3-0.1,0.5c0,0.1,0,0.3,0.1,0.4c0.1,0.1,0.1,0.2,0.2,0.3C144.7,170.9,145,171,145.2,171z"
	/>
<path class="st4" d="M151.8,165.3l0,0.7c0.2-0.3,0.5-0.5,0.9-0.6c0.3-0.1,0.7-0.2,1.1-0.2c0.4,0,0.8,0,1.1,0.2
	c0.3,0.2,0.6,0.5,0.8,0.8c0.2-0.3,0.6-0.6,0.9-0.8c0.4-0.2,0.8-0.3,1.2-0.3c0.3,0,0.6,0,0.9,0.1c0.3,0.1,0.6,0.3,0.8,0.5
	c0.4,0.5,0.6,1.2,0.6,1.8v4.5h-1.5v-4.4c0-0.3-0.1-0.7-0.3-1c-0.1-0.1-0.3-0.2-0.4-0.2c-0.2-0.1-0.3-0.1-0.5-0.1
	c-0.3,0-0.6,0.1-0.9,0.3c-0.2,0.2-0.4,0.5-0.5,0.7v4.7h-1.5v-4.5c0-0.2,0-0.3-0.1-0.5c-0.1-0.2-0.1-0.3-0.3-0.4
	c-0.1-0.1-0.3-0.2-0.4-0.3c-0.2-0.1-0.3-0.1-0.5-0.1c-0.3,0-0.5,0-0.8,0.2c-0.2,0.1-0.4,0.3-0.5,0.6v4.9h-1.5v-6.8H151.8z"/>
<path class="st4" d="M165.1,172.2c-0.4,0-0.9-0.1-1.3-0.2c-0.4-0.2-0.8-0.4-1.1-0.7c-0.3-0.3-0.6-0.7-0.7-1.1
	c-0.2-0.4-0.2-0.9-0.2-1.3v-0.2c0-0.6,0.1-1.3,0.4-1.8c0.2-0.5,0.6-0.9,1.1-1.3c0.5-0.3,1-0.5,1.6-0.4c0.4,0,0.8,0,1.2,0.2
	c0.4,0.2,0.7,0.4,1,0.7c0.6,0.7,0.8,1.6,0.8,2.5v0.6h-4.5c0,0.5,0.2,1,0.6,1.3c0.2,0.2,0.4,0.3,0.6,0.4c0.2,0.1,0.4,0.1,0.7,0.1
	c0.3,0,0.7-0.1,1-0.2c0.3-0.1,0.6-0.4,0.8-0.6l0.8,0.8c-0.3,0.4-0.7,0.7-1.1,1C166.2,172.1,165.7,172.2,165.1,172.2z M164.9,166.4
	c-0.2,0-0.4,0-0.6,0.1c-0.2,0.1-0.3,0.2-0.5,0.3c-0.3,0.4-0.5,0.8-0.5,1.2h2.9v-0.1c0-0.4-0.1-0.8-0.4-1.2c-0.1-0.1-0.3-0.2-0.5-0.3
	C165.3,166.4,165.1,166.4,164.9,166.4z"/>
<path class="st2" d="M175.1,167.2h-5.5v-1.3h5.5V167.2z M175.1,169.8h-5.5v-1.3h5.5V169.8z"/>
<path class="st6" d="M178.2,163.3l-0.2,2.4h-0.9v-3.3h1.1V163.3z M180.1,163.3l-0.2,2.4H179v-3.3h1.1V163.3z"/>
<path class="st6" d="M184.4,170.1l1.5-4.9h1.6l-2.4,6.8h-1.3l-2.4-6.8h1.6L184.4,170.1z"/>
<path class="st6" d="M188.9,163.5c0-0.2,0.1-0.4,0.2-0.6c0.1-0.1,0.2-0.1,0.3-0.2c0.1,0,0.2-0.1,0.4,0c0.1,0,0.2,0,0.3,0
	c0.1,0,0.2,0.1,0.3,0.2c0.2,0.2,0.2,0.4,0.2,0.6c0,0.1,0,0.2-0.1,0.3c0,0.1-0.1,0.2-0.2,0.3c-0.1,0.1-0.2,0.1-0.3,0.2
	c-0.1,0-0.2,0.1-0.3,0c-0.1,0-0.2,0-0.3,0c-0.1,0-0.2-0.1-0.3-0.2c-0.1-0.1-0.1-0.2-0.2-0.3C188.9,163.7,188.8,163.6,188.9,163.5z
	 M190.5,172.1h-1.5v-6.8h1.5V172.1z"/>
<path class="st6" d="M195.6,172.2c-0.4,0-0.9-0.1-1.3-0.2c-0.4-0.2-0.8-0.4-1.1-0.7c-0.3-0.3-0.5-0.7-0.7-1.1
	c-0.2-0.4-0.2-0.9-0.2-1.3v-0.2c0-0.6,0.1-1.3,0.4-1.8c0.2-0.5,0.6-0.9,1.1-1.3c0.5-0.3,1-0.5,1.6-0.4c0.4,0,0.8,0,1.2,0.2
	c0.4,0.2,0.7,0.4,1,0.7c0.6,0.7,0.8,1.6,0.8,2.5v0.6h-4.5c0,0.5,0.2,1,0.6,1.3c0.2,0.2,0.4,0.3,0.6,0.4c0.2,0.1,0.4,0.1,0.7,0.1
	c0.3,0,0.7-0.1,1-0.2s0.6-0.4,0.8-0.6l0.8,0.8c-0.3,0.4-0.7,0.7-1.1,1C196.7,172.1,196.2,172.2,195.6,172.2z M195.5,166.4
	c-0.2,0-0.4,0-0.6,0.1c-0.2,0.1-0.3,0.2-0.5,0.3c-0.3,0.4-0.5,0.8-0.5,1.2h2.9v-0.1c0-0.4-0.1-0.8-0.4-1.2c-0.1-0.1-0.3-0.2-0.5-0.3
	C195.8,166.4,195.7,166.4,195.5,166.4z"/>
<path class="st6" d="M206.1,170l1.1-4.7h1.5l-1.9,6.8h-1.3l-1.5-4.7l-1.4,4.7h-1.2l-1.9-6.8h1.5l1.1,4.7l1.4-4.7h1.2L206.1,170z"/>
<path class="st6" d="M216.2,168.7c0,0.9-0.2,1.8-0.7,2.5c-0.2,0.3-0.5,0.5-0.8,0.7c-0.3,0.2-0.7,0.3-1,0.3c-0.4,0-0.7,0-1-0.2
	c-0.3-0.1-0.6-0.3-0.9-0.6v3.2h-1.5v-9.4h1.4l0.1,0.7c0.2-0.3,0.5-0.5,0.8-0.6c0.3-0.1,0.7-0.2,1-0.2c0.4,0,0.8,0.1,1.1,0.2
	c0.3,0.2,0.6,0.4,0.9,0.7C216,166.8,216.2,167.7,216.2,168.7L216.2,168.7z M214.7,168.6c0-0.6-0.1-1.1-0.4-1.6
	c-0.1-0.2-0.3-0.4-0.5-0.5c-0.2-0.1-0.4-0.2-0.7-0.1c-0.3,0-0.6,0-0.8,0.2c-0.2,0.1-0.4,0.3-0.6,0.6v3c0.1,0.3,0.3,0.5,0.6,0.6
	c0.2,0.1,0.5,0.2,0.8,0.2c0.2,0,0.5,0,0.7-0.1c0.2-0.1,0.4-0.3,0.5-0.4C214.6,169.9,214.7,169.2,214.7,168.6L214.7,168.6z"/>
<path class="st6" d="M217.7,168.6c0-0.6,0.1-1.2,0.4-1.8c0.2-0.5,0.6-0.9,1.1-1.2c0.5-0.3,1.1-0.4,1.7-0.4c0.4,0,0.8,0.1,1.2,0.2
	c0.4,0.2,0.7,0.4,1,0.7c0.6,0.6,0.9,1.5,0.9,2.4v0.4c0,0.6-0.1,1.2-0.4,1.8c-0.2,0.5-0.6,0.9-1.1,1.2c-0.5,0.3-1.1,0.5-1.7,0.4
	c-0.4,0-0.9-0.1-1.3-0.2c-0.4-0.2-0.8-0.4-1.1-0.7C217.9,170.6,217.6,169.6,217.7,168.6L217.7,168.6z M219.2,168.8
	c0,0.6,0.1,1.2,0.4,1.6c0.1,0.2,0.3,0.3,0.5,0.4c0.2,0.1,0.4,0.2,0.7,0.2c0.2,0,0.5-0.1,0.7-0.2c0.2-0.1,0.4-0.3,0.5-0.4
	c0.3-0.5,0.5-1.2,0.4-1.8c0-0.6-0.1-1.2-0.4-1.6c-0.1-0.2-0.3-0.3-0.5-0.5c-0.2-0.1-0.4-0.2-0.7-0.1c-0.2,0-0.5,0-0.7,0.1
	c-0.2,0.1-0.4,0.3-0.5,0.4C219.3,167.5,219.2,168.1,219.2,168.8L219.2,168.8z"/>
<path class="st6" d="M229.4,166.7c-0.2,0-0.4,0-0.7,0c-0.3,0-0.6,0-0.8,0.2c-0.3,0.1-0.5,0.4-0.6,0.6v4.7h-1.5v-6.9h1.5l0,0.8
	c0.2-0.3,0.4-0.5,0.6-0.7c0.3-0.2,0.6-0.2,0.9-0.2c0.2,0,0.4,0,0.5,0.1L229.4,166.7z"/>
<path class="st6" d="M233.1,163.6v1.7h1.2v1.1h-1.2v3.8c0,0.2,0,0.4,0.2,0.6c0.1,0.1,0.2,0.1,0.3,0.1c0.1,0,0.2,0,0.3,0
	c0.2,0,0.4,0,0.5-0.1v1.2c-0.3,0.1-0.7,0.1-1,0.1c-1.2,0-1.8-0.6-1.8-1.9v-3.9h-1.1v-1.1h1.1v-1.7L233.1,163.6z"/>
<path class="st6" d="M236.9,163.3l-0.2,2.4h-0.9v-3.3h1.1V163.3z M238.8,163.3l-0.2,2.4h-0.9v-3.3h1.1V163.3z"/>
<path class="st4" d="M247.1,171c0.3,0,0.7-0.1,1-0.3c0.1-0.1,0.2-0.2,0.3-0.4c0.1-0.1,0.1-0.3,0.1-0.5h1.5c0,0.4-0.2,0.8-0.4,1.2
	c-0.3,0.4-0.6,0.7-1,0.9c-0.4,0.2-0.9,0.3-1.4,0.3c-0.4,0-0.9-0.1-1.2-0.2c-0.4-0.2-0.7-0.4-1-0.7c-0.6-0.7-0.9-1.6-0.8-2.6v-0.2
	c0-0.9,0.3-1.8,0.8-2.5c0.3-0.3,0.6-0.6,1-0.7s0.8-0.2,1.2-0.2c0.7,0,1.4,0.2,2,0.7c0.3,0.2,0.5,0.5,0.6,0.9c0.1,0.3,0.2,0.7,0.2,1
	h-1.5c0-0.4-0.2-0.7-0.4-1c-0.1-0.1-0.3-0.2-0.4-0.3c-0.2-0.1-0.3-0.1-0.5-0.1c-0.2,0-0.4,0-0.6,0.1c-0.2,0.1-0.4,0.2-0.5,0.4
	c-0.3,0.5-0.5,1.1-0.4,1.6v0.3c0,0.6,0.1,1.2,0.4,1.7c0.1,0.2,0.3,0.3,0.5,0.4C246.7,170.9,246.9,171,247.1,171z"/>
<path class="st4" d="M251.3,168.6c0-0.6,0.1-1.2,0.4-1.8c0.2-0.5,0.6-0.9,1.1-1.2c0.5-0.3,1.1-0.4,1.7-0.4c0.4,0,0.8,0.1,1.2,0.2
	c0.4,0.2,0.7,0.4,1,0.7c0.6,0.6,0.9,1.5,0.9,2.4v0.4c0,0.6-0.1,1.2-0.4,1.8c-0.2,0.5-0.6,0.9-1.1,1.2c-0.5,0.3-1.1,0.5-1.7,0.4
	c-0.4,0-0.9-0.1-1.3-0.2c-0.4-0.2-0.8-0.4-1.1-0.7C251.6,170.6,251.3,169.6,251.3,168.6L251.3,168.6z M252.8,168.8
	c0,0.6,0.1,1.2,0.4,1.6c0.1,0.2,0.3,0.3,0.5,0.4c0.2,0.1,0.4,0.2,0.7,0.2c0.2,0,0.5-0.1,0.7-0.2c0.2-0.1,0.4-0.3,0.5-0.4
	c0.3-0.5,0.5-1.2,0.4-1.8c0-0.6-0.1-1.2-0.4-1.6c-0.1-0.2-0.3-0.3-0.5-0.5c-0.2-0.1-0.4-0.2-0.7-0.1c-0.2,0-0.5,0-0.7,0.1
	c-0.2,0.1-0.4,0.3-0.5,0.4C253,167.5,252.8,168.1,252.8,168.8L252.8,168.8z"/>
<path class="st4" d="M260.9,165.3l0,0.8c0.2-0.3,0.5-0.5,0.9-0.7c0.3-0.2,0.7-0.2,1.1-0.2c1.4,0,2.2,0.8,2.2,2.4v4.5h-1.5v-4.4
	c0-0.3-0.1-0.7-0.3-1c-0.1-0.1-0.3-0.2-0.4-0.3c-0.2-0.1-0.3-0.1-0.5-0.1c-0.3,0-0.6,0.1-0.8,0.2s-0.4,0.4-0.6,0.6v4.9h-1.5v-6.8
	H260.9z"/>
<path class="st4" d="M269.1,163.6v1.7h1.2v1.1h-1.2v3.8c0,0.2,0,0.4,0.2,0.6c0.1,0.1,0.2,0.1,0.3,0.1c0.1,0,0.2,0,0.3,0
	c0.2,0,0.4,0,0.5-0.1v1.2c-0.3,0.1-0.7,0.1-1,0.1c-1.2,0-1.8-0.6-1.8-1.9v-3.9h-1.1v-1.1h1.1v-1.7L269.1,163.6z"/>
<path class="st4" d="M274.9,172.2c-0.4,0-0.9-0.1-1.3-0.2c-0.4-0.2-0.8-0.4-1.1-0.7c-0.3-0.3-0.6-0.7-0.7-1.1
	c-0.2-0.4-0.2-0.9-0.2-1.3v-0.2c0-0.6,0.1-1.3,0.4-1.8c0.2-0.5,0.6-0.9,1.1-1.3c0.5-0.3,1-0.5,1.6-0.4c0.4,0,0.8,0,1.2,0.2
	c0.4,0.2,0.7,0.4,1,0.7c0.5,0.7,0.8,1.6,0.8,2.5v0.6h-4.5c0,0.5,0.2,1,0.6,1.3c0.2,0.2,0.4,0.3,0.6,0.4c0.2,0.1,0.4,0.1,0.7,0.1
	c0.3,0,0.7-0.1,1-0.2c0.3-0.1,0.6-0.4,0.8-0.6l0.8,0.8c-0.3,0.4-0.7,0.7-1.1,1C276,172.1,275.5,172.2,274.9,172.2z M274.8,166.4
	c-0.2,0-0.4,0-0.6,0.1c-0.2,0.1-0.3,0.2-0.5,0.3c-0.3,0.4-0.5,0.8-0.5,1.2h2.9v-0.1c0-0.4-0.1-0.8-0.4-1.2c-0.1-0.1-0.3-0.2-0.5-0.3
	C275.1,166.4,274.9,166.4,274.8,166.4z"/>
<path class="st4" d="M280.8,165.3l0,0.8c0.2-0.3,0.5-0.5,0.9-0.7c0.3-0.2,0.7-0.2,1.1-0.2c1.4,0,2.2,0.8,2.2,2.4v4.5h-1.5v-4.4
	c0-0.3-0.1-0.7-0.3-1c-0.1-0.1-0.3-0.2-0.4-0.3c-0.2-0.1-0.3-0.1-0.5-0.1c-0.3,0-0.6,0.1-0.8,0.2c-0.2,0.1-0.4,0.4-0.6,0.6v4.9h-1.5
	v-6.8H280.8z"/>
<path class="st4" d="M289,163.6v1.7h1.2v1.1H289v3.8c0,0.2,0,0.4,0.2,0.6c0.1,0.1,0.2,0.1,0.3,0.1c0.1,0,0.2,0,0.3,0
	c0.2,0,0.4,0,0.5-0.1v1.2c-0.3,0.1-0.7,0.1-1,0.1c-1.2,0-1.8-0.6-1.8-1.9v-3.9h-1.1v-1.1h1.1v-1.7L289,163.6z"/>
<path class="st2" d="M297.4,167.2H292v-1.3h5.5V167.2z M297.4,169.8H292v-1.3h5.5V169.8z"/>
<path class="st6" d="M300.5,163.3l-0.2,2.4h-0.9v-3.3h1.1V163.3z M302.4,163.3l-0.2,2.4h-0.9v-3.3h1.1V163.3z"/>
<path class="st6" d="M304.2,163.5c0-0.2,0.1-0.4,0.2-0.6c0.2-0.2,0.4-0.2,0.7-0.2c0.2,0,0.5,0.1,0.6,0.2c0.1,0.1,0.1,0.2,0.2,0.3
	c0,0.1,0.1,0.2,0.1,0.3c0,0.1,0,0.2-0.1,0.3c0,0.1-0.1,0.2-0.2,0.3c-0.2,0.1-0.4,0.2-0.6,0.2s-0.5-0.1-0.7-0.2
	c-0.1-0.1-0.1-0.2-0.2-0.3C304.2,163.7,304.2,163.6,304.2,163.5z M305.9,172.1h-1.5v-6.8h1.5V172.1z"/>
<path class="st6" d="M309.4,165.3l0,0.8c0.2-0.3,0.5-0.5,0.9-0.7c0.3-0.2,0.7-0.2,1.1-0.2c1.4,0,2.2,0.8,2.2,2.4v4.5h-1.5v-4.4
	c0-0.3-0.1-0.7-0.3-1c-0.1-0.1-0.3-0.2-0.4-0.3c-0.2-0.1-0.3-0.1-0.5-0.1c-0.3,0-0.6,0.1-0.8,0.2c-0.2,0.1-0.4,0.4-0.6,0.6v4.9H308
	v-6.8H309.4z"/>
<path class="st6" d="M315.7,163.5c0-0.2,0.1-0.4,0.2-0.6c0.2-0.2,0.4-0.2,0.7-0.2c0.2,0,0.5,0.1,0.6,0.2c0.1,0.1,0.1,0.2,0.2,0.3
	s0.1,0.2,0.1,0.3c0,0.1,0,0.2-0.1,0.3c0,0.1-0.1,0.2-0.2,0.3c-0.2,0.1-0.4,0.2-0.6,0.2c-0.2,0-0.5-0.1-0.7-0.2
	c-0.1-0.1-0.1-0.2-0.2-0.3C315.7,163.7,315.7,163.6,315.7,163.5z M317.3,172.1h-1.5v-6.8h1.5V172.1z"/>
<path class="st6" d="M321.4,163.6v1.7h1.2v1.1h-1.2v3.8c0,0.2,0,0.4,0.2,0.6c0.1,0.1,0.2,0.1,0.3,0.1c0.1,0,0.2,0,0.3,0
	c0.2,0,0.4,0,0.5-0.1v1.2c-0.3,0.1-0.7,0.1-1,0.1c-1.2,0-1.8-0.6-1.8-1.9v-3.9h-1.1v-1.1h1.1v-1.7L321.4,163.6z"/>
<path class="st6" d="M324.3,163.5c0-0.1,0-0.2,0.1-0.3c0-0.1,0.1-0.2,0.2-0.3c0.2-0.2,0.4-0.2,0.7-0.2c0.2,0,0.5,0.1,0.7,0.2
	c0.1,0.1,0.1,0.2,0.2,0.3s0.1,0.2,0.1,0.3c0,0.1,0,0.2-0.1,0.3c0,0.1-0.1,0.2-0.2,0.3c-0.2,0.1-0.4,0.2-0.7,0.2
	c-0.2,0-0.5-0.1-0.7-0.2c-0.1-0.1-0.1-0.2-0.2-0.3C324.3,163.7,324.3,163.6,324.3,163.5z M325.9,172.1h-1.5v-6.8h1.5V172.1z"/>
<path class="st6" d="M332.1,172.1c-0.1-0.2-0.1-0.4-0.2-0.6c-0.5,0.5-1.1,0.7-1.7,0.8c-0.6,0-1.3-0.2-1.8-0.6
	c-0.2-0.2-0.4-0.4-0.5-0.7c-0.1-0.3-0.2-0.5-0.2-0.8c0-0.3,0.1-0.6,0.2-0.9c0.1-0.3,0.4-0.5,0.6-0.7c0.7-0.4,1.5-0.6,2.3-0.6h0.9
	v-0.5c0-0.3-0.1-0.6-0.3-0.8c-0.1-0.1-0.3-0.2-0.4-0.3c-0.2-0.1-0.3-0.1-0.5-0.1c-0.3,0-0.6,0.1-0.9,0.3c-0.1,0.1-0.2,0.2-0.2,0.3
	c-0.1,0.1-0.1,0.2-0.1,0.4h-1.5c0-0.4,0.1-0.7,0.4-1c0.3-0.3,0.6-0.6,1-0.8c0.5-0.2,0.9-0.3,1.4-0.3c0.7,0,1.4,0.2,2,0.6
	c0.2,0.2,0.4,0.5,0.6,0.8c0.1,0.3,0.2,0.6,0.2,0.9v3.1c0,0.5,0.1,1,0.3,1.5v0.1L332.1,172.1z M330.4,171c0.3,0,0.6-0.1,0.9-0.2
	c0.3-0.1,0.5-0.3,0.6-0.6v-1.3h-0.8c-0.5,0-0.9,0.1-1.3,0.3c-0.1,0.1-0.2,0.2-0.3,0.4c-0.1,0.1-0.1,0.3-0.1,0.5c0,0.1,0,0.3,0.1,0.4
	c0.1,0.1,0.1,0.2,0.2,0.3C329.9,170.9,330.2,171,330.4,171L330.4,171z"/>
<path class="st6" d="M337.2,172.1h-1.5v-9.7h1.5V172.1z"/>
<path class="st6" d="M342.3,168.8H339v-1.2h3.3V168.8z"/>
<path class="st6" d="M347.9,170.2c0-0.1,0-0.3-0.1-0.4s-0.1-0.2-0.3-0.3c-0.4-0.2-0.7-0.3-1.1-0.4c-0.4-0.1-0.9-0.2-1.3-0.4
	c-0.3-0.1-0.6-0.3-0.8-0.6c-0.2-0.3-0.3-0.6-0.3-1c0-0.3,0.1-0.6,0.2-0.8c0.1-0.3,0.3-0.5,0.6-0.6c0.5-0.4,1.2-0.6,1.9-0.6
	c0.7,0,1.4,0.2,2,0.6c0.2,0.2,0.4,0.4,0.6,0.7c0.1,0.3,0.2,0.6,0.2,0.9h-1.5c0-0.1,0-0.3-0.1-0.4c-0.1-0.1-0.1-0.2-0.2-0.3
	c-0.2-0.2-0.6-0.3-0.9-0.3c-0.3,0-0.6,0.1-0.8,0.2c-0.1,0.1-0.2,0.2-0.2,0.3s-0.1,0.2-0.1,0.4c0,0.1,0,0.2,0.1,0.3
	c0.1,0.1,0.1,0.2,0.2,0.2c0.4,0.2,0.8,0.3,1.2,0.4c0.5,0.1,1,0.3,1.4,0.5c0.3,0.1,0.6,0.4,0.8,0.6c0.2,0.3,0.3,0.6,0.3,0.9
	c0,0.3-0.1,0.6-0.2,0.8c-0.1,0.3-0.3,0.5-0.6,0.7c-0.6,0.4-1.3,0.6-2,0.6c-0.5,0-1-0.1-1.5-0.3c-0.4-0.2-0.8-0.5-1-0.8
	c-0.2-0.3-0.4-0.7-0.4-1.1h1.5c0,0.2,0,0.3,0.1,0.5c0.1,0.1,0.2,0.3,0.3,0.4c0.3,0.2,0.6,0.3,1,0.3c0.3,0,0.7-0.1,0.9-0.2
	c0.1-0.1,0.2-0.2,0.2-0.3C347.9,170.5,347.9,170.3,347.9,170.2z"/>
<path class="st6" d="M354,171c0.4,0,0.7-0.1,1-0.3c0.1-0.1,0.2-0.2,0.3-0.4c0.1-0.1,0.1-0.3,0.1-0.5h1.5c0,0.4-0.2,0.8-0.4,1.2
	c-0.3,0.4-0.6,0.7-1,0.9c-0.4,0.2-0.9,0.3-1.4,0.3c-0.4,0-0.9-0.1-1.2-0.2c-0.4-0.2-0.7-0.4-1-0.7c-0.6-0.7-0.9-1.6-0.8-2.6v-0.2
	c0-0.9,0.3-1.8,0.8-2.5c0.3-0.3,0.6-0.6,1-0.7c0.4-0.2,0.8-0.2,1.2-0.2c0.7,0,1.5,0.2,2,0.7c0.3,0.2,0.5,0.5,0.6,0.9
	c0.1,0.3,0.2,0.7,0.2,1h-1.5c0-0.4-0.1-0.7-0.4-1c-0.1-0.1-0.3-0.2-0.4-0.3c-0.2-0.1-0.3-0.1-0.5-0.1c-0.2,0-0.4,0-0.6,0.1
	c-0.2,0.1-0.4,0.2-0.5,0.4c-0.3,0.5-0.5,1.1-0.4,1.6v0.3c0,0.6,0.1,1.2,0.4,1.7c0.1,0.2,0.3,0.3,0.5,0.4
	C353.6,171,353.8,171,354,171z"/>
<path class="st6" d="M362.6,172.1c-0.1-0.2-0.2-0.4-0.2-0.6c-0.5,0.5-1.1,0.7-1.7,0.8c-0.6,0-1.3-0.2-1.8-0.6
	c-0.2-0.2-0.4-0.4-0.5-0.7c-0.1-0.3-0.2-0.5-0.2-0.8c0-0.3,0-0.6,0.2-0.9c0.1-0.3,0.4-0.5,0.6-0.7c0.7-0.4,1.5-0.6,2.3-0.6h0.9v-0.5
	c0-0.3-0.1-0.6-0.3-0.8c-0.1-0.1-0.3-0.2-0.4-0.3c-0.2-0.1-0.3-0.1-0.5-0.1c-0.3,0-0.6,0.1-0.9,0.3c-0.1,0.1-0.2,0.2-0.2,0.3
	c-0.1,0.1-0.1,0.2-0.1,0.4h-1.5c0-0.4,0.1-0.8,0.4-1c0.3-0.3,0.6-0.6,1-0.8c0.5-0.2,0.9-0.3,1.4-0.3c0.7,0,1.4,0.2,2,0.6
	c0.2,0.2,0.4,0.5,0.6,0.8c0.1,0.3,0.2,0.6,0.2,0.9v3.1c0,0.5,0.1,1,0.3,1.5v0.1L362.6,172.1z M360.9,171c0.3,0,0.6-0.1,0.9-0.2
	c0.3-0.1,0.5-0.3,0.6-0.6v-1.3h-0.8c-0.5,0-0.9,0.1-1.3,0.3c-0.1,0.1-0.2,0.2-0.3,0.4c-0.1,0.1-0.1,0.3-0.1,0.5c0,0.1,0,0.3,0.1,0.4
	c0.1,0.1,0.1,0.2,0.2,0.3C360.3,170.9,360.6,171,360.9,171z"/>
<path class="st6" d="M367.6,172.1h-1.5v-9.7h1.5V172.1z"/>
<path class="st6" d="M372.8,172.2c-0.4,0-0.9-0.1-1.3-0.2c-0.4-0.2-0.8-0.4-1.1-0.7c-0.3-0.3-0.6-0.7-0.7-1.1
	c-0.2-0.4-0.2-0.9-0.2-1.3v-0.2c0-0.6,0.1-1.3,0.4-1.8c0.2-0.5,0.6-0.9,1.1-1.3c0.5-0.3,1-0.5,1.6-0.4c0.4,0,0.8,0,1.2,0.2
	c0.4,0.2,0.7,0.4,1,0.7c0.6,0.7,0.8,1.6,0.8,2.5v0.6H371c0,0.5,0.2,1,0.6,1.3c0.2,0.2,0.4,0.3,0.6,0.4c0.2,0.1,0.4,0.1,0.7,0.1
	c0.3,0,0.7-0.1,1-0.2c0.3-0.1,0.6-0.4,0.8-0.6l0.8,0.8c-0.3,0.4-0.7,0.7-1.1,1C373.8,172.1,373.3,172.2,372.8,172.2z M372.6,166.4
	c-0.2,0-0.4,0-0.6,0.1c-0.2,0.1-0.3,0.2-0.5,0.3c-0.3,0.4-0.5,0.8-0.5,1.2h2.9v-0.1c0-0.4-0.1-0.8-0.4-1.2c-0.1-0.1-0.3-0.2-0.5-0.3
	C372.9,166.4,372.8,166.4,372.6,166.4z"/>
<path class="st6" d="M382.8,167.2h-5.5v-1.3h5.5V167.2z M382.8,169.8h-5.5v-1.3h5.5V169.8z"/>
<path class="st6" d="M389,172.1h-1.5v-7.4l-2.3,0.8v-1.3l3.6-1.3h0.2V172.1z"/>
<path class="st6" d="M393.7,170.5c0.1,0,0.2,0,0.4,0.1c0.1,0,0.2,0.1,0.3,0.2c0.1,0.1,0.1,0.2,0.2,0.3c0,0.1,0.1,0.2,0.1,0.3
	c0,0.1,0,0.2-0.1,0.3c0,0.1-0.1,0.2-0.2,0.3c-0.2,0.1-0.4,0.2-0.7,0.2c-0.2,0-0.5-0.1-0.6-0.2c-0.1-0.1-0.1-0.2-0.2-0.3
	c0-0.1-0.1-0.2-0.1-0.3c0-0.1,0-0.2,0.1-0.3c0-0.1,0.1-0.2,0.2-0.3c0.1-0.1,0.2-0.1,0.3-0.2C393.5,170.5,393.6,170.5,393.7,170.5z"
	/>
<path class="st6" d="M402.8,168.2c0.1,1-0.2,2.1-0.7,3c-0.3,0.3-0.6,0.6-1,0.8c-0.4,0.2-0.8,0.3-1.3,0.2c-0.4,0-0.9,0-1.2-0.2
	c-0.4-0.2-0.7-0.4-1-0.8c-0.6-0.9-0.8-1.9-0.8-2.9v-1.6c-0.1-1,0.2-2.1,0.7-3c0.3-0.3,0.6-0.6,1-0.7c0.4-0.2,0.8-0.3,1.2-0.3
	c0.4,0,0.8,0.1,1.2,0.3s0.7,0.4,1,0.7c0.6,0.9,0.8,1.9,0.8,2.9L402.8,168.2z M401.2,166.5c0-0.7-0.1-1.3-0.4-1.9
	c-0.1-0.2-0.3-0.3-0.5-0.4c-0.2-0.1-0.4-0.2-0.6-0.2c-0.2,0-0.4,0.1-0.6,0.2c-0.2,0.1-0.4,0.3-0.5,0.4c-0.3,0.6-0.4,1.2-0.4,1.8v2.1
	c0,0.7,0.1,1.3,0.4,1.9c0.1,0.2,0.3,0.4,0.5,0.5c0.2,0.1,0.4,0.2,0.7,0.2c0.2,0,0.4,0,0.6-0.1c0.2-0.1,0.4-0.3,0.5-0.4
	c0.3-0.6,0.4-1.2,0.4-1.8V166.5z"/>
<path class="st6" d="M405.6,163.3l-0.2,2.4h-0.9v-3.3h1.1V163.3z M407.5,163.3l-0.2,2.4h-0.9v-3.3h1.1L407.5,163.3z"/>
<path class="st2" d="M413.5,172.9h-1.2l3.6-10h1.2L413.5,172.9z"/>
<path class="st2" d="M422.6,168.1l-3.9-1.4v-1.5l5.5,2.3v1.2l-5.5,2.3v-1.5L422.6,168.1z"/>
<path class="st2" d="M94.1,183.6l3.8,1.4v1.5l-5.3-2.4V183l5.3-2.3v1.6L94.1,183.6z"/>
<path class="st3" d="M101.4,180.8l0,0.7c0.2-0.3,0.5-0.5,0.9-0.6c0.3-0.1,0.7-0.2,1.1-0.2c0.4,0,0.8,0,1.1,0.2s0.6,0.5,0.8,0.8
	c0.2-0.3,0.5-0.6,0.9-0.8c0.4-0.2,0.8-0.3,1.2-0.3c0.3,0,0.6,0,0.9,0.1c0.3,0.1,0.6,0.3,0.8,0.5c0.4,0.5,0.6,1.2,0.6,1.8v4.5h-1.5
	v-4.4c0-0.3-0.1-0.7-0.3-1c-0.1-0.1-0.3-0.2-0.4-0.2c-0.2-0.1-0.3-0.1-0.5-0.1c-0.3,0-0.6,0.1-0.9,0.3c-0.2,0.2-0.4,0.4-0.5,0.7v4.7
	H104v-4.5c0-0.2,0-0.3-0.1-0.5c-0.1-0.2-0.1-0.3-0.3-0.4c-0.1-0.1-0.3-0.2-0.4-0.3c-0.2-0.1-0.3-0.1-0.5-0.1c-0.3,0-0.5,0-0.8,0.2
	c-0.2,0.1-0.4,0.3-0.5,0.6v4.9h-1.5v-6.8H101.4z"/>
<path class="st3" d="M114.8,187.7c-0.4,0-0.9-0.1-1.3-0.2c-0.4-0.2-0.8-0.4-1.1-0.7c-0.3-0.3-0.6-0.7-0.7-1.1
	c-0.2-0.4-0.2-0.9-0.2-1.3v-0.2c0-0.6,0.1-1.3,0.4-1.8c0.2-0.5,0.6-0.9,1.1-1.2c0.5-0.3,1-0.5,1.6-0.5c0.4,0,0.8,0,1.2,0.2
	c0.4,0.2,0.7,0.4,1,0.7c0.5,0.7,0.8,1.6,0.8,2.5v0.6H113c0,0.5,0.2,1,0.6,1.3c0.2,0.2,0.4,0.3,0.6,0.4c0.2,0.1,0.4,0.1,0.7,0.1
	c0.3,0,0.7-0.1,1-0.2c0.3-0.1,0.6-0.4,0.8-0.6l0.8,0.8c-0.3,0.4-0.7,0.7-1.1,0.9C115.8,187.6,115.3,187.7,114.8,187.7z M114.6,181.9
	c-0.2,0-0.4,0-0.6,0.1c-0.2,0.1-0.3,0.2-0.5,0.3c-0.3,0.4-0.5,0.8-0.5,1.2h2.9v-0.1c0-0.4-0.1-0.8-0.4-1.2c-0.1-0.1-0.3-0.2-0.5-0.3
	C115,181.9,114.8,181.9,114.6,181.9z"/>
<path class="st3" d="M121.1,179.1v1.7h1.2v1.1h-1.2v3.8c0,0.2,0,0.4,0.2,0.6c0.1,0.1,0.2,0.1,0.3,0.1c0.1,0,0.2,0,0.3,0
	c0.2,0,0.4,0,0.5-0.1v1.2c-0.3,0.1-0.7,0.1-1,0.1c-1.2,0-1.8-0.6-1.8-1.9v-3.9h-1.1v-1.1h1.1v-1.7L121.1,179.1z"/>
<path class="st3" d="M128.1,187.6c-0.1-0.2-0.2-0.4-0.2-0.6c-0.5,0.5-1.1,0.7-1.7,0.8c-0.6,0-1.3-0.2-1.8-0.6
	c-0.2-0.2-0.4-0.4-0.5-0.7c-0.1-0.3-0.2-0.5-0.2-0.8c0-0.3,0-0.6,0.2-0.9c0.1-0.3,0.4-0.5,0.6-0.7c0.7-0.4,1.5-0.6,2.3-0.6h1V183
	c0-0.3-0.1-0.6-0.3-0.8c-0.1-0.1-0.3-0.2-0.4-0.3c-0.2-0.1-0.3-0.1-0.5-0.1c-0.3,0-0.6,0.1-0.9,0.3c-0.1,0.1-0.2,0.2-0.2,0.3
	c-0.1,0.1-0.1,0.2-0.1,0.4h-1.5c0-0.4,0.1-0.8,0.4-1c0.3-0.3,0.6-0.6,1-0.7c0.5-0.2,0.9-0.3,1.4-0.3c0.7,0,1.4,0.2,2,0.6
	c0.2,0.2,0.4,0.5,0.6,0.8c0.1,0.3,0.2,0.6,0.2,0.9v3.1c0,0.5,0.1,1,0.3,1.5v0.1L128.1,187.6z M126.4,186.5c0.3,0,0.6-0.1,0.9-0.2
	c0.3-0.1,0.5-0.3,0.6-0.6v-1.3H127c-0.5,0-0.9,0.1-1.3,0.3c-0.1,0.1-0.2,0.2-0.3,0.4c-0.1,0.1-0.1,0.3-0.1,0.5c0,0.1,0,0.3,0.1,0.4
	c0.1,0.1,0.1,0.2,0.2,0.3C125.8,186.4,126.1,186.5,126.4,186.5z"/>
<path class="st4" d="M136.7,181.5c0.2-0.3,0.5-0.5,0.9-0.7c0.3-0.2,0.7-0.2,1.1-0.2c1.5,0,2.2,0.8,2.2,2.5v4.5h-1.5v-4.4
	c0-0.2,0-0.4-0.1-0.5c-0.1-0.2-0.1-0.3-0.3-0.5c-0.3-0.2-0.6-0.3-0.9-0.3c-0.3,0-0.6,0.1-0.8,0.2c-0.2,0.1-0.4,0.4-0.6,0.6v4.9h-1.5
	v-9.7h1.5L136.7,181.5z"/>
<path class="st4" d="M144.8,179.1v1.7h1.2v1.1h-1.2v3.8c0,0.2,0,0.4,0.2,0.6c0.1,0.1,0.2,0.1,0.3,0.1c0.1,0,0.2,0,0.3,0
	c0.2,0,0.4,0,0.5-0.1v1.2c-0.3,0.1-0.7,0.1-1,0.1c-1.2,0-1.8-0.6-1.8-1.9v-3.9h-1.1v-1.1h1.1v-1.7L144.8,179.1z"/>
<path class="st4" d="M149.5,179.1v1.7h1.2v1.1h-1.2v3.8c0,0.2,0,0.4,0.2,0.6c0.1,0.1,0.2,0.1,0.3,0.1c0.1,0,0.2,0,0.3,0
	c0.2,0,0.4,0,0.5-0.1v1.2c-0.3,0.1-0.7,0.1-1,0.1c-1.2,0-1.8-0.6-1.8-1.9v-3.9h-1.1v-1.1h1.1v-1.7L149.5,179.1z"/>
<path class="st4" d="M158.4,184.3c0,0.9-0.2,1.8-0.7,2.5c-0.2,0.3-0.5,0.5-0.8,0.7c-0.3,0.2-0.7,0.3-1,0.3c-0.4,0-0.7,0-1-0.2
	c-0.3-0.1-0.6-0.3-0.9-0.6v3.2h-1.5v-9.4h1.4l0.1,0.7c0.2-0.3,0.5-0.5,0.8-0.6c0.3-0.1,0.7-0.2,1-0.2c0.4,0,0.8,0.1,1.1,0.2
	c0.3,0.2,0.6,0.4,0.9,0.7C158.2,182.3,158.4,183.2,158.4,184.3L158.4,184.3z M156.9,184.1c0-0.6-0.1-1.1-0.4-1.6
	c-0.1-0.2-0.3-0.4-0.5-0.5c-0.2-0.1-0.4-0.2-0.7-0.1c-0.3,0-0.6,0-0.8,0.2c-0.2,0.1-0.4,0.3-0.6,0.6v3c0.1,0.3,0.3,0.5,0.6,0.6
	c0.2,0.1,0.5,0.2,0.8,0.2c0.2,0,0.5,0,0.7-0.1c0.2-0.1,0.4-0.3,0.5-0.4C156.8,185.4,156.9,184.8,156.9,184.1L156.9,184.1z"/>
<path class="st4" d="M163.2,184.3h-3.3v-1.2h3.3V184.3z"/>
<path class="st4" d="M167.9,187.7c-0.4,0-0.9-0.1-1.3-0.2c-0.4-0.2-0.8-0.4-1.1-0.7c-0.3-0.3-0.6-0.7-0.7-1.1
	c-0.2-0.4-0.2-0.9-0.2-1.3v-0.2c0-0.6,0.1-1.3,0.4-1.8c0.2-0.5,0.6-0.9,1.1-1.2c0.5-0.3,1-0.5,1.6-0.5c0.4,0,0.8,0,1.2,0.2
	c0.4,0.2,0.7,0.4,1,0.7c0.5,0.7,0.8,1.6,0.8,2.5v0.6h-4.5c0,0.5,0.2,1,0.6,1.3c0.2,0.2,0.4,0.3,0.6,0.4c0.2,0.1,0.4,0.1,0.7,0.1
	c0.3,0,0.7-0.1,1-0.2c0.3-0.1,0.6-0.4,0.8-0.6l0.8,0.8c-0.3,0.4-0.7,0.7-1.1,0.9C169,187.6,168.5,187.7,167.9,187.7z M167.7,181.9
	c-0.2,0-0.4,0-0.6,0.1c-0.2,0.1-0.3,0.2-0.5,0.3c-0.3,0.4-0.5,0.8-0.5,1.2h2.9v-0.1c0-0.4-0.1-0.8-0.4-1.2c-0.1-0.1-0.3-0.2-0.5-0.3
	C168.1,181.9,167.9,181.9,167.7,181.9z"/>
<path class="st4" d="M172,184.1c0-0.9,0.2-1.8,0.7-2.5c0.2-0.3,0.5-0.5,0.9-0.7c0.3-0.2,0.7-0.2,1.1-0.2c0.3,0,0.7,0,1,0.2
	c0.3,0.1,0.6,0.3,0.8,0.6l0.1-0.6h1.4v9.5h-1.5V187c-0.2,0.2-0.5,0.4-0.8,0.5c-0.3,0.1-0.6,0.2-1,0.2c-0.4,0-0.8-0.1-1.1-0.2
	c-0.3-0.2-0.6-0.4-0.9-0.7C172.3,186,172,185.1,172,184.1z M173.6,184.3c0,0.6,0.1,1.1,0.4,1.6c0.1,0.2,0.3,0.3,0.5,0.4
	c0.2,0.1,0.4,0.2,0.7,0.1c0.3,0,0.6-0.1,0.8-0.2c0.2-0.1,0.4-0.3,0.6-0.6v-3.1c-0.1-0.2-0.3-0.4-0.6-0.6c-0.2-0.1-0.5-0.2-0.8-0.2
	c-0.2,0-0.5,0-0.7,0.1c-0.2,0.1-0.4,0.3-0.5,0.4C173.7,183,173.5,183.6,173.6,184.3L173.6,184.3z"/>
<path class="st4" d="M184.3,186.9c-0.2,0.3-0.5,0.5-0.9,0.6c-0.3,0.1-0.7,0.2-1.1,0.2c-0.3,0-0.6,0-0.9-0.1
	c-0.3-0.1-0.6-0.3-0.8-0.5c-0.4-0.5-0.6-1.2-0.6-1.9v-4.4h1.5v4.4c0,0.9,0.4,1.3,1.1,1.3c0.3,0,0.6,0,0.9-0.2
	c0.3-0.1,0.5-0.4,0.6-0.6v-4.9h1.5v6.8h-1.5L184.3,186.9z"/>
<path class="st4" d="M187.9,179c0-0.1,0-0.2,0.1-0.3s0.1-0.2,0.2-0.3c0.2-0.2,0.4-0.2,0.7-0.2c0.2,0,0.5,0.1,0.7,0.2
	c0.1,0.1,0.1,0.2,0.2,0.3s0.1,0.2,0.1,0.3c0,0.1,0,0.2-0.1,0.3c0,0.1-0.1,0.2-0.2,0.3c-0.2,0.2-0.4,0.2-0.7,0.2s-0.5-0.1-0.7-0.2
	c-0.1-0.1-0.1-0.2-0.2-0.3C187.9,179.2,187.9,179.1,187.9,179z M189.5,187.6H188v-6.8h1.5V187.6z"/>
<path class="st4" d="M194.1,185.6l1.5-4.9h1.6l-2.4,6.8h-1.3l-2.4-6.8h1.6L194.1,185.6z"/>
<path class="st2" d="M204.1,182.7h-5.5v-1.3h5.5V182.7z M204.1,185.4h-5.5v-1.3h5.5V185.4z"/>
<path class="st6" d="M207.2,178.8l-0.2,2.4h-0.9v-3.3h1.1V178.8z M209.1,178.8l-0.2,2.4H208v-3.3h1.1V178.8z"/>
<path class="st6" d="M213.4,183l1.3-2.2h1.7l-2.1,3.4l2.2,3.5h-1.7l-1.4-2.3l-1.4,2.3h-1.7l2.2-3.5l-2.1-3.4h1.7L213.4,183z"/>
<path class="st6" d="M220.9,184.3h-3.3v-1.2h3.3V184.3z"/>
<path class="st6" d="M226.8,186.9c-0.2,0.3-0.5,0.5-0.9,0.6c-0.3,0.1-0.7,0.2-1.1,0.2c-0.3,0-0.6,0-0.9-0.1
	c-0.3-0.1-0.6-0.3-0.8-0.5c-0.4-0.5-0.6-1.2-0.6-1.9v-4.4h1.5v4.4c0,0.9,0.4,1.3,1.1,1.3c0.3,0,0.6,0,0.9-0.2
	c0.3-0.1,0.5-0.4,0.6-0.6v-4.9h1.5v6.8h-1.5L226.8,186.9z"/>
<path class="st6" d="M234.4,187.6c-0.1-0.2-0.2-0.4-0.2-0.6c-0.5,0.5-1.1,0.7-1.7,0.8c-0.6,0-1.3-0.2-1.8-0.6
	c-0.2-0.2-0.4-0.4-0.5-0.7c-0.1-0.3-0.2-0.5-0.2-0.8c0-0.3,0-0.6,0.2-0.9c0.1-0.3,0.4-0.5,0.6-0.7c0.7-0.4,1.5-0.6,2.3-0.6h0.9V183
	c0-0.3-0.1-0.6-0.3-0.8c-0.1-0.1-0.3-0.2-0.4-0.3c-0.2-0.1-0.3-0.1-0.5-0.1c-0.3,0-0.6,0.1-0.9,0.3c-0.1,0.1-0.2,0.2-0.2,0.3
	c-0.1,0.1-0.1,0.2-0.1,0.4h-1.5c0-0.4,0.1-0.8,0.4-1c0.3-0.3,0.6-0.6,1-0.8c0.5-0.2,0.9-0.3,1.4-0.3c0.7,0,1.4,0.2,2,0.6
	c0.2,0.2,0.4,0.5,0.6,0.8c0.1,0.3,0.2,0.6,0.2,0.9v3.1c0,0.5,0.1,1,0.3,1.5v0.1L234.4,187.6z M232.7,186.5c0.3,0,0.6-0.1,0.9-0.2
	c0.3-0.1,0.5-0.3,0.6-0.6v-1.3h-0.8c-0.5,0-0.9,0.1-1.3,0.3c-0.1,0.1-0.2,0.2-0.3,0.4c-0.1,0.1-0.1,0.3-0.1,0.5c0,0.1,0,0.3,0.1,0.4
	c0,0.1,0.1,0.2,0.2,0.3C232.2,186.4,232.5,186.5,232.7,186.5z"/>
<path class="st6" d="M240.8,184.3h-3.3v-1.2h3.3V184.3z"/>
<path class="st6" d="M245.4,186.5c0.3,0,0.7-0.1,1-0.3c0.1-0.1,0.2-0.2,0.3-0.4c0.1-0.1,0.1-0.3,0.1-0.5h1.5c0,0.4-0.2,0.8-0.4,1.2
	c-0.3,0.4-0.6,0.7-1,0.9c-0.4,0.2-0.9,0.3-1.4,0.3c-0.4,0-0.9-0.1-1.2-0.2c-0.4-0.2-0.8-0.4-1-0.7c-0.6-0.7-0.9-1.6-0.8-2.6V184
	c0-0.9,0.3-1.8,0.8-2.5c0.3-0.3,0.6-0.6,1-0.7c0.4-0.2,0.8-0.2,1.2-0.2c0.7,0,1.4,0.2,2,0.7c0.3,0.2,0.5,0.5,0.6,0.9
	c0.1,0.3,0.2,0.7,0.2,1h-1.5c0-0.4-0.2-0.7-0.4-1c-0.1-0.1-0.3-0.2-0.4-0.3c-0.2-0.1-0.3-0.1-0.5-0.1c-0.2,0-0.4,0-0.6,0.1
	c-0.2,0.1-0.4,0.2-0.5,0.4c-0.3,0.5-0.5,1.1-0.4,1.6v0.3c0,0.6,0.1,1.2,0.4,1.7c0.1,0.2,0.3,0.3,0.5,0.4
	C244.9,186.5,245.2,186.5,245.4,186.5z"/>
<path class="st6" d="M249.5,184.1c0-0.6,0.1-1.2,0.4-1.8c0.2-0.5,0.6-0.9,1.1-1.2c0.5-0.3,1.1-0.4,1.7-0.4c0.4,0,0.8,0.1,1.2,0.2
	c0.4,0.2,0.7,0.4,1,0.7c0.6,0.6,0.9,1.5,0.9,2.4v0.4c0,0.6-0.1,1.2-0.4,1.8c-0.2,0.5-0.6,0.9-1.1,1.2c-0.5,0.3-1.1,0.4-1.7,0.4
	c-0.4,0-0.9-0.1-1.3-0.2c-0.4-0.2-0.8-0.4-1.1-0.7C249.8,186.1,249.5,185.1,249.5,184.1L249.5,184.1z M251.1,184.3
	c0,0.6,0.1,1.2,0.4,1.6c0.1,0.2,0.3,0.3,0.5,0.4c0.2,0.1,0.4,0.2,0.7,0.2c0.2,0,0.5-0.1,0.7-0.2c0.2-0.1,0.4-0.3,0.5-0.4
	c0.3-0.5,0.5-1.2,0.4-1.8c0-0.6-0.1-1.2-0.4-1.6c-0.1-0.2-0.3-0.3-0.5-0.5c-0.2-0.1-0.4-0.2-0.7-0.1c-0.2,0-0.5,0-0.7,0.1
	c-0.2,0.1-0.4,0.3-0.5,0.4C251.2,183,251,183.6,251.1,184.3L251.1,184.3z"/>
<path class="st6" d="M259.1,180.8l0,0.7c0.2-0.3,0.6-0.5,0.9-0.6c0.3-0.1,0.7-0.2,1.1-0.2c0.4,0,0.8,0,1.1,0.2
	c0.3,0.2,0.6,0.5,0.8,0.8c0.2-0.3,0.5-0.6,0.9-0.8c0.4-0.2,0.8-0.3,1.2-0.3c0.3,0,0.6,0,0.9,0.1c0.3,0.1,0.6,0.3,0.8,0.5
	c0.4,0.5,0.6,1.2,0.6,1.8v4.5h-1.5v-4.4c0-0.3-0.1-0.7-0.3-1c-0.3-0.2-0.6-0.3-0.9-0.3c-0.3,0-0.6,0.1-0.9,0.3
	c-0.2,0.2-0.4,0.5-0.5,0.7v4.7h-1.5v-4.5c0-0.2,0-0.3-0.1-0.5c-0.1-0.2-0.1-0.3-0.3-0.4c-0.1-0.1-0.3-0.2-0.4-0.3
	c-0.2-0.1-0.3-0.1-0.5,0c-0.3,0-0.5,0-0.8,0.2c-0.2,0.1-0.4,0.3-0.5,0.6v4.9h-1.5v-6.8H259.1z"/>
<path class="st6" d="M275.5,184.3c0,0.9-0.2,1.8-0.7,2.5c-0.2,0.3-0.5,0.5-0.9,0.7c-0.3,0.2-0.7,0.2-1.1,0.2c-0.3,0-0.7,0-1-0.2
	c-0.3-0.1-0.6-0.3-0.8-0.6v3.2h-1.5v-9.4h1.4l0.1,0.7c0.2-0.3,0.5-0.5,0.8-0.6c0.3-0.1,0.7-0.2,1-0.2c0.4,0,0.8,0.1,1.1,0.2
	s0.6,0.4,0.9,0.7C275.2,182.3,275.5,183.2,275.5,184.3L275.5,184.3z M273.9,184.1c0-0.6-0.1-1.1-0.4-1.6c-0.1-0.2-0.3-0.4-0.5-0.5
	c-0.2-0.1-0.4-0.2-0.7-0.1c-0.3,0-0.6,0-0.8,0.2c-0.2,0.1-0.4,0.3-0.6,0.6v3c0.1,0.3,0.3,0.5,0.6,0.6c0.2,0.1,0.5,0.2,0.8,0.2
	c0.2,0,0.5,0,0.7-0.1c0.2-0.1,0.4-0.3,0.5-0.4C273.8,185.4,274,184.8,273.9,184.1L273.9,184.1z"/>
<path class="st6" d="M281.3,187.6c-0.1-0.2-0.2-0.4-0.2-0.6c-0.5,0.5-1.1,0.7-1.7,0.8c-0.6,0-1.3-0.2-1.8-0.6
	c-0.2-0.2-0.4-0.4-0.5-0.7c-0.1-0.3-0.2-0.5-0.2-0.8c0-0.3,0-0.6,0.2-0.9c0.1-0.3,0.4-0.5,0.6-0.7c0.7-0.4,1.5-0.6,2.3-0.6h1V183
	c0-0.3-0.1-0.6-0.3-0.8c-0.1-0.1-0.3-0.2-0.4-0.3c-0.2-0.1-0.3-0.1-0.5-0.1c-0.3,0-0.6,0.1-0.9,0.3c-0.1,0.1-0.2,0.2-0.2,0.3
	c-0.1,0.1-0.1,0.2-0.1,0.4h-1.5c0-0.4,0.1-0.8,0.4-1c0.3-0.3,0.6-0.6,1-0.8c0.5-0.2,0.9-0.3,1.4-0.3c0.7,0,1.4,0.2,2,0.6
	c0.2,0.2,0.4,0.5,0.6,0.8c0.1,0.3,0.2,0.6,0.2,0.9v3.1c0,0.5,0.1,1,0.3,1.5v0.1L281.3,187.6z M279.6,186.5c0.3,0,0.6-0.1,0.9-0.2
	c0.3-0.1,0.5-0.3,0.6-0.6v-1.3h-0.8c-0.5,0-0.9,0.1-1.3,0.3c-0.1,0.1-0.2,0.2-0.3,0.4c-0.1,0.1-0.1,0.3-0.1,0.5c0,0.1,0,0.3,0.1,0.4
	c0.1,0.1,0.1,0.2,0.2,0.3C279.1,186.4,279.4,186.5,279.6,186.5z"/>
<path class="st6" d="M286.7,179.1v1.7h1.2v1.1h-1.2v3.8c0,0.2,0,0.4,0.2,0.6c0.1,0.1,0.2,0.1,0.3,0.1c0.1,0,0.2,0,0.3,0
	c0.2,0,0.4,0,0.5-0.1v1.2c-0.3,0.1-0.7,0.1-1,0.1c-1.2,0-1.8-0.6-1.8-1.9v-3.9H284v-1.1h1.1v-1.7L286.7,179.1z"/>
<path class="st6" d="M289.5,179c0-0.2,0.1-0.4,0.2-0.6c0.2-0.2,0.4-0.2,0.7-0.2c0.2,0,0.5,0.1,0.6,0.2c0.1,0.1,0.1,0.2,0.2,0.3
	c0,0.1,0.1,0.2,0.1,0.3c0,0.1,0,0.2-0.1,0.3c0,0.1-0.1,0.2-0.2,0.3c-0.2,0.2-0.4,0.2-0.6,0.2s-0.5-0.1-0.7-0.2
	c-0.1-0.1-0.1-0.2-0.2-0.3C289.5,179.2,289.5,179.1,289.5,179z M291.1,187.6h-1.5v-6.8h1.5V187.6z"/>
<path class="st6" d="M299.3,184.3c0,0.9-0.2,1.8-0.7,2.5c-0.2,0.3-0.5,0.5-0.9,0.7c-0.3,0.2-0.7,0.2-1.1,0.2c-0.4,0-0.7-0.1-1-0.2
	c-0.3-0.2-0.6-0.4-0.8-0.7l-0.1,0.7h-1.4v-9.7h1.5v3.5c0.2-0.3,0.5-0.5,0.8-0.6c0.3-0.1,0.6-0.2,1-0.2c0.4,0,0.8,0.1,1.1,0.2
	s0.6,0.4,0.9,0.7C299.1,182.3,299.4,183.2,299.3,184.3L299.3,184.3z M297.8,184.1c0-0.6-0.1-1.2-0.4-1.7c-0.1-0.2-0.3-0.3-0.5-0.4
	c-0.2-0.1-0.4-0.1-0.6-0.1c-0.3,0-0.6,0.1-0.8,0.2c-0.3,0.2-0.5,0.4-0.6,0.7v2.8c0.1,0.3,0.3,0.5,0.6,0.7c0.3,0.2,0.6,0.2,0.9,0.2
	c0.2,0,0.4,0,0.6-0.1c0.2-0.1,0.4-0.2,0.5-0.4c0.3-0.5,0.4-1.1,0.4-1.6V184.1z"/>
<path class="st6" d="M302.7,187.6h-1.5v-9.7h1.5V187.6z"/>
<path class="st6" d="M307.9,187.7c-0.4,0-0.9-0.1-1.3-0.2c-0.4-0.2-0.8-0.4-1.1-0.7c-0.3-0.3-0.6-0.7-0.7-1.1
	c-0.2-0.4-0.2-0.9-0.2-1.3v-0.2c0-0.6,0.1-1.3,0.4-1.8c0.2-0.5,0.6-0.9,1.1-1.3c0.5-0.3,1-0.5,1.6-0.4c0.4,0,0.8,0,1.2,0.2
	c0.4,0.2,0.7,0.4,1,0.7c0.6,0.7,0.8,1.6,0.8,2.5v0.6h-4.5c0,0.5,0.2,1,0.6,1.3c0.2,0.2,0.4,0.3,0.6,0.4c0.2,0.1,0.4,0.1,0.7,0.1
	c0.3,0,0.7-0.1,1-0.2c0.3-0.1,0.6-0.4,0.8-0.6l0.8,0.8c-0.3,0.4-0.7,0.7-1.1,0.9C308.9,187.6,308.4,187.7,307.9,187.7z M307.7,181.9
	c-0.2,0-0.4,0-0.6,0.1c-0.2,0.1-0.3,0.2-0.5,0.3c-0.3,0.4-0.5,0.8-0.5,1.2h2.9v-0.1c0-0.4-0.1-0.8-0.4-1.2c-0.1-0.1-0.3-0.2-0.5-0.3
	C308.1,181.9,307.9,181.9,307.7,181.9z"/>
<path class="st6" d="M313.1,178.8l-0.2,2.4H312v-3.3h1.1V178.8z M315.1,178.8l-0.2,2.4H314v-3.3h1.1V178.8z"/>
<path class="st4" d="M323.4,186.5c0.4,0,0.7-0.1,1-0.3c0.1-0.1,0.2-0.2,0.3-0.4c0.1-0.1,0.1-0.3,0.1-0.5h1.5c0,0.4-0.2,0.8-0.4,1.2
	c-0.3,0.4-0.6,0.7-1,0.9c-0.4,0.2-0.9,0.3-1.4,0.3c-0.4,0-0.9-0.1-1.2-0.2c-0.4-0.2-0.8-0.4-1-0.7c-0.6-0.7-0.9-1.6-0.8-2.6V184
	c0-0.9,0.3-1.8,0.8-2.5c0.3-0.3,0.6-0.6,1-0.7c0.4-0.2,0.8-0.2,1.2-0.2c0.7,0,1.4,0.2,2,0.7c0.3,0.2,0.5,0.5,0.6,0.8
	c0.1,0.3,0.2,0.7,0.2,1h-1.5c0-0.4-0.1-0.7-0.4-1c-0.1-0.1-0.3-0.2-0.4-0.3c-0.2-0.1-0.3-0.1-0.5-0.1c-0.2,0-0.4,0-0.6,0.1
	c-0.2,0.1-0.4,0.2-0.5,0.4c-0.3,0.5-0.4,1.1-0.4,1.6v0.3c0,0.6,0.1,1.2,0.4,1.7c0.1,0.2,0.3,0.3,0.5,0.4
	C322.9,186.5,323.2,186.5,323.4,186.5z"/>
<path class="st4" d="M327.6,184.1c0-0.6,0.1-1.2,0.4-1.8c0.2-0.5,0.6-0.9,1.1-1.2c0.5-0.3,1.1-0.4,1.7-0.4c0.4,0,0.8,0.1,1.2,0.2
	c0.4,0.2,0.7,0.4,1,0.7c0.6,0.6,0.9,1.5,0.9,2.4v0.4c0,0.6-0.1,1.2-0.4,1.8c-0.2,0.5-0.6,0.9-1.1,1.2c-0.5,0.3-1.1,0.4-1.7,0.4
	c-0.4,0-0.9-0.1-1.3-0.2c-0.4-0.2-0.8-0.4-1.1-0.7C327.8,186.1,327.5,185.1,327.6,184.1L327.6,184.1z M329.1,184.3
	c0,0.6,0.1,1.2,0.4,1.6c0.1,0.2,0.3,0.3,0.5,0.4c0.2,0.1,0.4,0.2,0.7,0.2c0.2,0,0.5-0.1,0.7-0.2c0.2-0.1,0.4-0.3,0.5-0.4
	c0.3-0.5,0.5-1.2,0.4-1.8c0-0.6-0.1-1.2-0.4-1.6c-0.1-0.2-0.3-0.3-0.5-0.5c-0.2-0.1-0.4-0.2-0.7-0.1c-0.2,0-0.5,0-0.7,0.1
	c-0.2,0.1-0.4,0.3-0.5,0.4C329.2,183,329,183.6,329.1,184.3L329.1,184.3z"/>
<path class="st4" d="M337.1,180.8l0,0.8c0.2-0.3,0.5-0.5,0.9-0.7c0.3-0.2,0.7-0.2,1.1-0.2c1.4,0,2.2,0.8,2.2,2.4v4.5h-1.5v-4.4
	c0-0.3-0.1-0.7-0.3-1c-0.1-0.1-0.3-0.2-0.4-0.3c-0.2-0.1-0.3-0.1-0.5-0.1c-0.3,0-0.6,0.1-0.8,0.2c-0.2,0.1-0.4,0.4-0.6,0.6v4.9h-1.5
	v-6.8H337.1z"/>
<path class="st4" d="M345.3,179.1v1.7h1.2v1.1h-1.2v3.8c0,0.2,0,0.4,0.2,0.6c0.1,0.1,0.2,0.1,0.3,0.1c0.1,0,0.2,0,0.3,0
	c0.2,0,0.4,0,0.5-0.1v1.2c-0.3,0.1-0.7,0.1-1,0.1c-1.2,0-1.8-0.6-1.8-1.9v-3.9h-1.1v-1.1h1.1v-1.7L345.3,179.1z"/>
<path class="st4" d="M351.2,187.7c-0.4,0-0.9-0.1-1.3-0.2c-0.4-0.2-0.8-0.4-1.1-0.7c-0.3-0.3-0.6-0.7-0.7-1.1
	c-0.2-0.4-0.2-0.9-0.2-1.3v-0.2c0-0.6,0.1-1.3,0.4-1.8c0.2-0.5,0.6-0.9,1.1-1.3c0.5-0.3,1-0.5,1.6-0.4c0.4,0,0.8,0,1.2,0.2
	c0.4,0.2,0.7,0.4,1,0.7c0.6,0.7,0.8,1.6,0.8,2.5v0.6h-4.5c0,0.5,0.2,1,0.6,1.3c0.2,0.2,0.4,0.3,0.6,0.4c0.2,0.1,0.4,0.1,0.7,0.1
	c0.3,0,0.7-0.1,1-0.2c0.3-0.1,0.6-0.4,0.8-0.6l0.8,0.8c-0.3,0.4-0.7,0.7-1.1,0.9C352.2,187.6,351.7,187.7,351.2,187.7z M351,181.9
	c-0.2,0-0.4,0-0.6,0.1c-0.2,0.1-0.3,0.2-0.5,0.3c-0.3,0.4-0.5,0.8-0.5,1.2h2.9v-0.1c0-0.4-0.1-0.8-0.4-1.2c-0.1-0.1-0.3-0.2-0.5-0.3
	C351.4,181.9,351.2,181.9,351,181.9z"/>
<path class="st4" d="M357,180.8l0,0.8c0.2-0.3,0.5-0.5,0.9-0.7c0.3-0.2,0.7-0.2,1.1-0.2c1.4,0,2.2,0.8,2.2,2.4v4.5h-1.5v-4.4
	c0-0.4-0.1-0.7-0.3-1c-0.1-0.1-0.3-0.2-0.4-0.3c-0.2-0.1-0.3-0.1-0.5-0.1c-0.3,0-0.6,0.1-0.8,0.2c-0.2,0.1-0.4,0.4-0.6,0.6v4.9h-1.5
	v-6.8H357z"/>
<path class="st4" d="M365.2,179.1v1.7h1.2v1.1h-1.2v3.8c0,0.2,0,0.4,0.2,0.6c0.1,0.1,0.2,0.1,0.3,0.1c0.1,0,0.2,0,0.3,0
	c0.2,0,0.4,0,0.5-0.1v1.2c-0.3,0.1-0.7,0.1-1,0.1c-1.2,0-1.8-0.6-1.8-1.9v-3.9h-1.1v-1.1h1.1v-1.7L365.2,179.1z"/>
<path class="st2" d="M373.7,182.7h-5.5v-1.3h5.5V182.7z M373.7,185.4h-5.5v-1.3h5.5V185.4z"/>
<path class="st6" d="M376.8,178.8l-0.2,2.4h-0.9v-3.3h1.1V178.8z M378.7,178.8l-0.2,2.4h-0.9v-3.3h1.1V178.8z"/>
<path class="st6" d="M380.5,179c0-0.2,0.1-0.4,0.2-0.6c0.1-0.1,0.2-0.1,0.3-0.2c0.1,0,0.2-0.1,0.4,0c0.1,0,0.2,0,0.3,0
	s0.2,0.1,0.3,0.2c0.2,0.2,0.2,0.4,0.2,0.6c0,0.1,0,0.2-0.1,0.3c0,0.1-0.1,0.2-0.2,0.3c-0.1,0.1-0.2,0.1-0.3,0.2
	c-0.1,0-0.2,0.1-0.3,0c-0.1,0-0.2,0-0.3,0s-0.2-0.1-0.3-0.2c-0.1-0.1-0.1-0.2-0.2-0.3C380.5,179.2,380.5,179.1,380.5,179z
	 M382.1,187.6h-1.5v-6.8h1.5V187.6z"/>
<path class="st6" d="M387.3,187.7c-0.4,0-0.9-0.1-1.3-0.2c-0.4-0.2-0.8-0.4-1.1-0.7c-0.3-0.3-0.5-0.7-0.7-1.1
	c-0.2-0.4-0.2-0.9-0.2-1.3v-0.2c0-0.6,0.1-1.3,0.4-1.8c0.2-0.5,0.6-0.9,1.1-1.3c0.5-0.3,1-0.5,1.6-0.4c0.4,0,0.8,0,1.2,0.2
	c0.4,0.2,0.7,0.4,1,0.7c0.6,0.7,0.8,1.6,0.8,2.5v0.6h-4.5c0,0.5,0.2,1,0.6,1.3c0.2,0.2,0.4,0.3,0.6,0.4c0.2,0.1,0.4,0.1,0.7,0.1
	c0.3,0,0.7-0.1,1-0.2c0.3-0.1,0.6-0.4,0.8-0.6l0.8,0.8c-0.3,0.4-0.7,0.7-1.1,0.9C388.3,187.6,387.8,187.7,387.3,187.7z M387.1,181.9
	c-0.2,0-0.4,0-0.6,0.1c-0.2,0.1-0.3,0.2-0.5,0.3c-0.3,0.4-0.5,0.8-0.5,1.2h2.9v-0.1c0-0.4-0.1-0.8-0.4-1.2c-0.1-0.1-0.3-0.2-0.5-0.3
	C387.5,181.9,387.3,181.9,387.1,181.9z"/>
<path class="st6" d="M397.3,182.7h-5.5v-1.3h5.5V182.7z M397.3,185.4h-5.5v-1.3h5.5V185.4z"/>
<path class="st6" d="M402.4,187.7c-0.4,0-0.9-0.1-1.3-0.2c-0.4-0.2-0.8-0.4-1.1-0.7c-0.3-0.3-0.6-0.7-0.7-1.1
	c-0.2-0.4-0.2-0.9-0.2-1.3v-0.2c0-0.6,0.1-1.3,0.4-1.8c0.2-0.5,0.6-0.9,1.1-1.3c0.5-0.3,1-0.5,1.6-0.4c0.4,0,0.8,0,1.2,0.2
	c0.4,0.2,0.7,0.4,1,0.7c0.5,0.7,0.8,1.6,0.8,2.5v0.6h-4.5c0,0.5,0.2,1,0.6,1.3c0.2,0.2,0.4,0.3,0.6,0.4c0.2,0.1,0.4,0.1,0.7,0.1
	c0.3,0,0.7-0.1,1-0.2c0.3-0.1,0.6-0.4,0.8-0.6l0.8,0.8c-0.3,0.4-0.7,0.7-1.1,0.9C403.5,187.6,403,187.7,402.4,187.7z M402.3,181.9
	c-0.2,0-0.4,0-0.6,0.1c-0.2,0.1-0.3,0.2-0.5,0.3c-0.3,0.4-0.5,0.8-0.5,1.2h2.9v-0.1c0-0.4-0.1-0.8-0.4-1.2c-0.1-0.1-0.3-0.2-0.5-0.3
	C402.6,181.9,402.4,181.9,402.3,181.9z"/>
<path class="st6" d="M406.6,184.1c0-0.9,0.2-1.8,0.7-2.5c0.2-0.3,0.5-0.5,0.9-0.7c0.3-0.2,0.7-0.2,1.1-0.2c0.3,0,0.7,0.1,1,0.2
	c0.3,0.1,0.6,0.3,0.8,0.6v-3.5h1.5v9.7h-1.4l-0.1-0.7c-0.2,0.3-0.5,0.5-0.8,0.6c-0.3,0.1-0.7,0.2-1,0.2c-0.4,0-0.8-0.1-1.1-0.2
	c-0.3-0.2-0.6-0.4-0.9-0.7C406.8,186,406.5,185.1,406.6,184.1z M408.1,184.3c0,0.6,0.1,1.1,0.4,1.6c0.1,0.2,0.3,0.3,0.5,0.4
	s0.4,0.2,0.7,0.1c0.3,0,0.6-0.1,0.8-0.2c0.2-0.1,0.4-0.4,0.6-0.6v-2.9c-0.1-0.3-0.3-0.5-0.6-0.6c-0.2-0.1-0.5-0.2-0.8-0.2
	c-0.2,0-0.5,0-0.7,0.1c-0.2,0.1-0.4,0.3-0.5,0.5C408.2,183,408.1,183.6,408.1,184.3L408.1,184.3z"/>
<path class="st6" d="M414.4,184.1c-0.1-0.9,0.2-1.8,0.8-2.5c0.2-0.3,0.5-0.6,0.9-0.7c0.3-0.2,0.7-0.2,1.1-0.2c0.3,0,0.7,0.1,1,0.2
	c0.3,0.1,0.6,0.4,0.8,0.6l0.1-0.7h1.4v6.6c0,0.4,0,0.8-0.2,1.2c-0.1,0.4-0.4,0.7-0.7,1c-0.6,0.5-1.4,0.8-2.3,0.8
	c-0.5,0-1-0.1-1.5-0.3c-0.4-0.2-0.8-0.5-1.1-0.8l0.7-0.9c0.2,0.3,0.5,0.5,0.8,0.6c0.3,0.1,0.6,0.2,1,0.2c0.4,0,0.9-0.1,1.2-0.4
	c0.2-0.2,0.3-0.4,0.4-0.6s0.1-0.4,0.1-0.7V187c-0.2,0.2-0.5,0.4-0.8,0.6s-0.6,0.2-1,0.2c-0.4,0-0.8-0.1-1.1-0.2
	c-0.3-0.2-0.6-0.4-0.9-0.7C414.6,186,414.3,185.1,414.4,184.1z M415.9,184.3c0,0.6,0.1,1.1,0.4,1.6c0.1,0.2,0.3,0.3,0.5,0.4
	c0.2,0.1,0.4,0.2,0.7,0.1c0.3,0,0.6-0.1,0.8-0.2c0.2-0.1,0.4-0.3,0.6-0.6v-3c-0.1-0.2-0.3-0.5-0.6-0.6c-0.2-0.1-0.5-0.2-0.8-0.2
	c-0.2,0-0.5,0-0.7,0.1c-0.2,0.1-0.4,0.3-0.5,0.5C416,183,415.9,183.6,415.9,184.3L415.9,184.3z"/>
<path class="st6" d="M425.5,187.7c-0.4,0-0.9-0.1-1.3-0.2c-0.4-0.2-0.8-0.4-1.1-0.7c-0.3-0.3-0.6-0.7-0.7-1.1
	c-0.2-0.4-0.2-0.9-0.2-1.3v-0.2c0-0.6,0.1-1.3,0.4-1.8c0.2-0.5,0.6-0.9,1.1-1.3c0.5-0.3,1-0.5,1.6-0.4c0.4,0,0.8,0,1.2,0.2
	c0.4,0.2,0.7,0.4,1,0.7c0.5,0.7,0.8,1.6,0.8,2.5v0.6h-4.5c0,0.5,0.2,1,0.6,1.3c0.2,0.2,0.4,0.3,0.6,0.4c0.2,0.1,0.4,0.1,0.7,0.1
	c0.3,0,0.7-0.1,1-0.2c0.3-0.1,0.6-0.4,0.8-0.6l0.8,0.8c-0.3,0.4-0.6,0.7-1.1,0.9C426.6,187.6,426.1,187.7,425.5,187.7z M425.3,181.9
	c-0.2,0-0.4,0-0.6,0.1c-0.2,0.1-0.3,0.2-0.5,0.3c-0.3,0.4-0.5,0.8-0.5,1.2h2.9v-0.1c0-0.4-0.1-0.8-0.4-1.2c-0.1-0.1-0.3-0.2-0.5-0.3
	C425.7,181.9,425.5,181.9,425.3,181.9z"/>
<path class="st6" d="M430.8,178.8l-0.2,2.4h-0.9v-3.3h1.1V178.8z M432.7,178.8l-0.2,2.4h-0.9v-3.3h1.1V178.8z"/>
<path class="st2" d="M438.6,188.4h-1.2l3.6-10h1.2L438.6,188.4z"/>
<path class="st2" d="M447.8,183.6l-3.9-1.4v-1.5l5.5,2.3v1.2l-5.5,2.3V185L447.8,183.6z"/>
<path class="st2" d="M94.1,199.1l3.8,1.4v1.5l-5.3-2.4v-1.2l5.3-2.3v1.6L94.1,199.1z"/>
<path class="st3" d="M101.6,203.1h-1.5v-9.7h1.5V203.1z"/>
<path class="st3" d="M103.7,194.5c0-0.2,0.1-0.4,0.2-0.6c0.2-0.2,0.4-0.2,0.7-0.2c0.2,0,0.5,0.1,0.7,0.2c0.1,0.1,0.1,0.2,0.2,0.3
	c0,0.1,0.1,0.2,0.1,0.3c0,0.1,0,0.2-0.1,0.3c0,0.1-0.1,0.2-0.2,0.3c-0.2,0.1-0.4,0.2-0.7,0.2c-0.2,0-0.5-0.1-0.7-0.2
	c-0.1-0.1-0.1-0.2-0.2-0.3C103.8,194.7,103.7,194.6,103.7,194.5z M105.4,203.1h-1.5v-6.8h1.5V203.1z"/>
<path class="st3" d="M109,196.3l0.1,0.8c0.2-0.3,0.5-0.5,0.9-0.7c0.3-0.2,0.7-0.2,1.1-0.2c1.4,0,2.2,0.8,2.2,2.4v4.5h-1.5v-4.4
	c0-0.3-0.1-0.7-0.3-1c-0.1-0.1-0.3-0.2-0.4-0.3c-0.2-0.1-0.3-0.1-0.5-0.1c-0.3,0-0.6,0.1-0.8,0.2s-0.4,0.4-0.6,0.6v4.9h-1.5v-6.8
	H109z"/>
<path class="st3" d="M117.5,200.2l-0.7,0.7v2.2h-1.5v-9.7h1.5v5.6l0.5-0.6l1.9-2.1h1.9l-2.6,2.8l2.8,4h-1.8L117.5,200.2z"/>
<path class="st4" d="M129.8,197.7c-0.2,0-0.4,0-0.7,0c-0.3,0-0.6,0-0.8,0.2c-0.3,0.1-0.5,0.4-0.6,0.6v4.7h-1.5v-6.9h1.5l0,0.8
	c0.2-0.3,0.4-0.5,0.6-0.7c0.3-0.2,0.6-0.2,0.9-0.2c0.2,0,0.4,0,0.5,0.1L129.8,197.7z"/>
<path class="st4" d="M134.1,203.2c-0.4,0-0.9-0.1-1.3-0.2c-0.4-0.2-0.8-0.4-1.1-0.7c-0.3-0.3-0.6-0.7-0.7-1.1
	c-0.2-0.4-0.2-0.9-0.2-1.3v-0.2c0-0.6,0.1-1.3,0.4-1.8c0.2-0.5,0.6-0.9,1.1-1.2c0.5-0.3,1-0.5,1.6-0.5c0.4,0,0.8,0,1.2,0.2
	c0.4,0.2,0.7,0.4,1,0.7c0.5,0.7,0.8,1.6,0.8,2.5v0.6h-4.5c0,0.5,0.2,1,0.6,1.3c0.2,0.2,0.4,0.3,0.6,0.4s0.4,0.1,0.7,0.1
	c0.3,0,0.7-0.1,1-0.2c0.3-0.1,0.6-0.4,0.8-0.6l0.8,0.8c-0.3,0.4-0.7,0.7-1.1,0.9C135.2,203.1,134.6,203.2,134.1,203.2z M133.9,197.4
	c-0.2,0-0.4,0-0.6,0.1c-0.2,0.1-0.3,0.2-0.5,0.3c-0.3,0.4-0.5,0.8-0.5,1.2h2.9v-0.1c0-0.4-0.1-0.8-0.4-1.2c-0.1-0.1-0.3-0.2-0.5-0.3
	C134.3,197.4,134.1,197.4,133.9,197.4z"/>
<path class="st4" d="M140.1,203.1h-1.5v-9.7h1.5V203.1z"/>
<path class="st2" d="M147.9,198.2h-5.5v-1.3h5.5V198.2z M147.9,200.9h-5.5v-1.3h5.5V200.9z"/>
<path class="st6" d="M151,194.3l-0.2,2.4h-0.9v-3.3h1.1V194.3z M152.9,194.3l-0.2,2.4h-0.9v-3.3h1.1V194.3z"/>
<path class="st6" d="M157.9,201.2c0-0.1,0-0.3-0.1-0.4c-0.1-0.1-0.1-0.2-0.3-0.3c-0.4-0.2-0.7-0.3-1.1-0.4c-0.4-0.1-0.9-0.2-1.3-0.4
	c-0.3-0.1-0.6-0.3-0.8-0.6c-0.2-0.3-0.3-0.6-0.3-1c0-0.3,0.1-0.6,0.2-0.8c0.1-0.3,0.3-0.5,0.6-0.6c0.5-0.4,1.2-0.6,1.9-0.6
	c0.7,0,1.4,0.2,2,0.6c0.2,0.2,0.4,0.4,0.6,0.7c0.1,0.3,0.2,0.6,0.2,0.9h-1.5c0-0.1,0-0.3-0.1-0.4c-0.1-0.1-0.1-0.2-0.2-0.3
	c-0.2-0.2-0.6-0.3-0.9-0.3c-0.3,0-0.6,0.1-0.8,0.2c-0.1,0.1-0.2,0.2-0.2,0.3c-0.1,0.1-0.1,0.2-0.1,0.4c0,0.1,0,0.2,0.1,0.3
	c0.1,0.1,0.1,0.2,0.2,0.2c0.4,0.2,0.8,0.3,1.2,0.4c0.5,0.1,1,0.3,1.4,0.5c0.3,0.1,0.6,0.4,0.8,0.6c0.2,0.3,0.3,0.6,0.3,0.9
	c0,0.3-0.1,0.6-0.2,0.8c-0.1,0.3-0.3,0.5-0.6,0.6c-0.6,0.4-1.3,0.6-2,0.6c-0.5,0-1-0.1-1.5-0.3c-0.4-0.2-0.8-0.5-1-0.8
	c-0.2-0.3-0.4-0.7-0.4-1.1h1.5c0,0.2,0,0.3,0.1,0.5c0.1,0.1,0.2,0.3,0.3,0.4c0.3,0.2,0.7,0.3,1,0.3c0.3,0,0.6-0.1,0.9-0.2
	c0.1-0.1,0.2-0.2,0.2-0.3C157.9,201.5,158,201.4,157.9,201.2z"/>
<path class="st6" d="M162.8,197c0.2-0.3,0.5-0.5,0.9-0.7c0.3-0.2,0.7-0.2,1.1-0.2c1.5,0,2.2,0.8,2.2,2.5v4.5h-1.5v-4.4
	c0-0.2,0-0.4,0-0.5c-0.1-0.2-0.1-0.3-0.3-0.5c-0.3-0.2-0.6-0.3-0.9-0.3c-0.3,0-0.6,0.1-0.8,0.2c-0.2,0.1-0.4,0.4-0.6,0.6v4.9h-1.5
	v-9.7h1.5V197z"/>
<path class="st6" d="M168.7,199.6c0-0.6,0.1-1.2,0.4-1.8c0.2-0.5,0.6-0.9,1.1-1.2c0.5-0.3,1.1-0.4,1.7-0.4c0.4,0,0.8,0.1,1.2,0.2
	c0.4,0.2,0.7,0.4,1,0.7c0.6,0.6,0.9,1.5,0.9,2.4v0.4c0,0.6-0.1,1.2-0.4,1.8c-0.2,0.5-0.6,0.9-1.1,1.2c-0.5,0.3-1.1,0.4-1.7,0.4
	c-0.4,0-0.9-0.1-1.3-0.2c-0.4-0.2-0.8-0.4-1.1-0.7C168.9,201.6,168.6,200.6,168.7,199.6L168.7,199.6z M170.2,199.8
	c0,0.6,0.1,1.2,0.4,1.6c0.1,0.2,0.3,0.3,0.5,0.4c0.2,0.1,0.4,0.2,0.7,0.2c0.2,0,0.5-0.1,0.7-0.2c0.2-0.1,0.4-0.3,0.5-0.4
	c0.3-0.5,0.5-1.2,0.4-1.8c0-0.6-0.1-1.2-0.4-1.6c-0.1-0.2-0.3-0.3-0.5-0.5c-0.2-0.1-0.4-0.2-0.7-0.1c-0.2,0-0.5,0-0.7,0.1
	c-0.2,0.1-0.4,0.3-0.5,0.4C170.3,198.5,170.2,199.1,170.2,199.8L170.2,199.8z"/>
<path class="st6" d="M180.4,197.7c-0.2,0-0.4,0-0.7,0c-0.3,0-0.6,0-0.8,0.2c-0.3,0.1-0.5,0.4-0.6,0.6v4.7h-1.5v-6.9h1.5l0,0.8
	c0.2-0.3,0.4-0.5,0.7-0.7s0.6-0.2,0.9-0.2c0.2,0,0.4,0,0.5,0.1L180.4,197.7z"/>
<path class="st6" d="M184.1,194.6v1.7h1.2v1.1h-1.2v3.8c0,0.2,0,0.4,0.2,0.6c0.1,0.1,0.2,0.1,0.3,0.1c0.1,0,0.2,0,0.3,0
	c0.2,0,0.4,0,0.5-0.1v1.2c-0.3,0.1-0.7,0.1-1,0.1c-1.2,0-1.8-0.6-1.8-1.9v-3.9h-1.1v-1.1h1.1v-1.7L184.1,194.6z"/>
<path class="st6" d="M189.8,202c0.4,0,0.7-0.1,1-0.3c0.1-0.1,0.2-0.2,0.3-0.4c0.1-0.1,0.1-0.3,0.1-0.5h1.5c0,0.4-0.2,0.8-0.4,1.2
	c-0.3,0.4-0.6,0.7-1,0.9c-0.4,0.2-0.9,0.3-1.4,0.3c-0.4,0-0.9-0.1-1.2-0.2c-0.4-0.2-0.7-0.4-1-0.7c-0.6-0.7-0.9-1.6-0.8-2.6v-0.2
	c0-0.9,0.3-1.8,0.8-2.5c0.3-0.3,0.6-0.6,1-0.7c0.4-0.2,0.8-0.2,1.2-0.2c0.7,0,1.5,0.2,2,0.7c0.3,0.2,0.5,0.5,0.6,0.8
	c0.1,0.3,0.2,0.7,0.2,1h-1.5c0-0.4-0.1-0.7-0.4-1c-0.1-0.1-0.3-0.2-0.4-0.3c-0.2-0.1-0.3-0.1-0.5-0.1c-0.2,0-0.4,0-0.6,0.1
	c-0.2,0.1-0.4,0.2-0.5,0.4c-0.3,0.5-0.4,1.1-0.4,1.6v0.3c0,0.6,0.1,1.2,0.4,1.7c0.1,0.2,0.3,0.3,0.5,0.4
	C189.3,202,189.5,202,189.8,202z"/>
<path class="st6" d="M198.4,202.4c-0.2,0.3-0.5,0.5-0.9,0.6c-0.3,0.1-0.7,0.2-1.1,0.2c-0.3,0-0.6,0-0.9-0.1
	c-0.3-0.1-0.6-0.3-0.8-0.5c-0.4-0.5-0.6-1.2-0.6-1.9v-4.4h1.5v4.4c0,0.9,0.4,1.3,1.1,1.3c0.3,0,0.6,0,0.9-0.2
	c0.3-0.1,0.5-0.4,0.6-0.6v-4.9h1.5v6.8h-1.5L198.4,202.4z"/>
<path class="st6" d="M203.8,194.6v1.7h1.2v1.1h-1.2v3.8c0,0.2,0,0.4,0.2,0.6c0.1,0.1,0.2,0.1,0.3,0.1c0.1,0,0.2,0,0.3,0
	c0.2,0,0.4,0,0.5-0.1v1.2c-0.3,0.1-0.7,0.1-1,0.1c-1.2,0-1.8-0.6-1.8-1.9v-3.9h-1.1v-1.1h1.1v-1.7L203.8,194.6z"/>
<path class="st6" d="M210.4,194.5c0-0.1,0-0.2,0.1-0.3c0-0.1,0.1-0.2,0.2-0.3c0.2-0.2,0.4-0.2,0.7-0.2c0.2,0,0.5,0.1,0.6,0.2
	c0.1,0.1,0.1,0.2,0.2,0.3s0.1,0.2,0.1,0.3c0,0.1,0,0.2-0.1,0.3c0,0.1-0.1,0.2-0.2,0.3c-0.2,0.1-0.4,0.2-0.6,0.2s-0.5-0.1-0.7-0.2
	c-0.1-0.1-0.1-0.2-0.2-0.3C210.4,194.7,210.4,194.6,210.4,194.5z M212,203.1h-1.5v-6.8h1.5L212,203.1z"/>
<path class="st6" d="M217,202c0.4,0,0.7-0.1,1-0.3c0.1-0.1,0.2-0.2,0.3-0.4c0.1-0.1,0.1-0.3,0.1-0.5h1.5c0,0.4-0.2,0.8-0.4,1.2
	c-0.3,0.4-0.6,0.7-1,0.9c-0.4,0.2-0.9,0.3-1.4,0.3c-0.4,0-0.9-0.1-1.2-0.2c-0.4-0.2-0.7-0.4-1-0.7c-0.6-0.7-0.9-1.6-0.8-2.6v-0.2
	c0-0.9,0.3-1.8,0.8-2.5c0.3-0.3,0.6-0.6,1-0.7c0.4-0.2,0.8-0.2,1.2-0.2c0.7,0,1.4,0.2,2,0.7c0.3,0.2,0.5,0.5,0.6,0.8s0.2,0.7,0.2,1
	h-1.5c0-0.4-0.1-0.7-0.4-1c-0.1-0.1-0.3-0.2-0.4-0.3c-0.2-0.1-0.3-0.1-0.5-0.1c-0.2,0-0.4,0-0.6,0.1c-0.2,0.1-0.4,0.2-0.5,0.4
	c-0.3,0.5-0.4,1.1-0.4,1.6v0.3c0,0.6,0.1,1.2,0.4,1.7c0.1,0.2,0.3,0.3,0.5,0.4C216.5,202,216.8,202,217,202z"/>
<path class="st6" d="M221.1,199.6c0-0.6,0.1-1.2,0.4-1.8c0.2-0.5,0.6-0.9,1.1-1.2c0.5-0.3,1.1-0.4,1.7-0.4c0.4,0,0.8,0.1,1.2,0.2
	c0.4,0.2,0.7,0.4,1,0.7c0.6,0.6,0.9,1.5,0.9,2.4v0.4c0,0.6-0.1,1.2-0.4,1.8c-0.2,0.5-0.6,0.9-1.1,1.2c-0.5,0.3-1.1,0.4-1.7,0.4
	c-0.4,0-0.9-0.1-1.3-0.2c-0.4-0.2-0.8-0.4-1.1-0.7C221.4,201.6,221.1,200.6,221.1,199.6L221.1,199.6z M222.7,199.8
	c0,0.6,0.1,1.2,0.4,1.6c0.1,0.2,0.3,0.3,0.5,0.4c0.2,0.1,0.4,0.2,0.7,0.2c0.2,0,0.5-0.1,0.7-0.2c0.2-0.1,0.4-0.3,0.5-0.4
	c0.3-0.5,0.5-1.2,0.4-1.8c0-0.6-0.1-1.2-0.4-1.6c-0.1-0.2-0.3-0.3-0.5-0.5c-0.2-0.1-0.4-0.2-0.7-0.1c-0.2,0-0.5,0-0.7,0.1
	c-0.2,0.1-0.4,0.3-0.5,0.4C222.8,198.5,222.6,199.1,222.7,199.8L222.7,199.8z"/>
<path class="st6" d="M230.7,196.3l0,0.8c0.2-0.3,0.5-0.5,0.9-0.7c0.3-0.2,0.7-0.2,1.1-0.2c1.4,0,2.2,0.8,2.2,2.4v4.5h-1.5v-4.4
	c0-0.3-0.1-0.7-0.3-1c-0.1-0.1-0.3-0.2-0.4-0.3c-0.2-0.1-0.3-0.1-0.5-0.1c-0.3,0-0.6,0.1-0.8,0.2s-0.4,0.4-0.6,0.6v4.9h-1.5v-6.8
	H230.7z"/>
<path class="st6" d="M237.4,194.3l-0.2,2.4h-0.9v-3.3h1.1V194.3z M239.3,194.3l-0.2,2.4h-0.9v-3.3h1.1V194.3z"/>
<path class="st4" d="M246.3,197c0.2-0.3,0.5-0.5,0.9-0.7c0.3-0.2,0.7-0.2,1.1-0.2c1.5,0,2.2,0.8,2.2,2.5v4.5h-1.5v-4.4
	c0-0.2,0-0.4-0.1-0.5c-0.1-0.2-0.1-0.3-0.3-0.5c-0.3-0.2-0.6-0.3-0.9-0.3c-0.3,0-0.6,0.1-0.8,0.2c-0.2,0.1-0.4,0.4-0.6,0.6v4.9h-1.5
	v-9.7h1.5V197z"/>
<path class="st4" d="M256.1,197.7c-0.2,0-0.4,0-0.7,0c-0.3,0-0.6,0-0.8,0.2c-0.3,0.1-0.5,0.4-0.6,0.6v4.7h-1.5v-6.9h1.5l0,0.8
	c0.2-0.3,0.4-0.5,0.6-0.7c0.3-0.2,0.6-0.2,0.9-0.2c0.2,0,0.4,0,0.5,0.1L256.1,197.7z"/>
<path class="st4" d="M260.4,203.2c-0.4,0-0.9-0.1-1.3-0.2c-0.4-0.2-0.8-0.4-1.1-0.7c-0.3-0.3-0.6-0.7-0.7-1.1
	c-0.2-0.4-0.2-0.9-0.2-1.3v-0.2c0-0.6,0.1-1.3,0.4-1.8c0.2-0.5,0.6-0.9,1.1-1.3c0.5-0.3,1-0.5,1.6-0.4c0.4,0,0.8,0,1.2,0.2
	c0.4,0.2,0.7,0.4,1,0.7c0.5,0.7,0.8,1.6,0.8,2.5v0.6h-4.5c0,0.5,0.2,1,0.6,1.3c0.2,0.2,0.4,0.3,0.6,0.4c0.2,0.1,0.4,0.1,0.7,0.1
	c0.3,0,0.7-0.1,1-0.2c0.3-0.1,0.6-0.4,0.8-0.6l0.8,0.8c-0.3,0.4-0.7,0.7-1.1,0.9C261.5,203.1,261,203.2,260.4,203.2z M260.2,197.4
	c-0.2,0-0.4,0-0.6,0.1c-0.2,0.1-0.3,0.2-0.5,0.3c-0.3,0.4-0.5,0.8-0.5,1.2h2.9v-0.1c0-0.4-0.1-0.8-0.4-1.2c-0.1-0.1-0.3-0.2-0.5-0.3
	C260.6,197.4,260.4,197.4,260.2,197.4z"/>
<path class="st4" d="M265.4,203.1v-5.7h-1v-1.1h1v-0.6c0-0.3,0-0.6,0.1-0.9s0.3-0.6,0.5-0.8c0.2-0.2,0.5-0.4,0.8-0.5
	c0.3-0.1,0.6-0.2,1-0.1c0.3,0,0.6,0,0.9,0.1l0,1.2c-0.2,0-0.4-0.1-0.6-0.1c-0.2,0-0.3,0-0.5,0c-0.1,0.1-0.3,0.1-0.4,0.2
	c-0.1,0.1-0.2,0.2-0.2,0.4c0,0.1-0.1,0.3,0,0.5v0.6h1.4v1.1h-1.4v5.7L265.4,203.1z"/>
<path class="st2" d="M275.5,198.2h-5.5v-1.3h5.5V198.2z M275.5,200.9h-5.5v-1.3h5.5V200.9z"/>
<path class="st6" d="M278.6,194.3l-0.2,2.4h-0.9v-3.3h1.1L278.6,194.3z M280.5,194.3l-0.2,2.4h-0.9v-3.3h1.1L280.5,194.3z"/>
<path class="st6" d="M282.3,194.5c0-0.2,0.1-0.4,0.2-0.6c0.1-0.1,0.2-0.1,0.3-0.2c0.1,0,0.2-0.1,0.4,0c0.1,0,0.2,0,0.3,0
	c0.1,0,0.2,0.1,0.3,0.2c0.2,0.2,0.2,0.4,0.2,0.6c0,0.1,0,0.2-0.1,0.3c0,0.1-0.1,0.2-0.2,0.3c-0.1,0.1-0.2,0.1-0.3,0.2
	c-0.1,0-0.2,0.1-0.3,0c-0.1,0-0.2,0-0.3,0s-0.2-0.1-0.3-0.2c-0.1-0.1-0.1-0.2-0.2-0.3C282.3,194.7,282.3,194.6,282.3,194.5z
	 M284,203.1h-1.5v-6.8h1.5V203.1z"/>
<path class="st6" d="M287.5,196.3l0,0.7c0.2-0.3,0.5-0.5,0.9-0.6c0.3-0.1,0.7-0.2,1.1-0.2c0.4,0,0.8,0,1.1,0.2
	c0.3,0.2,0.6,0.5,0.8,0.8c0.2-0.3,0.5-0.6,0.9-0.8c0.4-0.2,0.8-0.3,1.2-0.3c0.3,0,0.6,0,0.9,0.1c0.3,0.1,0.6,0.3,0.8,0.5
	c0.4,0.5,0.6,1.2,0.6,1.8v4.5h-1.5v-4.4c0-0.3-0.1-0.7-0.3-1c-0.1-0.1-0.3-0.2-0.4-0.2c-0.2-0.1-0.3-0.1-0.5-0.1
	c-0.3,0-0.6,0.1-0.9,0.3c-0.2,0.2-0.4,0.4-0.5,0.7v4.7h-1.5v-4.5c0-0.2,0-0.3-0.1-0.5c-0.1-0.2-0.1-0.3-0.3-0.4
	c-0.1-0.1-0.3-0.2-0.4-0.3c-0.2-0.1-0.3-0.1-0.5,0c-0.3,0-0.5,0-0.8,0.2c-0.2,0.1-0.4,0.3-0.5,0.6v4.9h-1.5v-6.8H287.5z"/>
<path class="st6" d="M302,203.1c-0.1-0.2-0.1-0.4-0.2-0.6c-0.5,0.5-1.1,0.7-1.7,0.8c-0.6,0-1.3-0.2-1.8-0.6
	c-0.2-0.2-0.4-0.4-0.5-0.7c-0.1-0.3-0.2-0.5-0.2-0.8c0-0.3,0.1-0.6,0.2-0.9c0.1-0.3,0.4-0.5,0.6-0.7c0.7-0.4,1.5-0.6,2.3-0.6h0.9
	v-0.5c0-0.3-0.1-0.6-0.3-0.8c-0.1-0.1-0.3-0.2-0.4-0.3c-0.2-0.1-0.3-0.1-0.5-0.1c-0.3,0-0.6,0.1-0.9,0.3c-0.1,0.1-0.2,0.2-0.2,0.3
	c-0.1,0.1-0.1,0.2-0.1,0.4h-1.5c0-0.4,0.1-0.7,0.4-1c0.3-0.3,0.6-0.6,1-0.8c0.5-0.2,0.9-0.3,1.4-0.3c0.7,0,1.4,0.2,2,0.6
	c0.2,0.2,0.4,0.5,0.6,0.8c0.1,0.3,0.2,0.6,0.2,0.9v3.1c0,0.5,0.1,1,0.3,1.5v0.1L302,203.1z M300.3,202c0.3,0,0.6-0.1,0.9-0.2
	c0.3-0.1,0.5-0.3,0.6-0.6v-1.3h-0.8c-0.5,0-0.9,0.1-1.3,0.3c-0.1,0.1-0.2,0.2-0.3,0.4c-0.1,0.1-0.1,0.3-0.1,0.5c0,0.1,0,0.3,0.1,0.4
	c0.1,0.1,0.1,0.2,0.2,0.3C299.7,201.9,300,202,300.3,202z"/>
<path class="st6" d="M305.1,199.6c0-0.9,0.2-1.8,0.7-2.5c0.2-0.3,0.5-0.5,0.9-0.7c0.3-0.2,0.7-0.2,1.1-0.2c0.4,0,0.7,0,1,0.2
	c0.3,0.1,0.6,0.4,0.8,0.6l0.1-0.7h1.4v6.6c0,0.4,0,0.8-0.2,1.1c-0.1,0.4-0.4,0.7-0.7,1c-0.6,0.5-1.4,0.8-2.3,0.8
	c-0.5,0-1-0.1-1.5-0.3c-0.4-0.2-0.8-0.5-1.1-0.8l0.7-0.9c0.2,0.3,0.5,0.5,0.8,0.6c0.3,0.1,0.6,0.2,1,0.2c0.4,0,0.9-0.1,1.2-0.4
	c0.2-0.2,0.3-0.4,0.4-0.6c0.1-0.2,0.1-0.4,0.1-0.7v-0.5c-0.2,0.2-0.5,0.4-0.8,0.6c-0.3,0.1-0.6,0.2-1,0.2c-0.4,0-0.8-0.1-1.1-0.2
	c-0.3-0.2-0.6-0.4-0.9-0.7C305.3,201.5,305.1,200.6,305.1,199.6z M306.6,199.8c0,0.6,0.1,1.1,0.4,1.6c0.1,0.2,0.3,0.3,0.5,0.4
	c0.2,0.1,0.4,0.2,0.7,0.1c0.3,0,0.6-0.1,0.8-0.2c0.2-0.1,0.4-0.3,0.6-0.6v-3c-0.1-0.2-0.3-0.5-0.6-0.6c-0.2-0.1-0.5-0.2-0.8-0.2
	c-0.2,0-0.5,0-0.7,0.1c-0.2,0.1-0.4,0.3-0.5,0.5C306.7,198.5,306.6,199.2,306.6,199.8L306.6,199.8z"/>
<path class="st6" d="M316.2,203.2c-0.4,0-0.9-0.1-1.3-0.2c-0.4-0.2-0.8-0.4-1.1-0.7c-0.3-0.3-0.5-0.7-0.7-1.1
	c-0.2-0.4-0.2-0.9-0.2-1.3v-0.2c0-0.6,0.1-1.3,0.4-1.8c0.2-0.5,0.6-0.9,1.1-1.3c0.5-0.3,1-0.5,1.6-0.4c0.4,0,0.8,0,1.2,0.2
	c0.4,0.2,0.7,0.4,1,0.7c0.6,0.7,0.8,1.6,0.8,2.5v0.6h-4.5c0,0.5,0.2,1,0.6,1.3c0.2,0.2,0.4,0.3,0.6,0.4c0.2,0.1,0.4,0.1,0.7,0.1
	c0.3,0,0.7-0.1,1-0.2c0.3-0.1,0.6-0.4,0.8-0.6l0.8,0.8c-0.3,0.4-0.7,0.7-1.1,0.9C317.3,203.1,316.7,203.2,316.2,203.2z M316,197.4
	c-0.2,0-0.4,0-0.6,0.1c-0.2,0.1-0.3,0.2-0.5,0.3c-0.3,0.4-0.5,0.8-0.5,1.2h2.9v-0.1c0-0.4-0.1-0.8-0.4-1.2c-0.1-0.1-0.3-0.2-0.5-0.3
	C316.4,197.4,316.2,197.4,316,197.4z"/>
<path class="st6" d="M324.5,201.2c0-0.1,0-0.3-0.1-0.4c-0.1-0.1-0.1-0.2-0.3-0.3c-0.4-0.2-0.7-0.3-1.1-0.4c-0.4-0.1-0.9-0.2-1.3-0.4
	c-0.3-0.1-0.6-0.3-0.8-0.6c-0.2-0.3-0.3-0.6-0.3-1c0-0.3,0.1-0.6,0.2-0.8c0.1-0.3,0.3-0.5,0.6-0.6c0.5-0.4,1.2-0.6,1.9-0.6
	c0.7,0,1.4,0.2,2,0.6c0.2,0.2,0.4,0.4,0.6,0.7s0.2,0.6,0.2,0.9h-1.5c0-0.1,0-0.3-0.1-0.4c-0.1-0.1-0.1-0.2-0.2-0.3
	c-0.2-0.2-0.6-0.3-0.9-0.3c-0.3,0-0.6,0.1-0.8,0.2c-0.1,0.1-0.2,0.2-0.2,0.3c-0.1,0.1-0.1,0.2-0.1,0.4c0,0.1,0,0.2,0.1,0.3
	c0.1,0.1,0.1,0.2,0.2,0.2c0.4,0.2,0.8,0.3,1.2,0.4c0.5,0.1,1,0.3,1.4,0.5c0.3,0.1,0.6,0.4,0.8,0.6c0.2,0.3,0.3,0.6,0.3,0.9
	c0,0.3-0.1,0.6-0.2,0.8c-0.1,0.3-0.3,0.5-0.6,0.7c-0.6,0.4-1.3,0.6-2,0.6c-0.5,0-1-0.1-1.5-0.3c-0.4-0.2-0.8-0.5-1-0.8
	c-0.2-0.3-0.4-0.7-0.4-1.1h1.5c0,0.2,0,0.3,0.1,0.5c0.1,0.1,0.2,0.3,0.3,0.4c0.3,0.2,0.6,0.3,1,0.3c0.3,0,0.7-0.1,0.9-0.2
	c0.1-0.1,0.2-0.2,0.2-0.3C324.5,201.5,324.5,201.4,324.5,201.2z"/>
<path class="st6" d="M328.2,203.9H327l3.6-10h1.2L328.2,203.9z"/>
<path class="st6" d="M333.9,203.1v-5.7h-1v-1.1h1v-0.6c0-0.3,0-0.6,0.1-0.9c0.1-0.3,0.3-0.6,0.5-0.8c0.2-0.2,0.5-0.4,0.8-0.5
	c0.3-0.1,0.6-0.2,1-0.1c0.3,0,0.6,0,0.9,0.1l0,1.2c-0.2,0-0.4-0.1-0.6-0.1c-0.2,0-0.3,0-0.5,0c-0.1,0.1-0.3,0.1-0.4,0.2
	c-0.1,0.1-0.2,0.2-0.2,0.4c0,0.1-0.1,0.3,0,0.5v0.6h1.4v1.1h-1.4v5.7L333.9,203.1z"/>
<path class="st6" d="M342.6,203.1c-0.1-0.2-0.2-0.4-0.2-0.6c-0.5,0.5-1.1,0.7-1.7,0.8c-0.6,0-1.3-0.2-1.8-0.6
	c-0.2-0.2-0.4-0.4-0.5-0.7c-0.1-0.3-0.2-0.5-0.2-0.8c0-0.3,0-0.6,0.2-0.9c0.1-0.3,0.4-0.5,0.6-0.7c0.7-0.4,1.5-0.6,2.3-0.6h0.9v-0.5
	c0-0.3-0.1-0.6-0.3-0.8c-0.1-0.1-0.3-0.2-0.4-0.3c-0.2-0.1-0.3-0.1-0.5-0.1c-0.3,0-0.6,0.1-0.9,0.3c-0.1,0.1-0.2,0.2-0.2,0.3
	c-0.1,0.1-0.1,0.2-0.1,0.4h-1.5c0-0.4,0.1-0.8,0.4-1c0.3-0.3,0.6-0.6,1-0.8c0.5-0.2,0.9-0.3,1.4-0.3c0.7,0,1.4,0.2,2,0.6
	c0.2,0.2,0.4,0.5,0.6,0.8c0.1,0.3,0.2,0.6,0.2,0.9v3.1c0,0.5,0.1,1,0.3,1.5v0.1L342.6,203.1z M340.9,202c0.3,0,0.6-0.1,0.9-0.2
	c0.3-0.1,0.5-0.3,0.6-0.6v-1.3h-0.8c-0.5,0-0.9,0.1-1.3,0.3c-0.1,0.1-0.2,0.2-0.3,0.4c-0.1,0.1-0.1,0.3-0.1,0.5c0,0.1,0,0.3,0.1,0.4
	c0.1,0.1,0.1,0.2,0.2,0.3C340.3,201.9,340.6,202,340.9,202z"/>
<path class="st6" d="M348.3,201.2l1.5-4.9h1.6l-2.4,6.8h-1.3l-2.4-6.8h1.6L348.3,201.2z"/>
<path class="st6" d="M352.7,201.5c0.1,0,0.2,0,0.4,0.1c0.1,0,0.2,0.1,0.3,0.2c0.1,0.1,0.1,0.2,0.2,0.3c0,0.1,0.1,0.2,0.1,0.3
	c0,0.1,0,0.2-0.1,0.3c0,0.1-0.1,0.2-0.2,0.3c-0.1,0.1-0.2,0.1-0.3,0.2c-0.1,0-0.2,0.1-0.3,0.1c-0.2,0-0.5-0.1-0.7-0.2
	c-0.1-0.1-0.1-0.2-0.2-0.3c0-0.1-0.1-0.2-0.1-0.3c0-0.1,0-0.2,0.1-0.3c0-0.1,0.1-0.2,0.2-0.3c0.1-0.1,0.2-0.1,0.3-0.2
	C352.4,201.5,352.5,201.5,352.7,201.5z"/>
<path class="st6" d="M361.8,199.8c0,0.9-0.2,1.8-0.7,2.5c-0.2,0.3-0.5,0.5-0.9,0.7c-0.3,0.2-0.7,0.2-1.1,0.2c-0.3,0-0.7,0-1-0.2
	c-0.3-0.1-0.6-0.3-0.8-0.6v3.2h-1.5v-9.4h1.4l0.1,0.7c0.2-0.3,0.5-0.5,0.8-0.6c0.3-0.1,0.7-0.2,1-0.2c0.4,0,0.8,0.1,1.1,0.2
	s0.6,0.4,0.9,0.7C361.6,197.8,361.8,198.7,361.8,199.8L361.8,199.8z M360.3,199.6c0-0.6-0.1-1.1-0.4-1.6c-0.1-0.2-0.3-0.4-0.5-0.5
	c-0.2-0.1-0.4-0.2-0.7-0.1c-0.3,0-0.6,0-0.8,0.2c-0.2,0.1-0.4,0.3-0.6,0.6v3c0.1,0.3,0.3,0.5,0.6,0.6c0.2,0.1,0.5,0.2,0.8,0.2
	c0.2,0,0.5,0,0.7-0.1c0.2-0.1,0.4-0.3,0.5-0.4C360.2,200.9,360.3,200.3,360.3,199.6L360.3,199.6z"/>
<path class="st6" d="M365,196.3l0,0.8c0.2-0.3,0.5-0.5,0.9-0.7c0.3-0.2,0.7-0.2,1.1-0.2c1.4,0,2.2,0.8,2.2,2.4v4.5h-1.5v-4.4
	c0-0.3-0.1-0.7-0.3-1c-0.1-0.1-0.3-0.2-0.4-0.3c-0.2-0.1-0.3-0.1-0.5-0.1c-0.3,0-0.6,0.1-0.8,0.2c-0.2,0.1-0.4,0.4-0.6,0.6v4.9h-1.5
	v-6.8H365z"/>
<path class="st6" d="M371,199.6c0-0.9,0.2-1.8,0.8-2.5c0.2-0.3,0.5-0.6,0.9-0.7c0.3-0.2,0.7-0.2,1.1-0.2c0.4,0,0.7,0,1,0.2
	c0.3,0.1,0.6,0.4,0.8,0.6l0.1-0.7h1.4v6.6c0,0.4,0,0.8-0.2,1.1c-0.1,0.4-0.4,0.7-0.7,1c-0.6,0.5-1.4,0.8-2.3,0.8
	c-0.5,0-1-0.1-1.5-0.3c-0.4-0.2-0.8-0.5-1.1-0.8l0.7-0.9c0.2,0.3,0.5,0.5,0.8,0.6c0.3,0.1,0.6,0.2,1,0.2c0.4,0,0.9-0.1,1.2-0.4
	c0.2-0.2,0.3-0.4,0.4-0.6c0.1-0.2,0.1-0.4,0.1-0.7v-0.5c-0.2,0.2-0.5,0.4-0.8,0.6c-0.3,0.1-0.6,0.2-1,0.2c-0.4,0-0.8-0.1-1.1-0.2
	c-0.3-0.2-0.6-0.4-0.9-0.7C371.2,201.5,370.9,200.6,371,199.6z M372.5,199.8c0,0.6,0.1,1.1,0.4,1.6c0.1,0.2,0.3,0.3,0.5,0.4
	c0.2,0.1,0.4,0.2,0.7,0.1c0.3,0,0.6-0.1,0.8-0.2c0.2-0.1,0.4-0.3,0.6-0.6v-3c-0.1-0.2-0.3-0.5-0.6-0.6c-0.2-0.1-0.5-0.2-0.8-0.2
	c-0.2,0-0.5,0-0.7,0.1c-0.2,0.1-0.4,0.3-0.5,0.5C372.6,198.5,372.5,199.2,372.5,199.8L372.5,199.8z"/>
<path class="st6" d="M380,194.3l-0.2,2.4H379v-3.3h1.1L380,194.3z M381.9,194.3l-0.2,2.4h-0.9v-3.3h1.1V194.3z"/>
<path class="st7" d="M387.9,203.9h-1.2l3.6-10h1.2L387.9,203.9z"/>
<path class="st7" d="M397,199.1l-3.9-1.4v-1.5l5.5,2.3v1.2l-5.5,2.3v-1.5L397,199.1z"/>
<path class="st2" d="M94.1,214.6l3.8,1.4v1.5l-5.3-2.4V214l5.3-2.3v1.6L94.1,214.6z"/>
<path class="st3" d="M101.9,210.1v1.7h1.2v1.1h-1.2v3.8c0,0.2,0,0.4,0.2,0.6c0.1,0.1,0.2,0.1,0.3,0.1c0.1,0,0.2,0,0.3,0
	c0.2,0,0.4,0,0.5-0.1v1.2c-0.3,0.1-0.7,0.1-1,0.1c-1.2,0-1.8-0.6-1.8-1.9v-3.9h-1.1v-1.1h1.1v-1.7L101.9,210.1z"/>
<path class="st3" d="M104.8,210c0-0.2,0.1-0.4,0.2-0.6c0.1-0.1,0.2-0.1,0.3-0.2c0.1,0,0.2-0.1,0.4,0c0.1,0,0.2,0,0.3,0.1
	c0.1,0,0.2,0.1,0.3,0.2c0.2,0.2,0.2,0.4,0.2,0.6c0,0.1,0,0.2-0.1,0.3c0,0.1-0.1,0.2-0.2,0.3c-0.1,0.1-0.2,0.1-0.3,0.2
	c-0.1,0-0.2,0.1-0.3,0c-0.1,0-0.2,0-0.3,0c-0.1,0-0.2-0.1-0.3-0.2c-0.1-0.1-0.1-0.2-0.2-0.3C104.8,210.2,104.8,210.1,104.8,210z
	 M106.4,218.6h-1.6v-6.8h1.6V218.6z"/>
<path class="st3" d="M110.5,210.1v1.7h1.2v1.1h-1.2v3.8c0,0.2,0,0.4,0.2,0.6c0.1,0.1,0.2,0.1,0.3,0.1c0.1,0,0.2,0,0.3,0
	c0.2,0,0.4,0,0.5-0.1v1.2c-0.3,0.1-0.7,0.1-1,0.1c-1.2,0-1.8-0.6-1.8-1.9v-3.9h-1.1v-1.1h1.1v-1.7L110.5,210.1z"/>
<path class="st3" d="M115,218.6h-1.5v-9.7h1.5V218.6z"/>
<path class="st3" d="M120.1,218.7c-0.4,0-0.9-0.1-1.3-0.2c-0.4-0.2-0.8-0.4-1.1-0.7c-0.3-0.3-0.5-0.7-0.7-1.1
	c-0.2-0.4-0.2-0.9-0.2-1.3v-0.2c0-0.6,0.1-1.3,0.4-1.8c0.2-0.5,0.6-0.9,1.1-1.3c0.5-0.3,1-0.5,1.6-0.4c0.4,0,0.8,0,1.2,0.2
	c0.4,0.2,0.7,0.4,1,0.7c0.6,0.7,0.8,1.6,0.8,2.5v0.6h-4.5c0,0.5,0.2,1,0.6,1.3c0.2,0.2,0.4,0.3,0.6,0.4c0.2,0.1,0.4,0.1,0.7,0.1
	c0.3,0,0.7-0.1,1-0.2c0.3-0.1,0.6-0.4,0.8-0.6l0.8,0.8c-0.3,0.4-0.7,0.7-1.1,0.9C121.2,218.6,120.6,218.8,120.1,218.7z M119.9,212.9
	c-0.2,0-0.4,0-0.6,0.1c-0.2,0.1-0.3,0.2-0.5,0.3c-0.3,0.4-0.5,0.8-0.5,1.2h3v-0.1c0-0.4-0.1-0.8-0.4-1.2c-0.1-0.1-0.3-0.2-0.5-0.3
	C120.3,212.9,120.1,212.9,119.9,212.9z"/>
<path class="st2" d="M128.5,214.6l-3.9-1.4v-1.5l5.5,2.3v1.2l-5.5,2.3v-1.5L128.5,214.6z"/>
<path class="st2" d="M79.3,230.1l3.7,1.4v1.5l-5.3-2.4v-1.2l5.3-2.3v1.6L79.3,230.1z"/>
<path class="st2" d="M85.6,234.9h-1.2l3.6-10h1.2L85.6,234.9z"/>
<path class="st3" d="M92.3,228c0.2-0.3,0.5-0.5,0.9-0.7c0.3-0.2,0.7-0.2,1.1-0.2c1.5,0,2.2,0.8,2.2,2.5v4.5h-1.5v-4.4
	c0-0.2,0-0.4-0.1-0.5c-0.1-0.2-0.1-0.3-0.3-0.5c-0.3-0.2-0.6-0.3-0.9-0.3c-0.3,0-0.6,0.1-0.8,0.2c-0.2,0.1-0.4,0.4-0.6,0.6v4.9h-1.5
	v-9.7h1.5L92.3,228z"/>
<path class="st3" d="M101.5,234.2c-0.4,0-0.9-0.1-1.3-0.2c-0.4-0.2-0.8-0.4-1.1-0.7c-0.3-0.3-0.6-0.7-0.7-1.1
	c-0.2-0.4-0.2-0.9-0.2-1.3v-0.2c0-0.6,0.1-1.3,0.4-1.8c0.2-0.5,0.6-0.9,1.1-1.3c0.5-0.3,1-0.5,1.6-0.4c0.4,0,0.8,0,1.2,0.2
	c0.4,0.2,0.7,0.4,1,0.7c0.6,0.7,0.8,1.6,0.8,2.5v0.6h-4.5c0,0.5,0.2,1,0.6,1.3c0.2,0.2,0.4,0.3,0.6,0.4c0.2,0.1,0.4,0.1,0.7,0.1
	c0.3,0,0.7-0.1,1-0.2c0.3-0.1,0.6-0.4,0.8-0.6l0.8,0.8c-0.3,0.4-0.7,0.7-1.1,0.9C102.6,234.2,102,234.3,101.5,234.2z M101.3,228.4
	c-0.2,0-0.4,0-0.6,0.1c-0.2,0.1-0.3,0.2-0.5,0.3c-0.3,0.4-0.5,0.8-0.5,1.2h2.9V230c0-0.4-0.1-0.8-0.4-1.2c-0.1-0.1-0.3-0.2-0.5-0.3
	C101.7,228.4,101.5,228.4,101.3,228.4z"/>
<path class="st3" d="M110,234.1c-0.1-0.2-0.2-0.4-0.2-0.6c-0.5,0.5-1.1,0.7-1.7,0.8c-0.6,0-1.3-0.2-1.8-0.6
	c-0.2-0.2-0.4-0.4-0.5-0.7c-0.1-0.3-0.2-0.5-0.2-0.8c0-0.3,0-0.6,0.2-0.9c0.1-0.3,0.4-0.5,0.6-0.7c0.7-0.4,1.5-0.6,2.3-0.6h0.9v-0.5
	c0-0.3-0.1-0.6-0.3-0.8c-0.1-0.1-0.3-0.2-0.4-0.3c-0.2-0.1-0.3-0.1-0.5-0.1c-0.3,0-0.6,0.1-0.9,0.3c-0.1,0.1-0.2,0.2-0.2,0.3
	c-0.1,0.1-0.1,0.2-0.1,0.4h-1.5c0-0.4,0.1-0.8,0.4-1c0.3-0.3,0.6-0.6,1-0.8c0.5-0.2,0.9-0.3,1.4-0.3c0.7,0,1.4,0.2,1.9,0.6
	c0.2,0.2,0.4,0.5,0.6,0.8c0.1,0.3,0.2,0.6,0.2,0.9v3.1c0,0.5,0.1,1,0.3,1.5v0.1L110,234.1z M108.3,233c0.3,0,0.6-0.1,0.9-0.2
	c0.3-0.1,0.5-0.3,0.6-0.6v-1.3h-0.8c-0.5,0-0.9,0.1-1.3,0.3c-0.1,0.1-0.2,0.2-0.3,0.4c-0.1,0.1-0.1,0.3-0.1,0.5c0,0.1,0,0.3,0.1,0.4
	c0,0.1,0.1,0.2,0.2,0.3C107.7,232.9,108,233,108.3,233z"/>
<path class="st3" d="M113.1,230.7c0-0.9,0.2-1.8,0.7-2.5c0.2-0.3,0.5-0.5,0.9-0.7c0.3-0.2,0.7-0.2,1.1-0.2c0.3,0,0.7,0.1,1,0.2
	s0.6,0.3,0.8,0.6v-3.5h1.5v9.7h-1.4l-0.1-0.7c-0.2,0.3-0.5,0.5-0.8,0.6c-0.3,0.1-0.7,0.2-1,0.2c-0.4,0-0.8-0.1-1.1-0.2
	c-0.3-0.2-0.6-0.4-0.9-0.7C113.3,232.5,113,231.6,113.1,230.7z M114.6,230.8c0,0.6,0.1,1.1,0.4,1.6c0.1,0.2,0.3,0.3,0.5,0.4
	c0.2,0.1,0.4,0.2,0.7,0.1c0.3,0,0.6-0.1,0.8-0.2c0.2-0.1,0.4-0.4,0.6-0.6v-2.9c-0.1-0.3-0.3-0.5-0.6-0.6c-0.2-0.1-0.5-0.2-0.8-0.2
	c-0.2,0-0.5,0-0.7,0.1c-0.2,0.1-0.4,0.3-0.5,0.5C114.7,229.6,114.6,230.2,114.6,230.8L114.6,230.8z"/>
<path class="st3" d="M124.2,234.2c-0.4,0-0.9-0.1-1.3-0.2c-0.4-0.2-0.8-0.4-1.1-0.7c-0.3-0.3-0.6-0.7-0.7-1.1
	c-0.2-0.4-0.2-0.9-0.2-1.3v-0.2c0-0.6,0.1-1.3,0.4-1.8c0.2-0.5,0.6-0.9,1.1-1.3c0.5-0.3,1-0.5,1.6-0.4c0.4,0,0.8,0,1.2,0.2
	c0.4,0.2,0.7,0.4,1,0.7c0.5,0.7,0.8,1.6,0.8,2.5v0.6h-4.5c0,0.5,0.2,1,0.6,1.3c0.2,0.2,0.4,0.3,0.6,0.4c0.2,0.1,0.4,0.1,0.7,0.1
	c0.3,0,0.7-0.1,1-0.2c0.3-0.1,0.6-0.4,0.8-0.6l0.8,0.8c-0.3,0.4-0.7,0.7-1.1,0.9C125.3,234.2,124.8,234.3,124.2,234.2z M124,228.4
	c-0.2,0-0.4,0-0.6,0.1s-0.3,0.2-0.5,0.3c-0.3,0.4-0.5,0.8-0.5,1.2h2.9V230c0-0.4-0.1-0.8-0.4-1.2c-0.1-0.1-0.3-0.2-0.5-0.3
	C124.4,228.4,124.2,228.4,124,228.4z"/>
<path class="st3" d="M132.2,228.7c-0.2,0-0.4,0-0.7,0c-0.3,0-0.6,0-0.8,0.2c-0.3,0.1-0.5,0.4-0.6,0.6v4.7h-1.5v-6.9h1.5l0,0.8
	c0.2-0.3,0.4-0.5,0.7-0.7s0.6-0.2,0.9-0.2c0.2,0,0.4,0,0.5,0.1L132.2,228.7z"/>
<path class="st2" d="M137.6,230.1l-3.9-1.4v-1.5l5.5,2.3v1.2l-5.5,2.3v-1.5L137.6,230.1z"/>
<path class="st2" d="M79.3,261.2l3.7,1.4v1.5l-5.3-2.4v-1.2l5.3-2.3v1.6L79.3,261.2z"/>
<path class="st3" d="M91.2,261.8c0,0.9-0.2,1.8-0.7,2.5c-0.2,0.3-0.5,0.5-0.9,0.7c-0.3,0.2-0.7,0.2-1.1,0.2c-0.4,0-0.7-0.1-1-0.2
	c-0.3-0.2-0.6-0.4-0.8-0.7l-0.1,0.7h-1.4v-9.7h1.5v3.5c0.2-0.3,0.5-0.5,0.8-0.6c0.3-0.1,0.7-0.2,1-0.2c0.4,0,0.7,0.1,1.1,0.2
	c0.3,0.2,0.6,0.4,0.9,0.7C91,259.9,91.3,260.8,91.2,261.8L91.2,261.8z M89.7,261.7c0-0.6-0.1-1.2-0.4-1.7c-0.1-0.2-0.3-0.3-0.5-0.4
	c-0.2-0.1-0.4-0.1-0.6-0.1c-0.3,0-0.6,0.1-0.8,0.2c-0.3,0.2-0.5,0.4-0.6,0.7v2.8c0.1,0.3,0.3,0.5,0.6,0.7c0.3,0.2,0.6,0.2,0.9,0.2
	c0.2,0,0.4,0,0.6-0.1c0.2-0.1,0.4-0.2,0.5-0.4c0.3-0.5,0.4-1.1,0.4-1.6V261.7z"/>
<path class="st3" d="M92.7,261.7c0-0.6,0.1-1.2,0.4-1.8c0.2-0.5,0.6-0.9,1.1-1.2c0.5-0.3,1.1-0.4,1.7-0.4c0.4,0,0.8,0.1,1.2,0.2
	c0.4,0.2,0.7,0.4,1,0.7c0.6,0.6,0.9,1.5,0.9,2.4v0.4c0,0.6-0.1,1.2-0.4,1.8c-0.2,0.5-0.6,0.9-1.1,1.2c-0.5,0.3-1.1,0.5-1.7,0.4
	c-0.4,0-0.9-0.1-1.3-0.2c-0.4-0.2-0.8-0.4-1.1-0.7C92.9,263.6,92.6,262.7,92.7,261.7L92.7,261.7z M94.2,261.8c0,0.6,0.1,1.2,0.4,1.6
	c0.1,0.2,0.3,0.3,0.5,0.4c0.2,0.1,0.4,0.2,0.7,0.2c0.2,0,0.5-0.1,0.7-0.2s0.4-0.3,0.5-0.4c0.3-0.5,0.5-1.2,0.4-1.8
	c0-0.6-0.1-1.2-0.4-1.6c-0.1-0.2-0.3-0.3-0.5-0.5c-0.2-0.1-0.4-0.2-0.7-0.1c-0.2,0-0.5,0-0.7,0.1c-0.2,0.1-0.4,0.3-0.5,0.4
	C94.3,260.6,94.2,261.2,94.2,261.8L94.2,261.8z"/>
<path class="st3" d="M100.6,261.7c0-0.9,0.2-1.8,0.7-2.5c0.2-0.3,0.5-0.5,0.9-0.7c0.3-0.2,0.7-0.2,1.1-0.2c0.3,0,0.7,0.1,1,0.2
	c0.3,0.1,0.6,0.3,0.8,0.6v-3.5h1.5v9.7h-1.4l-0.1-0.7c-0.2,0.3-0.5,0.5-0.8,0.6c-0.3,0.1-0.7,0.2-1,0.2c-0.4,0-0.8-0.1-1.1-0.2
	c-0.3-0.2-0.6-0.4-0.9-0.7C100.7,263.5,100.5,262.6,100.6,261.7z M102.1,261.8c0,0.6,0.1,1.1,0.4,1.6c0.1,0.2,0.3,0.3,0.5,0.4
	c0.2,0.1,0.4,0.2,0.6,0.1c0.3,0,0.6-0.1,0.8-0.2c0.2-0.1,0.4-0.4,0.6-0.6v-2.9c-0.1-0.3-0.3-0.5-0.6-0.6c-0.2-0.1-0.5-0.2-0.8-0.2
	c-0.2,0-0.5,0-0.7,0.1c-0.2,0.1-0.4,0.3-0.5,0.5C102.2,260.6,102,261.2,102.1,261.8L102.1,261.8z"/>
<path class="st3" d="M111,263l1.4-4.6h1.6l-2.7,7.9c-0.4,1.2-1.1,1.7-2.1,1.7c-0.3,0-0.5,0-0.7-0.1v-1.2h0.3c0.3,0,0.6-0.1,0.9-0.2
	c0.2-0.2,0.4-0.4,0.5-0.7l0.2-0.6l-2.4-6.8h1.7L111,263z"/>
<path class="st2" d="M119.4,261.1l-3.9-1.4v-1.5l5.5,2.3v1.2l-5.5,2.3v-1.5L119.4,261.1z"/>
<path class="st2" d="M79.3,276.7l3.7,1.4v1.5l-5.3-2.4V276l5.3-2.3v1.6L79.3,276.7z"/>
<path class="st2" d="M85.6,281.4h-1.2l3.6-10h1.2L85.6,281.4z"/>
<path class="st3" d="M96.8,277.3c0,0.9-0.2,1.8-0.7,2.5c-0.2,0.3-0.5,0.5-0.9,0.7c-0.3,0.2-0.7,0.2-1.1,0.2c-0.4,0-0.7-0.1-1-0.2
	c-0.3-0.1-0.6-0.4-0.8-0.7l-0.1,0.7h-1.4V271h1.5v3.5c0.2-0.3,0.5-0.5,0.8-0.6c0.3-0.1,0.7-0.2,1-0.2c0.4,0,0.7,0.1,1.1,0.2
	c0.3,0.2,0.6,0.4,0.9,0.7C96.6,275.4,96.9,276.3,96.8,277.3L96.8,277.3z M95.3,277.2c0-0.6-0.1-1.2-0.4-1.7
	c-0.1-0.2-0.3-0.3-0.5-0.4c-0.2-0.1-0.4-0.1-0.6-0.1c-0.3,0-0.6,0.1-0.8,0.2c-0.3,0.2-0.5,0.4-0.6,0.7v2.8c0.1,0.3,0.3,0.5,0.6,0.7
	c0.3,0.2,0.6,0.2,0.9,0.2c0.2,0,0.4,0,0.6-0.1c0.2-0.1,0.4-0.2,0.5-0.4c0.3-0.5,0.4-1.1,0.4-1.6V277.2z"/>
<path class="st3" d="M98.3,277.2c0-0.6,0.1-1.2,0.4-1.8c0.2-0.5,0.6-0.9,1.1-1.2c0.5-0.3,1.1-0.4,1.7-0.4c0.4,0,0.8,0.1,1.2,0.2
	c0.4,0.2,0.7,0.4,1,0.7c0.6,0.6,0.9,1.5,0.9,2.4v0.4c0,0.6-0.1,1.2-0.4,1.8c-0.2,0.5-0.6,0.9-1.1,1.2c-0.5,0.3-1.1,0.5-1.7,0.4
	c-0.4,0-0.9-0.1-1.3-0.2c-0.4-0.2-0.8-0.4-1.1-0.7C98.5,279.1,98.2,278.2,98.3,277.2L98.3,277.2z M99.8,277.3c0,0.6,0.1,1.2,0.4,1.6
	c0.1,0.2,0.3,0.3,0.5,0.4c0.2,0.1,0.4,0.2,0.7,0.2c0.2,0,0.5-0.1,0.7-0.2s0.4-0.3,0.5-0.4c0.3-0.5,0.5-1.2,0.5-1.8
	c0-0.6-0.1-1.2-0.4-1.6c-0.1-0.2-0.3-0.3-0.5-0.5c-0.2-0.1-0.4-0.2-0.7-0.1c-0.2,0-0.5,0-0.7,0.1s-0.4,0.3-0.5,0.4
	C100,276.1,99.8,276.7,99.8,277.3L99.8,277.3z"/>
<path class="st3" d="M106.1,277.2c0-0.9,0.2-1.8,0.7-2.5c0.2-0.3,0.5-0.5,0.9-0.7c0.3-0.2,0.7-0.2,1.1-0.2c0.3,0,0.7,0,1,0.2
	c0.3,0.1,0.6,0.3,0.8,0.6V271h1.5v9.7h-1.4l-0.1-0.7c-0.2,0.3-0.5,0.5-0.8,0.6c-0.3,0.1-0.7,0.2-1,0.2c-0.4,0-0.8-0.1-1.1-0.2
	c-0.3-0.2-0.6-0.4-0.9-0.7C106.4,279,106.1,278.1,106.1,277.2z M107.7,277.3c0,0.6,0.1,1.1,0.4,1.6c0.1,0.2,0.3,0.3,0.5,0.4
	c0.2,0.1,0.4,0.2,0.7,0.1c0.3,0,0.6-0.1,0.8-0.2c0.2-0.1,0.4-0.4,0.6-0.6v-2.9c-0.1-0.3-0.3-0.5-0.6-0.6c-0.2-0.1-0.5-0.2-0.8-0.2
	c-0.2,0-0.5,0-0.7,0.1c-0.2,0.1-0.4,0.3-0.5,0.4C107.8,276.1,107.7,276.7,107.7,277.3L107.7,277.3z"/>
<path class="st3" d="M116.6,278.5l1.4-4.6h1.6l-2.7,7.9c-0.4,1.1-1.1,1.7-2.1,1.7c-0.3,0-0.5,0-0.7-0.1v-1.2h0.3
	c0.3,0,0.6-0.1,0.9-0.2c0.2-0.2,0.4-0.4,0.5-0.7l0.2-0.6l-2.4-6.8h1.7L116.6,278.5z"/>
<path class="st2" d="M125,276.6l-3.9-1.4v-1.5l5.5,2.3v1.2l-5.5,2.3v-1.5L125,276.6z"/>
<path class="st2" d="M79.3,307.7l3.7,1.4v1.5l-5.3-2.4v-1.2l5.3-2.3v1.6L79.3,307.7z"/>
<path class="st2" d="M85.6,312.4h-1.2l3.6-10h1.2L85.6,312.4z"/>
<path class="st3" d="M92.3,305.6c0.2-0.3,0.5-0.5,0.9-0.7c0.3-0.2,0.7-0.2,1.1-0.2c1.5,0,2.2,0.8,2.2,2.5v4.5h-1.5v-4.4
	c0-0.2,0-0.4-0.1-0.5c-0.1-0.2-0.1-0.3-0.3-0.5c-0.3-0.2-0.6-0.3-0.9-0.3c-0.3,0-0.6,0.1-0.8,0.2c-0.2,0.1-0.4,0.4-0.6,0.6v4.9h-1.5
	V302h1.5L92.3,305.6z"/>
<path class="st3" d="M100.4,303.2v1.7h1.2v1.1h-1.2v3.8c0,0.2,0,0.4,0.2,0.6c0.1,0.1,0.2,0.1,0.3,0.1c0.1,0,0.2,0,0.3,0
	c0.2,0,0.4,0,0.5-0.1v1.2c-0.3,0.1-0.7,0.1-1,0.1c-1.2,0-1.8-0.6-1.8-1.9V306h-1.1v-1.1h1.1v-1.7L100.4,303.2z"/>
<path class="st3" d="M104.7,304.8l0,0.7c0.2-0.3,0.6-0.5,0.9-0.6c0.3-0.1,0.7-0.2,1.1-0.2c0.4,0,0.8,0,1.1,0.2
	c0.3,0.2,0.6,0.5,0.8,0.8c0.2-0.3,0.5-0.6,0.9-0.8c0.4-0.2,0.8-0.3,1.2-0.3c0.3,0,0.6,0,0.9,0.1c0.3,0.1,0.6,0.3,0.8,0.5
	c0.4,0.5,0.6,1.2,0.6,1.8v4.5h-1.5v-4.4c0-0.3-0.1-0.7-0.3-1c-0.1-0.1-0.3-0.2-0.4-0.2c-0.2-0.1-0.3-0.1-0.5-0.1
	c-0.3,0-0.6,0.1-0.9,0.3c-0.2,0.2-0.4,0.4-0.5,0.7v4.7h-1.5v-4.5c0-0.2,0-0.3-0.1-0.5c-0.1-0.2-0.1-0.3-0.3-0.4
	c-0.1-0.1-0.3-0.2-0.4-0.3c-0.2-0.1-0.3-0.1-0.5,0c-0.3,0-0.5,0-0.8,0.2c-0.2,0.1-0.4,0.3-0.5,0.6v4.9h-1.5v-6.8H104.7z"/>
<path class="st3" d="M116.7,311.7h-1.5V302h1.5V311.7z"/>
<path class="st2" d="M122.8,307.6l-3.9-1.4v-1.5l5.5,2.3v1.2l-5.5,2.3v-1.5L122.8,307.6z"/>
<rect x="261" y="75" class="st0" width="188" height="252"/>
<path class="st6" d="M446.9,102.3H265.4v44.2h181.5V102.3z"/>
<path class="st6" d="M449.3,160.7h-91v44.2h91V160.7z"/>
<path class="st6" d="M449.3,220.1h-91v44.2h91V220.1z"/>
<path class="st6" d="M446.9,279.5H265.4V303h181.5V279.5z"/>
<path class="st6" d="M265.4,160.7v104.5h48.4V160.7H265.4z"/>
<path class="st8" d="M545.5,73.9c0,40.5-32.9,73.4-73.4,73.4c-40.6,0-73.4-32.8-73.4-73.4c0-40.5,32.9-73.4,73.4-73.4
	C512.6,0.5,545.5,33.3,545.5,73.9z"/>
<path class="st6" d="M446.3,72.9l12.5,4.4v6l-19-7.9v-5.1l18.8-7.9v6L446.3,72.9z"/>
<path class="st6" d="M467.5,89h-4.9l12.2-34.1h4.9L467.5,89z"/>
<path class="st6" d="M498,72.8l-12.7-4.4v-6l19,7.8v5.1l-19,7.9v-6L498,72.8z"/>
<rect x="259" y="75" class="st9" width="12" height="257"/>
</svg>
