<?xml version="1.0" encoding="utf-8"?>
<svg xmlns="http://www.w3.org/2000/svg" xmlns:xlink="http://www.w3.org/1999/xlink" viewBox="0 0 396.4 512">
<path d="M391.4,286.5c6.8-6.8,6.6-17.8-0.4-24.7c-6.9-6.9-18-7.1-24.7-0.3c-37.5,37.5-128.2,128.6-130.5,130.9
	c-44.7,44.8-118.7,43.9-164.9-2.1c-42.7-46-51.5-115.9-2.5-165c0.3-0.3,134.4-135,136-136.6c27.7-27.7,73.1-27.2,101.5,1.1
	c41.6,44.4,15.1,88.3,1.7,101.7c-0.8,0.8-134.6,134.9-136.3,136.5l-0.1,0.1c-13.3,11.7-28.6,7.7-38.5-0.6
	c-10.7-9.2-11-27.3-0.5-38.5c1-1,57.6-58.1,88-88.4c6.7-6.7,6.6-17.7-0.4-24.7c-6.9-7-18-7.2-24.8-0.4c-30.4,30.5-87.5,88-88,88.4
	c-23.6,25-23.5,63.4,1.5,88c19,18.2,58.3,31,88.1,1.1c1.4-1.4,131.2-131.7,136.2-136.6c22.4-22.1,56.1-87.3-2.2-151
	c-67-60.9-131.5-22.1-151.5-2c-1.2,1.2-131.9,132.2-136,136.6c-76.6,84.2-35.9,171,3.2,214.6c42.1,44.3,143.6,74.7,214.5,2.8
	C261.9,416.4,353.9,324.2,391.4,286.5z"/>
</svg>
