<?xml version="1.0" encoding="utf-8"?>
<!-- Generator: Adobe Illustrator 26.0.0, SVG Export Plug-In . SVG Version: 6.00 Build 0)  -->
<svg version="1.1" id="Layer_1" xmlns="http://www.w3.org/2000/svg" xmlns:xlink="http://www.w3.org/1999/xlink" x="0px" y="0px"
	 viewBox="0 0 459 458" style="enable-background:new 0 0 459 458;" xml:space="preserve">
<style type="text/css">
	.st0{fill:url(#SVGID_1_);}
	.st1{fill:url(#SVGID_00000011005546035082552950000007846257719984617357_);}
	.st2{fill:url(#SVGID_00000124132115394240837050000011925279868185399188_);}
	.st3{opacity:0.31;}
	.st4{fill:#D9DADA;}
	.st5{fill:#E1E2FE;}
	.st6{fill:#1DA69A;}
	.st7{opacity:0.58;}
	.st8{opacity:0.31;fill:#1DA69A;enable-background:new    ;}
	.st9{opacity:0.58;fill:#1DA69A;enable-background:new    ;}
	.st10{fill:url(#SVGID_00000062878260398874623060000006862512851392820369_);}
	.st11{fill:#F8F2BC;}
	.st12{fill:#FFFFFF;}
	.st13{fill:#EEEEFE;}
</style>
<g>
	
		<radialGradient id="SVGID_1_" cx="-25.821" cy="485.9538" r="1" gradientTransform="matrix(173.891 100.396 100.2365 -173.6147 -43998.2422 87189.2891)" gradientUnits="userSpaceOnUse">
		<stop  offset="0" style="stop-color:#074F44"/>
		<stop  offset="1" style="stop-color:#0A776A"/>
	</radialGradient>
	<path class="st0" d="M378.1,221.4c0,0-4.6-16.3-23.4-99.7C336,38.2,248.5,60.3,226.6,67.3c-21.9,7-63.1,20.3-124.6,39.2
		C40.5,125.5,6.2,155.3,1.1,190.9c-5,35.7,29.4,73.7,76.7,86.9c51.8,14.5,94.6,37,105,99.9c13.1,79.4,101.1,109.5,165.1,45.9
		S389.2,272.3,378.1,221.4z"/>
	
		<radialGradient id="SVGID_00000149368915027690057910000010492341680983589778_" cx="-25.7837" cy="485.9541" r="0.9994" gradientTransform="matrix(151.9216 87.712 88.4485 -153.1973 -38881.0664 76951.4922)" gradientUnits="userSpaceOnUse">
		<stop  offset="0" style="stop-color:#074F44"/>
		<stop  offset="1" style="stop-color:#1DA69A"/>
	</radialGradient>
	<path style="fill:url(#SVGID_00000149368915027690057910000010492341680983589778_);" d="M370.6,283.6c12.8-54.3-17-100.4-62-108.8
		c-28.7-5.3-60.8-19.6-89.6-75.6C188,39.1,106.9-3,55.1,87.4c-66,115.1-38,187.4-18.3,225c42.2,80.3,147.6,112.4,210.3,92.1
		C308.6,384.6,357.4,339.6,370.6,283.6z"/>
	
		<radialGradient id="SVGID_00000178198359274748253270000016185163081408420224_" cx="-25.7916" cy="485.9592" r="1" gradientTransform="matrix(161.8238 93.429 92.357 -159.967 -40480.0039 80352.0859)" gradientUnits="userSpaceOnUse">
		<stop  offset="0" style="stop-color:#074F44"/>
		<stop  offset="1" style="stop-color:#1DA69A"/>
	</radialGradient>
	<path style="fill:url(#SVGID_00000178198359274748253270000016185163081408420224_);" d="M461.5,164c-2.5-30.1-35.5-62.6-89.9-55
		c-61.1,8.6-130-9.4-188.1-31.6C123.7,54.7,74.4,80,59.3,104.6c-16.6,27-13,74.7,32,156.4s86.5,121.1,130.9,139.6
		s85.5,9.7,122.4-23.1c25.8-23,40.2-60,64.3-106.8C438.9,212.3,465.1,207.6,461.5,164z"/>
	<g class="st3">
		<path class="st4" d="M286,31.4c0.1-7.3-5.6-13.4-12.8-13.6c-7.2-0.1-13.1,5.7-13.3,13s5.6,13.4,12.8,13.6
			C279.9,44.6,285.8,38.7,286,31.4z"/>
	</g>
	<g class="st3">
		<path class="st4" d="M105,74.2c0.1,1.3,0.6,2.6,1.4,3.6c0.8,1,1.9,1.8,3.2,2.2c1.3,0.4,2.6,0.5,3.9,0.1c1.3-0.3,2.4-1.1,3.3-2
			c0.9-1,1.4-2.2,1.6-3.5c0.2-1.3,0-2.6-0.6-3.8c-0.6-1.2-1.5-2.2-2.6-2.9c-1.1-0.7-2.4-1-3.8-0.9c-0.9,0-1.8,0.3-2.6,0.7
			c-0.8,0.4-1.5,0.9-2.1,1.6c-0.6,0.7-1,1.5-1.3,2.3C105.1,72.4,105,73.3,105,74.2z"/>
	</g>
	<g class="st3">
		<path class="st5" d="M455.5,185.6c0.1,0.9,0.4,1.7,0.9,2.4s1.3,1.2,2.1,1.5c0.8,0.3,1.7,0.3,2.6,0.1c0.8-0.2,1.6-0.7,2.2-1.4
			c0.6-0.7,1-1.5,1.1-2.3c0.1-0.9,0-1.8-0.4-2.5s-1-1.4-1.7-1.9c-0.8-0.4-1.6-0.7-2.5-0.6c-0.6,0-1.2,0.2-1.7,0.4
			c-0.5,0.3-1,0.6-1.4,1.1c-0.4,0.4-0.7,1-0.9,1.5C455.5,184.4,455.5,185,455.5,185.6z"/>
	</g>
	<path class="st6" d="M431.4,422.3c0.1-6.5-4.9-11.9-11.3-12c-6.4-0.1-11.7,5-11.8,11.6c-0.1,6.5,4.9,11.9,11.3,12
		C425.9,434,431.2,428.8,431.4,422.3z"/>
	<g class="st7">
		<path class="st4" d="M377.5,431c2.5,0,4.5-2,4.5-4.5s-2-4.5-4.5-4.5s-4.5,2-4.5,4.5S375,431,377.5,431z"/>
	</g>
	<g class="st7">
		<path class="st4" d="M237.2,23.5c1.2,0,2.2-1,2.2-2.2c0-1.2-1-2.2-2.2-2.2s-2.2,1-2.2,2.2C235,22.5,236,23.5,237.2,23.5z"/>
	</g>
	<g class="st7">
		<path class="st4" d="M114.7,430.8c2.5,0,4.5-2,4.5-4.5c0-2.5-2-4.5-4.5-4.5c-2.5,0-4.5,2-4.5,4.5
			C110.2,428.8,112.2,430.8,114.7,430.8z"/>
	</g>
	<path class="st8" d="M397.5,445c1.9,0,3.5-1.6,3.5-3.5s-1.6-3.5-3.5-3.5s-3.5,1.6-3.5,3.5S395.6,445,397.5,445z"/>
	<g class="st7">
		<path class="st4" d="M83.5,54c0.8,0,1.5-0.7,1.5-1.5c0-0.8-0.7-1.5-1.5-1.5S82,51.7,82,52.5C82,53.4,82.7,54,83.5,54z"/>
	</g>
	<path class="st6" d="M452.5,60.7c2.2,5.4-2.8,9.6-7.2,7.5c-0.9-0.4-1.7-1.1-2.2-1.9c-0.5-0.8-0.8-1.8-0.9-2.8
		c0-4.8,5.8-7.7,9.8-3.5C452.2,60.2,452.4,60.4,452.5,60.7z"/>
	<path class="st6" d="M100.6,38c0,0.5-0.1,0.9-0.4,1.3c-0.3,0.4-0.6,0.7-1.1,0.8c-0.4,0.1-0.9,0.1-1.4,0c-0.4-0.2-0.8-0.4-1.1-0.8
		c-0.3-0.4-0.4-0.8-0.3-1.3c0-0.5,0.2-0.9,0.5-1.3c0.3-0.3,0.7-0.6,1.2-0.7s0.9,0,1.3,0.2c0.3,0.2,0.6,0.4,0.8,0.7
		C100.5,37.3,100.6,37.6,100.6,38z"/>
	<path class="st9" d="M256.9,3c0,0.5-0.1,0.9-0.4,1.3c-0.3,0.4-0.7,0.7-1.1,0.8c-0.4,0.1-0.9,0.1-1.4,0c-0.4-0.2-0.8-0.5-1.1-0.8
		c-0.3-0.4-0.4-0.9-0.3-1.3c0-0.5,0.2-0.9,0.5-1.2c0.3-0.3,0.7-0.6,1.2-0.7c0.5-0.1,0.9,0,1.3,0.2c0.3,0.2,0.6,0.4,0.8,0.7
		C256.8,2.3,256.9,2.7,256.9,3z"/>
	<g class="st7">
		<path class="st4" d="M422,69.1c0,0.2-0.1,0.5-0.3,0.7c-0.1,0.2-0.3,0.4-0.5,0.5c-0.2,0.1-0.4,0.2-0.7,0.3c-0.2,0-0.5,0-0.7,0
			c-0.2,0-0.5-0.1-0.7-0.3c-0.2-0.1-0.4-0.3-0.5-0.5c-0.1-0.2-0.2-0.4-0.3-0.7c0-0.2,0-0.5,0-0.7c0-0.2,0.1-0.5,0.3-0.7
			c0.1-0.2,0.3-0.4,0.5-0.5c0.2-0.1,0.4-0.2,0.7-0.3c0.2,0,0.5,0,0.7,0c0.2,0.1,0.5,0.1,0.7,0.3c0.2,0.1,0.4,0.3,0.5,0.5
			c0.1,0.2,0.2,0.4,0.3,0.7C422.1,68.6,422.1,68.9,422,69.1z"/>
	</g>
	<path class="st6" d="M24.5,379.5c-0.1,0.3-0.3,0.7-0.5,0.9c-0.3,0.2-0.6,0.4-0.9,0.5c-0.4,0.1-0.7,0-1-0.1
		c-0.3-0.1-0.6-0.4-0.8-0.7c-0.2-0.3-0.3-0.6-0.3-1c0-0.4,0.1-0.7,0.3-1c0.2-0.3,0.5-0.5,0.8-0.6c0.3-0.1,0.7-0.2,1-0.1
		c0.2,0,0.5,0.1,0.6,0.3c0.2,0.1,0.4,0.3,0.5,0.5c0.1,0.2,0.2,0.4,0.3,0.7C24.6,379,24.6,379.3,24.5,379.5z"/>
	<g>
		
			<linearGradient id="SVGID_00000149352875782938753520000015545499960969479552_" gradientUnits="userSpaceOnUse" x1="308.3133" y1="145.3243" x2="256.5363" y2="112.9203" gradientTransform="matrix(1 0 0 -1 0 460)">
			<stop  offset="0" style="stop-color:#0A776A"/>
			<stop  offset="1" style="stop-color:#1DA69A"/>
		</linearGradient>
		<path style="fill:url(#SVGID_00000149352875782938753520000015545499960969479552_);" d="M313,327.7c0,10.3-8.4,18.8-18.8,18.8
			c-10.4,0-38.3,0-38.3,0l19.2-37.3c0,0,14,0,19.2,0C304.8,309,313,317.4,313,327.7z"/>
		<path class="st11" d="M277.4,119.2c10,0,18,6.9,18,15.3v142c0,8.5-8.1,15.3-18,15.3H154.8c-10,0-18-6.9-18-15.3v-142
			c0-8.4,8.1-15.3,18-15.3H277.4z M277.4,116H154.8c-11.9,0-21.8,8.4-21.8,18.5v142c0,10.3,9.9,18.5,21.8,18.5h122.4
			c12.1,0,21.8-8.4,21.8-18.5v-142C299.2,124.4,289.3,116,277.4,116z"/>
		<path class="st12" d="M137,348h123.8c12.3,0,22-10,22-22V157c0.2-12.1-9.8-22-21.9-22h-83.8L115,196.8v129
			C115,338,125,348,137,348z"/>
		<path class="st13" d="M150.1,167.3c0-0.7,0.5-1.3,1.3-1.3h87.9c0.7,0,1.3,0.5,1.3,1.3s-0.5,1.3-1.3,1.3h-87.9
			C150.6,168.5,150.1,168,150.1,167.3z M140,275.2c0-0.7,0.5-1.3,1.3-1.3h113.7c0.7,0,1.3,0.5,1.3,1.3c0,0.7-0.5,1.3-1.3,1.3H141.3
			C140.6,276.5,140,275.9,140,275.2z M150.1,173.8c0-0.7,0.5-1.3,1.2-1.3h98.8c0.7,0,1.3,0.5,1.3,1.3c0,0.7-0.5,1.3-1.3,1.3h-98.8
			C150.6,175,150.1,174.5,150.1,173.8z M140,281.7c0-0.5,0.5-1.1,1.1-1.1h125.6c0.5,0,1.1,0.5,1.1,1.1s-0.5,1.1-1.1,1.1H141.1
			C140.5,282.8,140,282.2,140,281.7z M150.1,180.9c0-0.7,0.5-1.3,1.3-1.3h68.7c0.7,0,1.3,0.5,1.3,1.3s-0.5,1.3-1.3,1.3h-68.7
			C150.6,182.2,150.1,181.6,150.1,180.9z M140,288.9c0-0.7,0.5-1.3,1.2-1.3h125c0.7,0,1.3,0.5,1.3,1.3s-0.5,1.3-1.3,1.3h-125
			C140.5,290,140,289.6,140,288.9z M140.1,205.6c0-0.7,0.5-1.3,1.2-1.3h128c0.7,0,1.3,0.5,1.3,1.3c0,0.7-0.5,1.3-1.3,1.3h-128
			C140.6,206.9,140.1,206.3,140.1,205.6z M140.1,313.5c0-0.7,0.5-1.3,1.2-1.3h128c0.7,0,1.3,0.5,1.3,1.3c0,0.7-0.5,1.3-1.3,1.3h-128
			C140.6,314.8,140.1,314.2,140.1,313.5z M140.1,211.4c0-0.7,0.5-1.3,1.3-1.3h122.5c0.7,0,1.3,0.5,1.3,1.3c0,0.7-0.5,1.3-1.3,1.3
			H141.3C140.6,212.6,140.1,212.1,140.1,211.4z M140.1,319.3c0-0.7,0.5-1.3,1.2-1.3h122.5c0.7,0,1.3,0.5,1.3,1.3
			c0,0.7-0.5,1.3-1.3,1.3H141.3C140.6,320.5,140.1,319.9,140.1,319.3z M140.1,217.1c0-0.7,0.5-1.3,1.3-1.3h125.2
			c0.7,0,1.3,0.5,1.3,1.3c0,0.7-0.5,1.3-1.3,1.3H141.3C140.6,218.4,140.1,217.8,140.1,217.1z M140.1,325c0-0.7,0.5-1.3,1.2-1.3
			h125.3c0.7,0,1.3,0.5,1.3,1.3c0,0.7-0.5,1.3-1.3,1.3H141.3C140.6,326.2,140.1,325.7,140.1,325z M140.1,222.8
			c0-0.7,0.5-1.3,1.2-1.3h125.3c0.7,0,1.3,0.5,1.3,1.3c0,0.7-0.5,1.3-1.3,1.3H141.3C140.6,224.1,140.1,223.6,140.1,222.8z
			 M140.1,228.6c0-0.7,0.5-1.3,1.3-1.3h117c0.7,0,1.3,0.5,1.3,1.3s-0.5,1.3-1.3,1.3h-117C140.6,229.8,140.1,229.3,140.1,228.6z
			 M140.1,234.4c0-0.7,0.5-1.3,1.3-1.3h117c0.7,0,1.3,0.5,1.3,1.3c0,0.7-0.5,1.3-1.3,1.3h-117C140.6,235.5,140.1,235.1,140.1,234.4z
			 M140.1,240.1c0-0.7,0.5-1.3,1.3-1.3h117c0.7,0,1.3,0.5,1.3,1.3c0,0.7-0.5,1.2-1.3,1.3h-117C140.6,241.3,140.1,240.8,140.1,240.1z
			 M140.1,245.9c0-0.7,0.5-1.3,1.2-1.3h117c0.7,0,1.3,0.5,1.3,1.3c0,0.7-0.5,1.3-1.3,1.3h-117C140.6,247,140.1,246.6,140.1,245.9z
			 M140,263.7c0-0.7,0.5-1.3,1.3-1.3h54.1c0.7,0,1.3,0.5,1.3,1.3c0,0.7-0.5,1.3-1.3,1.3h-54.1C140.5,264.9,140,264.4,140,263.7z
			 M140,294.4c0-0.7,0.5-1.3,1.3-1.3h108.5c0.7,0,1.3,0.5,1.3,1.3s-0.5,1.3-1.3,1.3H141.3C140.6,295.7,140,295.2,140,294.4z
			 M140,269.4c0-0.7,0.5-1.3,1.2-1.3h54.1c0.7,0,1.3,0.5,1.3,1.3s-0.5,1.3-1.3,1.3h-54.1C140.5,270.6,140,270.2,140,269.4z"/>
		<path class="st6" d="M311.5,227.4v92.6c-2.9-6.5-9.4-11.1-17.1-11.1c-0.2,0-0.4,0-0.6,0h-120c-7.3,0-13-5.7-13-13v-72.7
			c0-7.3,5.8-13,13-13h120.4C303.8,210.2,311.5,217.9,311.5,227.4z"/>
		<path class="st6" d="M115,196.8h27.6c19.2,0,34.7-15.5,34.7-34.6V135L115,196.8z"/>
		<path class="st12" d="M218.5,252.9h-13v-8.8c0-2.5-0.2-4-0.4-4.8c-0.2-0.6-1-1-1.9-1c-1.1,0-1.7,0.4-2.1,1.1
			c-0.2,0.8-0.4,2.5-0.4,5v23.2c0,2.5,0.2,4,0.4,4.8c0.2,0.8,1,1.1,1.9,1.1c1,0,1.5-0.4,1.9-1.1c0.4-0.8,0.4-2.5,0.4-5.2v-6.3h13.2
			v1.9c0,5.2-0.4,8.8-1.1,10.9c-0.8,2.1-2.3,4-4.8,5.7c-2.5,1.5-5.6,2.5-9.2,2.5c-3.8,0-6.9-0.8-9.4-2.1c-2.5-1.3-4-3.3-5-5.7
			c-0.8-2.5-1.1-6.1-1.1-10.9v-14.5c0-3.6,0.2-6.3,0.4-8c0.2-1.7,1-3.4,2.1-5.2c1.1-1.7,2.9-2.9,5-3.8c2.1-1,4.6-1.3,7.5-1.3
			c3.8,0,6.9,0.8,9.4,2.3c2.5,1.5,4,3.3,5,5.6c0.8,2.1,1.1,5.6,1.1,10.3v4.4H218.5z"/>
		<path class="st12" d="M250.7,246.2h-12.1v-3.6c0-1.7-0.2-2.9-0.4-3.3c-0.4-0.4-0.8-0.8-1.5-0.8c-0.8,0-1.3,0.4-1.7,1
			c-0.4,0.6-0.6,1.5-0.6,2.9c0,1.7,0.2,2.9,0.8,3.8c0.4,0.8,1.7,1.9,3.6,3.1c5.8,3.4,9.4,6.3,10.9,8.4c1.5,2.1,2.3,5.7,2.3,10.5
			c0,3.6-0.4,6.1-1.3,7.8c-0.8,1.7-2.5,3.1-4.8,4.2c-2.3,1.1-5.2,1.7-8.2,1.7c-3.4,0-6.5-0.6-8.8-1.9c-2.5-1.3-4-3.1-4.8-5
			c-0.8-1.9-1.2-5-1.2-8.6v-3.3H235v6.1c0,1.9,0.2,3.1,0.6,3.6c0.4,0.6,1,0.8,1.7,0.8c0.8,0,1.5-0.4,1.9-1c0.4-0.8,0.6-1.7,0.6-3.1
			c0-2.9-0.4-4.8-1.1-5.7c-0.8-1-2.9-2.5-6.1-4.6c-3.3-2.1-5.4-3.6-6.3-4.6c-1-1-1.9-2.3-2.7-4c-0.8-1.7-1-3.8-1-6.5
			c0-3.8,0.6-6.5,1.5-8.4c1-1.7,2.5-3.1,4.8-4.2c2.1-1,4.8-1.5,7.9-1.5c3.4,0,6.3,0.6,8.6,1.7c2.3,1.1,4,2.5,4.8,4
			c0.8,1.7,1.2,4.4,1.2,8.4v1.9H250.7z"/>
		<path class="st12" d="M283.3,246.2h-12.1v-3.6c0-1.7-0.2-2.9-0.4-3.3c-0.4-0.4-0.8-0.8-1.5-0.8c-0.8,0-1.3,0.4-1.7,1
			c-0.4,0.6-0.6,1.5-0.6,2.9c0,1.7,0.2,2.9,0.8,3.8c0.4,0.8,1.7,1.9,3.6,3.1c5.8,3.4,9.4,6.3,10.9,8.4c1.5,2.1,2.3,5.7,2.3,10.5
			c0,3.6-0.4,6.1-1.3,7.8c-0.8,1.7-2.5,3.1-4.8,4.2c-2.3,1.1-5.2,1.7-8.2,1.7c-3.5,0-6.5-0.6-8.8-1.9c-2.5-1.3-4-3.1-4.8-5
			c-0.8-2.1-1.2-5-1.2-8.6v-3.3h12.1v6.1c0,1.9,0.2,3.1,0.6,3.6c0.4,0.6,1,0.8,1.7,0.8c0.8,0,1.5-0.4,1.9-1c0.4-0.8,0.6-1.7,0.6-3.1
			c0-2.9-0.4-4.8-1.2-5.7c-0.8-1-2.9-2.5-6.1-4.6c-3.3-2.1-5.4-3.6-6.3-4.6c-1-1-1.9-2.3-2.7-4c-0.8-1.7-1-3.8-1-6.5
			c0-3.8,0.6-6.5,1.5-8.4c1-1.7,2.5-3.1,4.8-4.2c2.1-1,4.8-1.5,7.9-1.5c3.5,0,6.3,0.6,8.6,1.7c2.3,1.1,4,2.5,4.8,4
			c0.8,1.7,1.2,4.4,1.2,8.4v1.9H283.3z"/>
	</g>
</g>
</svg>
