<?xml version="1.0" encoding="utf-8"?>
<!-- Generator: Adobe Illustrator 26.0.0, SVG Export Plug-In . SVG Version: 6.00 Build 0)  -->
<svg version="1.1" id="Layer_1" xmlns="http://www.w3.org/2000/svg" xmlns:xlink="http://www.w3.org/1999/xlink" x="0px" y="0px"
	 viewBox="0 0 459 458" style="enable-background:new 0 0 459 458;" xml:space="preserve">
<style type="text/css">
	.st0{fill:url(#SVGID_1_);}
	.st1{fill:url(#SVGID_00000054229298621994237030000003973355730661865907_);}
	.st2{fill:url(#SVGID_00000163762319031315730900000002695961443487232672_);}
	.st3{opacity:0.31;}
	.st4{fill:#D9DADA;}
	.st5{fill:#E1E2FE;}
	.st6{fill:#1DA69A;}
	.st7{opacity:0.58;}
	.st8{opacity:0.31;fill:#0A776A;enable-background:new    ;}
	.st9{opacity:0.58;fill:#1DA69A;enable-background:new    ;}
	.st10{fill:#FFFFFF;}
</style>
<g>
	
		<radialGradient id="SVGID_1_" cx="-25.8231" cy="485.9525" r="1" gradientTransform="matrix(173.891 100.396 100.2365 -173.6147 -43998.2422 87189.2891)" gradientUnits="userSpaceOnUse">
		<stop  offset="0" style="stop-color:#074F44"/>
		<stop  offset="1" style="stop-color:#0A776A"/>
	</radialGradient>
	<path class="st0" d="M377.6,221.4c0,0-4.6-16.3-23.4-99.7C335.5,38.2,248,60.3,226.1,67.3c-21.9,7-63.1,20.3-124.6,39.2
		C40,125.5,5.7,155.3,0.6,190.9c-5,35.7,29.4,73.7,76.7,86.9c51.8,14.5,94.6,37,105,99.9c13.1,79.4,101.1,109.5,165.1,45.9
		S388.7,272.3,377.6,221.4z"/>
	
		<radialGradient id="SVGID_00000032610674097070714230000002860037310302155966_" cx="-25.7975" cy="485.9462" r="0.9994" gradientTransform="matrix(151.9216 87.712 88.4485 -153.1973 -38881.0664 76951.4922)" gradientUnits="userSpaceOnUse">
		<stop  offset="0" style="stop-color:#074F44"/>
		<stop  offset="1" style="stop-color:#1DA69A"/>
	</radialGradient>
	<path style="fill:url(#SVGID_00000032610674097070714230000002860037310302155966_);" d="M367.8,283.6c12.8-54.3-17-100.4-62-108.8
		c-28.7-5.3-60.8-19.6-89.6-75.6C185.2,39.1,104.1-3,52.3,87.4c-66,115.1-38,187.4-18.3,225c42.2,80.3,147.6,112.4,210.3,92.1
		C305.8,384.6,354.6,339.6,367.8,283.6z"/>
	
		<radialGradient id="SVGID_00000159433813957081507380000017090162054179806099_" cx="-25.8099" cy="485.9485" r="1" gradientTransform="matrix(161.8238 93.429 92.357 -159.967 -40480.0039 80352.0859)" gradientUnits="userSpaceOnUse">
		<stop  offset="0" style="stop-color:#074F44"/>
		<stop  offset="1" style="stop-color:#1DA69A"/>
	</radialGradient>
	<path style="fill:url(#SVGID_00000159433813957081507380000017090162054179806099_);" d="M457.5,164c-2.5-30.1-35.5-62.6-89.9-55
		c-61.1,8.6-130-9.4-188.1-31.6C119.7,54.7,70.5,80,55.3,104.6c-16.6,27-13,74.7,32,156.4s86.5,121.1,130.9,139.6
		s85.5,9.7,122.4-23.1c25.8-23,40.2-60,64.3-106.8C434.9,212.3,461.1,207.6,457.5,164z"/>
	<g class="st3">
		<path class="st4" d="M286,31.4c0.1-7.3-5.6-13.4-12.8-13.6c-7.2-0.1-13.1,5.7-13.3,13s5.6,13.4,12.8,13.6
			C279.9,44.6,285.8,38.7,286,31.4z"/>
	</g>
	<g class="st3">
		<path class="st4" d="M105,74.2c0.1,1.3,0.6,2.6,1.4,3.6c0.8,1,1.9,1.8,3.2,2.2c1.3,0.4,2.6,0.5,3.9,0.1c1.3-0.3,2.4-1.1,3.3-2
			c0.9-1,1.4-2.2,1.6-3.5c0.2-1.3,0-2.6-0.6-3.8c-0.6-1.2-1.5-2.2-2.6-2.9c-1.1-0.7-2.4-1-3.8-0.9c-0.9,0-1.8,0.3-2.6,0.7
			c-0.8,0.4-1.5,0.9-2.1,1.6c-0.6,0.7-1,1.5-1.3,2.3C105.1,72.4,105,73.3,105,74.2z"/>
	</g>
	<g class="st3">
		<path class="st5" d="M455.5,185.6c0.1,0.9,0.4,1.7,0.9,2.4s1.3,1.2,2.1,1.5c0.8,0.3,1.7,0.3,2.6,0.1c0.8-0.2,1.6-0.7,2.2-1.4
			c0.6-0.7,1-1.5,1.1-2.3c0.1-0.9,0-1.8-0.4-2.5s-1-1.4-1.7-1.9c-0.8-0.4-1.6-0.7-2.5-0.6c-0.6,0-1.2,0.2-1.7,0.4
			c-0.5,0.3-1,0.6-1.4,1.1c-0.4,0.4-0.7,1-0.9,1.5C455.5,184.4,455.5,185,455.5,185.6z"/>
	</g>
	<path class="st6" d="M431.4,422.3c0.1-6.5-4.9-11.9-11.3-12c-6.4-0.1-11.7,5-11.8,11.6c-0.1,6.5,4.9,11.9,11.3,12
		C425.9,434,431.2,428.8,431.4,422.3z"/>
	<g class="st7">
		<path class="st4" d="M377.5,431c2.5,0,4.5-2,4.5-4.5s-2-4.5-4.5-4.5s-4.5,2-4.5,4.5S375,431,377.5,431z"/>
	</g>
	<g class="st7">
		<path class="st4" d="M237.2,23.5c1.2,0,2.2-1,2.2-2.2c0-1.2-1-2.2-2.2-2.2s-2.2,1-2.2,2.2C235,22.5,236,23.5,237.2,23.5z"/>
	</g>
	<g class="st7">
		<path class="st4" d="M114.7,430.8c2.5,0,4.5-2,4.5-4.5c0-2.5-2-4.5-4.5-4.5c-2.5,0-4.5,2-4.5,4.5
			C110.2,428.8,112.2,430.8,114.7,430.8z"/>
	</g>
	<path class="st8" d="M397.5,445c1.9,0,3.5-1.6,3.5-3.5s-1.6-3.5-3.5-3.5s-3.5,1.6-3.5,3.5S395.6,445,397.5,445z"/>
	<g class="st7">
		<path class="st4" d="M83.5,54c0.8,0,1.5-0.7,1.5-1.5c0-0.8-0.7-1.5-1.5-1.5S82,51.7,82,52.5C82,53.4,82.7,54,83.5,54z"/>
	</g>
	<path class="st6" d="M452.5,60.7c2.2,5.4-2.8,9.6-7.2,7.5c-0.9-0.4-1.7-1.1-2.2-1.9c-0.5-0.8-0.8-1.8-0.9-2.8
		c0-4.8,5.8-7.7,9.8-3.5C452.2,60.2,452.4,60.4,452.5,60.7z"/>
	<path class="st6" d="M100.6,38c0,0.5-0.1,0.9-0.4,1.3c-0.3,0.4-0.6,0.7-1.1,0.8c-0.4,0.1-0.9,0.1-1.4,0c-0.4-0.2-0.8-0.4-1.1-0.8
		c-0.3-0.4-0.4-0.8-0.3-1.3c0-0.5,0.2-0.9,0.5-1.3c0.3-0.3,0.7-0.6,1.2-0.7s0.9,0,1.3,0.2c0.3,0.2,0.6,0.4,0.8,0.7
		C100.5,37.3,100.6,37.6,100.6,38z"/>
	<path class="st9" d="M256.9,3c0,0.5-0.1,0.9-0.4,1.3c-0.3,0.4-0.7,0.7-1.1,0.8c-0.4,0.1-0.9,0.1-1.4,0c-0.4-0.2-0.8-0.5-1.1-0.8
		c-0.3-0.4-0.4-0.9-0.3-1.3c0-0.5,0.2-0.9,0.5-1.2c0.3-0.3,0.7-0.6,1.2-0.7c0.5-0.1,0.9,0,1.3,0.2c0.3,0.2,0.6,0.4,0.8,0.7
		C256.8,2.3,256.9,2.7,256.9,3z"/>
	<g class="st7">
		<path class="st4" d="M422,69.1c0,0.2-0.1,0.5-0.3,0.7c-0.1,0.2-0.3,0.4-0.5,0.5c-0.2,0.1-0.4,0.2-0.7,0.3c-0.2,0-0.5,0-0.7,0
			c-0.2,0-0.5-0.1-0.7-0.3c-0.2-0.1-0.4-0.3-0.5-0.5c-0.1-0.2-0.2-0.4-0.3-0.7c0-0.2,0-0.5,0-0.7c0-0.2,0.1-0.5,0.3-0.7
			c0.1-0.2,0.3-0.4,0.5-0.5c0.2-0.1,0.4-0.2,0.7-0.3c0.2,0,0.5,0,0.7,0c0.2,0.1,0.5,0.1,0.7,0.3c0.2,0.1,0.4,0.3,0.5,0.5
			c0.1,0.2,0.2,0.4,0.3,0.7C422.1,68.6,422.1,68.9,422,69.1z"/>
	</g>
	<path class="st6" d="M24.5,379.5c-0.1,0.3-0.3,0.7-0.5,0.9c-0.3,0.2-0.6,0.4-0.9,0.5c-0.4,0.1-0.7,0-1-0.1
		c-0.3-0.1-0.6-0.4-0.8-0.7c-0.2-0.3-0.3-0.6-0.3-1c0-0.4,0.1-0.7,0.3-1c0.2-0.3,0.5-0.5,0.8-0.6c0.3-0.1,0.7-0.2,1-0.1
		c0.2,0,0.5,0.1,0.6,0.3c0.2,0.1,0.4,0.3,0.5,0.5c0.1,0.2,0.2,0.4,0.3,0.7C24.6,379,24.6,379.3,24.5,379.5z"/>
	<g>
		<g>
			<path class="st10" d="M158.7,167.8V263h110.9c7.5,0,13.5,6.1,13.5,13.5c0,7.5-6.1,13.5-13.5,13.5H142.1
				c-7.8,0.1-14.1-6.2-14.1-14V153.1c0-7.8,6.3-14.1,14.1-14.1h127.4c7.5,0,13.5,6.1,13.5,13.5v1.7c0,7.5-6.1,13.5-13.5,13.5H158.7
				V167.8z"/>
			<path class="st10" d="M243.4,230.1v5.3h4v3.5h-4v3.9h4v3.4h-4v3.9h4v3.5h-4v1.9H216v-1.9h-4v-3.5h4v-3.9h-4v-3.4h4v-3.9h-4v-3.5
				h4v-5.3h-16.4v-7.6h60.7v7.6H243.4z"/>
			<path class="st10" d="M286.1,327.2c0,7.9-6.4,14.3-14.3,14.3c-6.5,0-11.9-4.3-13.7-10.1h-14.7c-0.8,6.8-6.6,12.1-13.6,12.1
				s-12.8-5.3-13.6-12.1h-15c-1.8,5.8-7.3,10.1-13.7,10.1c-7.9,0-14.3-6.4-14.3-14.3c0-7.9,6.4-14.3,14.3-14.3
				c6.2,0,11.5,3.9,13.5,9.4h15V319h-4v-3.5h4v-3.9h-4v-3.5h4v-3.9h-4v-3.5h4v-2.2h27.4v2.2h4v3.5h-4v3.9h4v3.5h-4v3.9h4v3.5h-4v3.3
				h14.8c2-5.5,7.3-9.4,13.5-9.4C279.7,312.9,286.1,319.3,286.1,327.2z"/>
			<path class="st10" d="M215.5,193.7h-9.5v-6.5c0-1.8-0.1-2.9-0.3-3.5c-0.1-0.4-0.7-0.7-1.4-0.7c-0.8,0-1.3,0.3-1.5,0.8
				c-0.1,0.6-0.3,1.8-0.3,3.6v17c0,1.8,0.1,2.9,0.3,3.5c0.1,0.6,0.7,0.8,1.4,0.8s1.1-0.3,1.4-0.8c0.3-0.6,0.3-1.8,0.3-3.8v-4.6h9.7
				v1.4c0,3.8-0.3,6.4-0.8,8c-0.6,1.5-1.7,2.9-3.5,4.2c-1.8,1.1-4.1,1.8-6.7,1.8c-2.8,0-5.1-0.6-6.9-1.5c-1.8-1-2.9-2.4-3.7-4.2
				c-0.6-1.8-0.8-4.5-0.8-8v-10.7c0-2.7,0.1-4.6,0.3-5.9c0.1-1.3,0.7-2.5,1.5-3.8c0.8-1.3,2.1-2.1,3.7-2.8c1.5-0.7,3.4-1,5.5-1
				c2.8,0,5.1,0.6,6.9,1.7c1.8,1.1,2.9,2.4,3.7,4.1c0.6,1.5,0.8,4.1,0.8,7.6v3.2H215.5z"/>
			<path class="st10" d="M239.1,188.8h-8.8v-2.7c0-1.3-0.1-2.1-0.3-2.4c-0.3-0.3-0.6-0.6-1.1-0.6c-0.6,0-1,0.3-1.3,0.7
				c-0.3,0.4-0.4,1.1-0.4,2.1c0,1.3,0.1,2.1,0.6,2.8c0.3,0.6,1.3,1.4,2.7,2.2c4.2,2.5,6.9,4.6,8,6.2c1.1,1.5,1.7,4.2,1.7,7.7
				c0,2.7-0.3,4.5-1,5.7c-0.6,1.3-1.8,2.2-3.5,3.1c-1.7,0.8-3.8,1.3-6,1.3c-2.5,0-4.8-0.4-6.5-1.4c-1.8-1-2.9-2.2-3.5-3.6
				c-0.6-1.4-0.8-3.6-0.8-6.3v-2.4h8.8v4.5c0,1.4,0.1,2.2,0.4,2.7c0.3,0.4,0.7,0.6,1.3,0.6c0.6,0,1.1-0.3,1.4-0.7
				c0.3-0.6,0.4-1.3,0.4-2.2c0-2.1-0.3-3.5-0.8-4.2s-2.1-1.8-4.5-3.4c-2.4-1.5-3.9-2.7-4.6-3.4c-0.7-0.7-1.4-1.7-2-2.9
				c-0.6-1.3-0.7-2.8-0.7-4.8c0-2.8,0.4-4.8,1.1-6.2c0.7-1.3,1.8-2.2,3.5-3.1c1.5-0.7,3.5-1.1,5.8-1.1c2.5,0,4.6,0.4,6.3,1.3
				c1.7,0.8,2.9,1.8,3.5,2.9c0.6,1.3,0.8,3.2,0.8,6.2v1.4H239.1z"/>
			<path class="st10" d="M262.9,188.8h-8.8v-2.7c0-1.3-0.1-2.1-0.3-2.4c-0.3-0.3-0.6-0.6-1.1-0.6c-0.6,0-1,0.3-1.3,0.7
				c-0.3,0.4-0.4,1.1-0.4,2.1c0,1.3,0.1,2.1,0.6,2.8c0.3,0.6,1.3,1.4,2.7,2.2c4.2,2.5,6.9,4.6,8,6.2c1.1,1.5,1.7,4.2,1.7,7.7
				c0,2.7-0.3,4.5-1,5.7c-0.6,1.3-1.8,2.2-3.5,3.1c-1.7,0.8-3.8,1.3-6,1.3c-2.5,0-4.8-0.4-6.5-1.4c-1.8-1-2.9-2.2-3.5-3.6
				c-0.6-1.5-0.8-3.6-0.8-6.3v-2.4h8.8v4.5c0,1.4,0.1,2.2,0.4,2.7c0.3,0.4,0.7,0.6,1.3,0.6c0.6,0,1.1-0.3,1.4-0.7
				c0.3-0.6,0.4-1.3,0.4-2.2c0-2.1-0.3-3.5-0.8-4.2s-2.1-1.8-4.5-3.4c-2.4-1.5-3.9-2.7-4.6-3.4c-0.7-0.7-1.4-1.7-2-2.9
				c-0.6-1.3-0.7-2.8-0.7-4.8c0-2.8,0.4-4.8,1.1-6.2c0.7-1.3,1.8-2.2,3.5-3.1c1.5-0.7,3.5-1.1,5.8-1.1c2.5,0,4.6,0.4,6.3,1.3
				c1.7,0.8,2.9,1.8,3.5,2.9c0.6,1.3,0.8,3.2,0.8,6.2v1.4H262.9z"/>
		</g>
	</g>
</g>
</svg>
