<?xml version="1.0" encoding="utf-8"?>
<!-- Generator: Adobe Illustrator 26.0.0, SVG Export Plug-In . SVG Version: 6.00 Build 0)  -->
<svg version="1.1" id="Layer_1" xmlns="http://www.w3.org/2000/svg" xmlns:xlink="http://www.w3.org/1999/xlink" x="0px" y="0px"
	 viewBox="0 0 619 447" style="enable-background:new 0 0 619 447;" xml:space="preserve">
<style type="text/css">
	.st0{fill:#FFFFFF;stroke:#D9D9D9;}
	.st1{fill:#CFC9C9;}
	.st2{opacity:0.2;fill:#BDBDBD;enable-background:new    ;}
	.st3{fill:#42414A;}
	.st4{fill:#D28F4B;}
	.st5{fill:#E4D7B7;}
	.st6{fill:#17171E;}
	.st7{fill:#243A66;}
	.st8{fill:#F3BD81;}
	.st9{fill:#1F1F28;}
	.st10{fill:#191819;}
	.st11{fill:#C68347;}
	.st12{opacity:0.3;}
	.st13{fill:#B5A99E;}
	.st14{fill:#CEC4BC;}
	.st15{fill:#5CCEF3;}
	.st16{fill:#FF4C3B;}
	.st17{fill:#60CCC9;}
	.st18{fill:none;stroke:#111116;stroke-width:0.75;stroke-miterlimit:10;}
	.st19{fill:#BA3535;}
	.st20{fill:#A01D1A;}
	.st21{fill:#FFFFFF;filter:url(#Adobe_OpacityMaskFilter);}
	.st22{mask:url(#mask0_741_1249_00000156585726472424819460000004986483988929700517_);}
	.st23{opacity:0.4;}
	.st24{fill:#C2B6AA;}
	.st25{fill:#442519;}
	.st26{fill:#FFFFFF;filter:url(#Adobe_OpacityMaskFilter_00000176765280804899175930000003900830581554474123_);}
	.st27{mask:url(#mask1_741_1249_00000000917864836627040190000001182584192149436594_);}
	.st28{fill:#3F2127;}
	.st29{fill:#FFFFFF;filter:url(#Adobe_OpacityMaskFilter_00000013883217291007611710000002677351495079051956_);}
	.st30{mask:url(#mask2_741_1249_00000160166134198820485410000007400223737335425704_);}
	.st31{fill:#5C402C;}
	.st32{fill:#FFFFFF;}
	.st33{fill:#EE676B;}
	.st34{fill:#8D5A2C;}
	.st35{fill:#1D1A15;}
	.st36{fill:#009786;}
	.st37{fill:#512D1D;}
	.st38{fill:#FA7824;}
	.st39{fill:#FFFFFF;filter:url(#Adobe_OpacityMaskFilter_00000061431246097242081110000003524805936425975960_);}
	.st40{mask:url(#mask3_741_1249_00000119099966024954638630000007586346736938364578_);}
	.st41{fill:#AC3D1A;}
	.st42{fill:#FA8617;}
	.st43{fill:#242223;}
	.st44{fill:#1DA69A;}
	.st45{fill:#C9874B;}
	.st46{fill:#B67227;}
	.st47{fill:#FFFFFF;filter:url(#Adobe_OpacityMaskFilter_00000056401433557696383150000011877941694654254989_);}
	.st48{mask:url(#mask4_741_1249_00000153667137881411758180000010687147810594184117_);}
	.st49{fill:#3A1F14;}
	.st50{fill:#9F6224;}
	.st51{fill:#FFFFFF;filter:url(#Adobe_OpacityMaskFilter_00000089539994867653434760000014514343510047443109_);}
	.st52{mask:url(#mask5_741_1249_00000054223427775566779200000016760921362954753721_);}
	.st53{fill:#8D4D31;}
	.st54{fill:#BC3131;}
	.st55{fill:#E23C34;}
	.st56{fill:#27447E;}
	.st57{fill:#192E4F;}
	.st58{fill:none;stroke:#192E4F;stroke-width:0.5;stroke-linecap:round;stroke-linejoin:round;}
	.st59{fill:#161310;}
	.st60{fill:#110F0C;}
	.st61{fill:#FFFFFF;filter:url(#Adobe_OpacityMaskFilter_00000177480391025279238750000003939928141914169233_);}
	.st62{mask:url(#mask6_741_1249_00000097468281927713329370000009291744936396080820_);}
	.st63{fill:#FFFFFF;filter:url(#Adobe_OpacityMaskFilter_00000031199484223852344830000016357084222679938976_);}
	.st64{mask:url(#mask7_741_1249_00000018943833949341429650000000722676358218581396_);}
	.st65{fill:#FFFFFF;filter:url(#Adobe_OpacityMaskFilter_00000036963049293677324130000014502127943862680209_);}
	.st66{mask:url(#mask8_741_1249_00000105394673218424377840000012749638068965630879_);}
	.st67{fill:none;stroke:#110F0D;stroke-width:0.25;stroke-linecap:round;stroke-linejoin:round;}
	.st68{fill:#858B97;}
	.st69{fill:#D9D9D9;}
	.st70{fill:none;stroke:#D9D9D9;}
	.st71{fill:#FFFFFF;filter:url(#Adobe_OpacityMaskFilter_00000181794135507276372550000008476525391218447778_);}
	.st72{mask:url(#path-188-inside-1_741_1249_00000075163683878858292750000003942175865142759043_);fill:#D9D9D9;}
	.st73{clip-path:url(#SVGID_00000077286521826119642330000012058176317915788221_);}
	.st74{clip-path:url(#SVGID_00000042010029250319631370000015128696563515079048_);}
</style>
<g>
	<path class="st0" d="M8,120.5h458c4.1,0,7.5,3.4,7.5,7.5v311c0,4.1-3.4,7.5-7.5,7.5H8c-4.1,0-7.5-3.4-7.5-7.5V128
		C0.5,123.9,3.9,120.5,8,120.5z"/>
	<path class="st1" d="M417,399.2c0,1.5-77,2.8-172,2.8c-95,0-172-1.2-172-2.8c0-1.6,77-2.8,172-2.8C340,396.4,417,397.7,417,399.2z"
		/>
	<path class="st2" d="M225.1,397.7c0,0-107.3-10.4-132.2-107.6c-24.8-97.2,70.7-99.7,117.8-87.9c47,11.8,90.5,0.7,126.1,1.8
		c35.6,1.1,74.7,43,72.2,94.3c-2.5,51.3-35.2,84.6-81.9,96.1C280.4,406,225.1,397.7,225.1,397.7z"/>
	<path class="st3" d="M107.7,334.5c-9.4,6.2-14.6,17.9-13.4,29c0.3,3.1,1.2,6.2,2.5,9.1c0.4,1,1.9,0.1,1.4-0.8
		c-4.4-9.6-2.5-21.5,3.9-29.8c1.8-2.3,4-4.4,6.5-6C109.5,335.3,108.6,333.9,107.7,334.5z"/>
	<path class="st3" d="M89.7,358.5c0.5-7.7,3.9-14.9,9.5-20.2c0.8-0.7-0.4-1.9-1.2-1.2c-5.9,5.6-9.5,13.3-10,21.4
		C87.9,359.6,89.6,359.6,89.7,358.5L89.7,358.5z"/>
	<path class="st3" d="M140.3,399c-18.4,0-35.4-14.9-37.9-33.3c-0.7-4.3-0.4-8.6,0.7-12.8c1.2-4.1,3.2-8,6-11.3
		c2.8-3.2,6.3-5.7,10.2-7.4s8.1-2.5,12.3-2.4c18.4,0,35.4,14.9,37.9,33.3c0.7,4.3,0.4,8.6-0.7,12.8s-3.2,8-6,11.3
		c-2.8,3.2-6.3,5.7-10.2,7.4C148.7,398.3,144.5,399.1,140.3,399z M131.6,336.3c-3.6-0.1-7.2,0.6-10.5,2.1c-3.3,1.4-6.3,3.6-8.7,6.3
		c-2.4,2.8-4.1,6.1-5.1,9.6c-1,3.5-1.2,7.3-0.6,10.9c2.2,16.2,17.3,29.4,33.5,29.4c3.6,0.1,7.2-0.6,10.5-2.1
		c3.3-1.4,6.3-3.6,8.7-6.3c2.4-2.8,4.1-6.1,5.1-9.6c1-3.5,1.2-7.3,0.6-10.9C162.9,349.5,147.9,336.3,131.6,336.3z"/>
	<path class="st3" d="M368.7,399c-18.4,0-35.4-14.9-37.9-33.3c-0.7-4.3-0.4-8.6,0.7-12.8c1.2-4.1,3.2-8,6-11.3
		c2.8-3.2,6.3-5.7,10.2-7.4c3.9-1.7,8.1-2.5,12.3-2.4c18.4,0,35.4,14.9,37.9,33.3c0.7,4.3,0.4,8.6-0.7,12.8c-1.2,4.1-3.2,8-6,11.3
		c-2.8,3.2-6.3,5.7-10.2,7.4C377.1,398.3,372.9,399.1,368.7,399z M360,336.3c-3.6-0.1-7.2,0.6-10.5,2.1c-3.3,1.4-6.3,3.6-8.7,6.3
		c-2.4,2.8-4.1,6.1-5.1,9.6c-1,3.5-1.2,7.3-0.6,10.9c2.2,16.2,17.3,29.4,33.5,29.4c3.6,0.1,7.2-0.6,10.5-2.1
		c3.3-1.4,6.3-3.6,8.7-6.3c2.4-2.8,4.2-6.1,5.1-9.6c1-3.5,1.2-7.3,0.6-10.9C391.3,349.5,376.3,336.3,360,336.3z"/>
	<path class="st3" d="M396.7,348.4c4.5,7.9,6.1,17.2,4.3,26.1c-0.2,1,1.4,1.5,1.6,0.4c1.9-9.4,0.3-19.1-4.5-27.4
		c-0.1-0.2-0.3-0.3-0.5-0.3c-0.2,0-0.4,0-0.6,0.1c-0.2,0.1-0.3,0.3-0.4,0.5C396.6,348,396.6,348.2,396.7,348.4z"/>
	<path class="st3" d="M406.6,353.3c2.7,8.5,2.3,17.7-1.1,25.9c-1,2.3-2.2,4.5-3.6,6.6c-0.6,0.9,0.8,1.7,1.4,0.8
		c5.2-7.7,7.5-16.9,6.5-26.1c-0.3-2.6-0.8-5.1-1.6-7.6C407.9,351.9,406.3,352.3,406.6,353.3L406.6,353.3z"/>
	<path class="st4" d="M149.5,265.2c-0.3-0.3-0.6-0.6-1-0.8c0,0-0.9,0.5-2.4,1c-0.1,0-2.4,0.1-2.9,0.2c-1.3,0.2-2.6,0.6-3.8,1.1
		c-0.2,0.2,0,0.6,0.4,0.7l1.3-0.1l-3.5,1.5c0,0-0.4,0.1-0.3,0.5c0.1,0.3,0.6,0.2,0.6,0.2l3.6-0.9l-3.6,1.8l-0.1,0.1l1.2,0.4l3.2-1.4
		l-2.2,1.6l-0.1,0.1c0.4,0.1,0.7,0.2,1.1,0.3l2.1-1l-1.5,1.1c0.5,0.1,0.9,0.2,1.4,0.2l1.5-0.7c1.1-0.5,2.1-1.1,3-1.7l3.8-2.7
		C150.4,266.3,149.9,265.8,149.5,265.2z"/>
	<path class="st5" d="M179.2,228.2c-3.1,2.6-10,19.8-11.3,20.9c-1.9,1.8-13.9,10.8-20,15c0.8,1.4,1.7,2.9,2.7,4.3
		c6.4-3.7,19.7-11,23-13.3c5.1-3.6,10.4-14.7,10.4-14.7S181.7,226.2,179.2,228.2z"/>
	<path class="st6" d="M213.8,336.8l-3.7,1.7c0,0-4.6,3.4-3.9,3.8c1.7,0.8,8.3-2.6,8.4-3.1C214.8,338.6,213.8,336.8,213.8,336.8z"/>
	<path class="st4" d="M210.1,334.8c0.1,0.3,1.2,2.5,1.2,2.5l-2,1.8c-1,1.6,4.9-1.1,4.9-1.5c0-0.1-1.1-3-1.3-3.4
		c-0.4,0.2-0.9-0.2-1.3-0.1C211.2,334.2,210.6,335,210.1,334.8z"/>
	<path class="st7" d="M196.1,278.4c0,0-2,25.3,13.7,57.9l3.9-1.8c0,0-6-29.6-2.8-45.8c0,0,1.9-8.1,1.7-11.8
		C212.3,272.8,196.1,278.4,196.1,278.4z"/>
	<path class="st8" d="M313.5,338.3l1.6,5.7l1.7,0.4l-0.1-1.8l-1.1-5.8L313.5,338.3z"/>
	<path class="st9" d="M316.7,342.6l0.8,1.9c0,0.1,0,0.2,0,0.3c0,0.1-0.1,0.2-0.2,0.2c-1.2,0.6-6.2,3.4-6.4,2.4c-0.1-0.8,3.3-4,4-4.1
		C315.4,343.1,316.4,343.8,316.7,342.6z"/>
	<path class="st10" d="M308.5,279.6c0,0-8.2,27.4,5.7,62.3l3.2-1.1c0,0-4.3-19.3,2.7-51l1.6-11.5L308.5,279.6z"/>
	<path class="st11" d="M246.8,315.8c-1.2-2.8-9-20.3-16.8-29.1l6.4-5.9l-9.4-6.4c0,0-9.9,3.5-10,6.2c-0.1,4.7,9,13.5,17.2,23.5
		c5.4,6.5,9.2,11.3,10.2,12.7C245.3,316.8,246.1,316.4,246.8,315.8z"/>
	<path class="st9" d="M247,316.2l-3.2,2.4c0,0-3.8,4.4-3,4.5c1.8,0.4,7.5-4.3,7.6-4.8C248.3,317.7,247,316.2,247,316.2z"/>
	<path class="st4" d="M244.4,316.8c0.2,0.3,0.3,0.4,0.3,0.4l-1.6,2.2c0.1,1.9,4.5-2.2,4.4-2.5c0,0-0.5-0.6-0.7-1
		c-0.3,0.3-1.4-0.5-1.8-0.4C244.6,315.7,244.9,316.8,244.4,316.8z"/>
	<g class="st12">
		<path class="st4" d="M223.3,276l-1.1,0.4l-0.8,0.4l2.1,8.2l1.6-1.3L223.3,276z"/>
	</g>
	<path class="st13" d="M240.9,269.6l-9.3,2.5l-9,2.9l2.6,12.7l17.6-2.3L240.9,269.6z"/>
	<path class="st14" d="M223.4,274.5l1.2,4.8l-1.7,0.6L222,275L223.4,274.5z"/>
	<path class="st4" d="M206.5,254.8c-0.1,0.1-0.1,0.3-0.1,0.4c0,0.1,0.1,0.3,0.2,0.4l0.7,0.5l-4.2,0.5c0,0-0.4,0-0.4,0.3
		c0,0.3,0.4,0.4,0.4,0.4l3.3,0.3l-3.5,0.5c0,0-0.4,0.1-0.4,0.5c0.1,0.4,0.5,0.3,0.5,0.3l3.6-0.3l-3,0.9c0,0-0.4,0.1-0.3,0.5
		c0.1,0.3,0.5,0.2,0.5,0.2l3.3-0.5l-2.5,0.8c-0.1,0-0.1,0.1-0.2,0.2c0,0.1,0,0.2,0,0.3c0.1,0.2,0.4,0.2,0.4,0.2l3.2-0.6
		c1-0.1,2-0.3,3-0.6l3.9-1.2c-0.4-0.5-0.7-1-0.8-1.6c-0.2-0.4-0.4-0.7-0.6-1c0,0-0.9,0.1-2.3,0.2c-0.1,0-2.1-0.6-2.5-0.7
		c-0.1,0-0.9-0.6-1.5-0.9c-0.1,0-0.1-0.1-0.2-0.1c-0.1,0-0.1,0-0.2,0c-0.1,0-0.1,0-0.2,0.1C206.6,254.7,206.6,254.8,206.5,254.8z"/>
	<path class="st15" d="M240.8,237.2c0,0-4.7,0.6-6.7,4.2c-3.2,6-6.4,11.2-23.2,14.5l0.4,3.9c0,0,18.8,2,27.8-12.3L240.8,237.2z"/>
	<path class="st16" d="M251.5,291l2.6,16.2l8.1,0.7l-6.3-16.2L251.5,291z"/>
	<path class="st16" d="M142.2,365.6c0,1-0.3,2-0.9,2.9c-0.6,0.9-1.4,1.5-2.3,1.9c-0.9,0.4-2,0.5-3,0.3s-1.9-0.7-2.7-1.4
		c-0.7-0.7-1.2-1.6-1.4-2.6c-0.2-1-0.1-2,0.3-3c0.4-0.9,1.1-1.8,1.9-2.3c0.9-0.6,1.9-0.9,2.9-0.9c0.7,0,1.3,0.1,2,0.4
		c0.6,0.3,1.2,0.6,1.7,1.1c0.5,0.5,0.9,1,1.1,1.7C142,364.2,142.2,364.9,142.2,365.6z"/>
	<path class="st16" d="M369.5,365.5c0,1-0.3,2-0.9,2.9c-0.6,0.9-1.4,1.5-2.3,1.9c-0.9,0.4-2,0.5-3,0.3c-1-0.2-1.9-0.7-2.7-1.4
		c-0.7-0.7-1.2-1.6-1.4-2.6c-0.2-1-0.1-2,0.3-3c0.4-0.9,1.1-1.8,1.9-2.3c0.9-0.6,1.9-0.9,2.9-0.9c1.4,0,2.7,0.5,3.7,1.5
		C369,362.8,369.5,364.1,369.5,365.5z"/>
	<path class="st16" d="M307.2,364l11.5-57.2c0.1-0.3,0.1-0.6,0.1-0.9c0-0.3-0.1-0.6-0.3-0.8c-0.1-0.3-0.3-0.5-0.6-0.7
		c-0.2-0.2-0.5-0.3-0.8-0.4c-0.3-0.1-0.6-0.1-0.9-0.1c-0.3,0-0.6,0.1-0.8,0.3c-0.3,0.1-0.5,0.3-0.7,0.6c-0.2,0.2-0.3,0.5-0.4,0.8
		L297.1,364H307.2z"/>
	<path class="st16" d="M365,367.7l0.9-1.7l-181.7,1.4c-0.3,0-0.7-0.1-0.9-0.2c-1.8-0.9-35.5-23.2-32.6-59.7c0-0.5,0.3-1,0.7-1.4
		c0.4-0.4,0.9-0.6,1.5-0.6l166.2,0.3c0,0,0.1-0.7,0-0.8l47.4,59.9c0.5,0.7,0.8,0.9,0.5,1.6c-0.2,0.4-0.5,0.7-0.8,0.9
		C365.8,367.5,365.4,367.7,365,367.7z M185,360.8l178,2.6l-44.3-53.7H154.8C154,340.3,180.6,358.5,185,360.8z"/>
	<path class="st16" d="M171.1,349.6c-0.3,0-0.6,0-0.8,0.2c-0.3,0.1-0.5,0.3-0.7,0.5c-0.2,0.2-0.4,0.4-0.5,0.7
		c-0.1,0.3-0.2,0.6-0.2,0.8c0,0.3,0.1,0.6,0.2,0.8c0.1,0.3,0.3,0.5,0.5,0.7s0.4,0.4,0.7,0.5c0.3,0.1,0.6,0.2,0.8,0.2l189.2,4.4
		c-1.4-1.4-2.7-2.9-3.8-4.5L171.1,349.6z"/>
	<path class="st16" d="M250.5,366.1c-0.8,0-7.8-0.7-8.2-1.5l-24.1-54.8c-0.3-0.5-0.4-1.1-0.2-1.7c0.2-0.6,0.5-1,1.1-1.3
		c0.5-0.3,1.1-0.4,1.7-0.2c0.6,0.2,1,0.5,1.3,1.1l30.4,55.1c0.1,0.3,0.2,0.5,0.3,0.8c0,0.3,0,0.6-0.1,0.9c-0.1,0.3-0.2,0.5-0.4,0.8
		c-0.2,0.2-0.4,0.4-0.7,0.6C251.3,366,250.9,366.1,250.5,366.1z"/>
	<path class="st16" d="M205,291l2.6,16.2l8.1,0.7l-6.3-16.2L205,291z"/>
	<path class="st3" d="M184.9,285.9l0.3,6.6h31.1c0,0-0.8-6.8-0.8-8.8S184.9,285.9,184.9,285.9z"/>
	<path class="st3" d="M231.7,285.9l0.2,6.6l31,2.5c0,0-0.7-9.3-0.7-11.3C262.3,281.7,231.7,285.9,231.7,285.9z"/>
	<path class="st16" d="M137,367.7c-0.2,0-0.4,0-0.6-0.1c-1.2-0.3-1.5-1.4-1.2-2.6l22.4-88.5c0.1-0.6,0.5-1.1,1-1.4
		c0.5-0.3,1.1-0.4,1.7-0.2c0.6,0.1,1.1,0.5,1.4,1c0.3,0.5,0.4,1.1,0.2,1.7l-23.5,87.6C138.1,366.3,138,367.7,137,367.7z"/>
	<path class="st17" d="M150.4,296.1l-7.8,32.2l7.6,1.9l7.8-32.2L150.4,296.1z"/>
	<path class="st16" d="M136.9,284.2c-0.2,0.2-0.5,0.4-0.7,0.5c-0.3,0.1-0.6,0.2-0.9,0.2c-0.3,0-0.6-0.1-0.9-0.2
		c-0.3-0.1-0.5-0.3-0.7-0.5c-6.9-6.4-4.6-13.1-0.5-16c6.4-4.6,22,4,25,5.8c0.4,0.3,0.6,0.6,0.7,1.1c0.1,0.4,0,0.9-0.2,1.2
		c-0.2,0.4-0.6,0.6-1,0.8s-0.9,0.1-1.3-0.1c-6.6-4.1-18.2-8.6-20.7-5.5c-4.3,5.4-0.6,8,1.2,9.9c0.4,0.4,0.6,0.9,0.6,1.4
		C137.5,283.2,137.3,283.7,136.9,284.2L136.9,284.2z"/>
	<path class="st17" d="M161.4,280.8l-14.8-6.9l1.7-5.5l15,5.6L161.4,280.8z"/>
	<path class="st4" d="M141.2,271.8c0,0,2.4-2.9,2.9-2.9c0.1,0,0.2,0,0.3,0c0.1,0,0.2,0.1,0.2,0.1c0.1,0.1,0.1,0.1,0.2,0.2
		c0,0.1,0.1,0.2,0.1,0.2c-0.6,0.9-1.3,1.7-2,2.4C142.6,271.9,141.3,273,141.2,271.8z"/>
	<path class="st4" d="M139.6,271.2c0,0,2.6-2.7,3-2.8c0.1,0,0.2,0,0.3,0c0.1,0,0.2,0.1,0.2,0.1c0.1,0.1,0.1,0.1,0.1,0.2
		c0,0.1,0.1,0.2,0.1,0.2c-0.6,0.8-1.4,1.6-2.2,2.3C140.9,271.5,139.6,272.5,139.6,271.2z"/>
	<path class="st4" d="M138.1,270.6c0.9-1,1.9-1.9,3-2.8c0.4,0,0.7,0.4,0.7,0.7c-0.6,0.8-1.4,1.6-2.2,2.3
		C139.4,270.9,138.1,271.8,138.1,270.6z"/>
	<path class="st18" d="M319,371.2H213.2c-2.5-0.1-4.9-1.1-6.7-2.9c-1.8-1.8-2.7-4.2-2.7-6.8c0-2.5,0.9-4.9,2.7-6.8
		c1.8-1.8,4.2-2.9,6.7-2.9H319c2.5,0.1,4.9,1.1,6.7,2.9c1.8,1.8,2.7,4.2,2.7,6.8c0,2.5-0.9,5-2.7,6.8
		C323.9,370.1,321.5,371.1,319,371.2z"/>
	<path class="st19" d="M221.2,362.4c0.5-5.5-3.5-10.3-9-10.8s-10.3,3.5-10.9,9c-0.5,5.5,3.5,10.3,9,10.8
		C215.8,371.9,220.7,367.9,221.2,362.4z"/>
	<path class="st20" d="M206.9,344.2l-2.8,1l5.4,15.8l2.8-1L206.9,344.2z"/>
	<path class="st20" d="M209.7,342.5l-8.9,2.2l0.7,2.9l8.9-2.2L209.7,342.5z"/>
	<path class="st19" d="M329.9,361.7c0,2-0.6,3.9-1.7,5.5c-1.1,1.6-2.6,2.9-4.5,3.7c-1.8,0.8-3.8,0.9-5.7,0.6
		c-1.9-0.4-3.7-1.3-5.1-2.7c-1.4-1.4-2.3-3.2-2.7-5.1c-0.4-1.9-0.2-3.9,0.6-5.7c0.8-1.8,2-3.4,3.7-4.5c1.6-1.1,3.6-1.7,5.5-1.7
		c2.6,0,5.2,1,7,2.9C328.9,356.6,329.9,359.1,329.9,361.7z"/>
	<path class="st20" d="M311.9,346.6l-2.5,1.5l8.5,14.4l2.5-1.5L311.9,346.6z"/>
	<path class="st20" d="M313.8,343.8l-7.9,4.7l1.5,2.5l7.9-4.7L313.8,343.8z"/>
	<path class="st19" d="M260.2,361.7c0,2-0.6,3.9-1.7,5.5c-1.1,1.6-2.6,2.9-4.5,3.7c-1.8,0.8-3.8,0.9-5.7,0.6
		c-1.9-0.4-3.7-1.3-5.1-2.7c-1.4-1.4-2.3-3.2-2.7-5.1c-0.4-1.9-0.2-3.9,0.6-5.7c0.8-1.8,2-3.4,3.7-4.5c1.6-1.1,3.6-1.7,5.5-1.7
		c2.6,0,5.2,1,7,2.9C259.1,356.6,260.2,359.1,260.2,361.7z"/>
	<path class="st20" d="M242.4,345.8l-2.5,1.5l8.5,14.4l2.5-1.5L242.4,345.8z"/>
	<path class="st20" d="M243.1,345.3l-7.9,4.7l1.5,2.5l7.9-4.7L243.1,345.3z"/>
	<path class="st4" d="M236,322.4c-0.2-3-1.4-22.1-5.7-33.1l8.1-3.4l-8.4-10.1c0,0-8.8,4.1-9.9,6.6c-0.8,1.9,4.4,12.4,8.7,24.6
		c2.8,8,4.3,13.8,4.7,15.5C234.3,322.8,235.2,322.7,236,322.4z"/>
	<path class="st9" d="M236.1,322.8l-3.9,1.2c0,0-5,2.8-4.4,3.2c1.6,1,8.6-1.5,8.8-1.9C236.5,324.3,236.4,323.5,236.1,322.8z"/>
	<path class="st4" d="M233.5,322.4l0.1,0.5l-2.3,1.5c-0.5,1.8,5-0.5,5-0.9c0-0.1-0.2-0.7-0.3-1.2c-0.4,0.1-1.2-1-1.6-1
		S233.9,322.6,233.5,322.4z"/>
	<defs>
		<filter id="Adobe_OpacityMaskFilter" filterUnits="userSpaceOnUse" x="225.9" y="265.7" width="29.3" height="23.5">
			<feColorMatrix  type="matrix" values="1 0 0 0 0  0 1 0 0 0  0 0 1 0 0  0 0 0 1 0"/>
		</filter>
	</defs>
	
		<mask maskUnits="userSpaceOnUse" x="225.9" y="265.7" width="29.3" height="23.5" id="mask0_741_1249_00000156585726472424819460000004986483988929700517_">
		<path class="st21" d="M236,322.4c-0.2-3-1.4-22.1-5.7-33.1l8.1-3.4l-8.4-10.1c0,0-8.8,4.1-9.9,6.6c-0.8,1.9,4.4,12.4,8.7,24.6
			c2.8,8,4.3,13.8,4.7,15.5l0.1,0.5l-2.3,1.5c-1.4,0.8-4,2.4-3.5,2.7c1.6,1,8.6-1.5,8.8-1.9c0-0.7-0.1-1.4-0.4-2.1
			C236.1,322.9,236.1,322.6,236,322.4z"/>
	</mask>
	<g class="st22">
		<g class="st23">
			<path class="st4" d="M254.3,265.7l-16.3,4.6l-9.9,4.8v-0.1l-2.2,0.7l5.9,13.5l2-0.8c4-0.8,18.8-4,20-5.9
				C256.6,278.4,254.3,265.7,254.3,265.7z"/>
		</g>
	</g>
	<path class="st24" d="M255.3,265.7c0,0,2.3,12.7-0.5,16.9c-1.5,2.2-21,6.1-21,6.1l-6.1-12.8l11.4-5.5L255.3,265.7z"/>
	<path class="st14" d="M229.2,274.9l5.9,13.4l-2.3,0.9l-5.9-13.5L229.2,274.9z"/>
	<path class="st15" d="M253.3,246.8c-2.2-7.7-4.7-8.9-4.7-8.9c-2-0.8-4.2-1.2-6.3-1.1c-0.9,0.1-1.7,0.5-2.4,1.1
		c-1.7,1.7-3,3.8-3.8,6c-2.1,5.6-3.3,11.6-3.6,17.6c-0.8,11.3-0.9,10.7-0.9,10.7c2.2,0.1,4.4,0.7,6.4,1.6c5.2,2.4,12.7,2.5,18.2-4.6
		C256.2,269.1,256,256.4,253.3,246.8z"/>
	<path class="st11" d="M238.8,232.5l1.2,5.2c0,0-1.8,5.5-0.3,5.5c1.5,0,5.4-5.9,5.4-6.4l-1.9-0.2l-1.3-4.8L238.8,232.5z"/>
	<path class="st25" d="M227.6,213.2c1.8,4.7,2.4,9.8,1.8,14.8c-0.4,3.8-1.3,7.6-2.4,11.3l3.4-1l0.6-3v2.8c0,0,5.8-1.9,7-4.3
		l-0.2-6.1l0.7,5.7l1.9-2c0,0,0.7-4.6,0.7-5.3C241.4,220.2,239.9,213.3,227.6,213.2z"/>
	<defs>
		
			<filter id="Adobe_OpacityMaskFilter_00000125582709135447797890000007423754879114875808_" filterUnits="userSpaceOnUse" x="226.1" y="212.3" width="23.8" height="25.8">
			<feColorMatrix  type="matrix" values="1 0 0 0 0  0 1 0 0 0  0 0 1 0 0  0 0 0 1 0"/>
		</filter>
	</defs>
	
		<mask maskUnits="userSpaceOnUse" x="226.1" y="212.3" width="23.8" height="25.8" id="mask1_741_1249_00000000917864836627040190000001182584192149436594_">
		<path style="fill:#FFFFFF;filter:url(#Adobe_OpacityMaskFilter_00000125582709135447797890000007423754879114875808_);" d="
			M238.8,232.5l1.2,5.2c0,0-1.8,5.5-0.3,5.5c1.5,0,5.4-5.9,5.4-6.4l-1.9-0.2l-1.3-4.8L238.8,232.5z"/>
	</mask>
	<g class="st27">
		<g class="st23">
			<path class="st11" d="M245.1,224.1l-1.6-5.7c-0.3-0.8-0.6-1.5-1.1-2.2v-0.1c-0.8-1.1-1.8-2-3-2.7c-1.2-0.7-2.5-1-3.9-1.1
				c-1.4-0.1-2.7,0.1-4,0.6c-1.3,0.5-2.4,1.2-3.3,2.2c-0.1,0.1-0.3,0.3-0.4,0.4c-1.2,1.6-1.8,3.6-1.7,5.7c0.6,2.5,0.7,5.1,0.5,7.7
				c-0.5,3.5,1.3,8,8.6,9.1c4,0.6,7.8-2.6,9.3-4.1c1-1.1,0.5-2.2,0.9-3.6l0.7-2.5c0,0,3.4,0.3,3.8-2.3
				C250.2,222.9,247,219.4,245.1,224.1z"/>
		</g>
	</g>
	<path class="st25" d="M232.5,206.9c-1.7,0.5-3.2,1.5-4.4,2.8c-1.2,1.3-1.9,3-2.2,4.7c4.2-5.7,11.9-8.2,19.7-4.4
		c4,2.2,4.8,9.2,6.4,15.4h0.7C251.9,215.3,248.3,202.1,232.5,206.9z"/>
	<path class="st4" d="M245.1,223l-1.6-5.7c-0.3-0.8-0.6-1.5-1.1-2.1v-0.1c-0.8-1.1-1.8-2-3-2.7c-1.2-0.7-2.5-1-3.9-1.1
		c-1.4-0.1-2.7,0.1-4,0.6c-1.3,0.5-2.4,1.2-3.3,2.2c-0.1,0.1-0.3,0.3-0.4,0.4c-1.2,1.6-1.8,3.6-1.7,5.7c0.6,2.5,0.7,5.1,0.5,7.7
		c-0.5,3.5,1.3,8,8.6,9.1c4,0.6,7.8-2.6,9.3-4.1c1-1.1,0.5-2.2,0.9-3.6l0.7-2.5c0,0,3.4,0.3,3.8-2.3
		C250.2,221.9,247,218.3,245.1,223z"/>
	<path class="st28" d="M236.9,222.5c1.2,0,1.1,2.3,0,2.3C235.8,224.8,235.7,222.5,236.9,222.5z"/>
	<path class="st28" d="M229.3,223.1c1.2,0,1.1,2.3-0.1,2.3C228,225.3,228.1,223,229.3,223.1z"/>
	<defs>
		
			<filter id="Adobe_OpacityMaskFilter_00000180366302076387215290000017745692673190390206_" filterUnits="userSpaceOnUse" x="231.3" y="228.3" width="8.7" height="7.2">
			<feColorMatrix  type="matrix" values="1 0 0 0 0  0 1 0 0 0  0 0 1 0 0  0 0 0 1 0"/>
		</filter>
	</defs>
	
		<mask maskUnits="userSpaceOnUse" x="231.3" y="228.3" width="8.7" height="7.2" id="mask2_741_1249_00000160166134198820485410000007400223737335425704_">
		<path style="fill:#FFFFFF;filter:url(#Adobe_OpacityMaskFilter_00000180366302076387215290000017745692673190390206_);" d="
			M231.3,233.2c-0.1-0.6,0.6-0.8,1.9-0.9c1.9-0.3,3.5-1.2,4.7-2.7c0.8-1.1,1.3-1.5,1.8-1.2c0.4,0.3,0.7,3.4-1.5,5.1
			c-0.6,0.4-1.2,0.8-1.8,1C233.9,235.5,231.5,233.8,231.3,233.2z"/>
	</mask>
	<g class="st30">
		<path class="st31" d="M231.3,233.2c-0.1-0.6,0.6-0.8,1.9-0.9c1.9-0.3,3.5-1.2,4.7-2.7c0.8-1.1,1.3-1.5,1.8-1.2
			c0.4,0.3,0.7,3.4-1.5,5.1c-0.6,0.4-1.2,0.8-1.8,1C233.9,235.5,231.5,233.8,231.3,233.2z"/>
		<path class="st32" d="M238.5,228.5c0,0,0.9,1.7-1.9,3.4c-2.8,1.8-4.2,1.5-4.9,0.4L238.5,228.5z"/>
		<path class="st33" d="M239.4,232.4c-1,0.1-2,0.4-2.9,0.9c-0.9,0.5-1.6,1.2-2.2,2.1l3.3,0.2L239.4,232.4z"/>
	</g>
	<path class="st34" d="M231.9,224.5c0.5,1,0.8,2.9-0.6,3c-0.3,0-0.9-0.2-1.1,0.2c-0.4,0.8,1.5,2,2,2.3c0.3,0.2,0.6-0.3,0.3-0.5
		c-0.3-0.2-1.8-1.2-1.6-1.5c0,0,1.4-0.1,1.6-0.3c0.8-0.8,0.4-2.7,0-3.5C232.2,223.9,231.7,224.2,231.9,224.5L231.9,224.5z"/>
	<path class="st34" d="M246.7,223.9c-0.2-0.4-0.2-0.8-0.1-1.2c0.1-0.4,0.4-0.7,0.7-0.9c0.2-0.1,0-0.4-0.3-0.3
		c-0.4,0.3-0.7,0.7-0.8,1.2c-0.1,0.5-0.1,1,0.1,1.4C246.5,224.3,246.8,224.1,246.7,223.9z"/>
	<path class="st34" d="M246.5,222.6c0.3,0,0.5,0,0.7,0.1s0.4,0.3,0.6,0.5c0.1,0.2,0.2,0.4,0.3,0.7c0,0.3,0,0.5-0.1,0.7
		c-0.1,0.2,0.3,0.4,0.4,0.1c0.1-0.3,0.2-0.6,0.1-0.9c0-0.3-0.1-0.6-0.3-0.8c-0.2-0.2-0.4-0.4-0.7-0.6c-0.3-0.1-0.6-0.2-0.9-0.2
		C246.4,222.3,246.4,222.7,246.5,222.6z"/>
	<path class="st35" d="M235.8,219.5c0.5-0.4,1.1-0.5,1.7-0.4c0.6,0.1,1.1,0.4,1.5,0.9c0.1,0.1,0.1,0.4-0.3,0.3
		c-0.4-0.2-0.8-0.3-1.2-0.3c-0.4,0-0.9,0.1-1.3,0.2C235.8,220.3,235.4,219.8,235.8,219.5z"/>
	<path class="st35" d="M226.8,222c0.1-0.3,0.2-0.5,0.3-0.7c0.2-0.2,0.4-0.4,0.6-0.5c0.2-0.1,0.5-0.2,0.8-0.2c0.3,0,0.5,0,0.8,0.1
		c0.5,0.2,0.2,0.8-0.1,0.7c-0.4,0-0.8,0-1.1,0.2c-0.4,0.1-0.7,0.4-0.9,0.7C226.8,222.5,226.8,222.1,226.8,222z"/>
	<path class="st25" d="M237.5,205.9c0,0,6.6,10.3,6.6,18.3c0.1,3.9-0.2,7.7-0.9,11.5l3.2-1.4l0.2-3.1l0.3,2.8
		c0.8-0.3,1.6-0.8,2.3-1.5c0.7-0.6,1.2-1.4,1.5-2.2l-0.4-6.6l0.8,6.2l2.4-2.7c0,0-0.8-4.8-0.9-5.5
		C251.4,213.3,248.5,205,237.5,205.9z"/>
	<path class="st36" d="M246.2,217.8c0,0,1.2-3.5-1.8-8.4c-2.3-3.8-12.7-5.1-16.4,0.9C228,210.4,244,206,246.2,217.8z"/>
	<path class="st37" d="M225.1,222.8l2.8-0.9l-0.6-4.8l0.8,4.7l6.4-1.6l-1.1-4.6l1.4,4.4l0.6-0.1l-1.2-4.6l1.5,4.5l0.9-0.1l-1-4.7
		l1.9,4.6l3.6-0.3l-0.5-4.7l1.5,4.9l4.9-1.9c0,0-1.5-9-8.4-10.3C232,206,221.7,209.1,225.1,222.8z"/>
	<path class="st38" d="M234.5,271.6c7.4,0,13.4-6,13.4-13.4c0-7.4-6-13.4-13.4-13.4c-7.4,0-13.4,6-13.4,13.4
		C221.2,265.7,227.2,271.6,234.5,271.6z"/>
	<defs>
		
			<filter id="Adobe_OpacityMaskFilter_00000111169484740727546110000003651503415899989432_" filterUnits="userSpaceOnUse" x="201.7" y="239.6" width="62.3" height="45.5">
			<feColorMatrix  type="matrix" values="1 0 0 0 0  0 1 0 0 0  0 0 1 0 0  0 0 0 1 0"/>
		</filter>
	</defs>
	
		<mask maskUnits="userSpaceOnUse" x="201.7" y="239.6" width="62.3" height="45.5" id="mask3_741_1249_00000119099966024954638630000007586346736938364578_">
		<path style="fill:#FFFFFF;filter:url(#Adobe_OpacityMaskFilter_00000111169484740727546110000003651503415899989432_);" d="
			M234.5,271.6c7.4,0,13.4-6,13.4-13.4c0-7.4-6-13.4-13.4-13.4c-7.4,0-13.4,6-13.4,13.4C221.2,265.7,227.1,271.6,234.5,271.6z"/>
	</mask>
	<g class="st40">
		<path class="st41" d="M244.3,270.6c-7.7,0-14-7-14-15.5c0-8.6,6.3-15.5,14-15.5s14,7,14,15.5S252,270.6,244.3,270.6z M244.3,240.9
			c-7,0-12.7,6.4-12.7,14.2s5.7,14.2,12.7,14.2c7,0,12.7-6.4,12.7-14.2C257,247.3,251.3,240.9,244.3,240.9L244.3,240.9z"/>
		<path class="st41" d="M236.4,285.2c-8,0-14.8-4.3-16.6-10.9c-2.2-8.3,4.4-17.2,14.6-19.8c10.2-2.7,20.3,1.9,22.5,10.1
			c2.2,8.3-4.4,17.2-14.6,19.8C240.4,284.9,238.4,285.2,236.4,285.2z M240.3,254.9c-1.9,0-3.8,0.2-5.6,0.7
			c-9.5,2.5-15.7,10.7-13.7,18.3c2,7.6,11.4,11.8,21,9.2c9.6-2.5,15.6-10.7,13.6-18.3C254.1,258.8,247.7,254.9,240.3,254.9z"/>
		<path class="st41" d="M250,265.1c-7.7,0-14-4.4-14-9.7c0-5.4,6.3-9.7,14-9.7c7.7,0,14,4.4,14,9.7C264,260.7,257.7,265.1,250,265.1
			z M250,246.9c-7,0-12.7,3.8-12.7,8.4c0,4.7,5.7,8.4,12.7,8.4c7,0,12.7-3.8,12.7-8.4C262.7,250.7,257,246.9,250,246.9z"/>
		<path class="st41" d="M212,273c-1.2,0-2.3-0.1-3.5-0.4c-3.2-0.8-5.5-2.5-6.4-5c-1.9-5,2.4-11.3,9.7-14c3.2-1.3,6.8-1.6,10.2-0.9
			c3.2,0.8,5.4,2.5,6.4,5c1.9,5-2.4,11.3-9.7,14C216.6,272.6,214.3,273,212,273z M218.5,253.6c-2.1,0-4.3,0.4-6.3,1.2
			c-6.6,2.5-10.6,8-8.9,12.4c0.8,2.1,2.7,3.6,5.5,4.2c3.1,0.7,6.4,0.4,9.4-0.8c6.6-2.5,10.6-8,8.9-12.4c-0.8-2.1-2.7-3.6-5.5-4.2
			C220.7,253.7,219.6,253.6,218.5,253.6z"/>
	</g>
	<path class="st4" d="M229.2,261.1c-0.1-0.4-0.3-0.7-0.5-1c0,0-0.9,0-2.3-0.1c-0.1,0-2-0.8-2.4-1c-0.1,0-0.9-0.7-1.4-1.1
		c-0.1-0.1-0.2-0.1-0.4-0.1c-0.1,0-0.3,0.1-0.4,0.2c-0.1,0.1-0.2,0.2-0.2,0.4c0,0.1,0.1,0.3,0.2,0.4l0.6,0.6l-1.4-0.1
		c-0.5,0.2-0.5,1-0.3,1.2l0.6,0.1h-0.4c-0.3,0.2-0.3,0.9,0.1,1h0.4l-0.4,0.1c-0.1,0.2-0.1,0.4,0,0.6c0.1,0.2,0.2,0.4,0.3,0.5h0.4
		h-0.3c0,0.2,0,0.4,0.1,0.6c0.1,0.2,0.2,0.3,0.4,0.4h0.6c1,0.1,2,0,3-0.2l4.1-0.6C229.5,262.3,229.3,261.7,229.2,261.1z"/>
	<path class="st15" d="M250.2,239.5c-0.5,2-1.3,3.9-2.4,5.7c-3.2,6-5.6,11-22.3,14.2l0.4,3.9c0,0,18.8,2,27.8-12.3
		C253.7,251.1,254.4,247.3,250.2,239.5z"/>
	<path class="st16" d="M311.7,291l2.6,16.2l6,0.4l-4.1-15.9L311.7,291z"/>
	<path class="st3" d="M294.1,285.9l0.2,6.6h31.1c0,0-0.9-6.8-0.9-8.8S294.1,285.9,294.1,285.9z"/>
	<path class="st8" d="M305.1,339.7l2.4,5.4l1.7,0.1l-0.4-1.8l-1.9-5.6L305.1,339.7z"/>
	<path class="st9" d="M308.9,343.4l1.1,1.8c0,0.1,0.1,0.2,0.1,0.3c0,0.1-0.1,0.2-0.1,0.2c-1.1,0.8-5.6,4.3-5.9,3.3
		c-0.2-0.8,2.6-4.4,3.3-4.7C307.8,344.2,308.9,344.7,308.9,343.4z"/>
	<path class="st42" d="M297.8,220.7c-1.8,0.5-3.5,1.4-4.9,2.6c-3.1,5-7.9,15.9-7.9,17.9c0,0.6,8.8,8.2,9.2,8.2
		c1-0.2,2.7-2.7,4.5-5.8C299.6,236.1,299.8,228.6,297.8,220.7z"/>
	<path class="st43" d="M322.3,261.3l1.9,6.5c1.4,4.9,0.9,10.3,0,15.3c0,0-0.2,2.8-31.1,11.2c0,0,6.5,18.7,9.8,28.1
		c3.4,9.4,6.8,19.3,6.8,19.3l-3.1,1.6c0,0-13.9-24.6-29.6-48.8c-0.3-0.5-0.6-1.1-0.7-1.7c-0.3-1.9-0.3-4.9,0.6-6.5
		c1.5-2.6,20.4-13.5,20.4-13.5l0.2-7L322.3,261.3z"/>
	<path class="st44" d="M325.3,272.7c0,0-0.8-37.8-5.4-46.6c-3.7-7-14.6-6.7-14.6-6.7s-7.8,0.2-11.3,3.2c-0.6,0.5,0.1,21.1,2.3,25.2
		c2.2,4.1-1.7,24.3-1.2,25.9C297.3,280.1,320.3,272.6,325.3,272.7z"/>
	<path class="st45" d="M288.4,237.6c0,0-3.7,7.8-5.7,9.8c-3.8,3.7-18.6,10.1-18.6,10.1l2.2,2.6c0,0,16.3-4.8,19-6.3
		c6.5-3.7,12.2-16.2,12.2-16.2L288.4,237.6z"/>
	<path class="st45" d="M270,256.2c-0.3-0.4-0.6-0.7-0.9-0.9c0,0-0.9,0.4-2.5,0.8c-0.1,0-2.4-0.1-2.9-0.1c-1.3,0.1-2.6,0.3-3.9,0.7
		c-0.3,0.2,0,0.6,0.3,0.7h1.3l-3.7,1.2c0,0-0.4,0.1-0.4,0.4c0,0.3,0.5,0.3,0.5,0.3l3.7-0.6l-3.8,1.5l-0.1,0.1l1.1,0.6l3.3-1.1
		l-2.4,1.4l-0.1,0.1c0.3,0.2,0.7,0.3,1,0.4l2.2-0.8l-1.7,1c0.4,0.1,0.9,0.3,1.4,0.3l1.6-0.6c1.1-0.4,2.1-0.8,3.1-1.4l4-2.3
		C270.7,257.3,270.3,256.8,270,256.2z"/>
	<path class="st4" d="M280.6,226.8c-0.2,0-0.3,0-0.5,0.1c-0.1,0.1-0.2,0.3-0.2,0.4l-0.1,1l-3-3.9c0,0-0.2-0.4-0.6-0.2
		c-0.3,0.2-0.1,0.6-0.1,0.6l1.8,3.4l-2.6-3.2c-0.1-0.1-0.2-0.2-0.3-0.2c-0.1,0-0.3,0-0.4,0.1c-0.3,0.2,0,0.7,0,0.7l2.5,3.4l-2.8-2.4
		c0,0-0.4-0.3-0.6,0c-0.3,0.3,0.1,0.7,0.1,0.7l2.5,2.9l-2.3-1.9c-0.1-0.1-0.2-0.1-0.3,0c-0.1,0-0.2,0.1-0.3,0.2
		c-0.2,0.2,0.1,0.5,0.1,0.5l2.5,2.8c0.7,0.9,1.5,1.8,2.4,2.6l3.6,3.1c0.2-0.7,0.6-1.3,1.1-1.8c0.3-0.4,0.4-0.8,0.6-1.2
		c0,0-0.7-0.8-1.6-2.1c-0.1-0.1-0.7-2.4-0.8-2.9c0-0.1,0-1.3,0-2c0-0.2-0.1-0.3-0.2-0.4C280.9,226.8,280.8,226.8,280.6,226.8z"/>
	<path class="st4" d="M304.1,245.7l-2.4,5.3l-19.1-17.6l-2.8,1.8c0,0,18.2,25.3,22.9,25c4.3-0.3,9.5-10.3,9.5-10.3L304.1,245.7z"/>
	<path class="st42" d="M313.2,220.9c0,0-8.6,14.8-9.7,25.3c0,0,4.9,4.6,8.8,4.6c0,0,10.3-8,10-15.8
		C321.9,225.2,313.2,220.9,313.2,220.9z"/>
	<path class="st46" d="M307.8,219.9l-1.6-17.1l-6.3,4.9l-0.4,13.6c0,0,0.3,1.3,3.2,1.5c1,0.1,2.1-0.2,3-0.7
		C306.6,221.6,307.3,220.8,307.8,219.9z"/>
	<defs>
		
			<filter id="Adobe_OpacityMaskFilter_00000083781041286420277870000015669148722125901488_" filterUnits="userSpaceOnUse" x="285.6" y="188.6" width="28" height="32.2">
			<feColorMatrix  type="matrix" values="1 0 0 0 0  0 1 0 0 0  0 0 1 0 0  0 0 0 1 0"/>
		</filter>
	</defs>
	
		<mask maskUnits="userSpaceOnUse" x="285.6" y="188.6" width="28" height="32.2" id="mask4_741_1249_00000153667137881411758180000010687147810594184117_">
		<path style="fill:#FFFFFF;filter:url(#Adobe_OpacityMaskFilter_00000083781041286420277870000015669148722125901488_);" d="
			M307.8,220.7l-1.6-17.1l-6.3,4.9l-0.4,13.5c0,0,0.3,1.3,3.2,1.6c1,0.1,2.1-0.2,3-0.7S307.3,221.6,307.8,220.7z"/>
	</mask>
	<g class="st48">
		<g class="st23">
			<path class="st46" d="M308.6,204.2l-0.7,0.1l-1.3-5.9c-0.3-1.1-0.8-2.2-1.6-3.1l-4-4.3l-11.9-2.4l-3.3,7.4
				c0.6,4.7,0.5,9.4-0.3,14.1c-0.3,1.7,6,10.5,9.9,10.7c5.3,0.3,12.1-7.7,12-8l1.4-3.3c0,0,3.9,0.7,4.6-2.4
				C314.3,204.1,309.7,199.5,308.6,204.2z"/>
		</g>
	</g>
	<path class="st49" d="M309.6,190.3c1.9,4.3,2.3,7.3,2.5,14l-3.2,0.4l-9.3-15.1C299.5,189.6,308.8,188.5,309.6,190.3z"/>
	<path class="st4" d="M308.6,203.2l-0.7,0.1l-1.3-5.9c-0.3-1.1-0.8-2.2-1.6-3.1l-4-4.3l-11.9-2.4l-3.3,7.4c0.6,4.7,0.5,9.4-0.3,14.1
		c-0.3,1.7,6,10.5,9.9,10.7c5.3,0.3,12.1-7.7,12-8l1.4-3.3c0,0,3.9,0.7,4.6-2.4C314.3,203,309.6,198.4,308.6,203.2z"/>
	<path class="st9" d="M296.9,201.8c1.3,0,1.3,2.5,0,2.6S295.7,201.8,296.9,201.8z"/>
	<path class="st9" d="M289.2,202c1.3,0,1.3,2.5,0,2.6C287.9,204.6,287.9,202.1,289.2,202z"/>
	<path class="st50" d="M292.2,203.6c0.6,1,1,3.1-0.6,3.4c-0.4,0.1-1-0.1-1.2,0.3c-0.4,0.9,1.7,2.1,2.3,2.5c0.4,0.2,0.7-0.3,0.3-0.6
		c-0.3-0.2-2-1.3-1.9-1.6c0-0.1,1.5-0.2,1.8-0.4c0.9-0.9,0.4-3-0.2-3.9C292.5,202.9,292,203.2,292.2,203.6z"/>
	<path class="st50" d="M309.3,204.8c0.1-0.4,0.4-0.8,0.8-1.1c0.4-0.3,0.8-0.4,1.3-0.3c0.3,0,0.3-0.4,0-0.4c-0.5,0-1.1,0.1-1.5,0.4
		c-0.5,0.3-0.8,0.8-0.9,1.3C308.8,205,309.2,205.1,309.3,204.8L309.3,204.8z"/>
	<path class="st50" d="M309.7,204c0.3,0,0.6,0.2,0.8,0.3s0.4,0.4,0.5,0.7c0.1,0.3,0.2,0.5,0.2,0.8c0,0.3-0.1,0.6-0.2,0.8
		c0,0,0,0.1,0,0.1c0,0,0,0.1,0,0.1c0,0,0,0.1,0,0.1c0,0,0,0,0.1,0.1c0,0,0.1,0,0.1,0c0,0,0.1,0,0.1,0c0,0,0.1,0,0.1,0
		c0,0,0,0,0.1-0.1c0.2-0.3,0.3-0.7,0.3-1c0-0.4,0-0.7-0.2-1c-0.1-0.3-0.4-0.6-0.7-0.8c-0.3-0.2-0.6-0.4-1-0.4
		C309.6,203.5,309.5,203.9,309.7,204L309.7,204z"/>
	<defs>
		
			<filter id="Adobe_OpacityMaskFilter_00000024704444429805070840000002631204795006548380_" filterUnits="userSpaceOnUse" x="291.2" y="210.8" width="8.8" height="6.2">
			<feColorMatrix  type="matrix" values="1 0 0 0 0  0 1 0 0 0  0 0 1 0 0  0 0 0 1 0"/>
		</filter>
	</defs>
	
		<mask maskUnits="userSpaceOnUse" x="291.2" y="210.8" width="8.8" height="6.2" id="mask5_741_1249_00000054223427775566779200000016760921362954753721_">
		<path style="fill:#FFFFFF;filter:url(#Adobe_OpacityMaskFilter_00000024704444429805070840000002631204795006548380_);" d="
			M291.2,213.5c0-0.5,0.7-0.6,2-0.4c1.7,0.2,3.5-0.3,4.9-1.4c1-0.8,1.5-1,1.9-0.7c0.3,0.4-0.2,3.2-2.5,4.2c-0.6,0.3-1.2,0.4-1.9,0.5
			C293,216.2,291.1,214.1,291.2,213.5z"/>
	</mask>
	<g class="st52">
		<path class="st53" d="M291.2,213.5c0-0.5,0.7-0.6,2-0.4c1.7,0.2,3.5-0.3,4.9-1.4c1-0.8,1.5-1,1.9-0.7c0.3,0.4-0.2,3.2-2.5,4.2
			c-0.6,0.3-1.2,0.4-1.9,0.5C293,216.2,291.1,214.1,291.2,213.5z"/>
		<path class="st32" d="M298.7,210.8c0,0,0.5,1.7-2.5,2.7c-3,1-4.1,0.4-4.5-0.8L298.7,210.8z"/>
		<path class="st33" d="M298.6,214.6c-0.9-0.2-1.9-0.1-2.8,0.2c-0.9,0.3-1.7,0.7-2.4,1.4l3,0.9L298.6,214.6z"/>
	</g>
	<path class="st37" d="M309.8,190.8c0,0-3.4-2.2-8.1,1.9c-5.6,4.9-17.8,7.8-20.9-1.5c0,0-1.5-5.5,5-7.7c-0.1,0.2-0.1,0.4,0,0.6
		c0,0.2,0.1,0.4,0.3,0.6c0.1,0.2,0.3,0.3,0.5,0.4c0.2,0.1,0.4,0.1,0.6,0.1C293.9,185.5,306,178.6,309.8,190.8z"/>
	<path class="st49" d="M286.2,182.3c-4.2,3.1-4.9,8.6-0.3,11.7c6.4,4.4,14.3-1.1,20.5-3.2c0.4-0.2,0.3-0.9-0.2-0.7
		c-3.9,1.4-7.5,3.6-11.6,4.4c-3.1,0.6-6.6,0.5-9-1.7c-3.3-2.9-2.4-7.5,1-9.9C286.9,182.7,286.5,182,286.2,182.3L286.2,182.3z"/>
	<path class="st49" d="M288.4,183.1c-0.9,0.6-1.5,1.4-1.9,2.4c-0.4,1-0.5,2-0.2,3.1c0.2,1,0.8,1.9,1.5,2.7c0.8,0.7,1.7,1.2,2.8,1.4
		c0.5,0.1,0.7-0.6,0.2-0.7c-0.9-0.1-1.7-0.5-2.4-1.1c-0.7-0.6-1.1-1.4-1.4-2.3c-0.2-0.9-0.1-1.8,0.2-2.6c0.3-0.8,0.9-1.6,1.6-2.1
		C289.2,183.4,288.8,182.8,288.4,183.1z"/>
	<path class="st49" d="M290.1,192.2c2.5,1.1,5.2,0.8,7.8,0.4c4.3-0.8,9.7-4.3,12.1,1.4c0.2,0.4,0.8,0,0.6-0.4c-1.2-2.9-2-4-5.2-3.7
		c-5,0.5-9.9,3.9-15.1,1.7C290,191.3,289.6,192,290.1,192.2L290.1,192.2z"/>
	<path class="st49" d="M281,187.9c-0.3,1.8-1.4,3.3-0.7,5.1c0.7,1.5,1.9,2.8,3.4,3.5c2.9,1.5,7.1,1.9,9.6-0.6
		c0.1-0.1,0.1-0.2,0.1-0.2c0-0.1,0-0.2-0.1-0.2c-0.1-0.1-0.1-0.1-0.2-0.1c-0.1,0-0.2,0-0.3,0.1c-2.2,2.2-6.1,1.8-8.7,0.5
		c-1.9-1-3.6-2.6-3.2-5c0.1-0.9,0.6-1.8,0.8-2.7C281.8,187.6,281.1,187.4,281,187.9z"/>
	<path class="st37" d="M295,197.6c0.9-0.4,1.9-0.4,2.8,0c0.9,0.4,1.7,1.1,2.1,2c0.1,0.1,0,0.7-0.6,0.4c-0.6-0.3-2.1-1.6-4-1.1
		C294.8,199,294.2,198,295,197.6z"/>
	<path class="st37" d="M286.3,199.4c0.1-0.3,0.3-0.7,0.5-0.9c0.2-0.3,0.5-0.5,0.9-0.6s0.7-0.2,1.1-0.2c0.4,0,0.7,0.1,1,0.2
		c0.6,0.3,0.1,1.1-0.3,1c-0.5-0.1-1-0.1-1.5,0.1c-0.5,0.2-0.9,0.4-1.3,0.8C286.3,200,286.2,199.5,286.3,199.4z"/>
	<path class="st16" d="M267.9,308.3l0.4-44.5l5.9-1.5l-1.9,46H267.9z"/>
	<path class="st54" d="M267.7,265.9c0,0,6.7,1.3,7.1-0.1c0.3-2.5,0.5-5,0.5-7.5l-7.3-0.1L267.7,265.9z"/>
	<path class="st54" d="M269.8,260.3l-10.2-3.3l-1.2,3.5l10.5,2.8L269.8,260.3z"/>
	<path class="st55" d="M260.3,258.5c0,0.5-0.1,1-0.4,1.4c-0.3,0.4-0.7,0.7-1.1,0.9c-0.5,0.2-1,0.2-1.4,0.1c-0.5-0.1-0.9-0.3-1.3-0.7
		c-0.3-0.3-0.6-0.8-0.7-1.3c-0.1-0.5,0-1,0.1-1.4c0.2-0.5,0.5-0.8,0.9-1.1c0.4-0.3,0.9-0.4,1.4-0.4c0.3,0,0.6,0.1,1,0.2
		s0.6,0.3,0.8,0.5c0.2,0.2,0.4,0.5,0.5,0.8C260.2,257.8,260.3,258.1,260.3,258.5z"/>
	<path class="st4" d="M261.9,262.6c1-1,2-1.8,3.1-2.6c0.1,0,0.2,0,0.3,0.1c0.1,0,0.2,0.1,0.2,0.1c0.1,0.1,0.1,0.1,0.1,0.2
		c0,0.1,0,0.2,0,0.3c-0.7,0.8-1.4,1.6-2.2,2.2C263.2,262.8,261.8,263.8,261.9,262.6z"/>
	<path class="st4" d="M260.4,261.8c0,0,2.8-2.5,3.3-2.5c0.1,0,0.2,0,0.3,0.1c0.1,0,0.1,0.1,0.2,0.2c0.1,0.1,0.1,0.1,0.1,0.2
		c0,0.1,0,0.2,0,0.3c-0.7,0.8-1.5,1.5-2.4,2.1C261.7,262.2,260.2,263,260.4,261.8z"/>
	<path class="st4" d="M258.9,261.1c0,0,2.8-2.5,3.3-2.5c0.1,0,0.2,0,0.2,0.1c0.1,0,0.1,0.1,0.2,0.2c0.1,0.1,0.1,0.1,0.1,0.2
		c0,0.1,0,0.2,0,0.3c-0.7,0.8-1.5,1.5-2.4,2.1C260.2,261.5,258.8,262.3,258.9,261.1z"/>
	<path class="st9" d="M200.6,341.9l-3.5,2.1c0,0-4.2,3.9-3.5,4.2c1.8,0.6,8-3.5,8-4C201.7,343.6,200.6,341.9,200.6,341.9z"/>
	<path class="st4" d="M196.6,340.4c0.2,0.3,1.5,2.3,1.5,2.3l-1.8,2c-0.1,1.9,4.7-1.7,4.7-2.1c0-0.1-1.5-2.8-1.7-3.2
		c-0.4,0.2-1-0.1-1.3,0.1C197.6,339.6,197.2,340.5,196.6,340.4z"/>
	<path class="st56" d="M209.5,260l1.9,6.5c1.4,4.9,1.7,10,0.8,15l-29.7,14.9c4.2,7.7,7.8,15.8,10.8,24.1c2.7,8.3,7.3,20.2,7.3,20.2
		l-3.7,1.8c0,0-17-29.4-28.1-44.2c-0.7-0.7-1.2-1.6-1.5-2.6c-0.4-1.8-0.8-4.8,0.1-6.5c1.5-2.6,23-18.4,23-18.4l0.6-7.2L209.5,260z"
		/>
	<path class="st57" d="M204.3,268.4c0.1,0.9,0.5,1.8,1.2,2.6c0.6,0.7,1.5,1.2,2.4,1.4c0.4,0.1,0.8,0.1,1.2,0.1
		c0.4-0.1,0.8-0.2,1.1-0.5c0.3-0.3,0.6-0.6,0.8-1c0.2-0.4,0.3-0.8,0.3-1.2c0-0.1-0.1-0.2-0.1-0.2c-0.1-0.1-0.2-0.1-0.2-0.1
		c-0.1,0-0.2,0-0.2,0.1c-0.1,0.1-0.1,0.1-0.1,0.2c0.1,2-2.2,2.2-3.6,1.5c-0.5-0.3-1-0.7-1.4-1.2c-0.3-0.5-0.6-1.1-0.6-1.7
		C205,267.9,204.3,267.9,204.3,268.4z"/>
	<path class="st57" d="M198.7,341.5c-0.1-0.2-6.9-16.5-9.7-22.1c-2.8-5.6-13.8-22.4-14.2-22.9l-0.1-0.1v-0.2
		c0.1-0.6,3.5-2.6,23.4-13.2c5.2-2.8,10.1-5.4,10.5-5.7c0.2-1.3,0.2-2.7,0.1-4h0.7c0,1.2,0.1,4-0.3,4.5c-0.2,0.2-1.7,1-10.7,5.9
		c-8.5,4.6-21.2,11.3-22.9,12.6c1.5,2.2,11.5,17.4,14.2,22.8c2.8,5.6,9.7,22,9.7,22.2L198.7,341.5z"/>
	<path class="st58" d="M190.8,266.5c0,0,8,5,19.9-1.7"/>
	<path class="st4" d="M217.4,178.2c-0.1-0.1-0.3-0.1-0.5-0.1c-0.2,0-0.3,0.1-0.4,0.3l-0.5,0.8l-1-4.7c0,0,0-0.4-0.4-0.4
		c-0.4,0-0.4,0.5-0.4,0.5l0.1,3.7l-0.9-3.9c0,0-0.2-0.5-0.6-0.4c-0.4,0.1-0.3,0.6-0.3,0.6l0.7,4.1l-1.3-3.3c0,0-0.2-0.4-0.6-0.3
		c-0.4,0.2-0.2,0.6-0.2,0.6l0.9,3.6l-1.1-2.7c-0.1-0.1-0.2-0.2-0.3-0.2c-0.1,0-0.2,0-0.3,0.1c-0.2,0.1-0.2,0.5-0.2,0.5l1,3.5
		c0.2,1.1,0.5,2.2,1,3.3l1.7,4.3c0.5-0.5,1.1-0.9,1.7-1.1c0.4-0.2,0.7-0.5,1-0.8c0,0-0.2-1-0.4-2.5c0-0.1,0.4-2.4,0.5-2.9
		c0-0.1,0.5-1.1,0.8-1.8c0-0.1,0.1-0.2,0.1-0.3c0-0.1,0-0.2,0-0.3c0-0.1-0.1-0.2-0.1-0.2S217.5,178.2,217.4,178.2z"/>
	<path class="st5" d="M214.6,184.7c-0.5,0.1-1,0.5-1.4,0.9c-0.3,0.5-0.5,1-0.4,1.6c0.8,7.1,0.8,14.3,0,21.5
		c-0.8,8.8-16.7,14.1-18.2,14.7c0,0-5.7,2.9-3.4,2.4l9.9,8.8c1.1,0,1-1.2,2.1-1.1c3.6-2.8,13.1-8.6,16-15.3
		c3.6-8.6-0.2-25.1-1.7-31.7c-0.1-0.3-0.2-0.6-0.4-0.9c-0.2-0.3-0.4-0.5-0.7-0.6c-0.3-0.2-0.6-0.3-0.9-0.3
		C215.2,184.6,214.9,184.6,214.6,184.7z"/>
	<path class="st5" d="M210,261.5c0.1-7.3-0.9-14.7-2.9-21.7c-3.7-11.9-11.5-15.8-11.5-15.8s-8.2-0.3-13.6,2.2
		c-1,0.6-1.9,1.3-2.8,2.1l2,13.3c0,0-0.9,7.6,5.8,10.5l3.5,13.6C190.6,265.6,205.1,267.6,210,261.5z"/>
	<path class="st59" d="M197.3,190.1c0.2-0.1,0.5-0.2,0.7-0.3c0.2-0.2,0.4-0.3,0.5-0.6c0.1-0.2,0.2-0.5,0.2-0.7c0-0.2,0-0.5-0.1-0.7
		c-0.1-0.2-0.2-0.4-0.4-0.6c-0.2-0.2-0.4-0.3-0.6-0.4c-0.2-0.1-0.5-0.1-0.7-0.1c-0.2,0-0.5,0.1-0.7,0.3c0.6-0.4,1-0.9,1.2-1.5
		c0.2-0.6,0.3-1.3,0.1-1.9c-0.1-0.3-0.3-0.6-0.5-0.8c-0.2-0.2-0.5-0.4-0.8-0.5c-0.3-0.1-0.6-0.2-0.9-0.2c-0.3,0-0.6,0.1-0.9,0.2
		c0.2-0.2,0.3-0.5,0.4-0.8c0.1-0.3,0.1-0.6,0-0.9c-0.1-0.3-0.2-0.6-0.3-0.8c-0.2-0.2-0.4-0.4-0.6-0.6c-0.5-0.3-1.1-0.4-1.7-0.3
		c-0.6,0.1-1.1,0.3-1.6,0.7c0.1-0.5,0-1-0.2-1.4c-0.2-0.4-0.5-0.8-1-1.1c-0.4-0.2-0.9-0.3-1.4-0.2c-0.5,0.1-0.9,0.3-1.3,0.7
		c0-0.6-0.2-1.1-0.6-1.5c-0.4-0.4-0.9-0.7-1.5-0.7c-1.2-0.1-2.3,0.3-3.2,1c-0.7-0.4-1.6-0.4-2.4-0.2c-0.8,0.2-1.5,0.8-1.9,1.5
		c-0.3-0.2-0.6-0.3-0.9-0.3c-0.3,0-0.6,0.1-0.9,0.2c-0.3,0.2-0.5,0.4-0.6,0.7c-0.1,0.3-0.2,0.6-0.1,0.9c-1.1-0.4-2.1,1.4-1.2,2.1
		c-0.4-0.1-0.8,0-1.2,0.2c-0.3,0.2-0.6,0.6-0.7,0.9c-0.1,0.4-0.1,0.8,0.1,1.2c0.2,0.4,0.5,0.7,0.8,0.9c-0.5,0.1-0.9,0.4-1.3,0.8
		c-0.3,0.4-0.5,0.9-0.5,1.4c0,0.5,0.2,1,0.6,1.4c0.3,0.4,0.8,0.6,1.3,0.7c-1.4,0.5-1.6,2.5-0.7,3.7c0.5,0.5,1.1,1,1.7,1.2
		c0.7,0.3,1.4,0.4,2.1,0.4l6.8,2.3c1.6,0.5,3.2,0.7,4.8,0.5c1.6-0.2,3.2-0.8,4.6-1.6c0,0.2,0,0.4,0.2,0.6c0.1,0.2,0.3,0.3,0.5,0.3
		c0.4,0,0.9-0.1,1.2-0.3c1-0.5,1.8-1.3,2.5-2.2c0.2,0.1,0.3-0.1,0.4-0.3l1.2-2c0.2-0.2,0.3-0.6,0.3-0.9
		C197.9,190.1,197.5,189.8,197.3,190.1z"/>
	<path class="st59" d="M197.4,190.6c0.3-0.1,0.5-0.3,0.7-0.5c0.2-0.2,0.4-0.5,0.5-0.7c0.1-0.3,0.2-0.6,0.2-0.8
		c0-0.3-0.1-0.6-0.2-0.8c-0.1-0.3-0.3-0.5-0.5-0.7c-0.2-0.2-0.5-0.4-0.7-0.5c-0.3-0.1-0.6-0.2-0.8-0.2c-0.3,0-0.6,0.1-0.8,0.2
		l0.6,0.9c0.7-0.5,1.2-1.1,1.5-2c0.3-0.8,0.2-1.7-0.1-2.5c-0.2-0.3-0.4-0.6-0.7-0.9c-0.3-0.2-0.6-0.4-1-0.6
		c-0.4-0.1-0.7-0.2-1.1-0.1c-0.4,0-0.7,0.1-1.1,0.3l0.7,0.9c0.4-0.5,0.7-1.1,0.6-1.8c0-0.7-0.3-1.3-0.8-1.7
		c-0.6-0.5-1.4-0.7-2.2-0.7c-0.8,0-1.5,0.3-2.1,0.8l0.8,0.6c0.1-0.6,0.1-1.2-0.2-1.8c-0.3-0.6-0.7-1-1.2-1.3
		c-0.5-0.3-1.2-0.4-1.8-0.3c-0.6,0.1-1.2,0.4-1.6,0.8l0.9,0.4c0-0.6-0.2-1.2-0.6-1.7c-0.4-0.5-0.9-0.8-1.5-1c-0.7-0.2-1.4-0.2-2.2,0
		c-0.7,0.2-1.4,0.5-2,0.9h0.6c-0.9-0.4-1.9-0.5-2.8-0.2c-0.9,0.3-1.7,0.9-2.2,1.8l0.9-0.1c-0.4-0.2-0.8-0.4-1.2-0.4
		c-0.4,0-0.9,0.1-1.2,0.3c-0.4,0.2-0.7,0.6-0.8,0.9c-0.2,0.4-0.2,0.8-0.2,1.3l0.7-0.7c-0.4-0.1-0.8,0-1.1,0.1
		c-0.4,0.2-0.6,0.4-0.8,0.8c-0.2,0.3-0.3,0.7-0.2,1.1c0,0.4,0.2,0.7,0.5,1l0.4-0.9c-0.5,0-1,0.1-1.4,0.4c-0.4,0.3-0.7,0.7-0.9,1.2
		c-0.1,0.5-0.1,1,0.1,1.5c0.2,0.5,0.5,0.9,1,1.1l0.1-1c-0.6,0.1-1.2,0.5-1.6,0.9c-0.4,0.5-0.6,1.1-0.6,1.7c0,0.6,0.2,1.2,0.7,1.7
		c0.4,0.5,1,0.8,1.6,0.9l-0.1-1c-1.9,0.8-1.9,3.5-0.6,4.8c0.8,0.8,1.9,1.3,3.1,1.4c0.5,0,0.9,0.1,1.4,0.3l4.1,1.4
		c1.2,0.4,2.3,0.8,3.5,1.1c2.9,0.5,5.9,0,8.4-1.6l-0.8-0.5c-0.1,1.3,1.4,1.7,2.4,1.2c1.2-0.6,2.3-1.5,3.1-2.5l-0.5,0.3
		c0.6,0,0.9-0.5,1.1-1c0.4-0.6,0.8-1.3,1.2-2c0.4-0.9-0.3-2.1-1.4-1.6C196.3,189.9,196.8,190.9,197.4,190.6
		c-0.2,0.1-0.4,0.7-0.6,0.9l-0.6,1c-0.1,0.1-0.2,0.3-0.3,0.5c-0.3,0.3,0.1,0-0.1,0.1c-0.2,0.1-0.4,0.3-0.6,0.5
		c-0.4,0.5-0.8,0.9-1.3,1.3c-0.3,0.2-2,1.3-1.9,0.4c0-0.1,0-0.2-0.1-0.3c0-0.1-0.1-0.2-0.2-0.2c-0.1,0-0.2-0.1-0.3-0.1
		c-0.1,0-0.2,0-0.3,0.1c-2,1.3-4.4,1.8-6.7,1.6c-1.2-0.2-2.4-0.5-3.5-0.9l-3.7-1.3l-1.4-0.5c-0.4-0.1-0.8-0.2-1.2-0.2
		c-0.6,0-1.2-0.2-1.7-0.5c-0.5-0.3-0.9-0.7-1.2-1.2c-0.2-0.4-0.3-0.9-0.1-1.4c0.1-0.5,0.5-0.9,0.9-1.1c0.1-0.1,0.2-0.1,0.2-0.2
		c0-0.1,0.1-0.2,0.1-0.3c0-0.1-0.1-0.2-0.1-0.3c-0.1-0.1-0.2-0.1-0.3-0.2c-0.4,0-0.7-0.2-1-0.5c-0.3-0.3-0.4-0.6-0.4-1
		c0-0.4,0.1-0.8,0.4-1.1c0.2-0.3,0.6-0.5,1-0.6c0.1,0,0.2-0.1,0.3-0.2c0.1-0.1,0.1-0.2,0.1-0.3c0-0.1,0-0.2-0.1-0.3
		s-0.1-0.2-0.2-0.2c-0.2-0.1-0.4-0.3-0.5-0.6c-0.1-0.3-0.1-0.5,0-0.8c0.1-0.3,0.3-0.5,0.5-0.6c0.2-0.1,0.5-0.2,0.8-0.2
		c0.1,0,0.2,0,0.3-0.1c0.1-0.1,0.2-0.1,0.2-0.2c0-0.1,0.1-0.2,0-0.3c0-0.1-0.1-0.2-0.1-0.3c-0.4-0.4,0.1-1.3,0.7-1.2
		c0.1,0,0.2,0,0.3,0c0.1,0,0.2-0.1,0.3-0.1c0.1-0.1,0.1-0.2,0.1-0.2s0-0.2,0-0.3c0-0.2,0-0.4,0.1-0.6c0.1-0.2,0.2-0.3,0.4-0.4
		c0.2-0.1,0.4-0.2,0.6-0.2c0.2,0,0.4,0,0.6,0.1c0.1,0.1,0.1,0.1,0.2,0.1c0.1,0,0.2,0,0.2,0c0.1,0,0.2,0,0.2-0.1
		c0.1,0,0.1-0.1,0.2-0.2c0.2-0.4,0.5-0.7,0.8-0.9s0.7-0.4,1.1-0.5c0.4-0.1,0.7-0.1,1.1,0c0.3,0.1,0.7,0.4,1,0.2
		c0.4-0.1,0.9-0.5,1.4-0.7c0.4-0.2,0.9-0.2,1.4-0.2c0.5,0,0.9,0.2,1.2,0.5c0.3,0.3,0.5,0.8,0.6,1.2c0,0.1,0,0.2,0.1,0.3
		s0.1,0.2,0.2,0.2s0.2,0.1,0.3,0c0.1,0,0.2-0.1,0.3-0.1c0.3-0.3,0.6-0.4,0.9-0.5c0.4-0.1,0.7,0,1.1,0.2c0.3,0.2,0.6,0.4,0.7,0.8
		c0.2,0.3,0.2,0.7,0.2,1.1c-0.1,0.4,0.4,0.9,0.8,0.6c0.4-0.3,0.8-0.6,1.4-0.6c0.5-0.1,1,0,1.5,0.3c0.2,0.1,0.3,0.3,0.4,0.4
		c0.1,0.2,0.2,0.4,0.2,0.5c0,0.2,0,0.4,0,0.6c0,0.2-0.1,0.4-0.3,0.5c-0.1,0.1-0.1,0.2-0.1,0.3s0,0.3,0.1,0.4
		c0.1,0.1,0.2,0.2,0.3,0.2c0.1,0,0.3,0,0.4,0c0.2-0.1,0.4-0.2,0.7-0.2c0.2,0,0.5,0,0.7,0.1c0.2,0.1,0.4,0.2,0.6,0.4
		c0.2,0.2,0.3,0.4,0.4,0.6c0.2,0.5,0.2,1.1,0,1.6c-0.2,0.5-0.5,1-1,1.3c-0.6,0.4-0.1,1.3,0.6,0.9c0.1-0.1,0.3-0.1,0.4-0.1
		c0.1,0,0.3,0,0.4,0.1c0.1,0.1,0.3,0.1,0.4,0.2c0.1,0.1,0.2,0.2,0.2,0.4c0.1,0.1,0.1,0.3,0.1,0.4c0,0.1,0,0.3-0.1,0.4
		c-0.1,0.1-0.1,0.3-0.2,0.4c-0.1,0.1-0.2,0.2-0.4,0.2c-0.1,0-0.2,0.1-0.3,0.3c-0.1,0.1-0.1,0.3-0.1,0.4c0,0.1,0.1,0.2,0.2,0.3
		C197.1,190.6,197.3,190.6,197.4,190.6z"/>
	<path class="st16" d="M170.3,191.1c0,0,15.3-8.5,22.8,5.3L170.3,191.1z"/>
	<path class="st60" d="M169.4,201.5c-0.5,0.5-0.9,1.2-1.1,1.9c-0.2,0.7-0.2,1.5-0.1,2.2c0.3,0.9,0.7,0.4,0.7,0.9
		c0,1.3,0.2,2.6,0.6,3.8c0.1,0.3,0.2,0.6,0.5,0.9c0.6,0.4,1.3-0.3,1.8-0.9c0.1,0.2,0.2,0.3,0.3,0.4c0.1,0.1,0.3,0.2,0.4,0.2
		c0.2,0,0.3,0.1,0.5,0c0.2,0,0.3-0.1,0.5-0.2c0.6-0.4,1-1,1.2-1.7c0.5-1.4,0.8-2.9,0.9-4.4c0.1-1.4-0.2-2.9-1.4-3.6
		c-1.5-0.9-3.4,0.4-4.7,1.5"/>
	<path class="st46" d="M194.7,223.3l-1.8,0.4l-0.1-0.7l-2.2-8.8l-5.2,3.5c0,0,2,6.6,1.4,7c-0.4,0.2-0.9,0.3-1.3,0.3
		c-0.5,0.1-0.9,0.2-1.4,0.4c0,0,0,9.3,6.3,7.4C196.6,230.8,194.7,223.3,194.7,223.3z"/>
	<defs>
		
			<filter id="Adobe_OpacityMaskFilter_00000040557862388453660330000006425593527827514515_" filterUnits="userSpaceOnUse" x="168.9" y="195.4" width="27.8" height="31">
			<feColorMatrix  type="matrix" values="1 0 0 0 0  0 1 0 0 0  0 0 1 0 0  0 0 0 1 0"/>
		</filter>
	</defs>
	
		<mask maskUnits="userSpaceOnUse" x="168.9" y="195.4" width="27.8" height="31" id="mask6_741_1249_00000097468281927713329370000009291744936396080820_">
		<path style="fill:#FFFFFF;filter:url(#Adobe_OpacityMaskFilter_00000040557862388453660330000006425593527827514515_);" d="
			M194.7,223.3l-1.8,0.4l-0.1-0.7l-2.2-8.8l-5.2,3.5c0,0,2,6.6,1.4,7c-0.4,0.2-0.9,0.3-1.3,0.3c-0.5,0.1-0.9,0.2-1.4,0.4
			c0,0,0,9.3,6.3,7.4C196.6,230.8,194.7,223.3,194.7,223.3z"/>
	</mask>
	<g class="st62">
		<g class="st23">
			<path class="st46" d="M191.8,210.1l-2.2-7.5l-3.6-6.3l-13.8-0.9l-3,7.4c0,0,2,3.3-0.2,12.9c-0.4,1.6,1,10.3,9.5,10.7
				c1.3,0.1,2.6,0,3.9-0.3c1.3-0.8,2.7-1.4,4.2-1.7c1.8-1.1,3.3-2.7,4.2-4.6l1.5-4.3c0,0,3.8,0.6,4.5-2.5
				C197.3,209.8,192.7,205.4,191.8,210.1z"/>
		</g>
	</g>
	<path class="st4" d="M191.8,209l-2.2-7.5l-3.6-6.3l-13.8-1l-3,7.4c0,0,2,3.3-0.2,12.9c-0.4,1.6,1,10.3,9.5,10.7
		c8.7,0.4,12.4-6.5,12.3-6.7l1.5-4.3c0,0,3.8,0.6,4.5-2.5C197.4,208.7,192.7,204.3,191.8,209z"/>
	<path class="st28" d="M181.4,208.6c1.3,0.1,1.1,2.7-0.2,2.6C179.8,211.1,180.1,208.4,181.4,208.6z"/>
	<path class="st28" d="M173.5,208.2c1.3,0.1,1.1,2.7-0.2,2.6S172.2,208.1,173.5,208.2z"/>
	<defs>
		
			<filter id="Adobe_OpacityMaskFilter_00000108273057073665785170000015434404766633749684_" filterUnits="userSpaceOnUse" x="165.5" y="189.4" width="30.5" height="19.3">
			<feColorMatrix  type="matrix" values="1 0 0 0 0  0 1 0 0 0  0 0 1 0 0  0 0 0 1 0"/>
		</filter>
	</defs>
	
		<mask maskUnits="userSpaceOnUse" x="165.5" y="189.4" width="30.5" height="19.3" id="mask7_741_1249_00000018943833949341429650000000722676358218581396_">
		<path style="fill:#FFFFFF;filter:url(#Adobe_OpacityMaskFilter_00000108273057073665785170000015434404766633749684_);" d="
			M191.8,209l-2.2-7.5l-3.6-6.3l-13.8-1l-3,7.4c0,0,2,3.3-0.2,12.9c-0.4,1.6,1,10.3,9.5,10.7c8.7,0.4,12.4-6.5,12.3-6.7l1.5-4.3
			c0,0,3.8,0.6,4.5-2.5C197.4,208.7,192.7,204.3,191.8,209z"/>
	</mask>
	<g class="st64">
		<g class="st23">
			<path class="st4" d="M196,203.2c0-0.3-0.2-0.6-0.4-0.9c-0.2-0.3-0.4-0.5-0.7-0.7c0-1.1-0.4-2.2-0.9-3.1c-0.1-0.3-0.3-0.6-0.7-0.8
				c-0.3-0.2-0.7-0.3-1-0.3c-0.1-1.5-1-2.8-2.4-2.4c0-0.3-0.1-0.7-0.3-1c-0.2-0.3-0.4-0.5-0.7-0.7s-0.6-0.3-1-0.3
				c-0.3,0-0.7,0-1,0.2c-0.1-0.5-0.4-0.9-0.7-1.2c-0.3-0.3-0.8-0.6-1.3-0.6c-0.6-0.1-1.2,0-1.7,0.2c-0.1,0-0.2,0.1-0.3,0.1
				c-0.1-1.3-0.6-2.3-2.1-2.1c-0.4,0-0.7,0.2-1,0.4c-0.3,0.2-0.5,0.5-0.7,0.8l-0.2,0.2c-0.3-0.6-0.8-1-1.4-1.3
				c-0.6-0.2-1.3-0.2-1.9,0c-0.5,0.2-1,0.5-1.4,1c-0.4,0.4-0.6,1-0.7,1.5c-2-0.3-4-0.4-5.1,1c-0.3,0.4-0.4,0.9-0.5,1.4
				c-0.1,0.5,0,1,0.1,1.4c-0.7,0.5-1.2,1.2-1.5,2c-0.3,0.8-0.3,1.7,0,2.5h-0.1c-0.4,0.3-0.8,0.7-0.9,1.2c-0.2,0.5-0.1,1,0,1.5
				c0.3,0.4,0.6,0.7,1.1,0.8c0,0.4,0.1,0.8,0.3,1.2c0.3,0.3,0.6,0.6,1,0.7c1.2,0.3,1.8-0.5,2.3-1.5c0.5,0.2,0.9,0.2,1.4,0.1
				c0.5-0.1,0.9-0.3,1.3-0.6c0.5-0.4,0.9-0.9,1-1.5c0.3,0,0.5,0,0.8,0c0.5,0,1-0.3,1.4-0.6c0.4-0.4,0.6-0.9,0.7-1.4
				c0.2,0.3,0.4,0.6,0.7,0.8c0.3,0.2,0.6,0.3,1,0.3c0.3,0,0.6,0,0.9-0.2c0.3-0.1,0.6-0.3,0.7-0.6c0.2,0.1,0.4,0.2,0.7,0.2
				c0.5,0.1,1.1,0.1,1.6,0c1.5-0.1,1.5,1.1,2.9,1.4c0.6,0.1,1.2,0.1,1.7-0.1c0.1,0.2,0.2,0.3,0.3,0.4c0.8,0.9,1.1,0.5,1.1,2
				c0,0.1,0,0.2,0.1,0.3c0.1,0.1,0.2,0.2,0.3,0.2c0.1,0-0.6,2.8,1.4,3.3c4.2,1.1,2.7-3.2,2.9-3.6c1.5-0.7,1.5,0,1.2-1.5
				C195,202.9,196.1,204.2,196,203.2z"/>
		</g>
	</g>
	<defs>
		
			<filter id="Adobe_OpacityMaskFilter_00000140704976087575810850000001870384149499491211_" filterUnits="userSpaceOnUse" x="174.6" y="217.6" width="9" height="5.7">
			<feColorMatrix  type="matrix" values="1 0 0 0 0  0 1 0 0 0  0 0 1 0 0  0 0 0 1 0"/>
		</filter>
	</defs>
	
		<mask maskUnits="userSpaceOnUse" x="174.6" y="217.6" width="9" height="5.7" id="mask8_741_1249_00000105394673218424377840000012749638068965630879_">
		<path style="fill:#FFFFFF;filter:url(#Adobe_OpacityMaskFilter_00000140704976087575810850000001870384149499491211_);" d="
			M174.7,219.1c0.1-0.5,0.8-0.5,2-0.1c1.7,0.4,3.5,0.2,5-0.6c1.1-0.7,1.7-0.8,2-0.4c0.3,0.4-0.7,3.1-3.1,3.8
			c-0.6,0.2-1.3,0.3-1.9,0.2C176.1,222,174.5,219.7,174.7,219.1z"/>
	</mask>
	<g class="st66">
		<path class="st31" d="M174.7,219.1c0.1-0.5,0.8-0.5,2-0.1c1.7,0.4,3.5,0.2,5-0.6c1.1-0.7,1.7-0.8,2-0.4c0.3,0.4-0.7,3.1-3.1,3.8
			c-0.6,0.2-1.3,0.3-1.9,0.2C176.1,222,174.5,219.7,174.7,219.1z"/>
		<path class="st32" d="M182.4,217.6c0,0,0.2,1.8-2.8,2.3c-3.1,0.5-4.1-0.2-4.3-1.4L182.4,217.6z"/>
		<path class="st33" d="M181.8,221.3c-0.9-0.3-1.8-0.4-2.8-0.3c-0.9,0.1-1.8,0.5-2.6,1l2.8,1.3L181.8,221.3z"/>
	</g>
	<path class="st34" d="M176.4,210.1c0.5,1.1,0.7,3.3-0.9,3.4c-0.4,0-1.1-0.2-1.3,0.2c-0.5,0.9,1.6,2.3,2.1,2.8
		c0.3,0.3,0.7-0.3,0.4-0.5c-0.3-0.3-1.9-1.5-1.8-1.8c0,0,1.6,0,1.9-0.3c1-0.8,0.7-3,0.2-4C176.8,209.4,176.2,209.7,176.4,210.1z"/>
	<path class="st34" d="M192.4,211.3c0.1-0.5,0.4-0.8,0.8-1.1c0.4-0.3,0.8-0.4,1.3-0.4c0.3,0,0.3-0.4,0-0.4c-0.6,0-1.1,0.1-1.6,0.5
		c-0.5,0.3-0.8,0.8-0.9,1.4C191.9,211.4,192.3,211.5,192.4,211.3L192.4,211.3z"/>
	<path class="st34" d="M192.9,210.4c0.3,0,0.6,0.2,0.8,0.3c0.2,0.2,0.4,0.4,0.6,0.7c0.1,0.3,0.2,0.6,0.2,0.9c0,0.3-0.1,0.6-0.2,0.8
		c0,0.1,0,0.1,0,0.2c0,0.1,0.1,0.1,0.1,0.1c0.1,0,0.1,0,0.2,0c0.1,0,0.1-0.1,0.1-0.1c0.2-0.3,0.3-0.7,0.3-1c0-0.4-0.1-0.7-0.2-1
		c-0.2-0.3-0.4-0.6-0.7-0.8c-0.3-0.2-0.6-0.4-1-0.4C192.7,210,192.6,210.4,192.9,210.4L192.9,210.4z"/>
	<path class="st35" d="M181.8,205.3c0.6-0.2,1.3-0.2,1.9,0c0.6,0.3,1.1,0.8,1.4,1.4c0.1,0.1,0,0.5-0.4,0.2c-0.4-0.3-0.8-0.6-1.3-0.7
		c-0.5-0.1-1-0.2-1.5-0.1C181.7,206.2,181.3,205.5,181.8,205.3z"/>
	<path class="st35" d="M171.2,205.6c0.1-0.3,0.3-0.5,0.6-0.7c0.2-0.2,0.5-0.3,0.8-0.4c0.3-0.1,0.6-0.1,0.9,0c0.3,0,0.6,0.2,0.9,0.3
		c0.4,0.3,0,0.9-0.3,0.8c-0.4-0.1-0.9-0.2-1.3-0.1c-0.4,0.1-0.9,0.2-1.2,0.5C171.1,206.1,171.1,205.7,171.2,205.6z"/>
	<path class="st35" d="M196,202.1c0-0.3-0.2-0.6-0.4-0.9c-0.2-0.3-0.4-0.5-0.7-0.7c0-1.1-0.4-2.2-0.9-3.1c-0.1-0.3-0.3-0.6-0.7-0.8
		c-0.3-0.2-0.7-0.3-1-0.3c-0.1-1.5-1-2.8-2.4-2.4c0-0.3-0.1-0.7-0.3-1c-0.2-0.3-0.4-0.5-0.7-0.7c-0.3-0.2-0.6-0.3-1-0.3
		s-0.7,0-1,0.2c-0.1-0.5-0.4-0.9-0.7-1.2c-0.3-0.3-0.8-0.6-1.3-0.6c-0.6-0.1-1.2,0-1.7,0.2c-0.1,0-0.2,0.1-0.3,0.1
		c-0.1-1.3-0.6-2.4-2.1-2.1c-0.4,0-0.7,0.2-1,0.4c-0.3,0.2-0.5,0.5-0.7,0.8l-0.2,0.2c-0.3-0.6-0.8-1-1.4-1.3
		c-0.6-0.2-1.3-0.2-1.9,0.1c-0.5,0.2-1,0.5-1.4,1c-0.4,0.4-0.6,1-0.7,1.5c-2-0.3-4-0.4-5.1,1c-0.3,0.4-0.4,0.9-0.5,1.4
		c-0.1,0.5,0,1,0.1,1.4c-0.7,0.5-1.2,1.2-1.5,2c-0.3,0.8-0.3,1.7,0,2.5h-0.1c-0.4,0.3-0.8,0.7-0.9,1.2c-0.2,0.5-0.1,1,0,1.5
		c0.2,0.4,0.6,0.7,1.1,0.8c0,0.4,0.1,0.8,0.3,1.2c0.3,0.3,0.6,0.6,1,0.7c1.2,0.3,1.8-0.5,2.3-1.5c0.5,0.2,0.9,0.2,1.4,0.1
		c0.5-0.1,0.9-0.3,1.3-0.6c0.5-0.4,0.9-0.9,1-1.5c0.3,0.1,0.5,0.1,0.8,0c0.5,0,1-0.3,1.4-0.6c0.4-0.4,0.6-0.9,0.7-1.4
		c0.2,0.3,0.4,0.6,0.7,0.8c0.3,0.2,0.6,0.3,1,0.3c0.3,0,0.6,0,0.9-0.2c0.3-0.1,0.6-0.3,0.7-0.6c0.2,0.1,0.4,0.2,0.7,0.2
		c0.5,0.1,1.1,0.1,1.6,0c1.5-0.1,1.5,1.1,2.9,1.5c0.6,0.1,1.2,0.1,1.7-0.1c0.1,0.1,0.2,0.3,0.3,0.4c0.8,0.9,1.1,0.5,1.1,2.1
		c0,0.1,0,0.2,0.1,0.3c0.1,0.1,0.2,0.2,0.3,0.2c0.1,0,0.1,2.3,0.2,2.8c0,0.1,0.1,0.2,0.2,0.3c0.1,0.1,0.2,0.1,0.3,0.1
		c-0.3,0,0.6,1.6,0.8,1.8c0.3,0.1,0.6,0.2,0.9,0.2s0.6-0.1,0.9-0.2c0.4-0.2,0.7-0.5,0.8-0.9c0.7-0.3,1.3-0.9,1.6-1.5
		c0.4-0.7,0.5-1.5,0.3-2.2C195.8,203.8,196.1,203,196,202.1z"/>
	<path class="st67" d="M167.8,201c-0.3,0-0.5-0.4-0.5-0.7c0-0.2,0.1-0.4,0.2-0.6s0.3-0.3,0.4-0.4c0.2-0.1,0.4-0.1,0.6-0.1
		c0.2,0,0.4,0.1,0.6,0.1c0.2,0.1,0.3,0.3,0.2,0.5c-0.1,0.2-0.3,0.1-0.5,0c-0.2-0.2-0.4-0.5-0.4-0.7c-0.1-0.3-0.1-0.6-0.1-0.9
		c0-0.2,0.1-0.5,0.3-0.4"/>
	<path class="st67" d="M184,196.4c-0.1-0.1-0.2-0.1-0.2-0.2c-0.1-0.1-0.1-0.2-0.1-0.3c0-0.1,0-0.2,0-0.3c0-0.1,0.1-0.2,0.1-0.3
		c0.1-0.2,0.3-0.3,0.5-0.3c0.2-0.1,0.4,0,0.6,0c0.2,0.1,0.4,0.2,0.5,0.4c0.1,0.2,0.2,0.4,0.2,0.6c0,0.1,0,0.2,0,0.3"/>
	<path class="st67" d="M191,198.8c-0.1-0.2,0-0.3,0-0.5c0.1-0.2,0.2-0.3,0.4-0.3c0.2-0.1,0.3-0.1,0.5,0c0.2,0.1,0.3,0.2,0.3,0.3
		c0,0.1,0,0.2,0,0.3c0,0.1-0.1,0.2-0.1,0.2"/>
	<path class="st67" d="M167.9,195.9c-0.8,0.3-1.5,0.8-2,1.4c-0.2,0.3-0.4,0.6-0.4,0.9c0.1,0.3,0.5,0.6,0.8,0.4
		c-0.4,0.5-0.6,1.2-0.5,1.9c0,0.1,0,0.3,0.1,0.4c0,0,0.1,0,0.1,0.1c0,0,0.1,0,0.1,0c0,0,0.1,0,0.1,0c0,0,0.1,0,0.1-0.1l-0.5,1.5
		c-0.1,0.2-0.1,0.4,0,0.6c0.1,0.1,0.2,0.1,0.4,0.1h1c-0.1,0.7-0.2,1.4-0.4,2.2c0,0.1,0,0.1,0,0.2c0,0.1,0,0.1,0.1,0.2
		c0.2,0.2,0.5,0,0.7-0.1c0.3-0.3,0.6-0.6,0.8-1"/>
	<path class="st67" d="M192.8,204.6c-0.1,0.1-0.2,0.2-0.2,0.4c0,0.1,0,0.3,0,0.4c0.1,0.3,0.3,0.5,0.5,0.7c0.1,0.1,0.1,0.1,0.2,0.1
		c0.1,0,0.2-0.1,0.3-0.1c0.2-0.2,0.3-0.5,0.4-0.8"/>
	<path class="st67" d="M193.9,192.6l0.7,2.6c0.1,0.3,0.2,0.5,0.4,0.6c0.1,0,0.2,0,0.3-0.1c0.1,0,0.2-0.1,0.2-0.2
		c0.8-0.8,1.3-1.8,1.4-2.9c0-0.3,0.1-0.6,0.2-0.9c0.3-0.8,1.2-1,1.9-1.6c0.3-0.3,0.5-0.6,0.6-1c0.1-0.4,0.1-0.8,0-1.2
		c-0.1-0.4-0.3-0.7-0.7-0.9s-0.7-0.4-1.1-0.3c-0.8,0.1-1.4,0.7-2.2,1.1c-0.1,0.1-0.2,0.1-0.3,0.1c-0.4,0-0.5-0.6-0.4-0.9
		c0.1-1.8-0.1-3.7-0.8-5.4"/>
	<path class="st67" d="M173,187.3c-0.4,0.2-0.8-0.1-1.1-0.4c-0.7-0.6-1.2-1.4-1.4-2.2c-0.1-0.4-0.1-0.9,0.1-1.3
		c0.2-0.4,0.5-0.7,0.9-0.9c0.3-0.1,0.7-0.1,0.9-0.4c0.1-0.2,0.1-0.4,0.1-0.6c0.2-1.3,0.8-2.6,1.8-3.6c0.3-0.5,0.7-0.9,1.2-1.1
		c0.1,0,0.3-0.1,0.4-0.1c0.1,0,0.3,0,0.4,0.1c0.1,0.1,0.2,0.1,0.3,0.2c0.1,0.1,0.2,0.2,0.2,0.3c0,0.3,0,0.5,0,0.8
		c0.1,0.2,0.2,0.3,0.3,0.4c0.2,0.1,0.3,0.1,0.5,0.1c0.4,0,0.7-0.1,1.1-0.2c0.1,0,0.3,0,0.4,0c0.5,0.2,0.5,0.8,0.4,1.3
		s-0.1,1.1,0.4,1.3c0.3,0.1,0.7,0.1,0.9-0.1c0.8-0.3,1.7-0.5,2.5-0.6c0.5,0,1.1,0,1.3,0.5c0,0.2,0.1,0.4,0,0.5
		c0,0.2-0.1,0.3-0.2,0.5c-0.3,0.5-0.8,0.9-1.3,1.2c-0.5,0.3-1.1,0.5-1.6,0.6"/>
	<path class="st67" d="M184.3,176.9c0.2-0.5,0.6-1,1.1-1.4c0.5-0.4,1-0.6,1.6-0.7c0.3-0.1,0.7,0,0.9,0.2c0.6,0.4,0.5,1.4,1,2
		c0.3,0.3,0.7,0.5,1.1,0.6c0.4,0.1,0.8,0,1.2-0.1c0.8-0.3,1.6-0.5,2.5-0.5c0.2,0,0.4,0.1,0.6,0.2c0.2,0.1,0.3,0.3,0.3,0.5
		c0,0.2,0,0.4-0.1,0.5c-0.1,0.2-0.2,0.3-0.4,0.4c-0.9,0.8-2,1.4-3.1,1.8c-1.2,0.5-2.7,1-3.2,2.2c0,0.1,0,0.1,0,0.2
		c0,0.1,0,0.2,0,0.2c0,0.1,0.1,0.1,0.2,0.2c0.1,0,0.1,0.1,0.2,0.1c0.4,0,0.8-0.1,1.2,0s0.8,0.2,0.9,0.6c0,0.2,0,0.4-0.2,0.6
		c-0.5,0.8-1.2,1.5-2,1.9"/>
	<path class="st67" d="M178.1,193.6c-0.5-0.6-0.9-1.3-1-2c0-0.4,0-0.8,0.2-1.1c0.2-0.3,0.5-0.6,0.8-0.8c0.2-0.1,0.4-0.1,0.6-0.1
		c0.2,0,0.4,0,0.6,0.1c0.2,0.1,0.3,0.2,0.5,0.3c0.1,0.1,0.2,0.3,0.3,0.5c0.2-0.4,0.6-0.8,1-1.1c0.2-0.1,0.5-0.2,0.7-0.1
		c0.3,0,0.5,0.2,0.6,0.4c0.1,0.1,0.1,0.2,0.2,0.3c0.5,0.5,1.5-0.5,2,0c0.5,0.5,0,1.2,0.5,1.3c0.1,0,0.2,0,0.4-0.1
		c0.5-0.2,1.2-0.3,1.5,0.2c0.3,0.5,0,0.8-0.1,1.2c-0.1,0.4-0.2,1,0.2,1.2c0.2,0.1,0.3,0.1,0.5,0.1h1.7c0.2,0,0.4,0,0.6,0.2
		c0.1,0.1,0.1,0.2,0.1,0.3s0,0.2-0.1,0.3c-0.2,0.2-0.4,0.3-0.6,0.4"/>
	<path class="st67" d="M193.4,208.4c0-0.2,0-0.4,0-0.5c0-0.2,0.1-0.4,0.2-0.5c0.1-0.1,0.3-0.3,0.4-0.4c0.2-0.1,0.3-0.1,0.5-0.2
		c0.2,0,0.4,0,0.5,0c0.1-0.1,0.3-0.2,0.3-0.4c0.2-0.3,0.4-0.7,0.4-1.1c0-0.2,0-0.4-0.1-0.6c-0.1-0.2-0.2-0.3-0.4-0.4
		c-0.2,0-0.3,0-0.4-0.2c-0.1-0.2,0-0.4,0.1-0.6c0.5-0.8,0.9-1.8,1.1-2.7c0-0.2,0.1-0.4-0.1-0.5c-0.2-0.1-0.2,0-0.3-0.1
		c-0.3-0.2,0-0.8-0.4-1c-0.4-0.2-0.6,0.3-1,0.3c-0.4,0.1-0.7-0.3-0.8-0.6c0-0.4-0.1-0.7-0.2-1c-0.1-0.3-0.5-0.6-0.8-0.4"/>
	<path class="st67" d="M185.9,199.4c-0.2,0.1-0.4,0.3-0.5,0.6c-0.1,0.2-0.2,0.5-0.2,0.7c0,0.1,0,0.1,0,0.2c0,0.1,0,0.1,0.1,0.2
		c0.1,0.1,0.4,0,0.6-0.1c0.2-0.1,0.4-0.1,0.6-0.1c0.1,0,0.2,0,0.3,0.1c0.1,0.1,0.1,0.1,0.2,0.2c0.1,0.2-0.1,0.5,0,0.7
		c0.1,0.2,0.6,0.1,0.9,0.2c0.6,0.1,0.8,0.8,1.2,1.2c0.1,0.1,0.2,0.1,0.2,0.1c0.1,0,0.1,0,0.2-0.1c0.3-0.2,0.5-0.5,0.7-0.8"/>
	<path class="st67" d="M170.1,203.3c-0.1-0.2,0.1-0.3,0.2-0.4c0.2-0.2,0.5-0.3,0.7-0.4c0.1,0,0.3,0,0.4,0c0.1,0.1,0.2,0.2,0.3,0.3
		c0,0.1,0,0.3,0,0.4s0.1,0.3,0.3,0.3c0.1,0,0.1-0.1,0.2-0.1c0.2-0.3,0.5-0.6,0.9-0.8c0.2-0.1,0.4-0.2,0.6-0.3c0.2,0,0.4-0.1,0.6,0
		c0.1,0,0.2,0,0.4,0.1c0.1,0,0.3,0,0.4-0.1c0.3-0.2,0.6-0.4,0.8-0.7c0.2-0.3,0.4-0.6,0.4-0.9"/>
	<path class="st67" d="M172.5,198.3c0,0.2,0.3,0.4,0.5,0.2c0.1-0.1,0.2-0.2,0.2-0.3c0.1-0.1,0.1-0.2,0.1-0.3"/>
	<path class="st67" d="M169.6,194c-0.1,0.1-0.1,0.2-0.1,0.3c0,0.1,0,0.2,0.1,0.3c0.1,0.1,0.3,0.2,0.5,0.3c0.2,0.1,0.4,0.1,0.6,0
		c0.1,0,0.2-0.1,0.2-0.2c0-0.1,0.1-0.2,0-0.3"/>
	<path class="st67" d="M178,197.3c0.1,0.3,0.3,0.6,0.6,0.8c0.1,0.1,0.2,0.1,0.3,0.1c0.1,0,0.2,0,0.3-0.1c0.1-0.1,0.2-0.2,0.2-0.3
		c0-0.2,0-0.4,0-0.6"/>
	<path class="st67" d="M174.8,191.9c-0.2,0-0.1,0.3,0,0.4c0.1,0.1,0.2,0.1,0.3,0.1c0.1,0,0.2,0,0.3-0.1s0.1-0.2,0.2-0.2
		c0-0.1,0-0.2,0-0.3"/>
	<path class="st67" d="M170.8,185.3c-0.3-0.1-0.5-0.3-0.7-0.6c-0.2-0.3-0.3-0.6-0.3-0.9c0-1.1,1-1.8,1.9-2.4c-0.2,0-0.4-0.1-0.5-0.2
		c-0.2-0.1-0.3-0.3-0.3-0.5c0-0.3,0-0.6,0.2-0.9c0.1-0.3,0.4-0.5,0.7-0.6c0.2-0.2,0.4-0.2,0.7-0.3c0.2,0,0.5,0,0.7,0.1
		c0.2,0.2,0.3,0.4,0.4,0.6l0.4,0.8c0.2,0.3,0.3,0.8-0.1,1c-0.3,0.2-0.6-0.2-0.8-0.5c-0.1-0.5-0.2-1,0-1.5c0.1-0.5,0.4-0.9,0.7-1.3
		c0.7-0.7,1.5-1.3,2.4-1.7"/>
	<path class="st67" d="M193.4,182.3c0-0.5,0.1-0.9,0.4-1.3c0.3-0.4,0.8-0.6,1.2-0.6c0.4-0.1,0.9,0,1.3,0.3c0.4,0.3,0.6,0.6,0.7,1.1
		c0.1,0.9-0.7,1.6-0.8,2.5c0.3-0.1,0.5-0.1,0.8-0.1c0.3,0.1,0.5,0.3,0.6,0.5c0.1,0.2,0.2,0.5,0.2,0.8s-0.1,0.6-0.2,0.8
		c-0.1,0.2-0.2,0.4-0.1,0.6c0.1,0.1,0.2,0.2,0.3,0.2c0.5,0.1,0.9,0.3,1.4,0.5c0.2,0.1,0.4,0.2,0.5,0.4c0.1,0.2,0.2,0.4,0.2,0.7
		c-0.1,0.3-0.2,0.7-0.5,0.9c-0.9,0.9-1.9,1.7-3,2.2c-0.2,0.1-0.5,0.2-0.7,0.3c-0.3,0-0.5,0-0.8-0.2c-0.1-0.1-0.2-0.3-0.3-0.5
		c-0.1-0.2-0.1-0.4-0.1-0.6c0-0.7,0.1-1.5,0.4-2.1"/>
	<path class="st0" d="M269,0.5h342c4.1,0,7.5,3.4,7.5,7.5v234c0,4.1-3.4,7.5-7.5,7.5H269c-4.1,0-7.5-3.4-7.5-7.5V8
		C261.5,3.9,264.9,0.5,269,0.5z"/>
	<path class="st44" d="M325.2,34h3.3c0.7,0,1.4,0.1,1.9,0.3c0.5,0.2,0.9,0.6,1.2,1c0.3,0.4,0.4,1,0.4,1.6c0,0.5-0.1,0.9-0.3,1.3
		c-0.2,0.4-0.4,0.7-0.8,1c-0.3,0.3-0.8,0.5-1.2,0.6l-0.4,0.1h-3.1l0-1.1h2.3c0.5,0,0.9-0.1,1.2-0.2c0.3-0.2,0.6-0.4,0.7-0.7
		c0.2-0.3,0.2-0.6,0.2-0.9c0-0.4-0.1-0.7-0.2-1c-0.2-0.3-0.4-0.5-0.7-0.7c-0.3-0.2-0.7-0.2-1.2-0.2h-2V44h-1.3V34z M331,44l-2.4-4.5
		l1.4,0l2.5,4.4V44H331z M336.7,44.1c-0.5,0-1-0.1-1.4-0.3c-0.4-0.2-0.8-0.4-1.1-0.7c-0.3-0.3-0.5-0.7-0.7-1.1
		c-0.2-0.4-0.2-0.9-0.2-1.4v-0.3c0-0.6,0.1-1.1,0.3-1.6c0.2-0.5,0.4-0.9,0.7-1.2c0.3-0.3,0.7-0.6,1-0.7c0.4-0.2,0.8-0.3,1.2-0.3
		c0.5,0,1,0.1,1.4,0.3c0.4,0.2,0.7,0.4,0.9,0.8c0.2,0.3,0.4,0.7,0.5,1.1c0.1,0.4,0.2,0.9,0.2,1.4v0.6H334v-1h4.3v-0.1
		c0-0.3-0.1-0.6-0.2-1c-0.1-0.3-0.3-0.6-0.5-0.8c-0.3-0.2-0.6-0.3-1-0.3c-0.3,0-0.6,0.1-0.8,0.2c-0.2,0.1-0.4,0.3-0.6,0.5
		c-0.2,0.2-0.3,0.5-0.4,0.9c-0.1,0.3-0.1,0.7-0.1,1.2v0.3c0,0.4,0,0.7,0.1,1c0.1,0.3,0.2,0.6,0.4,0.8c0.2,0.2,0.4,0.4,0.7,0.5
		c0.3,0.1,0.6,0.2,0.9,0.2c0.4,0,0.8-0.1,1.1-0.3c0.3-0.2,0.6-0.4,0.8-0.7l0.8,0.6c-0.2,0.2-0.4,0.5-0.6,0.7
		c-0.2,0.2-0.5,0.4-0.9,0.5C337.6,44.1,337.2,44.1,336.7,44.1z M345.3,42c0-0.2,0-0.4-0.1-0.5c-0.1-0.2-0.2-0.3-0.5-0.4
		c-0.2-0.1-0.6-0.2-1.1-0.3c-0.4-0.1-0.8-0.2-1.1-0.3c-0.3-0.1-0.6-0.3-0.8-0.4c-0.2-0.2-0.4-0.4-0.5-0.6c-0.1-0.2-0.2-0.5-0.2-0.8
		c0-0.3,0.1-0.6,0.2-0.8c0.1-0.3,0.3-0.5,0.6-0.7c0.2-0.2,0.5-0.4,0.9-0.5c0.3-0.1,0.7-0.2,1.1-0.2c0.6,0,1.1,0.1,1.5,0.3
		c0.4,0.2,0.7,0.5,1,0.8c0.2,0.3,0.3,0.7,0.3,1.2h-1.3c0-0.2-0.1-0.4-0.2-0.6c-0.1-0.2-0.3-0.4-0.5-0.5c-0.2-0.1-0.5-0.2-0.8-0.2
		c-0.4,0-0.6,0.1-0.9,0.2c-0.2,0.1-0.4,0.2-0.5,0.4c-0.1,0.2-0.1,0.3-0.1,0.5c0,0.1,0,0.3,0.1,0.4c0,0.1,0.1,0.2,0.3,0.3
		c0.1,0.1,0.3,0.2,0.5,0.2c0.2,0.1,0.5,0.2,0.9,0.2c0.6,0.1,1.1,0.3,1.5,0.5c0.4,0.2,0.7,0.4,0.9,0.7c0.2,0.3,0.3,0.6,0.3,1
		c0,0.3-0.1,0.6-0.2,0.9c-0.1,0.3-0.3,0.5-0.6,0.7c-0.2,0.2-0.6,0.3-0.9,0.5c-0.3,0.1-0.7,0.2-1.2,0.2c-0.7,0-1.2-0.1-1.7-0.3
		c-0.5-0.2-0.8-0.5-1-0.9c-0.2-0.4-0.3-0.8-0.3-1.2h1.3c0,0.3,0.1,0.6,0.3,0.8c0.2,0.2,0.4,0.3,0.7,0.4c0.3,0.1,0.5,0.1,0.8,0.1
		c0.3,0,0.6,0,0.9-0.1c0.2-0.1,0.4-0.2,0.5-0.4C345.3,42.4,345.3,42.2,345.3,42z M349.6,36.6V44h-1.3v-7.4H349.6z M348.3,34.6
		c0-0.2,0.1-0.4,0.2-0.5c0.1-0.1,0.3-0.2,0.6-0.2c0.2,0,0.4,0.1,0.6,0.2c0.1,0.1,0.2,0.3,0.2,0.5c0,0.2-0.1,0.4-0.2,0.5
		c-0.1,0.1-0.3,0.2-0.6,0.2c-0.2,0-0.4-0.1-0.6-0.2C348.3,35,348.3,34.8,348.3,34.6z M357.2,43v1h-5.4v-1H357.2z M357,37.5l-4.9,6.5
		h-0.8v-0.9l4.9-6.5h0.8V37.5z M356.4,36.6v1h-5.1v-1H356.4z M361.6,44.1c-0.5,0-1-0.1-1.4-0.3c-0.4-0.2-0.8-0.4-1.1-0.7
		c-0.3-0.3-0.5-0.7-0.7-1.1c-0.2-0.4-0.2-0.9-0.2-1.4v-0.3c0-0.6,0.1-1.1,0.3-1.6c0.2-0.5,0.4-0.9,0.7-1.2c0.3-0.3,0.7-0.6,1-0.7
		c0.4-0.2,0.8-0.3,1.2-0.3c0.5,0,1,0.1,1.4,0.3c0.4,0.2,0.7,0.4,0.9,0.8c0.2,0.3,0.4,0.7,0.5,1.1c0.1,0.4,0.2,0.9,0.2,1.4v0.6h-5.5
		v-1h4.3v-0.1c0-0.3-0.1-0.6-0.2-1c-0.1-0.3-0.3-0.6-0.5-0.8c-0.2-0.2-0.6-0.3-1-0.3c-0.3,0-0.6,0.1-0.8,0.2
		c-0.2,0.1-0.4,0.3-0.6,0.5c-0.2,0.2-0.3,0.5-0.4,0.9c-0.1,0.3-0.1,0.7-0.1,1.2v0.3c0,0.4,0,0.7,0.1,1c0.1,0.3,0.2,0.6,0.4,0.8
		c0.2,0.2,0.4,0.4,0.7,0.5c0.3,0.1,0.6,0.2,0.9,0.2c0.4,0,0.8-0.1,1.1-0.3c0.3-0.2,0.6-0.4,0.8-0.7l0.8,0.6
		c-0.2,0.2-0.4,0.5-0.6,0.7c-0.2,0.2-0.5,0.4-0.9,0.5C362.5,44.1,362.1,44.1,361.6,44.1z"/>
	<path class="st44" d="M309,111.1h-2.7V110h2.7c0.5,0,0.9-0.1,1.3-0.2s0.6-0.4,0.7-0.7c0.2-0.3,0.2-0.6,0.2-1c0-0.3-0.1-0.7-0.2-1
		c-0.1-0.3-0.4-0.5-0.7-0.7c-0.3-0.2-0.7-0.3-1.3-0.3h-2.4v8.9h-1.3v-10h3.7c0.8,0,1.4,0.1,1.9,0.4c0.5,0.3,0.9,0.6,1.2,1.1
		c0.3,0.5,0.4,1,0.4,1.6c0,0.6-0.1,1.2-0.4,1.6c-0.3,0.5-0.7,0.8-1.2,1C310.3,111,309.7,111.1,309,111.1z M316.9,115.1
		c-0.5,0-1-0.1-1.4-0.3c-0.4-0.2-0.8-0.4-1.1-0.7c-0.3-0.3-0.5-0.7-0.7-1.1c-0.2-0.4-0.2-0.9-0.2-1.4v-0.3c0-0.6,0.1-1.1,0.3-1.6
		c0.2-0.5,0.4-0.9,0.7-1.2c0.3-0.3,0.7-0.6,1-0.7c0.4-0.2,0.8-0.3,1.2-0.3c0.5,0,1,0.1,1.4,0.3c0.4,0.2,0.7,0.4,0.9,0.8
		c0.2,0.3,0.4,0.7,0.5,1.1c0.1,0.4,0.2,0.9,0.2,1.4v0.6h-5.5v-1h4.3v-0.1c0-0.3-0.1-0.6-0.2-1c-0.1-0.3-0.3-0.6-0.5-0.8
		c-0.3-0.2-0.6-0.3-1-0.3c-0.3,0-0.6,0.1-0.8,0.2c-0.2,0.1-0.4,0.3-0.6,0.5c-0.2,0.2-0.3,0.5-0.4,0.9c-0.1,0.3-0.1,0.7-0.1,1.2v0.3
		c0,0.4,0,0.7,0.1,1c0.1,0.3,0.2,0.6,0.4,0.8c0.2,0.2,0.4,0.4,0.7,0.5c0.3,0.1,0.6,0.2,0.9,0.2c0.4,0,0.8-0.1,1.1-0.3
		c0.3-0.2,0.6-0.4,0.8-0.7l0.8,0.6c-0.2,0.2-0.4,0.5-0.6,0.7c-0.2,0.2-0.5,0.4-0.9,0.5C317.8,115.1,317.4,115.1,316.9,115.1z
		 M322.5,108.8v6.2h-1.3v-7.4h1.2L322.5,108.8z M324.8,107.6l0,1.2c-0.1,0-0.2,0-0.3,0c-0.1,0-0.2,0-0.3,0c-0.3,0-0.5,0-0.8,0.1
		c-0.2,0.1-0.4,0.2-0.6,0.4c-0.2,0.2-0.3,0.4-0.4,0.6c-0.1,0.2-0.1,0.5-0.2,0.7l-0.4,0.2c0-0.4,0-0.9,0.1-1.3c0.1-0.4,0.2-0.7,0.4-1
		c0.2-0.3,0.4-0.5,0.7-0.7c0.3-0.2,0.6-0.3,1-0.3c0.1,0,0.2,0,0.3,0C324.7,107.5,324.8,107.5,324.8,107.6z M328.8,114.1
		c0.3,0,0.6-0.1,0.8-0.2s0.5-0.3,0.6-0.5c0.2-0.2,0.3-0.5,0.3-0.7h1.2c0,0.4-0.2,0.8-0.4,1.2c-0.3,0.4-0.6,0.7-1.1,0.9
		c-0.4,0.2-0.9,0.3-1.4,0.3c-0.6,0-1-0.1-1.5-0.3c-0.4-0.2-0.8-0.5-1-0.8c-0.3-0.3-0.5-0.7-0.6-1.2c-0.1-0.4-0.2-0.9-0.2-1.4v-0.3
		c0-0.5,0.1-1,0.2-1.4c0.1-0.4,0.3-0.8,0.6-1.2c0.3-0.3,0.6-0.6,1-0.8c0.4-0.2,0.9-0.3,1.5-0.3c0.6,0,1.1,0.1,1.5,0.4
		c0.4,0.2,0.8,0.6,1,1c0.3,0.4,0.4,0.9,0.4,1.4h-1.2c0-0.3-0.1-0.6-0.3-0.8c-0.1-0.2-0.3-0.4-0.6-0.6c-0.3-0.2-0.5-0.2-0.9-0.2
		c-0.4,0-0.7,0.1-1,0.2c-0.3,0.2-0.5,0.4-0.6,0.6c-0.2,0.3-0.3,0.5-0.3,0.9c-0.1,0.3-0.1,0.6-0.1,0.9v0.3c0,0.3,0,0.6,0.1,1
		c0.1,0.3,0.2,0.6,0.3,0.9c0.2,0.3,0.4,0.5,0.6,0.6C328.1,114,328.4,114.1,328.8,114.1z M336.3,115.1c-0.5,0-1-0.1-1.4-0.3
		c-0.4-0.2-0.8-0.4-1.1-0.7c-0.3-0.3-0.5-0.7-0.7-1.1c-0.2-0.4-0.2-0.9-0.2-1.4v-0.3c0-0.6,0.1-1.1,0.3-1.6c0.2-0.5,0.4-0.9,0.7-1.2
		c0.3-0.3,0.7-0.6,1-0.7c0.4-0.2,0.8-0.3,1.2-0.3c0.5,0,1,0.1,1.4,0.3c0.4,0.2,0.7,0.4,0.9,0.8c0.2,0.3,0.4,0.7,0.5,1.1
		c0.1,0.4,0.2,0.9,0.2,1.4v0.6h-5.5v-1h4.3v-0.1c0-0.3-0.1-0.6-0.2-1c-0.1-0.3-0.3-0.6-0.5-0.8c-0.3-0.2-0.6-0.3-1-0.3
		c-0.3,0-0.6,0.1-0.8,0.2c-0.2,0.1-0.4,0.3-0.6,0.5c-0.2,0.2-0.3,0.5-0.4,0.9c-0.1,0.3-0.1,0.7-0.1,1.2v0.3c0,0.4,0,0.7,0.1,1
		c0.1,0.3,0.2,0.6,0.4,0.8c0.2,0.2,0.4,0.4,0.7,0.5c0.3,0.1,0.6,0.2,0.9,0.2c0.4,0,0.8-0.1,1.1-0.3s0.6-0.4,0.8-0.7l0.8,0.6
		c-0.2,0.2-0.4,0.5-0.6,0.7c-0.2,0.2-0.5,0.4-0.9,0.5C337.2,115.1,336.7,115.1,336.3,115.1z M341.9,109.2v5.8h-1.3v-7.4h1.2
		L341.9,109.2z M341.6,111l-0.5,0c0-0.5,0.1-1,0.2-1.4c0.1-0.4,0.4-0.8,0.6-1.1c0.3-0.3,0.6-0.6,0.9-0.7c0.4-0.2,0.8-0.3,1.2-0.3
		c0.4,0,0.7,0,1,0.1c0.3,0.1,0.5,0.3,0.7,0.5c0.2,0.2,0.4,0.5,0.5,0.8c0.1,0.3,0.2,0.8,0.2,1.2v4.8h-1.3v-4.9c0-0.4-0.1-0.7-0.2-0.9
		c-0.1-0.2-0.3-0.4-0.5-0.5c-0.2-0.1-0.5-0.2-0.8-0.2c-0.3,0-0.6,0.1-0.9,0.2c-0.3,0.1-0.5,0.3-0.7,0.5c-0.2,0.2-0.3,0.5-0.4,0.8
		C341.6,110.4,341.6,110.7,341.6,111z M351.4,107.6v1h-4v-1H351.4z M348.8,105.8h1.3v7.4c0,0.3,0,0.4,0.1,0.6
		c0.1,0.1,0.2,0.2,0.3,0.3c0.1,0,0.3,0.1,0.4,0.1c0.1,0,0.2,0,0.3,0c0.1,0,0.2,0,0.3-0.1l0,1c-0.1,0-0.2,0.1-0.4,0.1
		c-0.2,0-0.4,0-0.6,0c-0.3,0-0.6-0.1-0.9-0.2c-0.3-0.1-0.5-0.3-0.6-0.6c-0.1-0.3-0.2-0.7-0.2-1.2V105.8z M357.3,113.7v-3.8
		c0-0.3-0.1-0.5-0.2-0.8c-0.1-0.2-0.3-0.4-0.5-0.5c-0.2-0.1-0.5-0.2-0.9-0.2c-0.3,0-0.6,0.1-0.8,0.2c-0.2,0.1-0.4,0.3-0.6,0.4
		c-0.1,0.2-0.2,0.4-0.2,0.6h-1.3c0-0.3,0.1-0.5,0.2-0.8c0.1-0.3,0.3-0.5,0.6-0.7c0.3-0.2,0.6-0.4,0.9-0.5c0.4-0.1,0.8-0.2,1.2-0.2
		c0.5,0,1,0.1,1.4,0.3c0.4,0.2,0.7,0.5,1,0.8c0.2,0.4,0.4,0.8,0.4,1.4v3.4c0,0.2,0,0.5,0.1,0.8c0,0.3,0.1,0.5,0.2,0.7v0.1h-1.3
		c-0.1-0.1-0.1-0.3-0.1-0.6C357.3,114.2,357.3,113.9,357.3,113.7z M357.5,110.5l0,0.9h-1.3c-0.4,0-0.7,0-1,0.1
		c-0.3,0.1-0.5,0.1-0.7,0.3c-0.2,0.1-0.3,0.3-0.4,0.4c-0.1,0.2-0.2,0.4-0.2,0.6c0,0.2,0.1,0.4,0.2,0.6c0.1,0.2,0.3,0.3,0.5,0.5
		c0.2,0.1,0.5,0.2,0.8,0.2c0.4,0,0.7-0.1,1-0.2c0.3-0.2,0.5-0.4,0.7-0.6c0.2-0.2,0.3-0.5,0.3-0.7l0.5,0.6c0,0.2-0.1,0.4-0.3,0.6
		c-0.1,0.2-0.3,0.5-0.6,0.7c-0.2,0.2-0.5,0.4-0.8,0.5c-0.3,0.1-0.7,0.2-1.1,0.2c-0.5,0-0.9-0.1-1.3-0.3c-0.4-0.2-0.7-0.5-0.9-0.8
		c-0.2-0.3-0.3-0.7-0.3-1.1c0-0.4,0.1-0.7,0.2-1c0.2-0.3,0.4-0.6,0.7-0.8c0.3-0.2,0.6-0.4,1.1-0.5c0.4-0.1,0.9-0.2,1.4-0.2H357.5z
		 M365.3,107.6h1.1v7.2c0,0.7-0.1,1.2-0.4,1.7c-0.3,0.5-0.6,0.8-1.1,1c-0.5,0.2-1,0.4-1.6,0.4c-0.3,0-0.6,0-0.9-0.1
		c-0.3-0.1-0.7-0.2-1-0.4c-0.3-0.2-0.6-0.4-0.8-0.8l0.7-0.8c0.3,0.4,0.6,0.6,1,0.8c0.3,0.1,0.7,0.2,1,0.2c0.4,0,0.7-0.1,1-0.2
		c0.3-0.2,0.5-0.4,0.7-0.7c0.2-0.3,0.2-0.7,0.2-1.1v-5.7L365.3,107.6z M360.2,111.4v-0.1c0-0.6,0.1-1.1,0.2-1.5
		c0.1-0.5,0.3-0.9,0.6-1.2c0.3-0.3,0.6-0.6,0.9-0.8c0.4-0.2,0.8-0.3,1.2-0.3c0.5,0,0.9,0.1,1.2,0.2c0.4,0.2,0.6,0.4,0.9,0.7
		c0.2,0.3,0.4,0.7,0.6,1.1c0.1,0.4,0.2,0.9,0.3,1.5v0.6c0,0.5-0.1,1-0.3,1.5c-0.1,0.4-0.3,0.8-0.6,1.1c-0.2,0.3-0.5,0.5-0.9,0.7
		c-0.4,0.2-0.8,0.2-1.2,0.2c-0.4,0-0.8-0.1-1.2-0.3c-0.4-0.2-0.7-0.4-0.9-0.8c-0.3-0.3-0.5-0.7-0.6-1.2
		C360.3,112.4,360.2,111.9,360.2,111.4z M361.5,111.2v0.1c0,0.4,0,0.7,0.1,1c0.1,0.3,0.2,0.6,0.3,0.9c0.2,0.2,0.4,0.4,0.6,0.6
		c0.2,0.1,0.5,0.2,0.9,0.2c0.4,0,0.8-0.1,1-0.3c0.3-0.2,0.5-0.4,0.6-0.7c0.2-0.3,0.3-0.6,0.4-1v-1.6c-0.1-0.3-0.1-0.5-0.2-0.7
		c-0.1-0.2-0.2-0.4-0.4-0.6c-0.2-0.2-0.4-0.3-0.6-0.4c-0.2-0.1-0.5-0.2-0.8-0.2c-0.3,0-0.6,0.1-0.9,0.2c-0.2,0.1-0.4,0.3-0.6,0.6
		c-0.2,0.2-0.3,0.5-0.3,0.9C361.5,110.5,361.5,110.9,361.5,111.2z M371.5,115.1c-0.5,0-1-0.1-1.4-0.3c-0.4-0.2-0.8-0.4-1.1-0.7
		c-0.3-0.3-0.5-0.7-0.7-1.1c-0.2-0.4-0.2-0.9-0.2-1.4v-0.3c0-0.6,0.1-1.1,0.3-1.6c0.2-0.5,0.4-0.9,0.7-1.2c0.3-0.3,0.7-0.6,1-0.7
		c0.4-0.2,0.8-0.3,1.2-0.3c0.5,0,1,0.1,1.4,0.3c0.4,0.2,0.7,0.4,0.9,0.8c0.2,0.3,0.4,0.7,0.5,1.1c0.1,0.4,0.2,0.9,0.2,1.4v0.6h-5.5
		v-1h4.3v-0.1c0-0.3-0.1-0.6-0.2-1c-0.1-0.3-0.3-0.6-0.5-0.8c-0.3-0.2-0.6-0.3-1-0.3c-0.3,0-0.6,0.1-0.8,0.2
		c-0.2,0.1-0.4,0.3-0.6,0.5c-0.2,0.2-0.3,0.5-0.4,0.9c-0.1,0.3-0.1,0.7-0.1,1.2v0.3c0,0.4,0,0.7,0.1,1c0.1,0.3,0.2,0.6,0.4,0.8
		c0.2,0.2,0.4,0.4,0.7,0.5c0.3,0.1,0.6,0.2,0.9,0.2c0.4,0,0.8-0.1,1.1-0.3s0.6-0.4,0.8-0.7l0.8,0.6c-0.2,0.2-0.4,0.5-0.6,0.7
		c-0.2,0.2-0.5,0.4-0.9,0.5C372.4,115.1,372,115.1,371.5,115.1z"/>
	<path d="M293,167.9l-2.6,8.1H288l3.7-10h1.5L293,167.9z M295.1,176l-2.6-8.1l-0.3-1.9h1.5l3.7,10H295.1z M295,172.3v1.7h-5.2v-1.7
		H295z M302.1,173.9c0-0.1,0-0.3-0.1-0.4c-0.1-0.1-0.2-0.2-0.5-0.3c-0.2-0.1-0.5-0.2-0.9-0.3c-0.4-0.1-0.7-0.2-1-0.3
		c-0.3-0.1-0.6-0.3-0.8-0.5c-0.2-0.2-0.4-0.4-0.6-0.6c-0.1-0.3-0.2-0.5-0.2-0.9c0-0.3,0.1-0.6,0.2-0.9c0.1-0.3,0.3-0.5,0.6-0.7
		c0.3-0.2,0.6-0.4,0.9-0.5c0.4-0.1,0.8-0.2,1.3-0.2c0.7,0,1.2,0.1,1.7,0.3c0.5,0.2,0.8,0.5,1.1,0.8c0.3,0.4,0.4,0.8,0.4,1.2H302
		c0-0.2,0-0.4-0.1-0.5c-0.1-0.1-0.2-0.2-0.3-0.3c-0.2-0.1-0.3-0.1-0.6-0.1c-0.2,0-0.4,0-0.5,0.1c-0.1,0.1-0.3,0.2-0.3,0.3
		c-0.1,0.1-0.1,0.2-0.1,0.4c0,0.1,0,0.2,0.1,0.3c0.1,0.1,0.1,0.2,0.2,0.2c0.1,0.1,0.2,0.1,0.4,0.2c0.2,0.1,0.4,0.1,0.6,0.2
		c0.5,0.1,1,0.2,1.4,0.4c0.4,0.2,0.8,0.4,1,0.7c0.3,0.3,0.4,0.7,0.4,1.2c0,0.3-0.1,0.6-0.2,0.9c-0.1,0.3-0.4,0.5-0.6,0.7
		c-0.3,0.2-0.6,0.4-1,0.5s-0.8,0.2-1.3,0.2c-0.7,0-1.3-0.1-1.8-0.4c-0.5-0.3-0.8-0.6-1.1-0.9c-0.2-0.4-0.4-0.8-0.4-1.2h2
		c0,0.2,0.1,0.4,0.2,0.6c0.1,0.2,0.3,0.3,0.5,0.3c0.2,0.1,0.4,0.1,0.6,0.1c0.2,0,0.4,0,0.6-0.1c0.2-0.1,0.3-0.2,0.4-0.3
		C302.1,174.2,302.1,174.1,302.1,173.9z M312.8,174.2v-3.2c0-0.2,0-0.4-0.1-0.6c-0.1-0.2-0.2-0.3-0.3-0.4c-0.1-0.1-0.3-0.1-0.6-0.1
		c-0.2,0-0.4,0-0.5,0.1c-0.1,0.1-0.2,0.2-0.3,0.3c-0.1,0.1-0.1,0.3-0.1,0.5h-2.1c0-0.3,0.1-0.6,0.2-0.9c0.1-0.3,0.4-0.5,0.6-0.8
		c0.3-0.2,0.6-0.4,1-0.5c0.4-0.1,0.8-0.2,1.3-0.2c0.6,0,1.1,0.1,1.5,0.3c0.5,0.2,0.8,0.5,1.1,0.9c0.3,0.4,0.4,0.9,0.4,1.4v3.1
		c0,0.4,0,0.8,0.1,1.1c0.1,0.2,0.1,0.5,0.2,0.7v0.1h-2.2c-0.1-0.2-0.2-0.5-0.2-0.8C312.8,174.9,312.8,174.6,312.8,174.2z M313,171.5
		l0,1.2H312c-0.2,0-0.4,0-0.6,0.1c-0.2,0.1-0.3,0.1-0.4,0.2c-0.1,0.1-0.2,0.2-0.2,0.4c0,0.1-0.1,0.3-0.1,0.4c0,0.1,0,0.3,0.1,0.4
		c0.1,0.1,0.2,0.2,0.3,0.3c0.1,0.1,0.3,0.1,0.4,0.1c0.3,0,0.5-0.1,0.7-0.2c0.2-0.1,0.4-0.2,0.5-0.4c0.1-0.2,0.2-0.3,0.2-0.4l0.5,0.9
		c-0.1,0.2-0.2,0.4-0.3,0.6c-0.1,0.2-0.3,0.4-0.5,0.5c-0.2,0.2-0.4,0.3-0.7,0.4c-0.3,0.1-0.6,0.2-0.9,0.2c-0.5,0-0.9-0.1-1.3-0.3
		c-0.4-0.2-0.7-0.5-0.9-0.8c-0.2-0.3-0.3-0.7-0.3-1.1c0-0.4,0.1-0.7,0.2-1c0.1-0.3,0.4-0.6,0.6-0.8c0.3-0.2,0.6-0.4,1.1-0.5
		c0.4-0.1,0.9-0.2,1.5-0.2H313z M323.8,172.5h-2.5v-1.7h2.5c0.4,0,0.7-0.1,0.9-0.2c0.2-0.1,0.4-0.3,0.5-0.5c0.1-0.2,0.2-0.5,0.2-0.7
		c0-0.3-0.1-0.5-0.2-0.8c-0.1-0.2-0.3-0.4-0.5-0.6c-0.2-0.1-0.5-0.2-0.9-0.2h-1.7v8.2h-2.2v-10h3.9c0.8,0,1.5,0.1,2,0.4
		c0.6,0.3,1,0.7,1.3,1.2c0.3,0.5,0.5,1.1,0.5,1.7c0,0.6-0.2,1.2-0.5,1.7c-0.3,0.5-0.7,0.8-1.3,1.1
		C325.3,172.4,324.6,172.5,323.8,172.5z M332.3,176.1c-0.6,0-1.1-0.1-1.6-0.3c-0.5-0.2-0.9-0.4-1.2-0.8c-0.3-0.3-0.6-0.7-0.7-1.1
		c-0.2-0.4-0.3-0.9-0.3-1.4v-0.3c0-0.6,0.1-1.1,0.2-1.5c0.2-0.5,0.4-0.9,0.7-1.2c0.3-0.3,0.7-0.6,1.1-0.8c0.4-0.2,0.9-0.3,1.5-0.3
		c0.5,0,1,0.1,1.4,0.3c0.4,0.2,0.8,0.4,1,0.7c0.3,0.3,0.5,0.7,0.6,1.1c0.1,0.4,0.2,0.9,0.2,1.5v0.9h-6v-1.4h3.9v-0.2
		c0-0.3,0-0.5-0.1-0.7c-0.1-0.2-0.2-0.3-0.4-0.5c-0.2-0.1-0.4-0.2-0.7-0.2c-0.3,0-0.5,0.1-0.6,0.2c-0.2,0.1-0.3,0.3-0.4,0.5
		c-0.1,0.2-0.2,0.4-0.2,0.7c0,0.3-0.1,0.5-0.1,0.8v0.3c0,0.3,0,0.5,0.1,0.8c0.1,0.2,0.2,0.4,0.3,0.6c0.1,0.2,0.3,0.3,0.5,0.4
		c0.2,0.1,0.5,0.1,0.7,0.1c0.3,0,0.7-0.1,1-0.2c0.3-0.1,0.6-0.3,0.8-0.6l1,1.1c-0.2,0.2-0.4,0.4-0.6,0.6c-0.3,0.2-0.6,0.4-1,0.5
		C333.2,176.1,332.8,176.1,332.3,176.1z M338.5,170.3v5.7h-2.1v-7.4h2L338.5,170.3z M340.7,168.5l0,2c-0.1,0-0.2,0-0.4,0
		c-0.1,0-0.3,0-0.4,0c-0.3,0-0.5,0-0.7,0.1c-0.2,0.1-0.4,0.2-0.5,0.3c-0.1,0.1-0.2,0.3-0.3,0.5c-0.1,0.2-0.1,0.4-0.1,0.6l-0.4-0.2
		c0-0.5,0-0.9,0.1-1.3c0.1-0.4,0.2-0.8,0.4-1.1c0.2-0.3,0.4-0.5,0.7-0.7c0.3-0.2,0.6-0.2,0.9-0.2c0.1,0,0.2,0,0.3,0
		C340.6,168.5,340.7,168.5,340.7,168.5z M344.6,174.5c0.2,0,0.4,0,0.6-0.1c0.2-0.1,0.3-0.2,0.4-0.4c0.1-0.2,0.1-0.4,0.1-0.6h2
		c0,0.5-0.1,1-0.4,1.4c-0.3,0.4-0.6,0.7-1.1,1c-0.5,0.2-1,0.3-1.6,0.3c-0.6,0-1.1-0.1-1.5-0.3c-0.4-0.2-0.8-0.5-1.1-0.8
		c-0.3-0.3-0.5-0.7-0.6-1.2c-0.1-0.5-0.2-0.9-0.2-1.5v-0.2c0-0.5,0.1-1,0.2-1.5c0.1-0.5,0.4-0.9,0.6-1.2c0.3-0.3,0.6-0.6,1.1-0.8
		c0.4-0.2,0.9-0.3,1.5-0.3c0.6,0,1.1,0.1,1.6,0.3c0.5,0.2,0.8,0.6,1.1,1c0.3,0.4,0.4,1,0.4,1.6h-2c0-0.2,0-0.4-0.1-0.6
		c-0.1-0.2-0.2-0.3-0.4-0.5c-0.2-0.1-0.4-0.2-0.6-0.2c-0.3,0-0.5,0.1-0.6,0.2c-0.2,0.1-0.3,0.3-0.4,0.5s-0.1,0.4-0.2,0.7
		c0,0.2,0,0.5,0,0.8v0.2c0,0.3,0,0.6,0,0.8c0,0.3,0.1,0.5,0.2,0.7c0.1,0.2,0.2,0.3,0.4,0.5C344.1,174.4,344.3,174.5,344.6,174.5z
		 M352.3,176.1c-0.6,0-1.1-0.1-1.6-0.3c-0.5-0.2-0.9-0.4-1.2-0.8c-0.3-0.3-0.6-0.7-0.7-1.1c-0.2-0.4-0.3-0.9-0.3-1.4v-0.3
		c0-0.6,0.1-1.1,0.2-1.5c0.2-0.5,0.4-0.9,0.7-1.2c0.3-0.3,0.7-0.6,1.1-0.8c0.4-0.2,0.9-0.3,1.5-0.3c0.5,0,1,0.1,1.4,0.3
		c0.4,0.2,0.8,0.4,1,0.7c0.3,0.3,0.5,0.7,0.6,1.1c0.2,0.4,0.2,0.9,0.2,1.5v0.9h-6v-1.4h3.9v-0.2c0-0.3,0-0.5-0.1-0.7
		c-0.1-0.2-0.2-0.3-0.4-0.5c-0.2-0.1-0.4-0.2-0.7-0.2c-0.3,0-0.5,0.1-0.6,0.2c-0.2,0.1-0.3,0.3-0.4,0.5c-0.1,0.2-0.2,0.4-0.2,0.7
		c0,0.3-0.1,0.5-0.1,0.8v0.3c0,0.3,0,0.5,0.1,0.8c0.1,0.2,0.2,0.4,0.3,0.6c0.2,0.2,0.3,0.3,0.5,0.4c0.2,0.1,0.5,0.1,0.7,0.1
		c0.3,0,0.7-0.1,1-0.2c0.3-0.1,0.6-0.3,0.8-0.6l1,1.1c-0.1,0.2-0.4,0.4-0.6,0.6c-0.3,0.2-0.6,0.4-1,0.5
		C353.2,176.1,352.7,176.1,352.3,176.1z M358.5,170.2v5.8h-2.1v-7.4h2L358.5,170.2z M358.2,172l-0.5,0c0-0.6,0.1-1.1,0.2-1.5
		c0.1-0.4,0.3-0.8,0.6-1.1c0.3-0.3,0.6-0.6,0.9-0.7c0.4-0.2,0.7-0.2,1.2-0.2c0.3,0,0.7,0.1,1,0.2c0.3,0.1,0.5,0.3,0.7,0.5
		c0.2,0.2,0.4,0.5,0.5,0.9c0.1,0.4,0.2,0.8,0.2,1.3v4.7h-2.1v-4.7c0-0.3,0-0.5-0.1-0.7c-0.1-0.2-0.2-0.3-0.4-0.4
		c-0.2-0.1-0.4-0.1-0.6-0.1c-0.3,0-0.5,0-0.6,0.1c-0.2,0.1-0.3,0.2-0.4,0.4c-0.1,0.2-0.2,0.4-0.3,0.6
		C358.2,171.5,358.2,171.8,358.2,172z M368,168.6v1.5h-4.4v-1.5H368z M364.6,166.8h2.1v6.9c0,0.2,0,0.4,0.1,0.5
		c0.1,0.1,0.1,0.2,0.2,0.2c0.1,0,0.3,0.1,0.4,0.1c0.1,0,0.2,0,0.3,0c0.1,0,0.2,0,0.3,0v1.5c-0.2,0.1-0.4,0.1-0.6,0.1
		c-0.2,0-0.4,0.1-0.7,0.1c-0.5,0-0.9-0.1-1.2-0.2c-0.3-0.1-0.6-0.4-0.8-0.7c-0.2-0.3-0.3-0.8-0.3-1.3V166.8z M373,174.2v-3.2
		c0-0.2,0-0.4-0.1-0.6c-0.1-0.2-0.2-0.3-0.3-0.4c-0.1-0.1-0.3-0.1-0.6-0.1c-0.2,0-0.4,0-0.5,0.1c-0.1,0.1-0.2,0.2-0.3,0.3
		c-0.1,0.1-0.1,0.3-0.1,0.5h-2.1c0-0.3,0.1-0.6,0.2-0.9c0.2-0.3,0.4-0.5,0.6-0.8c0.3-0.2,0.6-0.4,1-0.5c0.4-0.1,0.8-0.2,1.3-0.2
		c0.6,0,1.1,0.1,1.5,0.3c0.5,0.2,0.8,0.5,1.1,0.9c0.3,0.4,0.4,0.9,0.4,1.4v3.1c0,0.4,0,0.8,0.1,1.1c0.1,0.2,0.1,0.5,0.2,0.7v0.1
		h-2.2c-0.1-0.2-0.2-0.5-0.2-0.8C373,174.9,373,174.6,373,174.2z M373.2,171.5l0,1.2h-1.1c-0.2,0-0.4,0-0.6,0.1
		c-0.2,0.1-0.3,0.1-0.4,0.2c-0.1,0.1-0.2,0.2-0.2,0.4c0,0.1-0.1,0.3-0.1,0.4c0,0.1,0,0.3,0.1,0.4c0.1,0.1,0.2,0.2,0.3,0.3
		c0.1,0.1,0.3,0.1,0.4,0.1c0.3,0,0.5-0.1,0.7-0.2c0.2-0.1,0.4-0.2,0.5-0.4c0.1-0.2,0.2-0.3,0.2-0.4l0.5,0.9
		c-0.1,0.2-0.2,0.4-0.3,0.6c-0.1,0.2-0.3,0.4-0.5,0.5c-0.2,0.2-0.4,0.3-0.7,0.4c-0.3,0.1-0.6,0.2-0.9,0.2c-0.5,0-0.9-0.1-1.3-0.3
		c-0.4-0.2-0.7-0.5-0.9-0.8c-0.2-0.3-0.3-0.7-0.3-1.1c0-0.4,0.1-0.7,0.2-1c0.1-0.3,0.4-0.6,0.6-0.8c0.3-0.2,0.6-0.4,1.1-0.5
		c0.4-0.1,0.9-0.2,1.5-0.2H373.2z M381.2,168.6h1.9v7.1c0,0.7-0.2,1.3-0.5,1.7c-0.3,0.5-0.7,0.8-1.3,1.1c-0.5,0.2-1.2,0.4-1.9,0.4
		c-0.3,0-0.7,0-1-0.1c-0.3-0.1-0.7-0.2-1-0.4c-0.3-0.2-0.6-0.4-0.8-0.6l0.9-1.3c0.2,0.2,0.5,0.4,0.8,0.6c0.3,0.2,0.6,0.2,1,0.2
		c0.3,0,0.6-0.1,0.9-0.2s0.4-0.3,0.5-0.5c0.1-0.2,0.2-0.5,0.2-0.9v-5.4L381.2,168.6z M376.2,172.4v-0.1c0-0.6,0.1-1.1,0.2-1.5
		c0.1-0.5,0.3-0.9,0.6-1.2c0.3-0.3,0.6-0.6,0.9-0.8c0.4-0.2,0.8-0.3,1.3-0.3c0.5,0,0.9,0.1,1.2,0.3c0.3,0.2,0.6,0.5,0.8,0.8
		c0.2,0.3,0.4,0.7,0.5,1.2c0.1,0.5,0.2,0.9,0.3,1.5v0.2c-0.1,0.5-0.2,1-0.3,1.4c-0.1,0.4-0.3,0.8-0.5,1.2c-0.2,0.3-0.5,0.6-0.8,0.8
		c-0.3,0.2-0.7,0.3-1.2,0.3c-0.5,0-0.9-0.1-1.2-0.3c-0.4-0.2-0.7-0.4-0.9-0.8c-0.3-0.3-0.5-0.7-0.6-1.2
		C376.3,173.4,376.2,172.9,376.2,172.4z M378.4,172.2v0.1c0,0.3,0,0.6,0.1,0.8c0.1,0.3,0.1,0.5,0.3,0.7c0.1,0.2,0.3,0.3,0.4,0.5
		c0.2,0.1,0.4,0.2,0.6,0.2c0.3,0,0.6-0.1,0.8-0.2c0.2-0.2,0.4-0.4,0.5-0.6c0.1-0.3,0.2-0.6,0.2-0.9V172c0-0.3,0-0.6-0.1-0.8
		c-0.1-0.2-0.1-0.4-0.3-0.6c-0.1-0.2-0.3-0.3-0.5-0.4c-0.2-0.1-0.4-0.1-0.7-0.1c-0.2,0-0.4,0.1-0.6,0.2c-0.2,0.1-0.3,0.3-0.4,0.4
		c-0.1,0.2-0.2,0.4-0.3,0.7C378.4,171.7,378.4,171.9,378.4,172.2z M388,176.1c-0.6,0-1.1-0.1-1.6-0.3c-0.5-0.2-0.9-0.4-1.2-0.8
		c-0.3-0.3-0.6-0.7-0.7-1.1c-0.2-0.4-0.3-0.9-0.3-1.4v-0.3c0-0.6,0.1-1.1,0.2-1.5c0.2-0.5,0.4-0.9,0.7-1.2c0.3-0.3,0.7-0.6,1.1-0.8
		c0.4-0.2,0.9-0.3,1.5-0.3c0.5,0,1,0.1,1.4,0.3c0.4,0.2,0.8,0.4,1,0.7c0.3,0.3,0.5,0.7,0.6,1.1c0.2,0.4,0.2,0.9,0.2,1.5v0.9h-6v-1.4
		h3.9v-0.2c0-0.3,0-0.5-0.1-0.7c-0.1-0.2-0.2-0.3-0.4-0.5c-0.2-0.1-0.4-0.2-0.7-0.2c-0.3,0-0.5,0.1-0.6,0.2
		c-0.2,0.1-0.3,0.3-0.4,0.5c-0.1,0.2-0.2,0.4-0.2,0.7c0,0.3-0.1,0.5-0.1,0.8v0.3c0,0.3,0,0.5,0.1,0.8c0.1,0.2,0.2,0.4,0.3,0.6
		c0.2,0.2,0.3,0.3,0.5,0.4c0.2,0.1,0.5,0.1,0.7,0.1c0.3,0,0.7-0.1,1-0.2c0.3-0.1,0.6-0.3,0.8-0.6l1,1.1c-0.1,0.2-0.4,0.4-0.6,0.6
		c-0.3,0.2-0.6,0.4-1,0.5C388.9,176.1,388.5,176.1,388,176.1z M399.2,172.1V172c0-1,0.1-1.8,0.3-2.6c0.2-0.8,0.5-1.5,0.8-2.1
		c0.3-0.6,0.7-1.1,1.1-1.5s0.8-0.7,1.2-0.8l0.4,1.1c-0.3,0.2-0.5,0.5-0.8,0.8c-0.2,0.3-0.5,0.7-0.7,1.2c-0.2,0.5-0.4,1-0.5,1.7
		c-0.1,0.6-0.2,1.4-0.2,2.2v0.2c0,0.8,0.1,1.6,0.2,2.2c0.1,0.6,0.3,1.2,0.5,1.7c0.2,0.5,0.4,0.9,0.7,1.2c0.2,0.3,0.5,0.6,0.8,0.8
		l-0.4,1.1c-0.4-0.2-0.8-0.5-1.2-0.8c-0.4-0.4-0.8-0.9-1.1-1.5c-0.3-0.6-0.6-1.3-0.8-2.1C399.3,173.9,399.2,173.1,399.2,172.1z
		 M409.1,165.9h0.3v1.7h-0.1c-0.5,0-0.9,0.1-1.3,0.2c-0.4,0.1-0.7,0.3-1,0.6c-0.3,0.3-0.5,0.6-0.7,1c-0.2,0.4-0.2,0.8-0.2,1.3v1.7
		c0,0.3,0,0.6,0.1,0.9c0.1,0.2,0.2,0.5,0.3,0.6c0.1,0.2,0.3,0.3,0.4,0.4c0.2,0.1,0.4,0.1,0.6,0.1c0.2,0,0.4,0,0.5-0.1
		c0.2-0.1,0.3-0.2,0.4-0.4c0.1-0.2,0.2-0.3,0.3-0.6c0.1-0.2,0.1-0.4,0.1-0.7c0-0.3,0-0.5-0.1-0.7c-0.1-0.2-0.2-0.4-0.3-0.6
		c-0.1-0.2-0.3-0.3-0.4-0.4c-0.2-0.1-0.4-0.1-0.6-0.1c-0.3,0-0.6,0.1-0.8,0.2c-0.2,0.1-0.4,0.3-0.5,0.5c-0.1,0.2-0.2,0.4-0.2,0.7
		l-0.6-0.5c0-0.3,0.1-0.6,0.2-0.9c0.1-0.3,0.3-0.6,0.5-0.8c0.2-0.3,0.5-0.4,0.9-0.6c0.3-0.1,0.7-0.2,1.2-0.2c0.5,0,0.9,0.1,1.2,0.3
		c0.4,0.2,0.6,0.4,0.9,0.7c0.2,0.3,0.4,0.7,0.5,1.1c0.1,0.4,0.2,0.8,0.2,1.3c0,0.5-0.1,0.9-0.3,1.4c-0.2,0.4-0.4,0.8-0.7,1.1
		c-0.3,0.3-0.7,0.6-1.1,0.7c-0.4,0.2-0.9,0.3-1.4,0.3c-0.5,0-1-0.1-1.4-0.3c-0.4-0.2-0.8-0.5-1.1-0.8c-0.3-0.4-0.6-0.8-0.7-1.3
		c-0.2-0.5-0.3-1-0.3-1.6v-0.8c0-0.8,0.1-1.6,0.4-2.2c0.3-0.7,0.6-1.2,1.1-1.7c0.5-0.5,1-0.8,1.6-1.1
		C407.7,166.1,408.4,165.9,409.1,165.9z M413.9,171.5l-1.7-0.4l0.6-5.1h5.7v1.7h-4l-0.2,2.1c0.1-0.1,0.3-0.2,0.6-0.2
		c0.3-0.1,0.6-0.1,0.9-0.1c0.5,0,0.9,0.1,1.3,0.2c0.4,0.1,0.7,0.4,1,0.7c0.3,0.3,0.5,0.6,0.6,1c0.1,0.4,0.2,0.9,0.2,1.4
		c0,0.4-0.1,0.9-0.2,1.3c-0.1,0.4-0.3,0.8-0.6,1.1c-0.3,0.3-0.6,0.6-1.1,0.7c-0.4,0.2-0.9,0.3-1.5,0.3c-0.4,0-0.9-0.1-1.3-0.2
		c-0.4-0.1-0.8-0.3-1.1-0.6c-0.3-0.3-0.6-0.6-0.8-0.9c-0.2-0.4-0.3-0.8-0.3-1.2h2.1c0,0.3,0.1,0.5,0.2,0.7c0.1,0.2,0.3,0.3,0.4,0.4
		c0.2,0.1,0.4,0.2,0.6,0.2c0.2,0,0.4,0,0.6-0.1c0.2-0.1,0.3-0.2,0.4-0.4c0.1-0.2,0.2-0.4,0.2-0.6c0-0.2,0.1-0.5,0.1-0.7
		c0-0.3,0-0.5-0.1-0.7c-0.1-0.2-0.2-0.4-0.3-0.5c-0.1-0.2-0.3-0.3-0.5-0.3c-0.2-0.1-0.4-0.1-0.7-0.1c-0.3,0-0.6,0.1-0.8,0.2
		C414.2,171.3,414.1,171.4,413.9,171.5z M420.1,168.5V168c0-0.4,0.1-0.7,0.2-1s0.4-0.6,0.7-0.7c0.3-0.2,0.7-0.3,1.2-0.3
		c0.5,0,0.9,0.1,1.2,0.3c0.3,0.2,0.6,0.4,0.7,0.7c0.2,0.3,0.2,0.7,0.2,1v0.5c0,0.4-0.1,0.7-0.2,1c-0.2,0.3-0.4,0.6-0.7,0.7
		c-0.3,0.2-0.7,0.3-1.2,0.3s-0.9-0.1-1.2-0.3c-0.3-0.2-0.6-0.4-0.7-0.7C420.2,169.2,420.1,168.9,420.1,168.5z M421.5,168v0.5
		c0,0.2,0,0.3,0.1,0.4c0.1,0.1,0.1,0.2,0.3,0.3c0.1,0.1,0.3,0.1,0.4,0.1c0.2,0,0.3,0,0.4-0.1c0.1-0.1,0.2-0.2,0.3-0.3
		c0.1-0.1,0.1-0.3,0.1-0.4V168c0-0.2,0-0.3-0.1-0.4c-0.1-0.1-0.1-0.2-0.3-0.3c-0.1-0.1-0.3-0.1-0.5-0.1c-0.2,0-0.3,0-0.4,0.1
		c-0.1,0.1-0.2,0.2-0.3,0.3C421.5,167.7,421.5,167.8,421.5,168z M424.8,174.1v-0.5c0-0.4,0.1-0.7,0.2-1c0.2-0.3,0.4-0.6,0.7-0.7
		c0.3-0.2,0.7-0.3,1.2-0.3c0.5,0,0.9,0.1,1.2,0.3c0.3,0.2,0.6,0.4,0.7,0.7c0.2,0.3,0.2,0.7,0.2,1v0.5c0,0.4-0.1,0.7-0.2,1
		c-0.2,0.3-0.4,0.6-0.7,0.7c-0.3,0.2-0.7,0.3-1.2,0.3c-0.5,0-0.9-0.1-1.2-0.3c-0.3-0.2-0.6-0.4-0.7-0.7
		C424.9,174.8,424.8,174.5,424.8,174.1z M426.2,173.6v0.5c0,0.2,0,0.3,0.1,0.4c0.1,0.1,0.2,0.2,0.3,0.3c0.1,0.1,0.3,0.1,0.4,0.1
		c0.2,0,0.4,0,0.5-0.1c0.1-0.1,0.2-0.2,0.2-0.3c0-0.1,0.1-0.3,0.1-0.4v-0.5c0-0.2,0-0.3-0.1-0.4c-0.1-0.1-0.1-0.2-0.3-0.3
		c-0.1-0.1-0.3-0.1-0.4-0.1s-0.3,0-0.4,0.1c-0.1,0.1-0.2,0.2-0.3,0.3C426.3,173.3,426.2,173.4,426.2,173.6z M427.6,167.5l-4.9,7.8
		l-1-0.5l4.9-7.8L427.6,167.5z M434.1,172v0.2c0,0.9-0.1,1.8-0.3,2.5c-0.2,0.8-0.5,1.5-0.8,2.1c-0.3,0.6-0.7,1.1-1.1,1.5
		c-0.4,0.4-0.8,0.7-1.3,0.9l-0.4-1.1c0.3-0.2,0.5-0.5,0.8-0.8s0.5-0.7,0.7-1.2c0.2-0.5,0.4-1,0.5-1.7c0.1-0.6,0.2-1.4,0.2-2.2v-0.2
		c0-0.8-0.1-1.6-0.2-2.2c-0.1-0.6-0.3-1.2-0.5-1.7c-0.2-0.5-0.4-0.9-0.7-1.2c-0.2-0.3-0.5-0.6-0.7-0.8l0.4-1.1
		c0.4,0.2,0.8,0.5,1.3,0.9c0.4,0.4,0.8,0.9,1.1,1.5c0.3,0.6,0.6,1.3,0.8,2.1C434,170.2,434.1,171,434.1,172z"/>
	<path class="st68" d="M416.8,34v10h-1.3V34H416.8z M420.9,38.5v1.1h-4.5v-1.1H420.9z M421.6,34v1.1h-5.1V34H421.6z M424.4,33.5V44
		h-1.3V33.5H424.4z M427.8,36.6V44h-1.3v-7.4H427.8z M426.4,34.6c0-0.2,0.1-0.4,0.2-0.5c0.1-0.1,0.3-0.2,0.6-0.2
		c0.2,0,0.4,0.1,0.6,0.2c0.1,0.1,0.2,0.3,0.2,0.5c0,0.2-0.1,0.4-0.2,0.5c-0.1,0.1-0.3,0.2-0.6,0.2c-0.2,0-0.4-0.1-0.6-0.2
		C426.5,35,426.4,34.8,426.4,34.6z M431.1,38v8.8h-1.3V36.6h1.2L431.1,38z M436.1,40.2v0.1c0,0.5-0.1,1-0.2,1.5
		c-0.1,0.5-0.3,0.9-0.6,1.2c-0.2,0.3-0.5,0.6-0.9,0.8c-0.4,0.2-0.8,0.3-1.2,0.3c-0.5,0-0.9-0.1-1.2-0.2c-0.4-0.2-0.7-0.4-0.9-0.7
		c-0.2-0.3-0.5-0.7-0.6-1.1c-0.1-0.4-0.2-0.9-0.3-1.4V40c0.1-0.5,0.2-1,0.3-1.5c0.2-0.4,0.3-0.8,0.6-1.1c0.3-0.3,0.6-0.5,0.9-0.7
		c0.4-0.2,0.8-0.2,1.2-0.2s0.9,0.1,1.2,0.3c0.4,0.2,0.7,0.4,0.9,0.8c0.2,0.3,0.4,0.7,0.6,1.2C436,39.2,436.1,39.7,436.1,40.2z
		 M434.8,40.4v-0.1c0-0.4,0-0.7-0.1-1c-0.1-0.3-0.2-0.6-0.4-0.9c-0.2-0.3-0.4-0.4-0.6-0.6c-0.2-0.1-0.5-0.2-0.9-0.2
		c-0.3,0-0.6,0.1-0.8,0.2c-0.2,0.1-0.4,0.3-0.6,0.4c-0.2,0.2-0.3,0.4-0.4,0.6c-0.1,0.2-0.2,0.5-0.2,0.7v1.8c0.1,0.3,0.2,0.6,0.4,0.9
		c0.2,0.3,0.4,0.5,0.7,0.7c0.3,0.2,0.6,0.3,1,0.3c0.3,0,0.6-0.1,0.9-0.2c0.3-0.1,0.5-0.3,0.6-0.6c0.2-0.3,0.3-0.5,0.4-0.9
		C434.7,41.1,434.8,40.8,434.8,40.4z"/>
	<path class="st68" d="M411.8,115h-2.1l0-1.1h2.1c0.7,0,1.3-0.1,1.8-0.4c0.5-0.3,0.8-0.7,1.1-1.3c0.2-0.5,0.4-1.2,0.4-1.9v-0.6
		c0-0.6-0.1-1.1-0.2-1.5c-0.1-0.4-0.3-0.8-0.6-1.1c-0.3-0.3-0.6-0.5-1-0.7c-0.4-0.2-0.8-0.2-1.3-0.2h-2.2V105h2.2
		c0.7,0,1.2,0.1,1.8,0.3c0.5,0.2,1,0.5,1.4,0.9c0.4,0.4,0.7,0.9,0.9,1.5c0.2,0.6,0.3,1.2,0.3,1.9v0.6c0,0.7-0.1,1.4-0.3,1.9
		c-0.2,0.6-0.5,1.1-0.9,1.5c-0.4,0.4-0.9,0.7-1.4,0.9C413.2,114.9,412.5,115,411.8,115z M410.5,105v10h-1.3v-10H410.5z M419.5,107.6
		v7.4h-1.3v-7.4H419.5z M418.2,105.6c0-0.2,0.1-0.4,0.2-0.5c0.1-0.1,0.3-0.2,0.6-0.2c0.2,0,0.4,0.1,0.6,0.2c0.1,0.1,0.2,0.3,0.2,0.5
		c0,0.2-0.1,0.4-0.2,0.5c-0.1,0.1-0.3,0.2-0.6,0.2c-0.2,0-0.4-0.1-0.6-0.2C418.2,106,418.2,105.8,418.2,105.6z M422.8,109.1v5.9
		h-1.3v-7.4h1.2L422.8,109.1z M422.6,111l-0.6,0c0-0.5,0.1-1,0.2-1.4c0.1-0.4,0.3-0.8,0.6-1.1c0.3-0.3,0.6-0.6,0.9-0.7
		c0.4-0.2,0.8-0.3,1.3-0.3c0.3,0,0.7,0,1,0.1c0.3,0.1,0.5,0.2,0.8,0.5c0.2,0.2,0.4,0.5,0.5,0.8c0.1,0.3,0.2,0.7,0.2,1.2v4.9h-1.3
		v-4.9c0-0.4-0.1-0.7-0.2-0.9c-0.1-0.2-0.3-0.4-0.5-0.5c-0.2-0.1-0.5-0.2-0.8-0.2c-0.4,0-0.7,0.1-0.9,0.2c-0.3,0.1-0.5,0.3-0.6,0.5
		c-0.2,0.2-0.3,0.5-0.3,0.8C422.6,110.4,422.6,110.7,422.6,111z M427.3,110.3l-0.8,0.3c0-0.4,0.1-0.8,0.2-1.2c0.1-0.4,0.3-0.7,0.6-1
		c0.2-0.3,0.6-0.5,0.9-0.7c0.4-0.2,0.8-0.3,1.3-0.3c0.4,0,0.7,0.1,1.1,0.2c0.3,0.1,0.6,0.3,0.8,0.5c0.2,0.2,0.4,0.5,0.5,0.8
		c0.1,0.3,0.2,0.7,0.2,1.2v4.9h-1.3v-4.9c0-0.4-0.1-0.7-0.2-1c-0.1-0.2-0.3-0.4-0.5-0.5c-0.2-0.1-0.5-0.1-0.8-0.1
		c-0.3,0-0.5,0-0.7,0.1c-0.2,0.1-0.4,0.2-0.5,0.4c-0.1,0.2-0.3,0.4-0.3,0.6C427.4,109.9,427.3,110.1,427.3,110.3z M436.9,115.1
		c-0.5,0-1-0.1-1.4-0.3c-0.4-0.2-0.8-0.4-1.1-0.7c-0.3-0.3-0.5-0.7-0.7-1.1c-0.2-0.4-0.2-0.9-0.2-1.4v-0.3c0-0.6,0.1-1.1,0.3-1.6
		c0.2-0.5,0.4-0.9,0.7-1.2c0.3-0.3,0.7-0.6,1-0.7c0.4-0.2,0.8-0.3,1.2-0.3c0.5,0,1,0.1,1.4,0.3c0.4,0.2,0.7,0.4,1,0.8
		c0.2,0.3,0.4,0.7,0.5,1.1c0.1,0.4,0.2,0.9,0.2,1.4v0.6h-5.5v-1h4.3v-0.1c0-0.3-0.1-0.6-0.2-1c-0.1-0.3-0.3-0.6-0.5-0.8
		c-0.3-0.2-0.6-0.3-1-0.3c-0.3,0-0.6,0.1-0.8,0.2c-0.2,0.1-0.4,0.3-0.6,0.5s-0.3,0.5-0.4,0.9c-0.1,0.3-0.1,0.7-0.1,1.2v0.3
		c0,0.4,0,0.7,0.1,1c0.1,0.3,0.2,0.6,0.4,0.8c0.2,0.2,0.4,0.4,0.7,0.5c0.3,0.1,0.6,0.2,0.9,0.2c0.4,0,0.8-0.1,1.1-0.3
		c0.3-0.2,0.6-0.4,0.8-0.7l0.8,0.6c-0.2,0.2-0.4,0.5-0.6,0.7c-0.2,0.2-0.5,0.4-0.9,0.5C437.8,115.1,437.4,115.1,436.9,115.1z
		 M442.5,109.2v5.8h-1.3v-7.4h1.2L442.5,109.2z M442.2,111l-0.5,0c0-0.5,0.1-1,0.2-1.4c0.1-0.4,0.4-0.8,0.6-1.1s0.6-0.6,0.9-0.7
		c0.4-0.2,0.8-0.3,1.2-0.3c0.4,0,0.7,0,1,0.1c0.3,0.1,0.5,0.3,0.7,0.5c0.2,0.2,0.4,0.5,0.5,0.8c0.1,0.3,0.2,0.8,0.2,1.2v4.8h-1.3
		v-4.9c0-0.4-0.1-0.7-0.2-0.9c-0.1-0.2-0.3-0.4-0.5-0.5c-0.2-0.1-0.5-0.2-0.8-0.2c-0.3,0-0.6,0.1-0.9,0.2c-0.3,0.1-0.5,0.3-0.7,0.5
		c-0.2,0.2-0.3,0.5-0.4,0.8C442.3,110.4,442.2,110.7,442.2,111z M453.3,113c0-0.2,0-0.4-0.1-0.5c-0.1-0.2-0.2-0.3-0.5-0.4
		c-0.2-0.1-0.6-0.2-1.1-0.3c-0.4-0.1-0.8-0.2-1.1-0.3c-0.3-0.1-0.6-0.3-0.8-0.4c-0.2-0.2-0.4-0.4-0.5-0.6c-0.1-0.2-0.2-0.5-0.2-0.8
		c0-0.3,0.1-0.6,0.2-0.8c0.1-0.3,0.3-0.5,0.6-0.7c0.2-0.2,0.5-0.4,0.9-0.5s0.7-0.2,1.1-0.2c0.6,0,1.1,0.1,1.5,0.3
		c0.4,0.2,0.7,0.5,1,0.8c0.2,0.3,0.3,0.7,0.3,1.2h-1.3c0-0.2-0.1-0.4-0.2-0.6c-0.1-0.2-0.3-0.4-0.5-0.5c-0.2-0.1-0.5-0.2-0.8-0.2
		c-0.4,0-0.6,0.1-0.9,0.2c-0.2,0.1-0.4,0.2-0.5,0.4c-0.1,0.2-0.1,0.3-0.1,0.5c0,0.1,0,0.3,0.1,0.4c0.1,0.1,0.1,0.2,0.3,0.3
		c0.1,0.1,0.3,0.2,0.5,0.2c0.2,0.1,0.5,0.2,0.9,0.2c0.6,0.1,1.1,0.3,1.5,0.5c0.4,0.2,0.7,0.4,0.9,0.7c0.2,0.3,0.3,0.6,0.3,1
		c0,0.3-0.1,0.6-0.2,0.9c-0.1,0.3-0.3,0.5-0.6,0.7c-0.2,0.2-0.6,0.3-0.9,0.5c-0.3,0.1-0.7,0.2-1.2,0.2c-0.7,0-1.2-0.1-1.7-0.3
		c-0.5-0.2-0.8-0.5-1-0.9c-0.2-0.4-0.3-0.8-0.3-1.2h1.3c0,0.3,0.1,0.6,0.3,0.8c0.2,0.2,0.4,0.3,0.7,0.4c0.3,0.1,0.5,0.1,0.8,0.1
		c0.3,0,0.6,0,0.9-0.1c0.2-0.1,0.4-0.2,0.5-0.4C453.2,113.4,453.3,113.2,453.3,113z M457.6,107.6v7.4h-1.3v-7.4H457.6z M456.2,105.6
		c0-0.2,0.1-0.4,0.2-0.5c0.1-0.1,0.3-0.2,0.6-0.2c0.2,0,0.4,0.1,0.6,0.2c0.1,0.1,0.2,0.3,0.2,0.5c0,0.2-0.1,0.4-0.2,0.5
		c-0.1,0.1-0.3,0.2-0.6,0.2c-0.2,0-0.4-0.1-0.6-0.2C456.3,106,456.2,105.8,456.2,105.6z M459.3,111.4v-0.2c0-0.5,0.1-1,0.2-1.5
		c0.2-0.5,0.4-0.9,0.7-1.2c0.3-0.3,0.6-0.6,1.1-0.8c0.4-0.2,0.9-0.3,1.4-0.3c0.5,0,1,0.1,1.4,0.3c0.4,0.2,0.8,0.5,1.1,0.8
		c0.3,0.3,0.5,0.7,0.7,1.2c0.2,0.5,0.2,1,0.2,1.5v0.2c0,0.5-0.1,1-0.2,1.5c-0.2,0.5-0.4,0.9-0.7,1.2c-0.3,0.3-0.6,0.6-1.1,0.8
		c-0.4,0.2-0.9,0.3-1.4,0.3c-0.5,0-1-0.1-1.4-0.3c-0.4-0.2-0.8-0.5-1.1-0.8c-0.3-0.3-0.5-0.7-0.7-1.2
		C459.4,112.4,459.3,111.9,459.3,111.4z M460.6,111.2v0.2c0,0.4,0,0.7,0.1,1c0.1,0.3,0.2,0.6,0.4,0.9c0.2,0.3,0.4,0.4,0.7,0.6
		c0.3,0.1,0.6,0.2,0.9,0.2c0.3,0,0.6-0.1,0.9-0.2c0.3-0.1,0.5-0.3,0.7-0.6c0.2-0.3,0.3-0.5,0.4-0.9c0.1-0.3,0.1-0.7,0.1-1v-0.2
		c0-0.4,0-0.7-0.1-1c-0.1-0.3-0.2-0.6-0.4-0.9c-0.2-0.3-0.4-0.5-0.7-0.6c-0.3-0.1-0.6-0.2-0.9-0.2c-0.3,0-0.7,0.1-0.9,0.2
		c-0.3,0.1-0.5,0.3-0.7,0.6c-0.2,0.3-0.3,0.5-0.4,0.9C460.6,110.5,460.6,110.9,460.6,111.2z M468.9,109.2v5.8h-1.3v-7.4h1.2
		L468.9,109.2z M468.6,111l-0.5,0c0-0.5,0.1-1,0.2-1.4c0.1-0.4,0.4-0.8,0.6-1.1c0.3-0.3,0.6-0.6,0.9-0.7c0.4-0.2,0.8-0.3,1.2-0.3
		c0.4,0,0.7,0,1,0.1c0.3,0.1,0.5,0.3,0.7,0.5c0.2,0.2,0.4,0.5,0.5,0.8c0.1,0.3,0.2,0.8,0.2,1.2v4.8h-1.3v-4.9c0-0.4-0.1-0.7-0.2-0.9
		c-0.1-0.2-0.3-0.4-0.5-0.5c-0.2-0.1-0.5-0.2-0.8-0.2c-0.3,0-0.6,0.1-0.9,0.2c-0.3,0.1-0.5,0.3-0.7,0.5c-0.2,0.2-0.3,0.5-0.4,0.8
		C468.6,110.4,468.6,110.7,468.6,111z"/>
	<path class="st68" d="M490.2,34h3.3c0.7,0,1.4,0.1,1.9,0.3c0.5,0.2,0.9,0.6,1.2,1c0.3,0.4,0.4,1,0.4,1.6c0,0.5-0.1,0.9-0.3,1.3
		c-0.2,0.4-0.4,0.7-0.8,1c-0.3,0.3-0.8,0.5-1.2,0.6l-0.4,0.1h-3.1l0-1.1h2.3c0.5,0,0.9-0.1,1.2-0.2c0.3-0.2,0.6-0.4,0.7-0.7
		c0.2-0.3,0.2-0.6,0.2-0.9c0-0.4-0.1-0.7-0.2-1c-0.2-0.3-0.4-0.5-0.7-0.7c-0.3-0.2-0.7-0.2-1.2-0.2h-2V44h-1.3V34z M496.1,44
		l-2.4-4.5l1.4,0l2.5,4.4V44H496.1z M498.4,40.4v-0.2c0-0.5,0.1-1,0.2-1.5c0.2-0.5,0.4-0.9,0.7-1.2c0.3-0.3,0.6-0.6,1.1-0.8
		c0.4-0.2,0.9-0.3,1.4-0.3c0.5,0,1,0.1,1.4,0.3c0.4,0.2,0.8,0.5,1.1,0.8c0.3,0.3,0.5,0.7,0.7,1.2c0.2,0.5,0.2,1,0.2,1.5v0.2
		c0,0.5-0.1,1-0.2,1.5s-0.4,0.9-0.7,1.2c-0.3,0.3-0.6,0.6-1.1,0.8c-0.4,0.2-0.9,0.3-1.4,0.3c-0.5,0-1-0.1-1.4-0.3
		c-0.4-0.2-0.8-0.5-1.1-0.8c-0.3-0.3-0.5-0.7-0.7-1.2S498.4,40.9,498.4,40.4z M499.6,40.2v0.2c0,0.4,0,0.7,0.1,1
		c0.1,0.3,0.2,0.6,0.4,0.9c0.2,0.3,0.4,0.4,0.7,0.6c0.3,0.1,0.6,0.2,0.9,0.2c0.3,0,0.6-0.1,0.9-0.2c0.3-0.1,0.5-0.3,0.7-0.6
		c0.2-0.3,0.3-0.5,0.4-0.9c0.1-0.3,0.1-0.7,0.1-1v-0.2c0-0.4,0-0.7-0.1-1c-0.1-0.3-0.2-0.6-0.4-0.9c-0.2-0.3-0.4-0.5-0.7-0.6
		c-0.3-0.1-0.6-0.2-0.9-0.2c-0.3,0-0.7,0.1-0.9,0.2c-0.3,0.1-0.5,0.3-0.7,0.6c-0.2,0.3-0.3,0.5-0.4,0.9
		C499.7,39.5,499.6,39.9,499.6,40.2z M509.8,36.6v1h-4v-1H509.8z M507.1,34.8h1.3v7.4c0,0.3,0,0.4,0.1,0.6c0.1,0.1,0.2,0.2,0.3,0.3
		c0.1,0,0.3,0.1,0.4,0.1c0.1,0,0.2,0,0.3,0c0.1,0,0.2,0,0.3-0.1l0,1c-0.1,0-0.2,0.1-0.4,0.1c-0.2,0-0.4,0-0.6,0
		c-0.3,0-0.6-0.1-0.9-0.2c-0.3-0.1-0.5-0.3-0.6-0.6c-0.2-0.3-0.2-0.7-0.2-1.2V34.8z M515.6,42.7v-3.8c0-0.3-0.1-0.5-0.2-0.8
		c-0.1-0.2-0.3-0.4-0.5-0.5s-0.5-0.2-0.9-0.2c-0.3,0-0.6,0.1-0.8,0.2c-0.2,0.1-0.4,0.3-0.6,0.4c-0.1,0.2-0.2,0.4-0.2,0.6h-1.3
		c0-0.3,0.1-0.5,0.2-0.8c0.1-0.3,0.3-0.5,0.6-0.7c0.3-0.2,0.6-0.4,0.9-0.5c0.4-0.1,0.8-0.2,1.2-0.2c0.5,0,1,0.1,1.4,0.3
		c0.4,0.2,0.7,0.5,1,0.8c0.2,0.4,0.4,0.8,0.4,1.4v3.4c0,0.2,0,0.5,0.1,0.8c0,0.3,0.1,0.5,0.2,0.7V44h-1.3c-0.1-0.1-0.1-0.3-0.1-0.6
		C515.6,43.2,515.6,42.9,515.6,42.7z M515.8,39.5l0,0.9h-1.3c-0.4,0-0.7,0-1,0.1c-0.3,0.1-0.5,0.1-0.7,0.3c-0.2,0.1-0.3,0.3-0.4,0.4
		c-0.1,0.2-0.2,0.4-0.2,0.6c0,0.2,0.1,0.4,0.2,0.6c0.1,0.2,0.3,0.3,0.5,0.5c0.2,0.1,0.5,0.2,0.8,0.2c0.4,0,0.7-0.1,1-0.2
		c0.3-0.2,0.5-0.4,0.7-0.6c0.2-0.2,0.3-0.5,0.3-0.7l0.5,0.6c0,0.2-0.1,0.4-0.3,0.6c-0.1,0.2-0.3,0.5-0.6,0.7
		c-0.2,0.2-0.5,0.4-0.8,0.5c-0.3,0.1-0.7,0.2-1.1,0.2c-0.5,0-0.9-0.1-1.3-0.3c-0.4-0.2-0.7-0.5-0.9-0.8c-0.2-0.3-0.3-0.7-0.3-1.1
		c0-0.4,0.1-0.7,0.2-1c0.2-0.3,0.4-0.6,0.7-0.8c0.3-0.2,0.6-0.4,1.1-0.5c0.4-0.1,0.9-0.2,1.4-0.2H515.8z M522,36.6v1h-4v-1H522z
		 M519.3,34.8h1.3v7.4c0,0.3,0,0.4,0.1,0.6c0.1,0.1,0.2,0.2,0.3,0.3s0.3,0.1,0.4,0.1c0.1,0,0.2,0,0.3,0c0.1,0,0.2,0,0.3-0.1l0,1
		c-0.1,0-0.2,0.1-0.4,0.1c-0.2,0-0.4,0-0.6,0c-0.3,0-0.6-0.1-0.9-0.2c-0.3-0.1-0.5-0.3-0.6-0.6c-0.1-0.3-0.2-0.7-0.2-1.2V34.8z
		 M526.5,44.1c-0.5,0-1-0.1-1.4-0.3c-0.4-0.2-0.8-0.4-1.1-0.7c-0.3-0.3-0.5-0.7-0.7-1.1c-0.2-0.4-0.2-0.9-0.2-1.4v-0.3
		c0-0.6,0.1-1.1,0.3-1.6c0.2-0.5,0.4-0.9,0.7-1.2c0.3-0.3,0.7-0.6,1-0.7c0.4-0.2,0.8-0.3,1.2-0.3c0.5,0,1,0.1,1.4,0.3
		c0.4,0.2,0.7,0.4,1,0.8c0.2,0.3,0.4,0.7,0.5,1.1c0.1,0.4,0.2,0.9,0.2,1.4v0.6h-5.5v-1h4.3v-0.1c0-0.3-0.1-0.6-0.2-1
		c-0.1-0.3-0.3-0.6-0.5-0.8c-0.3-0.2-0.6-0.3-1-0.3c-0.3,0-0.6,0.1-0.8,0.2c-0.2,0.1-0.4,0.3-0.6,0.5c-0.2,0.2-0.3,0.5-0.4,0.9
		c-0.1,0.3-0.1,0.7-0.1,1.2v0.3c0,0.4,0,0.7,0.1,1c0.1,0.3,0.2,0.6,0.4,0.8c0.2,0.2,0.4,0.4,0.7,0.5c0.3,0.1,0.6,0.2,0.9,0.2
		c0.4,0,0.8-0.1,1.1-0.3c0.3-0.2,0.6-0.4,0.8-0.7l0.8,0.6c-0.2,0.2-0.4,0.5-0.6,0.7c-0.2,0.2-0.5,0.4-0.9,0.5
		C527.4,44.1,527,44.1,526.5,44.1z"/>
	<rect x="288" y="57" class="st44" width="90" height="3"/>
	<rect x="288" y="59" class="st69" width="309" height="1"/>
	<path class="st70" d="M597,128.5H390.5"/>
	<defs>
		
			<filter id="Adobe_OpacityMaskFilter_00000090979638785367937370000010789526774826350235_" filterUnits="userSpaceOnUse" x="287" y="89" width="105" height="40">
			<feColorMatrix  type="matrix" values="1 0 0 0 0  0 1 0 0 0  0 0 1 0 0  0 0 0 1 0"/>
		</filter>
	</defs>
	
		<mask maskUnits="userSpaceOnUse" x="287" y="89" width="105" height="40" id="path-188-inside-1_741_1249_00000075163683878858292750000003942175865142759043_">
		<path style="fill:#FFFFFF;filter:url(#Adobe_OpacityMaskFilter_00000090979638785367937370000010789526774826350235_);" d="
			M288,94c0-2.2,1.8-4,4-4h95c2.2,0,4,1.8,4,4v35H288V94z"/>
	</mask>
	<path class="st72" d="M287,94c0-2.8,2.2-5,5-5h95c2.8,0,5,2.2,5,5h-2c0-1.7-1.3-3-3-3h-95c-1.7,0-3,1.3-3,3H287z M391,129H288H391z
		 M287,129V94c0-2.8,2.2-5,5-5v2c-1.7,0-3,1.3-3,3v35H287z M387,89c2.8,0,5,2.2,5,5v35h-2V94c0-1.7-1.3-3-3-3V89z"/>
	<path class="st69" d="M292.5,205h301c1.9,0,3.5,1.6,3.5,3.5l0,0c0,1.9-1.6,3.5-3.5,3.5h-301c-1.9,0-3.5-1.6-3.5-3.5l0,0
		C289,206.6,290.6,205,292.5,205z"/>
	<path class="st44" d="M289,208.5c0-1.9,1.6-3.5,3.5-3.5h160c1.9,0,3.5,1.6,3.5,3.5s-1.6,3.5-3.5,3.5h-160
		C290.6,212,289,210.4,289,208.5z"/>
	<circle class="st32" cx="456" cy="208" r="10"/>
	<circle class="st44" cx="456" cy="208" r="9"/>
	<path class="st44" d="M312.8,40.7c0.1,0,0.1,0,0.2,0c0.1,0,0.1-0.1,0.1-0.1l4.6-4.6v3.5c0,0.1,0,0.1,0,0.2c0,0.1,0.1,0.1,0.1,0.2
		c0,0.1,0.1,0.1,0.2,0.1c0.1,0,0.1,0,0.2,0c0.1,0,0.1,0,0.2,0c0.1,0,0.1-0.1,0.2-0.1c0-0.1,0.1-0.1,0.1-0.2c0-0.1,0-0.1,0-0.2v-4.7
		c0-0.1,0-0.2-0.1-0.3c-0.1-0.1-0.1-0.1-0.2-0.2l0,0c0,0-0.1,0-0.1,0h-4.7c-0.1,0-0.1,0-0.2,0c-0.1,0-0.1,0.1-0.2,0.1
		c-0.1,0-0.1,0.1-0.1,0.2c0,0.1,0,0.1,0,0.2c0,0.1,0,0.1,0,0.2c0,0.1,0.1,0.1,0.1,0.2c0,0,0.1,0.1,0.2,0.1c0.1,0,0.1,0,0.2,0h3.5
		l-4.6,4.6c-0.1,0.1-0.1,0.1-0.1,0.2c0,0.1,0,0.2,0,0.3c0,0.1,0.1,0.2,0.2,0.2C312.6,40.7,312.7,40.7,312.8,40.7L312.8,40.7z"/>
	<path class="st44" d="M305.5,47.5c0.1,0.1,0.1,0.1,0.2,0.1l0,0h0h0h4.7c0.1,0,0.1,0,0.2,0c0.1,0,0.1-0.1,0.2-0.1
		c0,0,0.1-0.1,0.1-0.2c0-0.1,0-0.1,0-0.2s0-0.1,0-0.2c0-0.1-0.1-0.1-0.1-0.2c-0.1,0-0.1-0.1-0.2-0.1c-0.1,0-0.1,0-0.2,0h-3.5
		l4.6-4.6c0.1-0.1,0.1-0.2,0.1-0.3c0-0.1,0-0.2-0.1-0.3c-0.1-0.1-0.2-0.1-0.3-0.1c-0.1,0-0.2,0-0.3,0.1l-4.6,4.6v-3.5
		c0-0.1,0-0.1,0-0.2c0-0.1-0.1-0.1-0.1-0.2c0-0.1-0.1-0.1-0.2-0.1c-0.1,0-0.1,0-0.2,0c-0.1,0-0.1,0-0.2,0c-0.1,0-0.1,0.1-0.2,0.1
		c0,0.1-0.1,0.1-0.1,0.2c0,0.1,0,0.1,0,0.2v4.7c0,0.1,0,0.1,0,0.2C305.4,47.4,305.4,47.5,305.5,47.5z"/>
	<g>
		<defs>
			<rect id="SVGID_1_" x="394" y="31" width="16" height="19"/>
		</defs>
		<clipPath id="SVGID_00000042731322864484854450000000819653065678393519_">
			<use xlink:href="#SVGID_1_"  style="overflow:visible;"/>
		</clipPath>
		<g style="clip-path:url(#SVGID_00000042731322864484854450000000819653065678393519_);">
			<path class="st68" d="M402,41.2c-0.1,0-0.3,0.1-0.4,0.2c-0.1,0.1-0.2,0.2-0.2,0.4v2.6c0,0.1,0.1,0.3,0.2,0.4
				c0.1,0.1,0.2,0.2,0.4,0.2c0.1,0,0.3-0.1,0.4-0.2c0.1-0.1,0.2-0.2,0.2-0.4v-2.6c0-0.1-0.1-0.3-0.2-0.4
				C402.3,41.3,402.2,41.2,402,41.2z"/>
			<path class="st68" d="M402,46.3c-0.1,0-0.3,0.1-0.4,0.2c-0.1,0.1-0.2,0.2-0.2,0.4v2.6c0,0.1,0.1,0.3,0.2,0.4
				c0.1,0.1,0.2,0.2,0.4,0.2c0.1,0,0.3-0.1,0.4-0.2c0.1-0.1,0.2-0.2,0.2-0.4v-2.6c0-0.1-0.1-0.3-0.2-0.4
				C402.3,46.3,402.2,46.3,402,46.3z"/>
			<path class="st68" d="M402,36.1c-0.1,0-0.3,0.1-0.4,0.2c-0.1,0.1-0.2,0.2-0.2,0.4v2.6c0,0.1,0.1,0.3,0.2,0.4
				c0.1,0.1,0.2,0.2,0.4,0.2c0.1,0,0.3-0.1,0.4-0.2c0.1-0.1,0.2-0.2,0.2-0.4v-2.6c0-0.1-0.1-0.3-0.2-0.4
				C402.3,36.1,402.2,36.1,402,36.1z"/>
			<path class="st68" d="M402,31c-0.1,0-0.3,0.1-0.4,0.2c-0.1,0.1-0.2,0.2-0.2,0.4v2.6c0,0.1,0.1,0.3,0.2,0.4
				c0.1,0.1,0.2,0.2,0.4,0.2c0.1,0,0.3-0.1,0.4-0.2c0.1-0.1,0.2-0.2,0.2-0.4v-2.6c0-0.1-0.1-0.3-0.2-0.4S402.2,31,402,31L402,31z"/>
			<path class="st68" d="M399.2,34.8l-4.5-1.4c-0.1,0-0.2,0-0.3,0c-0.1,0-0.2,0-0.2,0.1c-0.1,0.1-0.1,0.1-0.2,0.2
				c0,0.1-0.1,0.2-0.1,0.3v13c0,0.1,0,0.2,0.1,0.3c0,0.1,0.1,0.1,0.2,0.2c0.1,0.1,0.2,0.1,0.2,0.1c0.1,0,0.2,0,0.3,0l4.5-1.4
				c0.1,0,0.2-0.1,0.3-0.2c0.1-0.1,0.1-0.2,0.1-0.3V35.4c0-0.1,0-0.2-0.1-0.3C399.4,34.9,399.3,34.9,399.2,34.8z M398.5,45.2l-3.3,1
				V34.8l3.3,1V45.2z"/>
			<path class="st68" d="M409.8,33.6c-0.1-0.1-0.2-0.1-0.2-0.1c-0.1,0-0.2,0-0.3,0l-4.5,1.4c-0.1,0-0.2,0.1-0.3,0.2
				c-0.1,0.1-0.1,0.2-0.1,0.3v10.3c0,0.1,0,0.2,0.1,0.3c0.1,0.1,0.2,0.2,0.3,0.2l4.5,1.4c0.1,0,0.2,0,0.3,0c0.1,0,0.2,0,0.2-0.1
				s0.1-0.1,0.2-0.2c0-0.1,0.1-0.2,0.1-0.3V34c0-0.1,0-0.2-0.1-0.3S409.9,33.6,409.8,33.6z M408.9,46.2l-3.3-1v-9.4l3.3-1V46.2z"/>
		</g>
	</g>
	<g>
		<defs>
			<rect id="SVGID_00000163053329379794097180000008007933118230734265_" x="469" y="32" width="15" height="16"/>
		</defs>
		<clipPath id="SVGID_00000055708008573053436190000010007652137835396227_">
			<use xlink:href="#SVGID_00000163053329379794097180000008007933118230734265_"  style="overflow:visible;"/>
		</clipPath>
		<g style="clip-path:url(#SVGID_00000055708008573053436190000010007652137835396227_);">
			<path class="st68" d="M483.9,39.1c0-0.1,0-0.2-0.1-0.2c0-0.1-0.1-0.1-0.2-0.2c-0.1-0.1-0.3-0.1-0.4-0.1c-0.2,0-0.3,0.1-0.4,0.2
				c-0.1,0.1-0.1,0.3-0.1,0.4v0c0.3,1.6,0,3.2-0.8,4.5c-0.8,1.3-2.1,2.4-3.5,2.8c-1.5,0.5-3.1,0.4-4.5-0.2c-1.4-0.6-2.6-1.7-3.3-3.2
				c-0.7-1.4-0.8-3-0.4-4.6c0.4-1.5,1.3-2.9,2.6-3.7c1.3-0.9,2.8-1.3,4.4-1.1c1.5,0.2,2.9,0.9,4,2.1l-2.6,0.9
				c-0.1,0-0.3,0.2-0.3,0.3s-0.1,0.3,0,0.5c0,0.2,0.2,0.3,0.3,0.3c0.1,0.1,0.3,0.1,0.4,0l3.5-1.2c0.1,0,0.2-0.1,0.3-0.2
				c0.1-0.1,0.1-0.2,0.1-0.3v-3.6c0-0.1,0-0.2,0-0.2c0-0.1-0.1-0.1-0.1-0.2c-0.1-0.1-0.1-0.1-0.2-0.1c-0.1,0-0.2,0-0.2,0
				c-0.1,0-0.2,0-0.2,0c-0.1,0-0.1,0.1-0.2,0.1c-0.1,0.1-0.1,0.1-0.1,0.2c0,0.1,0,0.2,0,0.2v2.2c-1.3-1.3-3-2-4.8-2.1
				c-1.8-0.1-3.5,0.4-5,1.5c-1.4,1.1-2.4,2.7-2.8,4.5c-0.4,1.8-0.1,3.6,0.7,5.2c0.8,1.6,2.2,2.9,3.9,3.5c1.7,0.7,3.5,0.7,5.2,0.1
				c1.7-0.6,3.1-1.8,4-3.3C483.9,42.7,484.2,40.8,483.9,39.1L483.9,39.1z"/>
		</g>
	</g>
</g>
</svg>
