<?xml version="1.0" encoding="utf-8"?>
<!-- Generator: Adobe Illustrator 26.0.0, SVG Export Plug-In . SVG Version: 6.00 Build 0)  -->
<svg version="1.1" id="Layer_1" xmlns="http://www.w3.org/2000/svg" xmlns:xlink="http://www.w3.org/1999/xlink" x="0px" y="0px"
	 viewBox="0 0 459 369" style="enable-background:new 0 0 459 369;" xml:space="preserve">
<style type="text/css">
	.st0{fill:none;stroke:#1DA69A;stroke-miterlimit:10;stroke-dasharray:12.02,12.02;}
	.st1{fill:#FFB66B;}
	.st2{fill:none;stroke:#EFEFEF;stroke-miterlimit:10;stroke-dasharray:12,12;}
	.st3{opacity:0.31;fill:url(#SVGID_1_);enable-background:new    ;}
	.st4{opacity:0.31;fill:url(#SVGID_00000041296140374829475900000016203164178236532894_);enable-background:new    ;}
	.st5{opacity:0.31;fill:url(#SVGID_00000161600050297447856240000011141910943752238208_);enable-background:new    ;}
	.st6{fill:#FFFFFF;}
	.st7{opacity:0.31;fill:#F3F4F4;enable-background:new    ;}
	.st8{opacity:0.31;fill:#D9DADA;enable-background:new    ;}
	.st9{opacity:0.31;fill:#1DA69A;enable-background:new    ;}
	.st10{opacity:0.58;fill:#E1E2FE;enable-background:new    ;}
	.st11{fill:#D9DADA;fill-opacity:0.58;}
	.st12{fill:#1DA69A;}
	.st13{fill:#5FCECB;}
	.st14{fill:#0A776A;}
</style>
<g>
	<path class="st0" d="M362.5,312.9c18.3-7.9,99.6-46,93.5-90.7c-2.1-15.6-33.7-27.6-62.2-52.6c-22.7-19.9-46.3-73.3-69.5-86.2
		C232.7,32.5,98.3,164.1,45.8,227c-7.8,9.4-57.3,65.8-42.9,95.1c12,24.6,74.6,28,88.2,28.5"/>
	<path class="st1" d="M486.8,367.9H31.3v1.1h455.5V367.9z"/>
	<path class="st2" d="M104.5,123.1c0,0,12.5-43.5-11-37.2c-28.2,7.6-1.5,37.4,9.8,38.6"/>
	<path class="st2" d="M90.5,133.9c-17.5-31.6-58.8-39.5-62.4-9.5c-4.3,36.1,56.5,23.7,63.5,11.6"/>
	
		<radialGradient id="SVGID_1_" cx="-25.864" cy="440.6277" r="1" gradientTransform="matrix(191.118 0 0 -190.704 5184.8281 84241.1094)" gradientUnits="userSpaceOnUse">
		<stop  offset="0" style="stop-color:#ACAFBD"/>
		<stop  offset="1" style="stop-color:#ACAFBD"/>
	</radialGradient>
	<path class="st3" d="M367.2,131.7c0,0-11.5-11.2-66.7-71c-55.2-59.8-116.8,0-131.5,16.2c-14.8,16.2-42.3,46.7-84,91.6
		c-41.7,44.9-55.8,85.7-43,117.5c12.8,31.8,59.3,46.7,104.5,35.1c49.6-12.7,95.6-14.5,134.1,32.4c48.6,59.2,135.5,42.1,157.9-40.7
		C460.9,229.9,400.5,168.5,367.2,131.7z"/>
	
		<radialGradient id="SVGID_00000154413890563994270550000014861389343732079248_" cx="-25.8443" cy="440.5781" r="0.9994" gradientTransform="matrix(166.972 0 0 -168.276 4530.6382 74381.9062)" gradientUnits="userSpaceOnUse">
		<stop  offset="0" style="stop-color:#FBFCFF"/>
		<stop  offset="1" style="stop-color:#EAEBF0"/>
	</radialGradient>
	<path style="opacity:0.31;fill:url(#SVGID_00000154413890563994270550000014861389343732079248_);enable-background:new    ;" d="
		M388.7,187.7c-15.3-50.9-61.8-74.7-102.9-60.1c-26.2,9.3-59.5,12.8-109.9-19.6c-54.1-34.8-141-31-140.7,68.2
		c0.4,126.3,57.9,172.5,92,194c72.9,46.1,175.2,22.4,217.2-24.1C385.6,300.4,404.4,240.1,388.7,187.7z"/>
	
		<radialGradient id="SVGID_00000036948221814764101030000014436654899575223947_" cx="-25.8538" cy="440.5959" r="1" gradientTransform="matrix(177.855 0 0 -175.713 4831.0127 77609.6953)" gradientUnits="userSpaceOnUse">
		<stop  offset="0" style="stop-color:#ACAFBD"/>
		<stop  offset="1" style="stop-color:#F5F5F5"/>
	</radialGradient>
	<path style="opacity:0.31;fill:url(#SVGID_00000036948221814764101030000014436654899575223947_);enable-background:new    ;" d="
		M405.7,46.5c-16.4-23.6-59.1-34.7-100.3-2.6C259.1,80.1,193.8,98,135.4,107.4c-60.1,9.7-88.7,54-89.5,81.5
		C45,219,70.7,256.6,146.7,302.5c76,45.9,129,58.6,174.4,52.8c45.4-5.9,75.1-32.7,89.9-77.3c10.3-31.2,4.6-68.6,2.1-118.6
		C410.1,97,429.4,80.7,405.7,46.5z"/>
	<path class="st6" d="M102.3,204.6h8.4v6.1h-8.4v9.5h-6.4v-9.5h-8.4v-6.1h8.5v-9.1h6.4L102.3,204.6z"/>
	<path class="st6" d="M371.4,209.8l6-5.9l4.3,4.3l-6,5.9l6.7,6.7l-4.5,4.5l-6.7-6.7l-6,6l-4.3-4.3l6-6l-6.5-6.4l4.5-4.5L371.4,209.8
		z"/>
	<path class="st6" d="M128.8,311.4h-20.9v-5.5h20.9V311.4z M128.8,321.5h-20.9V316h20.9V321.5z"/>
	<path class="st6" d="M252.6,79.6l-20.9,20.9l-3.9-3.9l20.9-20.9L252.6,79.6z M251.5,95l-4.1,4.1l-3.9-3.9l4.1-4.1L251.5,95z"/>
	<path class="st6" d="M365.8,300.4H344V295h21.9L365.8,300.4z"/>
	<path class="st6" d="M236.9,80.4l-4.1,4.1l-3.9-3.9l4.1-4.1L236.9,80.4z"/>
	<path class="st7" d="M349.2,10.8c0.1-5.7-4.3-10.5-9.9-10.6c-5.6-0.1-10.3,4.4-10.4,10.2c-0.1,5.7,4.3,10.5,9.9,10.6
		C344.4,21.1,349.1,16.5,349.2,10.8z"/>
	<path class="st8" d="M301.9,18.4c2.2,0,4-1.8,4-4s-1.8-4-4-4c-2.2,0-4,1.8-4,4S299.7,18.4,301.9,18.4z"/>
	<path class="st8" d="M98,36c2.2,0,4-1.8,4-4c0-2.2-1.8-4-4-4c-2.2,0-4,1.8-4,4C94.1,34.3,95.9,36,98,36z"/>
	<path class="st9" d="M167.5,59.7c1.7,0,3.1-1.4,3.1-3.1c0-1.7-1.4-3.1-3.1-3.1s-3.1,1.4-3.1,3.1C164.4,58.4,165.8,59.7,167.5,59.7z
		"/>
	<path class="st8" d="M37.2,78.9C37.3,72.5,32.3,67.1,26,67c-6.3-0.1-11.6,5-11.7,11.4c-0.1,6.4,4.9,11.8,11.2,11.9
		C31.8,90.5,37.1,85.4,37.2,78.9z"/>
	<path class="st8" d="M131.9,56.4c0.1,1.2,0.5,2.3,1.2,3.2c0.7,0.9,1.7,1.6,2.8,2c1.1,0.4,2.3,0.4,3.4,0.1c1.1-0.3,2.1-0.9,2.9-1.8
		c0.8-0.9,1.3-1.9,1.4-3.1c0.2-1.2,0-2.3-0.5-3.4c-0.5-1-1.3-1.9-2.3-2.5c-1-0.6-2.1-0.9-3.3-0.8c-0.8,0-1.6,0.2-2.3,0.6
		c-0.7,0.3-1.3,0.8-1.9,1.4c-0.5,0.6-0.9,1.3-1.2,2S131.9,55.6,131.9,56.4z"/>
	<path class="st10" d="M432.2,174.5c0.1,0.8,0.3,1.5,0.8,2.1c0.5,0.6,1.1,1.1,1.8,1.3c0.7,0.2,1.5,0.3,2.3,0.1
		c0.7-0.2,1.4-0.6,1.9-1.2c0.5-0.6,0.8-1.3,0.9-2.1c0.1-0.8,0-1.5-0.3-2.2c-0.3-0.7-0.9-1.3-1.5-1.7c-0.7-0.4-1.4-0.6-2.2-0.5
		c-0.5,0-1,0.2-1.5,0.4c-0.5,0.2-0.9,0.5-1.2,0.9c-0.3,0.4-0.6,0.8-0.8,1.3C432.2,173.5,432.2,174,432.2,174.5z"/>
	<path class="st11" d="M194.5,38.2c1.1,0,2-0.9,2-2c0-1.1-0.9-2-2-2c-1.1,0-2,0.9-2,2C192.6,37.3,193.5,38.2,194.5,38.2z"/>
	<path class="st12" d="M429.5,64.7c1.9,4.7-2.4,8.4-6.3,6.6c-0.8-0.4-1.5-1-2-1.7c-0.5-0.7-0.7-1.6-0.8-2.5c0-4.3,5.1-6.7,8.6-3
		C429.3,64.3,429.4,64.5,429.5,64.7z"/>
	<path class="st12" d="M37.1,59.8c0,0.4-0.1,0.8-0.3,1.1c-0.2,0.3-0.6,0.6-1,0.7c-0.4,0.1-0.8,0.1-1.2,0c-0.4-0.1-0.7-0.4-0.9-0.7
		c-0.2-0.3-0.3-0.7-0.3-1.2c0-0.4,0.2-0.8,0.5-1.1c0.3-0.3,0.6-0.5,1-0.6c0.4-0.1,0.8,0,1.2,0.2c0.3,0.1,0.6,0.4,0.7,0.6
		C37,59.1,37.1,59.4,37.1,59.8z"/>
	<path class="st12" d="M299.7,29.8c0,0.4-0.1,0.8-0.3,1.1c-0.2,0.3-0.6,0.6-1,0.7c-0.4,0.1-0.8,0.1-1.2,0c-0.4-0.1-0.7-0.4-0.9-0.7
		c-0.2-0.3-0.3-0.7-0.3-1.2s0.2-0.8,0.5-1.1c0.3-0.3,0.6-0.5,1-0.6c0.4-0.1,0.8,0,1.2,0.2c0.3,0.1,0.6,0.4,0.7,0.7
		C299.6,29.1,299.7,29.5,299.7,29.8z"/>
	<g>
		<path class="st12" d="M161.1,120.3h154c6,0,10.9,4.9,10.9,10.9v226.4c0,6-4.9,10.9-10.9,10.9h-154c-6,0-10.9-4.9-10.9-10.9V131.2
			C150.2,125.2,155.1,120.3,161.1,120.3z"/>
		<path class="st13" d="M271,130.8h-62.3v10.5H271V130.8z"/>
		<path class="st14" d="M308.8,157.2H167.4v31.4h141.5V157.2z"/>
		<path class="st6" d="M302.6,161.5H173.5v22.8h129.1V161.5z"/>
		<path class="st6" d="M181.4,203.1h-8c-3.3,0-6,2.7-6,6v0.6c0,3.3,2.7,6,6,6h8c3.3,0,6-2.7,6-6v-0.6
			C187.5,205.8,184.8,203.1,181.4,203.1z"/>
		<path class="st6" d="M213.1,203.1h-8c-3.3,0-6,2.7-6,6v0.6c0,3.3,2.7,6,6,6h8c3.3,0,6-2.7,6-6v-0.6
			C219.1,205.8,216.4,203.1,213.1,203.1z"/>
		<path class="st13" d="M305.9,231.1h-18.5c-1.6,0-2.9,1.3-2.9,2.9v10.8c0,1.6,1.3,2.9,2.9,2.9h18.5c1.6,0,2.9-1.3,2.9-2.9v-10.8
			C308.8,232.4,307.5,231.1,305.9,231.1z"/>
		<path class="st13" d="M269,231.1h-18.5c-1.6,0-2.9,1.3-2.9,2.9v10.8c0,1.6,1.3,2.9,2.9,2.9H269c1.6,0,2.9-1.3,2.9-2.9v-10.8
			C271.8,232.4,270.5,231.1,269,231.1z"/>
		<path class="st13" d="M230.2,231.1h-18.5c-1.6,0-2.9,1.3-2.9,2.9v10.8c0,1.6,1.3,2.9,2.9,2.9h18.5c1.6,0,2.9-1.3,2.9-2.9v-10.8
			C233.1,232.4,231.8,231.1,230.2,231.1z"/>
		<path class="st13" d="M191.5,231.1h-18.5c-1.6,0-2.9,1.3-2.9,2.9v10.8c0,1.6,1.3,2.9,2.9,2.9h18.5c1.6,0,2.9-1.3,2.9-2.9v-10.8
			C194.3,232.4,193.1,231.1,191.5,231.1z"/>
		<path class="st13" d="M305.9,261h-18.5c-1.6,0-2.9,1.3-2.9,2.9v10.8c0,1.6,1.3,2.9,2.9,2.9h18.5c1.6,0,2.9-1.3,2.9-2.9v-10.8
			C308.8,262.3,307.5,261,305.9,261z"/>
		<path class="st6" d="M267.2,261h-18.5c-1.6,0-2.9,1.3-2.9,2.9v10.8c0,1.6,1.3,2.9,2.9,2.9h18.5c1.6,0,2.9-1.3,2.9-2.9v-10.8
			C270.1,262.3,268.8,261,267.2,261z"/>
		<path class="st6" d="M228.5,261h-18.5c-1.6,0-2.9,1.3-2.9,2.9v10.8c0,1.6,1.3,2.9,2.9,2.9h18.5c1.6,0,2.9-1.3,2.9-2.9v-10.8
			C231.3,262.3,230.1,261,228.5,261z"/>
		<path class="st6" d="M189.7,261h-18.5c-1.6,0-2.9,1.3-2.9,2.9v10.8c0,1.6,1.3,2.9,2.9,2.9h18.5c1.6,0,2.9-1.3,2.9-2.9v-10.8
			C192.6,262.3,191.3,261,189.7,261z"/>
		<path class="st13" d="M305.9,290.9h-18.5c-1.6,0-2.9,1.3-2.9,2.9v10.8c0,1.6,1.3,2.9,2.9,2.9h18.5c1.6,0,2.9-1.3,2.9-2.9v-10.8
			C308.8,292.2,307.5,290.9,305.9,290.9z"/>
		<path class="st6" d="M267.2,290.9h-18.5c-1.6,0-2.9,1.3-2.9,2.9v10.8c0,1.6,1.3,2.9,2.9,2.9h18.5c1.6,0,2.9-1.3,2.9-2.9v-10.8
			C270.1,292.2,268.8,290.9,267.2,290.9z"/>
		<path class="st6" d="M228.5,290.9h-18.5c-1.6,0-2.9,1.3-2.9,2.9v10.8c0,1.6,1.3,2.9,2.9,2.9h18.5c1.6,0,2.9-1.3,2.9-2.9v-10.8
			C231.3,292.2,230.1,290.9,228.5,290.9z"/>
		<path class="st6" d="M189.7,290.9h-18.5c-1.6,0-2.9,1.3-2.9,2.9v10.8c0,1.6,1.3,2.9,2.9,2.9h18.5c1.6,0,2.9-1.3,2.9-2.9v-10.8
			C192.6,292.2,191.3,290.9,189.7,290.9z"/>
		<path class="st13" d="M305.9,321.9h-18.5c-1.6,0-2.9,1.3-2.9,2.9v10.8c0,1.6,1.3,2.9,2.9,2.9h18.5c1.6,0,2.9-1.3,2.9-2.9v-10.8
			C308.8,323.1,307.5,321.9,305.9,321.9z"/>
		<path class="st6" d="M267.2,321.9h-18.5c-1.6,0-2.9,1.3-2.9,2.9v10.8c0,1.6,1.3,2.9,2.9,2.9h18.5c1.6,0,2.9-1.3,2.9-2.9v-10.8
			C270.1,323.1,268.8,321.9,267.2,321.9z"/>
		<path class="st6" d="M228.5,321.9h-18.5c-1.6,0-2.9,1.3-2.9,2.9v10.8c0,1.6,1.3,2.9,2.9,2.9h18.5c1.6,0,2.9-1.3,2.9-2.9v-10.8
			C231.3,323.1,230.1,321.9,228.5,321.9z"/>
		<path class="st6" d="M189.7,321.9h-18.5c-1.6,0-2.9,1.3-2.9,2.9v10.8c0,1.6,1.3,2.9,2.9,2.9h18.5c1.6,0,2.9-1.3,2.9-2.9v-10.8
			C192.6,323.1,191.3,321.9,189.7,321.9z"/>
		<path class="st14" d="M274.5,178c0.5,0,0.9,0,1.4-0.1c1-0.1,1.9-0.6,2.7-1.2c0.8-0.8,1.5-1.9,1.7-3.4h-0.1c-0.4,0.4-0.8,0.8-1.3,1
			c-0.5,0.2-1.1,0.4-1.7,0.3c-2.3,0-3.8-1.7-3.8-3.9c0-2.4,1.7-4.5,4.4-4.5s4.2,2.1,4.2,5.4c0,2.8-0.9,4.8-2.2,6
			c-1,1-2.3,1.6-3.7,1.7c-0.5,0.1-1.1,0.1-1.6,0.1L274.5,178z M275.2,170.7c0,1.6,1,2.7,2.5,2.7c0.5,0,1-0.1,1.4-0.3
			c0.4-0.2,0.8-0.6,1.1-1c0.1-0.2,0.2-0.4,0.2-0.6c0-2.2-0.8-3.8-2.6-3.8C276.2,167.6,275.2,168.9,275.2,170.7z"/>
		<path class="st14" d="M284.6,178c0.5,0,0.9,0,1.4-0.1c1-0.1,1.9-0.6,2.7-1.2c0.8-0.8,1.5-1.9,1.7-3.4h-0.1c-0.4,0.4-0.8,0.8-1.3,1
			c-0.5,0.2-1.1,0.4-1.7,0.3c-2.3,0-3.8-1.7-3.8-3.9c0-2.4,1.7-4.5,4.4-4.5c2.6,0,4.2,2.1,4.2,5.4c0,2.8-0.9,4.8-2.2,6
			c-1,1-2.3,1.6-3.7,1.7c-0.5,0.1-1.1,0.1-1.6,0.1L284.6,178z M285.2,170.7c0,1.6,1,2.7,2.5,2.7c0.5,0,1-0.1,1.4-0.3
			c0.4-0.2,0.8-0.6,1.1-1c0.1-0.2,0.2-0.4,0.2-0.6c0-2.2-0.8-3.8-2.6-3.8C286.3,167.6,285.2,168.9,285.2,170.7z"/>
	</g>
</g>
</svg>
