<?xml version="1.0" encoding="utf-8"?>
<!-- Generator: Adobe Illustrator 26.0.0, SVG Export Plug-In . SVG Version: 6.00 Build 0)  -->
<svg version="1.1" id="Layer_1" xmlns="http://www.w3.org/2000/svg" xmlns:xlink="http://www.w3.org/1999/xlink" x="0px" y="0px"
	 viewBox="0 0 286 192" style="enable-background:new 0 0 286 192;" xml:space="preserve">
<style type="text/css">
	.st0{fill:#1DA69A;}
	.st1{fill:#CACACA;}
	.st2{fill:#0DB670;}
	.st3{fill:none;stroke:#CACACA;stroke-width:3;stroke-miterlimit:10;}
	.st4{fill:none;stroke:#CACACA;stroke-miterlimit:10;stroke-dasharray:4.98,4.98;}
	.st5{fill:none;stroke:#CACACA;stroke-miterlimit:10;stroke-dasharray:4.92,4.92;}
	.st6{fill:none;stroke:#231F20;stroke-miterlimit:10;}
	.st7{fill:#E12B26;}
	.st8{fill:none;stroke:#0DB670;stroke-width:2;stroke-miterlimit:10;}
	.st9{fill:none;stroke:#FA8617;stroke-width:2;stroke-miterlimit:10;}
	.st10{fill:none;stroke:#CACACA;stroke-width:2;stroke-miterlimit:10;}
	.st11{fill:none;stroke:#1DA69A;stroke-width:2;stroke-miterlimit:10;}
</style>
<g>
	<path class="st0" d="M183.6,21.9c2.6,0,4.7-2.1,4.7-4.7s-2.1-4.7-4.7-4.7s-4.7,2.1-4.7,4.7C178.9,19.8,181,21.9,183.6,21.9z"/>
	<path class="st1" d="M282.7,2.5c0.2,0,0.4,0.1,0.6,0.2c0.2,0.2,0.2,0.4,0.2,0.6v185.4c0,0.2-0.1,0.4-0.2,0.6s-0.4,0.2-0.6,0.2
		H161.8c-0.2,0-0.4-0.1-0.6-0.2s-0.2-0.4-0.2-0.6V3.3c0-0.2,0.1-0.4,0.2-0.6c0.2-0.2,0.4-0.2,0.6-0.2C161.8,2.5,282.7,2.5,282.7,2.5
		z M282.7,0H161.8c-0.9,0-1.7,0.3-2.3,1c-0.6,0.6-1,1.5-1,2.3v185.4c0,0.9,0.3,1.7,1,2.3c0.6,0.6,1.5,1,2.3,1h120.9
		c0.9,0,1.7-0.3,2.3-1c0.6-0.6,1-1.5,1-2.3V3.3c0-0.9-0.3-1.7-1-2.3C284.4,0.3,283.6,0,282.7,0z"/>
	<path class="st0" d="M183.6,53.1c2.6,0,4.7-2.1,4.7-4.7s-2.1-4.7-4.7-4.7s-4.7,2.1-4.7,4.7S181,53.1,183.6,53.1z"/>
	<path class="st0" d="M183.6,85.7c2.6,0,4.7-2.1,4.7-4.7s-2.1-4.7-4.7-4.7s-4.7,2.1-4.7,4.7C178.9,83.6,181,85.7,183.6,85.7z"/>
	<path class="st0" d="M183.6,116.6c2.6,0,4.7-2.1,4.7-4.7s-2.1-4.7-4.7-4.7s-4.7,2.1-4.7,4.7C178.9,114.5,181,116.6,183.6,116.6z"/>
	<path class="st2" d="M207,116.6c2.6,0,4.7-2.1,4.7-4.7s-2.1-4.7-4.7-4.7s-4.7,2.1-4.7,4.7S204.4,116.6,207,116.6z"/>
	<path class="st0" d="M183.6,149.2c2.6,0,4.7-2.1,4.7-4.7c0-2.6-2.1-4.7-4.7-4.7s-4.7,2.1-4.7,4.7
		C178.9,147.1,181,149.2,183.6,149.2z"/>
	<path class="st0" d="M183.6,179.8c2.6,0,4.7-2.1,4.7-4.7c0-2.6-2.1-4.7-4.7-4.7s-4.7,2.1-4.7,4.7
		C178.9,177.7,181,179.8,183.6,179.8z"/>
	<path class="st1" d="M112.2,91.6H11.5c-1.6,0-3.1,0.6-4.2,1.8c-1.1,1.1-1.7,2.6-1.8,4.2v69.9c0,0.8,0.2,1.6,0.5,2.3
		s0.7,1.4,1.3,1.9c0.6,0.6,1.2,1,1.9,1.3s1.5,0.5,2.3,0.5h100.7c0.8,0,1.6-0.2,2.3-0.5c0.7-0.3,1.4-0.7,1.9-1.3s1-1.2,1.3-1.9
		s0.5-1.5,0.5-2.3v-70c0-0.8-0.2-1.6-0.4-2.3c-0.3-0.7-0.7-1.4-1.3-1.9c-0.6-0.6-1.2-1-1.9-1.3C113.8,91.7,113,91.6,112.2,91.6z
		 M114,166c0,0.9-0.4,1.7-1,2.3s-1.5,1-2.3,1H12.9c-0.9,0-1.7-0.3-2.3-1c-0.6-0.6-1-1.4-1-2.3V98.9c0-0.9,0.3-1.7,1-2.3
		c0.6-0.6,1.5-1,2.3-1h97.9c0.9,0,1.7,0.3,2.3,1c0.6,0.6,1,1.5,1,2.3L114,166z M0,170.3v7c0,1.9,1.1,3,3.3,3.3
		c2.6,0.4,5.2,0.5,7.9,0.5h101.2c2.6,0,5.2-0.1,7.8-0.5c2.2-0.3,3.3-1.5,3.3-3.3v-7H0z M14.4,177.3c-0.2,0.1-0.4,0.2-0.6,0.2
		c-0.2,0-0.5-0.1-0.6-0.2c-0.2-0.1-0.3-0.3-0.4-0.6c-0.1-0.2,0-0.5,0.1-0.7c0-0.1,0.1-0.3,0.2-0.4c0.1-0.1,0.2-0.2,0.3-0.2
		c0.2-0.1,0.5-0.2,0.7-0.1c0.1,0,0.2,0,0.3,0.1s0.2,0.1,0.3,0.2c0.2,0.2,0.2,0.4,0.2,0.6c0,0.2,0,0.4-0.1,0.6
		C14.7,177,14.6,177.2,14.4,177.3z M17.9,177.3c-0.1,0.1-0.3,0.2-0.5,0.2s-0.4,0-0.6-0.1s-0.4-0.3-0.5-0.6c-0.1-0.1-0.1-0.3-0.1-0.4
		c0-0.1,0-0.3,0.1-0.4c0-0.1,0.1-0.3,0.2-0.4c0.1-0.1,0.2-0.2,0.3-0.2c0.2-0.1,0.5-0.2,0.7-0.1c0.1,0,0.2,0,0.3,0.1
		c0.1,0.1,0.2,0.1,0.3,0.2c0.1,0.1,0.2,0.2,0.2,0.3s0.1,0.2,0,0.3c0,0.2,0,0.4-0.1,0.6C18.2,177,18,177.2,17.9,177.3z M67.3,177.3
		H56.1c-0.4,0-0.7-0.2-1-0.4c-0.3-0.3-0.4-0.6-0.5-1c0-0.3,0.1-0.7,0.4-0.9c0.2-0.2,0.6-0.4,0.9-0.4h11.7c0.2,0,0.3,0,0.5,0.1
		s0.3,0.2,0.4,0.3s0.2,0.3,0.3,0.4c0.1,0.2,0.1,0.3,0.1,0.5c-0.1,0.4-0.2,0.7-0.5,1C68,177.1,67.7,177.2,67.3,177.3z"/>
	<path class="st3" d="M160.3,32.9h124.3"/>
	<path class="st4" d="M158.8,47.3h-42.2"/>
	<path class="st5" d="M61.8,90.5V56.6c0-2.5,1-4.9,2.7-6.6c1.8-1.8,4.1-2.7,6.6-2.7h27.7"/>
	<path class="st6" d="M100.9,47.3h2.1"/>
	<path class="st3" d="M160.3,64.1h124.3"/>
	<path class="st3" d="M160.3,96.7h124.3"/>
	<path class="st3" d="M160.3,127.6h124.3"/>
	<path class="st3" d="M160.3,160.2h124.3"/>
	<path class="st7" d="M65.2,122.2l9.9,9.8l-3.4,3.4l-9.9-9.8l-9.9,9.8l-3.4-3.4l9.9-9.8l-9.9-9.8L52,109l9.9,9.8l9.9-9.8l3.4,3.4
		L65.2,122.2z"/>
	<path class="st7" d="M120.7,53.2l-9.2-15.8c-0.2-0.4-0.6-0.8-1-1s-0.9-0.4-1.4-0.4s-1,0.1-1.4,0.4c-0.4,0.2-0.8,0.6-1,1l-9.2,15.8
		c-0.3,0.4-0.4,0.9-0.4,1.4s0.1,1,0.4,1.4c0.2,0.4,0.6,0.8,1,1.1s0.9,0.4,1.4,0.4h18.5c0.5,0,1-0.1,1.4-0.4c0.4-0.3,0.8-0.6,1-1.1
		c0.2-0.4,0.4-0.9,0.4-1.4C121.1,54.2,121,53.7,120.7,53.2z M109.1,53.7c-0.3,0-0.5-0.1-0.7-0.2c-0.2-0.1-0.4-0.3-0.5-0.6
		c-0.1-0.2-0.1-0.5-0.1-0.7c0.1-0.2,0.2-0.5,0.3-0.6c0.2-0.2,0.4-0.3,0.7-0.3c0.2,0,0.5,0,0.7,0.1s0.4,0.3,0.6,0.5
		c0.1,0.2,0.2,0.5,0.2,0.7s0,0.3-0.1,0.5s-0.2,0.3-0.3,0.4c-0.1,0.1-0.3,0.2-0.4,0.3C109.4,53.7,109.3,53.7,109.1,53.7L109.1,53.7z
		 M110.1,48c-0.2,1.3-0.3,2.1-0.3,2.2c0,0.2,0,0.4-0.1,0.4l-0.1,0.1c0,0-0.1,0-0.2,0H109c-0.1,0-0.1,0-0.2,0s-0.1,0-0.1-0.1
		c-0.1-0.1-0.1-0.2-0.1-0.4s-0.1-0.7-0.5-3.2c-0.4-2.3-0.4-2.5-0.4-2.5c0-0.2,0-0.4,0.1-0.5c0.1-0.2,0.2-0.3,0.3-0.4
		c0.3-0.3,0.7-0.4,1.1-0.4c0.2,0,0.4,0,0.6,0.1s0.3,0.2,0.5,0.3c0.2,0.3,0.4,0.6,0.4,1C110.6,44.7,110.6,45,110.1,48L110.1,48z"/>
	<path class="st8" d="M231.2,11.3v12"/>
	<path class="st9" d="M241.5,11.3v12"/>
	<path class="st10" d="M251,11.3v12"/>
	<path class="st8" d="M260.7,11.3v12"/>
	<path class="st11" d="M270.5,11.3v12"/>
	<path class="st8" d="M231.2,42.5v12"/>
	<path class="st9" d="M241.5,42.5v12"/>
	<path class="st10" d="M251,42.5v12"/>
	<path class="st10" d="M260.7,42.5v12"/>
	<path class="st8" d="M231.2,169.2v12"/>
	<path class="st10" d="M241.5,169.2v12"/>
	<path class="st11" d="M251,169.2v12"/>
	<path class="st10" d="M260.7,169.2v12"/>
	<path class="st9" d="M231.2,138.6v12"/>
	<path class="st8" d="M241.5,138.6v12"/>
	<path class="st10" d="M251,138.6v12"/>
	<path class="st10" d="M260.7,138.6v12"/>
	<path class="st8" d="M231.2,106v12"/>
	<path class="st11" d="M241.5,106v12"/>
	<path class="st8" d="M251,106v12"/>
	<path class="st10" d="M260.7,106v12"/>
	<path class="st8" d="M270.8,106v12"/>
	<path class="st11" d="M231.2,75.1v12"/>
	<path class="st10" d="M241.5,75.1v12"/>
	<path class="st10" d="M251,75.1v12"/>
	<path class="st10" d="M260.7,75.1v12"/>
	<path d="M51.8,152.1l-1.7-0.4l0.6-5.4h6v1.7h-4.3l-0.3,2.4c0.1-0.1,0.4-0.2,0.6-0.3c0.3-0.1,0.6-0.1,1-0.1c0.5,0,1,0.1,1.4,0.2
		c0.4,0.2,0.7,0.4,1,0.7s0.5,0.7,0.6,1.1c0.1,0.4,0.2,0.9,0.2,1.5c0,0.5-0.1,0.9-0.2,1.4c-0.1,0.4-0.4,0.8-0.7,1.1s-0.7,0.6-1.1,0.8
		c-0.4,0.2-1,0.3-1.6,0.3c-0.5,0-0.9-0.1-1.3-0.2c-0.4-0.1-0.8-0.3-1.1-0.6s-0.6-0.6-0.8-1s-0.3-0.8-0.3-1.3h2.1
		c0,0.3,0.1,0.6,0.2,0.8c0.1,0.2,0.3,0.4,0.5,0.5s0.5,0.2,0.8,0.2s0.5-0.1,0.7-0.2c0.2-0.1,0.3-0.2,0.5-0.4c0.1-0.2,0.2-0.4,0.3-0.6
		c0.1-0.2,0.1-0.5,0.1-0.8s0-0.6-0.1-0.8s-0.2-0.4-0.3-0.6c-0.1-0.2-0.3-0.3-0.5-0.4c-0.2-0.1-0.5-0.1-0.8-0.1
		c-0.4,0-0.7,0.1-0.9,0.2C52.1,151.8,51.9,152,51.8,152.1z M65.6,150.7v1.8c0,0.8-0.1,1.5-0.3,2.1c-0.2,0.6-0.4,1.1-0.7,1.4
		c-0.3,0.4-0.7,0.6-1.1,0.8c-0.4,0.2-0.9,0.3-1.5,0.3c-0.4,0-0.8-0.1-1.2-0.2c-0.4-0.1-0.7-0.3-1-0.5s-0.5-0.5-0.8-0.9
		c-0.2-0.4-0.4-0.8-0.5-1.3s-0.2-1.1-0.2-1.7v-1.8c0-0.8,0.1-1.5,0.3-2.1s0.4-1,0.7-1.4s0.7-0.6,1.1-0.8c0.4-0.2,0.9-0.3,1.5-0.3
		c0.4,0,0.8,0.1,1.2,0.2c0.4,0.1,0.7,0.3,1,0.5c0.3,0.2,0.6,0.5,0.8,0.9c0.2,0.4,0.4,0.8,0.5,1.3S65.6,150.1,65.6,150.7z
		 M63.5,152.9v-2.4c0-0.4,0-0.7-0.1-1c0-0.3-0.1-0.5-0.2-0.7c-0.1-0.2-0.2-0.4-0.3-0.5s-0.3-0.2-0.4-0.3c-0.2-0.1-0.3-0.1-0.5-0.1
		s-0.5,0-0.6,0.1c-0.2,0.1-0.3,0.2-0.5,0.4c-0.1,0.2-0.2,0.5-0.3,0.8s-0.1,0.7-0.1,1.2v2.4c0,0.4,0,0.7,0.1,1c0,0.3,0.1,0.5,0.2,0.8
		c0.1,0.2,0.2,0.4,0.3,0.5s0.3,0.2,0.4,0.3c0.2,0.1,0.3,0.1,0.5,0.1s0.4,0,0.6-0.1c0.2-0.1,0.3-0.2,0.5-0.5c0.1-0.2,0.2-0.5,0.3-0.8
		C63.5,153.7,63.5,153.3,63.5,152.9z M74.2,150.7v1.8c0,0.8-0.1,1.5-0.3,2.1c-0.2,0.6-0.4,1.1-0.7,1.4c-0.3,0.4-0.7,0.6-1.1,0.8
		s-0.9,0.3-1.5,0.3c-0.4,0-0.8-0.1-1.2-0.2c-0.4-0.1-0.7-0.3-1-0.5s-0.5-0.5-0.8-0.9c-0.2-0.4-0.4-0.8-0.5-1.3s-0.2-1.1-0.2-1.7
		v-1.8c0-0.8,0.1-1.5,0.3-2.1c0.2-0.6,0.4-1,0.7-1.4c0.3-0.4,0.7-0.6,1.1-0.8s0.9-0.3,1.5-0.3c0.4,0,0.8,0.1,1.2,0.2
		c0.4,0.1,0.7,0.3,1,0.5s0.6,0.5,0.8,0.9c0.2,0.4,0.4,0.8,0.5,1.3C74.2,149.5,74.2,150.1,74.2,150.7z M72.1,152.9v-2.4
		c0-0.4,0-0.7-0.1-1c0-0.3-0.1-0.5-0.2-0.7s-0.2-0.4-0.3-0.5c-0.1-0.1-0.3-0.2-0.4-0.3c-0.2-0.1-0.3-0.1-0.5-0.1s-0.5,0-0.6,0.1
		c-0.2,0.1-0.3,0.2-0.5,0.4c-0.1,0.2-0.2,0.5-0.3,0.8c-0.1,0.3-0.1,0.7-0.1,1.2v2.4c0,0.4,0,0.7,0.1,1c0,0.3,0.1,0.5,0.2,0.8
		c0.1,0.2,0.2,0.4,0.3,0.5c0.1,0.1,0.3,0.2,0.4,0.3c0.2,0.1,0.3,0.1,0.5,0.1s0.4,0,0.6-0.1s0.3-0.2,0.5-0.5c0.1-0.2,0.2-0.5,0.3-0.8
		C72.1,153.7,72.1,153.3,72.1,152.9z"/>
</g>
</svg>
