<?xml version="1.0" encoding="utf-8"?>
<!-- Generator: Adobe Illustrator 26.0.0, SVG Export Plug-In . SVG Version: 6.00 Build 0)  -->
<svg version="1.1" id="Layer_1" xmlns="http://www.w3.org/2000/svg" xmlns:xlink="http://www.w3.org/1999/xlink" x="0px" y="0px"
	 viewBox="0 0 395 308" style="enable-background:new 0 0 395 308;" xml:space="preserve">
<style type="text/css">
	.st0{fill:#CACACA;}
	.st1{fill:none;stroke:#1DA69A;stroke-width:0.33;stroke-miterlimit:10;stroke-dasharray:1.99,1.99;}
	.st2{fill:none;stroke:#CACACA;stroke-width:0.33;stroke-miterlimit:10;stroke-dasharray:1.99,1.99;}
	.st3{fill:#F2F2F2;}
	.st4{opacity:0.67;fill:#0DB670;enable-background:new    ;}
	.st5{fill:#1DA69A;}
	.st6{fill:#FF106C;}
	.st7{fill:#FFAC64;}
	.st8{fill:#45C6E4;}
	.st9{fill:#3645BD;}
	.st10{fill:#E1555F;}
	.st11{fill:#666666;}
	.st12{fill:none;stroke:#666666;stroke-width:3;stroke-miterlimit:10;}
	.st13{fill:#EFC5C7;}
	.st14{fill:#E0E0E0;}
	.st15{fill:#D1B8B9;}
	.st16{fill:#F5F5F5;}
	.st17{fill:#263238;}
	.st18{fill:#F28F8F;}
	.st19{fill:#FA8617;}
	.st20{opacity:0.2;fill:#FA8617;enable-background:new    ;}
	.st21{fill:#D06B0A;}
	.st22{opacity:0.4;fill:#D06B0A;enable-background:new    ;}
	.st23{opacity:0.3;fill:#D06B0A;enable-background:new    ;}
	.st24{fill:#D99FA2;}
	.st25{fill:#1E1E1E;}
	.st26{fill:#27DEBF;}
	.st27{fill:#353535;}
</style>
<g>
	<path class="st0" d="M346.1,65H109c-3.7,0-7.3,1.5-9.9,4.1c-2.6,2.6-4.1,6.2-4.1,9.9v158.8h265.1V79.1c0-1.8-0.3-3.7-1-5.4
		c-0.7-1.7-1.7-3.3-3-4.6c-1.3-1.3-2.8-2.3-4.6-3C349.8,65.4,347.9,65,346.1,65z M350.4,233.1H104.5V82.3c0-2,0.8-4,2.3-5.4
		c1.4-1.4,3.4-2.2,5.4-2.2h230.4c2,0,4,0.8,5.4,2.3c1.4,1.4,2.3,3.4,2.3,5.4V233.1z M82,240.5v7.5c0,4.5,2.5,7.1,7.7,7.8
		c6.1,0.9,12.3,1.3,18.5,1.2h238.2c6.2,0.1,12.4-0.3,18.5-1.2c5.2-0.8,7.7-3.5,7.7-7.8v-7.5H82z M115.9,250.9
		c-0.3,0.2-0.6,0.4-1,0.5c-0.4,0.1-0.8,0.1-1.1,0c-0.4-0.1-0.7-0.3-1-0.5c-0.3-0.3-0.5-0.6-0.6-0.9c-0.1-0.3-0.2-0.6-0.2-1
		s0.1-0.7,0.2-1c0.1-0.3,0.3-0.6,0.5-0.8c0.2-0.2,0.5-0.4,0.8-0.6c0.5-0.3,1.1-0.4,1.7-0.3c0.3,0,0.5,0.1,0.8,0.2
		c0.2,0.1,0.5,0.3,0.6,0.5c0.4,0.4,0.6,1,0.6,1.5c0.1,0.5,0.1,0.9-0.1,1.4S116.3,250.7,115.9,250.9z M124,250.9
		c-0.3,0.2-0.6,0.4-1,0.5c-0.4,0.1-0.8,0.1-1.1,0c-0.4-0.1-0.7-0.3-1-0.5c-0.3-0.3-0.5-0.6-0.7-0.9c-0.1-0.3-0.2-0.6-0.2-1
		s0.1-0.7,0.2-1c0.1-0.3,0.2-0.6,0.5-0.8c0.2-0.2,0.5-0.4,0.8-0.6c0.5-0.3,1.1-0.4,1.7-0.3c0.3,0,0.5,0.1,0.8,0.2
		c0.2,0.1,0.5,0.3,0.6,0.5c0.2,0.2,0.4,0.4,0.5,0.7c0.1,0.3,0.1,0.5,0.1,0.8c0.1,0.5,0,0.9-0.2,1.4
		C124.8,250.4,124.4,250.7,124,250.9z M240.4,250.9H214c-0.9,0-1.7-0.4-2.4-1c-0.6-0.6-1.1-1.4-1.2-2.3c0-0.8,0.3-1.6,0.9-2.2
		c0.6-0.6,1.3-0.9,2.2-0.9H241c0.4,0,0.8,0.1,1.2,0.2s0.7,0.4,1,0.7c0.3,0.3,0.5,0.6,0.7,1s0.2,0.8,0.2,1.2
		C244.1,249.3,242.1,250.9,240.4,250.9z"/>
	<path class="st1" d="M321.5,155.2c34.9,0,63.1-28.3,63.1-63.1c0-34.9-28.3-63.1-63.1-63.1s-63.1,28.3-63.1,63.1
		C258.4,127,286.6,155.2,321.5,155.2z"/>
	<path class="st2" d="M161.4,217.9c19.5,0,35.2-15.8,35.2-35.2s-15.8-35.2-35.2-35.2s-35.2,15.8-35.2,35.2S141.9,217.9,161.4,217.9z
		"/>
	<path class="st3" d="M254.6,15.9v38.5c0,0.7,0.3,1.4,0.8,1.9c0.5,0.5,1.2,0.8,1.9,0.8l38.8,0.1L254.6,15.9z"/>
	<path class="st3" d="M165.2,177.7L165.4,16h84.3v42.3c0,0.9,0.4,1.8,1,2.4c0.6,0.6,1.5,1,2.4,1l42.9,0.2v115.7L165.2,177.7z"/>
	<path class="st4" d="M127.8,114.8c0.9,0,1.7-0.7,1.7-1.7c0-0.9-0.7-1.6-1.7-1.6c-0.9,0-1.7,0.7-1.7,1.6
		C126.2,114,126.9,114.8,127.8,114.8z"/>
	<path class="st5" d="M303,164c0.6,0,1.2-0.2,1.7-0.5c0.5-0.3,0.9-0.8,1.1-1.3c0.2-0.5,0.3-1.2,0.2-1.7c-0.1-0.6-0.4-1.1-0.8-1.5
		c-0.4-0.4-1-0.7-1.5-0.8c-0.6-0.1-1.2-0.1-1.7,0.2c-0.5,0.2-1,0.6-1.3,1.1c-0.3,0.5-0.5,1.1-0.5,1.7c0,0.4,0.1,0.8,0.2,1.1
		c0.1,0.4,0.4,0.7,0.6,1c0.3,0.3,0.6,0.5,1,0.6C302.2,163.9,302.6,164,303,164z"/>
	<path class="st6" d="M159.9,55.3c0.3,0,0.6-0.1,0.8-0.3s0.4-0.4,0.6-0.7c0.1-0.3,0.1-0.6,0.1-0.9c-0.1-0.3-0.2-0.6-0.4-0.8
		c-0.2-0.2-0.5-0.4-0.8-0.4c-0.3-0.1-0.6,0-0.9,0.1c-0.3,0.1-0.5,0.3-0.7,0.6c-0.2,0.2-0.3,0.5-0.3,0.8c0,0.4,0.2,0.8,0.4,1.1
		C159.1,55.2,159.5,55.3,159.9,55.3z"/>
	<path class="st7" d="M184.8,187.9c0.4,0,0.8-0.1,1.2-0.4c0.4-0.2,0.6-0.6,0.8-1s0.2-0.8,0.1-1.3c-0.1-0.4-0.3-0.8-0.6-1.1
		c-0.3-0.3-0.7-0.5-1.1-0.6c-0.4-0.1-0.9,0-1.3,0.1s-0.7,0.4-1,0.8s-0.4,0.8-0.4,1.2c0,0.3,0.1,0.6,0.2,0.8c0.1,0.3,0.3,0.5,0.5,0.7
		c0.2,0.2,0.4,0.4,0.7,0.5C184.2,187.8,184.5,187.9,184.8,187.9z"/>
	<path class="st8" d="M379.3,131.5c0.3,0,0.7-0.1,1-0.3c0.3-0.2,0.5-0.5,0.6-0.8c0.1-0.3,0.2-0.7,0.1-1c-0.1-0.3-0.2-0.6-0.5-0.9
		c-0.2-0.2-0.6-0.4-0.9-0.5c-0.3-0.1-0.7,0-1,0.1c-0.3,0.1-0.6,0.4-0.8,0.6c-0.2,0.3-0.3,0.6-0.3,1c0,0.2,0,0.5,0.1,0.7
		c0.1,0.2,0.2,0.4,0.4,0.6s0.4,0.3,0.6,0.4C378.9,131.4,379.1,131.5,379.3,131.5z"/>
	<path class="st9" d="M349,108.1c0.2,0,0.4-0.1,0.5-0.2c0.1-0.1,0.2-0.3,0.2-0.5c0-0.2-0.1-0.4-0.2-0.5c-0.1-0.1-0.3-0.2-0.5-0.2
		c-0.2,0-0.4,0.1-0.5,0.2c-0.1,0.1-0.2,0.3-0.2,0.5c0,0.2,0.1,0.4,0.2,0.5C348.6,108.1,348.8,108.1,349,108.1z"/>
	<path class="st5" d="M152.3,3.5c0.5,0,0.9,0.1,1.3,0.4c0.4,0.3,0.7,0.6,0.9,1.1c0.2,0.4,0.2,0.9,0.1,1.4c-0.1,0.5-0.3,0.9-0.7,1.2
		c-0.3,0.3-0.8,0.6-1.2,0.7c-0.5,0.1-0.9,0-1.4-0.1c-0.4-0.2-0.8-0.5-1.1-0.9c-0.3-0.4-0.4-0.9-0.4-1.3c0-0.6,0.3-1.2,0.7-1.7
		C151.1,3.7,151.7,3.5,152.3,3.5z"/>
	<path class="st7" d="M237.1,3.5c0.3,0,0.7-0.1,1-0.3c0.3-0.2,0.5-0.5,0.6-0.8c0.1-0.3,0.2-0.7,0.1-1s-0.2-0.6-0.5-0.9
		c-0.2-0.2-0.6-0.4-0.9-0.5s-0.7,0-1,0.1c-0.3,0.1-0.6,0.4-0.8,0.6c-0.2,0.3-0.3,0.6-0.3,1c0,0.5,0.2,0.9,0.5,1.2
		C236.2,3.3,236.6,3.5,237.1,3.5z"/>
	<path class="st10" d="M378.1,57c0.4,0.1,0.7,0,1.1-0.1s0.7-0.3,0.9-0.5c0.3-0.2,0.5-0.5,0.7-0.9c0.2-0.3,0.2-0.7,0.2-1
		s-0.1-0.7-0.2-1c-0.2-0.3-0.4-0.6-0.7-0.9c-0.3-0.2-0.6-0.4-0.9-0.5s-0.7-0.1-1.1-0.1c-0.6,0.1-1.1,0.4-1.5,0.8
		c-0.4,0.5-0.6,1-0.6,1.6s0.2,1.2,0.6,1.6C377,56.6,377.5,56.9,378.1,57z"/>
	<path class="st11" d="M246,80c-1.8,0-3.5,0.5-5,1.5c-1.5,1-2.6,2.4-3.3,4c-0.7,1.6-0.9,3.5-0.5,5.2c0.3,1.7,1.2,3.3,2.5,4.6
		c1.3,1.3,2.9,2.1,4.6,2.5c1.7,0.3,3.6,0.2,5.2-0.5c1.6-0.7,3.1-1.8,4-3.3c1-1.5,1.5-3.2,1.5-5c0-2.4-0.9-4.7-2.6-6.4
		C250.7,80.9,248.4,80,246,80z M246,94.7c-1.1,0-2.2-0.3-3.2-1s-1.7-1.5-2.1-2.5c-0.4-1-0.5-2.2-0.3-3.3c0.2-1.1,0.8-2.1,1.6-2.9
		c0.8-0.8,1.8-1.3,2.9-1.6c1.1-0.2,2.2-0.1,3.3,0.3c1,0.4,1.9,1.2,2.6,2.1c0.6,0.9,1,2,1,3.2c0,1.5-0.6,2.9-1.7,4
		C248.9,94.1,247.5,94.7,246,94.7z"/>
	<path class="st12" d="M202,121c12.5-16.9,42.5-17.8,55,0"/>
	<path class="st11" d="M213,79c-1.8,0-3.5,0.5-5,1.5s-2.6,2.4-3.3,4c-0.7,1.6-0.9,3.5-0.5,5.2c0.3,1.7,1.2,3.3,2.5,4.6
		c1.3,1.3,2.9,2.1,4.6,2.5s3.6,0.2,5.2-0.5c1.6-0.7,3-1.8,4-3.3c1-1.5,1.5-3.2,1.5-5c0-1.2-0.2-2.4-0.7-3.4c-0.5-1.1-1.1-2.1-2-2.9
		c-0.8-0.8-1.8-1.5-2.9-1.9C215.3,79.2,214.2,79,213,79z M213,93.7c-1.1,0-2.2-0.3-3.2-1c-0.9-0.6-1.7-1.5-2.1-2.6
		c-0.4-1-0.5-2.2-0.3-3.3c0.2-1.1,0.8-2.1,1.6-2.9c0.8-0.8,1.8-1.3,2.9-1.6s2.2-0.1,3.3,0.3c1,0.4,1.9,1.2,2.6,2.1
		c0.6,0.9,1,2,1,3.2c0,0.7-0.1,1.5-0.4,2.2c-0.3,0.7-0.7,1.3-1.2,1.8c-0.5,0.5-1.2,0.9-1.8,1.2C214.5,93.5,213.7,93.7,213,93.7z"/>
	<path d="M200.8,150.1l-1.7-0.4l0.6-5.4h6v1.7h-4.3l-0.3,2.4c0.1-0.1,0.4-0.2,0.6-0.3c0.3-0.1,0.6-0.1,1-0.1c0.5,0,1,0.1,1.4,0.2
		c0.4,0.2,0.7,0.4,1,0.7c0.3,0.3,0.5,0.7,0.6,1.1c0.1,0.4,0.2,0.9,0.2,1.5c0,0.5-0.1,0.9-0.2,1.4c-0.1,0.4-0.4,0.8-0.7,1.1
		c-0.3,0.3-0.7,0.6-1.1,0.8c-0.4,0.2-1,0.3-1.6,0.3c-0.5,0-0.9-0.1-1.3-0.2c-0.4-0.1-0.8-0.3-1.2-0.6c-0.3-0.3-0.6-0.6-0.8-1
		c-0.2-0.4-0.3-0.8-0.3-1.3h2.1c0,0.3,0.1,0.6,0.2,0.8c0.1,0.2,0.3,0.4,0.5,0.5c0.2,0.1,0.5,0.2,0.8,0.2c0.3,0,0.5-0.1,0.7-0.2
		c0.2-0.1,0.3-0.2,0.5-0.4c0.1-0.2,0.2-0.4,0.3-0.6c0.1-0.2,0.1-0.5,0.1-0.8s0-0.6-0.1-0.8c-0.1-0.2-0.2-0.4-0.3-0.6
		c-0.1-0.2-0.3-0.3-0.5-0.4c-0.2-0.1-0.5-0.1-0.8-0.1c-0.4,0-0.7,0.1-0.9,0.2C201.2,149.8,201,150,200.8,150.1z M214.7,148.7v1.8
		c0,0.8-0.1,1.5-0.3,2.1c-0.2,0.6-0.4,1.1-0.7,1.4c-0.3,0.4-0.7,0.6-1.1,0.8c-0.4,0.2-0.9,0.3-1.5,0.3c-0.4,0-0.8-0.1-1.2-0.2
		c-0.4-0.1-0.7-0.3-1-0.5c-0.3-0.2-0.5-0.5-0.8-0.9c-0.2-0.4-0.4-0.8-0.5-1.3c-0.1-0.5-0.2-1.1-0.2-1.7v-1.8c0-0.8,0.1-1.5,0.3-2.1
		c0.2-0.6,0.4-1,0.7-1.4c0.3-0.4,0.7-0.6,1.1-0.8c0.4-0.2,0.9-0.3,1.5-0.3c0.4,0,0.8,0.1,1.2,0.2c0.4,0.1,0.7,0.3,1,0.5
		c0.3,0.2,0.6,0.5,0.8,0.9c0.2,0.4,0.4,0.8,0.5,1.3C214.6,147.5,214.7,148.1,214.7,148.7z M212.5,150.9v-2.4c0-0.4,0-0.7-0.1-1
		c0-0.3-0.1-0.5-0.2-0.7c-0.1-0.2-0.2-0.4-0.3-0.5c-0.1-0.1-0.3-0.2-0.4-0.3c-0.2-0.1-0.3-0.1-0.5-0.1c-0.2,0-0.5,0-0.6,0.1
		c-0.2,0.1-0.3,0.2-0.5,0.4c-0.1,0.2-0.2,0.5-0.3,0.8c-0.1,0.3-0.1,0.7-0.1,1.2v2.4c0,0.4,0,0.7,0.1,1c0,0.3,0.1,0.5,0.2,0.8
		c0.1,0.2,0.2,0.4,0.3,0.5c0.1,0.1,0.3,0.2,0.4,0.3c0.2,0.1,0.3,0.1,0.5,0.1c0.2,0,0.4,0,0.6-0.1c0.2-0.1,0.3-0.2,0.5-0.5
		c0.1-0.2,0.2-0.5,0.3-0.8C212.5,151.7,212.5,151.3,212.5,150.9z M218.2,148.8h1.1c0.4,0,0.7-0.1,0.9-0.2c0.2-0.1,0.4-0.3,0.5-0.5
		c0.1-0.2,0.2-0.5,0.2-0.8c0-0.3-0.1-0.5-0.2-0.7c-0.1-0.2-0.3-0.4-0.5-0.5c-0.2-0.1-0.5-0.2-0.8-0.2c-0.3,0-0.5,0.1-0.7,0.2
		c-0.2,0.1-0.4,0.2-0.5,0.4c-0.1,0.2-0.2,0.4-0.2,0.7H216c0-0.6,0.2-1.1,0.5-1.5c0.3-0.4,0.7-0.8,1.3-1c0.5-0.2,1.1-0.4,1.8-0.4
		c0.7,0,1.4,0.1,1.9,0.4c0.5,0.2,1,0.6,1.3,1c0.3,0.4,0.5,1,0.5,1.7c0,0.3-0.1,0.7-0.2,1c-0.2,0.3-0.4,0.6-0.7,0.8
		c-0.3,0.2-0.6,0.4-1.1,0.6c-0.4,0.1-0.9,0.2-1.4,0.2h-1.5V148.8z M218.2,150.4v-1.1h1.5c0.6,0,1.1,0.1,1.5,0.2
		c0.4,0.1,0.8,0.3,1.1,0.6c0.3,0.2,0.5,0.5,0.7,0.9c0.2,0.3,0.2,0.7,0.2,1.1c0,0.5-0.1,0.9-0.3,1.3c-0.2,0.4-0.5,0.7-0.8,1
		c-0.3,0.3-0.7,0.5-1.2,0.6c-0.5,0.1-1,0.2-1.5,0.2c-0.4,0-0.9-0.1-1.3-0.2c-0.4-0.1-0.8-0.3-1.2-0.6c-0.3-0.3-0.6-0.6-0.8-1
		c-0.2-0.4-0.3-0.8-0.3-1.4h2.1c0,0.3,0.1,0.5,0.2,0.7s0.3,0.4,0.6,0.5c0.2,0.1,0.5,0.2,0.8,0.2c0.3,0,0.6-0.1,0.9-0.2
		c0.2-0.1,0.4-0.3,0.6-0.5c0.1-0.2,0.2-0.5,0.2-0.8c0-0.4-0.1-0.7-0.2-0.9c-0.1-0.2-0.3-0.4-0.6-0.5c-0.3-0.1-0.6-0.2-0.9-0.2H218.2
		z M235.8,153.3v1.7h-5.7v-1.7H235.8z M230.9,144.3V155h-2.2v-10.7H230.9z M235.1,148.7v1.7h-4.9v-1.7H235.1z M235.8,144.3v1.7h-5.7
		v-1.7H235.8z M239.1,148.8v6.2H237v-7.9h2L239.1,148.8z M241.5,147l0,2c-0.1,0-0.2,0-0.4,0c-0.1,0-0.3,0-0.4,0
		c-0.3,0-0.6,0-0.8,0.1c-0.2,0.1-0.4,0.2-0.5,0.3c-0.1,0.1-0.2,0.3-0.3,0.5c-0.1,0.2-0.1,0.5-0.1,0.7l-0.4-0.1c0-0.5,0.1-1,0.2-1.4
		c0.1-0.4,0.3-0.8,0.4-1.1c0.2-0.3,0.4-0.6,0.7-0.7c0.3-0.2,0.6-0.3,1-0.3c0.1,0,0.2,0,0.4,0C241.3,147,241.4,147,241.5,147z
		 M244.6,148.8v6.2h-2.1v-7.9h2L244.6,148.8z M247,147l0,2c-0.1,0-0.2,0-0.4,0c-0.1,0-0.3,0-0.4,0c-0.3,0-0.6,0-0.8,0.1
		c-0.2,0.1-0.4,0.2-0.5,0.3c-0.1,0.1-0.2,0.3-0.3,0.5c-0.1,0.2-0.1,0.5-0.1,0.7l-0.4-0.1c0-0.5,0.1-1,0.2-1.4
		c0.1-0.4,0.3-0.8,0.4-1.1c0.2-0.3,0.4-0.6,0.7-0.7c0.3-0.2,0.6-0.3,1-0.3c0.1,0,0.2,0,0.4,0C246.8,147,246.9,147,247,147z
		 M247.4,151.1V151c0-0.6,0.1-1.1,0.2-1.6c0.2-0.5,0.4-0.9,0.7-1.3c0.3-0.4,0.7-0.6,1.2-0.8c0.5-0.2,1-0.3,1.6-0.3
		c0.6,0,1.1,0.1,1.6,0.3c0.5,0.2,0.9,0.5,1.2,0.8c0.3,0.4,0.6,0.8,0.7,1.3c0.2,0.5,0.2,1,0.2,1.6v0.2c0,0.6-0.1,1.1-0.2,1.6
		c-0.2,0.5-0.4,0.9-0.7,1.3c-0.3,0.4-0.7,0.6-1.2,0.8c-0.5,0.2-1,0.3-1.6,0.3c-0.6,0-1.1-0.1-1.6-0.3c-0.5-0.2-0.9-0.5-1.2-0.8
		c-0.3-0.4-0.6-0.8-0.7-1.3C247.5,152.2,247.4,151.7,247.4,151.1z M249.5,151v0.2c0,0.3,0,0.6,0.1,0.9c0.1,0.3,0.2,0.5,0.3,0.8
		c0.1,0.2,0.3,0.4,0.5,0.5c0.2,0.1,0.5,0.2,0.8,0.2c0.3,0,0.5-0.1,0.8-0.2c0.2-0.1,0.4-0.3,0.5-0.5c0.1-0.2,0.2-0.5,0.3-0.8
		c0.1-0.3,0.1-0.6,0.1-0.9V151c0-0.3,0-0.6-0.1-0.9c-0.1-0.3-0.2-0.5-0.3-0.8c-0.1-0.2-0.3-0.4-0.5-0.5c-0.2-0.1-0.5-0.2-0.8-0.2
		s-0.6,0.1-0.8,0.2c-0.2,0.1-0.4,0.3-0.5,0.5c-0.1,0.2-0.2,0.5-0.3,0.8C249.5,150.3,249.5,150.6,249.5,151z M258.3,148.8v6.2h-2.1
		v-7.9h2L258.3,148.8z M260.7,147l0,2c-0.1,0-0.2,0-0.4,0c-0.1,0-0.3,0-0.4,0c-0.3,0-0.6,0-0.8,0.1c-0.2,0.1-0.4,0.2-0.5,0.3
		c-0.1,0.1-0.2,0.3-0.3,0.5c-0.1,0.2-0.1,0.5-0.1,0.7l-0.4-0.1c0-0.5,0.1-1,0.2-1.4c0.1-0.4,0.3-0.8,0.4-1.1
		c0.2-0.3,0.4-0.6,0.7-0.7c0.3-0.2,0.6-0.3,1-0.3c0.1,0,0.2,0,0.4,0C260.5,147,260.6,147,260.7,147z"/>
	<path class="st13" d="M97.9,96c-5.8-6-16.3-19.6-16.3-19.6l-6-20.7c-0.1,0.1,3,0.1,4,0c6.4,0.4,8.3,1,12.3,5.4
		c3.2,3.5,15.3,20.1,19.5,25.7l11.2-14.3c2.7-4.1,2.2-8.6,3.6-11.9c1.4-3.3,3.6-4.8,5.4-7.8c1.8-3,2.2-5,3.7-3.4
		c1.5,1.6-0.2,5.7-0.4,6.6c-0.2,0.9-2.5,3.7,1.3,2.3c3.8-1.5,9.6-8.4,11.1-9.8c1.5-1.4,2.3,0.8,2,2.5c-0.3,1.7,1.3,5.6,0.7,8.5
		c-0.6,3-1.1,4.4-4,7.4c-2.7,2.7-9.3,6.1-11.9,9.7c-2.6,3.6-8.1,14.8-11.5,21.5c-4.3,8.6-7.9,11.4-12.8,8.5
		C104.8,103.6,100.1,98.2,97.9,96z"/>
	<path class="st14" d="M77.5,55.5c3.3-0.3,6.6,0.1,9.7,1.3c3.5,1.6,5.9,5,9.3,9.5c3.4,4.6,11.9,15.6,11.9,15.6
		c-5.1,3.5-8.8,8.7-10.4,14.6L77.3,73.6L77.5,55.5z"/>
	<path class="st15" d="M111.4,86.8c-2.1,2-3.5,4.7-4,7.5c0,0-1.3-4.1,3.1-8.8L111.4,86.8z"/>
	<path class="st16" d="M57.6,55.4c-2.3,0.5-8.3,1.3-12.3,2.5c-3,0.8-6,4.5-6.5,7.2c-2,8.7-0.2,14.2,0.5,21.8
		c0.7,7.6,0.8,45.6,0.8,45.6c4.2,8.2,36.1,9.9,51.5-1.4c0,0-1.9-50.6-1.9-58.5c0-7.9-4.4-17.3-16.4-18L57.6,55.4z"/>
	<path class="st17" d="M71.2,30.5c0,0.3-0.1,0.6-0.3,0.9c-0.2,0.3-0.5,0.5-0.8,0.6c-0.3,0.1-0.6,0.1-1,0.1c-0.3-0.1-0.6-0.2-0.8-0.5
		c-0.2-0.2-0.4-0.5-0.4-0.9c-0.1-0.3,0-0.7,0.1-1c0.1-0.3,0.3-0.6,0.6-0.7c0.3-0.2,0.6-0.3,0.9-0.3c0.4,0,0.9,0.2,1.2,0.5
		C71,29.6,71.2,30.1,71.2,30.5z"/>
	<path class="st17" d="M69.5,24.9l-3.4,1.9c-0.2-0.5-0.3-1-0.2-1.5c0.1-0.5,0.5-0.9,0.9-1.2c0.2-0.1,0.5-0.2,0.7-0.2
		c0.3,0,0.5,0,0.8,0.1c0.2,0.1,0.5,0.2,0.7,0.4C69.2,24.4,69.4,24.6,69.5,24.9z"/>
	<path class="st18" d="M70.8,40.7l3.9,1.4c-0.1,0.3-0.2,0.5-0.4,0.7c-0.2,0.2-0.4,0.4-0.6,0.5c-0.2,0.1-0.5,0.2-0.8,0.2
		c-0.3,0-0.5,0-0.8-0.1c-0.5-0.2-0.9-0.6-1.2-1.1C70.6,41.8,70.6,41.2,70.8,40.7z"/>
	<path class="st17" d="M84.5,26.2l-3.1-2.4c0.1-0.2,0.3-0.4,0.6-0.5c0.2-0.1,0.5-0.2,0.7-0.3c0.3,0,0.5,0,0.8,0
		c0.2,0.1,0.5,0.2,0.7,0.3c0.4,0.3,0.7,0.8,0.8,1.3C84.9,25.3,84.8,25.8,84.5,26.2z"/>
	<path class="st17" d="M83.7,30.5c0,0.3-0.1,0.6-0.3,0.9c-0.2,0.3-0.4,0.5-0.7,0.6c-0.3,0.1-0.6,0.1-0.9,0.1
		c-0.3-0.1-0.6-0.2-0.8-0.5s-0.4-0.5-0.4-0.8c-0.1-0.3,0-0.6,0.1-0.9c0.1-0.3,0.3-0.5,0.6-0.7c0.3-0.2,0.6-0.3,0.9-0.3
		c0.2,0,0.4,0.1,0.6,0.1c0.2,0.1,0.4,0.2,0.5,0.4c0.1,0.2,0.3,0.3,0.3,0.5C83.7,30.1,83.8,30.3,83.7,30.5z"/>
	<path class="st18" d="M75,27.7l0.6,10.2l5.3-1.8L75,27.7z"/>
	<path class="st19" d="M71.2,28.2l-23.7-1.8c-4.6,3.5-13.1,10.8-13.1,12.8v1.4c0,0.1,0,0.1,0,0.2c0.8,1.6,3.9,2.6,8.6,2.7
		c5.6,0.1,14.2-0.4,16.5-2.4c3.4-3,11.6-11.6,11.6-11.6L70,29.4L71.2,28.2z"/>
	<path class="st20" d="M71.2,28.2l-23.7-1.8c-4.6,3.5-13.1,10.8-13.1,12.8v1.4c0,0.1,0,0.1,0,0.2c0.8,1.6,3.9,2.6,8.6,2.7
		c5.6,0.1,14.2-0.4,16.5-2.4c3.4-3,11.6-11.6,11.6-11.6L70,29.4L71.2,28.2z"/>
	<path class="st21" d="M47.5,27.8c-4.8,3.6-13.9,11.5-13,13.1c0.9,1.6,3.9,2.6,8.6,2.7c5.6,0.1,14.2-0.4,16.5-2.4
		c3.4-3,11.6-11.6,11.6-11.6L47.5,27.8z"/>
	<path class="st22" d="M47.5,27.8c-4.8,3.6-13.9,11.5-13,13.1c0.9,1.6,3.9,2.6,8.6,2.7c5.6,0.1,14.2-0.4,16.5-2.4
		c3.4-3,11.6-11.6,11.6-11.6L47.5,27.8z"/>
	<path class="st21" d="M47.5,27.8c-0.1,0.7,2.3,2.1,2.3,2.1l-0.7-4.2L47.5,27.8z"/>
	<path class="st23" d="M47.5,27.8c-0.1,0.7,2.3,2.1,2.3,2.1l-0.7-4.2L47.5,27.8z"/>
	<path d="M53.7,13.9c0,0-3.7,0.5-5.1,3.3c-1.2,2.4-0.8,8.3,0.8,14.7c0.9,4.1,2.2,8.1,4,12c0.6,1.1,1.6,1.9,2.8,2.3l-0.2-7.6
		l-0.3-5.3c0,0,3.4-4.6,3.8-8.4c0.5-4.9-0.5-6.9-0.5-6.9L53.7,13.9z"/>
	<path d="M59.7,21.2c0,3.8,1.5,7.4,4.2,10c2.7,2.7,6.3,4.1,10,4.1c7.8,0,13.7-6.5,13.6-14.3C87.5,13.2,81.6,7,73.8,7
		c-3.7,0-7.3,1.5-10,4.2C61.2,13.8,59.7,17.5,59.7,21.2z"/>
	<path class="st13" d="M56,32.5c-1.3,1.1-2.3-1.8-3.4-2.9c-1.1-1.1-4.6-2.6-6.3,1c-1.7,3.7,1.5,9,4.2,10.1c0.8,0.3,1.7,0.4,2.5,0.1
		c0.8-0.3,1.5-0.8,2-1.5v16.8c4,7.3,11.1,7.1,14.9,6.6c3.8-0.4,4.6-4.4,1.8-7.6V50c2.1,0.3,4.2,0.4,6.4,0.3c3.5-0.5,5.3-3.2,6.3-7
		c1.7-6.1,2.3-16.3,0-28.1c-3.9-3-17.4-2.5-25.5,2.7C59.6,28.4,57.3,31.4,56,32.5z"/>
	<path d="M83.1,10.1c-1.6-1.7-3.6-3.1-5.7-4c-1.7-0.8-3.6-1.2-5.5-1.2c-2.5,0-5-0.4-7.4-0.3c-4.3,0.1-9.4,1.9-11.4,6.1
		c-0.9,1.9-1,3.9,0.7,5.3c1.6,1.1,3.3,1.7,5.2,2c3.2,0.5,6.3,1.2,9.5,1.7c3.4,0.6,6.9,0.5,10.3-0.1c1.6-0.4,3.1-1,4.5-1.9
		c0.7-0.5,1.3-1,1.9-1.6c0.2-0.2,0.8-0.7,0.9-1c0.1-0.3-0.3-1-0.5-1.3C84.9,12.4,84.1,11.2,83.1,10.1z"/>
	<path class="st15" d="M71.8,50.1c0,0-7.8-1.5-10.5-3c-1.6-0.8-2.9-2.1-3.8-3.7c0.4,1.6,1.1,3.1,2.1,4.4c2,2.5,12.1,4.4,12.1,4.4
		L71.8,50.1z"/>
	<path d="M69.7,29.8c0,0.3-0.1,0.6-0.3,0.9c-0.2,0.3-0.4,0.5-0.7,0.6c-0.3,0.1-0.6,0.1-0.9,0.1c-0.3-0.1-0.6-0.2-0.8-0.5
		c-0.2-0.2-0.4-0.5-0.4-0.8s0-0.6,0.1-0.9c0.1-0.3,0.3-0.6,0.6-0.7c0.3-0.2,0.6-0.3,0.9-0.3c0.2,0,0.4,0.1,0.6,0.1
		c0.2,0.1,0.4,0.2,0.5,0.4c0.2,0.2,0.3,0.3,0.4,0.6C69.7,29.4,69.7,29.6,69.7,29.8z"/>
	<path class="st24" d="M73.5,42.5c0,0.3-0.1,0.6-0.3,0.9c-0.2,0.3-0.4,0.5-0.7,0.6c-0.3,0.1-0.6,0.1-0.9,0.1
		c-0.3-0.1-0.6-0.2-0.8-0.5c-0.2-0.2-0.4-0.5-0.4-0.8s0-0.6,0.1-0.9c0.1-0.3,0.3-0.6,0.6-0.7c0.3-0.2,0.6-0.3,0.9-0.3
		c0.2,0,0.4,0,0.6,0.1c0.2,0.1,0.4,0.2,0.5,0.4c0.2,0.2,0.3,0.3,0.4,0.6C73.5,42,73.5,42.3,73.5,42.5z"/>
	<path d="M67.5,23.5L64.4,26c-0.3-0.4-0.5-1-0.4-1.5c0.1-0.5,0.3-1,0.7-1.4c0.2-0.2,0.5-0.3,0.7-0.4c0.3-0.1,0.5-0.1,0.8-0.1
		c0.3,0,0.5,0.1,0.7,0.3C67.2,23.1,67.4,23.3,67.5,23.5z"/>
	<path d="M84.2,26l-3-2.7c0.2-0.2,0.4-0.4,0.6-0.5c0.2-0.1,0.5-0.2,0.7-0.2s0.5,0,0.8,0.1c0.2,0.1,0.5,0.2,0.7,0.4
		c0.4,0.4,0.7,0.9,0.7,1.4C84.7,25,84.6,25.6,84.2,26z"/>
	<path d="M83.2,29.4c0,0.3-0.1,0.6-0.3,0.9c-0.2,0.3-0.4,0.5-0.7,0.6c-0.3,0.1-0.6,0.1-0.9,0.1c-0.3-0.1-0.6-0.2-0.8-0.5
		c-0.2-0.2-0.4-0.5-0.4-0.8c-0.1-0.3,0-0.6,0.1-0.9c0.1-0.3,0.3-0.6,0.6-0.7c0.3-0.2,0.6-0.3,0.9-0.3c0.2,0,0.4,0.1,0.6,0.1
		c0.2,0.1,0.4,0.2,0.5,0.4c0.2,0.2,0.3,0.3,0.4,0.6C83.2,28.9,83.2,29.1,83.2,29.4z"/>
	<path class="st24" d="M74.2,26.5l0.6,11.7l5.5-1.5L74.2,26.5z"/>
	<path class="st19" d="M46.5,22c0,2,0.4,4,1,5.9c0.4-0.6,0.9-1.2,1.5-1.6c3.2-2.7,6.8-4.7,10.7-6.1c8.9-3.5,19.4-4,27.7-1.1
		c-0.1-1.7-0.5-3.4-1.1-5c-3-8-9.2-12.1-19-11.1C55.7,4.1,46.2,10.5,46.5,22z"/>
	<path d="M67.6,14.9c2.7-0.9,9.5-1.4,11.5-0.8c0.9-0.8,1.7-1.7,2.4-2.7c0.9-1.5,0.6-3.4-0.3-3.7c-0.9-0.4-0.9,0.8-4.3,2.5
		c0.4-1.1,0.5-2.3,0.3-3.4c-0.6-1.4-1.7,1.1-4.2,2.7C70.4,11.1,67.9,11.9,67.6,14.9z"/>
	<path class="st25" d="M32.7,48.8C30.5,46.9,17,63,22.6,67.6c5.6,4.6,12.5-7,11.6-12.7S32.7,48.8,32.7,48.8z"/>
	<path class="st13" d="M21.8,39.7c3.4-4.2,12.4-14.2,14.3-16c2-1.8,3.2-1.6,4.4-2c1.4-0.5,2.6-1.3,3.7-2.3c0.6-0.7,1.2-1.4,1.8-2.1
		c1.9-2.4,4.2-4.5,6.7-6.3c2.7-1.8,5.6-3.2,8.3-5c1.6-1,3.4-2.8,1.6-4.6c-0.6-0.5-1.2-0.9-2-1.1C56-0.8,51.9,0.6,47.3,1.6
		c-2,0.4-4,1-5.9,1.7c-0.9,0.3-1.8,0.8-2.6,1.4c-1.6,1.3-3,2.8-4.3,4.4c-3.2,3.9-5.9,5.1-8.9,7.8C21.8,20.1,5.5,31.7,2,35.2
		c-2.9,2.9-2,5.2-1.6,6.1c2,4.7,4.5,6.4,7.3,9.4c0.9,1,1.9,2,2.9,3c3.7,3.8,7.5,7.3,11.3,11c4.1,3.9,5.8,5.7,9.5,9.5
		c2.3,2.4,4.2,5.2,5.6,8.3c6.7,1.5,11.2-12.6,8.8-20.9c-0.7-2.1-2.1-3.9-3.9-5.1C35.2,50.9,21.8,39.7,21.8,39.7z"/>
	<path class="st15" d="M21.8,39.7c-2.3,2.6-5.2,4.4-8.5,5.3c0,0,4.2,1.3,10.3-3.8L21.8,39.7z"/>
	<path class="st14" d="M45.3,57.9c-1.5-1.2-5.2-3.8-12.6-9.1c0,0,1,2.6-1.2,8.7c-2.2,6.1-6.4,9.9-8.9,10.2c0,0,4.1,3.7,7.8,7.7
		c3.7,4.1,6.8,7,8.8,11.6c0,0,5.7-1.1,7.6-10.6C48.1,69.6,48,61.7,45.3,57.9z"/>
	<path class="st17" d="M58.1,301.4c0.4,0.4,0.1,3.1-0.3,3.8c-0.4,0.6-3,2.7-7.6,2.8c-4.4,0.1-8.3-0.7-10.8-2.5s-3.6-3.7-3.8-6.2
		c-0.1-2.5,0.3-5-0.8-7c-1-1.8-2.4-3.7-2.7-4.7c-0.4-1.8-0.4-3.6,0-5.4L58.1,301.4z"/>
	<path class="st26" d="M47.4,280c0,1,0.1,1.9,0.4,2.8c0.6,2,1.4,3.9,2.4,5.7c0.5,0.9,1.1,1.8,1.7,2.7c1.3,1.7,2.8,3.1,4.2,4.7
		c1.4,1.5,2.3,3.5,2.4,5.6c0,3.5-3.8,4.5-6.7,4.8c-3.2,0.4-6.4,0-9.4-1c-1.6-0.5-3-1.5-4-2.7c-1.1-1.3-1.7-2.9-1.9-4.5
		c-0.1-1,0-2-0.1-2.9c-0.3-2.2-1.1-4.4-2.4-6.2c-0.7-1.1-1.4-2.2-1.9-3.4c-0.8-2.2,0.1-4.6,0.8-6.7c0.6-1.8,1.1-4,1.7-3.8
		c0,0.4,0,1.2,0,1.2c0.2,0.4,0.7,0.7,0.8,1.2c0.1,0.5,0.3,1,0.4,1.5c0.3,0.7,0.8,1.4,1.4,1.8c0.1-1.3,0.2-2.6,0.3-3.9
		c0-0.4,0.1-0.8,0.4-1.1c0.3-0.3,0.7-0.4,1.1-0.4c2.4-0.5,5-0.5,7.4-0.2c0.2,0,0.4,0.1,0.5,0.1c0.2,0.1,0.3,0.2,0.4,0.4
		c0.1,0.3,0.2,0.6,0.1,0.9C47.4,277.6,47.4,278.8,47.4,280z"/>
	<path d="M47.4,280c0,1,0.1,1.9,0.4,2.8c0.6,2,1.4,3.9,2.4,5.7c0.5,0.9,1.1,1.8,1.7,2.7c1.3,1.7,2.8,3.1,4.2,4.7
		c1.4,1.5,2.3,3.5,2.4,5.6c0,3.5-3.8,4.5-6.7,4.8c-3.2,0.4-6.4,0-9.4-1c-1.6-0.5-3-1.5-4-2.7c-1.1-1.3-1.7-2.9-1.9-4.5
		c-0.1-1,0-2-0.1-2.9c-0.3-2.2-1.1-4.4-2.4-6.2c-0.7-1.1-1.4-2.2-1.9-3.4c-0.8-2.2,0.1-4.6,0.8-6.7c0.6-1.8,1.1-4,1.7-3.8
		c0,0.4,0,1.2,0,1.2c0.2,0.4,0.7,0.7,0.8,1.2c0.1,0.5,0.3,1,0.4,1.5c0.3,0.7,0.8,1.4,1.4,1.8c0.1-1.3,0.2-2.6,0.3-3.9
		c0-0.4,0.1-0.8,0.4-1.1c0.3-0.3,0.7-0.4,1.1-0.4c2.4-0.5,5-0.5,7.4-0.2c0.2,0,0.4,0.1,0.5,0.1c0.2,0.1,0.3,0.2,0.4,0.4
		c0.1,0.3,0.2,0.6,0.1,0.9C47.4,277.6,47.4,278.8,47.4,280z"/>
	<path class="st19" d="M50.6,289.3c-1.2-1-4.1-1.2-5.7-1.1c-1.6,0.1-3.2,0.5-4.6,1.3c-0.2,0.1-0.4,0.2-0.7,0.2
		c-0.2,0-0.5-0.2-0.6-0.3c-0.1-0.1-0.2-0.2-0.2-0.4c0-0.1-0.1-0.3,0-0.4s0.1-0.3,0.1-0.4c0.1-0.1,0.2-0.2,0.3-0.3
		c1.5-1,3.3-1.6,5.1-1.6c3.9-0.1,5,0.7,5,0.7S51,288.2,50.6,289.3z"/>
	<path class="st19" d="M53.4,293c-1.6-1-4.7-1.1-6.3-1c-1.6,0.1-3.1,0.6-4.5,1.4c-0.2,0.1-0.4,0.2-0.7,0.2c-0.2,0-0.5-0.2-0.6-0.3
		c-0.1-0.1-0.2-0.2-0.2-0.4c0-0.1-0.1-0.3,0-0.4c0-0.1,0.1-0.3,0.1-0.4c0.1-0.1,0.2-0.2,0.3-0.3c1.6-1.1,3.4-1.7,5.3-1.7
		c3.9-0.1,4.9,0.8,4.9,0.8c0.4,0.2,0.8,0.5,1.1,0.9C53,292.1,53.2,292.6,53.4,293z"/>
	<path class="st19" d="M43,282.5c1.6-0.2,3.3,0,4.8,0.7c0.7,0.4,1.1,1.5,0.6,1.8c-1.3-0.6-2.8-0.9-4.3-0.8c-1.5,0.1-2.9,0.4-4.3,0.9
		c-0.4,0.1-0.7,0.3-1.1,0.5c-0.1,0.1-0.2,0.1-0.4,0.1c-0.1,0-0.2,0-0.4-0.1c-0.1,0-0.2-0.1-0.3-0.2c-0.1-0.1-0.2-0.2-0.2-0.3
		c-0.1-0.2-0.1-0.4,0-0.6c0.1-0.2,0.2-0.4,0.4-0.5C39.5,283.1,41.2,282.6,43,282.5z"/>
	<path class="st17" d="M111.7,287.5c0.3,1,0.2,2.1-0.3,3.1c-0.5,0.9-5.3,3.3-11.6,2.5c-4.7-0.6-9.1-2.4-12.9-5.3
		c-2.3-1.7-4.8-2.2-7.9-2.5c-3.1-0.3-5.5-1.4-6.1-3c-0.6-1.5,0.3-4,0.3-4L111.7,287.5z"/>
	<path class="st26" d="M87.1,267.3c0.6-0.1,1.1-0.3,1.7-0.5c0.3-0.1,0.6-0.1,0.9-0.1c0.2,0.1,0.3,0.3,0.4,0.5s0.2,0.4,0.2,0.6
		c0.1,0.9,0.3,1.9,0.5,2.8c0.4,0.8,1,1.4,1.7,2c1.5,1.4,3.1,2.6,4.9,3.6c2,1.2,4,2.2,6.1,3.3c2.1,1.1,5,1.9,6.6,3.1
		c2.4,1.8,2.5,6.1-0.4,7.6c-2.5,1.3-9,2.5-15.7,0.2c-3.6-1.2-7.5-5.4-12.3-6.1c-3.1-0.4-7.1-0.9-8.9-3.3c-0.7-1.1-0.1-4.1,0.5-7.6
		c0.5-3.2,0.9-8.2,2-7.9c0,0,0.4,1.2,0.4,1.3c0.3,0.4,0.5,0.8,0.8,1.1c0.3,0.3,0.6,0.6,0.9,0.8c0.3,0.4,0.7,0.8,1.1,1.1
		c0.5,0.4,1.1,0.7,1.8,0.7c0.3,0,0.6,0,0.9-0.2c0.5-0.3,0.6-1,1-1.4c0.5-0.5,1.1-0.9,1.7-1.1c0.9-0.3,1.8-0.5,2.8-0.6L87.1,267.3z"
		/>
	<path d="M87.1,267.3c0.6-0.1,1.1-0.3,1.7-0.5c0.3-0.1,0.6-0.1,0.9-0.1c0.2,0.1,0.3,0.3,0.4,0.5s0.2,0.4,0.2,0.6
		c0.1,0.9,0.3,1.9,0.5,2.8c0.4,0.8,1,1.4,1.7,2c1.5,1.4,3.1,2.6,4.9,3.6c2,1.2,4,2.2,6.1,3.3c2.1,1.1,5,1.9,6.6,3.1
		c2.4,1.8,2.5,6.1-0.4,7.6c-2.5,1.3-9,2.5-15.7,0.2c-3.6-1.2-7.5-5.4-12.3-6.1c-3.1-0.4-7.1-0.9-8.9-3.3c-0.7-1.1-0.1-4.1,0.5-7.6
		c0.5-3.2,0.9-8.2,2-7.9c0,0,0.4,1.2,0.4,1.3c0.3,0.4,0.5,0.8,0.8,1.1c0.3,0.3,0.6,0.6,0.9,0.8c0.3,0.4,0.7,0.8,1.1,1.1
		c0.5,0.4,1.1,0.7,1.8,0.7c0.3,0,0.6,0,0.9-0.2c0.5-0.3,0.6-1,1-1.4c0.5-0.5,1.1-0.9,1.7-1.1c0.9-0.3,1.8-0.5,2.8-0.6L87.1,267.3z"
		/>
	<path class="st19" d="M94.7,274.4c-0.2-0.4-0.5-0.8-0.9-1.1c-0.4-0.3-0.8-0.5-1.3-0.6c-1.4-0.3-3.9,0.6-5.5,1.7
		c-0.2,0.1-0.3,0.3-0.4,0.4c-0.1,0.2-0.1,0.4-0.1,0.5c0,0.2,0.1,0.4,0.2,0.5c0.1,0.2,0.2,0.3,0.4,0.4c0.2,0.1,0.4,0.2,0.7,0.2
		c0.2,0,0.5-0.1,0.6-0.2C90.1,274.8,92.4,274.2,94.7,274.4z"/>
	<path class="st19" d="M98.9,277c-0.3-0.4-0.7-0.8-1.1-1.1c-0.5-0.3-1-0.4-1.5-0.4c0,0-3.6-0.1-6,1.9c-0.1,0.1-0.3,0.3-0.3,0.4
		c-0.1,0.2-0.1,0.3-0.1,0.5c0,0.2,0.1,0.4,0.1,0.5c0.1,0.2,0.2,0.3,0.4,0.4c0.2,0.1,0.4,0.2,0.6,0.2c0.2,0,0.4-0.1,0.6-0.2
		c1-0.9,2.2-1.5,3.4-1.9C96.2,276.9,97.6,276.8,98.9,277z"/>
	<path class="st19" d="M103.5,279.5c-0.3-0.4-0.7-0.8-1.2-1c-0.5-0.2-1-0.4-1.5-0.4c-2.1,0-4.1,0.7-5.8,1.9
		c-0.1,0.1-0.3,0.3-0.3,0.4c-0.1,0.2-0.1,0.3-0.1,0.5c0,0.2,0.1,0.4,0.1,0.5c0.1,0.2,0.2,0.3,0.4,0.4c0.2,0.1,0.4,0.2,0.6,0.2
		c0.2,0,0.4-0.1,0.6-0.2c0.9-0.9,2.1-1.6,3.3-2C100.9,279.4,102.2,279.3,103.5,279.5z"/>
	<path class="st27" d="M93.3,129.5c0.2,14.6-0.8,63.8-1.1,71.1c-0.3,6.4-1.4,69.7-1.4,69.7c-7.3,2.3-17.4-0.1-17.4-0.1
		s-5.1-39.5-5.4-46.5c-0.2-6.4,0.1-12.9,1-19.2l-3.8-40.3c0,0-4.1,30.2-6.1,43.4c-2.3,15.1-10.7,73.1-10.7,73.1
		c-6.7,2.6-16.2-1.1-16.2-1.1s0.5-45.1,1.2-60.4c0.5-10.6,3.4-15.7,3.7-18.7c0,0,1.5-54.9,1.6-68.8c0.1-9.3,1.1-19.6,1.1-19.6
		s10.1,0.8,11-2.1c0.9-3,0-31.5-0.4-37c0,0,21.3-4.8,39.7-1.2C90.3,71.7,93.1,114.9,93.3,129.5z"/>
	<path class="st25" d="M50.5,117.9c0.1,9.7-1.6,15.7-4.2,17.8c-2.6,2.1-7.6,1.9-7.6,1.9v-1.4c0,0,4.8,0.7,6.9-1.5
		C47.7,132.5,49.7,129.2,50.5,117.9z"/>
	<path class="st25" d="M83.3,82c0,0-11.1,0-21.5,0.7c0,0-0.1,8.1,0.8,11.1c0.9,3,7.9,7.4,10.8,7.4c2.5,0,9.5-5,10-7.6
		C83.9,90.9,83.3,82,83.3,82z"/>
	<path class="st25" d="M65.3,164.2l1-6.2c3-0.4,10.7-5.2,15.2-9.4c-3.2,4.9-7.6,8.9-12.7,11.8l-0.3,39.7L65.3,164.2z"/>
	<path class="st27" d="M45.3,57.9c2-0.5,3.1-0.1,4.1,2.4c1,2.5,2.2,10.7,2.5,18.4c0,0,4.6,0.8,7.8-0.5c0,0-0.4-10.1-1.5-15.3
		c-0.3-1.5-0.8-3-1.5-4.4c-0.4-0.9-1.2-1.6-2.1-2.1c-0.9-0.5-1.9-0.6-2.9-0.4l-7.3,1.3L45.3,57.9z"/>
	<path class="st19" d="M54,75.4c0,0.4,0.1,0.7,0.3,1c0.2,0.3,0.5,0.5,0.8,0.7c0.3,0.1,0.7,0.2,1,0.1c0.4-0.1,0.7-0.2,0.9-0.5
		c0.3-0.3,0.4-0.6,0.5-0.9c0.1-0.4,0-0.7-0.1-1c-0.1-0.3-0.4-0.6-0.7-0.8c-0.3-0.2-0.6-0.3-1-0.3c-0.5,0-0.9,0.2-1.3,0.5
		C54.1,74.4,54,74.9,54,75.4z"/>
	<path class="st27" d="M71.9,55.2c1.6,0.1,3.1,0.6,4.4,1.5c1.3,0.9,2.3,2.2,3,3.6c1.5,3.8,1.5,12.3,1.6,16.6c2.3,0.9,4.8,0.9,7.1,0
		c0,0,0-13.4-2.3-17.8c-2.3-4.4-6.7-4.7-8.9-4.9c-1.6-0.1-3.3-0.1-4.9,0L71.9,55.2z"/>
	<path class="st19" d="M82.4,73.9c0,0.4,0.1,0.7,0.3,1c0.2,0.3,0.5,0.5,0.8,0.7c0.3,0.1,0.7,0.2,1,0.1c0.4-0.1,0.7-0.2,0.9-0.5
		c0.3-0.3,0.4-0.6,0.5-0.9c0.1-0.4,0-0.7-0.1-1c-0.1-0.3-0.4-0.6-0.7-0.8c-0.3-0.2-0.6-0.3-1-0.3c-0.5,0-0.9,0.2-1.3,0.5
		C82.6,73,82.4,73.5,82.4,73.9z"/>
</g>
</svg>
