<?xml version="1.0" encoding="utf-8"?>
<!-- Generator: Adobe Illustrator 15.0.0, SVG Export Plug-In . SVG Version: 6.00 Build 0)  -->
<!DOCTYPE svg PUBLIC "-//W3C//DTD SVG 1.1//EN" "http://www.w3.org/Graphics/SVG/1.1/DTD/svg11.dtd">
<svg version="1.1" id="Layer_1" xmlns="http://www.w3.org/2000/svg" xmlns:xlink="http://www.w3.org/1999/xlink" x="0px" y="0px"
	 width="395px" height="308px" viewBox="0 0 395 308" enable-background="new 0 0 395 308" xml:space="preserve">
<g>
	<defs>
		<rect id="SVGID_1_" width="395" height="308"/>
	</defs>
	<clipPath id="SVGID_2_">
		<use xlink:href="#SVGID_1_"  overflow="visible"/>
	</clipPath>
	<g clip-path="url(#SVGID_2_)">
		<path fill="#CACACA" d="M346.09,65H109.03c-3.725,0.013-7.293,1.499-9.927,4.133c-2.634,2.634-4.119,6.202-4.132,9.927v158.79
			H360.1V79.06c0.009-1.844-0.349-3.672-1.049-5.378c-0.701-1.706-1.731-3.257-3.034-4.563c-1.302-1.307-2.849-2.343-4.552-3.05
			C349.761,65.362,347.934,64.999,346.09,65z M350.39,233.09H104.52V82.33c0.016-2.041,0.837-3.993,2.285-5.431
			c1.447-1.438,3.404-2.247,5.445-2.25h230.41c2.038,0.01,3.991,0.821,5.437,2.258c1.446,1.437,2.27,3.384,2.293,5.422V233.09z
			 M82,240.49v7.5c0,4.46,2.54,7.06,7.73,7.84c6.118,0.868,12.291,1.283,18.47,1.24h238.2c6.18,0.068,12.354-0.346,18.47-1.24
			c5.189-0.78,7.729-3.48,7.729-7.84v-7.5H82z M115.93,250.939c-0.297,0.236-0.646,0.399-1.017,0.478
			c-0.372,0.078-0.757,0.067-1.124-0.03c-0.367-0.097-0.706-0.277-0.991-0.529c-0.284-0.252-0.506-0.565-0.648-0.918
			c-0.129-0.304-0.195-0.629-0.195-0.959s0.066-0.656,0.195-0.961c0.095-0.308,0.255-0.592,0.469-0.834
			c0.214-0.24,0.477-0.434,0.771-0.565c0.506-0.279,1.088-0.388,1.66-0.31c0.275,0.025,0.541,0.108,0.782,0.244
			c0.24,0.133,0.451,0.315,0.618,0.535c0.372,0.415,0.575,0.953,0.57,1.51c0.105,0.457,0.054,0.934-0.143,1.357
			C116.68,250.381,116.346,250.727,115.93,250.939z M124.03,250.939c-0.298,0.236-0.647,0.399-1.02,0.478
			c-0.372,0.077-0.757,0.067-1.125-0.03c-0.368-0.097-0.708-0.277-0.993-0.529c-0.286-0.25-0.509-0.565-0.652-0.918
			c-0.129-0.304-0.195-0.629-0.195-0.959s0.066-0.656,0.195-0.961c0.087-0.313,0.245-0.603,0.462-0.846
			c0.216-0.242,0.486-0.432,0.788-0.554c0.505-0.28,1.088-0.39,1.66-0.31c0.275,0.025,0.541,0.108,0.782,0.244
			c0.24,0.133,0.451,0.315,0.618,0.535c0.202,0.193,0.358,0.43,0.456,0.689c0.099,0.263,0.138,0.543,0.114,0.82
			c0.1,0.457,0.047,0.932-0.15,1.354C124.773,250.377,124.443,250.723,124.03,250.939z M240.35,250.939H213.99
			c-0.881-0.041-1.717-0.391-2.363-0.989s-1.059-1.406-1.167-2.28c0.013-0.809,0.341-1.582,0.914-2.152
			c0.573-0.572,1.347-0.897,2.155-0.908h27.441c0.403-0.008,0.805,0.065,1.18,0.217c0.375,0.15,0.716,0.376,1.002,0.662
			c0.285,0.285,0.511,0.626,0.662,1.001c0.15,0.375,0.224,0.776,0.215,1.181C244.08,249.279,242.109,250.939,240.35,250.939z"/>
		<path fill="none" stroke="#FA8617" stroke-width="0.33" stroke-miterlimit="10" stroke-dasharray="1.99,1.99" d="M321.491,155.221
			c34.859,0,63.12-28.261,63.12-63.121c0-34.86-28.261-63.12-63.12-63.12c-34.86,0-63.12,28.26-63.12,63.12
			C258.371,126.96,286.631,155.221,321.491,155.221z"/>
		<path fill="none" stroke="#CACACA" stroke-width="0.33" stroke-miterlimit="10" stroke-dasharray="1.99,1.99" d="M161.402,217.859
			c19.457,0,35.23-15.772,35.23-35.229s-15.773-35.23-35.23-35.23s-35.23,15.773-35.23,35.23S141.945,217.859,161.402,217.859z"/>
		<path fill="#F2F2F2" d="M254.59,15.95v38.48c0,0.698,0.275,1.369,0.766,1.867s1.155,0.783,1.854,0.793l38.8,0.14L254.59,15.95z"/>
		<path fill="#F2F2F2" d="M165.211,177.73l0.22-161.74h84.331v42.34c0.002,0.894,0.355,1.751,0.983,2.387
			c0.629,0.636,1.481,1,2.376,1.013l42.89,0.18v115.67L165.211,177.73z"/>
		<path opacity="0.67" fill="#0DB670" enable-background="new    " d="M127.822,114.78c0.911,0,1.65-0.739,1.65-1.65
			s-0.739-1.65-1.65-1.65c-0.911,0-1.65,0.739-1.65,1.65S126.911,114.78,127.822,114.78z"/>
		<path fill="#0DB670" d="M303,164c0.593,0,1.173-0.176,1.667-0.506c0.493-0.329,0.878-0.799,1.104-1.346
			c0.228-0.549,0.286-1.151,0.17-1.733c-0.114-0.582-0.4-1.117-0.82-1.536c-0.419-0.42-0.954-0.706-1.536-0.82
			c-0.582-0.117-1.185-0.058-1.733,0.17c-0.547,0.227-1.017,0.611-1.346,1.104c-0.33,0.494-0.506,1.074-0.506,1.667
			c-0.002,0.395,0.074,0.786,0.225,1.15c0.149,0.365,0.371,0.697,0.649,0.976s0.61,0.5,0.976,0.649
			C302.214,163.926,302.605,164.002,303,164z"/>
		<path fill="#FF106C" d="M159.891,55.34c0.301,0,0.595-0.089,0.845-0.256s0.444-0.404,0.559-0.682
			c0.115-0.278,0.146-0.583,0.087-0.878c-0.059-0.295-0.204-0.565-0.416-0.778c-0.213-0.212-0.484-0.357-0.778-0.416
			c-0.295-0.059-0.601-0.028-0.879,0.087c-0.277,0.115-0.515,0.31-0.682,0.56s-0.256,0.544-0.256,0.845
			c0,0.403,0.16,0.79,0.445,1.075C159.101,55.18,159.488,55.34,159.891,55.34z"/>
		<path fill="#FFAC64" d="M184.779,187.85c0.43,0,0.85-0.127,1.207-0.365c0.357-0.239,0.635-0.58,0.799-0.977
			s0.206-0.834,0.122-1.255c-0.085-0.421-0.292-0.808-0.597-1.11c-0.304-0.304-0.692-0.51-1.113-0.593
			c-0.422-0.082-0.859-0.038-1.255,0.128s-0.735,0.446-0.972,0.805c-0.237,0.357-0.363,0.777-0.361,1.207
			c0,0.285,0.057,0.566,0.166,0.83c0.109,0.263,0.269,0.5,0.471,0.701c0.201,0.201,0.441,0.36,0.704,0.467
			C184.213,187.796,184.495,187.852,184.779,187.85z"/>
		<path fill="#45C6E4" d="M379.308,131.48c0.343,0,0.678-0.101,0.961-0.292c0.285-0.19,0.508-0.46,0.638-0.776
			c0.131-0.316,0.166-0.664,0.099-0.999c-0.067-0.336-0.231-0.644-0.474-0.886c-0.241-0.242-0.55-0.407-0.885-0.474
			c-0.337-0.066-0.685-0.032-1,0.099c-0.316,0.131-0.587,0.352-0.776,0.637c-0.19,0.284-0.292,0.619-0.292,0.961
			c-0.001,0.228,0.043,0.453,0.129,0.664c0.087,0.21,0.214,0.401,0.375,0.562s0.352,0.289,0.563,0.375
			C378.855,131.438,379.081,131.481,379.308,131.48z"/>
		<path fill="#3645BD" d="M348.998,108.13c0.202,0,0.395-0.08,0.538-0.222c0.142-0.143,0.222-0.336,0.222-0.538
			c0-0.201-0.08-0.395-0.222-0.537c-0.144-0.143-0.336-0.223-0.538-0.223c-0.201,0-0.396,0.08-0.537,0.223
			c-0.143,0.142-0.223,0.336-0.223,0.537c0,0.202,0.08,0.395,0.223,0.538C348.603,108.05,348.797,108.13,348.998,108.13z"/>
		<path fill="#0DB670" d="M152.302,3.47c0.471,0,0.931,0.14,1.322,0.401c0.392,0.262,0.697,0.633,0.877,1.068
			c0.18,0.435,0.227,0.913,0.135,1.375c-0.092,0.461-0.318,0.886-0.651,1.218c-0.333,0.333-0.757,0.56-1.219,0.651
			c-0.461,0.092-0.94,0.045-1.375-0.135s-0.806-0.485-1.068-0.876c-0.262-0.392-0.401-0.852-0.401-1.322
			c0-0.631,0.251-1.237,0.697-1.683C151.065,3.721,151.671,3.47,152.302,3.47z"/>
		<path fill="#FFAC64" d="M237.092,3.47c0.344,0,0.68-0.102,0.967-0.293c0.285-0.191,0.508-0.463,0.641-0.781
			c0.132-0.318,0.166-0.668,0.099-1.005c-0.067-0.338-0.233-0.647-0.476-0.891c-0.243-0.243-0.553-0.409-0.891-0.476
			c-0.339-0.067-0.688-0.033-1.006,0.099c-0.318,0.131-0.59,0.354-0.781,0.641c-0.19,0.286-0.293,0.623-0.293,0.967
			c0,0.461,0.184,0.904,0.51,1.23C236.188,3.287,236.63,3.47,237.092,3.47z"/>
		<path fill="#E1555F" d="M378.096,56.967c0.357,0.059,0.725,0.039,1.073-0.059c0.349-0.097,0.673-0.269,0.95-0.503
			c0.275-0.235,0.498-0.526,0.649-0.855c0.152-0.329,0.231-0.688,0.231-1.05s-0.079-0.721-0.231-1.05
			c-0.151-0.329-0.374-0.621-0.649-0.855c-0.277-0.235-0.602-0.407-0.95-0.503c-0.349-0.097-0.716-0.117-1.073-0.059
			c-0.585,0.096-1.117,0.397-1.501,0.849C376.211,53.333,376,53.907,376,54.5s0.211,1.167,0.595,1.619
			C376.979,56.57,377.511,56.871,378.096,56.967z"/>
		<path fill="#666666" d="M246,80c-1.779,0-3.52,0.528-5,1.517c-1.48,0.989-2.634,2.395-3.314,4.039
			c-0.682,1.645-0.859,3.454-0.513,5.2c0.347,1.746,1.204,3.35,2.464,4.608c1.258,1.258,2.861,2.116,4.607,2.463
			s3.556,0.169,5.199-0.512c1.646-0.681,3.051-1.835,4.039-3.315c0.99-1.48,1.518-3.22,1.518-5c0-2.387-0.948-4.676-2.637-6.364
			C250.676,80.948,248.387,80,246,80z M246,94.688c-1.126,0.003-2.227-0.328-3.164-0.951c-0.938-0.624-1.669-1.51-2.102-2.549
			c-0.434-1.039-0.547-2.183-0.33-3.288c0.218-1.104,0.758-2.119,1.553-2.916s1.809-1.34,2.912-1.561s2.248-0.109,3.288,0.321
			c1.04,0.43,1.93,1.159,2.555,2.094c0.626,0.936,0.96,2.036,0.96,3.162c0,1.506-0.597,2.95-1.66,4.016
			C248.948,94.083,247.506,94.684,246,94.688z"/>
		<path fill="none" stroke="#666666" stroke-width="3" stroke-miterlimit="10" d="M202,121c12.533-16.884,42.484-17.777,55,0"/>
		<path fill="#666666" d="M212.984,79c-1.779,0.003-3.518,0.534-4.996,1.524c-1.477,0.991-2.629,2.397-3.307,4.042
			c-0.68,1.645-0.855,3.454-0.507,5.199c0.349,1.745,1.207,3.347,2.468,4.604c1.258,1.257,2.862,2.113,4.607,2.458
			c1.745,0.346,3.555,0.167,5.198-0.515c1.643-0.682,3.048-1.835,4.036-3.315C221.473,91.519,222,89.779,222,88
			c0-1.183-0.232-2.355-0.688-3.448c-0.453-1.093-1.117-2.086-1.955-2.922c-0.836-0.836-1.83-1.499-2.924-1.95
			C215.34,79.229,214.168,78.998,212.984,79z M212.984,93.688c-1.125,0-2.225-0.333-3.159-0.958
			c-0.937-0.625-1.665-1.513-2.095-2.552c-0.432-1.04-0.543-2.183-0.324-3.286c0.22-1.104,0.761-2.117,1.557-2.912
			c0.795-0.795,1.809-1.337,2.912-1.557c1.104-0.22,2.247-0.107,3.286,0.324c1.039,0.43,1.927,1.159,2.552,2.095
			c0.625,0.935,0.959,2.035,0.959,3.16c0.002,0.748-0.145,1.488-0.429,2.179c-0.285,0.691-0.704,1.318-1.231,1.847
			c-0.529,0.528-1.158,0.947-1.849,1.232S213.732,93.689,212.984,93.688z"/>
		<path d="M220.813,153.286V155h-5.676v-1.714H220.813z M215.855,144.336V155h-2.197v-10.664H215.855z M220.074,148.679v1.67h-4.938
			v-1.67H220.074z M220.807,144.336v1.721h-5.67v-1.721H220.807z M224.073,148.804V155h-2.11v-7.925h1.985L224.073,148.804z
			 M226.46,147.024l-0.036,1.955c-0.104-0.014-0.227-0.026-0.374-0.036c-0.141-0.015-0.271-0.022-0.388-0.022
			c-0.299,0-0.557,0.039-0.775,0.117c-0.216,0.073-0.396,0.183-0.543,0.33c-0.142,0.146-0.248,0.324-0.322,0.534
			c-0.068,0.21-0.107,0.45-0.117,0.718l-0.426-0.132c0-0.512,0.053-0.984,0.154-1.413c0.104-0.435,0.252-0.813,0.447-1.136
			c0.199-0.322,0.443-0.571,0.732-0.747c0.289-0.175,0.617-0.263,0.988-0.263c0.117,0,0.237,0.009,0.359,0.029
			C226.282,146.973,226.382,146.995,226.46,147.024z M229.566,148.804V155h-2.109v-7.925h1.984L229.566,148.804z M231.954,147.024
			l-0.037,1.955c-0.103-0.014-0.228-0.026-0.374-0.036c-0.141-0.015-0.271-0.022-0.389-0.022c-0.297,0-0.555,0.039-0.775,0.117
			c-0.215,0.073-0.396,0.183-0.542,0.33c-0.142,0.146-0.249,0.324-0.321,0.534c-0.07,0.21-0.108,0.45-0.119,0.718l-0.424-0.132
			c0-0.512,0.051-0.984,0.153-1.413c0.103-0.435,0.252-0.813,0.447-1.136c0.2-0.322,0.444-0.571,0.733-0.747
			c0.287-0.175,0.616-0.263,0.987-0.263c0.118,0,0.237,0.009,0.358,0.029C231.775,146.973,231.875,146.995,231.954,147.024z
			 M232.393,151.118v-0.154c0-0.581,0.084-1.115,0.25-1.604c0.166-0.493,0.407-0.92,0.725-1.281
			c0.318-0.362,0.708-0.642,1.172-0.843c0.464-0.205,0.996-0.307,1.598-0.307c0.6,0,1.135,0.102,1.604,0.307
			c0.468,0.201,0.861,0.481,1.179,0.843c0.322,0.361,0.565,0.788,0.731,1.281c0.166,0.489,0.25,1.023,0.25,1.604v0.154
			c0,0.576-0.084,1.111-0.25,1.604c-0.166,0.488-0.409,0.916-0.731,1.282c-0.317,0.361-0.708,0.643-1.172,0.842
			c-0.464,0.2-0.996,0.301-1.597,0.301s-1.135-0.101-1.604-0.301c-0.463-0.199-0.856-0.48-1.179-0.842
			c-0.317-0.366-0.559-0.794-0.725-1.282C232.477,152.229,232.393,151.694,232.393,151.118z M234.502,150.964v0.154
			c0,0.332,0.03,0.642,0.088,0.93c0.059,0.288,0.152,0.542,0.279,0.762c0.131,0.215,0.302,0.383,0.512,0.505
			c0.21,0.123,0.467,0.184,0.77,0.184c0.293,0,0.545-0.061,0.754-0.184c0.211-0.122,0.379-0.29,0.506-0.505
			c0.127-0.22,0.22-0.474,0.277-0.762c0.064-0.288,0.097-0.598,0.097-0.93v-0.154c0-0.322-0.032-0.625-0.097-0.908
			c-0.058-0.288-0.152-0.542-0.285-0.762c-0.127-0.224-0.295-0.4-0.506-0.527c-0.209-0.127-0.463-0.19-0.76-0.19
			c-0.299,0-0.553,0.063-0.763,0.19c-0.205,0.127-0.374,0.303-0.505,0.527c-0.127,0.22-0.221,0.474-0.279,0.762
			C234.532,150.339,234.502,150.642,234.502,150.964z M243.307,148.804V155h-2.109v-7.925h1.984L243.307,148.804z M245.693,147.024
			l-0.036,1.955c-0.103-0.014-0.228-0.026-0.373-0.036c-0.142-0.015-0.271-0.022-0.388-0.022c-0.299,0-0.558,0.039-0.777,0.117
			c-0.215,0.073-0.395,0.183-0.542,0.33c-0.142,0.146-0.249,0.324-0.322,0.534c-0.067,0.21-0.108,0.45-0.116,0.718l-0.426-0.132
			c0-0.512,0.051-0.984,0.154-1.413c0.102-0.435,0.251-0.813,0.445-1.136c0.201-0.322,0.445-0.571,0.733-0.747
			c0.288-0.175,0.618-0.263,0.989-0.263c0.117,0,0.236,0.009,0.359,0.029C245.516,146.973,245.616,146.995,245.693,147.024z"/>
		<path fill="#EFC5C7" d="M97.909,95.978c-5.803-5.991-16.307-19.599-16.307-19.599L75.64,55.702c-0.149,0.06,3.031,0.07,3.975,0
			c6.419,0.429,8.308,0.999,12.302,5.372c3.17,3.484,15.264,20.088,19.477,25.669l11.159-14.287
			c2.674-4.063,2.236-8.606,3.628-11.921c1.391-3.314,3.627-4.782,5.425-7.788c1.799-3.005,2.226-4.992,3.697-3.424
			c1.47,1.567-0.229,5.671-0.447,6.609c-0.219,0.938-2.465,3.744,1.291,2.286c3.757-1.458,9.56-8.356,11.06-9.774
			c1.501-1.418,2.286,0.778,1.988,2.506c-0.298,1.727,1.272,5.621,0.685,8.477c-0.616,2.995-1.063,4.423-3.974,7.368
			c-2.703,2.746-9.341,6.1-11.925,9.705c-2.584,3.604-8.128,14.787-11.517,21.526c-4.293,8.566-7.95,11.392-12.799,8.507
			C104.815,103.645,100.065,98.204,97.909,95.978z"/>
		<path fill="#E0E0E0" d="M77.548,55.502c3.285-0.316,6.598,0.139,9.679,1.328c3.488,1.578,5.853,4.992,9.251,9.545
			S108.402,82,108.402,82c-5.085,3.47-8.76,8.661-10.354,14.627L77.279,73.563L77.548,55.502z"/>
		<path fill="#D1B8B9" d="M111.383,86.752c-2.095,2.016-3.488,4.655-3.975,7.528c0,0-1.252-4.144,3.09-8.806L111.383,86.752z"/>
		<path fill="#F5F5F5" d="M57.565,55.432c-2.256,0.549-8.317,1.328-12.312,2.476c-2.981,0.849-5.962,4.523-6.539,7.239
			c-1.988,8.696-0.219,14.167,0.517,21.785c0.735,7.618,0.785,45.627,0.785,45.627c4.203,8.247,36.051,9.924,51.464-1.388
			c0,0-1.888-50.599-1.888-58.477S85.24,55.362,73.216,54.653L57.565,55.432z"/>
		<path fill="#263238" d="M71.179,30.511c-0.012,0.33-0.12,0.648-0.311,0.916s-0.456,0.474-0.762,0.591
			c-0.307,0.118-0.641,0.142-0.961,0.07c-0.32-0.072-0.612-0.238-0.839-0.476s-0.379-0.537-0.438-0.862
			c-0.059-0.324-0.021-0.658,0.108-0.961c0.129-0.303,0.345-0.561,0.619-0.741s0.596-0.276,0.924-0.274
			c0.449,0.01,0.875,0.199,1.187,0.524S71.188,30.061,71.179,30.511z"/>
		<path fill="#263238" d="M69.52,24.86l-3.438,1.907c-0.245-0.472-0.299-1.021-0.151-1.533c0.148-0.512,0.487-0.946,0.947-1.213
			c0.227-0.125,0.477-0.203,0.735-0.228s0.518,0.002,0.765,0.08c0.247,0.079,0.476,0.206,0.672,0.376
			C69.245,24.419,69.405,24.627,69.52,24.86z"/>
		<path fill="#F28F8F" d="M70.762,40.715l3.855,1.448c-0.079,0.263-0.211,0.506-0.388,0.715c-0.177,0.209-0.395,0.38-0.64,0.5
			c-0.245,0.121-0.513,0.189-0.786,0.202c-0.273,0.012-0.545-0.032-0.8-0.13c-0.52-0.206-0.939-0.606-1.17-1.116
			C70.602,41.825,70.576,41.244,70.762,40.715z"/>
		<path fill="#263238" d="M84.453,26.248l-3.13-2.426c0.147-0.213,0.335-0.394,0.554-0.53c0.219-0.137,0.463-0.229,0.718-0.268
			c0.254-0.039,0.515-0.026,0.764,0.039s0.483,0.181,0.687,0.339c0.418,0.332,0.693,0.812,0.77,1.341
			C84.891,25.273,84.761,25.812,84.453,26.248z"/>
		<path fill="#263238" d="M83.75,30.512c-0.012,0.317-0.116,0.624-0.3,0.882c-0.184,0.258-0.439,0.456-0.734,0.569
			s-0.617,0.137-0.925,0.068c-0.308-0.069-0.59-0.228-0.809-0.456c-0.219-0.228-0.367-0.517-0.424-0.829s-0.022-0.634,0.101-0.926
			c0.124-0.292,0.33-0.541,0.593-0.716s0.572-0.269,0.888-0.269c0.215,0.004,0.428,0.051,0.625,0.137s0.376,0.211,0.525,0.367
			s0.267,0.339,0.346,0.541C83.715,30.08,83.754,30.295,83.75,30.512z"/>
		<path fill="#F28F8F" d="M75.022,27.726l0.557,10.164l5.276-1.807L75.022,27.726z"/>
		<path fill="#FA8617" d="M71.156,28.175l-23.66-1.757c-4.581,3.484-13.087,10.813-13.077,12.839v1.408
			c0.005,0.063,0.021,0.124,0.05,0.18c0.834,1.597,3.855,2.585,8.556,2.666c5.575,0.09,14.23-0.419,16.505-2.386
			c3.418-2.995,11.626-11.611,11.626-11.611l-1.192-0.09L71.156,28.175z"/>
		<path opacity="0.2" fill="#FA8617" enable-background="new    " d="M71.156,28.175l-23.66-1.757
			c-4.581,3.484-13.087,10.813-13.077,12.839v1.408c0.005,0.063,0.021,0.124,0.05,0.18c0.834,1.597,3.855,2.585,8.556,2.666
			c5.575,0.09,14.23-0.419,16.505-2.386c3.418-2.995,11.626-11.611,11.626-11.611l-1.192-0.09L71.156,28.175z"/>
		<path fill="#D06B0A" d="M47.496,27.756c-4.78,3.644-13.912,11.482-13.027,13.089c0.884,1.607,3.855,2.585,8.556,2.666
			c5.575,0.09,14.23-0.419,16.505-2.386c3.418-2.995,11.626-11.611,11.626-11.611L47.496,27.756z"/>
		<path opacity="0.4" fill="#D06B0A" enable-background="new    " d="M47.496,27.756c-4.78,3.644-13.912,11.482-13.027,13.089
			c0.884,1.607,3.855,2.585,8.556,2.666c5.575,0.09,14.23-0.419,16.505-2.386c3.418-2.995,11.626-11.611,11.626-11.611
			L47.496,27.756z"/>
		<path fill="#D06B0A" d="M47.497,27.756c-0.079,0.689,2.335,2.127,2.335,2.127l-0.676-4.174L47.497,27.756z"/>
		<path opacity="0.3" fill="#D06B0A" enable-background="new    " d="M47.497,27.756c-0.079,0.689,2.335,2.127,2.335,2.127
			l-0.676-4.174L47.497,27.756z"/>
		<path d="M53.747,13.868c0,0-3.697,0.519-5.058,3.314c-1.172,2.436-0.755,8.317,0.825,14.727c0.895,4.125,2.227,8.142,3.975,11.981
			c0.615,1.095,1.625,1.91,2.822,2.276l-0.189-7.608l-0.278-5.292c0,0,3.389-4.643,3.756-8.447c0.487-4.902-0.546-6.899-0.546-6.899
			L53.747,13.868z"/>
		<path d="M59.71,21.226c0.013,3.764,1.513,7.368,4.17,10.021c2.657,2.653,6.254,4.137,10,4.126c7.801,0,13.654-6.459,13.624-14.297
			c-0.03-7.838-5.913-14.118-13.713-14.088c-3.746,0.013-7.333,1.521-9.974,4.19C61.176,13.849,59.699,17.462,59.71,21.226z"/>
		<path fill="#EFC5C7" d="M56.023,32.468c-1.272,1.108-2.306-1.757-3.378-2.875c-1.073-1.118-4.562-2.636-6.28,1.048
			c-1.719,3.685,1.52,8.986,4.203,10.054c0.804,0.319,1.692,0.355,2.519,0.101c0.827-0.254,1.543-0.782,2.032-1.499v16.843
			c3.975,7.278,11.11,7.059,14.906,6.64s4.621-4.363,1.848-7.558v-5.211c2.106,0.331,4.241,0.435,6.37,0.309
			c3.468-0.549,5.287-3.185,6.32-6.989c1.68-6.07,2.345-16.274,0-28.065c-3.885-2.995-17.37-2.526-25.528,2.676
			C59.621,28.425,57.285,31.36,56.023,32.468z"/>
		<path d="M83.103,10.114c-1.609-1.724-3.563-3.084-5.734-3.994c-1.744-0.75-3.618-1.151-5.515-1.178
			c-2.464,0-4.969-0.37-7.383-0.29c-4.273,0.14-9.44,1.887-11.368,6.06c-0.884,1.917-0.994,3.934,0.716,5.252
			c1.557,1.064,3.34,1.749,5.207,1.997c3.17,0.549,6.31,1.248,9.5,1.677c3.409,0.58,6.895,0.529,10.285-0.149
			c1.593-0.362,3.108-1.012,4.472-1.917c0.697-0.47,1.344-1.012,1.928-1.618c0.229-0.229,0.834-0.709,0.904-0.999
			c0.069-0.29-0.338-0.998-0.507-1.258C84.941,12.393,84.098,11.187,83.103,10.114z"/>
		<path fill="#D1B8B9" d="M71.846,50.05c0,0-7.761-1.538-10.474-2.995c-1.595-0.831-2.904-2.125-3.756-3.714
			c0.415,1.589,1.141,3.079,2.136,4.383c1.987,2.536,12.104,4.383,12.104,4.383L71.846,50.05z"/>
		<path d="M69.746,29.843c-0.012,0.323-0.118,0.635-0.305,0.898c-0.187,0.263-0.447,0.465-0.748,0.581
			c-0.3,0.115-0.628,0.14-0.942,0.069c-0.314-0.07-0.601-0.231-0.824-0.464c-0.223-0.233-0.374-0.526-0.432-0.844
			s-0.023-0.646,0.103-0.943c0.126-0.297,0.336-0.551,0.604-0.73c0.269-0.178,0.583-0.273,0.905-0.274
			c0.219,0.004,0.436,0.051,0.636,0.139c0.201,0.088,0.383,0.215,0.535,0.373c0.152,0.159,0.272,0.346,0.353,0.551
			C69.71,29.403,69.75,29.622,69.746,29.843z"/>
		<path fill="#D99FA2" d="M73.484,42.482c-0.012,0.323-0.118,0.635-0.305,0.898c-0.188,0.263-0.447,0.465-0.748,0.58
			c-0.301,0.116-0.628,0.14-0.942,0.07c-0.314-0.07-0.601-0.232-0.824-0.464c-0.224-0.232-0.374-0.526-0.432-0.844
			c-0.059-0.318-0.023-0.646,0.103-0.944c0.126-0.297,0.336-0.551,0.604-0.729c0.268-0.179,0.583-0.274,0.904-0.274
			c0.22,0.003,0.437,0.049,0.638,0.137s0.384,0.214,0.537,0.373s0.272,0.346,0.352,0.552C73.451,42.042,73.489,42.262,73.484,42.482
			z"/>
		<path d="M67.512,23.482l-3.15,2.476c-0.317-0.43-0.461-0.964-0.402-1.496c0.059-0.531,0.316-1.021,0.72-1.37
			c0.209-0.166,0.45-0.288,0.708-0.358c0.258-0.07,0.526-0.087,0.791-0.051c0.265,0.037,0.519,0.126,0.748,0.263
			C67.155,23.084,67.354,23.267,67.512,23.482z"/>
		<path d="M84.244,26.009l-3.041-2.656c0.167-0.203,0.371-0.371,0.602-0.494c0.231-0.123,0.484-0.2,0.744-0.225
			c0.26-0.025,0.523,0.001,0.773,0.079s0.482,0.203,0.684,0.371c0.404,0.365,0.654,0.871,0.698,1.415
			C84.748,25.042,84.583,25.583,84.244,26.009z"/>
		<path d="M83.211,29.354c-0.012,0.323-0.118,0.635-0.305,0.898c-0.187,0.263-0.447,0.465-0.748,0.581
			c-0.3,0.115-0.628,0.14-0.942,0.069s-0.601-0.231-0.824-0.464c-0.223-0.233-0.374-0.526-0.432-0.844s-0.023-0.646,0.103-0.943
			c0.125-0.297,0.335-0.551,0.604-0.73c0.268-0.178,0.583-0.274,0.905-0.274c0.219,0.004,0.436,0.051,0.636,0.139
			c0.201,0.088,0.383,0.215,0.535,0.373c0.152,0.159,0.272,0.346,0.353,0.551C83.175,28.914,83.215,29.133,83.211,29.354z"/>
		<path fill="#D99FA2" d="M74.22,26.538l0.626,11.662l5.505-1.458L74.22,26.538z"/>
		<path fill="#FA8617" d="M46.485,21.975c0.043,2.005,0.378,3.993,0.994,5.9c0.397-0.62,0.886-1.176,1.451-1.647
			c3.161-2.662,6.768-4.737,10.653-6.13c8.943-3.474,19.377-3.993,27.714-1.058c-0.144-1.707-0.518-3.387-1.113-4.992
			C83.143,6.06,76.992,1.917,67.174,2.945C55.677,4.124,46.177,10.533,46.485,21.975z"/>
		<path d="M67.562,14.937c2.673-0.909,9.49-1.438,11.477-0.809c0.923-0.763,1.729-1.658,2.395-2.656
			c0.934-1.487,0.616-3.354-0.258-3.744c-0.875-0.389-0.934,0.779-4.323,2.466c0.447-1.091,0.544-2.295,0.278-3.444
			c-0.557-1.378-1.719,1.098-4.243,2.706S67.88,11.861,67.562,14.937z"/>
		<path fill="#1E1E1E" d="M32.681,48.772C30.455,46.936,16.96,63,22.605,67.623c5.644,4.623,12.541-6.989,11.606-12.72
			C33.277,49.172,32.681,48.772,32.681,48.772z"/>
		<path fill="#EFC5C7" d="M21.833,39.747c3.378-4.163,12.352-14.167,14.339-15.974c1.987-1.808,3.18-1.568,4.412-1.997
			c1.38-0.498,2.638-1.288,3.687-2.316c0.635-0.662,1.229-1.362,1.779-2.097c1.929-2.394,4.187-4.498,6.708-6.25
			c2.663-1.847,5.584-3.215,8.308-4.992c1.629-1.048,3.398-2.815,1.55-4.623c-0.56-0.521-1.245-0.889-1.987-1.068
			c-4.621-1.218-8.754,0.22-13.365,1.198c-2.006,0.42-3.977,0.998-5.893,1.727c-0.941,0.326-1.828,0.791-2.633,1.378
			c-1.561,1.34-3.007,2.81-4.323,4.393c-3.17,3.904-5.853,5.112-8.943,7.818C21.822,20.108,5.476,31.72,2.028,35.174
			c-2.862,2.865-1.988,5.231-1.61,6.05c2.037,4.702,4.462,6.45,7.324,9.425c0.944,0.999,1.898,1.997,2.852,2.995
			c3.716,3.784,7.453,7.349,11.328,10.982c4.134,3.874,5.823,5.731,9.51,9.465c2.31,2.413,4.192,5.206,5.564,8.257
			c6.668,1.527,11.219-12.65,8.834-20.867c-0.733-2.069-2.087-3.858-3.875-5.122C35.158,50.909,21.833,39.747,21.833,39.747z"/>
		<path fill="#D1B8B9" d="M21.829,39.747c-2.253,2.554-5.188,4.404-8.457,5.332c0,0,4.243,1.278,10.334-3.764L21.829,39.747z"/>
		<path fill="#E0E0E0" d="M45.253,57.908c-1.521-1.198-5.217-3.754-12.57-9.135c0,0,0.994,2.556-1.203,8.686
			c-2.196,6.13-6.379,9.865-8.874,10.164c0,0,4.084,3.654,7.8,7.728c3.717,4.074,6.807,6.989,8.824,11.582
			c0,0,5.734-1.118,7.572-10.643C48.105,69.599,48.035,61.662,45.253,57.908z"/>
		<path fill="#263238" d="M58.101,301.432c0.358,0.379,0.129,3.135-0.318,3.764c-0.447,0.629-2.981,2.725-7.592,2.805
			c-4.422,0.08-8.327-0.729-10.832-2.525c-2.504-1.798-3.647-3.675-3.756-6.211c-0.109-2.535,0.298-4.992-0.795-6.988
			c-0.994-1.848-2.385-3.674-2.723-4.672c-0.388-1.787-0.388-3.637,0-5.422L58.101,301.432z"/>
		<path fill="#27DEBF" d="M47.37,280.045c0.013,0.957,0.143,1.909,0.387,2.835c0.569,1.988,1.376,3.899,2.405,5.69
			c0.5,0.94,1.065,1.845,1.689,2.707c1.252,1.666,2.842,3.064,4.164,4.662c1.428,1.522,2.288,3.494,2.435,5.58
			c0,3.485-3.816,4.463-6.728,4.823c-3.155,0.376-6.354,0.035-9.36-0.999c-1.583-0.505-2.988-1.459-4.046-2.746
			s-1.723-2.854-1.917-4.512c-0.109-0.999,0-1.997-0.06-2.936c-0.265-2.236-1.074-4.373-2.355-6.221
			c-0.749-1.065-1.382-2.211-1.888-3.414c-0.785-2.197,0.06-4.582,0.755-6.688c0.597-1.828,1.073-3.994,1.709-3.813
			c0,0.379,0,1.188,0,1.188c0.199,0.419,0.656,0.719,0.765,1.188c0.104,0.5,0.253,0.987,0.447,1.457
			c0.283,0.733,0.787,1.358,1.441,1.788c0.119-1.308,0.229-2.616,0.348-3.924c-0.014-0.41,0.112-0.812,0.358-1.138
			c0.318-0.268,0.718-0.415,1.132-0.42c2.449-0.451,4.952-0.525,7.423-0.219c0.191,0.006,0.378,0.051,0.549,0.137
			c0.171,0.084,0.323,0.203,0.444,0.352c0.132,0.28,0.17,0.596,0.109,0.898C47.444,277.557,47.375,278.8,47.37,280.045z"/>
		<path d="M47.37,280.045c0.013,0.957,0.143,1.909,0.387,2.835c0.569,1.988,1.376,3.899,2.405,5.69
			c0.5,0.94,1.065,1.845,1.689,2.707c1.252,1.666,2.842,3.064,4.164,4.662c1.428,1.522,2.288,3.494,2.435,5.58
			c0,3.485-3.816,4.463-6.728,4.823c-3.155,0.376-6.354,0.035-9.36-0.999c-1.583-0.505-2.988-1.459-4.046-2.746
			s-1.723-2.854-1.917-4.512c-0.109-0.999,0-1.997-0.06-2.936c-0.265-2.236-1.074-4.373-2.355-6.221
			c-0.749-1.065-1.382-2.211-1.888-3.414c-0.785-2.197,0.06-4.582,0.755-6.688c0.597-1.828,1.073-3.994,1.709-3.813
			c0,0.379,0,1.188,0,1.188c0.199,0.419,0.656,0.719,0.765,1.188c0.104,0.5,0.253,0.987,0.447,1.457
			c0.283,0.733,0.787,1.358,1.441,1.788c0.119-1.308,0.229-2.616,0.348-3.924c-0.014-0.41,0.112-0.812,0.358-1.138
			c0.318-0.268,0.718-0.415,1.132-0.42c2.449-0.451,4.952-0.525,7.423-0.219c0.191,0.006,0.378,0.051,0.549,0.137
			c0.171,0.084,0.323,0.203,0.444,0.352c0.132,0.28,0.17,0.596,0.109,0.898C47.444,277.557,47.375,278.8,47.37,280.045z"/>
		<path fill="#FA8617" d="M50.59,289.33c-1.242-0.999-4.124-1.208-5.704-1.129c-1.611,0.057-3.182,0.517-4.571,1.338
			c-0.202,0.138-0.448,0.195-0.689,0.162c-0.242-0.033-0.463-0.155-0.622-0.342c-0.09-0.105-0.158-0.229-0.198-0.361
			c-0.041-0.134-0.053-0.273-0.036-0.412c0.017-0.138,0.062-0.271,0.133-0.391s0.167-0.223,0.28-0.303
			c1.527-1.012,3.308-1.569,5.137-1.607c3.896-0.061,4.969,0.668,4.969,0.668S51.027,288.191,50.59,289.33z"/>
		<path fill="#FA8617" d="M53.352,293.044c-1.56-1.049-4.74-1.079-6.33-0.999c-1.582,0.078-3.117,0.571-4.452,1.428
			c-0.201,0.139-0.446,0.198-0.688,0.166c-0.242-0.031-0.464-0.15-0.624-0.336c-0.092-0.104-0.162-0.229-0.203-0.363
			s-0.054-0.275-0.037-0.416c0.017-0.139,0.063-0.272,0.135-0.394c0.072-0.12,0.168-0.224,0.283-0.304
			c1.557-1.063,3.377-1.667,5.257-1.748c3.895-0.059,4.869,0.789,4.869,0.789c0.442,0.203,0.833,0.505,1.143,0.882
			C53.016,292.126,53.236,292.568,53.352,293.044z"/>
		<path fill="#FA8617" d="M42.977,282.471c1.647-0.199,3.318,0.034,4.849,0.678c0.666,0.42,1.063,1.528,0.606,1.789
			c-1.34-0.633-2.815-0.922-4.293-0.84c-1.46,0.069-2.898,0.387-4.253,0.938c-0.376,0.144-0.744,0.308-1.103,0.489
			c-0.113,0.055-0.235,0.086-0.359,0.093c-0.125,0.005-0.25-0.015-0.367-0.058c-0.117-0.045-0.224-0.111-0.314-0.199
			c-0.09-0.086-0.163-0.189-0.212-0.305c-0.082-0.201-0.086-0.424-0.012-0.627c0.073-0.203,0.22-0.371,0.41-0.472
			C39.487,283.107,41.208,282.6,42.977,282.471z"/>
		<path fill="#263238" d="M111.681,287.493c0.279,1.03,0.158,2.13-0.338,3.075c-0.477,0.877-5.326,3.295-11.636,2.516
			c-4.685-0.583-9.129-2.417-12.869-5.313c-2.335-1.736-4.829-2.176-7.95-2.525c-3.12-0.35-5.485-1.447-6.091-2.995
			c-0.606-1.548,0.318-3.994,0.318-3.994L111.681,287.493z"/>
		<path fill="#27DEBF" d="M87.068,267.305c0.569-0.123,1.13-0.283,1.679-0.479c0.299-0.129,0.632-0.15,0.944-0.061
			c0.181,0.121,0.331,0.284,0.438,0.476c0.107,0.19,0.168,0.403,0.178,0.623c0.1,0.948,0.282,1.888,0.546,2.805
			c0.428,0.767,0.998,1.445,1.679,1.997c1.503,1.359,3.146,2.555,4.899,3.564c1.988,1.229,3.975,2.207,6.082,3.295
			c2.106,1.089,4.968,1.856,6.638,3.104c2.395,1.818,2.494,6.071-0.428,7.588c-2.524,1.318-9.042,2.526-15.69,0.24
			c-3.627-1.237-7.492-5.411-12.302-6.05c-3.051-0.41-7.125-0.889-8.943-3.335c-0.666-1.078-0.08-4.084,0.467-7.648
			c0.487-3.194,0.934-8.187,1.987-7.856c0,0,0.378,1.178,0.447,1.307c0.253,0.4,0.536,0.781,0.845,1.139
			c0.273,0.288,0.562,0.562,0.864,0.818c0.338,0.395,0.7,0.768,1.083,1.119c0.497,0.428,1.116,0.688,1.769,0.738
			c0.307,0.019,0.612-0.047,0.885-0.189c0.526-0.3,0.596-0.999,0.994-1.418c0.488-0.486,1.069-0.867,1.709-1.118
			c0.891-0.325,1.826-0.514,2.772-0.56L87.068,267.305z"/>
		<path d="M87.068,267.305c0.569-0.123,1.13-0.283,1.679-0.479c0.299-0.129,0.632-0.15,0.944-0.061
			c0.181,0.121,0.331,0.284,0.438,0.476c0.107,0.19,0.168,0.403,0.178,0.623c0.1,0.948,0.282,1.888,0.546,2.805
			c0.428,0.767,0.998,1.445,1.679,1.997c1.503,1.359,3.146,2.555,4.899,3.564c1.988,1.229,3.975,2.207,6.082,3.295
			c2.106,1.089,4.968,1.856,6.638,3.104c2.395,1.818,2.494,6.071-0.428,7.588c-2.524,1.318-9.042,2.526-15.69,0.24
			c-3.627-1.237-7.492-5.411-12.302-6.05c-3.051-0.41-7.125-0.889-8.943-3.335c-0.666-1.078-0.08-4.084,0.467-7.648
			c0.487-3.194,0.934-8.187,1.987-7.856c0,0,0.378,1.178,0.447,1.307c0.253,0.4,0.536,0.781,0.845,1.139
			c0.273,0.288,0.562,0.562,0.864,0.818c0.338,0.395,0.7,0.768,1.083,1.119c0.497,0.428,1.116,0.688,1.769,0.738
			c0.307,0.019,0.612-0.047,0.885-0.189c0.526-0.3,0.596-0.999,0.994-1.418c0.488-0.486,1.069-0.867,1.709-1.118
			c0.891-0.325,1.826-0.514,2.772-0.56L87.068,267.305z"/>
		<path fill="#FA8617" d="M94.66,274.374c-0.191-0.438-0.489-0.822-0.866-1.115s-0.82-0.485-1.291-0.563
			c-1.381-0.338-3.905,0.56-5.505,1.748c-0.152,0.109-0.276,0.256-0.359,0.425s-0.124,0.356-0.118,0.545s0.058,0.373,0.151,0.536
			c0.094,0.164,0.226,0.301,0.385,0.4c0.199,0.127,0.432,0.189,0.667,0.176c0.235-0.012,0.46-0.098,0.645-0.244
			C90.14,274.848,92.396,274.162,94.66,274.374z"/>
		<path fill="#FA8617" d="M98.852,277.039c-0.281-0.448-0.665-0.822-1.12-1.09c-0.455-0.268-0.967-0.422-1.494-0.447
			c0,0-3.647-0.09-6.022,1.896c-0.145,0.108-0.261,0.252-0.339,0.414c-0.078,0.164-0.116,0.344-0.11,0.525s0.055,0.357,0.144,0.516
			s0.214,0.293,0.365,0.393c0.191,0.122,0.417,0.181,0.644,0.166c0.227-0.014,0.443-0.1,0.618-0.246
			c0.984-0.88,2.152-1.527,3.417-1.895C96.221,276.902,97.552,276.824,98.852,277.039z"/>
		<path fill="#FA8617" d="M103.512,279.495c-0.326-0.418-0.738-0.761-1.208-1.003c-0.47-0.243-0.987-0.381-1.515-0.404
			c-2.081,0.014-4.103,0.691-5.773,1.938c-0.145,0.107-0.261,0.25-0.339,0.414c-0.078,0.162-0.116,0.343-0.11,0.524
			c0.006,0.181,0.055,0.358,0.144,0.517s0.214,0.291,0.365,0.392c0.193,0.117,0.418,0.172,0.643,0.157
			c0.226-0.014,0.441-0.098,0.619-0.237c0.934-0.92,2.069-1.606,3.315-2.005S102.22,279.288,103.512,279.495z"/>
		<path fill="#353535" d="M93.328,129.474c0.168,14.587-0.765,63.79-1.083,71.127c-0.278,6.43-1.391,69.709-1.391,69.709
			c-7.333,2.285-17.37-0.08-17.37-0.08s-5.107-39.467-5.436-46.457c-0.185-6.433,0.148-12.869,0.994-19.248l-3.756-40.267
			c0,0-4.104,30.152-6.082,43.351c-2.266,15.127-10.742,73.055-10.742,73.055c-6.747,2.635-16.197-1.109-16.197-1.109
			s0.487-45.068,1.163-60.384c0.477-10.573,3.408-15.715,3.727-18.649c0,0,1.46-54.914,1.62-68.831
			c0.099-9.326,1.103-19.569,1.103-19.569s10.136,0.818,11.03-2.147c0.894-2.965,0-31.47-0.378-37.011
			c0,0,21.305-4.762,39.749-1.248C90.267,71.676,93.148,114.887,93.328,129.474z"/>
		<path fill="#1E1E1E" d="M50.46,117.942c0.109,9.695-1.59,15.715-4.154,17.812c-2.564,2.097-7.612,1.937-7.612,1.937v-1.448
			c0,0,4.77,0.709,6.906-1.537C47.737,132.459,49.685,129.224,50.46,117.942z"/>
		<path fill="#1E1E1E" d="M83.251,82c0,0-11.06,0-21.524,0.719c0,0-0.069,8.117,0.835,11.073c0.904,2.955,7.87,7.378,10.762,7.368
			c2.504,0,9.47-4.992,10.017-7.608S83.251,82,83.251,82z"/>
		<path fill="#1E1E1E" d="M65.305,164.219l0.994-6.229c2.981-0.45,10.663-5.242,15.194-9.435c-3.223,4.899-7.585,8.936-12.709,11.76
			l-0.318,39.737L65.305,164.219z"/>
		<path fill="#353535" d="M45.25,57.908c1.988-0.509,3.11-0.09,4.114,2.436c1.003,2.526,2.156,10.733,2.544,18.411
			c0,0,4.601,0.839,7.791-0.52c0,0-0.388-10.083-1.461-15.286c-0.309-1.535-0.81-3.024-1.49-4.433
			c-0.441-0.908-1.165-1.646-2.062-2.102c-0.897-0.456-1.917-0.604-2.907-0.424l-7.274,1.338L45.25,57.908z"/>
		<path fill="#FA8617" d="M53.957,75.36c0,0.359,0.106,0.71,0.305,1.009s0.481,0.532,0.812,0.669
			c0.33,0.137,0.694,0.173,1.045,0.103c0.351-0.07,0.673-0.243,0.926-0.497c0.253-0.254,0.425-0.578,0.495-0.93
			c0.07-0.353,0.034-0.718-0.103-1.05s-0.369-0.616-0.666-0.815s-0.647-0.306-1.005-0.306c-0.479,0-0.939,0.191-1.279,0.532
			S53.957,74.878,53.957,75.36z"/>
		<path fill="#353535" d="M71.874,55.222c1.589,0.061,3.128,0.574,4.438,1.481c1.309,0.907,2.334,2.169,2.956,3.64
			c1.5,3.834,1.51,12.34,1.6,16.564c2.301,0.88,4.844,0.88,7.145,0c0,0,0-13.389-2.275-17.822c-2.276-4.433-6.658-4.703-8.943-4.872
			c-1.632-0.097-3.268-0.097-4.899,0L71.874,55.222z"/>
		<path fill="#FA8617" d="M82.438,73.942c0,0.359,0.106,0.711,0.305,1.01c0.199,0.298,0.481,0.531,0.812,0.669
			c0.33,0.138,0.694,0.174,1.045,0.104c0.351-0.07,0.673-0.243,0.926-0.498c0.253-0.254,0.425-0.578,0.495-0.93
			s0.034-0.718-0.103-1.05s-0.369-0.616-0.666-0.815s-0.647-0.307-1.005-0.307c-0.479,0-0.939,0.192-1.279,0.533
			C82.628,72.998,82.438,73.46,82.438,73.942z"/>
	</g>
</g>
</svg>
