<svg xmlns="http://www.w3.org/2000/svg" width="47" height="47" viewBox="0 0 47 47">
  <g id="Group_2078" data-name="Group 2078" transform="translate(-425 -1728)">
    <rect id="Rectangle_424" data-name="Rectangle 424" width="47" height="47" transform="translate(425 1728)" fill="#0082f9"/>
    <g id="google-plus" transform="translate(436 1656.481)">
      <path id="Path_1524" data-name="Path 1524" d="M14.26,98.2h6.35a8.071,8.071,0,1,1-2.191-8.654.875.875,0,0,0,1.19,0l2.332-2.195a.872.872,0,0,0,0-1.267,12.956,12.956,0,0,0-8.681-3.559A13,13,0,1,0,25.984,96.251c.01-.086.017-2.984.017-2.984H14.26a.871.871,0,0,0-.871.871V97.33A.871.871,0,0,0,14.26,98.2Z" transform="translate(0)" fill="#fff"/>
    </g>
  </g>
</svg>
