<svg width="53" height="50" viewBox="0 0 53 50" fill="none" xmlns="http://www.w3.org/2000/svg">
<g clip-path="url(#clip0_488_18)">
<path d="M48.4583 42.7148L42.6728 36.8848L41.8768 37.6855L40.2848 36.084C42.3195 33.3789 43.7532 30.1953 44.4007 26.7334H37.2261C35.405 33.248 29.4574 38.0273 22.3945 38.0273C13.8813 38.0273 6.98918 31.0938 6.98918 22.5293C6.98918 13.9648 13.891 7.03125 22.3945 7.03125C27.5674 7.03125 32.1415 9.59473 34.9352 13.5254H42.9339C39.483 5.56445 31.5862 0 22.3945 0C10.0178 0 0 10.0879 0 22.5293C0 34.9707 10.0275 45.0586 22.3945 45.0586C27.4616 45.0586 32.1308 43.3691 35.8778 40.5176L37.4697 42.1191L36.6738 42.9199L42.4592 48.75C43.2844 49.5801 44.3716 50 45.4588 50C46.546 50 47.6332 49.5801 48.4583 48.75C50.1182 47.0801 50.1182 44.3848 48.4583 42.7148Z" fill="#1DA69A"/>
<path d="M49.8771 20.4961H48.9045V18.7939H45.0983V20.4961H43.45V17.2949H39.6438V15.3809H35.8376V20.4971L31.5616 20.502C30.7899 14.291 26.7624 9.56836 21.9098 9.56836C16.497 9.56836 12.1152 15.4443 12.1094 22.6826C12.1045 29.9199 16.4757 35.8066 21.8942 35.8018C26.741 35.7969 30.7802 31.0742 31.5568 24.8789H49.8888C51.0837 24.8789 52.0506 23.9053 52.0564 22.6982C52.0448 21.4853 51.0721 20.5068 49.8771 20.4961ZM21.8826 31.3877C18.8646 31.3926 16.4271 27.4951 16.4271 22.6875C16.4223 17.8857 18.8695 13.9873 21.8874 13.9932C24.9054 13.9883 27.3429 17.8857 27.3429 22.6934C27.338 27.4941 24.8957 31.3975 21.8826 31.3877Z" fill="#1DA69A"/>
</g>
<defs>
<clipPath id="clip0_488_18">
<rect width="52.0548" height="50" fill="white"/>
</clipPath>
</defs>
</svg>
