<?xml version="1.0" encoding="utf-8"?>
<!-- Generator: Adobe Illustrator 26.0.0, SVG Export Plug-In . SVG Version: 6.00 Build 0)  -->
<svg version="1.1" id="Layer_1" xmlns="http://www.w3.org/2000/svg" xmlns:xlink="http://www.w3.org/1999/xlink" x="0px" y="0px"
	 viewBox="0 0 459 458" style="enable-background:new 0 0 459 458;" xml:space="preserve">
<style type="text/css">
	.st0{fill:url(#SVGID_1_);}
	.st1{fill:url(#SVGID_00000036253800810150477770000006380211437485566898_);}
	.st2{fill:url(#SVGID_00000148621997293199486020000011610086236746912660_);}
	.st3{opacity:0.31;}
	.st4{fill:#D9DADA;}
	.st5{fill:#E1E2FE;}
	.st6{fill:#1DA69A;}
	.st7{opacity:0.58;}
	.st8{opacity:0.31;fill:#1DA69A;enable-background:new    ;}
	.st9{opacity:0.58;fill:#1DA69A;enable-background:new    ;}
	.st10{fill:#FFFFFF;}
	.st11{fill:#FFFFFF;stroke:#E6E7E7;stroke-width:2;}
	.st12{fill:#FFFFFF;stroke:#E6E7E7;}
	.st13{fill:#929497;}
	.st14{fill:#106EF9;}
	.st15{fill:#00ADEE;}
	.st16{fill:#808184;}
	.st17{fill:#A6A8AB;}
</style>
<g>
	
		<radialGradient id="SVGID_1_" cx="-25.8231" cy="485.9525" r="1" gradientTransform="matrix(173.891 100.396 100.2365 -173.6147 -43998.2422 87189.2891)" gradientUnits="userSpaceOnUse">
		<stop  offset="0" style="stop-color:#074F44"/>
		<stop  offset="1" style="stop-color:#0A776A"/>
	</radialGradient>
	<path class="st0" d="M377.6,221.4c0,0-4.6-16.3-23.4-99.7C335.5,38.2,248,60.3,226.1,67.3c-21.9,7-63.1,20.3-124.6,39.2
		C40,125.5,5.7,155.3,0.6,190.9c-5,35.7,29.4,73.7,76.7,86.9c51.8,14.5,94.6,37,105,99.9c13.1,79.4,101.1,109.5,165.1,45.9
		S388.7,272.3,377.6,221.4z"/>
	
		<radialGradient id="SVGID_00000070810384696682256460000012465167559910097540_" cx="-25.7975" cy="485.9462" r="0.9994" gradientTransform="matrix(151.9216 87.712 88.4485 -153.1973 -38881.0664 76951.4922)" gradientUnits="userSpaceOnUse">
		<stop  offset="0" style="stop-color:#074F44"/>
		<stop  offset="1" style="stop-color:#1DA69A"/>
	</radialGradient>
	<path style="fill:url(#SVGID_00000070810384696682256460000012465167559910097540_);" d="M367.8,283.6c12.8-54.3-17-100.4-62-108.8
		c-28.7-5.3-60.8-19.6-89.6-75.6C185.2,39.1,104.1-3,52.3,87.4c-66,115.1-38,187.4-18.3,225c42.2,80.3,147.6,112.4,210.3,92.1
		C305.8,384.6,354.6,339.6,367.8,283.6z"/>
	
		<radialGradient id="SVGID_00000171691798134813422410000014778497482989567649_" cx="-25.8099" cy="485.9485" r="1" gradientTransform="matrix(161.8238 93.429 92.357 -159.967 -40480.0039 80352.0859)" gradientUnits="userSpaceOnUse">
		<stop  offset="0" style="stop-color:#074F44"/>
		<stop  offset="1" style="stop-color:#1DA69A"/>
	</radialGradient>
	<path style="fill:url(#SVGID_00000171691798134813422410000014778497482989567649_);" d="M457.5,164c-2.5-30.1-35.5-62.6-89.9-55
		c-61.1,8.6-130-9.4-188.1-31.6C119.7,54.7,70.5,80,55.3,104.6c-16.6,27-13,74.7,32,156.4s86.5,121.1,130.9,139.6
		s85.5,9.7,122.4-23.1c25.8-23,40.2-60,64.3-106.8C434.9,212.3,461.1,207.6,457.5,164z"/>
	<g class="st3">
		<path class="st4" d="M372.3,64.8c0.1-7.3-5.6-13.4-12.8-13.6c-7.2-0.1-13.1,5.7-13.3,13s5.6,13.4,12.8,13.6
			C366.2,78,372.2,72.2,372.3,64.8z"/>
	</g>
	<g class="st3">
		<path class="st4" d="M53,34.2c0.1,1.3,0.6,2.6,1.4,3.6c0.8,1,1.9,1.8,3.2,2.2c1.3,0.4,2.6,0.5,3.9,0.1c1.3-0.3,2.4-1.1,3.3-2
			c0.9-1,1.4-2.2,1.6-3.5c0.2-1.3,0-2.6-0.6-3.8c-0.6-1.2-1.5-2.2-2.6-2.9c-1.1-0.7-2.4-1-3.8-0.9c-0.9,0-1.8,0.3-2.6,0.7
			c-0.8,0.4-1.5,0.9-2.1,1.6c-0.6,0.7-1,1.5-1.3,2.3C53.1,32.4,53,33.3,53,34.2z"/>
	</g>
	<g class="st3">
		<path class="st5" d="M455.5,185.6c0.1,0.9,0.4,1.7,0.9,2.4s1.3,1.2,2.1,1.5c0.8,0.3,1.7,0.3,2.6,0.1c0.8-0.2,1.6-0.7,2.2-1.4
			c0.6-0.7,1-1.5,1.1-2.3c0.1-0.9,0-1.8-0.4-2.5s-1-1.4-1.7-1.9c-0.8-0.4-1.6-0.7-2.5-0.6c-0.6,0-1.2,0.2-1.7,0.4
			c-0.5,0.3-1,0.6-1.4,1.1c-0.4,0.4-0.7,1-0.9,1.5C455.5,184.4,455.5,185,455.5,185.6z"/>
	</g>
	<path class="st6" d="M429.4,310.3c0.1-6.5-4.9-11.9-11.3-12c-6.4-0.1-11.7,5-11.8,11.6c-0.1,6.5,4.9,11.9,11.3,12
		C423.9,322,429.2,316.8,429.4,310.3z"/>
	<g class="st7">
		<path class="st4" d="M377.5,431c2.5,0,4.5-2,4.5-4.5s-2-4.5-4.5-4.5s-4.5,2-4.5,4.5S375,431,377.5,431z"/>
	</g>
	<g class="st7">
		<path class="st4" d="M220.2,44.5c1.2,0,2.2-1,2.2-2.2s-1-2.2-2.2-2.2s-2.2,1-2.2,2.2S219,44.5,220.2,44.5z"/>
	</g>
	<g class="st7">
		<path class="st4" d="M168.5,435c2.5,0,4.5-2,4.5-4.5s-2-4.5-4.5-4.5s-4.5,2-4.5,4.5S166,435,168.5,435z"/>
	</g>
	<path class="st8" d="M402.5,383c1.9,0,3.5-1.6,3.5-3.5s-1.6-3.5-3.5-3.5s-3.5,1.6-3.5,3.5S400.6,383,402.5,383z"/>
	<g class="st7">
		<path class="st4" d="M76.5,44c0.8,0,1.5-0.7,1.5-1.5S77.3,41,76.5,41S75,41.7,75,42.5S75.7,44,76.5,44z"/>
	</g>
	<path class="st6" d="M22.3,113.7c2.2,5.4-2.8,9.6-7.2,7.6c-0.9-0.4-1.7-1.1-2.2-1.9c-0.5-0.8-0.8-1.8-0.9-2.8
		c0-4.8,5.8-7.7,9.8-3.5C22,113.2,22.2,113.5,22.3,113.7z"/>
	<path class="st6" d="M82.2,25c0,0.5-0.1,0.9-0.4,1.3c-0.3,0.4-0.6,0.7-1.1,0.8c-0.4,0.1-0.9,0.1-1.4,0c-0.4-0.2-0.8-0.4-1.1-0.8
		C78.1,25.9,78,25.4,78,25c0-0.5,0.2-0.9,0.5-1.3c0.3-0.3,0.7-0.6,1.2-0.7c0.5-0.1,0.9,0,1.3,0.2c0.3,0.2,0.6,0.4,0.8,0.7
		C82.1,24.3,82.2,24.6,82.2,25z"/>
	<path class="st9" d="M268.2,25c0,0.5-0.1,0.9-0.4,1.3c-0.3,0.4-0.7,0.7-1.1,0.8c-0.4,0.1-0.9,0.1-1.4,0c-0.4-0.2-0.8-0.5-1.1-0.8
		c-0.3-0.4-0.4-0.9-0.3-1.3c0-0.5,0.2-0.9,0.5-1.2c0.3-0.3,0.7-0.6,1.2-0.7c0.5-0.1,0.9,0,1.3,0.2c0.3,0.2,0.6,0.4,0.8,0.7
		C268.1,24.3,268.2,24.7,268.2,25z"/>
	<g class="st7">
		<path class="st4" d="M422,69.1c0,0.2-0.1,0.5-0.3,0.7c-0.1,0.2-0.3,0.4-0.5,0.5c-0.2,0.1-0.4,0.2-0.7,0.3c-0.2,0-0.5,0-0.7,0
			c-0.2,0-0.5-0.1-0.7-0.3c-0.2-0.1-0.4-0.3-0.5-0.5c-0.1-0.2-0.2-0.4-0.3-0.7c0-0.2,0-0.5,0-0.7c0-0.2,0.1-0.5,0.3-0.7
			c0.1-0.2,0.3-0.4,0.5-0.5c0.2-0.1,0.4-0.2,0.7-0.3c0.2,0,0.5,0,0.7,0c0.2,0.1,0.5,0.1,0.7,0.3c0.2,0.1,0.4,0.3,0.5,0.5
			c0.1,0.2,0.2,0.4,0.3,0.7C422.1,68.6,422.1,68.9,422,69.1z"/>
	</g>
	<path class="st6" d="M144.6,437.2c-0.1,0.3-0.3,0.7-0.5,0.9c-0.3,0.2-0.6,0.4-0.9,0.5c-0.3,0.1-0.7,0-1-0.1
		c-0.3-0.1-0.6-0.4-0.8-0.7c-0.2-0.3-0.3-0.6-0.3-1c0-0.4,0.1-0.7,0.3-1c0.2-0.3,0.5-0.5,0.8-0.6c0.3-0.1,0.7-0.2,1-0.1
		c0.2,0,0.5,0.1,0.6,0.3c0.2,0.1,0.4,0.3,0.5,0.5c0.1,0.2,0.2,0.4,0.3,0.7C144.6,436.7,144.6,436.9,144.6,437.2z"/>
	<g>
		<g>
			<path class="st10" d="M354.3,328.2c0,1.9-0.7,3.6-2,4.8c-1.2,1.2-2.9,2-4.8,2H80.8c-3.7,0-6.8-3-6.8-6.8c0-1.9,0.7-3.6,2-4.8
				c1.2-1.2,2.9-2,4.8-2h17.1v-136c0-3.6,2.9-6.5,6.5-6.5h219.6c3.6,0,6.5,2.9,6.5,6.5v136h17.1
				C351.3,321.5,354.3,324.5,354.3,328.2z"/>
			<path class="st11" d="M318.9,321.1H109.4c-1.7,0-3-1.3-3-3V190.4c0-1.7,1.3-3,3-3h209.5c1.7,0,3,1.3,3,3v127.6
				C321.9,319.8,320.6,321.1,318.9,321.1z"/>
			<circle class="st12" cx="323" cy="186" r="38.5"/>
			<path class="st6" d="M309.4,185.5l6.6,2.3v3.2l-10-4.2v-2.7l9.9-4.1v3.2L309.4,185.5z"/>
			<path class="st6" d="M320.6,194H318l6.4-18h2.6L320.6,194z"/>
			<path class="st6" d="M336.7,185.5l-6.7-2.3V180l10,4.1v2.7l-10,4.1v-3.2L336.7,185.5z"/>
			<g>
				<path class="st13" d="M115.8,203l2,0.7v0.8l-2.8-1.2v-0.6l2.8-1.2v0.8L115.8,203z"/>
				<path class="st13" d="M119,204.7c0-0.1,0-0.1,0-0.2c0-0.1,0.1-0.1,0.1-0.1c0.1-0.1,0.2-0.1,0.3-0.1s0.2,0,0.3,0.1
					c0,0,0.1,0.1,0.1,0.1c0,0.1,0,0.1,0,0.2c0,0.1,0,0.1,0,0.2c0,0.1-0.1,0.1-0.1,0.1c-0.1,0.1-0.2,0.1-0.3,0.1
					c-0.1,0-0.2,0-0.3-0.1c0,0-0.1-0.1-0.1-0.1S119,204.8,119,204.7z M119.8,203.7h-0.7l-0.1-3.4h0.9L119.8,203.7z"/>
				<path class="st14" d="M121.1,205.1v-4.9h1.4c0.4,0,0.8,0.1,1.1,0.3c0.3,0.2,0.6,0.5,0.8,0.8c0.2,0.4,0.3,0.8,0.3,1.2v0.2
					c0,0.4-0.1,0.8-0.3,1.2c-0.2,0.3-0.5,0.6-0.8,0.8c-0.4,0.2-0.8,0.3-1.2,0.3H121.1z M121.9,200.9v3.5h0.6c0.2,0,0.4,0,0.6-0.1
					c0.2-0.1,0.3-0.2,0.5-0.3c0.3-0.3,0.4-0.8,0.4-1.2v-0.3c0-0.4-0.1-0.9-0.3-1.2c-0.1-0.1-0.3-0.3-0.5-0.3
					c-0.2-0.1-0.4-0.1-0.6-0.1H121.9z"/>
				<path class="st14" d="M129.7,202.8c0,0.4-0.1,0.9-0.2,1.3c-0.1,0.3-0.4,0.6-0.7,0.8c-0.3,0.2-0.7,0.3-1.1,0.3
					c-0.4,0-0.7-0.1-1.1-0.3c-0.3-0.2-0.6-0.5-0.7-0.8c-0.2-0.4-0.3-0.8-0.3-1.2v-0.3c0-0.4,0.1-0.9,0.3-1.3
					c0.2-0.3,0.4-0.6,0.7-0.8c0.3-0.2,0.7-0.3,1.1-0.3c0.4,0,0.7,0.1,1.1,0.3c0.3,0.2,0.6,0.5,0.7,0.8c0.2,0.4,0.3,0.8,0.3,1.2
					L129.7,202.8z M128.9,202.6c0-0.4-0.1-0.9-0.3-1.2c-0.1-0.1-0.2-0.2-0.4-0.3c-0.1-0.1-0.3-0.1-0.5-0.1c-0.2,0-0.3,0-0.5,0.1
					c-0.1,0.1-0.3,0.2-0.4,0.3c-0.2,0.4-0.3,0.8-0.3,1.2v0.3c0,0.4,0.1,0.9,0.3,1.2c0.1,0.1,0.2,0.2,0.4,0.3
					c0.2,0.1,0.3,0.1,0.5,0.1c0.2,0,0.3,0,0.5-0.1c0.2-0.1,0.3-0.2,0.4-0.3c0.2-0.4,0.3-0.8,0.3-1.2L128.9,202.6z"/>
				<path class="st14" d="M134.5,203.5c0,0.2-0.1,0.5-0.2,0.7c-0.1,0.2-0.2,0.4-0.4,0.5c-0.4,0.3-0.9,0.5-1.3,0.4
					c-0.4,0-0.7-0.1-1-0.3c-0.3-0.2-0.5-0.5-0.7-0.8c-0.2-0.4-0.3-0.8-0.3-1.2v-0.5c0-0.4,0.1-0.8,0.2-1.2c0.1-0.3,0.4-0.6,0.7-0.8
					c0.3-0.2,0.7-0.3,1.1-0.3c0.5,0,0.9,0.1,1.3,0.4c0.3,0.3,0.6,0.8,0.6,1.2h-0.8c0-0.3-0.1-0.5-0.3-0.8c-0.2-0.2-0.5-0.2-0.7-0.2
					c-0.2,0-0.3,0-0.5,0.1c-0.1,0.1-0.3,0.2-0.4,0.3c-0.2,0.4-0.3,0.8-0.3,1.2v0.4c0,0.4,0.1,0.8,0.3,1.2c0.1,0.1,0.2,0.2,0.4,0.3
					c0.1,0.1,0.3,0.1,0.5,0.1c0.3,0,0.5-0.1,0.7-0.2c0.2-0.2,0.3-0.5,0.3-0.7H134.5z"/>
				<path class="st14" d="M138.9,200.9h-1.5v4.2h-0.8v-4.2h-1.5v-0.7h3.9V200.9z"/>
				<path class="st14" d="M141.5,202.6l1.1-2.3h0.9l-1.6,3.1v1.8H141v-1.8l-1.6-3.1h0.9L141.5,202.6z"/>
				<path class="st14" d="M145.1,203.3v1.8h-0.8v-4.9h1.9c0.5,0,0.9,0.1,1.3,0.4c0.2,0.1,0.3,0.3,0.4,0.5c0.1,0.2,0.1,0.4,0.1,0.6
					c0,0.2,0,0.4-0.1,0.6c-0.1,0.2-0.2,0.4-0.4,0.5c-0.4,0.3-0.8,0.4-1.3,0.4H145.1z M145.1,202.6h1c0.2,0,0.5-0.1,0.7-0.2
					c0.1-0.1,0.1-0.2,0.2-0.3s0.1-0.2,0.1-0.3c0-0.1,0-0.2-0.1-0.3c0-0.1-0.1-0.2-0.2-0.3c-0.1-0.1-0.2-0.1-0.3-0.2
					c-0.1,0-0.2-0.1-0.4-0.1h-1L145.1,202.6z"/>
				<path class="st14" d="M151.8,203h-2v1.5h2.3v0.7h-3.2v-4.9h3.2v0.7h-2.3v1.3h2L151.8,203z"/>
				<path class="st15" d="M160.8,205.1H160V203h-2.2v2.2h-0.8v-4.8h0.8v2h2.2v-2h0.8L160.8,205.1z"/>
				<path class="st15" d="M163,200.6v0.9h0.6v0.6H163v2c0,0.1,0,0.2,0.1,0.3c0,0,0.1,0.1,0.1,0.1c0.1,0,0.1,0,0.2,0
					c0.1,0,0.2,0,0.3,0v0.6c-0.2,0.1-0.4,0.1-0.5,0.1c-0.6,0-0.9-0.3-0.9-1v-2h-0.6v-0.6h0.6v-0.9L163,200.6z"/>
				<path class="st15" d="M165.3,201.5l0,0.4c0.1-0.1,0.3-0.3,0.5-0.3c0.2-0.1,0.4-0.1,0.6-0.1c0.2,0,0.4,0,0.6,0.1
					c0.2,0.1,0.3,0.2,0.4,0.4c0.1-0.2,0.3-0.3,0.5-0.4c0.2-0.1,0.4-0.1,0.6-0.1c0.2,0,0.3,0,0.5,0.1c0.2,0.1,0.3,0.2,0.4,0.3
					c0.2,0.3,0.3,0.6,0.3,1v2.4h-0.8v-2.3c0-0.2,0-0.4-0.2-0.5c-0.1-0.1-0.1-0.1-0.2-0.1c-0.1,0-0.2,0-0.3,0c-0.2,0-0.3,0-0.5,0.1
					c-0.1,0.1-0.2,0.2-0.2,0.4v2.5h-0.8v-2.4c0-0.1,0-0.2,0-0.3c0-0.1-0.1-0.2-0.1-0.2c-0.1-0.1-0.1-0.1-0.2-0.1c-0.1,0-0.2,0-0.3,0
					c-0.1,0-0.3,0-0.4,0.1c-0.1,0.1-0.2,0.2-0.3,0.3v2.6h-0.8v-3.6H165.3z"/>
				<path class="st15" d="M171.6,205.1h-0.8V200h0.8V205.1z"/>
				<path class="st16" d="M174.8,203l-2.1-0.8v-0.8l2.9,1.2v0.6l-2.9,1.2v-0.8L174.8,203z"/>
				<path class="st14" d="M115.8,211.2l2,0.7v0.8l-2.8-1.2v-0.6l2.8-1.2v0.8L115.8,211.2z"/>
				<path class="st14" d="M119.7,210.1c0.1-0.1,0.3-0.3,0.5-0.3c0.2-0.1,0.4-0.1,0.6-0.1c0.8,0,1.2,0.4,1.2,1.3v2.4h-0.8V211
					c0-0.1,0-0.2,0-0.3c0-0.1-0.1-0.2-0.1-0.2c-0.1-0.1-0.3-0.2-0.5-0.2c-0.2,0-0.3,0-0.4,0.1c-0.1,0.1-0.2,0.2-0.3,0.3v2.6h-0.8
					v-5.1h0.8V210.1z"/>
				<path class="st14" d="M124,208.8v0.9h0.6v0.6H124v2c0,0.1,0,0.2,0.1,0.3c0,0,0.1,0.1,0.1,0.1c0,0,0.1,0,0.2,0c0.1,0,0.2,0,0.3,0
					v0.6c-0.2,0.1-0.4,0.1-0.5,0.1c-0.6,0-0.9-0.3-0.9-1v-2h-0.6v-0.6h0.6v-0.9L124,208.8z"/>
				<path class="st14" d="M126.3,209.7l0,0.4c0.1-0.1,0.3-0.3,0.5-0.3c0.2-0.1,0.4-0.1,0.6-0.1c0.2,0,0.4,0,0.6,0.1
					c0.2,0.1,0.3,0.2,0.4,0.4c0.1-0.2,0.3-0.3,0.5-0.4c0.2-0.1,0.4-0.1,0.6-0.1c0.2,0,0.3,0,0.5,0.1c0.2,0.1,0.3,0.2,0.4,0.3
					c0.2,0.3,0.3,0.6,0.3,1v2.4h-0.8V211c0-0.2,0-0.4-0.2-0.5c-0.1-0.1-0.1-0.1-0.2-0.1c-0.1,0-0.2,0-0.3,0c-0.2,0-0.3,0-0.5,0.1
					c-0.1,0.1-0.2,0.2-0.2,0.4v2.5h-0.8v-2.4c0-0.1,0-0.2,0-0.3c0-0.1-0.1-0.2-0.1-0.2c-0.1-0.1-0.1-0.1-0.2-0.1c-0.1,0-0.2,0-0.3,0
					c-0.1,0-0.3,0-0.4,0.1c-0.1,0.1-0.2,0.2-0.3,0.3v2.6h-0.8v-3.6H126.3z"/>
				<path class="st14" d="M132.6,213.3h-0.8v-5.1h0.8V213.3z"/>
				<path class="st14" d="M136.5,213.3h-0.8v-5.1h0.8V213.3z"/>
				<path class="st15" d="M139.8,213.3c0-0.1-0.1-0.2-0.1-0.3c-0.2,0.2-0.6,0.4-0.9,0.4c-0.3,0-0.7-0.1-0.9-0.3
					c-0.1-0.1-0.2-0.2-0.3-0.3c-0.1-0.1-0.1-0.3-0.1-0.4c0-0.2,0-0.3,0.1-0.5c0.1-0.2,0.2-0.3,0.3-0.4c0.4-0.2,0.8-0.3,1.2-0.3h0.5
					v-0.2c0-0.1,0-0.2,0-0.2c0-0.1-0.1-0.2-0.1-0.2c-0.1-0.1-0.1-0.1-0.2-0.1c-0.1,0-0.2,0-0.3,0c-0.2,0-0.3,0-0.5,0.1
					c-0.1,0-0.1,0.1-0.1,0.1c0,0.1,0,0.1,0,0.2h-0.8c0-0.2,0.1-0.4,0.2-0.6c0.1-0.2,0.3-0.3,0.5-0.4c0.2-0.1,0.5-0.1,0.8-0.1
					c0.4,0,0.7,0.1,1,0.3c0.1,0.1,0.2,0.2,0.3,0.4s0.1,0.3,0.1,0.5v1.6c0,0.3,0,0.5,0.1,0.8v0.1L139.8,213.3z M138.9,212.7
					c0.2,0,0.3,0,0.5-0.1c0.1-0.1,0.2-0.2,0.3-0.3v-0.7h-0.4c-0.2,0-0.5,0-0.7,0.2c-0.1,0-0.1,0.1-0.2,0.2c0,0.1-0.1,0.2-0.1,0.3
					c0,0.1,0,0.1,0,0.2c0,0.1,0.1,0.1,0.1,0.2C138.6,212.7,138.8,212.7,138.9,212.7z"/>
				<path class="st15" d="M142.4,209.7l0,0.4c0.1-0.2,0.3-0.3,0.5-0.4c0.2-0.1,0.4-0.1,0.6-0.1c0.8,0,1.1,0.4,1.2,1.3v2.4h-0.8V211
					c0-0.2,0-0.4-0.1-0.5c-0.1-0.1-0.1-0.1-0.2-0.1c-0.1,0-0.2,0-0.3,0c-0.2,0-0.3,0-0.4,0.1c-0.1,0.1-0.2,0.2-0.3,0.3v2.6h-0.8
					v-3.6H142.4z"/>
				<path class="st15" d="M145.5,211.5c0-0.5,0.1-1,0.4-1.3c0.1-0.2,0.3-0.3,0.5-0.4c0.2-0.1,0.4-0.1,0.6-0.1c0.2,0,0.4,0,0.5,0.1
					c0.2,0.1,0.3,0.2,0.4,0.3l0-0.4h0.7v3.5c0,0.2,0,0.4-0.1,0.6c-0.1,0.2-0.2,0.4-0.3,0.5c-0.3,0.3-0.8,0.4-1.2,0.4
					c-0.3,0-0.5-0.1-0.8-0.2c-0.2-0.1-0.4-0.2-0.6-0.4l0.4-0.5c0.1,0.1,0.2,0.3,0.4,0.3c0.2,0.1,0.3,0.1,0.5,0.1
					c0.2,0,0.5-0.1,0.6-0.2c0.1-0.1,0.1-0.2,0.2-0.3c0-0.1,0.1-0.2,0-0.3V213c-0.1,0.1-0.3,0.2-0.4,0.3c-0.2,0.1-0.3,0.1-0.5,0.1
					c-0.2,0-0.4,0-0.6-0.1c-0.2-0.1-0.3-0.2-0.5-0.4C145.6,212.5,145.5,212,145.5,211.5z M146.3,211.6c0,0.3,0.1,0.6,0.2,0.9
					c0.1,0.1,0.2,0.2,0.3,0.2c0.1,0.1,0.2,0.1,0.4,0.1c0.1,0,0.3,0,0.4-0.1c0.1-0.1,0.2-0.2,0.3-0.3v-1.6c-0.1-0.1-0.2-0.2-0.3-0.3
					c-0.1-0.1-0.3-0.1-0.4-0.1c-0.1,0-0.2,0-0.4,0.1c-0.1,0.1-0.2,0.1-0.3,0.2C146.4,210.9,146.3,211.2,146.3,211.6L146.3,211.6z"/>
				<path class="st13" d="M152.7,210.7h-2.9V210h2.9V210.7z M152.7,212.1h-2.9v-0.7h2.9V212.1z"/>
				<path class="st6" d="M154.4,208.6l-0.1,1.3h-0.5v-1.7h0.6L154.4,208.6z M155.4,208.6l-0.1,1.3h-0.5v-1.7h0.6V208.6z"/>
				<path class="st6" d="M157.7,213.4c-0.2,0-0.5,0-0.7-0.1c-0.2-0.1-0.4-0.2-0.6-0.4c-0.2-0.2-0.3-0.4-0.4-0.6
					c-0.1-0.2-0.1-0.5-0.1-0.7v-0.1c0-0.3,0.1-0.7,0.2-1c0.1-0.3,0.3-0.5,0.6-0.7c0.3-0.2,0.5-0.2,0.8-0.2c0.2,0,0.4,0,0.6,0.1
					c0.2,0.1,0.4,0.2,0.5,0.4c0.3,0.4,0.4,0.9,0.4,1.3v0.3h-2.4c0,0.3,0.1,0.5,0.3,0.7c0.1,0.1,0.2,0.2,0.3,0.2
					c0.1,0,0.2,0.1,0.4,0.1c0.2,0,0.4,0,0.5-0.1c0.2-0.1,0.3-0.2,0.4-0.3l0.4,0.4c-0.1,0.2-0.3,0.4-0.6,0.5
					C158.3,213.3,158,213.4,157.7,213.4z M157.6,210.3c-0.1,0-0.2,0-0.3,0.1c-0.1,0-0.2,0.1-0.2,0.2c-0.1,0.2-0.2,0.4-0.3,0.6h1.6
					v-0.1c0-0.2-0.1-0.4-0.2-0.6c-0.1-0.1-0.1-0.1-0.2-0.2S157.7,210.3,157.6,210.3z"/>
				<path class="st6" d="M160.8,209.7l0,0.4c0.1-0.2,0.3-0.3,0.5-0.4c0.2-0.1,0.4-0.1,0.6-0.1c0.8,0,1.1,0.4,1.2,1.3v2.4h-0.8V211
					c0-0.2,0-0.4-0.1-0.5c-0.1-0.1-0.1-0.1-0.2-0.1c-0.1,0-0.2,0-0.3,0c-0.2,0-0.3,0-0.4,0.1c-0.1,0.1-0.2,0.2-0.3,0.3v2.6h-0.8
					v-3.6H160.8z"/>
				<path class="st6" d="M164.4,208.6l-0.1,1.3h-0.5v-1.7h0.6V208.6z M165.4,208.6l-0.1,1.3h-0.5v-1.7h0.6L165.4,208.6z"/>
				<path class="st16" d="M168.4,211.2l-2.1-0.8v-0.8l2.9,1.2v0.6l-2.9,1.2V212L168.4,211.2z"/>
				<path class="st13" d="M115.8,219.4l2,0.7v0.8l-2.8-1.2v-0.6l2.8-1.2v0.8L115.8,219.4z"/>
				<path class="st14" d="M119.7,218.3c0.1-0.1,0.3-0.3,0.5-0.3c0.2-0.1,0.4-0.1,0.6-0.1c0.8,0,1.2,0.4,1.2,1.3v2.4h-0.8v-2.3
					c0-0.1,0-0.2,0-0.3c0-0.1-0.1-0.2-0.1-0.2c-0.1-0.1-0.3-0.2-0.5-0.2c-0.2,0-0.3,0-0.4,0.1c-0.1,0.1-0.2,0.2-0.3,0.3v2.6h-0.8
					v-5.1h0.8V218.3z"/>
				<path class="st14" d="M124.6,221.6c-0.2,0-0.5,0-0.7-0.1c-0.2-0.1-0.4-0.2-0.6-0.4c-0.2-0.2-0.3-0.4-0.4-0.6s-0.1-0.5-0.1-0.7
					v-0.1c0-0.3,0.1-0.7,0.2-1c0.1-0.3,0.3-0.5,0.6-0.7c0.3-0.2,0.5-0.2,0.8-0.2c0.2,0,0.4,0,0.6,0.1c0.2,0.1,0.4,0.2,0.5,0.4
					c0.3,0.4,0.4,0.9,0.4,1.3v0.3h-2.4c0,0.3,0.1,0.5,0.3,0.7c0.1,0.1,0.2,0.2,0.3,0.2c0.1,0,0.2,0.1,0.4,0.1c0.2,0,0.4,0,0.5-0.1
					c0.2-0.1,0.3-0.2,0.4-0.3l0.4,0.4c-0.1,0.2-0.3,0.4-0.6,0.5C125.1,221.5,124.9,221.6,124.6,221.6z M124.5,218.5
					c-0.1,0-0.2,0-0.3,0.1s-0.2,0.1-0.2,0.2c-0.2,0.2-0.2,0.4-0.3,0.6h1.6v-0.1c0-0.2-0.1-0.4-0.2-0.6c-0.1-0.1-0.2-0.1-0.2-0.2
					C124.7,218.5,124.6,218.5,124.5,218.5z"/>
				<path class="st14" d="M129.1,221.5c0-0.1-0.1-0.2-0.1-0.3c-0.1,0.1-0.3,0.2-0.4,0.3c-0.2,0.1-0.3,0.1-0.5,0.1
					c-0.3,0-0.6-0.1-0.9-0.3c-0.1-0.1-0.2-0.2-0.3-0.3c-0.1-0.1-0.1-0.3-0.1-0.4c0-0.2,0-0.3,0.1-0.5c0.1-0.2,0.2-0.3,0.3-0.4
					c0.4-0.2,0.8-0.3,1.2-0.3h0.5v-0.2c0-0.2,0-0.3-0.2-0.4c-0.1-0.1-0.1-0.1-0.2-0.1c-0.1,0-0.2,0-0.3,0c-0.2,0-0.3,0-0.5,0.1
					c-0.1,0-0.1,0.1-0.1,0.2c0,0.1,0,0.1,0,0.2h-0.8c0-0.2,0.1-0.4,0.2-0.6c0.1-0.2,0.3-0.3,0.5-0.4c0.2-0.1,0.5-0.2,0.8-0.1
					c0.4,0,0.7,0.1,1,0.3c0.1,0.1,0.2,0.2,0.3,0.4c0.1,0.2,0.1,0.3,0.1,0.5v1.6c0,0.3,0,0.5,0.1,0.8v0.1L129.1,221.5z M128.2,220.9
					c0.2,0,0.3,0,0.5-0.1c0.1-0.1,0.2-0.2,0.3-0.3v-0.7h-0.4c-0.2,0-0.5,0-0.7,0.2c-0.1,0-0.1,0.1-0.2,0.2c0,0.1-0.1,0.2-0.1,0.3
					c0,0.1,0,0.1,0,0.2c0,0.1,0.1,0.1,0.1,0.2C127.9,220.9,128,220.9,128.2,220.9z"/>
				<path class="st14" d="M130.7,219.7c0-0.5,0.1-0.9,0.4-1.3c0.1-0.2,0.3-0.3,0.5-0.4s0.4-0.1,0.6-0.1c0.2,0,0.3,0,0.5,0.1
					s0.3,0.2,0.4,0.3v-1.8h0.8v5.1h-0.8l0-0.4c-0.1,0.1-0.3,0.3-0.4,0.3c-0.2,0.1-0.4,0.1-0.5,0.1c-0.2,0-0.4,0-0.6-0.1
					c-0.2-0.1-0.3-0.2-0.5-0.4C130.8,220.7,130.7,220.2,130.7,219.7z M131.5,219.7c0,0.3,0.1,0.6,0.2,0.9c0.1,0.1,0.2,0.2,0.3,0.2
					c0.1,0.1,0.2,0.1,0.3,0.1c0.2,0,0.3,0,0.4-0.1c0.1-0.1,0.2-0.2,0.3-0.3v-1.5c-0.1-0.1-0.2-0.2-0.3-0.3c-0.1-0.1-0.3-0.1-0.4-0.1
					c-0.1,0-0.2,0-0.3,0.1c-0.1,0.1-0.2,0.1-0.3,0.2C131.6,219.1,131.5,219.4,131.5,219.7L131.5,219.7z"/>
				<path class="st14" d="M136.6,221.6c-0.2,0-0.5,0-0.7-0.1c-0.2-0.1-0.4-0.2-0.6-0.4c-0.2-0.2-0.3-0.4-0.4-0.6
					c-0.1-0.2-0.1-0.5-0.1-0.7v-0.1c0-0.3,0.1-0.7,0.2-1c0.1-0.3,0.3-0.5,0.6-0.7c0.3-0.2,0.5-0.2,0.8-0.2c0.2,0,0.4,0,0.6,0.1
					c0.2,0.1,0.4,0.2,0.5,0.4c0.3,0.4,0.4,0.9,0.4,1.3v0.3h-2.4c0,0.3,0.1,0.5,0.3,0.7c0.1,0.1,0.2,0.2,0.3,0.2
					c0.1,0,0.2,0.1,0.4,0.1c0.2,0,0.4,0,0.5-0.1c0.2-0.1,0.3-0.2,0.4-0.3l0.4,0.4c-0.1,0.2-0.3,0.4-0.6,0.5
					C137.1,221.5,136.8,221.6,136.6,221.6z M136.5,218.5c-0.1,0-0.2,0-0.3,0.1c-0.1,0-0.2,0.1-0.2,0.2c-0.1,0.2-0.2,0.4-0.3,0.6h1.6
					v-0.1c0-0.2-0.1-0.4-0.2-0.6c-0.1-0.1-0.1-0.1-0.2-0.2C136.7,218.5,136.6,218.5,136.5,218.5z"/>
				<path class="st14" d="M140.8,218.6c-0.1,0-0.2,0-0.3,0c-0.2,0-0.3,0-0.4,0.1c-0.1,0.1-0.2,0.2-0.3,0.3v2.5h-0.8v-3.6h0.8l0,0.4
					c0.1-0.1,0.2-0.3,0.3-0.3c0.1-0.1,0.3-0.1,0.5-0.1c0.1,0,0.2,0,0.3,0L140.8,218.6z"/>
				<path class="st13" d="M143.6,219.4l-2.1-0.8v-0.8l2.9,1.2v0.6l-2.9,1.2v-0.8L143.6,219.4z"/>
				<path class="st13" d="M123.6,227.6l2,0.7v0.8l-2.8-1.2v-0.6l2.8-1.2v0.8L123.6,227.6z"/>
				<path class="st14" d="M127.5,226.1l0,0.4c0.1-0.1,0.3-0.3,0.5-0.3c0.2-0.1,0.4-0.1,0.6-0.1c0.2,0,0.4,0,0.6,0.1
					c0.2,0.1,0.3,0.2,0.4,0.4c0.1-0.2,0.3-0.3,0.5-0.4c0.2-0.1,0.4-0.1,0.6-0.1c0.2,0,0.3,0,0.5,0.1c0.2,0.1,0.3,0.2,0.4,0.3
					c0.2,0.3,0.3,0.6,0.3,1v2.4H131v-2.3c0-0.2,0-0.4-0.2-0.5c-0.1-0.1-0.1-0.1-0.2-0.1c-0.1,0-0.2,0-0.3,0c-0.2,0-0.3,0-0.5,0.1
					c-0.1,0.1-0.2,0.2-0.2,0.4v2.5h-0.8v-2.4c0-0.1,0-0.2,0-0.3c0-0.1-0.1-0.2-0.1-0.2c-0.1-0.1-0.1-0.1-0.2-0.1c-0.1,0-0.2,0-0.3,0
					c-0.1,0-0.3,0-0.4,0.1c-0.1,0.1-0.2,0.2-0.3,0.3v2.6h-0.8v-3.6H127.5z"/>
				<path class="st14" d="M134.5,229.8c-0.2,0-0.5,0-0.7-0.1c-0.2-0.1-0.4-0.2-0.6-0.4c-0.2-0.2-0.3-0.4-0.4-0.6
					c-0.1-0.2-0.1-0.5-0.1-0.7v-0.1c0-0.3,0.1-0.7,0.2-1c0.1-0.3,0.3-0.5,0.6-0.7c0.3-0.2,0.5-0.2,0.8-0.2c0.2,0,0.4,0,0.6,0.1
					c0.2,0.1,0.4,0.2,0.5,0.4c0.3,0.4,0.4,0.9,0.4,1.3v0.3h-2.4c0,0.3,0.1,0.5,0.3,0.7c0.1,0.1,0.2,0.2,0.3,0.2
					c0.1,0,0.2,0.1,0.4,0.1c0.2,0,0.4,0,0.5-0.1c0.2-0.1,0.3-0.2,0.4-0.3l0.4,0.4c-0.1,0.2-0.3,0.4-0.6,0.5
					C135.1,229.7,134.8,229.8,134.5,229.8z M134.4,226.7c-0.1,0-0.2,0-0.3,0.1c-0.1,0-0.2,0.1-0.2,0.2c-0.1,0.2-0.2,0.4-0.3,0.6h1.6
					v-0.1c0-0.2-0.1-0.4-0.2-0.6c-0.1-0.1-0.2-0.1-0.2-0.2C134.6,226.7,134.5,226.7,134.4,226.7z"/>
				<path class="st14" d="M137.9,225.2v0.9h0.6v0.6h-0.6v2c0,0.1,0,0.2,0.1,0.3c0,0,0.1,0.1,0.1,0.1c0.1,0,0.1,0,0.2,0
					c0.1,0,0.2,0,0.3,0v0.6c-0.2,0.1-0.4,0.1-0.5,0.1c-0.6,0-0.9-0.3-0.9-1v-2h-0.6v-0.6h0.6v-0.9L137.9,225.2z"/>
				<path class="st14" d="M141.6,229.7c0-0.1-0.1-0.2-0.1-0.3c-0.2,0.2-0.6,0.4-0.9,0.4c-0.3,0-0.7-0.1-0.9-0.3
					c-0.1-0.1-0.2-0.2-0.3-0.3c-0.1-0.1-0.1-0.3-0.1-0.4c0-0.2,0-0.3,0.1-0.5c0.1-0.2,0.2-0.3,0.3-0.4c0.4-0.2,0.8-0.3,1.2-0.3h0.5
					v-0.2c0-0.2-0.1-0.3-0.2-0.4c-0.1-0.1-0.1-0.1-0.2-0.1c-0.1,0-0.2,0-0.3,0c-0.2,0-0.3,0-0.5,0.1c-0.1,0-0.1,0.1-0.1,0.1
					c0,0.1,0,0.1,0,0.2h-0.8c0-0.2,0.1-0.4,0.2-0.6c0.1-0.2,0.3-0.3,0.5-0.4c0.2-0.1,0.5-0.2,0.8-0.1c0.4,0,0.7,0.1,1,0.3
					c0.1,0.1,0.2,0.3,0.3,0.4s0.1,0.3,0.1,0.5v1.6c0,0.3,0,0.5,0.1,0.8v0.1L141.6,229.7z M140.7,229.1c0.2,0,0.3,0,0.5-0.1
					c0.1-0.1,0.2-0.2,0.3-0.3V228H141c-0.2,0-0.5,0-0.7,0.2c-0.1,0-0.1,0.1-0.2,0.2c0,0.1-0.1,0.2-0.1,0.3c0,0.1,0,0.1,0,0.2
					c0,0.1,0.1,0.1,0.1,0.2C140.4,229.1,140.5,229.1,140.7,229.1z"/>
				<path class="st15" d="M146.8,229.1c0.2,0,0.4-0.1,0.5-0.2c0.1-0.1,0.1-0.1,0.2-0.2c0-0.1,0.1-0.2,0.1-0.2h0.8
					c0,0.2-0.1,0.4-0.2,0.6c-0.1,0.2-0.3,0.4-0.5,0.5c-0.2,0.1-0.5,0.2-0.7,0.2c-0.2,0-0.4,0-0.7-0.1c-0.2-0.1-0.4-0.2-0.5-0.4
					c-0.3-0.4-0.5-0.9-0.4-1.4v-0.1c0-0.5,0.1-0.9,0.4-1.3c0.2-0.2,0.3-0.3,0.5-0.4c0.2-0.1,0.4-0.1,0.7-0.1c0.4,0,0.8,0.1,1.1,0.4
					c0.1,0.1,0.2,0.3,0.3,0.4c0.1,0.2,0.1,0.4,0.1,0.5h-0.8c0-0.2-0.1-0.4-0.2-0.5c-0.1-0.1-0.1-0.1-0.2-0.2c-0.1,0-0.2,0-0.3,0
					c-0.1,0-0.2,0-0.3,0.1c-0.1,0.1-0.2,0.1-0.3,0.2c-0.2,0.3-0.2,0.6-0.2,0.9v0.1c0,0.3,0.1,0.6,0.2,0.9c0.1,0.1,0.2,0.2,0.3,0.2
					C146.5,229.1,146.7,229.1,146.8,229.1z"/>
				<path class="st15" d="M149.9,226.5c0.1-0.1,0.3-0.3,0.5-0.3c0.2-0.1,0.4-0.1,0.6-0.1c0.8,0,1.2,0.4,1.2,1.3v2.4h-0.8v-2.3
					c0-0.1,0-0.2,0-0.3s-0.1-0.2-0.1-0.2c-0.1-0.1-0.3-0.2-0.5-0.2c-0.1,0-0.3,0-0.4,0.1c-0.1,0.1-0.2,0.2-0.3,0.3v2.6h-0.8v-5.1
					h0.8V226.5z"/>
				<path class="st15" d="M155.3,229.7c0-0.1-0.1-0.2-0.1-0.3c-0.1,0.1-0.3,0.2-0.4,0.3c-0.2,0.1-0.3,0.1-0.5,0.1
					c-0.3,0-0.6-0.1-0.9-0.3c-0.1-0.1-0.2-0.2-0.3-0.3c-0.1-0.1-0.1-0.3-0.1-0.4c0-0.2,0-0.3,0.1-0.5c0.1-0.2,0.2-0.3,0.3-0.4
					c0.4-0.2,0.8-0.3,1.2-0.3h0.5v-0.2c0-0.1,0-0.2,0-0.2c0-0.1-0.1-0.2-0.1-0.2c-0.1-0.1-0.1-0.1-0.2-0.1c-0.1,0-0.2,0-0.3,0
					c-0.2,0-0.3,0-0.5,0.1c-0.1,0-0.1,0.1-0.1,0.1c0,0.1,0,0.1,0,0.2h-0.8c0-0.2,0.1-0.4,0.2-0.6c0.1-0.2,0.3-0.3,0.5-0.4
					c0.2-0.1,0.5-0.2,0.8-0.1c0.4,0,0.7,0.1,1,0.3c0.1,0.1,0.2,0.2,0.3,0.4c0.1,0.2,0.1,0.3,0.1,0.5v1.6c0,0.3,0,0.5,0.1,0.8v0.1
					L155.3,229.7z M154.4,229.1c0.2,0,0.3,0,0.5-0.1c0.1-0.1,0.2-0.2,0.3-0.3V228h-0.4c-0.2,0-0.5,0-0.7,0.2c-0.1,0-0.1,0.1-0.2,0.2
					c0,0.1-0.1,0.2-0.1,0.3c0,0.1,0,0.1,0,0.2c0,0.1,0.1,0.1,0.1,0.2C154.1,229.1,154.3,229.1,154.4,229.1z"/>
				<path class="st15" d="M159,226.8c-0.1,0-0.2,0-0.3,0c-0.2,0-0.3,0-0.4,0.1c-0.1,0.1-0.2,0.2-0.3,0.3v2.5h-0.8v-3.6h0.8l0,0.4
					c0.1-0.1,0.2-0.3,0.3-0.3c0.1-0.1,0.3-0.1,0.5-0.1c0.1,0,0.2,0,0.3,0L159,226.8z"/>
				<path class="st15" d="M161.8,228.7c0-0.1,0-0.1,0-0.2c0-0.1-0.1-0.1-0.1-0.1c-0.2-0.1-0.4-0.2-0.6-0.2c-0.2,0-0.5-0.1-0.7-0.2
					c-0.2-0.1-0.3-0.2-0.4-0.3c-0.1-0.2-0.2-0.3-0.2-0.5c0-0.2,0-0.3,0.1-0.4c0.1-0.1,0.2-0.3,0.3-0.3c0.3-0.2,0.6-0.3,1-0.3
					c0.4,0,0.7,0.1,1.1,0.3c0.1,0.1,0.2,0.2,0.3,0.4c0.1,0.1,0.1,0.3,0.1,0.5h-0.8c0-0.1,0-0.1,0-0.2c0-0.1-0.1-0.1-0.1-0.2
					c-0.1-0.1-0.3-0.2-0.5-0.2c-0.2,0-0.3,0-0.4,0.1c-0.1,0-0.1,0.1-0.1,0.1c0,0.1,0,0.1,0,0.2c0,0.1,0,0.1,0,0.2
					c0,0.1,0.1,0.1,0.1,0.1c0.2,0.1,0.4,0.2,0.6,0.2c0.3,0,0.5,0.1,0.8,0.2c0.2,0.1,0.3,0.2,0.4,0.3c0.1,0.1,0.1,0.3,0.1,0.5
					c0,0.2,0,0.3-0.1,0.4c-0.1,0.1-0.2,0.3-0.3,0.3c-0.3,0.2-0.7,0.3-1.1,0.3c-0.3,0-0.5,0-0.8-0.2c-0.2-0.1-0.4-0.2-0.5-0.4
					c-0.1-0.2-0.2-0.4-0.2-0.6h0.8c0,0.1,0,0.2,0.1,0.2c0,0.1,0.1,0.1,0.2,0.2c0.2,0.1,0.3,0.2,0.5,0.2c0.2,0,0.3,0,0.5-0.1
					c0.1,0,0.1-0.1,0.1-0.1S161.8,228.8,161.8,228.7z"/>
				<path class="st15" d="M165.2,229.8c-0.2,0-0.5,0-0.7-0.1c-0.2-0.1-0.4-0.2-0.6-0.4c-0.2-0.2-0.3-0.4-0.4-0.6
					c-0.1-0.2-0.1-0.5-0.1-0.7v-0.1c0-0.3,0.1-0.7,0.2-1c0.1-0.3,0.3-0.5,0.6-0.7c0.3-0.2,0.5-0.2,0.8-0.2c0.2,0,0.4,0,0.6,0.1
					c0.2,0.1,0.4,0.2,0.5,0.4c0.3,0.4,0.4,0.9,0.4,1.3v0.3h-2.4c0,0.3,0.1,0.5,0.3,0.7c0.1,0.1,0.2,0.2,0.3,0.2
					c0.1,0,0.2,0.1,0.4,0.1c0.2,0,0.4,0,0.5-0.1c0.2-0.1,0.3-0.2,0.4-0.3l0.4,0.4c-0.1,0.2-0.3,0.4-0.6,0.5
					C165.7,229.7,165.4,229.8,165.2,229.8z M165.1,226.7c-0.1,0-0.2,0-0.3,0.1c-0.1,0-0.2,0.1-0.2,0.2c-0.2,0.2-0.2,0.4-0.3,0.6h1.6
					v-0.1c0-0.2-0.1-0.4-0.2-0.6c-0.1-0.1-0.2-0.1-0.2-0.2C165.3,226.7,165.2,226.7,165.1,226.7z"/>
				<path class="st15" d="M168.5,225.2v0.9h0.6v0.6h-0.6v2c0,0.1,0,0.2,0.1,0.3c0,0,0.1,0.1,0.1,0.1c0.1,0,0.1,0,0.2,0
					c0.1,0,0.2,0,0.3,0v0.6c-0.2,0.1-0.4,0.1-0.5,0.1c-0.6,0-0.9-0.3-0.9-1v-2h-0.6v-0.6h0.6v-0.9L168.5,225.2z"/>
				<path class="st13" d="M173,227.1h-2.9v-0.7h2.9V227.1z M173,228.5h-2.9v-0.7h2.9V228.5z"/>
				<path class="st6" d="M174.6,225l-0.1,1.3H174v-1.7h0.6V225z M175.6,225l-0.1,1.3H175v-1.7h0.6V225z"/>
				<path class="st6" d="M178.7,229.3c-0.1,0.1-0.3,0.3-0.5,0.3c-0.2,0.1-0.4,0.1-0.6,0.1c-0.2,0-0.3,0-0.5-0.1
					c-0.2-0.1-0.3-0.2-0.4-0.3c-0.2-0.3-0.3-0.6-0.3-1v-2.3h0.8v2.3c0,0.5,0.2,0.7,0.6,0.7c0.2,0,0.3,0,0.5-0.1
					c0.1-0.1,0.3-0.2,0.3-0.3v-2.6h0.8v3.6h-0.8L178.7,229.3z"/>
				<path class="st6" d="M181.6,225.2v0.9h0.6v0.6h-0.6v2c0,0.1,0,0.2,0.1,0.3c0,0,0.1,0.1,0.1,0.1c0.1,0,0.1,0,0.2,0
					c0.1,0,0.2,0,0.3,0v0.6c-0.2,0.1-0.4,0.1-0.5,0.1c-0.6,0-0.9-0.3-0.9-1v-2h-0.6v-0.6h0.6v-0.9L181.6,225.2z"/>
				<path class="st6" d="M183.4,229.7v-3h-0.6v-0.6h0.6v-0.3c0-0.2,0-0.3,0.1-0.5c0.1-0.2,0.1-0.3,0.3-0.4c0.3-0.2,0.6-0.3,0.9-0.3
					c0.2,0,0.3,0,0.5,0.1l0,0.6c-0.1,0-0.2,0-0.3,0c-0.1,0-0.2,0-0.2,0c-0.1,0-0.1,0.1-0.2,0.1c-0.1,0.1-0.1,0.1-0.1,0.2
					s0,0.2,0,0.2v0.3h0.7v0.6h-0.7v3L183.4,229.7z"/>
				<path class="st6" d="M187.4,228h-1.8v-0.7h1.8V228z"/>
				<path class="st6" d="M191.3,226.1c0,0.2-0.1,0.4-0.2,0.6c-0.1,0.2-0.3,0.3-0.5,0.4c0.2,0.1,0.4,0.3,0.6,0.5
					c0.1,0.2,0.2,0.4,0.2,0.7c0,0.2,0,0.4-0.1,0.6c-0.1,0.2-0.2,0.3-0.3,0.5c-0.3,0.2-0.7,0.4-1.2,0.4c-0.4,0-0.8-0.1-1.2-0.4
					c-0.1-0.1-0.3-0.3-0.3-0.5c-0.1-0.2-0.1-0.4-0.1-0.6c0-0.2,0.1-0.5,0.2-0.7c0.1-0.2,0.3-0.4,0.6-0.5c-0.2-0.1-0.4-0.3-0.5-0.4
					c-0.1-0.2-0.2-0.4-0.2-0.6c0-0.2,0-0.4,0.1-0.5c0.1-0.2,0.2-0.3,0.3-0.4c0.3-0.2,0.7-0.4,1.1-0.4s0.8,0.1,1.1,0.4
					c0.1,0.1,0.2,0.3,0.3,0.4C191.3,225.7,191.3,225.9,191.3,226.1z M190.6,228.3c0-0.1,0-0.2,0-0.3s-0.1-0.2-0.2-0.3
					c-0.1-0.1-0.2-0.1-0.3-0.2c-0.1,0-0.2-0.1-0.3-0.1c-0.1,0-0.2,0-0.3,0.1c-0.1,0-0.2,0.1-0.3,0.2c-0.1,0.1-0.1,0.2-0.2,0.3
					c0,0.1-0.1,0.2,0,0.3c0,0.1,0,0.2,0,0.3c0,0.1,0.1,0.2,0.2,0.3c0.1,0.1,0.2,0.1,0.3,0.2c0.1,0,0.2,0.1,0.3,0.1
					c0.1,0,0.2,0,0.3-0.1c0.1,0,0.2-0.1,0.3-0.2c0.1-0.1,0.1-0.2,0.2-0.3C190.6,228.5,190.6,228.4,190.6,228.3L190.6,228.3z
					 M190.5,226.2c0-0.2-0.1-0.4-0.2-0.5c-0.1-0.1-0.3-0.2-0.5-0.2s-0.4,0.1-0.5,0.2c-0.1,0.2-0.2,0.3-0.2,0.5s0.1,0.4,0.2,0.5
					c0.1,0.1,0.1,0.1,0.2,0.2c0.1,0,0.2,0,0.3,0c0.1,0,0.2,0,0.3,0c0.1,0,0.2-0.1,0.2-0.2c0.1-0.1,0.1-0.2,0.1-0.3
					C190.5,226.4,190.5,226.3,190.5,226.2z"/>
				<path class="st6" d="M192.9,225l-0.1,1.3h-0.5v-1.7h0.6V225z M193.9,225l-0.1,1.3h-0.5v-1.7h0.6L193.9,225z"/>
				<path class="st13" d="M197.1,230.1h-0.6l1.9-5.3h0.6L197.1,230.1z"/>
				<path class="st13" d="M201.9,227.6l-2.1-0.8V226l2.9,1.2v0.6l-2.9,1.2v-0.8L201.9,227.6z"/>
				<path class="st13" d="M123.6,235.8l2,0.7v0.8l-2.8-1.2v-0.6l2.8-1.2v0.8L123.6,235.8z"/>
				<path class="st14" d="M127.5,234.3l0,0.4c0.1-0.1,0.3-0.3,0.5-0.3c0.2-0.1,0.4-0.1,0.6-0.1c0.2,0,0.4,0,0.6,0.1
					c0.2,0.1,0.3,0.2,0.4,0.4c0.1-0.2,0.3-0.3,0.5-0.4c0.2-0.1,0.4-0.1,0.6-0.1c0.2,0,0.3,0,0.5,0.1c0.2,0.1,0.3,0.2,0.4,0.3
					c0.2,0.3,0.3,0.6,0.3,1v2.4H131v-2.3c0-0.2,0-0.4-0.2-0.5c-0.1-0.1-0.1-0.1-0.2-0.1c-0.1,0-0.2,0-0.3,0c-0.2,0-0.3,0-0.5,0.1
					c-0.1,0.1-0.2,0.2-0.2,0.4v2.5h-0.8v-2.4c0-0.1,0-0.2,0-0.3c0-0.1-0.1-0.2-0.1-0.2c-0.1-0.1-0.1-0.1-0.2-0.1c-0.1,0-0.2,0-0.3,0
					c-0.1,0-0.3,0-0.4,0.1c-0.1,0.1-0.2,0.2-0.3,0.3v2.6h-0.8v-3.6H127.5z"/>
				<path class="st14" d="M134.5,237.9c-0.2,0-0.5,0-0.7-0.1c-0.2-0.1-0.4-0.2-0.6-0.4c-0.2-0.2-0.3-0.4-0.4-0.6
					c-0.1-0.2-0.1-0.5-0.1-0.7v-0.1c0-0.3,0.1-0.7,0.2-1c0.1-0.3,0.3-0.5,0.6-0.7c0.3-0.2,0.5-0.2,0.8-0.2c0.2,0,0.4,0,0.6,0.1
					c0.2,0.1,0.4,0.2,0.5,0.4c0.3,0.4,0.4,0.9,0.4,1.3v0.3h-2.4c0,0.3,0.1,0.5,0.3,0.7c0.1,0.1,0.2,0.2,0.3,0.2
					c0.1,0,0.2,0.1,0.4,0.1c0.2,0,0.4,0,0.5-0.1c0.2-0.1,0.3-0.2,0.4-0.3l0.4,0.4c-0.1,0.2-0.3,0.4-0.6,0.5
					C135.1,237.9,134.8,238,134.5,237.9z M134.4,234.9c-0.1,0-0.2,0-0.3,0.1c-0.1,0-0.2,0.1-0.2,0.2c-0.1,0.2-0.2,0.4-0.3,0.6h1.6
					v-0.1c0-0.2-0.1-0.4-0.2-0.6c-0.1-0.1-0.2-0.1-0.2-0.2C134.6,234.9,134.5,234.9,134.4,234.9z"/>
				<path class="st14" d="M137.9,233.4v0.9h0.6v0.6h-0.6v2c0,0.1,0,0.2,0.1,0.3c0,0,0.1,0.1,0.1,0.1c0.1,0,0.1,0,0.2,0
					c0.1,0,0.2,0,0.3,0v0.6c-0.2,0.1-0.4,0.1-0.5,0.1c-0.6,0-0.9-0.3-0.9-1v-2h-0.6v-0.6h0.6v-0.9L137.9,233.4z"/>
				<path class="st14" d="M141.6,237.9c0-0.1-0.1-0.2-0.1-0.3c-0.2,0.2-0.6,0.4-0.9,0.4c-0.3,0-0.7-0.1-0.9-0.3
					c-0.1-0.1-0.2-0.2-0.3-0.3c-0.1-0.1-0.1-0.3-0.1-0.4c0-0.2,0-0.3,0.1-0.5c0.1-0.2,0.2-0.3,0.3-0.4c0.4-0.2,0.8-0.3,1.2-0.3h0.5
					v-0.2c0-0.2-0.1-0.3-0.2-0.4c-0.1-0.1-0.1-0.1-0.2-0.1c-0.1,0-0.2,0-0.3,0c-0.2,0-0.3,0-0.5,0.1c-0.1,0-0.1,0.1-0.1,0.1
					c0,0.1,0,0.1,0,0.2h-0.8c0-0.2,0.1-0.4,0.2-0.6c0.1-0.2,0.3-0.3,0.5-0.4c0.2-0.1,0.5-0.1,0.8-0.1c0.4,0,0.7,0.1,1,0.3
					c0.1,0.1,0.2,0.2,0.3,0.4c0.1,0.2,0.1,0.3,0.1,0.5v1.6c0,0.3,0,0.5,0.1,0.8v0.1L141.6,237.9z M140.7,237.3c0.2,0,0.3,0,0.5-0.1
					c0.1-0.1,0.2-0.2,0.3-0.3v-0.7H141c-0.2,0-0.5,0-0.7,0.2c-0.1,0-0.1,0.1-0.2,0.2c0,0.1-0.1,0.2-0.1,0.3c0,0.1,0,0.1,0,0.2
					c0,0.1,0.1,0.1,0.1,0.2C140.4,237.3,140.5,237.3,140.7,237.3z"/>
				<path class="st15" d="M146,234.3l0,0.4c0.1-0.2,0.3-0.3,0.5-0.4c0.2-0.1,0.4-0.1,0.6-0.1c0.8,0,1.1,0.4,1.2,1.3v2.4h-0.8v-2.3
					c0-0.2,0-0.4-0.2-0.5c-0.1-0.1-0.1-0.1-0.2-0.1c-0.1,0-0.2,0-0.3,0c-0.2,0-0.3,0-0.4,0.1c-0.1,0.1-0.2,0.2-0.3,0.3v2.6h-0.8
					v-3.6H146z"/>
				<path class="st15" d="M151.5,237.9c0-0.1-0.1-0.2-0.1-0.3c-0.1,0.1-0.3,0.2-0.4,0.3c-0.2,0.1-0.3,0.1-0.5,0.1
					c-0.3,0-0.6-0.1-0.9-0.3c-0.1-0.1-0.2-0.2-0.3-0.3c-0.1-0.1-0.1-0.3-0.1-0.4c0-0.2,0-0.3,0.1-0.5c0.1-0.2,0.2-0.3,0.3-0.4
					c0.4-0.2,0.8-0.3,1.2-0.3h0.5v-0.2c0-0.1,0-0.2,0-0.2c0-0.1-0.1-0.2-0.1-0.2c-0.1-0.1-0.1-0.1-0.2-0.1c-0.1,0-0.2,0-0.3,0
					c-0.2,0-0.3,0-0.5,0.1c-0.1,0-0.1,0.1-0.1,0.1c0,0.1,0,0.1,0,0.2h-0.8c0-0.2,0.1-0.4,0.2-0.6c0.1-0.2,0.3-0.3,0.5-0.4
					c0.2-0.1,0.5-0.2,0.8-0.1c0.4,0,0.7,0.1,1,0.3c0.1,0.1,0.2,0.2,0.3,0.4c0.1,0.2,0.1,0.3,0.1,0.5v1.6c0,0.3,0,0.5,0.1,0.8v0.1
					L151.5,237.9z M150.6,237.3c0.2,0,0.3,0,0.5-0.1c0.1-0.1,0.2-0.2,0.3-0.3v-0.7H151c-0.2,0-0.5,0-0.7,0.2c-0.1,0-0.1,0.1-0.2,0.2
					c0,0.1-0.1,0.2-0.1,0.3c0,0.1,0,0.1,0,0.2c0,0.1,0.1,0.1,0.1,0.2C150.3,237.3,150.5,237.3,150.6,237.3z"/>
				<path class="st15" d="M154.1,234.3l0,0.4c0.1-0.1,0.3-0.3,0.5-0.3c0.2-0.1,0.4-0.1,0.6-0.1c0.2,0,0.4,0,0.6,0.1
					c0.2,0.1,0.3,0.2,0.4,0.4c0.1-0.2,0.3-0.3,0.5-0.4c0.2-0.1,0.4-0.1,0.6-0.1c0.2,0,0.3,0,0.5,0.1c0.2,0.1,0.3,0.2,0.4,0.3
					c0.2,0.3,0.3,0.6,0.3,1v2.4h-0.8v-2.3c0-0.2,0-0.4-0.2-0.5c-0.1-0.1-0.1-0.1-0.2-0.1c-0.1,0-0.2,0-0.3,0c-0.2,0-0.3,0-0.5,0.1
					c-0.1,0.1-0.2,0.2-0.2,0.4v2.5h-0.8v-2.4c0-0.1,0-0.2,0-0.3c0-0.1-0.1-0.2-0.1-0.2c-0.1-0.1-0.1-0.1-0.2-0.1c-0.1,0-0.2,0-0.3,0
					c-0.1,0-0.3,0-0.4,0.1c-0.1,0.1-0.2,0.2-0.3,0.3v2.6h-0.8v-3.6H154.1z"/>
				<path class="st15" d="M161.1,237.9c-0.2,0-0.5,0-0.7-0.1c-0.2-0.1-0.4-0.2-0.6-0.4c-0.2-0.2-0.3-0.4-0.4-0.6
					c-0.1-0.2-0.1-0.5-0.1-0.7v-0.1c0-0.3,0.1-0.7,0.2-1c0.1-0.3,0.3-0.5,0.6-0.7c0.3-0.2,0.5-0.2,0.8-0.2c0.2,0,0.4,0,0.6,0.1
					c0.2,0.1,0.4,0.2,0.5,0.4c0.3,0.4,0.4,0.9,0.4,1.3v0.3h-2.4c0,0.3,0.1,0.5,0.3,0.7c0.1,0.1,0.2,0.2,0.3,0.2
					c0.1,0,0.2,0.1,0.4,0.1c0.2,0,0.4,0,0.5-0.1c0.2-0.1,0.3-0.2,0.4-0.3l0.4,0.4c-0.1,0.2-0.3,0.4-0.6,0.5
					C161.7,237.9,161.4,238,161.1,237.9z M161,234.9c-0.1,0-0.2,0-0.3,0.1c-0.1,0-0.2,0.1-0.2,0.2c-0.1,0.2-0.2,0.4-0.3,0.6h1.6
					v-0.1c0-0.2-0.1-0.4-0.2-0.6c-0.1-0.1-0.2-0.1-0.2-0.2C161.2,234.9,161.1,234.9,161,234.9z"/>
				<path class="st13" d="M166.4,235.3h-2.9v-0.7h2.9V235.3z M166.4,236.7h-2.9V236h2.9V236.7z"/>
				<path class="st6" d="M168,233.2l-0.1,1.3h-0.5v-1.7h0.6V233.2z M169,233.2l-0.1,1.3h-0.5v-1.7h0.6V233.2z"/>
				<path class="st6" d="M171.3,236.9l0.8-2.6h0.8l-1.3,3.6h-0.7l-1.3-3.6h0.8L171.3,236.9z"/>
				<path class="st6" d="M173.6,233.3c0-0.1,0-0.2,0.1-0.3c0,0,0.1-0.1,0.2-0.1c0.1,0,0.1,0,0.2,0c0.1,0,0.1,0,0.2,0
					c0.1,0,0.1,0.1,0.2,0.1c0.1,0.1,0.1,0.2,0.1,0.3c0,0.1,0,0.1,0,0.2c0,0.1-0.1,0.1-0.1,0.1c0,0-0.1,0.1-0.2,0.1
					c-0.1,0-0.1,0-0.2,0c-0.1,0-0.1,0-0.2,0c-0.1,0-0.1-0.1-0.2-0.1c0,0-0.1-0.1-0.1-0.1C173.6,233.4,173.6,233.4,173.6,233.3z
					 M174.5,237.9h-0.8v-3.6h0.8V237.9z"/>
				<path class="st6" d="M177.2,237.9c-0.2,0-0.5,0-0.7-0.1c-0.2-0.1-0.4-0.2-0.6-0.4c-0.2-0.2-0.3-0.4-0.4-0.6
					c-0.1-0.2-0.1-0.5-0.1-0.7v-0.1c0-0.3,0.1-0.7,0.2-1c0.1-0.3,0.3-0.5,0.6-0.7c0.3-0.2,0.5-0.2,0.8-0.2c0.2,0,0.4,0,0.6,0.1
					s0.4,0.2,0.5,0.4c0.3,0.4,0.4,0.9,0.4,1.3v0.3h-2.4c0,0.3,0.1,0.5,0.3,0.7c0.1,0.1,0.2,0.2,0.3,0.2c0.1,0,0.2,0.1,0.4,0.1
					c0.2,0,0.4,0,0.5-0.1c0.2-0.1,0.3-0.2,0.4-0.3l0.4,0.4c-0.1,0.2-0.3,0.4-0.6,0.5C177.8,237.9,177.5,238,177.2,237.9z
					 M177.1,234.9c-0.1,0-0.2,0-0.3,0.1c-0.1,0-0.2,0.1-0.2,0.2c-0.2,0.2-0.2,0.4-0.3,0.6h1.6v-0.1c0-0.2-0.1-0.4-0.2-0.6
					c-0.1-0.1-0.1-0.1-0.2-0.2C177.3,234.9,177.2,234.9,177.1,234.9z"/>
				<path class="st6" d="M182.7,236.8l0.6-2.5h0.8l-1,3.6h-0.7l-0.8-2.5l-0.8,2.5h-0.6l-1-3.6h0.8l0.6,2.5l0.7-2.5h0.6L182.7,236.8z
					"/>
				<path class="st6" d="M188,236.1c0,0.5-0.1,0.9-0.4,1.3c-0.1,0.1-0.3,0.3-0.4,0.4c-0.2,0.1-0.3,0.1-0.5,0.1c-0.2,0-0.4,0-0.5-0.1
					c-0.2-0.1-0.3-0.2-0.5-0.3v1.7h-0.8v-5h0.8l0,0.4c0.1-0.1,0.3-0.3,0.4-0.3c0.2-0.1,0.4-0.1,0.5-0.1c0.2,0,0.4,0,0.6,0.1
					c0.2,0.1,0.3,0.2,0.5,0.4C187.9,235.1,188.1,235.6,188,236.1L188,236.1z M187.2,236c0-0.3-0.1-0.6-0.2-0.9
					c-0.1-0.1-0.2-0.2-0.3-0.2c-0.1-0.1-0.2-0.1-0.4-0.1c-0.1,0-0.3,0-0.4,0.1c-0.1,0.1-0.2,0.2-0.3,0.3v1.6
					c0.1,0.1,0.2,0.2,0.3,0.3c0.1,0.1,0.3,0.1,0.4,0.1c0.1,0,0.2,0,0.3-0.1c0.1-0.1,0.2-0.1,0.3-0.2
					C187.2,236.7,187.2,236.4,187.2,236L187.2,236z"/>
				<path class="st6" d="M188.8,236.1c0-0.3,0.1-0.7,0.2-1c0.1-0.3,0.3-0.5,0.6-0.7c0.3-0.2,0.6-0.2,0.9-0.2c0.2,0,0.4,0,0.6,0.1
					c0.2,0.1,0.4,0.2,0.5,0.4c0.3,0.3,0.5,0.8,0.5,1.2v0.2c0,0.3-0.1,0.7-0.2,1c-0.1,0.3-0.3,0.5-0.6,0.6c-0.3,0.2-0.6,0.2-0.9,0.2
					c-0.2,0-0.5,0-0.7-0.1c-0.2-0.1-0.4-0.2-0.6-0.4C188.9,237.1,188.8,236.6,188.8,236.1L188.8,236.1z M189.6,236.1
					c0,0.3,0.1,0.6,0.2,0.9c0.1,0.1,0.2,0.2,0.3,0.2c0.1,0.1,0.2,0.1,0.4,0.1c0.1,0,0.2,0,0.4-0.1c0.1-0.1,0.2-0.1,0.3-0.2
					c0.2-0.3,0.3-0.6,0.2-0.9c0-0.3-0.1-0.6-0.2-0.9c-0.1-0.1-0.2-0.2-0.3-0.2c-0.1-0.1-0.2-0.1-0.4-0.1c-0.1,0-0.2,0-0.4,0.1
					c-0.1,0.1-0.2,0.1-0.3,0.2C189.7,235.5,189.6,235.8,189.6,236.1L189.6,236.1z"/>
				<path class="st6" d="M195,235c-0.1,0-0.2,0-0.3,0c-0.2,0-0.3,0-0.4,0.1c-0.1,0.1-0.2,0.2-0.3,0.3v2.5h-0.8v-3.6h0.8l0,0.4
					c0.1-0.1,0.2-0.3,0.3-0.3c0.1-0.1,0.3-0.1,0.5-0.1c0.1,0,0.2,0,0.3,0L195,235z"/>
				<path class="st6" d="M197,233.4v0.9h0.6v0.6H197v2c0,0.1,0,0.2,0.1,0.3c0,0,0.1,0.1,0.1,0.1c0.1,0,0.1,0,0.2,0
					c0.1,0,0.2,0,0.3,0v0.6c-0.2,0.1-0.4,0.1-0.5,0.1c-0.6,0-0.9-0.3-0.9-1v-2h-0.6v-0.6h0.6v-0.9L197,233.4z"/>
				<path class="st6" d="M199,233.2l-0.1,1.3h-0.5v-1.7h0.6V233.2z M200,233.2l-0.1,1.3h-0.5v-1.7h0.6V233.2z"/>
				<path class="st15" d="M204.4,237.3c0.2,0,0.4-0.1,0.5-0.2c0.1-0.1,0.1-0.1,0.2-0.2c0-0.1,0.1-0.2,0.1-0.2h0.8
					c0,0.2-0.1,0.4-0.2,0.6c-0.1,0.2-0.3,0.4-0.5,0.5c-0.2,0.1-0.5,0.2-0.7,0.2c-0.2,0-0.4,0-0.7-0.1c-0.2-0.1-0.4-0.2-0.5-0.4
					c-0.3-0.4-0.5-0.9-0.4-1.4V236c0-0.5,0.1-0.9,0.4-1.3c0.2-0.2,0.3-0.3,0.5-0.4c0.2-0.1,0.4-0.1,0.7-0.1c0.4,0,0.8,0.1,1.1,0.4
					c0.1,0.1,0.2,0.3,0.3,0.4c0.1,0.2,0.1,0.4,0.1,0.5h-0.8c0-0.2-0.1-0.4-0.2-0.5c-0.1-0.1-0.1-0.1-0.2-0.1c-0.1,0-0.2-0.1-0.3,0
					c-0.1,0-0.2,0-0.3,0.1c-0.1,0-0.2,0.1-0.3,0.2c-0.2,0.3-0.2,0.6-0.2,0.9v0.1c0,0.3,0.1,0.6,0.2,0.9c0.1,0.1,0.2,0.2,0.3,0.2
					C204.1,237.3,204.2,237.3,204.4,237.3z"/>
				<path class="st15" d="M206.6,236.1c0-0.3,0.1-0.7,0.2-1c0.1-0.3,0.3-0.5,0.6-0.7c0.3-0.2,0.6-0.2,0.9-0.2c0.2,0,0.4,0,0.6,0.1
					c0.2,0.1,0.4,0.2,0.5,0.4c0.3,0.3,0.5,0.8,0.5,1.2v0.2c0,0.3-0.1,0.7-0.2,1c-0.1,0.3-0.3,0.5-0.6,0.6c-0.3,0.2-0.6,0.2-0.9,0.2
					c-0.2,0-0.5,0-0.7-0.1s-0.4-0.2-0.6-0.4C206.7,237.1,206.5,236.6,206.6,236.1L206.6,236.1z M207.4,236.1c0,0.3,0.1,0.6,0.2,0.9
					c0.1,0.1,0.2,0.2,0.3,0.2c0.1,0.1,0.2,0.1,0.4,0.1c0.1,0,0.2,0,0.4-0.1c0.1-0.1,0.2-0.1,0.3-0.2c0.2-0.3,0.3-0.6,0.2-0.9
					c0-0.3-0.1-0.6-0.2-0.9c-0.1-0.1-0.2-0.2-0.3-0.2c-0.1-0.1-0.2-0.1-0.4-0.1c-0.1,0-0.2,0-0.4,0.1c-0.1,0.1-0.2,0.1-0.3,0.2
					C207.4,235.5,207.3,235.8,207.4,236.1L207.4,236.1z"/>
				<path class="st15" d="M211.6,234.3l0,0.4c0.1-0.2,0.3-0.3,0.5-0.4c0.2-0.1,0.4-0.1,0.6-0.1c0.8,0,1.1,0.4,1.2,1.3v2.4H213v-2.3
					c0-0.2,0-0.4-0.1-0.5c-0.1-0.1-0.1-0.1-0.2-0.1c-0.1,0-0.2,0-0.3,0c-0.2,0-0.3,0-0.4,0.1c-0.1,0.1-0.2,0.2-0.3,0.3v2.6h-0.8
					v-3.6H211.6z"/>
				<path class="st15" d="M215.9,233.4v0.9h0.6v0.6h-0.6v2c0,0.1,0,0.2,0.1,0.3c0,0,0.1,0.1,0.1,0.1c0.1,0,0.1,0,0.2,0
					c0.1,0,0.2,0,0.3,0v0.6c-0.2,0.1-0.4,0.1-0.5,0.1c-0.6,0-0.9-0.3-0.9-1v-2h-0.6v-0.6h0.6v-0.9L215.9,233.4z"/>
				<path class="st15" d="M219,237.9c-0.2,0-0.5,0-0.7-0.1c-0.2-0.1-0.4-0.2-0.6-0.4c-0.2-0.2-0.3-0.4-0.4-0.6
					c-0.1-0.2-0.1-0.5-0.1-0.7v-0.1c0-0.3,0.1-0.7,0.2-1c0.1-0.3,0.3-0.5,0.6-0.7c0.3-0.2,0.5-0.2,0.8-0.2c0.2,0,0.4,0,0.6,0.1
					c0.2,0.1,0.4,0.2,0.5,0.4c0.3,0.4,0.4,0.9,0.4,1.3v0.3h-2.4c0,0.3,0.1,0.5,0.3,0.7c0.1,0.1,0.2,0.2,0.3,0.2
					c0.1,0,0.2,0.1,0.4,0.1c0.2,0,0.4,0,0.5-0.1c0.2-0.1,0.3-0.2,0.4-0.3l0.4,0.4c-0.1,0.2-0.3,0.4-0.6,0.5
					C219.6,237.9,219.3,238,219,237.9z M218.9,234.9c-0.1,0-0.2,0-0.3,0.1c-0.1,0-0.2,0.1-0.2,0.2c-0.2,0.2-0.2,0.4-0.3,0.6h1.6
					v-0.1c0-0.2-0.1-0.4-0.2-0.6c-0.1-0.1-0.2-0.1-0.2-0.2C219.1,234.9,219,234.9,218.9,234.9z"/>
				<path class="st15" d="M222.1,234.3l0,0.4c0.1-0.2,0.3-0.3,0.5-0.4c0.2-0.1,0.4-0.1,0.6-0.1c0.8,0,1.1,0.4,1.2,1.3v2.4h-0.8v-2.3
					c0-0.2,0-0.4-0.1-0.5c-0.1-0.1-0.1-0.1-0.2-0.1c-0.1,0-0.2,0-0.3,0c-0.2,0-0.3,0-0.4,0.1c-0.1,0.1-0.2,0.2-0.3,0.3v2.6h-0.8
					v-3.6H222.1z"/>
				<path class="st15" d="M226.4,233.4v0.9h0.6v0.6h-0.6v2c0,0.1,0,0.2,0.1,0.3c0,0,0.1,0.1,0.1,0.1c0.1,0,0.1,0,0.2,0
					c0.1,0,0.2,0,0.3,0v0.6c-0.2,0.1-0.4,0.1-0.5,0.1c-0.6,0-0.9-0.3-0.9-1v-2H225v-0.6h0.6v-0.9L226.4,233.4z"/>
				<path class="st13" d="M230.9,235.3H228v-0.7h2.9V235.3z M230.9,236.7H228V236h2.9V236.7z"/>
				<path class="st6" d="M232.5,233.2l-0.1,1.3h-0.5v-1.7h0.6V233.2z M233.5,233.2l-0.1,1.3h-0.5v-1.7h0.6V233.2z"/>
				<path class="st6" d="M234.5,233.3c0-0.1,0-0.2,0.1-0.3c0.1-0.1,0.2-0.1,0.3-0.1c0.1,0,0.2,0,0.3,0.1c0,0,0.1,0.1,0.1,0.1
					c0,0.1,0,0.1,0,0.2c0,0.1,0,0.1,0,0.2c0,0.1-0.1,0.1-0.1,0.1c-0.1,0.1-0.2,0.1-0.3,0.1s-0.2,0-0.3-0.1c0,0-0.1-0.1-0.1-0.1
					C234.5,233.4,234.5,233.4,234.5,233.3z M235.3,237.9h-0.8v-3.6h0.8V237.9z"/>
				<path class="st6" d="M237.2,234.3l0,0.4c0.1-0.2,0.3-0.3,0.5-0.4c0.2-0.1,0.4-0.1,0.6-0.1c0.8,0,1.1,0.4,1.2,1.3v2.4h-0.8v-2.3
					c0-0.2,0-0.4-0.2-0.5c-0.1-0.1-0.1-0.1-0.2-0.1c-0.1,0-0.2,0-0.3,0c-0.2,0-0.3,0-0.4,0.1c-0.1,0.1-0.2,0.2-0.3,0.3v2.6h-0.8
					v-3.6H237.2z"/>
				<path class="st6" d="M240.5,233.3c0-0.1,0-0.2,0.1-0.3c0.1-0.1,0.2-0.1,0.3-0.1s0.2,0,0.3,0.1c0,0,0.1,0.1,0.1,0.1
					c0,0.1,0,0.1,0,0.2c0,0.1,0,0.1,0,0.2c0,0.1-0.1,0.1-0.1,0.1c-0.1,0.1-0.2,0.1-0.3,0.1s-0.2,0-0.3-0.1c0,0-0.1-0.1-0.1-0.1
					C240.5,233.4,240.5,233.4,240.5,233.3z M241.4,237.9h-0.8v-3.6h0.8V237.9z"/>
				<path class="st6" d="M243.5,233.4v0.9h0.6v0.6h-0.6v2c0,0.1,0,0.2,0.1,0.3c0,0,0.1,0.1,0.1,0.1c0.1,0,0.1,0,0.2,0
					c0.1,0,0.2,0,0.3,0v0.6c-0.2,0.1-0.4,0.1-0.5,0.1c-0.6,0-0.9-0.3-0.9-1v-2h-0.6v-0.6h0.6v-0.9L243.5,233.4z"/>
				<path class="st6" d="M245,233.3c0-0.1,0-0.1,0-0.2c0-0.1,0.1-0.1,0.1-0.1c0.1-0.1,0.2-0.1,0.3-0.1c0.1,0,0.2,0,0.3,0.1
					c0,0,0.1,0.1,0.1,0.1c0,0.1,0,0.1,0,0.2c0,0.1,0,0.1,0,0.2c0,0.1-0.1,0.1-0.1,0.1c-0.1,0.1-0.2,0.1-0.3,0.1s-0.2,0-0.3-0.1
					c0,0-0.1-0.1-0.1-0.1C245,233.4,245,233.4,245,233.3z M245.9,237.9h-0.8v-3.6h0.8V237.9z"/>
				<path class="st6" d="M249.2,237.9c0-0.1-0.1-0.2-0.1-0.3c-0.2,0.2-0.6,0.4-0.9,0.4c-0.3,0-0.7-0.1-0.9-0.3
					c-0.1-0.1-0.2-0.2-0.3-0.3c-0.1-0.1-0.1-0.3-0.1-0.4c0-0.2,0-0.3,0.1-0.5c0.1-0.2,0.2-0.3,0.3-0.4c0.4-0.2,0.8-0.3,1.2-0.3h0.5
					v-0.2c0-0.2,0-0.3-0.2-0.4c-0.1-0.1-0.1-0.1-0.2-0.1c-0.1,0-0.2,0-0.3,0c-0.2,0-0.3,0-0.5,0.1c-0.1,0-0.1,0.1-0.1,0.1
					c0,0.1,0,0.1,0,0.2H247c0-0.2,0.1-0.4,0.2-0.6c0.1-0.2,0.3-0.3,0.5-0.4c0.2-0.1,0.5-0.2,0.8-0.1c0.4,0,0.7,0.1,1,0.3
					c0.1,0.1,0.2,0.2,0.3,0.4c0.1,0.2,0.1,0.3,0.1,0.5v1.6c0,0.3,0,0.5,0.1,0.8v0.1L249.2,237.9z M248.3,237.3c0.2,0,0.3,0,0.5-0.1
					c0.1-0.1,0.2-0.2,0.3-0.3v-0.7h-0.4c-0.2,0-0.5,0-0.7,0.2c-0.1,0-0.1,0.1-0.2,0.2c0,0.1-0.1,0.2-0.1,0.3c0,0.1,0,0.1,0,0.2
					c0,0.1,0.1,0.1,0.1,0.2C248,237.3,248.1,237.3,248.3,237.3L248.3,237.3z"/>
				<path class="st6" d="M251.8,237.9H251v-5.1h0.8V237.9z"/>
				<path class="st6" d="M254.6,236.1h-1.8v-0.7h1.8V236.1z"/>
				<path class="st6" d="M257.5,236.9c0-0.1,0-0.1,0-0.2c0-0.1-0.1-0.1-0.1-0.1c-0.2-0.1-0.4-0.2-0.6-0.2c-0.2,0-0.5-0.1-0.7-0.2
					c-0.2-0.1-0.3-0.2-0.4-0.3c-0.1-0.2-0.2-0.3-0.2-0.5c0-0.2,0-0.3,0.1-0.4c0.1-0.1,0.2-0.3,0.3-0.3c0.3-0.2,0.6-0.3,1-0.3
					c0.4,0,0.7,0.1,1,0.3c0.1,0.1,0.2,0.2,0.3,0.4c0.1,0.1,0.1,0.3,0.1,0.5h-0.8c0-0.1,0-0.1,0-0.2c0-0.1-0.1-0.1-0.1-0.2
					c-0.1-0.1-0.3-0.2-0.5-0.2c-0.2,0-0.3,0-0.4,0.1c-0.1,0-0.1,0.1-0.1,0.1c0,0.1,0,0.1,0,0.2c0,0.1,0,0.1,0,0.2
					c0,0.1,0.1,0.1,0.1,0.1c0.2,0.1,0.4,0.2,0.6,0.2c0.3,0,0.5,0.1,0.8,0.2c0.2,0.1,0.3,0.2,0.4,0.3c0.1,0.1,0.1,0.3,0.1,0.5
					c0,0.2,0,0.3-0.1,0.4c-0.1,0.1-0.2,0.3-0.3,0.3c-0.3,0.2-0.7,0.3-1.1,0.3c-0.3,0-0.5,0-0.8-0.2c-0.2-0.1-0.4-0.2-0.5-0.4
					c-0.1-0.2-0.2-0.4-0.2-0.6h0.8c0,0.1,0,0.2,0.1,0.2c0,0.1,0.1,0.1,0.2,0.2c0.2,0.1,0.3,0.2,0.5,0.2c0.2,0,0.3,0,0.5-0.1
					c0.1,0,0.1-0.1,0.1-0.1C257.5,237,257.5,237,257.5,236.9z"/>
				<path class="st6" d="M260.7,237.3c0.2,0,0.4-0.1,0.5-0.2c0.1-0.1,0.1-0.1,0.2-0.2c0-0.1,0.1-0.2,0.1-0.2h0.8
					c0,0.2-0.1,0.4-0.2,0.6c-0.1,0.2-0.3,0.4-0.5,0.5c-0.2,0.1-0.5,0.2-0.7,0.2c-0.2,0-0.4,0-0.7-0.1c-0.2-0.1-0.4-0.2-0.5-0.4
					c-0.3-0.4-0.5-0.9-0.4-1.4V236c0-0.5,0.1-0.9,0.4-1.3c0.2-0.2,0.3-0.3,0.5-0.4c0.2-0.1,0.4-0.1,0.7-0.1c0.4,0,0.8,0.1,1.1,0.4
					c0.1,0.1,0.2,0.3,0.3,0.4c0.1,0.2,0.1,0.4,0.1,0.5h-0.8c0-0.2-0.1-0.4-0.2-0.5c-0.1-0.1-0.1-0.1-0.2-0.2c-0.1,0-0.2-0.1-0.3,0
					c-0.1,0-0.2,0-0.3,0.1c-0.1,0-0.2,0.1-0.3,0.2c-0.2,0.3-0.2,0.6-0.2,0.9v0.1c0,0.3,0.1,0.6,0.2,0.9c0.1,0.1,0.2,0.2,0.3,0.2
					C260.5,237.3,260.6,237.3,260.7,237.3z"/>
				<path class="st6" d="M265.2,237.9c0-0.1-0.1-0.2-0.1-0.3c-0.2,0.2-0.6,0.4-0.9,0.4c-0.3,0-0.7-0.1-0.9-0.3
					c-0.1-0.1-0.2-0.2-0.3-0.3s-0.1-0.3-0.1-0.4c0-0.2,0-0.3,0.1-0.5c0.1-0.2,0.2-0.3,0.3-0.4c0.4-0.2,0.8-0.3,1.2-0.3h0.5v-0.2
					c0-0.2,0-0.3-0.2-0.4c-0.1-0.1-0.1-0.1-0.2-0.1c-0.1,0-0.2,0-0.3,0c-0.2,0-0.3,0-0.5,0.1c-0.1,0-0.1,0.1-0.1,0.1
					c0,0.1,0,0.1,0,0.2H263c0-0.2,0.1-0.4,0.2-0.6c0.1-0.2,0.3-0.3,0.5-0.4c0.2-0.1,0.5-0.2,0.8-0.1c0.4,0,0.7,0.1,1,0.3
					c0.1,0.1,0.2,0.2,0.3,0.4c0.1,0.2,0.1,0.3,0.1,0.5v1.6c0,0.3,0,0.5,0.1,0.8v0.1L265.2,237.9z M264.4,237.3c0.2,0,0.3,0,0.5-0.1
					c0.1-0.1,0.2-0.2,0.3-0.3v-0.7h-0.4c-0.2,0-0.5,0-0.7,0.2c-0.1,0-0.1,0.1-0.2,0.2c0,0.1-0.1,0.2-0.1,0.3c0,0.1,0,0.1,0,0.2
					c0,0.1,0.1,0.1,0.1,0.2C264,237.3,264.2,237.3,264.4,237.3z"/>
				<path class="st6" d="M267.9,237.9h-0.8v-5.1h0.8V237.9z"/>
				<path class="st6" d="M270.6,237.9c-0.2,0-0.5,0-0.7-0.1c-0.2-0.1-0.4-0.2-0.6-0.4c-0.2-0.2-0.3-0.4-0.4-0.6
					c-0.1-0.2-0.1-0.5-0.1-0.7v-0.1c0-0.3,0.1-0.7,0.2-1c0.1-0.3,0.3-0.5,0.6-0.7c0.3-0.2,0.5-0.2,0.8-0.2c0.2,0,0.4,0,0.6,0.1
					s0.4,0.2,0.5,0.4c0.3,0.4,0.4,0.9,0.4,1.3v0.3h-2.4c0,0.3,0.1,0.5,0.3,0.7c0.1,0.1,0.2,0.2,0.3,0.2c0.1,0,0.2,0.1,0.4,0.1
					c0.2,0,0.4,0,0.5-0.1c0.2-0.1,0.3-0.2,0.4-0.3l0.4,0.4c-0.1,0.2-0.3,0.4-0.6,0.5C271.2,237.9,270.9,238,270.6,237.9z
					 M270.5,234.9c-0.1,0-0.2,0-0.3,0.1c-0.1,0-0.2,0.1-0.2,0.2c-0.1,0.2-0.2,0.4-0.3,0.6h1.6v-0.1c0-0.2-0.1-0.4-0.2-0.6
					c-0.1-0.1-0.1-0.1-0.2-0.2C270.7,234.9,270.6,234.9,270.5,234.9z"/>
				<path class="st13" d="M275.9,235.3H273v-0.7h2.9V235.3z M275.9,236.7H273V236h2.9V236.7z"/>
				<path class="st6" d="M279.2,237.9h-0.8V234l-1.2,0.4v-0.7l1.9-0.7h0.1V237.9z"/>
				<path class="st6" d="M281.7,237c0.1,0,0.1,0,0.2,0s0.1,0.1,0.2,0.1c0,0,0.1,0.1,0.1,0.1c0,0.1,0,0.1,0,0.2c0,0.1,0,0.1,0,0.2
					c0,0.1-0.1,0.1-0.1,0.1c-0.1,0.1-0.2,0.1-0.3,0.1s-0.2,0-0.3-0.1c0,0-0.1-0.1-0.1-0.1c0-0.1,0-0.1,0-0.2c0-0.1,0-0.1,0-0.2
					c0-0.1,0.1-0.1,0.1-0.1c0,0,0.1-0.1,0.2-0.1C281.5,237,281.6,237,281.7,237z"/>
				<path class="st6" d="M286.5,235.8c0,0.6-0.1,1.1-0.4,1.6c-0.1,0.2-0.3,0.3-0.5,0.4c-0.2,0.1-0.4,0.1-0.7,0.1
					c-0.2,0-0.5,0-0.7-0.1c-0.2-0.1-0.4-0.2-0.5-0.4c-0.3-0.5-0.4-1-0.4-1.5v-0.8c0-0.6,0.1-1.1,0.4-1.6c0.2-0.2,0.3-0.3,0.5-0.4
					c0.2-0.1,0.4-0.1,0.7-0.1c0.2,0,0.4,0,0.7,0.1c0.2,0.1,0.4,0.2,0.5,0.4c0.3,0.5,0.4,1,0.4,1.5L286.5,235.8z M285.6,234.9
					c0-0.3,0-0.7-0.2-1c-0.1-0.1-0.2-0.2-0.3-0.2c-0.1-0.1-0.2-0.1-0.3-0.1c-0.1,0-0.2,0-0.3,0.1c-0.1,0.1-0.2,0.1-0.3,0.2
					c-0.1,0.3-0.2,0.6-0.2,0.9v1.1c0,0.4,0,0.7,0.2,1c0.1,0.1,0.1,0.2,0.2,0.3c0.1,0.1,0.2,0.1,0.3,0.1c0.1,0,0.2,0,0.3-0.1
					c0.1-0.1,0.2-0.1,0.2-0.2c0.1-0.3,0.2-0.6,0.2-1V234.9z"/>
				<path class="st6" d="M288,233.2l-0.1,1.3h-0.5v-1.7h0.6V233.2z M289,233.2l-0.1,1.3h-0.5v-1.7h0.6L289,233.2z"/>
				<path class="st13" d="M292.1,238.3h-0.6l1.9-5.3h0.6L292.1,238.3z"/>
				<path class="st13" d="M296.9,235.8l-2.1-0.8v-0.8l2.9,1.2v0.6l-2.9,1.2v-0.8L296.9,235.8z"/>
				<path class="st13" d="M123.6,244l2,0.7v0.8l-2.8-1.2v-0.6l2.8-1.2v0.8L123.6,244z"/>
				<path class="st14" d="M127.5,242.5l0,0.4c0.1-0.1,0.3-0.3,0.5-0.3c0.2-0.1,0.4-0.1,0.6-0.1c0.2,0,0.4,0,0.6,0.1
					c0.2,0.1,0.3,0.2,0.4,0.4c0.1-0.2,0.3-0.3,0.5-0.4c0.2-0.1,0.4-0.1,0.6-0.1c0.2,0,0.3,0,0.5,0.1c0.2,0.1,0.3,0.2,0.4,0.3
					c0.2,0.3,0.3,0.6,0.3,1v2.4H131v-2.3c0-0.2,0-0.4-0.2-0.5c-0.1-0.1-0.1-0.1-0.2-0.1c-0.1,0-0.2,0-0.3,0c-0.2,0-0.3,0-0.5,0.1
					c-0.1,0.1-0.2,0.2-0.2,0.4v2.5h-0.8v-2.4c0-0.1,0-0.2,0-0.3c0-0.1-0.1-0.2-0.1-0.2c-0.1-0.1-0.1-0.1-0.2-0.1c-0.1,0-0.2,0-0.3,0
					c-0.1,0-0.3,0-0.4,0.1c-0.1,0.1-0.2,0.2-0.3,0.3v2.6h-0.8v-3.6H127.5z"/>
				<path class="st14" d="M134.5,246.1c-0.2,0-0.5,0-0.7-0.1c-0.2-0.1-0.4-0.2-0.6-0.4c-0.2-0.2-0.3-0.4-0.4-0.6
					c-0.1-0.2-0.1-0.5-0.1-0.7v-0.1c0-0.3,0.1-0.7,0.2-1c0.1-0.3,0.3-0.5,0.6-0.7c0.3-0.2,0.5-0.2,0.8-0.2c0.2,0,0.4,0,0.6,0.1
					c0.2,0.1,0.4,0.2,0.5,0.4c0.3,0.4,0.4,0.9,0.4,1.3v0.3h-2.4c0,0.3,0.1,0.5,0.3,0.7c0.1,0.1,0.2,0.2,0.3,0.2
					c0.1,0,0.2,0.1,0.4,0.1c0.2,0,0.4,0,0.5-0.1c0.2-0.1,0.3-0.2,0.4-0.3l0.4,0.4c-0.1,0.2-0.3,0.4-0.6,0.5
					C135.1,246.1,134.8,246.1,134.5,246.1z M134.4,243c-0.1,0-0.2,0-0.3,0.1c-0.1,0-0.2,0.1-0.2,0.2c-0.1,0.2-0.2,0.4-0.3,0.6h1.6
					v-0.1c0-0.2-0.1-0.4-0.2-0.6c-0.1-0.1-0.2-0.1-0.2-0.2C134.6,243.1,134.5,243,134.4,243z"/>
				<path class="st14" d="M137.9,241.6v0.9h0.6v0.6h-0.6v2c0,0.1,0,0.2,0.1,0.3c0,0,0.1,0.1,0.1,0.1c0.1,0,0.1,0,0.2,0
					c0.1,0,0.2,0,0.3,0v0.6c-0.2,0.1-0.4,0.1-0.5,0.1c-0.6,0-0.9-0.3-0.9-1v-2h-0.6v-0.6h0.6v-0.9L137.9,241.6z"/>
				<path class="st14" d="M141.6,246.1c0-0.1-0.1-0.2-0.1-0.3c-0.2,0.2-0.6,0.4-0.9,0.4c-0.3,0-0.7-0.1-0.9-0.3
					c-0.1-0.1-0.2-0.2-0.3-0.3c-0.1-0.1-0.1-0.3-0.1-0.4c0-0.2,0-0.3,0.1-0.5c0.1-0.2,0.2-0.3,0.3-0.4c0.4-0.2,0.8-0.3,1.2-0.3h0.5
					v-0.2c0-0.2-0.1-0.3-0.2-0.4c-0.1-0.1-0.1-0.1-0.2-0.1c-0.1,0-0.2,0-0.3,0c-0.2,0-0.3,0-0.5,0.1c-0.1,0-0.1,0.1-0.1,0.2
					c0,0.1,0,0.1,0,0.2h-0.8c0-0.2,0.1-0.4,0.2-0.6c0.1-0.2,0.3-0.3,0.5-0.4c0.2-0.1,0.5-0.2,0.8-0.1c0.4,0,0.7,0.1,1,0.3
					c0.1,0.1,0.2,0.3,0.3,0.4c0.1,0.2,0.1,0.3,0.1,0.5v1.6c0,0.3,0,0.5,0.1,0.8v0.1L141.6,246.1z M140.7,245.5c0.2,0,0.3,0,0.5-0.1
					c0.1-0.1,0.2-0.2,0.3-0.3v-0.7H141c-0.2,0-0.5,0-0.7,0.2c-0.1,0-0.1,0.1-0.2,0.2c0,0.1-0.1,0.2-0.1,0.3c0,0.1,0,0.1,0,0.2
					c0,0.1,0.1,0.1,0.1,0.2C140.4,245.4,140.5,245.5,140.7,245.5z"/>
				<path class="st15" d="M146.1,242.9c0.1-0.1,0.3-0.3,0.5-0.3c0.2-0.1,0.4-0.1,0.6-0.1c0.8,0,1.2,0.4,1.2,1.3v2.4h-0.8v-2.3
					c0-0.1,0-0.2,0-0.3c0-0.1-0.1-0.2-0.1-0.2c-0.1-0.1-0.3-0.2-0.5-0.2c-0.2,0-0.3,0-0.4,0.1c-0.1,0.1-0.2,0.2-0.3,0.3v2.6h-0.8
					V241h0.8L146.1,242.9z"/>
				<path class="st15" d="M150.4,241.6v0.9h0.6v0.6h-0.6v2c0,0.1,0,0.2,0.1,0.3c0,0,0.1,0.1,0.1,0.1c0.1,0,0.1,0,0.2,0
					c0.1,0,0.2,0,0.3,0v0.6c-0.2,0.1-0.4,0.1-0.5,0.1c-0.6,0-0.9-0.3-0.9-1v-2H149v-0.6h0.6v-0.9L150.4,241.6z"/>
				<path class="st15" d="M152.9,241.6v0.9h0.6v0.6h-0.6v2c0,0.1,0,0.2,0.1,0.3c0,0,0.1,0.1,0.1,0.1c0.1,0,0.1,0,0.2,0
					c0.1,0,0.2,0,0.3,0v0.6c-0.2,0.1-0.4,0.1-0.5,0.1c-0.6,0-0.9-0.3-0.9-1v-2h-0.6v-0.6h0.6v-0.9L152.9,241.6z"/>
				<path class="st15" d="M157.6,244.3c0,0.5-0.1,0.9-0.4,1.3c-0.1,0.1-0.3,0.3-0.4,0.4c-0.2,0.1-0.3,0.1-0.5,0.1
					c-0.2,0-0.4,0-0.5-0.1c-0.2-0.1-0.3-0.2-0.5-0.3v1.7h-0.8v-5h0.8l0,0.4c0.1-0.1,0.3-0.3,0.4-0.3c0.2-0.1,0.4-0.1,0.5-0.1
					c0.2,0,0.4,0,0.6,0.1c0.2,0.1,0.3,0.2,0.5,0.4C157.4,243.3,157.6,243.8,157.6,244.3L157.6,244.3z M156.7,244.2
					c0-0.3-0.1-0.6-0.2-0.9c-0.1-0.1-0.2-0.2-0.3-0.2c-0.1-0.1-0.2-0.1-0.4-0.1c-0.1,0-0.3,0-0.4,0.1c-0.1,0.1-0.2,0.2-0.3,0.3v1.6
					c0.1,0.1,0.2,0.2,0.3,0.3c0.1,0.1,0.3,0.1,0.4,0.1c0.1,0,0.2,0,0.3-0.1c0.1-0.1,0.2-0.1,0.3-0.2
					C156.7,244.9,156.8,244.6,156.7,244.2L156.7,244.2z"/>
				<path class="st15" d="M160.1,244.3h-1.8v-0.7h1.8V244.3z"/>
				<path class="st15" d="M162.6,246.1c-0.2,0-0.5,0-0.7-0.1c-0.2-0.1-0.4-0.2-0.6-0.4c-0.2-0.2-0.3-0.4-0.4-0.6
					c-0.1-0.2-0.1-0.5-0.1-0.7v-0.1c0-0.3,0.1-0.7,0.2-1c0.1-0.3,0.3-0.5,0.6-0.7c0.3-0.2,0.5-0.2,0.8-0.2c0.2,0,0.4,0,0.6,0.1
					c0.2,0.1,0.4,0.2,0.5,0.4c0.3,0.4,0.4,0.9,0.4,1.3v0.3h-2.4c0,0.3,0.1,0.5,0.3,0.7c0.1,0.1,0.2,0.2,0.3,0.2
					c0.1,0,0.2,0.1,0.4,0.1c0.2,0,0.4,0,0.5-0.1c0.2-0.1,0.3-0.2,0.4-0.3l0.4,0.4c-0.1,0.2-0.3,0.4-0.6,0.5
					C163.1,246.1,162.9,246.1,162.6,246.1z M162.5,243c-0.1,0-0.2,0-0.3,0.1c-0.1,0-0.2,0.1-0.2,0.2c-0.1,0.2-0.2,0.4-0.3,0.6h1.6
					v-0.1c0-0.2-0.1-0.4-0.2-0.6c-0.1-0.1-0.2-0.1-0.2-0.2C162.7,243.1,162.6,243,162.5,243z"/>
				<path class="st15" d="M164.7,244.2c0-0.5,0.1-0.9,0.4-1.3c0.1-0.2,0.3-0.3,0.5-0.4c0.2-0.1,0.4-0.1,0.6-0.1c0.2,0,0.4,0,0.5,0.1
					c0.2,0.1,0.3,0.2,0.4,0.3l0-0.3h0.7v5h-0.8v-1.7c-0.1,0.1-0.3,0.2-0.4,0.3c-0.2,0.1-0.3,0.1-0.5,0.1c-0.2,0-0.4,0-0.6-0.1
					c-0.2-0.1-0.3-0.2-0.5-0.4C164.9,245.2,164.7,244.7,164.7,244.2z M165.6,244.3c0,0.3,0.1,0.6,0.2,0.9c0.1,0.1,0.2,0.2,0.3,0.2
					c0.1,0.1,0.2,0.1,0.3,0.1c0.1,0,0.3,0,0.4-0.1c0.1-0.1,0.2-0.2,0.3-0.3v-1.6c-0.1-0.1-0.2-0.2-0.3-0.3c-0.1-0.1-0.3-0.1-0.4-0.1
					c-0.1,0-0.2,0-0.3,0.1c-0.1,0.1-0.2,0.1-0.3,0.2C165.6,243.6,165.5,244,165.6,244.3L165.6,244.3z"/>
				<path class="st15" d="M171.2,245.7c-0.1,0.1-0.3,0.3-0.5,0.3c-0.2,0.1-0.4,0.1-0.6,0.1c-0.2,0-0.3,0-0.5-0.1
					c-0.2-0.1-0.3-0.2-0.4-0.3c-0.2-0.3-0.3-0.6-0.3-1v-2.3h0.8v2.3c0,0.5,0.2,0.7,0.6,0.7c0.2,0,0.3,0,0.5-0.1
					c0.1-0.1,0.3-0.2,0.3-0.3v-2.6h0.8v3.6h-0.8L171.2,245.7z"/>
				<path class="st15" d="M173.1,241.5c0-0.1,0-0.1,0-0.2c0-0.1,0.1-0.1,0.1-0.1c0.1-0.1,0.2-0.1,0.3-0.1c0.1,0,0.2,0,0.3,0.1
					c0,0,0.1,0.1,0.1,0.1c0,0.1,0,0.1,0,0.2c0,0.1,0,0.1,0,0.2c0,0.1-0.1,0.1-0.1,0.1c-0.1,0.1-0.2,0.1-0.3,0.1s-0.2,0-0.3-0.1
					c0,0-0.1-0.1-0.1-0.1C173.1,241.6,173.1,241.6,173.1,241.5z M174,246.1h-0.8v-3.6h0.8V246.1z"/>
				<path class="st15" d="M176.4,245l0.8-2.6h0.8l-1.3,3.6H176l-1.3-3.6h0.8L176.4,245z"/>
				<path class="st13" d="M181.7,243.5h-2.9v-0.7h2.9V243.5z M181.7,244.9h-2.9v-0.7h2.9V244.9z"/>
				<path class="st6" d="M183.3,241.4l-0.1,1.3h-0.5v-1.7h0.6V241.4z M184.3,241.4l-0.1,1.3h-0.5v-1.7h0.6V241.4z"/>
				<path class="st6" d="M186.6,243.6l0.7-1.2h0.9l-1.1,1.8l1.1,1.8h-0.9l-0.7-1.2l-0.7,1.2h-0.9l1.1-1.8l-1.1-1.8h0.9L186.6,243.6z
					"/>
				<path class="st6" d="M190.5,244.3h-1.8v-0.7h1.8V244.3z"/>
				<path class="st6" d="M193.6,245.7c-0.1,0.1-0.3,0.3-0.5,0.3c-0.2,0.1-0.4,0.1-0.6,0.1c-0.2,0-0.3,0-0.5-0.1
					c-0.2-0.1-0.3-0.2-0.4-0.3c-0.2-0.3-0.3-0.6-0.3-1v-2.3h0.8v2.3c0,0.5,0.2,0.7,0.6,0.7c0.2,0,0.3,0,0.5-0.1
					c0.1-0.1,0.3-0.2,0.3-0.3v-2.6h0.8v3.6h-0.8L193.6,245.7z"/>
				<path class="st6" d="M197.7,246.1c0-0.1-0.1-0.2-0.1-0.3c-0.2,0.2-0.6,0.4-0.9,0.4c-0.3,0-0.7-0.1-0.9-0.3
					c-0.1-0.1-0.2-0.2-0.3-0.3c-0.1-0.1-0.1-0.3-0.1-0.4c0-0.2,0-0.3,0.1-0.5c0.1-0.2,0.2-0.3,0.3-0.4c0.4-0.2,0.8-0.3,1.2-0.3h0.5
					v-0.2c0-0.2-0.1-0.3-0.2-0.4c-0.1-0.1-0.1-0.1-0.2-0.1c-0.1,0-0.2,0-0.3,0c-0.2,0-0.3,0-0.5,0.1c-0.1,0-0.1,0.1-0.1,0.2
					c0,0.1,0,0.1,0,0.2h-0.8c0-0.2,0.1-0.4,0.2-0.6c0.1-0.2,0.3-0.3,0.5-0.4c0.2-0.1,0.5-0.2,0.8-0.1c0.4,0,0.7,0.1,1,0.3
					c0.1,0.1,0.2,0.2,0.3,0.4c0.1,0.2,0.1,0.3,0.1,0.5v1.6c0,0.3,0,0.5,0.1,0.8v0.1L197.7,246.1z M196.8,245.5c0.2,0,0.3,0,0.5-0.1
					c0.1-0.1,0.2-0.2,0.3-0.3v-0.7h-0.4c-0.2,0-0.5,0-0.7,0.2c-0.1,0-0.1,0.1-0.2,0.2c0,0.1-0.1,0.2-0.1,0.3c0,0.1,0,0.1,0,0.2
					c0,0.1,0.1,0.1,0.1,0.2C196.5,245.4,196.6,245.5,196.8,245.5z"/>
				<path class="st6" d="M201,244.3h-1.8v-0.7h1.8V244.3z"/>
				<path class="st6" d="M203.4,245.5c0.2,0,0.4-0.1,0.5-0.2c0.1-0.1,0.1-0.1,0.2-0.2c0-0.1,0.1-0.2,0.1-0.2h0.8
					c0,0.2-0.1,0.4-0.2,0.6c-0.1,0.2-0.3,0.4-0.5,0.5c-0.2,0.1-0.5,0.2-0.7,0.2c-0.2,0-0.5,0-0.7-0.1c-0.2-0.1-0.4-0.2-0.6-0.4
					c-0.3-0.4-0.5-0.9-0.4-1.4v-0.1c0-0.5,0.1-0.9,0.4-1.3c0.2-0.2,0.3-0.3,0.5-0.4c0.2-0.1,0.4-0.1,0.7-0.1c0.4,0,0.8,0.1,1.1,0.4
					c0.1,0.1,0.2,0.3,0.3,0.4c0.1,0.2,0.1,0.4,0.1,0.5h-0.8c0-0.2-0.1-0.4-0.2-0.5c-0.1-0.1-0.1-0.1-0.2-0.2c-0.1,0-0.2-0.1-0.3,0
					c-0.1,0-0.2,0-0.3,0.1c-0.1,0-0.2,0.1-0.3,0.2c-0.2,0.3-0.2,0.6-0.2,0.9v0.1c0,0.3,0.1,0.6,0.2,0.9c0.1,0.1,0.2,0.2,0.3,0.2
					C203.2,245.5,203.3,245.5,203.4,245.5z"/>
				<path class="st6" d="M205.6,244.2c0-0.3,0.1-0.7,0.2-1c0.1-0.3,0.3-0.5,0.6-0.7c0.3-0.2,0.6-0.2,0.9-0.2c0.2,0,0.4,0,0.6,0.1
					c0.2,0.1,0.4,0.2,0.5,0.4c0.3,0.3,0.5,0.8,0.5,1.2v0.2c0,0.3-0.1,0.7-0.2,1c-0.1,0.3-0.3,0.5-0.6,0.6c-0.3,0.2-0.6,0.2-0.9,0.2
					c-0.2,0-0.5,0-0.7-0.1c-0.2-0.1-0.4-0.2-0.6-0.4C205.7,245.3,205.6,244.8,205.6,244.2L205.6,244.2z M206.4,244.3
					c0,0.3,0.1,0.6,0.2,0.9c0.1,0.1,0.2,0.2,0.3,0.2c0.1,0.1,0.2,0.1,0.4,0.1c0.1,0,0.2,0,0.4-0.1c0.1-0.1,0.2-0.1,0.3-0.2
					c0.2-0.3,0.3-0.6,0.2-0.9c0-0.3-0.1-0.6-0.2-0.9c-0.1-0.1-0.2-0.2-0.3-0.2c-0.1-0.1-0.2-0.1-0.4-0.1c-0.1,0-0.2,0-0.4,0.1
					c-0.1,0.1-0.2,0.1-0.3,0.2C206.5,243.7,206.4,244,206.4,244.3L206.4,244.3z"/>
				<path class="st6" d="M210.7,242.5l0,0.4c0.1-0.1,0.3-0.3,0.5-0.3c0.2-0.1,0.4-0.1,0.6-0.1c0.2,0,0.4,0,0.6,0.1
					c0.2,0.1,0.3,0.2,0.4,0.4c0.1-0.2,0.3-0.3,0.5-0.4c0.2-0.1,0.4-0.1,0.6-0.1c0.2,0,0.3,0,0.5,0.1c0.2,0.1,0.3,0.2,0.4,0.3
					c0.2,0.3,0.3,0.6,0.3,1v2.4h-0.8v-2.3c0-0.2,0-0.4-0.2-0.5c-0.1-0.1-0.3-0.2-0.5-0.2c-0.2,0-0.3,0.1-0.5,0.2
					c-0.1,0.1-0.2,0.2-0.2,0.4v2.5h-0.8v-2.4c0-0.1,0-0.2,0-0.3c0-0.1-0.1-0.2-0.1-0.2c-0.1-0.1-0.1-0.1-0.2-0.1c-0.1,0-0.2,0-0.3,0
					c-0.1,0-0.3,0-0.4,0.1c-0.1,0.1-0.2,0.2-0.3,0.3v2.6h-0.8v-3.6H210.7z"/>
				<path class="st6" d="M219.3,244.3c0,0.5-0.1,0.9-0.4,1.3c-0.1,0.2-0.3,0.3-0.5,0.4c-0.2,0.1-0.4,0.1-0.6,0.1
					c-0.2,0-0.4,0-0.5-0.1c-0.2-0.1-0.3-0.2-0.4-0.3v1.7h-0.8v-5h0.8l0,0.4c0.1-0.1,0.3-0.3,0.4-0.3c0.2-0.1,0.4-0.1,0.5-0.1
					c0.2,0,0.4,0,0.6,0.1c0.2,0.1,0.3,0.2,0.5,0.4C219.2,243.3,219.3,243.8,219.3,244.3L219.3,244.3z M218.5,244.2
					c0-0.3-0.1-0.6-0.2-0.9c-0.1-0.1-0.2-0.2-0.3-0.2c-0.1-0.1-0.2-0.1-0.4-0.1c-0.1,0-0.3,0-0.4,0.1c-0.1,0.1-0.2,0.2-0.3,0.3v1.6
					c0.1,0.1,0.2,0.2,0.3,0.3c0.1,0.1,0.3,0.1,0.4,0.1c0.1,0,0.2,0,0.3-0.1c0.1-0.1,0.2-0.1,0.3-0.2
					C218.4,244.9,218.5,244.6,218.5,244.2L218.5,244.2z"/>
				<path class="st6" d="M222.4,246.1c0-0.1-0.1-0.2-0.1-0.3c-0.2,0.2-0.6,0.4-0.9,0.4c-0.3,0-0.7-0.1-0.9-0.3
					c-0.1-0.1-0.2-0.2-0.3-0.3c-0.1-0.1-0.1-0.3-0.1-0.4c0-0.2,0-0.3,0.1-0.5c0.1-0.2,0.2-0.3,0.3-0.4c0.4-0.2,0.8-0.3,1.2-0.3h0.5
					v-0.2c0-0.2-0.1-0.3-0.2-0.4c-0.1-0.1-0.1-0.1-0.2-0.1c-0.1,0-0.2,0-0.3,0c-0.2,0-0.3,0-0.5,0.1c-0.1,0-0.1,0.1-0.1,0.2
					c0,0.1,0,0.1-0.1,0.2h-0.8c0-0.2,0.1-0.4,0.2-0.6c0.1-0.2,0.3-0.3,0.5-0.4c0.2-0.1,0.5-0.2,0.8-0.1c0.4,0,0.7,0.1,1,0.3
					c0.1,0.1,0.2,0.2,0.3,0.4c0.1,0.2,0.1,0.3,0.1,0.5v1.6c0,0.3,0,0.5,0.1,0.8v0.1L222.4,246.1z M221.5,245.5c0.2,0,0.3,0,0.5-0.1
					c0.1-0.1,0.2-0.2,0.3-0.3v-0.7h-0.4c-0.2,0-0.5,0-0.7,0.2c-0.1,0-0.1,0.1-0.2,0.2c0,0.1-0.1,0.2-0.1,0.3c0,0.1,0,0.1,0,0.2
					c0,0.1,0.1,0.1,0.1,0.2C221.2,245.4,221.4,245.5,221.5,245.5z"/>
				<path class="st6" d="M225.2,241.6v0.9h0.6v0.6h-0.6v2c0,0.1,0,0.2,0.1,0.3c0,0,0.1,0.1,0.1,0.1c0,0,0.1,0,0.2,0
					c0.1,0,0.2,0,0.3,0v0.6c-0.2,0.1-0.4,0.1-0.5,0.1c-0.6,0-0.9-0.3-0.9-1v-2h-0.6v-0.6h0.6v-0.9L225.2,241.6z"/>
				<path class="st6" d="M226.7,241.5c0-0.1,0-0.2,0.1-0.3c0.1-0.1,0.2-0.1,0.3-0.1c0.1,0,0.2,0,0.3,0.1c0,0,0.1,0.1,0.1,0.1
					c0,0.1,0,0.1,0,0.2c0,0.1,0,0.1,0,0.2c0,0.1-0.1,0.1-0.1,0.1c-0.1,0.1-0.2,0.1-0.3,0.1s-0.2,0-0.3-0.1c0,0-0.1-0.1-0.1-0.1
					C226.7,241.6,226.7,241.6,226.7,241.5z M227.6,246.1h-0.8v-3.6h0.8V246.1z"/>
				<path class="st6" d="M231.9,244.3c0,0.5-0.1,0.9-0.4,1.3c-0.1,0.2-0.3,0.3-0.5,0.4c-0.2,0.1-0.4,0.1-0.6,0.1
					c-0.2,0-0.4,0-0.6-0.1c-0.2-0.1-0.3-0.2-0.4-0.3l0,0.4h-0.7v-5.1h0.8v1.9c0.1-0.1,0.3-0.2,0.4-0.3c0.2-0.1,0.3-0.1,0.5-0.1
					c0.2,0,0.4,0,0.6,0.1c0.2,0.1,0.3,0.2,0.5,0.4C231.8,243.3,231.9,243.8,231.9,244.3L231.9,244.3z M231.1,244.2
					c0-0.3-0.1-0.6-0.2-0.9c-0.1-0.1-0.2-0.2-0.3-0.2c-0.1-0.1-0.2-0.1-0.3-0.1c-0.2,0-0.3,0-0.4,0.1c-0.1,0.1-0.2,0.2-0.3,0.3v1.5
					c0.1,0.1,0.2,0.3,0.3,0.4c0.1,0.1,0.3,0.1,0.5,0.1c0.1,0,0.2,0,0.3-0.1c0.1,0,0.2-0.1,0.3-0.2c0.2-0.3,0.2-0.6,0.2-0.9V244.2z"
					/>
				<path class="st6" d="M233.7,246.1h-0.8v-5.1h0.8V246.1z"/>
				<path class="st6" d="M236.4,246.1c-0.2,0-0.5,0-0.7-0.1c-0.2-0.1-0.4-0.2-0.6-0.4c-0.2-0.2-0.3-0.4-0.4-0.6
					c-0.1-0.2-0.1-0.5-0.1-0.7v-0.1c0-0.3,0.1-0.7,0.2-1c0.1-0.3,0.3-0.5,0.6-0.7c0.3-0.2,0.5-0.2,0.8-0.2c0.2,0,0.4,0,0.6,0.1
					c0.2,0.1,0.4,0.2,0.5,0.4c0.3,0.4,0.4,0.9,0.4,1.3v0.3h-2.4c0,0.3,0.1,0.5,0.3,0.7c0.1,0.1,0.2,0.2,0.3,0.2s0.2,0.1,0.4,0.1
					c0.2,0,0.4,0,0.5-0.1c0.2-0.1,0.3-0.2,0.4-0.3l0.4,0.4c-0.1,0.2-0.3,0.4-0.6,0.5C237,246.1,236.7,246.1,236.4,246.1z M236.3,243
					c-0.1,0-0.2,0-0.3,0.1c-0.1,0-0.2,0.1-0.2,0.2c-0.1,0.2-0.2,0.4-0.3,0.6h1.6v-0.1c0-0.2-0.1-0.4-0.2-0.6
					c-0.1-0.1-0.2-0.1-0.2-0.2C236.5,243.1,236.4,243,236.3,243z"/>
				<path class="st6" d="M239.2,241.4l-0.1,1.3h-0.5v-1.7h0.6V241.4z M240.2,241.4l-0.1,1.3h-0.5v-1.7h0.6V241.4z"/>
				<path class="st15" d="M244.6,245.5c0.2,0,0.4-0.1,0.5-0.2c0.1-0.1,0.1-0.1,0.2-0.2c0-0.1,0.1-0.2,0.1-0.2h0.8
					c0,0.2-0.1,0.4-0.2,0.6c-0.1,0.2-0.3,0.4-0.5,0.5c-0.2,0.1-0.5,0.2-0.7,0.2c-0.2,0-0.4,0-0.7-0.1c-0.2-0.1-0.4-0.2-0.5-0.4
					c-0.3-0.4-0.5-0.9-0.4-1.4v-0.1c0-0.5,0.1-0.9,0.4-1.3c0.2-0.2,0.3-0.3,0.5-0.4c0.2-0.1,0.4-0.1,0.7-0.1c0.4,0,0.8,0.1,1.1,0.4
					c0.1,0.1,0.2,0.3,0.3,0.4c0.1,0.2,0.1,0.4,0.1,0.5h-0.8c0-0.2-0.1-0.4-0.2-0.5c-0.1-0.1-0.1-0.1-0.2-0.2c-0.1,0-0.2-0.1-0.3,0
					c-0.1,0-0.2,0-0.3,0.1c-0.1,0-0.2,0.1-0.3,0.2c-0.2,0.3-0.2,0.6-0.2,0.9v0.1c0,0.3,0.1,0.6,0.2,0.9c0.1,0.1,0.2,0.2,0.3,0.2
					C244.3,245.5,244.5,245.5,244.6,245.5z"/>
				<path class="st15" d="M246.8,244.2c0-0.3,0.1-0.7,0.2-1c0.1-0.3,0.3-0.5,0.6-0.7c0.3-0.2,0.6-0.2,0.9-0.2c0.2,0,0.4,0,0.6,0.1
					c0.2,0.1,0.4,0.2,0.5,0.4c0.3,0.3,0.5,0.8,0.5,1.2v0.2c0,0.3-0.1,0.7-0.2,1c-0.1,0.3-0.3,0.5-0.6,0.6c-0.3,0.2-0.6,0.2-0.9,0.2
					c-0.2,0-0.5,0-0.7-0.1c-0.2-0.1-0.4-0.2-0.6-0.4C246.9,245.3,246.7,244.8,246.8,244.2L246.8,244.2z M247.6,244.3
					c0,0.3,0.1,0.6,0.2,0.9c0.1,0.1,0.2,0.2,0.3,0.2c0.1,0.1,0.2,0.1,0.4,0.1c0.1,0,0.2,0,0.4-0.1c0.1-0.1,0.2-0.1,0.3-0.2
					c0.2-0.3,0.2-0.6,0.2-0.9c0-0.3-0.1-0.6-0.2-0.9c-0.1-0.1-0.2-0.2-0.3-0.2c-0.1-0.1-0.2-0.1-0.4-0.1c-0.1,0-0.2,0-0.4,0.1
					c-0.1,0.1-0.2,0.1-0.3,0.2C247.6,243.6,247.6,244,247.6,244.3L247.6,244.3z"/>
				<path class="st15" d="M251.8,242.5l0,0.4c0.1-0.2,0.3-0.3,0.5-0.4s0.4-0.1,0.6-0.1c0.8,0,1.1,0.4,1.2,1.3v2.4h-0.8v-2.3
					c0-0.2,0-0.4-0.2-0.5c-0.1-0.1-0.1-0.1-0.2-0.1c-0.1,0-0.2,0-0.3,0c-0.2,0-0.3,0-0.4,0.1c-0.1,0.1-0.2,0.2-0.3,0.3v2.6h-0.8
					v-3.6H251.8z"/>
				<path class="st15" d="M256.1,241.6v0.9h0.6v0.6h-0.6v2c0,0.1,0,0.2,0.1,0.3c0,0,0.1,0.1,0.1,0.1s0.1,0,0.2,0c0.1,0,0.2,0,0.3,0
					v0.6c-0.2,0.1-0.4,0.1-0.5,0.1c-0.6,0-0.9-0.3-0.9-1v-2h-0.6v-0.6h0.6v-0.9L256.1,241.6z"/>
				<path class="st15" d="M259.2,246.1c-0.2,0-0.5,0-0.7-0.1c-0.2-0.1-0.4-0.2-0.6-0.4c-0.2-0.2-0.3-0.4-0.4-0.6
					c-0.1-0.2-0.1-0.5-0.1-0.7v-0.1c0-0.3,0.1-0.7,0.2-1c0.1-0.3,0.3-0.5,0.6-0.7c0.3-0.2,0.5-0.2,0.8-0.2c0.2,0,0.4,0,0.6,0.1
					c0.2,0.1,0.4,0.2,0.5,0.4c0.3,0.4,0.4,0.9,0.4,1.3v0.3h-2.4c0,0.3,0.1,0.5,0.3,0.7c0.1,0.1,0.2,0.2,0.3,0.2
					c0.1,0,0.2,0.1,0.4,0.1c0.2,0,0.4,0,0.5-0.1s0.3-0.2,0.4-0.3l0.4,0.4c-0.1,0.2-0.3,0.4-0.6,0.5
					C259.8,246.1,259.5,246.1,259.2,246.1z M259.1,243c-0.1,0-0.2,0-0.3,0.1c-0.1,0-0.2,0.1-0.2,0.2c-0.1,0.2-0.2,0.4-0.3,0.6h1.6
					v-0.1c0-0.2-0.1-0.4-0.2-0.6c-0.1-0.1-0.1-0.1-0.2-0.2C259.3,243.1,259.2,243,259.1,243z"/>
				<path class="st15" d="M262.3,242.5l0,0.4c0.1-0.2,0.3-0.3,0.5-0.4c0.2-0.1,0.4-0.1,0.6-0.1c0.8,0,1.1,0.4,1.2,1.3v2.4h-0.8v-2.3
					c0-0.2,0-0.4-0.1-0.5c-0.1-0.1-0.1-0.1-0.2-0.1c-0.1,0-0.2,0-0.3,0c-0.2,0-0.3,0-0.4,0.1s-0.2,0.2-0.3,0.3v2.6h-0.8v-3.6H262.3z
					"/>
				<path class="st15" d="M266.6,241.6v0.9h0.6v0.6h-0.6v2c0,0.1,0,0.2,0.1,0.3c0,0,0.1,0.1,0.1,0.1c0,0,0.1,0,0.2,0
					c0.1,0,0.2,0,0.3,0v0.6c-0.2,0.1-0.4,0.1-0.5,0.1c-0.6,0-0.9-0.3-0.9-1v-2h-0.6v-0.6h0.6v-0.9L266.6,241.6z"/>
				<path class="st13" d="M271.1,243.5h-2.9v-0.7h2.9V243.5z M271.1,244.9h-2.9v-0.7h2.9V244.9z"/>
				<path class="st6" d="M272.7,241.4l-0.1,1.3h-0.5v-1.7h0.6V241.4z M273.7,241.4l-0.1,1.3h-0.5v-1.7h0.6V241.4z"/>
				<path class="st6" d="M274.7,241.5c0-0.1,0-0.2,0.1-0.3c0,0,0.1-0.1,0.2-0.1c0.1,0,0.1,0,0.2,0c0.1,0,0.1,0,0.2,0
					c0.1,0,0.1,0.1,0.2,0.1c0.1,0.1,0.1,0.2,0.1,0.3c0,0.1,0,0.1,0,0.2c0,0.1-0.1,0.1-0.1,0.1c0,0-0.1,0.1-0.2,0.1
					c-0.1,0-0.1,0-0.2,0c-0.1,0-0.1,0-0.2,0c-0.1,0-0.1-0.1-0.2-0.1c0,0-0.1-0.1-0.1-0.1C274.7,241.6,274.7,241.6,274.7,241.5z
					 M275.6,246.1h-0.8v-3.6h0.8V246.1z"/>
				<path class="st6" d="M278.3,246.1c-0.2,0-0.5,0-0.7-0.1c-0.2-0.1-0.4-0.2-0.6-0.4c-0.2-0.2-0.3-0.4-0.4-0.6
					c-0.1-0.2-0.1-0.5-0.1-0.7v-0.1c0-0.3,0.1-0.7,0.2-1c0.1-0.3,0.3-0.5,0.6-0.7c0.3-0.2,0.5-0.2,0.8-0.2c0.2,0,0.4,0,0.6,0.1
					c0.2,0.1,0.4,0.2,0.5,0.4c0.3,0.4,0.4,0.9,0.4,1.3v0.3h-2.4c0,0.3,0.1,0.5,0.3,0.7c0.1,0.1,0.2,0.2,0.3,0.2
					c0.1,0,0.2,0.1,0.4,0.1c0.2,0,0.4,0,0.5-0.1c0.2-0.1,0.3-0.2,0.4-0.3l0.4,0.4c-0.1,0.2-0.3,0.4-0.6,0.5
					C278.8,246.1,278.6,246.1,278.3,246.1z M278.2,243c-0.1,0-0.2,0-0.3,0.1c-0.1,0-0.2,0.1-0.2,0.2c-0.1,0.2-0.2,0.4-0.3,0.6h1.6
					v-0.1c0-0.2-0.1-0.4-0.2-0.6c-0.1-0.1-0.2-0.1-0.2-0.2C278.4,243.1,278.3,243,278.2,243z"/>
				<path class="st6" d="M283.6,243.5h-2.9v-0.7h2.9V243.5z M283.6,244.9h-2.9v-0.7h2.9V244.9z"/>
				<path class="st6" d="M286.3,246.1c-0.2,0-0.5,0-0.7-0.1c-0.2-0.1-0.4-0.2-0.6-0.4c-0.2-0.2-0.3-0.4-0.4-0.6
					c-0.1-0.2-0.1-0.5-0.1-0.7v-0.1c0-0.3,0.1-0.7,0.2-1c0.1-0.3,0.3-0.5,0.6-0.7c0.3-0.2,0.5-0.2,0.8-0.2c0.2,0,0.4,0,0.6,0.1
					c0.2,0.1,0.4,0.2,0.5,0.4c0.3,0.4,0.4,0.9,0.4,1.3v0.3h-2.4c0,0.3,0.1,0.5,0.3,0.7c0.1,0.1,0.2,0.2,0.3,0.2
					c0.1,0,0.2,0.1,0.4,0.1c0.2,0,0.4,0,0.5-0.1c0.2-0.1,0.3-0.2,0.4-0.3l0.4,0.4c-0.1,0.2-0.3,0.4-0.6,0.5
					C286.8,246.1,286.6,246.1,286.3,246.1z M286.2,243c-0.1,0-0.2,0-0.3,0.1c-0.1,0-0.2,0.1-0.2,0.2c-0.2,0.2-0.2,0.4-0.3,0.6h1.5
					v-0.1c0-0.2-0.1-0.4-0.2-0.6c-0.1-0.1-0.1-0.1-0.2-0.2S286.3,243,286.2,243z"/>
				<path class="st6" d="M288.5,244.2c0-0.5,0.1-0.9,0.4-1.3c0.1-0.2,0.3-0.3,0.5-0.4c0.2-0.1,0.4-0.1,0.6-0.1c0.2,0,0.3,0,0.5,0.1
					c0.2,0.1,0.3,0.2,0.4,0.3V241h0.8v5.1h-0.7l0-0.4c-0.1,0.1-0.3,0.3-0.4,0.3c-0.2,0.1-0.4,0.1-0.5,0.1c-0.2,0-0.4,0-0.6-0.1
					c-0.2-0.1-0.3-0.2-0.5-0.4C288.6,245.2,288.4,244.7,288.5,244.2z M289.3,244.3c0,0.3,0.1,0.6,0.2,0.9c0.1,0.1,0.2,0.2,0.3,0.2
					c0.1,0.1,0.2,0.1,0.3,0.1c0.2,0,0.3,0,0.4-0.1c0.1-0.1,0.2-0.2,0.3-0.3v-1.5c-0.1-0.1-0.2-0.2-0.3-0.3c-0.1-0.1-0.3-0.1-0.4-0.1
					c-0.1,0-0.2,0-0.3,0.1c-0.1,0.1-0.2,0.1-0.3,0.2C289.3,243.7,289.2,244,289.3,244.3L289.3,244.3z"/>
				<path class="st6" d="M292.6,244.2c0-0.5,0.1-1,0.4-1.3c0.1-0.2,0.3-0.3,0.5-0.4c0.2-0.1,0.4-0.1,0.6-0.1c0.2,0,0.4,0,0.5,0.1
					c0.2,0.1,0.3,0.2,0.4,0.3l0-0.4h0.7v3.5c0,0.2,0,0.4-0.1,0.6c-0.1,0.2-0.2,0.4-0.3,0.5c-0.3,0.3-0.8,0.4-1.2,0.4
					c-0.3,0-0.5-0.1-0.8-0.2c-0.2-0.1-0.4-0.2-0.6-0.4l0.4-0.5c0.1,0.1,0.2,0.3,0.4,0.3c0.2,0.1,0.3,0.1,0.5,0.1
					c0.2,0,0.5-0.1,0.6-0.2c0.1-0.1,0.1-0.2,0.2-0.3s0.1-0.2,0-0.3v-0.2c-0.1,0.1-0.3,0.2-0.4,0.3c-0.2,0.1-0.3,0.1-0.5,0.1
					c-0.2,0-0.4,0-0.6-0.1c-0.2-0.1-0.3-0.2-0.5-0.4C292.7,245.2,292.6,244.7,292.6,244.2z M293.4,244.3c0,0.3,0.1,0.6,0.2,0.9
					c0.1,0.1,0.2,0.2,0.3,0.2s0.2,0.1,0.4,0.1c0.1,0,0.3,0,0.4-0.1c0.1-0.1,0.2-0.2,0.3-0.3v-1.6c-0.1-0.1-0.2-0.2-0.3-0.3
					c-0.1-0.1-0.3-0.1-0.4-0.1c-0.1,0-0.2,0-0.4,0.1c-0.1,0.1-0.2,0.1-0.3,0.2C293.4,243.7,293.4,244,293.4,244.3L293.4,244.3z"/>
				<path class="st6" d="M298.4,246.1c-0.2,0-0.5,0-0.7-0.1c-0.2-0.1-0.4-0.2-0.6-0.4c-0.2-0.2-0.3-0.4-0.4-0.6
					c-0.1-0.2-0.1-0.5-0.1-0.7v-0.1c0-0.3,0.1-0.7,0.2-1c0.1-0.3,0.3-0.5,0.6-0.7c0.3-0.2,0.5-0.2,0.8-0.2c0.2,0,0.4,0,0.6,0.1
					c0.2,0.1,0.4,0.2,0.5,0.4c0.3,0.4,0.4,0.9,0.4,1.3v0.3h-2.4c0,0.3,0.1,0.5,0.3,0.7c0.1,0.1,0.2,0.2,0.3,0.2
					c0.1,0,0.2,0.1,0.4,0.1c0.2,0,0.4,0,0.5-0.1c0.2-0.1,0.3-0.2,0.4-0.3l0.4,0.4c-0.1,0.2-0.3,0.4-0.6,0.5
					C299,246.1,298.7,246.1,298.4,246.1z M298.4,243c-0.1,0-0.2,0-0.3,0.1c-0.1,0-0.2,0.1-0.2,0.2c-0.2,0.2-0.2,0.4-0.3,0.6h1.6
					v-0.1c0-0.2-0.1-0.4-0.2-0.6c-0.1-0.1-0.1-0.1-0.2-0.2C298.5,243.1,298.4,243,298.4,243z"/>
				<path class="st6" d="M301.2,241.4l-0.1,1.3h-0.5v-1.7h0.6V241.4z M302.2,241.4l-0.1,1.3h-0.5v-1.7h0.6V241.4z"/>
				<path class="st13" d="M305.4,246.5h-0.6l1.9-5.3h0.6L305.4,246.5z"/>
				<path class="st13" d="M310.2,243.9l-2.1-0.8v-0.8l2.9,1.2v0.6l-2.9,1.2v-0.8L310.2,243.9z"/>
				<path class="st13" d="M123.6,252.2l2,0.7v0.8l-2.8-1.2v-0.6l2.8-1.2v0.8L123.6,252.2z"/>
				<path class="st14" d="M127.6,254.3h-0.8v-5.1h0.8V254.3z"/>
				<path class="st14" d="M128.7,249.7c0-0.1,0-0.2,0.1-0.3c0.1-0.1,0.2-0.1,0.3-0.1c0.1,0,0.2,0,0.3,0.1c0,0,0.1,0.1,0.1,0.1
					c0,0.1,0,0.1,0,0.2c0,0.1,0,0.1,0,0.2c0,0.1-0.1,0.1-0.1,0.1c-0.1,0.1-0.2,0.1-0.3,0.1s-0.2,0-0.3-0.1c0,0-0.1-0.1-0.1-0.1
					C128.7,249.8,128.7,249.8,128.7,249.7z M129.6,254.2h-0.8v-3.6h0.8V254.2z"/>
				<path class="st14" d="M131.5,250.7l0,0.4c0.1-0.2,0.3-0.3,0.5-0.4c0.2-0.1,0.4-0.1,0.6-0.1c0.8,0,1.1,0.4,1.2,1.3v2.4h-0.8v-2.3
					c0-0.2,0-0.4-0.1-0.5c-0.1-0.1-0.1-0.1-0.2-0.1c-0.1,0-0.2,0-0.3,0c-0.2,0-0.3,0-0.4,0.1c-0.1,0.1-0.2,0.2-0.3,0.3v2.6h-0.8
					v-3.6H131.5z"/>
				<path class="st14" d="M136,252.7l-0.4,0.4v1.2h-0.8v-5.1h0.8v3l0.3-0.3l1-1.1h1l-1.3,1.5l1.5,2.1h-1L136,252.7z"/>
				<path class="st15" d="M142.4,251.4c-0.1,0-0.2,0-0.3,0c-0.2,0-0.3,0-0.4,0.1c-0.1,0.1-0.2,0.2-0.3,0.3v2.5h-0.8v-3.6h0.8l0,0.4
					c0.1-0.1,0.2-0.3,0.3-0.3c0.1-0.1,0.3-0.1,0.5-0.1c0.1,0,0.2,0,0.3,0L142.4,251.4z"/>
				<path class="st15" d="M144.7,254.3c-0.2,0-0.5,0-0.7-0.1c-0.2-0.1-0.4-0.2-0.6-0.4c-0.2-0.2-0.3-0.4-0.4-0.6
					c-0.1-0.2-0.1-0.5-0.1-0.7v-0.1c0-0.3,0.1-0.7,0.2-1c0.1-0.3,0.3-0.5,0.6-0.7c0.3-0.2,0.5-0.2,0.8-0.2c0.2,0,0.4,0,0.6,0.1
					c0.2,0.1,0.4,0.2,0.5,0.4c0.3,0.4,0.4,0.9,0.4,1.3v0.3h-2.4c0,0.3,0.1,0.5,0.3,0.7c0.1,0.1,0.2,0.2,0.3,0.2
					c0.1,0,0.2,0.1,0.4,0.1c0.2,0,0.4,0,0.5-0.1c0.2-0.1,0.3-0.2,0.4-0.3l0.4,0.4c-0.1,0.2-0.3,0.4-0.6,0.5
					C145.3,254.3,145,254.3,144.7,254.3z M144.6,251.2c-0.1,0-0.2,0-0.3,0.1c-0.1,0-0.2,0.1-0.2,0.2c-0.2,0.2-0.2,0.4-0.3,0.6h1.6
					v-0.1c0-0.2-0.1-0.4-0.2-0.6c-0.1-0.1-0.1-0.1-0.2-0.2C144.8,251.2,144.7,251.2,144.6,251.2z"/>
				<path class="st15" d="M147.9,254.3h-0.8v-5.1h0.8V254.3z"/>
				<path class="st13" d="M152,251.7h-2.9V251h2.9V251.7z M152,253.1h-2.9v-0.7h2.9V253.1z"/>
				<path class="st6" d="M153.6,249.6l-0.1,1.3H153v-1.7h0.6V249.6z M154.6,249.6l-0.1,1.3h-0.5v-1.7h0.6V249.6z"/>
				<path class="st6" d="M157.3,253.3c0-0.1,0-0.1,0-0.2c0-0.1-0.1-0.1-0.1-0.1c-0.2-0.1-0.4-0.2-0.6-0.2c-0.2,0-0.5-0.1-0.7-0.2
					c-0.2-0.1-0.3-0.2-0.4-0.3c-0.1-0.2-0.2-0.3-0.2-0.5c0-0.2,0-0.3,0.1-0.4c0.1-0.1,0.2-0.3,0.3-0.3c0.3-0.2,0.6-0.3,1-0.3
					c0.4,0,0.7,0.1,1.1,0.3c0.1,0.1,0.2,0.2,0.3,0.4c0.1,0.1,0.1,0.3,0.1,0.5h-0.8c0-0.1,0-0.1,0-0.2c0-0.1-0.1-0.1-0.1-0.2
					c-0.1-0.1-0.3-0.2-0.5-0.2c-0.2,0-0.3,0-0.4,0.1c-0.1,0-0.1,0.1-0.1,0.1c0,0.1,0,0.1,0,0.2c0,0.1,0,0.1,0,0.2
					c0,0.1,0.1,0.1,0.1,0.1c0.2,0.1,0.4,0.2,0.6,0.2c0.3,0,0.5,0.1,0.8,0.2c0.2,0.1,0.3,0.2,0.4,0.3c0.1,0.1,0.1,0.3,0.1,0.5
					c0,0.2,0,0.3-0.1,0.4c-0.1,0.1-0.2,0.3-0.3,0.3c-0.3,0.2-0.7,0.3-1.1,0.3c-0.3,0-0.5-0.1-0.8-0.2c-0.2-0.1-0.4-0.2-0.5-0.4
					c-0.1-0.2-0.2-0.4-0.2-0.6h0.8c0,0.1,0,0.2,0.1,0.2c0,0.1,0.1,0.1,0.2,0.2c0.2,0.1,0.3,0.2,0.5,0.2c0.2,0,0.3,0,0.5-0.1
					c0.1,0,0.1-0.1,0.1-0.1C157.3,253.4,157.3,253.3,157.3,253.3z"/>
				<path class="st6" d="M159.9,251c0.1-0.1,0.3-0.3,0.5-0.3s0.4-0.1,0.6-0.1c0.8,0,1.2,0.4,1.2,1.3v2.4h-0.8v-2.3
					c0-0.1,0-0.2,0-0.3c0-0.1-0.1-0.2-0.1-0.2c-0.1-0.1-0.3-0.2-0.5-0.2c-0.2,0-0.3,0-0.4,0.1c-0.1,0.1-0.2,0.2-0.3,0.3v2.6h-0.8
					v-5.1h0.8V251z"/>
				<path class="st6" d="M163,252.4c0-0.3,0.1-0.7,0.2-1c0.1-0.3,0.3-0.5,0.6-0.7c0.3-0.2,0.6-0.2,0.9-0.2c0.2,0,0.4,0,0.6,0.1
					c0.2,0.1,0.4,0.2,0.5,0.4c0.3,0.3,0.5,0.8,0.5,1.2v0.2c0,0.3-0.1,0.7-0.2,1c-0.1,0.3-0.3,0.5-0.6,0.6c-0.3,0.2-0.6,0.2-0.9,0.2
					c-0.2,0-0.5,0-0.7-0.1c-0.2-0.1-0.4-0.2-0.6-0.4C163.1,253.4,162.9,253,163,252.4L163,252.4z M163.8,252.5
					c0,0.3,0.1,0.6,0.2,0.9c0.1,0.1,0.2,0.2,0.3,0.2c0.1,0.1,0.2,0.1,0.4,0.1c0.1,0,0.2,0,0.4-0.1c0.1-0.1,0.2-0.1,0.3-0.2
					c0.2-0.3,0.3-0.6,0.2-0.9c0-0.3-0.1-0.6-0.2-0.9c-0.1-0.1-0.2-0.2-0.3-0.2c-0.1-0.1-0.2-0.1-0.4-0.1c-0.1,0-0.2,0-0.4,0.1
					c-0.1,0.1-0.2,0.1-0.3,0.2C163.8,251.8,163.8,252.2,163.8,252.5L163.8,252.5z"/>
				<path class="st6" d="M169.2,251.4c-0.1,0-0.2,0-0.3,0c-0.2,0-0.3,0-0.4,0.1c-0.1,0.1-0.2,0.2-0.3,0.3v2.5h-0.8v-3.6h0.8l0,0.4
					c0.1-0.1,0.2-0.3,0.3-0.3c0.1-0.1,0.3-0.1,0.5-0.1c0.1,0,0.2,0,0.3,0L169.2,251.4z"/>
				<path class="st6" d="M171.1,249.8v0.9h0.6v0.6h-0.6v2c0,0.1,0,0.2,0.1,0.3c0,0,0.1,0.1,0.1,0.1c0.1,0,0.1,0,0.2,0
					c0.1,0,0.2,0,0.3,0v0.6c-0.2,0.1-0.4,0.1-0.5,0.1c-0.6,0-0.9-0.3-0.9-1v-2h-0.6v-0.6h0.6v-0.9L171.1,249.8z"/>
				<path class="st6" d="M174.1,253.7c0.2,0,0.4-0.1,0.5-0.2c0.1-0.1,0.1-0.1,0.2-0.2c0-0.1,0.1-0.2,0.1-0.2h0.8
					c0,0.2-0.1,0.4-0.2,0.6c-0.1,0.2-0.3,0.4-0.5,0.5c-0.2,0.1-0.5,0.2-0.7,0.2c-0.2,0-0.4,0-0.7-0.1c-0.2-0.1-0.4-0.2-0.5-0.4
					c-0.3-0.4-0.5-0.9-0.4-1.4v-0.1c0-0.5,0.1-0.9,0.4-1.3c0.2-0.2,0.3-0.3,0.5-0.4c0.2-0.1,0.4-0.1,0.7-0.1c0.4,0,0.8,0.1,1.1,0.4
					c0.1,0.1,0.2,0.3,0.3,0.4c0.1,0.2,0.1,0.4,0.1,0.5h-0.8c0-0.2-0.1-0.4-0.2-0.5c-0.1-0.1-0.1-0.1-0.2-0.2c-0.1,0-0.2,0-0.3,0
					c-0.1,0-0.2,0-0.3,0.1c-0.1,0.1-0.2,0.1-0.3,0.2c-0.2,0.3-0.2,0.6-0.2,0.9v0.1c0,0.3,0.1,0.6,0.2,0.9c0.1,0.1,0.2,0.2,0.3,0.2
					C173.9,253.7,174,253.7,174.1,253.7z"/>
				<path class="st6" d="M178.6,253.9c-0.1,0.1-0.3,0.3-0.5,0.3c-0.2,0.1-0.4,0.1-0.6,0.1c-0.2,0-0.3,0-0.5-0.1
					c-0.2-0.1-0.3-0.1-0.4-0.3c-0.2-0.3-0.3-0.6-0.3-1v-2.3h0.8v2.3c0,0.5,0.2,0.7,0.6,0.7c0.2,0,0.3,0,0.5-0.1
					c0.1-0.1,0.3-0.2,0.3-0.3v-2.6h0.8v3.6h-0.8L178.6,253.9z"/>
				<path class="st6" d="M181.5,249.8v0.9h0.6v0.6h-0.6v2c0,0.1,0,0.2,0.1,0.3c0,0,0.1,0.1,0.1,0.1c0.1,0,0.1,0,0.2,0
					c0.1,0,0.2,0,0.3,0v0.6c-0.2,0.1-0.4,0.1-0.5,0.1c-0.6,0-0.9-0.3-0.9-1v-2h-0.6v-0.6h0.6v-0.9L181.5,249.8z"/>
				<path class="st6" d="M185,249.7c0-0.1,0-0.1,0-0.2c0-0.1,0.1-0.1,0.1-0.1c0.1-0.1,0.2-0.1,0.3-0.1c0.1,0,0.2,0,0.3,0.1
					c0,0,0.1,0.1,0.1,0.1c0,0.1,0,0.1,0,0.2c0,0.1,0,0.1,0,0.2c0,0.1-0.1,0.1-0.1,0.1c-0.1,0.1-0.2,0.1-0.3,0.1
					c-0.1,0-0.2,0-0.3-0.1c0,0-0.1-0.1-0.1-0.1C185,249.8,185,249.8,185,249.7z M185.8,254.2H185v-3.6h0.8L185.8,254.2z"/>
				<path class="st6" d="M188.5,253.7c0.2,0,0.4-0.1,0.5-0.2c0.1-0.1,0.1-0.1,0.2-0.2c0-0.1,0.1-0.2,0.1-0.2h0.8
					c0,0.2-0.1,0.4-0.2,0.6c-0.1,0.2-0.3,0.4-0.5,0.5c-0.2,0.1-0.5,0.2-0.7,0.2c-0.2,0-0.4,0-0.7-0.1c-0.2-0.1-0.4-0.2-0.5-0.4
					c-0.3-0.4-0.5-0.9-0.4-1.4v-0.1c0-0.5,0.1-0.9,0.4-1.3c0.2-0.2,0.3-0.3,0.5-0.4c0.2-0.1,0.4-0.1,0.7-0.1c0.4,0,0.8,0.1,1.1,0.4
					c0.1,0.1,0.2,0.3,0.3,0.4c0.1,0.2,0.1,0.4,0.1,0.5h-0.8c0-0.2-0.1-0.4-0.2-0.5c-0.1-0.1-0.1-0.1-0.2-0.2c-0.1,0-0.2-0.1-0.3,0
					c-0.1,0-0.2,0-0.3,0.1c-0.1,0-0.2,0.1-0.3,0.2c-0.2,0.3-0.2,0.6-0.2,0.9v0.1c0,0.3,0.1,0.6,0.2,0.9c0.1,0.1,0.2,0.2,0.3,0.2
					C188.2,253.7,188.3,253.7,188.5,253.7z"/>
				<path class="st6" d="M190.6,252.4c0-0.3,0.1-0.7,0.2-1c0.1-0.3,0.3-0.5,0.6-0.7c0.3-0.2,0.6-0.2,0.9-0.2c0.2,0,0.4,0,0.6,0.1
					c0.2,0.1,0.4,0.2,0.5,0.4c0.3,0.3,0.5,0.8,0.5,1.2v0.2c0,0.3-0.1,0.7-0.2,1c-0.1,0.3-0.3,0.5-0.6,0.6c-0.3,0.2-0.6,0.2-0.9,0.2
					c-0.2,0-0.5,0-0.7-0.1c-0.2-0.1-0.4-0.2-0.6-0.4C190.8,253.4,190.6,253,190.6,252.4L190.6,252.4z M191.4,252.5
					c0,0.3,0.1,0.6,0.2,0.9c0.1,0.1,0.2,0.2,0.3,0.2c0.1,0.1,0.2,0.1,0.4,0.1c0.1,0,0.2,0,0.4-0.1c0.1-0.1,0.2-0.1,0.3-0.2
					c0.2-0.3,0.3-0.6,0.2-0.9c0-0.3-0.1-0.6-0.2-0.9c-0.1-0.1-0.2-0.2-0.3-0.2c-0.1-0.1-0.2-0.1-0.4-0.1c-0.1,0-0.2,0-0.4,0.1
					c-0.1,0.1-0.2,0.1-0.3,0.2C191.5,251.8,191.4,252.2,191.4,252.5L191.4,252.5z"/>
				<path class="st6" d="M195.7,250.7l0,0.4c0.1-0.2,0.3-0.3,0.5-0.4c0.2-0.1,0.4-0.1,0.6-0.1c0.8,0,1.1,0.4,1.2,1.3v2.4h-0.8v-2.3
					c0-0.2,0-0.4-0.1-0.5c-0.1-0.1-0.1-0.1-0.2-0.1c-0.1,0-0.2,0-0.3,0c-0.2,0-0.3,0-0.4,0.1c-0.1,0.1-0.2,0.2-0.3,0.3v2.6h-0.8
					v-3.6H195.7z"/>
				<path class="st6" d="M199.2,249.6l-0.1,1.3h-0.5v-1.7h0.6V249.6z M200.2,249.6l-0.1,1.3h-0.5v-1.7h0.6V249.6z"/>
				<path class="st15" d="M203.9,251c0.1-0.1,0.3-0.3,0.5-0.3c0.2-0.1,0.4-0.1,0.6-0.1c0.8,0,1.2,0.4,1.2,1.3v2.4h-0.8v-2.3
					c0-0.1,0-0.2,0-0.3c0-0.1-0.1-0.2-0.1-0.2c-0.1-0.1-0.3-0.2-0.5-0.2c-0.2,0-0.3,0-0.4,0.1c-0.1,0.1-0.2,0.2-0.3,0.3v2.6h-0.8
					v-5.1h0.8V251z"/>
				<path class="st15" d="M209.1,251.4c-0.1,0-0.2,0-0.3,0c-0.2,0-0.3,0-0.4,0.1c-0.1,0.1-0.2,0.2-0.3,0.3v2.5h-0.8v-3.6h0.8l0,0.4
					c0.1-0.1,0.2-0.3,0.3-0.3c0.1-0.1,0.3-0.1,0.5-0.1c0.1,0,0.2,0,0.3,0L209.1,251.4z"/>
				<path class="st15" d="M211.4,254.3c-0.2,0-0.5,0-0.7-0.1c-0.2-0.1-0.4-0.2-0.6-0.4c-0.2-0.2-0.3-0.4-0.4-0.6
					c-0.1-0.2-0.1-0.5-0.1-0.7v-0.1c0-0.3,0.1-0.7,0.2-1c0.1-0.3,0.3-0.5,0.6-0.7c0.3-0.2,0.5-0.2,0.8-0.2c0.2,0,0.4,0,0.6,0.1
					c0.2,0.1,0.4,0.2,0.5,0.4c0.3,0.4,0.4,0.9,0.4,1.3v0.3h-2.4c0,0.3,0.1,0.5,0.3,0.7c0.1,0.1,0.2,0.2,0.3,0.2
					c0.1,0,0.2,0.1,0.4,0.1c0.2,0,0.4,0,0.5-0.1c0.2-0.1,0.3-0.2,0.4-0.3l0.4,0.4c-0.1,0.2-0.3,0.4-0.6,0.5
					C211.9,254.3,211.7,254.3,211.4,254.3z M211.3,251.2c-0.1,0-0.2,0-0.3,0.1c-0.1,0-0.2,0.1-0.2,0.2c-0.2,0.2-0.2,0.4-0.3,0.6h1.6
					v-0.1c0-0.2-0.1-0.4-0.2-0.6c-0.1-0.1-0.2-0.1-0.2-0.2C211.5,251.2,211.4,251.2,211.3,251.2z"/>
				<path class="st15" d="M214,254.3v-3h-0.6v-0.6h0.6v-0.3c0-0.2,0-0.3,0.1-0.5c0.1-0.2,0.1-0.3,0.3-0.4c0.1-0.1,0.3-0.2,0.4-0.3
					c0.2-0.1,0.3-0.1,0.5-0.1c0.2,0,0.3,0,0.5,0.1l0,0.6c-0.1,0-0.2,0-0.3,0c-0.1,0-0.2,0-0.2,0c-0.1,0-0.1,0.1-0.2,0.1
					c-0.1,0.1-0.1,0.1-0.1,0.2c0,0.1,0,0.2,0,0.2v0.3h0.7v0.6h-0.7v3L214,254.3z"/>
				<path class="st13" d="M219.3,251.7h-2.9V251h2.9V251.7z M219.3,253.1h-2.9v-0.7h2.9V253.1z"/>
				<path class="st6" d="M221,249.6l-0.1,1.3h-0.5v-1.7h0.6L221,249.6z M222,249.6l-0.1,1.3h-0.4v-1.7h0.6L222,249.6z"/>
				<path class="st6" d="M222.9,249.7c0-0.1,0-0.2,0.1-0.3c0,0,0.1-0.1,0.2-0.1c0.1,0,0.1,0,0.2,0c0.1,0,0.1,0,0.2,0
					c0.1,0,0.1,0.1,0.2,0.1c0.1,0.1,0.1,0.2,0.1,0.3c0,0.1,0,0.1,0,0.2c0,0.1-0.1,0.1-0.1,0.1c0,0-0.1,0.1-0.2,0.1
					c-0.1,0-0.1,0-0.2,0c-0.1,0-0.1,0-0.2,0c-0.1,0-0.1-0.1-0.2-0.1c0,0-0.1-0.1-0.1-0.1C222.9,249.8,222.9,249.8,222.9,249.7z
					 M223.8,254.3H223v-3.6h0.8V254.3z"/>
				<path class="st6" d="M225.7,250.7l0,0.4c0.1-0.1,0.3-0.3,0.5-0.3c0.2-0.1,0.4-0.1,0.6-0.1c0.2,0,0.4,0,0.6,0.1
					c0.2,0.1,0.3,0.2,0.4,0.4c0.1-0.2,0.3-0.3,0.5-0.4c0.2-0.1,0.4-0.1,0.6-0.1c0.2,0,0.3,0,0.5,0.1c0.2,0.1,0.3,0.2,0.4,0.3
					c0.2,0.3,0.3,0.6,0.3,1v2.4h-0.8v-2.3c0-0.2,0-0.4-0.2-0.5c-0.1-0.1-0.1-0.1-0.2-0.1c-0.1,0-0.2,0-0.3,0c-0.2,0-0.3,0-0.5,0.1
					c-0.1,0.1-0.2,0.2-0.2,0.4v2.5H227v-2.4c0-0.1,0-0.2,0-0.3c0-0.1-0.1-0.2-0.1-0.2c-0.1-0.1-0.1-0.1-0.2-0.1c-0.1,0-0.2,0-0.3,0
					c-0.1,0-0.3,0-0.4,0.1c-0.1,0.1-0.2,0.2-0.3,0.3v2.6h-0.8v-3.6H225.7z"/>
				<path class="st6" d="M233.3,254.3c0-0.1-0.1-0.2-0.1-0.3c-0.2,0.2-0.6,0.4-0.9,0.4c-0.3,0-0.7-0.1-0.9-0.3
					c-0.1-0.1-0.2-0.2-0.3-0.3c-0.1-0.1-0.1-0.3-0.1-0.4c0-0.2,0-0.3,0.1-0.5c0.1-0.2,0.2-0.3,0.3-0.4c0.4-0.2,0.8-0.3,1.2-0.3h0.5
					v-0.2c0-0.2,0-0.3-0.2-0.4c-0.1-0.1-0.1-0.1-0.2-0.1c-0.1,0-0.2,0-0.3,0c-0.2,0-0.3,0-0.5,0.1c-0.1,0-0.1,0.1-0.1,0.1
					c0,0.1,0,0.1,0,0.2h-0.8c0-0.2,0.1-0.4,0.2-0.6c0.1-0.2,0.3-0.3,0.5-0.4c0.2-0.1,0.5-0.2,0.8-0.1c0.4,0,0.7,0.1,1,0.3
					c0.1,0.1,0.2,0.2,0.3,0.4c0.1,0.2,0.1,0.3,0.1,0.5v1.6c0,0.3,0,0.5,0.1,0.8v0.1L233.3,254.3z M232.4,253.7c0.2,0,0.3,0,0.5-0.1
					c0.1-0.1,0.2-0.2,0.3-0.3v-0.7h-0.4c-0.2,0-0.5,0-0.7,0.2c-0.1,0-0.1,0.1-0.2,0.2c0,0.1-0.1,0.2-0.1,0.3c0,0.1,0,0.1,0,0.2
					c0,0.1,0.1,0.1,0.1,0.2C232.1,253.6,232.2,253.7,232.4,253.7z"/>
				<path class="st6" d="M234.9,252.4c0-0.5,0.1-1,0.4-1.3c0.1-0.2,0.3-0.3,0.5-0.4c0.2-0.1,0.4-0.1,0.6-0.1c0.2,0,0.4,0,0.5,0.1
					c0.2,0.1,0.3,0.2,0.4,0.3l0-0.4h0.7v3.5c0,0.2,0,0.4-0.1,0.6c-0.1,0.2-0.2,0.4-0.3,0.5c-0.3,0.3-0.8,0.4-1.2,0.4
					c-0.3,0-0.5-0.1-0.8-0.2c-0.2-0.1-0.4-0.2-0.6-0.4l0.4-0.5c0.1,0.1,0.2,0.3,0.4,0.3s0.3,0.1,0.5,0.1c0.2,0,0.5-0.1,0.6-0.2
					c0.1-0.1,0.1-0.2,0.2-0.3c0-0.1,0.1-0.2,0-0.3v-0.2c-0.1,0.1-0.3,0.2-0.4,0.3c-0.2,0.1-0.3,0.1-0.5,0.1c-0.2,0-0.4,0-0.6-0.1
					c-0.2-0.1-0.3-0.2-0.5-0.4C235.1,253.4,234.9,252.9,234.9,252.4z M235.7,252.5c0,0.3,0.1,0.6,0.2,0.9c0.1,0.1,0.2,0.2,0.3,0.2
					c0.1,0.1,0.2,0.1,0.3,0.1c0.1,0,0.3,0,0.4-0.1c0.1-0.1,0.2-0.2,0.3-0.3v-1.6c-0.1-0.1-0.2-0.2-0.3-0.3c-0.1-0.1-0.3-0.1-0.4-0.1
					c-0.1,0-0.2,0-0.4,0.1c-0.1,0.1-0.2,0.1-0.3,0.2C235.8,251.8,235.7,252.2,235.7,252.5L235.7,252.5z"/>
				<path class="st6" d="M240.8,254.3c-0.2,0-0.5,0-0.7-0.1c-0.2-0.1-0.4-0.2-0.6-0.4c-0.2-0.2-0.3-0.4-0.4-0.6
					c-0.1-0.2-0.1-0.5-0.1-0.7v-0.1c0-0.3,0.1-0.7,0.2-1c0.1-0.3,0.3-0.5,0.6-0.7c0.3-0.2,0.5-0.2,0.8-0.2c0.2,0,0.4,0,0.6,0.1
					c0.2,0.1,0.4,0.2,0.5,0.4c0.3,0.4,0.4,0.9,0.4,1.3v0.3h-2.4c0,0.3,0.1,0.5,0.3,0.7c0.1,0.1,0.2,0.2,0.3,0.2
					c0.1,0,0.2,0.1,0.4,0.1c0.2,0,0.4,0,0.5-0.1c0.2-0.1,0.3-0.2,0.4-0.3l0.4,0.4c-0.1,0.2-0.3,0.4-0.6,0.5
					C241.4,254.3,241.1,254.3,240.8,254.3z M240.7,251.2c-0.1,0-0.2,0-0.3,0.1c-0.1,0-0.2,0.1-0.2,0.2c-0.1,0.2-0.2,0.4-0.3,0.6h1.6
					v-0.1c0-0.2-0.1-0.4-0.2-0.6c-0.1-0.1-0.2-0.1-0.2-0.2C240.9,251.2,240.8,251.2,240.7,251.2z"/>
				<path class="st6" d="M245.2,253.3c0-0.1,0-0.1,0-0.2c0-0.1-0.1-0.1-0.1-0.1c-0.2-0.1-0.4-0.2-0.6-0.2c-0.2,0-0.5-0.1-0.7-0.2
					c-0.2-0.1-0.3-0.2-0.4-0.3c-0.1-0.2-0.2-0.3-0.2-0.5c0-0.2,0-0.3,0.1-0.4c0.1-0.1,0.2-0.3,0.3-0.3c0.3-0.2,0.6-0.3,1-0.3
					c0.4,0,0.7,0.1,1.1,0.3c0.1,0.1,0.2,0.2,0.3,0.4c0.1,0.1,0.1,0.3,0.1,0.5h-0.8c0-0.1,0-0.1,0-0.2c0-0.1-0.1-0.1-0.1-0.2
					c-0.1-0.1-0.3-0.2-0.5-0.2c-0.2,0-0.3,0-0.4,0.1c-0.1,0-0.1,0.1-0.1,0.1s0,0.1,0,0.2c0,0.1,0,0.1,0,0.2c0,0.1,0.1,0.1,0.1,0.1
					c0.2,0.1,0.4,0.2,0.6,0.2c0.3,0.1,0.5,0.1,0.8,0.2c0.2,0.1,0.3,0.2,0.4,0.3c0.1,0.1,0.1,0.3,0.1,0.5c0,0.2,0,0.3-0.1,0.4
					c-0.1,0.1-0.2,0.3-0.3,0.3c-0.3,0.2-0.7,0.3-1.1,0.3c-0.3,0-0.5,0-0.8-0.2c-0.2-0.1-0.4-0.2-0.5-0.4c-0.1-0.2-0.2-0.4-0.2-0.6
					h0.8c0,0.1,0,0.2,0.1,0.2c0,0.1,0.1,0.1,0.2,0.2c0.2,0.1,0.3,0.2,0.5,0.2c0.2,0,0.3,0,0.5-0.1c0.1,0,0.1-0.1,0.1-0.1
					C245.1,253.4,245.2,253.3,245.2,253.3z"/>
				<path class="st6" d="M247.1,254.7h-0.6l1.9-5.3h0.6L247.1,254.7z"/>
				<path class="st6" d="M250.1,254.3v-3h-0.6v-0.6h0.6v-0.3c0-0.2,0-0.3,0.1-0.5c0.1-0.2,0.2-0.3,0.3-0.4c0.1-0.1,0.3-0.2,0.4-0.3
					c0.2-0.1,0.3-0.1,0.5-0.1c0.2,0,0.3,0,0.5,0.1l0,0.6c-0.1,0-0.2,0-0.3,0c-0.1,0-0.2,0-0.2,0c-0.1,0-0.1,0.1-0.2,0.1
					c-0.1,0.1-0.1,0.1-0.1,0.2c0,0.1,0,0.2,0,0.2v0.3h0.7v0.6H251v3L250.1,254.3z"/>
				<path class="st6" d="M254.7,254.3c0-0.1-0.1-0.2-0.1-0.3c-0.2,0.2-0.6,0.4-0.9,0.4c-0.3,0-0.7-0.1-0.9-0.3
					c-0.1-0.1-0.2-0.2-0.3-0.3c-0.1-0.1-0.1-0.3-0.1-0.4c0-0.2,0-0.3,0.1-0.5c0.1-0.2,0.2-0.3,0.3-0.4c0.4-0.2,0.8-0.3,1.2-0.3h0.5
					v-0.2c0-0.2-0.1-0.3-0.2-0.4c-0.1-0.1-0.1-0.1-0.2-0.1c-0.1,0-0.2,0-0.3,0c-0.2,0-0.3,0-0.5,0.1c-0.1,0-0.1,0.1-0.1,0.1
					c0,0.1,0,0.1,0,0.2h-0.8c0-0.2,0.1-0.4,0.2-0.6c0.1-0.2,0.3-0.3,0.5-0.4c0.2-0.1,0.5-0.2,0.8-0.1c0.4,0,0.7,0.1,1,0.3
					c0.1,0.1,0.2,0.2,0.3,0.4c0.1,0.2,0.1,0.3,0.1,0.5v1.6c0,0.3,0,0.5,0.1,0.8v0.1L254.7,254.3z M253.8,253.7c0.2,0,0.3,0,0.5-0.1
					c0.1-0.1,0.2-0.2,0.3-0.3v-0.7h-0.4c-0.2,0-0.5,0-0.7,0.2c-0.1,0-0.1,0.1-0.2,0.2c0,0.1-0.1,0.2-0.1,0.3c0,0.1,0,0.1,0,0.2
					c0,0.1,0.1,0.1,0.1,0.2C253.5,253.6,253.6,253.7,253.8,253.7z"/>
				<path class="st6" d="M257.7,253.2l0.8-2.6h0.8l-1.3,3.6h-0.7l-1.3-3.6h0.8L257.7,253.2z"/>
				<path class="st6" d="M260,253.4c0.1,0,0.1,0,0.2,0c0.1,0,0.1,0.1,0.2,0.1c0,0,0.1,0.1,0.1,0.1s0,0.1,0,0.2c0,0.1,0,0.1,0,0.2
					c0,0.1-0.1,0.1-0.1,0.1c0,0-0.1,0.1-0.2,0.1c-0.1,0-0.1,0-0.2,0c-0.1,0-0.2,0-0.3-0.1c0,0-0.1-0.1-0.1-0.1c0-0.1,0-0.1,0-0.2
					c0-0.1,0-0.1,0-0.2c0-0.1,0.1-0.1,0.1-0.1c0,0,0.1-0.1,0.2-0.1C259.9,253.4,260,253.4,260,253.4z"/>
				<path class="st6" d="M264.8,252.5c0,0.5-0.1,0.9-0.4,1.3c-0.1,0.2-0.3,0.3-0.5,0.4c-0.2,0.1-0.4,0.1-0.6,0.1
					c-0.2,0-0.4,0-0.5-0.1c-0.2-0.1-0.3-0.2-0.4-0.3v1.7h-0.8v-5h0.8l0,0.4c0.1-0.1,0.3-0.3,0.4-0.3c0.2-0.1,0.4-0.1,0.5-0.1
					c0.2,0,0.4,0,0.6,0.1c0.2,0.1,0.3,0.2,0.5,0.4C264.7,251.5,264.9,252,264.8,252.5L264.8,252.5z M264,252.4
					c0-0.3-0.1-0.6-0.2-0.9c-0.1-0.1-0.2-0.2-0.3-0.2c-0.1-0.1-0.2-0.1-0.4-0.1c-0.1,0-0.3,0-0.4,0.1c-0.1,0.1-0.2,0.2-0.3,0.3v1.6
					c0.1,0.1,0.2,0.2,0.3,0.3c0.1,0.1,0.3,0.1,0.4,0.1c0.1,0,0.2,0,0.3-0.1c0.1-0.1,0.2-0.1,0.3-0.2C264,253.1,264,252.8,264,252.4
					L264,252.4z"/>
				<path class="st6" d="M266.5,250.7l0,0.4c0.1-0.2,0.3-0.3,0.5-0.4c0.2-0.1,0.4-0.1,0.6-0.1c0.8,0,1.1,0.4,1.2,1.3v2.4h-0.8v-2.3
					c0-0.2,0-0.4-0.2-0.5c-0.1-0.1-0.1-0.1-0.2-0.1c-0.1,0-0.2,0-0.3,0c-0.2,0-0.3,0-0.4,0.1c-0.1,0.1-0.2,0.2-0.3,0.3v2.6h-0.8
					v-3.6H266.5z"/>
				<path class="st6" d="M269.7,252.4c0-0.5,0.1-1,0.4-1.3c0.1-0.2,0.3-0.3,0.5-0.4c0.2-0.1,0.4-0.1,0.6-0.1c0.2,0,0.4,0,0.5,0.1
					c0.2,0.1,0.3,0.2,0.4,0.3l0-0.4h0.7v3.5c0,0.2,0,0.4-0.1,0.6c-0.1,0.2-0.2,0.4-0.3,0.5c-0.3,0.3-0.8,0.4-1.2,0.4
					c-0.3,0-0.5-0.1-0.8-0.2c-0.2-0.1-0.4-0.2-0.6-0.4l0.4-0.5c0.1,0.1,0.3,0.3,0.4,0.3c0.2,0.1,0.3,0.1,0.5,0.1
					c0.2,0,0.5-0.1,0.6-0.2c0.1-0.1,0.1-0.2,0.2-0.3c0-0.1,0.1-0.2,0-0.3v-0.2c-0.1,0.1-0.3,0.2-0.4,0.3c-0.2,0.1-0.3,0.1-0.5,0.1
					c-0.2,0-0.4,0-0.6-0.1c-0.2-0.1-0.3-0.2-0.5-0.4C269.8,253.4,269.7,252.9,269.7,252.4z M270.5,252.5c0,0.3,0.1,0.6,0.2,0.9
					c0.1,0.1,0.2,0.2,0.3,0.2c0.1,0.1,0.2,0.1,0.3,0.1c0.1,0,0.3,0,0.4-0.1c0.1-0.1,0.2-0.2,0.3-0.3v-1.6c-0.1-0.1-0.2-0.2-0.3-0.3
					c-0.1-0.1-0.3-0.1-0.4-0.1c-0.1,0-0.2,0-0.4,0.1c-0.1,0.1-0.2,0.1-0.3,0.2C270.5,251.8,270.5,252.2,270.5,252.5L270.5,252.5z"/>
				<path class="st6" d="M274.5,249.6l-0.1,1.3h-0.5v-1.7h0.6L274.5,249.6z M275.5,249.6l-0.1,1.3h-0.5v-1.7h0.6V249.6z"/>
				<path class="st17" d="M278.6,254.7H278l1.9-5.3h0.6L278.6,254.7z"/>
				<path class="st17" d="M283.4,252.1l-2.1-0.8v-0.8l2.9,1.2v0.6l-2.9,1.2v-0.8L283.4,252.1z"/>
				<path class="st13" d="M123.6,260.3l2,0.7v0.8l-2.8-1.2V260l2.8-1.2v0.8L123.6,260.3z"/>
				<path class="st14" d="M127.7,258v0.9h0.6v0.6h-0.6v2c0,0.1,0,0.2,0.1,0.3c0,0,0.1,0.1,0.1,0.1c0,0,0.1,0,0.2,0
					c0.1,0,0.2,0,0.3,0v0.6c-0.2,0-0.4,0.1-0.5,0.1c-0.6,0-0.9-0.3-0.9-1v-2h-0.6v-0.6h0.6V258L127.7,258z"/>
				<path class="st14" d="M129.3,257.9c0-0.1,0-0.2,0.1-0.3c0,0,0.1-0.1,0.2-0.1c0.1,0,0.1,0,0.2,0c0.1,0,0.1,0,0.2,0
					c0.1,0,0.1,0.1,0.2,0.1c0.1,0.1,0.1,0.2,0.1,0.3c0,0.1,0,0.1,0,0.2c0,0.1-0.1,0.1-0.1,0.1c0,0-0.1,0.1-0.2,0.1
					c-0.1,0-0.1,0-0.2,0c-0.1,0-0.1,0-0.2,0c-0.1,0-0.1-0.1-0.2-0.1c0,0-0.1-0.1-0.1-0.1C129.3,258,129.3,257.9,129.3,257.9z
					 M130.1,262.4h-0.8v-3.6h0.8V262.4z"/>
				<path class="st14" d="M132.3,258v0.9h0.6v0.6h-0.6v2c0,0.1,0,0.2,0.1,0.3c0,0,0.1,0.1,0.1,0.1c0.1,0,0.1,0,0.2,0
					c0.1,0,0.2,0,0.3,0v0.6c-0.2,0-0.4,0.1-0.5,0.1c-0.6,0-0.9-0.3-0.9-1v-2h-0.6v-0.6h0.6V258L132.3,258z"/>
				<path class="st14" d="M134.6,262.4h-0.8v-5.1h0.8V262.4z"/>
				<path class="st14" d="M137.4,262.5c-0.2,0-0.5,0-0.7-0.1c-0.2-0.1-0.4-0.2-0.6-0.4c-0.2-0.2-0.3-0.4-0.4-0.6
					c-0.1-0.2-0.1-0.5-0.1-0.7v-0.1c0-0.3,0.1-0.7,0.2-1c0.1-0.3,0.3-0.5,0.6-0.7c0.3-0.2,0.5-0.2,0.8-0.2c0.2,0,0.4,0,0.6,0.1
					c0.2,0.1,0.4,0.2,0.5,0.4c0.3,0.4,0.4,0.9,0.4,1.3v0.3h-2.4c0,0.3,0.1,0.5,0.3,0.7c0.1,0.1,0.2,0.2,0.3,0.2
					c0.1,0,0.2,0.1,0.4,0.1c0.2,0,0.4,0,0.5-0.1c0.2-0.1,0.3-0.2,0.4-0.3l0.4,0.4c-0.1,0.2-0.3,0.4-0.6,0.5
					C137.9,262.5,137.6,262.5,137.4,262.5z M137.3,259.4c-0.1,0-0.2,0-0.3,0.1c-0.1,0-0.2,0.1-0.2,0.2c-0.2,0.2-0.2,0.4-0.3,0.6h1.6
					v-0.1c0-0.2-0.1-0.4-0.2-0.6c-0.1-0.1-0.2-0.1-0.2-0.2C137.5,259.4,137.4,259.4,137.3,259.4z"/>
				<path class="st13" d="M141.8,260.3l-2.1-0.8v-0.8l2.9,1.2v0.6l-2.9,1.2v-0.8L141.8,260.3z"/>
				<path class="st13" d="M115.8,268.5l2,0.7v0.8l-2.8-1.2v-0.6l2.8-1.2v0.8L115.8,268.5z"/>
				<path class="st13" d="M119.2,271.1h-0.6l1.9-5.3h0.6L119.2,271.1z"/>
				<path class="st14" d="M122.7,267.4c0.1-0.1,0.3-0.3,0.4-0.3c0.2-0.1,0.4-0.1,0.6-0.1c0.8,0,1.2,0.4,1.2,1.3v2.4h-0.8v-2.3
					c0-0.1,0-0.2,0-0.3c0-0.1-0.1-0.2-0.1-0.2c-0.1-0.1-0.3-0.2-0.5-0.2c-0.1,0-0.3,0-0.4,0.1c-0.1,0.1-0.2,0.2-0.3,0.3v2.6h-0.8
					v-5.1h0.8L122.7,267.4z"/>
				<path class="st14" d="M127.5,270.7c-0.2,0-0.5,0-0.7-0.1c-0.2-0.1-0.4-0.2-0.6-0.4c-0.2-0.2-0.3-0.4-0.4-0.6
					c-0.1-0.2-0.1-0.5-0.1-0.7v-0.1c0-0.3,0.1-0.7,0.2-1c0.1-0.3,0.3-0.5,0.6-0.7c0.3-0.2,0.5-0.2,0.8-0.2c0.2,0,0.4,0,0.6,0.1
					c0.2,0.1,0.4,0.2,0.5,0.4c0.3,0.4,0.4,0.9,0.4,1.3v0.3h-2.4c0,0.3,0.1,0.5,0.3,0.7c0.1,0.1,0.2,0.2,0.3,0.2
					c0.1,0,0.2,0.1,0.4,0.1c0.2,0,0.4,0,0.5-0.1c0.2-0.1,0.3-0.2,0.4-0.3l0.4,0.4c-0.1,0.2-0.3,0.4-0.6,0.5
					C128.1,270.7,127.8,270.7,127.5,270.7z M127.4,267.6c-0.1,0-0.2,0-0.3,0.1c-0.1,0-0.2,0.1-0.2,0.2c-0.2,0.2-0.2,0.4-0.3,0.6h1.6
					v-0.1c0-0.2-0.1-0.4-0.2-0.6c-0.1-0.1-0.2-0.1-0.2-0.2C127.6,267.6,127.5,267.6,127.4,267.6z"/>
				<path class="st14" d="M132,270.6c0-0.1-0.1-0.2-0.1-0.3c-0.2,0.2-0.6,0.4-0.9,0.4c-0.3,0-0.7-0.1-0.9-0.3
					c-0.1-0.1-0.2-0.2-0.3-0.3c-0.1-0.1-0.1-0.3-0.1-0.4c0-0.2,0-0.3,0.1-0.5c0.1-0.2,0.2-0.3,0.3-0.4c0.4-0.2,0.8-0.3,1.2-0.3h0.5
					v-0.2c0-0.2,0-0.3-0.2-0.4c-0.1-0.1-0.1-0.1-0.2-0.1c-0.1,0-0.2,0-0.3,0c-0.2,0-0.3,0-0.5,0.1c-0.1,0-0.1,0.1-0.1,0.1
					c0,0.1,0,0.1,0,0.2h-0.8c0-0.2,0.1-0.4,0.2-0.6c0.1-0.2,0.3-0.3,0.5-0.4c0.2-0.1,0.5-0.2,0.8-0.1c0.4,0,0.7,0.1,1,0.3
					c0.1,0.1,0.2,0.2,0.3,0.4c0.1,0.2,0.1,0.3,0.1,0.5v1.6c0,0.3,0,0.5,0.1,0.8v0.1L132,270.6z M131.1,270.1c0.2,0,0.3,0,0.5-0.1
					c0.1-0.1,0.2-0.2,0.3-0.3v-0.7h-0.4c-0.2,0-0.5,0-0.7,0.2c-0.1,0-0.1,0.1-0.2,0.2c0,0.1-0.1,0.2-0.1,0.3c0,0.1,0,0.1,0,0.2
					c0,0.1,0.1,0.1,0.1,0.2C130.8,270,131,270.1,131.1,270.1z"/>
				<path class="st14" d="M133.7,268.8c0-0.5,0.1-0.9,0.4-1.3c0.1-0.2,0.3-0.3,0.5-0.4c0.2-0.1,0.4-0.1,0.6-0.1c0.2,0,0.3,0,0.5,0.1
					s0.3,0.2,0.4,0.3v-1.8h0.8v5.1h-0.7l0-0.4c-0.1,0.1-0.3,0.3-0.4,0.3c-0.2,0.1-0.4,0.1-0.5,0.1c-0.2,0-0.4,0-0.6-0.1
					c-0.2-0.1-0.3-0.2-0.5-0.4C133.8,269.8,133.6,269.3,133.7,268.8z M134.5,268.9c0,0.3,0.1,0.6,0.2,0.9c0.1,0.1,0.2,0.2,0.3,0.2
					c0.1,0.1,0.2,0.1,0.3,0.1c0.2,0,0.3,0,0.4-0.1c0.1-0.1,0.2-0.2,0.3-0.3v-1.5c-0.1-0.1-0.2-0.2-0.3-0.3s-0.3-0.1-0.4-0.1
					c-0.1,0-0.2,0-0.3,0.1c-0.1,0.1-0.2,0.1-0.3,0.2C134.5,268.2,134.5,268.6,134.5,268.9L134.5,268.9z"/>
				<path class="st14" d="M139.5,270.7c-0.2,0-0.5,0-0.7-0.1s-0.4-0.2-0.6-0.4c-0.2-0.2-0.3-0.4-0.4-0.6c-0.1-0.2-0.1-0.5-0.1-0.7
					v-0.1c0-0.3,0.1-0.7,0.2-1c0.1-0.3,0.3-0.5,0.6-0.7c0.3-0.2,0.5-0.2,0.8-0.2c0.2,0,0.4,0,0.6,0.1c0.2,0.1,0.4,0.2,0.5,0.4
					c0.3,0.4,0.4,0.9,0.4,1.3v0.3h-2.4c0,0.3,0.1,0.5,0.3,0.7c0.1,0.1,0.2,0.2,0.3,0.2c0.1,0,0.2,0.1,0.4,0.1c0.2,0,0.4,0,0.5-0.1
					c0.2-0.1,0.3-0.2,0.4-0.3l0.4,0.4c-0.1,0.2-0.3,0.4-0.6,0.5C140.1,270.7,139.8,270.7,139.5,270.7z M139.4,267.6
					c-0.1,0-0.2,0-0.3,0.1c-0.1,0-0.2,0.1-0.2,0.2c-0.2,0.2-0.2,0.4-0.3,0.6h1.6v-0.1c0-0.2-0.1-0.4-0.2-0.6
					c-0.1-0.1-0.2-0.1-0.2-0.2C139.6,267.6,139.5,267.6,139.4,267.6z"/>
				<path class="st14" d="M143.7,267.8c-0.1,0-0.2,0-0.3,0c-0.2,0-0.3,0-0.4,0.1c-0.1,0.1-0.2,0.2-0.3,0.3v2.5h-0.8V267h0.8l0,0.4
					c0.1-0.1,0.2-0.3,0.3-0.3c0.1-0.1,0.3-0.1,0.5-0.1c0.1,0,0.2,0,0.3,0L143.7,267.8z"/>
				<path class="st13" d="M146.6,268.5l-2.1-0.8V267l2.9,1.2v0.6l-2.9,1.2v-0.8L146.6,268.5z"/>
				<path class="st13" d="M115.8,284.9l2,0.7v0.8l-2.8-1.2v-0.6l2.8-1.2v0.8L115.8,284.9z"/>
				<path class="st14" d="M122.1,285.3c0,0.5-0.1,0.9-0.4,1.3c-0.1,0.2-0.3,0.3-0.5,0.4c-0.2,0.1-0.4,0.1-0.6,0.1
					c-0.2,0-0.4,0-0.6-0.1c-0.2-0.1-0.3-0.2-0.4-0.3l0,0.4h-0.7v-5.1h0.8v1.9c0.1-0.1,0.3-0.2,0.4-0.3c0.2-0.1,0.3-0.1,0.5-0.1
					c0.2,0,0.4,0,0.6,0.1c0.2,0.1,0.3,0.2,0.5,0.4C122,284.2,122.1,284.7,122.1,285.3L122.1,285.3z M121.3,285.2
					c0-0.3-0.1-0.6-0.2-0.9c-0.1-0.1-0.2-0.2-0.3-0.2c-0.1-0.1-0.2-0.1-0.3-0.1c-0.2,0-0.3,0-0.4,0.1c-0.1,0.1-0.2,0.2-0.3,0.3v1.5
					c0.1,0.1,0.2,0.3,0.3,0.4c0.1,0.1,0.3,0.1,0.5,0.1c0.1,0,0.2,0,0.3-0.1c0.1,0,0.2-0.1,0.3-0.2c0.2-0.3,0.2-0.6,0.2-0.9V285.2z"
					/>
				<path class="st14" d="M122.9,285.2c0-0.3,0.1-0.7,0.2-1c0.1-0.3,0.3-0.5,0.6-0.7c0.3-0.2,0.6-0.2,0.9-0.2c0.2,0,0.4,0,0.6,0.1
					c0.2,0.1,0.4,0.2,0.5,0.4c0.3,0.3,0.5,0.8,0.5,1.2v0.2c0,0.3-0.1,0.7-0.2,1c-0.1,0.3-0.3,0.5-0.6,0.6c-0.3,0.2-0.6,0.2-0.9,0.2
					c-0.2,0-0.5,0-0.7-0.1c-0.2-0.1-0.4-0.2-0.6-0.4C123,286.2,122.9,285.7,122.9,285.2L122.9,285.2z M123.7,285.3
					c0,0.3,0.1,0.6,0.2,0.9c0.1,0.1,0.2,0.2,0.3,0.2c0.1,0.1,0.2,0.1,0.4,0.1s0.2,0,0.4-0.1c0.1-0.1,0.2-0.1,0.3-0.2
					c0.2-0.3,0.3-0.6,0.2-0.9c0-0.3-0.1-0.6-0.2-0.9c-0.1-0.1-0.2-0.2-0.3-0.2c-0.1-0.1-0.2-0.1-0.4-0.1c-0.1,0-0.2,0-0.4,0.1
					c-0.1,0.1-0.2,0.1-0.3,0.2C123.8,284.6,123.7,284.9,123.7,285.3L123.7,285.3z"/>
				<path class="st14" d="M127,285.2c0-0.5,0.1-0.9,0.4-1.3c0.1-0.2,0.3-0.3,0.5-0.4c0.2-0.1,0.4-0.1,0.6-0.1c0.2,0,0.3,0,0.5,0.1
					c0.2,0.1,0.3,0.2,0.4,0.3v-1.8h0.8v5.1h-0.7l0-0.4c-0.1,0.1-0.3,0.3-0.4,0.3c-0.2,0.1-0.4,0.1-0.5,0.1c-0.2,0-0.4,0-0.6-0.1
					c-0.2-0.1-0.3-0.2-0.5-0.4C127.1,286.2,127,285.7,127,285.2z M127.9,285.3c0,0.3,0.1,0.6,0.2,0.9c0.1,0.1,0.2,0.2,0.3,0.2
					c0.1,0.1,0.2,0.1,0.3,0.1c0.2,0,0.3,0,0.4-0.1c0.1-0.1,0.2-0.2,0.3-0.3v-1.5c-0.1-0.1-0.2-0.2-0.3-0.3s-0.3-0.1-0.4-0.1
					c-0.1,0-0.2,0-0.3,0.1c-0.1,0.1-0.2,0.1-0.3,0.2C127.9,284.6,127.8,284.9,127.9,285.3L127.9,285.3z"/>
				<path class="st14" d="M132.6,285.9l0.7-2.4h0.9l-1.4,4.1c-0.2,0.6-0.6,0.9-1.1,0.9c-0.1,0-0.3,0-0.4-0.1v-0.6h0.2
					c0.2,0,0.3,0,0.5-0.1c0.1-0.1,0.2-0.2,0.2-0.4l0.1-0.3l-1.3-3.6h0.9L132.6,285.9z"/>
				<path class="st13" d="M137,284.9l-2.1-0.8v-0.8l2.9,1.2v0.6l-2.9,1.2v-0.8L137,284.9z"/>
				<path class="st13" d="M115.8,293.1l2,0.7v0.8l-2.8-1.2v-0.6l2.8-1.2v0.8L115.8,293.1z"/>
				<path class="st13" d="M119.2,295.6h-0.6l1.9-5.3h0.6L119.2,295.6z"/>
				<path class="st14" d="M125.1,293.4c0,0.5-0.1,0.9-0.4,1.3c-0.1,0.2-0.3,0.3-0.5,0.4c-0.2,0.1-0.4,0.1-0.6,0.1
					c-0.2,0-0.4,0-0.6-0.1c-0.2-0.1-0.3-0.2-0.4-0.4l0,0.4h-0.7v-5.1h0.8v1.9c0.1-0.1,0.3-0.2,0.4-0.3c0.2-0.1,0.3-0.1,0.5-0.1
					c0.2,0,0.4,0,0.6,0.1c0.2,0.1,0.3,0.2,0.5,0.4C125,292.4,125.1,292.9,125.1,293.4L125.1,293.4z M124.3,293.4
					c0-0.3-0.1-0.6-0.2-0.9c-0.1-0.1-0.2-0.2-0.3-0.2c-0.1-0.1-0.2-0.1-0.3-0.1c-0.2,0-0.3,0-0.4,0.1c-0.1,0.1-0.2,0.2-0.3,0.3v1.5
					c0.1,0.1,0.2,0.3,0.3,0.4c0.1,0.1,0.3,0.1,0.5,0.1c0.1,0,0.2,0,0.3-0.1c0.1-0.1,0.2-0.1,0.3-0.2c0.2-0.3,0.2-0.6,0.2-0.9V293.4z
					"/>
				<path class="st14" d="M125.8,293.4c0-0.3,0.1-0.7,0.2-1c0.1-0.3,0.3-0.5,0.6-0.7c0.3-0.2,0.6-0.2,0.9-0.2c0.2,0,0.4,0,0.6,0.1
					c0.2,0.1,0.4,0.2,0.5,0.4c0.3,0.3,0.5,0.8,0.5,1.2v0.2c0,0.3-0.1,0.7-0.2,1c-0.1,0.3-0.3,0.5-0.6,0.6c-0.3,0.2-0.6,0.2-0.9,0.2
					c-0.2,0-0.5,0-0.7-0.1c-0.2-0.1-0.4-0.2-0.6-0.4C126,294.4,125.8,293.9,125.8,293.4L125.8,293.4z M126.7,293.5
					c0,0.3,0.1,0.6,0.2,0.9c0.1,0.1,0.2,0.2,0.3,0.2c0.1,0.1,0.2,0.1,0.4,0.1c0.1,0,0.2,0,0.4-0.1c0.1-0.1,0.2-0.1,0.3-0.2
					c0.2-0.3,0.3-0.6,0.2-0.9c0-0.3-0.1-0.6-0.2-0.9c-0.1-0.1-0.2-0.2-0.3-0.2c-0.1-0.1-0.2-0.1-0.4-0.1c-0.1,0-0.2,0-0.4,0.1
					c-0.1,0.1-0.2,0.1-0.3,0.2C126.7,292.8,126.6,293.1,126.7,293.5L126.7,293.5z"/>
				<path class="st14" d="M130,293.4c0-0.5,0.1-0.9,0.4-1.3c0.1-0.2,0.3-0.3,0.5-0.4s0.4-0.1,0.6-0.1c0.2,0,0.3,0,0.5,0.1
					c0.2,0.1,0.3,0.2,0.4,0.3v-1.8h0.8v5.1h-0.7l0-0.4c-0.1,0.1-0.3,0.3-0.4,0.3c-0.2,0.1-0.4,0.1-0.5,0.1c-0.2,0-0.4,0-0.6-0.1
					c-0.2-0.1-0.3-0.2-0.5-0.4C130.1,294.4,130,293.9,130,293.4z M130.8,293.5c0,0.3,0.1,0.6,0.2,0.9c0.1,0.1,0.2,0.2,0.3,0.2
					c0.1,0.1,0.2,0.1,0.3,0.1c0.2,0,0.3,0,0.4-0.1c0.1-0.1,0.2-0.2,0.3-0.3v-1.5c-0.1-0.1-0.2-0.2-0.3-0.3c-0.1-0.1-0.3-0.1-0.4-0.1
					c-0.1,0-0.2,0-0.3,0.1c-0.1,0.1-0.2,0.1-0.3,0.2C130.9,292.8,130.8,293.1,130.8,293.5L130.8,293.5z"/>
				<path class="st14" d="M135.5,294.1l0.7-2.4h0.9l-1.4,4.1c-0.2,0.6-0.6,0.9-1.1,0.9c-0.1,0-0.3,0-0.4-0.1V296h0.2
					c0.2,0,0.3,0,0.5-0.1c0.1-0.1,0.2-0.2,0.2-0.4l0.1-0.3l-1.3-3.6h0.9L135.5,294.1z"/>
				<path class="st13" d="M139.9,293.1l-2.1-0.8v-0.8l2.9,1.2v0.6l-2.9,1.2v-0.8L139.9,293.1z"/>
				<path class="st13" d="M115.8,309.5l2,0.7v0.8l-2.8-1.2v-0.6l2.8-1.2v0.8L115.8,309.5z"/>
				<path class="st13" d="M119.2,312h-0.6l1.9-5.3h0.6L119.2,312z"/>
				<path class="st14" d="M122.7,308.4c0.1-0.1,0.3-0.3,0.4-0.3c0.2-0.1,0.4-0.1,0.6-0.1c0.8,0,1.2,0.4,1.2,1.3v2.4h-0.8v-2.3
					c0-0.1,0-0.2,0-0.3c0-0.1-0.1-0.2-0.1-0.2c-0.1-0.1-0.3-0.2-0.5-0.2c-0.1,0-0.3,0-0.4,0.1c-0.1,0.1-0.2,0.2-0.3,0.3v2.6h-0.8
					v-5.1h0.8L122.7,308.4z"/>
				<path class="st14" d="M127,307.1v0.9h0.6v0.6H127v2c0,0.1,0,0.2,0.1,0.3c0,0,0.1,0.1,0.1,0.1c0,0,0.1,0,0.2,0c0.1,0,0.2,0,0.3,0
					v0.6c-0.2,0.1-0.4,0.1-0.5,0.1c-0.6,0-0.9-0.3-0.9-1v-2h-0.6V308h0.6v-0.9L127,307.1z"/>
				<path class="st14" d="M129.2,308l0,0.4c0.1-0.1,0.3-0.3,0.5-0.3c0.2-0.1,0.4-0.1,0.6-0.1c0.2,0,0.4,0,0.6,0.1
					c0.2,0.1,0.3,0.2,0.4,0.4c0.1-0.2,0.3-0.3,0.5-0.4c0.2-0.1,0.4-0.1,0.6-0.1c0.2,0,0.3,0,0.5,0.1c0.2,0.1,0.3,0.2,0.4,0.3
					c0.2,0.3,0.3,0.6,0.3,1v2.4h-0.8v-2.3c0-0.2,0-0.4-0.2-0.5c-0.1-0.1-0.1-0.1-0.2-0.1c-0.1,0-0.2,0-0.3,0c-0.2,0-0.3,0-0.5,0.1
					c-0.1,0.1-0.2,0.2-0.2,0.4v2.5h-0.8v-2.4c0-0.1,0-0.2,0-0.3c0-0.1-0.1-0.2-0.1-0.2c-0.1-0.1-0.1-0.1-0.2-0.1c-0.1,0-0.2,0-0.3,0
					c-0.1,0-0.3,0-0.4,0.1c-0.1,0.1-0.2,0.2-0.3,0.3v2.6h-0.8V308H129.2z"/>
				<path class="st14" d="M135.5,311.6h-0.8v-5.1h0.8V311.6z"/>
				<path class="st13" d="M138.7,309.5l-2.1-0.8v-0.8l2.9,1.2v0.6l-2.9,1.2v-0.8L138.7,309.5z"/>
			</g>
		</g>
	</g>
</g>
</svg>
