<?xml version="1.0" encoding="utf-8"?>
<!-- Generator: Adobe Illustrator 26.0.0, SVG Export Plug-In . SVG Version: 6.00 Build 0)  -->
<svg version="1.1" id="Layer_1" xmlns="http://www.w3.org/2000/svg" xmlns:xlink="http://www.w3.org/1999/xlink" x="0px" y="0px"
	 viewBox="0 0 150 137" style="enable-background:new 0 0 150 137;" xml:space="preserve">
<style type="text/css">
	.st0{fill:url(#SVGID_1_);}
	.st1{fill:url(#SVGID_00000181782062130884157800000006110119778317385633_);}
	.st2{fill:url(#SVGID_00000157283538506608799830000013283708942198900145_);}
	.st3{fill:#FFFFFF;}
</style>
<g>
	
		<radialGradient id="SVGID_1_" cx="-177.1332" cy="322.3013" r="1" gradientTransform="matrix(62.7882 0 0 -69.2937 11190.6963 22406.8809)" gradientUnits="userSpaceOnUse">
		<stop  offset="0" style="stop-color:#074F44"/>
		<stop  offset="1" style="stop-color:#0A776A"/>
	</radialGradient>
	<path class="st0" d="M117.4,18c-9.4-6.2-23.2-6.4-33.8-0.4c-11.6,6.6-18.4,8.7-29,8.6C44.6,26,24.9,20.2,12,32.4
		c-15.5,14.6-15.3,37-3,56.5c13.7,21.8,44.2,45.6,79.8,44.2c35.6-1.3,50.9-32.8,52.1-54.8C142.9,37.6,127,24.3,117.4,18z"/>
	
		<radialGradient id="SVGID_00000141455485476638253110000001751450239975735700_" cx="-177.2464" cy="322.4079" r="1" gradientTransform="matrix(65.3682 0 0 -72.1411 11665.542 23327.3457)" gradientUnits="userSpaceOnUse">
		<stop  offset="0" style="stop-color:#074F44"/>
		<stop  offset="1" style="stop-color:#1DA69A"/>
	</radialGradient>
	<path style="fill:url(#SVGID_00000141455485476638253110000001751450239975735700_);" d="M138.4,39.3c-7.7-9.7-19.6-17.4-31.5-17.1
		c-13,0.4-22.2-0.8-32.1-6.2C65.5,10.8,50.8-2.7,35,0.5C15.3,4.3,8.6,27.2,13.6,51.4c5.7,27,25.5,66.5,60.2,80.5
		c33.9,13.7,60-6.3,69.3-24.5C155.9,82.1,148.9,52.5,138.4,39.3z"/>
	
		<radialGradient id="SVGID_00000130609468483055743990000016237198713604407982_" cx="-176.9272" cy="321.9627" r="1" gradientTransform="matrix(58.5776 0 0 -61.5685 10431.2969 19890.1992)" gradientUnits="userSpaceOnUse">
		<stop  offset="0" style="stop-color:#074F44"/>
		<stop  offset="1" style="stop-color:#1DA69A"/>
	</radialGradient>
	<path style="fill:url(#SVGID_00000130609468483055743990000016237198713604407982_);" d="M125.1,51.6C117,13.3,103.3,7.2,94.3,5.1
		c-8.8-2-19.7,3.3-26.5,13c-7.5,10.6-12.3,15.3-20.6,19.4c-7.9,3.9-24.6,6.4-31.8,22.7c-8.6,19.6-3.1,40.1,11.1,53.2
		c15.9,14.6,45.3,24.4,72.9,9C126.8,107.1,129.4,72.3,125.1,51.6z"/>
	<path class="st3" d="M55.7,98.9c-2.4-2.4-2.2-6.2,0-8.4l5.5-5.5l8.3,8.4l-5.5,5.5C61.8,101.3,58.1,101.3,55.7,98.9z M71.5,91.5
		l-8.3-8.4L85.1,61l8.3,8.4L71.5,91.5z"/>
	<path class="st3" d="M86.5,54.8c-1.4,0-2.5,1.1-2.5,2.5s1.1,2.5,2.5,2.5c1.4,0,2.5-1.1,2.5-2.5C89,56,87.9,54.8,86.5,54.8z
		 M91.7,82.7c-1.4,0-2.6-1.2-2.6-2.6s1.2-2.6,2.6-2.6c1.4,0,2.6,1.2,2.6,2.6C94.3,81.6,93.2,82.7,91.7,82.7z M91.7,78.6
		c-0.8,0-1.5,0.7-1.5,1.5c0,0.8,0.7,1.5,1.5,1.5c0.8,0,1.5-0.7,1.5-1.5S92.6,78.6,91.7,78.6z M102.6,56.7c0.9,0,1.6,0.7,1.6,1.7
		s-0.7,1.6-1.6,1.6c-0.9,0-1.6-0.7-1.6-1.6C100.9,57.4,101.7,56.7,102.6,56.7z M102.6,54.9c-1.9,0-3.4,1.5-3.4,3.4s1.5,3.4,3.4,3.4
		s3.4-1.5,3.4-3.4C105.9,56.4,104.4,54.9,102.6,54.9z M87.5,47.1l2.2-2.3c0.2-0.2,0.3-0.4,0.2-0.7L89.3,41c-0.1-0.4,0.3-0.7,0.6-0.5
		l2.8,1.4c0.2,0.1,0.5,0.1,0.7,0l2.7-1.5c0.3-0.2,0.7,0.1,0.7,0.5L96.5,44c0,0.3,0.1,0.5,0.2,0.7l2.3,2.1c0.3,0.2,0.1,0.7-0.2,0.8
		l-3.1,0.5c-0.3,0.1-0.5,0.2-0.6,0.5l-1.3,2.9c-0.1,0.3-0.6,0.4-0.8,0l-1.5-2.8c-0.1-0.2-0.3-0.4-0.6-0.4l-3.1-0.4
		C87.4,47.8,87.3,47.4,87.5,47.1z M106.4,75.5l-1.4-1.5c-0.1-0.1-0.3-0.2-0.5-0.2l-2.1,0.3c-0.2,0-0.4-0.2-0.3-0.4l1-1.8
		c0.1-0.1,0.1-0.3,0-0.5l-0.9-1.9c-0.1-0.2,0.1-0.5,0.3-0.4l2.1,0.4c0.2,0,0.3,0,0.5-0.1l1.5-1.5c0.2-0.2,0.5-0.1,0.5,0.2l0.3,2.1
		c0,0.2,0.1,0.3,0.3,0.4l1.9,1c0.2,0.1,0.2,0.4,0,0.5l-1.9,0.9c-0.2,0.1-0.3,0.2-0.3,0.4l-0.3,2.1C106.9,75.6,106.6,75.7,106.4,75.5
		z M78.4,54.7c0.3,0,0.5-0.3,0.3-0.6l-1.5-2C77,51.9,77,51.7,77,51.5l0.8-2.4c0-0.1,0-0.3-0.1-0.4c-0.1-0.1-0.2-0.1-0.4-0.1L75,49.4
		c-0.2,0.1-0.4,0-0.6-0.1l-2-1.5c-0.2-0.2-0.6,0-0.6,0.3l0,2.6c0,0.2-0.1,0.4-0.3,0.5l-2.1,1.5c-0.2,0.1-0.2,0.4,0,0.6
		c0,0,0.1,0.1,0.1,0.1L72,54c0.1,0,0.2,0.1,0.3,0.2c0.1,0.1,0.1,0.2,0.2,0.3l0.8,2.5c0,0.1,0,0.1,0.1,0.1c0.1,0.1,0.4,0.1,0.5-0.1
		l1.5-2.1c0.1-0.2,0.3-0.3,0.5-0.3L78.4,54.7z M75.8,54.1c-0.4,0-0.8,0.2-1,0.5l-1.2,1.8l-0.6-2c-0.1-0.2-0.2-0.4-0.3-0.5
		c-0.1-0.1-0.3-0.2-0.5-0.3l-2-0.6l1.7-1.2c0.3-0.2,0.5-0.6,0.5-1l0-2.1l1.7,1.3c0.3,0.2,0.7,0.3,1.1,0.2l2-0.7l-0.7,2
		c-0.1,0.4-0.1,0.8,0.2,1.1l1.3,1.7L75.8,54.1z M113.7,48.4c0.2,0,0.3-0.2,0.2-0.4l-1-1.4c-0.1-0.1-0.1-0.3-0.1-0.4l0.5-1.7
		c0-0.1,0-0.2-0.1-0.3c-0.1-0.1-0.1-0.1-0.3-0.1l-1.6,0.6c-0.1,0.1-0.3,0-0.4-0.1l-1.4-1c-0.2-0.1-0.4,0-0.4,0.2l0,1.8
		c0,0.1-0.1,0.3-0.2,0.4l-1.4,1c-0.1,0.1-0.1,0.3,0,0.4c0,0,0.1,0.1,0.1,0.1l1.6,0.5c0.1,0,0.1,0.1,0.2,0.1c0,0.1,0.1,0.1,0.1,0.2
		l0.5,1.7c0,0,0,0.1,0.1,0.1c0.1,0.1,0.3,0.1,0.4,0l1-1.4c0.1-0.1,0.2-0.2,0.4-0.2L113.7,48.4z M112,48c-0.3,0-0.5,0.1-0.7,0.4
		l-0.8,1.2l-0.4-1.4c0-0.1-0.1-0.2-0.2-0.3s-0.2-0.2-0.3-0.2l-1.4-0.4l1.2-0.8c0.2-0.1,0.3-0.4,0.3-0.7l0-1.5l1.2,0.9
		c0.2,0.2,0.5,0.2,0.8,0.1l1.4-0.5l-0.5,1.4c-0.1,0.3,0,0.5,0.1,0.8l0.9,1.2C113.5,48,112,48,112,48z"/>
</g>
</svg>
