<?xml version="1.0" encoding="utf-8"?>
<!-- Generator: Adobe Illustrator 26.0.0, SVG Export Plug-In . SVG Version: 6.00 Build 0)  -->
<svg version="1.1" id="Layer_1" xmlns="http://www.w3.org/2000/svg" xmlns:xlink="http://www.w3.org/1999/xlink" x="0px" y="0px"
	 viewBox="0 0 150 137" style="enable-background:new 0 0 150 137;" xml:space="preserve">
<style type="text/css">
	.st0{fill:url(#SVGID_1_);}
	.st1{fill:url(#SVGID_00000050654043186449604730000005362823465495241111_);}
	.st2{fill:url(#SVGID_00000098215275515946247530000014777289683000551101_);}
	.st3{fill:#FFFFFF;}
</style>
<g>
	
		<radialGradient id="SVGID_1_" cx="-177.4374" cy="322.3336" r="1" gradientTransform="matrix(70.2423 0 0 -70.1307 12539.5264 22674.4766)" gradientUnits="userSpaceOnUse">
		<stop  offset="0" style="stop-color:#074F44"/>
		<stop  offset="1" style="stop-color:#0A776A"/>
	</radialGradient>
	<path class="st0" d="M122,39.6c0,0-4.2-4.1-24.5-26.1c-20.3-22-42.9,0-48.3,6c-5.4,6-15.6,17.2-30.9,33.7
		C2.9,69.6-2.2,84.7,2.5,96.3c4.7,11.7,21.8,17.2,38.4,12.9c18.2-4.7,35.1-5.3,49.3,11.9c17.8,21.8,49.8,15.5,58-15
		C156.5,75.7,134.3,53.1,122,39.6z"/>
	
		<radialGradient id="SVGID_00000018927104568204139640000013437985782632611993_" cx="-177.0669" cy="321.9782" r="0.9994" gradientTransform="matrix(61.3679 0 0 -61.8831 10932.4355 20005.6035)" gradientUnits="userSpaceOnUse">
		<stop  offset="0" style="stop-color:#074F44"/>
		<stop  offset="1" style="stop-color:#1DA69A"/>
	</radialGradient>
	<path style="fill:url(#SVGID_00000018927104568204139640000013437985782632611993_);" d="M129.9,60.2
		c-5.6-18.7-22.7-27.5-37.8-22.1c-9.6,3.4-21.9,4.7-40.4-7.2C31.8,18-0.1,19.5,0,55.9c0.1,46.4,21.3,63.4,33.8,71.4
		c26.8,16.9,64.4,8.2,79.8-8.9C128.8,101.6,135.7,79.5,129.9,60.2z"/>
	
		<radialGradient id="SVGID_00000150069098289922840730000002705042565065536947_" cx="-177.2464" cy="322.106" r="1" gradientTransform="matrix(65.3678 0 0 -64.6178 11658.8174 20875.2852)" gradientUnits="userSpaceOnUse">
		<stop  offset="0" style="stop-color:#074F44"/>
		<stop  offset="1" style="stop-color:#1DA69A"/>
	</radialGradient>
	<path style="fill:url(#SVGID_00000150069098289922840730000002705042565065536947_);" d="M136.2,8.3c-6-8.7-21.7-12.8-36.9-0.9
		c-17,13.3-41,19.9-62.5,23.3c-22.1,3.6-32.6,19.9-32.9,30C3.6,71.7,13.1,85.5,41,102.4c27.9,16.9,47.4,21.6,64.1,19.4
		c16.7-2.2,27.6-12,33-28.4c3.8-11.5,1.7-25.2,0.8-43.6C137.8,26.9,144.9,20.8,136.2,8.3z"/>
	<path class="st3" d="M87.4,54.3c0.3-0.4-1.8-2.4-4.6-4.4c-2.8-2-5.4-3.2-5.7-2.8L53,82.6l-1,1.5c0.5,2.8,5.9,7.1,10.3,6.9l1.1-1.6
		L87.4,54.3z M81.3,50c0.1-0.1,0.5,0.1,1,0.5c0.5,0.4,0.9,0.7,0.8,0.8c-0.1,0.1-0.5-0.1-1-0.5C81.6,50.5,81.3,50.1,81.3,50z
		 M97,96.7H64.4l5.1-7.5H97V96.7z M51.2,85.5L51,96.7l10.5-4.2c-1.5-0.4-4.1-0.8-6.3-2.3C53.2,88.7,52,86.7,51.2,85.5z"/>
</g>
</svg>
