<?xml version="1.0" encoding="utf-8"?>
<!-- Generator: Adobe Illustrator 26.0.0, SVG Export Plug-In . SVG Version: 6.00 Build 0)  -->
<svg version="1.1" id="Layer_1" xmlns="http://www.w3.org/2000/svg" xmlns:xlink="http://www.w3.org/1999/xlink" x="0px" y="0px"
	 viewBox="0 0 150 137" style="enable-background:new 0 0 150 137;" xml:space="preserve">
<style type="text/css">
	.st0{fill:url(#SVGID_1_);}
	.st1{fill:url(#SVGID_00000080916174975638770440000006571028034433994898_);}
	.st2{fill:url(#SVGID_00000116200882902553410380000005854686173909994927_);}
	.st3{fill:#FFFFFF;}
	.st4{fill:#1DA69A;}
</style>
<g>
	
		<radialGradient id="SVGID_1_" cx="-177.4374" cy="322.3336" r="1" gradientTransform="matrix(70.2423 0 0 -70.1307 12539.5264 22674.4766)" gradientUnits="userSpaceOnUse">
		<stop  offset="0" style="stop-color:#074F44"/>
		<stop  offset="1" style="stop-color:#0A776A"/>
	</radialGradient>
	<path class="st0" d="M122,39.6c0,0-4.2-4.1-24.5-26.1c-20.3-22-42.9,0-48.3,6c-5.4,6-15.6,17.2-30.9,33.7
		C2.9,69.6-2.2,84.7,2.5,96.3c4.7,11.7,21.8,17.2,38.4,12.9c18.2-4.7,35.1-5.3,49.3,11.9c17.8,21.8,49.8,15.5,58-15
		C156.5,75.7,134.3,53.1,122,39.6z"/>
	
		<radialGradient id="SVGID_00000147907463058201889020000014673486048987434392_" cx="-177.0669" cy="321.9782" r="0.9994" gradientTransform="matrix(61.3679 0 0 -61.8831 10932.4355 20005.6035)" gradientUnits="userSpaceOnUse">
		<stop  offset="0" style="stop-color:#074F44"/>
		<stop  offset="1" style="stop-color:#1DA69A"/>
	</radialGradient>
	<path style="fill:url(#SVGID_00000147907463058201889020000014673486048987434392_);" d="M129.9,60.2
		c-5.6-18.7-22.7-27.5-37.8-22.1c-9.6,3.4-21.9,4.7-40.4-7.2C31.8,18-0.1,19.5,0,55.9c0.1,46.4,21.3,63.4,33.8,71.4
		c26.8,16.9,64.4,8.2,79.8-8.9C128.8,101.6,135.7,79.5,129.9,60.2z"/>
	
		<radialGradient id="SVGID_00000129885134571264587520000010109445333755015329_" cx="-177.2464" cy="322.106" r="1" gradientTransform="matrix(65.3678 0 0 -64.6178 11658.8174 20875.2852)" gradientUnits="userSpaceOnUse">
		<stop  offset="0" style="stop-color:#074F44"/>
		<stop  offset="1" style="stop-color:#1DA69A"/>
	</radialGradient>
	<path style="fill:url(#SVGID_00000129885134571264587520000010109445333755015329_);" d="M136.2,8.3c-6-8.7-21.7-12.8-36.9-0.9
		c-17,13.3-41,19.9-62.5,23.3c-22.1,3.6-32.6,19.9-32.9,30C3.6,71.7,13.1,85.5,41,102.4c27.9,16.9,47.4,21.6,64.1,19.4
		c16.7-2.2,27.6-12,33-28.4c3.8-11.5,1.7-25.2,0.8-43.6C137.8,26.9,144.9,20.8,136.2,8.3z"/>
	<g>
		<path class="st3" d="M102,62.6v21.5c0,1.1-0.4,2.1-1.2,2.8c-0.8,0.8-1.8,1.2-2.8,1.2h-8.1v-7.8h4.2c0.3,0,0.6-0.1,0.9-0.4
			c0.2-0.2,0.4-0.5,0.4-0.9v0c0-0.3-0.1-0.6-0.4-0.9c-0.2-0.2-0.5-0.4-0.9-0.4H48.9c-0.2,0-0.3,0-0.5,0.1c-0.1,0.1-0.3,0.2-0.4,0.3
			c-0.1,0.1-0.2,0.2-0.3,0.4c-0.1,0.1-0.1,0.3-0.1,0.5c0,0.2,0,0.3,0.1,0.5c0.1,0.1,0.2,0.3,0.3,0.4c0.1,0.1,0.2,0.2,0.4,0.3
			c0.1,0.1,0.3,0.1,0.5,0.1h4.2v7.9H45c-1.1,0-2.1-0.4-2.8-1.2c-0.8-0.8-1.2-1.8-1.2-2.8V62.6c0-0.5,0.1-1,0.3-1.5
			c0.2-0.5,0.5-0.9,0.9-1.3c0.4-0.4,0.8-0.7,1.3-0.9c0.5-0.2,1-0.3,1.5-0.3h53c0.5,0,1.1,0.1,1.5,0.3c0.5,0.2,0.9,0.5,1.3,0.9
			c0.4,0.4,0.7,0.8,0.9,1.3C101.9,61.6,102,62.1,102,62.6z"/>
		<path class="st3" d="M87.7,47H55.3v9.8h32.3V47z"/>
		<path class="st3" d="M87.7,80.1H55.3V102h32.3V80.1z"/>
		<path class="st4" d="M59.3,91.3c0-0.1,0-0.2,0-0.3c0-0.1,0.1-0.2,0.1-0.2c0.1-0.1,0.1-0.1,0.2-0.1c0.1,0,0.2,0,0.3,0h16.8
			c0.1,0,0.2,0,0.3,0c0.1,0,0.2,0.1,0.2,0.1c0.1,0.1,0.1,0.1,0.1,0.2c0,0.1,0,0.2,0,0.3c0,0.1,0,0.2,0,0.3c0,0.1-0.1,0.2-0.1,0.2
			c-0.1,0.1-0.1,0.1-0.2,0.1c-0.1,0-0.2,0-0.3,0H60c-0.1,0-0.2,0-0.3,0c-0.1,0-0.2-0.1-0.2-0.1c-0.1-0.1-0.1-0.1-0.1-0.2
			C59.3,91.4,59.3,91.3,59.3,91.3z M59.3,94.6c0-0.1,0.1-0.3,0.2-0.4c0.1-0.1,0.2-0.2,0.4-0.2h23.2c0.1,0,0.3,0.1,0.4,0.2
			c0.1,0.1,0.2,0.2,0.2,0.4c0,0.2-0.1,0.3-0.2,0.4c-0.1,0.1-0.2,0.2-0.4,0.2H59.9c-0.2,0-0.3-0.1-0.4-0.2
			C59.4,94.9,59.3,94.8,59.3,94.6L59.3,94.6z M59.3,98.4c0-0.1,0-0.2,0-0.3c0-0.1,0.1-0.2,0.1-0.2c0.1-0.1,0.1-0.1,0.2-0.1
			c0.1,0,0.2,0,0.3,0h22.9c0.1,0,0.2,0,0.3,0c0.1,0,0.2,0.1,0.2,0.1c0.1,0.1,0.1,0.1,0.1,0.2c0,0.1,0,0.2,0,0.3c0,0.1,0,0.2,0,0.3
			c0,0.1-0.1,0.2-0.1,0.2c-0.1,0.1-0.1,0.1-0.2,0.1c-0.1,0-0.2,0.1-0.3,0H60c-0.1,0-0.2,0-0.3,0c-0.1,0-0.2-0.1-0.2-0.1
			c-0.1-0.1-0.1-0.1-0.1-0.2C59.3,98.6,59.3,98.5,59.3,98.4z M59.3,85.1c0-0.1,0-0.2,0-0.3c0-0.1,0.1-0.2,0.1-0.2
			c0.1-0.1,0.1-0.1,0.2-0.1c0.1,0,0.2,0,0.3,0h11.3c0.1,0,0.2,0,0.3,0c0.1,0,0.2,0.1,0.2,0.1c0.1,0.1,0.1,0.1,0.1,0.2
			c0,0.1,0,0.2,0,0.3c0,0.1,0,0.2,0,0.3c0,0.1-0.1,0.2-0.1,0.2s-0.1,0.1-0.2,0.1c-0.1,0-0.2,0-0.3,0H60c-0.1,0-0.2,0-0.3,0
			c-0.1,0-0.2-0.1-0.2-0.1s-0.1-0.1-0.1-0.2C59.3,85.3,59.3,85.2,59.3,85.1z M59.3,88.2c0-0.1,0-0.2,0-0.3c0-0.1,0.1-0.2,0.1-0.2
			c0.1-0.1,0.1-0.1,0.2-0.1c0.1,0,0.2,0,0.3,0h11.3c0.1,0,0.2,0,0.3,0c0.1,0,0.2,0.1,0.2,0.1c0.1,0.1,0.1,0.1,0.1,0.2
			c0,0.1,0,0.2,0,0.3c0,0.1,0,0.2,0,0.3c0,0.1-0.1,0.2-0.1,0.2c-0.1,0.1-0.1,0.1-0.2,0.1c-0.1,0-0.2,0-0.3,0H60c-0.1,0-0.2,0-0.3,0
			c-0.1,0-0.2-0.1-0.2-0.1c-0.1-0.1-0.1-0.1-0.1-0.2C59.3,88.4,59.3,88.3,59.3,88.2z"/>
	</g>
</g>
</svg>
