<?xml version="1.0" encoding="utf-8"?>
<!-- Generator: Adobe Illustrator 26.0.0, SVG Export Plug-In . SVG Version: 6.00 Build 0)  -->
<svg version="1.1" id="Layer_1" xmlns="http://www.w3.org/2000/svg" xmlns:xlink="http://www.w3.org/1999/xlink" x="0px" y="0px"
	 viewBox="0 0 459 458" style="enable-background:new 0 0 459 458;" xml:space="preserve">
<style type="text/css">
	.st0{fill:url(#SVGID_1_);}
	.st1{fill:url(#SVGID_00000051350301481868354890000005080210642711905693_);}
	.st2{fill:url(#SVGID_00000169524017875796985850000012398736500420128386_);}
	.st3{opacity:0.31;}
	.st4{fill:#D9DADA;}
	.st5{fill:#E1E2FE;}
	.st6{fill:#1DA69A;}
	.st7{opacity:0.58;}
	.st8{opacity:0.31;fill:#1DA69A;enable-background:new    ;}
	.st9{opacity:0.58;fill:#1DA69A;enable-background:new    ;}
	.st10{opacity:0.55;fill:#F2F6FF;enable-background:new    ;}
	.st11{opacity:0.6;fill:url(#SVGID_00000062884350880640288770000001197503661552436381_);enable-background:new    ;}
	.st12{opacity:0.6;fill:url(#SVGID_00000022536432177055928750000003547127097279560373_);enable-background:new    ;}
	.st13{fill:#FFFFFF;}
	.st14{fill-rule:evenodd;clip-rule:evenodd;fill:#FFFFFF;}
	.st15{fill:#EEEEFE;}
	.st16{fill:#BAE2E1;stroke:#4EB7B4;}
	.st17{opacity:0.3;fill-rule:evenodd;clip-rule:evenodd;fill:#FFFFFF;enable-background:new    ;}
	.st18{fill:#F4F4F4;}
	.st19{fill-rule:evenodd;clip-rule:evenodd;fill:#EEEEFE;}
</style>
<g>
	
		<radialGradient id="SVGID_1_" cx="-25.8231" cy="485.9525" r="1" gradientTransform="matrix(173.891 100.396 100.2365 -173.6147 -43998.2422 87189.2891)" gradientUnits="userSpaceOnUse">
		<stop  offset="0" style="stop-color:#074F44"/>
		<stop  offset="1" style="stop-color:#0A776A"/>
	</radialGradient>
	<path class="st0" d="M377.6,221.4c0,0-4.6-16.3-23.4-99.7C335.5,38.2,248,60.3,226.1,67.3c-21.9,7-63.1,20.3-124.6,39.2
		C40,125.5,5.7,155.3,0.6,190.9c-5,35.7,29.4,73.7,76.7,86.9c51.8,14.5,94.6,37,105,99.9c13.1,79.4,101.1,109.5,165.1,45.9
		S388.7,272.3,377.6,221.4z"/>
	
		<radialGradient id="SVGID_00000024718860850256518170000007800593537135925154_" cx="-25.7975" cy="485.9462" r="0.9994" gradientTransform="matrix(151.9216 87.712 88.4485 -153.1973 -38881.0664 76951.4922)" gradientUnits="userSpaceOnUse">
		<stop  offset="0" style="stop-color:#074F44"/>
		<stop  offset="1" style="stop-color:#1DA69A"/>
	</radialGradient>
	<path style="fill:url(#SVGID_00000024718860850256518170000007800593537135925154_);" d="M367.8,283.6c12.8-54.3-17-100.4-62-108.8
		c-28.7-5.3-60.8-19.6-89.6-75.6C185.2,39.1,104.1-3,52.3,87.4c-66,115.1-38,187.4-18.3,225c42.2,80.3,147.6,112.4,210.3,92.1
		C305.8,384.6,354.6,339.6,367.8,283.6z"/>
	
		<radialGradient id="SVGID_00000109030384377888231380000008321770324947805586_" cx="-25.8099" cy="485.9485" r="1" gradientTransform="matrix(161.8238 93.429 92.357 -159.967 -40480.0039 80352.0859)" gradientUnits="userSpaceOnUse">
		<stop  offset="0" style="stop-color:#074F44"/>
		<stop  offset="1" style="stop-color:#1DA69A"/>
	</radialGradient>
	<path style="fill:url(#SVGID_00000109030384377888231380000008321770324947805586_);" d="M457.5,164c-2.5-30.1-35.5-62.6-89.9-55
		c-61.1,8.6-130-9.4-188.1-31.6C119.7,54.7,70.5,80,55.3,104.6c-16.6,27-13,74.7,32,156.4s86.5,121.1,130.9,139.6
		s85.5,9.7,122.4-23.1c25.8-23,40.2-60,64.3-106.8C434.9,212.3,461.1,207.6,457.5,164z"/>
	<g class="st3">
		<path class="st4" d="M286,31.4c0.1-7.3-5.6-13.4-12.8-13.6c-7.2-0.1-13.1,5.7-13.3,13s5.6,13.4,12.8,13.6
			C279.9,44.6,285.8,38.7,286,31.4z"/>
	</g>
	<g class="st3">
		<path class="st4" d="M105,74.2c0.1,1.3,0.6,2.6,1.4,3.6c0.8,1,1.9,1.8,3.2,2.2c1.3,0.4,2.6,0.5,3.9,0.1c1.3-0.3,2.4-1.1,3.3-2
			c0.9-1,1.4-2.2,1.6-3.5c0.2-1.3,0-2.6-0.6-3.8c-0.6-1.2-1.5-2.2-2.6-2.9c-1.1-0.7-2.4-1-3.8-0.9c-0.9,0-1.8,0.3-2.6,0.7
			c-0.8,0.4-1.5,0.9-2.1,1.6c-0.6,0.7-1,1.5-1.3,2.3C105.1,72.4,105,73.3,105,74.2z"/>
	</g>
	<g class="st3">
		<path class="st5" d="M455.5,185.6c0.1,0.9,0.4,1.7,0.9,2.4s1.3,1.2,2.1,1.5c0.8,0.3,1.7,0.3,2.6,0.1c0.8-0.2,1.6-0.7,2.2-1.4
			c0.6-0.7,1-1.5,1.1-2.3c0.1-0.9,0-1.8-0.4-2.5s-1-1.4-1.7-1.9c-0.8-0.4-1.6-0.7-2.5-0.6c-0.6,0-1.2,0.2-1.7,0.4
			c-0.5,0.3-1,0.6-1.4,1.1c-0.4,0.4-0.7,1-0.9,1.5C455.5,184.4,455.5,185,455.5,185.6z"/>
	</g>
	<path class="st6" d="M431.4,422.3c0.1-6.5-4.9-11.9-11.3-12c-6.4-0.1-11.7,5-11.8,11.6c-0.1,6.5,4.9,11.9,11.3,12
		C425.9,434,431.2,428.8,431.4,422.3z"/>
	<g class="st7">
		<path class="st4" d="M377.5,431c2.5,0,4.5-2,4.5-4.5s-2-4.5-4.5-4.5s-4.5,2-4.5,4.5S375,431,377.5,431z"/>
	</g>
	<g class="st7">
		<path class="st4" d="M237.2,23.5c1.2,0,2.2-1,2.2-2.2c0-1.2-1-2.2-2.2-2.2s-2.2,1-2.2,2.2C235,22.5,236,23.5,237.2,23.5z"/>
	</g>
	<g class="st7">
		<path class="st4" d="M114.7,430.8c2.5,0,4.5-2,4.5-4.5c0-2.5-2-4.5-4.5-4.5c-2.5,0-4.5,2-4.5,4.5
			C110.2,428.8,112.2,430.8,114.7,430.8z"/>
	</g>
	<path class="st8" d="M397.5,445c1.9,0,3.5-1.6,3.5-3.5s-1.6-3.5-3.5-3.5s-3.5,1.6-3.5,3.5S395.6,445,397.5,445z"/>
	<g class="st7">
		<path class="st4" d="M83.5,54c0.8,0,1.5-0.7,1.5-1.5c0-0.8-0.7-1.5-1.5-1.5S82,51.7,82,52.5C82,53.4,82.7,54,83.5,54z"/>
	</g>
	<path class="st6" d="M452.5,60.7c2.2,5.4-2.8,9.6-7.2,7.5c-0.9-0.4-1.7-1.1-2.2-1.9c-0.5-0.8-0.8-1.8-0.9-2.8
		c0-4.8,5.8-7.7,9.8-3.5C452.2,60.2,452.4,60.4,452.5,60.7z"/>
	<path class="st6" d="M100.6,38c0,0.5-0.1,0.9-0.4,1.3c-0.3,0.4-0.6,0.7-1.1,0.8c-0.4,0.1-0.9,0.1-1.4,0c-0.4-0.2-0.8-0.4-1.1-0.8
		c-0.3-0.4-0.4-0.8-0.3-1.3c0-0.5,0.2-0.9,0.5-1.3c0.3-0.3,0.7-0.6,1.2-0.7s0.9,0,1.3,0.2c0.3,0.2,0.6,0.4,0.8,0.7
		C100.5,37.3,100.6,37.6,100.6,38z"/>
	<path class="st9" d="M256.9,3c0,0.5-0.1,0.9-0.4,1.3c-0.3,0.4-0.7,0.7-1.1,0.8c-0.4,0.1-0.9,0.1-1.4,0c-0.4-0.2-0.8-0.5-1.1-0.8
		c-0.3-0.4-0.4-0.9-0.3-1.3c0-0.5,0.2-0.9,0.5-1.2c0.3-0.3,0.7-0.6,1.2-0.7c0.5-0.1,0.9,0,1.3,0.2c0.3,0.2,0.6,0.4,0.8,0.7
		C256.8,2.3,256.9,2.7,256.9,3z"/>
	<g class="st7">
		<path class="st4" d="M422,69.1c0,0.2-0.1,0.5-0.3,0.7c-0.1,0.2-0.3,0.4-0.5,0.5c-0.2,0.1-0.4,0.2-0.7,0.3c-0.2,0-0.5,0-0.7,0
			c-0.2,0-0.5-0.1-0.7-0.3c-0.2-0.1-0.4-0.3-0.5-0.5c-0.1-0.2-0.2-0.4-0.3-0.7c0-0.2,0-0.5,0-0.7c0-0.2,0.1-0.5,0.3-0.7
			c0.1-0.2,0.3-0.4,0.5-0.5c0.2-0.1,0.4-0.2,0.7-0.3c0.2,0,0.5,0,0.7,0c0.2,0.1,0.5,0.1,0.7,0.3c0.2,0.1,0.4,0.3,0.5,0.5
			c0.1,0.2,0.2,0.4,0.3,0.7C422.1,68.6,422.1,68.9,422,69.1z"/>
	</g>
	<path class="st6" d="M24.5,379.5c-0.1,0.3-0.3,0.7-0.5,0.9c-0.3,0.2-0.6,0.4-0.9,0.5c-0.4,0.1-0.7,0-1-0.1
		c-0.3-0.1-0.6-0.4-0.8-0.7c-0.2-0.3-0.3-0.6-0.3-1c0-0.4,0.1-0.7,0.3-1c0.2-0.3,0.5-0.5,0.8-0.6c0.3-0.1,0.7-0.2,1-0.1
		c0.2,0,0.5,0.1,0.6,0.3c0.2,0.1,0.4,0.3,0.5,0.5c0.1,0.2,0.2,0.4,0.3,0.7C24.6,379,24.6,379.3,24.5,379.5z"/>
	<path class="st10" d="M368.5,171.6L330,265.6c-3.5,8.6-13.3,12.7-21.9,9.2l-93.9-38.5c-8.6-3.5-12.7-13.3-9.2-21.9l38.5-93.9
		c3.5-8.6,13.3-12.7,21.9-9.2l93.9,38.5C367.8,153.2,372,163,368.5,171.6z"/>
	
		<linearGradient id="SVGID_00000125588187623772078900000018282725300887801771_" gradientUnits="userSpaceOnUse" x1="134.7697" y1="172.7885" x2="245.5215" y2="172.7885">
		<stop  offset="0" style="stop-color:#5FFBFF"/>
		<stop  offset="0.803" style="stop-color:#5FFBFF"/>
		<stop  offset="1" style="stop-color:#1DA69A"/>
	</linearGradient>
	<path style="opacity:0.6;fill:url(#SVGID_00000125588187623772078900000018282725300887801771_);enable-background:new    ;" d="
		M244.9,155.3l-16.7,60.4c-2.5,9-11.7,14.2-20.7,11.8l-60.4-16.7c-9-2.5-14.2-11.7-11.8-20.7l16.7-60.4c2.5-9,11.7-14.2,20.7-11.8
		l60.4,16.7C242.1,137.1,247.4,146.4,244.9,155.3z"/>
	
		<linearGradient id="SVGID_00000003820270027415970320000017961277770395116700_" gradientUnits="userSpaceOnUse" x1="342.0406" y1="159.0588" x2="265.3979" y2="217.3114" gradientTransform="matrix(1 0 0 -1 0 460)">
		<stop  offset="0" style="stop-color:#5FFBFF"/>
		<stop  offset="0.803" style="stop-color:#5FFBFF"/>
		<stop  offset="1" style="stop-color:#1DA69A"/>
	</linearGradient>
	<path style="opacity:0.6;fill:url(#SVGID_00000003820270027415970320000017961277770395116700_);enable-background:new    ;" d="
		M362.7,273.7l-41.4,54.4c-4.7,6.2-13.5,7.4-19.5,2.7l-54.4-41.4c-6.2-4.7-7.4-13.5-2.7-19.5l41.4-54.4c4.7-6.2,13.5-7.4,19.5-2.7
		l54.4,41.4C366.2,258.8,367.4,267.6,362.7,273.7z"/>
	<path class="st13" d="M303.8,151.5c0-1.1-0.9-2.1-2.1-2.1H148.8c-1.2,0-2.1,0.9-2.1,2.1v193.9c0,1.1,0.9,2.1,2.1,2.1h152.9
		c1.1,0,2.1-0.9,2.1-2.1V151.5z"/>
	<path class="st6" d="M294.9,331.6h15.4c1.5,0,2.8,1.3,2.8,2.8v15.4c0,1.5-1.3,2.8-2.8,2.8h-15.4c-1.5,0-2.8-1.3-2.8-2.8v-15.4
		C292.1,332.9,293.4,331.6,294.9,331.6z"/>
	<path class="st14" d="M300.5,336.8h7.1v8.3H304v2.4h-7.1v-8.8h3.6V336.8z M297.6,339.2v7.7h5.9v-1.8h-2.9v-5.9L297.6,339.2z
		 M301.1,338.6v-1.2h5.9v7.1h-5.9V338.6z"/>
	<path class="st15" d="M160,165.1c0-0.7,0.5-1.3,1.3-1.3h97.9c0.7,0,1.3,0.5,1.3,1.3c0,0.7-0.5,1.3-1.3,1.3h-97.9
		C160.5,166.3,160,165.8,160,165.1z M159.9,273.1c0-0.7,0.5-1.3,1.3-1.3h113.7c0.7,0,1.3,0.5,1.3,1.3c0,0.7-0.5,1.3-1.3,1.3H161.1
		C160.5,274.4,159.9,273.8,159.9,273.1z M160,171.7c0-0.7,0.5-1.3,1.2-1.3H270c0.7,0,1.3,0.5,1.3,1.3c0,0.7-0.5,1.3-1.3,1.3H161.1
		C160.5,172.9,160,172.3,160,171.7z M159.9,279.5c0-0.5,0.5-1.1,1.1-1.1h125.6c0.5,0,1.1,0.5,1.1,1.1s-0.5,1.1-1.1,1.1H160.9
		C160.4,280.6,159.9,280.1,159.9,279.5z M160,178.7c0-0.7,0.5-1.3,1.3-1.3h78.7c0.7,0,1.3,0.5,1.3,1.3c0,0.7-0.5,1.3-1.3,1.3h-78.7
		C160.5,180,160,179.4,160,178.7z M159.9,286.7c0-0.7,0.5-1.3,1.2-1.3h125c0.7,0,1.3,0.5,1.3,1.3c0,0.7-0.5,1.3-1.3,1.3h-125
		C160.4,287.9,159.9,287.4,159.9,286.7z M160,203.5c0-0.7,0.5-1.3,1.2-1.3h128c0.7,0,1.3,0.5,1.3,1.3c0,0.7-0.5,1.3-1.3,1.3h-128
		C160.5,204.7,160,204.2,160,203.5z M160,311.4c0-0.7,0.5-1.3,1.2-1.3h128c0.7,0,1.3,0.5,1.3,1.3s-0.5,1.3-1.3,1.3h-128
		C160.5,312.6,160,312,160,311.4z M160,209.2c0-0.7,0.5-1.3,1.3-1.3h122.5c0.7,0,1.3,0.5,1.3,1.3c0,0.7-0.5,1.3-1.3,1.3H161.2
		C160.5,210.5,160,209.9,160,209.2z M160,317.1c0-0.7,0.5-1.3,1.2-1.3h122.5c0.7,0,1.3,0.5,1.3,1.3c0,0.7-0.5,1.3-1.3,1.3H161.1
		C160.5,318.3,160,317.7,160,317.1z M160,215c0-0.7,0.5-1.3,1.3-1.3h125.2c0.7,0,1.3,0.5,1.3,1.3c0,0.7-0.5,1.3-1.3,1.3H161.2
		C160.5,216.2,160,215.7,160,215z M160,322.9c0-0.7,0.5-1.3,1.2-1.3h125.3c0.7,0,1.3,0.5,1.3,1.3c0,0.7-0.5,1.3-1.3,1.3H161.2
		C160.5,324,160,323.5,160,322.9z M160,220.7c0-0.7,0.5-1.3,1.2-1.3h125.3c0.7,0,1.3,0.5,1.3,1.3c0,0.7-0.5,1.3-1.3,1.3H161.2
		C160.5,221.9,160,221.4,160,220.7z M160,226.4c0-0.7,0.5-1.3,1.3-1.3h117c0.7,0,1.3,0.5,1.3,1.3c0,0.7-0.5,1.3-1.3,1.3h-117
		C160.5,227.6,160,227.1,160,226.4z M160,232.2c0-0.7,0.5-1.3,1.3-1.3h117c0.7,0,1.3,0.5,1.3,1.3s-0.5,1.3-1.3,1.3h-117
		C160.5,233.4,160,232.9,160,232.2z M160,237.9c0-0.7,0.5-1.3,1.3-1.3h117c0.7,0,1.3,0.5,1.3,1.3c0,0.7-0.5,1.2-1.3,1.3h-117
		C160.5,239.1,160,238.6,160,237.9z M160,243.7c0-0.7,0.5-1.3,1.2-1.3h117c0.7,0,1.3,0.5,1.3,1.3c0,0.7-0.5,1.3-1.3,1.3h-117
		C160.5,244.9,160,244.4,160,243.7z M159.9,261.5c0-0.7,0.5-1.3,1.3-1.3h54.1c0.7,0,1.3,0.5,1.3,1.3c0,0.7-0.5,1.3-1.3,1.3h-54.1
		C160.4,262.8,159.9,262.2,159.9,261.5z M159.9,292.3c0-0.7,0.5-1.3,1.3-1.3h108.5c0.7,0,1.3,0.5,1.3,1.3c0,0.7-0.5,1.3-1.3,1.3
		H161.1C160.5,293.5,159.9,293,159.9,292.3z M159.9,267.3c0-0.7,0.5-1.3,1.2-1.3h54.2c0.7,0,1.3,0.5,1.3,1.3c0,0.7-0.5,1.3-1.3,1.3
		h-54.2C160.4,268.5,159.9,268,159.9,267.3z"/>
	<path class="st16" d="M100.5,176.2H212c2.5,0,4.5,2,4.5,4.5v38.7c0,2.5-2,4.5-4.5,4.5H100.5c-2.5,0-4.5-2-4.5-4.5v-38.7
		C96,178.3,98,176.2,100.5,176.2z"/>
	<path class="st13" d="M183.5,186.6c0-0.8,0.6-1.5,1.5-1.5h16.2l5.9,5.9v22.1c0,0.8-0.6,1.5-1.5,1.5h-20.7c-0.8,0-1.5-0.6-1.5-1.5
		L183.5,186.6L183.5,186.6z"/>
	<path class="st6" d="M201.2,185.1l5.9,5.9h-5.9V185.1z"/>
	<path class="st13" d="M117.3,163.3c0-1.1,0.9-2,2-2h22.5l8.2,8.2v30.8c0,1.1-0.9,2-2,2h-28.6c-1.1,0-2-0.9-2-2L117.3,163.3
		L117.3,163.3z"/>
	<path class="st6" d="M141.9,161.3l8.2,8.2h-8.2V161.3z"/>
	<path class="st6" d="M128.4,183.4h20.3c1.5,0,2.7,1,2.7,2.2v6.8c0,1.2-1.3,2.2-2.7,2.2h-20.3c-1.5,0-2.7-1-2.7-2.2v-6.8
		C125.7,184.4,126.9,183.4,128.4,183.4z"/>
	<path class="st13" d="M130.7,209.6c0-0.9,0.7-1.6,1.6-1.6H150l6.5,6.5v24.1c0,0.9-0.7,1.6-1.6,1.6h-22.5c-0.9,0-1.6-0.7-1.6-1.6
		V209.6z"/>
	<path class="st6" d="M150,208l6.5,6.5H150V208z"/>
	<path class="st6" d="M144.4,224.2h14.4c1.2,0,2.2,0.8,2.2,2v5.9c0,1.1-1,2-2.2,2h-14.4c-1.2,0-2.2-0.8-2.2-2v-5.9
		C142.2,225.1,143.2,224.2,144.4,224.2z"/>
	<path class="st13" d="M99.6,209.1c0-0.6,0.5-1.2,1.2-1.2h13.1l4.8,4.8v17.8c0,0.6-0.5,1.2-1.2,1.2h-16.7c-0.6,0-1.2-0.5-1.2-1.2
		L99.6,209.1L99.6,209.1z"/>
	<path class="st6" d="M114,208l4.8,4.8H114V208z"/>
	<path class="st6" d="M109.5,219.9h11c1,0,1.8,0.7,1.8,1.6v5c0,0.9-0.8,1.6-1.8,1.6h-11c-1,0-1.8-0.7-1.8-1.6v-5
		C107.7,220.6,108.5,219.9,109.5,219.9z"/>
	<path class="st6" d="M174,202.7l-4.5,4.1l0.7,0.6l5.7-5.2l-5.7-5.2l-0.7,0.6l4.5,4.1h-12.7v0.8L174,202.7L174,202.7z"/>
	<path class="st17" d="M111.3,288.8l-10.1,14.4l11.8-2.1c0.3-0.1,0.5-0.4,0.4-0.6L111.3,288.8z M149.3,300.8l-14.4,10.1l11.8,2.1
		c0.3,0.1,0.5-0.2,0.6-0.4L149.3,300.8z"/>
	<path class="st18" d="M185.9,193.4c0-0.3,0.2-0.5,0.5-0.5h12.2c0.3,0,0.5,0.2,0.5,0.5c0,0.3-0.2,0.5-0.5,0.5h-12.2
		C186.1,194,185.9,193.7,185.9,193.4z M185.9,195.9c0-0.2,0.2-0.4,0.4-0.4h16.8c0.2,0,0.4,0.2,0.4,0.4c0,0.2-0.2,0.4-0.4,0.4h-16.8
		C186.1,196.3,185.9,196.1,185.9,195.9z M185.9,198.6c0-0.3,0.2-0.5,0.5-0.5H203c0.3,0,0.5,0.2,0.5,0.5c0,0.3-0.2,0.5-0.5,0.5h-16.6
		C186.1,199.1,185.9,198.9,185.9,198.6z M185.9,206.7c0-0.3,0.2-0.5,0.5-0.5h17.7c0.3,0,0.5,0.2,0.5,0.5c0,0.3-0.2,0.5-0.5,0.5
		h-17.7C186.1,207.1,185.9,206.9,185.9,206.7z M185.9,208.9c0-0.3,0.2-0.5,0.5-0.5h15.6c0.3,0,0.5,0.2,0.5,0.5
		c0,0.3-0.2,0.5-0.5,0.5h-15.6C186.1,209.4,185.9,209.1,185.9,208.9z M185.9,211.1c0-0.3,0.2-0.5,0.5-0.5h16.7
		c0.3,0,0.5,0.2,0.5,0.5c0,0.3-0.2,0.5-0.5,0.5h-16.7C186.1,211.6,185.9,211.4,185.9,211.1z M185.9,189c0-0.3,0.2-0.5,0.5-0.5h8.2
		c0.3,0,0.5,0.2,0.5,0.5c0,0.3-0.2,0.5-0.5,0.5h-8.2C186.1,189.5,185.9,189.3,185.9,189z M185.9,200.8c0-0.3,0.2-0.5,0.5-0.5h10.2
		c0.3,0,0.5,0.2,0.5,0.5c0,0.3-0.2,0.5-0.5,0.5h-10.2C186.1,201.3,185.9,201.1,185.9,200.8z M185.9,191.2c0-0.3,0.2-0.5,0.5-0.5h8.2
		c0.3,0,0.5,0.2,0.5,0.5c0,0.3-0.2,0.5-0.5,0.5h-8.2C186.1,191.7,185.9,191.5,185.9,191.2z"/>
	<path class="st6" d="M193.9,199.9h13.5c1.1,0,2,0.8,2,1.9v6.1c0,1.1-0.9,1.9-2,1.9h-13.5c-1.1,0-2-0.8-2-1.9v-6.1
		C191.9,200.7,192.8,199.9,193.9,199.9z"/>
	<path class="st19" d="M316.4,276.7c0-0.3-0.2-0.5-0.5-0.5c-0.5-0.1-1.1-0.2-1.7-0.3c-0.3-0.1-0.5,0.1-0.6,0.4
		c-0.1,0.3,0.1,0.5,0.4,0.6c0.5,0.2,1.2,0.3,1.8,0.4C316,277.1,316.3,276.9,316.4,276.7z M314.6,180.5c-0.1,1.2-0.1,2.3-0.2,3.4
		c0,0.3,0.2,0.5,0.5,0.5c0.3,0,0.5-0.2,0.5-0.5c0.1-1.2,0.2-2.3,0.2-3.5c0-0.3-0.2-0.5-0.5-0.5C314.9,180,314.6,180.2,314.6,180.5z
		 M315.3,175.3c0.3,0,0.5-0.2,0.5-0.5c0-0.5,0.1-1.2,0.1-1.8c0-0.5,0.1-1.1,0-1.7c0-0.3-0.2-0.5-0.5-0.5c-0.3,0-0.5,0.2-0.5,0.5
		c0,0.5,0,1.1,0,1.7c0,0.5-0.1,1.1-0.1,1.8C314.7,175,314.9,175.3,315.3,175.3z M314,189.2c-0.3-0.1-0.5,0.1-0.6,0.4
		c-0.2,0.5-0.4,1.1-0.5,1.6c-0.3,0.5-0.5,1.2-0.6,1.8c-0.1,0.3,0.1,0.5,0.3,0.6c0.3,0.1,0.5-0.1,0.6-0.3c0,0,0,0,0-0.1
		c0.2-0.5,0.4-1.1,0.6-1.7c0.2-0.5,0.4-1.1,0.6-1.7C314.5,189.5,314.3,189.3,314,189.2z M314.9,166.2c0.3-0.1,0.5-0.3,0.4-0.6
		c-0.2-1.1-0.4-2.2-0.7-3.4c-0.1-0.3-0.4-0.4-0.6-0.4c-0.3,0.1-0.4,0.4-0.4,0.6c0.3,1.1,0.5,2.2,0.6,3.2
		C314.3,166.1,314.6,166.3,314.9,166.2z M309.2,274.2c0.2-0.2,0.2-0.5-0.2-0.7c-0.9-0.7-1.8-1.4-2.6-2.2c-0.2-0.2-0.5-0.2-0.7,0
		c-0.2,0.2-0.2,0.5,0,0.7c0.8,0.9,1.8,1.7,2.7,2.4C308.6,274.4,309,274.4,309.2,274.2z M311.9,201.9c0,1.1-0.1,2.2-0.2,3.2
		c0,0.3,0.2,0.5,0.5,0.5c0.3,0,0.5-0.2,0.5-0.5c0.2-1.1,0.2-2.2,0.2-3.4c0-0.3-0.2-0.5-0.5-0.5C312.1,201.4,311.9,201.7,311.9,201.9
		z M311.3,210.2c-0.3-0.1-0.5,0.1-0.6,0.4c-0.2,0.5-0.3,1.1-0.4,1.5c-0.2,0.5-0.4,1.1-0.5,1.5c-0.1,0.3,0.1,0.5,0.4,0.6
		c0.3,0.1,0.5-0.1,0.6-0.3l0.5-1.6c0.2-0.5,0.3-1.1,0.5-1.6C311.8,210.5,311.6,210.3,311.3,210.2z M312,197c0.3-0.1,0.4-0.4,0.4-0.6
		c-0.3-1.2-0.8-2.3-1.7-3.2c-0.2-0.2-0.5-0.2-0.7,0c-0.2,0.2-0.2,0.5-0.1,0.7c0.7,0.8,1.2,1.8,1.4,2.8
		C311.5,197,311.7,197.1,312,197z M310.8,198.2c-0.2-0.2-0.5-0.1-0.7,0.2c-0.3,0.5-0.7,0.9-1.1,1.3c-0.3,0.3-0.5,0.5-0.9,0.7
		c-0.3,0.2-0.4,0.5-0.2,0.7c0.2,0.2,0.5,0.4,0.7,0.2c0,0,0,0,0.1,0c0.4-0.2,0.8-0.5,1.1-0.8c0.5-0.4,0.9-1,1.3-1.5
		C311,198.7,311,198.4,310.8,198.2z M312.6,157.5c0.3-0.1,0.4-0.4,0.3-0.7c-0.4-1.1-0.8-2.1-1.3-3.2c-0.2-0.3-0.4-0.4-0.7-0.3
		c-0.3,0.2-0.4,0.4-0.3,0.7c0.5,1,0.9,2,1.3,3.1C312.1,157.5,312.4,157.6,312.6,157.5z M308.4,218.5c-0.3-0.2-0.5,0-0.7,0.3
		c-0.4,1.1-0.9,2-1.3,3c-0.2,0.2-0.1,0.5,0.2,0.7c0.2,0.2,0.5,0.1,0.7-0.2c0,0,0.1-0.1,0.1-0.2c0.5-1.1,0.9-2,1.4-3.1
		C308.8,219,308.6,218.7,308.4,218.5z M302.8,267.2c0.3-0.2,0.4-0.5,0.2-0.7c-0.5-1-1.1-2-1.6-3.1c-0.2-0.3-0.4-0.4-0.7-0.3
		c-0.3,0.2-0.4,0.4-0.3,0.7c0.5,1.1,1.1,2.2,1.7,3.2C302.2,267.3,302.6,267.4,302.8,267.2z M304.6,226.7c-0.3-0.2-0.5-0.1-0.7,0.2
		c-0.3,0.5-0.5,1-0.8,1.5c-0.2,0.4-0.4,0.8-0.6,1.2c-0.2,0.3,0,0.5,0.3,0.7c0.2,0.2,0.5,0,0.6-0.2c0.2-0.4,0.4-0.8,0.6-1.2l0.8-1.5
		C304.9,227.1,304.9,226.8,304.6,226.7z M308.6,149.6c0.2-0.2,0.3-0.5,0.2-0.7c-0.7-0.9-1.4-1.8-2.2-2.7c-0.2-0.2-0.5-0.2-0.7-0.1
		c-0.2,0.1-0.2,0.5-0.1,0.7c0.8,0.8,1.5,1.6,2.1,2.5C308,149.7,308.4,149.7,308.6,149.6z M305.8,191.2c0-0.3-0.2-0.5-0.5-0.5
		c-0.6-0.1-1.2-0.1-1.8,0c-0.6,0.1-1.2,0.2-1.8,0.4c-0.3,0.2-0.4,0.4-0.2,0.7c0.2,0.2,0.4,0.4,0.6,0.3c0.4-0.2,0.9-0.3,1.4-0.4
		c0.5-0.1,1.1-0.1,1.7,0C305.5,191.7,305.8,191.5,305.8,191.2z M304.9,201.9c0-0.3-0.3-0.5-0.5-0.5c-0.8,0.1-1.5,0-2.2-0.3
		c-0.3-0.1-0.5,0.1-0.6,0.4s0.1,0.5,0.4,0.6c0.8,0.3,1.8,0.4,2.7,0.3C304.7,202.5,304.9,202.3,304.9,201.9z M301.1,233.4
		c-0.3-0.2-0.5,0-0.7,0.3c-0.4,0.8-0.8,1.7-1.1,2.5c-0.1,0.3,0.1,0.5,0.4,0.6c0.3,0.1,0.5,0,0.6-0.3c0.4-0.8,0.7-1.7,1.1-2.5
		C301.4,233.8,301.4,233.5,301.1,233.4z M298.9,258.7c0.3-0.1,0.4-0.4,0.4-0.6c-0.2-0.5-0.4-1.1-0.5-1.7c-0.2-0.4-0.3-0.8-0.4-1.3
		c-0.1-0.3-0.4-0.4-0.6-0.4c-0.3,0.1-0.4,0.4-0.4,0.6c0.2,0.4,0.3,0.9,0.4,1.3c0.2,0.5,0.4,1.1,0.5,1.7
		C298.3,258.6,298.6,258.7,298.9,258.7z M298.4,240.2c-0.3-0.1-0.5,0.1-0.6,0.4c-0.3,0.9-0.5,1.8-0.7,2.7c-0.1,0.3,0.2,0.5,0.4,0.6
		c0.3,0.1,0.5-0.2,0.6-0.4c0.2-0.9,0.4-1.8,0.6-2.6C298.9,240.6,298.7,240.3,298.4,240.2z M297,251.2c0.3,0,0.5-0.3,0.5-0.5
		c-0.1-0.9-0.1-1.8,0-2.7c0.1-0.3-0.2-0.5-0.4-0.5c-0.3-0.1-0.5,0.2-0.5,0.4v0.1c-0.1,0.9-0.1,1.9,0,2.8
		C296.6,251,296.8,251.2,297,251.2z M299.3,199.4c0.3-0.1,0.5-0.4,0.4-0.6c-0.1-0.4-0.1-0.7-0.1-1.1c0-0.5,0.1-1.1,0.2-1.6
		c0.1-0.3-0.2-0.5-0.4-0.6s-0.5,0.2-0.6,0.4c0,0,0,0,0,0.1c-0.1,0.5-0.2,1.1-0.2,1.7c0,0.5,0,0.9,0.1,1.4
		C298.8,199.3,299.1,199.5,299.3,199.4z M302.2,143.5c0.2-0.3,0-0.5-0.2-0.7c-0.5-0.3-1.1-0.5-1.6-0.6c-0.7-0.2-1.4-0.4-2.1-0.6
		c-0.3-0.1-0.5,0.1-0.6,0.3c-0.1,0.3,0.1,0.5,0.3,0.6h0.1c0.7,0.2,1.3,0.4,2,0.6c0.5,0.2,1,0.4,1.5,0.6
		C301.6,143.9,302,143.8,302.2,143.5z M291.4,140.8c0-0.3-0.2-0.5-0.5-0.5c-0.7-0.1-1.5-0.2-2.2-0.2c-0.3-0.1-0.5,0.2-0.5,0.4
		s0.2,0.5,0.4,0.5h0.1c0.7,0.1,1.5,0.1,2.1,0.2C291.2,141.3,291.4,141.1,291.4,140.8z M286.9,145.3c0.4-0.2,0.5-0.7,0.3-1.1
		c-0.9-1.5-2.2-2.9-3.7-3.8c1.5-0.8,2.7-2,3.7-3.4c0.2-0.4,0.1-0.8-0.3-1.1c-0.4-0.2-0.8-0.2-1.1,0.2c-1.1,1.5-2.5,2.7-4.1,3.4h-0.1
		c-0.4,0.1-0.7,0.5-0.6,0.9c0,0.2,0.1,0.2,0.2,0.4c0.1,0.1,0.2,0.2,0.2,0.2c0.1,0.1,0.2,0.2,0.2,0.2c1.8,0.8,3.3,2.1,4.2,3.8
		C286,145.3,286.5,145.5,286.9,145.3z"/>
	<path class="st19" d="M152.1,354v2.9h0.8v-3.4v-0.8h-4.3v0.8h2.8c-2.4,2.9-6.7,3.4-9.6,1.1c-2.9-2.4-3.4-6.7-1.1-9.6
		c0.4-0.5,1-1,1.5-1.4l-0.5-0.7c-3.6,2.3-4.5,7.2-2.2,10.6c2.3,3.6,7.2,4.5,10.6,2.2C151,355.1,151.6,354.6,152.1,354z M164,354.3
		c0.2,0.2,0.5,0.2,0.6,0c0.2-0.2,0.2-0.5,0-0.6l-1-1c-0.2-0.2-0.5-0.2-0.6,0c-0.2,0.2-0.2,0.5,0,0.6L164,354.3z M166.8,353.4
		c0.2-0.2,0.2-0.5,0-0.6c-0.2-0.2-0.5-0.2-0.6,0l-1,1c-0.2,0.2-0.2,0.5,0,0.6c0.2,0.2,0.5,0.2,0.6,0L166.8,353.4z M164.6,355.6
		c0.2-0.2,0.2-0.5,0-0.6c-0.2-0.2-0.5-0.2-0.6,0l-1,1c-0.2,0.2-0.2,0.5,0,0.6c0.2,0.2,0.5,0.2,0.6,0L164.6,355.6z M166.8,356.6
		c-0.2,0.2-0.5,0.2-0.6,0l-1-1c-0.2-0.2-0.2-0.5,0-0.6c0.2-0.2,0.5-0.2,0.6,0l1,1C167.1,356.1,167.1,356.4,166.8,356.6z
		 M156.1,336.7c0.2,0.2,0.5,0.2,0.6,0c0.2-0.2,0.2-0.5,0-0.6l-1-1c-0.2-0.2-0.5-0.2-0.6,0c-0.2,0.2-0.2,0.5,0,0.6L156.1,336.7z
		 M159,335.7c0.2-0.2,0.2-0.5,0-0.6c-0.2-0.2-0.5-0.2-0.6,0l-1,1c-0.2,0.2-0.2,0.5,0,0.6c0.2,0.2,0.5,0.2,0.6,0L159,335.7z
		 M156.8,338c0.2-0.2,0.2-0.5,0-0.6c-0.2-0.2-0.5-0.2-0.6,0l-1,1c-0.2,0.2-0.2,0.5,0,0.6c0.2,0.2,0.5,0.2,0.6,0L156.8,338z
		 M159,338.9c-0.2,0.2-0.5,0.2-0.6,0l-1-1c-0.2-0.2-0.2-0.5,0-0.6c0.2-0.2,0.5-0.2,0.6,0l1,1C159.3,338.5,159.3,338.8,159,338.9z"/>
	<path class="st13" d="M135.9,189.9c0,0.6-0.2,1-0.4,1.4c-0.3,0.3-0.7,0.5-1.1,0.5c-0.2,0-0.4,0-0.5-0.1v-0.8
		c0.1,0.1,0.3,0.1,0.5,0.1c0.5,0,0.8-0.4,0.8-1.3v-3h0.8L135.9,189.9L135.9,189.9z"/>
	<path class="st13" d="M137.9,189.9v1.8h-0.8v-4.9h1.5c0.5,0,1,0.1,1.3,0.4c0.3,0.3,0.5,0.6,0.5,1.1c0,0.5-0.2,0.9-0.5,1.2
		c-0.3,0.3-0.7,0.5-1.3,0.5H137.9z M137.9,187.4v1.8h0.5c0.4,0,0.6-0.1,0.8-0.2c0.2-0.2,0.3-0.4,0.3-0.7c0-0.6-0.4-0.9-1-0.9
		L137.9,187.4L137.9,187.4z"/>
	<path class="st13" d="M145,191.3c-0.5,0.3-1.1,0.4-1.7,0.4c-0.7,0-1.3-0.2-1.8-0.7c-0.4-0.4-0.7-1.1-0.7-1.8c0-0.7,0.2-1.4,0.7-1.9
		c0.5-0.5,1.1-0.7,1.9-0.7c0.5,0,1,0.1,1.4,0.2v0.8c-0.4-0.2-0.8-0.4-1.3-0.4c-0.5,0-0.9,0.2-1.3,0.5c-0.4,0.4-0.5,0.8-0.5,1.3
		c0,0.5,0.2,1,0.4,1.3c0.3,0.3,0.7,0.5,1.2,0.5c0.4,0,0.6-0.1,0.9-0.2v-1.2h-1v-0.7h1.8V191.3z"/>
	<path class="st13" d="M196.7,203.3h-1.3v3.8h-0.7v-3.8h-1.3v-0.6h3.2V203.3z"/>
	<path class="st13" d="M199.9,207.1h-2.5v-4.4h2.4v0.6h-1.6v1.3h1.5v0.6h-1.5v1.3h1.8L199.9,207.1L199.9,207.1z"/>
	<path class="st13" d="M204,207.1h-0.9l-0.9-1.6c0,0,0-0.1-0.1-0.2c0,0,0,0.1-0.1,0.2l-0.9,1.6h-0.9l1.4-2.2l-1.3-2.2h0.9l0.8,1.5
		c0,0.1,0.1,0.2,0.2,0.3c0.1-0.1,0.1-0.2,0.2-0.3l0.8-1.5h0.8l-1.4,2.2L204,207.1z"/>
	<path class="st13" d="M207.5,203.3h-1.3v3.8h-0.7v-3.8h-1.3v-0.6h3.2V203.3z"/>
	<path class="st13" d="M110.3,224.6v1.4h-0.7v-3.9h1.2c0.5,0,0.8,0.1,1.1,0.3c0.2,0.2,0.4,0.5,0.4,0.9c0,0.4-0.1,0.7-0.4,0.9
		c-0.3,0.2-0.6,0.4-1.1,0.4H110.3z M110.3,222.6v1.4h0.4c0.3,0,0.5-0.1,0.6-0.2c0.2-0.1,0.2-0.3,0.2-0.5c0-0.5-0.3-0.7-0.8-0.7
		H110.3z"/>
	<path class="st13" d="M116.3,226h-0.7l-1.9-2.9c0-0.1-0.1-0.2-0.1-0.2c0,0.1,0,0.3,0,0.5v2.6H113v-3.9h0.7l1.8,2.8
		c0.1,0.1,0.1,0.2,0.2,0.2c0-0.1,0-0.3,0-0.5v-2.5h0.6V226z"/>
	<path class="st13" d="M120.3,225.8c-0.4,0.2-0.9,0.4-1.4,0.4c-0.6,0-1.1-0.2-1.4-0.5c-0.4-0.4-0.5-0.8-0.5-1.4
		c0-0.6,0.2-1.1,0.6-1.5c0.4-0.4,0.9-0.6,1.5-0.6c0.4,0,0.8,0.1,1.1,0.2v0.7c-0.3-0.2-0.7-0.3-1.1-0.3c-0.4,0-0.7,0.2-1,0.4
		c-0.3,0.3-0.4,0.6-0.4,1.1c0,0.5,0.1,0.8,0.4,1.1c0.2,0.2,0.5,0.4,0.9,0.4c0.3,0,0.5,0,0.7-0.2v-0.9h-0.8v-0.5h1.5L120.3,225.8
		L120.3,225.8z"/>
	<path class="st13" d="M147,230c0,0.5-0.1,0.9-0.4,1.2c-0.3,0.3-0.6,0.4-1,0.4c-0.2,0-0.4,0-0.5-0.1v-0.7c0.1,0.1,0.3,0.1,0.5,0.1
		c0.5,0,0.7-0.4,0.7-1.1v-2.7h0.7L147,230L147,230z"/>
	<path class="st13" d="M148.8,230v1.6h-0.7v-4.4h1.3c0.5,0,0.9,0.1,1.2,0.4c0.3,0.2,0.4,0.6,0.4,1c0,0.4-0.2,0.8-0.4,1.1
		c-0.3,0.3-0.7,0.4-1.2,0.4L148.8,230L148.8,230z M148.8,227.8v1.6h0.5c0.3,0,0.5-0.1,0.7-0.2c0.2-0.2,0.2-0.4,0.2-0.6
		c0-0.5-0.3-0.8-0.9-0.8L148.8,227.8L148.8,227.8z"/>
	<path class="st13" d="M154.2,231.6h-2.5v-4.4h2.4v0.6h-1.6v1.3h1.5v0.6h-1.5v1.3h1.8L154.2,231.6L154.2,231.6z"/>
	<path class="st13" d="M158.4,231.2c-0.5,0.2-1,0.4-1.5,0.4c-0.7,0-1.2-0.2-1.6-0.6c-0.4-0.4-0.6-0.9-0.6-1.6s0.2-1.3,0.7-1.7
		c0.4-0.4,1-0.7,1.7-0.7c0.5,0,0.9,0.1,1.3,0.2v0.7c-0.4-0.2-0.7-0.4-1.2-0.4c-0.5,0-0.9,0.2-1.2,0.5c-0.3,0.3-0.5,0.7-0.5,1.2
		s0.1,0.9,0.4,1.2c0.3,0.3,0.6,0.4,1.1,0.4c0.3,0,0.5,0,0.8-0.2v-1.1h-0.9v-0.6h1.6L158.4,231.2L158.4,231.2z"/>
</g>
</svg>
