<?xml version="1.0" encoding="utf-8"?>
<!-- Generator: Adobe Illustrator 26.0.0, SVG Export Plug-In . SVG Version: 6.00 Build 0)  -->
<svg version="1.1" id="Layer_1" xmlns="http://www.w3.org/2000/svg" xmlns:xlink="http://www.w3.org/1999/xlink" x="0px" y="0px"
	 viewBox="0 0 523 380" style="enable-background:new 0 0 523 380;" xml:space="preserve">
<style type="text/css">
	.st0{fill:#FFFFFF;}
	.st1{fill-rule:evenodd;clip-rule:evenodd;fill:#DADBE2;}
	.st2{fill:#DADBE2;}
	.st3{fill:#1DA69A;}
</style>
<g>
	<path class="st0" d="M297.9,112.1c0-1.9,0.3-3.7,1-5.4s1.7-3.3,3-4.6c1.3-1.3,2.9-2.3,4.6-3c1.7-0.7,3.6-1,5.4-1h154.9l56.2,56.2
		v211.1c0,1.9-0.3,3.7-1,5.4c-0.7,1.7-1.7,3.3-3,4.6c-1.3,1.3-2.9,2.3-4.6,3s-3.6,1-5.4,1h-197c-1.9,0-3.7-0.3-5.4-1
		c-1.7-0.7-3.3-1.7-4.6-3s-2.3-2.9-3-4.6c-0.7-1.7-1-3.6-1-5.4V112.1z"/>
	<path class="st1" d="M311.9,372.7h197.2c1.8,0,3.6-0.7,5-1.9c1.4-1.2,2.2-3,2.3-4.8V157.4l-52.1-52.1H311.9
		c-1.8,0.1-3.5,0.9-4.8,2.1c-1.3,1.2-2.2,2.8-2.5,4.6v253.9c0,0.9,0.2,1.8,0.6,2.7c0.4,0.8,0.9,1.6,1.6,2.2c0.7,0.6,1.5,1.1,2.4,1.4
		c0.9,0.3,1.8,0.4,2.7,0.4V372.7z M466.8,98.1H311.9c-1.9,0-3.7,0.3-5.4,1c-1.7,0.7-3.3,1.7-4.6,3c-1.3,1.3-2.3,2.9-3,4.6
		s-1,3.6-1,5.4V366c0,1.9,0.3,3.7,1,5.4c0.7,1.7,1.7,3.3,3,4.6c1.3,1.3,2.9,2.4,4.6,3.1c1.7,0.7,3.6,1,5.4,1h197.2
		c1.9,0,3.7-0.3,5.4-1c1.7-0.7,3.3-1.7,4.6-3.1c1.3-1.3,2.3-2.9,3-4.6c0.7-1.7,1-3.6,1-5.4V154.9L466.8,98.1z"/>
	<path class="st2" d="M466.8,98.1l56.2,56.2h-56.2V98.1z"/>
	<path class="st2" d="M320.9,278.9c0-0.5,0.2-0.9,0.5-1.2c0.3-0.3,0.8-0.5,1.2-0.5h156.2c0.5,0,0.9,0.2,1.2,0.5
		c0.3,0.3,0.5,0.8,0.6,1.2c0,0.2,0,0.5-0.1,0.7c-0.1,0.2-0.2,0.4-0.4,0.6c-0.2,0.2-0.4,0.3-0.6,0.4c-0.2,0.1-0.4,0.1-0.7,0.1H322.6
		c-0.4,0-0.9-0.2-1.2-0.5S320.9,279.4,320.9,278.9z M320.9,172.1c0-0.4,0.2-0.9,0.5-1.2s0.7-0.5,1.2-0.5h117c0.5,0,0.9,0.2,1.2,0.5
		s0.5,0.8,0.5,1.2c0,0.5-0.2,0.9-0.5,1.2s-0.8,0.5-1.2,0.5h-117c-0.4,0-0.8-0.2-1.1-0.5C321.1,173,321,172.6,320.9,172.1
		L320.9,172.1z M320.9,287.8c0-0.4,0.2-0.7,0.4-1c0.3-0.3,0.6-0.4,1-0.4h172.5c0.4,0,0.7,0.2,1,0.4c0.3,0.3,0.4,0.6,0.4,1
		c0,0.4-0.2,0.7-0.4,1c-0.3,0.3-0.6,0.4-1,0.4H322.3c-0.4,0-0.8-0.2-1-0.4C321,288.5,320.9,288.2,320.9,287.8z M320.9,181.7
		c0-0.2,0-0.5,0.1-0.7c0.1-0.2,0.2-0.4,0.4-0.6c0.2-0.2,0.4-0.3,0.6-0.4s0.4-0.1,0.7-0.1h75.6c0.2,0,0.4,0,0.7,0.1
		c0.2,0.1,0.4,0.2,0.6,0.4c0.2,0.2,0.3,0.3,0.4,0.6c0.1,0.2,0.1,0.4,0.1,0.7c0,0.2,0,0.4-0.1,0.7c-0.1,0.2-0.2,0.4-0.4,0.6
		c-0.2,0.2-0.3,0.3-0.6,0.4c-0.2,0.1-0.4,0.1-0.7,0.1h-75.6c-0.2,0-0.5,0-0.7-0.1c-0.2-0.1-0.4-0.2-0.6-0.4
		c-0.2-0.2-0.3-0.3-0.4-0.6S320.9,181.9,320.9,181.7z M320.9,297.4c0-0.4,0.2-0.9,0.5-1.2c0.3-0.3,0.7-0.5,1.2-0.5h171.7
		c0.5,0,0.9,0.2,1.2,0.5c0.3,0.3,0.5,0.8,0.5,1.2c0,0.5-0.2,0.9-0.5,1.2c-0.3,0.3-0.8,0.5-1.2,0.5H322.5c-0.4-0.1-0.8-0.3-1.1-0.6
		C321.1,298.3,320.9,297.9,320.9,297.4z M320.9,331.4c0-0.4,0.2-0.9,0.5-1.2c0.3-0.3,0.7-0.5,1.2-0.5h175.9c0.2,0,0.4,0,0.7,0.1
		c0.2,0.1,0.4,0.2,0.6,0.4s0.3,0.3,0.4,0.6c0.1,0.2,0.1,0.4,0.1,0.7c0,0.2,0,0.4-0.1,0.7c-0.1,0.2-0.2,0.4-0.4,0.6
		c-0.2,0.2-0.3,0.3-0.6,0.4c-0.2,0.1-0.4,0.1-0.7,0.1H322.6c-0.4,0-0.8-0.2-1.1-0.5C321.1,332.2,321,331.8,320.9,331.4L320.9,331.4z
		 M320.9,207.3c0-0.2,0-0.5,0.1-0.7c0.1-0.2,0.2-0.4,0.4-0.6c0.2-0.2,0.4-0.3,0.6-0.4c0.2-0.1,0.4-0.1,0.7-0.1h168.4
		c0.2,0,0.4,0,0.7,0.1c0.2,0.1,0.4,0.2,0.6,0.4s0.3,0.3,0.4,0.6c0.1,0.2,0.1,0.4,0.1,0.7c0,0.2,0,0.4-0.1,0.7
		c-0.1,0.2-0.2,0.4-0.4,0.6c-0.2,0.2-0.3,0.3-0.6,0.4c-0.2,0.1-0.4,0.1-0.7,0.1H322.7c-0.2,0-0.5,0-0.7-0.1
		c-0.2-0.1-0.4-0.2-0.6-0.4s-0.3-0.4-0.4-0.6C321,207.8,320.9,207.5,320.9,207.3L320.9,207.3z M320.9,339.2c0-0.4,0.2-0.9,0.5-1.2
		c0.3-0.3,0.7-0.5,1.2-0.5h168.6c0.5,0,0.9,0.2,1.2,0.5c0.3,0.3,0.5,0.8,0.5,1.2c0,0.2,0,0.5-0.1,0.7c-0.1,0.2-0.2,0.4-0.4,0.6
		c-0.2,0.2-0.3,0.3-0.6,0.4c-0.2,0.1-0.4,0.1-0.7,0.1H322.6c-0.4-0.1-0.8-0.3-1.1-0.6C321.2,340.1,321,339.7,320.9,339.2
		L320.9,339.2z M320.9,215.2c0-0.2,0-0.5,0.1-0.7c0.1-0.2,0.2-0.4,0.4-0.6c0.2-0.2,0.4-0.3,0.6-0.4c0.2-0.1,0.4-0.1,0.7-0.1h172
		c0.5,0,0.9,0.2,1.2,0.5s0.5,0.8,0.5,1.2c0,0.5-0.2,0.9-0.5,1.2c-0.3,0.3-0.8,0.5-1.2,0.6H322.7c-0.5,0-0.9-0.2-1.3-0.5
		C321.1,216.1,320.9,215.6,320.9,215.2L320.9,215.2z M320.9,347.2c0-0.4,0.2-0.9,0.5-1.2c0.3-0.3,0.7-0.5,1.2-0.6h172.1
		c0.5,0,0.9,0.2,1.2,0.6c0.3,0.3,0.5,0.8,0.5,1.2c0,0.5-0.2,0.9-0.5,1.2s-0.8,0.5-1.2,0.5H322.7c-0.4,0-0.9-0.2-1.2-0.5
		C321.2,348,321,347.6,320.9,347.2L320.9,347.2z M320.9,223.1c0-0.4,0.2-0.9,0.5-1.2c0.3-0.3,0.7-0.5,1.2-0.6h172.1
		c0.4,0.1,0.8,0.3,1,0.6c0.3,0.3,0.4,0.7,0.4,1.1c0,0.4-0.1,0.8-0.4,1.1c-0.3,0.3-0.6,0.5-1,0.6H322.7c-0.5,0-0.9-0.2-1.2-0.5
		C321.2,224,321,223.6,320.9,223.1L320.9,223.1z M320.9,231.2c0-0.5,0.2-0.9,0.5-1.3c0.3-0.3,0.8-0.5,1.3-0.5h160.7
		c0.2,0,0.5,0,0.7,0.1c0.2,0.1,0.4,0.2,0.6,0.4c0.2,0.2,0.3,0.4,0.4,0.6c0.1,0.2,0.1,0.4,0.1,0.7c0,0.5-0.2,0.9-0.5,1.2
		s-0.8,0.5-1.2,0.5H322.7c-0.5,0-0.9-0.2-1.2-0.5C321.2,232.1,321,231.7,320.9,231.2L320.9,231.2z M320.9,263.1
		c0-0.5,0.2-0.9,0.5-1.2c0.3-0.3,0.8-0.5,1.2-0.5H397c0.5,0,0.9,0.2,1.2,0.5s0.5,0.8,0.5,1.2c0,0.2,0,0.5-0.1,0.7
		c-0.1,0.2-0.2,0.4-0.4,0.6c-0.2,0.2-0.4,0.3-0.6,0.4c-0.2,0.1-0.4,0.1-0.7,0.1h-74.4c-0.5,0-0.9-0.2-1.2-0.5
		C321,264,320.9,263.6,320.9,263.1z M320.9,305.4c0-0.5,0.2-0.9,0.5-1.2c0.3-0.3,0.8-0.5,1.2-0.5h149c0.2,0,0.5,0,0.7,0.1
		c0.2,0.1,0.4,0.2,0.6,0.4c0.2,0.2,0.3,0.4,0.4,0.6c0.1,0.2,0.1,0.4,0.1,0.7c0,0.2,0,0.5-0.1,0.7c-0.1,0.2-0.2,0.4-0.4,0.6
		c-0.2,0.2-0.4,0.3-0.6,0.4c-0.2,0.1-0.4,0.1-0.7,0.1h-149c-0.4,0-0.9-0.2-1.2-0.5S320.9,305.8,320.9,305.4z M320.9,271
		c0-0.4,0.2-0.8,0.5-1.2c0.3-0.3,0.7-0.5,1.1-0.5h74.4c0.4,0.1,0.8,0.3,1,0.6c0.3,0.3,0.4,0.7,0.4,1.1c0,0.4-0.1,0.8-0.4,1.1
		c-0.3,0.3-0.6,0.5-1,0.6h-74.4c-0.4-0.1-0.8-0.3-1.1-0.6C321.1,271.9,320.9,271.4,320.9,271z"/>
	<path class="st3" d="M320.9,155c0-0.5,0.2-0.9,0.5-1.2s0.8-0.5,1.2-0.5h85.7c0.3-0.1,0.5-0.1,0.8,0c0.3,0.1,0.5,0.2,0.7,0.3
		c0.2,0.2,0.4,0.4,0.5,0.6c0.1,0.2,0.2,0.5,0.2,0.8c0,0.3-0.1,0.5-0.2,0.8c-0.1,0.2-0.3,0.5-0.5,0.6c-0.2,0.2-0.4,0.3-0.7,0.3
		c-0.3,0.1-0.5,0.1-0.8,0h-85.7c-0.5,0-0.9-0.2-1.3-0.5C321.1,156,320.9,155.5,320.9,155L320.9,155z"/>
	<path class="st0" d="M0,14c0-1.9,0.3-3.7,1-5.4C1.7,6.9,2.7,5.3,4.1,4c1.3-1.3,2.9-2.3,4.6-3c1.7-0.7,3.6-1,5.4-1h155l56.2,56.2
		v211.1c0,1.9-0.3,3.7-1,5.4c-0.7,1.7-1.7,3.3-3,4.6s-2.9,2.3-4.6,3c-1.7,0.7-3.6,1-5.4,1H14.1c-1.9,0-3.7-0.3-5.4-1
		c-1.7-0.7-3.3-1.7-4.6-3c-1.3-1.3-2.4-2.9-3.1-4.6c-0.7-1.7-1-3.6-1-5.4V14z"/>
	<path class="st1" d="M14.1,274.6h197.1c1.8,0,3.6-0.7,4.9-1.9c1.4-1.2,2.2-2.9,2.4-4.7V59.5L166.4,7.4H14c-1.8,0.2-3.5,0.9-4.8,2.1
		C7.9,10.7,7,12.3,6.7,14v254c0,0.9,0.2,1.8,0.6,2.7c0.4,0.8,0.9,1.6,1.6,2.2c0.7,0.6,1.5,1.1,2.4,1.4
		C12.2,274.6,13.2,274.7,14.1,274.6z M169.1,0h-155c-1.9,0-3.7,0.3-5.4,1C6.9,1.7,5.4,2.7,4.1,4S1.7,6.9,1,8.6c-0.7,1.7-1,3.6-1,5.4
		v253.9c0,1.9,0.3,3.7,1,5.4c0.7,1.7,1.7,3.3,3,4.6c1.3,1.3,2.9,2.4,4.6,3c1.7,0.7,3.6,1,5.4,1h197.1c1.9,0,3.7-0.3,5.4-1
		c1.7-0.7,3.3-1.7,4.6-3.1c1.3-1.3,2.3-2.9,3-4.6c0.7-1.7,1-3.6,1-5.4V57.2L169.1,0z"/>
	<path class="st2" d="M169.1,0l56.2,56.2h-56.2V0z"/>
	<path class="st3" d="M151.6,99.2H66.1c-3.5,0-6.9,1.4-9.4,3.9c-2.5,2.5-3.9,5.9-3.9,9.4v85.4c0,3.5,1.4,6.9,3.9,9.4
		c2.5,2.5,5.9,3.9,9.4,3.9h85.5c1.8,0,3.5-0.3,5.1-1c1.6-0.7,3.1-1.6,4.3-2.9c1.2-1.2,2.2-2.7,2.9-4.3s1-3.4,1-5.1v-85.4
		c0-3.5-1.5-6.9-4-9.4C158.5,100.6,155.2,99.2,151.6,99.2z M59.9,112.5c0-0.8,0.1-1.6,0.5-2.4c0.3-0.8,0.8-1.5,1.4-2
		c0.6-0.6,1.3-1,2-1.4c0.8-0.3,1.6-0.5,2.4-0.5h85.5c0.8,0,1.6,0.1,2.4,0.5c0.8,0.3,1.5,0.8,2.1,1.3c0.6,0.6,1.1,1.3,1.4,2
		c0.3,0.8,0.5,1.6,0.5,2.4V184l-21.3-21.2l-20.3,19.7l-35.4-33.8l-21,21.2V112.5z M158,197.9c0,1.7-0.7,3.3-1.9,4.5
		c-1.2,1.2-2.8,1.9-4.5,1.9H66.1c-0.8,0-1.6-0.2-2.4-0.5c-0.8-0.3-1.5-0.8-2-1.4s-1-1.3-1.3-2.1c-0.3-0.8-0.5-1.6-0.5-2.4v-18.3
		l20.6-20.7l36.1,34.5l20.7-20.2l20.6,20.5V197.9z M115.8,127.1c1.3,0,2.5,0.3,3.6,1c1.1,0.7,1.9,1.7,2.4,2.9
		c0.5,1.2,0.6,2.5,0.4,3.7c-0.2,1.2-0.8,2.4-1.7,3.3c-0.9,0.9-2,1.5-3.3,1.8c-1.2,0.3-2.5,0.1-3.7-0.4c-1.2-0.5-2.2-1.3-2.9-2.4
		c-0.7-1.1-1.1-2.3-1.1-3.6c0-1.7,0.7-3.3,1.8-4.5C112.5,127.8,114.1,127.1,115.8,127.1z M115.8,120c-2.7,0-5.3,0.8-7.5,2.3
		c-2.2,1.5-3.9,3.6-5,6c-1,2.5-1.3,5.2-0.8,7.8c0.5,2.6,1.8,5,3.7,6.9c1.9,1.9,4.3,3.2,6.9,3.7s5.3,0.3,7.8-0.8c2.5-1,4.6-2.7,6-5
		c1.5-2.2,2.3-4.8,2.3-7.5c0-1.8-0.3-3.5-1-5.1c-0.7-1.6-1.7-3.1-2.9-4.3c-1.2-1.2-2.7-2.2-4.4-2.9
		C119.3,120.4,117.6,120.1,115.8,120L115.8,120z"/>
	<path class="st2" d="M266.6,182.7h-23.5v-3.1h23.5v-6.9l8.9,8.1l-8.9,8.1V182.7z M265.7,194.1l13-12.2c0.2-0.2,0.3-0.5,0.3-0.8
		c0-0.3-0.1-0.6-0.3-0.8c-2.1-2.1-10-9.3-13-12.3c-0.2-0.1-0.4-0.2-0.6-0.3c-0.2,0-0.4,0-0.6,0.1c-0.2,0.1-0.4,0.2-0.5,0.4
		c-0.1,0.2-0.2,0.4-0.2,0.6v8.1h-23.5v8.6h23.8v8.1c0.1,0.1,0.1,0.3,0.3,0.4c0.1,0.1,0.2,0.2,0.4,0.2c0.1,0,0.3,0.1,0.5,0
		C265.4,194.2,265.5,194.2,265.7,194.1z"/>
</g>
</svg>
