<?xml version="1.0" encoding="utf-8"?>
<!-- Generator: Adobe Illustrator 26.0.0, SVG Export Plug-In . SVG Version: 6.00 Build 0)  -->
<svg version="1.1" id="Layer_1" xmlns="http://www.w3.org/2000/svg" xmlns:xlink="http://www.w3.org/1999/xlink" x="0px" y="0px"
	 viewBox="0 0 459 458" style="enable-background:new 0 0 459 458;" xml:space="preserve">
<style type="text/css">
	.st0{fill:url(#SVGID_1_);}
	.st1{fill:url(#SVGID_00000138542748000589616770000015148404692785887111_);}
	.st2{fill:url(#SVGID_00000108276979037575712750000009825959229318883477_);}
	.st3{opacity:0.31;}
	.st4{fill:#D9DADA;}
	.st5{fill:#E1E2FE;}
	.st6{fill:#1DA69A;}
	.st7{opacity:0.58;}
	.st8{opacity:0.31;fill:#1DA69A;enable-background:new    ;}
	.st9{opacity:0.58;fill:#1DA69A;enable-background:new    ;}
	.st10{fill:#FFFFFF;}
	.st11{fill:#E6E7E7;}
	.st12{opacity:0.48;fill:#AEADAD;enable-background:new    ;}
</style>
<g>
	
		<radialGradient id="SVGID_1_" cx="-25.8231" cy="485.9525" r="1" gradientTransform="matrix(173.891 100.396 100.2365 -173.6147 -43998.2422 87189.2891)" gradientUnits="userSpaceOnUse">
		<stop  offset="0" style="stop-color:#074F44"/>
		<stop  offset="1" style="stop-color:#0A776A"/>
	</radialGradient>
	<path class="st0" d="M377.6,221.4c0,0-4.6-16.3-23.4-99.7C335.5,38.2,248,60.3,226.1,67.3c-21.9,7-63.1,20.3-124.6,39.2
		C40,125.5,5.7,155.3,0.6,190.9c-5,35.7,29.4,73.7,76.7,86.9c51.8,14.5,94.6,37,105,99.9c13.1,79.4,101.1,109.5,165.1,45.9
		S388.7,272.3,377.6,221.4z"/>
	
		<radialGradient id="SVGID_00000179611483208680828450000012413466066686433432_" cx="-25.7975" cy="485.9462" r="0.9994" gradientTransform="matrix(151.9216 87.712 88.4485 -153.1973 -38881.0664 76951.4922)" gradientUnits="userSpaceOnUse">
		<stop  offset="0" style="stop-color:#074F44"/>
		<stop  offset="1" style="stop-color:#1DA69A"/>
	</radialGradient>
	<path style="fill:url(#SVGID_00000179611483208680828450000012413466066686433432_);" d="M367.8,283.6c12.8-54.3-17-100.4-62-108.8
		c-28.7-5.3-60.8-19.6-89.6-75.6C185.2,39.1,104.1-3,52.3,87.4c-66,115.1-38,187.4-18.3,225c42.2,80.3,147.6,112.4,210.3,92.1
		C305.8,384.6,354.6,339.6,367.8,283.6z"/>
	
		<radialGradient id="SVGID_00000090289916585230708580000004946013203873446841_" cx="-25.8099" cy="485.9485" r="1" gradientTransform="matrix(161.8238 93.429 92.357 -159.967 -40480.0039 80352.0859)" gradientUnits="userSpaceOnUse">
		<stop  offset="0" style="stop-color:#074F44"/>
		<stop  offset="1" style="stop-color:#1DA69A"/>
	</radialGradient>
	<path style="fill:url(#SVGID_00000090289916585230708580000004946013203873446841_);" d="M457.5,164c-2.5-30.1-35.5-62.6-89.9-55
		c-61.1,8.6-130-9.4-188.1-31.6C119.7,54.7,70.5,80,55.3,104.6c-16.6,27-13,74.7,32,156.4s86.5,121.1,130.9,139.6
		s85.5,9.7,122.4-23.1c25.8-23,40.2-60,64.3-106.8C434.9,212.3,461.1,207.6,457.5,164z"/>
	<g class="st3">
		<path class="st4" d="M372.3,64.8c0.1-7.3-5.6-13.4-12.8-13.6c-7.2-0.1-13.1,5.7-13.3,13s5.6,13.4,12.8,13.6
			C366.2,78,372.2,72.2,372.3,64.8z"/>
	</g>
	<g class="st3">
		<path class="st4" d="M53,34.2c0.1,1.3,0.6,2.6,1.4,3.6c0.8,1,1.9,1.8,3.2,2.2c1.3,0.4,2.6,0.5,3.9,0.1c1.3-0.3,2.4-1.1,3.3-2
			c0.9-1,1.4-2.2,1.6-3.5c0.2-1.3,0-2.6-0.6-3.8c-0.6-1.2-1.5-2.2-2.6-2.9c-1.1-0.7-2.4-1-3.8-0.9c-0.9,0-1.8,0.3-2.6,0.7
			c-0.8,0.4-1.5,0.9-2.1,1.6c-0.6,0.7-1,1.5-1.3,2.3C53.1,32.4,53,33.3,53,34.2z"/>
	</g>
	<g class="st3">
		<path class="st5" d="M455.5,185.6c0.1,0.9,0.4,1.7,0.9,2.4s1.3,1.2,2.1,1.5c0.8,0.3,1.7,0.3,2.6,0.1c0.8-0.2,1.6-0.7,2.2-1.4
			c0.6-0.7,1-1.5,1.1-2.3c0.1-0.9,0-1.8-0.4-2.5s-1-1.4-1.7-1.9c-0.8-0.4-1.6-0.7-2.5-0.6c-0.6,0-1.2,0.2-1.7,0.4
			c-0.5,0.3-1,0.6-1.4,1.1c-0.4,0.4-0.7,1-0.9,1.5C455.5,184.4,455.5,185,455.5,185.6z"/>
	</g>
	<path class="st6" d="M429.4,310.3c0.1-6.5-4.9-11.9-11.3-12c-6.4-0.1-11.7,5-11.8,11.6c-0.1,6.5,4.9,11.9,11.3,12
		C423.9,322,429.2,316.8,429.4,310.3z"/>
	<g class="st7">
		<path class="st4" d="M377.5,431c2.5,0,4.5-2,4.5-4.5s-2-4.5-4.5-4.5s-4.5,2-4.5,4.5S375,431,377.5,431z"/>
	</g>
	<g class="st7">
		<path class="st4" d="M220.2,44.5c1.2,0,2.2-1,2.2-2.2s-1-2.2-2.2-2.2s-2.2,1-2.2,2.2S219,44.5,220.2,44.5z"/>
	</g>
	<g class="st7">
		<path class="st4" d="M168.5,435c2.5,0,4.5-2,4.5-4.5s-2-4.5-4.5-4.5s-4.5,2-4.5,4.5S166,435,168.5,435z"/>
	</g>
	<path class="st8" d="M402.5,383c1.9,0,3.5-1.6,3.5-3.5s-1.6-3.5-3.5-3.5s-3.5,1.6-3.5,3.5S400.6,383,402.5,383z"/>
	<g class="st7">
		<path class="st4" d="M76.5,44c0.8,0,1.5-0.7,1.5-1.5S77.3,41,76.5,41S75,41.7,75,42.5S75.7,44,76.5,44z"/>
	</g>
	<path class="st6" d="M22.3,113.7c2.2,5.4-2.8,9.6-7.2,7.6c-0.9-0.4-1.7-1.1-2.2-1.9c-0.5-0.8-0.8-1.8-0.9-2.8
		c0-4.8,5.8-7.7,9.8-3.5C22,113.2,22.2,113.5,22.3,113.7z"/>
	<path class="st6" d="M82.2,25c0,0.5-0.1,0.9-0.4,1.3c-0.3,0.4-0.6,0.7-1.1,0.8c-0.4,0.1-0.9,0.1-1.4,0c-0.4-0.2-0.8-0.4-1.1-0.8
		C78.1,25.9,78,25.4,78,25c0-0.5,0.2-0.9,0.5-1.3c0.3-0.3,0.7-0.6,1.2-0.7c0.5-0.1,0.9,0,1.3,0.2c0.3,0.2,0.6,0.4,0.8,0.7
		C82.1,24.3,82.2,24.6,82.2,25z"/>
	<path class="st9" d="M268.2,25c0,0.5-0.1,0.9-0.4,1.3c-0.3,0.4-0.7,0.7-1.1,0.8c-0.4,0.1-0.9,0.1-1.4,0c-0.4-0.2-0.8-0.5-1.1-0.8
		c-0.3-0.4-0.4-0.9-0.3-1.3c0-0.5,0.2-0.9,0.5-1.2c0.3-0.3,0.7-0.6,1.2-0.7c0.5-0.1,0.9,0,1.3,0.2c0.3,0.2,0.6,0.4,0.8,0.7
		C268.1,24.3,268.2,24.7,268.2,25z"/>
	<g class="st7">
		<path class="st4" d="M422,69.1c0,0.2-0.1,0.5-0.3,0.7c-0.1,0.2-0.3,0.4-0.5,0.5c-0.2,0.1-0.4,0.2-0.7,0.3c-0.2,0-0.5,0-0.7,0
			c-0.2,0-0.5-0.1-0.7-0.3c-0.2-0.1-0.4-0.3-0.5-0.5c-0.1-0.2-0.2-0.4-0.3-0.7c0-0.2,0-0.5,0-0.7c0-0.2,0.1-0.5,0.3-0.7
			c0.1-0.2,0.3-0.4,0.5-0.5c0.2-0.1,0.4-0.2,0.7-0.3c0.2,0,0.5,0,0.7,0c0.2,0.1,0.5,0.1,0.7,0.3c0.2,0.1,0.4,0.3,0.5,0.5
			c0.1,0.2,0.2,0.4,0.3,0.7C422.1,68.6,422.1,68.9,422,69.1z"/>
	</g>
	<path class="st6" d="M144.6,437.2c-0.1,0.3-0.3,0.7-0.5,0.9c-0.3,0.2-0.6,0.4-0.9,0.5c-0.3,0.1-0.7,0-1-0.1
		c-0.3-0.1-0.6-0.4-0.8-0.7c-0.2-0.3-0.3-0.6-0.3-1c0-0.4,0.1-0.7,0.3-1c0.2-0.3,0.5-0.5,0.8-0.6c0.3-0.1,0.7-0.2,1-0.1
		c0.2,0,0.5,0.1,0.6,0.3c0.2,0.1,0.4,0.3,0.5,0.5c0.1,0.2,0.2,0.4,0.3,0.7C144.6,436.7,144.6,436.9,144.6,437.2z"/>
	<g>
		<path class="st10" d="M355.3,334.2c0,1.9-0.7,3.6-2,4.8c-1.2,1.2-2.9,2-4.8,2H81.8c-3.7,0-6.8-3-6.8-6.8c0-1.9,0.7-3.6,2-4.8
			c1.2-1.2,2.9-2,4.8-2h17.1v-136c0-3.6,2.9-6.5,6.5-6.5h219.6c3.6,0,6.5,2.9,6.5,6.5v136h17.1C352.3,327.5,355.3,330.5,355.3,334.2
			z"/>
		<path class="st11" d="M319.9,328.1H110.4c-2.2,0-4-1.8-4-4V196.4c0-2.2,1.8-4,4-4h209.5c2.2,0,4,1.8,4,4v127.6
			C323.9,326.3,322.2,328.1,319.9,328.1z"/>
		<path class="st6" d="M212.9,301.5h7.6v3.5h-7.6V301.5z M135.8,291.6v-3.5h52.5v3.5H135.8z M119.6,278.1v-3.5h52.5v3.5H119.6z
			 M135.8,251.3v-3.5h52.5v3.5H135.8z M172.1,224.5h-52.5V221h52.5V224.5z M126.3,318.4h-7.6v-3.5h7.6V318.4z M188.3,318.4h-52.5
			v-3.5h52.5V318.4z M300.7,318.4h-31v-3.5h31V318.4z M319.2,304.9h-31v-3.5h31V304.9z"/>
		<path class="st12" d="M228.9,301.5h52.5v3.5h-52.5V301.5z M135.8,207.7h52.5v3.5h-52.5V207.7z M172.1,301.5v3.5h-52.5v-3.5H172.1z
			 M135.8,237.9v-3.5h52.5v3.5H135.8z M118.7,207.7h7.6v3.5h-7.6V207.7z M118.7,234.5h7.6v3.5h-7.6V234.5z M118.7,247.8h7.6v3.5
			h-7.6V247.8z M118.7,261.3h52.5v3.5h-52.5V261.3z M118.7,288.1h7.6v3.5h-7.6V288.1z M202.4,318.4h-7.6v-3.5h7.6V318.4z
			 M203.4,304.9h-22.7v-3.5h22.7V304.9z M203.4,237.9h-7.6v-3.5h7.6V237.9z M203.4,224.5h-22.7V221h22.7V224.5z M203.4,211.1h-7.6
			v-3.5h7.6V211.1z M261.8,318.4h-52.5v-3.5h52.5V318.4z M319.2,318.4h-11.7v-3.5h11.7V318.4z"/>
		<path class="st10" d="M352.1,291.1H147.6c-3.2,0-5.9-2.7-5.9-5.9V165.9c0-3.2,2.6-5.9,5.9-5.9h204.6c3.2,0,5.9,2.7,5.9,5.9v119.4
			C358,288.4,355.4,291.1,352.1,291.1z"/>
		<path class="st6" d="M225.5,233.8l-18.8-7.9v-4l18.8-7.8v5.2l-11.7,4.7l11.7,4.6V233.8z"/>
		<path class="st6" d="M245.5,208.5v21.2c0,3.2,0,5.2-0.1,6.1c-0.1,0.9-0.4,1.7-0.9,2.5c-0.5,0.7-1.2,1.2-2.1,1.5
			c-0.9,0.3-2.3,0.4-4.1,0.4h-4.1v-5.5c0.5,0,0.9,0.1,1.1,0.1c0.6,0,1.1-0.2,1.4-0.4c0.4-0.3,0.5-0.6,0.6-1.1
			c0.1-0.4,0.1-1.2,0.1-2.4v-22.3h8.1V208.5z"/>
		<path class="st6" d="M264.6,222.4h-7V221c0-1.2-0.1-2-0.2-2.3c-0.2-0.4-0.4-0.4-1.1-0.4c-0.4,0-0.8,0.2-1,0.4
			c-0.2,0.3-0.4,0.7-0.4,1.3c0,0.8,0.1,1.3,0.2,1.8c0.1,0.4,0.4,0.8,1,1.2c0.5,0.4,1.7,1.1,3.4,2c2.3,1.2,3.8,2.1,4.5,3.2
			c0.7,1.1,1.1,2.4,1.1,4.4c0,2.1-0.3,3.7-0.8,4.8c-0.5,1.1-1.4,1.9-2.8,2.5c-1.2,0.6-2.8,0.9-4.6,0.9c-2,0-3.7-0.4-5.2-1
			c-1.4-0.6-2.4-1.5-2.9-2.6c-0.5-1.1-0.8-2.7-0.8-4.8v-1.2h7v1.6c0,1.4,0.1,2.3,0.3,2.8c0.2,0.4,0.5,0.6,1.1,0.6
			c0.5,0,1-0.2,1.2-0.4c0.2-0.3,0.4-0.9,0.4-1.8c0-1.2-0.2-2-0.4-2.3c-0.3-0.4-1.9-1.2-4.6-2.8c-2.3-1.3-3.7-2.5-4.3-3.6
			c-0.5-1.1-0.8-2.3-0.8-3.8c0-2,0.3-3.6,0.8-4.6c0.5-1,1.5-1.8,2.8-2.3c1.3-0.5,2.8-0.8,4.5-0.8c1.7,0,3.2,0.2,4.4,0.6
			c1.2,0.4,2.1,1,2.8,1.7c0.6,0.7,1.1,1.4,1.2,2c0.2,0.6,0.2,1.6,0.2,2.8v1.6H264.6z"/>
		<path class="st6" d="M274.2,214.1l18.8,7.8v4l-18.8,7.9v-5.3l11.6-4.7l-11.6-4.6V214.1z"/>
	</g>
</g>
</svg>
