<?xml version="1.0" encoding="utf-8"?>
<!-- Generator: Adobe Illustrator 26.0.0, SVG Export Plug-In . SVG Version: 6.00 Build 0)  -->
<svg version="1.1" id="Layer_1" xmlns="http://www.w3.org/2000/svg" xmlns:xlink="http://www.w3.org/1999/xlink" x="0px" y="0px"
	 viewBox="0 0 666 470" style="enable-background:new 0 0 666 470;" xml:space="preserve">
<style type="text/css">
	.st0{fill:#FFFFFF;}
	.st1{fill:none;stroke:#C8C8C8;stroke-miterlimit:10;}
	.st2{fill:#FA8617;}
	.st3{fill:#EA4D6A;}
	.st4{fill:none;stroke:#1DA69A;stroke-miterlimit:10;}
	.st5{fill:#D1D1D1;}
	.st6{fill:#1DA69A;}
	.st7{fill:none;stroke:#EBEBEB;stroke-miterlimit:10;}
</style>
<g>
	<g>
		<path class="st0" d="M326.7,460.1H24.4c-7.2,0-13.1-5.9-13.1-13.1V22.5c0-7.3,5.9-13.1,13.1-13.1h302.4c7.2,0,13.1,5.9,13.1,13.1
			V447C339.9,454.2,334,460.1,326.7,460.1z"/>
	</g>
	<path class="st1" d="M315.5,149.4h43c5.2,0,9.3-4.2,9.3-9.4l-0.2-44.3c0-5.2,4.2-9.4,9.3-9.4h16.6"/>
	<g>
		<path class="st0" d="M629.1,111.1c0,2.5-2.2,4.5-4.9,4.5H409.9c-2.7,0-4.9-2-4.9-4.5V62.9c0-2.5,2.2-4.5,4.9-4.5h214.3
			c2.7,0,4.9,2,4.9,4.5L629.1,111.1L629.1,111.1z"/>
	</g>
	<path class="st2" d="M405.1,100.1c7.2,0,13.1-5.9,13.1-13.1c0-7.2-5.9-13.1-13.1-13.1c-7.2,0-13.1,5.9-13.1,13.1
		C392,94.2,397.8,100.1,405.1,100.1z"/>
	<path class="st0" d="M405.1,98.4c6.3,0,11.4-5.1,11.4-11.4c0-6.3-5.1-11.4-11.4-11.4c-6.3,0-11.4,5.1-11.4,11.4
		C393.6,93.3,398.7,98.4,405.1,98.4z"/>
	<path class="st2" d="M410.3,88.1l-4.1-7c-0.5-0.8-1.7-0.8-2.1,0l-4.1,7c-0.5,0.8,0.1,1.9,1.1,1.9h8.2
		C410.2,90.1,410.8,89,410.3,88.1z M405.1,88.4c-0.3,0-0.6-0.2-0.6-0.6c0-0.3,0.2-0.6,0.6-0.6s0.6,0.2,0.6,0.6
		C405.7,88.1,405.5,88.4,405.1,88.4z M405.6,85.8c-0.1,0.6-0.1,0.9-0.1,1c0,0.1,0,0.2,0,0.2c0,0-0.1,0.1-0.1,0.1H405
		c0,0-0.1,0-0.1-0.1c0,0,0-0.1,0-0.2c0-0.1,0-0.3-0.2-1.4c-0.2-1-0.2-1.1-0.2-1.1c0-0.2,0.1-0.3,0.2-0.4c0.1-0.1,0.3-0.2,0.5-0.2
		c0.2,0,0.4,0.1,0.5,0.2c0.1,0.1,0.2,0.3,0.2,0.4C405.8,84.3,405.8,84.5,405.6,85.8z"/>
	<path d="M430.2,79.9h-2.7v-1.7h7.3v1.7H432v8.1h-1.8V79.9z M436.1,78.1h1.7v4c0.2-0.4,0.5-0.7,0.9-0.9c0.4-0.2,0.8-0.3,1.3-0.3
		c0.7,0,1.2,0.2,1.6,0.5c0.4,0.4,0.6,0.9,0.6,1.6v5h-1.7v-4.4c0-0.4-0.1-0.7-0.3-1c-0.2-0.2-0.4-0.3-0.8-0.3c-0.3,0-0.5,0.1-0.8,0.3
		c-0.3,0.2-0.5,0.5-0.6,0.9c-0.2,0.4-0.2,0.9-0.2,1.5v3h-1.7V78.1z M447.2,88.2c-0.8,0-1.4-0.2-1.9-0.5c-0.5-0.4-0.9-0.8-1.1-1.4
		c-0.2-0.6-0.4-1.1-0.4-1.7c0-0.6,0.1-1.2,0.4-1.7c0.2-0.6,0.6-1,1.1-1.4c0.5-0.4,1.2-0.5,1.9-0.5c0.7,0,1.4,0.2,1.8,0.5
		c0.5,0.3,0.9,0.8,1.1,1.3c0.2,0.5,0.4,1.1,0.4,1.6v0.7h-4.9c0,0.4,0.2,0.8,0.5,1.1c0.3,0.3,0.7,0.5,1.2,0.5c0.4,0,0.7-0.1,1-0.3
		c0.3-0.2,0.5-0.5,0.7-0.8l1.4,0.5c-0.3,0.7-0.7,1.2-1.2,1.5C448.7,88,448,88.2,447.2,88.2z M448.7,83.7c-0.1-0.4-0.3-0.7-0.5-1
		c-0.2-0.3-0.6-0.4-1-0.4c-0.4,0-0.8,0.1-1,0.4c-0.3,0.3-0.4,0.6-0.5,1H448.7z M455.7,78.3h1.8V82h3.9v-3.7h1.8v9.8h-1.8v-4.4h-3.9
		v4.4h-1.8V78.3z M466.9,80.7l-1.9,1.1v-1.9l2.9-1.7h0.8v9.8h-1.8V80.7z M474.2,78.1h1.7v4c0.2-0.4,0.5-0.7,0.9-0.9
		c0.4-0.2,0.8-0.3,1.3-0.3c0.7,0,1.2,0.2,1.6,0.5c0.4,0.4,0.6,0.9,0.6,1.6v5h-1.7v-4.4c0-0.4-0.1-0.7-0.3-1
		c-0.2-0.2-0.4-0.3-0.8-0.3c-0.3,0-0.5,0.1-0.8,0.3c-0.3,0.2-0.5,0.5-0.6,0.9c-0.2,0.4-0.2,0.9-0.2,1.5v3h-1.7V78.1z M485.3,88.2
		c-0.8,0-1.4-0.2-1.9-0.5c-0.5-0.4-0.9-0.8-1.1-1.4c-0.2-0.6-0.4-1.1-0.4-1.7c0-0.6,0.1-1.2,0.4-1.7c0.2-0.6,0.6-1,1.1-1.4
		c0.5-0.4,1.2-0.5,1.9-0.5c0.7,0,1.4,0.2,1.8,0.5c0.5,0.3,0.9,0.8,1.1,1.3s0.4,1.1,0.4,1.6v0.7h-4.9c0,0.4,0.2,0.8,0.5,1.1
		c0.3,0.3,0.7,0.5,1.2,0.5c0.4,0,0.7-0.1,1-0.3c0.3-0.2,0.5-0.5,0.7-0.8l1.4,0.5c-0.3,0.7-0.7,1.2-1.2,1.5
		C486.8,88,486.2,88.2,485.3,88.2z M486.9,83.7c-0.1-0.4-0.3-0.7-0.5-1c-0.2-0.3-0.6-0.4-1-0.4c-0.4,0-0.8,0.1-1,0.4
		c-0.3,0.3-0.4,0.6-0.5,1H486.9z M491.9,88.2c-0.6,0-1.1-0.2-1.5-0.6c-0.4-0.4-0.6-0.9-0.6-1.6c0-0.7,0.3-1.3,0.8-1.7
		c0.5-0.4,1.3-0.6,2.2-0.6h1.2v-0.3c0-0.3-0.1-0.6-0.3-0.8c-0.2-0.2-0.5-0.3-0.9-0.3c-0.6,0-1,0.3-1.2,0.8l-1.5-0.3
		c0.1-0.6,0.4-1.1,0.9-1.4c0.5-0.4,1.1-0.5,1.8-0.5c0.9,0,1.7,0.3,2.2,0.8c0.5,0.5,0.8,1.2,0.8,2.2v4.2h-1.4l-0.2-0.9
		C493.5,87.8,492.8,88.2,491.9,88.2z M492.4,86.7c0.4,0,0.8-0.1,1.1-0.4c0.3-0.3,0.5-0.6,0.5-1.1v-0.1h-1.2c-0.4,0-0.7,0.1-0.9,0.2
		c-0.2,0.1-0.3,0.4-0.3,0.7c0,0.2,0.1,0.4,0.2,0.5C492,86.6,492.1,86.7,492.4,86.7z M500.2,88.2c-1,0-1.7-0.3-2.3-1
		c-0.5-0.7-0.8-1.5-0.8-2.7c0-1.1,0.3-2,0.8-2.6c0.5-0.7,1.3-1,2.3-1c0.4,0,0.8,0.1,1.1,0.2c0.3,0.1,0.6,0.3,0.8,0.5v-3.5h1.7v9.9
		h-1.7v-0.7c-0.1,0.2-0.3,0.4-0.7,0.6C501.1,88.1,500.7,88.2,500.2,88.2z M500.6,86.7c0.5,0,0.9-0.2,1.2-0.6
		c0.3-0.4,0.5-0.9,0.5-1.6c0-0.7-0.2-1.2-0.5-1.6c-0.3-0.4-0.7-0.6-1.2-0.6c-0.5,0-0.9,0.2-1.2,0.6c-0.3,0.4-0.5,0.9-0.5,1.6
		c0,0.7,0.2,1.2,0.5,1.6C499.7,86.5,500.1,86.7,500.6,86.7z M506.6,80.1c-0.3,0-0.6-0.1-0.8-0.3c-0.2-0.2-0.3-0.5-0.3-0.8
		c0-0.3,0.1-0.6,0.3-0.8c0.2-0.2,0.5-0.3,0.8-0.3c0.3,0,0.6,0.1,0.8,0.3c0.2,0.2,0.3,0.5,0.3,0.8c0,0.3-0.1,0.6-0.3,0.8
		C507.2,80,506.9,80.1,506.6,80.1z M505.8,81h1.7v7.1h-1.7V81z M509.4,81h1.7v1.1c0.3-0.4,0.6-0.7,1-0.9s0.8-0.3,1.2-0.3
		c0.7,0,1.2,0.2,1.6,0.5c0.4,0.4,0.6,0.9,0.6,1.6v5h-1.7v-4.5c0-0.4-0.1-0.7-0.3-0.9c-0.2-0.2-0.4-0.3-0.7-0.3
		c-0.3,0-0.6,0.1-0.8,0.3c-0.2,0.2-0.4,0.6-0.6,1c-0.1,0.4-0.2,0.9-0.2,1.5v2.8h-1.7V81z M519.9,91c-0.9,0-1.7-0.2-2.3-0.6
		c-0.6-0.4-0.9-1-0.9-1.7c0-0.6,0.2-1,0.6-1.4c-0.2-0.3-0.4-0.7-0.4-1.1c0-0.3,0.1-0.6,0.2-0.9c0.2-0.3,0.4-0.5,0.6-0.6
		c-0.3-0.4-0.5-0.9-0.5-1.5c0-0.5,0.1-0.9,0.3-1.2c0.2-0.4,0.5-0.6,0.9-0.8c0.4-0.2,0.8-0.3,1.3-0.3c0.5,0,0.9,0.1,1.3,0.3l1.3-0.7
		l0.7,1.1l-1,0.5c0.2,0.3,0.3,0.7,0.3,1.1c0,0.5-0.1,0.9-0.4,1.3c-0.2,0.4-0.5,0.6-0.9,0.8c-0.4,0.2-0.8,0.3-1.3,0.3
		c-0.4,0-0.7-0.1-1-0.2c-0.2,0.1-0.3,0.3-0.3,0.5c0,0.2,0.1,0.3,0.2,0.4c0.1,0.1,0.3,0.1,0.5,0.1h1.4c0.8,0,1.4,0.2,1.8,0.5
		c0.4,0.4,0.7,0.9,0.7,1.5c0,0.6-0.2,1-0.5,1.4c-0.3,0.4-0.7,0.6-1.2,0.8C521,90.9,520.5,91,519.9,91z M519.9,84.2
		c0.3,0,0.5-0.1,0.7-0.3c0.2-0.2,0.3-0.4,0.3-0.7c0-0.3-0.1-0.5-0.3-0.7c-0.2-0.2-0.4-0.3-0.7-0.3c-0.3,0-0.5,0.1-0.7,0.3
		c-0.2,0.2-0.3,0.4-0.3,0.7c0,0.3,0.1,0.5,0.3,0.7C519.4,84.1,519.6,84.2,519.9,84.2z M519.9,89.6c0.4,0,0.8-0.1,1.1-0.2
		c0.3-0.1,0.4-0.4,0.4-0.7c0-0.3-0.1-0.5-0.3-0.6c-0.2-0.1-0.5-0.2-0.8-0.2h-1c-0.3,0-0.6,0-0.8-0.1c-0.1,0.2-0.2,0.4-0.2,0.6
		c0,0.3,0.1,0.6,0.4,0.7C519.1,89.5,519.4,89.6,519.9,89.6z M528.7,80.1c-0.3,0-0.6-0.1-0.8-0.3c-0.2-0.2-0.3-0.5-0.3-0.8
		c0-0.3,0.1-0.6,0.3-0.8c0.2-0.2,0.5-0.3,0.8-0.3c0.3,0,0.6,0.1,0.8,0.3c0.2,0.2,0.3,0.5,0.3,0.8c0,0.3-0.1,0.6-0.3,0.8
		C529.3,80,529,80.1,528.7,80.1z M527.9,81h1.7v7.1h-1.7V81z M533.7,88.2c-0.7,0-1.3-0.2-1.8-0.6c-0.5-0.4-0.8-0.8-1-1.3l1.4-0.7
		c0.1,0.4,0.3,0.6,0.5,0.9c0.2,0.2,0.5,0.3,0.9,0.3c0.3,0,0.5-0.1,0.6-0.2c0.2-0.1,0.3-0.3,0.3-0.5c0-0.2-0.1-0.4-0.3-0.5
		c-0.2-0.1-0.5-0.3-0.9-0.4c-0.1,0-0.2-0.1-0.3-0.1c-0.5-0.2-1-0.5-1.3-0.8c-0.3-0.3-0.4-0.7-0.4-1.3c0-0.4,0.1-0.7,0.3-1
		c0.2-0.3,0.5-0.5,0.8-0.7c0.3-0.2,0.7-0.3,1.2-0.3c0.5,0,0.9,0.1,1.3,0.3c0.4,0.2,0.7,0.5,0.9,0.8l-1,1c-0.3-0.4-0.7-0.6-1.1-0.6
		c-0.2,0-0.3,0.1-0.5,0.2c-0.1,0.1-0.2,0.2-0.2,0.4c0,0.2,0.1,0.3,0.3,0.5c0.2,0.1,0.6,0.3,1.1,0.5c0.5,0.2,1,0.5,1.2,0.8
		c0.3,0.3,0.4,0.7,0.4,1.2c0,0.7-0.2,1.2-0.7,1.7C535,88,534.4,88.2,533.7,88.2z M544,88.2c-0.8,0-1.4-0.2-1.9-0.7
		c-0.5-0.4-0.7-1.1-0.7-1.9v-3.1h-1.1V81h1.1v-1.8l1.7-1.1V81h1.9v1.5h-1.9v3.1c0,0.4,0.1,0.7,0.2,0.9c0.2,0.2,0.4,0.3,0.7,0.3
		c0.2,0,0.5-0.1,0.7-0.2l0.4,1.4C544.8,88.1,544.4,88.2,544,88.2z M549.2,88.2c-0.7,0-1.4-0.2-1.9-0.5c-0.5-0.3-1-0.8-1.2-1.3
		c-0.3-0.6-0.4-1.2-0.4-1.9c0-0.7,0.1-1.3,0.4-1.9c0.3-0.6,0.7-1,1.2-1.3c0.5-0.3,1.2-0.5,1.9-0.5s1.4,0.2,1.9,0.5
		c0.5,0.3,1,0.8,1.2,1.3c0.3,0.6,0.4,1.2,0.4,1.9c0,0.7-0.1,1.3-0.4,1.9c-0.3,0.6-0.7,1-1.2,1.3C550.5,88,549.9,88.2,549.2,88.2z
		 M549.2,86.7c0.5,0,1-0.2,1.3-0.6c0.3-0.4,0.5-0.9,0.5-1.5c0-0.6-0.2-1.1-0.5-1.5c-0.3-0.4-0.7-0.6-1.3-0.6c-0.5,0-1,0.2-1.3,0.6
		c-0.3,0.4-0.5,0.9-0.5,1.5c0,0.6,0.2,1.1,0.5,1.5C548.2,86.5,548.6,86.7,549.2,86.7z M557.5,88.2c-0.7,0-1.4-0.2-1.9-0.5
		c-0.5-0.3-1-0.8-1.2-1.3c-0.3-0.6-0.4-1.2-0.4-1.9c0-0.7,0.1-1.3,0.4-1.9c0.3-0.6,0.7-1,1.2-1.3c0.5-0.3,1.2-0.5,1.9-0.5
		s1.4,0.2,1.9,0.5c0.5,0.3,1,0.8,1.2,1.3c0.3,0.6,0.4,1.2,0.4,1.9c0,0.7-0.1,1.3-0.4,1.9c-0.3,0.6-0.7,1-1.2,1.3
		C558.9,88,558.2,88.2,557.5,88.2z M557.5,86.7c0.5,0,1-0.2,1.3-0.6c0.3-0.4,0.5-0.9,0.5-1.5c0-0.6-0.2-1.1-0.5-1.5
		c-0.3-0.4-0.7-0.6-1.3-0.6s-1,0.2-1.3,0.6c-0.3,0.4-0.5,0.9-0.5,1.5c0,0.6,0.2,1.1,0.5,1.5C556.5,86.5,557,86.7,557.5,86.7z
		 M568.4,88.2c-0.7,0-1.3-0.2-1.8-0.6c-0.5-0.4-0.8-0.8-1-1.3l1.4-0.7c0.1,0.4,0.3,0.6,0.5,0.9c0.2,0.2,0.5,0.3,0.9,0.3
		c0.3,0,0.5-0.1,0.6-0.2c0.2-0.1,0.3-0.3,0.3-0.5c0-0.2-0.1-0.4-0.3-0.5c-0.2-0.1-0.5-0.3-0.9-0.4c-0.1,0-0.2-0.1-0.3-0.1
		c-0.5-0.2-1-0.5-1.3-0.8c-0.3-0.3-0.4-0.7-0.4-1.3c0-0.4,0.1-0.7,0.3-1c0.2-0.3,0.5-0.5,0.8-0.7c0.3-0.2,0.7-0.3,1.2-0.3
		c0.5,0,0.9,0.1,1.3,0.3c0.4,0.2,0.7,0.5,0.9,0.8l-1,1c-0.3-0.4-0.7-0.6-1.1-0.6c-0.2,0-0.4,0.1-0.5,0.2c-0.1,0.1-0.2,0.2-0.2,0.4
		c0,0.2,0.1,0.3,0.3,0.5c0.2,0.1,0.6,0.3,1.1,0.5c0.5,0.2,1,0.5,1.2,0.8c0.3,0.3,0.4,0.7,0.4,1.2c0,0.7-0.2,1.2-0.7,1.7
		C569.7,88,569.1,88.2,568.4,88.2z M572.3,78.1h1.7v4c0.2-0.4,0.5-0.7,0.9-0.9c0.4-0.2,0.8-0.3,1.3-0.3c0.7,0,1.2,0.2,1.6,0.5
		c0.4,0.4,0.6,0.9,0.6,1.6v5h-1.7v-4.4c0-0.4-0.1-0.7-0.3-1c-0.2-0.2-0.4-0.3-0.8-0.3c-0.3,0-0.5,0.1-0.8,0.3s-0.5,0.5-0.6,0.9
		c-0.2,0.4-0.2,0.9-0.2,1.5v3h-1.7V78.1z M583.7,88.2c-0.7,0-1.4-0.2-1.9-0.5c-0.5-0.3-1-0.8-1.2-1.3c-0.3-0.6-0.4-1.2-0.4-1.9
		c0-0.7,0.1-1.3,0.4-1.9c0.3-0.6,0.7-1,1.2-1.3c0.5-0.3,1.2-0.5,1.9-0.5c0.7,0,1.4,0.2,1.9,0.5c0.5,0.3,1,0.8,1.2,1.3
		c0.3,0.6,0.4,1.2,0.4,1.9c0,0.7-0.1,1.3-0.4,1.9c-0.3,0.6-0.7,1-1.2,1.3C585,88,584.4,88.2,583.7,88.2z M583.7,86.7
		c0.5,0,1-0.2,1.3-0.6c0.3-0.4,0.5-0.9,0.5-1.5c0-0.6-0.2-1.1-0.5-1.5c-0.3-0.4-0.7-0.6-1.3-0.6c-0.5,0-1,0.2-1.3,0.6
		c-0.3,0.4-0.5,0.9-0.5,1.5c0,0.6,0.2,1.1,0.5,1.5C582.7,86.5,583.1,86.7,583.7,86.7z M588.8,81h1.7v1.1c0.3-0.4,0.6-0.7,0.9-0.9
		c0.4-0.2,0.8-0.3,1.2-0.3c0.3,0,0.5,0,0.9,0.1l-0.3,1.6c-0.2-0.1-0.5-0.2-0.7-0.2c-0.5,0-1,0.3-1.4,0.8c-0.4,0.5-0.5,1.3-0.5,2.4
		v2.5h-1.7V81z M597.9,88.2c-0.8,0-1.4-0.2-1.9-0.7c-0.5-0.4-0.7-1.1-0.7-1.9v-3.1h-1.1V81h1.1v-1.8l1.7-1.1V81h1.9v1.5H597v3.1
		c0,0.4,0.1,0.7,0.2,0.9c0.2,0.2,0.4,0.3,0.7,0.3c0.2,0,0.5-0.1,0.7-0.2l0.4,1.4C598.7,88.1,598.3,88.2,597.9,88.2z M601.2,88.1
		c-0.3,0-0.6-0.1-0.8-0.3S600,87.3,600,87c0-0.3,0.1-0.6,0.3-0.8s0.5-0.3,0.8-0.3c0.3,0,0.6,0.1,0.8,0.3s0.3,0.5,0.3,0.8
		c0,0.3-0.1,0.6-0.3,0.8S601.5,88.1,601.2,88.1z"/>
	<g>
		<path class="st0" d="M638.8,182.3c0,2.5-2.2,4.5-4.9,4.5H419.7c-2.7,0-4.9-2-4.9-4.5v-48.2c0-2.5,2.2-4.5,4.9-4.5h214.3
			c2.7,0,4.9,2,4.9,4.5L638.8,182.3L638.8,182.3z"/>
	</g>
	<path class="st3" d="M414.6,171.3c7.2,0,13.1-5.9,13.1-13.1s-5.9-13.1-13.1-13.1c-7.2,0-13.1,5.9-13.1,13.1
		S407.4,171.3,414.6,171.3z"/>
	<path class="st0" d="M414.6,169.6c6.3,0,11.4-5.1,11.4-11.4s-5.1-11.4-11.4-11.4c-6.3,0-11.4,5.1-11.4,11.4
		S408.3,169.6,414.6,169.6z"/>
	<path class="st3" d="M441.1,151h-2.7v-1.7h7.3v1.7h-2.7v8.1h-1.8V151z M447,149.2h1.7v4c0.2-0.4,0.5-0.7,0.9-0.9
		c0.4-0.2,0.8-0.4,1.3-0.4c0.7,0,1.2,0.2,1.6,0.5c0.4,0.4,0.6,0.9,0.6,1.6v5h-1.7v-4.4c0-0.4-0.1-0.7-0.3-1
		c-0.2-0.2-0.4-0.3-0.8-0.3c-0.3,0-0.5,0.1-0.8,0.3c-0.3,0.2-0.5,0.5-0.6,0.9c-0.2,0.4-0.2,0.9-0.2,1.5v3H447V149.2z M458.1,159.3
		c-0.8,0-1.4-0.2-1.9-0.5c-0.5-0.4-0.9-0.8-1.1-1.4c-0.2-0.6-0.4-1.1-0.4-1.7s0.1-1.2,0.4-1.7c0.2-0.6,0.6-1,1.1-1.4
		c0.5-0.4,1.2-0.5,1.9-0.5c0.7,0,1.4,0.2,1.8,0.5c0.5,0.3,0.9,0.8,1.1,1.3s0.4,1.1,0.4,1.6v0.7h-4.9c0,0.4,0.2,0.8,0.5,1.1
		c0.3,0.3,0.7,0.5,1.2,0.5c0.4,0,0.7-0.1,1-0.3c0.3-0.2,0.5-0.5,0.7-0.8l1.4,0.5c-0.3,0.7-0.7,1.2-1.2,1.5
		C459.6,159.1,458.9,159.3,458.1,159.3z M459.6,154.8c-0.1-0.4-0.3-0.7-0.5-1c-0.2-0.3-0.6-0.4-1-0.4c-0.4,0-0.8,0.1-1,0.4
		s-0.4,0.6-0.5,1H459.6z M466.6,149.4h1.8v3.7h3.9v-3.7h1.8v9.8h-1.8v-4.4h-3.9v4.4h-1.8V149.4z M475.6,158.5l3.5-4.5
		c0.3-0.4,0.5-0.7,0.6-0.9c0.1-0.3,0.2-0.6,0.2-0.8c0-0.4-0.1-0.7-0.3-0.9c-0.2-0.2-0.5-0.4-0.9-0.4c-0.4,0-0.6,0.1-0.9,0.3
		c-0.2,0.2-0.4,0.5-0.4,1l-1.6-0.3c0-0.5,0.2-0.9,0.4-1.3c0.3-0.4,0.6-0.7,1.1-0.9c0.4-0.2,0.9-0.4,1.5-0.4c0.9,0,1.6,0.3,2.1,0.8
		c0.5,0.5,0.8,1.2,0.8,2.1c0,0.8-0.3,1.6-0.8,2.3l-2.4,3.1h3.4v1.6h-6.2V158.5z M486.9,149.2h1.7v4c0.2-0.4,0.5-0.7,0.9-0.9
		c0.4-0.2,0.8-0.4,1.3-0.4c0.7,0,1.2,0.2,1.6,0.5c0.4,0.4,0.6,0.9,0.6,1.6v5h-1.7v-4.4c0-0.4-0.1-0.7-0.3-1
		c-0.2-0.2-0.4-0.3-0.8-0.3c-0.3,0-0.5,0.1-0.8,0.3c-0.3,0.2-0.5,0.5-0.6,0.9c-0.2,0.4-0.2,0.9-0.2,1.5v3h-1.7V149.2z M498,159.3
		c-0.8,0-1.4-0.2-1.9-0.5c-0.5-0.4-0.9-0.8-1.1-1.4c-0.2-0.6-0.4-1.1-0.4-1.7s0.1-1.2,0.4-1.7c0.2-0.6,0.6-1,1.1-1.4
		c0.5-0.4,1.2-0.5,1.9-0.5c0.7,0,1.4,0.2,1.8,0.5c0.5,0.3,0.9,0.8,1.1,1.3c0.2,0.5,0.3,1.1,0.3,1.6v0.7h-4.9c0,0.4,0.2,0.8,0.5,1.1
		c0.3,0.3,0.7,0.5,1.2,0.5c0.4,0,0.7-0.1,1-0.3c0.3-0.2,0.5-0.5,0.7-0.8l1.4,0.5c-0.3,0.7-0.7,1.2-1.2,1.5
		C499.5,159.1,498.8,159.3,498,159.3z M499.5,154.8c-0.1-0.4-0.3-0.7-0.5-1c-0.2-0.3-0.6-0.4-1-0.4c-0.4,0-0.8,0.1-1,0.4
		c-0.3,0.3-0.4,0.6-0.5,1H499.5z M504.6,159.3c-0.6,0-1.1-0.2-1.5-0.6c-0.4-0.4-0.6-0.9-0.6-1.6c0-0.7,0.3-1.3,0.8-1.7
		c0.5-0.4,1.3-0.6,2.2-0.6h1.2v-0.3c0-0.3-0.1-0.6-0.4-0.8c-0.2-0.2-0.5-0.3-0.9-0.3c-0.6,0-1,0.3-1.2,0.8l-1.5-0.3
		c0.1-0.6,0.4-1.1,0.9-1.4c0.5-0.4,1.1-0.5,1.8-0.5c0.9,0,1.7,0.3,2.2,0.8c0.5,0.5,0.8,1.2,0.8,2.2v4.2h-1.4l-0.2-0.9
		C506.2,158.9,505.5,159.3,504.6,159.3z M505,157.8c0.4,0,0.8-0.1,1.1-0.4c0.3-0.3,0.5-0.6,0.5-1.1v-0.1h-1.2
		c-0.4,0-0.7,0.1-0.9,0.2c-0.2,0.1-0.3,0.4-0.3,0.7c0,0.2,0.1,0.4,0.2,0.5C504.6,157.7,504.8,157.8,505,157.8z M512.9,159.3
		c-1,0-1.7-0.3-2.3-1c-0.5-0.7-0.8-1.5-0.8-2.7c0-1.1,0.3-2,0.8-2.6c0.5-0.7,1.3-1,2.3-1c0.4,0,0.8,0.1,1.1,0.2
		c0.3,0.1,0.6,0.3,0.8,0.5v-3.5h1.7v9.9h-1.7v-0.7c-0.1,0.2-0.3,0.4-0.7,0.6C513.7,159.2,513.3,159.3,512.9,159.3z M513.2,157.8
		c0.5,0,0.9-0.2,1.2-0.6c0.3-0.4,0.5-0.9,0.5-1.6s-0.2-1.2-0.5-1.6c-0.3-0.4-0.7-0.6-1.2-0.6s-0.9,0.2-1.2,0.6
		c-0.3,0.4-0.5,0.9-0.5,1.6c0,0.7,0.2,1.2,0.5,1.6C512.4,157.6,512.8,157.8,513.2,157.8z M519.3,151.2c-0.3,0-0.6-0.1-0.8-0.3
		c-0.2-0.2-0.3-0.5-0.3-0.8s0.1-0.6,0.3-0.8c0.2-0.2,0.5-0.3,0.8-0.3c0.3,0,0.6,0.1,0.8,0.3c0.2,0.2,0.3,0.5,0.3,0.8
		s-0.1,0.6-0.3,0.8C519.9,151.1,519.6,151.2,519.3,151.2z M518.4,152.1h1.7v7.1h-1.7V152.1z M522,152.1h1.7v1.1
		c0.3-0.4,0.6-0.7,1-0.9c0.4-0.2,0.8-0.3,1.2-0.3c0.7,0,1.2,0.2,1.6,0.5c0.4,0.4,0.6,0.9,0.6,1.6v5h-1.7v-4.5c0-0.4-0.1-0.7-0.3-0.9
		c-0.2-0.2-0.4-0.3-0.7-0.3c-0.3,0-0.6,0.1-0.8,0.3c-0.2,0.2-0.4,0.6-0.6,1c-0.1,0.4-0.2,0.9-0.2,1.5v2.8H522V152.1z M532.6,162.1
		c-0.9,0-1.7-0.2-2.3-0.6c-0.6-0.4-0.9-1-0.9-1.7c0-0.6,0.2-1,0.6-1.4c-0.2-0.3-0.4-0.7-0.4-1.1c0-0.3,0.1-0.6,0.2-0.9
		c0.2-0.3,0.4-0.5,0.6-0.6c-0.3-0.4-0.5-0.9-0.5-1.5c0-0.5,0.1-0.9,0.3-1.2c0.2-0.4,0.5-0.6,0.9-0.8c0.4-0.2,0.8-0.3,1.3-0.3
		c0.5,0,0.9,0.1,1.3,0.3l1.3-0.7l0.7,1.1l-1,0.5c0.2,0.3,0.3,0.7,0.3,1.1c0,0.5-0.1,0.9-0.4,1.3c-0.2,0.4-0.5,0.6-0.9,0.8
		c-0.4,0.2-0.8,0.3-1.3,0.3c-0.4,0-0.7-0.1-1-0.2c-0.2,0.1-0.3,0.3-0.3,0.5c0,0.2,0.1,0.3,0.2,0.4c0.1,0.1,0.3,0.1,0.5,0.1h1.4
		c0.8,0,1.4,0.2,1.8,0.5c0.4,0.4,0.7,0.9,0.7,1.5c0,0.6-0.2,1-0.5,1.4c-0.3,0.4-0.7,0.6-1.2,0.8C533.7,162,533.1,162.1,532.6,162.1z
		 M532.6,155.3c0.3,0,0.5-0.1,0.7-0.3c0.2-0.2,0.3-0.4,0.3-0.7c0-0.3-0.1-0.5-0.3-0.7c-0.2-0.2-0.4-0.3-0.7-0.3
		c-0.3,0-0.5,0.1-0.7,0.3c-0.2,0.2-0.3,0.4-0.3,0.7c0,0.3,0.1,0.5,0.3,0.7C532,155.2,532.3,155.3,532.6,155.3z M532.6,160.7
		c0.4,0,0.8-0.1,1.1-0.2c0.3-0.1,0.4-0.4,0.4-0.7c0-0.3-0.1-0.5-0.3-0.6c-0.2-0.1-0.5-0.2-0.8-0.2h-1c-0.3,0-0.6,0-0.8-0.1
		c-0.1,0.2-0.2,0.4-0.2,0.6c0,0.3,0.1,0.6,0.4,0.7C531.7,160.6,532.1,160.7,532.6,160.7z M541.4,151.2c-0.3,0-0.6-0.1-0.8-0.3
		c-0.2-0.2-0.3-0.5-0.3-0.8s0.1-0.6,0.3-0.8c0.2-0.2,0.5-0.3,0.8-0.3c0.3,0,0.6,0.1,0.8,0.3c0.2,0.2,0.3,0.5,0.3,0.8
		s-0.1,0.6-0.3,0.8S541.7,151.2,541.4,151.2z M540.5,152.1h1.7v7.1h-1.7V152.1z M546.4,159.3c-0.7,0-1.3-0.2-1.8-0.6
		c-0.5-0.4-0.8-0.8-1-1.3l1.4-0.7c0.1,0.4,0.3,0.6,0.5,0.9c0.2,0.2,0.5,0.3,0.9,0.3c0.3,0,0.5-0.1,0.6-0.2c0.2-0.1,0.3-0.3,0.3-0.5
		c0-0.2-0.1-0.4-0.3-0.5c-0.2-0.1-0.5-0.3-0.9-0.4c-0.1,0-0.2-0.1-0.3-0.1c-0.5-0.2-1-0.5-1.3-0.8c-0.3-0.3-0.4-0.7-0.4-1.3
		c0-0.4,0.1-0.7,0.3-1c0.2-0.3,0.5-0.5,0.8-0.7c0.3-0.2,0.7-0.3,1.2-0.3c0.5,0,0.9,0.1,1.3,0.3c0.4,0.2,0.7,0.5,0.9,0.8l-1,1
		c-0.3-0.4-0.7-0.6-1.1-0.6c-0.2,0-0.3,0.1-0.5,0.2c-0.1,0.1-0.2,0.2-0.2,0.4c0,0.2,0.1,0.3,0.3,0.5c0.2,0.1,0.6,0.3,1.1,0.5
		c0.5,0.2,1,0.5,1.2,0.8c0.3,0.3,0.4,0.7,0.4,1.2c0,0.7-0.2,1.2-0.7,1.7C547.7,159.1,547.1,159.3,546.4,159.3z M553.8,152.1h1.7v1.1
		c0.3-0.4,0.6-0.7,0.9-0.9c0.3-0.2,0.7-0.3,1.1-0.3c0.5,0,0.9,0.1,1.2,0.4c0.4,0.2,0.6,0.6,0.8,1.1c0.3-0.5,0.6-0.8,0.9-1.1
		c0.4-0.3,0.8-0.4,1.2-0.4c0.7,0,1.2,0.2,1.5,0.6c0.4,0.4,0.6,0.9,0.6,1.6v5h-1.7v-4.7c0-0.7-0.3-1-0.9-1c-0.4,0-0.8,0.3-1.1,0.8
		c-0.3,0.5-0.4,1.2-0.4,2.2v2.7h-1.7v-4.7c0-0.7-0.3-1-0.9-1c-0.4,0-0.8,0.3-1.1,0.8c-0.3,0.5-0.4,1.3-0.4,2.3v2.6h-1.7V152.1z
		 M566.6,151.2c-0.3,0-0.6-0.1-0.8-0.3c-0.2-0.2-0.3-0.5-0.3-0.8s0.1-0.6,0.3-0.8c0.2-0.2,0.5-0.3,0.8-0.3s0.6,0.1,0.8,0.3
		c0.2,0.2,0.3,0.5,0.3,0.8s-0.1,0.6-0.3,0.8C567.1,151.1,566.9,151.2,566.6,151.2z M565.7,152.1h1.7v7.1h-1.7V152.1z M571.5,159.3
		c-0.7,0-1.3-0.2-1.8-0.6c-0.5-0.4-0.8-0.8-1-1.3l1.4-0.7c0.1,0.4,0.3,0.6,0.5,0.9c0.2,0.2,0.5,0.3,0.9,0.3c0.3,0,0.5-0.1,0.6-0.2
		c0.2-0.1,0.3-0.3,0.3-0.5c0-0.2-0.1-0.4-0.3-0.5c-0.2-0.1-0.5-0.3-0.9-0.4c-0.1,0-0.2-0.1-0.3-0.1c-0.5-0.2-1-0.5-1.3-0.8
		c-0.3-0.3-0.4-0.7-0.4-1.3c0-0.4,0.1-0.7,0.3-1c0.2-0.3,0.5-0.5,0.8-0.7c0.3-0.2,0.7-0.3,1.2-0.3c0.5,0,0.9,0.1,1.3,0.3
		c0.4,0.2,0.7,0.5,0.9,0.8l-1,1c-0.3-0.4-0.7-0.6-1.1-0.6c-0.2,0-0.3,0.1-0.5,0.2c-0.1,0.1-0.2,0.2-0.2,0.4c0,0.2,0.1,0.3,0.3,0.5
		c0.2,0.1,0.6,0.3,1.1,0.5c0.5,0.2,1,0.5,1.2,0.8c0.3,0.3,0.4,0.7,0.4,1.2c0,0.7-0.2,1.2-0.7,1.7
		C572.8,159.1,572.2,159.3,571.5,159.3z M577.7,159.3c-0.7,0-1.3-0.2-1.8-0.6c-0.5-0.4-0.8-0.8-1-1.3l1.4-0.7
		c0.1,0.4,0.3,0.6,0.5,0.9c0.2,0.2,0.5,0.3,0.9,0.3c0.3,0,0.5-0.1,0.6-0.2c0.2-0.1,0.3-0.3,0.3-0.5c0-0.2-0.1-0.4-0.3-0.5
		c-0.2-0.1-0.5-0.3-0.9-0.4c-0.1,0-0.2-0.1-0.3-0.1c-0.5-0.2-1-0.5-1.3-0.8c-0.3-0.3-0.4-0.7-0.4-1.3c0-0.4,0.1-0.7,0.3-1
		c0.2-0.3,0.5-0.5,0.8-0.7c0.3-0.2,0.7-0.3,1.2-0.3c0.5,0,0.9,0.1,1.3,0.3c0.4,0.2,0.7,0.5,0.9,0.8l-1,1c-0.3-0.4-0.7-0.6-1.1-0.6
		c-0.2,0-0.3,0.1-0.5,0.2c-0.1,0.1-0.2,0.2-0.2,0.4c0,0.2,0.1,0.3,0.3,0.5c0.2,0.1,0.6,0.3,1.1,0.5c0.5,0.2,1,0.5,1.2,0.8
		c0.3,0.3,0.4,0.7,0.4,1.2c0,0.7-0.2,1.2-0.7,1.7C578.9,159.1,578.4,159.3,577.7,159.3z M582.5,151.2c-0.3,0-0.6-0.1-0.8-0.3
		c-0.2-0.2-0.3-0.5-0.3-0.8s0.1-0.6,0.3-0.8c0.2-0.2,0.5-0.3,0.8-0.3s0.6,0.1,0.8,0.3c0.2,0.2,0.3,0.5,0.3,0.8s-0.1,0.6-0.3,0.8
		C583.1,151.1,582.8,151.2,582.5,151.2z M581.6,152.1h1.7v7.1h-1.7V152.1z M585.2,152.1h1.7v1.1c0.3-0.4,0.6-0.7,1-0.9
		c0.4-0.2,0.8-0.3,1.2-0.3c0.7,0,1.2,0.2,1.6,0.5c0.4,0.4,0.6,0.9,0.6,1.6v5h-1.7v-4.5c0-0.4-0.1-0.7-0.3-0.9
		c-0.2-0.2-0.4-0.3-0.7-0.3c-0.3,0-0.6,0.1-0.8,0.3c-0.2,0.2-0.4,0.6-0.6,1c-0.2,0.4-0.2,0.9-0.2,1.5v2.8h-1.7V152.1z M595.8,162.1
		c-0.9,0-1.7-0.2-2.3-0.6c-0.6-0.4-0.9-1-0.9-1.7c0-0.6,0.2-1,0.6-1.4c-0.2-0.3-0.4-0.7-0.4-1.1c0-0.3,0.1-0.6,0.2-0.9
		c0.2-0.3,0.4-0.5,0.6-0.6c-0.3-0.4-0.5-0.9-0.5-1.5c0-0.5,0.1-0.9,0.3-1.2c0.2-0.4,0.5-0.6,0.9-0.8c0.4-0.2,0.8-0.3,1.3-0.3
		c0.5,0,0.9,0.1,1.3,0.3l1.3-0.7l0.7,1.1l-1,0.5c0.2,0.3,0.3,0.7,0.3,1.1c0,0.5-0.1,0.9-0.3,1.3c-0.2,0.4-0.5,0.6-0.9,0.8
		c-0.4,0.2-0.8,0.3-1.3,0.3c-0.4,0-0.7-0.1-1-0.2c-0.2,0.1-0.3,0.3-0.3,0.5c0,0.2,0.1,0.3,0.2,0.4c0.1,0.1,0.3,0.1,0.5,0.1h1.4
		c0.8,0,1.4,0.2,1.8,0.5c0.4,0.4,0.7,0.9,0.7,1.5c0,0.6-0.2,1-0.5,1.4c-0.3,0.4-0.7,0.6-1.2,0.8C596.8,162,596.3,162.1,595.8,162.1z
		 M595.7,155.3c0.3,0,0.5-0.1,0.7-0.3c0.2-0.2,0.3-0.4,0.3-0.7c0-0.3-0.1-0.5-0.3-0.7c-0.2-0.2-0.4-0.3-0.7-0.3
		c-0.3,0-0.5,0.1-0.7,0.3c-0.2,0.2-0.3,0.4-0.3,0.7c0,0.3,0.1,0.5,0.3,0.7C595.2,155.2,595.5,155.3,595.7,155.3z M595.8,160.7
		c0.4,0,0.8-0.1,1.1-0.2c0.3-0.1,0.4-0.4,0.4-0.7c0-0.3-0.1-0.5-0.3-0.6c-0.2-0.1-0.5-0.2-0.8-0.2h-1c-0.3,0-0.6,0-0.8-0.1
		c-0.1,0.2-0.2,0.4-0.2,0.6c0,0.3,0.1,0.6,0.4,0.7C594.9,160.6,595.3,160.7,595.8,160.7z"/>
	<g>
		<path class="st0" d="M655.3,254.2c0,2.5-2.2,4.5-4.9,4.5H436.1c-2.7,0-4.9-2-4.9-4.5V206c0-2.5,2.2-4.5,4.9-4.5h214.3
			c2.7,0,4.9,2,4.9,4.5V254.2z"/>
	</g>
	<path class="st3" d="M430.8,243.2c7.2,0,13.1-5.9,13.1-13.1s-5.9-13.1-13.1-13.1c-7.2,0-13.1,5.9-13.1,13.1
		S423.6,243.2,430.8,243.2z"/>
	<path class="st0" d="M430.8,241.6c6.3,0,11.4-5.1,11.4-11.4c0-6.3-5.1-11.4-11.4-11.4c-6.3,0-11.4,5.1-11.4,11.4
		C419.4,236.4,424.5,241.6,430.8,241.6z"/>
	<path class="st3" d="M457.3,224c-0.6,0-1.1-0.1-1.6-0.4c-0.5-0.2-0.9-0.6-1.2-1c-0.3-0.4-0.5-0.9-0.6-1.4l1.5-0.9
		c0.1,0.6,0.4,1.1,0.7,1.4c0.3,0.4,0.7,0.5,1.2,0.5c0.4,0,0.7-0.1,0.9-0.3c0.2-0.2,0.4-0.5,0.4-0.9c0-0.2-0.1-0.5-0.2-0.6
		c-0.2-0.2-0.4-0.4-0.6-0.5c-0.2-0.1-0.6-0.3-1-0.5l-0.4-0.2c-0.6-0.3-1-0.6-1.3-1.1c-0.3-0.4-0.5-1-0.5-1.6c0-0.5,0.1-0.9,0.3-1.3
		c0.2-0.4,0.6-0.7,1-0.9c0.4-0.2,0.9-0.4,1.4-0.4c1.4,0,2.3,0.6,2.8,1.8l-1.5,0.9c-0.2-0.7-0.7-1-1.3-1c-0.3,0-0.5,0.1-0.7,0.3
		c-0.2,0.2-0.3,0.4-0.3,0.6s0.1,0.5,0.3,0.7c0.2,0.2,0.4,0.4,0.6,0.5c0.3,0.1,0.6,0.3,1.1,0.5c0.5,0.2,0.8,0.4,1.1,0.7
		c0.3,0.2,0.6,0.5,0.8,0.9c0.2,0.4,0.3,0.8,0.3,1.3c0,0.6-0.1,1.1-0.4,1.6c-0.3,0.4-0.6,0.8-1.1,1C458.4,223.9,457.9,224,457.3,224z
		 M465.1,224c-0.7,0-1.4-0.2-1.9-0.5c-0.5-0.3-1-0.8-1.2-1.3c-0.3-0.6-0.4-1.2-0.4-1.9c0-0.7,0.1-1.3,0.4-1.9c0.3-0.6,0.7-1,1.2-1.3
		c0.5-0.3,1.2-0.5,1.9-0.5c0.7,0,1.4,0.2,1.9,0.5c0.5,0.3,1,0.8,1.2,1.3c0.3,0.6,0.4,1.2,0.4,1.9c0,0.7-0.1,1.3-0.4,1.9
		c-0.3,0.6-0.7,1-1.2,1.3C466.5,223.9,465.8,224,465.1,224z M465.1,222.6c0.5,0,1-0.2,1.3-0.6c0.3-0.4,0.5-0.9,0.5-1.5
		c0-0.6-0.2-1.1-0.5-1.5c-0.3-0.4-0.7-0.6-1.3-0.6c-0.5,0-1,0.2-1.3,0.6c-0.3,0.4-0.5,0.9-0.5,1.5c0,0.6,0.2,1.1,0.5,1.5
		C464.1,222.3,464.5,222.6,465.1,222.6z M470.2,216.9h1.7v1.1c0.3-0.4,0.6-0.7,0.9-0.9c0.3-0.2,0.7-0.3,1.1-0.3
		c0.5,0,0.9,0.1,1.2,0.4c0.4,0.2,0.6,0.6,0.8,1.1c0.3-0.5,0.6-0.8,0.9-1.1c0.4-0.3,0.8-0.4,1.2-0.4c0.7,0,1.2,0.2,1.5,0.6
		c0.4,0.4,0.6,0.9,0.6,1.6v5h-1.7v-4.7c0-0.7-0.3-1-0.9-1c-0.4,0-0.8,0.3-1.1,0.8c-0.3,0.5-0.4,1.2-0.4,2.2v2.7h-1.7v-4.7
		c0-0.7-0.3-1-0.9-1c-0.4,0-0.8,0.3-1.1,0.8c-0.3,0.5-0.4,1.3-0.4,2.3v2.6h-1.7V216.9z M485.2,224c-0.8,0-1.4-0.2-1.9-0.5
		c-0.5-0.4-0.9-0.8-1.1-1.4c-0.2-0.6-0.4-1.1-0.4-1.7c0-0.6,0.1-1.2,0.4-1.7c0.2-0.6,0.6-1,1.1-1.4c0.5-0.4,1.2-0.5,1.9-0.5
		c0.7,0,1.4,0.2,1.8,0.5c0.5,0.3,0.9,0.8,1.1,1.3c0.2,0.5,0.4,1.1,0.4,1.6v0.7h-4.9c0,0.4,0.2,0.8,0.5,1.1c0.3,0.3,0.7,0.5,1.2,0.5
		c0.4,0,0.7-0.1,1-0.3c0.3-0.2,0.5-0.5,0.7-0.8l1.4,0.5c-0.3,0.7-0.7,1.2-1.2,1.5C486.6,223.9,486,224,485.2,224z M486.7,219.6
		c-0.1-0.4-0.3-0.7-0.5-1c-0.2-0.3-0.6-0.4-1-0.4c-0.4,0-0.8,0.1-1,0.4c-0.3,0.3-0.4,0.6-0.5,1H486.7z M493.5,214h1.7v4
		c0.2-0.4,0.5-0.7,0.9-0.9c0.4-0.2,0.8-0.4,1.3-0.4c0.7,0,1.2,0.2,1.6,0.5c0.4,0.4,0.6,0.9,0.6,1.6v5h-1.7v-4.4c0-0.4-0.1-0.7-0.3-1
		c-0.2-0.2-0.4-0.3-0.8-0.3c-0.3,0-0.5,0.1-0.8,0.3c-0.3,0.2-0.5,0.5-0.6,0.9c-0.2,0.4-0.2,0.9-0.2,1.5v3h-1.7V214z M504.6,224
		c-0.8,0-1.4-0.2-1.9-0.5c-0.5-0.4-0.9-0.8-1.1-1.4c-0.2-0.6-0.4-1.1-0.4-1.7c0-0.6,0.1-1.2,0.4-1.7c0.2-0.6,0.6-1,1.1-1.4
		c0.5-0.4,1.2-0.5,1.9-0.5c0.7,0,1.4,0.2,1.8,0.5c0.5,0.3,0.9,0.8,1.1,1.3c0.2,0.5,0.3,1.1,0.3,1.6v0.7h-4.9c0,0.4,0.2,0.8,0.5,1.1
		c0.3,0.3,0.7,0.5,1.2,0.5c0.4,0,0.7-0.1,1-0.3c0.3-0.2,0.5-0.5,0.7-0.8l1.4,0.5c-0.3,0.7-0.7,1.2-1.2,1.5
		C506.1,223.9,505.4,224,504.6,224z M506.1,219.6c-0.1-0.4-0.3-0.7-0.5-1c-0.2-0.3-0.6-0.4-1-0.4c-0.4,0-0.8,0.1-1,0.4
		c-0.3,0.3-0.4,0.6-0.5,1H506.1z M511.2,224c-0.6,0-1.1-0.2-1.5-0.6c-0.4-0.4-0.6-0.9-0.6-1.6c0-0.7,0.3-1.3,0.8-1.7
		c0.5-0.4,1.3-0.6,2.2-0.6h1.2v-0.3c0-0.3-0.1-0.6-0.3-0.8c-0.2-0.2-0.5-0.3-0.9-0.3c-0.6,0-1,0.3-1.2,0.8l-1.5-0.3
		c0.1-0.6,0.4-1.1,0.9-1.4c0.5-0.4,1.1-0.5,1.8-0.5c0.9,0,1.7,0.3,2.2,0.8c0.5,0.5,0.8,1.2,0.8,2.2v4.2h-1.4l-0.2-0.9
		C512.8,223.7,512.1,224,511.2,224z M511.7,222.6c0.4,0,0.8-0.1,1.1-0.4c0.3-0.3,0.5-0.6,0.5-1.1V221h-1.2c-0.4,0-0.7,0.1-0.9,0.2
		c-0.2,0.1-0.3,0.4-0.3,0.7c0,0.2,0.1,0.4,0.2,0.5C511.2,222.5,511.4,222.6,511.7,222.6z M519.5,224c-1,0-1.7-0.3-2.3-1
		c-0.5-0.7-0.8-1.6-0.8-2.7c0-1.1,0.3-2,0.8-2.6c0.5-0.7,1.3-1,2.3-1c0.4,0,0.8,0.1,1.1,0.2c0.3,0.1,0.6,0.3,0.8,0.5V214h1.7v9.9
		h-1.7v-0.7c-0.1,0.2-0.3,0.4-0.7,0.6C520.3,224,520,224,519.5,224z M519.9,222.6c0.5,0,0.9-0.2,1.2-0.6c0.3-0.4,0.5-0.9,0.5-1.6
		c0-0.7-0.2-1.2-0.5-1.6c-0.3-0.4-0.7-0.6-1.2-0.6s-0.9,0.2-1.2,0.6c-0.3,0.4-0.5,0.9-0.5,1.6c0,0.7,0.2,1.2,0.5,1.6
		C519,222.4,519.4,222.6,519.9,222.6z M525.9,216c-0.3,0-0.6-0.1-0.8-0.3c-0.2-0.2-0.3-0.5-0.3-0.8c0-0.3,0.1-0.6,0.3-0.8
		c0.2-0.2,0.5-0.3,0.8-0.3c0.3,0,0.6,0.1,0.8,0.3c0.2,0.2,0.3,0.5,0.3,0.8c0,0.3-0.1,0.6-0.3,0.8C526.5,215.9,526.2,216,525.9,216z
		 M525,216.9h1.7v7.1H525V216.9z M528.7,216.9h1.7v1.1c0.3-0.4,0.6-0.7,1-0.9c0.4-0.2,0.8-0.3,1.2-0.3c0.7,0,1.2,0.2,1.6,0.5
		c0.4,0.4,0.6,0.9,0.6,1.6v5H533v-4.5c0-0.4-0.1-0.7-0.3-0.9c-0.2-0.2-0.4-0.3-0.7-0.3c-0.3,0-0.6,0.1-0.8,0.3
		c-0.2,0.2-0.4,0.6-0.6,1c-0.1,0.4-0.2,0.9-0.2,1.5v2.8h-1.7V216.9z M539.2,226.9c-0.9,0-1.7-0.2-2.3-0.6c-0.6-0.4-0.9-1-0.9-1.7
		c0-0.6,0.2-1,0.6-1.4c-0.2-0.3-0.4-0.7-0.4-1.1c0-0.3,0.1-0.6,0.2-0.9c0.2-0.3,0.4-0.5,0.6-0.6c-0.3-0.4-0.5-0.9-0.5-1.5
		c0-0.5,0.1-0.9,0.3-1.2c0.2-0.4,0.5-0.6,0.9-0.8c0.4-0.2,0.8-0.3,1.3-0.3c0.5,0,0.9,0.1,1.3,0.3l1.3-0.7l0.7,1.1l-1,0.5
		c0.2,0.3,0.3,0.7,0.3,1.1c0,0.5-0.1,0.9-0.4,1.3c-0.2,0.4-0.5,0.6-0.9,0.8c-0.4,0.2-0.8,0.3-1.3,0.3c-0.4,0-0.7-0.1-1-0.2
		c-0.2,0.1-0.3,0.3-0.3,0.5c0,0.2,0.1,0.3,0.2,0.4c0.1,0.1,0.3,0.1,0.5,0.1h1.4c0.8,0,1.4,0.2,1.8,0.5c0.4,0.4,0.7,0.9,0.7,1.5
		c0,0.6-0.2,1-0.5,1.4c-0.3,0.4-0.7,0.6-1.2,0.8C540.3,226.8,539.8,226.9,539.2,226.9z M539.2,220.1c0.3,0,0.5-0.1,0.7-0.3
		c0.2-0.2,0.3-0.4,0.3-0.7c0-0.3-0.1-0.5-0.3-0.7c-0.2-0.2-0.4-0.3-0.7-0.3c-0.3,0-0.5,0.1-0.7,0.3c-0.2,0.2-0.3,0.4-0.3,0.7
		c0,0.3,0.1,0.5,0.3,0.7C538.7,220,538.9,220.1,539.2,220.1z M539.2,225.4c0.4,0,0.8-0.1,1.1-0.2c0.3-0.1,0.4-0.4,0.4-0.7
		c0-0.3-0.1-0.5-0.3-0.6c-0.2-0.1-0.5-0.2-0.8-0.2h-1c-0.3,0-0.6,0-0.8-0.1c-0.1,0.2-0.2,0.4-0.2,0.6c0,0.3,0.1,0.6,0.4,0.7
		C538.3,225.3,538.7,225.4,539.2,225.4z M549.8,224c-1,0-1.7-0.3-2.3-1c-0.5-0.7-0.8-1.6-0.8-2.7c0-1.1,0.3-2,0.8-2.6
		c0.5-0.7,1.3-1,2.3-1c0.4,0,0.8,0.1,1.1,0.2c0.3,0.1,0.6,0.3,0.8,0.5V214h1.7v9.9h-1.7v-0.7c-0.1,0.2-0.3,0.4-0.7,0.6
		C550.7,224,550.3,224,549.8,224z M550.2,222.6c0.5,0,0.9-0.2,1.2-0.6c0.3-0.4,0.5-0.9,0.5-1.6c0-0.7-0.2-1.2-0.5-1.6
		c-0.3-0.4-0.7-0.6-1.2-0.6c-0.5,0-0.9,0.2-1.2,0.6c-0.3,0.4-0.5,0.9-0.5,1.6c0,0.7,0.2,1.2,0.5,1.6
		C549.3,222.4,549.7,222.6,550.2,222.6z M558.6,224c-0.7,0-1.4-0.2-1.9-0.5c-0.5-0.3-1-0.8-1.2-1.3c-0.3-0.6-0.4-1.2-0.4-1.9
		c0-0.7,0.1-1.3,0.4-1.9c0.3-0.6,0.7-1,1.2-1.3c0.5-0.3,1.2-0.5,1.9-0.5c0.7,0,1.4,0.2,1.9,0.5c0.5,0.3,1,0.8,1.2,1.3
		c0.3,0.6,0.4,1.2,0.4,1.9c0,0.7-0.1,1.3-0.4,1.9c-0.3,0.6-0.7,1-1.2,1.3C559.9,223.9,559.3,224,558.6,224z M558.6,222.6
		c0.5,0,1-0.2,1.3-0.6c0.3-0.4,0.5-0.9,0.5-1.5c0-0.6-0.2-1.1-0.5-1.5c-0.3-0.4-0.7-0.6-1.3-0.6c-0.5,0-1,0.2-1.3,0.6
		c-0.3,0.4-0.5,0.9-0.5,1.5c0,0.6,0.2,1.1,0.5,1.5C557.6,222.3,558,222.6,558.6,222.6z M567.2,216.9h1.7v1.1c0.3-0.4,0.6-0.7,1-0.9
		c0.4-0.2,0.8-0.3,1.2-0.3c0.7,0,1.2,0.2,1.6,0.5c0.4,0.4,0.6,0.9,0.6,1.6v5h-1.7v-4.5c0-0.4-0.1-0.7-0.3-0.9
		c-0.2-0.2-0.4-0.3-0.7-0.3c-0.3,0-0.6,0.1-0.8,0.3c-0.2,0.2-0.4,0.6-0.6,1c-0.1,0.4-0.2,0.9-0.2,1.5v2.8h-1.7V216.9z M578.4,224
		c-0.7,0-1.4-0.2-1.9-0.5c-0.5-0.3-1-0.8-1.2-1.3c-0.3-0.6-0.4-1.2-0.4-1.9c0-0.7,0.1-1.3,0.4-1.9c0.3-0.6,0.7-1,1.2-1.3
		c0.5-0.3,1.2-0.5,1.9-0.5c0.7,0,1.4,0.2,1.9,0.5c0.5,0.3,1,0.8,1.2,1.3c0.3,0.6,0.4,1.2,0.4,1.9c0,0.7-0.1,1.3-0.4,1.9
		c-0.3,0.6-0.7,1-1.2,1.3C579.8,223.9,579.2,224,578.4,224z M578.4,222.6c0.5,0,1-0.2,1.3-0.6c0.3-0.4,0.5-0.9,0.5-1.5
		c0-0.6-0.2-1.1-0.5-1.5c-0.3-0.4-0.7-0.6-1.3-0.6c-0.5,0-1,0.2-1.3,0.6c-0.3,0.4-0.5,0.9-0.5,1.5c0,0.6,0.2,1.1,0.5,1.5
		C577.5,222.3,577.9,222.6,578.4,222.6z M586.4,224c-0.8,0-1.4-0.2-1.9-0.7c-0.5-0.4-0.7-1.1-0.7-1.9v-3.1h-1.1v-1.5h1.1v-1.8
		l1.7-1.1v2.9h1.9v1.5h-1.9v3.1c0,0.4,0.1,0.7,0.2,0.9c0.2,0.2,0.4,0.3,0.7,0.3c0.2,0,0.5-0.1,0.7-0.2l0.4,1.4
		C587.1,224,586.8,224,586.4,224z M454.4,228h1.7v4c0.2-0.4,0.5-0.7,0.9-0.9c0.4-0.2,0.8-0.4,1.3-0.4c0.7,0,1.2,0.2,1.6,0.5
		c0.4,0.4,0.6,0.9,0.6,1.6v5h-1.7v-4.4c0-0.4-0.1-0.7-0.3-1c-0.2-0.2-0.4-0.3-0.8-0.3c-0.3,0-0.5,0.1-0.8,0.3
		c-0.3,0.2-0.5,0.5-0.6,0.9c-0.2,0.4-0.2,0.9-0.2,1.5v3h-1.7V228z M464.1,238c-0.6,0-1.1-0.2-1.5-0.6c-0.4-0.4-0.6-0.9-0.6-1.6
		c0-0.7,0.3-1.3,0.8-1.7c0.5-0.4,1.2-0.6,2.2-0.6h1.2v-0.3c0-0.3-0.1-0.6-0.4-0.8c-0.2-0.2-0.5-0.3-0.9-0.3c-0.6,0-1,0.3-1.2,0.8
		l-1.5-0.3c0.1-0.6,0.4-1.1,0.9-1.4c0.5-0.4,1.1-0.5,1.8-0.5c0.9,0,1.7,0.3,2.2,0.8c0.5,0.5,0.8,1.2,0.8,2.2v4.2h-1.4l-0.2-0.9
		C465.8,237.7,465,238,464.1,238z M464.6,236.6c0.4,0,0.8-0.1,1.1-0.4c0.3-0.3,0.5-0.6,0.5-1.1V235H465c-0.4,0-0.7,0.1-0.9,0.2
		c-0.2,0.1-0.3,0.4-0.3,0.7c0,0.2,0.1,0.4,0.2,0.5C464.2,236.5,464.4,236.6,464.6,236.6z M468.7,230.9h1.8l1.4,4.9l1.4-4.9h1.8
		l-2.4,7.1h-1.6L468.7,230.9z M479.1,238c-0.8,0-1.4-0.2-1.9-0.5c-0.5-0.4-0.9-0.8-1.1-1.4c-0.2-0.6-0.4-1.1-0.4-1.7
		c0-0.6,0.1-1.2,0.4-1.7c0.2-0.6,0.6-1,1.1-1.4c0.5-0.4,1.2-0.5,1.9-0.5c0.7,0,1.4,0.2,1.8,0.5c0.5,0.3,0.9,0.8,1.1,1.3
		s0.4,1.1,0.4,1.6v0.7h-4.9c0,0.4,0.2,0.8,0.5,1.1c0.3,0.3,0.7,0.5,1.2,0.5c0.4,0,0.7-0.1,1-0.3c0.3-0.2,0.5-0.5,0.7-0.8l1.4,0.5
		c-0.3,0.7-0.7,1.2-1.2,1.5C480.5,237.9,479.9,238,479.1,238z M480.6,233.6c-0.1-0.4-0.3-0.7-0.5-1c-0.2-0.3-0.6-0.4-1-0.4
		c-0.4,0-0.8,0.1-1,0.4c-0.3,0.3-0.4,0.6-0.5,1H480.6z M489.2,238c-0.6,0-1.1-0.2-1.5-0.6c-0.4-0.4-0.6-0.9-0.6-1.6
		c0-0.7,0.3-1.3,0.8-1.7c0.5-0.4,1.3-0.6,2.2-0.6h1.2v-0.3c0-0.3-0.1-0.6-0.4-0.8c-0.2-0.2-0.5-0.3-0.9-0.3c-0.6,0-1,0.3-1.2,0.8
		l-1.5-0.3c0.1-0.6,0.4-1.1,0.9-1.4c0.5-0.4,1.1-0.5,1.8-0.5c0.9,0,1.7,0.3,2.2,0.8c0.5,0.5,0.8,1.2,0.8,2.2v4.2h-1.4l-0.2-0.9
		C490.8,237.7,490.1,238,489.2,238z M489.6,236.6c0.4,0,0.8-0.1,1.1-0.4c0.3-0.3,0.5-0.6,0.5-1.1V235H490c-0.4,0-0.7,0.1-0.9,0.2
		c-0.2,0.1-0.3,0.4-0.3,0.7c0,0.2,0.1,0.4,0.2,0.5C489.2,236.5,489.4,236.6,489.6,236.6z M494.7,230.9h1.7v1.1
		c0.3-0.4,0.6-0.7,1-0.9c0.4-0.2,0.8-0.3,1.2-0.3c0.7,0,1.2,0.2,1.6,0.5c0.4,0.4,0.6,0.9,0.6,1.6v5h-1.7v-4.5c0-0.4-0.1-0.7-0.3-0.9
		c-0.2-0.2-0.4-0.3-0.7-0.3c-0.3,0-0.6,0.1-0.8,0.3c-0.2,0.2-0.4,0.6-0.6,1c-0.1,0.4-0.2,0.9-0.2,1.5v2.8h-1.7V230.9z M504.2,237.5
		l-2.6-6.6h1.8l1.6,4.4l1.5-4.4h1.7l-3.6,9.9h-1.7L504.2,237.5z M515.9,238c-0.7,0-1.4-0.2-1.9-0.5c-0.5-0.3-0.9-0.8-1.2-1.3
		c-0.3-0.6-0.4-1.2-0.4-1.8c0-0.7,0.1-1.3,0.4-1.8c0.3-0.6,0.6-1,1.2-1.3c0.5-0.3,1.2-0.5,1.9-0.5c0.8,0,1.4,0.2,2,0.5
		c0.6,0.3,1,0.8,1.2,1.5l-1.6,0.6c-0.2-0.4-0.4-0.7-0.7-0.9c-0.3-0.2-0.6-0.3-1-0.3c-0.5,0-0.9,0.2-1.2,0.6
		c-0.3,0.4-0.4,0.9-0.4,1.6s0.1,1.2,0.4,1.6c0.3,0.4,0.7,0.6,1.2,0.6c0.4,0,0.7-0.1,1-0.3c0.3-0.2,0.5-0.5,0.7-0.9l1.6,0.6
		c-0.3,0.7-0.7,1.2-1.2,1.5C517.4,237.9,516.7,238,515.9,238z M523.8,238c-0.7,0-1.4-0.2-1.9-0.5c-0.5-0.3-1-0.8-1.2-1.3
		c-0.3-0.6-0.4-1.2-0.4-1.9c0-0.7,0.1-1.3,0.4-1.9c0.3-0.6,0.7-1,1.2-1.3c0.5-0.3,1.2-0.5,1.9-0.5c0.7,0,1.4,0.2,1.9,0.5
		c0.5,0.3,1,0.8,1.2,1.3c0.3,0.6,0.4,1.2,0.4,1.9c0,0.7-0.1,1.3-0.4,1.9c-0.3,0.6-0.7,1-1.2,1.3C525.2,237.9,524.5,238,523.8,238z
		 M523.8,236.6c0.5,0,1-0.2,1.3-0.6c0.3-0.4,0.5-0.9,0.5-1.5c0-0.6-0.2-1.1-0.5-1.5c-0.3-0.4-0.7-0.6-1.3-0.6c-0.5,0-1,0.2-1.3,0.6
		c-0.3,0.4-0.5,0.9-0.5,1.5c0,0.6,0.2,1.1,0.5,1.5C522.8,236.3,523.2,236.6,523.8,236.6z M528.9,230.9h1.7v1.1
		c0.3-0.4,0.6-0.7,1-0.9s0.8-0.3,1.2-0.3c0.7,0,1.2,0.2,1.6,0.5c0.4,0.4,0.6,0.9,0.6,1.6v5h-1.7v-4.5c0-0.4-0.1-0.7-0.3-0.9
		c-0.2-0.2-0.4-0.3-0.7-0.3c-0.3,0-0.6,0.1-0.8,0.3c-0.2,0.2-0.4,0.6-0.6,1c-0.1,0.4-0.2,0.9-0.2,1.5v2.8h-1.7V230.9z M539.7,238
		c-0.8,0-1.4-0.2-1.9-0.7c-0.5-0.4-0.7-1.1-0.7-1.9v-3.1H536v-1.5h1.1v-1.8l1.7-1.1v2.9h1.9v1.5h-1.9v3.1c0,0.4,0.1,0.7,0.2,0.9
		c0.2,0.2,0.4,0.3,0.7,0.3c0.2,0,0.5-0.1,0.7-0.2l0.4,1.4C540.5,238,540.1,238,539.7,238z M544.7,238c-0.8,0-1.4-0.2-1.9-0.5
		c-0.5-0.4-0.9-0.8-1.1-1.4c-0.2-0.6-0.4-1.1-0.4-1.7c0-0.6,0.1-1.2,0.4-1.7c0.2-0.6,0.6-1,1.1-1.4c0.5-0.4,1.2-0.5,1.9-0.5
		c0.7,0,1.4,0.2,1.8,0.5c0.5,0.3,0.9,0.8,1.1,1.3c0.2,0.5,0.4,1.1,0.4,1.6v0.7h-4.9c0,0.4,0.2,0.8,0.5,1.1c0.3,0.3,0.7,0.5,1.2,0.5
		c0.4,0,0.7-0.1,1-0.3c0.3-0.2,0.5-0.5,0.7-0.8l1.4,0.5c-0.3,0.7-0.7,1.2-1.2,1.5C546.2,237.9,545.5,238,544.7,238z M546.2,233.6
		c-0.1-0.4-0.3-0.7-0.5-1c-0.2-0.3-0.6-0.4-1-0.4c-0.4,0-0.8,0.1-1,0.4c-0.3,0.3-0.4,0.6-0.5,1H546.2z M549.5,230.9h1.7v1.1
		c0.3-0.4,0.6-0.7,1-0.9c0.4-0.2,0.8-0.3,1.2-0.3c0.7,0,1.2,0.2,1.6,0.5c0.4,0.4,0.6,0.9,0.6,1.6v5h-1.7v-4.5c0-0.4-0.1-0.7-0.3-0.9
		c-0.2-0.2-0.4-0.3-0.7-0.3c-0.3,0-0.6,0.1-0.8,0.3c-0.2,0.2-0.4,0.6-0.6,1c-0.1,0.4-0.2,0.9-0.2,1.5v2.8h-1.7V230.9z M560.3,238
		c-0.8,0-1.4-0.2-1.9-0.7c-0.5-0.4-0.7-1.1-0.7-1.9v-3.1h-1.1v-1.5h1.1v-1.8l1.7-1.1v2.9h1.9v1.5h-1.9v3.1c0,0.4,0.1,0.7,0.2,0.9
		c0.2,0.2,0.4,0.3,0.7,0.3c0.2,0,0.5-0.1,0.7-0.2l0.4,1.4C561.1,238,560.7,238,560.3,238z M563.6,238c-0.3,0-0.6-0.1-0.8-0.3
		s-0.3-0.5-0.3-0.8s0.1-0.6,0.3-0.8s0.5-0.3,0.8-0.3s0.6,0.1,0.8,0.3s0.3,0.5,0.3,0.8s-0.1,0.6-0.3,0.8S564,238,563.6,238z"/>
	<path class="st3" d="M414.6,156.9l3.5-3.5l1.3,1.3l-3.5,3.5l3.5,3.5l-1.3,1.3l-3.5-3.5l-3.5,3.5l-1.3-1.3l3.5-3.5l-3.5-3.5l1.3-1.3
		L414.6,156.9z"/>
	<path class="st3" d="M430.8,228.8l3.5-3.5l1.3,1.3l-3.5,3.5l3.5,3.5l-1.3,1.3l-3.5-3.5l-3.5,3.5l-1.3-1.3l3.5-3.5l-3.5-3.5l1.3-1.3
		L430.8,228.8z"/>
	<path class="st1" d="M315.2,186.9l44.1-0.1c5.2,0,9.4-4.2,9.3-9.4l-0.1-9.8c0-5.2,4.1-9.4,9.3-9.4h23.6"/>
	<path class="st1" d="M417.5,230.1H315"/>
	<path class="st4" d="M309.7,155.5c3.2,0,5.8-2.6,5.8-5.8c0-3.2-2.6-5.8-5.8-5.8c-3.2,0-5.8,2.6-5.8,5.8
		C304,153,306.5,155.5,309.7,155.5z"/>
	<path class="st4" d="M309.7,192.3c3.2,0,5.8-2.6,5.8-5.8c0-3.2-2.6-5.8-5.8-5.8c-3.2,0-5.8,2.6-5.8,5.8
		C304,189.7,306.5,192.3,309.7,192.3z"/>
	<path class="st4" d="M309.7,235.9c3.2,0,5.8-2.6,5.8-5.8c0-3.2-2.6-5.8-5.8-5.8c-3.2,0-5.8,2.6-5.8,5.8
		C304,233.3,306.5,235.9,309.7,235.9z"/>
	<path class="st5" d="M52,158h-15c-4.9,0-9-4.1-9-9s4-9,9-9h15c4.9,0,9,4.1,9,9S56.9,158,52,158z"/>
	<path class="st0" d="M38.9,143.6h1.6v3.2h3.4v-3.2h1.6v8.4h-1.6v-3.8h-3.4v3.8h-1.6V143.6z M48.5,145.7l-1.6,1V145l2.5-1.4H50v8.4
		h-1.5V145.7z"/>
	<path class="st5" d="M86.8,197h-15c-4.9,0-9-4.1-9-9s4.1-9,9-9h15c5,0,9,4.1,9,9C95.8,192.9,91.7,197,86.8,197z"/>
	<path class="st0" d="M73.7,182.6h1.6v3.2h3.4v-3.2h1.6v8.4h-1.6v-3.8h-3.4v3.8h-1.6V182.6z M81.4,190.4l3-3.9
		c0.2-0.3,0.4-0.6,0.5-0.8s0.1-0.5,0.1-0.7c0-0.3-0.1-0.6-0.3-0.8c-0.2-0.2-0.4-0.3-0.8-0.3c-0.3,0-0.6,0.1-0.7,0.3
		c-0.2,0.2-0.3,0.5-0.3,0.8l-1.4-0.3c0-0.4,0.1-0.8,0.4-1.1c0.2-0.3,0.5-0.6,0.9-0.8c0.4-0.2,0.8-0.3,1.2-0.3c0.8,0,1.4,0.2,1.8,0.7
		c0.4,0.4,0.7,1,0.7,1.8c0,0.7-0.2,1.4-0.7,2l-2.1,2.7h3v1.4h-5.3V190.4z"/>
	<path class="st5" d="M122.7,234h-15c-4.9,0-9-4.1-9-9s4.1-9,9-9h15c5,0,9,4.1,9,9C131.8,229.9,127.7,234,122.7,234z"/>
	<path class="st0" d="M108.7,219.6h1.6v3.2h3.4v-3.2h1.6v8.4h-1.6v-3.8h-3.4v3.8h-1.6V219.6z M119.4,228.1c-0.5,0-1-0.1-1.4-0.3
		c-0.4-0.2-0.7-0.5-1-0.9c-0.2-0.4-0.4-0.8-0.4-1.2l1.5-0.2c0.2,0.8,0.7,1.2,1.4,1.2c0.4,0,0.7-0.1,1-0.4c0.2-0.3,0.4-0.6,0.4-1
		c0-0.5-0.1-0.8-0.4-1.1c-0.2-0.3-0.6-0.4-0.9-0.4c-0.3,0-0.5,0.1-0.7,0.2l-0.6-0.8l1.6-2.2H117v-1.4h4.8v0.5l-2,2.7
		c0.1,0,0.3,0,0.3,0c0.6,0,1.1,0.2,1.5,0.7c0.4,0.5,0.6,1.1,0.6,1.8c0,0.6-0.1,1.1-0.4,1.5c-0.2,0.4-0.6,0.8-1,1
		C120.4,228,120,228.1,119.4,228.1z"/>
	<path class="st5" d="M121.3,273h-15c-4.9,0-9-4-9-9s4.1-9,9-9h15c5,0,9,4,9,9S126.2,273,121.3,273z"/>
	<path class="st0" d="M107.2,258.6h1.6v3.2h3.4v-3.2h1.6v8.4h-1.6v-3.8h-3.4v3.8h-1.6V258.6z M117.9,267.1c-0.5,0-1-0.1-1.4-0.3
		s-0.7-0.5-1-0.9c-0.2-0.4-0.4-0.8-0.4-1.2l1.5-0.2c0.2,0.8,0.7,1.2,1.4,1.2c0.4,0,0.7-0.1,1-0.4c0.2-0.3,0.4-0.6,0.4-1
		c0-0.5-0.1-0.8-0.4-1.1c-0.2-0.3-0.6-0.4-0.9-0.4c-0.3,0-0.5,0.1-0.7,0.2l-0.6-0.8l1.6-2.2h-2.7v-1.4h4.8v0.5l-2,2.7
		c0.1,0,0.3,0,0.3,0c0.6,0,1.1,0.2,1.5,0.7c0.4,0.5,0.6,1.1,0.6,1.8c0,0.6-0.1,1.1-0.4,1.5c-0.2,0.4-0.6,0.8-1,1
		C119,267,118.5,267.1,117.9,267.1z"/>
	<path class="st5" d="M122.7,310h-15c-4.9,0-9-4-9-9s4.1-9,9-9h15c5,0,9,4,9,9C131.8,306,127.7,310,122.7,310z"/>
	<path class="st0" d="M108.7,295.6h1.6v3.2h3.4v-3.2h1.6v8.4h-1.6v-3.8h-3.4v3.8h-1.6V295.6z M119.4,304.1c-0.5,0-1-0.1-1.4-0.3
		c-0.4-0.2-0.7-0.5-1-0.9c-0.2-0.4-0.4-0.8-0.4-1.2l1.5-0.2c0.2,0.8,0.7,1.2,1.4,1.2c0.4,0,0.7-0.1,1-0.4c0.2-0.3,0.4-0.6,0.4-1
		c0-0.5-0.1-0.8-0.4-1.1c-0.2-0.3-0.6-0.4-0.9-0.4c-0.3,0-0.5,0.1-0.7,0.2l-0.6-0.8l1.6-2.2H117v-1.4h4.8v0.5l-2,2.7
		c0.1,0,0.3,0,0.3,0c0.6,0,1.1,0.2,1.5,0.7c0.4,0.5,0.6,1.1,0.6,1.8c0,0.6-0.1,1.1-0.4,1.5c-0.2,0.4-0.6,0.8-1,1
		C120.4,304,120,304.1,119.4,304.1z"/>
	<path class="st5" d="M157.8,351h-15c-5,0-9-4-9-9s4-9,9-9h15c4.9,0,9,4,9,9C166.8,346.9,162.8,351,157.8,351z"/>
	<path class="st0" d="M143.6,336.6h1.6v3.2h3.4v-3.2h1.6v8.4h-1.6v-3.8h-3.4v3.8h-1.6V336.6z M155.2,343.4h-3.6v-0.8l3.5-6.1h1.6
		v5.4h0.9v1.4h-0.9v1.6h-1.5V343.4z M155.2,342v-3.2l-1.8,3.2H155.2z"/>
	<path class="st1" d="M45.9,160.4L45.7,182c0,3.7,2.9,6.7,6.6,6.7h7.3"/>
	<path class="st1" d="M80,199.5l-0.2,21.6c0,3.7,2.9,6.7,6.6,6.7h7.3"/>
	<path class="st1" d="M79.5,230.7l-0.2,26.6c0,3.7,2.9,6.7,6.6,6.7h7.3"/>
	<path class="st1" d="M79.5,268l-0.2,26.6c0,3.7,2.9,6.7,6.6,6.7h7.3"/>
	<path class="st1" d="M45.9,199.5l-0.2,133.1c0,3.7,2.9,6.7,6.6,6.7h7.3"/>
	<path class="st1" d="M114.1,313.8l-0.2,21.6c0,3.7,2.9,6.7,6.6,6.7h7.3"/>
	<path class="st5" d="M86.8,348h-15c-4.9,0-9-4-9-9s4.1-9,9-9h15c5,0,9,4,9,9C95.8,344,91.7,348,86.8,348z"/>
	<path class="st0" d="M73.7,333.6h1.6v3.2h3.4v-3.2h1.6v8.4h-1.6v-3.8h-3.4v3.8h-1.6V333.6z M81.4,341.4l3-3.9
		c0.2-0.3,0.4-0.6,0.5-0.8s0.1-0.5,0.1-0.7c0-0.3-0.1-0.6-0.3-0.8c-0.2-0.2-0.4-0.3-0.8-0.3c-0.3,0-0.6,0.1-0.7,0.3
		c-0.2,0.2-0.3,0.5-0.3,0.8l-1.4-0.3c0-0.4,0.1-0.8,0.4-1.1s0.5-0.6,0.9-0.8c0.4-0.2,0.8-0.3,1.2-0.3c0.8,0,1.4,0.2,1.8,0.7
		c0.4,0.4,0.7,1,0.7,1.8c0,0.7-0.2,1.4-0.7,2l-2.1,2.7h3v1.4h-5.3V341.4z"/>
	<path class="st5" d="M122,386h-15c-4.9,0-9-4-9-9s4.1-9,9-9h15c4.9,0,9,4,9,9C131,381.9,127,386,122,386z"/>
	<path class="st0" d="M107.9,371.6h1.6v3.2h3.4v-3.2h1.6v8.4h-1.6v-3.8h-3.4v3.8h-1.6V371.6z M118.7,380.1c-0.5,0-1-0.1-1.4-0.3
		s-0.7-0.5-1-0.9c-0.2-0.4-0.4-0.8-0.4-1.2l1.5-0.2c0.2,0.8,0.7,1.2,1.4,1.2c0.4,0,0.7-0.1,1-0.4c0.2-0.3,0.4-0.6,0.4-1
		c0-0.5-0.1-0.8-0.4-1.1c-0.2-0.3-0.6-0.4-0.9-0.4c-0.3,0-0.5,0.1-0.7,0.2l-0.6-0.8l1.6-2.2h-2.7v-1.4h4.8v0.5l-2,2.7
		c0.1,0,0.3,0,0.3,0c0.6,0,1.1,0.2,1.5,0.7c0.4,0.5,0.6,1.1,0.6,1.8c0,0.6-0.1,1.1-0.4,1.5c-0.2,0.4-0.6,0.8-1,1
		C119.7,380,119.2,380.1,118.7,380.1z"/>
	<path class="st5" d="M120.5,424h-15c-5,0-9-4-9-9s4.1-9,9-9h15c4.9,0,9,4,9,9S125.5,424,120.5,424z"/>
	<path class="st0" d="M106.5,409.6h1.6v3.2h3.4v-3.2h1.6v8.4h-1.6v-3.8H108v3.8h-1.6V409.6z M117.2,418.1c-0.5,0-1-0.1-1.4-0.3
		c-0.4-0.2-0.7-0.5-1-0.9c-0.2-0.4-0.4-0.8-0.4-1.2l1.5-0.2c0.2,0.8,0.7,1.2,1.4,1.2c0.4,0,0.7-0.1,1-0.4c0.2-0.3,0.4-0.6,0.4-1
		c0-0.5-0.1-0.8-0.4-1.1c-0.2-0.3-0.6-0.4-0.9-0.4c-0.3,0-0.5,0.1-0.7,0.2l-0.6-0.8l1.6-2.2h-2.7v-1.4h4.8v0.5l-2,2.7
		c0.1,0,0.3,0,0.3,0c0.6,0,1.1,0.2,1.5,0.7c0.4,0.5,0.6,1.1,0.6,1.8c0,0.6-0.1,1.1-0.4,1.5c-0.2,0.4-0.6,0.8-1,1
		C118.2,418,117.8,418.1,117.2,418.1z"/>
	<path class="st1" d="M79.3,350.6l-0.2,21.6c0,3.7,2.9,6.7,6.6,6.7H93"/>
	<path class="st1" d="M78.7,381.8l-0.2,26.6c0,3.7,2.9,6.7,6.6,6.7h7.3"/>
	<path class="st2" d="M195.7,197h-36.5c-4.9,0-9-4.1-9-9s4.1-9,9-9h36.5c4.9,0,9,4.1,9,9S200.7,197,195.7,197z"/>
	<path class="st0" d="M162,184h1.5l1.6,4.4l1.7-4.4h1.5v7H167v-4.3l-1.3,3.7h-0.9l-1.3-3.7v4.3H162V184z M170.4,185.3
		c-0.2,0-0.4-0.1-0.6-0.2c-0.2-0.2-0.2-0.3-0.2-0.6c0-0.2,0.1-0.4,0.2-0.6c0.2-0.2,0.3-0.2,0.6-0.2c0.2,0,0.4,0.1,0.6,0.2
		c0.2,0.2,0.2,0.3,0.2,0.6c0,0.2-0.1,0.4-0.2,0.6C170.8,185.2,170.6,185.3,170.4,185.3z M169.8,186h1.2v5h-1.2V186z M173.9,191.1
		c-0.5,0-1-0.1-1.3-0.4c-0.3-0.3-0.6-0.6-0.7-1l1-0.5c0.1,0.3,0.2,0.5,0.4,0.6c0.2,0.1,0.4,0.2,0.6,0.2c0.2,0,0.3,0,0.4-0.1
		c0.1-0.1,0.2-0.2,0.2-0.4c0-0.2-0.1-0.3-0.2-0.4c-0.1-0.1-0.4-0.2-0.7-0.3c0,0-0.1,0-0.2-0.1c-0.4-0.2-0.7-0.3-0.9-0.6
		c-0.2-0.2-0.3-0.5-0.3-0.9c0-0.3,0.1-0.5,0.2-0.7s0.3-0.4,0.6-0.5c0.2-0.1,0.5-0.2,0.8-0.2c0.3,0,0.6,0.1,0.9,0.2
		c0.3,0.1,0.5,0.3,0.6,0.6l-0.7,0.7c-0.2-0.3-0.5-0.4-0.8-0.4c-0.1,0-0.2,0-0.3,0.1c-0.1,0.1-0.1,0.2-0.1,0.3c0,0.1,0.1,0.2,0.2,0.3
		c0.1,0.1,0.4,0.2,0.8,0.4c0.4,0.1,0.7,0.3,0.9,0.6c0.2,0.2,0.3,0.5,0.3,0.9c0,0.5-0.2,0.9-0.5,1.2
		C174.9,190.9,174.4,191.1,173.9,191.1z M178.3,191.1c-0.5,0-1-0.1-1.3-0.4c-0.3-0.3-0.6-0.6-0.7-1l1-0.5c0.1,0.3,0.2,0.5,0.4,0.6
		c0.2,0.1,0.4,0.2,0.6,0.2c0.2,0,0.3,0,0.4-0.1c0.1-0.1,0.2-0.2,0.2-0.4c0-0.2-0.1-0.3-0.2-0.4c-0.1-0.1-0.4-0.2-0.7-0.3
		c0,0-0.1,0-0.2-0.1c-0.4-0.2-0.7-0.3-0.9-0.6c-0.2-0.2-0.3-0.5-0.3-0.9c0-0.3,0.1-0.5,0.2-0.7s0.3-0.4,0.6-0.5
		c0.2-0.1,0.5-0.2,0.8-0.2c0.3,0,0.6,0.1,0.9,0.2c0.3,0.1,0.5,0.3,0.7,0.6l-0.7,0.7c-0.2-0.3-0.5-0.4-0.8-0.4c-0.1,0-0.2,0-0.4,0.1
		c-0.1,0.1-0.1,0.2-0.1,0.3c0,0.1,0.1,0.2,0.2,0.3c0.1,0.1,0.4,0.2,0.8,0.4c0.4,0.1,0.7,0.3,0.9,0.6c0.2,0.2,0.3,0.5,0.3,0.9
		c0,0.5-0.2,0.9-0.5,1.2C179.2,190.9,178.8,191.1,178.3,191.1z M181.8,185.3c-0.2,0-0.4-0.1-0.6-0.2c-0.2-0.2-0.2-0.3-0.2-0.6
		c0-0.2,0.1-0.4,0.2-0.6c0.2-0.2,0.3-0.2,0.6-0.2c0.2,0,0.4,0.1,0.6,0.2c0.2,0.2,0.2,0.3,0.2,0.6c0,0.2-0.1,0.4-0.2,0.6
		C182.2,185.2,182,185.3,181.8,185.3z M181.1,186h1.2v5h-1.2V186z M183.7,186h1.2v0.8c0.2-0.3,0.4-0.5,0.7-0.7
		c0.3-0.2,0.6-0.2,0.9-0.2c0.5,0,0.8,0.1,1.1,0.4c0.3,0.3,0.4,0.6,0.4,1.1v3.6h-1.2v-3.2c0-0.3-0.1-0.5-0.2-0.6
		c-0.1-0.1-0.3-0.2-0.5-0.2c-0.2,0-0.4,0.1-0.6,0.2c-0.2,0.2-0.3,0.4-0.4,0.7c-0.1,0.3-0.2,0.7-0.2,1.1v2h-1.2V186z M191.2,193.1
		c-0.7,0-1.2-0.1-1.7-0.4c-0.4-0.3-0.6-0.7-0.6-1.2c0-0.4,0.1-0.7,0.4-1c-0.2-0.2-0.3-0.5-0.3-0.8c0-0.2,0.1-0.4,0.2-0.6
		c0.1-0.2,0.3-0.3,0.5-0.4c-0.2-0.3-0.3-0.6-0.3-1c0-0.3,0.1-0.6,0.2-0.9c0.2-0.3,0.4-0.5,0.7-0.6c0.3-0.1,0.6-0.2,0.9-0.2
		c0.3,0,0.6,0.1,0.9,0.2l0.9-0.5l0.5,0.8l-0.7,0.4c0.1,0.2,0.2,0.5,0.2,0.8c0,0.3-0.1,0.6-0.2,0.9c-0.2,0.3-0.4,0.4-0.7,0.6
		c-0.3,0.1-0.6,0.2-0.9,0.2c-0.3,0-0.5,0-0.7-0.1c-0.2,0.1-0.2,0.2-0.2,0.4c0,0.1,0,0.2,0.1,0.3c0.1,0.1,0.2,0.1,0.3,0.1h1
		c0.5,0,1,0.1,1.3,0.4c0.3,0.3,0.5,0.6,0.5,1.1c0,0.4-0.1,0.7-0.3,1c-0.2,0.3-0.5,0.4-0.8,0.6C192,193.1,191.6,193.1,191.2,193.1z
		 M191.2,188.3c0.2,0,0.4-0.1,0.5-0.2c0.1-0.1,0.2-0.3,0.2-0.5c0-0.2-0.1-0.4-0.2-0.5c-0.1-0.1-0.3-0.2-0.5-0.2
		c-0.2,0-0.4,0.1-0.5,0.2c-0.1,0.1-0.2,0.3-0.2,0.5c0,0.2,0.1,0.4,0.2,0.5C190.9,188.2,191,188.3,191.2,188.3z M191.2,192.1
		c0.3,0,0.6-0.1,0.8-0.2c0.2-0.1,0.3-0.3,0.3-0.5c0-0.2-0.1-0.3-0.2-0.4c-0.1-0.1-0.3-0.1-0.6-0.1h-0.7c-0.2,0-0.4,0-0.6,0
		c-0.1,0.1-0.1,0.3-0.1,0.5c0,0.2,0.1,0.4,0.3,0.5C190.6,192,190.9,192.1,191.2,192.1z"/>
	<path class="st3" d="M236.8,234h-77.6c-4.9,0-9-4.1-9-9s4.1-9,9-9h77.6c4.9,0,9,4.1,9,9S241.7,234,236.8,234z"/>
	<path class="st0" d="M165.3,221h4.3v1.2h-3v1.5h2.4v1.2h-2.4v1.9h3.1v1.2h-4.4V221z M170.8,223h1.2v0.8c0.2-0.3,0.4-0.5,0.6-0.7
		c0.2-0.2,0.5-0.2,0.8-0.2c0.3,0,0.6,0.1,0.9,0.3c0.3,0.2,0.4,0.4,0.5,0.8c0.2-0.3,0.4-0.6,0.7-0.8c0.3-0.2,0.6-0.3,0.9-0.3
		c0.5,0,0.8,0.1,1.1,0.4c0.3,0.3,0.4,0.7,0.4,1.1v3.6h-1.2v-3.4c0-0.5-0.2-0.7-0.6-0.7c-0.3,0-0.6,0.2-0.8,0.5
		c-0.2,0.4-0.3,0.9-0.3,1.6v2h-1.2v-3.4c0-0.5-0.2-0.7-0.6-0.7c-0.3,0-0.6,0.2-0.8,0.6c-0.2,0.4-0.3,0.9-0.3,1.6v1.9h-1.2V223z
		 M179.3,223h1.2v0.5c0.1-0.1,0.2-0.3,0.4-0.4c0.2-0.1,0.5-0.2,0.8-0.2c0.7,0,1.3,0.2,1.7,0.7c0.4,0.5,0.6,1.1,0.6,1.9
		s-0.2,1.4-0.6,1.9c-0.4,0.5-1,0.7-1.7,0.7c-0.2,0-0.5-0.1-0.7-0.2c-0.2-0.1-0.4-0.2-0.5-0.4v2.5h-1.2V223z M181.6,227
		c0.3,0,0.6-0.1,0.8-0.4s0.3-0.6,0.3-1.1c0-0.5-0.1-0.9-0.3-1.1c-0.2-0.3-0.5-0.4-0.8-0.4s-0.6,0.1-0.8,0.4
		c-0.2,0.3-0.3,0.6-0.3,1.1s0.1,0.9,0.3,1.1C181,226.9,181.3,227,181.6,227z M187.2,228.1c-0.6,0-1-0.2-1.4-0.5
		c-0.3-0.3-0.5-0.8-0.5-1.4V224h-0.8V223h0.8v-1.3l1.2-0.8v2h1.3v1.1h-1.3v2.2c0,0.3,0.1,0.5,0.2,0.6c0.1,0.1,0.3,0.2,0.5,0.2
		c0.2,0,0.3,0,0.5-0.1l0.3,1C187.8,228,187.5,228.1,187.2,228.1z M190.2,227.7l-1.8-4.7h1.2l1.2,3.2l1.1-3.2h1.2l-2.6,7.1h-1.2
		L190.2,227.7z M196.4,220.9h1.2v2.9c0.2-0.3,0.4-0.5,0.7-0.6c0.3-0.2,0.6-0.2,0.9-0.2c0.5,0,0.9,0.1,1.1,0.4
		c0.3,0.3,0.4,0.6,0.4,1.1v3.6h-1.2v-3.2c0-0.3-0.1-0.5-0.2-0.7c-0.1-0.1-0.3-0.2-0.6-0.2c-0.2,0-0.4,0.1-0.6,0.2
		c-0.2,0.1-0.3,0.4-0.4,0.6c-0.1,0.3-0.2,0.6-0.2,1.1v2.1h-1.2V220.9z M204.4,228.1c-0.5,0-1-0.1-1.4-0.4c-0.4-0.3-0.6-0.6-0.8-1
		c-0.2-0.4-0.2-0.8-0.2-1.2s0.1-0.8,0.2-1.2c0.2-0.4,0.4-0.7,0.8-1c0.4-0.3,0.8-0.4,1.4-0.4c0.5,0,1,0.1,1.3,0.4
		c0.4,0.2,0.6,0.6,0.8,0.9c0.2,0.4,0.2,0.8,0.2,1.2v0.5h-3.5c0,0.3,0.1,0.6,0.3,0.8c0.2,0.2,0.5,0.3,0.9,0.3c0.3,0,0.5-0.1,0.7-0.2
		c0.2-0.1,0.4-0.3,0.5-0.6l1,0.4c-0.2,0.5-0.5,0.8-0.9,1.1C205.4,228,204.9,228.1,204.4,228.1z M205.4,224.9
		c-0.1-0.3-0.2-0.5-0.4-0.7c-0.2-0.2-0.4-0.3-0.7-0.3c-0.3,0-0.5,0.1-0.7,0.3c-0.2,0.2-0.3,0.4-0.4,0.7H205.4z M209.1,228.1
		c-0.4,0-0.8-0.1-1.1-0.4c-0.3-0.3-0.4-0.6-0.4-1.1c0-0.5,0.2-0.9,0.6-1.2c0.4-0.3,0.9-0.5,1.5-0.5h0.9v-0.2c0-0.2-0.1-0.4-0.2-0.5
		c-0.2-0.1-0.4-0.2-0.6-0.2c-0.4,0-0.7,0.2-0.9,0.6l-1.1-0.2c0.1-0.4,0.3-0.8,0.6-1c0.4-0.3,0.8-0.4,1.3-0.4c0.7,0,1.2,0.2,1.6,0.5
		c0.4,0.4,0.6,0.9,0.6,1.6v3h-1l-0.1-0.6C210.2,227.8,209.7,228.1,209.1,228.1z M209.4,227c0.3,0,0.6-0.1,0.8-0.3
		c0.2-0.2,0.3-0.4,0.3-0.8v-0.1h-0.8c-0.3,0-0.5,0.1-0.6,0.2c-0.1,0.1-0.2,0.3-0.2,0.5c0,0.1,0.1,0.3,0.1,0.4
		C209.1,227,209.2,227,209.4,227z M215,228.1c-0.7,0-1.2-0.2-1.6-0.7c-0.4-0.5-0.6-1.1-0.6-1.9s0.2-1.4,0.6-1.9
		c0.4-0.5,0.9-0.7,1.6-0.7c0.3,0,0.5,0.1,0.8,0.2c0.2,0.1,0.4,0.2,0.5,0.4v-2.5h1.2v7.1h-1.2v-0.5c-0.1,0.2-0.2,0.3-0.5,0.4
		C215.6,228,215.3,228.1,215,228.1z M215.3,227c0.3,0,0.6-0.1,0.8-0.4c0.2-0.3,0.3-0.7,0.3-1.1s-0.1-0.9-0.3-1.1
		c-0.2-0.3-0.5-0.4-0.8-0.4c-0.3,0-0.6,0.1-0.8,0.4c-0.2,0.3-0.3,0.6-0.3,1.1c0,0.5,0.1,0.9,0.3,1.1S214.9,227,215.3,227z
		 M219.6,222.3c-0.2,0-0.4-0.1-0.6-0.2c-0.2-0.2-0.2-0.3-0.2-0.6c0-0.2,0.1-0.4,0.2-0.6c0.2-0.2,0.3-0.2,0.6-0.2
		c0.2,0,0.4,0.1,0.6,0.2c0.2,0.2,0.2,0.3,0.2,0.6c0,0.2-0.1,0.4-0.2,0.6C220,222.2,219.8,222.3,219.6,222.3z M218.9,223h1.2v5h-1.2
		V223z M221.5,223h1.2v0.8c0.2-0.3,0.4-0.5,0.7-0.7c0.3-0.2,0.6-0.2,0.9-0.2c0.5,0,0.8,0.1,1.1,0.4c0.3,0.3,0.4,0.6,0.4,1.1v3.6
		h-1.2v-3.2c0-0.3-0.1-0.5-0.2-0.6c-0.1-0.1-0.3-0.2-0.5-0.2c-0.2,0-0.4,0.1-0.6,0.2c-0.2,0.2-0.3,0.4-0.4,0.7
		c-0.1,0.3-0.2,0.7-0.2,1.1v2h-1.2V223z M229.1,230.1c-0.7,0-1.2-0.1-1.6-0.4c-0.4-0.3-0.6-0.7-0.6-1.2c0-0.4,0.1-0.7,0.4-1
		c-0.2-0.2-0.3-0.5-0.3-0.8c0-0.2,0.1-0.4,0.2-0.6c0.1-0.2,0.3-0.3,0.5-0.4c-0.2-0.3-0.4-0.6-0.4-1c0-0.3,0.1-0.6,0.2-0.9
		c0.2-0.3,0.4-0.5,0.7-0.6c0.3-0.1,0.6-0.2,0.9-0.2c0.3,0,0.6,0.1,0.9,0.2l0.9-0.5l0.5,0.8l-0.7,0.4c0.1,0.2,0.2,0.5,0.2,0.8
		c0,0.3-0.1,0.6-0.2,0.9c-0.2,0.3-0.4,0.4-0.7,0.6c-0.3,0.1-0.6,0.2-0.9,0.2c-0.3,0-0.5,0-0.7-0.1c-0.2,0.1-0.2,0.2-0.2,0.4
		c0,0.1,0,0.2,0.1,0.3c0.1,0.1,0.2,0.1,0.4,0.1h1c0.5,0,1,0.1,1.3,0.4c0.3,0.3,0.5,0.6,0.5,1.1c0,0.4-0.1,0.7-0.3,1
		c-0.2,0.3-0.5,0.4-0.8,0.6C229.8,230.1,229.5,230.1,229.1,230.1z M229,225.3c0.2,0,0.4-0.1,0.5-0.2c0.1-0.1,0.2-0.3,0.2-0.5
		c0-0.2-0.1-0.4-0.2-0.5c-0.1-0.1-0.3-0.2-0.5-0.2s-0.4,0.1-0.5,0.2c-0.1,0.1-0.2,0.3-0.2,0.5c0,0.2,0.1,0.4,0.2,0.5
		C228.7,225.2,228.8,225.3,229,225.3z M229.1,229.1c0.3,0,0.6-0.1,0.8-0.2c0.2-0.1,0.3-0.3,0.3-0.5c0-0.2-0.1-0.3-0.2-0.4
		c-0.1-0.1-0.3-0.1-0.6-0.1h-0.7c-0.2,0-0.4,0-0.6,0c-0.1,0.1-0.1,0.3-0.1,0.5c0,0.2,0.1,0.4,0.3,0.5
		C228.4,229,228.7,229.1,229.1,229.1z"/>
	<path d="M31.1,27.3h2.5v5.1h5.3v-5.1h2.5v13.3h-2.5v-6h-5.3v6h-2.5V27.3z M48.3,40.8c-1,0-1.9-0.2-2.6-0.7
		c-0.7-0.5-1.2-1.1-1.5-1.9c-0.3-0.8-0.5-1.5-0.5-2.4c0-0.8,0.2-1.6,0.5-2.3c0.3-0.8,0.8-1.4,1.5-1.9c0.7-0.5,1.6-0.7,2.6-0.7
		c1,0,1.8,0.2,2.5,0.7c0.7,0.5,1.2,1.1,1.5,1.8s0.5,1.5,0.5,2.2v1h-6.6c0,0.6,0.2,1.1,0.6,1.5c0.4,0.4,1,0.6,1.6,0.6
		c0.5,0,1-0.1,1.3-0.4c0.4-0.2,0.7-0.6,1-1.1l1.9,0.7c-0.4,0.9-0.9,1.6-1.7,2.1C50.3,40.5,49.4,40.8,48.3,40.8z M50.3,34.7
		c-0.1-0.5-0.3-1-0.7-1.3c-0.3-0.3-0.8-0.5-1.4-0.5c-0.6,0-1,0.2-1.4,0.5c-0.4,0.4-0.6,0.8-0.7,1.3H50.3z M57.2,40.8
		c-0.8,0-1.5-0.3-2.1-0.8c-0.5-0.5-0.8-1.2-0.8-2.1c0-1,0.4-1.7,1.1-2.3c0.7-0.6,1.7-0.9,2.9-0.9H60v-0.4c0-0.5-0.2-0.8-0.5-1
		c-0.3-0.2-0.7-0.4-1.2-0.4c-0.8,0-1.4,0.4-1.7,1.1l-2-0.5c0.2-0.8,0.6-1.4,1.2-1.9c0.7-0.5,1.5-0.7,2.4-0.7c1.3,0,2.3,0.3,3,1
		c0.7,0.7,1.1,1.7,1.1,3v5.7h-1.9l-0.2-1.2C59.4,40.3,58.4,40.8,57.2,40.8z M57.8,38.7c0.6,0,1.1-0.2,1.5-0.5
		c0.4-0.4,0.6-0.8,0.6-1.4v-0.2h-1.6c-0.5,0-0.9,0.1-1.2,0.3c-0.3,0.2-0.4,0.5-0.4,0.9c0,0.3,0.1,0.5,0.3,0.7
		C57.2,38.7,57.5,38.7,57.8,38.7z M68.4,40.8c-1.3,0-2.4-0.4-3.1-1.3c-0.7-0.9-1.1-2.1-1.1-3.6c0-1.5,0.4-2.7,1.1-3.6
		c0.7-0.9,1.8-1.3,3.1-1.3c0.5,0,1,0.1,1.5,0.3c0.5,0.2,0.8,0.4,1,0.7v-4.8h2.4v13.5h-2.4v-1c-0.2,0.3-0.5,0.6-0.9,0.8
		C69.6,40.6,69.1,40.8,68.4,40.8z M69,38.7c0.6,0,1.2-0.3,1.6-0.8c0.4-0.5,0.6-1.2,0.6-2.2c0-0.9-0.2-1.6-0.6-2.1
		c-0.4-0.5-0.9-0.8-1.6-0.8c-0.6,0-1.2,0.3-1.6,0.8c-0.4,0.5-0.6,1.2-0.6,2.1c0,0.9,0.2,1.6,0.6,2.1C67.8,38.5,68.3,38.7,69,38.7z
		 M77.1,29.8c-0.4,0-0.8-0.1-1.1-0.4c-0.3-0.3-0.4-0.7-0.4-1.1c0-0.4,0.1-0.8,0.4-1.1c0.3-0.3,0.7-0.4,1.1-0.4
		c0.4,0,0.8,0.1,1.1,0.4c0.3,0.3,0.4,0.7,0.4,1.1c0,0.4-0.1,0.8-0.4,1.1C77.9,29.6,77.6,29.8,77.1,29.8z M76,31h2.4v9.6H76V31z
		 M80.9,31h2.4v1.5c0.4-0.5,0.8-0.9,1.3-1.2c0.5-0.3,1.1-0.5,1.7-0.5c0.9,0,1.6,0.2,2.1,0.7c0.5,0.5,0.8,1.2,0.8,2.1v6.8h-2.4v-6.1
		c0-0.5-0.1-0.9-0.4-1.2c-0.2-0.3-0.6-0.4-1-0.4c-0.4,0-0.8,0.2-1.1,0.5c-0.3,0.3-0.6,0.8-0.8,1.3c-0.2,0.6-0.3,1.3-0.3,2.1v3.8
		h-2.4V31z M95.2,44.6c-1.3,0-2.3-0.3-3.1-0.8c-0.8-0.5-1.2-1.3-1.2-2.3c0-0.8,0.3-1.4,0.8-1.9c-0.3-0.4-0.5-0.9-0.5-1.5
		c0-0.4,0.1-0.8,0.3-1.2c0.2-0.3,0.5-0.6,0.9-0.8c-0.4-0.5-0.7-1.2-0.7-2c0-0.6,0.2-1.2,0.5-1.7c0.3-0.5,0.7-0.9,1.3-1.1
		c0.5-0.3,1.1-0.4,1.8-0.4c0.6,0,1.2,0.1,1.8,0.4l1.8-1l0.9,1.6l-1.4,0.7c0.3,0.4,0.4,1,0.4,1.5c0,0.6-0.2,1.2-0.5,1.7
		c-0.3,0.5-0.7,0.8-1.3,1.1c-0.5,0.3-1.1,0.4-1.8,0.4c-0.5,0-0.9-0.1-1.4-0.2c-0.3,0.2-0.5,0.4-0.5,0.7c0,0.2,0.1,0.4,0.2,0.5
		c0.2,0.1,0.4,0.2,0.7,0.2h2c1,0,1.8,0.2,2.5,0.7c0.6,0.5,0.9,1.2,0.9,2.1c0,0.7-0.2,1.4-0.6,1.9c-0.4,0.5-0.9,0.9-1.6,1.1
		C96.6,44.5,95.9,44.6,95.2,44.6z M95.2,35.4c0.4,0,0.7-0.1,0.9-0.4c0.3-0.2,0.4-0.6,0.4-0.9c0-0.4-0.1-0.7-0.4-1
		c-0.2-0.3-0.6-0.4-0.9-0.4c-0.4,0-0.7,0.1-0.9,0.4c-0.2,0.2-0.4,0.6-0.4,1c0,0.4,0.1,0.7,0.4,0.9C94.5,35.3,94.8,35.4,95.2,35.4z
		 M95.2,42.7c0.6,0,1.1-0.1,1.4-0.3c0.4-0.2,0.6-0.5,0.6-0.9c0-0.4-0.1-0.6-0.4-0.8c-0.3-0.1-0.6-0.2-1.1-0.2h-1.3
		c-0.4,0-0.8,0-1.1-0.1c-0.1,0.2-0.2,0.5-0.2,0.9c0,0.4,0.2,0.8,0.6,1C94,42.5,94.5,42.7,95.2,42.7z M109.1,40.8
		c-1,0-1.8-0.3-2.5-0.8c-0.7-0.5-1.1-1.1-1.3-1.8l1.9-1c0.2,0.5,0.4,0.9,0.7,1.2c0.3,0.3,0.7,0.4,1.2,0.4c0.3,0,0.6-0.1,0.9-0.2
		c0.2-0.2,0.3-0.4,0.3-0.7c0-0.3-0.1-0.5-0.4-0.7c-0.3-0.2-0.7-0.4-1.3-0.6c-0.1,0-0.2-0.1-0.4-0.2c-0.7-0.3-1.3-0.7-1.7-1.1
		c-0.4-0.4-0.6-1-0.6-1.7c0-0.5,0.1-0.9,0.4-1.3c0.3-0.4,0.6-0.7,1.1-1c0.5-0.2,1-0.4,1.6-0.4c0.6,0,1.2,0.1,1.8,0.4
		c0.5,0.3,0.9,0.6,1.2,1.1l-1.4,1.3c-0.4-0.6-0.9-0.8-1.5-0.8c-0.3,0-0.5,0.1-0.7,0.2c-0.2,0.1-0.3,0.3-0.3,0.5
		c0,0.2,0.1,0.4,0.4,0.6c0.3,0.2,0.8,0.4,1.6,0.7c0.7,0.3,1.3,0.6,1.7,1c0.4,0.4,0.6,1,0.6,1.7c0,0.9-0.3,1.7-0.9,2.3
		C110.8,40.5,110,40.8,109.1,40.8z M118.1,40.8c-1.1,0-2-0.3-2.6-0.9c-0.6-0.6-0.9-1.5-0.9-2.6V33h-1.5v-2h1.5v-2.4l2.4-1.5V31h2.5
		v2H117v4.1c0,0.6,0.1,1,0.3,1.2c0.2,0.2,0.5,0.3,0.9,0.3c0.3,0,0.6-0.1,0.9-0.2l0.6,1.9C119.2,40.6,118.7,40.8,118.1,40.8z
		 M121.2,31h2.4v1.6c0.3-0.5,0.8-1,1.3-1.3c0.5-0.3,1-0.5,1.6-0.5c0.4,0,0.7,0.1,1.2,0.2l-0.4,2.2c-0.3-0.2-0.6-0.3-1-0.3
		c-0.7,0-1.4,0.3-1.8,1c-0.5,0.7-0.7,1.7-0.7,3.2v3.4h-2.4V31z M131.9,40.8c-0.9,0-1.6-0.2-2.1-0.7c-0.5-0.5-0.8-1.2-0.8-2.1V31h2.4
		v6.1c0,0.5,0.1,0.9,0.4,1.2c0.3,0.3,0.6,0.4,1,0.4c0.4,0,0.8-0.2,1.1-0.5c0.3-0.3,0.6-0.7,0.8-1.3c0.2-0.6,0.3-1.3,0.3-2.1V31h2.4
		v9.6h-2.4v-1.5c-0.4,0.5-0.8,0.9-1.3,1.2C133,40.6,132.5,40.8,131.9,40.8z M144,40.8c-1,0-1.9-0.2-2.6-0.6c-0.7-0.4-1.2-1-1.6-1.8
		c-0.4-0.7-0.5-1.6-0.5-2.5c0-0.9,0.2-1.8,0.5-2.5c0.4-0.7,0.9-1.3,1.6-1.8c0.7-0.4,1.6-0.7,2.6-0.7c1.1,0,2,0.2,2.7,0.7
		c0.7,0.5,1.3,1.1,1.7,2l-2.1,0.9c-0.3-0.5-0.6-0.9-0.9-1.2c-0.4-0.3-0.8-0.4-1.3-0.4c-0.7,0-1.3,0.3-1.7,0.8
		c-0.4,0.5-0.6,1.2-0.6,2.1s0.2,1.6,0.6,2.1c0.4,0.5,0.9,0.8,1.7,0.8c0.5,0,1-0.1,1.3-0.4c0.4-0.3,0.7-0.7,0.9-1.2l2.1,0.9
		c-0.4,0.9-0.9,1.6-1.7,2.1C146,40.5,145.1,40.8,144,40.8z M154.2,40.8c-1.1,0-2-0.3-2.6-0.9c-0.6-0.6-0.9-1.5-0.9-2.6V33h-1.5v-2
		h1.5v-2.4l2.4-1.5V31h2.5v2h-2.5v4.1c0,0.6,0.1,1,0.3,1.2c0.2,0.2,0.5,0.3,0.9,0.3c0.3,0,0.6-0.1,0.9-0.2l0.6,1.9
		C155.3,40.6,154.8,40.8,154.2,40.8z M160,40.8c-0.9,0-1.6-0.2-2.1-0.7c-0.5-0.5-0.8-1.2-0.8-2.1V31h2.4v6.1c0,0.5,0.1,0.9,0.4,1.2
		c0.3,0.3,0.6,0.4,1,0.4c0.4,0,0.8-0.2,1.1-0.5c0.3-0.3,0.6-0.7,0.8-1.3c0.2-0.6,0.3-1.3,0.3-2.1V31h2.4v9.6H163v-1.5
		c-0.4,0.5-0.8,0.9-1.3,1.2C161.1,40.6,160.6,40.8,160,40.8z M168,31h2.4v1.6c0.3-0.5,0.8-1,1.3-1.3c0.5-0.3,1-0.5,1.6-0.5
		c0.4,0,0.7,0.1,1.2,0.2l-0.4,2.2c-0.3-0.2-0.6-0.3-1-0.3c-0.7,0-1.4,0.3-1.8,1c-0.5,0.7-0.7,1.7-0.7,3.2v3.4H168V31z M179.5,40.8
		c-1,0-1.9-0.2-2.6-0.7c-0.7-0.5-1.2-1.1-1.5-1.9c-0.3-0.8-0.5-1.5-0.5-2.4c0-0.8,0.2-1.6,0.5-2.3c0.3-0.8,0.8-1.4,1.5-1.9
		c0.7-0.5,1.6-0.7,2.6-0.7c1,0,1.8,0.2,2.5,0.7c0.7,0.5,1.2,1.1,1.5,1.8s0.5,1.5,0.5,2.2v1h-6.6c0,0.6,0.2,1.1,0.6,1.5
		c0.4,0.4,0.9,0.6,1.6,0.6c0.5,0,1-0.1,1.3-0.4c0.4-0.2,0.7-0.6,1-1.1l1.9,0.7c-0.4,0.9-0.9,1.6-1.7,2.1
		C181.5,40.5,180.6,40.8,179.5,40.8z M181.6,34.7c-0.1-0.5-0.3-1-0.7-1.3c-0.3-0.3-0.8-0.5-1.4-0.5c-0.6,0-1,0.2-1.4,0.5
		c-0.4,0.4-0.6,0.8-0.7,1.3H181.6z"/>
	<path class="st5" d="M31.5,83.9h1.6v3.2h3.4v-3.2H38v8.4h-1.6v-3.8h-3.4v3.8h-1.6V83.9z M42.4,92.4c-0.7,0-1.2-0.2-1.6-0.5
		c-0.4-0.3-0.8-0.7-1-1.2c-0.2-0.5-0.3-1-0.3-1.5s0.1-1,0.3-1.5c0.2-0.5,0.5-0.9,1-1.2c0.4-0.3,1-0.5,1.6-0.5c0.6,0,1.2,0.2,1.6,0.5
		c0.4,0.3,0.7,0.7,0.9,1.1s0.3,0.9,0.3,1.4v0.6H41c0,0.4,0.1,0.7,0.4,1c0.3,0.3,0.6,0.4,1,0.4c0.3,0,0.6-0.1,0.8-0.2
		c0.2-0.2,0.4-0.4,0.6-0.7l1.2,0.4c-0.2,0.6-0.6,1-1,1.3C43.7,92.3,43.1,92.4,42.4,92.4z M43.7,88.6c-0.1-0.3-0.2-0.6-0.4-0.8
		c-0.2-0.2-0.5-0.3-0.9-0.3c-0.4,0-0.6,0.1-0.9,0.3c-0.2,0.2-0.4,0.5-0.4,0.8H43.7z M48,92.4c-0.5,0-1-0.2-1.3-0.5
		c-0.3-0.3-0.5-0.8-0.5-1.4c0-0.6,0.2-1.1,0.7-1.4c0.5-0.4,1.1-0.5,1.8-0.5h1.1v-0.3c0-0.3-0.1-0.5-0.3-0.7
		c-0.2-0.2-0.5-0.2-0.8-0.2c-0.5,0-0.9,0.2-1,0.7l-1.3-0.3c0.1-0.5,0.4-0.9,0.8-1.2c0.4-0.3,0.9-0.5,1.5-0.5c0.8,0,1.4,0.2,1.9,0.6
		c0.4,0.4,0.7,1.1,0.7,1.9v3.6H50l-0.2-0.8C49.4,92.2,48.8,92.4,48,92.4z M48.4,91.2c0.4,0,0.7-0.1,0.9-0.3c0.3-0.2,0.4-0.5,0.4-0.9
		v-0.1h-1c-0.3,0-0.6,0.1-0.8,0.2c-0.2,0.1-0.3,0.3-0.3,0.6c0,0.2,0.1,0.3,0.2,0.4C48.1,91.1,48.2,91.2,48.4,91.2z M55.1,92.4
		c-0.8,0-1.5-0.3-2-0.8c-0.5-0.6-0.7-1.3-0.7-2.3c0-1,0.2-1.7,0.7-2.3c0.5-0.6,1.1-0.9,2-0.9c0.3,0,0.7,0.1,0.9,0.2
		c0.3,0.1,0.5,0.3,0.6,0.5v-3h1.5v8.5h-1.5v-0.6c-0.1,0.2-0.3,0.4-0.6,0.5C55.9,92.4,55.5,92.4,55.1,92.4z M55.5,91.2
		c0.4,0,0.7-0.2,1-0.5c0.3-0.3,0.4-0.8,0.4-1.4s-0.1-1-0.4-1.4c-0.3-0.3-0.6-0.5-1-0.5c-0.4,0-0.7,0.2-1,0.5
		c-0.3,0.3-0.4,0.8-0.4,1.4c0,0.6,0.1,1,0.4,1.4C54.7,91,55.1,91.2,55.5,91.2z M60.6,85.5c-0.3,0-0.5-0.1-0.7-0.3
		c-0.2-0.2-0.3-0.4-0.3-0.7c0-0.3,0.1-0.5,0.3-0.7c0.2-0.2,0.4-0.3,0.7-0.3c0.3,0,0.5,0.1,0.7,0.3c0.2,0.2,0.3,0.4,0.3,0.7
		c0,0.3-0.1,0.5-0.3,0.7C61.1,85.4,60.9,85.5,60.6,85.5z M59.9,86.3h1.5v6h-1.5V86.3z M63,86.3h1.5v1c0.2-0.3,0.5-0.6,0.8-0.8
		s0.7-0.3,1-0.3c0.6,0,1,0.2,1.3,0.5c0.3,0.3,0.5,0.8,0.5,1.4v4.3h-1.5v-3.9c0-0.3-0.1-0.6-0.2-0.8c-0.2-0.2-0.4-0.2-0.6-0.2
		c-0.2,0-0.5,0.1-0.7,0.3c-0.2,0.2-0.4,0.5-0.5,0.9c-0.1,0.4-0.2,0.8-0.2,1.3v2.4H63V86.3z M72,94.9c-0.8,0-1.5-0.2-2-0.5
		c-0.5-0.3-0.8-0.8-0.8-1.5c0-0.5,0.2-0.9,0.5-1.2c-0.2-0.2-0.3-0.6-0.3-0.9c0-0.3,0.1-0.5,0.2-0.7c0.1-0.2,0.3-0.4,0.6-0.5
		c-0.3-0.3-0.4-0.8-0.4-1.2c0-0.4,0.1-0.8,0.3-1.1c0.2-0.3,0.5-0.6,0.8-0.7c0.3-0.2,0.7-0.3,1.1-0.3c0.4,0,0.8,0.1,1.1,0.3l1.1-0.6
		l0.6,1L74,87.3c0.2,0.3,0.2,0.6,0.2,1c0,0.4-0.1,0.8-0.3,1.1c-0.2,0.3-0.5,0.5-0.8,0.7c-0.3,0.2-0.7,0.2-1.1,0.2
		c-0.3,0-0.6,0-0.9-0.1c-0.2,0.1-0.3,0.3-0.3,0.5c0,0.1,0,0.3,0.1,0.3c0.1,0.1,0.2,0.1,0.4,0.1h1.2c0.6,0,1.2,0.2,1.5,0.5
		c0.4,0.3,0.6,0.7,0.6,1.3c0,0.5-0.1,0.9-0.4,1.2c-0.3,0.3-0.6,0.5-1,0.7C73,94.8,72.5,94.9,72,94.9z M72,89.1
		c0.2,0,0.4-0.1,0.6-0.2c0.2-0.2,0.2-0.3,0.2-0.6c0-0.2-0.1-0.4-0.2-0.6c-0.2-0.2-0.3-0.2-0.6-0.2s-0.4,0.1-0.6,0.2
		c-0.2,0.2-0.2,0.4-0.2,0.6c0,0.2,0.1,0.4,0.2,0.6C71.6,89,71.8,89.1,72,89.1z M72,93.6c0.4,0,0.7-0.1,0.9-0.2
		c0.2-0.1,0.3-0.3,0.3-0.6c0-0.2-0.1-0.4-0.3-0.5c-0.2-0.1-0.4-0.1-0.7-0.1h-0.8c-0.3,0-0.5,0-0.7,0c-0.1,0.1-0.1,0.3-0.1,0.6
		c0,0.3,0.1,0.5,0.4,0.6C71.3,93.6,71.6,93.6,72,93.6z M78.8,83.9h1.5v8.5h-1.5V83.9z M84.6,92.4c-0.7,0-1.2-0.2-1.6-0.5
		c-0.4-0.3-0.8-0.7-1-1.2c-0.2-0.5-0.3-1-0.3-1.5s0.1-1,0.3-1.5c0.2-0.5,0.5-0.9,1-1.2c0.4-0.3,1-0.5,1.6-0.5c0.6,0,1.2,0.2,1.6,0.5
		c0.4,0.3,0.7,0.7,0.9,1.1c0.2,0.5,0.3,0.9,0.3,1.4v0.6h-4.2c0,0.4,0.1,0.7,0.4,1c0.3,0.3,0.6,0.4,1,0.4c0.3,0,0.6-0.1,0.8-0.2
		c0.2-0.2,0.4-0.4,0.6-0.7l1.2,0.4c-0.2,0.6-0.6,1-1,1.3C85.8,92.3,85.3,92.4,84.6,92.4z M85.9,88.6c-0.1-0.3-0.2-0.6-0.4-0.8
		c-0.2-0.2-0.5-0.3-0.9-0.3c-0.4,0-0.6,0.1-0.9,0.3s-0.4,0.5-0.4,0.8H85.9z M88,86.3h1.5l1.2,4.2l1.2-4.2h1.5l-2.1,6H90L88,86.3z
		 M96.9,92.4c-0.7,0-1.2-0.2-1.6-0.5c-0.4-0.3-0.8-0.7-1-1.2c-0.2-0.5-0.3-1-0.3-1.5s0.1-1,0.3-1.5c0.2-0.5,0.5-0.9,1-1.2
		c0.4-0.3,1-0.5,1.6-0.5c0.6,0,1.2,0.2,1.6,0.5c0.4,0.3,0.7,0.7,0.9,1.1s0.3,0.9,0.3,1.4v0.6h-4.2c0,0.4,0.1,0.7,0.4,1
		c0.3,0.3,0.6,0.4,1,0.4c0.3,0,0.6-0.1,0.8-0.2c0.2-0.2,0.4-0.4,0.6-0.7l1.2,0.4c-0.2,0.6-0.6,1-1,1.3
		C98.1,92.3,97.6,92.4,96.9,92.4z M98.2,88.6c-0.1-0.3-0.2-0.6-0.4-0.8c-0.2-0.2-0.5-0.3-0.9-0.3c-0.4,0-0.6,0.1-0.9,0.3
		c-0.2,0.2-0.4,0.5-0.4,0.8H98.2z M101,83.9h1.5v8.5H101V83.9z"/>
	<path class="st5" d="M158.2,92.4c-0.7,0-1.4-0.2-2-0.5c-0.6-0.3-1.1-0.8-1.4-1.5c-0.4-0.6-0.5-1.4-0.5-2.3s0.2-1.7,0.5-2.3
		c0.4-0.6,0.8-1.1,1.4-1.5c0.6-0.3,1.3-0.5,2-0.5c0.9,0,1.7,0.2,2.3,0.7c0.6,0.4,1,1.1,1.2,1.9l-1.4,0.4c-0.2-0.5-0.4-0.8-0.8-1.1
		c-0.3-0.3-0.8-0.4-1.3-0.4c-0.4,0-0.9,0.1-1.2,0.3c-0.4,0.2-0.6,0.5-0.9,1c-0.2,0.4-0.3,0.9-0.3,1.6s0.1,1.2,0.3,1.6
		c0.2,0.4,0.5,0.7,0.9,1c0.4,0.2,0.8,0.3,1.2,0.3c0.6,0,1-0.1,1.3-0.4c0.3-0.3,0.6-0.6,0.8-1.1l1.4,0.4c-0.2,0.8-0.6,1.4-1.2,1.9
		C159.9,92.2,159.1,92.4,158.2,92.4z M165.8,92.4c-0.6,0-1.2-0.1-1.6-0.4s-0.8-0.6-1.1-1.1c-0.2-0.5-0.4-1-0.4-1.6
		c0-0.6,0.1-1.1,0.4-1.6c0.2-0.5,0.6-0.8,1.1-1.1c0.5-0.3,1-0.4,1.6-0.4s1.2,0.1,1.6,0.4c0.5,0.3,0.8,0.6,1.1,1.1
		c0.2,0.5,0.4,1,0.4,1.6c0,0.6-0.1,1.1-0.4,1.6c-0.2,0.5-0.6,0.8-1.1,1.1C166.9,92.3,166.4,92.4,165.8,92.4z M165.8,91.2
		c0.5,0,0.8-0.2,1.1-0.5c0.3-0.4,0.4-0.8,0.4-1.3c0-0.5-0.1-1-0.4-1.3c-0.3-0.4-0.6-0.5-1.1-0.5s-0.8,0.2-1.1,0.5
		c-0.3,0.4-0.4,0.8-0.4,1.3c0,0.5,0.1,1,0.4,1.3C164.9,91,165.3,91.2,165.8,91.2z M170.2,86.3h1.5v1c0.2-0.3,0.5-0.6,0.8-0.8
		c0.3-0.2,0.7-0.3,1-0.3c0.6,0,1,0.2,1.3,0.5c0.3,0.3,0.5,0.8,0.5,1.4v4.3h-1.5v-3.9c0-0.3-0.1-0.6-0.2-0.8
		c-0.2-0.2-0.4-0.2-0.6-0.2c-0.2,0-0.5,0.1-0.7,0.3c-0.2,0.2-0.4,0.5-0.5,0.9c-0.1,0.4-0.2,0.8-0.2,1.3v2.4h-1.5V86.3z M179.4,92.4
		c-0.7,0-1.2-0.2-1.6-0.6s-0.6-0.9-0.6-1.7v-2.6h-0.9v-1.3h0.9v-1.5l1.5-0.9v2.4h1.6v1.3h-1.6v2.6c0,0.4,0.1,0.6,0.2,0.8
		c0.1,0.1,0.3,0.2,0.6,0.2c0.2,0,0.4,0,0.6-0.1l0.3,1.2C180.1,92.4,179.7,92.4,179.4,92.4z M183.7,92.4c-0.7,0-1.2-0.2-1.6-0.5
		c-0.4-0.3-0.8-0.7-1-1.2c-0.2-0.5-0.3-1-0.3-1.5s0.1-1,0.3-1.5c0.2-0.5,0.5-0.9,1-1.2c0.4-0.3,1-0.5,1.6-0.5c0.6,0,1.2,0.2,1.6,0.5
		c0.4,0.3,0.7,0.7,0.9,1.1c0.2,0.5,0.3,0.9,0.3,1.4v0.6h-4.2c0,0.4,0.1,0.7,0.4,1c0.3,0.3,0.6,0.4,1,0.4c0.3,0,0.6-0.1,0.8-0.2
		c0.2-0.2,0.4-0.4,0.6-0.7l1.2,0.4c-0.2,0.6-0.6,1-1,1.3C184.9,92.3,184.4,92.4,183.7,92.4z M185,88.6c-0.1-0.3-0.2-0.6-0.4-0.8
		c-0.2-0.2-0.5-0.3-0.9-0.3c-0.4,0-0.6,0.1-0.9,0.3c-0.2,0.2-0.4,0.5-0.4,0.8H185z M187.8,86.3h1.5v1c0.2-0.3,0.5-0.6,0.8-0.8
		c0.3-0.2,0.7-0.3,1-0.3c0.6,0,1,0.2,1.3,0.5c0.3,0.3,0.5,0.8,0.5,1.4v4.3h-1.5v-3.9c0-0.3-0.1-0.6-0.2-0.8
		c-0.2-0.2-0.4-0.2-0.6-0.2c-0.2,0-0.5,0.1-0.7,0.3c-0.2,0.2-0.4,0.5-0.5,0.9c-0.1,0.4-0.2,0.8-0.2,1.3v2.4h-1.5V86.3z M197.1,92.4
		c-0.7,0-1.2-0.2-1.6-0.6s-0.6-0.9-0.6-1.7v-2.6h-0.9v-1.3h0.9v-1.5l1.5-0.9v2.4h1.6v1.3h-1.6v2.6c0,0.4,0.1,0.6,0.2,0.8
		c0.1,0.1,0.3,0.2,0.6,0.2c0.2,0,0.4,0,0.6-0.1l0.3,1.2C197.7,92.4,197.4,92.4,197.1,92.4z"/>
	<path class="st5" d="M287.5,153.6H155.1c-1.9,0-3.4-1.5-3.4-3.4s1.5-3.4,3.4-3.4h132.4c1.9,0,3.4,1.5,3.4,3.4
		S289.4,153.6,287.5,153.6z"/>
	<path class="st6" d="M310.9,267.4H155.1c-1.9,0-3.4-1.5-3.4-3.4c0-1.9,1.5-3.4,3.4-3.4h155.8c1.9,0,3.4,1.5,3.4,3.4
		C314.3,265.9,312.8,267.4,310.9,267.4z"/>
	<path class="st6" d="M287.5,304.6H155.1c-1.9,0-3.4-1.5-3.4-3.4s1.5-3.4,3.4-3.4h132.4c1.9,0,3.4,1.5,3.4,3.4
		S289.4,304.6,287.5,304.6z"/>
	<path class="st6" d="M301.7,379.9H155.1c-1.9,0-3.4-1.5-3.4-3.4c0-1.9,1.5-3.4,3.4-3.4h146.6c1.9,0,3.4,1.5,3.4,3.4
		C305.1,378.4,303.6,379.9,301.7,379.9z"/>
	<path class="st6" d="M262.2,418.4H155.1c-1.9,0-3.4-1.5-3.4-3.4c0-1.9,1.5-3.4,3.4-3.4h107.1c1.9,0,3.4,1.5,3.4,3.4
		C265.6,416.9,264.1,418.4,262.2,418.4z"/>
	<path class="st7" d="M312.6,117.9H28.8"/>
</g>
</svg>
