<?xml version="1.0" encoding="utf-8"?>
<!-- Generator: Adobe Illustrator 26.0.0, SVG Export Plug-In . SVG Version: 6.00 Build 0)  -->
<svg version="1.1" id="Layer_1" xmlns="http://www.w3.org/2000/svg" xmlns:xlink="http://www.w3.org/1999/xlink" x="0px" y="0px"
	 viewBox="0 0 500 500" style="enable-background:new 0 0 500 500;" xml:space="preserve">
<style type="text/css">
	.st0{opacity:0.32;fill:#EAEAFE;enable-background:new    ;}
	.st1{opacity:0.3;fill:#EAEAFE;enable-background:new    ;}
	.st2{opacity:0.31;}
	.st3{fill:#D9DADA;}
	.st4{opacity:0.47;fill:#ECF1F7;enable-background:new    ;}
	.st5{opacity:0.47;fill:#D9DADA;enable-background:new    ;}
	.st6{opacity:0.47;fill:#1DA69A;enable-background:new    ;}
	.st7{opacity:0.58;fill:#EAEAFE;enable-background:new    ;}
	.st8{opacity:0.58;fill:#1DA69A;enable-background:new    ;}
	.st9{clip-path:url(#SVGID_00000126311042269394776020000003860418668584722566_);}
	.st10{opacity:0.66;}
	.st11{fill:#FFFFFF;}
	.st12{opacity:0.84;}
	.st13{opacity:0.81;}
	.st14{opacity:0.66;fill:#FFFFFF;enable-background:new    ;}
	.st15{clip-path:url(#SVGID_00000176026031716544402920000001161477503409610929_);}
	.st16{fill:#4E5093;}
	.st17{opacity:0.12;fill:#ABADE7;enable-background:new    ;}
	.st18{opacity:0.12;fill:#FFFFFF;enable-background:new    ;}
	.st19{fill:#C9D7FD;}
	.st20{fill:#7098EE;}
	.st21{fill:#FA8617;}
	.st22{fill:#1DA69A;}
	.st23{clip-path:url(#SVGID_00000013878725824378693280000003866582044673149087_);}
	.st24{fill:#FDFDFF;}
	.st25{opacity:0.36;fill:#5565B5;enable-background:new    ;}
	.st26{opacity:0.47;fill:#FFFFFF;enable-background:new    ;}
	.st27{opacity:0.39;fill:#28B473;enable-background:new    ;}
</style>
<path class="st0" d="M45,148.2c-5.8,16.8-7.4,35.1-3.6,52.4c5.1,23.3,22.5,43.8,19.5,68.6c-1.8,14.9-1.5,28.6-1.8,43.2
	c-0.7,30.1,20.3,55,44.9,67.4c20,10.1,42.8,12.8,64.8,10.9c19.8-1.7,39.3-6.9,58.1-13.4c18.1-6.2,35.7-13.9,55.2-13.3
	c16.2,0.5,31.3,6.5,46.7,10.7c36.8,10,80.4,8.6,111.6-13.1c34.3-23.8,48.1-68.9,36.2-108.3c-6.4-21.2-15-39.5-11.9-62
	c1.5-11.1,3.8-22.4,1.7-33.4c-1.9-10.1-7.5-19.2-14.1-27.1c-17.7-21.4-43-35-69.2-43c-29.8-9.1-62.8-14.1-93.8-9.3
	c-60.1,9.1-73.2,0.3-136.1-8.7c-42.1-6-81.7,27.5-100.8,62.1C49.5,137,47,142.5,45,148.2z"/>
<path class="st1" d="M74.1,196.6c8.7-11.4,22.1-19.2,28.6-32.3c7.9-15.7,6.2-34.3,13.2-50.3c10.4-23.7,29.1-43.9,52.7-55
	c11.3-5.3,23.8-8.6,35.9-7.7c18.7,1.4,34.8,12.6,47.4,25.9c18.8,19.8,32,47.9,54.6,63.7c12.4,8.7,27-0.5,40.2-3.5
	c14.9-3.3,30.4-2.5,44.6,1.5c26.2,7.5,48.8,26.2,60.1,51c12.1,26.4,10.3,63-12.3,85.7c-10.5,10.5-24.7,17.5-32.4,30.1
	c-9.7,15.8-10.9,37.2-13.6,54.7c-3,19.4-11.3,38.3-23.8,54c-0.1,0.2-0.3,0.4-0.4,0.5c-21.7,26.9-58.6,36-89.8,22.5l-66.3-28.7
	c-67.2-29.1-118.3-76-142.8-144.1c-5.3-14.7-7.2-46.1-0.5-60.5C70.8,201.4,72.4,198.9,74.1,196.6z"/>
<path class="st1" d="M28.8,302.9c-0.8-7.6-1-15.2-0.5-22.9c2.2-35.8,18.4-70.3,43.5-95.3c9-8.9,19.3-17.1,24.8-28.5
	c9.3-19.3,7.5-40.8,19.3-60.1c11.9-19.2,29.8-34.7,50.4-43.2c61.5-25.5,151,5.9,147,83.4c0,0.3,0,0.7,0,1.2
	c-0.2,16.1,12.7,28.9,28.4,28.4c57.9-1.7,109.9,41.2,123.4,98.2c8.7,36.7-0.5,77.9-25.7,105.5c-18.8,20.6-44.9,32.8-71.1,41.6
	c-52.6,17.6-108.6,23.7-163.9,21c-51.7-2.6-106.8-14.8-142.1-53.5C43.4,358.1,31.8,331,28.8,302.9z"/>
<g class="st2">
	<path class="st3" d="M319.2,47.9c0.2-7.3-5.5-13.4-12.7-13.6c-7.2-0.2-13.1,5.7-13.3,13c-0.2,7.3,5.5,13.4,12.7,13.6
		S319,55.3,319.2,47.9z"/>
	<path class="st3" d="M85.6,48c0.2,3.8,3.3,6.7,7.1,6.5c3.7-0.2,6.6-3.4,6.4-7.2c-0.2-3.8-3.3-6.7-7.1-6.5
		C88.3,41,85.4,44.2,85.6,48z"/>
	<path class="st3" d="M472.1,203c0.1,2.5,2.2,4.4,4.7,4.3c2.5-0.1,4.3-2.3,4.2-4.8s-2.2-4.4-4.7-4.3
		C473.9,198.4,472,200.5,472.1,203z"/>
	<path class="st3" d="M451.3,431.8c0.2-11.5-8.7-21.1-20.1-21.3c-11.3-0.2-20.7,8.9-20.9,20.5c-0.2,11.5,8.7,21.1,20.1,21.3
		C441.7,452.5,451.1,443.4,451.3,431.8z"/>
	<path class="st4" d="M25.7,98c-6.4-11.3-2.6-25.8,8.4-32.3c11.1-6.6,32.9-7.3,39.3,4s-10.6,22.2-17.2,33.4
		C47.1,118.7,32.1,109.3,25.7,98z"/>
	<path class="st5" d="M93.3,452.1c-8,5.9-19,4-24.8-4.1c-5.8-8.1-7.9-25.1,0-30.9c7.9-5.8,17.4,6.5,26.2,10.8
		C107.1,433.8,101.2,446.2,93.3,452.1z"/>
	<path class="st6" d="M408.4,24.3c8.6-9.1,22.8-9.3,31.6-0.5s15.2,29.4,6.6,38.4c-8.6,9.1-23-4.2-34.9-7.5
		C395.2,50.1,399.8,33.4,408.4,24.3z"/>
</g>
<path class="st7" d="M384.1,437.4c2.5,0,4.5-2,4.5-4.5c0-2.5-2-4.5-4.5-4.5c-2.5,0-4.5,2-4.5,4.5
	C379.6,435.4,381.6,437.4,384.1,437.4z"/>
<path class="st7" d="M270.2,39.8c1.2,0,2.2-1,2.2-2.2s-1-2.2-2.2-2.2c-1.2,0-2.2,1-2.2,2.2S269,39.8,270.2,39.8z"/>
<path class="st8" d="M131.3,448.2c2.5,0,4.5-2,4.5-4.5c0-2.5-2-4.5-4.5-4.5c-2.5,0-4.5,2-4.5,4.5
	C126.8,446.2,128.8,448.2,131.3,448.2z"/>
<path class="st8" d="M402.4,467.5c1.9,0,3.5-1.6,3.5-3.5s-1.6-3.5-3.5-3.5c-1.9,0-3.5,1.6-3.5,3.5S400.5,467.5,402.4,467.5z"/>
<path class="st7" d="M58.1,42.3c0.8,0,1.5-0.7,1.5-1.5c0-0.8-0.7-1.5-1.5-1.5c-0.8,0-1.5,0.7-1.5,1.5C56.6,41.6,57.3,42.3,58.1,42.3
	z"/>
<path class="st8" d="M469,83.2c1.4-2.7,0.3-5.9-2.4-7.3c-2.7-1.4-5.9-0.3-7.3,2.4c-1.4,2.7-0.3,5.9,2.4,7.3
	C464.4,86.9,467.7,85.8,469,83.2z"/>
<path class="st8" d="M75.1,26.8c-0.2,1.1-1.4,1.9-2.5,1.6c-1.1-0.2-1.9-1.4-1.6-2.5c0.2-1.1,1.4-1.9,2.5-1.6
	C74.7,24.5,75.4,25.7,75.1,26.8z"/>
<path class="st8" d="M289.8,20c-0.2,1.1-1.4,1.9-2.5,1.6c-1.1-0.2-1.9-1.4-1.6-2.5c0.2-1.1,1.4-1.9,2.5-1.6
	C289.3,17.7,290,18.8,289.8,20z"/>
<path class="st7" d="M438.6,86.5c-0.2,1-1.2,1.6-2.1,1.4c-1-0.2-1.6-1.2-1.4-2.1c0.2-1,1.2-1.6,2.1-1.4
	C438.2,84.6,438.9,85.5,438.6,86.5z"/>
<path class="st8" d="M41.1,396.9c-0.2,1-1.2,1.6-2.1,1.4c-1-0.2-1.6-1.2-1.4-2.1c0.2-1,1.2-1.6,2.1-1.4
	C40.7,395,41.3,395.9,41.1,396.9z"/>
<g>
	<defs>
		<rect id="SVGID_1_" x="65" y="102" width="348" height="314.2"/>
	</defs>
	<clipPath id="SVGID_00000181783038882618269720000003383754561698409395_">
		<use xlink:href="#SVGID_1_"  style="overflow:visible;"/>
	</clipPath>
	<g style="clip-path:url(#SVGID_00000181783038882618269720000003383754561698409395_);">
		<g class="st10">
			<path class="st11" d="M355.7,206.7h-7.8c-1.6,0-3.1-0.6-4.2-1.8c-1.1-1.1-1.7-2.6-1.8-4.2V192c0-0.8-0.3-1.6-0.7-2.3
				c-0.5-0.7-1.1-1.2-1.9-1.4c-0.9-0.3-1.8-0.7-2.7-1.1c-0.7-0.3-1.6-0.5-2.4-0.3c-0.8,0.1-1.5,0.5-2.1,1.1l-6.2,6.2
				c-1.1,1.1-2.6,1.7-4.2,1.7c-1.6,0-3.1-0.6-4.2-1.7l-5.5-5.5c-1.1-1.1-1.7-2.6-1.7-4.2s0.6-3.1,1.7-4.2l6.2-6.2
				c0.6-0.6,0.9-1.3,1.1-2.1c0.1-0.8,0-1.6-0.3-2.4c-0.4-0.9-0.8-1.8-1.1-2.7c-0.3-0.8-0.8-1.4-1.5-1.9c-0.7-0.5-1.4-0.7-2.3-0.7
				h-8.8c-1.6,0-3.1-0.7-4.2-1.8c-1.1-1.1-1.7-2.6-1.7-4.2v-7.8c0-1.6,0.6-3.1,1.7-4.2c1.1-1.1,2.6-1.8,4.2-1.8h8.8
				c0.8,0,1.6-0.3,2.3-0.7c0.7-0.5,1.2-1.1,1.5-1.9c0.3-0.9,0.7-1.8,1.1-2.7c0.3-0.7,0.5-1.6,0.3-2.4c-0.1-0.8-0.5-1.5-1.1-2.1
				l-6.2-6.2c-1.1-1.1-1.7-2.6-1.7-4.2c0-1.6,0.6-3.1,1.7-4.2l5.5-5.5c1.1-1.1,2.6-1.7,4.2-1.7c1.6,0,3.1,0.6,4.2,1.7l6.2,6.2
				c0.6,0.6,1.3,0.9,2.1,1.1c0.8,0.1,1.6,0,2.4-0.3c0.9-0.4,1.8-0.8,2.7-1.1c0.8-0.3,1.4-0.8,1.9-1.5c0.5-0.7,0.7-1.4,0.7-2.2v-8.8
				c0-1.6,0.6-3.1,1.8-4.2c1.1-1.1,2.6-1.7,4.2-1.8h7.8c1.6,0,3.1,0.6,4.2,1.8c1.1,1.1,1.7,2.6,1.8,4.2v8.8c0,0.8,0.3,1.6,0.7,2.2
				c0.5,0.7,1.1,1.2,1.9,1.5c0.9,0.3,1.8,0.7,2.7,1.1c0.7,0.3,1.6,0.5,2.4,0.3c0.8-0.1,1.5-0.5,2.1-1.1l6.2-6.2
				c1.1-1.1,2.6-1.7,4.2-1.7s3.1,0.6,4.2,1.7l5.5,5.5c1.1,1.1,1.7,2.6,1.7,4.2c0,1.6-0.6,3.1-1.7,4.2l-6.2,6.2
				c-0.6,0.6-0.9,1.3-1.1,2.1c-0.1,0.8,0,1.6,0.3,2.4c0.4,0.9,0.8,1.8,1.1,2.7c0.3,0.8,0.8,1.4,1.4,1.9c0.7,0.5,1.4,0.7,2.3,0.7h8.8
				c1.6,0,3.1,0.7,4.2,1.8c1.1,1.1,1.7,2.6,1.7,4.2v7.9c0,1.6-0.6,3.1-1.7,4.2c-1.1,1.1-2.6,1.8-4.2,1.8h-8.8
				c-0.8,0-1.6,0.3-2.3,0.7c-0.7,0.5-1.2,1.1-1.4,1.9c-0.3,0.9-0.7,1.8-1.1,2.7c-0.3,0.7-0.5,1.6-0.3,2.4c0.1,0.8,0.5,1.5,1.1,2.1
				l6.2,6.2c1.1,1.1,1.7,2.6,1.7,4.2s-0.6,3.1-1.7,4.2l-5.5,5.5c-1.1,1.1-2.6,1.7-4.2,1.7s-3.1-0.6-4.2-1.7l-6.2-6.2
				c-0.6-0.6-1.3-0.9-2.1-1.1c-0.8-0.1-1.6,0-2.4,0.3c-0.9,0.4-1.8,0.8-2.7,1.1c-0.8,0.3-1.4,0.8-1.9,1.4c-0.5,0.7-0.7,1.4-0.7,2.3
				v8.8c0,1.6-0.7,3-1.8,4.1C358.8,206.1,357.3,206.7,355.7,206.7z M335,184.8c0.9,0,1.7,0.2,2.5,0.6c0.8,0.4,1.7,0.7,2.6,1.1
				c1.1,0.4,2.1,1.2,2.8,2.2c0.7,1,1.1,2.2,1.1,3.4v8.8c0,1,0.4,2,1.2,2.8c0.7,0.7,1.7,1.2,2.8,1.2h7.8c1,0,2-0.4,2.8-1.2
				c0.7-0.7,1.2-1.7,1.2-2.8V192c0-1.2,0.4-2.4,1.1-3.4c0.7-1,1.7-1.8,2.8-2.2c0.9-0.3,1.7-0.7,2.6-1.1c1.1-0.5,2.3-0.7,3.6-0.5
				c1.2,0.2,2.3,0.8,3.2,1.6l6.2,6.2c0.7,0.7,1.7,1.1,2.8,1.1s2-0.4,2.8-1.1l5.5-5.5c0.7-0.7,1.1-1.7,1.1-2.8c0-1-0.4-2-1.1-2.8
				l-6.2-6.2c-0.9-0.9-1.4-2-1.6-3.2c-0.2-1.2,0-2.4,0.5-3.6c0.4-0.8,0.8-1.7,1.1-2.6c0.4-1.1,1.2-2.1,2.2-2.8
				c1-0.7,2.2-1.1,3.4-1.1h8.8c1.1,0,2.1-0.4,2.8-1.2c0.7-0.7,1.1-1.8,1.1-2.8v-7.8c0-1.1-0.4-2.1-1.1-2.8c-0.7-0.7-1.7-1.2-2.8-1.2
				h-8.8c-1.2,0-2.4-0.4-3.4-1.1c-1-0.7-1.8-1.7-2.2-2.8c-0.3-0.9-0.7-1.7-1.1-2.6c-0.5-1.1-0.7-2.3-0.5-3.6
				c0.2-1.2,0.8-2.3,1.6-3.2l6.2-6.2c0.7-0.7,1.1-1.7,1.1-2.8s-0.4-2-1.1-2.8l-5.5-5.5c-0.7-0.7-1.7-1.1-2.8-1.1s-2,0.4-2.8,1.1
				l-6.2,6.2c-0.9,0.9-2,1.4-3.2,1.6c-1.2,0.2-2.4,0-3.6-0.5c-0.9-0.4-1.7-0.8-2.6-1.1c-1.1-0.4-2.1-1.2-2.8-2.2
				c-0.7-1-1.1-2.2-1.1-3.4v-8.8c0-1-0.4-2-1.2-2.8c-0.7-0.7-1.7-1.2-2.8-1.2h-7.8c-1,0-2,0.4-2.8,1.2c-0.7,0.7-1.2,1.7-1.2,2.8v8.8
				c0,1.2-0.4,2.4-1.1,3.4c-0.7,1-1.7,1.8-2.8,2.2c-0.9,0.3-1.7,0.7-2.6,1.1c-1.1,0.5-2.3,0.7-3.6,0.5c-1.2-0.2-2.3-0.8-3.2-1.6
				l-6.2-6.2c-0.7-0.7-1.7-1.1-2.8-1.1c-1,0-2,0.4-2.8,1.1l-5.5,5.5c-0.7,0.7-1.1,1.7-1.1,2.8s0.4,2,1.1,2.8l6.2,6.2
				c0.9,0.9,1.4,2,1.6,3.2c0.2,1.2,0,2.4-0.5,3.6c-0.4,0.8-0.8,1.7-1.1,2.6c-0.4,1.1-1.2,2.1-2.2,2.8c-1,0.7-2.2,1.1-3.4,1.1h-8.8
				c-1.1,0-2.1,0.4-2.8,1.2c-0.7,0.7-1.1,1.8-1.1,2.8v7.9c0,1.1,0.4,2.1,1.1,2.8c0.7,0.7,1.7,1.2,2.8,1.2h8.8c1.2,0,2.4,0.4,3.4,1.1
				c1,0.7,1.8,1.7,2.2,2.8c0.3,0.9,0.7,1.7,1.1,2.6c0.5,1.1,0.7,2.3,0.5,3.6c-0.2,1.2-0.8,2.3-1.6,3.2l-6.2,6.2
				c-0.7,0.7-1.1,1.7-1.1,2.8c0,1,0.4,2,1.1,2.8l5.5,5.5c0.7,0.7,1.7,1.1,2.8,1.1c1,0,2-0.4,2.8-1.1l6.2-6.2c0.5-0.6,1.2-1,1.9-1.3
				C333.4,185,334.2,184.8,335,184.8z M351.8,181.8c-5.4,0-10.7-1.6-15.3-4.6c-4.5-3-8-7.3-10.1-12.3c-2.1-5-2.6-10.5-1.6-15.9
				c1.1-5.3,3.7-10.2,7.5-14.1s8.7-6.5,14.1-7.5c5.3-1.1,10.8-0.5,15.9,1.6c5,2.1,9.3,5.6,12.3,10.1c3,4.5,4.6,9.8,4.6,15.3
				c0,7.3-2.9,14.3-8,19.4C366.1,178.9,359.1,181.8,351.8,181.8L351.8,181.8z M351.8,128.9c-5,0-10,1.5-14.1,4.3
				c-4.2,2.8-7.4,6.8-9.4,11.4c-1.9,4.6-2.4,9.8-1.4,14.7s3.4,9.5,7,13c3.6,3.6,8.1,6,13,7c4.9,1,10.1,0.5,14.7-1.4
				c4.7-1.9,8.6-5.2,11.4-9.4c2.8-4.2,4.3-9.1,4.3-14.1c0-6.7-2.7-13.2-7.5-18C365.1,131.6,358.6,128.9,351.8,128.9L351.8,128.9z"/>
			<g class="st12">
				<path class="st11" d="M341.2,349.4h-9.7c-1.1,0-2.2-0.3-3.1-1c-0.9-0.6-1.6-1.6-2-2.6c-0.4-1-0.8-2-1.2-3
					c-0.5-1-0.6-2.2-0.4-3.3c0.2-1.1,0.7-2.1,1.5-2.9l6.9-6.9c1-1,1.6-2.4,1.6-3.9c0-1.5-0.6-2.9-1.6-3.9l-6.1-6.1
					c-0.5-0.5-1.1-0.9-1.8-1.2c-0.7-0.3-1.4-0.4-2.1-0.4c-0.7,0-1.4,0.1-2.1,0.4s-1.3,0.7-1.8,1.2l-6.9,6.9
					c-0.8,0.8-1.8,1.3-2.9,1.5c-1.1,0.2-2.3,0-3.3-0.4c-1-0.4-1.9-0.9-2.9-1.2c-1.1-0.4-2-1.1-2.6-2c-0.6-0.9-1-2-1-3.1v-9.7
					c0-1.5-0.6-2.8-1.6-3.9c-1-1-2.4-1.6-3.9-1.6h-8.7c-1.5,0-2.8,0.6-3.9,1.6c-1,1-1.6,2.4-1.6,3.9v9.7c0,1.1-0.3,2.2-1,3.1
					c-0.6,0.9-1.6,1.6-2.6,2c-1,0.4-2,0.8-2.9,1.2c-1,0.5-2.2,0.6-3.3,0.4c-1.1-0.2-2.1-0.7-2.9-1.5l-6.9-6.9
					c-0.5-0.5-1.1-0.9-1.8-1.2c-0.7-0.3-1.4-0.4-2.1-0.4c-0.7,0-1.4,0.1-2.1,0.4c-0.7,0.3-1.3,0.7-1.8,1.2l-6.1,6.1
					c-1,1-1.6,2.4-1.6,3.9c0,1.5,0.6,2.9,1.6,3.9l6.9,6.9c0.8,0.8,1.3,1.8,1.5,2.9c0.2,1.1,0,2.3-0.4,3.3c-0.5,1-0.9,2-1.2,3
					c-0.4,1.1-1.1,2-2,2.6c-0.9,0.6-2,1-3.1,1h-9.7c-0.7,0-1.4,0.1-2.1,0.4c-0.7,0.3-1.3,0.7-1.8,1.2c-0.5,0.5-0.9,1.1-1.2,1.8
					c-0.3,0.7-0.4,1.4-0.4,2.1v8.6c0,1.5,0.6,2.9,1.6,3.9c1,1,2.4,1.6,3.9,1.6h9.7c1.1,0,2.2,0.3,3.1,1c0.9,0.6,1.6,1.6,2,2.6
					c0.4,1,0.8,2,1.2,2.9c0.5,1,0.6,2.2,0.4,3.3c-0.2,1.1-0.7,2.1-1.5,2.9l-6.9,6.9c-1,1-1.6,2.4-1.6,3.9c0,1.5,0.6,2.9,1.6,3.9
					l6.1,6.1c0.5,0.5,1.1,0.9,1.8,1.2c0.7,0.3,1.4,0.4,2.1,0.4c0.7,0,1.4-0.1,2.1-0.4c0.7-0.3,1.3-0.7,1.8-1.2l6.9-6.9
					c0.8-0.8,1.8-1.3,2.9-1.5c1.1-0.2,2.3,0,3.3,0.4c1,0.4,1.9,0.8,2.9,1.2c1.1,0.4,2,1.1,2.6,2c0.6,0.9,1,2,1,3.1v9.7
					c0,1.5,0.6,2.8,1.6,3.9c1,1,2.4,1.6,3.9,1.6h8.7c1.5,0,2.8-0.6,3.9-1.6c1-1,1.6-2.4,1.6-3.9V401c0-1.1,0.3-2.2,1-3.1
					c0.6-0.9,1.6-1.6,2.6-2c1-0.4,2-0.8,2.9-1.2c1-0.5,2.2-0.6,3.3-0.4c1.1,0.2,2.1,0.7,2.9,1.5l6.9,6.9c0.5,0.5,1.1,0.9,1.8,1.2
					s1.4,0.4,2.1,0.4c0.7,0,1.4-0.1,2.1-0.4c0.7-0.3,1.3-0.7,1.8-1.2l6.1-6.1c1-1,1.6-2.4,1.6-3.9c0-1.5-0.6-2.9-1.6-3.9l-6.9-6.9
					c-0.8-0.8-1.3-1.8-1.5-2.9c-0.2-1.1,0-2.3,0.4-3.3c0.5-1,0.9-1.9,1.2-2.9c0.4-1.1,1.1-2,2-2.6c0.9-0.6,2-1,3.1-1h9.7
					c1.5,0,2.8-0.6,3.9-1.6c1-1,1.6-2.4,1.6-3.9V355c0-0.7-0.1-1.4-0.4-2.1c-0.3-0.7-0.7-1.3-1.2-1.8c-0.5-0.5-1.1-0.9-1.8-1.2
					C342.6,349.6,341.9,349.4,341.2,349.4z M289.7,388.6c-5.8,0-11.5-1.7-16.3-4.9s-8.6-7.8-10.8-13.2c-2.2-5.4-2.8-11.3-1.7-17
					c1.1-5.7,3.9-10.9,8-15s9.3-6.9,15-8c5.7-1.1,11.6-0.5,17,1.7c5.4,2.2,9.9,6,13.2,10.8c3.2,4.8,4.9,10.5,4.9,16.3
					c0,7.8-3.1,15.2-8.6,20.7C304.9,385.5,297.5,388.6,289.7,388.6z"/>
			</g>
			<path class="st11" d="M188.9,407.8h-6.6c-1.4,0-2.7-0.5-3.6-1.5c-1-1-1.5-2.3-1.5-3.6v-7.4c0-0.7-0.2-1.3-0.6-1.8
				c-0.4-0.5-0.9-0.9-1.5-1.2c-0.8-0.3-1.6-0.6-2.3-1c-0.6-0.3-1.2-0.4-1.9-0.3c-0.6,0.1-1.2,0.4-1.7,0.9L164,397
				c-0.5,0.5-1,0.9-1.7,1.1c-0.6,0.3-1.3,0.4-2,0.4s-1.3-0.1-2-0.4c-0.6-0.3-1.2-0.6-1.7-1.1l-4.6-4.6c-0.5-0.5-0.9-1-1.1-1.7
				c-0.3-0.6-0.4-1.3-0.4-2s0.1-1.3,0.4-2c0.3-0.6,0.6-1.2,1.1-1.7l5.2-5.2c0.5-0.5,0.8-1.1,0.9-1.7c0.1-0.6,0-1.3-0.3-1.9
				c-0.3-0.8-0.7-1.5-1-2.3c-0.2-0.6-0.6-1.1-1.2-1.5s-1.2-0.6-1.8-0.6h-7.4c-1.4,0-2.7-0.5-3.6-1.5c-1-1-1.5-2.3-1.5-3.6v-6.5
				c0-1.4,0.5-2.7,1.5-3.6c1-1,2.3-1.5,3.6-1.5h7.4c0.7,0,1.3-0.2,1.8-0.6s0.9-0.9,1.2-1.5c0.3-0.8,0.6-1.6,1-2.3
				c0.3-0.6,0.4-1.3,0.3-1.9c-0.1-0.6-0.4-1.2-0.9-1.7l-5.2-5.2c-0.5-0.5-0.9-1-1.1-1.7c-0.3-0.6-0.4-1.3-0.4-2s0.1-1.3,0.4-2
				c0.3-0.6,0.6-1.2,1.1-1.7l4.6-4.6c1-1,2.3-1.5,3.6-1.5c1.4,0,2.7,0.5,3.6,1.5l5.2,5.2c0.5,0.5,1.1,0.8,1.7,0.9
				c0.6,0.1,1.3,0,1.9-0.3c0.7-0.3,1.5-0.7,2.3-1c0.6-0.2,1.1-0.6,1.5-1.2c0.4-0.5,0.6-1.2,0.6-1.8v-7.4c0-1.4,0.5-2.7,1.5-3.6
				c1-1,2.3-1.5,3.6-1.5h6.6c1.4,0,2.7,0.5,3.6,1.5c1,1,1.5,2.3,1.5,3.6v7.4c0,0.7,0.2,1.3,0.6,1.8c0.4,0.5,0.9,0.9,1.5,1.2
				c0.8,0.3,1.6,0.6,2.3,1c0.6,0.3,1.2,0.4,1.9,0.3c0.6-0.1,1.2-0.4,1.7-0.9l5.2-5.2c1-1,2.3-1.5,3.6-1.5s2.7,0.5,3.6,1.5l4.6,4.6
				c0.5,0.5,0.9,1,1.1,1.7c0.3,0.6,0.4,1.3,0.4,2s-0.1,1.3-0.4,2c-0.3,0.6-0.6,1.2-1.1,1.7l-5.2,5.2c-0.5,0.5-0.8,1.1-0.9,1.7
				c-0.1,0.6,0,1.3,0.3,1.9c0.3,0.8,0.7,1.5,1,2.3c0.2,0.6,0.6,1.1,1.2,1.5c0.5,0.4,1.2,0.6,1.8,0.6h7.4c1.4,0,2.7,0.5,3.6,1.5
				c1,1,1.5,2.3,1.5,3.6v6.6c0,1.4-0.5,2.7-1.5,3.6c-1,1-2.3,1.5-3.6,1.5h-7.4c-0.7,0-1.3,0.2-1.8,0.6c-0.5,0.4-0.9,0.9-1.2,1.5
				c-0.3,0.8-0.6,1.5-1,2.3c-0.3,0.6-0.4,1.2-0.3,1.9c0.1,0.6,0.4,1.2,0.9,1.7l5.2,5.2c0.5,0.5,0.9,1,1.1,1.7c0.3,0.6,0.4,1.3,0.4,2
				s-0.1,1.3-0.4,2c-0.3,0.6-0.6,1.2-1.1,1.7l-4.6,4.6c-0.5,0.5-1,0.9-1.7,1.1c-0.6,0.3-1.3,0.4-2,0.4s-1.3-0.1-2-0.4
				c-0.6-0.3-1.2-0.6-1.7-1.1l-5.2-5.2c-0.5-0.5-1.1-0.8-1.7-0.9c-0.6-0.1-1.3,0-1.9,0.3c-0.8,0.4-1.5,0.7-2.3,1
				c-0.6,0.2-1.1,0.6-1.5,1.2c-0.4,0.5-0.6,1.2-0.6,1.8v7.4c0,1.4-0.6,2.7-1.5,3.6C191.6,407.2,190.3,407.8,188.9,407.8z M171.5,389
				c0.8,0,1.5,0.2,2.2,0.5c0.7,0.3,1.4,0.6,2.2,0.9c1,0.4,1.8,1,2.4,1.9c0.6,0.9,0.9,1.9,0.9,2.9v7.4c0,0.8,0.3,1.6,0.9,2.2
				c0.6,0.6,1.4,0.9,2.2,0.9h6.6c0.8,0,1.6-0.3,2.2-0.9c0.6-0.6,0.9-1.4,0.9-2.2v-7.4c0-1.1,0.3-2.1,0.9-2.9s1.5-1.5,2.4-1.9
				c0.7-0.3,1.4-0.6,2.1-0.9c1-0.4,2-0.6,3.1-0.4c1,0.2,2,0.7,2.8,1.4l5.2,5.2c0.6,0.6,1.4,0.9,2.2,0.9c0.8,0,1.6-0.3,2.2-0.9
				l4.6-4.6c0.6-0.6,0.9-1.4,0.9-2.2c0-0.8-0.3-1.6-0.9-2.2l-5.2-5.2c-0.7-0.8-1.2-1.7-1.4-2.8c-0.2-1,0-2.1,0.4-3.1
				c0.3-0.7,0.6-1.4,0.9-2.1c0.4-1,1-1.8,1.9-2.4c0.9-0.6,1.9-0.9,2.9-0.9h7.4c0.8,0,1.6-0.3,2.2-0.9c0.6-0.6,0.9-1.4,0.9-2.2v-6.6
				c0-0.8-0.3-1.6-0.9-2.2c-0.6-0.6-1.4-0.9-2.2-0.9h-7.4c-1.1,0-2.1-0.3-2.9-0.9c-0.9-0.6-1.5-1.5-1.9-2.4
				c-0.3-0.7-0.6-1.5-0.9-2.2c-0.4-1-0.6-2-0.4-3.1c0.2-1,0.7-2,1.4-2.8l5.2-5.2c0.6-0.6,0.9-1.4,0.9-2.2s-0.3-1.6-0.9-2.2l-4.6-4.6
				c-0.6-0.6-1.4-0.9-2.2-0.9c-0.8,0-1.6,0.3-2.2,0.9l-5.2,5.2c-0.8,0.7-1.7,1.2-2.8,1.4c-1,0.2-2.1,0-3.1-0.4
				c-0.7-0.3-1.4-0.6-2.1-0.9c-1-0.4-1.8-1-2.4-1.9c-0.6-0.9-0.9-1.9-0.9-2.9v-7.4c0-0.8-0.3-1.6-0.9-2.2c-0.6-0.6-1.4-0.9-2.2-0.9
				h-6.6c-0.8,0-1.6,0.3-2.2,0.9c-0.6,0.6-0.9,1.4-0.9,2.2v7.4c0,1.1-0.3,2.1-0.9,2.9c-0.6,0.9-1.5,1.5-2.4,1.9
				c-0.7,0.3-1.4,0.6-2.2,0.9c-1,0.4-2,0.6-3.1,0.4c-1-0.2-2-0.7-2.8-1.4l-5.2-5.2c-0.6-0.6-1.4-0.9-2.2-0.9s-1.6,0.3-2.2,0.9
				l-4.6,4.6c-0.6,0.6-0.9,1.4-0.9,2.2s0.3,1.6,0.9,2.2l5.2,5.2c0.7,0.8,1.2,1.7,1.4,2.8c0.2,1,0,2.1-0.4,3.1
				c-0.3,0.7-0.6,1.4-0.9,2.2c-0.4,1-1,1.8-1.9,2.4c-0.9,0.6-1.9,0.9-3,0.9h-7.4c-0.8,0-1.6,0.3-2.2,0.9c-0.6,0.6-0.9,1.4-0.9,2.2
				v6.6c0,0.8,0.3,1.6,0.9,2.2c0.6,0.6,1.4,0.9,2.2,0.9h7.4c1.1,0,2.1,0.3,3,0.9c0.9,0.6,1.5,1.5,1.9,2.4c0.3,0.7,0.6,1.4,0.9,2.1
				c0.4,1,0.6,2,0.4,3.1c-0.2,1-0.7,2-1.4,2.8l-5.2,5.2c-0.6,0.6-0.9,1.4-0.9,2.2c0,0.8,0.3,1.6,0.9,2.2l4.6,4.6
				c0.6,0.6,1.4,0.9,2.2,0.9c0.8,0,1.6-0.3,2.2-0.9l5.2-5.2C168.8,389.5,170.1,389,171.5,389L171.5,389z M185.6,386.8
				c-4.6,0-9.1-1.4-12.9-3.9c-3.8-2.6-6.8-6.2-8.6-10.4c-1.8-4.2-2.2-8.9-1.3-13.4c0.9-4.5,3.1-8.6,6.4-11.9
				c3.2-3.2,7.4-5.5,11.9-6.4c4.5-0.9,9.2-0.4,13.4,1.3c4.2,1.8,7.9,4.7,10.4,8.6c2.6,3.8,3.9,8.3,3.9,12.9c0,6.2-2.5,12.1-6.8,16.4
				C197.7,384.4,191.8,386.8,185.6,386.8L185.6,386.8z M185.6,342.4c-4.2,0-8.3,1.2-11.8,3.6c-3.5,2.3-6.2,5.6-7.8,9.5
				c-1.6,3.9-2,8.1-1.2,12.3c0.8,4.1,2.8,7.9,5.8,10.9c3,3,6.7,5,10.9,5.8c4.1,0.8,8.4,0.4,12.3-1.2c3.9-1.6,7.2-4.3,9.5-7.8
				c2.3-3.5,3.6-7.6,3.6-11.8c0-5.6-2.2-11-6.2-15C196.7,344.6,191.3,342.4,185.6,342.4L185.6,342.4z"/>
		</g>
		<g class="st13">
			<path class="st11" d="M401,299.3h-13c-0.3,0-0.5-0.1-0.7-0.3c-0.2-0.2-0.3-0.4-0.3-0.7c0-0.3,0.1-0.5,0.3-0.7
				c0.2-0.2,0.4-0.3,0.7-0.3h13c0.3,0,0.5,0.1,0.7,0.3c0.2,0.2,0.3,0.4,0.3,0.7c0,0.3-0.1,0.5-0.3,0.7
				C401.6,299.2,401.3,299.3,401,299.3z"/>
			<path class="st11" d="M401,320.8h-13c-0.3,0-0.5-0.1-0.7-0.3c-0.2-0.2-0.3-0.4-0.3-0.7c0-0.3,0.1-0.5,0.3-0.7
				c0.2-0.2,0.4-0.3,0.7-0.3h13c0.3,0,0.5,0.1,0.7,0.3c0.2,0.2,0.3,0.4,0.3,0.7c0,0.3-0.1,0.5-0.3,0.7
				C401.6,320.7,401.3,320.8,401,320.8z"/>
			<path class="st11" d="M410.3,342.5H331c-0.7,0-1.4-0.3-1.9-0.8c-0.5-0.5-0.8-1.2-0.8-1.9v-66.3c0-0.7,0.3-1.4,0.8-1.9
				c0.5-0.5,1.2-0.8,1.9-0.8h79.3c0.7,0,1.4,0.3,1.9,0.8c0.5,0.5,0.8,1.2,0.8,1.9v66.3c0,0.7-0.3,1.4-0.8,1.9
				C411.7,342.2,411,342.5,410.3,342.5z M331,272.8c-0.2,0-0.4,0.1-0.5,0.2c-0.1,0.1-0.2,0.3-0.2,0.5v66.3c0,0.2,0.1,0.4,0.2,0.5
				s0.3,0.2,0.5,0.2h79.3c0.2,0,0.4-0.1,0.5-0.2c0.1-0.1,0.2-0.3,0.2-0.5v-66.3c0-0.2-0.1-0.4-0.2-0.5c-0.1-0.1-0.3-0.2-0.5-0.2H331
				z"/>
			<path class="st14" d="M410.3,342.5H331c-0.7,0-1.4-0.3-1.9-0.8c-0.5-0.5-0.8-1.2-0.8-1.9v-66.3c0-0.7,0.3-1.4,0.8-1.9
				c0.5-0.5,1.2-0.8,1.9-0.8h79.3c0.7,0,1.4,0.3,1.9,0.8c0.5,0.5,0.8,1.2,0.8,1.9v66.3c0,0.7-0.3,1.4-0.8,1.9
				C411.7,342.2,411,342.5,410.3,342.5z M331,272.8c-0.2,0-0.4,0.1-0.5,0.2c-0.1,0.1-0.2,0.3-0.2,0.5v66.3c0,0.2,0.1,0.4,0.2,0.5
				s0.3,0.2,0.5,0.2h79.3c0.2,0,0.4-0.1,0.5-0.2c0.1-0.1,0.2-0.3,0.2-0.5v-66.3c0-0.2-0.1-0.4-0.2-0.5c-0.1-0.1-0.3-0.2-0.5-0.2H331
				z"/>
			<path class="st11" d="M401,288.9h-62.1c-0.3,0-0.5-0.1-0.7-0.3c-0.2-0.2-0.3-0.4-0.3-0.7c0-0.3,0.1-0.5,0.3-0.7
				c0.2-0.2,0.4-0.3,0.7-0.3H401c0.3,0,0.5,0.1,0.7,0.3c0.2,0.2,0.3,0.4,0.3,0.7c0,0.3-0.1,0.5-0.3,0.7
				C401.6,288.7,401.3,288.9,401,288.9z"/>
			<path class="st11" d="M401,309.7h-62.1c-0.3,0-0.5-0.1-0.7-0.3c-0.2-0.2-0.3-0.4-0.3-0.7c0-0.3,0.1-0.5,0.3-0.7
				c0.2-0.2,0.4-0.3,0.7-0.3H401c0.3,0,0.5,0.1,0.7,0.3c0.2,0.2,0.3,0.4,0.3,0.7c0,0.3-0.1,0.5-0.3,0.7
				C401.6,309.6,401.3,309.7,401,309.7z"/>
			<path class="st11" d="M372.4,299.3h-33.5c-0.3,0-0.5-0.1-0.7-0.3c-0.2-0.2-0.3-0.4-0.3-0.7c0-0.3,0.1-0.5,0.3-0.7
				c0.2-0.2,0.4-0.3,0.7-0.3h33.5c0.3,0,0.5,0.1,0.7,0.3c0.2,0.2,0.3,0.4,0.3,0.7c0,0.3-0.1,0.5-0.3,0.7
				C372.9,299.2,372.7,299.3,372.4,299.3z"/>
			<path class="st11" d="M372.4,320.8h-33.5c-0.3,0-0.5-0.1-0.7-0.3c-0.2-0.2-0.3-0.4-0.3-0.7c0-0.3,0.1-0.5,0.3-0.7
				c0.2-0.2,0.4-0.3,0.7-0.3h33.5c0.3,0,0.5,0.1,0.7,0.3c0.2,0.2,0.3,0.4,0.3,0.7c0,0.3-0.1,0.5-0.3,0.7
				C372.9,320.7,372.7,320.8,372.4,320.8z"/>
			<path class="st11" d="M361.5,330.7h-22.6c-0.3,0-0.5-0.1-0.7-0.3c-0.2-0.2-0.3-0.4-0.3-0.7c0-0.3,0.1-0.5,0.3-0.7
				c0.2-0.2,0.4-0.3,0.7-0.3h22.6c0.3,0,0.5,0.1,0.7,0.3c0.2,0.2,0.3,0.4,0.3,0.7c0,0.3-0.1,0.5-0.3,0.7
				C362,330.6,361.8,330.7,361.5,330.7z"/>
		</g>
		<g class="st13">
			<path class="st11" d="M147.4,189.9h-14.8c-0.3,0-0.5-0.1-0.7-0.3c-0.2-0.2-0.3-0.4-0.3-0.7s0.1-0.5,0.3-0.7
				c0.2-0.2,0.4-0.3,0.7-0.3h14.8c0.3,0,0.5,0.1,0.7,0.3c0.2,0.2,0.3,0.4,0.3,0.7s-0.1,0.5-0.3,0.7
				C147.9,189.8,147.7,189.9,147.4,189.9z"/>
			<path class="st11" d="M147.4,214.3h-14.8c-0.3,0-0.5-0.1-0.7-0.3c-0.2-0.2-0.3-0.4-0.3-0.7s0.1-0.5,0.3-0.7
				c0.2-0.2,0.4-0.3,0.7-0.3h14.8c0.3,0,0.5,0.1,0.7,0.3c0.2,0.2,0.3,0.4,0.3,0.7s-0.1,0.5-0.3,0.7
				C147.9,214.2,147.7,214.3,147.4,214.3z"/>
			<path class="st11" d="M158.1,238.9H67.7c-0.7,0-1.4-0.3-1.9-0.8c-0.5-0.5-0.8-1.2-0.8-1.9v-75.7c0-0.7,0.3-1.4,0.8-1.9
				c0.5-0.5,1.2-0.8,1.9-0.8h90.4c0.7,0,1.4,0.3,1.9,0.8c0.5,0.5,0.8,1.2,0.8,1.9v75.7c0,0.7-0.3,1.4-0.8,1.9
				C159.5,238.6,158.8,238.9,158.1,238.9z M67.7,159.8c-0.2,0-0.4,0.1-0.5,0.2c-0.1,0.1-0.2,0.3-0.2,0.5v75.7c0,0.2,0.1,0.4,0.2,0.5
				c0.1,0.1,0.3,0.2,0.5,0.2h90.4c0.2,0,0.4-0.1,0.5-0.2c0.1-0.1,0.2-0.3,0.2-0.5v-75.7c0-0.2-0.1-0.4-0.2-0.5
				c-0.1-0.1-0.3-0.2-0.5-0.2H67.7z"/>
			<path class="st14" d="M158.1,238.9H67.7c-0.7,0-1.4-0.3-1.9-0.8c-0.5-0.5-0.8-1.2-0.8-1.9v-75.7c0-0.7,0.3-1.4,0.8-1.9
				c0.5-0.5,1.2-0.8,1.9-0.8h90.4c0.7,0,1.4,0.3,1.9,0.8c0.5,0.5,0.8,1.2,0.8,1.9v75.7c0,0.7-0.3,1.4-0.8,1.9
				C159.5,238.6,158.8,238.9,158.1,238.9z M67.7,159.8c-0.2,0-0.4,0.1-0.5,0.2c-0.1,0.1-0.2,0.3-0.2,0.5v75.7c0,0.2,0.1,0.4,0.2,0.5
				c0.1,0.1,0.3,0.2,0.5,0.2h90.4c0.2,0,0.4-0.1,0.5-0.2c0.1-0.1,0.2-0.3,0.2-0.5v-75.7c0-0.2-0.1-0.4-0.2-0.5
				c-0.1-0.1-0.3-0.2-0.5-0.2H67.7z"/>
			<path class="st11" d="M147.4,178.1H76.9c-0.3,0-0.5-0.1-0.7-0.3c-0.2-0.2-0.3-0.4-0.3-0.7s0.1-0.5,0.3-0.7
				c0.2-0.2,0.4-0.3,0.7-0.3h70.5c0.3,0,0.5,0.1,0.7,0.3c0.2,0.2,0.3,0.4,0.3,0.7s-0.1,0.5-0.3,0.7
				C147.9,178,147.7,178.1,147.4,178.1L147.4,178.1z"/>
			<path class="st11" d="M147.4,201.7H76.9c-0.3,0-0.5-0.1-0.7-0.3c-0.2-0.2-0.3-0.4-0.3-0.7s0.1-0.5,0.3-0.7
				c0.2-0.2,0.4-0.3,0.7-0.3h70.5c0.3,0,0.5,0.1,0.7,0.3c0.2,0.2,0.3,0.4,0.3,0.7s-0.1,0.5-0.3,0.7
				C147.9,201.6,147.7,201.7,147.4,201.7L147.4,201.7z"/>
			<path class="st11" d="M114.9,189.9h-38c-0.3,0-0.5-0.1-0.7-0.3c-0.2-0.2-0.3-0.4-0.3-0.7s0.1-0.5,0.3-0.7
				c0.2-0.2,0.4-0.3,0.7-0.3h38c0.3,0,0.5,0.1,0.7,0.3c0.2,0.2,0.3,0.4,0.3,0.7s-0.1,0.5-0.3,0.7
				C115.4,189.8,115.2,189.9,114.9,189.9z"/>
			<path class="st11" d="M114.9,214.3h-38c-0.3,0-0.5-0.1-0.7-0.3c-0.2-0.2-0.3-0.4-0.3-0.7s0.1-0.5,0.3-0.7
				c0.2-0.2,0.4-0.3,0.7-0.3h38c0.3,0,0.5,0.1,0.7,0.3c0.2,0.2,0.3,0.4,0.3,0.7s-0.1,0.5-0.3,0.7
				C115.4,214.2,115.2,214.3,114.9,214.3z"/>
			<path class="st11" d="M102.6,225.6H76.9c-0.3,0-0.5-0.1-0.7-0.3c-0.2-0.2-0.3-0.4-0.3-0.7s0.1-0.5,0.3-0.7
				c0.2-0.2,0.4-0.3,0.7-0.3h25.6c0.3,0,0.5,0.1,0.7,0.3c0.2,0.2,0.3,0.4,0.3,0.7s-0.1,0.5-0.3,0.7
				C103.1,225.5,102.8,225.6,102.6,225.6L102.6,225.6z"/>
		</g>
	</g>
</g>
<g>
	<defs>
		<rect id="SVGID_00000009567453842767311530000016518712681038727607_" x="68" y="151" width="362.7" height="195.8"/>
	</defs>
	<clipPath id="SVGID_00000083080344369159848500000006348180190341991071_">
		<use xlink:href="#SVGID_00000009567453842767311530000016518712681038727607_"  style="overflow:visible;"/>
	</clipPath>
	<g style="clip-path:url(#SVGID_00000083080344369159848500000006348180190341991071_);">
		<path class="st16" d="M425.6,151h-45c-1,0-2,0.4-2.8,1.1c-0.8,0.7-1.4,1.6-1.6,2.6l-1.5,4.9c-0.2,1-0.8,1.9-1.6,2.6
			c-0.8,0.7-1.8,1-2.8,1.1h-64.3c-2.6,0-4.7,2.4-4.7,5.5v72.8c0,3,2.1,5.4,4.7,5.4h119.7c1.4-0.1,2.7-0.7,3.6-1.7
			c0.9-1,1.4-2.4,1.4-3.8v-85.1c0.1-1.4-0.4-2.7-1.4-3.7C428.3,151.7,427,151.1,425.6,151z"/>
		<path class="st17" d="M379.8,164l1.6-4.9c0.3-1,0.9-1.9,1.8-2.6c0.9-0.7,1.9-1,3-1.1h39.6c1.4,0.1,2.7,0.7,3.6,1.7
			c0.9,1,1.4,2.4,1.4,3.8V246c0.1,1.4-0.4,2.7-1.4,3.8c-0.9,1-2.2,1.6-3.6,1.7H306.3c-1.4-0.1-2.7-0.7-3.6-1.7
			c-0.9-1-1.4-2.4-1.4-3.8v-72.8c-0.1-1.4,0.4-2.7,1.4-3.8c0.9-1,2.2-1.6,3.6-1.7H375c1.1,0,2.1-0.4,3-1
			C378.8,166,379.4,165.1,379.8,164z"/>
		<path class="st17" d="M382.7,169.1l1.5-4.7c0.3-1,0.9-1.8,1.7-2.5c0.8-0.6,1.8-1,2.8-1h37.3c1.3,0.1,2.5,0.6,3.4,1.6
			c0.9,1,1.4,2.2,1.3,3.5v80.2c0,1.3-0.4,2.6-1.3,3.5c-0.9,1-2.1,1.5-3.4,1.6H313.4c-1.3-0.1-2.5-0.6-3.4-1.6
			c-0.9-1-1.4-2.2-1.3-3.5v-68.7c0-1.3,0.4-2.6,1.3-3.5s2.1-1.5,3.4-1.6h64.8c1,0,2-0.4,2.8-1C381.8,170.9,382.4,170,382.7,169.1z"
			/>
		<path class="st11" d="M417,245.3h-29.5c-0.3,0-0.5-0.1-0.7-0.3c-0.2-0.2-0.3-0.4-0.3-0.7s0.1-0.5,0.3-0.7c0.2-0.2,0.4-0.3,0.7-0.3
			H417c0.9,0,1.8-0.4,2.4-1c0.6-0.6,1-1.5,1-2.4v-23.4c0-0.3,0.1-0.5,0.3-0.7c0.2-0.2,0.4-0.3,0.7-0.3s0.5,0.1,0.7,0.3
			c0.2,0.2,0.3,0.4,0.3,0.7v23.4c0,1.4-0.6,2.8-1.6,3.9C419.9,244.7,418.5,245.3,417,245.3z"/>
		<path d="M73.1,233.9h45.2c2,0,3.8,1.6,4.5,4.1l1.5,5.6c0.7,2.5,2.5,4.1,4.5,4.1h64.8c2.6,0,4.8,2.8,4.8,6.1v81.9
			c0,3.4-2.1,6.1-4.8,6.1H73.1c-2.8,0-5.1-2.7-5.1-6.1V240C68,236.6,70.3,233.9,73.1,233.9z"/>
		<path class="st18" d="M119.3,248.5l-1.6-5.6c-0.2-1.1-0.8-2.1-1.7-2.9s-1.9-1.2-3.1-1.3H73.1c-2.8,0-5.1,2.7-5.1,6.1v95.7
			c0,3.4,2.3,6.1,5.1,6.1h120.2c2.8,0,5.1-2.7,5.1-6.1v-82c0-3.4-2.3-6.1-5.1-6.1h-69.1c-1.1-0.1-2.2-0.5-3.1-1.3
			C120.1,250.6,119.5,249.6,119.3,248.5z"/>
		<path class="st18" d="M116.3,254.2l-1.5-5.2c-0.2-1.1-0.8-2-1.6-2.7c-0.8-0.7-1.8-1.1-2.9-1.2H72.8c-2.6,0-4.8,2.6-4.8,5.8V341
			c0,3.2,2.1,5.8,4.8,5.8H186c2.6,0,4.8-2.6,4.8-5.8v-77.2c0-3.2-2.1-5.8-4.8-5.8h-65.1c-1.1-0.1-2.1-0.5-2.9-1.2
			C117.1,256.2,116.6,255.2,116.3,254.2z"/>
		<path class="st11" d="M77.2,269c-0.2,0-0.5-0.1-0.6-0.3c-0.2-0.2-0.3-0.4-0.3-0.7v-13.9c0-0.8,0.2-1.7,0.8-2.3
			c0.6-0.6,1.3-1,2.2-1.1H98c0.3,0,0.5,0.1,0.7,0.3c0.2,0.2,0.3,0.4,0.3,0.7s-0.1,0.5-0.3,0.7c-0.2,0.2-0.4,0.3-0.7,0.3H79.4
			c-0.4,0-0.7,0.2-0.9,0.4c-0.2,0.3-0.4,0.6-0.3,1V268c0,0.2-0.1,0.5-0.3,0.7C77.7,268.9,77.5,269,77.2,269z"/>
	</g>
</g>
<g>
	<path class="st19" d="M316.4,112.8H187.9c-21.3,0-38.6,17.3-38.6,38.6s17.3,38.6,38.6,38.6h128.5c21.3,0,38.6-17.3,38.6-38.6
		S337.7,112.8,316.4,112.8z"/>
	<path class="st20" d="M252.1,173.1c30,0,54.3-24.3,54.3-54.3c0-30-24.3-54.3-54.3-54.3s-54.3,24.3-54.3,54.3
		C197.8,148.7,222.1,173.1,252.1,173.1z"/>
	<path class="st21" d="M316.4,101.4H187.9c-21.3,0-38.6,17.3-38.6,38.6s17.3,38.6,38.6,38.6h128.5c21.3,0,38.6-17.3,38.6-38.6
		S337.7,101.4,316.4,101.4z"/>
	<path class="st21" d="M273.6,157.2c27.6-11.9,40.3-43.8,28.4-71.4c-11.9-27.6-43.8-40.3-71.4-28.4c-27.6,11.9-40.3,43.8-28.4,71.4
		C214.1,156.4,246.1,169.1,273.6,157.2z"/>
	<g>
		<path class="st22" d="M316.4,101.4H187.9c-21.3,0-38.6,17.3-38.6,38.6s17.3,38.6,38.6,38.6h128.5c21.3,0,38.6-17.3,38.6-38.6
			S337.7,101.4,316.4,101.4z"/>
		<path class="st22" d="M273.6,157.2c27.6-11.9,40.3-43.8,28.4-71.4c-11.9-27.6-43.8-40.3-71.4-28.4c-27.6,11.9-40.3,43.8-28.4,71.4
			C214.1,156.4,246.1,169.1,273.6,157.2z"/>
	</g>
	<g>
		<defs>
			<rect id="SVGID_00000095307717692328164350000011313027933075817378_" x="210" y="84" width="85" height="76"/>
		</defs>
		<clipPath id="SVGID_00000021831133517169626670000015051328817747302805_">
			<use xlink:href="#SVGID_00000095307717692328164350000011313027933075817378_"  style="overflow:visible;"/>
		</clipPath>
		<g style="clip-path:url(#SVGID_00000021831133517169626670000015051328817747302805_);">
			<path class="st24" d="M266.5,113.1c-1.4-1.4-3.1-2.1-5.1-2.1c-2,0-3.7,0.7-5.1,2.1c-1.4,1.4-2.2,3.1-2.2,5c0,2,0.7,3.7,2.2,5.1
				c1.4,1.4,3.1,2.2,5.1,2.2c2,0,3.7-0.7,5.1-2.2c1.4-1.4,2.1-3.1,2.1-5.1C268.6,116.1,267.9,114.5,266.5,113.1z M266.5,113.1
				c-1.4-1.4-3.1-2.1-5.1-2.1c-2,0-3.7,0.7-5.1,2.1c-1.4,1.4-2.2,3.1-2.2,5c0,2,0.7,3.7,2.2,5.1c1.4,1.4,3.1,2.2,5.1,2.2
				c2,0,3.7-0.7,5.1-2.2c1.4-1.4,2.1-3.1,2.1-5.1C268.6,116.1,267.9,114.5,266.5,113.1z M285.8,101.8c-1.4-1.4-3.1-2.1-5.1-2.1
				h-46.1c-2,0-3.7,0.7-5.1,2.1c-1.4,1.4-2.1,3.1-2.1,5v46c0,2,0.7,3.6,2.1,5c1.4,1.4,3.1,2.1,5.1,2.1h44.3c-2-2-3.2-4.8-3.2-7.9
				c0-4.1,2.2-7.7,5.4-9.7l-8.5-8.5l-11,10.5l-19-18l-13.2,13.2l0-32.7c0-2.9,2.3-5.2,5.2-5.2h46.1c2.9,0,5.2,2.3,5.2,5.2l0,34
				c0.4,0,0.8-0.1,1.2-0.1c0.2,0,0.5,0,0.7,0v-33.9C287.9,104.9,287.2,103.2,285.8,101.8z M256.3,113.1c-1.4,1.4-2.2,3.1-2.2,5
				c0,2,0.7,3.7,2.2,5.1c1.4,1.4,3.1,2.2,5.1,2.2c2,0,3.7-0.7,5.1-2.2c1.4-1.4,2.1-3.1,2.1-5.1c0-2-0.7-3.6-2.1-5
				c-1.4-1.4-3.1-2.1-5.1-2.1C259.5,111,257.8,111.7,256.3,113.1z"/>
			<path class="st24" d="M262.2,87.2c-0.8-1.9-2.7-3.1-4.6-3.1c-0.6,0-1.3,0.1-1.9,0.4l-42.6,17.7c-2.6,1.1-3.8,4-2.7,6.5l17.8,42.5
				c0.1,0.1,0.1,0.3,0.2,0.4v-4.8L212.1,108c-0.7-1.6,0.1-3.4,1.7-4.1l42.6-17.7c0.4-0.2,0.8-0.2,1.2-0.2c1.3,0,2.4,0.8,2.9,1.9
				l5.3,12.8l2-0.1L262.2,87.2z"/>
			<path class="st24" d="M289.4,144.5c-0.7-0.2-1.5-0.3-2.3-0.3c-4.4,0-7.9,3.5-7.9,7.9c0,1.3,0.3,2.5,0.9,3.6c1.3,2.5,4,4.3,7,4.3
				c4.4,0,7.9-3.5,7.9-7.9C295,148.5,292.6,145.5,289.4,144.5z M287.1,146.8l2.1,3.6h-1.6l0,3.7h-1.1v-3.7H285L287.1,146.8z
				 M290.3,156.8H284v-1h6.3V156.8z"/>
		</g>
	</g>
	<path class="st25" d="M327.7,316.2l-136.3,45c-1.6,0.5-3.3,0.4-4.8-0.4c-1.5-0.7-2.6-2.1-3.2-3.6l-45-136.3
		c-0.5-1.6-0.4-3.3,0.4-4.8c0.7-1.5,2.1-2.6,3.6-3.2l136.3-45c1.6-0.5,3.3-0.4,4.8,0.4c1.5,0.7,2.6,2.1,3.2,3.6l45,136.3
		c0.5,1.6,0.4,3.3-0.4,4.8C330.6,314.5,329.3,315.6,327.7,316.2z"/>
	<path class="st11" d="M268.7,162.8l-136.3,45c-3.3,1.1-5.1,4.7-4,8l45,136.3c1.1,3.3,4.7,5.1,8,4l136.3-45c3.3-1.1,5.1-4.7,4-8
		l-45-136.3C275.6,163.5,272,161.7,268.7,162.8z"/>
	<path class="st19" d="M266.2,177.6l-123.1,40.7l40.7,123.1l123.1-40.7L266.2,177.6z"/>
	<path class="st26" d="M182.7,342.4l-9.2-27.9l13.5-32.5c0.9-2.2,2.6-3.9,4.7-4.9c2.1-1,4.5-1.2,6.8-0.5l24.9,7.7
		c0.7,0.2,1.5,0.2,2.2-0.1c0.7-0.3,1.3-0.8,1.7-1.4l20.8-34.6c2.2-3.6,5.5-6.2,9.5-7.5c4-1.3,8.2-1.1,12.1,0.5l22.9,9.8l0.2,0.6
		l16.1,48.8l-1.4,0.5L182.7,342.4z M176.7,314.6l7.9,24l120.3-39.7l-15-45.3l-21.6-9.3c-3.2-1.3-6.7-1.5-10-0.5
		c-3.3,1.1-6,3.2-7.8,6.2l-20.8,34.5c-0.7,1.2-1.8,2.2-3.2,2.7c-1.3,0.5-2.8,0.5-4.1,0.1l-24.9-7.8c-1.5-0.5-3.2-0.4-4.6,0.3
		c-1.4,0.7-2.6,1.9-3.2,3.3L176.7,314.6z"/>
	<path class="st26" d="M223.8,246.4c-4,0-7.9-1.5-10.9-4.2c-3-2.7-4.8-6.5-5.1-10.5c-0.3-4,0.9-8,3.4-11.2c2.5-3.2,6.1-5.3,10-5.9
		c4-0.6,8,0.2,11.4,2.5c3.4,2.2,5.7,5.6,6.7,9.5c1,3.9,0.4,8-1.5,11.6c-1.9,3.5-5.2,6.2-9,7.4C227.2,246.1,225.5,246.4,223.8,246.4z
		 M223.8,217.5c-1.4,0-2.7,0.2-4,0.7c-3.1,1-5.7,3.2-7.3,6c-1.6,2.9-2,6.2-1.2,9.4c0.8,3.2,2.7,5.9,5.4,7.7c2.7,1.8,6,2.5,9.2,2
		c3.2-0.5,6.1-2.3,8.1-4.8c2-2.6,3-5.8,2.7-9c-0.3-3.2-1.8-6.3-4.2-8.5C230.2,218.7,227,217.5,223.8,217.5z"/>
	<path class="st25" d="M368.8,221.6H262.4c-3.5,0-6.4,2.8-6.4,6.4v106.4c0,3.5,2.8,6.4,6.4,6.4h106.4c3.5,0,6.4-2.8,6.4-6.4V227.9
		C375.1,224.4,372.3,221.6,368.8,221.6z"/>
	<path class="st11" d="M362.7,215.5H256.3c-3.5,0-6.4,2.8-6.4,6.4v106.4c0,3.5,2.8,6.4,6.4,6.4h106.4c3.5,0,6.4-2.8,6.4-6.4V221.9
		C369.1,218.4,366.2,215.5,362.7,215.5z"/>
	<path class="st27" d="M358.9,225.7H260v98.9h98.9V225.7z"/>
	<path class="st26" d="M360.5,325.4H258.7v-22.9l17.6-20.4c1.2-1.4,2.9-2.3,4.8-2.5c1.8-0.2,3.7,0.3,5.2,1.3l16.2,11.6
		c0.4,0.3,0.9,0.4,1.4,0.4c0.5,0,1-0.2,1.3-0.5l23.3-20c2.5-2.1,5.6-3.3,8.9-3.2c3.3,0,6.4,1.2,8.8,3.4l14.3,12.7L360.5,325.4z
		 M261.7,322.4h95.9v-35.9l-13.3-11.8c-1.9-1.7-4.3-2.6-6.9-2.6c-2.5,0-5,0.9-6.9,2.5l-23.3,20c-0.9,0.8-2,1.2-3.1,1.3
		c-1.2,0.1-2.3-0.3-3.2-1l-16.2-11.6c-0.9-0.6-2-0.9-3.1-0.8c-1.1,0.1-2.1,0.7-2.9,1.5l-16.9,19.5L261.7,322.4z"/>
	<path class="st26" d="M315.5,266.3c-2.5,0-4.9-0.7-7-2.1c-2.1-1.4-3.7-3.3-4.6-5.6c-0.9-2.3-1.2-4.8-0.7-7.2
		c0.5-2.4,1.7-4.7,3.4-6.4c1.8-1.8,4-2.9,6.4-3.4c2.4-0.5,5-0.2,7.2,0.7c2.3,0.9,4.2,2.6,5.6,4.6c1.4,2.1,2.1,4.5,2.1,7
		c0,3.3-1.3,6.5-3.7,8.8C322,265,318.9,266.3,315.5,266.3z M315.5,244.3c-1.9,0-3.7,0.6-5.3,1.6c-1.6,1-2.8,2.5-3.5,4.3
		s-0.9,3.7-0.5,5.5c0.4,1.8,1.3,3.5,2.6,4.9c1.3,1.3,3,2.2,4.9,2.6c1.8,0.4,3.8,0.2,5.5-0.5c1.7-0.7,3.2-1.9,4.3-3.5
		c1-1.6,1.6-3.4,1.6-5.3c0-2.5-1-4.9-2.8-6.7C320.5,245.3,318.1,244.3,315.5,244.3z"/>
	<path class="st25" d="M265.8,278.8l-60.2,22.5c-3.3,1.2-5,4.9-3.7,8.2l22.5,60.2c1.2,3.3,4.9,5,8.2,3.7l60.2-22.5
		c3.3-1.2,5-4.9,3.7-8.2L274,282.6C272.8,279.3,269.1,277.6,265.8,278.8z"/>
	<path class="st11" d="M264.5,278.9l-60.4,22.5c-3.3,1.2-5,4.9-3.8,8.2l22.5,60.4c1.2,3.3,4.9,5,8.2,3.8l60.4-22.5
		c3.3-1.2,5-4.9,3.8-8.2l-22.5-60.4C271.5,279.3,267.8,277.6,264.5,278.9z"/>
	<path class="st22" d="M266.8,284.8L207,307.2l22.4,59.8l59.8-22.4L266.8,284.8z"/>
	<path class="st26" d="M227.5,369.5l-5.4-14.5l6.1-16.5c0.5-1.3,1.4-2.3,2.6-2.9c1.2-0.6,2.6-0.8,3.9-0.4l12.4,3.3
		c0.2,0.1,0.4,0,0.6,0c0.2-0.1,0.3-0.2,0.4-0.4l9.6-17.4c1.1-2,2.8-3.4,4.9-4.2c2.1-0.8,4.4-0.8,6.5,0l11.8,4.5l9.4,25L227.5,369.5z
		 M225.3,355l4,10.7l57-21.4l-7.9-21l-10.5-4c-1.4-0.5-3-0.5-4.4,0c-1.4,0.5-2.6,1.5-3.3,2.8l-9.6,17.4c-0.4,0.8-1.1,1.4-1.9,1.7
		c-0.8,0.3-1.7,0.4-2.5,0.2l-12.4-3.3c-0.6-0.2-1.2-0.1-1.7,0.2c-0.5,0.3-0.9,0.7-1.1,1.3L225.3,355z"/>
	<path class="st26" d="M246,321.2c-1.6,0-3.1-0.4-4.5-1.2c-1.3-0.8-2.4-2-3.2-3.4c-0.7-1.4-1.1-3-1-4.5c0.1-1.6,0.6-3.1,1.5-4.4
		c0.9-1.3,2.1-2.3,3.6-3c1.4-0.6,3-0.9,4.6-0.7c1.6,0.2,3,0.8,4.3,1.8c1.2,1,2.2,2.3,2.7,3.7c0.5,1.3,0.7,2.7,0.5,4.1
		c-0.2,1.4-0.7,2.7-1.5,3.8s-1.9,2.1-3.1,2.7C248.8,320.9,247.4,321.2,246,321.2z M246,307c-1.2,0-2.4,0.4-3.3,1.1
		c-1,0.7-1.7,1.7-2,2.9c-0.4,1.1-0.3,2.4,0.1,3.5c0.4,1.1,1.1,2.1,2.1,2.8c1,0.7,2.2,1,3.4,1c1.2,0,2.4-0.5,3.3-1.2
		c0.9-0.7,1.6-1.8,2-2.9c0.3-1.2,0.3-2.4-0.2-3.5c-0.4-1.1-1.1-2-2.1-2.7C248.3,307.3,247.1,307,246,307L246,307z"/>
</g>
</svg>
