<?xml version="1.0" encoding="utf-8"?>
<!-- Generator: Adobe Illustrator 26.0.0, SVG Export Plug-In . SVG Version: 6.00 Build 0)  -->
<svg version="1.1" id="Layer_1" xmlns="http://www.w3.org/2000/svg" xmlns:xlink="http://www.w3.org/1999/xlink" x="0px" y="0px"
	 viewBox="0 0 586 375" style="enable-background:new 0 0 586 375;" xml:space="preserve">
<style type="text/css">
	.st0{fill:#FFFFFF;stroke:#DADBE2;stroke-miterlimit:10;}
	.st1{fill:#FFFFFF;}
	.st2{fill:none;stroke:#DADBE2;stroke-miterlimit:10;}
	.st3{fill:#1DA69A;}
	.st4{fill:none;stroke:#1DA69A;}
	.st5{fill:#DADBE2;}
	.st6{fill:#EDEDED;}
	.st7{fill:#C8C8C8;}
	.st8{fill:#FA8617;}
</style>
<g>
	<g>
		<path class="st0" d="M223.5,368.8h299.4c8.7,0,15.7-7,15.7-15.7V20.8c0-8.7-7-15.7-15.7-15.7H223.5c-8.7,0-15.7,7-15.7,15.7V353
			C207.8,361.7,214.8,368.8,223.5,368.8z"/>
	</g>
	<g>
		<path class="st1" d="M22.6,231.9h103.1c8.7,0,15.7-7,15.7-15.7V67.8c0-8.7-7-15.7-15.7-15.7H22.6c-8.7,0-15.7,7-15.7,15.7v148.4
			C6.9,224.8,14,231.9,22.6,231.9z"/>
	</g>
	<rect x="202" y="24.1" class="st1" width="14.1" height="14.1"/>
	<path class="st2" d="M207.7,30.9h-24.1c-5.2,0-9.3,4.2-9.4,9.3l-0.3,86.5c0,5.2-4.2,9.3-9.3,9.3h-23.2"/>
	<path class="st3" d="M211.1,36c2.7,0,4.9-2.2,4.9-4.9s-2.2-4.9-4.9-4.9c-2.7,0-4.9,2.2-4.9,4.9S208.4,36,211.1,36z"/>
	<path class="st4" d="M136.5,140.6c2.7,0,4.9-2.2,4.9-4.9c0-2.7-2.2-4.9-4.9-4.9c-2.7,0-4.9,2.2-4.9,4.9
		C131.5,138.4,133.7,140.6,136.5,140.6z"/>
	<path class="st5" d="M325.7,210h187.2c2.3,0,4.1-1.8,4.1-4.1v-10.8c0-2.3-1.8-4.1-4.1-4.1H325.7c-2.3,0-4.1,1.8-4.1,4.1v10.8
		C321.5,208.1,323.4,210,325.7,210z"/>
	<path class="st3" d="M332.3,202h128.8c1.2,0,2.2-0.5,2.2-1.2v-1.6c0-0.7-1-1.2-2.2-1.2H332.3c-1.2,0-2.2,0.5-2.2,1.2v1.6
		C330.1,201.5,331.1,202,332.3,202z"/>
	<path class="st5" d="M325.7,244h187.2c2.3,0,4.1-1.8,4.1-4.1v-10.8c0-2.3-1.8-4.1-4.1-4.1H325.7c-2.3,0-4.1,1.8-4.1,4.1v10.8
		C321.5,242.1,323.4,244,325.7,244z"/>
	<path class="st3" d="M332.3,237h128.8c1.2,0,2.2-0.5,2.2-1.2v-1.6c0-0.7-1-1.2-2.2-1.2H332.3c-1.2,0-2.2,0.5-2.2,1.2v1.6
		C330.1,236.5,331.1,237,332.3,237z"/>
	<path class="st5" d="M325.7,279h187.2c2.3,0,4.1-1.8,4.1-4.1v-10.8c0-2.3-1.8-4.1-4.1-4.1H325.7c-2.3,0-4.1,1.8-4.1,4.1v10.8
		C321.5,277.1,323.4,279,325.7,279z"/>
	<path class="st3" d="M332.3,271h128.8c1.2,0,2.2-0.5,2.2-1.2v-1.6c0-0.7-1-1.2-2.2-1.2H332.3c-1.2,0-2.2,0.5-2.2,1.2v1.6
		C330.1,270.5,331.1,271,332.3,271z"/>
	<path class="st5" d="M325.7,312h187.2c2.3,0,4.1-1.8,4.1-4.1v-10.8c0-2.3-1.8-4.1-4.1-4.1H325.7c-2.3,0-4.1,1.8-4.1,4.1v10.8
		C321.5,310.1,323.4,312,325.7,312z"/>
	<path class="st3" d="M332.3,305h128.8c1.2,0,2.2-0.5,2.2-1.2v-1.6c0-0.7-1-1.2-2.2-1.2H332.3c-1.2,0-2.2,0.5-2.2,1.2v1.6
		C330.1,304.5,331.1,305,332.3,305z"/>
	<path class="st5" d="M325.7,347h187.2c2.3,0,4.1-1.8,4.1-4.1v-10.8c0-2.3-1.8-4.1-4.1-4.1H325.7c-2.3,0-4.1,1.8-4.1,4.1v10.8
		C321.5,345.1,323.4,347,325.7,347z"/>
	<path class="st3" d="M332.3,340h128.8c1.2,0,2.2-0.5,2.2-1.2v-1.6c0-0.7-1-1.2-2.2-1.2H332.3c-1.2,0-2.2,0.5-2.2,1.2v1.6
		C330.1,339.5,331.1,340,332.3,340z"/>
	<path class="st5" d="M324.3,176h187.2c2.3,0,4.1-1.8,4.1-4.1v-10.8c0-2.3-1.8-4.1-4.1-4.1H324.3c-2.3,0-4.1,1.8-4.1,4.1v10.8
		C320.2,174.1,322,176,324.3,176z"/>
	<path class="st3" d="M331,168h128.8c1.2,0,2.2-0.5,2.2-1.2v-1.6c0-0.7-1-1.2-2.2-1.2H331c-1.2,0-2.2,0.5-2.2,1.2v1.6
		C328.8,167.5,329.7,168,331,168z"/>
	<path class="st6" d="M322.8,84.8H510c2.3,0,4.1-1.8,4.1-4.1V69.9c0-2.3-1.8-4.1-4.1-4.1H322.8c-2.3,0-4.1,1.8-4.1,4.1v10.7
		C318.6,83,320.5,84.8,322.8,84.8z"/>
	<path class="st7" d="M329.4,78.9h128.8c1.2,0,2.2-1,2.2-2.2v-2.8c0-1.2-1-2.2-2.2-2.2H329.4c-1.2,0-2.2,1-2.2,2.2v2.8
		C327.2,77.9,328.2,78.9,329.4,78.9z"/>
	<path class="st5" d="M325.7,142h187.2c2.3,0,4.1-1.8,4.1-4.1v-10.7c0-2.3-1.8-4.1-4.1-4.1H325.7c-2.3,0-4.1,1.8-4.1,4.1v10.8
		C321.5,140.1,323.4,142,325.7,142z"/>
	<path class="st3" d="M332.3,134h128.8c1.2,0,2.2-0.5,2.2-1.2v-1.6c0-0.7-1-1.2-2.2-1.2H332.3c-1.2,0-2.2,0.5-2.2,1.2v1.6
		C330.1,133.5,331.1,134,332.3,134z"/>
	<path class="st5" d="M322.8,85H510c2.3,0,4.1-1.8,4.1-4.1V70.1c0-2.3-1.8-4.1-4.1-4.1H322.8c-2.3,0-4.1,1.8-4.1,4.1v10.7
		C318.6,83.1,320.5,85,322.8,85z"/>
	<path class="st3" d="M329.4,77h128.8c1.2,0,2.2-0.5,2.2-1.2v-1.6c0-0.7-1-1.2-2.2-1.2H329.4c-1.2,0-2.2,0.5-2.2,1.2v1.6
		C327.2,76.5,328.2,77,329.4,77z"/>
	<path class="st5" d="M228.9,74.6h1.7l3.3,5.9v-5.9h1.6v8.9h-1.7l-3.3-5.9v5.9h-1.6V74.6z"/>
	<path class="st5" d="M237.5,83.1c-0.4-0.3-0.5-0.8-0.5-1.4c0-0.6,0.2-1.1,0.7-1.5c0.5-0.4,1.1-0.6,2-0.6h1.1v-0.3
		c0-0.3-0.1-0.5-0.3-0.7c-0.2-0.2-0.5-0.2-0.8-0.2c-0.6,0-0.9,0.2-1.1,0.7l-1.3-0.3c0.1-0.5,0.4-1,0.8-1.3c0.4-0.3,1-0.5,1.6-0.5
		c0.9,0,1.5,0.2,2,0.7c0.5,0.5,0.7,1.1,0.7,2v3.8h-1.3l-0.2-0.8c-0.5,0.6-1.1,0.9-2,0.9C238.4,83.6,237.9,83.4,237.5,83.1z
		 M240.4,81.9c0.3-0.2,0.4-0.6,0.4-1v-0.1h-1c-0.3,0-0.6,0.1-0.8,0.2c-0.2,0.1-0.3,0.3-0.3,0.6c0,0.2,0.1,0.3,0.2,0.5
		c0.1,0.1,0.3,0.2,0.5,0.2C239.7,82.2,240.1,82.1,240.4,81.9z"/>
	<path class="st5" d="M244,77.1h1.6v1c0.2-0.4,0.5-0.7,0.8-0.8c0.3-0.2,0.6-0.3,1-0.3c0.4,0,0.8,0.1,1.1,0.3c0.3,0.2,0.6,0.6,0.7,1
		c0.2-0.4,0.5-0.7,0.9-1c0.3-0.2,0.7-0.3,1.1-0.3c0.6,0,1.1,0.2,1.4,0.5c0.3,0.3,0.5,0.8,0.5,1.4v4.5h-1.6v-4.3
		c0-0.6-0.3-0.9-0.8-0.9c-0.4,0-0.7,0.2-1,0.7c-0.3,0.5-0.4,1.1-0.4,2v2.5h-1.6v-4.3c0-0.6-0.3-0.9-0.8-0.9c-0.4,0-0.7,0.2-1,0.7
		c-0.3,0.5-0.4,1.2-0.4,2.1v2.3h-1.6L244,77.1L244,77.1z"/>
	<path class="st5" d="M255.8,83.1c-0.5-0.3-0.8-0.7-1-1.2c-0.2-0.5-0.3-1-0.3-1.6s0.1-1.1,0.3-1.6c0.2-0.5,0.6-0.9,1-1.2
		c0.5-0.3,1-0.5,1.7-0.5c0.7,0,1.2,0.2,1.7,0.5c0.4,0.3,0.8,0.7,1,1.2c0.2,0.5,0.3,1,0.3,1.5v0.6h-4.4c0,0.4,0.2,0.7,0.4,1
		c0.3,0.3,0.6,0.4,1.1,0.4c0.4,0,0.7-0.1,0.9-0.2c0.2-0.2,0.5-0.4,0.7-0.8l1.3,0.5c-0.3,0.6-0.6,1.1-1.1,1.4
		c-0.5,0.3-1.1,0.5-1.8,0.5C256.8,83.6,256.2,83.4,255.8,83.1z M258.8,79.5c-0.1-0.4-0.2-0.6-0.5-0.9c-0.2-0.2-0.5-0.3-0.9-0.3
		c-0.4,0-0.7,0.1-0.9,0.4c-0.2,0.2-0.4,0.5-0.5,0.9L258.8,79.5L258.8,79.5z"/>
	<path class="st5" d="M228.9,126.8h2.8c0.7,0,1.4,0.2,2,0.5c0.6,0.3,1.1,0.8,1.5,1.5s0.6,1.5,0.6,2.5c0,1-0.2,1.8-0.6,2.5
		c-0.4,0.7-0.9,1.2-1.5,1.5c-0.6,0.3-1.3,0.5-2,0.5h-2.8V126.8z M231.2,134.2c0.8,0,1.5-0.2,2.1-0.7c0.6-0.4,0.9-1.2,0.9-2.3
		c0-1.1-0.3-1.8-0.9-2.3c-0.6-0.4-1.3-0.7-2.1-0.7h-0.6v5.8H231.2z"/>
	<path class="st5" d="M238.3,135.3c-0.5-0.3-0.8-0.7-1-1.2c-0.2-0.5-0.3-1-0.3-1.6c0-0.5,0.1-1.1,0.3-1.6c0.2-0.5,0.6-0.9,1-1.2
		c0.5-0.3,1-0.5,1.7-0.5c0.7,0,1.2,0.2,1.7,0.5c0.4,0.3,0.8,0.7,1,1.2c0.2,0.5,0.3,1,0.3,1.5v0.6h-4.4c0,0.4,0.2,0.7,0.4,1
		c0.3,0.3,0.6,0.4,1.1,0.4c0.4,0,0.7-0.1,0.9-0.2c0.2-0.2,0.5-0.4,0.7-0.8l1.3,0.5c-0.3,0.6-0.6,1.1-1.1,1.4
		c-0.5,0.3-1.1,0.5-1.8,0.5C239.3,135.8,238.7,135.6,238.3,135.3z M241.4,131.8c-0.1-0.4-0.2-0.6-0.5-0.9c-0.2-0.2-0.5-0.3-0.9-0.3
		c-0.4,0-0.7,0.1-0.9,0.4c-0.2,0.2-0.4,0.5-0.5,0.9L241.4,131.8L241.4,131.8z"/>
	<path class="st5" d="M244.7,135.3c-0.4-0.3-0.7-0.7-0.9-1.2l1.3-0.7c0.1,0.3,0.3,0.6,0.5,0.8c0.2,0.2,0.5,0.3,0.8,0.3
		c0.2,0,0.4,0,0.6-0.1c0.2-0.1,0.2-0.3,0.2-0.5c0-0.2-0.1-0.4-0.3-0.5c-0.2-0.1-0.5-0.3-0.8-0.4c-0.1,0-0.1-0.1-0.3-0.1
		c-0.5-0.2-0.9-0.4-1.1-0.7c-0.3-0.3-0.4-0.7-0.4-1.1c0-0.3,0.1-0.6,0.3-0.9c0.2-0.3,0.4-0.5,0.7-0.6c0.3-0.2,0.7-0.2,1-0.2
		c0.4,0,0.8,0.1,1.2,0.3c0.4,0.2,0.6,0.4,0.8,0.8l-0.9,0.9c-0.3-0.4-0.6-0.6-1-0.6c-0.2,0-0.3,0-0.4,0.1c-0.1,0.1-0.2,0.2-0.2,0.4
		c0,0.2,0.1,0.3,0.3,0.4c0.2,0.1,0.5,0.3,1,0.5c0.5,0.2,0.9,0.4,1.1,0.7c0.3,0.3,0.4,0.7,0.4,1.1c0,0.6-0.2,1.1-0.6,1.5
		c-0.4,0.4-0.9,0.6-1.6,0.6C245.7,135.8,245.1,135.6,244.7,135.3z"/>
	<path class="st5" d="M250.8,135.3c-0.5-0.3-0.8-0.7-1.1-1.2c-0.2-0.5-0.4-1.1-0.4-1.7c0-0.6,0.1-1.2,0.4-1.7
		c0.2-0.5,0.6-0.9,1.1-1.2c0.5-0.3,1-0.4,1.7-0.4c0.7,0,1.3,0.2,1.8,0.5c0.5,0.3,0.9,0.8,1.1,1.4l-1.4,0.6c-0.2-0.3-0.4-0.6-0.6-0.8
		c-0.2-0.2-0.5-0.3-0.9-0.3c-0.5,0-0.8,0.2-1.1,0.5c-0.3,0.4-0.4,0.8-0.4,1.4c0,0.6,0.1,1.1,0.4,1.4c0.2,0.4,0.6,0.5,1.1,0.5
		c0.3,0,0.6-0.1,0.9-0.3c0.2-0.2,0.4-0.4,0.6-0.8l1.4,0.6c-0.2,0.6-0.6,1-1.1,1.4c-0.5,0.3-1.1,0.5-1.8,0.5
		C251.8,135.8,251.3,135.6,250.8,135.3z"/>
	<path class="st5" d="M256.7,129.3h1.6v1c0.2-0.4,0.5-0.6,0.8-0.8c0.3-0.2,0.7-0.3,1-0.3c0.2,0,0.5,0,0.8,0.1l-0.3,1.5
		c-0.2-0.1-0.4-0.2-0.7-0.2c-0.5,0-0.9,0.2-1.2,0.7c-0.3,0.5-0.5,1.2-0.5,2.1v2.3h-1.6L256.7,129.3L256.7,129.3z"/>
	<path class="st5" d="M262.1,128.2c-0.2-0.2-0.3-0.4-0.3-0.7c0-0.3,0.1-0.5,0.3-0.7c0.2-0.2,0.4-0.3,0.7-0.3s0.5,0.1,0.7,0.3
		c0.2,0.2,0.3,0.4,0.3,0.7c0,0.3-0.1,0.5-0.3,0.7c-0.2,0.2-0.4,0.3-0.7,0.3S262.3,128.4,262.1,128.2z M262,129.3h1.6v6.4H262V129.3z
		"/>
	<path class="st5" d="M265.4,129.3h1.6v0.7c0.1-0.2,0.3-0.4,0.6-0.5c0.3-0.2,0.6-0.2,1-0.2c0.9,0,1.7,0.3,2.2,0.9
		c0.5,0.6,0.8,1.4,0.8,2.4c0,1-0.3,1.8-0.8,2.4c-0.5,0.6-1.2,0.9-2.2,0.9c-0.3,0-0.6-0.1-0.9-0.2c-0.3-0.1-0.5-0.3-0.6-0.5v3.2h-1.6
		L265.4,129.3L265.4,129.3z M269.3,133.9c0.3-0.3,0.4-0.8,0.4-1.4c0-0.6-0.1-1.1-0.4-1.4c-0.3-0.3-0.6-0.5-1.1-0.5
		c-0.4,0-0.8,0.2-1.1,0.5c-0.3,0.3-0.4,0.8-0.4,1.4c0,0.6,0.1,1.1,0.4,1.4c0.3,0.3,0.6,0.5,1.1,0.5
		C268.7,134.4,269,134.3,269.3,133.9z"/>
	<path class="st5" d="M273.6,135.2c-0.4-0.4-0.6-1-0.6-1.8v-2.8h-1v-1.3h1v-1.6l1.6-1v2.6h1.7v1.3h-1.7v2.8c0,0.4,0.1,0.7,0.2,0.8
		c0.1,0.2,0.4,0.2,0.6,0.2c0.2,0,0.4-0.1,0.6-0.2l0.4,1.3c-0.3,0.2-0.7,0.2-1,0.2C274.6,135.8,274,135.6,273.6,135.2z"/>
	<path class="st5" d="M277.5,128.2c-0.2-0.2-0.3-0.4-0.3-0.7c0-0.3,0.1-0.5,0.3-0.7c0.2-0.2,0.4-0.3,0.7-0.3s0.5,0.1,0.7,0.3
		c0.2,0.2,0.3,0.4,0.3,0.7c0,0.3-0.1,0.5-0.3,0.7c-0.2,0.2-0.4,0.3-0.7,0.3S277.7,128.4,277.5,128.2z M277.4,129.3h1.6v6.4h-1.6
		V129.3z"/>
	<path class="st5" d="M281.9,135.4c-0.5-0.3-0.9-0.7-1.1-1.2c-0.3-0.5-0.4-1.1-0.4-1.7c0-0.6,0.1-1.2,0.4-1.7
		c0.3-0.5,0.6-0.9,1.1-1.2c0.5-0.3,1.1-0.4,1.7-0.4s1.2,0.1,1.7,0.4c0.5,0.3,0.9,0.7,1.1,1.2c0.3,0.5,0.4,1.1,0.4,1.7
		c0,0.6-0.1,1.2-0.4,1.7c-0.3,0.5-0.6,0.9-1.1,1.2c-0.5,0.3-1.1,0.4-1.7,0.4S282.4,135.6,281.9,135.4z M284.8,133.9
		c0.3-0.4,0.4-0.8,0.4-1.4c0-0.6-0.1-1-0.4-1.4c-0.3-0.4-0.7-0.6-1.2-0.6s-0.9,0.2-1.2,0.6c-0.3,0.4-0.4,0.8-0.4,1.4
		c0,0.6,0.1,1,0.4,1.4c0.3,0.4,0.7,0.6,1.2,0.6S284.5,134.2,284.8,133.9z"/>
	<path class="st5" d="M288.3,129.3h1.6v1c0.2-0.3,0.5-0.6,0.9-0.8c0.3-0.2,0.7-0.3,1.1-0.3c0.6,0,1.1,0.2,1.4,0.5
		c0.4,0.3,0.5,0.8,0.5,1.4v4.6h-1.6v-4.1c0-0.4-0.1-0.6-0.2-0.8c-0.2-0.2-0.4-0.3-0.7-0.3c-0.3,0-0.5,0.1-0.7,0.3
		c-0.2,0.2-0.4,0.5-0.5,0.9c-0.1,0.4-0.2,0.9-0.2,1.4v2.5h-1.6L288.3,129.3L288.3,129.3z"/>
	<path class="st5" d="M228.1,162.1h1.8l2,6.6l2-6.6h1.8l-3,8.9H231L228.1,162.1z"/>
	<path class="st5" d="M236.8,163.5c-0.2-0.2-0.3-0.4-0.3-0.7s0.1-0.5,0.3-0.7c0.2-0.2,0.4-0.3,0.7-0.3c0.3,0,0.5,0.1,0.7,0.3
		c0.2,0.2,0.3,0.4,0.3,0.7s-0.1,0.5-0.3,0.7c-0.2,0.2-0.4,0.3-0.7,0.3C237.2,163.8,236.9,163.7,236.8,163.5z M236.7,164.6h1.6v6.4
		h-1.6V164.6z"/>
	<path class="st5" d="M241,170.6c-0.5-0.3-0.8-0.7-1-1.2c-0.2-0.5-0.3-1-0.3-1.6c0-0.5,0.1-1.1,0.3-1.6c0.2-0.5,0.6-0.9,1-1.2
		c0.5-0.3,1-0.5,1.7-0.5c0.7,0,1.2,0.2,1.7,0.5c0.4,0.3,0.8,0.7,1,1.2c0.2,0.5,0.3,1,0.3,1.5v0.6h-4.4c0,0.4,0.2,0.7,0.4,1
		c0.3,0.3,0.6,0.4,1.1,0.4c0.4,0,0.7-0.1,0.9-0.2c0.2-0.2,0.5-0.4,0.7-0.8l1.3,0.5c-0.3,0.6-0.6,1.1-1.1,1.4
		c-0.5,0.3-1.1,0.5-1.8,0.5C242,171.1,241.4,170.9,241,170.6z M244.1,167c-0.1-0.4-0.2-0.6-0.5-0.9c-0.2-0.2-0.5-0.3-0.9-0.3
		c-0.4,0-0.7,0.1-0.9,0.4c-0.2,0.2-0.4,0.5-0.5,0.9L244.1,167L244.1,167z"/>
	<path class="st5" d="M246.3,164.6h1.6l1.1,4.4l1.1-4.4h1.5l1.1,4.4l1.1-4.4h1.6l-2,6.4h-1.4l-1.1-4.1l-1.1,4.1h-1.4L246.3,164.6z"
		/>
	<path class="st5" d="M256.4,164.6h1.6v0.7c0.1-0.2,0.3-0.4,0.6-0.5c0.3-0.2,0.6-0.2,1-0.2c0.9,0,1.7,0.3,2.2,0.9
		c0.5,0.6,0.8,1.4,0.8,2.4s-0.3,1.8-0.8,2.4c-0.5,0.6-1.2,0.9-2.2,0.9c-0.3,0-0.6-0.1-0.9-0.2c-0.3-0.1-0.5-0.3-0.6-0.5v3.2h-1.6
		L256.4,164.6L256.4,164.6z M260.4,169.2c0.3-0.3,0.4-0.8,0.4-1.4c0-0.6-0.1-1.1-0.4-1.4c-0.3-0.3-0.6-0.5-1.1-0.5
		c-0.4,0-0.8,0.2-1.1,0.5c-0.3,0.3-0.4,0.8-0.4,1.4c0,0.6,0.1,1.1,0.4,1.4c0.3,0.3,0.6,0.5,1.1,0.5
		C259.7,169.7,260.1,169.5,260.4,169.2z"/>
	<path class="st5" d="M265,170.6c-0.5-0.3-0.9-0.7-1.1-1.2c-0.3-0.5-0.4-1.1-0.4-1.7c0-0.6,0.1-1.2,0.4-1.7c0.3-0.5,0.6-0.9,1.1-1.2
		c0.5-0.3,1.1-0.4,1.7-0.4s1.2,0.1,1.7,0.4c0.5,0.3,0.9,0.7,1.1,1.2c0.3,0.5,0.4,1.1,0.4,1.7c0,0.6-0.1,1.2-0.4,1.7
		c-0.3,0.5-0.6,0.9-1.1,1.2c-0.5,0.3-1.1,0.4-1.7,0.4S265.5,170.9,265,170.6z M267.9,169.2c0.3-0.4,0.4-0.8,0.4-1.4
		c0-0.6-0.1-1-0.4-1.4c-0.3-0.4-0.7-0.6-1.2-0.6s-0.9,0.2-1.2,0.6c-0.3,0.4-0.4,0.8-0.4,1.4c0,0.6,0.1,1,0.4,1.4
		c0.3,0.4,0.7,0.6,1.2,0.6S267.6,169.5,267.9,169.2z"/>
	<path class="st5" d="M271.4,164.6h1.6v1c0.2-0.4,0.5-0.6,0.8-0.8c0.3-0.2,0.7-0.3,1-0.3c0.2,0,0.5,0,0.8,0.1l-0.3,1.5
		c-0.2-0.1-0.4-0.2-0.7-0.2c-0.5,0-0.9,0.2-1.2,0.7c-0.3,0.5-0.5,1.2-0.5,2.1v2.3h-1.6L271.4,164.6L271.4,164.6z"/>
	<path class="st5" d="M277.9,170.5c-0.4-0.4-0.6-1-0.6-1.8v-2.8h-1v-1.3h1V163l1.6-1v2.6h1.7v1.3h-1.7v2.8c0,0.4,0.1,0.7,0.2,0.8
		c0.1,0.2,0.3,0.2,0.6,0.2c0.2,0,0.4-0.1,0.6-0.2l0.4,1.3c-0.3,0.2-0.7,0.2-1,0.2C278.9,171.1,278.3,170.9,277.9,170.5z"/>
	<path class="st5" d="M228.9,194.8h1.6v7.3h3.8v1.5h-5.4V194.8z"/>
	<path class="st5" d="M235.8,203.3c-0.4-0.3-0.5-0.8-0.5-1.4c0-0.6,0.2-1.1,0.7-1.5c0.5-0.4,1.1-0.6,2-0.6h1.1v-0.3
		c0-0.3-0.1-0.5-0.3-0.7c-0.2-0.2-0.5-0.2-0.8-0.2c-0.6,0-0.9,0.2-1.1,0.7l-1.3-0.3c0.1-0.5,0.4-1,0.8-1.3c0.4-0.3,1-0.5,1.6-0.5
		c0.8,0,1.5,0.2,2,0.7c0.5,0.5,0.7,1.1,0.7,2v3.8h-1.3l-0.2-0.8c-0.5,0.6-1.1,0.9-2,0.9C236.7,203.8,236.2,203.6,235.8,203.3z
		 M238.6,202.1c0.3-0.2,0.4-0.6,0.4-1V201h-1c-0.3,0-0.6,0.1-0.8,0.2c-0.2,0.1-0.3,0.3-0.3,0.6c0,0.2,0.1,0.3,0.2,0.5
		c0.1,0.1,0.3,0.2,0.5,0.2C238,202.5,238.4,202.3,238.6,202.1z"/>
	<path class="st5" d="M242.2,197.3h1.6v1c0.2-0.3,0.5-0.6,0.9-0.8c0.3-0.2,0.7-0.3,1.1-0.3c0.6,0,1.1,0.2,1.4,0.5
		c0.4,0.3,0.5,0.8,0.5,1.4v4.6h-1.6v-4.1c0-0.4-0.1-0.6-0.2-0.8c-0.2-0.2-0.4-0.3-0.7-0.3c-0.3,0-0.5,0.1-0.7,0.3
		c-0.2,0.2-0.4,0.5-0.5,0.9c-0.1,0.4-0.2,0.9-0.2,1.4v2.5h-1.6L242.2,197.3L242.2,197.3z"/>
	<path class="st5" d="M230.6,237.8c-0.6-0.3-1.1-0.8-1.5-1.5c-0.4-0.7-0.6-1.5-0.6-2.5c0-1,0.2-1.8,0.6-2.5c0.4-0.7,0.9-1.2,1.5-1.5
		c0.6-0.3,1.3-0.5,2.1-0.5c0.8,0,1.5,0.2,2.1,0.5c0.6,0.3,1.1,0.8,1.5,1.5c0.4,0.7,0.6,1.5,0.6,2.5c0,1-0.2,1.8-0.6,2.5
		c-0.4,0.7-0.9,1.2-1.5,1.5c-0.6,0.3-1.3,0.5-2.1,0.5C231.9,238.4,231.2,238.2,230.6,237.8z M233.9,236.5c0.4-0.2,0.7-0.6,0.9-1
		c0.2-0.5,0.3-1,0.3-1.7s-0.1-1.2-0.3-1.7c-0.2-0.5-0.5-0.8-0.9-1c-0.4-0.2-0.8-0.3-1.3-0.3c-0.5,0-0.9,0.1-1.3,0.3
		c-0.4,0.2-0.7,0.6-0.9,1c-0.2,0.5-0.3,1-0.3,1.7s0.1,1.2,0.3,1.7c0.2,0.5,0.5,0.8,0.9,1c0.4,0.2,0.8,0.3,1.3,0.3
		C233.2,236.8,233.6,236.7,233.9,236.5z"/>
	<path class="st5" d="M238.6,240.4c-0.5-0.4-0.8-0.9-0.8-1.6c0-0.5,0.2-0.9,0.5-1.3c-0.2-0.3-0.3-0.6-0.3-1c0-0.3,0.1-0.6,0.2-0.8
		c0.1-0.2,0.3-0.4,0.6-0.6c-0.3-0.4-0.4-0.8-0.4-1.3c0-0.4,0.1-0.8,0.3-1.1c0.2-0.3,0.5-0.6,0.9-0.8c0.4-0.2,0.8-0.3,1.2-0.3
		c0.4,0,0.8,0.1,1.2,0.3l1.2-0.6l0.6,1l-0.9,0.5c0.2,0.3,0.3,0.6,0.3,1c0,0.4-0.1,0.8-0.3,1.1c-0.2,0.3-0.5,0.6-0.8,0.7
		s-0.8,0.3-1.2,0.3c-0.3,0-0.6,0-0.9-0.1c-0.2,0.1-0.3,0.3-0.3,0.5c0,0.2,0.1,0.3,0.2,0.3c0.1,0.1,0.3,0.1,0.4,0.1h1.3
		c0.7,0,1.2,0.2,1.6,0.5c0.4,0.3,0.6,0.8,0.6,1.4c0,0.5-0.1,0.9-0.4,1.2c-0.3,0.3-0.6,0.6-1.1,0.7c-0.4,0.2-0.9,0.2-1.4,0.2
		C239.9,240.9,239.2,240.8,238.6,240.4z M241.7,239.4c0.2-0.1,0.4-0.3,0.4-0.6c0-0.2-0.1-0.4-0.3-0.5c-0.2-0.1-0.4-0.1-0.8-0.1h-0.9
		c-0.3,0-0.5,0-0.7-0.1c-0.1,0.1-0.1,0.3-0.1,0.6c0,0.3,0.1,0.5,0.4,0.7c0.3,0.2,0.6,0.2,1,0.2C241.1,239.6,241.5,239.6,241.7,239.4
		z M241.3,234.5c0.2-0.2,0.2-0.4,0.2-0.6c0-0.3-0.1-0.5-0.2-0.6c-0.2-0.2-0.4-0.2-0.6-0.2c-0.3,0-0.5,0.1-0.6,0.2
		c-0.2,0.2-0.2,0.4-0.2,0.6c0,0.3,0.1,0.5,0.2,0.6c0.2,0.2,0.4,0.2,0.6,0.2C241,234.8,241.2,234.7,241.3,234.5z"/>
	<path class="st5" d="M244.9,233.6c-0.2-0.2-0.3-0.5-0.3-0.8c0-0.3,0.1-0.6,0.3-0.8c0.2-0.2,0.5-0.3,0.8-0.3c0.3,0,0.6,0.1,0.8,0.3
		c0.2,0.2,0.3,0.5,0.3,0.8c0,0.3-0.1,0.6-0.3,0.8c-0.2,0.2-0.5,0.3-0.8,0.3C245.3,233.9,245.1,233.8,244.9,233.6z M244.9,238
		c-0.2-0.2-0.3-0.5-0.3-0.8c0-0.3,0.1-0.6,0.3-0.8c0.2-0.2,0.5-0.3,0.8-0.3c0.3,0,0.6,0.1,0.8,0.3c0.2,0.2,0.3,0.5,0.3,0.8
		c0,0.3-0.1,0.6-0.3,0.8c-0.2,0.2-0.5,0.3-0.8,0.3C245.3,238.3,245.1,238.2,244.9,238z"/>
	<path class="st5" d="M248.3,230.8c-0.2-0.2-0.3-0.4-0.3-0.7s0.1-0.5,0.3-0.7c0.2-0.2,0.4-0.3,0.7-0.3c0.3,0,0.5,0.1,0.7,0.3
		c0.2,0.2,0.3,0.4,0.3,0.7s-0.1,0.5-0.3,0.7c-0.2,0.2-0.4,0.3-0.7,0.3C248.8,231.1,248.5,231,248.3,230.8z M248.3,231.9h1.6v6.4
		h-1.6V231.9z"/>
	<path class="st5" d="M251.6,231.9h1.6v1c0.2-0.4,0.5-0.7,0.8-0.8c0.3-0.2,0.6-0.3,1-0.3c0.4,0,0.8,0.1,1.1,0.3
		c0.3,0.2,0.6,0.6,0.7,1c0.2-0.4,0.5-0.7,0.9-1c0.3-0.2,0.7-0.3,1.1-0.3c0.6,0,1.1,0.2,1.4,0.5c0.3,0.3,0.5,0.8,0.5,1.4v4.5H259V234
		c0-0.6-0.3-0.9-0.8-0.9c-0.4,0-0.7,0.2-1,0.7c-0.3,0.5-0.4,1.1-0.4,2v2.5h-1.6V234c0-0.6-0.3-0.9-0.8-0.9c-0.4,0-0.7,0.2-1,0.7
		c-0.3,0.5-0.4,1.2-0.4,2.1v2.3h-1.6L251.6,231.9L251.6,231.9z"/>
	<path class="st5" d="M262.4,237.8c-0.4-0.3-0.5-0.8-0.5-1.4c0-0.6,0.2-1.1,0.7-1.5c0.5-0.4,1.1-0.6,2-0.6h1.1V234
		c0-0.3-0.1-0.5-0.3-0.7c-0.2-0.2-0.5-0.2-0.8-0.2c-0.6,0-0.9,0.2-1.1,0.7l-1.3-0.3c0.1-0.5,0.4-1,0.8-1.3c0.4-0.3,1-0.5,1.6-0.5
		c0.9,0,1.5,0.2,2,0.7c0.5,0.5,0.7,1.1,0.7,2v3.8h-1.3l-0.2-0.8c-0.5,0.6-1.1,0.9-2,0.9C263.2,238.4,262.8,238.2,262.4,237.8z
		 M265.2,236.7c0.3-0.2,0.4-0.6,0.4-1v-0.1h-1c-0.3,0-0.6,0.1-0.8,0.2c-0.2,0.1-0.3,0.3-0.3,0.6c0,0.2,0.1,0.3,0.2,0.5
		c0.1,0.1,0.3,0.2,0.5,0.2C264.6,237,264.9,236.9,265.2,236.7z"/>
	<path class="st5" d="M269.1,240.4c-0.5-0.4-0.8-0.9-0.8-1.6c0-0.5,0.2-0.9,0.5-1.3c-0.2-0.3-0.3-0.6-0.3-1c0-0.3,0.1-0.6,0.2-0.8
		c0.1-0.2,0.3-0.4,0.6-0.6c-0.3-0.4-0.4-0.8-0.4-1.3c0-0.4,0.1-0.8,0.3-1.1c0.2-0.3,0.5-0.6,0.9-0.8c0.4-0.2,0.8-0.3,1.2-0.3
		c0.4,0,0.8,0.1,1.2,0.3l1.2-0.6l0.6,1l-0.9,0.5c0.2,0.3,0.3,0.6,0.3,1c0,0.4-0.1,0.8-0.3,1.1c-0.2,0.3-0.5,0.6-0.9,0.7
		s-0.8,0.3-1.2,0.3c-0.3,0-0.6,0-0.9-0.1c-0.2,0.1-0.3,0.3-0.3,0.5c0,0.2,0.1,0.3,0.2,0.3c0.1,0.1,0.3,0.1,0.4,0.1h1.3
		c0.7,0,1.2,0.2,1.6,0.5c0.4,0.3,0.6,0.8,0.6,1.4c0,0.5-0.1,0.9-0.4,1.2c-0.3,0.3-0.6,0.6-1.1,0.7c-0.4,0.2-0.9,0.2-1.4,0.2
		C270.3,240.9,269.7,240.8,269.1,240.4z M272.2,239.4c0.2-0.1,0.4-0.3,0.4-0.6c0-0.2-0.1-0.4-0.3-0.5c-0.2-0.1-0.4-0.1-0.8-0.1h-0.9
		c-0.3,0-0.5,0-0.7-0.1c-0.1,0.1-0.1,0.3-0.1,0.6c0,0.3,0.1,0.5,0.4,0.7c0.3,0.2,0.6,0.2,1,0.2C271.6,239.6,271.9,239.6,272.2,239.4
		z M271.8,234.5c0.2-0.2,0.2-0.4,0.2-0.6c0-0.3-0.1-0.5-0.2-0.6c-0.2-0.2-0.4-0.2-0.6-0.2c-0.3,0-0.5,0.1-0.6,0.2
		c-0.2,0.2-0.2,0.4-0.2,0.6c0,0.3,0.1,0.5,0.2,0.6c0.2,0.2,0.4,0.2,0.6,0.2C271.4,234.8,271.6,234.7,271.8,234.5z"/>
	<path class="st5" d="M276.1,237.9c-0.5-0.3-0.8-0.7-1-1.2c-0.2-0.5-0.3-1-0.3-1.6s0.1-1.1,0.3-1.6c0.2-0.5,0.6-0.9,1-1.2
		c0.5-0.3,1-0.5,1.7-0.5c0.7,0,1.2,0.2,1.7,0.5c0.4,0.3,0.8,0.7,1,1.2c0.2,0.5,0.3,1,0.3,1.5v0.6h-4.4c0,0.4,0.2,0.7,0.4,1
		c0.3,0.3,0.6,0.4,1.1,0.4c0.4,0,0.7-0.1,0.9-0.2c0.2-0.2,0.5-0.4,0.7-0.8l1.3,0.5c-0.3,0.6-0.6,1.1-1.1,1.4
		c-0.5,0.3-1.1,0.5-1.8,0.5C277.2,238.4,276.6,238.2,276.1,237.9z M279.2,234.3c-0.1-0.4-0.2-0.6-0.5-0.9c-0.2-0.2-0.5-0.3-0.9-0.3
		c-0.4,0-0.7,0.1-0.9,0.4c-0.2,0.2-0.4,0.5-0.5,0.9L279.2,234.3L279.2,234.3z"/>
	<path class="st5" d="M230.6,272.6c-0.6-0.3-1.1-0.9-1.5-1.5c-0.4-0.7-0.6-1.5-0.6-2.5c0-1,0.2-1.8,0.6-2.5c0.4-0.7,0.9-1.2,1.5-1.5
		c0.6-0.3,1.3-0.5,2.1-0.5c0.8,0,1.5,0.2,2.1,0.5c0.6,0.3,1.1,0.8,1.5,1.5c0.4,0.7,0.6,1.5,0.6,2.5s-0.2,1.8-0.6,2.5
		c-0.4,0.7-0.9,1.2-1.5,1.5c-0.6,0.3-1.3,0.5-2.1,0.5C231.9,273.1,231.2,273,230.6,272.6z M233.9,271.3c0.4-0.2,0.7-0.6,0.9-1
		c0.2-0.5,0.3-1,0.3-1.7s-0.1-1.2-0.3-1.7c-0.2-0.5-0.5-0.8-0.9-1c-0.4-0.2-0.8-0.3-1.3-0.3c-0.5,0-0.9,0.1-1.3,0.3
		c-0.4,0.2-0.7,0.6-0.9,1c-0.2,0.5-0.3,1-0.3,1.7s0.1,1.2,0.3,1.7c0.2,0.5,0.5,0.8,0.9,1c0.4,0.2,0.8,0.3,1.3,0.3
		C233.2,271.6,233.6,271.5,233.9,271.3z"/>
	<path class="st5" d="M238.6,275.2c-0.5-0.4-0.8-0.9-0.8-1.6c0-0.5,0.2-0.9,0.5-1.3c-0.2-0.3-0.3-0.6-0.3-1c0-0.3,0.1-0.6,0.2-0.8
		c0.1-0.2,0.3-0.4,0.6-0.6c-0.3-0.4-0.4-0.8-0.4-1.3c0-0.4,0.1-0.8,0.3-1.1c0.2-0.3,0.5-0.6,0.9-0.8c0.4-0.2,0.8-0.3,1.2-0.3
		c0.4,0,0.8,0.1,1.2,0.3l1.2-0.6l0.6,1l-0.9,0.5c0.2,0.3,0.3,0.6,0.3,1c0,0.4-0.1,0.8-0.3,1.1c-0.2,0.3-0.5,0.6-0.8,0.7
		s-0.8,0.3-1.2,0.3c-0.3,0-0.6,0-0.9-0.1c-0.2,0.1-0.3,0.3-0.3,0.5c0,0.2,0.1,0.3,0.2,0.3c0.1,0.1,0.3,0.1,0.4,0.1h1.3
		c0.7,0,1.2,0.2,1.6,0.5c0.4,0.3,0.6,0.8,0.6,1.4c0,0.5-0.1,0.9-0.4,1.2c-0.3,0.3-0.6,0.6-1.1,0.7c-0.4,0.2-0.9,0.2-1.4,0.2
		C239.9,275.7,239.2,275.5,238.6,275.2z M241.7,274.2c0.2-0.1,0.4-0.3,0.4-0.6c0-0.2-0.1-0.4-0.3-0.5c-0.2-0.1-0.4-0.1-0.8-0.1h-0.9
		c-0.3,0-0.5,0-0.7-0.1c-0.1,0.1-0.1,0.3-0.1,0.6c0,0.3,0.1,0.5,0.4,0.7c0.3,0.2,0.6,0.2,1,0.2C241.1,274.4,241.5,274.3,241.7,274.2
		z M241.3,269.3c0.2-0.2,0.2-0.4,0.2-0.6c0-0.3-0.1-0.5-0.2-0.6c-0.2-0.2-0.4-0.2-0.6-0.2c-0.3,0-0.5,0.1-0.6,0.2
		c-0.2,0.2-0.2,0.4-0.2,0.6c0,0.3,0.1,0.5,0.2,0.6c0.2,0.2,0.4,0.2,0.6,0.2C241,269.6,241.2,269.5,241.3,269.3z"/>
	<path class="st5" d="M244.9,268.4c-0.2-0.2-0.3-0.5-0.3-0.8c0-0.3,0.1-0.6,0.3-0.8c0.2-0.2,0.5-0.3,0.8-0.3c0.3,0,0.6,0.1,0.8,0.3
		s0.3,0.5,0.3,0.8c0,0.3-0.1,0.6-0.3,0.8c-0.2,0.2-0.5,0.3-0.8,0.3C245.3,268.7,245.1,268.6,244.9,268.4z M244.9,272.8
		c-0.2-0.2-0.3-0.5-0.3-0.8c0-0.3,0.1-0.6,0.3-0.8c0.2-0.2,0.5-0.3,0.8-0.3c0.3,0,0.6,0.1,0.8,0.3c0.2,0.2,0.3,0.5,0.3,0.8
		c0,0.3-0.1,0.6-0.3,0.8c-0.2,0.2-0.5,0.3-0.8,0.3C245.3,273.1,245.1,273,244.9,272.8z"/>
	<path class="st5" d="M248.6,272.2c-0.5-0.6-0.7-1.4-0.7-2.4s0.2-1.8,0.7-2.4c0.5-0.6,1.2-0.9,2.1-0.9c0.4,0,0.7,0.1,1,0.2
		c0.3,0.1,0.5,0.3,0.7,0.5v-3.2h1.6v9h-1.6v-0.7c-0.1,0.2-0.3,0.4-0.6,0.5c-0.3,0.2-0.7,0.2-1.1,0.2
		C249.8,273.1,249.1,272.8,248.6,272.2z M252.1,271.3c0.3-0.3,0.4-0.8,0.4-1.4c0-0.6-0.1-1.1-0.4-1.4s-0.6-0.5-1.1-0.5
		c-0.4,0-0.8,0.2-1.1,0.5c-0.3,0.3-0.4,0.8-0.4,1.4c0,0.6,0.1,1.1,0.4,1.4c0.3,0.3,0.6,0.5,1.1,0.5
		C251.5,271.8,251.8,271.6,252.1,271.3z"/>
	<path class="st5" d="M256.7,272.6c-0.5-0.3-0.8-0.7-1-1.2c-0.2-0.5-0.3-1-0.3-1.6c0-0.5,0.1-1.1,0.3-1.6c0.2-0.5,0.6-0.9,1-1.2
		c0.5-0.3,1-0.5,1.7-0.5c0.7,0,1.2,0.2,1.7,0.5c0.4,0.3,0.8,0.7,1,1.2c0.2,0.5,0.3,1,0.3,1.5v0.6H257c0,0.4,0.2,0.7,0.4,1
		c0.3,0.3,0.6,0.4,1.1,0.4c0.4,0,0.7-0.1,0.9-0.2c0.2-0.2,0.5-0.4,0.7-0.8l1.3,0.5c-0.3,0.6-0.6,1.1-1.1,1.4
		c-0.5,0.3-1.1,0.5-1.8,0.5C257.7,273.1,257.2,273,256.7,272.6z M259.8,269.1c-0.1-0.4-0.2-0.6-0.5-0.9c-0.2-0.2-0.5-0.3-0.9-0.3
		c-0.4,0-0.7,0.1-0.9,0.4c-0.2,0.2-0.4,0.5-0.5,0.9L259.8,269.1L259.8,269.1z"/>
	<path class="st5" d="M263.1,272.6c-0.4-0.3-0.7-0.7-0.9-1.2l1.3-0.7c0.1,0.3,0.3,0.6,0.5,0.8c0.2,0.2,0.5,0.3,0.8,0.3
		c0.2,0,0.4,0,0.6-0.1c0.2-0.1,0.2-0.3,0.2-0.5c0-0.2-0.1-0.4-0.3-0.5c-0.2-0.1-0.5-0.3-0.8-0.4c-0.1,0-0.1-0.1-0.3-0.1
		c-0.5-0.2-0.9-0.4-1.1-0.7c-0.3-0.3-0.4-0.7-0.4-1.1c0-0.3,0.1-0.6,0.3-0.9c0.2-0.3,0.4-0.5,0.7-0.6c0.3-0.2,0.7-0.2,1-0.2
		c0.4,0,0.8,0.1,1.2,0.3s0.6,0.4,0.8,0.8l-0.9,0.9c-0.3-0.4-0.6-0.6-1-0.6c-0.2,0-0.3,0-0.4,0.1c-0.1,0.1-0.2,0.2-0.2,0.3
		c0,0.2,0.1,0.3,0.3,0.4c0.2,0.1,0.5,0.3,1,0.5c0.5,0.2,0.9,0.4,1.1,0.7c0.3,0.3,0.4,0.7,0.4,1.1c0,0.6-0.2,1.1-0.6,1.5
		c-0.4,0.4-0.9,0.6-1.6,0.6C264.1,273.1,263.5,273,263.1,272.6z"/>
	<path class="st5" d="M269.2,272.7c-0.5-0.3-0.8-0.7-1.1-1.2c-0.2-0.5-0.4-1.1-0.4-1.7c0-0.6,0.1-1.2,0.4-1.7
		c0.2-0.5,0.6-0.9,1.1-1.2c0.5-0.3,1-0.4,1.7-0.4c0.7,0,1.3,0.2,1.8,0.5c0.5,0.3,0.9,0.8,1.1,1.4l-1.4,0.6c-0.2-0.3-0.4-0.6-0.6-0.8
		c-0.2-0.2-0.5-0.3-0.9-0.3c-0.5,0-0.9,0.2-1.1,0.5c-0.2,0.4-0.4,0.8-0.4,1.4c0,0.6,0.1,1.1,0.4,1.4c0.2,0.4,0.6,0.5,1.1,0.5
		c0.3,0,0.6-0.1,0.9-0.3c0.2-0.2,0.4-0.4,0.6-0.8l1.4,0.6c-0.2,0.6-0.6,1.1-1.1,1.4c-0.5,0.3-1.1,0.5-1.8,0.5
		C270.2,273.1,269.7,273,269.2,272.7z"/>
	<path class="st5" d="M275.1,266.6h1.6v1c0.2-0.4,0.5-0.6,0.8-0.8c0.3-0.2,0.7-0.3,1-0.3c0.2,0,0.5,0,0.8,0.1l-0.3,1.5
		c-0.2-0.1-0.4-0.2-0.7-0.2c-0.5,0-0.9,0.2-1.2,0.7c-0.3,0.5-0.5,1.2-0.5,2.1v2.3h-1.6L275.1,266.6L275.1,266.6z"/>
	<path class="st5" d="M280.5,265.5c-0.2-0.2-0.3-0.4-0.3-0.7c0-0.3,0.1-0.5,0.3-0.7s0.4-0.3,0.7-0.3c0.3,0,0.5,0.1,0.7,0.3
		c0.2,0.2,0.3,0.4,0.3,0.7c0,0.3-0.1,0.5-0.3,0.7c-0.2,0.2-0.4,0.3-0.7,0.3C280.9,265.8,280.7,265.7,280.5,265.5z M280.4,266.6h1.6
		v6.4h-1.6V266.6z"/>
	<path class="st5" d="M283.8,266.6h1.6v0.7c0.1-0.2,0.3-0.4,0.6-0.5c0.3-0.2,0.6-0.2,1-0.2c0.9,0,1.7,0.3,2.2,0.9
		c0.5,0.6,0.8,1.4,0.8,2.4s-0.3,1.8-0.8,2.4c-0.5,0.6-1.2,0.9-2.2,0.9c-0.3,0-0.6-0.1-0.9-0.2c-0.3-0.1-0.5-0.3-0.6-0.5v3.2h-1.6
		L283.8,266.6L283.8,266.6z M287.7,271.3c0.3-0.3,0.4-0.8,0.4-1.4c0-0.6-0.1-1.1-0.4-1.4c-0.3-0.3-0.6-0.5-1.1-0.5
		c-0.4,0-0.8,0.2-1.1,0.5c-0.3,0.3-0.4,0.8-0.4,1.4c0,0.6,0.1,1.1,0.4,1.4c0.3,0.3,0.6,0.5,1.1,0.5
		C287.1,271.8,287.4,271.6,287.7,271.3z"/>
	<path class="st5" d="M292,272.5c-0.4-0.4-0.6-1-0.6-1.8V268h-1v-1.3h1v-1.6l1.6-1v2.6h1.7v1.3h-1.7v2.8c0,0.4,0.1,0.7,0.2,0.8
		c0.1,0.2,0.3,0.2,0.6,0.2c0.2,0,0.4-0.1,0.6-0.2l0.4,1.3c-0.3,0.2-0.7,0.2-1,0.2C293,273.1,292.4,272.9,292,272.5z"/>
	<path class="st5" d="M295.9,265.5c-0.2-0.2-0.3-0.4-0.3-0.7c0-0.3,0.1-0.5,0.3-0.7c0.2-0.2,0.4-0.3,0.7-0.3s0.5,0.1,0.7,0.3
		c0.2,0.2,0.3,0.4,0.3,0.7c0,0.3-0.1,0.5-0.3,0.7c-0.2,0.2-0.4,0.3-0.7,0.3S296.1,265.7,295.9,265.5z M295.8,266.6h1.6v6.4h-1.6
		V266.6z"/>
	<path class="st5" d="M300.3,272.7c-0.5-0.3-0.9-0.7-1.1-1.2c-0.3-0.5-0.4-1.1-0.4-1.7c0-0.6,0.1-1.2,0.4-1.7
		c0.3-0.5,0.6-0.9,1.1-1.2c0.5-0.3,1.1-0.4,1.7-0.4c0.7,0,1.2,0.1,1.7,0.4c0.5,0.3,0.9,0.7,1.1,1.2c0.3,0.5,0.4,1.1,0.4,1.7
		c0,0.6-0.1,1.2-0.4,1.7c-0.3,0.5-0.6,0.9-1.1,1.2c-0.5,0.3-1.1,0.4-1.7,0.4C301.4,273.1,300.8,273,300.3,272.7z M303.2,271.2
		c0.3-0.4,0.4-0.8,0.4-1.4c0-0.6-0.1-1-0.4-1.4c-0.3-0.4-0.7-0.6-1.2-0.6c-0.5,0-0.9,0.2-1.2,0.6c-0.3,0.4-0.4,0.8-0.4,1.4
		c0,0.6,0.1,1,0.4,1.4c0.3,0.4,0.7,0.6,1.2,0.6C302.5,271.8,302.9,271.6,303.2,271.2z"/>
	<path class="st5" d="M306.7,266.6h1.6v1c0.2-0.3,0.5-0.6,0.9-0.8c0.3-0.2,0.7-0.3,1.1-0.3c0.6,0,1.1,0.2,1.4,0.5
		c0.4,0.3,0.5,0.8,0.5,1.4v4.6h-1.6v-4.1c0-0.4-0.1-0.6-0.2-0.8c-0.2-0.2-0.4-0.3-0.7-0.3c-0.3,0-0.5,0.1-0.7,0.3
		c-0.2,0.2-0.4,0.5-0.5,0.9c-0.1,0.4-0.2,0.9-0.2,1.4v2.5h-1.6L306.7,266.6L306.7,266.6z"/>
	<path class="st5" d="M230.6,306c-0.6-0.4-1.1-0.9-1.5-1.5c-0.4-0.7-0.6-1.5-0.6-2.5c0-0.9,0.2-1.8,0.6-2.5c0.4-0.7,0.9-1.2,1.5-1.5
		c0.6-0.4,1.3-0.5,2.1-0.5c1,0,1.8,0.2,2.4,0.7c0.6,0.5,1.1,1.1,1.3,2l-1.5,0.4c-0.2-0.5-0.5-0.9-0.8-1.1c-0.3-0.3-0.8-0.4-1.4-0.4
		c-0.5,0-0.9,0.1-1.3,0.3c-0.4,0.2-0.7,0.6-0.9,1c-0.2,0.5-0.3,1-0.3,1.7c0,0.7,0.1,1.2,0.3,1.7c0.2,0.5,0.5,0.8,0.9,1
		c0.4,0.2,0.8,0.3,1.3,0.3c0.6,0,1-0.1,1.4-0.4c0.3-0.3,0.6-0.7,0.8-1.1l1.5,0.4c-0.2,0.9-0.6,1.5-1.3,2c-0.6,0.5-1.4,0.7-2.4,0.7
		C231.9,306.5,231.2,306.3,230.6,306z"/>
	<path class="st5" d="M237.8,297.4h1.6v3.6c0.2-0.3,0.5-0.6,0.8-0.8s0.7-0.3,1.2-0.3c0.6,0,1.1,0.2,1.5,0.5c0.4,0.3,0.5,0.8,0.5,1.4
		v4.6h-1.6v-4c0-0.4-0.1-0.7-0.2-0.9c-0.2-0.2-0.4-0.3-0.7-0.3c-0.3,0-0.5,0.1-0.7,0.3c-0.2,0.2-0.4,0.4-0.6,0.8
		c-0.1,0.4-0.2,0.8-0.2,1.4v2.7h-1.6L237.8,297.4L237.8,297.4z"/>
	<path class="st5" d="M245.2,306c-0.4-0.3-0.5-0.8-0.5-1.4c0-0.6,0.2-1.1,0.7-1.5c0.5-0.4,1.1-0.6,2-0.6h1.1v-0.3
		c0-0.3-0.1-0.5-0.3-0.7c-0.2-0.2-0.5-0.2-0.8-0.2c-0.6,0-0.9,0.2-1.1,0.7l-1.3-0.3c0.1-0.5,0.4-1,0.8-1.3c0.4-0.3,1-0.5,1.6-0.5
		c0.8,0,1.5,0.2,2,0.7c0.5,0.5,0.7,1.1,0.7,2v3.8h-1.3l-0.2-0.8c-0.5,0.6-1.1,0.9-2,0.9C246,306.5,245.5,306.3,245.2,306z
		 M248,304.8c0.3-0.2,0.4-0.6,0.4-1v-0.1h-1c-0.3,0-0.6,0.1-0.8,0.2c-0.2,0.1-0.3,0.3-0.3,0.6c0,0.2,0.1,0.3,0.2,0.5
		c0.1,0.1,0.3,0.2,0.5,0.2C247.3,305.2,247.7,305.1,248,304.8z"/>
	<path class="st5" d="M251.6,300h1.6v1c0.2-0.4,0.5-0.6,0.8-0.8c0.3-0.2,0.7-0.3,1-0.3c0.2,0,0.5,0,0.8,0.1l-0.3,1.5
		c-0.2-0.1-0.4-0.2-0.7-0.2c-0.5,0-0.9,0.2-1.2,0.7c-0.3,0.5-0.5,1.2-0.5,2.1v2.3h-1.6L251.6,300L251.6,300z"/>
	<path class="st5" d="M257,306c-0.4-0.3-0.7-0.7-0.9-1.2l1.3-0.7c0.1,0.3,0.3,0.6,0.5,0.8c0.2,0.2,0.5,0.3,0.8,0.3
		c0.2,0,0.4,0,0.6-0.1c0.2-0.1,0.2-0.3,0.2-0.5c0-0.2-0.1-0.4-0.3-0.5c-0.2-0.1-0.5-0.3-0.8-0.4c-0.1,0-0.1-0.1-0.3-0.1
		c-0.5-0.2-0.9-0.4-1.1-0.7c-0.3-0.3-0.4-0.7-0.4-1.1c0-0.3,0.1-0.6,0.3-0.9c0.2-0.3,0.4-0.5,0.7-0.6c0.3-0.2,0.7-0.2,1-0.2
		c0.4,0,0.8,0.1,1.2,0.3c0.4,0.2,0.6,0.4,0.8,0.8l-0.9,0.9c-0.3-0.4-0.6-0.6-1-0.6c-0.2,0-0.3,0-0.4,0.1c-0.1,0.1-0.2,0.2-0.2,0.3
		c0,0.2,0.1,0.3,0.3,0.4c0.2,0.1,0.5,0.3,1,0.5c0.5,0.2,0.9,0.4,1.1,0.7c0.3,0.3,0.4,0.7,0.4,1.1c0,0.6-0.2,1.1-0.6,1.5
		c-0.4,0.4-0.9,0.6-1.6,0.6C258,306.5,257.5,306.3,257,306z"/>
	<path class="st5" d="M263,306c-0.5-0.3-0.8-0.7-1-1.2c-0.2-0.5-0.3-1-0.3-1.6c0-0.5,0.1-1.1,0.3-1.6c0.2-0.5,0.6-0.9,1-1.2
		c0.5-0.3,1-0.5,1.7-0.5c0.7,0,1.2,0.2,1.7,0.5c0.4,0.3,0.8,0.7,1,1.2c0.2,0.5,0.3,1,0.3,1.5v0.6h-4.4c0,0.4,0.2,0.7,0.4,1
		c0.3,0.3,0.6,0.4,1.1,0.4c0.4,0,0.7-0.1,0.9-0.2c0.2-0.2,0.5-0.4,0.7-0.8l1.3,0.5c-0.3,0.6-0.6,1.1-1.1,1.4
		c-0.5,0.3-1.1,0.5-1.8,0.5C264.1,306.5,263.5,306.3,263,306z M266.1,302.5c-0.1-0.4-0.2-0.6-0.5-0.9c-0.2-0.2-0.5-0.3-0.9-0.3
		c-0.4,0-0.7,0.1-0.9,0.4c-0.2,0.2-0.4,0.5-0.5,0.9L266.1,302.5L266.1,302.5z"/>
	<path class="st5" d="M270,305.9c-0.4-0.4-0.6-1-0.6-1.8v-2.8h-1V300h1v-1.6l1.6-1v2.6h1.7v1.3H271v2.8c0,0.4,0.1,0.7,0.2,0.8
		c0.1,0.2,0.3,0.2,0.6,0.2c0.2,0,0.4-0.1,0.6-0.2l0.4,1.3c-0.3,0.2-0.7,0.2-1,0.2C271,306.5,270.4,306.3,270,305.9z"/>
	<g>
		<path class="st1" d="M531,113.1v37.9c0,2.3-1.6,4.1-3.7,4.1h-162c-2,0-3.7-1.8-3.7-4.1v-12.9h-8.1c-1.5,0-2.9-0.7-3.9-1.8
			c-1-1.1-1.6-2.6-1.6-4.3c0-3.4,2.5-6.1,5.5-6.1h8.1v-12.9c0-2.3,1.6-4.1,3.7-4.1h162C529.4,109,531,110.8,531,113.1z"/>
	</g>
	<path class="st8" d="M385.9,121h-2.5v-1.5h6.6v1.5h-2.5v7.3h-1.6V121z"/>
	<path class="st8" d="M391.2,119.3h1.6v3.6c0.2-0.3,0.5-0.6,0.8-0.8s0.7-0.3,1.2-0.3c0.6,0,1.1,0.2,1.5,0.5c0.4,0.3,0.5,0.8,0.5,1.4
		v4.6h-1.6v-4c0-0.4-0.1-0.7-0.2-0.9c-0.2-0.2-0.4-0.3-0.7-0.3c-0.3,0-0.5,0.1-0.7,0.3c-0.2,0.2-0.4,0.5-0.6,0.8
		c-0.1,0.4-0.2,0.8-0.2,1.4v2.7h-1.6L391.2,119.3L391.2,119.3z"/>
	<path class="st8" d="M399.5,127.9c-0.5-0.3-0.8-0.7-1-1.2c-0.2-0.5-0.3-1-0.3-1.6c0-0.5,0.1-1.1,0.3-1.6c0.2-0.5,0.6-0.9,1-1.2
		c0.5-0.3,1-0.5,1.7-0.5c0.7,0,1.2,0.2,1.7,0.5c0.4,0.3,0.8,0.7,1,1.2c0.2,0.5,0.3,1,0.3,1.5v0.6h-4.4c0,0.4,0.2,0.7,0.4,1
		c0.3,0.3,0.6,0.4,1.1,0.4c0.4,0,0.7-0.1,0.9-0.2c0.2-0.2,0.5-0.4,0.7-0.8l1.3,0.5c-0.3,0.6-0.6,1.1-1.1,1.4
		c-0.5,0.3-1.1,0.5-1.8,0.5C400.6,128.4,400,128.2,399.5,127.9z M402.6,124.4c-0.1-0.4-0.2-0.6-0.5-0.9c-0.2-0.2-0.5-0.3-0.9-0.3
		c-0.4,0-0.7,0.1-0.9,0.4c-0.2,0.2-0.4,0.5-0.5,0.9L402.6,124.4L402.6,124.4z"/>
	<path class="st8" d="M408.8,121.9h1.6v1c0.2-0.4,0.5-0.7,0.8-0.8c0.3-0.2,0.6-0.3,1-0.3c0.4,0,0.8,0.1,1.1,0.3
		c0.3,0.2,0.6,0.6,0.7,1c0.2-0.4,0.5-0.7,0.9-1s0.7-0.3,1.1-0.3c0.6,0,1.1,0.2,1.4,0.5c0.3,0.3,0.5,0.8,0.5,1.4v4.5h-1.6V124
		c0-0.6-0.3-0.9-0.8-0.9c-0.4,0-0.7,0.2-1,0.7c-0.3,0.5-0.4,1.1-0.4,2v2.5h-1.6V124c0-0.6-0.3-0.9-0.8-0.9c-0.4,0-0.7,0.2-1,0.7
		c-0.3,0.5-0.4,1.2-0.4,2.1v2.3h-1.6L408.8,121.9L408.8,121.9z"/>
	<path class="st8" d="M420.6,127.9c-0.5-0.3-0.8-0.7-1-1.2c-0.2-0.5-0.3-1-0.3-1.6c0-0.5,0.1-1.1,0.3-1.6c0.2-0.5,0.6-0.9,1-1.2
		c0.5-0.3,1-0.5,1.7-0.5c0.7,0,1.2,0.2,1.7,0.5c0.4,0.3,0.8,0.7,1,1.2c0.2,0.5,0.3,1,0.3,1.5v0.6h-4.4c0,0.4,0.2,0.7,0.4,1
		c0.3,0.3,0.6,0.4,1.1,0.4c0.4,0,0.7-0.1,0.9-0.2c0.2-0.2,0.5-0.4,0.7-0.8l1.3,0.5c-0.3,0.6-0.6,1.1-1.1,1.4
		c-0.5,0.3-1.1,0.5-1.8,0.5C421.6,128.4,421.1,128.2,420.6,127.9z M423.7,124.4c-0.1-0.4-0.2-0.6-0.5-0.9c-0.2-0.2-0.5-0.3-0.9-0.3
		c-0.4,0-0.7,0.1-0.9,0.4c-0.2,0.2-0.4,0.5-0.5,0.9L423.7,124.4L423.7,124.4z"/>
	<path class="st8" d="M427.5,127.8c-0.4-0.4-0.6-1-0.6-1.8v-2.8h-1v-1.3h1v-1.6l1.6-1v2.6h1.7v1.3h-1.7v2.8c0,0.4,0.1,0.7,0.2,0.8
		c0.1,0.2,0.4,0.2,0.6,0.2c0.2,0,0.4-0.1,0.6-0.2l0.4,1.3c-0.3,0.2-0.7,0.2-1,0.2C428.5,128.4,428,128.2,427.5,127.8z"/>
	<path class="st8" d="M431.5,127.9c-0.4-0.3-0.5-0.8-0.5-1.4c0-0.6,0.2-1.1,0.7-1.5c0.5-0.4,1.1-0.6,2-0.6h1.1v-0.3
		c0-0.3-0.1-0.5-0.3-0.7s-0.5-0.2-0.8-0.2c-0.6,0-0.9,0.2-1.1,0.7l-1.3-0.3c0.1-0.5,0.4-1,0.8-1.3c0.4-0.3,1-0.5,1.6-0.5
		c0.9,0,1.5,0.2,2,0.7c0.5,0.5,0.7,1.1,0.7,2v3.8H435l-0.2-0.8c-0.5,0.6-1.1,0.9-2,0.9C432.3,128.4,431.9,128.2,431.5,127.9z
		 M434.3,126.7c0.3-0.2,0.4-0.6,0.4-1v-0.1h-1c-0.3,0-0.6,0.1-0.8,0.2s-0.3,0.3-0.3,0.6c0,0.2,0.1,0.3,0.2,0.5
		c0.1,0.1,0.3,0.2,0.5,0.2C433.7,127.1,434,126.9,434.3,126.7z"/>
	<path class="st8" d="M441.5,127.5c-0.5-0.6-0.7-1.4-0.7-2.4c0-1,0.2-1.8,0.7-2.4c0.5-0.6,1.2-0.9,2.1-0.9c0.4,0,0.7,0.1,1,0.2
		c0.3,0.1,0.5,0.3,0.7,0.5v-3.2h1.6v9h-1.6v-0.7c-0.1,0.2-0.3,0.4-0.6,0.5c-0.3,0.2-0.7,0.2-1.1,0.2
		C442.6,128.4,442,128.1,441.5,127.5z M444.9,126.5c0.3-0.3,0.4-0.8,0.4-1.4c0-0.6-0.1-1.1-0.4-1.4c-0.3-0.3-0.6-0.5-1.1-0.5
		s-0.8,0.2-1.1,0.5c-0.3,0.3-0.4,0.8-0.4,1.4c0,0.6,0.1,1.1,0.4,1.4c0.3,0.3,0.6,0.5,1.1,0.5C444.3,127.1,444.6,126.9,444.9,126.5z"
		/>
	<path class="st8" d="M449.5,127.9c-0.5-0.3-0.8-0.7-1-1.2c-0.2-0.5-0.3-1-0.3-1.6c0-0.5,0.1-1.1,0.3-1.6c0.2-0.5,0.6-0.9,1-1.2
		c0.5-0.3,1-0.5,1.7-0.5c0.7,0,1.2,0.2,1.7,0.5c0.4,0.3,0.8,0.7,1,1.2c0.2,0.5,0.3,1,0.3,1.5v0.6h-4.4c0,0.4,0.2,0.7,0.4,1
		c0.3,0.3,0.6,0.4,1.1,0.4c0.4,0,0.7-0.1,0.9-0.2s0.5-0.4,0.7-0.8l1.3,0.5c-0.3,0.6-0.6,1.1-1.1,1.4c-0.5,0.3-1.1,0.5-1.8,0.5
		C450.6,128.4,450,128.2,449.5,127.9z M452.6,124.4c-0.1-0.4-0.2-0.6-0.5-0.9c-0.2-0.2-0.5-0.3-0.9-0.3c-0.4,0-0.7,0.1-0.9,0.4
		c-0.2,0.2-0.4,0.5-0.5,0.9L452.6,124.4L452.6,124.4z"/>
	<path class="st8" d="M455.9,127.9c-0.4-0.3-0.7-0.7-0.9-1.2l1.3-0.7c0.1,0.3,0.3,0.6,0.5,0.8c0.2,0.2,0.5,0.3,0.8,0.3
		c0.2,0,0.4,0,0.6-0.1c0.2-0.1,0.2-0.3,0.2-0.5c0-0.2-0.1-0.4-0.3-0.5c-0.2-0.1-0.5-0.3-0.8-0.4c-0.1,0-0.1-0.1-0.3-0.1
		c-0.5-0.2-0.9-0.4-1.1-0.7c-0.3-0.3-0.4-0.7-0.4-1.1c0-0.3,0.1-0.6,0.3-0.9c0.2-0.3,0.4-0.5,0.7-0.6c0.3-0.2,0.7-0.2,1-0.2
		c0.4,0,0.8,0.1,1.2,0.3c0.4,0.2,0.6,0.4,0.8,0.8l-0.9,0.9c-0.3-0.4-0.6-0.6-1-0.6c-0.2,0-0.3,0-0.4,0.1c-0.1,0.1-0.2,0.2-0.2,0.4
		c0,0.2,0.1,0.3,0.3,0.4c0.2,0.1,0.5,0.3,1,0.5c0.5,0.2,0.9,0.4,1.1,0.7c0.3,0.3,0.4,0.7,0.4,1.1c0,0.6-0.2,1.1-0.6,1.5
		c-0.4,0.4-0.9,0.6-1.6,0.6C456.9,128.4,456.4,128.2,455.9,127.9z"/>
	<path class="st8" d="M462,128c-0.5-0.3-0.8-0.7-1.1-1.2c-0.2-0.5-0.4-1.1-0.4-1.7c0-0.6,0.1-1.2,0.4-1.7c0.2-0.5,0.6-0.9,1.1-1.2
		c0.5-0.3,1-0.4,1.7-0.4c0.7,0,1.3,0.2,1.8,0.5c0.5,0.3,0.9,0.8,1.1,1.4l-1.4,0.6c-0.2-0.3-0.4-0.6-0.6-0.8
		c-0.2-0.2-0.5-0.3-0.9-0.3c-0.5,0-0.9,0.2-1.1,0.5c-0.3,0.4-0.4,0.8-0.4,1.4c0,0.6,0.1,1,0.4,1.4c0.2,0.4,0.6,0.5,1.1,0.5
		c0.3,0,0.6-0.1,0.9-0.3c0.2-0.2,0.4-0.4,0.6-0.8l1.4,0.6c-0.2,0.6-0.6,1-1.1,1.4c-0.5,0.3-1.1,0.5-1.8,0.5
		C463,128.4,462.5,128.3,462,128z"/>
	<path class="st8" d="M468,121.9h1.6v1c0.2-0.4,0.5-0.6,0.8-0.8c0.3-0.2,0.7-0.3,1-0.3c0.2,0,0.5,0,0.8,0.1l-0.3,1.5
		c-0.2-0.1-0.4-0.2-0.7-0.2c-0.5,0-0.9,0.2-1.2,0.7c-0.3,0.5-0.5,1.2-0.5,2.1v2.3h-1.6L468,121.9L468,121.9z"/>
	<path class="st8" d="M473.3,120.8c-0.2-0.2-0.3-0.4-0.3-0.7c0-0.3,0.1-0.5,0.3-0.7c0.2-0.2,0.4-0.3,0.7-0.3c0.3,0,0.5,0.1,0.7,0.3
		c0.2,0.2,0.3,0.4,0.3,0.7c0,0.3-0.1,0.5-0.3,0.7c-0.2,0.2-0.4,0.3-0.7,0.3C473.7,121.1,473.5,121,473.3,120.8z M473.2,121.9h1.6
		v6.4h-1.6V121.9z"/>
	<path class="st8" d="M476.6,121.9h1.6v0.7c0.1-0.2,0.3-0.4,0.6-0.5c0.3-0.2,0.6-0.2,1-0.2c0.9,0,1.7,0.3,2.2,0.9
		c0.5,0.6,0.8,1.4,0.8,2.4c0,1-0.3,1.8-0.8,2.4c-0.5,0.6-1.2,0.9-2.2,0.9c-0.3,0-0.6-0.1-0.9-0.2c-0.3-0.1-0.5-0.3-0.6-0.5v3.2h-1.6
		L476.6,121.9L476.6,121.9z M480.5,126.5c0.3-0.3,0.4-0.8,0.4-1.4c0-0.6-0.1-1.1-0.4-1.4c-0.3-0.3-0.6-0.5-1.1-0.5s-0.8,0.2-1.1,0.5
		c-0.3,0.3-0.4,0.8-0.4,1.4c0,0.6,0.1,1.1,0.4,1.4c0.3,0.3,0.6,0.5,1.1,0.5C479.9,127.1,480.3,126.9,480.5,126.5z"/>
	<path class="st8" d="M484.8,127.8c-0.4-0.4-0.6-1-0.6-1.8v-2.8h-1v-1.3h1v-1.6l1.6-1v2.6h1.7v1.3h-1.7v2.8c0,0.4,0.1,0.7,0.2,0.8
		c0.1,0.2,0.4,0.2,0.6,0.2c0.2,0,0.4-0.1,0.6-0.2l0.4,1.3c-0.3,0.2-0.7,0.2-1,0.2C485.8,128.4,485.2,128.2,484.8,127.8z"/>
	<path class="st8" d="M488.7,120.8c-0.2-0.2-0.3-0.4-0.3-0.7c0-0.3,0.1-0.5,0.3-0.7c0.2-0.2,0.4-0.3,0.7-0.3c0.3,0,0.5,0.1,0.7,0.3
		c0.2,0.2,0.3,0.4,0.3,0.7c0,0.3-0.1,0.5-0.3,0.7c-0.2,0.2-0.4,0.3-0.7,0.3C489.2,121.1,488.9,121,488.7,120.8z M488.7,121.9h1.6
		v6.4h-1.6V121.9z"/>
	<path class="st8" d="M493.1,128c-0.5-0.3-0.9-0.7-1.1-1.2c-0.3-0.5-0.4-1.1-0.4-1.7c0-0.6,0.1-1.2,0.4-1.7c0.3-0.5,0.6-0.9,1.1-1.2
		c0.5-0.3,1.1-0.4,1.7-0.4s1.2,0.1,1.7,0.4c0.5,0.3,0.9,0.7,1.1,1.2c0.3,0.5,0.4,1.1,0.4,1.7c0,0.6-0.1,1.2-0.4,1.7
		c-0.3,0.5-0.6,0.9-1.1,1.2c-0.5,0.3-1.1,0.4-1.7,0.4S493.6,128.3,493.1,128z M496,126.5c0.3-0.4,0.4-0.8,0.4-1.4
		c0-0.6-0.1-1-0.4-1.4c-0.3-0.4-0.7-0.6-1.2-0.6c-0.5,0-0.9,0.2-1.2,0.6c-0.3,0.4-0.4,0.8-0.4,1.4c0,0.6,0.1,1,0.4,1.4
		c0.3,0.4,0.7,0.6,1.2,0.6C495.4,127.1,495.7,126.9,496,126.5z"/>
	<path class="st8" d="M499.5,121.9h1.6v1c0.2-0.3,0.5-0.6,0.9-0.8c0.3-0.2,0.7-0.3,1.1-0.3c0.6,0,1.1,0.2,1.4,0.5
		c0.4,0.3,0.5,0.8,0.5,1.4v4.6h-1.6v-4.1c0-0.4-0.1-0.6-0.2-0.8c-0.2-0.2-0.4-0.3-0.7-0.3c-0.3,0-0.5,0.1-0.7,0.3
		c-0.2,0.2-0.4,0.5-0.5,0.9c-0.1,0.4-0.2,0.9-0.2,1.4v2.5h-1.6L499.5,121.9L499.5,121.9z"/>
	<path class="st8" d="M510,120.8c-0.2-0.2-0.3-0.4-0.3-0.7c0-0.3,0.1-0.5,0.3-0.7c0.2-0.2,0.4-0.3,0.7-0.3c0.3,0,0.5,0.1,0.7,0.3
		c0.2,0.2,0.3,0.4,0.3,0.7c0,0.3-0.1,0.5-0.3,0.7c-0.2,0.2-0.4,0.3-0.7,0.3C510.4,121.1,510.2,121,510,120.8z M509.9,121.9h1.6v6.4
		h-1.6V121.9z"/>
	<path class="st8" d="M513.6,127.9c-0.4-0.3-0.7-0.7-0.9-1.2l1.3-0.7c0.1,0.3,0.3,0.6,0.5,0.8c0.2,0.2,0.5,0.3,0.8,0.3
		c0.2,0,0.4,0,0.6-0.1c0.2-0.1,0.2-0.3,0.2-0.5c0-0.2-0.1-0.4-0.3-0.5c-0.2-0.1-0.5-0.3-0.8-0.4c-0.1,0-0.1-0.1-0.3-0.1
		c-0.5-0.2-0.9-0.4-1.1-0.7c-0.3-0.3-0.4-0.7-0.4-1.1c0-0.3,0.1-0.6,0.3-0.9c0.2-0.3,0.4-0.5,0.7-0.6c0.3-0.2,0.7-0.2,1-0.2
		c0.4,0,0.8,0.1,1.2,0.3c0.4,0.2,0.6,0.4,0.8,0.8l-0.9,0.9c-0.3-0.4-0.6-0.6-1-0.6c-0.2,0-0.3,0-0.4,0.1c-0.1,0.1-0.2,0.2-0.2,0.4
		c0,0.2,0.1,0.3,0.3,0.4c0.2,0.1,0.5,0.3,1,0.5c0.5,0.2,0.9,0.4,1.1,0.7c0.3,0.3,0.4,0.7,0.4,1.1c0,0.6-0.2,1.1-0.6,1.5
		c-0.4,0.4-0.9,0.6-1.6,0.6C514.6,128.4,514,128.2,513.6,127.9z"/>
	<path class="st8" d="M384.8,143c-0.4-0.4-0.6-1-0.6-1.8v-2.8h-1v-1.3h1v-1.6l1.6-1v2.6h1.7v1.3h-1.7v2.8c0,0.4,0.1,0.7,0.2,0.8
		c0.1,0.2,0.4,0.2,0.6,0.2c0.2,0,0.4-0.1,0.6-0.2l0.4,1.3c-0.3,0.2-0.7,0.2-1,0.2C385.8,143.6,385.3,143.4,384.8,143z"/>
	<path class="st8" d="M389.5,143.2c-0.5-0.3-0.9-0.7-1.1-1.2c-0.3-0.5-0.4-1.1-0.4-1.7c0-0.6,0.1-1.2,0.4-1.7
		c0.3-0.5,0.6-0.9,1.1-1.2c0.5-0.3,1.1-0.4,1.7-0.4s1.2,0.1,1.7,0.4c0.5,0.3,0.9,0.7,1.1,1.2c0.3,0.5,0.4,1.1,0.4,1.7
		c0,0.6-0.1,1.2-0.4,1.7c-0.3,0.5-0.6,0.9-1.1,1.2c-0.5,0.3-1.1,0.4-1.7,0.4S390,143.4,389.5,143.2z M392.4,141.7
		c0.3-0.4,0.4-0.8,0.4-1.4c0-0.6-0.1-1-0.4-1.4c-0.3-0.4-0.7-0.6-1.2-0.6s-0.9,0.2-1.2,0.6c-0.3,0.4-0.4,0.8-0.4,1.4
		c0,0.6,0.1,1,0.4,1.4c0.3,0.4,0.7,0.6,1.2,0.6S392.1,142.1,392.4,141.7z"/>
	<path class="st8" d="M397.1,143.2c-0.5-0.3-0.9-0.7-1.1-1.2c-0.3-0.5-0.4-1.1-0.4-1.7c0-0.6,0.1-1.2,0.4-1.7
		c0.3-0.5,0.6-0.9,1.1-1.2c0.5-0.3,1.1-0.4,1.7-0.4c0.7,0,1.2,0.1,1.7,0.4c0.5,0.3,0.9,0.7,1.1,1.2c0.3,0.5,0.4,1.1,0.4,1.7
		c0,0.6-0.1,1.2-0.4,1.7c-0.3,0.5-0.6,0.9-1.1,1.2c-0.5,0.3-1.1,0.4-1.7,0.4C398.2,143.6,397.6,143.4,397.1,143.2z M400,141.7
		c0.3-0.4,0.4-0.8,0.4-1.4c0-0.6-0.1-1-0.4-1.4c-0.3-0.4-0.7-0.6-1.2-0.6c-0.5,0-0.9,0.2-1.2,0.6c-0.3,0.4-0.4,0.8-0.4,1.4
		c0,0.6,0.1,1,0.4,1.4c0.3,0.4,0.7,0.6,1.2,0.6C399.3,142.2,399.7,142.1,400,141.7z"/>
	<path class="st8" d="M407,143.1c-0.4-0.3-0.7-0.7-0.9-1.2l1.3-0.7c0.1,0.3,0.3,0.6,0.5,0.8c0.2,0.2,0.5,0.3,0.8,0.3
		c0.2,0,0.4,0,0.6-0.1c0.2-0.1,0.2-0.3,0.2-0.5c0-0.2-0.1-0.4-0.3-0.5c-0.2-0.1-0.5-0.3-0.8-0.4c-0.1,0-0.1-0.1-0.3-0.1
		c-0.5-0.2-0.9-0.4-1.1-0.7c-0.3-0.3-0.4-0.7-0.4-1.1c0-0.3,0.1-0.6,0.3-0.9c0.2-0.3,0.4-0.5,0.7-0.6c0.3-0.2,0.7-0.2,1-0.2
		c0.4,0,0.8,0.1,1.2,0.3c0.4,0.2,0.6,0.4,0.8,0.8l-0.9,0.9c-0.3-0.4-0.6-0.6-1-0.6c-0.2,0-0.3,0-0.4,0.1c-0.1,0.1-0.2,0.2-0.2,0.3
		c0,0.2,0.1,0.3,0.3,0.4c0.2,0.1,0.5,0.3,1,0.5c0.5,0.2,0.9,0.4,1.1,0.7c0.3,0.3,0.4,0.7,0.4,1.1c0,0.6-0.2,1.1-0.6,1.5
		c-0.4,0.4-0.9,0.6-1.6,0.6C408,143.6,407.5,143.4,407,143.1z"/>
	<path class="st8" d="M412.2,134.5h1.6v3.6c0.2-0.3,0.5-0.6,0.8-0.8c0.4-0.2,0.7-0.3,1.2-0.3c0.6,0,1.1,0.2,1.5,0.5
		c0.4,0.3,0.5,0.8,0.5,1.4v4.6h-1.6v-4c0-0.4-0.1-0.7-0.2-0.9s-0.4-0.3-0.7-0.3c-0.3,0-0.5,0.1-0.7,0.3c-0.2,0.2-0.4,0.4-0.6,0.8
		c-0.1,0.4-0.2,0.8-0.2,1.4v2.7h-1.6L412.2,134.5L412.2,134.5z"/>
	<path class="st8" d="M420.7,143.2c-0.5-0.3-0.9-0.7-1.1-1.2c-0.3-0.5-0.4-1.1-0.4-1.7c0-0.6,0.1-1.2,0.4-1.7
		c0.3-0.5,0.6-0.9,1.1-1.2c0.5-0.3,1.1-0.4,1.7-0.4c0.7,0,1.2,0.1,1.7,0.4c0.5,0.3,0.9,0.7,1.1,1.2c0.3,0.5,0.4,1.1,0.4,1.7
		c0,0.6-0.1,1.2-0.4,1.7c-0.3,0.5-0.6,0.9-1.1,1.2c-0.5,0.3-1.1,0.4-1.7,0.4C421.8,143.6,421.2,143.4,420.7,143.2z M423.6,141.7
		c0.3-0.4,0.4-0.8,0.4-1.4c0-0.6-0.1-1-0.4-1.4c-0.3-0.4-0.7-0.6-1.2-0.6c-0.5,0-0.9,0.2-1.2,0.6c-0.3,0.4-0.4,0.8-0.4,1.4
		c0,0.6,0.1,1,0.4,1.4c0.3,0.4,0.7,0.6,1.2,0.6C422.9,142.2,423.3,142.1,423.6,141.7z"/>
	<path class="st8" d="M427.1,137.1h1.6v1c0.2-0.4,0.5-0.6,0.8-0.8c0.3-0.2,0.7-0.3,1-0.3c0.2,0,0.5,0,0.8,0.1l-0.3,1.5
		c-0.2-0.1-0.4-0.2-0.7-0.2c-0.5,0-0.9,0.2-1.2,0.7c-0.3,0.5-0.5,1.2-0.5,2.1v2.3h-1.6L427.1,137.1L427.1,137.1z"/>
	<path class="st8" d="M433.6,143c-0.4-0.4-0.6-1-0.6-1.8v-2.8h-1v-1.3h1v-1.6l1.6-1v2.6h1.7v1.3h-1.7v2.8c0,0.4,0.1,0.7,0.2,0.8
		c0.1,0.2,0.4,0.2,0.6,0.2c0.2,0,0.4-0.1,0.6-0.2l0.4,1.3c-0.3,0.2-0.7,0.2-1,0.2C434.6,143.6,434,143.4,433.6,143z"/>
	<path class="st3" d="M352.5,133.5h11.1c0.9,0,1.7-0.7,1.7-1.7c0-0.9-0.7-1.7-1.7-1.7h-11.1c-0.9,0-1.7,0.7-1.7,1.7
		C350.8,132.8,351.6,133.5,352.5,133.5z"/>
	<path class="st5" d="M26.2,71.4h40.6c2,0,3.6-0.9,3.6-2c0-1.1-1.6-2-3.6-2H26.2c-2,0-3.6,0.9-3.6,2C22.6,70.5,24.2,71.4,26.2,71.4z
		"/>
	<path class="st3" d="M26.2,113.9h40.6c2,0,3.6-0.9,3.6-2c0-1.1-1.6-2-3.6-2H26.2c-2,0-3.6,0.9-3.6,2
		C22.6,113,24.2,113.9,26.2,113.9z"/>
	<path class="st3" d="M26.2,127.4h83.2c2,0,3.6-0.9,3.6-2c0-1.1-1.6-2-3.6-2H26.2c-2,0-3.6,0.9-3.6,2
		C22.6,126.5,24.2,127.4,26.2,127.4z"/>
	<path class="st3" d="M26.2,141.9h70.4c2,0,3.6-0.9,3.6-2c0-1.1-1.6-2-3.6-2H26.2c-2,0-3.6,0.9-3.6,2
		C22.6,141,24.2,141.9,26.2,141.9z"/>
	<path class="st3" d="M26.2,156.4H104c2,0,3.6-0.9,3.6-2s-1.6-2-3.6-2H26.2c-2,0-3.6,0.9-3.6,2S24.2,156.4,26.2,156.4z"/>
	<path class="st5" d="M26.2,197.6h63.4c2,0,3.6-0.9,3.6-2c0-1.1-1.6-2-3.6-2H26.2c-2,0-3.6,0.9-3.6,2
		C22.6,196.7,24.2,197.6,26.2,197.6z"/>
	<path class="st5" d="M26.2,212.5h82.1c2,0,3.6-0.9,3.6-2s-1.6-2-3.6-2H26.2c-2,0-3.6,0.9-3.6,2S24.2,212.5,26.2,212.5z"/>
	<path class="st5" d="M23.2,92.2v-1.5l4.9-2.6v1.7l-3.2,1.7l3.2,1.7v1.7L23.2,92.2z"/>
	<path class="st5" d="M29.7,86.5h1.6v3.6c0.2-0.3,0.5-0.6,0.8-0.8c0.4-0.2,0.7-0.3,1.2-0.3c0.6,0,1.1,0.2,1.5,0.5
		c0.4,0.3,0.5,0.8,0.5,1.4v4.6h-1.6v-4c0-0.4-0.1-0.7-0.2-0.9c-0.2-0.2-0.4-0.3-0.7-0.3c-0.3,0-0.5,0.1-0.7,0.3
		c-0.2,0.2-0.4,0.5-0.6,0.8c-0.1,0.4-0.2,0.8-0.2,1.4v2.7h-1.6L29.7,86.5L29.7,86.5z"/>
	<path class="st5" d="M38.1,95c-0.5-0.3-0.8-0.7-1-1.2c-0.2-0.5-0.3-1-0.3-1.6c0-0.5,0.1-1.1,0.3-1.6c0.2-0.5,0.6-0.9,1-1.2
		c0.5-0.3,1-0.5,1.7-0.5c0.7,0,1.2,0.2,1.7,0.5c0.4,0.3,0.8,0.7,1,1.2s0.3,1,0.3,1.5v0.6h-4.4c0,0.4,0.2,0.7,0.4,1
		c0.3,0.3,0.6,0.4,1.1,0.4c0.4,0,0.7-0.1,0.9-0.2c0.2-0.2,0.5-0.4,0.7-0.8l1.3,0.5c-0.3,0.6-0.6,1.1-1.1,1.4
		c-0.5,0.3-1.1,0.5-1.8,0.5C39.1,95.5,38.5,95.4,38.1,95z M41.2,91.5c-0.1-0.4-0.2-0.6-0.5-0.9c-0.2-0.2-0.5-0.3-0.9-0.3
		c-0.4,0-0.7,0.1-0.9,0.4c-0.2,0.2-0.4,0.5-0.5,0.9L41.2,91.5L41.2,91.5z"/>
	<path class="st5" d="M44.3,95c-0.4-0.3-0.5-0.8-0.5-1.4c0-0.6,0.2-1.1,0.7-1.5c0.5-0.4,1.1-0.6,2-0.6h1.1v-0.3
		c0-0.3-0.1-0.5-0.3-0.7c-0.2-0.2-0.5-0.2-0.8-0.2c-0.6,0-0.9,0.2-1.1,0.7l-1.3-0.3c0.1-0.5,0.4-1,0.8-1.3c0.4-0.3,1-0.5,1.6-0.5
		c0.9,0,1.5,0.2,2,0.7c0.5,0.5,0.7,1.1,0.7,2v3.8h-1.3l-0.2-0.8c-0.5,0.6-1.1,0.9-2,0.9C45.2,95.5,44.7,95.4,44.3,95z M47.2,93.8
		c0.3-0.2,0.4-0.6,0.4-1v-0.1h-1c-0.3,0-0.6,0.1-0.8,0.2c-0.2,0.1-0.3,0.3-0.3,0.6c0,0.2,0.1,0.3,0.2,0.5s0.3,0.2,0.5,0.2
		C46.5,94.2,46.9,94.1,47.2,93.8z"/>
	<path class="st5" d="M51.2,94.6c-0.5-0.6-0.7-1.4-0.7-2.4c0-1,0.2-1.8,0.7-2.4c0.5-0.6,1.2-0.9,2.1-0.9c0.4,0,0.7,0.1,1,0.2
		c0.3,0.1,0.5,0.3,0.7,0.5v-3.2h1.6v9h-1.6v-0.7c-0.1,0.2-0.3,0.4-0.6,0.5c-0.3,0.2-0.7,0.2-1.1,0.2C52.3,95.5,51.7,95.2,51.2,94.6z
		 M54.6,93.7c0.3-0.3,0.4-0.8,0.4-1.4c0-0.6-0.1-1.1-0.4-1.4c-0.3-0.3-0.6-0.5-1.1-0.5s-0.8,0.2-1.1,0.5c-0.3,0.3-0.4,0.8-0.4,1.4
		c0,0.6,0.1,1.1,0.4,1.4c0.3,0.3,0.6,0.5,1.1,0.5S54.4,94,54.6,93.7z"/>
	<path class="st5" d="M58.1,93.2l3.2-1.7l-3.2-1.7v-1.7l4.9,2.6v1.5l-4.9,2.6V93.2z"/>
	<path class="st5" d="M23.2,178.2v-1.5l4.9-2.6v1.7l-3.2,1.7l3.2,1.7v1.7L23.2,178.2z"/>
	<path class="st5" d="M34.4,171.9h1.5L30.4,182h-1.5L34.4,171.9z"/>
	<path class="st5" d="M36.8,172.4h1.6v3.6c0.2-0.3,0.5-0.6,0.8-0.8c0.4-0.2,0.7-0.3,1.2-0.3c0.6,0,1.1,0.2,1.5,0.5
		c0.4,0.3,0.5,0.8,0.5,1.4v4.6h-1.6v-4c0-0.4-0.1-0.7-0.2-0.9c-0.2-0.2-0.4-0.3-0.7-0.3c-0.3,0-0.5,0.1-0.7,0.3
		c-0.2,0.2-0.4,0.5-0.6,0.8c-0.1,0.4-0.2,0.8-0.2,1.4v2.7h-1.6L36.8,172.4L36.8,172.4z"/>
	<path class="st5" d="M45.1,181c-0.5-0.3-0.8-0.7-1-1.2c-0.2-0.5-0.3-1-0.3-1.6c0-0.5,0.1-1.1,0.3-1.6c0.2-0.5,0.6-0.9,1-1.2
		c0.5-0.3,1-0.5,1.7-0.5c0.7,0,1.2,0.2,1.7,0.5c0.4,0.3,0.8,0.7,1,1.2c0.2,0.5,0.3,1,0.3,1.5v0.6h-4.4c0,0.4,0.2,0.7,0.4,1
		c0.3,0.3,0.6,0.4,1.1,0.4c0.4,0,0.7-0.1,0.9-0.2c0.2-0.2,0.5-0.4,0.7-0.8l1.3,0.5c-0.3,0.6-0.6,1.1-1.1,1.4
		c-0.5,0.3-1.1,0.5-1.8,0.5C46.2,181.5,45.6,181.3,45.1,181z M48.2,177.4c-0.1-0.4-0.2-0.6-0.5-0.9c-0.2-0.2-0.5-0.3-0.9-0.3
		c-0.4,0-0.7,0.1-0.9,0.4c-0.2,0.2-0.4,0.5-0.5,0.9L48.2,177.4L48.2,177.4z"/>
	<path class="st5" d="M51.4,181c-0.4-0.3-0.5-0.8-0.5-1.4c0-0.6,0.2-1.1,0.7-1.5c0.5-0.4,1.1-0.6,2-0.6h1.1v-0.3
		c0-0.3-0.1-0.5-0.3-0.7c-0.2-0.2-0.5-0.2-0.8-0.2c-0.6,0-0.9,0.2-1.1,0.7l-1.3-0.3c0.1-0.5,0.4-1,0.8-1.3c0.4-0.3,1-0.5,1.6-0.5
		c0.9,0,1.5,0.2,2,0.7c0.5,0.5,0.7,1.1,0.7,2v3.8h-1.3l-0.2-0.8c-0.5,0.6-1.1,0.9-2,0.9C52.2,181.5,51.8,181.3,51.4,181z
		 M54.2,179.7c0.3-0.2,0.4-0.6,0.4-1v-0.1h-1c-0.3,0-0.6,0.1-0.8,0.2c-0.2,0.1-0.3,0.3-0.3,0.6c0,0.2,0.1,0.3,0.2,0.5
		c0.1,0.1,0.3,0.2,0.5,0.2C53.6,180.1,53.9,180,54.2,179.7z"/>
	<path class="st5" d="M58.2,180.6c-0.5-0.6-0.7-1.4-0.7-2.4c0-1,0.2-1.8,0.7-2.4c0.5-0.6,1.2-0.9,2.1-0.9c0.4,0,0.7,0.1,1,0.2
		c0.3,0.1,0.5,0.3,0.7,0.5v-3.2h1.6v9H62v-0.7c-0.1,0.2-0.3,0.4-0.6,0.5c-0.3,0.2-0.7,0.2-1.1,0.2C59.4,181.5,58.7,181.2,58.2,180.6
		z M61.7,179.6c0.3-0.3,0.4-0.8,0.4-1.4c0-0.6-0.1-1.1-0.4-1.4c-0.3-0.3-0.6-0.5-1.1-0.5s-0.8,0.2-1.1,0.5c-0.3,0.3-0.4,0.8-0.4,1.4
		c0,0.6,0.1,1.1,0.4,1.4c0.3,0.3,0.6,0.5,1.1,0.5S61.4,179.9,61.7,179.6z"/>
	<path class="st5" d="M65.1,179.1l3.2-1.7l-3.2-1.7v-1.7l4.9,2.6v1.5l-4.9,2.6V179.1z"/>
	<path d="M230.3,24h2.5l2.8,7.5l2.8-7.5h2.5v12h-2.2v-7.4l-2.3,6.3h-1.6l-2.3-6.3V36h-2.2L230.3,24L230.3,24z"/>
	<path d="M244.9,35.5c-0.6-0.4-1.1-1-1.4-1.7c-0.3-0.7-0.4-1.4-0.4-2.1c0-0.7,0.1-1.4,0.4-2.1c0.3-0.7,0.8-1.2,1.4-1.7
		c0.6-0.4,1.4-0.7,2.3-0.7c0.9,0,1.7,0.2,2.3,0.6c0.6,0.4,1.1,1,1.3,1.6c0.3,0.7,0.4,1.3,0.4,2v0.9h-6c0,0.5,0.2,1,0.6,1.4
		c0.4,0.4,0.9,0.6,1.5,0.6c0.5,0,0.9-0.1,1.2-0.3c0.3-0.2,0.6-0.6,0.9-1l1.7,0.6c-0.4,0.8-0.9,1.4-1.5,1.9s-1.5,0.7-2.5,0.7
		C246.3,36.2,245.5,36,244.9,35.5z M249.1,30.7c-0.1-0.5-0.3-0.9-0.6-1.2c-0.3-0.3-0.7-0.5-1.2-0.5c-0.5,0-0.9,0.2-1.3,0.5
		c-0.3,0.3-0.5,0.7-0.6,1.2H249.1z"/>
	<path d="M254.4,35.4c-0.6-0.5-0.8-1.3-0.8-2.4v-3.8h-1.3v-1.8h1.3v-2.2l2.1-1.3v3.5h2.3v1.8h-2.3V33c0,0.5,0.1,0.9,0.3,1.1
		c0.2,0.2,0.5,0.3,0.8,0.3c0.3,0,0.6-0.1,0.8-0.2l0.5,1.7c-0.4,0.2-0.9,0.3-1.4,0.3C255.7,36.2,254.9,35.9,254.4,35.4z"/>
	<path d="M259.7,35.5c-0.5-0.5-0.7-1.1-0.7-1.9c0-0.9,0.3-1.5,1-2.1c0.7-0.5,1.5-0.8,2.6-0.8h1.5v-0.4c0-0.4-0.1-0.7-0.4-0.9
		c-0.3-0.2-0.7-0.3-1.1-0.3c-0.7,0-1.2,0.3-1.5,1l-1.8-0.4c0.1-0.7,0.5-1.3,1.1-1.7c0.6-0.4,1.3-0.7,2.2-0.7c1.2,0,2.1,0.3,2.7,0.9
		c0.6,0.6,0.9,1.5,0.9,2.7V36h-1.8l-0.2-1.1c-0.7,0.8-1.6,1.2-2.7,1.2C260.8,36.2,260.2,36,259.7,35.5z M263.5,33.9
		c0.4-0.3,0.6-0.8,0.6-1.3v-0.2h-1.4c-0.5,0-0.8,0.1-1.1,0.3c-0.3,0.2-0.4,0.5-0.4,0.8c0,0.3,0.1,0.5,0.3,0.6
		c0.2,0.2,0.4,0.2,0.7,0.2C262.7,34.4,263.1,34.2,263.5,33.9z"/>
	<path d="M273.9,35.4c-0.6-0.5-0.8-1.3-0.8-2.4v-3.8h-1.3v-1.8h1.3v-2.2l2.1-1.3v3.5h2.3v1.8h-2.3V33c0,0.5,0.1,0.9,0.3,1.1
		c0.2,0.2,0.5,0.3,0.9,0.3c0.3,0,0.6-0.1,0.8-0.2l0.5,1.7c-0.4,0.2-0.9,0.3-1.4,0.3C275.2,36.2,274.4,35.9,273.9,35.4z"/>
	<path d="M279.2,35.5c-0.5-0.5-0.7-1.1-0.7-1.9c0-0.9,0.3-1.5,1-2.1c0.7-0.5,1.5-0.8,2.6-0.8h1.5v-0.4c0-0.4-0.1-0.7-0.4-0.9
		c-0.3-0.2-0.7-0.3-1.1-0.3c-0.7,0-1.2,0.3-1.5,1l-1.8-0.4c0.1-0.7,0.5-1.3,1.1-1.7c0.6-0.4,1.3-0.7,2.2-0.7c1.2,0,2.1,0.3,2.7,0.9
		c0.6,0.6,0.9,1.5,0.9,2.7V36H284l-0.2-1.1c-0.7,0.8-1.6,1.2-2.7,1.2C280.4,36.2,279.7,36,279.2,35.5z M283.1,33.9
		c0.4-0.3,0.6-0.8,0.6-1.3v-0.2h-1.4c-0.5,0-0.8,0.1-1.1,0.3c-0.3,0.2-0.4,0.5-0.4,0.8c0,0.3,0.1,0.5,0.3,0.6
		c0.2,0.2,0.4,0.2,0.7,0.2C282.2,34.4,282.7,34.2,283.1,33.9z"/>
	<path d="M288.4,38.9c-0.7-0.5-1.1-1.2-1.1-2.1c0-0.7,0.2-1.3,0.7-1.7c-0.3-0.4-0.4-0.8-0.4-1.3c0-0.4,0.1-0.8,0.3-1.1
		c0.2-0.3,0.5-0.6,0.8-0.8c-0.4-0.5-0.6-1.1-0.6-1.8c0-0.6,0.1-1.1,0.4-1.5c0.3-0.4,0.7-0.8,1.1-1c0.5-0.2,1-0.4,1.6-0.4
		c0.6,0,1.1,0.1,1.6,0.4l1.6-0.9l0.8,1.4l-1.2,0.6c0.2,0.4,0.3,0.9,0.3,1.4c0,0.6-0.1,1.1-0.4,1.5c-0.3,0.4-0.7,0.8-1.1,1
		c-0.5,0.2-1,0.3-1.6,0.3c-0.4,0-0.9-0.1-1.3-0.2c-0.3,0.2-0.4,0.4-0.4,0.7c0,0.2,0.1,0.4,0.2,0.5c0.1,0.1,0.3,0.2,0.6,0.2h1.8
		c0.9,0,1.7,0.2,2.2,0.7c0.6,0.4,0.8,1.1,0.8,1.9c0,0.7-0.2,1.2-0.6,1.7s-0.9,0.8-1.5,1c-0.6,0.2-1.2,0.3-1.9,0.3
		C290,39.7,289.1,39.4,288.4,38.9z M292.5,37.6c0.3-0.2,0.5-0.4,0.5-0.8c0-0.3-0.1-0.6-0.4-0.7c-0.2-0.1-0.6-0.2-1-0.2h-1.2
		c-0.4,0-0.7,0-1-0.1c-0.1,0.2-0.2,0.5-0.2,0.8c0,0.4,0.2,0.7,0.5,0.9c0.4,0.2,0.8,0.3,1.4,0.3C291.7,37.9,292.2,37.8,292.5,37.6z
		 M292,31c0.2-0.2,0.3-0.5,0.3-0.8c0-0.4-0.1-0.6-0.3-0.9c-0.2-0.2-0.5-0.3-0.9-0.3s-0.6,0.1-0.9,0.3c-0.2,0.2-0.3,0.5-0.3,0.9
		c0,0.3,0.1,0.6,0.3,0.8s0.5,0.3,0.9,0.3S291.8,31.2,292,31z"/>
	<path d="M297.2,35.5c-0.6-0.5-1-1-1.2-1.6l1.7-0.9c0.2,0.4,0.4,0.8,0.7,1c0.3,0.3,0.6,0.4,1,0.4c0.3,0,0.6-0.1,0.8-0.2
		c0.2-0.1,0.3-0.3,0.3-0.6c0-0.3-0.1-0.5-0.4-0.6s-0.6-0.3-1.1-0.5c-0.1,0-0.2-0.1-0.4-0.1c-0.7-0.3-1.2-0.6-1.5-1
		c-0.4-0.4-0.6-0.9-0.6-1.5c0-0.4,0.1-0.9,0.4-1.2c0.2-0.4,0.6-0.7,1-0.9c0.4-0.2,0.9-0.3,1.4-0.3c0.6,0,1.1,0.1,1.6,0.4
		c0.5,0.2,0.9,0.6,1.1,1l-1.3,1.2c-0.3-0.5-0.8-0.8-1.4-0.8c-0.2,0-0.4,0.1-0.6,0.2c-0.2,0.1-0.3,0.3-0.3,0.5c0,0.2,0.1,0.4,0.4,0.6
		c0.2,0.2,0.7,0.4,1.4,0.6c0.7,0.2,1.2,0.6,1.5,0.9c0.4,0.4,0.5,0.9,0.5,1.5c0,0.9-0.3,1.5-0.8,2c-0.5,0.5-1.2,0.8-2.1,0.8
		C298.6,36.2,297.8,36,297.2,35.5z"/>
</g>
</svg>
