<?xml version="1.0" encoding="utf-8"?>
<!-- Generator: Adobe Illustrator 26.0.0, SVG Export Plug-In . SVG Version: 6.00 Build 0)  -->
<svg version="1.1" id="Layer_1" xmlns="http://www.w3.org/2000/svg" xmlns:xlink="http://www.w3.org/1999/xlink" x="0px" y="0px"
	 viewBox="0 0 523 380" style="enable-background:new 0 0 523 380;" xml:space="preserve">
<style type="text/css">
	.st0{fill:#FFFFFF;}
	.st1{fill-rule:evenodd;clip-rule:evenodd;fill:#DADBE2;}
	.st2{fill:#DADBE2;}
	.st3{fill:#1DA69A;}
	.st4{opacity:0.48;fill:#AEADAD;enable-background:new    ;}
</style>
<g>
	<path class="st0" d="M0,13c0-1.9,0.3-3.7,1-5.4S2.7,4.3,4,3s2.9-2.3,4.6-3c1.7-0.7,3.6-1,5.4-1h154.9l56.2,56.2v211.1
		c0,1.9-0.3,3.7-1,5.4c-0.7,1.7-1.7,3.3-3,4.6s-2.9,2.3-4.6,3c-1.7,0.7-3.6,1-5.4,1H14c-1.9,0-3.7-0.3-5.4-1c-1.7-0.7-3.3-1.7-4.6-3
		s-2.3-2.9-3-4.6s-1-3.6-1-5.4V13z"/>
	<path class="st1" d="M14,273.7h197.2c1.8,0,3.6-0.7,5-1.9s2.2-3,2.3-4.8V58.3L166.4,6.2H14c-1.8,0.2-3.5,0.9-4.8,2.1
		C7.9,9.5,7,11.1,6.7,12.9v253.9c0,0.9,0.2,1.8,0.6,2.7c0.4,0.8,0.9,1.6,1.6,2.2c0.7,0.6,1.5,1.1,2.4,1.4c0.9,0.3,1.8,0.4,2.7,0.4
		V273.7z M168.9-1H14c-1.9,0-3.7,0.3-5.4,1C6.9,0.7,5.3,1.7,4,3S1.7,5.9,1,7.6C0.3,9.3,0,11.2,0,13v253.9c0,1.9,0.3,3.7,1,5.4
		c0.7,1.7,1.7,3.3,3,4.6c1.3,1.3,2.9,2.4,4.6,3.1c1.7,0.7,3.6,1,5.4,1h197.2c1.9,0,3.7-0.3,5.4-1c1.7-0.7,3.3-1.7,4.6-3.1
		c1.3-1.3,2.3-2.9,3-4.6c0.7-1.7,1-3.6,1-5.4V55.8L168.9-1z"/>
	<path class="st2" d="M168.9-1l56.2,56.2h-56.2V-1z"/>
	<path class="st2" d="M23,179.9c0-0.5,0.2-0.9,0.5-1.2c0.3-0.3,0.8-0.5,1.2-0.5h156.2c0.5,0,0.9,0.2,1.2,0.5s0.5,0.8,0.6,1.2
		c0,0.2,0,0.5-0.1,0.7c-0.1,0.2-0.2,0.4-0.4,0.6c-0.2,0.2-0.4,0.3-0.6,0.4c-0.2,0.1-0.4,0.1-0.7,0.1H24.7c-0.4,0-0.9-0.2-1.2-0.5
		C23.2,180.8,23,180.3,23,179.9z M23,73.1c0-0.4,0.2-0.9,0.5-1.2c0.3-0.3,0.7-0.5,1.2-0.5h117c0.5,0,0.9,0.2,1.2,0.5
		c0.3,0.3,0.5,0.8,0.5,1.2c0,0.5-0.2,0.9-0.5,1.2c-0.3,0.3-0.8,0.5-1.2,0.5h-117c-0.4,0-0.8-0.2-1.1-0.5
		C23.3,73.9,23.1,73.5,23,73.1L23,73.1z M23,188.7c0-0.4,0.2-0.7,0.4-1c0.3-0.3,0.6-0.4,1-0.4h172.5c0.4,0,0.7,0.2,1,0.4
		c0.3,0.3,0.4,0.6,0.4,1c0,0.4-0.2,0.7-0.4,1c-0.3,0.3-0.6,0.4-1,0.4H24.5c-0.4,0-0.8-0.2-1-0.4C23.2,189.5,23,189.1,23,188.7z
		 M23,82.6c0-0.2,0-0.5,0.1-0.7c0.1-0.2,0.2-0.4,0.4-0.6c0.2-0.2,0.4-0.3,0.6-0.4c0.2-0.1,0.4-0.1,0.7-0.1h75.6c0.2,0,0.4,0,0.7,0.1
		c0.2,0.1,0.4,0.2,0.6,0.4c0.2,0.2,0.3,0.3,0.4,0.6c0.1,0.2,0.1,0.4,0.1,0.7c0,0.2,0,0.4-0.1,0.7c-0.1,0.2-0.2,0.4-0.4,0.6
		c-0.2,0.2-0.3,0.3-0.6,0.4c-0.2,0.1-0.4,0.1-0.7,0.1H24.8c-0.2,0-0.5,0-0.7-0.1c-0.2-0.1-0.4-0.2-0.6-0.4c-0.2-0.2-0.3-0.4-0.4-0.6
		C23.1,83.1,23,82.9,23,82.6z M23,198.4c0-0.4,0.2-0.9,0.5-1.2c0.3-0.3,0.7-0.5,1.2-0.5h171.7c0.5,0,0.9,0.2,1.2,0.5
		s0.5,0.8,0.5,1.2c0,0.5-0.2,0.9-0.5,1.2s-0.8,0.5-1.2,0.6H24.6c-0.4-0.1-0.8-0.3-1.1-0.6C23.2,199.2,23,198.8,23,198.4z M23,232.3
		c0-0.4,0.2-0.9,0.5-1.2c0.3-0.3,0.7-0.5,1.2-0.5h175.9c0.2,0,0.4,0,0.7,0.1c0.2,0.1,0.4,0.2,0.6,0.4c0.2,0.2,0.3,0.3,0.4,0.6
		c0.1,0.2,0.1,0.4,0.1,0.7c0,0.2,0,0.4-0.1,0.7c-0.1,0.2-0.2,0.4-0.4,0.6c-0.2,0.2-0.3,0.3-0.6,0.4c-0.2,0.1-0.4,0.1-0.7,0.1H24.7
		c-0.4,0-0.8-0.2-1.1-0.5C23.3,233.2,23.1,232.8,23,232.3L23,232.3z M23,108.2c0-0.2,0-0.5,0.1-0.7c0.1-0.2,0.2-0.4,0.4-0.6
		c0.2-0.2,0.4-0.3,0.6-0.4c0.2-0.1,0.4-0.1,0.7-0.1h168.4c0.2,0,0.4,0,0.7,0.1c0.2,0.1,0.4,0.2,0.6,0.4c0.2,0.2,0.3,0.3,0.4,0.6
		c0.1,0.2,0.1,0.4,0.1,0.7c0,0.2,0,0.4-0.1,0.7c-0.1,0.2-0.2,0.4-0.4,0.6c-0.2,0.2-0.3,0.3-0.6,0.4c-0.2,0.1-0.4,0.1-0.7,0.1H24.9
		c-0.2,0-0.5,0-0.7-0.1c-0.2-0.1-0.4-0.2-0.6-0.4c-0.2-0.2-0.3-0.4-0.4-0.6C23.1,108.7,23.1,108.5,23,108.2L23,108.2z M23,240.2
		c0-0.4,0.2-0.9,0.5-1.2c0.3-0.3,0.7-0.5,1.2-0.5h168.6c0.5,0,0.9,0.2,1.2,0.5s0.5,0.8,0.5,1.2c0,0.2,0,0.5-0.1,0.7
		c-0.1,0.2-0.2,0.4-0.4,0.6c-0.2,0.2-0.3,0.3-0.6,0.4c-0.2,0.1-0.4,0.1-0.7,0.1H24.7c-0.4-0.1-0.8-0.3-1.1-0.6
		C23.3,241,23.1,240.6,23,240.2L23,240.2z M23,116.1c0-0.2,0-0.5,0.1-0.7c0.1-0.2,0.2-0.4,0.4-0.6c0.2-0.2,0.4-0.3,0.6-0.4
		c0.2-0.1,0.4-0.1,0.7-0.1h172c0.5,0,0.9,0.2,1.2,0.5c0.3,0.3,0.5,0.8,0.5,1.2c0,0.5-0.2,0.9-0.5,1.2c-0.3,0.3-0.8,0.5-1.2,0.5H24.9
		c-0.5,0-0.9-0.2-1.3-0.5C23.3,117,23.1,116.6,23,116.1L23,116.1z M23,248.1c0-0.4,0.2-0.9,0.5-1.2c0.3-0.3,0.7-0.5,1.2-0.6h172.1
		c0.5,0,0.9,0.2,1.2,0.5s0.5,0.8,0.5,1.2c0,0.5-0.2,0.9-0.5,1.2c-0.3,0.3-0.8,0.5-1.2,0.5H24.9c-0.4,0-0.9-0.2-1.2-0.5
		C23.4,249,23.2,248.6,23,248.1L23,248.1z M23,124.1c0-0.4,0.2-0.9,0.5-1.2c0.3-0.3,0.7-0.5,1.2-0.6h172.1c0.4,0.1,0.8,0.3,1,0.6
		c0.3,0.3,0.4,0.7,0.4,1.1c0,0.4-0.1,0.8-0.4,1.1c-0.3,0.3-0.6,0.5-1,0.6H24.9c-0.5,0-0.9-0.2-1.2-0.5
		C23.3,124.9,23.1,124.5,23,124.1L23,124.1z M23,132.2c0-0.5,0.2-0.9,0.5-1.3c0.3-0.3,0.8-0.5,1.3-0.5h160.7c0.2,0,0.5,0,0.7,0.1
		c0.2,0.1,0.4,0.2,0.6,0.4c0.2,0.2,0.3,0.4,0.4,0.6c0.1,0.2,0.1,0.4,0.1,0.7c0,0.5-0.2,0.9-0.5,1.2c-0.3,0.3-0.8,0.5-1.2,0.5H24.9
		c-0.5,0-0.9-0.2-1.2-0.5C23.3,133,23.1,132.6,23,132.2L23,132.2z M23,164.1c0-0.5,0.2-0.9,0.5-1.2c0.3-0.3,0.8-0.5,1.2-0.5h74.4
		c0.5,0,0.9,0.2,1.2,0.5c0.3,0.3,0.5,0.8,0.5,1.2c0,0.2,0,0.5-0.1,0.7c-0.1,0.2-0.2,0.4-0.4,0.6c-0.2,0.2-0.4,0.3-0.6,0.4
		c-0.2,0.1-0.4,0.1-0.7,0.1H24.7c-0.5,0-0.9-0.2-1.2-0.6C23.2,165,23,164.5,23,164.1z M23,206.3c0-0.5,0.2-0.9,0.5-1.2
		c0.3-0.3,0.8-0.5,1.2-0.5h149c0.2,0,0.5,0,0.7,0.1c0.2,0.1,0.4,0.2,0.6,0.4c0.2,0.2,0.3,0.4,0.4,0.6c0.1,0.2,0.1,0.4,0.1,0.7
		c0,0.2,0,0.5-0.1,0.7c-0.1,0.2-0.2,0.4-0.4,0.6c-0.2,0.2-0.4,0.3-0.6,0.4c-0.2,0.1-0.4,0.1-0.7,0.1h-149c-0.4,0-0.9-0.2-1.2-0.5
		C23.2,207.2,23,206.8,23,206.3z M23,171.9c0-0.4,0.2-0.8,0.5-1.2s0.7-0.5,1.1-0.5H99c0.4,0.1,0.8,0.3,1,0.6
		c0.3,0.3,0.4,0.7,0.4,1.1c0,0.4-0.1,0.8-0.4,1.1c-0.3,0.3-0.6,0.5-1,0.6H24.6c-0.4-0.1-0.8-0.3-1.1-0.6
		C23.2,172.8,23,172.4,23,171.9z"/>
	<path class="st3" d="M23,56c0-0.5,0.2-0.9,0.6-1.2c0.3-0.3,0.8-0.5,1.2-0.5h85.7c0.3-0.1,0.5-0.1,0.8,0c0.3,0.1,0.5,0.2,0.7,0.3
		c0.2,0.2,0.4,0.4,0.5,0.6c0.1,0.2,0.2,0.5,0.2,0.8s-0.1,0.5-0.2,0.8c-0.1,0.2-0.3,0.5-0.5,0.6c-0.2,0.2-0.4,0.3-0.7,0.3
		c-0.3,0.1-0.5,0.1-0.8,0H24.9c-0.5,0-0.9-0.2-1.3-0.5C23.3,56.9,23.1,56.4,23,56L23,56z"/>
	<path class="st2" d="M266.6,182.7h-23.5v-3.1h23.5v-6.9l8.9,8.1l-8.9,8.1V182.7z M265.7,194.1l13-12.2c0.2-0.2,0.3-0.5,0.3-0.8
		c0-0.3-0.1-0.6-0.3-0.8c-2.1-2.1-10-9.3-13-12.3c-0.2-0.1-0.4-0.2-0.6-0.3c-0.2,0-0.4,0-0.6,0.1c-0.2,0.1-0.4,0.2-0.5,0.4
		c-0.1,0.2-0.2,0.4-0.2,0.6v8.1h-23.5v8.6h23.8v8.1c0.1,0.1,0.1,0.3,0.3,0.4c0.1,0.1,0.2,0.2,0.4,0.2c0.1,0,0.3,0.1,0.5,0
		C265.4,194.2,265.5,194.2,265.7,194.1z"/>
	<g>
		<path class="st0" d="M297,112c0-1.9,0.3-3.7,1-5.4c0.7-1.7,1.7-3.3,3.1-4.6c1.3-1.3,2.9-2.3,4.6-3c1.7-0.7,3.6-1,5.4-1h155
			l56.2,56.2v211.1c0,1.9-0.3,3.7-1,5.4c-0.7,1.7-1.7,3.3-3,4.6c-1.3,1.3-2.9,2.3-4.6,3c-1.7,0.7-3.6,1-5.4,1H311.1
			c-1.9,0-3.7-0.3-5.4-1c-1.7-0.7-3.3-1.7-4.6-3c-1.3-1.3-2.4-2.9-3.1-4.6c-0.7-1.7-1-3.6-1-5.4V112z"/>
		<path class="st1" d="M311.1,372.6h197.1c1.8,0,3.6-0.7,4.9-1.9c1.4-1.2,2.2-2.9,2.4-4.7V157.5l-52.1-52.1H311
			c-1.8,0.2-3.5,0.9-4.8,2.1c-1.3,1.2-2.2,2.8-2.5,4.6v254c0,0.9,0.2,1.8,0.6,2.7c0.4,0.8,0.9,1.6,1.6,2.2c0.7,0.6,1.5,1.1,2.4,1.4
			C309.2,372.6,310.2,372.7,311.1,372.6z M466.1,98h-155c-1.9,0-3.7,0.3-5.4,1c-1.7,0.7-3.3,1.7-4.6,3c-1.3,1.3-2.4,2.9-3.1,4.6
			c-0.7,1.7-1,3.6-1,5.4v253.9c0,1.9,0.3,3.7,1,5.4c0.7,1.7,1.7,3.3,3,4.6c1.3,1.3,2.9,2.4,4.6,3c1.7,0.7,3.6,1,5.4,1h197.1
			c1.9,0,3.7-0.3,5.4-1c1.7-0.7,3.3-1.7,4.6-3.1c1.3-1.3,2.3-2.9,3-4.6c0.7-1.7,1-3.6,1-5.4V155.2L466.1,98z"/>
		<path class="st2" d="M466.1,98l56.2,56.2h-56.2V98z"/>
		<path class="st3" d="M321,270.9v-3.9h174v3.9H321z M321,256v-3.9h174v3.9H321z M321,225.9V222h174v3.9H321z M495,195.9H321V192
			h174V195.9z M495,301H321v-3.9h174V301z"/>
		<path class="st4" d="M321,177h174v3.9H321V177z M495,282.1v3.9H321v-3.9H495z M321,210.9v-3.9h174v3.9H321z M321,237.1h174v3.9
			H321V237.1z"/>
		<path class="st3" d="M495,330.9H321V327h174V330.9z"/>
		<path class="st4" d="M321,312h174v3.9H321V312z M321,345.9v-3.9h174v3.9H321z"/>
	</g>
</g>
</svg>
