<?xml version="1.0" encoding="utf-8"?>
<!-- Generator: Adobe Illustrator 26.0.0, SVG Export Plug-In . SVG Version: 6.00 Build 0)  -->
<svg version="1.1" id="Layer_1" xmlns="http://www.w3.org/2000/svg" xmlns:xlink="http://www.w3.org/1999/xlink" x="0px" y="0px"
	 viewBox="0 0 418 266" style="enable-background:new 0 0 418 266;" xml:space="preserve">
<style type="text/css">
	.st0{fill:none;stroke:#FA8617;stroke-width:2;stroke-miterlimit:10;}
	.st1{fill:none;stroke:#CACACA;stroke-width:2;stroke-miterlimit:10;}
	.st2{fill:none;stroke:#1DA69A;stroke-miterlimit:10;}
	.st3{fill:none;stroke:#FA8617;stroke-miterlimit:10;}
	.st4{fill:none;stroke:#CACACA;stroke-miterlimit:10;}
	.st5{fill:none;stroke:#1DA69A;stroke-width:1.5;stroke-miterlimit:10;}
	.st6{fill:none;stroke:#000000;stroke-miterlimit:10;}
	.st7{fill:#1DA69A;}
	.st8{opacity:0.54;fill:#1DA69A;enable-background:new    ;}
	.st9{fill:#FFFFFF;}
</style>
<g>
	<path class="st0" d="M115.6,70.4c4.4,0,7.9-3.6,7.9-7.9s-3.6-7.9-7.9-7.9c-4.4,0-7.9,3.6-7.9,7.9S111.2,70.4,115.6,70.4z"/>
	<path class="st1" d="M402.2,174.1c5,0,9-4,9-9s-4-9-9-9s-9,4-9,9S397.2,174.1,402.2,174.1z"/>
	<path class="st2" d="M255.1,67.5c2.9,0,5.3-2.4,5.3-5.3c0-2.9-2.4-5.3-5.3-5.3c-2.9,0-5.3,2.4-5.3,5.3
		C249.8,65.1,252.2,67.5,255.1,67.5z"/>
	<path class="st3" d="M7.6,229.2c3.8,0,6.8-3.1,6.8-6.9c0-3.8-3.1-6.9-6.8-6.9c-3.8,0-6.8,3.1-6.8,6.9
		C0.8,226.1,3.8,229.2,7.6,229.2z"/>
	<path class="st4" d="M96.9,221.6c2.9,0,5.2-2.3,5.2-5.2s-2.3-5.2-5.2-5.2c-2.9,0-5.2,2.3-5.2,5.2C91.7,219.3,94.1,221.6,96.9,221.6
		z"/>
	<path class="st5" d="M24.8,138.6l6.2,10.6"/>
	<path class="st5" d="M33.2,140.7L22.6,147"/>
	<path class="st3" d="M293.5,0.5l7.8,9.5"/>
	<path class="st3" d="M302.1,1.3l-9.5,7.8"/>
	<path class="st6" d="M43.2,68.9l4.2,7.9"/>
	<path class="st6" d="M49.2,70.8L41.4,75"/>
	<path class="st4" d="M36.1,40.4c1.7,0,3-1.4,3-3c0-1.7-1.3-3-3-3s-3,1.4-3,3S34.5,40.4,36.1,40.4z"/>
	<path class="st2" d="M365,80l4.5,7"/>
	<path class="st2" d="M370.8,81.2l-7,4.5"/>
	<path class="st3" d="M338.9,144.6v-15.1l-10.4,10.1L338.9,144.6z"/>
	<path class="st7" d="M408.4,223.9l4.5,8.7l-11.6,0.1L408.4,223.9z M409,218.3l-14,17.5l23-0.2L409,218.3z"/>
	<path class="st7" d="M209.7,247.9c36.7,0,66.5-29.8,66.5-66.6s-29.8-66.6-66.5-66.6s-66.5,29.8-66.5,66.6
		C143.2,218.1,173,247.9,209.7,247.9z"/>
	<path class="st8" d="M209.6,266.4c46.7,0,84.6-37.9,84.6-84.7S256.3,97,209.6,97S125,134.9,125,181.7S162.9,266.4,209.6,266.4z"/>
	<path class="st9" d="M243.8,149.3c-1.1-0.6-2.6-0.2-3.2,0.9l-25.8,49.1l-13.7-15.6c-0.8-1-2.3-1.1-3.3-0.3s-1.1,2.3-0.3,3.3
		l15.5,17.7c1.3,1.5,3.6,1.2,4.5-0.5l27.2-51.6C245.3,151.3,244.9,149.9,243.8,149.3z M203.6,202.1l-5.6,10.4
		c-0.9,1.7-3.3,2-4.5,0.5l-17.9-21c-0.8-1-0.7-2.5,0.3-3.3c0.4-0.4,1-0.5,1.5-0.5c0.7,0,1.3,0.3,1.8,0.8l16.1,18.8l5.1-9.5
		L203.6,202.1z M227.9,156.4c0,0.4-0.1,0.8-0.3,1.1L211.3,188l-3.2-3.8l15.4-28.8c0.6-1.1,2-1.6,3.2-0.9
		C227.4,154.7,227.9,155.6,227.9,156.4z"/>
</g>
</svg>
