<?xml version="1.0" encoding="utf-8"?>
<!-- Generator: Adobe Illustrator 26.0.0, SVG Export Plug-In . SVG Version: 6.00 Build 0)  -->
<svg version="1.1" id="Layer_1" xmlns="http://www.w3.org/2000/svg" xmlns:xlink="http://www.w3.org/1999/xlink" x="0px" y="0px"
	 viewBox="0 0 1920 617" style="enable-background:new 0 0 1920 617;" xml:space="preserve">
<style type="text/css">
	.st0{fill:#1DA69A;}
	.st1{opacity:0.33;fill:#FFFFFF;enable-background:new    ;}
</style>
<g>
	<path class="st0" d="M1920,525.9c0,12.2-418.5-108.5-607.8-95.4c-259.5,17.9-182.3,100.7-504.8,113.8
		c-98.2,4-227.2-76.4-332.1-71.5c-80.1,3.8-137.4,82.5-204.1,97.2c-148.6,32.9-270,13-270,13L0,387.4c60,20.7,100.3,18.8,147.8-19.6
		c39.2-31.7,157.5,9.6,196.7-22.2c30.8-25.1-45.5-114-4.3-147.3c61.2-49.5,146.9,0.8,184.8-43.2c33.8-39.2-22.2-45.7-17.2-99.5
		c2-21.2,12.5-40.7,29.2-55.5h1383C1920,0,1920,479.2,1920,525.9z"/>
	<path class="st0" d="M1920,554c-6.7,10-419.9-108.8-607.8-95.8c-259.5,18-182.4,100.8-504.9,114c-98.2,4-227.2-76.5-332.2-71.6
		c-80.1,3.8-137.4,82.6-204.2,97.4C122.4,631,1,611,1,611v-6.2c0,0,121.4,20,270.1-13c66.7-14.8,124-93.6,204.2-97.4
		c105-5,234,75.6,332.2,71.6c322.5-13.2,245.3-96,504.9-114c187.6-13,599.9,105.5,607.7,95.9C1920,550,1920,552.1,1920,554z"/>
	<path class="st1" d="M1126.1,100.9c3.8,1.5,7.9,2.4,12.3,2.4c18.1,0,32.7-14.6,32.7-32.7c0-18-14.6-32.7-32.7-32.7
		c-18,0-32.7,14.6-32.7,32.7c0,6,1.6,11.6,4.5,16.4l-72.6,79.2c-4.1-1.9-8.8-3-13.7-3c-7.1,0-13.7,2.3-19.1,6.2l-77.1-53
		c0.6-2.7,1-5.4,1-8.2c0-18-14.6-32.7-32.7-32.7c-18,0-32.7,14.6-32.7,32.7c0,3.8,0.6,7.5,1.8,10.8l-69.8,73.6
		c-4.1-1.9-8.8-3-13.7-3c-18,0-32.7,14.6-32.7,32.7s14.6,32.7,32.7,32.7c18,0,32.7-14.6,32.7-32.7c0-5.5-1.4-10.7-3.8-15.2
		l67.8-71.5c5.1,3.3,11.2,5.2,17.6,5.2c7.7,0,14.6-2.6,20.1-6.9l76.5,52.6c-0.9,3-1.4,6.1-1.4,9.4c0,18,14.6,32.7,32.7,32.7
		c18,0,32.7-14.6,32.7-32.7c0-5.4-1.4-10.6-3.8-15.1L1126.1,100.9z M1138.2,63.7c3.9,0,7,3.1,7,7c0,3.9-3.1,7-7,7c-3.9,0-7-3.1-7-7
		C1131.4,66.8,1134.6,63.7,1138.2,63.7z M781.7,229.3c-3.9,0-7-3.1-7-7s3.1-7,7-7c3.9,0,7,3.1,7,7
		C788.6,226.2,785.4,229.3,781.7,229.3z M896,115.3c-3.9,0-7-3.1-7-7c0-3.9,3.1-7,7-7c3.9,0,7,3.1,7,7
		C902.9,112.1,899.8,115.3,896,115.3z M1023.9,202.9c-3.9,0-7-3.1-7-7s3.1-7,7-7s7,3.1,7,7S1027.7,202.9,1023.9,202.9z M1171,423
		h-25.6V173.7h25.6V423z M1036.2,423h-25.6V285.2h25.6V423z M912,423h-25.6V211H912V423z M774.7,423H749v-96.9h25.6L774.7,423
		L774.7,423z"/>
</g>
</svg>
