<?xml version="1.0" encoding="utf-8"?>
<!-- Generator: Adobe Illustrator 26.0.0, SVG Export Plug-In . SVG Version: 6.00 Build 0)  -->
<svg version="1.1" id="Layer_1" xmlns="http://www.w3.org/2000/svg" xmlns:xlink="http://www.w3.org/1999/xlink" x="0px" y="0px"
	 viewBox="0 0 529 317" style="enable-background:new 0 0 529 317;" xml:space="preserve">
<style type="text/css">
	.st0{fill:#FFFFFF;stroke:#DADBE2;stroke-width:0.25;stroke-miterlimit:10;}
	.st1{clip-path:url(#SVGID_00000158748700282850307770000010150034194296138629_);}
	.st2{fill:#EDEDED;}
	.st3{fill:#1DA69A;}
	.st4{fill:#E0FFD8;}
	.st5{fill:#66C457;}
	.st6{fill:#C3E0DC;}
	.st7{fill:#FFE1E1;}
	.st8{fill:#EA4D6A;}
	.st9{fill:#DADBE2;}
	.st10{fill:none;stroke:#DADBE2;}
	.st11{fill:#dadbe2;}
</style>
<path class="st0" d="M521.8,316.8H160V8c0-4.4,3.6-8,8-8h345.8c4.4,0,8,3.6,8,8V316.8z"/>
<g>
	<path class="st0" d="M301.4,305.8H115.2c-4,0-7.2-3.2-7.2-7.1v-97.5c0-3.9,3.2-7.1,7.2-7.1h186.3c4,0,7.1,3.2,7.1,7.1v97.5
		C308.6,302.6,305.4,305.8,301.4,305.8z"/>
</g>
<g>
	<defs>
		<rect id="SVGID_1_" x="10" y="207" width="87" height="87"/>
	</defs>
	<clipPath id="SVGID_00000038383039519446187790000000971339342505861564_">
		<use xlink:href="#SVGID_1_"  style="overflow:visible;"/>
	</clipPath>
	<g style="clip-path:url(#SVGID_00000038383039519446187790000000971339342505861564_);">
		<path class="st2" d="M53.5,217.8c18,0,32.7,14.7,32.7,32.7c0,18-14.7,32.7-32.7,32.7c-18,0-32.7-14.7-32.7-32.7
			C20.8,232.5,35.5,217.8,53.5,217.8z M53.5,207c-24,0-43.5,19.5-43.5,43.5c0,24,19.5,43.5,43.5,43.5c24,0,43.5-19.5,43.5-43.5
			C97,226.5,77.5,207,53.5,207z"/>
		<path class="st3" d="M53.5,207c-0.2,0-0.4,0-0.5,0v10.8c0.2,0,0.4,0,0.5,0c18,0,32.7,14.7,32.7,32.7c0,18-14.7,32.7-32.7,32.7
			c-10.8,0-20.4-5.3-26.3-13.3l-8.6,6.5c7.9,10.7,20.6,17.6,35,17.6c24,0,43.5-19.5,43.5-43.5C97,226.5,77.5,207,53.5,207z"/>
	</g>
</g>
<g>
	<path class="st4" d="M13,96h293c1.7,0,3,1.3,3,3v17c0,1.7-1.3,3-3,3H13c-1.7,0-3-1.3-3-3V99C10,97.3,11.3,96,13,96z"/>
</g>
<path class="st5" d="M10,99c0-1.7,1.3-3,3-3h1.7v23H13c-1.7,0-3-1.3-3-3V99z"/>
<rect x="30.5" y="105" class="st5" width="197.2" height="5"/>
<rect x="251.4" y="105" class="st5" width="46.5" height="5"/>
<g>
	<path class="st6" d="M13,128h293c1.7,0,3,1.3,3,3v17c0,1.7-1.3,3-3,3H13c-1.7,0-3-1.3-3-3v-17C10,129.3,11.3,128,13,128z"/>
</g>
<path class="st3" d="M10,131c0-1.7,1.3-3,3-3h1.7v23H13c-1.7,0-3-1.3-3-3V131z"/>
<rect x="30.5" y="137" class="st3" width="197.2" height="5"/>
<rect x="251.4" y="137" class="st3" width="46.5" height="5"/>
<g>
	<path class="st7" d="M13,160h293c1.7,0,3,1.3,3,3v17c0,1.7-1.3,3-3,3H13c-1.7,0-3-1.3-3-3v-17C10,161.3,11.3,160,13,160z"/>
</g>
<path class="st8" d="M10,163c0-1.7,1.3-3,3-3h1.7v23H13c-1.7,0-3-1.3-3-3V163z"/>
<rect x="30.5" y="169" class="st8" width="197.2" height="5"/>
<rect x="251.4" y="169" class="st8" width="46.5" height="5"/>
<path class="st9" d="M521.8,35.7H160V8c0-4.4,3.6-8,8-8h345.8c4.4,0,8,3.6,8,8V35.7z"/>
<line class="st10" x1="126" y1="227" x2="291" y2="227"/>
<line class="st10" x1="126" y1="212" x2="190" y2="212"/>
<line class="st10" x1="126" y1="257" x2="291" y2="257"/>
<line class="st10" x1="126" y1="242" x2="291" y2="242"/>
<line class="st10" x1="126" y1="287" x2="291" y2="287"/>
<line class="st10" x1="126" y1="272" x2="291" y2="272"/>
<circle class="st8" cx="180" cy="19" r="5"/>
<circle class="st5" cx="194" cy="19" r="5"/>
<circle class="st11" cx="208" cy="19" r="5"/>
<g>
	<rect x="354" y="80" class="st9" width="41" height="5"/>
	<rect x="354" y="95" class="st9" width="34" height="5"/>
	<rect x="354" y="110" class="st9" width="34" height="5"/>
	<rect x="354" y="125" class="st9" width="34" height="5"/>
	<rect x="354" y="140" class="st9" width="34" height="5"/>
	<path class="st3" d="M451,70v8h-46c2.6-3,5.6-5.6,8.9-8H451z"/>
	<path class="st3" d="M474,92v8h-82c0.8-2.8,1.9-5.4,3.1-8H474z"/>
	<path class="st3" d="M474,114v9h-83.6c-0.2-2.3-0.4-4.6-0.4-6.9c0-0.7,0-1.4,0-2.1H474z"/>
	<path class="st3" d="M474,133v9h-78.8c-1.3-2.9-2.4-5.9-3.2-9H474z"/>
	<path class="st3" d="M434,155v8h-21c-3.3-2.4-6.3-5-9-8H434z"/>
	<path class="st11" d="M526.2,182.7L505.6,162l-1.8,1.8l-4.4-4.4c9.4-11.6,15-26.3,15-42.3c0-37.1-30.1-67.2-67.2-67.2
		S380,80.1,380,117.2c0,37.1,30.1,67.2,67.1,67.2c16,0,30.8-5.6,42.3-15l4.4,4.4l-1.8,1.8l20.6,20.7c1.9,1.9,4.3,2.8,6.8,2.8
		c2.4,0,4.9-0.9,6.8-2.8C529.9,192.5,529.9,186.4,526.2,182.7z M447.1,175c-31.9,0-57.8-25.9-57.8-57.8c0-32,25.9-57.8,57.8-57.8
		S505,85.2,505,117.2C505,149.1,479.1,175,447.1,175z"/>
</g>
</svg>
