<?xml version="1.0" encoding="utf-8"?>
<!-- Generator: Adobe Illustrator 26.0.0, SVG Export Plug-In . SVG Version: 6.00 Build 0)  -->
<svg version="1.1" id="Layer_1" xmlns="http://www.w3.org/2000/svg" xmlns:xlink="http://www.w3.org/1999/xlink" x="0px" y="0px"
	 viewBox="0 0 512 512" style="enable-background:new 0 0 512 512;" xml:space="preserve">
<style type="text/css">
	.st0{fill:#E1E2FE;fill-opacity:0.3;}
	.st1{opacity:0.58;fill:#3E479B;enable-background:new    ;}
	.st2{opacity:0.58;fill:#1DA69A;enable-background:new    ;}
	.st3{fill:#1DA69A;}
	.st4{opacity:0.49;fill:#D9DADA;enable-background:new    ;}
	.st5{fill:#FFFFFF;}
	.st6{opacity:0.47;fill:none;stroke:#EDEDED;stroke-miterlimit:10;enable-background:new    ;}
	.st7{opacity:0.43;fill:#FFFFFF;enable-background:new    ;}
	.st8{fill:none;stroke:#1DA69A;stroke-miterlimit:10;}
	.st9{opacity:0.15;}
	.st10{fill:none;stroke:#2D293A;stroke-width:0.5;stroke-linecap:round;stroke-miterlimit:10;}
	.st11{fill:none;stroke:#2D293A;stroke-width:0.5;stroke-miterlimit:10;}
	.st12{fill:none;stroke:#B2B2B2;stroke-miterlimit:10;}
	.st13{opacity:0.38;fill:#FFFFFF;enable-background:new    ;}
	.st14{fill:none;stroke:#DCE1EC;stroke-miterlimit:10;}
</style>
<g>
	<path class="st0" d="M336.2,92.9c0.2-7.3-5.5-13.4-12.7-13.6s-13.1,5.7-13.3,13c-0.2,7.3,5.5,13.4,12.7,13.6
		C330.1,106.1,336,100.3,336.2,92.9z"/>
	<path class="st0" d="M102.6,93c0.2,3.8,3.3,6.7,7.1,6.5c3.7-0.2,6.6-3.4,6.4-7.2c-0.2-3.8-3.3-6.7-7.1-6.5
		C105.3,86,102.4,89.2,102.6,93z"/>
	<path class="st0" d="M489.1,248c0.1,2.5,2.2,4.4,4.7,4.3c2.5-0.1,4.3-2.3,4.2-4.8s-2.2-4.4-4.7-4.3
		C490.9,243.4,489,245.5,489.1,248z"/>
	<path class="st0" d="M468.3,476.8c0.2-11.5-8.7-21.1-20.1-21.3c-11.3-0.2-20.7,8.9-20.9,20.5c-0.2,11.5,8.7,21.1,20.1,21.3
		C458.7,497.5,468.1,488.4,468.3,476.8z"/>
	<path class="st1" d="M401.1,482.4c2.5,0,4.5-2,4.5-4.5s-2-4.5-4.5-4.5s-4.5,2-4.5,4.5S398.6,482.4,401.1,482.4z"/>
	<path class="st1" d="M287.2,84.8c1.2,0,2.2-1,2.2-2.2s-1-2.2-2.2-2.2s-2.2,1-2.2,2.2S286,84.8,287.2,84.8z"/>
	<path class="st2" d="M24.5,376c2.5,0,4.5-2,4.5-4.5s-2-4.5-4.5-4.5s-4.5,2-4.5,4.5S22,376,24.5,376z"/>
	<path class="st2" d="M419.4,512.5c1.9,0,3.5-1.6,3.5-3.5s-1.6-3.5-3.5-3.5s-3.5,1.6-3.5,3.5S417.5,512.5,419.4,512.5z"/>
	<path class="st1" d="M75.1,87.3c0.8,0,1.5-0.7,1.5-1.5s-0.7-1.5-1.5-1.5s-1.5,0.7-1.5,1.5C73.6,86.6,74.3,87.3,75.1,87.3z"/>
	<path class="st2" d="M486,128.2c1.4-2.7,0.3-5.9-2.4-7.3c-2.7-1.4-5.9-0.3-7.3,2.4c-1.4,2.7-0.3,5.9,2.4,7.3
		C481.4,131.9,484.7,130.8,486,128.2z"/>
	<path class="st2" d="M92.1,71.8c-0.2,1.1-1.4,1.9-2.5,1.6c-1.1-0.2-1.9-1.4-1.6-2.5c0.2-1.1,1.4-1.9,2.5-1.6
		C91.7,69.5,92.4,70.7,92.1,71.8z"/>
	<path class="st2" d="M306.8,65c-0.2,1.1-1.4,1.9-2.5,1.6c-1.1-0.2-1.9-1.4-1.6-2.5c0.2-1.1,1.4-1.9,2.5-1.6
		C306.3,62.7,307,63.8,306.8,65z"/>
	<path class="st1" d="M455.6,131.5c-0.2,1-1.2,1.6-2.1,1.4c-1-0.2-1.6-1.2-1.4-2.1c0.2-1,1.2-1.6,2.1-1.4
		C455.2,129.6,455.9,130.5,455.6,131.5z"/>
	<path class="st2" d="M58.1,441.9c-0.2,1-1.2,1.6-2.1,1.4c-1-0.2-1.6-1.2-1.4-2.1c0.2-1,1.2-1.6,2.1-1.4
		C57.7,440,58.3,440.9,58.1,441.9z"/>
	<path class="st3" d="M292.3,177.1c-4.5-3.6-5.2-10.2-1.6-14.7l92-115.1c3.6-4.5,10.2-5.2,14.7-1.6c4.5,3.6,5.2,10.2,1.6,14.7
		l-92,115.1C303.4,180,296.8,180.7,292.3,177.1z"/>
	<circle class="st4" cx="251" cy="248" r="141"/>
	<path class="st5" d="M385.2,192.3c-7.7-18-18-33.5-31-46.4c-13-13-28.5-23.3-46.4-31c-18-7.7-36.8-11.5-56.5-11.5
		s-38.5,3.9-56.5,11.5s-33.5,18-46.4,31c-13,13-23.4,28.5-31,46.4s-11.5,36.8-11.5,56.5s3.9,38.5,11.5,56.5s18,33.5,31,46.4
		c13,13,28.5,23.3,46.4,31c18,7.7,36.8,11.5,56.5,11.5s38.5-3.9,56.5-11.5c18-7.7,33.5-18,46.4-31c13-13,23.3-28.5,31-46.4
		c7.7-18,11.5-36.8,11.5-56.5C396.8,229.1,392.9,210.3,385.2,192.3z M379.1,302.7c-7.4,17.2-17.2,32-29.6,44.3
		c-12.4,12.4-27.2,22.3-44.3,29.6c-17.2,7.4-35.1,11-53.8,11c-18.8,0-36.7-3.7-53.8-11c-17.2-7.4-32-17.2-44.3-29.6
		c-12.4-12.4-22.3-27.2-29.6-44.3c-7.4-17.2-11-35.1-11-53.8c0-18.8,3.7-36.7,11-53.8c7.4-17.2,17.2-32,29.6-44.3
		c12.4-12.4,27.2-22.3,44.3-29.6c17.1-7.4,35-11.1,53.8-11.1s36.7,3.7,53.8,11c17.2,7.4,32,17.2,44.3,29.6
		c12.4,12.4,22.3,27.2,29.6,44.3c7.3,17.2,11,35.1,11,53.8C390.1,267.6,386.4,285.5,379.1,302.7z M126.3,248.9
		c0,24.4,6.4,46.6,19.3,66.7c12.9,20.1,30,35.4,51.2,45.7L137.2,198C130,214.2,126.3,231.2,126.3,248.9z M361.7,201.7
		c0,11.6-3.2,26.6-9.6,44.9L314,356.7c18.9-11,34.1-26.1,45.3-45.3c11.3-19.1,16.9-40,16.9-62.6c0-21.1-5.1-41.1-15.4-59.9
		C361.4,192.9,361.7,197.2,361.7,201.7z M253.3,259.7L216,368.6c23.7,7.7,54.4,6.3,76.7-2C292.5,366,253.3,259.7,253.3,259.7z
		 M333.5,256.8c1.5-5.7,2-12.2,2-14.3c0-32.3-22.6-43-22.6-63.7c0-11.3,7.8-22.1,21-22.1h1.6C324.1,146.3,296,124,251.1,124
		c-49.1,0-84.4,27.5-104.3,56.3c3.5,0.6,41.3-1.5,41.3-1.5c6.4-0.7,8,9.6,0.8,10.3c-4.5,0.6-9.3,1-14.3,1.3l45.5,135.1l27.3-81.9
		L228,190.4l-13-1.3c-7.4-0.7-5.6-11.1,0.8-10.2c13.8,1,24.7,1.5,32.8,1.6l33.3-1.6c6.6-0.6,7.6,9.6,0.8,10.3
		c-4.5,0.6-9.3,1-14.3,1.3l45.1,134.2C313.6,324.6,332.6,260,333.5,256.8z"/>
	<path class="st0" d="M439.4,215.8c22.4,0,40.5-18.1,40.5-40.5s-18.1-40.5-40.5-40.5s-40.5,18.1-40.5,40.5S417,215.8,439.4,215.8z"
		/>
	<path class="st6" d="M439.4,215.8c22.4,0,40.5-18.1,40.5-40.5s-18.1-40.5-40.5-40.5s-40.5,18.1-40.5,40.5S417,215.8,439.4,215.8z"
		/>
	<path class="st7" d="M84,315.6c4.2-18.1-7-36.1-25.1-40.4c-18.1-4.2-36.1,7-40.4,25.1c-4.2,18.1,7,36.1,25.1,40.4
		C61.7,344.9,79.8,333.7,84,315.6z"/>
	<path class="st8" d="M84,315.6c4.2-18.1-7-36.1-25.1-40.4c-18.1-4.2-36.1,7-40.4,25.1c-4.2,18.1,7,36.1,25.1,40.4
		C61.7,344.9,79.8,333.7,84,315.6z"/>
	<g class="st9">
		<path class="st10" d="M233.9,335.2v5.3"/>
		<path class="st10" d="M236.6,337.9h-5.3"/>
		<path class="st10" d="M267.1,335.2v5.3"/>
		<path class="st10" d="M269.8,337.9h-5.3"/>
		<path class="st10" d="M300.4,335.2v5.3"/>
		<path class="st10" d="M303,337.9h-5.3"/>
		<path class="st10" d="M333.6,335.2v5.3"/>
		<path class="st10" d="M336.2,337.9h-5.3"/>
		<path class="st10" d="M366.8,335.2v5.3"/>
		<path class="st10" d="M369.4,337.9h-5.3"/>
		<path class="st10" d="M400,335.2v5.3"/>
		<path class="st10" d="M402.6,337.9h-5.3"/>
		<path class="st10" d="M433.2,335.2v5.3"/>
		<path class="st10" d="M435.8,337.9h-5.3"/>
		<path class="st10" d="M233.9,362.8v5.3"/>
		<path class="st10" d="M236.6,365.4h-5.3"/>
		<path class="st10" d="M267.1,362.8v5.3"/>
		<path class="st10" d="M269.8,365.4h-5.3"/>
		<path class="st10" d="M300.4,362.8v5.3"/>
		<path class="st10" d="M303,365.4h-5.3"/>
		<path class="st10" d="M333.6,362.8v5.3"/>
		<path class="st10" d="M336.2,365.4h-5.3"/>
		<path class="st10" d="M366.8,362.8v5.3"/>
		<path class="st10" d="M369.4,365.4h-5.3"/>
		<path class="st10" d="M400,362.8v5.3"/>
		<path class="st10" d="M402.6,365.4h-5.3"/>
		<path class="st10" d="M433.2,362.8v5.3"/>
		<path class="st10" d="M435.8,365.4h-5.3"/>
		<path class="st10" d="M233.9,390.4v5.3"/>
		<path class="st10" d="M236.6,393h-5.3"/>
		<path class="st10" d="M267.1,390.4v5.3"/>
		<path class="st10" d="M269.8,393h-5.3"/>
		<path class="st10" d="M300.4,390.4v5.3"/>
		<path class="st10" d="M303,393h-5.3"/>
		<path class="st10" d="M333.6,390.4v5.3"/>
		<path class="st10" d="M336.2,393h-5.3"/>
		<path class="st10" d="M366.8,390.4v5.3"/>
		<path class="st10" d="M369.4,393h-5.3"/>
		<path class="st10" d="M400,390.4v5.3"/>
		<path class="st10" d="M402.6,393h-5.3"/>
		<path class="st10" d="M433.2,390.4v5.3"/>
		<path class="st10" d="M435.8,393h-5.3"/>
		<path class="st10" d="M233.9,418v5.2"/>
		<path class="st10" d="M236.6,420.6h-5.3"/>
		<path class="st10" d="M267.1,418v5.2"/>
		<path class="st10" d="M269.8,420.6h-5.3"/>
		<path class="st10" d="M300.4,418v5.2"/>
		<path class="st10" d="M303,420.6h-5.3"/>
		<path class="st10" d="M333.6,418v5.2"/>
		<path class="st10" d="M336.2,420.6h-5.3"/>
		<path class="st10" d="M366.8,418v5.2"/>
		<path class="st10" d="M369.4,420.6h-5.3"/>
		<path class="st10" d="M400,418v5.2"/>
		<path class="st10" d="M402.6,420.6h-5.3"/>
		<path class="st10" d="M433.2,418v5.2"/>
		<path class="st10" d="M435.8,420.6h-5.3"/>
		<path class="st10" d="M233.9,445.5v5.3"/>
		<path class="st10" d="M236.6,448.2h-5.3"/>
		<path class="st10" d="M267.1,445.5v5.3"/>
		<path class="st10" d="M269.8,448.2h-5.3"/>
		<path class="st10" d="M300.4,445.5v5.3"/>
		<path class="st10" d="M303,448.2h-5.3"/>
		<path class="st10" d="M333.6,445.5v5.3"/>
		<path class="st10" d="M336.2,448.2h-5.3"/>
		<path class="st10" d="M366.8,445.5v5.3"/>
		<path class="st10" d="M369.4,448.2h-5.3"/>
		<path class="st10" d="M400,445.5v5.3"/>
		<path class="st10" d="M402.6,448.2h-5.3"/>
		<path class="st10" d="M433.2,445.5v5.3"/>
		<path class="st10" d="M435.8,448.2h-5.3"/>
		<path class="st10" d="M233.9,473.1v5.3"/>
		<path class="st10" d="M236.6,475.8h-5.3"/>
		<path class="st10" d="M267.1,473.1v5.3"/>
		<path class="st10" d="M269.8,475.8h-5.3"/>
		<path class="st10" d="M300.4,473.1v5.3"/>
		<path class="st10" d="M303,475.8h-5.3"/>
		<path class="st10" d="M333.6,473.1v5.3"/>
		<path class="st10" d="M336.2,475.8h-5.3"/>
		<path class="st10" d="M366.8,473.1v5.3"/>
		<path class="st10" d="M369.4,475.8h-5.3"/>
		<path class="st10" d="M400,473.1v5.3"/>
		<path class="st10" d="M402.6,475.8h-5.3"/>
		<path class="st10" d="M433.2,473.1v5.3"/>
		<path class="st10" d="M435.8,475.8h-5.3"/>
	</g>
	<g class="st9">
		<g>
			<path class="st11" d="M179.8,77.3H46v133.8h133.8V77.3z"/>
			<path class="st11" d="M46,188.8h133.7"/>
			<path class="st11" d="M46,166.5h133.7"/>
			<path class="st11" d="M46,144.2h133.7"/>
			<path class="st11" d="M46,121.9h133.7"/>
			<path class="st11" d="M46,99.6h133.7"/>
			<path class="st11" d="M157.4,77.3v133.8"/>
			<path class="st11" d="M135.1,77.3v133.8"/>
			<path class="st11" d="M112.9,77.3v133.8"/>
			<path class="st11" d="M90.6,77.3v133.8"/>
			<path class="st11" d="M68.3,77.3v133.8"/>
			<path class="st12" d="M177.8,159.2c8.6-34.7-12.5-69.8-47.2-78.4C96,72.2,60.9,93.3,52.3,128s12.5,69.8,47.2,78.4
				C134.1,215,169.2,193.9,177.8,159.2z"/>
		</g>
	</g>
	<path class="st13" d="M116.6,147.3c-46.8,62.8-45.9,138.6,2.3,200.2c4.4,5,5.1,12.2,1.1,16.3c-4,4.1-11.8,3-16.8-2.6
		c-54.9-69.2-55.9-156.6-2.7-227.1c4.8-5.8,12.6-7,16.7-3C121.4,135,120.8,142.2,116.6,147.3z"/>
	<path class="st14" d="M116.6,147.3c-46.8,62.8-45.9,138.6,2.3,200.2c4.4,5,5.1,12.2,1.1,16.3c-4,4.1-11.8,3-16.8-2.6
		c-54.9-69.2-55.9-156.6-2.7-227.1c4.8-5.8,12.6-7,16.7-3C121.4,135,120.8,142.2,116.6,147.3z"/>
	<path class="st13" d="M299.7,409.8c75-22.6,119.4-84,117.3-162.3c-0.5-6.6,3.2-12.8,8.8-13.7c5.6-0.9,11.3,4.6,11.9,12.1
		c2.9,88.3-48.3,159.1-133.1,184.1c-7.3,1.8-14.3-1.9-15.2-7.5C288.5,416.8,293.2,411.3,299.7,409.8z"/>
	<path class="st14" d="M299.7,409.8c75-22.6,119.4-84,117.3-162.3c-0.5-6.6,3.2-12.8,8.8-13.7c5.6-0.9,11.3,4.6,11.9,12.1
		c2.9,88.3-48.3,159.1-133.1,184.1c-7.3,1.8-14.3-1.9-15.2-7.5C288.5,416.8,293.2,411.3,299.7,409.8z"/>
	<path class="st8" d="M366.5,203.6c3.2,0,5.8-2.6,5.8-5.8s-2.6-5.8-5.8-5.8s-5.8,2.6-5.8,5.8S363.3,203.6,366.5,203.6z"/>
	<path class="st3" d="M365.8,415.2c7.6,0,13.7-6.1,13.7-13.7s-6.1-13.7-13.7-13.7s-13.7,6.1-13.7,13.7S358.2,415.2,365.8,415.2z"/>
	<path class="st3" d="M126.2,241.9c3.5,0,6.3-2.8,6.3-6.3s-2.8-6.3-6.3-6.3s-6.3,2.8-6.3,6.3C119.9,239.1,122.7,241.9,126.2,241.9z"
		/>
	<path class="st3" d="M375.1,133.8c-4.5-3.6-5.2-10.2-1.6-14.7L465.5,4c3.6-4.5,10.2-5.2,14.7-1.6s5.2,10.2,1.6,14.7l-92,115.1
		C386.3,136.7,379.6,137.4,375.1,133.8z"/>
	<path class="st3" d="M57,509.7c-4.5-3.6-5.2-10.2-1.6-14.7l92-115.1c3.6-4.5,10.2-5.2,14.7-1.6s5.2,10.2,1.6,14.7l-92,115.1
		C68.1,512.6,61.5,513.3,57,509.7z"/>
	<path class="st3" d="M118.5,498.4c-4.5-3.6-5.2-10.2-1.6-14.7l92-115.1c3.6-4.5,10.2-5.2,14.7-1.6s5.2,10.2,1.6,14.7l-92,115.1
		C129.6,501.2,123,502,118.5,498.4z"/>
	<path class="st3" d="M78.8,184.2c5.6,0,10.1-4.5,10.1-10.1S84.4,164,78.8,164s-10.1,4.5-10.1,10.1
		C68.7,179.7,73.2,184.2,78.8,184.2z"/>
</g>
</svg>
