<?xml version="1.0" encoding="utf-8"?>
<!-- Generator: Adobe Illustrator 26.0.0, SVG Export Plug-In . SVG Version: 6.00 Build 0)  -->
<svg version="1.1" id="Layer_1" xmlns="http://www.w3.org/2000/svg" xmlns:xlink="http://www.w3.org/1999/xlink" x="0px" y="0px"
	 viewBox="0 0 35 33" style="enable-background:new 0 0 35 33;" xml:space="preserve">
<style type="text/css">
	.st0{fill:none;stroke:#CACACA;}
	.st1{fill:#F16334;}
</style>
<g>
	<path class="st0" d="M6.3,6.2c2.9-3.5,7.3-5.7,12.2-5.7c8.8,0,16,7.2,16,16s-7.2,16-16,16s-16-7.2-16-16c0-1.7,0.3-3.3,0.8-4.9"/>
	<path class="st1" d="M7.1,0.6v1.2c0,0.1-0.1,0.3-0.2,0.4c-0.2,0.2-0.6,0.2-0.8,0C6,2.1,5.9,1.9,5.9,1.7V1.2H4.1v6.6l0.1,0.5h0.5
		c0.2,0,0.3,0.1,0.4,0.2c0.1,0.1,0.2,0.2,0.2,0.4S5.2,9.2,5.1,9.3S4.9,9.4,4.7,9.4H2.4c-0.2,0-0.3,0-0.4-0.2C1.8,9.1,1.8,9,1.8,8.8
		S1.9,8.5,2,8.4c0.1-0.1,0.2-0.2,0.5-0.2H3v-7H1.7L1.2,1.3v0.5c0,0.1,0,0.2,0,0.2c0,0.1-0.1,0.1-0.1,0.2C1,2.3,0.9,2.3,0.8,2.3
		c-0.2,0.1-0.3,0.1-0.5,0c-0.1,0-0.1-0.1-0.2-0.1c0-0.1,0-0.1-0.1-0.2c0-0.1,0-0.2,0-0.2V0.6c0-0.2,0.1-0.3,0.2-0.4S0.4,0,0.6,0h5.9
		c0.2,0,0.3,0.1,0.4,0.2S7.1,0.4,7.1,0.6z"/>
	<path id="cla1" class="st1" d="M17.2,16.8h11.7c0.3,0,0.5,0.2,0.5,0.5s-0.2,0.5-0.5,0.5H17.2c-0.3,0-0.5-0.2-0.5-0.5
		S16.9,16.8,17.2,16.8z M10.1,16.8h3.2c0.3,0,0.5,0.2,0.5,0.5s-0.2,0.5-0.5,0.5h-3.2c-0.3,0-0.5-0.2-0.5-0.5S9.8,16.8,10.1,16.8z
		 M29,22.1H10.1c-0.3,0-0.5-0.2-0.5-0.5s0.2-0.5,0.5-0.5H29c0.3,0,0.5,0.2,0.5,0.5S29.3,22.1,29,22.1z"/>
	<path class="st1" d="M22.4,10.3c-0.1,0.8-0.5,1.5-1.1,2c-0.5,0.6-1.2,0.9-2,1.1c-0.2,0.1-0.5,0.1-0.8,0.1c-0.5,0-1-0.1-1.5-0.3
		c-0.7-0.3-1.3-0.8-1.8-1.5c-0.4-0.7-0.7-1.4-0.7-2.2C14.5,9.2,14.7,9,15,9s0.5,0.2,0.5,0.5c0,0.6,0.2,1.1,0.5,1.6
		c0.3,0.5,0.8,0.8,1.3,1.1c0.5,0.2,1.1,0.3,1.7,0.2s1.1-0.4,1.5-0.8c0.4-0.4,0.7-0.9,0.8-1.5c0.1-0.6,0.1-1.2-0.2-1.7
		c-0.2-0.5-0.6-1-1.1-1.3C20.1,7,19.9,7,19.8,6.9l0.3,0.4C20.2,7.5,20.2,7.8,20,8c-0.1,0.1-0.2,0.1-0.3,0.1c-0.2,0-0.3-0.1-0.4-0.2
		l-1.1-1.5c-0.2-0.3-0.1-0.5,0.1-0.7l1.5-1.1c0.2-0.2,0.5-0.1,0.7,0.1s0.1,0.5-0.1,0.7l-0.6,0.4c0.3,0.1,0.7,0.3,1,0.5
		c0.7,0.4,1.2,1.1,1.5,1.8C22.5,8.8,22.6,9.6,22.4,10.3z"/>
</g>
</svg>
