<?xml version="1.0" encoding="utf-8"?>
<!-- Generator: Adobe Illustrator 26.0.0, SVG Export Plug-In . SVG Version: 6.00 Build 0)  -->
<svg version="1.1" id="Layer_1" xmlns="http://www.w3.org/2000/svg" xmlns:xlink="http://www.w3.org/1999/xlink" x="0px" y="0px"
	 viewBox="0 0 35 33" style="enable-background:new 0 0 35 33;" xml:space="preserve">
<style type="text/css">
	.st0{fill:none;stroke:#CACACA;}
	.st1{fill:#F16334;}
</style>
<g>
	<path id="cla2" class="st0" d="M14.2,1.1c1.4-0.4,2.8-0.6,4.3-0.6c8.8,0,16,7.2,16,16s-7.2,16-16,16s-16-7.2-16-16
		c0-2.8,0.7-5.4,2-7.7"/>
	<path id="cla1_00000111165669862266694960000004232682664427293340_" class="st1" d="M2.7,7.9H0.8V2C0.6,2,0.3,2,0.1,1.9V0.6
		c0.6,0,1.1-0.3,1.3-0.6h1.3V7.9z M8.2,7.9H3.6V7.8c0-1.5,0.5-2.4,1.8-3.7c0.8-1,1-1.2,1-2c0-0.5-0.1-0.8-0.5-0.8
		c-0.5,0-0.6,0.4-0.6,1.2H3.6C3.6,1.2,4,0,5.9,0c1.7,0,2.3,0.9,2.3,2.3c0,1-0.2,1.5-1.2,2.5C6.3,5.5,5.8,6,5.7,6.5h2.7L8.2,7.9z
		 M11.2,8.1c-1.6,0-2.2-1-2.3-2.3h1.7c0,0.5,0.2,0.9,0.6,0.9c0.5,0,0.6-0.4,0.6-1.1c0-0.9-0.2-1.2-1-1.2h-0.4V3.1h0.4
		c0.7,0,0.9-0.2,0.9-0.9c0-0.6-0.1-0.9-0.5-0.9c-0.5,0-0.5,0.5-0.6,1H9C9,1.2,9.5,0,11.3,0c1.5,0,2.2,0.8,2.2,2.1c0,1-0.4,1.5-1,1.7
		c0.6,0.2,1.2,0.7,1.2,1.8C13.7,7,13.1,8.1,11.2,8.1z"/>
	<path id="cla1" class="st1" d="M17.1,16.8h11.7c0.3,0,0.5,0.2,0.5,0.5c0,0.3-0.2,0.5-0.5,0.5H17.1c-0.3,0-0.5-0.2-0.5-0.5
		C16.6,17,16.8,16.8,17.1,16.8z M10,16.8h3.2c0.3,0,0.5,0.2,0.5,0.5c0,0.3-0.2,0.5-0.5,0.5H10c-0.3,0-0.5-0.2-0.5-0.5
		C9.5,17,9.7,16.8,10,16.8z M28.9,22.1H10c-0.3,0-0.5-0.2-0.5-0.5c0-0.3,0.2-0.5,0.5-0.5h18.9c0.3,0,0.5,0.2,0.5,0.5
		C29.4,21.9,29.2,22.1,28.9,22.1z"/>
</g>
</svg>
