<?xml version="1.0" encoding="utf-8"?>
<!-- Generator: Adobe Illustrator 26.0.0, SVG Export Plug-In . SVG Version: 6.00 Build 0)  -->
<svg version="1.1" id="Layer_1" xmlns="http://www.w3.org/2000/svg" xmlns:xlink="http://www.w3.org/1999/xlink" x="0px" y="0px"
	 viewBox="0 0 35 33" style="enable-background:new 0 0 35 33;" xml:space="preserve">
<style type="text/css">
	.st0{fill:none;stroke:#CACACA;}
	.st1{fill:#F16334;}
</style>
<g>
	<path id="cla2_00000021822079461518687230000000102307893131826864_" class="st0" d="M10,2.9c2.5-1.5,5.4-2.4,8.5-2.4
		c8.8,0,16,7.2,16,16s-7.2,16-16,16s-16-7.2-16-16c0-2.1,0.4-4,1.1-5.8"/>
	<path id="cla1" class="st1" d="M13.4,12.8l-1.1-4.3c0,0,0,0,0,0c0,0,0-0.1,0-0.1c0,0,0-0.1-0.1-0.1L4.6,0.7
		C4.2,0.3,3.7,0.1,3.2,0.1c-0.5,0-1,0.2-1.4,0.6l-1,1C0.3,2.1,0.1,2.6,0.1,3.2c0,0.5,0.2,1,0.6,1.4l7.5,7.5c0,0,0,0,0,0s0,0,0,0
		c0,0,0,0,0,0c0,0,0.1,0,0.1,0c0,0,0,0,0,0l4.3,1.1c0,0,0.1,0,0.1,0c0.1,0,0.3,0,0.3-0.1C13.4,13.1,13.4,12.9,13.4,12.8z M5.2,2.8
		L11,8.5l0,0l-0.9,0.9l0,0L4.3,3.6L5.2,2.8z M1.4,3.9C1.2,3.7,1.1,3.4,1.1,3.2c0-0.3,0.1-0.5,0.3-0.7l1.1-1.1c0.4-0.4,1-0.4,1.4,0
		L4.5,2L2,4.5L1.4,3.9z M3.6,4.3l5.8,5.8L8.6,11L2.8,5.2L3.6,4.3z M9.5,11.5l1.9-1.9l0.7,2.6L9.5,11.5z"/>
	<path id="cla1_00000175307969456912917860000009567940107280654780_" class="st1" d="M28.9,21.1H10c-0.3,0-0.5,0.2-0.5,0.5
		s0.2,0.5,0.5,0.5h18.9c0.3,0,0.5-0.2,0.5-0.5C29.4,21.3,29.2,21.1,28.9,21.1z M28.9,16.8H17.1c-0.3,0-0.5,0.2-0.5,0.5
		s0.2,0.5,0.5,0.5h11.7c0.3,0,0.5-0.2,0.5-0.5C29.4,17,29.2,16.8,28.9,16.8z M13.2,16.8H10c-0.3,0-0.5,0.2-0.5,0.5s0.2,0.5,0.5,0.5
		h3.2c0.3,0,0.5-0.2,0.5-0.5S13.4,16.8,13.2,16.8z"/>
</g>
</svg>
