<?xml version="1.0" encoding="utf-8"?>
<!-- Generator: Adobe Illustrator 26.0.0, SVG Export Plug-In . SVG Version: 6.00 Build 0)  -->
<svg version="1.1" id="Layer_1" xmlns="http://www.w3.org/2000/svg" xmlns:xlink="http://www.w3.org/1999/xlink" x="0px" y="0px"
	 viewBox="0 0 35 33" style="enable-background:new 0 0 35 33;" xml:space="preserve">
<style type="text/css">
	.st0{fill:none;stroke:#CACACA;}
	.st1{fill:#FA8617;}
</style>
<g>
	<path id="cla2_00000178196385378741012780000002218873952583506574_" class="st0" d="M14.9,0.9c1.1-0.3,2.3-0.4,3.6-0.4
		c8.8,0,16,7.2,16,16s-7.2,16-16,16s-16-7.2-16-16c0-0.7,0-1.3,0.1-2"/>
	<path id="cla1" class="st1" d="M17.1,16.8h11.7c0.3,0,0.5,0.2,0.5,0.5s-0.2,0.5-0.5,0.5H17.1c-0.3,0-0.5-0.2-0.5-0.5
		S16.8,16.8,17.1,16.8z M10,16.8h3.2c0.3,0,0.5,0.2,0.5,0.5s-0.2,0.5-0.5,0.5H10c-0.3,0-0.5-0.2-0.5-0.5S9.7,16.8,10,16.8z
		 M28.9,22.1H10c-0.3,0-0.5-0.2-0.5-0.5s0.2-0.5,0.5-0.5h18.9c0.3,0,0.5,0.2,0.5,0.5S29.2,22.1,28.9,22.1z"/>
</g>
<path class="st1" d="M14,13.3l-4-4c0.8-1,1.3-2.3,1.3-3.6C11.3,2.6,8.8,0,5.6,0S0,2.5,0,5.6s2.5,5.7,5.7,5.7c1.4,0,2.7-0.5,3.6-1.3
	l4,4c0.1,0.1,0.2,0.2,0.3,0.2s0.3,0,0.3-0.2C14.2,13.8,14.2,13.4,14,13.3z M5.7,10.3C3.1,10.3,1,8.2,1,5.6s2.1-4.7,4.7-4.7
	s4.7,2.1,4.7,4.7S8.3,10.3,5.7,10.3z"/>
<g>
	<path class="st1" d="M8.2,6.4L7.3,5.6c-0.4-0.4-1-0.4-1.5-0.1L5.7,5.3c0.4-0.4,0.3-1-0.1-1.4L4.8,3C4.4,2.6,3.7,2.6,3.3,3L3.1,3.2
		c-0.4,0.4-0.4,1.1,0,1.5l0.8,0.9c0.2,0.2,0.5,0.3,0.8,0.3c0.2,0,0.4-0.1,0.6-0.2l0.2,0.2c-0.3,0.4-0.3,1,0.1,1.4l0.8,0.9
		c0.2,0.2,0.5,0.3,0.8,0.3S7.8,8.4,8,8.2L8.2,8C8.6,7.6,8.6,6.9,8.2,6.4z M7.8,7.6L7.6,7.8C7.4,8,7,8,6.8,7.8L6,6.9
		C5.8,6.8,5.8,6.5,5.9,6.3l0.2,0.2c0.1,0.1,0.1,0.1,0.2,0.1s0.1,0,0.2-0.1s0.1-0.3,0-0.4L6.3,5.9c0.1-0.1,0.2-0.1,0.3-0.1
		C6.7,5.8,6.9,5.9,7,6l0.8,0.9C8,7,8,7.4,7.8,7.6z M4.3,5.2L3.5,4.4c-0.2-0.2-0.2-0.6,0-0.8l0.2-0.2C3.8,3.3,3.9,3.2,4,3.2
		s0.3,0.1,0.4,0.2l0.8,0.9C5.5,4.4,5.5,4.7,5.3,5L5.2,4.8c-0.1-0.1-0.3-0.1-0.4,0s-0.1,0.3,0,0.4L5,5.4C4.7,5.4,4.5,5.4,4.3,5.2z"/>
</g>
</svg>
