<?xml version="1.0" encoding="utf-8"?>
<!-- Generator: Adobe Illustrator 26.0.0, SVG Export Plug-In . SVG Version: 6.00 Build 0)  -->
<svg version="1.1" id="Layer_1" xmlns="http://www.w3.org/2000/svg" xmlns:xlink="http://www.w3.org/1999/xlink" x="0px" y="0px"
	 viewBox="0 0 35 33" style="enable-background:new 0 0 35 33;" xml:space="preserve">
<style type="text/css">
	.st0{fill:none;stroke:#CACACA;}
	.st1{display:none;fill:#F16334;}
	.st2{fill:#FA8617;}
</style>
<path class="st0" d="M19.1,0.5c8.5,0.3,15.4,7.4,15.4,16c0,8.8-7.2,16-16,16s-16-7.2-16-16"/>
<g>
	<path id="cla1" class="st1" d="M17.2,16.8h11.7c0.3,0,0.5,0.2,0.5,0.5s-0.2,0.5-0.5,0.5H17.2c-0.3,0-0.5-0.2-0.5-0.5
		S16.9,16.8,17.2,16.8z M10.1,16.8h3.2c0.3,0,0.5,0.2,0.5,0.5s-0.2,0.5-0.5,0.5h-3.2c-0.3,0-0.5-0.2-0.5-0.5S9.8,16.8,10.1,16.8z
		 M29,22.1H10.1c-0.3,0-0.5-0.2-0.5-0.5s0.2-0.5,0.5-0.5H29c0.3,0,0.5,0.2,0.5,0.5S29.3,22.1,29,22.1z"/>
	<path class="st2" d="M14.8,0H1.2C0.6,0,0,0.6,0,1.2v10.5C0,12.4,0.6,13,1.2,13h13.5c0.7,0,1.2-0.6,1.2-1.2V1.2
		C16,0.6,15.4,0,14.8,0z M1,1.2C1,1.1,1.1,1,1.2,1h13.5C14.9,1,15,1.1,15,1.2v1H1V1.2z M15,11.8c0,0.1-0.1,0.2-0.2,0.2H1.2
		C1.1,12,1,11.9,1,11.8V3.2h14V11.8z"/>
	<path class="st2" d="M2.2,2C2,2,1.9,1.9,1.9,1.7S2,1.4,2.2,1.4s0.3,0.1,0.3,0.3S2.4,2,2.2,2z M3.4,2C3.2,2,3.1,1.9,3.1,1.7
		s0.1-0.3,0.3-0.3s0.3,0.1,0.3,0.3C3.7,1.9,3.6,2,3.4,2z M4.7,2C4.5,2,4.3,1.9,4.3,1.7s0.1-0.3,0.3-0.3C4.8,1.4,5,1.5,5,1.7
		S4.8,2,4.7,2z"/>
	<path id="cla1_00000039095833794225735900000015667764030945566373_" class="st2" d="M17.2,16.8h11.7c0.3,0,0.5,0.2,0.5,0.5
		s-0.2,0.5-0.5,0.5H17.2c-0.3,0-0.5-0.2-0.5-0.5S16.9,16.8,17.2,16.8z M10.1,16.8h3.2c0.3,0,0.5,0.2,0.5,0.5s-0.2,0.5-0.5,0.5h-3.2
		c-0.3,0-0.5-0.2-0.5-0.5S9.8,16.8,10.1,16.8z M29,22.1H10.1c-0.3,0-0.5-0.2-0.5-0.5s0.2-0.5,0.5-0.5H29c0.3,0,0.5,0.2,0.5,0.5
		S29.3,22.1,29,22.1z"/>
</g>
<g>
	<path class="st2" d="M3.5,5H5c1.6,0,2.6,0.8,2.6,2.6s-1,2.6-2.6,2.6H3.5V5z M4.9,9.3c0.9,0,1.5-0.4,1.5-1.7C6.4,6.4,5.8,6,4.9,6
		H4.7v3.3H4.9z"/>
	<path class="st2" d="M9.5,5h1.4l1.6,5.2h-1.2l-0.7-2.6c-0.1-0.5-0.3-1.1-0.4-1.7l0,0C10,6.4,9.9,7,9.7,7.6L9,10.2H7.8L9.5,5z
		 M8.9,8h2.5v1H8.9V8z"/>
</g>
</svg>
