<?xml version="1.0" encoding="utf-8"?>
<!-- Generator: Adobe Illustrator 26.0.0, SVG Export Plug-In . SVG Version: 6.00 Build 0)  -->
<svg version="1.1" id="Layer_1" xmlns="http://www.w3.org/2000/svg" xmlns:xlink="http://www.w3.org/1999/xlink" x="0px" y="0px"
	 viewBox="0 0 35 33" style="enable-background:new 0 0 35 33;" xml:space="preserve">
<style type="text/css">
	.st0{fill:none;stroke:#CACACA;}
	.st1{fill:#FA8617;}
</style>
<g>
	<path id="cla2_00000178196385378741012780000002218873952583506574_" class="st0" d="M14.9,0.9c1.1-0.3,2.3-0.4,3.6-0.4
		c8.8,0,16,7.2,16,16s-7.2,16-16,16s-16-7.2-16-16c0-0.7,0-1.3,0.1-2"/>
	<path id="cla1" class="st1" d="M17.1,16.8h11.7c0.3,0,0.5,0.2,0.5,0.5s-0.2,0.5-0.5,0.5H17.1c-0.3,0-0.5-0.2-0.5-0.5
		S16.8,16.8,17.1,16.8z M10,16.8h3.2c0.3,0,0.5,0.2,0.5,0.5s-0.2,0.5-0.5,0.5H10c-0.3,0-0.5-0.2-0.5-0.5S9.7,16.8,10,16.8z
		 M28.9,22.1H10c-0.3,0-0.5-0.2-0.5-0.5s0.2-0.5,0.5-0.5h18.9c0.3,0,0.5,0.2,0.5,0.5S29.2,22.1,28.9,22.1z"/>
</g>
<g id="Domain_Hosting_Checker" transform="translate(-287.601 -33.979)">
	<g id="Group_2706" transform="translate(288.101 34.5)">
		<g id="Rectangle_613">
			<path class="st1" d="M10.5,2V0.7c0-0.6-0.5-1.2-1.2-1.2H0.7C0-0.4-0.5,0.1-0.5,0.7v1.2c0,0.4,0.2,0.7,0.5,0.9
				c-0.3,0.3-0.5,0.6-0.5,1V5c0,0.4,0.2,0.7,0.5,0.9c-0.3,0.2-0.5,0.6-0.5,0.9v1.3c0,0.6,0.5,1.2,1.2,1.2h4.1v1.8H3.7
				c-0.2,0-0.4,0.2-0.4,0.4H0.6c-0.1,0-0.2,0.1-0.2,0.2c0,0.1,0.1,0.2,0.2,0.2h2.6c0,0.2,0.2,0.4,0.4,0.4h2.7c0.2,0,0.4-0.2,0.4-0.4
				h2.6c0.1,0,0.2-0.1,0.2-0.2c0-0.1-0.1-0.2-0.2-0.2H6.7c0-0.2-0.2-0.4-0.4-0.4H5.2V9.2h4.1c0.6,0,1.2-0.5,1.2-1.2V6.8
				c0-0.4-0.2-0.7-0.5-0.9c0.3-0.2,0.5-0.5,0.5-0.9V3.8c0-0.4-0.2-0.7-0.5-0.9C10.3,2.7,10.5,2.3,10.5,2z M10,8.1
				c0,0.4-0.3,0.7-0.7,0.7H0.7C0.3,8.8,0,8.5,0,8.1V6.8c0-0.4,0.3-0.7,0.6-0.7c0,0,0,0,0.1,0h8.7c0,0,0,0,0.1,0
				c0.4,0,0.6,0.3,0.6,0.7v1.3H10z M10,5c0,0.4-0.3,0.7-0.6,0.7c0,0,0,0-0.1,0H0.7c0,0,0,0-0.1,0C0.2,5.7,0,5.4,0,5V3.8
				c0-0.4,0.2-0.6,0.6-0.7h0.1h8.7h0.1C9.8,3.2,10,3.4,10,3.8V5z M10,2c0,0.3-0.3,0.6-0.6,0.7H9.3H0.7H0.6C0.2,2.6,0,2.3,0,2V0.7
				C0,0.3,0.3,0,0.7,0h8.7c0.4,0,0.7,0.3,0.7,0.7L10,2L10,2z"/>
		</g>
		<g id="Group_2703" transform="translate(8.676 15.283)">
			<circle id="Ellipse_210" class="st1" cx="-7.5" cy="-13.9" r="0.5"/>
			<circle id="Ellipse_211" class="st1" cx="-5.6" cy="-13.9" r="0.5"/>
			<g id="Line_314">
				<path class="st1" d="M0.7-13.7h-4.1c-0.1,0-0.2-0.1-0.2-0.2c0-0.1,0.1-0.2,0.2-0.2h4.1c0.1,0,0.2,0.1,0.2,0.2
					C0.9-13.8,0.8-13.7,0.7-13.7z"/>
			</g>
			<g id="Line_315">
				<path class="st1" d="M0.7-10.6h-4.1c-0.1,0-0.2-0.1-0.2-0.2S-3.5-11-3.4-11h4.1c0.1,0,0.2,0.1,0.2,0.2S0.8-10.6,0.7-10.6z"/>
			</g>
		</g>
		<g id="Group_2704" transform="translate(8.775 21.929)">
			<circle id="Ellipse_212" class="st1" cx="-7.5" cy="-17.5" r="0.5"/>
			<circle id="Ellipse_213" class="st1" cx="-5.7" cy="-17.5" r="0.5"/>
		</g>
		<g id="Group_2705" transform="translate(8.676 28.565)">
			<circle id="Ellipse_214" class="st1" cx="-7.5" cy="-21.1" r="0.5"/>
			<circle id="Ellipse_215" class="st1" cx="-5.6" cy="-21.1" r="0.5"/>
			<g id="Line_316">
				<path class="st1" d="M0.7-20.9h-4.1c-0.1,0-0.2-0.1-0.2-0.2s0.1-0.2,0.2-0.2h4.1c0.1,0,0.2,0.1,0.2,0.2
					C0.9-21,0.8-20.9,0.7-20.9z"/>
			</g>
		</g>
	</g>
</g>
</svg>
