<?xml version="1.0" encoding="utf-8"?>
<!-- Generator: Adobe Illustrator 26.0.0, SVG Export Plug-In . SVG Version: 6.00 Build 0)  -->
<svg version="1.1" id="Layer_1" xmlns="http://www.w3.org/2000/svg" xmlns:xlink="http://www.w3.org/1999/xlink" x="0px" y="0px"
	 viewBox="0 0 35 33" style="enable-background:new 0 0 35 33;" xml:space="preserve">
<style type="text/css">
	.st0{fill:none;stroke:#CACACA;}
	.st1{display:none;fill:#F16334;}
	.st2{fill:#FA8617;}
</style>
<path class="st0" d="M18.2,0.5C26.7,0.3,34,7,34.5,15.6c0.5,8.8-6.3,16.4-15,16.9C10.6,33,3,26.2,2.5,17.4"/>
<g>
	<path id="cla1" class="st1" d="M17.2,16.8h11.7c0.3,0,0.5,0.2,0.5,0.5s-0.2,0.5-0.5,0.5H17.2c-0.3,0-0.5-0.2-0.5-0.5
		S16.9,16.8,17.2,16.8z M10.1,16.8h3.2c0.3,0,0.5,0.2,0.5,0.5s-0.2,0.5-0.5,0.5h-3.2c-0.3,0-0.5-0.2-0.5-0.5S9.8,16.8,10.1,16.8z
		 M29,22.1H10.1c-0.3,0-0.5-0.2-0.5-0.5s0.2-0.5,0.5-0.5H29c0.3,0,0.5,0.2,0.5,0.5S29.3,22.1,29,22.1z"/>
	<path id="cla1_00000039095833794225735900000015667764030945566373_" class="st2" d="M17.2,16.8h11.7c0.3,0,0.5,0.2,0.5,0.5
		s-0.2,0.5-0.5,0.5H17.2c-0.3,0-0.5-0.2-0.5-0.5S16.9,16.8,17.2,16.8z M10.1,16.8h3.2c0.3,0,0.5,0.2,0.5,0.5s-0.2,0.5-0.5,0.5h-3.2
		c-0.3,0-0.5-0.2-0.5-0.5S9.8,16.8,10.1,16.8z M29,22.1H10.1c-0.3,0-0.5-0.2-0.5-0.5s0.2-0.5,0.5-0.5H29c0.3,0,0.5,0.2,0.5,0.5
		S29.3,22.1,29,22.1z"/>
	<path class="st2" d="M5.9,2.3v5.8v0.8h0.8h5.8C12.1,11.8,9.6,14,6.6,14c-3.3,0-5.9-2.6-5.9-5.9C0.8,5.1,3,2.6,5.9,2.3 M6.6,1.5
		C3,1.5,0,4.4,0,8.1s3,6.6,6.6,6.6c3.7,0,6.6-3,6.6-6.6H6.6V1.5L6.6,1.5z"/>
	<path class="st2" d="M8.9,0.8c2.7,0.3,4.8,2.4,5.1,5.1H8.9V0.8 M8.1,0v6.6h6.6C14.8,3,11.8,0,8.1,0L8.1,0z"/>
</g>
</svg>
