<?xml version="1.0" encoding="utf-8"?>
<!-- Generator: Adobe Illustrator 26.0.0, SVG Export Plug-In . SVG Version: 6.00 Build 0)  -->
<svg version="1.1" id="Layer_1" xmlns="http://www.w3.org/2000/svg" xmlns:xlink="http://www.w3.org/1999/xlink" x="0px" y="0px"
	 viewBox="0 0 35 33" style="enable-background:new 0 0 35 33;" xml:space="preserve">
<style type="text/css">
	.st0{fill:none;stroke:#CACACA;}
	.st1{fill:#F16334;}
</style>
<g>
	<path id="cla2" class="st0" d="M11.1,2.3c2.2-1.2,4.7-1.8,7.4-1.8c8.8,0,16,7.2,16,16s-7.2,16-16,16s-16-7.2-16-16
		c0-0.5,0-0.9,0.1-1.4"/>
	<path id="cla1_00000175307969456912917860000009567940107280654780_" class="st1" d="M28.9,21.1H10c-0.3,0-0.5,0.2-0.5,0.5
		c0,0.3,0.2,0.5,0.5,0.5h18.9c0.3,0,0.5-0.2,0.5-0.5C29.4,21.3,29.2,21.1,28.9,21.1z M28.9,16.8H17.1c-0.3,0-0.5,0.2-0.5,0.5
		c0,0.3,0.2,0.5,0.5,0.5h11.7c0.3,0,0.5-0.2,0.5-0.5C29.4,17,29.2,16.8,28.9,16.8z M13.2,16.8H10c-0.3,0-0.5,0.2-0.5,0.5
		c0,0.3,0.2,0.5,0.5,0.5h3.2c0.3,0,0.5-0.2,0.5-0.5C13.7,17,13.4,16.8,13.2,16.8z"/>
	<path id="cla1" class="st1" d="M9.7,4.8V3.4H8.1L8.9,0H7.7L6.8,3.4H4.3L5.1,0H3.9L3,3.4H0.9v1.4h1.8L2,7.7H0V9h1.7l-0.9,3.8H2
		l1-3.7h2.4l-0.9,3.8h1.3l0.9-3.8h2V7.7H7l0.8-2.9H9.7z M5.8,7.7H3.3L4,4.8h2.5L5.8,7.7z"/>
</g>
</svg>
