<?xml version="1.0" encoding="utf-8"?>
<!-- Generator: Adobe Illustrator 26.0.0, SVG Export Plug-In . SVG Version: 6.00 Build 0)  -->
<svg version="1.1" id="Layer_1" xmlns="http://www.w3.org/2000/svg" xmlns:xlink="http://www.w3.org/1999/xlink" x="0px" y="0px"
	 viewBox="0 0 35 33" style="enable-background:new 0 0 35 33;" xml:space="preserve">
<style type="text/css">
	.st0{fill:none;stroke:#CACACA;}
	.st1{fill:#FA8617;}
</style>
<path class="st0" d="M13.8,1.2c1.5-0.5,3.1-0.7,4.7-0.7c8.8,0,16,7.2,16,16s-7.2,16-16,16s-16-7.2-16-16c0-0.2,0-0.4,0-0.5"/>
<g>
	<path class="st1" d="M2.2,8.5c0-0.1,0-0.2,0-0.2s0-0.1-0.1-0.2C2,8,2,7.9,2,7.9c0-0.1,0-0.1,0.1-0.2s0.1-0.1,0.2-0.1
		c0.1,0,0.1,0,0.2,0.1c0,0.1,0.1,0.1,0.1,0.2s0,0.1-0.1,0.2c0,0.1-0.1,0.2-0.1,0.2C2.3,8.4,2.3,8.5,2.2,8.5c0.2,0,0.2-0.1,0.3-0.1
		c0,0,0.1-0.1,0.2-0.2C2.8,8.1,2.9,8,3,8s0.1,0,0.2,0.1s0.1,0.1,0.1,0.2c0,0.1,0,0.1-0.1,0.2S2.9,8.6,2.9,8.6s-0.1,0-0.2,0H2.6
		c-0.1,0-0.1,0-0.3,0c0.1,0.1,0.1,0.1,0.2,0.2s0.1,0.1,0.2,0.1c0,0,0.1,0.1,0.2,0.1c0,0,0,0.1,0,0.2c0,0.1,0,0.1-0.1,0.2
		s-0.1,0-0.1,0c-0.1,0-0.1,0-0.2-0.1c-0.1,0-0.1-0.1-0.1-0.2c0-0.1,0-0.2,0-0.2s0-0.1-0.1-0.2C2.2,8.8,2.2,8.8,2.1,8.9s0,0.1,0,0.2
		C2.1,9.2,2,9.3,2,9.3S1.9,9.4,1.8,9.4s-0.1,0-0.2-0.1c0,0-0.1-0.1-0.1-0.2c0-0.1,0-0.1,0.1-0.2s0.1-0.1,0.2-0.2S2,8.8,2,8.8
		C2,8.7,2.1,8.7,2.2,8.5L1.9,8.6H1.8c-0.1,0-0.2,0-0.2,0c-0.1,0-0.2,0-0.2-0.1c-0.1,0-0.1-0.1-0.1-0.1c0-0.1,0-0.1,0.1-0.2
		s0.1-0.1,0.2-0.1s0.2,0,0.3,0.1C1.9,8.4,2,8.4,2,8.5C2,8.5,2.1,8.5,2.2,8.5z"/>
	<path class="st1" d="M4.6,8.5c0-0.1,0-0.2,0-0.2s0-0.1-0.1-0.2C4.4,8,4.4,7.9,4.4,7.9c0-0.1,0-0.1,0.1-0.2s0.1-0.1,0.2-0.1
		s0.1,0,0.2,0.1C4.9,7.8,5,7.8,5,7.9S5,8,4.9,8.1c0,0.1-0.1,0.2-0.1,0.2C4.7,8.4,4.7,8.5,4.6,8.5c0.2,0,0.2-0.1,0.3-0.1
		c0,0,0.1-0.1,0.2-0.2C5.2,8.1,5.3,8,5.4,8c0.1,0,0.1,0,0.2,0.1s0.1,0.1,0.1,0.2c0,0.1,0,0.1-0.1,0.2S5.4,8.6,5.3,8.6
		c0,0-0.1,0-0.2,0H5c-0.1,0-0.1,0-0.3,0c0.1,0.1,0.1,0.1,0.2,0.2s0.1,0,0.2,0.1C5.2,8.9,5.2,9,5.3,9c0,0,0,0.1,0,0.2
		c0,0.1,0,0.1-0.1,0.2s-0.1,0-0.1,0C5,9.4,5,9.4,4.9,9.3c-0.1,0-0.1-0.1-0.1-0.2c0-0.1,0-0.2,0-0.2s0-0.1-0.1-0.2
		C4.6,8.8,4.6,8.8,4.5,8.9c0,0,0,0.1,0,0.2c0,0.1-0.1,0.2-0.1,0.3s-0.1,0-0.2,0c-0.1,0-0.1,0-0.2-0.1c0,0,0,0,0-0.1C4,9.1,4,9.1,4,9
		c0,0,0.1-0.1,0.2-0.2c0.1-0.1,0.2-0.1,0.2-0.1C4.5,8.7,4.5,8.7,4.6,8.5L4.3,8.6H4.2c-0.1,0-0.2,0-0.2,0c-0.1,0-0.2,0-0.2-0.1
		c-0.1,0-0.1-0.1-0.1-0.1c0-0.1,0-0.1,0.1-0.2c0,0,0.1-0.1,0.2-0.1c0.1,0,0.2,0,0.3,0.1c0.1,0.1,0.1,0.2,0.2,0.2
		C4.4,8.5,4.5,8.5,4.6,8.5z"/>
	<path class="st1" d="M7,8.5c0-0.1,0-0.2,0-0.2s0-0.1-0.1-0.2C6.8,8,6.8,7.9,6.8,7.9c0-0.1,0-0.1,0.1-0.2C6.9,7.6,7,7.6,7,7.6
		c0.1,0,0.1,0,0.2,0.1c0,0.1,0.1,0.1,0.1,0.2s0,0.1-0.1,0.2c0,0.1-0.1,0.2-0.1,0.2C7.1,8.4,7.1,8.5,7,8.5c0.2,0,0.2-0.1,0.3-0.1
		c0,0,0.1-0.1,0.2-0.2C7.6,8.1,7.7,8,7.8,8C7.9,8,7.9,8,8,8.1c0,0.2,0,0.2,0,0.3c0,0.1,0,0.1-0.1,0.2s-0.1,0-0.2,0c0,0-0.1,0-0.2,0
		H7.4c-0.1,0-0.1,0-0.3,0c0.1,0.1,0.1,0.1,0.2,0.2s0.1,0.1,0.2,0.1C7.6,8.9,7.6,9,7.7,9c0,0,0,0.1,0,0.2c0,0.1,0,0.1-0.1,0.2
		s-0.1,0-0.1,0c-0.1,0-0.1,0-0.2-0.1c-0.1,0-0.1-0.1-0.1-0.2c0-0.1,0-0.2,0-0.2s0-0.1-0.1-0.2C7,8.8,7,8.8,6.9,8.9c0,0,0,0.1,0,0.2
		c0,0.1-0.1,0.2-0.1,0.3s-0.1,0-0.2,0s-0.1,0-0.2-0.1c0,0-0.1-0.1-0.1-0.2c0-0.1,0-0.1,0.1-0.2s0.1-0.1,0.2-0.2s0.2-0.1,0.2-0.1
		C6.9,8.7,6.9,8.7,7,8.5L6.7,8.6H6.6c-0.1,0-0.2,0-0.2,0c-0.1,0-0.2,0-0.2-0.1S6.1,8.4,6.1,8.4c0-0.1,0-0.1,0.1-0.2
		c0,0,0.1-0.1,0.2-0.1s0.2,0,0.3,0.1c0.1,0.1,0.1,0.2,0.2,0.2C6.8,8.5,6.9,8.5,7,8.5z"/>
	<path class="st1" d="M9.4,4.9H7.8V3c0-1.7-1.4-3-3-3s-3,1.4-3,3v1.8H0.2L0,5v7h9.6V5L9.4,4.9z M4.8,0.8C6,0.8,7,1.8,7,3v1.8H2.6V3
		C2.6,1.8,3.6,0.8,4.8,0.8z M8.8,11.3h-8V5.8h8V11.3L8.8,11.3z"/>
	<path class="st1" d="M29,21.1H10.1c-0.3,0-0.5,0.2-0.5,0.5s0.2,0.5,0.5,0.5H29c0.3,0,0.5-0.2,0.5-0.5C29.5,21.3,29.3,21.1,29,21.1z
		 M29,16.8H17.2c-0.3,0-0.5,0.2-0.5,0.5s0.2,0.5,0.5,0.5h11.7c0.3,0,0.5-0.2,0.5-0.5C29.5,17,29.3,16.8,29,16.8z M13.3,16.8h-3.2
		c-0.3,0-0.5,0.2-0.5,0.5s0.2,0.5,0.5,0.5h3.2c0.3,0,0.5-0.2,0.5-0.5S13.5,16.8,13.3,16.8z"/>
</g>
</svg>
