<?xml version="1.0" encoding="utf-8"?>
<!-- Generator: Adobe Illustrator 26.0.0, SVG Export Plug-In . SVG Version: 6.00 Build 0)  -->
<svg version="1.1" id="Layer_1" xmlns="http://www.w3.org/2000/svg" xmlns:xlink="http://www.w3.org/1999/xlink" x="0px" y="0px"
	 viewBox="0 0 35 33" style="enable-background:new 0 0 35 33;" xml:space="preserve">
<style type="text/css">
	.st0{fill:#FA8617;}
	.st1{fill:#CACACA;}
</style>
<g>
	<path id="cla1_00000129889354294205908240000015338523547764660119_" class="st0" d="M28.9,21.1H10c-0.3,0-0.5,0.2-0.5,0.5
		s0.2,0.5,0.5,0.5h18.9c0.3,0,0.5-0.2,0.5-0.5C29.4,21.3,29.2,21.1,28.9,21.1z M28.9,16.8H17.1c-0.3,0-0.5,0.2-0.5,0.5
		s0.2,0.5,0.5,0.5h11.7c0.3,0,0.5-0.2,0.5-0.5C29.4,17,29.2,16.8,28.9,16.8z M13.2,16.8H10c-0.3,0-0.5,0.2-0.5,0.5s0.2,0.5,0.5,0.5
		h3.2c0.3,0,0.5-0.2,0.5-0.5S13.4,16.8,13.2,16.8z"/>
	<path class="st0" d="M11.1,11.9h-1v-0.5h1V11.9z M9.1,11.9h-1v-0.5h1V11.9z M7.1,11.9h-1v-0.5h1V11.9z M5.1,11.9h-1v-0.5h1V11.9z
		 M4,11H3.5v-1H4V11z M4,9H3.5V8.6H4V9z"/>
	<path class="st0" d="M16.2,5.8h-0.5V5.1h0.5V5.8z M16.2,4.1h-0.5v-1h0.5V4.1z M15.3,3h-1V2.5h1V3z M13.3,3h-1V2.5h1V3z M11.3,3h-1
		V2.5h1V3z M9.3,3h-1V2.5h1V3z"/>
	<path class="st0" d="M6.7,1.2C6,0.4,5,0,4,0h0h0c-1.1,0-2,0.4-2.8,1.2C0.4,1.9,0,2.9,0,4s0.4,2,1.2,2.8s1.7,1.2,2.8,1.2h0
		c1.1,0,2-0.4,2.8-1.2C7.5,6,7.9,5,7.9,4S7.5,1.9,6.7,1.2z M3.7,3.7H2.4c0-0.5,0.1-1,0.2-1.4C3,2.4,3.4,2.4,3.7,2.4L3.7,3.7L3.7,3.7
		z M3.7,4.2v1.3C3.4,5.5,3,5.5,2.6,5.6C2.5,5.2,2.5,4.7,2.4,4.2L3.7,4.2L3.7,4.2z M2.3,6.1C2.5,6.6,2.7,7,2.9,7.3
		c-0.5-0.2-1-0.5-1.4-0.8C1.8,6.3,2,6.2,2.3,6.1L2.3,6.1z M3.7,5.9v1.5C3.4,7.3,3,6.7,2.8,6C3.1,5.9,3.4,5.9,3.7,5.9L3.7,5.9z
		 M3.7,0.5V2C3.4,2,3.1,2,2.8,1.9C3,1.2,3.4,0.6,3.7,0.5z M2.9,0.6C2.7,0.9,2.5,1.3,2.3,1.8C2,1.7,1.8,1.6,1.5,1.4
		C1.9,1,2.4,0.7,2.9,0.6L2.9,0.6z M1.2,1.8c0.3,0.2,0.7,0.3,1,0.4C2.1,2.7,2,3.2,2,3.7H0.4C0.5,3,0.7,2.3,1.2,1.8z M0.4,4.2H2
		c0,0.5,0.1,1.1,0.2,1.5C1.9,5.8,1.5,6,1.2,6.1C0.7,5.6,0.5,4.9,0.4,4.2L0.4,4.2z M7.5,3.7H5.9c0-0.5-0.1-1.1-0.2-1.5
		c0.4-0.1,0.7-0.3,1-0.4C7.2,2.3,7.4,3,7.5,3.7z M6.4,1.4C6.1,1.6,5.9,1.7,5.6,1.8C5.4,1.3,5.2,0.9,5,0.6C5.5,0.7,6,1,6.4,1.4z
		 M4.2,0.5c0.4,0.2,0.7,0.7,1,1.4C4.8,2,4.5,2,4.2,2V0.5z M4.2,2.4c0.4,0,0.7-0.1,1.1-0.1c0.1,0.4,0.2,0.9,0.2,1.4H4.2V2.4z
		 M4.2,4.2h1.3c0,0.5-0.1,1-0.2,1.4C4.9,5.5,4.5,5.5,4.2,5.5L4.2,4.2L4.2,4.2z M4.2,7.4V5.9c0.3,0,0.7,0.1,1,0.1
		C4.9,6.7,4.5,7.3,4.2,7.4z M5,7.3C5.2,7,5.4,6.6,5.6,6.1c0.3,0.1,0.6,0.2,0.8,0.3C6,6.9,5.5,7.2,5,7.3L5,7.3z M6.7,6.1
		C6.4,6,6,5.8,5.7,5.7c0.1-0.5,0.2-1,0.2-1.5h1.6C7.4,4.9,7.2,5.6,6.7,6.1z"/>
	<path class="st0" d="M18.8,6.7h-4.3l0,0.5h4.2c0.2,0,0.3,0.1,0.3,0.3v4.3c0,0.2-0.1,0.3-0.3,0.3h-4.2v0.5h0.7l-0.6,0.6h-0.1v0.4
		h2.5v-0.2c0-0.1-0.1-0.1-0.1-0.1h-0.4l-0.6-0.6h3c0.4,0,0.8-0.3,0.8-0.8V7.5C19.5,7.1,19.2,6.7,18.8,6.7z M13.7,8.2h-1.4v0.4h1.4
		C13.7,8.6,13.7,8.2,13.7,8.2z M11.6,6.8v6.8h2.8V6.8c0,0,0-0.1-0.1-0.1L11.6,6.8C11.6,6.7,11.6,6.7,11.6,6.8z M14.1,13.2l-2.1,0
		V7.1c0,0,0-0.1,0.1-0.1l2,0c0,0,0.1,0,0.1,0.1L14.1,13.2L14.1,13.2z M13.7,8.9h-1.4v0.4h1.4V8.9L13.7,8.9z M13.1,11.2
		c0,0-0.1,0-0.1,0c0,0-0.1,0-0.1,0c0,0,0-0.1,0-0.1c0,0,0-0.1,0-0.1c0,0,0.1-0.1,0.1-0.1c0,0,0.1,0,0.1,0.1c0,0,0,0.1,0,0.1
		C13.1,11.1,13.1,11.1,13.1,11.2z M13.2,10.4c-0.1,0-0.1,0.1-0.2,0.1c-0.1,0-0.1,0-0.2-0.1c0,0-0.1-0.1-0.1-0.2c0-0.1,0-0.1,0.1-0.2
		C12.9,10,12.9,10,13,10c0.1,0,0.1,0,0.2,0.1c0,0,0.1,0.1,0.1,0.2C13.2,10.3,13.2,10.4,13.2,10.4z M13.8,9.5h-1.7V8h1.7V9.5
		L13.8,9.5z"/>
</g>
<g id="cla2_00000008839459825259358980000002316836201950990214_">
	<path class="st1" d="M18.5,33C9.4,33,2,25.6,2,16.5h1C3,25,10,32,18.5,32S34,25,34,16.5S27,1,18.5,1V0C27.6,0,35,7.4,35,16.5
		C35,25.6,27.6,33,18.5,33z"/>
</g>
</svg>
