<?xml version="1.0" encoding="utf-8"?>
<!-- Generator: Adobe Illustrator 26.0.0, SVG Export Plug-In . SVG Version: 6.00 Build 0)  -->
<svg version="1.1" id="Layer_1" xmlns="http://www.w3.org/2000/svg" xmlns:xlink="http://www.w3.org/1999/xlink" x="0px" y="0px"
	 viewBox="0 0 35 33" style="enable-background:new 0 0 35 33;" xml:space="preserve">
<style type="text/css">
	.st0{fill:none;stroke:#CACACA;}
	.st1{fill:#FA8617;}
	.st2{fill-rule:evenodd;clip-rule:evenodd;fill:#FA8617;}
</style>
<g>
	<path id="cla2_00000178196385378741012780000002218873952583506574_" class="st0" d="M14.9,0.9c1.1-0.3,2.3-0.4,3.6-0.4
		c8.8,0,16,7.2,16,16s-7.2,16-16,16s-16-7.2-16-16c0-0.7,0-1.3,0.1-2"/>
	<path id="cla1" class="st1" d="M17.1,16.8h11.7c0.3,0,0.5,0.2,0.5,0.5s-0.2,0.5-0.5,0.5H17.1c-0.3,0-0.5-0.2-0.5-0.5
		S16.8,16.8,17.1,16.8z M10,16.8h3.2c0.3,0,0.5,0.2,0.5,0.5s-0.2,0.5-0.5,0.5H10c-0.3,0-0.5-0.2-0.5-0.5S9.7,16.8,10,16.8z
		 M28.9,22.1H10c-0.3,0-0.5-0.2-0.5-0.5s0.2-0.5,0.5-0.5h18.9c0.3,0,0.5,0.2,0.5,0.5S29.2,22.1,28.9,22.1z"/>
	<path class="st2" d="M10.2,7.6v1.1L8.4,7.6L6.6,9C6.4,9.2,6.1,9.2,5.9,9l-3-2.6L1,8.3V7.1l1.5-1.4c0.2-0.2,0.4-0.3,0.7-0.1l3.1,2.6
		l1.9-1.4c0.1-0.1,0.3-0.1,0.6,0L10.2,7.6z"/>
	<path id="cla1_00000049919645850269036780000003891882797389772164_" class="st2" d="M6.8,3C6.4,3,6.1,3.3,6.1,3.7s0.3,0.7,0.7,0.7
		c0.4,0,0.7-0.3,0.7-0.7S7.2,3,6.8,3z M5.4,3.7c0-0.8,0.6-1.4,1.4-1.4s1.4,0.6,1.4,1.4S7.6,5,6.8,5S5.4,4.4,5.4,3.7z"/>
</g>
<path class="st1" d="M14,13.3l-4-4c0.8-1,1.3-2.3,1.3-3.6C11.3,2.6,8.8,0,5.6,0S0,2.5,0,5.6s2.5,5.7,5.7,5.7c1.4,0,2.7-0.5,3.6-1.3
	l4,4c0.1,0.1,0.2,0.2,0.3,0.2s0.3,0,0.3-0.2C14.2,13.8,14.2,13.4,14,13.3z M5.7,10.3C3.1,10.3,1,8.2,1,5.6s2.1-4.7,4.7-4.7
	s4.7,2.1,4.7,4.7S8.3,10.3,5.7,10.3z"/>
<path id="cla1_00000124159202041563267510000016319426880002960777_" class="st1" d="M15.7,5.9c-0.3,0-0.5,0.2-0.5,0.5
	s0.2,0.5,0.5,0.5c1.2,0,2.2,0.4,3.1,1.3c0.8,0.9,1.3,2,1.2,3.3v0.1l-0.9-1c-0.2-0.2-0.5-0.2-0.7,0c-0.1,0.1-0.1,0.2-0.1,0.4
	s0,0.2,0.1,0.4l1.7,1.8c0.1,0.1,0.2,0.2,0.4,0.2c0.1,0,0.2-0.1,0.3-0.2l1.8-1.9c0.2-0.2,0.2-0.5,0-0.7s-0.5-0.2-0.7,0l-0.9,1v-0.1
	c0-1.5-0.5-2.9-1.5-4C18.5,6.5,17.1,5.9,15.7,5.9z"/>
</svg>
