<?xml version="1.0" encoding="utf-8"?>
<!-- Generator: Adobe Illustrator 26.0.0, SVG Export Plug-In . SVG Version: 6.00 Build 0)  -->
<svg version="1.1" id="Layer_1" xmlns="http://www.w3.org/2000/svg" xmlns:xlink="http://www.w3.org/1999/xlink" x="0px" y="0px"
	 viewBox="0 0 35 33" style="enable-background:new 0 0 35 33;" xml:space="preserve">
<style type="text/css">
	.st0{fill:none;stroke:#CACACA;}
	.st1{fill:#FA8617;}
</style>
<path class="st0" d="M12.6,1.6c1.8-0.7,3.8-1.1,5.9-1.1c8.8,0,16,7.2,16,16s-7.2,16-16,16s-16-7.2-16-16c0-1.3,0.2-2.5,0.4-3.7"/>
<g>
	<path class="st1" d="M29,21.1H10.1c-0.3,0-0.5,0.2-0.5,0.5s0.2,0.5,0.5,0.5H29c0.3,0,0.5-0.2,0.5-0.5C29.5,21.3,29.3,21.1,29,21.1z
		 M29,16.8H17.2c-0.3,0-0.5,0.2-0.5,0.5s0.2,0.5,0.5,0.5h11.7c0.3,0,0.5-0.2,0.5-0.5C29.5,17,29.3,16.8,29,16.8z M13.3,16.8h-3.2
		c-0.3,0-0.5,0.2-0.5,0.5s0.2,0.5,0.5,0.5h3.2c0.3,0,0.5-0.2,0.5-0.5S13.5,16.8,13.3,16.8z"/>
</g>
<path class="st1" d="M4.5,9.9H0.3c-0.1,0-0.2,0-0.2-0.1C0,9.8,0,9.7,0,9.6c0-0.2,0.1-0.3,0.3-0.3h4.2c0.2,0,0.3,0.1,0.3,0.3
	C4.9,9.8,4.7,9.9,4.5,9.9z M4.5,7.9H0.3c-0.1,0-0.2,0-0.2-0.1C0,7.7,0,7.7,0,7.6c0-0.2,0.1-0.3,0.3-0.3h4.2c0.2,0,0.3,0.1,0.3,0.3
	C4.9,7.8,4.7,7.9,4.5,7.9z M4.5,2.8H0.3c-0.1,0-0.2,0-0.2-0.1C0,2.6,0,2.5,0,2.4c0-0.2,0.1-0.3,0.3-0.3h4.2c0.2,0,0.3,0.1,0.3,0.3
	C4.9,2.6,4.7,2.8,4.5,2.8z M10.2,9.7c0.1,0.1,0.1,0.3,0,0.5c-0.1,0.1-0.3,0.1-0.5,0L8.4,8.9l-1.3,1.3c-0.1,0.1-0.3,0.1-0.5,0
	c-0.1-0.1-0.1-0.3,0-0.5L8,8.4L6.7,7.2C6.6,7,6.6,6.8,6.7,6.7c0.1-0.1,0.3-0.1,0.5,0L8.4,8l1.3-1.3c0.1-0.1,0.3-0.1,0.5,0
	c0.1,0.1,0.1,0.3,0,0.5L8.9,8.4L10.2,9.7z M10.5,2.8H8.8v1.8c0,0.2-0.1,0.3-0.3,0.3S8.1,4.7,8.1,4.5V2.8H6.3C6.2,2.8,6,2.6,6,2.4
	c0-0.2,0.1-0.3,0.3-0.3h1.8V0.3C8.1,0.1,8.3,0,8.4,0c0.2,0,0.3,0.1,0.3,0.3v1.8h1.8c0.2,0,0.3,0.1,0.3,0.3
	C10.9,2.6,10.7,2.8,10.5,2.8z"/>
</svg>
