<?xml version="1.0" encoding="utf-8"?>
<!-- Generator: Adobe Illustrator 26.0.0, SVG Export Plug-In . SVG Version: 6.00 Build 0)  -->
<svg version="1.1" id="Layer_1" xmlns="http://www.w3.org/2000/svg" xmlns:xlink="http://www.w3.org/1999/xlink" x="0px" y="0px"
	 viewBox="0 0 35 33" style="enable-background:new 0 0 35 33;" xml:space="preserve">
<style type="text/css">
	.st0{fill:none;stroke:#CACACA;}
	.st1{fill:#FA8617;}
</style>
<path class="st0" d="M17.2,0.5C26-0.1,33.7,6.3,34.5,15.2c0.7,8.9-5.8,16.5-14.7,17.3C11,33.1,3.3,26.7,2.5,17.8"/>
<g>
	<path class="st1" d="M28.9,21.1H10c-0.3,0-0.5,0.2-0.5,0.5s0.2,0.5,0.5,0.5h18.9c0.3,0,0.5-0.2,0.5-0.5
		C29.4,21.3,29.2,21.1,28.9,21.1z M28.9,16.8H17.1c-0.3,0-0.5,0.2-0.5,0.5s0.2,0.5,0.5,0.5h11.7c0.3,0,0.5-0.2,0.5-0.5
		C29.4,17,29.2,16.8,28.9,16.8z M13.2,16.8H10c-0.3,0-0.5,0.2-0.5,0.5s0.2,0.5,0.5,0.5h3.2c0.3,0,0.5-0.2,0.5-0.5
		S13.4,16.8,13.2,16.8z"/>
</g>
<path class="st1" d="M7.8,0.8c3.6,0,7,2.9,7,6.8c0,3-2.1,4.9-2.1,4.9h1c1.2-1.3,1.8-3,1.8-4.9C15.5,3.4,12,0,7.7,0
	C3.5,0,0,3.4,0,7.6c0,1.9,0.7,3.6,1.8,4.9h1c0,0-2-2-2-4.9C0.8,3.8,4,0.8,7.8,0.8z M13.4,5.9l-1.7,0.7C11.8,7,11.9,7.5,12,7.9h1.8
	C13.7,7.2,13.6,6.5,13.4,5.9z M12.2,4l-1.3,1.3c0.2,0.3,0.4,0.5,0.5,0.8l1.7-0.7C12.9,4.8,12.6,4.4,12.2,4z M10.4,2.6L9.7,4.1
	c0.3,0.2,0.6,0.4,0.8,0.7l1.3-1.3C11.4,3.1,10.9,2.8,10.4,2.6z M9.8,2.3C9.4,2.2,8.8,2,8.1,2v1.4c0.4,0.1,0.7,0.2,1.1,0.4L9.8,2.3z
	 M9.4,5.4C9.2,5.3,8,7.7,7.8,7.7c-0.6,0-1.1,0.5-1.1,1.1s0.5,1.1,1.1,1.1s1.1-0.5,1.1-1.1c0-0.3-0.1-0.6-0.4-0.8
	C8.5,7.9,9.5,5.5,9.4,5.4z M7.5,3.3V2C7,2,6.5,2.1,6.1,2.2l0.4,1.1C6.8,3.3,7.1,3.3,7.5,3.3z M4.2,3.3l0.5,0.6
	C5,3.6,5.4,3.5,5.8,3.4L5.5,2.5C5,2.7,4.6,2.9,4.2,3.3z M2.8,4.7L3.2,5c0.3-0.3,0.6-0.6,0.9-0.8L3.7,3.7C3.4,4,3.1,4.4,2.8,4.7z
	 M1.9,8c0-0.1,0-1.3,0.9-2.6L2.5,5.3C1.9,6.6,1.9,7.7,1.9,8z"/>
</svg>
