<?xml version="1.0" encoding="utf-8"?>
<!-- Generator: Adobe Illustrator 26.0.0, SVG Export Plug-In . SVG Version: 6.00 Build 0)  -->
<svg version="1.1" id="Layer_1" xmlns="http://www.w3.org/2000/svg" xmlns:xlink="http://www.w3.org/1999/xlink" x="0px" y="0px"
	 viewBox="0 0 35 33" style="enable-background:new 0 0 35 33;" xml:space="preserve">
<style type="text/css">
	.st0{fill:none;stroke:#CACACA;}
	.st1{display:none;fill:#F16334;}
	.st2{fill:#FA8617;}
</style>
<path class="st0" d="M18.4,0.5c8.5-0.1,15.7,6.8,16.1,15.3c0.4,8.8-6.5,16.3-15.3,16.7S2.9,26,2.5,17.2"/>
<g>
	<path id="cla1" class="st1" d="M17.2,16.8h11.7c0.3,0,0.5,0.2,0.5,0.5s-0.2,0.5-0.5,0.5H17.2c-0.3,0-0.5-0.2-0.5-0.5
		S16.9,16.8,17.2,16.8z M10.1,16.8h3.2c0.3,0,0.5,0.2,0.5,0.5s-0.2,0.5-0.5,0.5h-3.2c-0.3,0-0.5-0.2-0.5-0.5S9.8,16.8,10.1,16.8z
		 M29,22.1H10.1c-0.3,0-0.5-0.2-0.5-0.5s0.2-0.5,0.5-0.5H29c0.3,0,0.5,0.2,0.5,0.5S29.3,22.1,29,22.1z"/>
	<path id="cla1_00000039095833794225735900000015667764030945566373_" class="st2" d="M17.2,16.8h11.7c0.3,0,0.5,0.2,0.5,0.5
		s-0.2,0.5-0.5,0.5H17.2c-0.3,0-0.5-0.2-0.5-0.5S16.9,16.8,17.2,16.8z M10.1,16.8h3.2c0.3,0,0.5,0.2,0.5,0.5s-0.2,0.5-0.5,0.5h-3.2
		c-0.3,0-0.5-0.2-0.5-0.5S9.8,16.8,10.1,16.8z M29,22.1H10.1c-0.3,0-0.5-0.2-0.5-0.5s0.2-0.5,0.5-0.5H29c0.3,0,0.5,0.2,0.5,0.5
		S29.3,22.1,29,22.1z"/>
</g>
<path class="st2" d="M13.5,5.6l-0.2-2.2c-0.1-0.8-0.4-1.5-0.9-2.1c-0.5-0.5-1.2-0.9-2-1L8.2,0C7.5-0.1,6.8,0.2,6.3,0.7L0.2,6.5
	c-0.3,0.3-0.3,0.8,0,1.1l5.4,5.7c0.3,0.3,0.8,0.3,1.1,0l6.1-5.8C13.3,7,13.5,6.3,13.5,5.6z M6.2,12.6L0.8,7l6-5.8
	C7.1,0.9,7.6,0.7,8,0.8l2.2,0.3c0.6,0.1,1.1,0.3,1.5,0.8c0.4,0.4,0.6,1,0.7,1.6l0.2,2.2c0,0.5-0.1,0.9-0.5,1.2L6.2,12.6z M10.9,4.1
	c-0.4,0.4-1,0.4-1.4,0s-0.4-1,0-1.4s1-0.4,1.4,0C11.3,3.1,11.3,3.7,10.9,4.1z"/>
</svg>
