<?xml version="1.0" encoding="utf-8"?>
<!-- Generator: Adobe Illustrator 26.0.0, SVG Export Plug-In . SVG Version: 6.00 Build 0)  -->
<svg version="1.1" id="Layer_1" xmlns="http://www.w3.org/2000/svg" xmlns:xlink="http://www.w3.org/1999/xlink" x="0px" y="0px"
	 viewBox="0 0 35 33" style="enable-background:new 0 0 35 33;" xml:space="preserve">
<style type="text/css">
	.st0{fill:#FA8617;}
	.st1{fill:none;stroke:#CACACA;}
</style>
<g>
	<path class="st0" d="M29,21.1H10.1c-0.3,0-0.5,0.2-0.5,0.5s0.2,0.5,0.5,0.5H29c0.3,0,0.5-0.2,0.5-0.5C29.5,21.3,29.3,21.1,29,21.1z
		 M29,16.8H17.2c-0.3,0-0.5,0.2-0.5,0.5s0.2,0.5,0.5,0.5h11.7c0.3,0,0.5-0.2,0.5-0.5C29.5,17,29.3,16.8,29,16.8z M13.3,16.8h-3.2
		c-0.3,0-0.5,0.2-0.5,0.5s0.2,0.5,0.5,0.5h3.2c0.3,0,0.5-0.2,0.5-0.5S13.5,16.8,13.3,16.8z"/>
	<path class="st0" d="M5.5,10.8L0.4,3.5c-0.7-1-0.5-2.4,0.5-3.1S3.3-0.1,4,0.9l5.1,7.3c0.7,0.2,1.4,0.6,1.8,1.2
		c1,1.4,0.6,3.2-0.7,4.2c-1.4,1-3.2,0.6-4.2-0.7C5.6,12.3,5.5,11.5,5.5,10.8L5.5,10.8z M9.8,13c1-0.7,1.2-2.1,0.5-3.1
		C10,9.5,9.6,9.2,9.1,9C9,9,8.8,9,8.7,9L8.2,8.2L3.4,1.4C2.9,0.8,2,0.6,1.4,1.1C0.8,1.5,0.6,2.4,1.1,3l0.5,0.8l0.6-0.4
		c0.1-0.1,0.3-0.1,0.4,0.1c0.1,0.1,0.1,0.3-0.1,0.4L1.9,4.2l0.3,0.5l0.6-0.4c0.1-0.1,0.3-0.1,0.4,0.1c0.1,0.1,0.1,0.3-0.1,0.4
		L2.5,5.1l0.3,0.5l0.6-0.4c0.1-0.1,0.3-0.1,0.4,0.1c0.1,0.1,0.1,0.3-0.1,0.4L3.1,6l0.3,0.5L4,6.1C4.2,6,4.3,6,4.4,6.1
		s0.1,0.3-0.1,0.4L3.8,6.9l0.3,0.5L4.7,7C4.8,6.9,4.9,6.9,5,7s0.1,0.3,0,0.4L4.4,7.8l1.4,2l0.6,0.8c0,0.1-0.1,0.3-0.1,0.4
		c0,0.5,0.1,1,0.4,1.4C7.4,13.4,8.8,13.7,9.8,13z M7.4,10.3L5.8,8C5.6,7.8,5.7,7.5,5.9,7.4c0.2-0.1,0.5-0.1,0.6,0.1l1.7,2.3
		c0.5-0.1,1,0,1.3,0.5c0.4,0.6,0.3,1.3-0.3,1.7s-1.3,0.3-1.7-0.3C7.1,11.3,7.1,10.7,7.4,10.3L7.4,10.3z"/>
</g>
<path class="st1" d="M10.7,2.5c1.9-1.1,4-1.7,6.2-1.9C25.7-0.3,33.5,6.2,34.4,15S28.8,31.6,20,32.5c-8.8,0.9-16.6-5.6-17.5-14.4
	c-0.1-1.3-0.1-2.6,0.1-3.8"/>
</svg>
