<?xml version="1.0" encoding="utf-8"?>
<!-- Generator: Adobe Illustrator 26.0.0, SVG Export Plug-In . SVG Version: 6.00 Build 0)  -->
<svg version="1.1" id="Layer_1" xmlns="http://www.w3.org/2000/svg" xmlns:xlink="http://www.w3.org/1999/xlink" x="0px" y="0px"
	 viewBox="0 0 35 33" style="enable-background:new 0 0 35 33;" xml:space="preserve">
<style type="text/css">
	.st0{fill:none;stroke:#CACACA;}
	.st1{fill:#F16334;}
</style>
<g>
	<path id="cla2" class="st0" d="M10.6,2.6c2.3-1.3,5.1-2.1,7.9-2.1c8.8,0,16,7.2,16,16s-7.2,16-16,16s-16-7.2-16-16"/>
	<path id="cla1" class="st1" d="M17.1,16.8h11.7c0.3,0,0.5,0.2,0.5,0.5s-0.2,0.5-0.5,0.5H17.1c-0.3,0-0.5-0.2-0.5-0.5
		S16.8,16.8,17.1,16.8z M10,16.8h3.2c0.3,0,0.5,0.2,0.5,0.5s-0.2,0.5-0.5,0.5H10c-0.3,0-0.5-0.2-0.5-0.5S9.7,16.8,10,16.8z
		 M28.9,22.1H10c-0.3,0-0.5-0.2-0.5-0.5s0.2-0.5,0.5-0.5h18.9c0.3,0,0.5,0.2,0.5,0.5S29.2,22.1,28.9,22.1z"/>
	<path id="cla1_00000175281183272429468040000014612463399739057567_" class="st1" d="M5.9,10.8c1-0.2,1.9-0.7,2.6-1.4
		c0.9-1,1.5-2.3,1.5-3.6c0-0.3-0.2-0.5-0.5-0.5C9.2,5.2,9,5.4,9,5.7c0,1.1-0.4,2.2-1.2,2.9C7.1,9.4,6.1,9.9,5,9.9S2.9,9.4,2.2,8.7
		C1.4,7.9,1,6.8,1,5.7c0-0.3-0.2-0.5-0.5-0.5S0,5.4,0,5.7c0,1.4,0.5,2.7,1.5,3.6c0.7,0.8,1.6,1.2,2.6,1.4c0.2,0.1,0.4,0.2,0.4,0.5
		v2.2C4.5,13.8,4.3,14,4,14H2.1c-0.3,0-0.5,0.2-0.5,0.5S1.8,15,2.1,15h5.8c0.3,0,0.5-0.2,0.5-0.5S8.2,14,7.9,14H6
		c-0.3,0-0.5-0.2-0.5-0.5v-2.2C5.5,11,5.7,10.8,5.9,10.8z M5,0C3.7,0,2.6,1.1,2.6,2.5v3C2.6,6.9,3.7,8,5,8s2.4-1.1,2.4-2.5v-3
		C7.4,1.1,6.3,0,5,0z M6.5,5.5C6.5,6.3,5.8,7,5,7S3.5,6.3,3.5,5.5v-3C3.5,1.7,4.2,1,5,1s1.5,0.7,1.5,1.5V5.5z"/>
</g>
</svg>
