<?xml version="1.0" encoding="utf-8"?>
<!-- Generator: Adobe Illustrator 26.0.0, SVG Export Plug-In . SVG Version: 6.00 Build 0)  -->
<svg version="1.1" id="Layer_1" xmlns="http://www.w3.org/2000/svg" xmlns:xlink="http://www.w3.org/1999/xlink" x="0px" y="0px"
	 viewBox="0 0 35 33" style="enable-background:new 0 0 35 33;" xml:space="preserve">
<style type="text/css">
	.st0{fill:none;stroke:#CACACA;}
	.st1{fill:#FA8617;}
</style>
<path class="st0" d="M17.2,0.5C26-0.1,33.7,6.3,34.5,15.2c0.7,8.9-5.8,16.5-14.7,17.3C11,33.1,3.3,26.7,2.5,17.8"/>
<g>
	<path class="st1" d="M28.9,21.1H10c-0.3,0-0.5,0.2-0.5,0.5s0.2,0.5,0.5,0.5h18.9c0.3,0,0.5-0.2,0.5-0.5
		C29.4,21.3,29.2,21.1,28.9,21.1z M28.9,16.8H17.1c-0.3,0-0.5,0.2-0.5,0.5s0.2,0.5,0.5,0.5h11.7c0.3,0,0.5-0.2,0.5-0.5
		C29.4,17,29.2,16.8,28.9,16.8z M13.2,16.8H10c-0.3,0-0.5,0.2-0.5,0.5s0.2,0.5,0.5,0.5h3.2c0.3,0,0.5-0.2,0.5-0.5
		S13.4,16.8,13.2,16.8z"/>
</g>
<path class="st1" d="M7.8,4.1H7.3c-0.1,0-0.2,0.1-0.2,0.2v3.8c0,0.2,0.2,0.4,0.4,0.4h2.4c0.1,0,0.2-0.1,0.2-0.2V7.8
	c0-0.1-0.1-0.2-0.2-0.2H8V4.3C8,4.2,7.9,4.1,7.8,4.1L7.8,4.1z M7.5,0C3.4,0,0,3.4,0,7.5S3.4,15,7.5,15S15,11.6,15,7.5S11.7,0,7.5,0z
	 M7.5,14.1c-3.6,0-6.6-3-6.6-6.6s3-6.6,6.6-6.6s6.6,3,6.6,6.6S11.2,14.1,7.5,14.1z"/>
</svg>
