<?xml version="1.0" encoding="utf-8"?>
<!-- Generator: Adobe Illustrator 26.0.0, SVG Export Plug-In . SVG Version: 6.00 Build 0)  -->
<svg version="1.1" id="Layer_1" xmlns="http://www.w3.org/2000/svg" xmlns:xlink="http://www.w3.org/1999/xlink" x="0px" y="0px"
	 viewBox="0 0 35 33" style="enable-background:new 0 0 35 33;" xml:space="preserve">
<style type="text/css">
	.st0{fill:none;stroke:#CACACA;}
	.st1{fill:#FA8617;}
</style>
<path class="st0" d="M17.2,0.5C26-0.2,33.7,6.3,34.5,15.2s-5.8,16.5-14.6,17.3C11,33.1,3.3,26.7,2.5,17.8"/>
<g>
	<path class="st1" d="M28.9,21.1H10c-0.3,0-0.5,0.2-0.5,0.5s0.2,0.5,0.5,0.5h18.9c0.3,0,0.5-0.2,0.5-0.5
		C29.4,21.3,29.2,21.1,28.9,21.1z M28.9,16.8H17.1c-0.3,0-0.5,0.2-0.5,0.5s0.2,0.5,0.5,0.5h11.7c0.3,0,0.5-0.2,0.5-0.5
		C29.4,17,29.2,16.8,28.9,16.8z M13.2,16.8H10c-0.3,0-0.5,0.2-0.5,0.5s0.2,0.5,0.5,0.5h3.2c0.3,0,0.5-0.2,0.5-0.5
		S13.4,16.8,13.2,16.8z"/>
</g>
<path class="st1" d="M9.8,8.4C9.6,8.1,9.4,8.2,9.4,8.2S9.5,8,9.3,7.8H9.2L9,7.6c0-0.1-0.1-0.1-0.2,0L8.4,7.9L1.8,1.4
	c0,0,0.1-0.3,0-0.4C1.7,0.8,0.7,0.1,0.5,0c0,0,0,0-0.1,0L0,0.4c0,0,0,0,0,0.1c0.1,0.2,0.9,1.2,1,1.3c0.1,0.1,0.4,0,0.4,0L8,8.4
	L7.6,8.8C7.5,8.8,7.5,9,7.6,9l0.3,0.3C8,9.5,8.3,9.4,8.3,9.4S8.1,9.6,8.4,9.8l3.7,3.7c0.2,0.2,0.6,0.3,0.8,0l0.7-0.7
	c0.2-0.2,0.2-0.6-0.1-0.8L9.8,8.4z M12,12.6c-0.1,0.1-0.2,0.1-0.2,0.1L9.1,10c0,0,0-0.1,0.1-0.2c0.1-0.1,0.2-0.1,0.2-0.1l2.7,2.7
	C12.2,12.4,12.1,12.5,12,12.6z M12.6,12c-0.1,0.1-0.2,0.1-0.2,0.1L9.7,9.4c0,0,0-0.1,0.1-0.2c0-0.1,0.1-0.1,0.2-0.1l2.7,2.7
	C12.7,11.9,12.7,12,12.6,12z M8.9,7L6.7,4.8l1.7-1.7C8.3,2.3,8.5,1.4,9.1,0.8C9.6,0.3,10.2,0,10.8,0h0.1c0.4,0,0.7,0.3,0.7,0.7
	c0,0.2-0.1,0.4-0.2,0.5l-0.7,0.7c-0.2,0.2-0.2,0.4,0,0.6l0.6,0.6c0.2,0.2,0.4,0.2,0.6,0l0.6-0.6l0.1-0.1c0.1-0.1,0.3-0.2,0.5-0.2
	c0.4,0,0.7,0.3,0.7,0.7V3c0,0.6-0.3,1.2-0.8,1.7c-0.6,0.6-1.5,0.9-2.4,0.7L8.9,7z M7.8,4.8l1.1,1.1l1.4-1.4l0.2,0.1
	c0.7,0.2,1.4,0,1.9-0.5C12.7,3.8,12.9,3.4,13,3l0,0l-0.6,0.6C12,4,11.2,4,10.8,3.6l0,0L10.1,3c-0.4-0.4-0.4-1.2,0-1.6l0.7-0.7
	C10.4,0.8,10,1,9.7,1.3C9.2,1.8,9,2.5,9.2,3.2l0.1,0.2L7.8,4.8z M1.5,13.7C0.7,13.7,0,13,0,12.2c0-0.4,0.2-0.8,0.4-1.1l4.4-4.4
	L7,8.9L6.8,9.1l-4.1,4.1C2.3,13.5,1.9,13.7,1.5,13.7z M4.8,7.7L1,11.6c-0.1,0.1-0.2,0.4-0.2,0.6c0,0.4,0.4,0.8,0.8,0.8
	c0.2,0,0.4-0.1,0.6-0.2L6,8.9L4.8,7.7z"/>
</svg>
