<?xml version="1.0" encoding="utf-8"?>
<!-- Generator: Adobe Illustrator 26.0.0, SVG Export Plug-In . SVG Version: 6.00 Build 0)  -->
<svg version="1.1" id="Layer_1" xmlns="http://www.w3.org/2000/svg" xmlns:xlink="http://www.w3.org/1999/xlink" x="0px" y="0px"
	 viewBox="0 0 35 33" style="enable-background:new 0 0 35 33;" xml:space="preserve">
<style type="text/css">
	.st0{fill:none;stroke:#CACACA;}
	.st1{fill:#FA8617;}
</style>
<g>
	<path id="cla2" class="st0" d="M13.3,1.4c1.6-0.6,3.4-0.9,5.2-0.9c8.8,0,16,7.2,16,16s-7.2,16-16,16s-16-7.2-16-16
		c0-1.4,0.2-2.7,0.5-4"/>
	<path id="cla1_00000169542273275331254040000005646842640743622050_" class="st1" d="M20.2,23.5H20c-0.3,0-0.5-0.2-0.5-0.5v-5
		c0-0.3,0.2-0.5,0.5-0.5h2.6c0.3,0,0.5,0.2,0.5,0.5v1.7h1.2V18c0-0.3,0.2-0.5,0.5-0.5H25c0.3,0,0.5,0.2,0.5,0.5v4.6
		c0,0.3-0.2,0.5-0.5,0.5h-2.6c-0.3,0-0.5-0.2-0.5-0.5v-1.7h-1.2V23C20.7,23.3,20.5,23.5,20.2,23.5z M22.9,22.1h1.6v-1.4
		c-0.1,0-0.1,0-0.2,0h-1.2c-0.1,0-0.1,0-0.2,0c0,0.1,0,0.1,0,0.2C22.9,20.9,22.9,22.1,22.9,22.1z M24.3,19.7v0.5V19.7L24.3,19.7z
		 M20.7,19.9h1.2c0.1,0,0.1,0,0.2,0c0-0.1,0-0.1,0-0.2v-1.2h-1.6v1.4C20.6,19.9,20.6,19.9,20.7,19.9z"/>
	<path id="cla1_00000078759488731739121150000008176665990728775567_" class="st1" d="M16,19h-2c-0.3,0-0.5,0.2-0.5,0.5v2
		c0,0.3,0.2,0.5,0.5,0.5h2c0.3,0,0.5-0.2,0.5-0.5v-2C16.5,19.2,16.3,19,16,19z M15.5,21h-1v-1h1V21z M16,19h-2
		c-0.3,0-0.5,0.2-0.5,0.5v2c0,0.3,0.2,0.5,0.5,0.5h2c0.3,0,0.5-0.2,0.5-0.5v-2C16.5,19.2,16.3,19,16,19z M15.5,21h-1v-1h1V21z
		 M17.5,17.5h-5c-0.3,0-0.5,0.2-0.5,0.5v5c0,0.3,0.2,0.5,0.5,0.5h5c0.3,0,0.5-0.2,0.5-0.5v-5C18,17.7,17.8,17.5,17.5,17.5z M17,22.5
		h-4v-4h4V22.5z M14,22h2c0.3,0,0.5-0.2,0.5-0.5v-2c0-0.3-0.2-0.5-0.5-0.5h-2c-0.3,0-0.5,0.2-0.5,0.5v2C13.5,21.8,13.7,22,14,22z
		 M14.5,20h1v1h-1V20z"/>
	<path id="cla1_00000145780538462770667550000008026875046428980620_" class="st1" d="M23.5,11.5h-2c-0.3,0-0.5,0.2-0.5,0.5v2
		c0,0.3,0.2,0.5,0.5,0.5h2c0.3,0,0.5-0.2,0.5-0.5v-2C24,11.7,23.8,11.5,23.5,11.5z M23,13.5h-1v-1h1V13.5z M23.5,11.5h-2
		c-0.3,0-0.5,0.2-0.5,0.5v2c0,0.3,0.2,0.5,0.5,0.5h2c0.3,0,0.5-0.2,0.5-0.5v-2C24,11.7,23.8,11.5,23.5,11.5z M23,13.5h-1v-1h1V13.5z
		 M25,10h-5c-0.3,0-0.5,0.2-0.5,0.5v5c0,0.3,0.2,0.5,0.5,0.5h5c0.3,0,0.5-0.2,0.5-0.5v-5C25.5,10.2,25.3,10,25,10z M24.5,15h-4v-4h4
		V15z M21.5,14.5h2c0.3,0,0.5-0.2,0.5-0.5v-2c0-0.3-0.2-0.5-0.5-0.5h-2c-0.3,0-0.5,0.2-0.5,0.5v2C21,14.3,21.2,14.5,21.5,14.5z
		 M22,12.5h1v1h-1V12.5z"/>
	<path id="cla1" class="st1" d="M7.5,2h-5C2.2,2,2,2.2,2,2.5v5C2,7.8,2.2,8,2.5,8h5C7.8,8,8,7.8,8,7.5v-5C8,2.2,7.8,2,7.5,2z M7,7H3
		V3h4V7z M7.5,2h-5C2.2,2,2,2.2,2,2.5v5C2,7.8,2.2,8,2.5,8h5C7.8,8,8,7.8,8,7.5v-5C8,2.2,7.8,2,7.5,2z M7,7H3V3h4V7z M9.5,0h-9
		C0.2,0,0,0.2,0,0.5v9C0,9.8,0.2,10,0.5,10h9C9.8,10,10,9.8,10,9.5v-9C10,0.2,9.8,0,9.5,0z M9,9H1V1h8V9z M2.5,8h5
		C7.8,8,8,7.8,8,7.5v-5C8,2.2,7.8,2,7.5,2h-5C2.2,2,2,2.2,2,2.5v5C2,7.8,2.2,8,2.5,8z M3,3h4v4H3V3z"/>
</g>
</svg>
