<?xml version="1.0" encoding="utf-8"?>
<!-- Generator: Adobe Illustrator 26.0.0, SVG Export Plug-In . SVG Version: 6.00 Build 0)  -->
<svg version="1.1" id="Layer_1" xmlns="http://www.w3.org/2000/svg" xmlns:xlink="http://www.w3.org/1999/xlink" x="0px" y="0px"
	 viewBox="0 0 35 33" style="enable-background:new 0 0 35 33;" xml:space="preserve">
<style type="text/css">
	.st0{fill:none;stroke:#CACACA;}
	.st1{fill:#FA8617;}
</style>
<path class="st0" d="M12.6,1.6c1.8-0.7,3.8-1.1,5.9-1.1c8.8,0,16,7.2,16,16s-7.2,16-16,16s-16-7.2-16-16c0-1.3,0.2-2.5,0.4-3.7"/>
<g>
	<path class="st1" d="M29,21.1H10.1c-0.3,0-0.5,0.2-0.5,0.5s0.2,0.5,0.5,0.5H29c0.3,0,0.5-0.2,0.5-0.5C29.5,21.3,29.3,21.1,29,21.1z
		 M29,16.8H17.2c-0.3,0-0.5,0.2-0.5,0.5s0.2,0.5,0.5,0.5h11.7c0.3,0,0.5-0.2,0.5-0.5C29.5,17,29.3,16.8,29,16.8z M13.3,16.8h-3.2
		c-0.3,0-0.5,0.2-0.5,0.5s0.2,0.5,0.5,0.5h3.2c0.3,0,0.5-0.2,0.5-0.5S13.5,16.8,13.3,16.8z"/>
	<path class="st1" d="M7.8,5.3v0.9c0,0.1-0.1,0.2-0.2,0.2H6.7c-0.1,0-0.2-0.1-0.2-0.2V5.3c0-0.1,0.1-0.2,0.2-0.2h0.9
		C7.7,5.1,7.8,5.2,7.8,5.3z M1.3,5.3c0-0.1,0.1-0.2,0.2-0.2h0.9c0.1,0,0.2,0.1,0.2,0.2v0.9c0,0.1-0.1,0.2-0.2,0.2H1.5
		c-0.1,0-0.2-0.1-0.2-0.2C1.3,6.2,1.3,5.3,1.3,5.3z M2.6,8.5c0,0.1-0.1,0.2-0.2,0.2H1.6c-0.1,0-0.2-0.1-0.2-0.2V7.7
		c0-0.1,0.1-0.2,0.2-0.2h0.9c0.1,0,0.2,0.1,0.2,0.2C2.6,7.7,2.6,8.5,2.6,8.5z M3.9,5.3c0-0.1,0.1-0.2,0.2-0.2H5
		c0.1,0,0.2,0.1,0.2,0.2v0.9c0,0.1-0.1,0.2-0.2,0.2H4.1C4,6.4,3.9,6.3,3.9,6.2V5.3L3.9,5.3z M7.8,8.5c0,0.1-0.1,0.2-0.2,0.2H4.1
		C4,8.8,3.9,8.7,3.9,8.5V7.7c0-0.1,0.1-0.2,0.2-0.2h3.4c0.1,0,0.2,0.1,0.2,0.2v0.8H7.8z M8.5,9.8H0.7V0.7h7.8V9.8z M0,0.2v10.1
		c0,0.1,0.1,0.2,0.2,0.2H9c0.1,0,0.2-0.1,0.2-0.2V0.2C9.1,0.1,9.1,0,9,0H0.2C0.1,0,0,0.1,0,0.2z M7.1,3.4H2V2h5.1V3.4z M1.3,1.4v2.7
		h6.4V1.4H1.3z"/>
	<path class="st1" d="M13.8,7.2c0-1.6,0.8-2.5,1.9-2.5s1.8,0.9,1.8,2.5c0,1.5-0.7,2.5-1.8,2.5S13.8,8.7,13.8,7.2z M16.5,7.2
		c0-1.2-0.4-1.7-0.9-1.7c-0.4,0-0.8,0.5-0.8,1.7s0.4,1.7,0.9,1.7C16.2,8.9,16.5,8.4,16.5,7.2z M20.2,4.7H21l-4.2,8.1h-0.9L20.2,4.7z
		 M19.4,10.3c0-1.6,0.8-2.5,1.9-2.5s1.9,0.9,1.9,2.5s-0.8,2.5-1.9,2.5C20.2,12.8,19.4,11.9,19.4,10.3z M22.2,10.3
		c0-1.1-0.4-1.6-0.9-1.6s-0.9,0.5-0.9,1.6c0,1.2,0.4,1.7,0.9,1.7S22.2,11.5,22.2,10.3z"/>
</g>
</svg>
