<?xml version="1.0" encoding="utf-8"?>
<!-- Generator: Adobe Illustrator 26.0.0, SVG Export Plug-In . SVG Version: 6.00 Build 0)  -->
<svg version="1.1" id="Layer_1" xmlns="http://www.w3.org/2000/svg" xmlns:xlink="http://www.w3.org/1999/xlink" x="0px" y="0px"
	 viewBox="0 0 35 33" style="enable-background:new 0 0 35 33;" xml:space="preserve">
<style type="text/css">
	.st0{fill:none;stroke:#CACACA;}
	.st1{fill:#FA8617;}
</style>
<g>
	<path id="cla2_00000178196385378741012780000002218873952583506574_" class="st0" d="M14.9,0.9c1.1-0.3,2.3-0.4,3.6-0.4
		c8.8,0,16,7.2,16,16s-7.2,16-16,16s-16-7.2-16-16c0-0.7,0-1.3,0.1-2"/>
	<path id="cla1" class="st1" d="M17.1,16.8h11.7c0.3,0,0.5,0.2,0.5,0.5s-0.2,0.5-0.5,0.5H17.1c-0.3,0-0.5-0.2-0.5-0.5
		S16.8,16.8,17.1,16.8z M10,16.8h3.2c0.3,0,0.5,0.2,0.5,0.5s-0.2,0.5-0.5,0.5H10c-0.3,0-0.5-0.2-0.5-0.5S9.7,16.8,10,16.8z
		 M28.9,22.1H10c-0.3,0-0.5-0.2-0.5-0.5s0.2-0.5,0.5-0.5h18.9c0.3,0,0.5,0.2,0.5,0.5S29.2,22.1,28.9,22.1z"/>
</g>
<path class="st1" d="M13.1,6.6C13.1,3,10.2,0,6.5,0S0,2.9,0,6.6s2.9,6.6,6.6,6.6C6.8,13.2,7,13,7,12.8s-0.2-0.4-0.4-0.4
	c-3.2,0-5.7-2.6-5.7-5.7S3.5,1,6.6,1s5.7,2.6,5.7,5.7h-0.9l1.3,1.7L14,6.6h-0.7H13.1z"/>
<g>
	<path class="st1" d="M10.3,8L9.2,6.8c-0.5-0.5-1.5-0.6-2-0.1L6.9,6.5c0.5-0.6,0.5-1.5-0.1-2L5.7,3.3c-0.6-0.6-1.5-0.6-2.1,0
		L3.3,3.5c-0.6,0.6-0.6,1.6,0,2.1l1.2,1.2c0.3,0.3,0.7,0.5,1.1,0.5c0.3,0,0.6-0.1,0.9-0.3l0.2,0.2c-0.4,0.6-0.4,1.4,0.1,2L8,10.5
		C8.3,10.8,8.7,11,9.1,11c0.4,0,0.8-0.2,1.1-0.5l0.3-0.3C10.9,9.6,10.9,8.6,10.3,8z M9.8,9.7L9.5,9.9c-0.3,0.3-0.8,0.3-1,0L7.3,8.7
		C7.1,8.5,7,8.1,7.2,7.8l0.3,0.3c0.1,0.1,0.2,0.1,0.3,0.1c0.1,0,0.2,0,0.3-0.1c0-0.1,0-0.4-0.1-0.5L7.7,7.3C7.8,7.2,8,7.1,8.1,7.1
		c0.2,0,0.4,0.1,0.5,0.2l1.2,1.2C10.1,8.9,10.1,9.4,9.8,9.7z M5,6.4L3.8,5.2c-0.3-0.3-0.3-0.8,0-1.1l0.3-0.3
		c0.1-0.1,0.3-0.2,0.5-0.2S5,3.7,5.1,3.8L6.3,5c0.3,0.3,0.3,0.7,0.1,1L6.2,5.8C6,5.6,5.8,5.6,5.7,5.8c-0.1,0.1-0.1,0.4,0,0.5
		l0.2,0.2C5.6,6.6,5.2,6.6,5,6.4z"/>
</g>
</svg>
