<?xml version="1.0" encoding="utf-8"?>
<!-- Generator: Adobe Illustrator 26.0.0, SVG Export Plug-In . SVG Version: 6.00 Build 0)  -->
<svg version="1.1" id="Layer_1" xmlns="http://www.w3.org/2000/svg" xmlns:xlink="http://www.w3.org/1999/xlink" x="0px" y="0px"
	 viewBox="0 0 35 33" style="enable-background:new 0 0 35 33;" xml:space="preserve">
<style type="text/css">
	.st0{fill:none;stroke:#CACACA;}
	.st1{display:none;fill:#F16334;}
	.st2{fill:#FA8617;}
</style>
<path class="st0" d="M18.8,0.5c8.5,0.1,15.5,7.2,15.7,15.7c0.2,8.8-6.9,16.1-15.8,16.3S2.6,25.6,2.5,16.8"/>
<g>
	<path id="cla1" class="st1" d="M17.2,16.8h11.7c0.3,0,0.5,0.2,0.5,0.5s-0.2,0.5-0.5,0.5H17.2c-0.3,0-0.5-0.2-0.5-0.5
		S16.9,16.8,17.2,16.8z M10.1,16.8h3.2c0.3,0,0.5,0.2,0.5,0.5s-0.2,0.5-0.5,0.5h-3.2c-0.3,0-0.5-0.2-0.5-0.5S9.8,16.8,10.1,16.8z
		 M29,22.1H10.1c-0.3,0-0.5-0.2-0.5-0.5s0.2-0.5,0.5-0.5H29c0.3,0,0.5,0.2,0.5,0.5S29.3,22.1,29,22.1z"/>
	<path id="cla1_00000039095833794225735900000015667764030945566373_" class="st2" d="M17.2,16.8h11.7c0.3,0,0.5,0.2,0.5,0.5
		s-0.2,0.5-0.5,0.5H17.2c-0.3,0-0.5-0.2-0.5-0.5S16.9,16.8,17.2,16.8z M10.1,16.8h3.2c0.3,0,0.5,0.2,0.5,0.5s-0.2,0.5-0.5,0.5h-3.2
		c-0.3,0-0.5-0.2-0.5-0.5S9.8,16.8,10.1,16.8z M29,22.1H10.1c-0.3,0-0.5-0.2-0.5-0.5s0.2-0.5,0.5-0.5H29c0.3,0,0.5,0.2,0.5,0.5
		S29.3,22.1,29,22.1z"/>
</g>
<path class="st2" d="M12.3,2.7c-1.4,0-2.5,1.1-2.5,2.5c0-1.4-1.1-2.5-2.5-2.5c1.4,0,2.5-1.1,2.5-2.5C9.8,1.6,10.9,2.7,12.3,2.7z"/>
<path class="st2" d="M5.5,11C4.1,11,3,12.1,3,13.5C3,12.1,1.9,11,0.5,11C1.9,11,3,9.9,3,8.5C3,9.9,4.1,11,5.5,11z"/>
<path class="st2" d="M11.3,9.6c-1,0-1.7,0.8-1.7,1.7c0-1-0.8-1.7-1.7-1.7c1,0,1.7-0.8,1.7-1.7C9.6,8.8,10.4,9.6,11.3,9.6z"/>
<path class="st2" d="M7.4,4.6C5.6,4.6,4.2,6,4.2,7.8C4.2,6,2.8,4.6,1,4.6c1.8,0,3.2-1.4,3.2-3.2C4.1,3.2,5.6,4.6,7.4,4.6z"/>
</svg>
