<?xml version="1.0" encoding="utf-8"?>
<!-- Generator: Adobe Illustrator 26.0.0, SVG Export Plug-In . SVG Version: 6.00 Build 0)  -->
<svg version="1.1" id="Layer_1" xmlns="http://www.w3.org/2000/svg" xmlns:xlink="http://www.w3.org/1999/xlink" x="0px" y="0px"
	 viewBox="0 0 35 33" style="enable-background:new 0 0 35 33;" xml:space="preserve">
<style type="text/css">
	.st0{fill:#FA8617;}
	.st1{fill:none;stroke:#CACACA;}
</style>
<g>
	<path class="st0" d="M0,0.1h2c1.3,0,2.3,0.5,2.3,1.9S3.2,4,2,4H1.3v2H0V0.1z M2,2.9c0.7,0,1-0.3,1-0.9S2.6,1.2,1.9,1.2H1.3V3L2,2.9
		L2,2.9z"/>
	<path class="st0" d="M5.4,0.1h1.4l2.1,4.2c0,0-0.1-1.4-0.1-2.1V0.1H10V6H8.6L7.1,3L6.5,1.8l0,0c0.1,0.6,0.2,1.4,0.2,2.1V6H5.4V0.1z
		"/>
	<path class="st0" d="M11.1,3.1C11.1,1.2,12.4,0,14,0c0.9,0,1.5,0.4,1.9,0.8l-0.7,0.9c-0.3-0.3-0.6-0.5-1.1-0.5
		c-0.9,0-1.5,0.7-1.5,1.9S13.1,5,14.3,5c0.2,0,0.5-0.1,0.6-0.2v-1h-1V2.7H16v2.7c-0.4,0.4-1.1,0.7-1.9,0.7
		C12.3,6.1,11.1,5.1,11.1,3.1z"/>
	<path id="cla1" class="st0" d="M17.2,16.8h11.7c0.3,0,0.5,0.2,0.5,0.5s-0.2,0.5-0.5,0.5H17.2c-0.3,0-0.5-0.2-0.5-0.5
		S16.9,16.8,17.2,16.8z M10,16.8h3.2c0.3,0,0.5,0.2,0.5,0.5s-0.2,0.5-0.5,0.5H10c-0.3,0-0.5-0.2-0.5-0.5S9.7,16.8,10,16.8z
		 M28.9,22.1H10c-0.3,0-0.5-0.2-0.5-0.5s0.2-0.5,0.5-0.5h18.9c0.3,0,0.5,0.2,0.5,0.5S29.2,22.1,28.9,22.1z"/>
</g>
<path class="st1" d="M18.5,0.5c8.8,0,16,7.2,16,16s-7.2,16-16,16s-16-7.2-16-16c0-3.1,0.9-6,2.4-8.5"/>
</svg>
