<?xml version="1.0" encoding="utf-8"?>
<!-- Generator: Adobe Illustrator 26.0.0, SVG Export Plug-In . SVG Version: 6.00 Build 0)  -->
<svg version="1.1" id="Layer_1" xmlns="http://www.w3.org/2000/svg" xmlns:xlink="http://www.w3.org/1999/xlink" x="0px" y="0px"
	 viewBox="0 0 35 33" style="enable-background:new 0 0 35 33;" xml:space="preserve">
<style type="text/css">
	.st0{fill:#CACACA;}
	.st1{fill:#FA8617;}
</style>
<g id="cla2_00000021822079461518687230000000102307893131826864_">
	<path class="st0" d="M35,16.5C35,25.6,27.6,33,18.5,33S2,25.6,2,16.5h1C3,25,10,32,18.5,32S34,25,34,16.5S27,1,18.5,1
		c-0.7,0-1.3,0-2,0.1v-1C17.2,0,17.8,0,18.5,0C27.6,0,35,7.4,35,16.5z"/>
</g>
<g id="cla2">
	<path id="cla1_00000169542273275331254040000005646842640743622050_" class="st1" d="M20.2,24H20c-0.3,0-0.5-0.2-0.5-0.5v-5
		c0-0.3,0.2-0.5,0.5-0.5h2.6c0.3,0,0.5,0.2,0.5,0.5v1.7h1.2v-1.7c0-0.3,0.2-0.5,0.5-0.5H25c0.3,0,0.5,0.2,0.5,0.5v4.6
		c0,0.3-0.2,0.5-0.5,0.5h-2.6c-0.3,0-0.5-0.2-0.5-0.5v-1.7h-1.2v2.1C20.7,23.8,20.5,24,20.2,24z M22.9,22.6h1.6v-1.4
		c-0.1,0-0.1,0-0.2,0h-1.2c-0.1,0-0.1,0-0.2,0c0,0.1,0,0.1,0,0.2C22.9,21.4,22.9,22.6,22.9,22.6z M24.3,20.2v0.5V20.2L24.3,20.2z
		 M20.7,20.4h1.2c0.1,0,0.1,0,0.2,0c0-0.1,0-0.1,0-0.2V19h-1.6v1.4C20.6,20.4,20.6,20.4,20.7,20.4z"/>
	<path id="cla1_00000078759488731739121150000008176665990728775567_" class="st1" d="M16,19.5h-2c-0.3,0-0.5,0.2-0.5,0.5v2
		c0,0.3,0.2,0.5,0.5,0.5h2c0.3,0,0.5-0.2,0.5-0.5v-2C16.5,19.7,16.3,19.5,16,19.5z M15.5,21.5h-1v-1h1V21.5z M16,19.5h-2
		c-0.3,0-0.5,0.2-0.5,0.5v2c0,0.3,0.2,0.5,0.5,0.5h2c0.3,0,0.5-0.2,0.5-0.5v-2C16.5,19.7,16.3,19.5,16,19.5z M15.5,21.5h-1v-1h1
		V21.5z M17.5,18h-5c-0.3,0-0.5,0.2-0.5,0.5v5c0,0.3,0.2,0.5,0.5,0.5h5c0.3,0,0.5-0.2,0.5-0.5v-5C18,18.2,17.8,18,17.5,18z M17,23
		h-4v-4h4V23z M14,22.5h2c0.3,0,0.5-0.2,0.5-0.5v-2c0-0.3-0.2-0.5-0.5-0.5h-2c-0.3,0-0.5,0.2-0.5,0.5v2C13.5,22.3,13.7,22.5,14,22.5
		z M14.5,20.5h1v1h-1V20.5z"/>
	<path id="cla1_00000145780538462770667550000008026875046428980620_" class="st1" d="M23.5,12h-2c-0.3,0-0.5,0.2-0.5,0.5v2
		c0,0.3,0.2,0.5,0.5,0.5h2c0.3,0,0.5-0.2,0.5-0.5v-2C24,12.2,23.8,12,23.5,12z M23,14h-1v-1h1V14z M23.5,12h-2
		c-0.3,0-0.5,0.2-0.5,0.5v2c0,0.3,0.2,0.5,0.5,0.5h2c0.3,0,0.5-0.2,0.5-0.5v-2C24,12.2,23.8,12,23.5,12z M23,14h-1v-1h1V14z
		 M25,10.5h-5c-0.3,0-0.5,0.2-0.5,0.5v5c0,0.3,0.2,0.5,0.5,0.5h5c0.3,0,0.5-0.2,0.5-0.5v-5C25.5,10.7,25.3,10.5,25,10.5z M24.5,15.5
		h-4v-4h4V15.5z M21.5,15h2c0.3,0,0.5-0.2,0.5-0.5v-2c0-0.3-0.2-0.5-0.5-0.5h-2c-0.3,0-0.5,0.2-0.5,0.5v2C21,14.8,21.2,15,21.5,15z
		 M22,13h1v1h-1V13z"/>
	<path id="cla1" class="st1" d="M9.5,0h-9C0.2,0,0,0.2,0,0.5v9C0,9.8,0.2,10,0.5,10h9C9.8,10,10,9.8,10,9.5v-9C10,0.2,9.8,0,9.5,0z
		 M9,9H1V1h8V9z"/>
	<path class="st1" d="M4.4,6.3c0,0,0.1,0,0.2,0c0.1,0,0.1,0,0.2,0c0.1,0,0.1,0,0.2,0c0.1,0,0.1,0,0.2,0h0.1v0.6c-0.1,0-0.2,0-0.3,0
		c-0.1,0-0.3,0-0.4,0c-0.1,0-0.2,0-0.3,0c-0.1,0-0.2,0-0.3,0s-0.2,0-0.3,0s-0.2,0-0.3,0c-0.3,0-0.5,0-0.7-0.1
		C2.3,6.6,2.1,6.5,1.9,6.3S1.7,6,1.6,5.7S1.5,5.3,1.5,5c0-0.3,0-0.5,0.1-0.8C1.7,4,1.8,3.8,2,3.7c0.1-0.2,0.3-0.3,0.6-0.4
		C2.7,3.2,3,3.1,3.3,3.1s0.5,0,0.7,0.1c0.2,0.1,0.4,0.2,0.6,0.4S4.8,4,4.9,4.2C5,4.5,5,4.7,5,5c0,0.1,0,0.3,0,0.4
		c0,0.1-0.1,0.3-0.1,0.4C4.8,5.9,4.7,6,4.7,6.1C4.6,6.2,4.5,6.3,4.4,6.3L4.4,6.3z M4.3,5c0-0.2,0-0.4-0.1-0.6C4.2,4.3,4.1,4.1,4,4
		C3.9,3.9,3.8,3.8,3.7,3.8S3.4,3.7,3.3,3.7S3,3.7,2.8,3.8S2.6,3.9,2.5,4C2.4,4.1,2.3,4.3,2.3,4.4C2.2,4.6,2.2,4.8,2.2,5
		c0,0.2,0,0.4,0.1,0.6C2.3,5.7,2.4,5.9,2.5,6s0.2,0.2,0.3,0.2s0.3,0.1,0.4,0.1s0.3,0,0.4-0.1S3.9,6.1,4,6c0.1-0.1,0.2-0.2,0.2-0.4
		C4.3,5.4,4.3,5.2,4.3,5z"/>
	<path class="st1" d="M8.3,4.3c0,0.3-0.1,0.5-0.2,0.6C7.9,5.1,7.7,5.2,7.4,5.3v0l1.1,1.5H7.7l-1-1.4H6.3v1.4H5.6V3.2h1.1
		c0.2,0,0.3,0,0.5,0c0.2,0,0.3,0.1,0.4,0.1C7.8,3.4,8,3.5,8.1,3.7C8.2,3.8,8.3,4,8.3,4.3z M6.6,4.9c0.2,0,0.3,0,0.4,0
		c0.1,0,0.2,0,0.3-0.1c0.1,0,0.2-0.1,0.3-0.2c0.1-0.1,0.1-0.2,0.1-0.3c0-0.1,0-0.2-0.1-0.3c0-0.1-0.1-0.1-0.2-0.2
		c-0.1,0-0.1,0-0.2-0.1c-0.1,0-0.2,0-0.4,0H6.3v1.1H6.6z"/>
</g>
</svg>
