<?xml version="1.0" encoding="utf-8"?>
<!-- Generator: Adobe Illustrator 26.0.0, SVG Export Plug-In . SVG Version: 6.00 Build 0)  -->
<svg version="1.1" id="Layer_1" xmlns="http://www.w3.org/2000/svg" xmlns:xlink="http://www.w3.org/1999/xlink" x="0px" y="0px"
	 viewBox="0 0 35 33" style="enable-background:new 0 0 35 33;" xml:space="preserve">
<style type="text/css">
	.st0{fill:none;stroke:#CACACA;}
	.st1{fill:#F16334;}
</style>
<g>
	<path id="cla2" class="st0" d="M10.7,2.5c2.3-1.3,5-2,7.8-2c8.8,0,16,7.2,16,16s-7.2,16-16,16s-16-7.2-16-16c0-1.7,0.3-3.4,0.8-4.9
		"/>
	<path id="cla1" class="st1" d="M17.1,16.8h11.7c0.3,0,0.5,0.2,0.5,0.5c0,0.3-0.2,0.5-0.5,0.5H17.1c-0.3,0-0.5-0.2-0.5-0.5
		C16.6,17,16.8,16.8,17.1,16.8z M10,16.8h3.2c0.3,0,0.5,0.2,0.5,0.5c0,0.3-0.2,0.5-0.5,0.5H10c-0.3,0-0.5-0.2-0.5-0.5
		C9.5,17,9.7,16.8,10,16.8z M28.9,22.1H10c-0.3,0-0.5-0.2-0.5-0.5c0-0.3,0.2-0.5,0.5-0.5h18.9c0.3,0,0.5,0.2,0.5,0.5
		C29.4,21.9,29.2,22.1,28.9,22.1z"/>
	<path id="cla1_00000088834752223676897270000005857253728168332722_" class="st1" d="M5.1,10c0,0.3-0.2,0.6-0.5,0.6
		c-0.3,0-0.5-0.3-0.5-0.6V1.5H1C0.7,1.5,0.5,1.3,0.5,1S0.7,0.5,1,0.5h7.3c0.3,0,0.5,0.2,0.5,0.5S8.5,1.5,8.3,1.5H5.1V10z M11.1,5.1
		H9.3v5c0,0.3-0.2,0.5-0.5,0.5c-0.3,0-0.5-0.2-0.5-0.5v-5H6.5c-0.2,0-0.4-0.2-0.4-0.5c0-0.3,0.2-0.5,0.4-0.5h4.5
		c0.2,0,0.4,0.2,0.4,0.5C11.5,4.9,11.3,5.1,11.1,5.1z"/>
</g>
</svg>
