<?xml version="1.0" encoding="utf-8"?>
<!-- Generator: Adobe Illustrator 26.0.0, SVG Export Plug-In . SVG Version: 6.00 Build 0)  -->
<svg version="1.1" id="Layer_1" xmlns="http://www.w3.org/2000/svg" xmlns:xlink="http://www.w3.org/1999/xlink" x="0px" y="0px"
	 viewBox="0 0 35 33" style="enable-background:new 0 0 35 33;" xml:space="preserve">
<style type="text/css">
	.st0{fill:none;stroke:#CACACA;}
	.st1{fill:#FA8617;}
</style>
<path class="st0" d="M13.8,1.2c1.5-0.5,3.1-0.7,4.7-0.7c8.8,0,16,7.2,16,16s-7.2,16-16,16s-16-7.2-16-16c0-0.2,0-0.4,0-0.5"/>
<g>
	<path class="st1" d="M2,14.2H0.8c-0.3,0-0.5-0.2-0.5-0.5l0,0c0-0.3,0.2-0.5,0.5-0.5H2c0.3,0,0.5,0.2,0.5,0.5l0,0
		C2.6,13.9,2.3,14.2,2,14.2z M5.5,14.2H4.2c-0.3,0-0.5-0.2-0.5-0.5l0,0c0-0.3,0.2-0.5,0.5-0.5h1.2c0.3,0,0.5,0.2,0.5,0.5l0,0
		C6,13.9,5.8,14.2,5.5,14.2z M8.9,14.2H7.7c-0.3,0-0.5-0.2-0.5-0.5l0,0c0-0.3,0.2-0.5,0.5-0.5h1.2c0.3,0,0.5,0.2,0.5,0.5l0,0
		C9.4,13.9,9.2,14.2,8.9,14.2z M12.4,14.2h-1.2c-0.3,0-0.5-0.2-0.5-0.5l0,0c0-0.3,0.2-0.5,0.5-0.5h1.2c0.3,0,0.5,0.2,0.5,0.5l0,0
		C12.9,13.9,12.6,14.2,12.4,14.2z"/>
	<path class="st1" d="M29,21.1H10.1c-0.3,0-0.5,0.2-0.5,0.5s0.2,0.5,0.5,0.5H29c0.3,0,0.5-0.2,0.5-0.5C29.5,21.3,29.3,21.1,29,21.1z
		 M29,16.8H17.2c-0.3,0-0.5,0.2-0.5,0.5s0.2,0.5,0.5,0.5h11.7c0.3,0,0.5-0.2,0.5-0.5C29.5,17,29.3,16.8,29,16.8z M13.3,16.8h-3.2
		c-0.3,0-0.5,0.2-0.5,0.5s0.2,0.5,0.5,0.5h3.2c0.3,0,0.5-0.2,0.5-0.5S13.5,16.8,13.3,16.8z"/>
	<path class="st1" d="M12.6,12l-0.7-0.7l0.7-0.7L12,9.9l-0.7,0.7l-1-1l1.1-1.1l-0.7-0.7l0.5-0.5l-0.7-0.7L8.9,8.3L7.3,6.7
		c1.7-1.9,2-4.4,0.6-5.8C6.4-0.6,3.7-0.2,1.7,1.7s-2.3,4.7-0.9,6.1c1.5,1.4,4,1.2,5.9-0.5l5.3,5.3c0.2,0.2,0.4,0.2,0.6,0
		C12.7,12.4,12.7,12.1,12.6,12L12.6,12z M1.5,7.3C0.4,6.2,0.8,4,2.4,2.4s3.8-2,4.9-0.9S8,4.8,6.4,6.4S2.6,8.4,1.5,7.3z"/>
</g>
</svg>
