<?xml version="1.0" encoding="utf-8"?>
<!-- Generator: Adobe Illustrator 26.0.0, SVG Export Plug-In . SVG Version: 6.00 Build 0)  -->
<svg version="1.1" id="Layer_1" xmlns="http://www.w3.org/2000/svg" xmlns:xlink="http://www.w3.org/1999/xlink" x="0px" y="0px"
	 viewBox="0 0 35 33" style="enable-background:new 0 0 35 33;" xml:space="preserve">
<style type="text/css">
	.st0{fill:none;stroke:#CACACA;}
	.st1{fill:#FA8617;}
</style>
<path class="st0" d="M25,1.8c8.1,3.7,11.7,13,8.2,21.1S20.2,34.6,12,31C4,27.4,0.3,18,3.9,9.9"/>
<g>
	<path class="st1" d="M28.9,21.1H10c-0.3,0-0.5,0.2-0.5,0.5s0.2,0.5,0.5,0.5h18.9c0.3,0,0.5-0.2,0.5-0.5
		C29.4,21.3,29.2,21.1,28.9,21.1z M28.9,16.8H17.1c-0.3,0-0.5,0.2-0.5,0.5s0.2,0.5,0.5,0.5h11.7c0.3,0,0.5-0.2,0.5-0.5
		C29.4,17,29.2,16.8,28.9,16.8z M13.2,16.8H10c-0.3,0-0.5,0.2-0.5,0.5s0.2,0.5,0.5,0.5h3.2c0.3,0,0.5-0.2,0.5-0.5
		S13.4,16.8,13.2,16.8z"/>
</g>
<g id="Group_3101">
	<g id="Group_3100" transform="translate(4.418 4.418)">
		<g id="Line_422">
			<path class="st1" d="M10.4,6.6V3c0-0.1,0-0.1,0-0.2l0,0c0-0.1,0.1-0.1,0.1-0.2c0,0,0.1-0.1,0.2-0.1l0,0c0.1,0,0.1,0,0.2,0h3.6
				C14.8,2.5,15,2.7,15,3s-0.2,0.5-0.5,0.5h-2.4l6.2,6.2c0.2,0.2,0.2,0.5,0,0.7s-0.5,0.2-0.7,0l-6.2-6.2v2.4c0,0.3-0.2,0.5-0.5,0.5
				C10.6,7.1,10.4,6.9,10.4,6.6z"/>
		</g>
	</g>
</g>
<g>
	<path class="st1" d="M1.7,0.1h1.5L5,5.7H3.7L2.9,2.9C2.8,2.3,2.6,1.6,2.5,1.1l0,0C2.3,1.6,2.2,2.3,2,2.9L1.3,5.7H0L1.7,0.1z
		 M1.2,3.4h2.7v1H1.2V3.4z"/>
	<path class="st1" d="M5.3,5L6,4.1c0.4,0.3,0.9,0.6,1.4,0.6s0.8-0.2,0.8-0.5c0-0.4-0.3-0.5-0.8-0.7L6.6,3.2C6,2.9,5.5,2.5,5.5,1.7
		c0-0.9,0.8-1.7,2-1.7c0.6,0,1.3,0.3,1.8,0.7L8.6,1.5C8.3,1.2,7.9,1.1,7.5,1.1C7,1.1,6.8,1.3,6.8,1.6s0.4,0.5,0.9,0.7l0.7,0.3
		c0.6,0.2,1,0.7,1,1.5c0,0.9-0.8,1.7-2.1,1.7C6.6,5.8,5.8,5.5,5.3,5z"/>
	<path class="st1" d="M10.1,2.9c0-1.8,1.2-2.9,2.6-2.9c0.7,0,1.3,0.3,1.7,0.7l-0.7,0.8c-0.3-0.3-0.6-0.4-1-0.4
		c-0.8,0-1.4,0.7-1.4,1.8s0.5,1.8,1.3,1.8c0.5,0,0.8-0.2,1.1-0.5L14.5,5c-0.5,0.5-1.1,0.8-1.8,0.8C11.3,5.8,10.1,4.8,10.1,2.9z"/>
	<path class="st1" d="M15.3,0.1h1.3v5.6h-1.3V0.1z"/>
	<path class="st1" d="M17.9,0.1h1.3v5.6h-1.3V0.1z"/>
</g>
</svg>
