<?xml version="1.0" encoding="utf-8"?>
<!-- Generator: Adobe Illustrator 26.0.0, SVG Export Plug-In . SVG Version: 6.00 Build 0)  -->
<svg version="1.1" id="Layer_1" xmlns="http://www.w3.org/2000/svg" xmlns:xlink="http://www.w3.org/1999/xlink" x="0px" y="0px"
	 viewBox="0 0 35 33" style="enable-background:new 0 0 35 33;" xml:space="preserve">
<style type="text/css">
	.st0{fill:none;stroke:#CACACA;}
	.st1{display:none;fill:#F16334;}
	.st2{fill:#FA8617;}
</style>
<path class="st0" d="M18.9,0.5c8.5,0.2,15.5,7.3,15.6,15.9c0.1,8.8-7,16.1-15.8,16.2s-16.1-7-16.2-15.8"/>
<g>
	<path id="cla1" class="st1" d="M17.2,16.8h11.7c0.3,0,0.5,0.2,0.5,0.5s-0.2,0.5-0.5,0.5H17.2c-0.3,0-0.5-0.2-0.5-0.5
		S16.9,16.8,17.2,16.8z M10.1,16.8h3.2c0.3,0,0.5,0.2,0.5,0.5s-0.2,0.5-0.5,0.5h-3.2c-0.3,0-0.5-0.2-0.5-0.5S9.8,16.8,10.1,16.8z
		 M29,22.1H10.1c-0.3,0-0.5-0.2-0.5-0.5s0.2-0.5,0.5-0.5H29c0.3,0,0.5,0.2,0.5,0.5S29.3,22.1,29,22.1z"/>
	<path id="cla1_00000039095833794225735900000015667764030945566373_" class="st2" d="M17.2,16.8h11.7c0.3,0,0.5,0.2,0.5,0.5
		s-0.2,0.5-0.5,0.5H17.2c-0.3,0-0.5-0.2-0.5-0.5S16.9,16.8,17.2,16.8z M10.1,16.8h3.2c0.3,0,0.5,0.2,0.5,0.5s-0.2,0.5-0.5,0.5h-3.2
		c-0.3,0-0.5-0.2-0.5-0.5S9.8,16.8,10.1,16.8z M29,22.1H10.1c-0.3,0-0.5-0.2-0.5-0.5s0.2-0.5,0.5-0.5H29c0.3,0,0.5,0.2,0.5,0.5
		S29.3,22.1,29,22.1z"/>
</g>
<path class="st2" d="M10.5,0.8c0.6,0,1.2,0.3,1.7,0.7c0,0,0.6,0.6,0.7,1.2c0,0.1,0,0.4,0,0.4v0.4c0,4-3,8.1-8.1,8.1
	c-0.6,0-1.2-0.1-1.8-0.2c0.8-0.3,1.4-0.6,2-1.1l1-1L4.6,8.9C4,8.8,3.5,8.6,3,8.2l1.8-0.8L3.3,6.7C2.5,6.5,2,6.1,1.6,5.4
	c0.1,0,0.3,0,0.4,0h2.4L2.5,4.1c-0.7-0.5-1-1.2-1-2V2c1.7,1.5,3.8,2.4,6,2.6h1L8.2,3.7c0-0.2-0.1-0.4-0.1-0.6
	C8.2,1.8,9.2,0.8,10.5,0.8 M10.5,0C8.8,0,7.4,1.4,7.4,3.1c0,0.2,0,0.5,0.1,0.7C4.9,3.7,2.6,2.5,1.1,0.6C0.8,1,0.7,1.6,0.7,2.1
	c0,1.1,0.6,2,1.4,2.6c-0.5,0-1-0.1-1.4-0.4l0,0c0,1.5,1.1,2.7,2.5,3c-0.3,0-0.5,0.1-0.8,0.1c-0.2,0-0.4,0-0.6,0
	c0.4,1.2,1.6,2.1,2.9,2.2c-1,0.9-2.4,1.3-3.9,1.3c-0.2,0-0.5,0-0.8,0c1.4,0.8,3.1,1.4,4.8,1.4c5.7,0,8.8-4.7,8.8-8.8
	c0-0.1,0-0.3,0-0.4c0.6-0.5,1.1-1,1.5-1.6C14.5,1.7,14,1.9,13.3,2c0.7-0.4,1.1-1,1.4-1.7c-0.6,0.4-1.3,0.6-2,0.8
	C12.2,0.4,11.4,0,10.5,0L10.5,0z"/>
</svg>
