<?xml version="1.0" encoding="utf-8"?>
<!-- Generator: Adobe Illustrator 26.0.0, SVG Export Plug-In . SVG Version: 6.00 Build 0)  -->
<svg version="1.1" id="Layer_1" xmlns="http://www.w3.org/2000/svg" xmlns:xlink="http://www.w3.org/1999/xlink" x="0px" y="0px"
	 viewBox="0 0 35 33" style="enable-background:new 0 0 35 33;" xml:space="preserve">
<style type="text/css">
	.st0{fill:none;stroke:#CACACA;}
	.st1{fill:#FA8617;}
</style>
<path class="st0" d="M15.4,0.8c8.7-1.6,17.1,4,18.8,12.7s-4,17.1-12.7,18.8c-8.7,1.6-17.1-4-18.8-12.7"/>
<g>
	<path class="st1" d="M28.9,21.1H10c-0.3,0-0.5,0.2-0.5,0.5s0.2,0.5,0.5,0.5h18.9c0.3,0,0.5-0.2,0.5-0.5
		C29.4,21.3,29.2,21.1,28.9,21.1z M28.9,16.8H17.1c-0.3,0-0.5,0.2-0.5,0.5s0.2,0.5,0.5,0.5h11.7c0.3,0,0.5-0.2,0.5-0.5
		C29.4,17,29.2,16.8,28.9,16.8z M13.2,16.8H10c-0.3,0-0.5,0.2-0.5,0.5s0.2,0.5,0.5,0.5h3.2c0.3,0,0.5-0.2,0.5-0.5
		S13.4,16.8,13.2,16.8z"/>
</g>
<path class="st1" d="M12.2,7.3l-0.5-0.9c0-0.1-0.1-0.1-0.1-0.1l0,0h-0.1c-0.1,0-0.1,0-0.2,0.1l-1.4,1C9.1,6.7,8.4,6.2,7.5,5.9V0.4
	C7.6,0.2,6.7,0,5.7,0S3.8,0.2,3.8,0.4v5.5C1.6,6.7,0,8.7,0,11.1c0,0.9,0.2,1.8,0.6,2.5h10.1c0.4-0.7,0.6-1.6,0.6-2.5
	c0-1-0.2-1.9-0.7-2.7L12,7.8C12.2,7.8,12.3,7.5,12.2,7.3z M5.7,0.2c0.8,0,1.5,0.1,1.5,0.2S6.5,0.6,5.7,0.6S4.2,0.5,4.2,0.4
	S4.8,0.2,5.7,0.2L5.7,0.2z M10.2,12.8h-9c-0.2-0.5-0.3-1.1-0.3-1.7c0-1,0.3-1.9,0.9-2.7c0.3-0.4,0.6-0.7,1-1s0.8-0.5,1.3-0.7
	l0.6-0.2V0.9c0.2,0,0.6,0,1,0s0.8,0,1,0v5.6l0.6,0.2C8,7,8.6,7.4,9.1,7.9l0.5,0.5L9.9,9c0.4,0.7,0.6,1.5,0.6,2.2
	C10.5,11.7,10.4,12.3,10.2,12.8L10.2,12.8z"/>
</svg>
