<?xml version="1.0" encoding="utf-8"?>
<!-- Generator: Adobe Illustrator 26.0.0, SVG Export Plug-In . SVG Version: 6.00 Build 0)  -->
<svg version="1.1" id="Layer_1" xmlns="http://www.w3.org/2000/svg" xmlns:xlink="http://www.w3.org/1999/xlink" x="0px" y="0px"
	 viewBox="0 0 35 33" style="enable-background:new 0 0 35 33;" xml:space="preserve">
<style type="text/css">
	.st0{fill:#FA8617;}
	.st1{fill:none;stroke:#CACACA;}
</style>
<g>
	<path class="st0" d="M29,21.1H10.1c-0.3,0-0.5,0.2-0.5,0.5s0.2,0.5,0.5,0.5H29c0.3,0,0.5-0.2,0.5-0.5C29.5,21.3,29.3,21.1,29,21.1z
		 M29,16.8H17.2c-0.3,0-0.5,0.2-0.5,0.5s0.2,0.5,0.5,0.5h11.7c0.3,0,0.5-0.2,0.5-0.5C29.5,17,29.3,16.8,29,16.8z M13.3,16.8h-3.2
		c-0.3,0-0.5,0.2-0.5,0.5s0.2,0.5,0.5,0.5h3.2c0.3,0,0.5-0.2,0.5-0.5S13.5,16.8,13.3,16.8z"/>
	<path class="st0" d="M2.5,8h0.6v1.5l0,0L4.4,8H5L4,9.3l1.2,2.1H4.5L3.6,9.8l-0.5,0.6v1H2.5V8z"/>
	<path class="st0" d="M5.3,9.7c0-1.1,0.7-1.8,1.6-1.8c0.5,0,0.8,0.2,1,0.4L7.6,8.7C7.5,8.6,7.3,8.5,7,8.5C6.4,8.5,6,9,6,9.7
		c0,0.8,0.4,1.2,1,1.2c0.2,0,0.4-0.1,0.5-0.1V10H6.8V9.5H8V11c-0.2,0.2-0.6,0.4-1.1,0.4C6,11.4,5.3,10.8,5.3,9.7z"/>
	<path class="st0" d="M10.7,12.7l-1-7.8C9.6,4.5,9.3,4.2,8.9,4.2H5.8V3.5c0.7-0.2,1.3-0.9,1.3-1.7c0-1-0.8-1.8-1.8-1.8
		S3.5,0.8,3.5,1.8c0,0.8,0.5,1.5,1.3,1.7v0.7H1.7c-0.4,0-0.8,0.3-0.8,0.7l-1,7.8c-0.2,0.8,0.4,1.5,1.2,1.5h8.5
		C10.3,14.2,10.9,13.5,10.7,12.7z M4.2,1.8c0-0.6,0.5-1,1-1s1,0.5,1,1c0,0.6-0.5,1-1,1S4.2,2.4,4.2,1.8z M9.9,13.3
		c0,0.1-0.2,0.2-0.4,0.2H1c-0.2,0-0.3-0.1-0.3-0.2c-0.1-0.1-0.1-0.2-0.1-0.4l1-7.8C1.6,5,1.6,5,1.7,5h7.2H9l1,7.8
		C10,13.1,9.9,13.2,9.9,13.3z"/>
</g>
<path class="st1" d="M12.1,1.8c2-0.9,4.1-1.3,6.4-1.3c8.8,0,16,7.2,16,16s-7.2,16-16,16c-8.4,0-15.4-6.6-16-14.9"/>
</svg>
