<?xml version="1.0" encoding="utf-8"?>
<!-- Generator: Adobe Illustrator 26.0.0, SVG Export Plug-In . SVG Version: 6.00 Build 0)  -->
<svg version="1.1" id="Layer_1" xmlns="http://www.w3.org/2000/svg" xmlns:xlink="http://www.w3.org/1999/xlink" x="0px" y="0px"
	 viewBox="0 0 35 33" style="enable-background:new 0 0 35 33;" xml:space="preserve">
<style type="text/css">
	.st0{fill:none;stroke:#CACACA;}
	.st1{fill:#F16334;}
	.st2{fill-rule:evenodd;clip-rule:evenodd;fill:#F16334;}
</style>
<g>
	<path id="cal2" class="st0" d="M9.4,3.3c2.6-1.8,5.7-2.8,9.1-2.8c8.8,0,16,7.2,16,16s-7.2,16-16,16s-16-7.2-16-16
		c0-2.4,0.5-4.7,1.5-6.8"/>
	<path id="cla1" class="st1" d="M28.9,21.1H10c-0.3,0-0.5,0.2-0.5,0.5c0,0.3,0.2,0.5,0.5,0.5h18.9c0.3,0,0.5-0.2,0.5-0.5
		C29.4,21.3,29.2,21.1,28.9,21.1z M13.2,16.8H10c-0.3,0-0.5,0.2-0.5,0.5c0,0.3,0.2,0.5,0.5,0.5h3.2c0.3,0,0.5-0.2,0.5-0.5
		C13.7,17,13.5,16.8,13.2,16.8z M28.8,16.8h-9.9c0.2,0.3,0.3,0.6,0.3,1h9.7c0.3,0,0.5-0.2,0.5-0.5C29.3,17,29.1,16.8,28.8,16.8z"/>
	<path id="cal1" class="st2" d="M8.7,8.2c0,0.1,0,0.1,0,0.2c0,0.1-0.1,0.1-0.1,0.2c0,0-0.1,0.1-0.2,0.1c-0.1,0-0.1,0-0.2,0H4.5
		C4.3,8.7,4,8.4,4,8.2c0-0.3,0.2-0.5,0.5-0.5H7L0.7,1.3c-0.2-0.2-0.2-0.5,0-0.7c0.2-0.2,0.5-0.2,0.7,0L7.7,7V4.5
		C7.7,4.3,7.9,4,8.2,4c0.3,0,0.5,0.2,0.5,0.5V8.2z M18,18c-0.2,0.2-0.5,0.2-0.7,0L11,11.7v2.4c0,0.3-0.2,0.5-0.5,0.5
		S10,14.4,10,14.1v-3.6c0-0.1,0-0.1,0-0.2c0,0,0,0,0,0c0.1-0.1,0.1-0.2,0.3-0.3c0,0,0,0,0,0c0.1,0,0.1,0,0.2,0h3.6
		c0.3,0,0.5,0.2,0.5,0.5S14.4,11,14.1,11h-2.4l6.3,6.3C18.2,17.5,18.2,17.8,18,18z"/>
</g>
</svg>
