<?xml version="1.0" encoding="utf-8"?>
<!-- Generator: Adobe Illustrator 26.0.0, SVG Export Plug-In . SVG Version: 6.00 Build 0)  -->
<svg version="1.1" id="Layer_1" xmlns="http://www.w3.org/2000/svg" xmlns:xlink="http://www.w3.org/1999/xlink" x="0px" y="0px"
	 viewBox="0 0 35 33" style="enable-background:new 0 0 35 33;" xml:space="preserve">
<style type="text/css">
	.st0{fill:#CACACA;}
	.st1{fill:#FA8617;}
</style>
<g>
	<path class="st0" d="M17,13.5c0,0.5-0.1,0.9-0.4,1.2c-0.2,0.3-0.6,0.4-1,0.4c-0.2,0-0.4,0-0.6-0.1v-0.8c0.1,0.1,0.3,0.2,0.5,0.2
		c0.4,0,0.6-0.3,0.6-0.9v-2.3H17V13.5z"/>
	<path class="st0" d="M17.8,14.9V14c0.2,0.1,0.3,0.2,0.5,0.3s0.4,0.1,0.6,0.1c0.1,0,0.2,0,0.3,0c0.1,0,0.1,0,0.2-0.1
		c0.1,0,0.1-0.1,0.1-0.1c0,0,0-0.1,0-0.2c0-0.1,0-0.1-0.1-0.2c0-0.1-0.1-0.1-0.2-0.2s-0.2-0.1-0.3-0.1c-0.1,0-0.2-0.1-0.3-0.1
		c-0.3-0.1-0.5-0.3-0.7-0.5c-0.1-0.2-0.2-0.4-0.2-0.7c0-0.2,0-0.4,0.1-0.5c0.1-0.1,0.2-0.3,0.3-0.4c0.1-0.1,0.3-0.2,0.5-0.2
		s0.4-0.1,0.6-0.1c0.2,0,0.4,0,0.5,0c0.2,0,0.3,0.1,0.4,0.1v0.8C20.2,12,20.1,12,20,12s-0.2-0.1-0.2-0.1c-0.1,0-0.2,0-0.2,0
		c-0.1,0-0.2,0-0.2,0c-0.1,0-0.2,0-0.3,0c-0.1,0-0.1,0-0.2,0.1S18.7,12,18.7,12s0,0.1,0,0.2c0,0.1,0,0.1,0.1,0.2
		c0,0.1,0.1,0.1,0.1,0.1c0.1,0,0.1,0.1,0.2,0.1c0.1,0,0.2,0.1,0.3,0.1c0.2,0.1,0.3,0.1,0.4,0.2c0.1,0.1,0.2,0.2,0.3,0.2
		c0.1,0.1,0.2,0.2,0.2,0.3c0,0.1,0.1,0.3,0.1,0.4c0,0.2,0,0.4-0.1,0.5c-0.1,0.1-0.2,0.3-0.3,0.4s-0.3,0.2-0.5,0.2
		c-0.2,0-0.4,0.1-0.6,0.1c-0.2,0-0.4,0-0.6-0.1C18.1,15,17.9,15,17.8,14.9z"/>
	<path class="st0" d="M22.8,15.1c-0.6,0-1-0.2-1.3-0.5c-0.3-0.4-0.5-0.8-0.5-1.4c0-0.6,0.2-1.1,0.5-1.5s0.8-0.6,1.4-0.6
		c0.5,0,1,0.2,1.3,0.5c0.3,0.4,0.5,0.8,0.5,1.4c0,0.6-0.2,1.1-0.5,1.5C23.8,14.9,23.4,15.1,22.8,15.1z M22.8,11.9
		c-0.3,0-0.5,0.1-0.7,0.3c-0.2,0.2-0.3,0.5-0.3,0.9c0,0.4,0.1,0.7,0.3,0.9c0.2,0.2,0.4,0.3,0.7,0.3c0.3,0,0.5-0.1,0.7-0.3
		c0.2-0.2,0.3-0.5,0.3-0.9c0-0.4-0.1-0.7-0.3-0.9S23.1,11.9,22.8,11.9z"/>
	<path class="st0" d="M28.9,15h-0.9l-1.6-2.4c-0.1-0.1-0.2-0.2-0.2-0.3h0c0,0.1,0,0.3,0,0.6V15h-0.8v-3.9h0.9l1.5,2.3
		c0.1,0.1,0.1,0.2,0.2,0.3h0c0-0.1,0-0.3,0-0.5v-2.1h0.8V15z"/>
	<path class="st0" d="M18.5,33C9.4,33,2,25.6,2,16.5c0-2.1,0.4-4,1.1-6l0.9,0.4C3.3,12.7,3,14.6,3,16.5C3,25,10,32,18.5,32
		S34,25,34,16.5C34,9.3,28.9,3,21.9,1.4l0.2-1C29.6,2.1,35,8.9,35,16.5C35,25.6,27.6,33,18.5,33z"/>
</g>
<g>
	<path id="cla1_00000129889354294205908240000015338523547764660119_" class="st1" d="M28.9,21.1H10c-0.3,0-0.5,0.2-0.5,0.5
		s0.2,0.5,0.5,0.5h18.9c0.3,0,0.5-0.2,0.5-0.5C29.4,21.3,29.2,21.1,28.9,21.1z M28.9,16.8H17.1c-0.3,0-0.5,0.2-0.5,0.5
		s0.2,0.5,0.5,0.5h11.7c0.3,0,0.5-0.2,0.5-0.5C29.4,17,29.2,16.8,28.9,16.8z M13.2,16.8H10c-0.3,0-0.5,0.2-0.5,0.5s0.2,0.5,0.5,0.5
		h3.2c0.3,0,0.5-0.2,0.5-0.5S13.4,16.8,13.2,16.8z"/>
	<path class="st1" d="M5.5,5.9H3.9L2.9,4c0-0.1-0.1-0.2-0.1-0.4h0c0,0.1-0.1,0.2-0.1,0.4l-1,1.9H0l1.9-3L0.2,0h1.6l0.8,1.8
		c0.1,0.1,0.1,0.3,0.2,0.5h0C2.9,2.2,2.9,2,3,1.8L3.9,0h1.5L3.7,2.9L5.5,5.9z"/>
	<path class="st1" d="M13.1,5.9h-1.3V2.4c0-0.4,0-0.8,0-1.3h0c-0.1,0.4-0.1,0.6-0.2,0.8l-1.4,4H9.2l-1.4-4c0-0.1-0.1-0.4-0.2-0.8h0
		c0,0.6,0.1,1.1,0.1,1.5v3.3H6.4V0h1.9l1.2,3.5c0.1,0.3,0.2,0.6,0.2,0.8h0C9.9,4,9.9,3.7,10,3.5L11.2,0h1.9V5.9z"/>
	<path class="st1" d="M18.2,5.9h-3.5V0H16v4.8h2.2V5.9z"/>
</g>
</svg>
