<?xml version="1.0" encoding="utf-8"?>
<!-- Generator: Adobe Illustrator 26.0.0, SVG Export Plug-In . SVG Version: 6.00 Build 0)  -->
<svg version="1.1" id="Layer_1" xmlns="http://www.w3.org/2000/svg" xmlns:xlink="http://www.w3.org/1999/xlink" x="0px" y="0px"
	 viewBox="0 0 35 33" style="enable-background:new 0 0 35 33;" xml:space="preserve">
<style type="text/css">
	.st0{fill:none;stroke:#CACACA;}
	.st1{fill:#F16334;}
</style>
<g>
	<path class="st0" d="M31.2,10.1c0.9,2,1.3,4.1,1.3,6.4c0,8.8-7.2,16-16,16s-16-7.2-16-16s7.2-16,16-16c3.6,0,7,1.2,9.7,3.3"/>
	<path id="cla1" class="st1" d="M15.1,16.8h11.7c0.3,0,0.5,0.2,0.5,0.5c0,0.3-0.2,0.5-0.5,0.5H15.1c-0.3,0-0.5-0.2-0.5-0.5
		C14.6,17,14.8,16.8,15.1,16.8z M8,16.8h3.2c0.3,0,0.5,0.2,0.5,0.5c0,0.3-0.2,0.5-0.5,0.5H8c-0.3,0-0.5-0.2-0.5-0.5
		C7.5,17,7.7,16.8,8,16.8z M26.9,22.1H8c-0.3,0-0.5-0.2-0.5-0.5c0-0.3,0.2-0.5,0.5-0.5h18.9c0.3,0,0.5,0.2,0.5,0.5
		C27.4,21.9,27.2,22.1,26.9,22.1z"/>
	<path class="st1" d="M35,1.5c0,0.1,0,0.3-0.2,0.4l-8.1,8c-0.2,0.2-0.5,0.2-0.8,0L22.2,6C22,5.9,22,5.8,22,5.7
		c0-0.1,0.1-0.3,0.2-0.3c0.1-0.1,0.2-0.1,0.4-0.1c0.1,0,0.3,0,0.4,0.2L26,8.4c0.2,0.2,0.5,0.2,0.7,0l7.4-7.3c0.2-0.2,0.5-0.2,0.7,0
		C34.9,1.2,35,1.4,35,1.5z"/>
</g>
</svg>
