<?xml version="1.0" encoding="utf-8"?>
<!-- Generator: Adobe Illustrator 26.0.0, SVG Export Plug-In . SVG Version: 6.00 Build 0)  -->
<svg version="1.1" id="Layer_1" xmlns="http://www.w3.org/2000/svg" xmlns:xlink="http://www.w3.org/1999/xlink" x="0px" y="0px"
	 viewBox="0 0 35 33" style="enable-background:new 0 0 35 33;" xml:space="preserve">
<style type="text/css">
	.st0{fill:none;stroke:#CACACA;}
	.st1{fill:#F16334;}
</style>
<g>
	<path id="cla2" class="st0" d="M11.8,2c2-1,4.3-1.5,6.7-1.5c8.8,0,16,7.2,16,16s-7.2,16-16,16s-16-7.2-16-16c0-2.6,0.6-5.1,1.8-7.3
		"/>
	<path id="cla1_00000097477152348553917490000000633544121501008270_" class="st1" d="M11.1,3.6v4.5H9.7V3.7c0-0.5-0.6-0.6-1-0.6
		c-0.4,0-1,0.2-1,0.9v4H6.3V1.8h1.3c0,0.1,0,0.4,0.1,0.6c0.2-0.3,1-0.7,1.8-0.7C10.6,1.7,11.1,2.4,11.1,3.6z"/>
	<polygon id="cla1_00000122722558303407694220000008892836794756415908_" class="st1" points="4.6,6.8 4.4,8.1 0,8.1 0,0 4.4,0 
		4.4,1.2 1.3,1.2 1.3,3.3 4.3,3.3 4.3,4.5 1.3,4.5 1.3,6.8 	"/>
	<path id="cla1" class="st1" d="M17.1,16.8h11.7c0.3,0,0.5,0.2,0.5,0.5c0,0.3-0.2,0.5-0.5,0.5H17.1c-0.3,0-0.5-0.2-0.5-0.5
		C16.6,17,16.8,16.8,17.1,16.8z M10,16.8h3.2c0.3,0,0.5,0.2,0.5,0.5c0,0.3-0.2,0.5-0.5,0.5H10c-0.3,0-0.5-0.2-0.5-0.5
		C9.5,17,9.7,16.8,10,16.8z M28.9,22.1H10c-0.3,0-0.5-0.2-0.5-0.5c0-0.3,0.2-0.5,0.5-0.5h18.9c0.3,0,0.5,0.2,0.5,0.5
		C29.4,21.9,29.2,22.1,28.9,22.1z"/>
</g>
</svg>
