<svg width="562" height="377" viewBox="0 0 562 377" fill="none" xmlns="http://www.w3.org/2000/svg">
<g clip-path="url(#clip0_606_19699)">
<path d="M347.162 8.91739C347.317 1.57347 341.624 -4.50278 334.446 -4.65431C327.267 -4.80583 321.322 1.02474 321.167 8.36866C321.012 15.7126 326.706 21.7889 333.884 21.9404C341.062 22.0919 347.007 16.2613 347.162 8.91739Z" fill="#E1E2FE" fill-opacity="0.3"/>
<path d="M113.6 8.99979C113.8 12.7998 116.9 15.6998 120.7 15.4998C124.4 15.2998 127.3 12.0998 127.1 8.29979C126.9 4.49979 123.8 1.59979 120 1.79979C116.3 1.99979 113.4 5.19979 113.6 8.99979Z" fill="#E1E2FE" fill-opacity="0.3"/>
<path d="M500.099 164C500.199 166.5 502.299 168.4 504.799 168.3C507.299 168.2 509.099 166 508.999 163.5C508.899 161 506.799 159.1 504.299 159.2C501.899 159.4 499.999 161.5 500.099 164Z" fill="#E1E2FE" fill-opacity="0.3"/>
<path d="M479.345 392.815C479.587 381.274 470.606 371.727 459.287 371.49C447.967 371.253 438.595 380.416 438.353 391.956C438.112 403.497 447.092 413.044 458.412 413.281C469.731 413.518 479.104 404.355 479.345 392.815Z" fill="#E1E2FE" fill-opacity="0.3"/>
<path opacity="0.58" d="M298.2 0.7999C299.415 0.7999 300.4 -0.185074 300.4 -1.4001C300.4 -2.61513 299.415 -3.6001 298.2 -3.6001C296.985 -3.6001 296 -2.61513 296 -1.4001C296 -0.185074 296.985 0.7999 298.2 0.7999Z" fill="#3E479B"/>
<path opacity="0.58" d="M35.5 292C37.9853 292 40 289.985 40 287.5C40 285.015 37.9853 283 35.5 283C33.0147 283 31 285.015 31 287.5C31 289.985 33.0147 292 35.5 292Z" fill="#FA8617"/>
<path opacity="0.58" d="M86.0996 3.2998C86.928 3.2998 87.5996 2.62823 87.5996 1.7998C87.5996 0.971378 86.928 0.299805 86.0996 0.299805C85.2712 0.299805 84.5996 0.971378 84.5996 1.7998C84.5996 2.62823 85.2712 3.2998 86.0996 3.2998Z" fill="#3E479B"/>
<path opacity="0.58" d="M424.074 18.7097C425.427 16.0515 424.368 12.8005 421.71 11.4483C419.052 10.0961 415.801 11.1548 414.448 13.8129C413.096 16.4711 414.155 19.7221 416.813 21.0743C419.471 22.4265 422.722 21.3678 424.074 18.7097Z" fill="#FA8617"/>
<path opacity="0.58" d="M397.538 18.1383C397.338 19.1383 396.338 19.7383 395.438 19.5383C394.438 19.3383 393.838 18.3383 394.038 17.4383C394.238 16.4383 395.238 15.8383 396.138 16.0383C397.138 16.2383 397.838 17.1383 397.538 18.1383Z" fill="#3E479B"/>
<path opacity="0.58" d="M69.1008 357.9C68.9008 358.9 67.9008 359.5 67.0008 359.3C66.0008 359.1 65.4008 358.1 65.6008 357.2C65.8008 356.2 66.8008 355.6 67.7008 355.8C68.7008 356 69.3008 356.9 69.1008 357.9Z" fill="#FA8617"/>
<g opacity="0.15">
<mask id="mask0_606_19699" style="mask-type:alpha" maskUnits="userSpaceOnUse" x="23" y="22" width="131" height="131">
<path d="M151.188 103.003C159.807 68.324 138.681 33.2245 104.003 24.6057C69.3239 15.987 34.2244 37.1127 25.6056 71.7914C16.9869 106.47 38.1127 141.57 72.7914 150.188C107.47 158.807 142.57 137.681 151.188 103.003Z" fill="white"/>
</mask>
<g mask="url(#mask0_606_19699)">
<path d="M153.142 21.0774H19.3418V154.877H153.142V21.0774Z" stroke="#2D293A" stroke-width="0.5" stroke-miterlimit="10"/>
<path d="M19.3418 132.577H153.042" stroke="#2D293A" stroke-width="0.5" stroke-miterlimit="10"/>
<path d="M19.3418 110.277H153.042" stroke="#2D293A" stroke-width="0.5" stroke-miterlimit="10"/>
<path d="M19.3418 87.9773H153.042" stroke="#2D293A" stroke-width="0.5" stroke-miterlimit="10"/>
<path d="M19.3418 65.6775H153.042" stroke="#2D293A" stroke-width="0.5" stroke-miterlimit="10"/>
<path d="M19.3418 43.3774H153.042" stroke="#2D293A" stroke-width="0.5" stroke-miterlimit="10"/>
<path d="M130.742 21.0774V154.877" stroke="#2D293A" stroke-width="0.5" stroke-miterlimit="10"/>
<path d="M108.441 21.0774V154.877" stroke="#2D293A" stroke-width="0.5" stroke-miterlimit="10"/>
<path d="M86.2422 21.0774V154.877" stroke="#2D293A" stroke-width="0.5" stroke-miterlimit="10"/>
<path d="M63.9414 21.0774V154.877" stroke="#2D293A" stroke-width="0.5" stroke-miterlimit="10"/>
<path d="M41.6426 21.0774V154.877" stroke="#2D293A" stroke-width="0.5" stroke-miterlimit="10"/>
<path d="M151.188 103.003C159.807 68.324 138.681 33.2245 104.003 24.6057C69.3239 15.987 34.2244 37.1127 25.6056 71.7914C16.9869 106.47 38.1127 141.57 72.7914 150.188C107.47 158.807 142.57 137.681 151.188 103.003Z" stroke="#B2B2B2" stroke-width="1.00002" stroke-miterlimit="10"/>
</g>
</g>
<path d="M327.499 109.6C330.702 109.6 333.299 107.003 333.299 103.8C333.299 100.597 330.702 98 327.499 98C324.296 98 321.699 100.597 321.699 103.8C321.699 107.003 324.296 109.6 327.499 109.6Z" stroke="#F5851F" stroke-miterlimit="10"/>
<path opacity="0.15" d="M69.7992 220.2C75.3773 220.2 79.8992 215.678 79.8992 210.1C79.8992 204.522 75.3773 200 69.7992 200C64.2211 200 59.6992 204.522 59.6992 210.1C59.6992 215.678 64.2211 220.2 69.7992 220.2Z" stroke="#F5851F" stroke-miterlimit="10"/>
<path d="M58.5026 100.533H24.7613L11.1254 107.718V100.533H2.75985C2.06466 100.533 1.39797 100.256 0.906394 99.7636C0.41482 99.2708 0.138672 98.6023 0.138672 97.9053V68.0193C0.138672 67.3223 0.41482 66.6539 0.906394 66.1611C1.39797 65.6683 2.06466 65.3914 2.75985 65.3914H58.5304C59.2256 65.3914 59.8923 65.6683 60.3839 66.1611C60.8755 66.6539 61.1516 67.3223 61.1516 68.0193V97.7376C61.1747 98.0989 61.1231 98.4612 61 98.8015C60.8768 99.1419 60.6849 99.4531 60.4362 99.7156C60.1874 99.9781 59.8873 100.186 59.5545 100.327C59.2218 100.468 58.8637 100.538 58.5026 100.533Z" fill="#EAEAFE"/>
<path d="M33.1002 130.699H65.6703L78.8321 137.884V130.699H87.0304C87.7133 130.684 88.3629 130.4 88.838 129.908C89.3132 129.416 89.5754 128.756 89.5679 128.071V98.3247C89.5754 97.6399 89.3132 96.9798 88.838 96.4878C88.3629 95.9957 87.7133 95.7115 87.0304 95.6968H33.1002C32.4173 95.7115 31.7677 95.9957 31.2926 96.4878C30.8175 96.9798 30.5552 97.6399 30.5627 98.3247V128.071C30.5552 128.756 30.8175 129.416 31.2926 129.908C31.7677 130.4 32.4173 130.684 33.1002 130.699Z" fill="#EAEAFE"/>
<path d="M22.0294 72.9956H5.63281V75.8752H22.0294V72.9956Z" fill="white"/>
<path d="M50.1098 85.157H5.63281V88.0366H50.1098V85.157Z" fill="white"/>
<path d="M40.5731 92.2581H5.63281V95.1376H40.5731V92.2581Z" fill="white"/>
<path d="M16.6475 78.2517H5.63281V81.1313H16.6475V78.2517Z" fill="white"/>
<path d="M67.7343 103.748H84.1309V100.869H67.7343V103.748Z" fill="white"/>
<path d="M39.6538 115.91H84.1309V113.03H39.6538V115.91Z" fill="white"/>
<path d="M49.1906 123.039H84.1309V120.159H49.1906V123.039Z" fill="white"/>
<path d="M73.1162 109.004H84.1309V106.125H73.1162V109.004Z" fill="white"/>
<path d="M93.4153 78.1677C93.4141 77.4242 93.1581 76.7037 92.6902 76.1268C92.5103 75.8954 92.3782 75.6303 92.3016 75.3471C92.225 75.0639 92.2055 74.7682 92.2441 74.4774C92.3576 73.7362 92.2201 72.9784 91.8537 72.3247C91.4782 71.6968 90.9112 71.2067 90.2364 70.9268C89.9499 70.8189 89.6897 70.6508 89.4732 70.4338C89.2568 70.2169 89.0892 69.956 88.9815 69.6688C88.7024 68.9923 88.2136 68.4238 87.5873 68.0473C87.0847 67.7629 86.5191 67.6091 85.942 67.6H85.4401H85.1334C84.6467 67.5961 84.1754 67.4288 83.7949 67.1247C83.2145 66.6549 82.4912 66.3987 81.7453 66.3987C80.9994 66.3987 80.2761 66.6549 79.6957 67.1247C79.3152 67.4288 78.8438 67.5961 78.3572 67.6H78.0505H77.5764C76.9901 67.6056 76.4146 67.7595 75.9033 68.0473C75.277 68.4238 74.7882 68.9923 74.5091 69.6688C74.3969 69.9534 74.2276 70.2119 74.0118 70.4283C73.796 70.6447 73.5381 70.8144 73.2542 70.9268C72.5795 71.2067 72.0124 71.6968 71.6369 72.3247C71.2705 72.9784 71.133 73.7362 71.2465 74.4774C71.2852 74.7682 71.2656 75.0639 71.189 75.3471C71.1124 75.6303 70.9803 75.8954 70.8003 76.1268C70.3318 76.7087 70.0762 77.4339 70.0762 78.1817C70.0762 78.9295 70.3318 79.6547 70.8003 80.2365C70.9843 80.4651 71.117 80.7308 71.1891 81.0154C71.2613 81.3001 71.2714 81.5971 71.2186 81.886C71.1317 82.6297 71.2779 83.3821 71.6369 84.0387C71.9991 84.6777 72.5705 85.1715 73.2542 85.4365C73.5347 85.5473 73.7902 85.7131 74.0057 85.9244C74.2212 86.1356 74.3924 86.388 74.5091 86.6666C74.7795 87.3556 75.2698 87.9356 75.9033 88.3161C76.4059 88.6005 76.9715 88.7543 77.5486 88.7634H78.0226H78.3293C78.8252 88.7631 79.3066 88.9306 79.6957 89.2387C80.2688 89.7118 80.989 89.969 81.7313 89.9655C82.4745 89.9738 83.1963 89.7161 83.767 89.2387C84.1561 88.9306 84.6375 88.7631 85.1334 88.7634H85.4401H85.9141C86.4917 88.7579 87.0582 88.6039 87.5594 88.3161C88.2001 87.9441 88.6927 87.3613 88.9536 86.6666C89.0703 86.388 89.2415 86.1356 89.457 85.9244C89.6725 85.7131 89.928 85.5473 90.2085 85.4365C90.8922 85.1715 91.4636 84.6777 91.8258 84.0387C92.1978 83.3869 92.3449 82.6301 92.2441 81.886C92.1988 81.595 92.2151 81.2978 92.2919 81.0136C92.3688 80.7294 92.5045 80.4646 92.6902 80.2365C93.1621 79.6511 93.4182 78.9204 93.4153 78.1677ZM81.7313 85.2688C81.2802 85.2688 80.8476 85.0891 80.5286 84.7693C80.2096 84.4494 80.0303 84.0157 80.0303 83.5634C80.0303 83.1111 80.2096 82.6774 80.5286 82.3575C80.8476 82.0377 81.2802 81.858 81.7313 81.858C82.1851 81.858 82.6207 82.0367 82.9441 82.3558C83.2675 82.6748 83.4529 83.1085 83.4602 83.5634C83.4717 83.7967 83.4353 84.0298 83.3532 84.2484C83.2711 84.467 83.1451 84.6664 82.983 84.8341C82.8209 85.0019 82.6262 85.1345 82.4109 85.2237C82.1956 85.3129 81.9643 85.3568 81.7313 85.3527V85.2688ZM83.0141 77.4967C82.7352 79.258 82.5679 80.2924 82.5679 80.5161C82.5679 80.7397 82.5679 81.0193 82.5679 81.1311C82.4332 81.1828 82.2843 81.1828 82.1496 81.1311H81.5361C81.4015 81.1828 81.2525 81.1828 81.1179 81.1311C81.1179 81.1311 81.1179 80.9075 81.1179 80.572C81.1179 80.2365 81.1179 79.6215 80.4765 76.2666C79.8352 72.9118 80.0025 72.9677 80.0025 72.8838C80.0031 72.6468 80.053 72.4125 80.1491 72.1959C80.2451 71.9793 80.3851 71.7851 80.5602 71.6258C80.7512 71.4402 80.979 71.2971 81.2288 71.2055C81.4787 71.114 81.7449 71.0762 82.0102 71.0946C82.2736 71.0784 82.5373 71.12 82.7829 71.2166C83.0286 71.3132 83.2502 71.4624 83.4324 71.6537C83.7587 72.0127 83.9379 72.482 83.9343 72.9677C83.7792 74.4883 83.5465 76 83.2371 77.4967H83.0141Z" fill="#FA8617"/>
<path d="M275.84 16.9419H256.906V100.869H275.84V16.9419Z" fill="#737373"/>
<path d="M250.297 44.8989H231.363V100.841H250.297V44.8989Z" fill="#737373"/>
<path d="M225.62 58.9053H206.686V100.869H225.62V58.9053Z" fill="#737373"/>
<path d="M200.606 48.3096H181.672V100.869H200.606V48.3096Z" fill="#737373"/>
<path d="M174.729 65.084H155.795V100.869H174.729V65.084Z" fill="#737373"/>
<path d="M264.186 3.21484L239.145 18.1159L214.801 44.8987L191.126 30.8363L154.764 52.1955" stroke="#FA8617" stroke-width="0.5" stroke-miterlimit="10"/>
<path d="M410.89 132.013H114.219V306.576H410.89V132.013Z" fill="#F6F6FF"/>
<path d="M239.451 21.5829C241.222 21.5829 242.658 20.1435 242.658 18.3679C242.658 16.5923 241.222 15.1528 239.451 15.1528C237.68 15.1528 236.244 16.5923 236.244 18.3679C236.244 20.1435 237.68 21.5829 239.451 21.5829Z" fill="#EAEAFE"/>
<path d="M263.154 7.12884C264.925 7.12884 266.361 5.68941 266.361 3.91378C266.361 2.13816 264.925 0.69873 263.154 0.69873C261.383 0.69873 259.947 2.13816 259.947 3.91378C259.947 5.68941 261.383 7.12884 263.154 7.12884Z" fill="#EAEAFE"/>
<path d="M214.662 47.1354C216.433 47.1354 217.869 45.696 217.869 43.9204C217.869 42.1447 216.433 40.7053 214.662 40.7053C212.891 40.7053 211.455 42.1447 211.455 43.9204C211.455 45.696 212.891 47.1354 214.662 47.1354Z" fill="#EAEAFE"/>
<path d="M191.125 34.1354C192.896 34.1354 194.332 32.696 194.332 30.9204C194.332 29.1448 192.896 27.7053 191.125 27.7053C189.354 27.7053 187.918 29.1448 187.918 30.9204C187.918 32.696 189.354 34.1354 191.125 34.1354Z" fill="#EAEAFE"/>
<path d="M155.822 54.7397C157.593 54.7397 159.029 53.3002 159.029 51.5246C159.029 49.749 157.593 48.3096 155.822 48.3096C154.051 48.3096 152.615 49.749 152.615 51.5246C152.615 53.3002 154.051 54.7397 155.822 54.7397Z" fill="#EAEAFE"/>
<path d="M161.847 151.499H133.516V155.413H161.847V151.499Z" fill="#FEFFFE"/>
<path d="M161.847 160.277H133.516V164.191H161.847V160.277Z" fill="#FEFFFE"/>
<path d="M155.963 168.021H133.516V171.935H155.963V168.021Z" fill="#FEFFFE"/>
<path d="M161.847 244.763H133.516V248.677H161.847V244.763Z" fill="#FEFFFE"/>
<path d="M155.963 252.508H133.516V256.422H155.963V252.508Z" fill="#FEFFFE"/>
<path d="M401.66 147.417H178.717V184.572H401.66V147.417Z" fill="#FEFFFE"/>
<path d="M253.003 156.503H224.672V159.914H253.003V156.503Z" fill="#F6F6FF"/>
<path d="M253.003 164.163H224.672V167.574H253.003V164.163Z" fill="#F6F6FF"/>
<path d="M247.12 170.957H224.672V174.368H247.12V170.957Z" fill="#F6F6FF"/>
<path d="M264.994 177.89V155.385H263.962V177.89H264.994Z" fill="#FEFFFE"/>
<path d="M373.439 156.503H276.621V159.914H373.439V156.503Z" fill="#F6F6FF"/>
<path d="M373.439 164.163H276.621V167.574H373.439V164.163Z" fill="#F6F6FF"/>
<path d="M353.334 170.957H276.621V174.368H353.334V170.957Z" fill="#F6F6FF"/>
<path d="M207.216 166.596C207.075 168.377 206.42 170.079 205.33 171.493C204.24 172.907 202.763 173.972 201.079 174.558C199.395 175.144 197.578 175.226 195.848 174.793C194.119 174.36 192.553 173.432 191.341 172.121C190.13 170.81 189.325 169.174 189.026 167.413C188.727 165.651 188.946 163.84 189.657 162.201C190.368 160.563 191.539 159.167 193.028 158.185C194.517 157.203 196.259 156.677 198.042 156.671C199.067 156.665 200.085 156.835 201.053 157.174L202.977 153.903C201.411 153.26 199.735 152.928 198.042 152.925C195.512 152.923 193.037 153.665 190.923 155.058C188.81 156.452 187.15 158.436 186.149 160.765C185.148 163.095 184.851 165.667 185.293 168.164C185.735 170.662 186.898 172.974 188.637 174.816C190.376 176.657 192.616 177.947 195.079 178.526C197.542 179.105 200.12 178.948 202.495 178.073C204.869 177.198 206.936 175.645 208.439 173.605C209.942 171.565 210.816 169.128 210.953 166.596H207.216ZM212.458 156.475L200.774 170.426C200.67 170.565 200.537 170.679 200.384 170.761C200.095 170.926 199.768 171.013 199.436 171.013C199.096 171.01 198.762 170.921 198.465 170.755C198.168 170.589 197.917 170.351 197.735 170.062L193.217 164.471C192.961 164.012 192.891 163.471 193.022 162.961C193.162 162.463 193.493 162.041 193.943 161.787C194.169 161.642 194.423 161.545 194.689 161.502C194.954 161.459 195.226 161.47 195.487 161.535C195.748 161.601 195.993 161.719 196.206 161.882C196.42 162.046 196.599 162.251 196.731 162.486L199.91 166.204L209.977 153.959C210.16 153.711 210.4 153.51 210.676 153.374C210.953 153.237 211.258 153.17 211.566 153.176C211.817 153.176 212.066 153.226 212.298 153.324C212.53 153.421 212.74 153.564 212.917 153.743C213.093 153.923 213.232 154.136 213.326 154.369C213.42 154.603 213.466 154.853 213.462 155.105C213.261 155.639 212.913 156.104 212.458 156.447V156.475Z" fill="#F6F6FF"/>
<path d="M401.66 192.148H178.717V229.303H401.66V192.148Z" fill="#FEFFFE"/>
<path d="M253.003 201.207H224.672V204.617H253.003V201.207Z" fill="#F6F6FF"/>
<path d="M253.003 208.895H224.672V212.305H253.003V208.895Z" fill="#F6F6FF"/>
<path d="M247.12 215.66H224.672V219.071H247.12V215.66Z" fill="#F6F6FF"/>
<path d="M264.994 222.593V200.088H263.962V222.593H264.994Z" fill="#F6F6FF"/>
<path d="M373.439 201.207H276.621V204.617H373.439V201.207Z" fill="#F6F6FF"/>
<path d="M373.439 208.895H276.621V212.305H373.439V208.895Z" fill="#F6F6FF"/>
<path d="M353.334 215.66H276.621V219.071H353.334V215.66Z" fill="#F6F6FF"/>
<path d="M207.216 211.327C207.075 213.108 206.42 214.81 205.33 216.224C204.24 217.638 202.763 218.703 201.079 219.289C199.395 219.875 197.578 219.957 195.848 219.524C194.119 219.091 192.553 218.163 191.341 216.852C190.13 215.541 189.325 213.905 189.026 212.144C188.727 210.382 188.946 208.571 189.657 206.932C190.368 205.294 191.539 203.898 193.028 202.916C194.517 201.934 196.259 201.408 198.042 201.402C199.067 201.396 200.085 201.566 201.053 201.905L202.977 198.634C201.415 197.978 199.736 197.645 198.042 197.656C195.512 197.654 193.037 198.396 190.923 199.789C188.81 201.183 187.15 203.167 186.149 205.496C185.148 207.826 184.851 210.398 185.293 212.895C185.735 215.392 186.898 217.705 188.637 219.547C190.376 221.388 192.616 222.678 195.079 223.257C197.542 223.836 200.12 223.679 202.495 222.804C204.869 221.929 206.936 220.376 208.439 218.336C209.942 216.296 210.816 213.859 210.953 211.327H207.216ZM212.458 201.206L200.774 214.989C200.668 215.118 200.535 215.223 200.384 215.297C200.095 215.461 199.768 215.548 199.436 215.548C199.095 215.55 198.759 215.464 198.461 215.297C198.163 215.131 197.913 214.89 197.735 214.598L193.217 209.006C192.961 208.547 192.891 208.006 193.022 207.497C193.162 206.999 193.493 206.577 193.943 206.322C194.17 206.181 194.424 206.088 194.689 206.046C194.954 206.005 195.224 206.018 195.484 206.083C195.744 206.148 195.988 206.264 196.202 206.426C196.416 206.587 196.596 206.789 196.731 207.021L199.91 210.74L209.977 198.495C210.224 198.179 210.562 197.947 210.946 197.831C211.329 197.714 211.739 197.719 212.12 197.844C212.5 197.969 212.833 198.209 213.073 198.53C213.314 198.852 213.449 199.239 213.462 199.641C213.289 200.242 212.939 200.778 212.458 201.178V201.206Z" fill="#F6F6FF"/>
<path d="M401.66 238.697H178.717V275.852H401.66V238.697Z" fill="#EAEAFE"/>
<path d="M253.003 247.783H224.672V251.193H253.003V247.783Z" fill="#FEFFFE"/>
<path d="M253.003 255.443H224.672V258.854H253.003V255.443Z" fill="#FEFFFE"/>
<path d="M247.12 262.237H224.672V265.647H247.12V262.237Z" fill="#FEFFFE"/>
<path d="M264.994 269.17V246.665H263.962V269.17H264.994Z" fill="#FEFFFE"/>
<path d="M373.439 247.783H276.621V251.193H373.439V247.783Z" fill="#FEFFFE"/>
<path d="M373.439 255.443H276.621V258.854H373.439V255.443Z" fill="#FEFFFE"/>
<path d="M353.334 262.237H276.621V265.647H353.334V262.237Z" fill="#FEFFFE"/>
<path d="M207.216 257.875C207.075 259.657 206.42 261.358 205.33 262.772C204.24 264.186 202.763 265.251 201.079 265.837C199.395 266.424 197.578 266.505 195.848 266.072C194.119 265.64 192.553 264.711 191.341 263.4C190.13 262.09 189.325 260.454 189.026 258.692C188.727 256.93 188.946 255.12 189.657 253.481C190.368 251.842 191.539 250.446 193.028 249.464C194.517 248.482 196.259 247.956 198.042 247.951C199.067 247.945 200.085 248.115 201.053 248.454L202.977 245.183C201.411 244.539 199.735 244.207 198.042 244.204C195.512 244.203 193.037 244.944 190.923 246.338C188.81 247.731 187.15 249.715 186.149 252.045C185.148 254.374 184.851 256.947 185.293 259.444C185.735 261.941 186.898 264.253 188.637 266.095C190.376 267.937 192.616 269.227 195.079 269.806C197.542 270.385 200.12 270.227 202.495 269.353C204.869 268.478 206.936 266.925 208.439 264.885C209.942 262.845 210.816 260.408 210.953 257.875H207.216ZM212.458 247.755L200.774 261.566C200.67 261.704 200.537 261.819 200.384 261.901C200.095 262.066 199.768 262.152 199.436 262.153C199.096 262.149 198.762 262.061 198.465 261.895C198.168 261.729 197.917 261.49 197.735 261.202L193.217 255.611C192.961 255.152 192.891 254.611 193.022 254.101C193.162 253.603 193.493 253.181 193.943 252.927C194.169 252.782 194.423 252.685 194.689 252.642C194.954 252.598 195.226 252.61 195.487 252.675C195.748 252.741 195.993 252.859 196.206 253.022C196.42 253.185 196.599 253.391 196.731 253.626L199.91 257.344L209.977 245.099C210.16 244.85 210.4 244.65 210.676 244.513C210.953 244.377 211.258 244.309 211.566 244.316C211.817 244.316 212.066 244.366 212.298 244.463C212.53 244.561 212.74 244.703 212.917 244.883C213.093 245.062 213.232 245.275 213.326 245.509C213.42 245.743 213.466 245.993 213.462 246.245C213.29 246.84 212.939 247.367 212.458 247.755Z" fill="#FEFFFE"/>
<path d="M410.89 115.211H114.219V132.013H410.89V115.211Z" fill="#FA8617"/>
<path d="M137.864 127.176C140.282 127.176 142.242 125.211 142.242 122.787C142.242 120.363 140.282 118.398 137.864 118.398C135.446 118.398 133.486 120.363 133.486 122.787C133.486 125.211 135.446 127.176 137.864 127.176Z" fill="#FEFFFE"/>
<path d="M150.44 127.176C152.858 127.176 154.818 125.211 154.818 122.787C154.818 120.363 152.858 118.398 150.44 118.398C148.023 118.398 146.062 120.363 146.062 122.787C146.062 125.211 148.023 127.176 150.44 127.176Z" fill="#FEFFFE"/>
<path d="M162.237 127.176C164.655 127.176 166.615 125.211 166.615 122.787C166.615 120.363 164.655 118.398 162.237 118.398C159.819 118.398 157.859 120.363 157.859 122.787C157.859 125.211 159.819 127.176 162.237 127.176Z" fill="#FEFFFE"/>
<path d="M466.94 123.849C472.778 123.866 478.49 122.145 483.353 118.905C488.216 115.665 492.01 111.052 494.256 105.648C496.502 100.245 497.098 94.2953 495.969 88.5521C494.84 82.8089 492.037 77.5306 487.914 73.3856C483.792 69.2406 478.535 66.4152 472.81 65.2671C467.085 64.119 461.148 64.6998 455.752 66.936C450.357 69.1723 445.744 72.9634 442.499 77.8294C439.253 82.6953 437.521 88.4173 437.521 94.2709C437.521 102.101 440.617 109.612 446.132 115.157C451.647 120.701 459.13 123.827 466.94 123.849ZM466.94 78.3635C470.087 78.3524 473.166 79.2782 475.788 81.0238C478.41 82.7693 480.456 85.2558 481.667 88.1683C482.877 91.0807 483.199 94.288 482.589 97.3836C481.98 100.479 480.468 103.324 478.244 105.557C476.021 107.79 473.186 109.311 470.1 109.927C467.013 110.544 463.813 110.227 460.906 109.019C457.999 107.81 455.515 105.763 453.77 103.138C452.024 100.512 451.095 97.4262 451.101 94.2709C451.101 90.0568 452.769 86.015 455.738 83.0325C458.708 80.0501 462.736 78.3709 466.94 78.3635ZM466.94 144.677C476.867 144.677 486.571 141.726 494.826 136.197C503.08 130.667 509.513 122.808 513.312 113.612C517.111 104.417 518.105 94.299 516.169 84.5374C514.232 74.7758 509.452 65.8091 502.432 58.7714C495.412 51.7336 486.468 46.9409 476.732 44.9992C466.995 43.0575 456.903 44.054 447.731 47.8628C438.56 51.6716 430.721 58.1216 425.205 66.3971C419.69 74.6726 416.746 84.4019 416.746 94.3548C416.746 100.963 418.044 107.507 420.567 113.612C423.089 119.718 426.786 125.265 431.447 129.938C436.108 134.611 441.642 138.318 447.731 140.847C453.821 143.376 460.348 144.677 466.94 144.677ZM466.94 58.5978C474.024 58.5702 480.957 60.6517 486.86 64.5786C492.763 68.5056 497.37 74.1011 500.098 80.656C502.825 87.211 503.55 94.4302 502.181 101.399C500.812 108.367 497.41 114.772 492.407 119.8C487.403 124.828 481.023 128.253 474.076 129.643C467.128 131.032 459.926 130.321 453.382 127.602C446.837 124.883 441.245 120.277 437.314 114.368C433.384 108.459 431.291 101.513 431.302 94.4107C431.302 84.9271 435.054 75.8306 441.735 69.1168C448.416 62.403 457.48 58.62 466.94 58.5978ZM466.94 104.671C464.927 104.671 462.959 104.072 461.285 102.951C459.611 101.83 458.307 100.236 457.536 98.3717C456.766 96.5071 456.564 94.4553 456.957 92.4759C457.35 90.4965 458.319 88.6782 459.743 87.2511C461.166 85.824 462.98 84.8522 464.954 84.4584C466.928 84.0647 468.975 84.2668 470.835 85.0391C472.694 85.8115 474.284 87.1194 475.402 88.7975C476.521 90.4755 477.118 92.4484 477.118 94.4667C477.074 97.1464 475.983 99.702 474.08 101.584C472.177 103.466 469.613 104.524 466.94 104.531V104.671Z" fill="#EAEAFE"/>
<path d="M460.581 149.235V174.675C460.524 175.527 460.642 176.382 460.928 177.186C461.214 177.991 461.662 178.727 462.244 179.351C462.825 179.975 463.529 180.472 464.31 180.812C465.091 181.152 465.934 181.327 466.785 181.327C467.637 181.327 468.48 181.152 469.261 180.812C470.042 180.472 470.746 179.975 471.327 179.351C471.909 178.727 472.357 177.991 472.643 177.186C472.929 176.382 473.047 175.527 472.99 174.675V149.514C468.888 150.384 464.64 150.289 460.581 149.235ZM448.06 146.802C446.344 146.054 444.668 145.214 443.041 144.286L439.834 142.441L424.497 175.402C424.028 176.362 423.807 177.425 423.856 178.492C423.906 179.56 424.223 180.598 424.78 181.51C425.336 182.422 426.113 183.178 427.039 183.709C427.964 184.239 429.008 184.526 430.074 184.544C431.331 184.545 432.563 184.198 433.635 183.542C434.708 182.886 435.579 181.946 436.153 180.826L451.407 148.228L448.144 146.83C448.113 146.843 448.08 146.85 448.047 146.85C448.013 146.85 447.98 146.843 447.949 146.83L448.06 146.802ZM493.012 143.252L489.86 144.929C488.494 145.656 487.239 146.271 485.984 146.802L485.287 147.082L484.869 147.222L481.495 148.591L496.469 180.882C496.962 181.987 497.765 182.924 498.78 183.58C499.795 184.235 500.978 184.58 502.186 184.572C503.148 184.59 504.101 184.39 504.974 183.985C506.507 183.252 507.689 181.942 508.264 180.34C508.838 178.738 508.758 176.974 508.042 175.43L493.123 143.252H493.012Z" fill="#EAEAFE"/>
<path d="M482.718 83.6409L471.127 90.9727L478.466 79.3445L478.761 78.8768L478.522 78.3783C477.54 76.3317 477.214 74.0305 477.59 71.7907C477.965 69.5518 479.022 67.4846 480.616 65.8728C480.616 65.8722 480.617 65.8716 480.618 65.871L511.28 35.1301C512.907 33.5795 514.961 32.5533 517.175 32.1833C519.393 31.8127 521.671 32.1176 523.714 33.0588L524.348 33.3507L524.841 32.8567L528.661 29.0266L529.362 28.3234L528.664 27.6172L525.607 24.5261L523.217 13.3768L535.229 1.30757L560.449 26.778L548.386 38.7955L537.131 36.1895L534.238 33.2895L533.533 32.5823L532.825 33.2869L529.004 37.0891L528.502 37.5892L528.807 38.2289C529.786 40.2766 530.109 42.5775 529.734 44.8169C529.359 47.0553 528.304 49.1227 526.713 50.7368C526.712 50.7375 526.712 50.7381 526.711 50.7388L496.041 81.4874L496.037 81.4914C495.037 82.5062 493.845 83.3114 492.531 83.8601C491.217 84.4089 489.808 84.6903 488.385 84.6882L488.381 84.6882C486.757 84.6921 485.154 84.3165 483.699 83.5911L483.195 83.3396L482.718 83.6409ZM532.213 24.0551L532.921 24.7553L533.625 24.0503L541.99 15.6632L542.695 14.957L541.99 14.2508L535.855 8.10027L535.147 7.39044L534.439 8.10027L528.862 13.6917L528.491 14.0638L528.587 14.5805L529.87 21.4859L529.927 21.7939L530.15 22.0142L532.213 24.0551ZM547.298 33.3535L547.827 33.4627L548.209 33.0804L553.897 27.3772L554.6 26.6726L553.899 25.9664L547.736 19.7599L547.028 19.0469L546.319 19.7583L537.953 28.1454L537.239 28.8607L537.962 29.5668L540.165 31.7195L540.375 31.9244L540.662 31.9837L547.298 33.3535Z" stroke="#FA8617" stroke-width="2"/>
<path d="M443.6 249.74C448.867 249.74 454.015 251.306 458.395 254.239C462.774 257.173 466.187 261.343 468.203 266.221C470.219 271.1 470.746 276.468 469.718 281.647C468.691 286.826 466.154 291.584 462.43 295.318C458.706 299.052 453.961 301.594 448.795 302.624C443.629 303.655 438.275 303.126 433.409 301.105C428.542 299.084 424.383 295.662 421.457 291.272C418.531 286.881 416.969 281.719 416.969 276.439C416.976 269.36 419.785 262.573 424.777 257.568C429.77 252.562 436.539 249.747 443.6 249.74ZM443.6 241.353C436.678 241.353 429.912 243.41 424.157 247.266C418.402 251.121 413.916 256.601 411.267 263.012C408.619 269.423 407.926 276.477 409.276 283.284C410.626 290.09 413.959 296.341 418.854 301.248C423.748 306.155 429.984 309.497 436.772 310.85C443.561 312.204 450.597 311.509 456.992 308.854C463.387 306.198 468.852 301.701 472.698 295.931C476.543 290.161 478.596 283.378 478.596 276.439C478.596 267.133 474.909 258.209 468.345 251.629C461.782 245.049 452.881 241.353 443.6 241.353Z" fill="#EAEAFE"/>
<path d="M38.4382 356.756L56.4402 338.729L58.0398 340.328L61.8992 336.469C53.7234 326.389 48.823 313.566 48.823 299.602C48.823 267.229 75.0515 241 107.425 241C139.798 241 166.001 267.229 166.001 299.576C166.001 331.924 139.772 358.178 107.425 358.178C93.4343 358.178 80.5867 353.277 70.532 345.102L66.6726 348.961L68.2468 350.535L50.2449 368.562C48.6199 370.187 46.4871 371 44.3543 371C42.2214 371 40.0886 370.187 38.4636 368.562C35.1882 365.287 35.1882 360.006 38.4382 356.756ZM107.425 350.027C135.278 350.027 157.876 327.43 157.876 299.576C157.876 271.723 135.278 249.125 107.425 249.125C79.5711 249.125 56.9734 271.723 56.9734 299.576C56.9734 327.43 79.5457 350.027 107.425 350.027Z" fill="#FA8617"/>
<path d="M443.6 241.353V249.74C448.867 249.74 454.015 251.306 458.395 254.239C462.774 257.173 466.187 261.343 468.203 266.221C470.219 271.1 470.746 276.468 469.718 281.647C468.691 286.826 466.154 291.584 462.43 295.318C458.706 299.052 453.961 301.594 448.795 302.624C443.629 303.655 438.275 303.126 433.409 301.105C428.542 299.084 424.383 295.662 421.457 291.272C418.531 286.881 416.969 281.719 416.969 276.439H408.604C408.604 283.378 410.656 290.161 414.501 295.931C418.347 301.701 423.813 306.198 430.207 308.854C436.602 311.509 443.638 312.204 450.427 310.85C457.215 309.497 463.451 306.155 468.345 301.248C473.24 296.341 476.573 290.09 477.923 283.284C479.273 276.477 478.581 269.423 475.932 263.012C473.283 256.601 468.797 251.121 463.042 247.266C457.287 243.41 450.521 241.353 443.6 241.353Z" fill="#FA8617"/>
</g>
<defs>
<clipPath id="clip0_606_19699">
<rect width="562" height="377" fill="white"/>
</clipPath>
</defs>
</svg>
