<svg width="1920" height="718" viewBox="0 0 1920 718" fill="none" xmlns="http://www.w3.org/2000/svg">
<g clip-path="url(#clip0_514_434)">
<path d="M1920 612.022C1920 626.25 1501.53 485.71 1312.17 500.964C1052.65 521.853 1129.83 618.116 807.357 633.418C709.169 638.076 580.179 544.455 475.229 550.248C395.1 554.665 337.838 646.21 271.095 663.43C122.475 701.769 1.06548 678.515 1.06548 678.515L0 450.823C59.9535 474.946 100.291 472.75 147.76 428.003C186.936 391.088 305.3 439.214 344.435 402.154C375.266 372.962 298.907 269.506 340.105 230.721C401.343 173.062 487.004 231.674 524.938 180.435C558.733 134.808 502.713 127.277 507.726 64.6463C509.693 39.9439 520.239 17.305 536.972 0H1920C1920 0 1920 557.73 1920 612.022Z" fill="#FA8617"/>
<path d="M1919.89 644.834C1913.17 656.467 1499.99 518.329 1312.17 533.462C1052.65 554.351 1129.83 650.614 807.344 665.916C709.157 670.574 580.166 576.954 475.217 582.746C395.087 587.163 337.825 678.708 271.082 695.928C122.462 734.267 1.05273 711.013 1.05273 711.013V703.772C1.05273 703.772 122.462 727.027 271.082 688.688C337.825 671.467 395.087 579.922 475.217 575.505C580.166 569.713 709.157 663.334 807.344 658.676C1129.83 643.374 1052.65 547.11 1312.17 526.221C1499.71 511.113 1911.98 648.828 1919.85 637.642C1919.86 640.152 1919.88 642.553 1919.89 644.834Z" fill="#FA8617"/>
<path opacity="0.33" d="M1226.7 111.2C1231.1 113 1235.9 114 1241 114C1262 114 1279 97 1279 76C1279 55 1262 38 1241 38C1220 38 1203 55 1203 76C1203 83 1204.9 89.5 1208.2 95.1L1123.7 187.3C1118.9 185.1 1113.4 183.8 1107.8 183.8C1099.5 183.8 1091.9 186.5 1085.6 191L995.9 129.3C996.6 126.2 997.1 123 997.1 119.8C997.1 98.8 980.1 81.8 959.1 81.8C938.1 81.8 921.1 98.8 921.1 119.8C921.1 124.2 921.8 128.5 923.2 132.4L842 218.1C837.2 215.9 831.8 214.6 826.1 214.6C805.1 214.6 788.1 231.6 788.1 252.6C788.1 273.6 805.1 290.6 826.1 290.6C847.1 290.6 864.1 273.6 864.1 252.6C864.1 246.2 862.5 240.2 859.7 234.9L938.6 151.7C944.5 155.5 951.6 157.8 959.1 157.8C968 157.8 976.1 154.8 982.5 149.8L1071.5 211C1070.5 214.5 1069.9 218.1 1069.9 221.9C1069.9 242.9 1086.9 259.9 1107.9 259.9C1128.9 259.9 1145.9 242.9 1145.9 221.9C1145.9 215.6 1144.3 209.6 1141.5 204.3L1226.7 111.2ZM1240.9 67.9C1245.4 67.9 1249 71.5 1249 76C1249 80.5 1245.4 84.1 1240.9 84.1C1236.4 84.1 1232.8 80.5 1232.8 76C1232.9 71.5 1236.6 67.9 1240.9 67.9ZM826.1 260.6C821.6 260.6 818 257 818 252.5C818 248 821.6 244.4 826.1 244.4C830.6 244.4 834.2 248 834.2 252.5C834.1 257 830.4 260.6 826.1 260.6ZM959 127.9C954.5 127.9 950.9 124.3 950.9 119.8C950.9 115.3 954.5 111.7 959 111.7C963.5 111.7 967.1 115.3 967.1 119.8C967.1 124.2 963.5 127.9 959 127.9ZM1107.8 229.9C1103.3 229.9 1099.7 226.3 1099.7 221.8C1099.7 217.3 1103.3 213.7 1107.8 213.7C1112.3 213.7 1115.9 217.3 1115.9 221.8C1115.9 226.3 1112.3 229.9 1107.8 229.9ZM1279 486H1249.2V195.9H1279V486ZM1122.1 486H1092.3V325.6H1122.1V486ZM977.7 486H947.9V239.3H977.7V486ZM817.9 486H788V373.3H817.8V486H817.9Z" fill="white"/>
</g>
<defs>
<clipPath id="clip0_514_434">
<rect width="1920" height="718" fill="white"/>
</clipPath>
</defs>
</svg>
