<svg width="512" height="512" viewBox="0 0 512 512" fill="none" xmlns="http://www.w3.org/2000/svg">
<g clip-path="url(#clip0_606_18928)">
<path d="M336.162 92.9174C336.317 85.5735 330.624 79.4972 323.446 79.3457C316.267 79.1942 310.322 85.0247 310.167 92.3687C310.012 99.7126 315.706 105.789 322.884 105.94C330.062 106.092 336.007 100.261 336.162 92.9174Z" fill="#E1E2FE" fill-opacity="0.3"/>
<path d="M102.6 93C102.8 96.8 105.9 99.7 109.7 99.5C113.4 99.3 116.3 96.1 116.1 92.3C115.9 88.5 112.8 85.6 109 85.8C105.3 86 102.4 89.2 102.6 93Z" fill="#E1E2FE" fill-opacity="0.3"/>
<path d="M489.099 248C489.199 250.5 491.299 252.4 493.799 252.3C496.299 252.2 498.099 250 497.999 247.5C497.899 245 495.799 243.1 493.299 243.2C490.899 243.4 488.999 245.5 489.099 248Z" fill="#E1E2FE" fill-opacity="0.3"/>
<path d="M468.345 476.815C468.587 465.274 459.606 455.727 448.287 455.49C436.967 455.253 427.595 464.416 427.353 475.956C427.112 487.497 436.092 497.044 447.412 497.281C458.731 497.518 468.104 488.355 468.345 476.815Z" fill="#E1E2FE" fill-opacity="0.3"/>
<path opacity="0.58" d="M401.1 482.4C403.585 482.4 405.6 480.385 405.6 477.9C405.6 475.415 403.585 473.4 401.1 473.4C398.614 473.4 396.6 475.415 396.6 477.9C396.6 480.385 398.614 482.4 401.1 482.4Z" fill="#3E479B"/>
<path opacity="0.58" d="M287.2 84.7999C288.415 84.7999 289.4 83.8149 289.4 82.5999C289.4 81.3849 288.415 80.3999 287.2 80.3999C285.985 80.3999 285 81.3849 285 82.5999C285 83.8149 285.985 84.7999 287.2 84.7999Z" fill="#3E479B"/>
<path opacity="0.58" d="M24.5 376C26.9853 376 29 373.985 29 371.5C29 369.015 26.9853 367 24.5 367C22.0147 367 20 369.015 20 371.5C20 373.985 22.0147 376 24.5 376Z" fill="#FA8617"/>
<path opacity="0.58" d="M419.4 512.5C421.333 512.5 422.9 510.933 422.9 509C422.9 507.067 421.333 505.5 419.4 505.5C417.467 505.5 415.9 507.067 415.9 509C415.9 510.933 417.467 512.5 419.4 512.5Z" fill="#FA8617"/>
<path opacity="0.58" d="M75.0996 87.3C75.928 87.3 76.5996 86.6285 76.5996 85.8C76.5996 84.9716 75.928 84.3 75.0996 84.3C74.2712 84.3 73.5996 84.9716 73.5996 85.8C73.5996 86.6285 74.2712 87.3 75.0996 87.3Z" fill="#3E479B"/>
<path opacity="0.58" d="M486.012 128.186C487.364 125.528 486.305 122.277 483.647 120.924C480.989 119.572 477.738 120.631 476.386 123.289C475.034 125.947 476.092 129.198 478.751 130.55C481.409 131.903 484.66 130.844 486.012 128.186Z" fill="#FA8617"/>
<path opacity="0.58" d="M92.0991 71.7999C91.8991 72.8999 90.6991 73.6999 89.5991 73.3999C88.4991 73.1999 87.6991 71.9999 87.9991 70.8999C88.1991 69.7999 89.3991 68.9999 90.4991 69.2999C91.6991 69.4999 92.3991 70.6999 92.0991 71.7999Z" fill="#FA8617"/>
<path opacity="0.58" d="M306.8 65.0001C306.6 66.1001 305.4 66.9001 304.3 66.6001C303.2 66.4001 302.4 65.2001 302.7 64.1001C302.9 63.0001 304.1 62.2001 305.2 62.5001C306.3 62.7001 307 63.8001 306.8 65.0001Z" fill="#FA8617"/>
<path opacity="0.58" d="M455.601 131.5C455.401 132.5 454.401 133.1 453.501 132.9C452.501 132.7 451.901 131.7 452.101 130.8C452.301 129.8 453.301 129.2 454.201 129.4C455.201 129.6 455.901 130.5 455.601 131.5Z" fill="#3E479B"/>
<path opacity="0.58" d="M58.1008 441.9C57.9008 442.9 56.9008 443.5 56.0008 443.3C55.0008 443.1 54.4008 442.1 54.6008 441.2C54.8008 440.2 55.8008 439.6 56.7008 439.8C57.7008 440 58.3008 440.9 58.1008 441.9Z" fill="#FA8617"/>
<path d="M292.299 177.1C287.799 173.5 287.099 166.9 290.699 162.4L382.699 47.3002C386.299 42.8002 392.899 42.1002 397.399 45.7002C401.899 49.3002 402.599 55.9002 398.999 60.4002L306.999 175.5C303.399 180 296.799 180.7 292.299 177.1Z" fill="#F5851F"/>
<circle cx="251" cy="248" r="141" fill="white"/>
<path d="M385.2 192.3C377.5 174.3 367.2 158.8 354.2 145.9C341.2 132.9 325.7 122.6 307.8 114.9C289.8 107.2 271 103.4 251.3 103.4C231.6 103.4 212.8 107.3 194.8 114.9C176.8 122.5 161.3 132.9 148.4 145.9C135.4 158.9 125 174.4 117.4 192.3C109.8 210.2 105.9 229.1 105.9 248.8C105.9 268.5 109.8 287.3 117.4 305.3C125 323.3 135.4 338.8 148.4 351.7C161.4 364.7 176.9 375 194.8 382.7C212.8 390.4 231.6 394.2 251.3 394.2C271 394.2 289.8 390.3 307.8 382.7C325.8 375 341.3 364.7 354.2 351.7C367.2 338.7 377.5 323.2 385.2 305.3C392.9 287.3 396.7 268.5 396.7 248.8C396.8 229.1 392.9 210.3 385.2 192.3ZM379.1 302.7C371.7 319.9 361.9 334.7 349.5 347C337.1 359.4 322.3 369.3 305.2 376.6C288 384 270.1 387.6 251.4 387.6C232.6 387.6 214.7 383.9 197.6 376.6C180.4 369.2 165.6 359.4 153.3 347C140.9 334.6 131 319.8 123.7 302.7C116.3 285.5 112.7 267.6 112.7 248.9C112.7 230.1 116.4 212.2 123.7 195.1C131.1 177.9 140.9 163.1 153.3 150.8C165.7 138.4 180.5 128.5 197.6 121.2C214.7 113.8 232.6 110.1 251.4 110.1C270.2 110.1 288.1 113.8 305.2 121.1C322.4 128.5 337.2 138.3 349.5 150.7C361.9 163.1 371.8 177.9 379.1 195C386.4 212.2 390.1 230.1 390.1 248.8C390.1 267.6 386.4 285.5 379.1 302.7ZM126.3 248.9C126.3 273.3 132.7 295.5 145.6 315.6C158.5 335.7 175.6 351 196.8 361.3L137.2 198C130 214.2 126.3 231.2 126.3 248.9ZM361.7 201.7C361.7 213.3 358.5 228.3 352.1 246.6L314 356.7C332.9 345.7 348.1 330.6 359.3 311.4C370.6 292.3 376.2 271.4 376.2 248.8C376.2 227.7 371.1 207.7 360.8 188.9C361.4 192.9 361.7 197.2 361.7 201.7ZM253.3 259.7L216 368.6C239.7 376.3 270.4 374.9 292.7 366.6C292.5 366 253.3 259.7 253.3 259.7ZM333.5 256.8C335 251.1 335.5 244.6 335.5 242.5C335.5 210.2 312.9 199.5 312.9 178.8C312.9 167.5 320.7 156.7 333.9 156.7H335.5C324.1 146.3 296 124 251.1 124C202 124 166.7 151.5 146.8 180.3C150.3 180.9 188.1 178.8 188.1 178.8C194.5 178.1 196.1 188.4 188.9 189.1C184.4 189.7 179.6 190.1 174.6 190.4L220.1 325.5L247.4 243.6L228 190.4L215 189.1C207.6 188.4 209.4 178 215.8 178.9C229.6 179.9 240.5 180.4 248.6 180.5L281.9 178.9C288.5 178.3 289.5 188.5 282.7 189.2C278.2 189.8 273.4 190.2 268.4 190.5L313.5 324.7C313.6 324.6 332.6 260 333.5 256.8Z" fill="#C9D7FD"/>
<path d="M439.4 215.8C461.768 215.8 479.9 197.668 479.9 175.3C479.9 152.933 461.768 134.8 439.4 134.8C417.033 134.8 398.9 152.933 398.9 175.3C398.9 197.668 417.033 215.8 439.4 215.8Z" fill="white"/>
<path opacity="0.47" d="M439.4 215.8C461.768 215.8 479.9 197.668 479.9 175.3C479.9 152.933 461.768 134.8 439.4 134.8C417.033 134.8 398.9 152.933 398.9 175.3C398.9 197.668 417.033 215.8 439.4 215.8Z" stroke="#F5851F" stroke-miterlimit="10"/>
<path d="M83.9726 315.622C88.1887 297.549 76.9559 279.481 58.8835 275.265C40.811 271.049 22.7426 282.281 18.5265 300.354C14.3104 318.426 25.5432 336.495 43.6156 340.711C61.6881 344.927 79.7565 333.694 83.9726 315.622Z" fill="white"/>
<path d="M83.9726 315.622C88.1887 297.549 76.9559 279.481 58.8835 275.265C40.811 271.049 22.7426 282.281 18.5265 300.354C14.3104 318.426 25.5432 336.495 43.6156 340.711C61.6881 344.927 79.7565 333.694 83.9726 315.622Z" stroke="#F5851F" stroke-miterlimit="10"/>
<g opacity="0.15">
<path d="M233.898 335.2V340.5" stroke="#2D293A" stroke-width="0.5" stroke-miterlimit="10" stroke-linecap="round"/>
<path d="M236.599 337.9H231.299" stroke="#2D293A" stroke-width="0.5" stroke-miterlimit="10" stroke-linecap="round"/>
<path d="M267.098 335.2V340.5" stroke="#2D293A" stroke-width="0.5" stroke-miterlimit="10" stroke-linecap="round"/>
<path d="M269.798 337.9H264.498" stroke="#2D293A" stroke-width="0.5" stroke-miterlimit="10" stroke-linecap="round"/>
<path d="M300.398 335.2V340.5" stroke="#2D293A" stroke-width="0.5" stroke-miterlimit="10" stroke-linecap="round"/>
<path d="M302.999 337.9H297.699" stroke="#2D293A" stroke-width="0.5" stroke-miterlimit="10" stroke-linecap="round"/>
<path d="M333.598 335.2V340.5" stroke="#2D293A" stroke-width="0.5" stroke-miterlimit="10" stroke-linecap="round"/>
<path d="M336.198 337.9H330.898" stroke="#2D293A" stroke-width="0.5" stroke-miterlimit="10" stroke-linecap="round"/>
<path d="M366.799 335.2V340.5" stroke="#2D293A" stroke-width="0.5" stroke-miterlimit="10" stroke-linecap="round"/>
<path d="M369.4 337.9H364.1" stroke="#2D293A" stroke-width="0.5" stroke-miterlimit="10" stroke-linecap="round"/>
<path d="M399.998 335.2V340.5" stroke="#2D293A" stroke-width="0.5" stroke-miterlimit="10" stroke-linecap="round"/>
<path d="M402.599 337.9H397.299" stroke="#2D293A" stroke-width="0.5" stroke-miterlimit="10" stroke-linecap="round"/>
<path d="M433.197 335.2V340.5" stroke="#2D293A" stroke-width="0.5" stroke-miterlimit="10" stroke-linecap="round"/>
<path d="M435.798 337.9H430.498" stroke="#2D293A" stroke-width="0.5" stroke-miterlimit="10" stroke-linecap="round"/>
<path d="M233.898 362.8V368.1" stroke="#2D293A" stroke-width="0.5" stroke-miterlimit="10" stroke-linecap="round"/>
<path d="M236.599 365.4H231.299" stroke="#2D293A" stroke-width="0.5" stroke-miterlimit="10" stroke-linecap="round"/>
<path d="M267.098 362.8V368.1" stroke="#2D293A" stroke-width="0.5" stroke-miterlimit="10" stroke-linecap="round"/>
<path d="M269.798 365.4H264.498" stroke="#2D293A" stroke-width="0.5" stroke-miterlimit="10" stroke-linecap="round"/>
<path d="M300.398 362.8V368.1" stroke="#2D293A" stroke-width="0.5" stroke-miterlimit="10" stroke-linecap="round"/>
<path d="M302.999 365.4H297.699" stroke="#2D293A" stroke-width="0.5" stroke-miterlimit="10" stroke-linecap="round"/>
<path d="M333.598 362.8V368.1" stroke="#2D293A" stroke-width="0.5" stroke-miterlimit="10" stroke-linecap="round"/>
<path d="M336.198 365.4H330.898" stroke="#2D293A" stroke-width="0.5" stroke-miterlimit="10" stroke-linecap="round"/>
<path d="M366.799 362.8V368.1" stroke="#2D293A" stroke-width="0.5" stroke-miterlimit="10" stroke-linecap="round"/>
<path d="M369.4 365.4H364.1" stroke="#2D293A" stroke-width="0.5" stroke-miterlimit="10" stroke-linecap="round"/>
<path d="M399.998 362.8V368.1" stroke="#2D293A" stroke-width="0.5" stroke-miterlimit="10" stroke-linecap="round"/>
<path d="M402.599 365.4H397.299" stroke="#2D293A" stroke-width="0.5" stroke-miterlimit="10" stroke-linecap="round"/>
<path d="M433.197 362.8V368.1" stroke="#2D293A" stroke-width="0.5" stroke-miterlimit="10" stroke-linecap="round"/>
<path d="M435.798 365.4H430.498" stroke="#2D293A" stroke-width="0.5" stroke-miterlimit="10" stroke-linecap="round"/>
<path d="M233.898 390.4V395.7" stroke="#2D293A" stroke-width="0.5" stroke-miterlimit="10" stroke-linecap="round"/>
<path d="M236.599 393H231.299" stroke="#2D293A" stroke-width="0.5" stroke-miterlimit="10" stroke-linecap="round"/>
<path d="M267.098 390.4V395.7" stroke="#2D293A" stroke-width="0.5" stroke-miterlimit="10" stroke-linecap="round"/>
<path d="M269.798 393H264.498" stroke="#2D293A" stroke-width="0.5" stroke-miterlimit="10" stroke-linecap="round"/>
<path d="M300.398 390.4V395.7" stroke="#2D293A" stroke-width="0.5" stroke-miterlimit="10" stroke-linecap="round"/>
<path d="M302.999 393H297.699" stroke="#2D293A" stroke-width="0.5" stroke-miterlimit="10" stroke-linecap="round"/>
<path d="M333.598 390.4V395.7" stroke="#2D293A" stroke-width="0.5" stroke-miterlimit="10" stroke-linecap="round"/>
<path d="M336.198 393H330.898" stroke="#2D293A" stroke-width="0.5" stroke-miterlimit="10" stroke-linecap="round"/>
<path d="M366.799 390.4V395.7" stroke="#2D293A" stroke-width="0.5" stroke-miterlimit="10" stroke-linecap="round"/>
<path d="M369.4 393H364.1" stroke="#2D293A" stroke-width="0.5" stroke-miterlimit="10" stroke-linecap="round"/>
<path d="M399.998 390.4V395.7" stroke="#2D293A" stroke-width="0.5" stroke-miterlimit="10" stroke-linecap="round"/>
<path d="M402.599 393H397.299" stroke="#2D293A" stroke-width="0.5" stroke-miterlimit="10" stroke-linecap="round"/>
<path d="M433.197 390.4V395.7" stroke="#2D293A" stroke-width="0.5" stroke-miterlimit="10" stroke-linecap="round"/>
<path d="M435.798 393H430.498" stroke="#2D293A" stroke-width="0.5" stroke-miterlimit="10" stroke-linecap="round"/>
<path d="M233.898 418V423.2" stroke="#2D293A" stroke-width="0.5" stroke-miterlimit="10" stroke-linecap="round"/>
<path d="M236.599 420.6H231.299" stroke="#2D293A" stroke-width="0.5" stroke-miterlimit="10" stroke-linecap="round"/>
<path d="M267.098 418V423.2" stroke="#2D293A" stroke-width="0.5" stroke-miterlimit="10" stroke-linecap="round"/>
<path d="M269.798 420.6H264.498" stroke="#2D293A" stroke-width="0.5" stroke-miterlimit="10" stroke-linecap="round"/>
<path d="M300.398 418V423.2" stroke="#2D293A" stroke-width="0.5" stroke-miterlimit="10" stroke-linecap="round"/>
<path d="M302.999 420.6H297.699" stroke="#2D293A" stroke-width="0.5" stroke-miterlimit="10" stroke-linecap="round"/>
<path d="M333.598 418V423.2" stroke="#2D293A" stroke-width="0.5" stroke-miterlimit="10" stroke-linecap="round"/>
<path d="M336.198 420.6H330.898" stroke="#2D293A" stroke-width="0.5" stroke-miterlimit="10" stroke-linecap="round"/>
<path d="M366.799 418V423.2" stroke="#2D293A" stroke-width="0.5" stroke-miterlimit="10" stroke-linecap="round"/>
<path d="M369.4 420.6H364.1" stroke="#2D293A" stroke-width="0.5" stroke-miterlimit="10" stroke-linecap="round"/>
<path d="M399.998 418V423.2" stroke="#2D293A" stroke-width="0.5" stroke-miterlimit="10" stroke-linecap="round"/>
<path d="M402.599 420.6H397.299" stroke="#2D293A" stroke-width="0.5" stroke-miterlimit="10" stroke-linecap="round"/>
<path d="M433.197 418V423.2" stroke="#2D293A" stroke-width="0.5" stroke-miterlimit="10" stroke-linecap="round"/>
<path d="M435.798 420.6H430.498" stroke="#2D293A" stroke-width="0.5" stroke-miterlimit="10" stroke-linecap="round"/>
<path d="M233.898 445.5V450.8" stroke="#2D293A" stroke-width="0.5" stroke-miterlimit="10" stroke-linecap="round"/>
<path d="M236.599 448.2H231.299" stroke="#2D293A" stroke-width="0.5" stroke-miterlimit="10" stroke-linecap="round"/>
<path d="M267.098 445.5V450.8" stroke="#2D293A" stroke-width="0.5" stroke-miterlimit="10" stroke-linecap="round"/>
<path d="M269.798 448.2H264.498" stroke="#2D293A" stroke-width="0.5" stroke-miterlimit="10" stroke-linecap="round"/>
<path d="M300.398 445.5V450.8" stroke="#2D293A" stroke-width="0.5" stroke-miterlimit="10" stroke-linecap="round"/>
<path d="M302.999 448.2H297.699" stroke="#2D293A" stroke-width="0.5" stroke-miterlimit="10" stroke-linecap="round"/>
<path d="M333.598 445.5V450.8" stroke="#2D293A" stroke-width="0.5" stroke-miterlimit="10" stroke-linecap="round"/>
<path d="M336.198 448.2H330.898" stroke="#2D293A" stroke-width="0.5" stroke-miterlimit="10" stroke-linecap="round"/>
<path d="M366.799 445.5V450.8" stroke="#2D293A" stroke-width="0.5" stroke-miterlimit="10" stroke-linecap="round"/>
<path d="M369.4 448.2H364.1" stroke="#2D293A" stroke-width="0.5" stroke-miterlimit="10" stroke-linecap="round"/>
<path d="M399.998 445.5V450.8" stroke="#2D293A" stroke-width="0.5" stroke-miterlimit="10" stroke-linecap="round"/>
<path d="M402.599 448.2H397.299" stroke="#2D293A" stroke-width="0.5" stroke-miterlimit="10" stroke-linecap="round"/>
<path d="M433.197 445.5V450.8" stroke="#2D293A" stroke-width="0.5" stroke-miterlimit="10" stroke-linecap="round"/>
<path d="M435.798 448.2H430.498" stroke="#2D293A" stroke-width="0.5" stroke-miterlimit="10" stroke-linecap="round"/>
<path d="M233.898 473.1V478.4" stroke="#2D293A" stroke-width="0.5" stroke-miterlimit="10" stroke-linecap="round"/>
<path d="M236.599 475.8H231.299" stroke="#2D293A" stroke-width="0.5" stroke-miterlimit="10" stroke-linecap="round"/>
<path d="M267.098 473.1V478.4" stroke="#2D293A" stroke-width="0.5" stroke-miterlimit="10" stroke-linecap="round"/>
<path d="M269.798 475.8H264.498" stroke="#2D293A" stroke-width="0.5" stroke-miterlimit="10" stroke-linecap="round"/>
<path d="M300.398 473.1V478.4" stroke="#2D293A" stroke-width="0.5" stroke-miterlimit="10" stroke-linecap="round"/>
<path d="M302.999 475.8H297.699" stroke="#2D293A" stroke-width="0.5" stroke-miterlimit="10" stroke-linecap="round"/>
<path d="M333.598 473.1V478.4" stroke="#2D293A" stroke-width="0.5" stroke-miterlimit="10" stroke-linecap="round"/>
<path d="M336.198 475.8H330.898" stroke="#2D293A" stroke-width="0.5" stroke-miterlimit="10" stroke-linecap="round"/>
<path d="M366.799 473.1V478.4" stroke="#2D293A" stroke-width="0.5" stroke-miterlimit="10" stroke-linecap="round"/>
<path d="M369.4 475.8H364.1" stroke="#2D293A" stroke-width="0.5" stroke-miterlimit="10" stroke-linecap="round"/>
<path d="M399.998 473.1V478.4" stroke="#2D293A" stroke-width="0.5" stroke-miterlimit="10" stroke-linecap="round"/>
<path d="M402.599 475.8H397.299" stroke="#2D293A" stroke-width="0.5" stroke-miterlimit="10" stroke-linecap="round"/>
<path d="M433.197 473.1V478.4" stroke="#2D293A" stroke-width="0.5" stroke-miterlimit="10" stroke-linecap="round"/>
<path d="M435.798 475.8H430.498" stroke="#2D293A" stroke-width="0.5" stroke-miterlimit="10" stroke-linecap="round"/>
</g>
<g opacity="0.15">
<mask id="mask0_606_18928" style="mask-type:alpha" maskUnits="userSpaceOnUse" x="50" y="78" width="130" height="131">
<path d="M177.847 159.225C186.465 124.547 165.34 89.4471 130.661 80.8284C95.9821 72.2096 60.8826 93.3354 52.2638 128.014C43.6451 162.693 64.7709 197.792 99.4496 206.411C134.128 215.03 169.228 193.904 177.847 159.225Z" fill="white"/>
</mask>
<g mask="url(#mask0_606_18928)">
<path d="M179.8 77.3H46V211.1H179.8V77.3Z" stroke="#2D293A" stroke-width="0.5" stroke-miterlimit="10"/>
<path d="M46 188.8H179.7" stroke="#2D293A" stroke-width="0.5" stroke-miterlimit="10"/>
<path d="M46 166.5H179.7" stroke="#2D293A" stroke-width="0.5" stroke-miterlimit="10"/>
<path d="M46 144.2H179.7" stroke="#2D293A" stroke-width="0.5" stroke-miterlimit="10"/>
<path d="M46 121.9H179.7" stroke="#2D293A" stroke-width="0.5" stroke-miterlimit="10"/>
<path d="M46 99.6001H179.7" stroke="#2D293A" stroke-width="0.5" stroke-miterlimit="10"/>
<path d="M157.4 77.3V211.1" stroke="#2D293A" stroke-width="0.5" stroke-miterlimit="10"/>
<path d="M135.1 77.3V211.1" stroke="#2D293A" stroke-width="0.5" stroke-miterlimit="10"/>
<path d="M112.9 77.3V211.1" stroke="#2D293A" stroke-width="0.5" stroke-miterlimit="10"/>
<path d="M90.5996 77.3V211.1" stroke="#2D293A" stroke-width="0.5" stroke-miterlimit="10"/>
<path d="M68.3008 77.3V211.1" stroke="#2D293A" stroke-width="0.5" stroke-miterlimit="10"/>
<path d="M177.847 159.225C186.465 124.547 165.34 89.4471 130.661 80.8284C95.9821 72.2096 60.8826 93.3354 52.2638 128.014C43.6451 162.693 64.7709 197.792 99.4496 206.411C134.128 215.03 169.228 193.904 177.847 159.225Z" stroke="#B2B2B2" stroke-width="1.00002" stroke-miterlimit="10"/>
</g>
</g>
<path d="M116.6 147.3C69.8002 210.1 70.7002 285.9 118.9 347.5C123.3 352.5 124 359.7 120 363.8C116 367.9 108.2 366.8 103.2 361.2C48.3002 292 47.3002 204.6 100.5 134.1C105.3 128.3 113.1 127.1 117.2 131.1C121.4 135 120.8 142.2 116.6 147.3Z" fill="white"/>
<path d="M116.6 147.3C69.8002 210.1 70.7002 285.9 118.9 347.5C123.3 352.5 124 359.7 120 363.8C116 367.9 108.2 366.8 103.2 361.2C48.3002 292 47.3002 204.6 100.5 134.1C105.3 128.3 113.1 127.1 117.2 131.1C121.4 135 120.8 142.2 116.6 147.3Z" stroke="#DCE1EC" stroke-miterlimit="10"/>
<path d="M299.7 409.8C374.7 387.2 419.1 325.8 417 247.5C416.5 240.9 420.2 234.7 425.8 233.8C431.4 232.9 437.1 238.4 437.7 245.9C440.6 334.2 389.4 405 304.6 430C297.3 431.8 290.3 428.1 289.4 422.5C288.5 416.8 293.2 411.3 299.7 409.8Z" fill="white"/>
<path d="M299.7 409.8C374.7 387.2 419.1 325.8 417 247.5C416.5 240.9 420.2 234.7 425.8 233.8C431.4 232.9 437.1 238.4 437.7 245.9C440.6 334.2 389.4 405 304.6 430C297.3 431.8 290.3 428.1 289.4 422.5C288.5 416.8 293.2 411.3 299.7 409.8Z" stroke="#DCE1EC" stroke-miterlimit="10"/>
<path d="M273.076 356.995C282.194 353.178 286.492 342.691 282.675 333.573C278.858 324.454 268.372 320.156 259.253 323.973C250.134 327.79 245.836 338.276 249.653 347.395C253.47 356.514 263.957 360.812 273.076 356.995Z" stroke="#F5851F" stroke-miterlimit="10"/>
<path d="M366.499 203.6C369.702 203.6 372.299 201.003 372.299 197.8C372.299 194.597 369.702 192 366.499 192C363.296 192 360.699 194.597 360.699 197.8C360.699 201.003 363.296 203.6 366.499 203.6Z" stroke="#F5851F" stroke-miterlimit="10"/>
<path d="M365.8 415.2C373.366 415.2 379.5 409.066 379.5 401.5C379.5 393.934 373.366 387.8 365.8 387.8C358.233 387.8 352.1 393.934 352.1 401.5C352.1 409.066 358.233 415.2 365.8 415.2Z" fill="#F5851F"/>
<path d="M126.2 241.9C129.68 241.9 132.5 239.079 132.5 235.6C132.5 232.121 129.68 229.3 126.2 229.3C122.721 229.3 119.9 232.121 119.9 235.6C119.9 239.079 122.721 241.9 126.2 241.9Z" fill="#F5851F"/>
<path d="M375.1 133.8C370.6 130.2 369.9 123.6 373.5 119.1L465.5 4.00011C469.1 -0.499888 475.7 -1.19989 480.2 2.40011C484.7 6.00011 485.4 12.6001 481.8 17.1001L389.8 132.2C386.3 136.7 379.6 137.4 375.1 133.8Z" fill="#F5851F"/>
<path d="M57.0001 509.7C52.5001 506.1 51.8001 499.5 55.4001 495L147.4 379.9C151 375.4 157.6 374.7 162.1 378.3C166.6 381.9 167.3 388.5 163.7 393L71.7001 508.1C68.1001 512.6 61.5001 513.3 57.0001 509.7Z" fill="#F5851F"/>
<path d="M118.5 498.4C114 494.8 113.3 488.2 116.9 483.7L208.9 368.6C212.5 364.1 219.1 363.4 223.6 367C228.1 370.6 228.8 377.2 225.2 381.7L133.2 496.8C129.6 501.2 123 502 118.5 498.4Z" fill="#F5851F"/>
<path d="M78.7992 184.2C84.3773 184.2 88.8992 179.678 88.8992 174.1C88.8992 168.522 84.3773 164 78.7992 164C73.2211 164 68.6992 168.522 68.6992 174.1C68.6992 179.678 73.2211 184.2 78.7992 184.2Z" fill="#F5851F"/>
</g>
<defs>
<clipPath id="clip0_606_18928">
<rect width="512" height="512" fill="white"/>
</clipPath>
</defs>
</svg>
