<?xml version="1.0" encoding="utf-8"?>
<!-- Generator: Adobe Illustrator 26.0.0, SVG Export Plug-In . SVG Version: 6.00 Build 0)  -->
<svg version="1.1" id="Layer_1" xmlns="http://www.w3.org/2000/svg" xmlns:xlink="http://www.w3.org/1999/xlink" x="0px" y="0px"
	 viewBox="0 0 35 33" style="enable-background:new 0 0 35 33;" xml:space="preserve">
<style type="text/css">
	.st0{fill:none;stroke:#CACACA;}
	.st1{fill:#FA8617;}
</style>
<path class="st0" d="M18.5,0.5c8.8,0,16,7.2,16,16s-7.2,16-16,16s-16-7.2-16-16"/>
<g>
	<path class="st1" d="M8.4,9.6H6.2C5.5,9.6,5,9,5,8.4V6.2C5,5.5,5.6,5,6.2,5h2.2c0.7,0,1.2,0.6,1.2,1.2v2.2C9.6,9.1,9.1,9.6,8.4,9.6
		z M6.2,5.7c-0.3,0-0.5,0.2-0.5,0.5v2.2c0,0.3,0.2,0.5,0.5,0.5h2.2c0.3,0,0.5-0.2,0.5-0.5V6.2c0-0.3-0.2-0.5-0.5-0.5H6.2z"/>
	<path class="st1" d="M13.7,3.4c0.5,0,0.9-0.4,0.9-0.9V0.9c0-0.5-0.4-0.9-0.9-0.9h-1.6c-0.5,0-0.9,0.4-0.9,0.9v0.4H3.3V0.9
		C3.3,0.4,3,0,2.5,0H0.9C0.4,0,0,0.4,0,0.9v1.6C0,3,0.4,3.4,0.9,3.4h0.4v7.9H0.9c-0.5,0-0.9,0.4-0.9,0.9v1.6c0,0.5,0.4,0.9,0.9,0.9
		h1.6c0.5,0,0.9-0.4,0.9-0.9v-0.4h7.9v0.4c0,0.5,0.4,0.9,0.9,0.9h1.6c0.5,0,0.9-0.4,0.9-0.9v-1.6c0-0.5-0.4-0.9-0.9-0.9h-0.4V3.4
		H13.7z M12,0.9c0-0.1,0.1-0.1,0.1-0.1h1.6c0.1,0,0.1,0.1,0.1,0.1v1.6c0,0.1-0.1,0.1-0.1,0.1h-1.6C12,2.6,12,2.5,12,2.5V0.9z
		 M11.2,2v0.4c0,0.1,0,0.2,0.1,0.3L9.8,4.2L7.6,2H11.2z M4.8,9.2l-2-2l4.5-4.5l2,2l0.5,0.5l2,2l-4.5,4.5l-2-2L4.8,9.2z M7,2L4.8,4.2
		L3.3,2.8c0-0.1,0.1-0.2,0.1-0.3V2H7z M0.9,2.6c-0.1,0-0.1-0.1-0.1-0.1V0.9c0-0.1,0.1-0.1,0.1-0.1h1.6c0.1,0,0.1,0.1,0.1,0.1v1.6
		c0,0.1-0.1,0.1-0.1,0.1H0.9z M2.5,3.4c0.1,0,0.2,0,0.3-0.1l1.5,1.5L2,7V3.4H2.5z M2,7.6l2.2,2.2l-1.5,1.5c-0.1,0-0.2-0.1-0.3-0.1H2
		V7.6z M2.6,13.7c0,0.1-0.1,0.1-0.1,0.1H0.9c-0.1,0-0.1-0.1-0.1-0.1v-1.6c0-0.1,0-0.1,0.1-0.1h1.6c0.1,0,0.1,0.1,0.1,0.2V13.7z
		 M3.3,12.5v-0.4c0-0.1,0-0.2-0.1-0.3l1.5-1.5L7,12.5H3.3z M7.6,12.5l2.2-2.2l1.5,1.5c0,0.1-0.1,0.2-0.1,0.3v0.4H7.6z M13.7,12
		c0.1,0,0.1,0.1,0.1,0.2v1.6c0,0.1-0.1,0.1-0.1,0.1h-1.6c-0.1,0-0.1-0.1-0.1-0.1v-1.6c0-0.2,0-0.2,0.1-0.2H13.7z M12.1,11.2
		c-0.1,0-0.2,0-0.3,0.1l-1.5-1.5l2.2-2.2v3.6C12.5,11.2,12.1,11.2,12.1,11.2z M12.5,7l-2.2-2.2l1.5-1.5c0.1,0,0.2,0.1,0.3,0.1h0.4V7
		z"/>
	<path class="st1" d="M28.9,21.1H10c-0.3,0-0.5,0.2-0.5,0.5s0.2,0.5,0.5,0.5h18.9c0.3,0,0.5-0.2,0.5-0.5
		C29.4,21.3,29.2,21.1,28.9,21.1z M28.9,16.8H17.1c-0.3,0-0.5,0.2-0.5,0.5s0.2,0.5,0.5,0.5h11.7c0.3,0,0.5-0.2,0.5-0.5
		C29.4,17,29.2,16.8,28.9,16.8z M13.2,16.8H10c-0.3,0-0.5,0.2-0.5,0.5s0.2,0.5,0.5,0.5h3.2c0.3,0,0.5-0.2,0.5-0.5
		S13.4,16.8,13.2,16.8z"/>
</g>
</svg>
