<?xml version="1.0" encoding="utf-8"?>
<!-- Generator: Adobe Illustrator 26.0.0, SVG Export Plug-In . SVG Version: 6.00 Build 0)  -->
<svg version="1.1" id="Layer_1" xmlns="http://www.w3.org/2000/svg" xmlns:xlink="http://www.w3.org/1999/xlink" x="0px" y="0px"
	 viewBox="0 0 35 33" style="enable-background:new 0 0 35 33;" xml:space="preserve">
<style type="text/css">
	.st0{fill:#FA8617;}
	.st1{fill:#CACACA;}
</style>
<g>
	<path id="cla1_00000129889354294205908240000015338523547764660119_" class="st0" d="M28.9,21.1H10c-0.3,0-0.5,0.2-0.5,0.5
		s0.2,0.5,0.5,0.5h18.9c0.3,0,0.5-0.2,0.5-0.5C29.4,21.3,29.2,21.1,28.9,21.1z M28.9,16.8H17.1c-0.3,0-0.5,0.2-0.5,0.5
		s0.2,0.5,0.5,0.5h11.7c0.3,0,0.5-0.2,0.5-0.5C29.4,17,29.2,16.8,28.9,16.8z M13.2,16.8H10c-0.3,0-0.5,0.2-0.5,0.5s0.2,0.5,0.5,0.5
		h3.2c0.3,0,0.5-0.2,0.5-0.5S13.4,16.8,13.2,16.8z"/>
	<path class="st0" d="M8.1,4H7.5V2.9C7.5,1.3,6.2,0,4.6,0S1.7,1.3,1.7,2.9V4H1.2C0.5,4,0,4.6,0,5.2V11c0,0.6,0.5,1.2,1.2,1.2h6.9
		c0.6,0,1.2-0.5,1.2-1.2V5.2C9.2,4.6,8.7,4,8.1,4z M2.9,2.9c0-1,0.8-1.7,1.7-1.7s1.7,0.8,1.7,1.7V4H2.9V2.9z M8.1,11H1.2V5.2h6.9V11
		z M4.6,9.2c0.6,0,1.2-0.5,1.2-1.2S5.3,6.9,4.6,6.9S3.5,7.4,3.5,8.1S4,9.2,4.6,9.2z"/>
</g>
<g id="cla2_00000021822079461518687230000000102307893131826864_">
	<path class="st1" d="M18.5,33C9.4,33,2,25.6,2,16.5h1C3,25,10,32,18.5,32S34,25,34,16.5S27,1,18.5,1c-1.6,0-3.1,0.2-4.7,0.7l-0.3-1
		C15.2,0.3,16.8,0,18.5,0C27.6,0,35,7.4,35,16.5C35,25.6,27.6,33,18.5,33z"/>
</g>
</svg>
