<?xml version="1.0" encoding="utf-8"?>
<!-- Generator: Adobe Illustrator 26.0.0, SVG Export Plug-In . SVG Version: 6.00 Build 0)  -->
<svg version="1.1" id="Layer_1" xmlns="http://www.w3.org/2000/svg" xmlns:xlink="http://www.w3.org/1999/xlink" x="0px" y="0px"
	 viewBox="0 0 35 33" style="enable-background:new 0 0 35 33;" xml:space="preserve">
<style type="text/css">
	.st0{fill:none;stroke:#CACACA;}
	.st1{fill:#FA8617;}
</style>
<path class="st0" d="M22.4,0.9C31,3.1,36.2,11.7,34.1,20.3S23.2,34.1,14.6,32C6,29.7,0.8,21.1,3,12.5"/>
<g>
	<path class="st1" d="M28.9,21.1H10c-0.3,0-0.5,0.2-0.5,0.5s0.2,0.5,0.5,0.5h18.9c0.3,0,0.5-0.2,0.5-0.5
		C29.4,21.3,29.2,21.1,28.9,21.1z M28.9,16.8H17.1c-0.3,0-0.5,0.2-0.5,0.5s0.2,0.5,0.5,0.5h11.7c0.3,0,0.5-0.2,0.5-0.5
		C29.4,17,29.2,16.8,28.9,16.8z M13.2,16.8H10c-0.3,0-0.5,0.2-0.5,0.5s0.2,0.5,0.5,0.5h3.2c0.3,0,0.5-0.2,0.5-0.5
		S13.4,16.8,13.2,16.8z"/>
</g>
<g id="Group_3101">
	<g id="Group_3100" transform="translate(4.418 4.418)">
		<g id="Line_422">
			<path class="st1" d="M10.5,6.5V2.9c0-0.1,0-0.1,0-0.2l0,0c0-0.1,0.1-0.1,0.1-0.2c0,0,0.1-0.1,0.2-0.1l0,0c0.1,0,0.1,0,0.2,0h3.6
				c0.3,0,0.5,0.2,0.5,0.5s-0.2,0.5-0.5,0.5h-2.4l6.2,6.2c0.2,0.2,0.2,0.5,0,0.7s-0.5,0.2-0.7,0l-6.2-6.2v2.4C11.5,6.7,11.2,7,11,7
				C10.7,7,10.5,6.7,10.5,6.5z"/>
		</g>
	</g>
</g>
<g>
	<path class="st1" d="M0,0h1.3v2.3h2V0h1.3v5.8H3.3V3.4h-2v2.4H0V0z"/>
	<path class="st1" d="M6,0h3.7v1.1H7.4v1.2h2v1.1h-2v1.3h2.4v1.1H6V0z"/>
	<path class="st1" d="M12,2.8L10.5,0H12l0.5,1.1c0.1,0.3,0.3,0.6,0.4,0.9l0,0c0.1-0.4,0.3-0.7,0.4-0.9L13.7,0h1.4l-1.5,2.9l1.6,2.9
		h-1.5l-0.6-1.2c-0.1-0.3-0.3-0.6-0.4-1l0,0c-0.1,0.4-0.3,0.7-0.4,1l-0.5,1.2h-1.4L12,2.8z"/>
</g>
</svg>
