<?xml version="1.0" encoding="utf-8"?>
<!-- Generator: Adobe Illustrator 26.0.0, SVG Export Plug-In . SVG Version: 6.00 Build 0)  -->
<svg version="1.1" id="Layer_1" xmlns="http://www.w3.org/2000/svg" xmlns:xlink="http://www.w3.org/1999/xlink" x="0px" y="0px"
	 viewBox="0 0 35 33" style="enable-background:new 0 0 35 33;" xml:space="preserve">
<style type="text/css">
	.st0{fill:none;stroke:#CACACA;}
	.st1{fill:#FA8617;}
</style>
<path class="st0" d="M16.5,0.6c8.8-1,16.8,5.1,17.9,13.9c1.1,8.8-5.1,16.8-13.9,17.9c-8.8,1-16.8-5.1-17.9-13.9"/>
<g>
	<path class="st1" d="M28.9,21.1H10c-0.3,0-0.5,0.2-0.5,0.5s0.2,0.5,0.5,0.5h18.9c0.3,0,0.5-0.2,0.5-0.5
		C29.4,21.3,29.2,21.1,28.9,21.1z M28.9,16.8H17.1c-0.3,0-0.5,0.2-0.5,0.5s0.2,0.5,0.5,0.5h11.7c0.3,0,0.5-0.2,0.5-0.5
		C29.4,17,29.2,16.8,28.9,16.8z M13.2,16.8H10c-0.3,0-0.5,0.2-0.5,0.5s0.2,0.5,0.5,0.5h3.2c0.3,0,0.5-0.2,0.5-0.5
		S13.4,16.8,13.2,16.8z"/>
</g>
<path class="st1" d="M12.3,1.2L12.3,1.2C12.3,0.5,9.6,0,6.2,0S0,0.5,0,1.2l0,0v12.6c0,0.6,2.8,1.5,6.2,1.5s6.2-0.8,6.2-1.5L12.3,1.2
	L12.3,1.2z M0.9,1.6C1.1,1.5,2.7,1,6.2,1s5.1,0.5,5.3,0.6v1c-0.2,0.1-1.8,0.6-5.3,0.6S1.1,2.7,0.9,2.6C0.9,2.6,0.9,1.6,0.9,1.6z
	 M0.9,3.6c1.1,0.3,3,0.6,5.3,0.6s4.2-0.2,5.3-0.6v2.7c-1.1,0.4-3,0.8-5.2,0.8C4,7.2,1.9,6.8,0.9,6.3V3.6z M0.9,7.3
	c1.1,0.4,3,0.8,5.3,0.8s4.2-0.5,5.3-0.9V10c-1.1,0.4-3,0.8-5.2,0.8C4,10.8,2,10.4,0.9,10L0.9,7.3L0.9,7.3z M6.2,14.3
	c-2.4,0-4.4-0.5-5.3-0.8V11c1.1,0.4,3,0.8,5.3,0.8s4.2-0.5,5.3-0.9v2.5C10.6,13.7,8.5,14.3,6.2,14.3z"/>
</svg>
