<svg width="371" height="365" viewBox="0 0 371 365" fill="none" xmlns="http://www.w3.org/2000/svg">
<g clip-path="url(#clip0_741_1029)">
<path opacity="0.31" d="M134.472 84.5201C160.465 89.8247 187.418 87.8664 212.372 78.8601C278.232 55.4401 332.372 85.7901 346.042 104.86C361.852 127.04 364.462 156.24 357.142 182.92C349.822 209.6 333.352 233.92 313.622 255.14C298.192 271.7 280.172 286.9 258.622 295.53C237.542 303.97 214.442 305.64 191.872 306.77C162.872 308.24 133.302 308.98 105.652 302.19C83.1016 296.65 59.9416 282.97 57.9716 261.39C56.3016 242.99 70.7516 224.87 68.7416 206.52C65.9116 180.81 33.6016 168.07 22.9116 144.52C10.4516 117.08 26.2716 86.85 47.9116 80.37C70.4116 73.66 106.152 78.5301 134.472 84.5201Z" fill="url(#paint0_radial_741_1029)"/>
<path d="M138.851 59.6799C119.981 92.0399 59.1005 101.87 37.8505 118.47C18.4505 133.66 8.12055 168.79 9.17055 196.79C10.2205 224.79 31.4805 252.63 59.4005 254.97C71.5505 255.97 83.7005 252.4 95.8605 253.22C134.801 255.88 156.481 299.55 190.711 318.22C230.161 339.8 280.441 324.54 316.941 298.28C340.161 281.58 361.051 259.42 368.441 231.8C375.831 204.18 366.251 170.72 341.071 157.15C318.391 144.93 283.851 146.72 275.021 122.52C268.841 105.6 280.891 87.9099 283.601 70.0999C287.831 42.1899 266.601 14.4199 239.701 5.87992C212.801 -2.66008 188.141 -4.12008 168.311 15.9799C159.101 25.3999 145.481 48.3099 138.851 59.6799Z" fill="url(#paint1_radial_741_1029)"/>
<path style="mix-blend-mode:multiply" d="M337.866 20.9648C322.62 -1.03157 282.856 -11.383 244.546 18.5729C201.452 52.2757 140.646 68.9644 86.2751 77.7153C30.3029 86.7263 3.76479 128.042 3.01998 153.655C2.20649 181.736 26.1089 216.764 96.8506 259.572C167.592 302.38 216.887 314.23 259.105 308.749C301.324 303.268 328.969 278.313 342.736 236.748C352.365 207.685 346.974 172.844 344.721 126.25C341.909 68.0611 359.921 52.7779 337.866 20.9648Z" fill="url(#paint2_radial_741_1029)"/>
<path d="M108.098 278.31C135.482 278.627 162.142 287.143 184.638 302.76C243.588 343.42 307.428 323.62 327.028 306.33C349.778 286.25 361.428 255.53 362.328 225.17C363.228 194.81 354.218 164.79 340.948 137.39C330.558 115.99 317.148 95.3901 298.138 81.0701C279.558 67.0701 256.858 59.8201 234.528 53.2801C205.808 44.8601 176.358 37.1101 146.468 37.8801C122.098 38.5101 94.5783 47.7301 85.9283 70.4401C78.5583 89.7901 87.4684 112.64 79.7684 131.87C68.9784 158.79 32.5584 164.87 14.5484 187.58C-6.45165 214.1 0.0683556 250.28 19.7984 262.33C40.3584 274.89 77.7784 278.08 108.098 278.31Z" stroke="#FFBB7C" stroke-width="3.14" stroke-miterlimit="10"/>
<path d="M99.9591 257.52C99.0691 256.37 97.8191 255.36 97.4191 254.08C97.091 252.77 97.2436 251.387 97.8491 250.18C98.1372 249.577 98.5431 249.039 99.0429 248.595C99.5427 248.152 100.126 247.814 100.759 247.6C102.049 247.36 103.759 246.88 104.989 247.91C105.989 248.76 107.309 249.8 107.499 250.91C107.87 252.227 107.811 253.629 107.329 254.91C106.57 256.166 105.412 257.131 104.039 257.65C103.019 258.16 101.439 257.61 99.9591 257.52Z" fill="#FE8F25"/>
<path d="M111.72 267.42C109.88 266.82 108.07 262.42 109.14 260.27C110.09 258.35 114.01 256.85 116.04 257.66C118.07 258.47 119.75 262.57 118.83 264.74C117.91 266.91 113.86 268.38 111.72 267.42Z" fill="#FE8F25"/>
<path d="M120.54 270.31C121.35 269.63 122.17 268.86 123.07 268.19C124.51 267.12 126.19 267.63 127.66 267.89C128.46 268.03 129.16 269.21 129.74 270.04C130.74 271.44 130.5 273.14 130.25 274.64C130.1 275.47 129.02 276.24 128.25 276.84C126.77 277.95 124.93 277.74 123.36 277.39C122.46 277.2 121.75 275.9 121.07 275.02C119.94 273.58 120.75 271.92 120.54 270.31Z" fill="#FE8F25"/>
<path d="M134.189 286.46C131.409 285.127 130.709 283.043 132.089 280.21C133.469 277.377 135.556 276.673 138.349 278.1C141.129 279.433 141.829 281.52 140.449 284.36C139.069 287.2 136.982 287.9 134.189 286.46Z" fill="#FE8F25"/>
<path d="M90.6411 267.57C89.4011 267.44 89.0111 266.32 88.6411 265.11C88.2711 263.9 87.6411 262.76 88.5511 261.37C88.7746 260.884 89.1017 260.454 89.5094 260.108C89.9171 259.763 90.3955 259.511 90.9111 259.37C92.1411 259.11 93.2311 258.24 94.6511 259.12C95.7111 259.77 96.6511 260.25 96.9511 261.64C97.2511 263.03 97.9511 263.97 97.1311 265.38C96.5092 266.48 95.5028 267.313 94.3051 267.717C93.1074 268.121 91.8026 268.069 90.6411 267.57Z" fill="#FE8F25"/>
<path d="M152.06 294.03C151.47 295.178 150.471 296.064 149.261 296.512C148.05 296.96 146.715 296.938 145.52 296.45C144.03 295.84 143.93 294.54 143.34 293.45C142.75 292.36 143.15 291.21 143.58 290.04C144.16 288.47 145.58 288.48 146.68 287.92C147.175 287.713 147.709 287.618 148.245 287.64C148.78 287.663 149.304 287.803 149.78 288.05C151.35 288.59 151.58 289.82 152.03 291.05C152.48 292.28 153.06 293.31 152.06 294.03Z" fill="#FE8F25"/>
<path d="M85.4291 255.55C85.1691 257.29 83.6091 257.23 82.4891 257.81C81.3691 258.39 80.2591 258.04 79.0791 257.61C77.5091 257.03 77.5591 255.61 76.9291 254.53C76.2091 253.25 76.8291 252.28 77.2191 251.12C77.7691 249.53 79.2191 249.61 80.3391 249.04C81.4591 248.47 82.3391 248.82 83.4391 249.21C85.0091 249.75 85.1391 251.04 85.6691 252.21C86.1991 253.38 86.3791 254.52 85.4291 255.55Z" fill="#FE8F25"/>
<path d="M119.049 285.7C118.339 287.46 115.049 289.02 112.779 287.94C111.791 287.331 111.032 286.413 110.621 285.327C110.21 284.241 110.171 283.05 110.509 281.94C110.743 281.359 111.092 280.832 111.534 280.389C111.976 279.946 112.502 279.596 113.082 279.36C113.662 279.125 114.284 279.008 114.91 279.017C115.536 279.027 116.153 279.162 116.726 279.415C117.299 279.667 117.815 280.033 118.243 280.489C118.672 280.945 119.004 281.483 119.221 282.07C119.438 282.657 119.534 283.282 119.505 283.908C119.475 284.533 119.32 285.146 119.049 285.71V285.7Z" fill="#FE8F25"/>
<path d="M108.228 275.92C107.638 276.987 106.687 277.81 105.545 278.24C104.404 278.671 103.147 278.681 101.998 278.27C100.991 277.677 100.209 276.765 99.7765 275.679C99.3438 274.593 99.2846 273.394 99.6083 272.27C100.388 270.2 103.608 268.84 105.768 269.7C106.849 270.277 107.689 271.219 108.14 272.359C108.59 273.498 108.622 274.76 108.228 275.92Z" fill="#FE8F25"/>
<path d="M124.141 297.89C123.312 296.996 122.618 295.985 122.081 294.89C121.711 293.812 121.776 292.631 122.261 291.6C122.989 290.622 124.025 289.918 125.201 289.6C126.289 289.257 127.464 289.318 128.511 289.77C129.477 290.4 130.186 291.354 130.511 292.46C130.883 293.536 130.844 294.711 130.401 295.76C129.717 296.801 128.703 297.583 127.521 297.98C126.501 298.31 125.271 297.94 124.141 297.89Z" fill="#FE8F25"/>
<path d="M155.308 301.1C155.481 300.583 155.77 300.113 156.152 299.724C156.534 299.335 156.999 299.038 157.513 298.856C158.026 298.674 158.575 298.611 159.116 298.673C159.658 298.734 160.178 298.918 160.638 299.21C163.238 300.68 163.638 302 162.468 304.81C162.257 305.308 161.938 305.754 161.536 306.115C161.133 306.477 160.656 306.746 160.139 306.903C159.621 307.061 159.075 307.103 158.539 307.026C158.004 306.949 157.491 306.756 157.038 306.46C154.638 305.08 154.068 303.63 155.308 301.1Z" fill="#FE8F25"/>
<path d="M135.638 307.15C134.338 306.94 134.338 305.68 133.828 304.75C133.168 303.54 133.968 302.7 134.268 301.68C134.648 300.37 135.798 300.32 136.738 299.81C137.938 299.16 138.738 299.95 139.798 300.25C141.108 300.64 141.168 301.79 141.668 302.72C142.328 303.93 141.528 304.72 141.228 305.79C140.848 307.1 139.758 307.28 138.748 307.63C137.408 308.08 137.398 308.06 135.638 307.15Z" fill="#FE8F25"/>
<path d="M80.9583 278.46C80.0258 277.968 79.3252 277.128 79.0087 276.123C78.6922 275.117 78.7855 274.027 79.2683 273.09C79.4575 272.551 79.76 272.058 80.1555 271.646C80.5509 271.233 81.0302 270.91 81.5609 270.699C82.0917 270.487 82.6617 270.391 83.2325 270.419C83.8032 270.446 84.3616 270.595 84.8699 270.856C85.3782 271.117 85.8247 271.484 86.1794 271.932C86.534 272.38 86.7885 272.899 86.9257 273.453C87.063 274.008 87.0798 274.586 86.975 275.147C86.8702 275.709 86.6463 276.242 86.3183 276.71C85.837 277.65 85.0033 278.362 83.9991 278.69C82.9949 279.018 81.9018 278.935 80.9583 278.46Z" fill="#FE8F25"/>
<path d="M67.8017 263.03C69.0517 261.16 71.1317 260.27 73.1917 261.4C73.7297 261.595 74.2195 261.904 74.6282 262.304C75.0368 262.705 75.3547 263.188 75.5604 263.722C75.7662 264.256 75.8549 264.828 75.8207 265.4C75.7865 265.971 75.6301 266.528 75.3622 267.034C75.0942 267.539 74.7208 267.981 74.2673 268.33C73.8138 268.679 73.2907 268.927 72.7333 269.057C72.1759 269.186 71.5972 269.195 71.0362 269.081C70.4753 268.968 69.9452 268.736 69.4817 268.4C68.551 267.907 67.8525 267.066 67.5379 266.06C67.2234 265.055 67.3182 263.966 67.8017 263.03Z" fill="#FE8F25"/>
<path d="M147.4 317.31C146.693 316.957 146.106 316.402 145.714 315.715C145.322 315.028 145.142 314.241 145.197 313.452C145.252 312.663 145.54 311.909 146.024 311.283C146.508 310.658 147.167 310.19 147.916 309.939C148.666 309.688 149.473 309.664 150.236 309.871C150.999 310.079 151.684 310.508 152.203 311.104C152.723 311.7 153.054 312.437 153.155 313.221C153.256 314.005 153.122 314.802 152.77 315.51C152.275 316.44 151.442 317.144 150.444 317.479C149.445 317.814 148.356 317.753 147.4 317.31Z" fill="#FE8F25"/>
<path d="M91.9092 288.21C91.1964 287.867 90.6015 287.32 90.1995 286.639C89.7975 285.957 89.6066 285.172 89.6508 284.382C89.695 283.592 89.9725 282.833 90.448 282.201C90.9236 281.569 91.5759 281.092 92.3225 280.831C93.0691 280.569 93.8765 280.535 94.6425 280.732C95.4086 280.93 96.0989 281.35 96.6262 281.94C97.1535 282.529 97.4941 283.262 97.605 284.045C97.7159 284.829 97.5921 285.627 97.2492 286.34C96.7625 287.271 95.94 287.982 94.9485 288.329C93.9569 288.677 92.8704 288.634 91.9092 288.21Z" fill="#FE8F25"/>
<path d="M58.2683 258.57C57.3094 258.133 56.5614 257.336 56.1869 256.351C55.8125 255.366 55.8417 254.273 56.2683 253.31C56.4254 252.76 56.6984 252.251 57.069 251.816C57.4395 251.381 57.899 251.03 58.4165 250.788C58.934 250.545 59.4974 250.416 60.0689 250.41C60.6404 250.403 61.2066 250.519 61.7294 250.75C62.2523 250.981 62.7196 251.321 63.0999 251.748C63.4803 252.174 63.7648 252.677 63.9343 253.223C64.1038 253.769 64.1544 254.345 64.0826 254.912C64.0109 255.479 63.8184 256.024 63.5183 256.51C62.6383 258.67 60.4083 259.31 58.2683 258.57Z" fill="#FE8F25"/>
<path d="M166.769 311.09C167.121 310.381 167.675 309.793 168.361 309.399C169.048 309.006 169.835 308.824 170.625 308.879C171.414 308.933 172.17 309.22 172.796 309.703C173.422 310.187 173.891 310.846 174.143 311.596C174.395 312.346 174.419 313.154 174.211 313.917C174.004 314.681 173.575 315.366 172.978 315.886C172.381 316.405 171.644 316.736 170.859 316.837C170.074 316.937 169.277 316.803 168.569 316.45C167.64 315.957 166.935 315.126 166.601 314.129C166.266 313.132 166.326 312.044 166.769 311.09Z" fill="#FE8F25"/>
<path d="M102.949 298.74C101.069 297.49 100.179 295.4 101.319 293.35C101.514 292.812 101.822 292.322 102.223 291.914C102.623 291.505 103.107 291.187 103.641 290.981C104.175 290.776 104.747 290.687 105.318 290.721C105.889 290.755 106.446 290.912 106.952 291.18C107.458 291.448 107.9 291.821 108.249 292.274C108.598 292.728 108.846 293.251 108.975 293.808C109.105 294.366 109.113 294.945 109 295.506C108.887 296.066 108.654 296.597 108.319 297.06C107.825 297.991 106.984 298.689 105.979 299.004C104.973 299.318 103.885 299.224 102.949 298.74Z" fill="#FE8F25"/>
<path d="M112.641 303.53C113.121 302.31 116.781 301 118.021 301.6C119.101 302.12 120.381 305.43 120.021 306.72C119.661 308.01 116.101 309.36 114.711 308.87C113.471 308.44 112.111 304.88 112.641 303.53Z" fill="#FE8F25"/>
<path d="M130.7 316.73C129.7 318.82 128.43 319.23 126.28 318.19C124.13 317.15 123.63 315.92 124.84 313.51C125.84 311.51 127.13 311.16 129.34 312.27C131.55 313.38 131.78 314.53 130.7 316.73Z" fill="#FE8F25"/>
<path d="M179.64 325.54C177.54 324.54 177.13 323.27 178.17 321.12C179.21 318.97 180.45 318.47 182.85 319.69C184.85 320.69 185.2 321.97 184.09 324.18C182.98 326.39 181.87 326.62 179.64 325.54Z" fill="#FE8F25"/>
<path d="M200.918 324.72C200.13 324.347 199.52 323.678 199.222 322.857C198.924 322.037 198.963 321.132 199.328 320.34C199.509 319.914 199.778 319.531 200.117 319.217C200.457 318.902 200.859 318.663 201.297 318.516C201.736 318.369 202.201 318.316 202.661 318.361C203.122 318.407 203.567 318.55 203.968 318.78C204.719 319.212 205.278 319.912 205.532 320.74C205.786 321.568 205.717 322.461 205.338 323.24C204.944 324.018 204.259 324.609 203.432 324.886C202.605 325.163 201.702 325.103 200.918 324.72Z" fill="#FE8F25"/>
<path d="M158.189 326.98C157.787 326.774 157.43 326.49 157.141 326.143C156.852 325.796 156.636 325.395 156.505 324.962C156.375 324.53 156.334 324.075 156.384 323.627C156.434 323.178 156.574 322.744 156.796 322.35C157.018 321.957 157.317 321.613 157.675 321.338C158.034 321.063 158.444 320.864 158.882 320.752C159.319 320.639 159.775 320.617 160.221 320.685C160.667 320.754 161.095 320.912 161.479 321.15C162.214 321.606 162.744 322.328 162.958 323.165C163.173 324.002 163.056 324.89 162.631 325.643C162.206 326.396 161.507 326.955 160.679 327.205C159.851 327.454 158.959 327.373 158.189 326.98Z" fill="#FE8F25"/>
<path d="M135.64 323.44C135.928 322.849 136.385 322.356 136.953 322.024C137.521 321.692 138.175 321.536 138.831 321.575C139.488 321.614 140.118 321.847 140.643 322.244C141.167 322.641 141.563 323.185 141.779 323.806C141.995 324.427 142.022 325.099 141.856 325.736C141.691 326.372 141.341 326.946 140.85 327.384C140.359 327.822 139.75 328.105 139.098 328.196C138.447 328.288 137.783 328.185 137.19 327.9C136.492 327.417 135.965 326.725 135.687 325.923C135.408 325.121 135.392 324.252 135.64 323.44Z" fill="#FE8F25"/>
<path d="M93.7484 309.1C92.7484 308.71 91.6484 305.78 92.0684 304.69C92.4884 303.6 95.3884 302.59 96.4784 303.02C97.5684 303.45 98.5784 306.34 98.1584 307.43C97.7384 308.52 94.8384 309.53 93.7484 309.1Z" fill="#FE8F25"/>
<path d="M80.6391 294.61C81.0891 293.66 84.1391 292.61 85.0891 293.06C86.0391 293.51 87.0891 296.56 86.6391 297.51C86.1891 298.46 83.1392 299.51 82.1892 299.06C81.2392 298.61 80.1991 295.56 80.6391 294.61Z" fill="#FE8F25"/>
<path d="M64.3619 277.77C63.9519 278.77 60.9519 279.82 59.9319 279.38C58.9119 278.94 57.9319 275.97 58.3219 274.95C58.7119 273.93 61.7319 272.9 62.7619 273.34C63.7919 273.78 64.8019 276.75 64.3619 277.77Z" fill="#FE8F25"/>
<path d="M70.8712 289.13C69.8712 288.77 68.7412 285.84 69.1412 284.74C69.5412 283.64 72.4312 282.6 73.5212 283C74.6112 283.4 75.6612 286.29 75.2612 287.39C74.8612 288.49 71.9712 289.53 70.8712 289.13Z" fill="#FE8F25"/>
<path d="M107.641 314.31C109.701 315.31 109.791 315.65 108.701 317.87C107.611 320.09 107.261 320.1 104.871 318.87C103.031 317.94 102.871 317.46 104.041 315.23C104.991 313.31 105.311 313.19 107.641 314.31Z" fill="#FE8F25"/>
<path d="M37.6391 258.2C37.0162 257.905 36.5283 257.385 36.2741 256.745C36.0198 256.105 36.018 255.392 36.2691 254.75C36.4087 254.405 36.6195 254.094 36.8876 253.835C37.1557 253.577 37.4751 253.379 37.8251 253.252C38.1751 253.126 38.5477 253.075 38.9189 253.102C39.29 253.129 39.6512 253.234 39.979 253.41C40.5729 253.744 41.0165 254.293 41.2191 254.943C41.4217 255.594 41.368 256.297 41.069 256.909C40.7699 257.521 40.2481 257.996 39.6105 258.236C38.9728 258.476 38.2675 258.463 37.6391 258.2Z" fill="#FE8F25"/>
<path d="M191.639 335.04C191.009 334.762 190.506 334.257 190.23 333.625C189.954 332.994 189.925 332.282 190.149 331.63C190.336 331.132 190.667 330.702 191.1 330.394C191.533 330.085 192.047 329.913 192.579 329.899C193.11 329.885 193.633 330.03 194.081 330.315C194.53 330.6 194.883 331.012 195.096 331.499C195.309 331.986 195.371 332.525 195.276 333.048C195.18 333.571 194.931 334.053 194.56 334.433C194.189 334.813 193.712 335.074 193.192 335.182C192.672 335.29 192.131 335.241 191.639 335.04Z" fill="#FE8F25"/>
<path d="M119.578 327.44C119.287 328.067 118.769 328.559 118.128 328.817C117.487 329.075 116.772 329.08 116.128 328.83C115.784 328.691 115.473 328.481 115.214 328.215C114.956 327.948 114.756 327.63 114.628 327.282C114.5 326.933 114.446 326.562 114.47 326.191C114.495 325.82 114.596 325.459 114.768 325.13C115.091 324.52 115.637 324.059 116.293 323.843C116.948 323.627 117.662 323.673 118.284 323.972C118.906 324.271 119.388 324.799 119.63 325.445C119.871 326.092 119.853 326.807 119.578 327.44Z" fill="#FE8F25"/>
<path d="M168.78 332.94C169.073 332.315 169.592 331.825 170.233 331.569C170.873 331.313 171.587 331.31 172.23 331.56C172.574 331.701 172.884 331.912 173.142 332.181C173.399 332.449 173.597 332.768 173.723 333.118C173.849 333.467 173.901 333.839 173.875 334.21C173.848 334.581 173.744 334.942 173.57 335.27C173.417 335.584 173.204 335.866 172.942 336.098C172.68 336.33 172.375 336.508 172.045 336.622C171.714 336.736 171.364 336.784 171.015 336.764C170.666 336.743 170.325 336.653 170.01 336.5C169.696 336.347 169.414 336.134 169.182 335.872C168.95 335.61 168.772 335.305 168.658 334.975C168.544 334.644 168.496 334.294 168.517 333.945C168.538 333.596 168.627 333.255 168.78 332.94Z" fill="#FE8F25"/>
<path d="M212.642 334.11C212.029 333.798 211.557 333.266 211.32 332.621C211.083 331.976 211.098 331.265 211.362 330.63C211.511 330.29 211.73 329.985 212.004 329.734C212.278 329.484 212.602 329.293 212.954 329.176C213.307 329.058 213.68 329.015 214.05 329.051C214.419 329.086 214.778 329.198 215.102 329.38C215.688 329.729 216.119 330.288 216.306 330.944C216.492 331.6 216.421 332.302 216.107 332.907C215.792 333.513 215.258 333.974 214.613 334.198C213.969 334.422 213.263 334.39 212.642 334.11Z" fill="#FE8F25"/>
<path d="M147.642 333.83C147.783 333.501 147.989 333.203 148.248 332.955C148.506 332.707 148.812 332.513 149.147 332.386C149.482 332.259 149.839 332.2 150.197 332.214C150.555 332.227 150.907 332.313 151.231 332.465C151.556 332.618 151.846 332.834 152.085 333.101C152.324 333.368 152.507 333.68 152.623 334.02C152.738 334.359 152.785 334.718 152.759 335.075C152.733 335.433 152.635 335.781 152.472 336.1C152.156 336.716 151.613 337.185 150.958 337.409C150.303 337.632 149.587 337.593 148.96 337.298C148.334 337.004 147.846 336.478 147.6 335.831C147.354 335.184 147.369 334.466 147.642 333.83Z" fill="#FE8F25"/>
<path d="M47.7387 264.67C48.0334 264.047 48.5528 263.558 49.1927 263.302C49.8327 263.046 50.5457 263.042 51.1888 263.29C51.5328 263.432 51.8435 263.645 52.1009 263.914C52.3583 264.183 52.5569 264.502 52.6839 264.852C52.8109 265.202 52.8636 265.575 52.8386 265.946C52.8136 266.318 52.7115 266.68 52.5388 267.01C52.2284 267.646 51.678 268.134 51.0085 268.364C50.339 268.595 49.6053 268.55 48.9688 268.24C48.3322 267.93 47.8451 267.379 47.6144 266.71C47.3837 266.04 47.4284 265.306 47.7387 264.67Z" fill="#FE8F25"/>
<path d="M160.489 347.36C159.189 346.8 158.829 346.03 159.309 344.84C159.789 343.65 160.639 343.11 161.789 343.54C163.259 344.11 163.659 344.96 163.049 346.29C162.439 347.62 161.719 347.89 160.489 347.36Z" fill="#FE8F25"/>
<path d="M127.8 338.19C126.51 337.61 126.2 336.85 126.72 335.63C127.24 334.41 128.06 333.97 129.24 334.45C130.73 335.05 131.06 335.85 130.4 337.23C130.332 337.493 130.2 337.736 130.017 337.937C129.835 338.139 129.606 338.294 129.351 338.388C129.095 338.482 128.821 338.513 128.551 338.479C128.281 338.444 128.024 338.345 127.8 338.19Z" fill="#FE8F25"/>
<path d="M181.921 345.89C180.631 345.32 180.281 344.55 180.771 343.36C181.261 342.17 182.111 341.64 183.271 342.09C184.731 342.66 185.111 343.52 184.491 344.85C183.871 346.18 183.151 346.43 181.921 345.89Z" fill="#FE8F25"/>
<path d="M29.0988 246.57C28.5088 247.85 27.7588 248.17 26.5388 247.65C25.3188 247.13 24.8688 246.31 25.3488 245.13C25.9488 243.64 26.7588 243.31 28.1288 243.97C28.3929 244.038 28.6368 244.168 28.8395 244.35C29.0423 244.532 29.198 244.761 29.2932 245.016C29.3885 245.272 29.4206 245.547 29.3868 245.817C29.3529 246.088 29.2541 246.346 29.0988 246.57Z" fill="#FE8F25"/>
<path d="M83.2795 316.72C83.8695 315.43 84.6195 315.12 85.8395 315.64C87.0595 316.16 87.5095 316.98 87.0295 318.16C86.4295 319.65 85.6195 319.98 84.2495 319.32C82.8795 318.66 82.7095 317.96 83.2795 316.72Z" fill="#FE8F25"/>
<path d="M75.5012 308.31C74.9112 309.59 74.1612 309.91 72.9412 309.38C71.7212 308.85 71.2712 308.05 71.7512 306.86C72.3512 305.38 73.1612 305.04 74.5312 305.71C74.7953 305.778 75.0391 305.908 75.2419 306.09C75.4446 306.273 75.6003 306.501 75.6956 306.757C75.7909 307.012 75.823 307.287 75.7891 307.557C75.7553 307.828 75.6565 308.086 75.5012 308.31Z" fill="#FE8F25"/>
<path d="M98.1411 328.16C97.2002 328.527 96.2344 328.828 95.2511 329.06C94.7411 329.14 93.7911 326.58 94.2511 326.33C95.0411 325.88 96.1711 325.27 96.8111 325.54C97.4511 325.81 97.6411 327.08 98.1411 328.16Z" fill="#FE8F25"/>
<path d="M48.8906 285.9C49.8481 285.564 50.8314 285.306 51.8306 285.13C52.3706 285.13 53.2006 287.68 52.7506 287.9C51.9306 288.3 50.7506 288.9 50.1506 288.57C49.5506 288.24 49.3706 287.01 48.8906 285.9Z" fill="#FE8F25"/>
<path d="M237.358 331.37C236.188 331.63 235.058 332.26 234.458 331.93C233.858 331.6 233.628 330.33 233.458 329.43C233.388 328.92 235.998 328.09 236.238 328.54C236.672 329.458 237.046 330.404 237.358 331.37Z" fill="#FE8F25"/>
<path d="M205.909 344.31C204.739 344.57 203.609 345.2 203.009 344.86C202.409 344.52 202.179 343.26 202.009 342.37C201.939 341.86 204.549 341.03 204.789 341.48C205.227 342.396 205.602 343.342 205.909 344.31Z" fill="#FE8F25"/>
<path d="M61.29 299.69C60.9174 298.754 60.6035 297.795 60.35 296.82C60.26 296.33 62.81 295.33 63.07 295.77C63.54 296.55 64.16 297.67 63.89 298.32C63.62 298.97 62.36 299.17 61.29 299.69Z" fill="#FE8F25"/>
<path d="M139.029 348.49C138.69 347.536 138.433 346.556 138.259 345.56C138.209 345.02 140.799 344.18 141.019 344.64C141.419 345.45 142.019 346.59 141.699 347.23C141.379 347.87 140.129 348.02 139.029 348.49Z" fill="#FE8F25"/>
<path d="M15.9984 237.36C14.6084 236.72 14.6484 236.74 15.1884 235.47C15.5484 234.63 15.8884 234.24 16.8584 234.78C18.1584 235.49 18.1484 235.4 17.6084 236.67C17.2484 237.5 16.8784 238.02 15.9984 237.36Z" fill="#FE8F25"/>
<path d="M41.3487 277.86C41.0987 278.71 40.6887 279.04 39.7187 278.51C38.4187 277.8 38.4287 277.89 38.9687 276.62C39.3287 275.78 39.6587 275.4 40.6387 275.93C41.9287 276.65 41.9687 276.57 41.3487 277.86Z" fill="#FE8F25"/>
<path d="M106.642 338.31C105.572 338.03 105.772 337.41 106.202 336.62C106.852 335.41 106.782 335.47 108.152 336.05C109.152 336.49 109.062 337 108.632 337.79C108.002 339.01 108.042 339.03 106.642 338.31Z" fill="#FE8F25"/>
<path d="M224.479 343.24C224.309 342.34 223.919 341.59 224.149 341.19C224.379 340.79 225.199 340.69 225.769 340.46C226.089 341.061 226.283 341.721 226.339 342.4C226.289 342.71 225.309 342.88 224.479 343.24Z" fill="#FE8F25"/>
<path d="M195.708 354.75C194.818 354.98 193.928 355.43 193.708 355.21C193.34 354.637 193.095 353.993 192.988 353.32C193.578 353.16 194.278 352.74 194.728 352.93C195.178 353.12 195.298 353.93 195.708 354.75Z" fill="#FE8F25"/>
<path d="M174.221 356.06C173.612 356.363 172.972 356.598 172.311 356.76C171.791 356.82 171.101 355.31 171.511 354.94C171.725 354.727 171.982 354.562 172.265 354.457C172.548 354.352 172.85 354.309 173.151 354.33C173.641 354.49 173.791 355.31 174.221 356.06Z" fill="#FE8F25"/>
<path d="M117.929 349.38C117.663 348.738 117.471 348.066 117.359 347.38C117.359 346.82 118.869 346.24 119.219 346.68C119.419 346.907 119.567 347.175 119.653 347.465C119.739 347.755 119.762 348.06 119.719 348.36C119.549 348.79 118.729 348.96 117.929 349.38Z" fill="#FE8F25"/>
<path d="M150.869 356.85C150.719 356.6 150.499 356.21 150.289 355.85L152.209 355.23C152.379 355.81 152.829 356.48 152.659 356.93C152.289 357.89 151.639 356.98 150.869 356.85Z" fill="#FE8F25"/>
<path d="M28.7305 287.82C29.1549 287.778 29.5833 287.801 30.0005 287.89C30.1505 287.96 30.2405 288.6 30.1705 288.64C29.8653 288.81 29.5195 288.893 29.1705 288.88C29.0405 288.87 28.9605 288.41 28.7305 287.82Z" fill="#FE8F25"/>
<path d="M73.6406 328.11C74.0654 328.065 74.4949 328.092 74.9106 328.19C75.0606 328.26 75.1506 328.89 75.0806 328.93C74.7781 329.107 74.431 329.194 74.0806 329.18C73.9806 329.17 73.9006 328.71 73.6406 328.11Z" fill="#FE8F25"/>
<path d="M64.5289 319.51C63.9289 319.51 63.5289 319.67 63.4089 319.56C63.2675 319.242 63.1731 318.905 63.1289 318.56C63.3989 318.5 63.7889 318.3 63.9189 318.41C64.0489 318.52 64.2589 318.99 64.5289 319.51Z" fill="#FE8F25"/>
<path d="M4.28 225.12C4.68383 224.988 5.10518 224.917 5.53 224.91C5.7 224.91 5.78 225.37 5.9 225.62C5.59277 225.813 5.25446 225.952 4.9 226.03C4.77 226.03 4.59 225.62 4.25 225.12" fill="#FE8F25"/>
<path d="M29.6383 267.76C29.0383 267.76 28.6383 267.92 28.5183 267.81C28.3724 267.494 28.2779 267.156 28.2383 266.81C28.5083 266.75 28.8983 266.55 29.0283 266.66C29.2873 266.993 29.493 267.364 29.6383 267.76Z" fill="#FE8F25"/>
<path d="M205.56 364.87C204.96 364.87 204.56 365.03 204.44 364.87C204.294 364.554 204.2 364.216 204.16 363.87C204.43 363.81 204.82 363.62 204.95 363.73C205.08 363.84 205.29 364.31 205.56 364.87Z" fill="#FE8F25"/>
<path d="M40.0781 298.04C40.4795 297.898 40.9024 297.827 41.3281 297.83C41.4981 297.83 41.5881 298.29 41.7081 298.54C41.4016 298.733 41.0629 298.868 40.7081 298.94C40.6381 298.95 40.4281 298.53 40.0781 298.04Z" fill="#FE8F25"/>
<path d="M5.74948 247.59C5.60403 247.179 5.53292 246.746 5.53948 246.31C5.53948 246.15 5.99948 246.06 6.24948 245.94C6.44429 246.245 6.57998 246.584 6.64947 246.94C6.63947 247.07 6.23948 247.25 5.74948 247.59Z" fill="#FE8F25"/>
<path d="M214.72 354.02C214.677 353.595 214.701 353.167 214.79 352.75C214.897 352.673 215.019 352.619 215.148 352.59C215.277 352.561 215.41 352.557 215.54 352.58C215.711 352.885 215.794 353.231 215.78 353.58C215.77 353.71 215.31 353.79 214.72 354.02Z" fill="#FE8F25"/>
<path d="M18.1305 257.77C17.5305 257.77 17.1305 257.93 17.0105 257.77C16.8621 257.455 16.7675 257.117 16.7305 256.77C17.0005 256.71 17.3905 256.52 17.5205 256.63C17.6505 256.74 17.8605 257.24 18.1305 257.77Z" fill="#FE8F25"/>
<path d="M52.1514 309.31C52.0144 308.907 51.9435 308.485 51.9414 308.06C51.9414 307.89 52.4014 307.81 52.6514 307.68C52.8411 307.989 52.9796 308.327 53.0614 308.68C53.0714 308.82 52.6414 308.99 52.1514 309.31Z" fill="#FE8F25"/>
<path d="M237.638 352.24C237.038 352.24 236.638 352.4 236.518 352.24C236.37 351.925 236.275 351.587 236.238 351.24C236.508 351.18 236.898 350.99 237.028 351.1C237.158 351.21 237.338 351.71 237.638 352.24Z" fill="#FE8F25"/>
<path d="M247.322 341.38C246.712 341.38 246.322 341.54 246.202 341.43C246.051 341.115 245.956 340.777 245.922 340.43C246.192 340.38 246.572 340.18 246.712 340.29C246.972 340.618 247.178 340.986 247.322 341.38Z" fill="#FE8F25"/>
<path d="M257.431 329.7C256.821 329.89 256.431 330.11 256.321 330.03C256.08 329.748 255.93 329.399 255.891 329.03C255.891 328.95 256.431 328.63 256.581 328.7C256.731 328.77 257.041 329.25 257.431 329.7Z" fill="#FE8F25"/>
<path d="M85.6416 339.66C85.4516 339.05 85.2316 338.66 85.3216 338.56C85.5856 338.325 85.9122 338.172 86.2616 338.12C86.3416 338.12 86.6716 338.66 86.5916 338.81C86.5116 338.96 86.1216 339.31 85.6416 339.66Z" fill="#FE8F25"/>
<path d="M277.328 328.78C277.281 328.356 277.305 327.927 277.398 327.51C277.468 327.36 278.108 327.27 278.148 327.34C278.318 327.645 278.401 327.991 278.388 328.34C278.378 328.47 277.918 328.55 277.328 328.78Z" fill="#FE9580"/>
<path d="M287.029 317.92C286.984 317.495 287.011 317.066 287.109 316.65C287.179 316.5 287.809 316.41 287.849 316.48C288.027 316.782 288.113 317.13 288.099 317.48C288.089 317.61 287.639 317.69 287.029 317.92Z" fill="#FE9580"/>
<path d="M312.976 50.9257C313.327 49.7198 315.058 49.6836 315.48 50.867C319.769 62.8852 327.651 96.337 301.22 134.25C268.057 181.822 269.02 205.849 276.437 224C276.437 224 260.85 209.281 259.221 184.562C255.223 123.87 306.721 72.3593 312.976 50.9257Z" fill="#FFDDBB"/>
<path d="M310.336 70.242C308.414 76.4371 306.371 82.5872 304.105 88.6618C301.873 94.7429 299.454 100.75 296.85 106.684C294.225 112.602 291.488 118.47 288.505 124.213C285.55 129.97 282.345 135.594 279.11 141.229C275.908 146.879 272.651 152.553 269.967 158.571C267.283 164.578 265.278 171.001 264.511 177.598C264.322 179.243 264.162 180.898 264.101 182.545C264.01 184.193 263.993 185.844 264.002 187.496C264.038 190.805 264.307 194.107 264.809 197.378C265.838 203.92 267.868 210.301 270.665 216.26C270.732 216.41 270.829 216.546 270.95 216.658C271.07 216.771 271.211 216.86 271.366 216.918C271.521 216.977 271.686 217.004 271.851 216.999C272.016 216.995 272.179 216.957 272.33 216.89C272.481 216.823 272.617 216.726 272.731 216.607C272.844 216.487 272.933 216.346 272.992 216.192C273.05 216.038 273.078 215.874 273.073 215.71C273.069 215.545 273.031 215.383 272.963 215.233C272.324 213.764 271.704 212.294 271.15 210.795C270.862 210.05 270.606 209.296 270.338 208.541C270.097 207.782 269.827 207.033 269.612 206.266C268.693 203.22 267.997 200.112 267.528 196.966C266.565 190.689 266.543 184.236 267.263 177.933C267.657 174.784 268.29 171.67 269.156 168.615C270.041 165.556 271.13 162.558 272.416 159.643C274.977 153.774 278.154 148.132 281.315 142.459C284.475 136.786 287.599 131.055 290.487 125.208C291.939 122.289 293.338 119.345 294.683 116.377C295.365 114.896 296.017 113.403 296.672 111.912C297.327 110.421 297.944 108.913 298.565 107.405C301.032 101.377 303.31 95.2792 305.398 89.1125C307.453 82.9399 309.338 76.7134 310.988 70.4252C311.012 70.3397 311 70.2484 310.956 70.1711C310.913 70.0938 310.84 70.0369 310.754 70.0127C310.668 69.9886 310.577 69.9991 310.499 70.042C310.421 70.085 310.363 70.1569 310.338 70.242H310.336Z" fill="white"/>
<path d="M253.306 180.008C251.699 181.679 248.911 181.162 247.979 179.037C242.839 167.318 231.292 132.85 251.435 93.5211C268.441 60.3085 274.523 40.6806 276.661 31.578C277.115 29.653 279.755 29.4269 280.532 31.2447C289.096 51.3032 311.538 119.458 253.306 180.008Z" fill="#F9B46F"/>
<path d="M251.056 178.988C250.999 178.998 250.94 179.002 250.882 178.999C250.763 178.997 250.646 178.97 250.538 178.922C250.429 178.874 250.331 178.805 250.249 178.718C250.167 178.632 250.103 178.53 250.06 178.419C250.018 178.308 249.997 178.189 250 178.07C250.016 177.502 251.748 120.789 273.284 73.5117C273.387 73.2982 273.569 73.1337 273.792 73.0535C274.014 72.9732 274.258 72.9836 274.473 73.0824C274.688 73.1812 274.855 73.3606 274.94 73.582C275.025 73.8035 275.02 74.0494 274.926 74.2671C253.546 121.196 251.82 177.547 251.805 178.114C251.801 178.325 251.724 178.527 251.587 178.686C251.45 178.845 251.263 178.952 251.056 178.988Z" fill="url(#paint3_linear_741_1029)"/>
<path d="M73.2715 264.63C73.2761 265.788 73.7412 266.898 74.5653 267.716C75.3895 268.535 76.5058 268.996 77.6709 269H315.619C316.784 268.996 317.901 268.535 318.725 267.716C319.55 266.898 320.015 265.789 320.02 264.63L322 128.729C322 126.326 319.155 121.635 313.931 121.987L81.3816 116.004C79.8796 115.964 78.385 116.228 76.9887 116.78C75.5924 117.331 74.3236 118.16 73.2594 119.214C72.1951 120.268 71.3577 121.526 70.7979 122.912C70.2381 124.298 69.9677 125.783 70.0031 127.276L73.2715 264.63Z" fill="url(#paint4_linear_741_1029)"/>
<path d="M77.3357 260.846C77.3391 261.947 77.7814 263.002 78.5659 263.78C79.3504 264.558 80.4134 264.997 81.5227 265H310.94C312.049 264.997 313.112 264.558 313.896 263.78C314.68 263.002 315.122 261.947 315.126 260.846L317 136.951C316.779 129.495 310.193 126.815 306.199 126.974L82.0436 121.003C80.9817 120.975 79.9253 121.162 78.9385 121.552C77.9516 121.942 77.055 122.527 76.3029 123.271C75.5508 124.015 74.9591 124.904 74.5636 125.882C74.1681 126.86 73.9771 127.908 74.0022 128.962L77.3357 260.846Z" fill="url(#paint5_linear_741_1029)"/>
<g opacity="0.6">
<path d="M311.986 201.879H311.976C311.896 201.878 311.817 201.861 311.743 201.829C311.669 201.798 311.603 201.752 311.547 201.694C311.491 201.636 311.447 201.568 311.418 201.494C311.388 201.419 311.374 201.34 311.375 201.259L311.522 191.192C311.525 191.032 311.59 190.879 311.705 190.767C311.819 190.654 311.973 190.591 312.133 190.591H312.142C312.223 190.592 312.302 190.609 312.376 190.641C312.449 190.673 312.516 190.719 312.572 190.776C312.628 190.834 312.672 190.902 312.702 190.976C312.731 191.051 312.746 191.131 312.744 191.211L312.596 201.278C312.594 201.438 312.529 201.591 312.414 201.703C312.3 201.816 312.146 201.879 311.986 201.879Z" fill="white"/>
<path d="M312.35 177.209H312.342C312.261 177.208 312.182 177.191 312.108 177.159C312.034 177.127 311.968 177.081 311.912 177.024C311.856 176.966 311.812 176.898 311.782 176.824C311.753 176.749 311.738 176.669 311.739 176.589L312.306 138.031C312.295 135.74 311.6 133.911 310.236 132.608C307.693 130.174 303.655 130.299 303.485 130.307L232.145 128.396C232.065 128.394 231.986 128.376 231.913 128.344C231.84 128.311 231.773 128.264 231.718 128.206C231.663 128.148 231.62 128.08 231.591 128.005C231.562 127.93 231.549 127.85 231.551 127.77C231.551 127.69 231.567 127.61 231.599 127.536C231.631 127.462 231.678 127.395 231.737 127.34C231.796 127.285 231.865 127.242 231.941 127.215C232.017 127.188 232.098 127.176 232.179 127.182L303.475 129.092C303.919 129.065 308.219 128.993 311.082 131.731C312.693 133.272 313.515 135.396 313.528 138.041L312.96 176.612C312.957 176.771 312.892 176.923 312.778 177.035C312.664 177.146 312.51 177.209 312.35 177.209Z" fill="white"/>
</g>
<rect x="54" y="269" width="281" height="12" rx="6" fill="#D9D9D9"/>
<path d="M229.69 55.8681L88.1481 55.0001C87.0465 54.9938 85.9552 55.2127 84.9409 55.6433C83.9265 56.0739 83.0105 56.7073 82.2488 57.5047C81.4871 58.3021 80.8957 59.2467 80.5107 60.2809C80.1258 61.3151 79.9554 62.4171 80.0099 63.5195L89.7451 265H247.255L256 84.9848L229.69 55.8681Z" fill="white"/>
<path d="M235.742 84.2742C234.66 84.2367 233.596 83.9836 232.615 83.5299C231.635 83.0763 230.757 82.4317 230.036 81.6348C229.315 80.838 228.765 79.9055 228.419 78.8936C228.074 77.8816 227.94 76.8111 228.025 75.7467L229.528 57L256 85L235.742 84.2742Z" fill="#FA8617"/>
<path d="M98.019 81.4461C110.702 80.9525 159.39 78.9779 171.684 78.4791C173.235 78.4212 174.521 79.8455 174.527 81.6397C174.532 83.3446 173.365 84.7487 171.894 84.8165L98.2761 88.1949C96.8581 88.2596 95.63 87.0667 95.4434 85.4423L95.3956 85.0308C95.1797 83.1738 96.3974 81.5096 98.019 81.4461Z" fill="#F1CEAB"/>
<path d="M98.0733 98.4246C110.756 97.931 159.444 95.9554 171.738 95.4567C173.289 95.3987 174.575 96.8231 174.582 98.6173C174.586 100.323 173.42 101.726 171.948 101.794L98.3304 105.172C96.9124 105.238 95.6842 104.044 95.4967 102.42L95.4499 102.009C95.237 100.152 96.4527 98.4871 98.0733 98.4246Z" fill="#F1CEAB"/>
<path d="M101.455 115.674C121.045 114.955 196.245 112.119 215.235 111.402C217.63 111.312 219.629 112.721 219.653 114.513C219.676 116.218 217.89 117.642 215.61 117.736L101.91 122.418C99.719 122.508 97.8114 121.336 97.508 119.715L97.4308 119.306C97.0833 117.452 98.95 115.766 101.455 115.674Z" fill="#F1CEAB"/>
<path d="M101.189 132.794C116.434 132.159 174.958 129.638 189.737 129.001C191.601 128.921 193.159 130.338 193.18 132.13C193.201 133.835 191.812 135.251 190.038 135.336L101.552 139.54C99.8477 139.62 98.3606 138.441 98.1221 136.822L98.0616 136.412C97.7887 134.554 99.2388 132.876 101.189 132.794Z" fill="#F1CEAB"/>
<path d="M102.536 149.851C122.126 149.133 197.327 146.295 216.316 145.579C218.711 145.489 220.711 146.898 220.734 148.689C220.758 150.394 218.971 151.819 216.692 151.913L102.992 156.595C100.801 156.684 98.8934 155.513 98.5891 153.892L98.5128 153.482C98.1652 151.624 100.032 149.939 102.536 149.851Z" fill="#F1CEAB"/>
<path d="M101.451 166.517C116.773 165.972 175.588 163.801 190.439 163.253C192.312 163.183 193.87 164.611 193.879 166.402C193.889 168.108 192.486 169.516 190.703 169.59L101.779 173.264C100.066 173.335 98.5797 172.147 98.3499 170.523L98.2913 170.112C98.0254 168.257 99.4917 166.59 101.451 166.517Z" fill="#F1CEAB"/>
<path d="M102.815 183.132C122.404 182.413 197.604 179.577 216.593 178.86C218.989 178.771 220.988 180.178 221.012 181.97C221.035 183.676 219.248 185.099 216.969 185.193L103.269 189.875C101.078 189.966 99.1708 188.794 98.8674 187.173L98.7901 186.763C98.4427 184.91 100.309 183.223 102.815 183.132Z" fill="#F1CEAB"/>
<path d="M102.247 199.779C117.569 199.235 176.384 197.065 191.235 196.517C193.108 196.447 194.666 197.874 194.676 199.666C194.685 201.371 193.282 202.779 191.5 202.853L102.576 206.526C100.863 206.597 99.3767 205.409 99.147 203.785L99.0884 203.375C98.8212 201.513 100.288 199.845 102.247 199.779Z" fill="#F1CEAB"/>
<path d="M105.217 216.334C124.807 215.616 200.007 212.779 218.996 212.062C221.391 211.973 223.39 213.381 223.415 215.173C223.438 216.878 221.652 218.302 219.372 218.396L105.671 223.078C103.481 223.168 101.573 221.997 101.27 220.376L101.192 219.966C100.845 218.112 102.712 216.427 105.217 216.334Z" fill="#F1CEAB"/>
<path d="M104.733 233.077C119.859 232.511 177.927 230.266 192.586 229.695C194.435 229.626 195.979 231.048 195.988 232.84C196 234.546 194.617 235.956 192.856 236.031L105.058 239.821C103.367 239.894 101.898 238.707 101.668 237.084L101.61 236.673C101.352 234.817 102.798 233.149 104.733 233.077Z" fill="#F1CEAB"/>
<path d="M254.449 264C257.19 264.153 261.949 264.401 265.7 264.507C267.954 264.569 269.254 264.429 270 264.236C270 264.291 270 264.342 269.993 264.39C269.983 264.513 269.901 264.63 269.765 264.717C269.629 264.805 269.447 264.856 269.256 264.862C264.349 265.043 259.431 265.046 254.525 264.872C254.43 264.869 254.338 264.85 254.258 264.817C254.178 264.785 254.112 264.739 254.067 264.686C254.022 264.632 253.999 264.571 254 264.51C254.002 264.449 254.027 264.389 254.075 264.336C254.187 264.219 254.312 264.106 254.449 264Z" fill="#ADADAD"/>
<path d="M265.575 264.973C261.716 264.792 256.82 264.367 254 264.105C256.773 260.459 265.575 258 265.575 258H268.06C269.77 260.642 270.018 263.157 269.999 264.509C269.229 264.84 267.894 265.083 265.575 264.973Z" fill="url(#paint6_linear_741_1029)"/>
<path d="M269 254L268.749 258.9C268.736 259.159 268.632 259.405 268.456 259.597C268.279 259.789 268.041 259.915 267.781 259.952C267.106 260.052 266.417 259.996 265.768 259.788C265.538 259.714 265.334 259.58 265.175 259.401C265.017 259.222 264.91 259.004 264.866 258.77L264 254H269Z" fill="url(#paint7_linear_741_1029)"/>
<path d="M301.046 264.288C302.209 264.139 302.738 263.587 302.956 263L302.961 263.015C303.132 263.638 302.735 264.283 301.942 264.59C300.983 264.961 299.935 265.024 299.122 264.993C298.249 264.961 297.447 264.63 297.007 264.102L297 264.094C297.876 264.488 299.106 264.538 301.046 264.288Z" fill="#ADADAD"/>
<path d="M295.443 254H297.436C300.47 253.935 302.377 260.687 303 263.302C302.774 263.998 302.236 264.649 301.048 264.821C299.066 265.112 297.809 265.057 296.913 264.59C295.273 262.314 294.461 258.981 294.07 257.036C293.625 254.826 295.443 254 295.443 254Z" fill="url(#paint8_linear_741_1029)"/>
<path d="M296.94 250L297.968 254.174C298.028 254.423 298.004 254.686 297.899 254.919C297.794 255.152 297.615 255.342 297.391 255.458C296.817 255.759 296.007 256.075 295.264 255.984C295.093 255.961 294.932 255.89 294.798 255.778C294.665 255.667 294.564 255.519 294.508 255.353L293 250.962L296.94 250Z" fill="url(#paint9_linear_741_1029)"/>
<path d="M298 251.224C296.608 252.478 292.081 252.643 292.081 252.643C275.777 212.912 269.106 207.265 269.106 207.265C271.461 222.263 269.486 255.464 269.486 255.464C266.795 256.67 263.327 255.464 263.327 255.464C263.128 234.246 260.331 213.136 255 192.62C266.02 192.367 271.881 188.539 273.795 187C282.982 202.039 298 251.224 298 251.224Z" fill="url(#paint10_linear_741_1029)"/>
<path d="M271.13 141.274C273.239 151.89 272.483 170.891 271.986 179.558C271.847 181.994 273.533 185.371 274.895 187.675C274.947 187.76 274.98 187.855 274.993 187.953C275.007 188.052 275 188.152 274.973 188.248C274.946 188.344 274.9 188.433 274.837 188.51C274.775 188.587 274.697 188.65 274.609 188.695C272.329 189.878 264.601 193.543 255.645 193.999C255.354 194.01 255.068 193.921 254.835 193.746C254.601 193.571 254.434 193.321 254.36 193.037C247.716 168.011 240 152.018 240 152.018C248.515 138.291 271.13 141.274 271.13 141.274Z" fill="url(#paint11_linear_741_1029)"/>
<path d="M268.429 206C268.53 206 268.63 205.977 268.717 205.933C268.805 205.89 268.877 205.828 268.927 205.753C268.976 205.678 269.002 205.593 269 205.507C268.998 205.421 268.97 205.337 268.917 205.264C268.821 205.13 266.513 201.967 261.841 200.057C261.773 200.026 261.698 200.007 261.621 200.002C261.545 199.996 261.467 200.004 261.394 200.024C261.321 200.044 261.254 200.077 261.196 200.12C261.138 200.163 261.091 200.215 261.057 200.274C261.024 200.332 261.004 200.396 261.001 200.461C260.997 200.527 261.009 200.592 261.036 200.653C261.062 200.714 261.103 200.77 261.156 200.817C261.209 200.865 261.273 200.903 261.343 200.929C265.701 202.71 267.919 205.737 267.941 205.768C267.992 205.839 268.064 205.897 268.149 205.938C268.235 205.979 268.331 206 268.429 206Z" fill="url(#paint12_linear_741_1029)"/>
<path d="M284 171.746C283.339 176.749 281.388 182.204 277.484 188L276 186.734C276 186.734 277.713 179.457 276.739 171.2C279.148 170.707 281.992 171.214 284 171.746Z" fill="url(#paint13_linear_741_1029)"/>
<path d="M269 154.897L271.378 142C271.378 142 287.259 153.955 284.726 172C282.646 171.483 279.704 170.989 277.212 171.467C276.486 165.676 274.317 159.39 269 154.897Z" fill="url(#paint14_linear_741_1029)"/>
<path d="M239.843 152L246 165.233C245.005 173.221 240.704 176.675 236.067 178C235.839 175.037 235.141 172.128 234 169.383C239.925 163.279 239.843 152 239.843 152Z" fill="url(#paint15_linear_741_1029)"/>
<path d="M234.018 170C235.112 172.473 235.781 175.094 236 177.764C224.139 182.079 221 173.71 221 173.71L223.194 173.352C228.143 173.836 231.601 172.338 234.018 170Z" fill="url(#paint16_linear_741_1029)"/>
<path d="M246 136.053L248.819 147.375C248.894 147.675 249.026 147.955 249.206 148.195C249.387 148.435 249.612 148.631 249.866 148.769C250.121 148.908 250.4 148.986 250.684 148.998C250.969 149.011 251.252 148.957 251.516 148.841C252.903 148.247 254.26 147.57 255.579 146.813C255.912 146.616 256.203 146.345 256.434 146.018C256.665 145.691 256.831 145.314 256.922 144.912C257.012 144.511 257.024 144.093 256.958 143.686C256.892 143.279 256.749 142.891 256.538 142.548L250.676 133L246 136.053Z" fill="url(#paint17_linear_741_1029)"/>
<path d="M239 127.726C238.974 127.911 241.358 140 241.358 140L248 138.445L247.386 126.639C247.386 126.639 239.431 124.634 239 127.726Z" fill="url(#paint18_linear_741_1029)"/>
<path d="M246.462 129.287L247.307 135.449C247.317 135.527 247.317 135.607 247.307 135.685C247.235 136.172 246.863 137.811 245.15 137.342C243.595 136.915 242.169 136.549 241.184 136.84C240.971 136.904 240.79 137.041 240.676 137.227C240.562 137.413 240.523 137.633 240.568 137.845C240.798 138.938 241.365 141.392 242.194 143.452C242.276 143.654 242.433 143.818 242.634 143.913C242.835 144.007 243.065 144.026 243.28 143.964C244.62 143.586 247.423 142.711 249.508 141.496C249.646 141.416 249.76 141.302 249.837 141.164C249.914 141.027 249.951 140.872 249.945 140.716C249.877 139.156 249.689 134.433 249.844 133.111C249.992 131.866 251.569 131.122 252.254 130.854C252.365 130.811 252.465 130.747 252.55 130.665C252.634 130.583 252.7 130.485 252.744 130.378C253.061 129.607 253.498 127.827 251.18 127.096C251.066 127.061 250.959 127.003 250.868 126.926C250.777 126.85 250.703 126.756 250.65 126.651C250.597 126.546 250.566 126.432 250.56 126.315C250.553 126.199 250.571 126.082 250.612 125.972C250.956 125.047 251.1 123.632 249.303 122.852C247.481 122.061 246.119 123.002 245.385 123.767C245.241 123.915 245.047 124.009 244.838 124.033C244.629 124.057 244.418 124.009 244.242 123.897C244.032 123.769 243.762 123.727 243.437 123.924C243.331 123.985 243.214 124.024 243.091 124.038C242.969 124.053 242.845 124.043 242.728 124.008C242.61 123.974 242.501 123.916 242.408 123.838C242.314 123.76 242.239 123.664 242.186 123.557C241.75 122.689 240.86 121.76 239.075 122.056C235.91 122.581 235.551 125.979 236.386 127.97C237.221 129.961 240.621 129.203 242.327 128.199C243.624 127.436 245.306 128.235 246.038 128.663C246.152 128.73 246.25 128.82 246.323 128.928C246.397 129.036 246.444 129.159 246.462 129.287Z" fill="url(#paint19_linear_741_1029)"/>
<path d="M249.641 135.872C249.641 135.872 248.173 132.286 249.68 131.408C251.188 130.53 253.427 130.986 252.929 133.587C252.319 136.815 249.641 135.872 249.641 135.872Z" fill="url(#paint20_linear_741_1029)"/>
<path d="M221.335 174.886C220.779 175.322 218.875 174.411 217.71 173.782C217.434 173.634 217.218 173.394 217.1 173.104C216.982 172.813 216.968 172.49 217.061 172.191C217.342 171.299 217.809 170.157 218.385 170.012C219.34 169.772 223.625 173.089 221.335 174.886Z" fill="url(#paint21_linear_741_1029)"/>
<path d="M325.718 205.277L164.528 148L156 171.668L317.131 230.545C318.789 231.149 320.607 231.152 322.266 230.552C323.926 229.952 325.321 228.787 326.207 227.263C328.091 224.031 329.89 218.981 329.999 211.418C330.016 210.076 329.613 208.762 328.845 207.661C328.077 206.56 326.984 205.726 325.718 205.277Z" fill="#FA8617"/>
<path d="M114.285 142.009L137 144.682C136.976 147.678 135.952 151.554 132.487 156L113.517 144.008C112.509 143.372 113.087 141.869 114.285 142.009Z" fill="#FA8617"/>
<path d="M164.924 147.379C165.941 162.183 156.422 171 156.422 171L133 155.544C136.386 151.009 137.386 147.056 137.409 144L164.924 147.379Z" fill="url(#paint22_linear_741_1029)"/>
<path d="M323.526 212C323.638 212 323.746 211.961 323.832 211.89C323.917 211.818 323.974 211.719 323.993 211.61C324.012 211.5 323.991 211.388 323.935 211.292C323.878 211.196 323.789 211.124 323.683 211.087L169.631 157.027C169.572 157.006 169.51 156.997 169.448 157.001C169.386 157.004 169.325 157.019 169.269 157.046C169.156 157.099 169.069 157.196 169.027 157.313C168.985 157.43 168.992 157.56 169.046 157.672C169.1 157.785 169.197 157.871 169.315 157.913L323.368 211.973C323.419 211.991 323.472 212 323.526 212Z" fill="#EEF0F3"/>
<path d="M320.526 221C320.638 221 320.746 220.961 320.832 220.89C320.917 220.818 320.974 220.719 320.993 220.61C321.012 220.5 320.991 220.388 320.935 220.292C320.878 220.196 320.789 220.124 320.683 220.087L166.631 166.027C166.513 165.985 166.383 165.992 166.269 166.046C166.156 166.099 166.069 166.196 166.027 166.313C165.985 166.43 165.992 166.56 166.046 166.672C166.1 166.785 166.197 166.871 166.315 166.913L320.368 220.973C320.418 220.991 320.472 221 320.526 221Z" fill="#EEF0F3"/>
<path d="M276.674 186.505L269.924 186L267 188.471C267 188.471 267.691 189.348 269.854 188.844C272.016 188.34 274.978 188.216 274.978 188.216C274.978 188.216 277.964 189.45 278 187.141L276.674 186.505Z" fill="url(#paint23_linear_741_1029)"/>
</g>
<defs>
<radialGradient id="paint0_radial_741_1029" cx="0" cy="0" r="1" gradientUnits="userSpaceOnUse" gradientTransform="translate(62.5 52.5) rotate(63.4982) scale(285.229 411.524)">
<stop stop-color="#FA8617"/>
<stop offset="1" stop-color="#FA8617" stop-opacity="0"/>
</radialGradient>
<radialGradient id="paint1_radial_741_1029" cx="0" cy="0" r="1" gradientUnits="userSpaceOnUse" gradientTransform="translate(189.983 164.208) rotate(89.9967) scale(293.292 322.959)">
<stop offset="0.260417" stop-color="#FA8617"/>
<stop offset="0.869792" stop-color="#FA8617" stop-opacity="0.3"/>
</radialGradient>
<radialGradient id="paint2_radial_741_1029" cx="0" cy="0" r="1" gradientUnits="userSpaceOnUse" gradientTransform="translate(176.923 155.87) rotate(45.9549) scale(171.997 170.178)">
<stop stop-color="#8932A2"/>
<stop offset="1" stop-color="#FFB56A"/>
</radialGradient>
<linearGradient id="paint3_linear_741_1029" x1="250.003" y1="125.993" x2="275.011" y2="125.993" gradientUnits="userSpaceOnUse">
<stop stop-color="white"/>
<stop offset="1" stop-color="#E9EFFD"/>
</linearGradient>
<linearGradient id="paint4_linear_741_1029" x1="218.38" y1="258.552" x2="162.8" y2="90.785" gradientUnits="userSpaceOnUse">
<stop stop-color="#F7F7F7"/>
<stop offset="1" stop-color="#FFFEFC"/>
</linearGradient>
<linearGradient id="paint5_linear_741_1029" x1="70.3658" y1="260.617" x2="321.525" y2="123.267" gradientUnits="userSpaceOnUse">
<stop stop-color="#E3E3E3"/>
<stop offset="1" stop-color="#BCBCBC"/>
</linearGradient>
<linearGradient id="paint6_linear_741_1029" x1="270" y1="261.5" x2="254" y2="261.5" gradientUnits="userSpaceOnUse">
<stop/>
<stop offset="1" stop-color="#2C2C2C"/>
</linearGradient>
<linearGradient id="paint7_linear_741_1029" x1="271.346" y1="252.985" x2="303.685" y2="228.189" gradientUnits="userSpaceOnUse">
<stop stop-color="#FEBBBA"/>
<stop offset="1" stop-color="#FF928E"/>
</linearGradient>
<linearGradient id="paint8_linear_741_1029" x1="303" y1="259.501" x2="294" y2="259.501" gradientUnits="userSpaceOnUse">
<stop/>
<stop offset="1" stop-color="#242424"/>
</linearGradient>
<linearGradient id="paint9_linear_741_1029" x1="297.681" y1="251.366" x2="322.584" y2="233.582" gradientUnits="userSpaceOnUse">
<stop stop-color="#FEBBBA"/>
<stop offset="1" stop-color="#FF928E"/>
</linearGradient>
<linearGradient id="paint10_linear_741_1029" x1="327.041" y1="123.621" x2="284.183" y2="204.486" gradientUnits="userSpaceOnUse">
<stop stop-color="#171734"/>
<stop offset="1" stop-color="#030303"/>
</linearGradient>
<linearGradient id="paint11_linear_741_1029" x1="228.993" y1="137.688" x2="356.218" y2="247.371" gradientUnits="userSpaceOnUse">
<stop stop-color="#171734"/>
<stop offset="1"/>
</linearGradient>
<linearGradient id="paint12_linear_741_1029" x1="280.991" y1="230.091" x2="278.817" y2="224.959" gradientUnits="userSpaceOnUse">
<stop stop-color="#53D8FF"/>
<stop offset="1" stop-color="#3840F7"/>
</linearGradient>
<linearGradient id="paint13_linear_741_1029" x1="290.046" y1="188.554" x2="309.924" y2="205.367" gradientUnits="userSpaceOnUse">
<stop stop-color="#FEBBBA"/>
<stop offset="1" stop-color="#FF928E"/>
</linearGradient>
<linearGradient id="paint14_linear_741_1029" x1="239.491" y1="126.909" x2="364.605" y2="237.413" gradientUnits="userSpaceOnUse">
<stop/>
<stop offset="1" stop-color="#171734"/>
</linearGradient>
<linearGradient id="paint15_linear_741_1029" x1="219.343" y1="148.844" x2="346.463" y2="259.63" gradientUnits="userSpaceOnUse">
<stop stop-color="#171734"/>
<stop offset="1"/>
</linearGradient>
<linearGradient id="paint16_linear_741_1029" x1="236" y1="174.5" x2="221" y2="174.5" gradientUnits="userSpaceOnUse">
<stop stop-color="#FEBBBA"/>
<stop offset="1" stop-color="#FF928E"/>
</linearGradient>
<linearGradient id="paint17_linear_741_1029" x1="251.461" y1="132.932" x2="251.655" y2="163.203" gradientUnits="userSpaceOnUse">
<stop stop-color="#FEBBBA"/>
<stop offset="1" stop-color="#FF928E"/>
</linearGradient>
<linearGradient id="paint18_linear_741_1029" x1="242.434" y1="127.59" x2="254.029" y2="147.775" gradientUnits="userSpaceOnUse">
<stop stop-color="#FEBBBA"/>
<stop offset="1" stop-color="#FF928E"/>
</linearGradient>
<linearGradient id="paint19_linear_741_1029" x1="253.14" y1="133.574" x2="235.951" y2="131.064" gradientUnits="userSpaceOnUse">
<stop/>
<stop offset="1"/>
</linearGradient>
<linearGradient id="paint20_linear_741_1029" x1="262.74" y1="145.798" x2="253.488" y2="131.32" gradientUnits="userSpaceOnUse">
<stop stop-color="#FEBBBA"/>
<stop offset="1" stop-color="#FF928E"/>
</linearGradient>
<linearGradient id="paint21_linear_741_1029" x1="221.999" y1="172.5" x2="216.999" y2="172.5" gradientUnits="userSpaceOnUse">
<stop stop-color="#FEBBBA"/>
<stop offset="1" stop-color="#FF928E"/>
</linearGradient>
<linearGradient id="paint22_linear_741_1029" x1="126.147" y1="128.005" x2="239.846" y2="244.816" gradientUnits="userSpaceOnUse">
<stop stop-color="#F2F3F4"/>
<stop offset="1" stop-color="#DCE1EC"/>
</linearGradient>
<linearGradient id="paint23_linear_741_1029" x1="265.75" y1="182.333" x2="282.942" y2="198.938" gradientUnits="userSpaceOnUse">
<stop stop-color="#FEBBBA"/>
<stop offset="1" stop-color="#FF928E"/>
</linearGradient>
<clipPath id="clip0_741_1029">
<rect width="370.91" height="364.96" fill="white"/>
</clipPath>
</defs>
</svg>
