<?xml version="1.0" encoding="utf-8"?>
<!-- Generator: Adobe Illustrator 26.0.0, SVG Export Plug-In . SVG Version: 6.00 Build 0)  -->
<svg version="1.1" id="Layer_1" xmlns="http://www.w3.org/2000/svg" xmlns:xlink="http://www.w3.org/1999/xlink" x="0px" y="0px"
	 viewBox="0 0 35 33" style="enable-background:new 0 0 35 33;" xml:space="preserve">
<style type="text/css">
	.st0{fill:#FA8617;}
	.st1{fill:none;stroke:#CACACA;}
</style>
<g>
	<path class="st0" d="M0.3,5.4l0.9-0.7C1.4,5.2,1.7,5.4,2,5.4c0.5,0,0.7-0.2,0.7-1V0.5H4v3.9c0,1.1-0.6,2.1-1.9,2.1
		C1.3,6.5,0.7,6.2,0.3,5.4z"/>
	<path class="st0" d="M5.4,0.5h2c1.3,0,2.3,0.5,2.3,1.9s-1.1,2-2.3,2H6.8v2H5.4V0.5z M7.4,3.4c0.7,0,1.1-0.3,1.1-0.9
		S8.1,1.7,7.4,1.7H6.8v1.8L7.4,3.4L7.4,3.4z"/>
	<path class="st0" d="M10.5,3.5c0-1.9,1.3-3.1,2.9-3.1c0.9,0,1.5,0.4,1.9,0.8L14.5,2c-0.3-0.3-0.6-0.5-1.1-0.5
		c-0.9,0-1.5,0.7-1.5,1.9s0.5,1.9,1.7,1.9c0.2,0,0.5-0.1,0.6-0.2v-1h-1v-1h2.1v2.7c-0.4,0.4-1.1,0.7-1.9,0.7
		C11.8,6.5,10.5,5.5,10.5,3.5z"/>
	<path id="cla1" class="st0" d="M17.2,16.8h11.7c0.3,0,0.5,0.2,0.5,0.5s-0.2,0.5-0.5,0.5H17.2c-0.3,0-0.5-0.2-0.5-0.5
		S16.9,16.8,17.2,16.8z M10.1,16.8h3.2c0.3,0,0.5,0.2,0.5,0.5s-0.2,0.5-0.5,0.5h-3.2c-0.3,0-0.5-0.2-0.5-0.5S9.8,16.8,10.1,16.8z
		 M29,22.1H10.1c-0.3,0-0.5-0.2-0.5-0.5s0.2-0.5,0.5-0.5H29c0.3,0,0.5,0.2,0.5,0.5S29.3,22.1,29,22.1z"/>
</g>
<path class="st1" d="M18.5,0.5c8.8,0,16,7.2,16,16s-7.2,16-16,16s-16-7.2-16-16c0-3.1,0.9-6,2.4-8.5"/>
</svg>
