<svg width="459" height="458" viewBox="0 0 459 458" fill="none" xmlns="http://www.w3.org/2000/svg">
<g clip-path="url(#clip0_816_1451)">
<path style="mix-blend-mode:multiply" d="M377.638 221.352C377.638 221.352 373.024 205.074 354.265 121.645C335.506 38.2152 248.031 60.3109 226.093 67.3049C204.154 74.299 163.003 87.5977 101.493 106.534C39.9833 125.471 5.66303 155.282 0.638397 190.949C-4.38623 226.615 29.9914 264.609 77.301 277.843C129.106 292.337 171.916 314.842 182.265 377.769C195.322 457.197 283.369 487.269 347.349 423.629C411.329 359.989 388.67 272.336 377.638 221.352Z" fill="url(#paint0_radial_816_1451)"/>
<path style="mix-blend-mode:multiply" d="M367.788 283.582C380.617 229.255 350.813 183.136 305.769 174.809C277.1 169.509 244.923 155.232 216.13 99.2224C185.228 39.0956 104.12 -3.0453 52.2947 87.3717C-13.7129 202.517 14.2656 274.818 33.9807 312.345C76.14 392.608 181.585 424.735 244.248 404.488C305.777 384.612 354.572 339.559 367.788 283.582Z" fill="url(#paint1_radial_816_1451)"/>
<path style="mix-blend-mode:multiply" d="M457.513 164.038C455.011 133.946 421.973 101.389 367.623 109.025C306.484 117.621 237.623 99.5998 179.53 77.4572C119.725 54.6647 70.479 80.0418 55.3062 104.64C38.6745 131.61 42.2888 179.319 87.3104 261.065C132.332 342.811 173.843 382.212 218.211 400.689C262.579 419.166 303.68 410.394 340.582 377.565C366.386 354.611 380.764 317.535 404.839 270.75C434.904 212.324 461.134 207.563 457.513 164.038Z" fill="url(#paint2_radial_816_1451)"/>
<g opacity="0.31">
<path d="M285.966 31.3822C286.113 24.0423 280.403 17.9756 273.212 17.8318C266.021 17.688 260.073 23.5215 259.926 30.8614C259.779 38.2013 265.489 44.268 272.68 44.4118C279.871 44.5556 285.819 38.7221 285.966 31.3822Z" fill="#D9DADA"/>
</g>
<g opacity="0.31">
<path d="M105.016 74.2177C105.114 75.5356 105.598 76.7955 106.408 77.8396C107.218 78.8837 108.318 79.6658 109.571 80.0879C110.823 80.5101 112.172 80.5536 113.449 80.2131C114.726 79.8725 115.874 79.163 116.75 78.1732C117.626 77.1835 118.19 75.9575 118.373 74.6486C118.555 73.3397 118.348 72.0061 117.777 70.8144C117.205 69.6227 116.295 68.626 115.16 67.949C114.025 67.2719 112.716 66.9445 111.396 67.0077C110.501 67.056 109.625 67.2816 108.819 67.6713C108.012 68.0611 107.291 68.6073 106.697 69.2781C106.104 69.949 105.649 70.7311 105.361 71.5791C105.072 72.4271 104.955 73.324 105.016 74.2177Z" fill="#D9DADA"/>
</g>
<g opacity="0.31">
<path d="M455.501 185.61C455.565 186.483 455.886 187.318 456.422 188.01C456.958 188.702 457.687 189.221 458.516 189.501C459.346 189.781 460.24 189.81 461.086 189.585C461.932 189.359 462.692 188.889 463.272 188.233C463.853 187.578 464.226 186.765 464.347 185.898C464.468 185.031 464.33 184.147 463.951 183.358C463.572 182.569 462.968 181.909 462.216 181.461C461.464 181.013 460.596 180.797 459.721 180.84C459.131 180.874 458.552 181.025 458.02 181.284C457.487 181.543 457.012 181.904 456.619 182.347C456.227 182.791 455.926 183.307 455.735 183.867C455.543 184.427 455.463 185.019 455.501 185.61Z" fill="#E1E2FE"/>
</g>
<path d="M431.358 422.282C431.494 415.766 426.431 410.376 420.05 410.242C413.668 410.108 408.384 415.282 408.247 421.798C408.111 428.313 413.174 433.704 419.555 433.838C425.937 433.971 431.221 428.798 431.358 422.282Z" fill="#FA8617"/>
<g opacity="0.58">
<path d="M377.5 431C379.985 431 382 428.985 382 426.5C382 424.015 379.985 422 377.5 422C375.015 422 373 424.015 373 426.5C373 428.985 375.015 431 377.5 431Z" fill="#D9DADA"/>
</g>
<g opacity="0.58">
<path d="M237.25 23.4688C238.493 23.4688 239.5 22.4614 239.5 21.2188C239.5 19.9761 238.493 18.9688 237.25 18.9688C236.007 18.9688 235 19.9761 235 21.2188C235 22.4614 236.007 23.4688 237.25 23.4688Z" fill="#D9DADA"/>
</g>
<g opacity="0.58">
<path d="M114.719 430.78C117.204 430.78 119.219 428.765 119.219 426.28C119.219 423.795 117.204 421.78 114.719 421.78C112.233 421.78 110.219 423.795 110.219 426.28C110.219 428.765 112.233 430.78 114.719 430.78Z" fill="#D9DADA"/>
</g>
<path opacity="0.31" d="M397.5 445C399.433 445 401 443.433 401 441.5C401 439.567 399.433 438 397.5 438C395.567 438 394 439.567 394 441.5C394 443.433 395.567 445 397.5 445Z" fill="#FA8617"/>
<g opacity="0.58">
<path d="M83.5 54.0339C84.3284 54.0339 85 53.3624 85 52.5339C85 51.7055 84.3284 51.0339 83.5 51.0339C82.6716 51.0339 82 51.7055 82 52.5339C82 53.3624 82.6716 54.0339 83.5 54.0339Z" fill="#D9DADA"/>
</g>
<path d="M452.499 60.6701C454.709 66.0401 449.719 70.2301 445.319 68.2201C444.406 67.7943 443.631 67.1203 443.083 66.2751C442.534 65.4298 442.235 64.4474 442.219 63.4401C442.219 58.6001 448.049 55.7701 452.049 59.9701C452.237 60.1761 452.39 60.4129 452.499 60.6701Z" fill="#FA8617"/>
<path d="M100.64 38.0238C100.661 38.4877 100.529 38.9457 100.265 39.3274C100 39.7092 99.6179 39.9935 99.1761 40.1367C98.7344 40.2799 98.2578 40.2741 97.8197 40.1202C97.3815 39.9662 97.006 39.6727 96.7509 39.2847C96.4958 38.8966 96.3751 38.4355 96.4075 37.9723C96.4399 37.509 96.6234 37.0692 96.93 36.7204C97.2366 36.3716 97.6493 36.1331 98.1046 36.0416C98.5599 35.9501 99.0326 36.0106 99.4502 36.2138C99.7949 36.378 100.088 36.6335 100.298 36.9526C100.508 37.2717 100.626 37.6422 100.64 38.0238Z" fill="#FA8617"/>
<path opacity="0.58" d="M256.891 3.03903C256.909 3.50294 256.773 3.95985 256.506 4.33959C256.239 4.71932 255.855 5.0009 255.412 5.14107C254.97 5.28124 254.493 5.27225 254.056 5.11549C253.62 4.95873 253.246 4.66286 252.994 4.27331C252.741 3.88377 252.623 3.4221 252.658 2.95919C252.694 2.49627 252.88 2.05772 253.188 1.71086C253.497 1.36401 253.911 1.12804 254.367 1.03919C254.822 0.95034 255.295 1.01352 255.711 1.21903C256.053 1.38803 256.343 1.64634 256.551 1.96669C256.759 2.28703 256.876 2.65752 256.891 3.03903Z" fill="#FA8617"/>
<g opacity="0.58">
<path d="M422.049 69.11C422.005 69.3458 421.914 69.5703 421.781 69.7703C421.649 69.9703 421.477 70.1418 421.278 70.2747C421.078 70.4077 420.854 70.4993 420.618 70.5443C420.382 70.5893 420.14 70.5867 419.905 70.5367C419.671 70.4867 419.448 70.3903 419.252 70.2531C419.055 70.116 418.887 69.9409 418.759 69.7381C418.631 69.5353 418.544 69.3089 418.505 69.0722C418.466 68.8356 418.474 68.5934 418.529 68.36C418.574 68.1242 418.665 67.8998 418.797 67.6997C418.93 67.4997 419.101 67.3282 419.301 67.1953C419.501 67.0624 419.725 66.9707 419.961 66.9257C420.196 66.8807 420.438 66.8833 420.673 66.9333C420.908 66.9833 421.13 67.0797 421.327 67.2169C421.524 67.354 421.691 67.5291 421.819 67.7319C421.948 67.9347 422.034 68.1611 422.074 68.3978C422.113 68.6344 422.105 68.8766 422.049 69.11Z" fill="#D9DADA"/>
</g>
<path d="M24.5086 379.52C24.4333 379.868 24.2566 380.186 24.0008 380.433C23.745 380.681 23.4215 380.847 23.0713 380.911C22.7211 380.974 22.3598 380.933 22.0333 380.791C21.7067 380.65 21.4294 380.414 21.2365 380.115C21.0436 379.816 20.9437 379.466 20.9495 379.11C20.9552 378.755 21.0664 378.408 21.2689 378.116C21.4714 377.823 21.7562 377.597 22.0872 377.466C22.4182 377.335 22.7806 377.305 23.1286 377.38C23.3597 377.43 23.5788 377.525 23.7733 377.659C23.9677 377.794 24.1338 377.965 24.262 378.164C24.3901 378.363 24.4779 378.585 24.5202 378.818C24.5625 379.05 24.5585 379.289 24.5086 379.52Z" fill="#FA8617"/>
<g clip-path="url(#clip1_816_1451)">
<path d="M158.7 167.8V263H269.6C277.1 263 283.1 269.1 283.1 276.5C283.1 284 277 290 269.6 290H142.1C134.3 290.1 128 283.8 128 276V153.1C128 145.3 134.3 139 142.1 139H269.5C277 139 283 145.1 283 152.5V154.2C283 161.7 276.9 167.7 269.5 167.7H158.7V167.8Z" fill="white"/>
<path d="M243.402 230.1V235.4H247.402V238.9H243.402V242.8H247.402V246.2H243.402V250.1H247.402V253.6H243.402V255.5H216.002V253.6H212.002V250.1H216.002V246.2H212.002V242.8H216.002V238.9H212.002V235.4H216.002V230.1H199.602V222.5H260.302V230.1H243.402Z" fill="white"/>
<path d="M286.099 327.2C286.099 335.1 279.699 341.5 271.799 341.5C265.299 341.5 259.899 337.2 258.099 331.4H243.399C242.599 338.2 236.799 343.5 229.799 343.5C222.799 343.5 216.999 338.2 216.199 331.4H201.199C199.399 337.2 193.899 341.5 187.499 341.5C179.599 341.5 173.199 335.1 173.199 327.2C173.199 319.3 179.599 312.9 187.499 312.9C193.699 312.9 198.999 316.8 200.999 322.3H215.999V319H211.999V315.5H215.999V311.6H211.999V308.1H215.999V304.2H211.999V300.7H215.999V298.5H243.399V300.7H247.399V304.2H243.399V308.1H247.399V311.6H243.399V315.5H247.399V319H243.399V322.3H258.199C260.199 316.8 265.499 312.9 271.699 312.9C279.699 312.9 286.099 319.3 286.099 327.2Z" fill="white"/>
<path d="M215.471 193.687H205.921V187.236C205.921 185.413 205.78 184.292 205.64 183.731C205.499 183.31 204.938 183.03 204.235 183.03C203.393 183.03 202.971 183.31 202.69 183.871C202.55 184.432 202.41 185.694 202.41 187.517V204.484C202.41 206.306 202.55 207.428 202.69 207.989C202.831 208.55 203.393 208.83 204.095 208.83C204.797 208.83 205.218 208.55 205.499 207.989C205.78 207.428 205.78 206.166 205.78 204.203V199.576H215.471V200.978C215.471 204.764 215.19 207.428 214.628 208.971C214.066 210.513 212.943 211.915 211.117 213.177C209.291 214.299 207.044 215 204.376 215C201.567 215 199.32 214.439 197.494 213.458C195.668 212.476 194.545 211.074 193.843 209.251C193.281 207.428 193 204.764 193 201.258V190.602C193 187.937 193.14 185.974 193.281 184.712C193.421 183.45 193.983 182.188 194.826 180.926C195.668 179.664 196.932 178.823 198.477 178.122C200.022 177.421 201.848 177.14 203.954 177.14C206.763 177.14 209.01 177.701 210.836 178.823C212.662 179.945 213.785 181.207 214.488 182.889C215.049 184.432 215.33 186.956 215.33 190.461V193.687H215.471Z" fill="white"/>
<path d="M239.063 188.779H230.215V186.114C230.215 184.852 230.075 184.011 229.934 183.731C229.653 183.45 229.372 183.17 228.811 183.17C228.249 183.17 227.828 183.45 227.547 183.871C227.266 184.292 227.125 184.993 227.125 185.974C227.125 187.236 227.266 188.077 227.687 188.779C227.968 189.339 228.951 190.181 230.355 191.022C234.569 193.546 237.237 195.649 238.361 197.192C239.484 198.734 240.046 201.399 240.046 204.904C240.046 207.568 239.765 209.391 239.063 210.653C238.501 211.915 237.237 212.897 235.552 213.738C233.867 214.579 231.76 215 229.513 215C226.985 215 224.738 214.579 223.053 213.598C221.227 212.616 220.103 211.354 219.542 209.952C218.98 208.55 218.699 206.306 218.699 203.642V201.258H227.547V205.745C227.547 207.148 227.687 207.989 227.968 208.41C228.249 208.83 228.67 208.97 229.232 208.97C229.794 208.97 230.355 208.69 230.636 208.269C230.917 207.708 231.058 207.007 231.058 206.026C231.058 203.923 230.777 202.52 230.215 201.819C229.653 201.118 228.108 199.996 225.721 198.454C223.333 196.911 221.789 195.79 221.086 195.089C220.384 194.387 219.682 193.406 219.12 192.144C218.558 190.882 218.418 189.339 218.418 187.376C218.418 184.572 218.839 182.609 219.542 181.207C220.244 179.945 221.367 178.963 223.053 178.122C224.597 177.421 226.564 177 228.811 177C231.339 177 233.445 177.421 235.13 178.262C236.816 179.103 238.08 180.085 238.642 181.207C239.203 182.469 239.484 184.432 239.484 187.376V188.779H239.063Z" fill="white"/>
<path d="M262.938 188.779H254.09V186.114C254.09 184.852 253.95 184.011 253.809 183.731C253.528 183.45 253.247 183.17 252.686 183.17C252.124 183.17 251.703 183.45 251.422 183.871C251.141 184.292 251 184.993 251 185.974C251 187.236 251.141 188.077 251.562 188.779C251.843 189.339 252.826 190.181 254.23 191.022C258.444 193.546 261.112 195.649 262.236 197.192C263.359 198.734 263.921 201.399 263.921 204.904C263.921 207.568 263.64 209.391 262.938 210.653C262.376 211.915 261.112 212.897 259.427 213.738C257.742 214.579 255.635 215 253.388 215C250.86 215 248.613 214.579 246.928 213.598C245.102 212.616 243.978 211.354 243.417 209.952C242.855 208.41 242.574 206.306 242.574 203.642V201.258H251.422V205.745C251.422 207.148 251.562 207.989 251.843 208.41C252.124 208.83 252.545 208.97 253.107 208.97C253.669 208.97 254.23 208.69 254.511 208.269C254.792 207.708 254.933 207.007 254.933 206.026C254.933 203.923 254.652 202.52 254.09 201.819C253.528 201.118 251.983 199.996 249.596 198.454C247.208 196.911 245.664 195.79 244.961 195.089C244.259 194.387 243.557 193.406 242.995 192.144C242.433 190.882 242.293 189.339 242.293 187.376C242.293 184.572 242.714 182.609 243.417 181.207C244.119 179.945 245.242 178.963 246.928 178.122C248.472 177.421 250.439 177 252.686 177C255.214 177 257.32 177.421 259.005 178.262C260.691 179.103 261.955 180.085 262.517 181.207C263.078 182.469 263.359 184.432 263.359 187.376V188.779H262.938Z" fill="white"/>
</g>
</g>
<defs>
<radialGradient id="paint0_radial_816_1451" cx="0" cy="0" r="1" gradientUnits="userSpaceOnUse" gradientTransform="translate(221.533 228.242) rotate(30) scale(200.792 200.473)">
<stop stop-color="#F78620"/>
<stop offset="1" stop-color="#FFB56A"/>
</radialGradient>
<radialGradient id="paint1_radial_816_1451" cx="0" cy="0" r="1" gradientUnits="userSpaceOnUse" gradientTransform="translate(180.944 243.092) rotate(30) scale(175.424 176.897)">
<stop stop-color="#FFB56A"/>
<stop offset="1" stop-color="#F78620"/>
</radialGradient>
<radialGradient id="paint2_radial_816_1451" cx="0" cy="0" r="1" gradientUnits="userSpaceOnUse" gradientTransform="translate(224.08 204.967) rotate(30) scale(186.858 184.714)">
<stop stop-color="#8932A2"/>
<stop offset="1" stop-color="#FFB56A"/>
</radialGradient>
<clipPath id="clip0_816_1451">
<rect width="459" height="458" fill="white"/>
</clipPath>
<clipPath id="clip1_816_1451">
<rect width="158.1" height="204.6" fill="white" transform="translate(128 139)"/>
</clipPath>
</defs>
</svg>
