<svg width="150" height="137" viewBox="0 0 150 137" fill="none" xmlns="http://www.w3.org/2000/svg">
<g clip-path="url(#clip0_811_529)">
<path style="mix-blend-mode:multiply" d="M122 39.6068C122 39.6068 117.755 35.4825 97.479 13.488C77.203 -8.50656 54.5666 13.488 49.1435 19.4442C43.7203 25.4005 33.5795 36.6273 18.2568 53.1231C2.93405 69.619 -2.24919 84.6536 2.46713 96.3381C7.18346 108.022 24.2439 113.52 40.8917 109.254C59.1216 104.584 76.0278 103.914 90.1696 121.168C108.018 142.947 139.953 136.658 148.205 106.186C156.457 75.715 134.26 53.1231 122 39.6068Z" fill="url(#paint0_radial_811_529)"/>
<path style="mix-blend-mode:multiply" d="M129.901 60.1827C124.285 41.4799 107.189 32.7209 92.0865 38.077C82.4739 41.4856 70.2283 42.7886 51.7085 30.8562C31.8294 18.0455 -0.113926 19.4654 0.000305532 55.9229C0.143095 102.353 21.2659 119.363 33.8028 127.284C60.6143 144.226 98.1793 135.515 113.622 118.421C128.786 101.637 135.689 79.4528 129.901 60.1827Z" fill="url(#paint1_radial_811_529)"/>
<path style="mix-blend-mode:multiply" d="M136.175 8.27143C130.154 -0.407764 114.45 -4.49218 99.3197 7.32767C82.3006 20.6259 58.2864 27.2108 36.8137 30.6637C14.7085 34.2192 4.22782 50.5212 3.93367 60.6274C3.6124 71.7074 13.0522 85.5288 40.9903 102.42C68.9284 119.31 88.3963 123.986 105.07 121.824C121.743 119.661 132.661 109.814 138.098 93.4139C141.901 81.9462 139.772 68.1989 138.882 49.8141C137.771 26.8544 144.885 20.824 136.175 8.27143Z" fill="url(#paint2_radial_811_529)"/>
<path d="M96.6657 48.1758H84.8826L80.8703 44.1434C80.4352 43.7074 79.698 44.0223 79.698 44.6156V55.6109C79.698 56.3859 80.3264 56.9914 81.0757 56.9914H92.0612C92.6655 56.9914 92.9676 56.2527 92.5447 55.8168L88.5203 51.8086H94.0916C94.4662 51.8086 94.7684 52.1113 94.7684 52.4867V97.7516C94.7684 98.127 94.4662 98.4297 94.0916 98.4297H59.9627C59.588 98.4297 59.2859 98.127 59.2859 97.7516V94.8574H89.1366C90.2364 94.8574 91.1307 94.0098 91.2032 92.932V92.7988L91.179 61.4113H76.7129C75.9394 61.4113 75.3352 60.7937 75.3352 60.0309V43.9375H52.6994C51.5513 43.9375 50.6328 44.8578 50.6328 46.0082V92.7867C50.6328 93.925 51.5513 94.8574 52.6994 94.8574H55.6724V100.367C55.6724 101.312 56.4338 102.075 57.3764 102.075H96.6778C97.6205 102.075 98.3819 101.312 98.3819 100.367V49.8711C98.3698 48.9266 97.6084 48.1758 96.6657 48.1758Z" fill="white"/>
</g>
<defs>
<radialGradient id="paint0_radial_811_529" cx="0" cy="0" r="1" gradientUnits="userSpaceOnUse" gradientTransform="translate(75.9122 68.9989) scale(70.2423 70.1307)">
<stop stop-color="#F78620"/>
<stop offset="1" stop-color="#FFB56A"/>
</radialGradient>
<radialGradient id="paint1_radial_811_529" cx="0" cy="0" r="1" gradientUnits="userSpaceOnUse" gradientTransform="translate(66.2131 80.5972) scale(61.3679 61.8831)">
<stop stop-color="#FFB56A"/>
<stop offset="1" stop-color="#F78620"/>
</radialGradient>
<radialGradient id="paint2_radial_811_529" cx="0" cy="0" r="1" gradientUnits="userSpaceOnUse" gradientTransform="translate(72.6136 61.5014) scale(65.3678 64.6178)">
<stop stop-color="#8932A2"/>
<stop offset="1" stop-color="#FFB56A"/>
</radialGradient>
<clipPath id="clip0_811_529">
<rect width="150" height="136.432" fill="white"/>
</clipPath>
</defs>
</svg>
