<?xml version="1.0" encoding="utf-8"?>
<!-- Generator: Adobe Illustrator 26.0.0, SVG Export Plug-In . SVG Version: 6.00 Build 0)  -->
<svg version="1.1" id="Layer_1" xmlns="http://www.w3.org/2000/svg" xmlns:xlink="http://www.w3.org/1999/xlink" x="0px" y="0px"
	 viewBox="0 0 35 33" style="enable-background:new 0 0 35 33;" xml:space="preserve">
<style type="text/css">
	.st0{fill:none;stroke:#CACACA;}
	.st1{fill:#FA8617;}
</style>
<path class="st0" d="M17.6,0.5C26.4,0.1,34,6.8,34.5,15.6C35,24.5,28.2,32,19.4,32.5C10.5,32.9,3,26.3,2.5,17.4"/>
<g>
	<path class="st1" d="M28.9,21.1H10c-0.3,0-0.5,0.2-0.5,0.5s0.2,0.5,0.5,0.5h18.9c0.3,0,0.5-0.2,0.5-0.5
		C29.4,21.3,29.2,21.1,28.9,21.1z M28.9,16.8H17.1c-0.3,0-0.5,0.2-0.5,0.5s0.2,0.5,0.5,0.5h11.7c0.3,0,0.5-0.2,0.5-0.5
		C29.4,17,29.2,16.8,28.9,16.8z M13.2,16.8H10c-0.3,0-0.5,0.2-0.5,0.5s0.2,0.5,0.5,0.5h3.2c0.3,0,0.5-0.2,0.5-0.5
		S13.4,16.8,13.2,16.8z"/>
	<path class="st1" d="M14.9,10.9V7.3c0-0.1,0-0.1,0-0.2l0,0C14.9,7.1,15,7,15,7s0.1-0.1,0.2-0.1l0,0c0.1,0,0.1,0,0.2,0H19
		c0.3,0,0.5,0.2,0.5,0.5S19.3,7.9,19,7.9h-2.4l6.2,6.2c0.2,0.2,0.2,0.5,0,0.7s-0.5,0.2-0.7,0l-6.2-6.2V11c0,0.3-0.2,0.5-0.5,0.5
		C15.1,11.4,14.9,11.2,14.9,10.9z"/>
	<path class="st1" d="M0,5.4c0-0.5,0.4-0.9,0.8-0.9c0.5,0,0.8,0.4,0.8,0.9S1.2,6.3,0.8,6.3S0,5.9,0,5.4z"/>
	<path class="st1" d="M2.6,3.1c0-2,0.9-3.1,2.2-3.1S7,1.1,7,3.1c0,2.1-0.9,3.2-2.2,3.2S2.6,5.2,2.6,3.1z M5.6,3.1c0-1.6-0.4-2-0.8-2
		C4.3,1.1,4,1.5,4,3.1s0.4,2.1,0.8,2.1S5.6,4.8,5.6,3.1z"/>
	<path class="st1" d="M7.6,3.1c0-2,0.9-3.1,2.2-3.1S12,1.1,12,3.1c0,2.1-0.9,3.2-2.2,3.2S7.6,5.2,7.6,3.1z M10.6,3.1
		c0-1.6-0.4-2-0.8-2C9.3,1.1,9,1.5,9,3.1s0.4,2.1,0.8,2.1C10.3,5.2,10.6,4.8,10.6,3.1z"/>
	<path class="st1" d="M5.3,11.6v1.6c0,0.2,0.3,0.3,0.4,0.2l2.9-2.7c0.1-0.1,0.1-0.2,0-0.3C8.1,9.8,6.4,8.2,5.7,7.5
		c-0.2-0.1-0.4,0-0.4,0.2v1.6H0v2.3H5.3L5.3,11.6L5.3,11.6z"/>
</g>
</svg>
