<svg width="523" height="380" viewBox="0 0 523 380" fill="none" xmlns="http://www.w3.org/2000/svg">
<g clip-path="url(#clip0_811_492)">
<path d="M297.852 112.079C297.807 110.226 298.139 108.383 298.828 106.662C299.517 104.941 300.548 103.377 301.859 102.067C303.17 100.756 304.734 99.7247 306.455 99.0359C308.176 98.347 310.019 98.0147 311.873 98.0591H466.755L522.921 154.22V365.332C522.965 367.185 522.633 369.028 521.944 370.749C521.255 372.47 520.224 374.033 518.913 375.344C517.602 376.655 516.038 377.686 514.317 378.375C512.596 379.064 510.753 379.396 508.9 379.352H311.873C310.019 379.396 308.176 379.064 306.455 378.375C304.734 377.686 303.17 376.655 301.859 375.344C300.548 374.033 299.517 372.47 298.828 370.749C298.139 369.028 297.807 367.185 297.852 365.332V112.079Z" fill="white"/>
<path fill-rule="evenodd" clip-rule="evenodd" d="M311.873 372.706H509.062C510.902 372.712 512.676 372.022 514.029 370.774C515.382 369.527 516.213 367.814 516.356 365.98V157.381L464.242 105.272H311.873C310.095 105.422 308.416 106.155 307.098 107.356C305.779 108.558 304.893 110.161 304.578 111.917V365.818C304.599 366.744 304.805 367.656 305.186 368.5C305.567 369.345 306.115 370.104 306.796 370.731C307.477 371.359 308.277 371.844 309.149 372.155C310.022 372.466 310.948 372.599 311.873 372.544V372.706ZM466.755 98.0591H311.873C310.019 98.0147 308.176 98.347 306.455 99.0359C304.734 99.7247 303.17 100.756 301.859 102.067C300.548 103.377 299.517 104.941 298.828 106.662C298.139 108.383 297.807 110.226 297.852 112.079V365.98C297.808 367.837 298.14 369.683 298.828 371.409C299.516 373.134 300.545 374.703 301.855 376.02C303.165 377.337 304.728 378.376 306.449 379.074C308.171 379.772 310.016 380.114 311.873 380.081H509.062C510.919 380.114 512.764 379.772 514.485 379.074C516.207 378.376 517.769 377.337 519.079 376.02C520.389 374.703 521.419 373.134 522.107 371.409C522.795 369.683 523.127 367.837 523.083 365.98V154.869L466.755 98.0591Z" fill="#DADBE2"/>
<path d="M466.754 98.0593L522.92 154.221H466.754V98.0593Z" fill="#DADBE2"/>
<path d="M320.867 278.942C320.867 278.491 321.046 278.058 321.366 277.739C321.685 277.42 322.118 277.24 322.569 277.24H478.748C479.207 277.24 479.649 277.417 479.981 277.734C480.313 278.051 480.51 278.484 480.531 278.942C480.531 279.173 480.485 279.401 480.394 279.613C480.303 279.825 480.171 280.016 480.004 280.175C479.837 280.334 479.64 280.458 479.424 280.539C479.208 280.619 478.978 280.655 478.748 280.644H322.569C322.124 280.624 321.703 280.439 321.388 280.124C321.073 279.809 320.887 279.387 320.867 278.942ZM320.867 172.131C320.867 171.693 321.035 171.272 321.337 170.955C321.639 170.638 322.051 170.45 322.488 170.429H439.521C439.972 170.429 440.405 170.608 440.724 170.927C441.043 171.246 441.223 171.679 441.223 172.131C441.223 172.582 441.043 173.015 440.724 173.334C440.405 173.653 439.972 173.832 439.521 173.832H322.569C322.139 173.793 321.737 173.599 321.439 173.286C321.14 172.973 320.966 172.563 320.948 172.131H320.867ZM320.867 287.776C320.887 287.395 321.047 287.035 321.316 286.766C321.586 286.496 321.945 286.337 322.326 286.317H494.795C495.176 286.337 495.536 286.496 495.805 286.766C496.075 287.035 496.235 287.395 496.254 287.776C496.235 288.156 496.075 288.516 495.805 288.785C495.536 289.055 495.176 289.215 494.795 289.234H322.326C321.939 289.234 321.568 289.081 321.295 288.807C321.021 288.534 320.867 288.163 320.867 287.776ZM320.867 181.693C320.867 181.463 320.913 181.235 321.004 181.023C321.095 180.811 321.227 180.62 321.394 180.46C321.561 180.301 321.758 180.178 321.974 180.097C322.19 180.016 322.42 179.98 322.65 179.991H398.268C398.491 179.991 398.713 180.036 398.919 180.121C399.126 180.207 399.313 180.332 399.471 180.49C399.629 180.648 399.755 180.836 399.84 181.042C399.926 181.249 399.97 181.47 399.97 181.693C399.97 181.917 399.926 182.138 399.84 182.345C399.755 182.551 399.629 182.739 399.471 182.897C399.313 183.055 399.126 183.18 398.919 183.266C398.713 183.351 398.491 183.395 398.268 183.395H322.65C322.42 183.406 322.19 183.37 321.974 183.29C321.758 183.209 321.561 183.086 321.394 182.926C321.227 182.767 321.095 182.576 321.004 182.364C320.913 182.152 320.867 181.924 320.867 181.693ZM320.867 297.42C320.867 296.982 321.035 296.561 321.337 296.244C321.639 295.927 322.051 295.739 322.488 295.718H494.228C494.679 295.718 495.112 295.897 495.431 296.216C495.751 296.535 495.93 296.968 495.93 297.42C495.93 297.879 495.754 298.32 495.437 298.652C495.12 298.985 494.687 299.182 494.228 299.202H322.488C322.057 299.131 321.662 298.916 321.368 298.592C321.074 298.269 320.898 297.856 320.867 297.42ZM320.867 331.376C320.867 330.938 321.035 330.517 321.337 330.2C321.639 329.883 322.051 329.695 322.488 329.674H498.361C498.585 329.674 498.806 329.718 499.013 329.803C499.219 329.889 499.407 330.014 499.565 330.172C499.723 330.33 499.848 330.518 499.934 330.724C500.019 330.931 500.063 331.152 500.063 331.376C500.063 331.599 500.019 331.82 499.934 332.027C499.848 332.233 499.723 332.421 499.565 332.579C499.407 332.737 499.219 332.862 499.013 332.948C498.806 333.033 498.585 333.077 498.361 333.077H322.569C322.139 333.038 321.737 332.845 321.439 332.531C321.14 332.218 320.966 331.808 320.948 331.376H320.867ZM320.867 207.302C320.867 207.072 320.913 206.844 321.004 206.632C321.095 206.42 321.227 206.228 321.394 206.069C321.561 205.91 321.758 205.787 321.974 205.706C322.19 205.625 322.42 205.589 322.65 205.6H491.067C491.291 205.6 491.512 205.644 491.718 205.73C491.925 205.815 492.113 205.941 492.271 206.099C492.429 206.257 492.554 206.444 492.639 206.651C492.725 206.857 492.769 207.079 492.769 207.302C492.769 207.526 492.725 207.747 492.639 207.953C492.554 208.16 492.429 208.348 492.271 208.506C492.113 208.664 491.925 208.789 491.718 208.875C491.512 208.96 491.291 209.004 491.067 209.004H322.731C322.501 209.015 322.271 208.979 322.055 208.899C321.839 208.818 321.642 208.694 321.475 208.535C321.308 208.376 321.176 208.185 321.085 207.973C320.995 207.761 320.948 207.533 320.948 207.302H320.867ZM320.867 339.237C320.867 338.799 321.035 338.378 321.337 338.061C321.639 337.744 322.051 337.555 322.488 337.535H491.067C491.519 337.535 491.951 337.714 492.271 338.033C492.59 338.352 492.769 338.785 492.769 339.237C492.78 339.467 492.744 339.697 492.664 339.913C492.583 340.129 492.459 340.326 492.3 340.493C492.141 340.659 491.95 340.792 491.738 340.883C491.526 340.973 491.298 341.02 491.067 341.019H322.569C322.138 340.948 321.744 340.733 321.449 340.409C321.155 340.086 320.979 339.673 320.948 339.237H320.867ZM320.867 215.163C320.867 214.933 320.913 214.705 321.004 214.493C321.095 214.281 321.227 214.089 321.394 213.93C321.561 213.771 321.758 213.647 321.974 213.567C322.19 213.486 322.42 213.45 322.65 213.461H494.633C495.085 213.461 495.518 213.641 495.837 213.96C496.156 214.279 496.335 214.712 496.335 215.163C496.336 215.622 496.159 216.064 495.842 216.396C495.525 216.728 495.092 216.925 494.633 216.946H322.731C322.258 216.946 321.805 216.758 321.47 216.424C321.136 216.09 320.948 215.636 320.948 215.163H320.867ZM320.867 347.179C320.865 346.733 321.031 346.302 321.331 345.972C321.631 345.642 322.044 345.436 322.488 345.396H494.633C495.092 345.417 495.525 345.613 495.842 345.946C496.159 346.278 496.336 346.719 496.335 347.179C496.335 347.63 496.156 348.063 495.837 348.382C495.518 348.701 495.085 348.88 494.633 348.88H322.731C322.283 348.846 321.861 348.658 321.536 348.348C321.211 348.038 321.003 347.625 320.948 347.179H320.867ZM320.867 223.105C320.865 222.659 321.031 222.229 321.331 221.899C321.631 221.568 322.044 221.363 322.488 221.322H494.633C495.031 221.409 495.388 221.629 495.643 221.946C495.899 222.263 496.038 222.657 496.038 223.065C496.038 223.472 495.899 223.867 495.643 224.184C495.388 224.501 495.031 224.721 494.633 224.807H322.731C322.278 224.789 321.846 224.606 321.518 224.293C321.19 223.979 320.987 223.557 320.948 223.105H320.867ZM320.867 231.209C320.867 230.736 321.055 230.283 321.389 229.949C321.724 229.614 322.177 229.426 322.65 229.426H483.367C483.598 229.426 483.826 229.473 484.038 229.563C484.25 229.654 484.442 229.786 484.601 229.953C484.76 230.12 484.883 230.317 484.964 230.533C485.045 230.749 485.081 230.979 485.07 231.209C485.07 231.661 484.89 232.094 484.571 232.413C484.252 232.732 483.819 232.911 483.367 232.911H322.731C322.272 232.912 321.831 232.735 321.498 232.418C321.166 232.101 320.969 231.668 320.948 231.209H320.867ZM320.867 263.139C320.867 262.688 321.046 262.255 321.366 261.936C321.685 261.617 322.118 261.437 322.569 261.437H396.971C397.422 261.437 397.855 261.617 398.174 261.936C398.493 262.255 398.673 262.688 398.673 263.139C398.684 263.37 398.648 263.6 398.567 263.815C398.487 264.031 398.363 264.229 398.204 264.395C398.045 264.562 397.853 264.695 397.642 264.785C397.43 264.876 397.201 264.922 396.971 264.922H322.569C322.11 264.901 321.677 264.704 321.36 264.372C321.043 264.04 320.867 263.598 320.867 263.139ZM320.867 305.361C320.867 304.91 321.046 304.477 321.366 304.158C321.685 303.839 322.118 303.66 322.569 303.66H471.616C471.846 303.649 472.076 303.685 472.292 303.765C472.508 303.846 472.705 303.969 472.872 304.129C473.039 304.288 473.171 304.479 473.262 304.691C473.352 304.903 473.399 305.131 473.399 305.361C473.399 305.592 473.352 305.82 473.262 306.032C473.171 306.244 473.039 306.435 472.872 306.594C472.705 306.754 472.508 306.877 472.292 306.958C472.076 307.038 471.846 307.074 471.616 307.063H322.569C322.124 307.044 321.703 306.858 321.388 306.543C321.073 306.228 320.887 305.806 320.867 305.361ZM320.867 271C320.885 270.568 321.059 270.158 321.358 269.844C321.656 269.531 322.058 269.337 322.488 269.298H396.89C397.288 269.385 397.644 269.605 397.9 269.922C398.155 270.239 398.295 270.634 398.295 271.041C398.295 271.448 398.155 271.843 397.9 272.16C397.644 272.477 397.288 272.697 396.89 272.783H322.488C322.051 272.726 321.648 272.515 321.351 272.189C321.054 271.862 320.883 271.441 320.867 271Z" fill="#DADBE2"/>
<path d="M320.867 155.031C320.888 154.572 321.085 154.139 321.417 153.822C321.749 153.505 322.191 153.329 322.65 153.329H408.398C408.659 153.273 408.928 153.275 409.187 153.337C409.447 153.398 409.689 153.517 409.896 153.684C410.103 153.851 410.27 154.062 410.385 154.302C410.5 154.542 410.56 154.805 410.56 155.071C410.56 155.338 410.5 155.601 410.385 155.841C410.27 156.081 410.103 156.292 409.896 156.459C409.689 156.627 409.447 156.745 409.187 156.806C408.928 156.868 408.659 156.87 408.398 156.814H322.731C322.258 156.814 321.805 156.626 321.47 156.292C321.136 155.957 320.948 155.504 320.948 155.031H320.867Z" fill="#F6861F"/>
<path d="M266.564 182.666H243.06V179.586H266.564V172.698L275.479 180.802L266.564 188.906V182.666ZM265.673 194.093L278.64 181.855C278.834 181.646 278.942 181.371 278.942 181.086C278.942 180.8 278.834 180.525 278.64 180.316C276.533 178.209 268.671 170.996 265.673 167.997C265.511 167.861 265.315 167.773 265.105 167.743C264.896 167.712 264.683 167.741 264.489 167.825C264.296 167.909 264.129 168.046 264.009 168.219C263.889 168.393 263.819 168.597 263.808 168.808V176.912H240.305V185.502H264.133V193.606C264.191 193.749 264.281 193.876 264.394 193.98C264.508 194.084 264.642 194.162 264.789 194.209C264.936 194.255 265.091 194.269 265.244 194.249C265.396 194.229 265.543 194.175 265.673 194.093Z" fill="#DADBE2"/>
<g clip-path="url(#clip1_811_492)">
<path d="M-0.0016918 15.02C-0.0349948 13.1628 0.307639 11.3181 1.00559 9.59669C1.70354 7.87531 2.74239 6.31279 4.05972 5.00315C5.37704 3.69351 6.94556 2.66383 8.67108 1.97587C10.3966 1.28791 12.2434 0.955957 14.1005 0.999961H169.063L225.23 57.1611V268.272C225.274 270.126 224.942 271.969 224.253 273.69C223.564 275.411 222.533 276.974 221.222 278.285C219.911 279.596 218.347 280.627 216.626 281.316C214.905 282.004 213.062 282.337 211.208 282.292H14.1005C12.2434 282.336 10.3966 282.004 8.67108 281.316C6.94556 280.628 5.37704 279.599 4.05972 278.289C2.74239 276.979 1.70354 275.417 1.00559 273.696C0.307639 271.974 -0.0349948 270.129 -0.0016918 268.272V15.02Z" fill="white"/>
<path fill-rule="evenodd" clip-rule="evenodd" d="M14.1022 275.647H211.21C213.037 275.654 214.801 274.975 216.152 273.745C217.502 272.514 218.342 270.822 218.504 269.002V60.4838L166.391 8.3747H14.0212C12.2434 8.52511 10.5649 9.25782 9.2461 10.4593C7.92725 11.6608 7.04176 13.264 6.72697 15.02V269.002C6.75733 269.928 6.97428 270.839 7.36497 271.679C7.75566 272.52 8.31199 273.273 9.00062 273.893C9.68924 274.514 10.496 274.989 11.3726 275.29C12.2492 275.592 13.1776 275.713 14.1022 275.647ZM169.065 0.999961H14.1022C12.2451 0.955957 10.3983 1.28791 8.67277 1.97587C6.94725 2.66383 5.37873 3.69351 4.06141 5.00315C2.74409 6.31279 1.70524 7.87531 1.00728 9.59669C0.309332 11.3181 -0.0333011 13.1628 1.93902e-06 15.02V268.921C-0.0443997 270.785 0.289933 272.638 0.982921 274.369C1.67591 276.1 2.71313 277.672 4.0316 278.99C5.35007 280.309 6.92244 281.346 8.65348 282.039C10.3845 282.732 12.2381 283.066 14.1022 283.022H211.21C213.067 283.055 214.912 282.712 216.634 282.015C218.355 281.317 219.918 280.278 221.228 278.961C222.537 277.643 223.567 276.075 224.255 274.35C224.943 272.624 225.275 270.778 225.231 268.921V58.2147L169.065 0.999961Z" fill="#DADBE2"/>
<path d="M169.066 1L225.233 57.1612H169.066V1Z" fill="#DADBE2"/>
<path d="M24 173.948V170.055H198V173.948H24ZM24 158.973V155.079H198V158.973H24ZM24 128.921V125.027H198V128.921H24ZM198 98.8695H24V94.9758H198V98.8695ZM198 204H24V200.106H198V204Z" fill="#E7A323"/>
<path opacity="0.48" d="M24 80H198V83.8937H24V80ZM198 185.13V189.024H24V185.13H198ZM24 113.945V110.052H198V113.945H24ZM24 140.103H198V143.997H24V140.103Z" fill="#AEADAD"/>
<path d="M198 233.87H24V229.976H198V233.87Z" fill="#E7A323"/>
<path opacity="0.48" d="M24 215H198V218.894H24V215ZM24 248.945V245.052H198V248.945H24Z" fill="#AEADAD"/>
</g>
</g>
<defs>
<clipPath id="clip0_811_492">
<rect width="523" height="380" fill="white"/>
</clipPath>
<clipPath id="clip1_811_492">
<rect width="225" height="282" fill="white" transform="translate(0 1)"/>
</clipPath>
</defs>
</svg>
