<?xml version="1.0" encoding="utf-8"?>
<!-- Generator: Adobe Illustrator 26.0.0, SVG Export Plug-In . SVG Version: 6.00 Build 0)  -->
<svg version="1.1" id="Layer_1" xmlns="http://www.w3.org/2000/svg" xmlns:xlink="http://www.w3.org/1999/xlink" x="0px" y="0px"
	 viewBox="0 0 35 33" style="enable-background:new 0 0 35 33;" xml:space="preserve">
<style type="text/css">
	.st0{fill:#FA8617;}
	.st1{fill:none;stroke:#CACACA;}
</style>
<g>
	<path class="st0" d="M29,21.1H10.1c-0.3,0-0.5,0.2-0.5,0.5s0.2,0.5,0.5,0.5H29c0.3,0,0.5-0.2,0.5-0.5C29.5,21.3,29.3,21.1,29,21.1z
		 M29,16.8H17.2c-0.3,0-0.5,0.2-0.5,0.5s0.2,0.5,0.5,0.5h11.7c0.3,0,0.5-0.2,0.5-0.5C29.5,17,29.3,16.8,29,16.8z M13.3,16.8h-3.2
		c-0.3,0-0.5,0.2-0.5,0.5s0.2,0.5,0.5,0.5h3.2c0.3,0,0.5-0.2,0.5-0.5S13.5,16.8,13.3,16.8z"/>
	<path class="st0" d="M9.4,4.2L5.8,4.9L7.2,0H2.7L1.1,9.1l2.7-0.5l-0.5,4l-2.6-0.9l2,4.2l4.2-2L4.4,13L9.4,4.2z M3.7,7.9L2,8.2
		l1.3-7.5h2.9v0.1L5.1,4.6L4.7,5.8l1.2-0.2L8,5.2l-3.8,6.7l0.4-3.2l0.1-1L3.7,7.9z"/>
</g>
<path class="st1" d="M12.1,1.8c2-0.9,4.1-1.3,6.4-1.3c8.8,0,16,7.2,16,16s-7.2,16-16,16c-8,0-14.6-5.9-15.8-13.6"/>
</svg>
