<?xml version="1.0" encoding="utf-8"?>
<!-- Generator: Adobe Illustrator 26.0.0, SVG Export Plug-In . SVG Version: 6.00 Build 0)  -->
<svg version="1.1" id="Layer_1" xmlns="http://www.w3.org/2000/svg" xmlns:xlink="http://www.w3.org/1999/xlink" x="0px" y="0px"
	 viewBox="0 0 35 33" style="enable-background:new 0 0 35 33;" xml:space="preserve">
<style type="text/css">
	.st0{fill:none;stroke:#CACACA;}
	.st1{fill:#F16334;}
</style>
<path id="cla2" class="st0" d="M15.3,0.8c1-0.2,2.1-0.3,3.2-0.3c8.8,0,16,7.2,16,16s-7.2,16-16,16s-16-7.2-16-16c0-2,0.4-3.8,1-5.6"
	/>
<path id="cla1" class="st1" d="M17.1,16.8h11.7c0.3,0,0.5,0.2,0.5,0.5s-0.2,0.5-0.5,0.5H17.1c-0.3,0-0.5-0.2-0.5-0.5
	S16.8,16.8,17.1,16.8z M10,16.8h3.2c0.3,0,0.5,0.2,0.5,0.5s-0.2,0.5-0.5,0.5H10c-0.3,0-0.5-0.2-0.5-0.5S9.7,16.8,10,16.8z
	 M28.9,22.1H10c-0.3,0-0.5-0.2-0.5-0.5s0.2-0.5,0.5-0.5h18.9c0.3,0,0.5,0.2,0.5,0.5S29.2,22.1,28.9,22.1z"/>
<path id="cla1_00000158011766050144366170000001462380936812471439_" class="st1" d="M8.9,8.4L5.3,0.6C5.2,0.4,5.1,0.2,5,0.1
	C4.8,0,4.7,0,4.5,0S4.1,0,4,0.1C3.8,0.2,3.8,0.4,3.7,0.5L0.1,8.4c-0.2,0.5,0,0.7,0.1,0.8c0.1,0.1,0.6,0.4,1-0.3l0.9-2h4.7l0.9,1.9
	C8,9.4,8.2,9.3,8.3,9.3C8.5,9.3,9.2,9.2,8.9,8.4z M2.6,5.7l1.8-4.1l1.8,4.1H2.6z"/>
<path id="cla1_00000011026266645453113150000017361475605441544577_" class="st1" d="M15.2,4c-0.1-0.3-0.5-1.7-2.8-1.7
	c-0.8,0-1.5,0.1-2.2,0.4c-0.6,0.4-0.3,0.9-0.2,1c0.2,0.2,0.7,0.2,0.7,0.2c0.5-0.2,1.1-0.4,1.6-0.4c2.1,0,2.1,1.6,2.1,1.6
	s-1.6-0.2-2-0.2c-2.2,0-3.1,1.2-3.1,2.1c0,0.5,0.1,1.8,1.6,2.3c0.9,0.3,1.8,0,2.2-0.1c0.2-0.1,0.3-0.1,0.5-0.2L14,8.7l0.3,0.4
	c0.4,0.5,1,0.1,1-0.1c0-0.1,0-2.8,0-2.8C15.3,5.7,15.3,4.4,15.2,4z M14,7.4c-0.1,0.2-0.5,0.9-1.6,0.9c-1.6,0-1.7-0.8-1.7-1.2
	s0.2-0.7,0.5-0.9c1-0.6,3-0.1,3-0.1S14.3,7,14,7.4z"/>
</svg>
