<svg width="150" height="137" viewBox="0 0 150 137" fill="none" xmlns="http://www.w3.org/2000/svg">
<g clip-path="url(#clip0_739_909)">
<path style="mix-blend-mode:multiply" d="M117.411 17.9545C107.996 11.7168 94.195 11.5385 83.6414 17.5267C72.0541 24.0995 65.2216 26.2609 54.6552 26.1084C44.56 25.9658 24.8894 20.2328 11.9613 32.3689C-3.56278 46.9415 -3.31717 69.3659 8.92128 88.8517C22.6005 110.627 53.0931 134.41 88.7404 133.099C124.388 131.787 139.686 100.293 140.811 78.3168C142.897 37.5757 127.016 24.3205 117.411 17.9545Z" fill="url(#paint0_radial_739_909)"/>
<path style="mix-blend-mode:multiply" d="M138.395 39.271C130.732 29.5873 118.769 21.8255 106.929 22.1619C93.9351 22.5269 84.708 21.335 74.8641 15.9627C65.4629 10.83 50.8013 -2.65053 34.9703 0.463325C15.2654 4.34139 8.55431 27.2262 13.6247 51.3629C19.2949 78.3325 39.1454 117.897 73.8389 131.904C107.761 145.6 133.867 125.594 143.092 107.374C155.888 82.1065 148.882 52.5306 138.395 39.271Z" fill="url(#paint1_radial_739_909)"/>
<path style="mix-blend-mode:multiply" d="M125.059 51.5995C116.979 13.2965 103.271 7.16577 94.2568 5.11981C85.4196 3.12375 74.6033 8.42614 67.7923 18.1227C60.3144 28.7674 55.4953 33.4681 47.2064 37.523C39.293 41.3982 22.5724 43.9332 15.3744 60.2296C6.72993 79.7939 12.2659 100.325 26.4634 113.39C42.3316 127.992 71.8018 137.771 99.3144 122.413C126.827 107.054 129.419 72.2587 125.059 51.5995Z" fill="url(#paint2_radial_739_909)"/>
<path d="M72.293 83.17L73.0212 77.7807C73.1068 76.8986 73.5424 75.979 74.3277 75.0218C75.1906 73.9852 76.1284 73.0131 77.1335 72.1133C78.2187 71.1295 79.3824 70.1743 80.6247 69.2475C81.867 68.3208 83.0164 67.4297 84.0731 66.5742C84.9982 65.8365 85.8779 65.0438 86.7075 64.2003C87.4072 63.4732 87.757 62.8387 87.757 62.297C87.757 61.4415 87.5914 60.7785 87.2644 60.3009C86.9374 59.8233 86.529 59.5951 86.0435 59.5951C85.6008 59.5839 85.1635 59.6949 84.7799 59.9159C84.4372 60.1143 84.1557 60.4028 83.966 60.75C83.7771 61.0991 83.64 61.4737 83.559 61.8621C83.474 62.2557 83.431 62.6571 83.4305 63.0597V63.4875C83.4231 63.5478 83.4383 63.6088 83.4733 63.6586C82.7023 63.7165 81.9027 63.7878 81.0745 63.8724C80.3606 63.9304 79.5681 64.0088 78.697 64.1077C77.826 64.2065 76.9622 64.3016 76.1054 64.3928C76.0769 64.1647 76.0555 63.9271 76.0412 63.6799C76.0255 63.439 76.0197 63.2166 76.0197 63.017C76.0197 61.3346 76.3482 59.8304 77.005 58.5044C77.6202 57.2319 78.4872 56.097 79.5538 55.1682C81.6548 53.3857 84.3148 52.3945 87.0716 52.3665C88.1284 52.3618 89.1784 52.5354 90.1773 52.8798C91.1482 53.2152 92.0382 53.7494 92.7903 54.4482C93.5783 55.1935 94.1988 56.0974 94.6109 57.1001C95.0659 58.1694 95.2944 59.4454 95.2963 60.9282C95.2871 62.3904 94.9037 63.826 94.1825 65.0986C93.3517 66.5659 92.3129 67.9057 91.0983 69.0764C89.6599 70.4768 88.0971 71.7438 86.4291 72.8618C84.5411 74.1411 82.5817 75.3122 80.5604 76.3692C81.3315 76.3692 82.3239 76.3407 83.5376 76.2836C84.7513 76.2266 85.9936 76.1482 87.2644 76.0484L91.4053 75.7276L90.7199 81.9296C90.0345 81.9881 89.2563 82.0437 88.3853 82.1007C87.5143 82.1578 86.5862 82.2148 85.6009 82.2718C84.6157 82.3288 83.6019 82.3944 82.5595 82.4643C81.5171 82.5341 80.5091 82.6069 79.5395 82.6568C77.2197 82.8279 74.8042 82.999 72.293 83.17Z" fill="white"/>
</g>
<defs>
<radialGradient id="paint0_radial_739_909" cx="0" cy="0" r="1" gradientUnits="userSpaceOnUse" gradientTransform="translate(68.8205 73.4275) scale(62.7882 69.2937)">
<stop stop-color="#FFB56A"/>
<stop offset="1" stop-color="#F78620"/>
</radialGradient>
<radialGradient id="paint1_radial_739_909" cx="0" cy="0" r="1" gradientUnits="userSpaceOnUse" gradientTransform="translate(79.2655 68.4888) scale(65.3682 72.1411)">
<stop stop-color="#FFB56A"/>
<stop offset="1" stop-color="#F78620"/>
</radialGradient>
<radialGradient id="paint2_radial_739_909" cx="0" cy="0" r="1" gradientUnits="userSpaceOnUse" gradientTransform="translate(67.3288 67.4368) scale(58.5776 61.5685)">
<stop stop-color="#8932A2"/>
<stop offset="1" stop-color="#FFB56A"/>
</radialGradient>
<clipPath id="clip0_739_909">
<rect width="150" height="136.432" fill="white"/>
</clipPath>
</defs>
</svg>
