<svg width="150" height="137" viewBox="0 0 150 137" fill="none" xmlns="http://www.w3.org/2000/svg">
<g clip-path="url(#clip0_832_1317)">
<path style="mix-blend-mode:multiply" d="M117.411 17.9545C107.996 11.7168 94.195 11.5385 83.6414 17.5267C72.0541 24.0995 65.2216 26.2609 54.6552 26.1084C44.56 25.9658 24.8894 20.2328 11.9613 32.3689C-3.56278 46.9415 -3.31717 69.3659 8.92128 88.8517C22.6005 110.627 53.0931 134.41 88.7404 133.099C124.388 131.787 139.686 100.293 140.811 78.3168C142.897 37.5757 127.016 24.3205 117.411 17.9545Z" fill="url(#paint0_radial_832_1317)"/>
<path style="mix-blend-mode:multiply" d="M138.395 39.271C130.732 29.5873 118.769 21.8255 106.929 22.1619C93.9351 22.5269 84.708 21.335 74.8641 15.9627C65.4629 10.83 50.8013 -2.65053 34.9703 0.463325C15.2654 4.34139 8.55431 27.2262 13.6247 51.3629C19.2949 78.3325 39.1454 117.897 73.8389 131.904C107.761 145.6 133.867 125.594 143.092 107.374C155.888 82.1065 148.882 52.5306 138.395 39.271Z" fill="url(#paint1_radial_832_1317)"/>
<path style="mix-blend-mode:multiply" d="M125.059 51.5995C116.979 13.2965 103.271 7.16577 94.2568 5.11981C85.4196 3.12375 74.6033 8.42614 67.7923 18.1227C60.3144 28.7674 55.4953 33.4681 47.2064 37.523C39.293 41.3982 22.5724 43.9332 15.3744 60.2296C6.72993 79.7939 12.2659 100.325 26.4634 113.39C42.3316 127.992 71.8018 137.771 99.3144 122.413C126.827 107.054 129.419 72.2587 125.059 51.5995Z" fill="url(#paint2_radial_832_1317)"/>
<path d="M55.7296 98.9354C53.3189 96.5097 53.5198 92.7632 55.7296 90.553L61.1939 85.0681L69.5243 93.4505L64.06 98.9354C61.7564 101.253 58.06 101.28 55.7296 98.9354ZM71.4662 91.4964L63.1359 83.114L85.0734 61.0259L93.4037 69.4083L71.4662 91.4964Z" fill="white"/>
<path d="M86.506 54.8268C85.1265 54.8268 84.0015 55.9588 84.0015 57.3469C84.0015 58.735 85.1265 59.8535 86.506 59.8535C87.8855 59.8535 88.9971 58.7215 88.9971 57.3469C89.0105 55.9588 87.8989 54.8268 86.506 54.8268ZM91.7426 82.7233C90.3096 82.7233 89.1712 81.5508 89.1712 80.1223C89.1712 78.6938 90.3364 77.5213 91.7426 77.5213C93.1756 77.5213 94.3274 78.6938 94.3274 80.1223C94.3408 81.5508 93.1756 82.7233 91.7426 82.7233ZM91.7426 78.5725C90.8989 78.5725 90.2158 79.2733 90.2158 80.1088C90.2158 80.9578 90.9122 81.6586 91.7426 81.6586C92.5864 81.6586 93.2828 80.9578 93.2828 80.1088C93.2828 79.2598 92.5997 78.5725 91.7426 78.5725ZM102.551 56.6731C103.448 56.6731 104.185 57.4143 104.185 58.3307C104.185 59.2471 103.448 59.9748 102.551 59.9748C101.653 59.9748 100.917 59.2336 100.917 58.3307C100.903 57.4143 101.653 56.6731 102.551 56.6731ZM102.551 54.9076C100.676 54.9076 99.1489 56.444 99.1489 58.3307C99.1489 60.2174 100.676 61.7402 102.551 61.7402C104.426 61.7402 105.952 60.2039 105.952 58.3307C105.939 56.444 104.412 54.9076 102.551 54.9076ZM87.5372 47.1182L89.7337 44.8406C89.9078 44.652 89.9881 44.3959 89.948 44.1264L89.3453 41.0402C89.2783 40.6764 89.6533 40.3799 89.9748 40.5416L92.7873 41.9297C93.0149 42.051 93.2962 42.0375 93.5239 41.9027L96.256 40.3529C96.5774 40.1777 96.9658 40.4338 96.9123 40.8111L96.4703 43.9512C96.4301 44.2072 96.5239 44.4768 96.7114 44.652L99.0149 46.7813C99.2828 47.0238 99.1489 47.4955 98.7873 47.5629L95.6935 48.102C95.439 48.1559 95.2248 48.3176 95.1042 48.5602L93.7917 51.4307C93.6444 51.7676 93.1623 51.7811 92.9881 51.4576L91.5283 48.668C91.3944 48.4254 91.1801 48.2772 90.9256 48.2367L87.8051 47.8863C87.4435 47.8324 87.2828 47.3877 87.5372 47.1182ZM106.435 75.4863L104.988 73.95C104.868 73.8152 104.694 73.7613 104.519 73.7883L102.457 74.1117C102.216 74.1522 102.042 73.8826 102.149 73.6805L103.14 71.8342C103.22 71.686 103.22 71.4973 103.153 71.3356L102.216 69.4623C102.109 69.2332 102.296 68.9906 102.537 69.0311L104.6 69.4219C104.774 69.4623 104.948 69.3949 105.069 69.2736L106.555 67.7912C106.729 67.616 107.024 67.7238 107.064 67.9664L107.332 70.0553C107.359 70.2305 107.466 70.3922 107.613 70.4596L109.475 71.4299C109.702 71.5512 109.689 71.8611 109.461 71.969L107.56 72.8719C107.399 72.9393 107.292 73.101 107.265 73.2762L106.944 75.3516C106.917 75.5672 106.622 75.6615 106.435 75.4863ZM78.3631 54.7055C78.6712 54.7055 78.8453 54.3686 78.6578 54.1125L77.131 52.0641C76.9971 51.9024 76.9703 51.6733 77.0373 51.4711L77.8408 49.0453C77.881 48.8971 77.8408 48.7623 77.7605 48.668C77.6801 48.5736 77.5328 48.5197 77.3855 48.5871L74.9881 49.4092C74.7872 49.4766 74.573 49.4496 74.3855 49.3149L72.3497 47.7785C72.1087 47.6033 71.7605 47.7651 71.7605 48.075L71.8006 50.6356C71.8006 50.8512 71.7069 51.0533 71.5328 51.1611L69.4569 52.6436C69.256 52.7918 69.256 53.0479 69.4167 53.1961C69.4569 53.2365 69.5105 53.2635 69.564 53.2904L71.9881 54.0451C72.0953 54.0856 72.1756 54.126 72.256 54.2068C72.3364 54.2877 72.3899 54.3686 72.4167 54.4629L73.1801 56.9156C73.2069 56.9695 73.2203 57.0235 73.2739 57.0639C73.4212 57.2121 73.689 57.2121 73.823 57.01L75.2828 54.9076C75.4033 54.7324 75.6042 54.6246 75.8185 54.6381L78.3631 54.7055ZM75.8319 54.1125C75.4301 54.1125 75.0551 54.3012 74.8274 54.6381L73.6087 56.3901L72.9792 54.3416C72.9256 54.1529 72.8185 53.9912 72.6712 53.843C72.5372 53.6947 72.3631 53.6004 72.1756 53.533L70.1533 52.8996L71.881 51.6598C72.2024 51.4172 72.3899 51.0399 72.3899 50.649L72.3631 48.5063L74.0774 49.7865C74.3989 50.0291 74.814 50.0965 75.189 49.9617L77.198 49.2744L76.5015 51.3094C76.3676 51.6867 76.448 52.118 76.6756 52.4279L77.948 54.1395L75.8319 54.1125ZM113.747 48.3985C113.948 48.3985 114.069 48.1559 113.948 47.9942L112.917 46.6061C112.836 46.4848 112.81 46.3365 112.85 46.2018L113.399 44.5442C113.439 44.4498 113.399 44.3555 113.345 44.2881C113.292 44.2207 113.198 44.1938 113.091 44.2342L111.457 44.7867C111.323 44.8406 111.176 44.8137 111.055 44.7328L109.676 43.6951C109.515 43.5738 109.274 43.6951 109.274 43.8973L109.301 45.6492C109.301 45.7975 109.234 45.9322 109.113 46.0131L107.707 47.0104C107.573 47.1047 107.573 47.2799 107.667 47.3877C107.694 47.4147 107.72 47.4416 107.774 47.4416L109.421 47.9672C109.488 47.9942 109.555 48.0211 109.595 48.075C109.635 48.1289 109.676 48.1828 109.702 48.2502L110.211 49.9078C110.225 49.9483 110.252 49.9752 110.265 50.0156C110.372 50.1235 110.546 50.11 110.64 49.9752L111.631 48.5467C111.711 48.4254 111.859 48.358 111.993 48.358L113.747 48.3985ZM112.019 47.9807C111.752 47.9807 111.497 48.1154 111.323 48.3311L110.493 49.517L110.064 48.1289C110.024 47.9942 109.957 47.8863 109.863 47.792C109.769 47.6977 109.649 47.6303 109.528 47.5899L108.149 47.1586L109.327 46.3231C109.555 46.1748 109.676 45.9053 109.676 45.6358L109.662 44.1668L110.827 45.0428C111.055 45.2045 111.336 45.2584 111.591 45.1641L112.957 44.6924L112.502 46.067C112.421 46.3231 112.461 46.6061 112.622 46.8217L113.493 47.9942C113.479 47.9807 112.019 47.9807 112.019 47.9807Z" fill="white"/>
</g>
<defs>
<radialGradient id="paint0_radial_832_1317" cx="0" cy="0" r="1" gradientUnits="userSpaceOnUse" gradientTransform="translate(68.8205 73.4275) scale(62.7882 69.2937)">
<stop stop-color="#FFB56A"/>
<stop offset="1" stop-color="#F78620"/>
</radialGradient>
<radialGradient id="paint1_radial_832_1317" cx="0" cy="0" r="1" gradientUnits="userSpaceOnUse" gradientTransform="translate(79.2655 68.4888) scale(65.3682 72.1411)">
<stop stop-color="#FFB56A"/>
<stop offset="1" stop-color="#F78620"/>
</radialGradient>
<radialGradient id="paint2_radial_832_1317" cx="0" cy="0" r="1" gradientUnits="userSpaceOnUse" gradientTransform="translate(67.3288 67.4368) scale(58.5776 61.5685)">
<stop stop-color="#8932A2"/>
<stop offset="1" stop-color="#FFB56A"/>
</radialGradient>
<clipPath id="clip0_832_1317">
<rect width="150" height="136.432" fill="white"/>
</clipPath>
</defs>
</svg>
