<svg width="150" height="137" viewBox="0 0 150 137" fill="none" xmlns="http://www.w3.org/2000/svg">
<g clip-path="url(#clip0_832_1308)">
<path style="mix-blend-mode:multiply" d="M140.988 4.84525C130.362 -3.6216 112.262 0.906978 83.8809 4.20075C55.7186 7.46744 43.5915 7.70271 26.8509 3.7402C10.9571 -0.0212645 0.406379 7.13236 0.0251318 20.624C-0.356115 34.1157 3.65483 51.4629 8.34403 63.4003C28.0175 113.503 57.9761 131.614 80.2655 135.758C102.555 139.901 106.769 124.452 111.508 100.601C115.319 81.4177 125.16 61.9431 139.637 45.1348C154.811 27.5267 151.614 13.3121 140.988 4.84525Z" fill="url(#paint0_linear_832_1308)"/>
<path style="mix-blend-mode:multiply" d="M133.568 46.2013C127.155 35.5599 111.558 32.9221 88.0391 25.6686C64.7031 18.4779 54.9435 14.4213 42.528 5.32138C30.7407 -3.31943 20.5384 -1.16636 16.9016 9.72734C13.2647 20.621 12.1895 36.2044 13.002 47.6058C16.3747 95.4539 35.8797 120.748 52.6888 131.945C69.498 143.142 76.6774 131.986 86.3557 114.151C94.1391 99.8057 106.816 87.3335 122.548 78.6656C139.031 69.5799 139.979 56.8426 133.568 46.2013Z" fill="url(#paint1_linear_832_1308)"/>
<path style="mix-blend-mode:multiply" d="M126.343 21.5292C118.429 14.4512 104.353 17.1931 82.4152 18.5192C60.6398 19.8353 51.3 19.486 38.5404 15.6589C26.4261 12.0286 18.0887 17.1475 17.3747 27.6648C16.6608 38.182 19.2082 51.9047 22.4452 61.4324C36.0259 101.415 58.5166 116.872 75.5428 121.085C92.5689 125.299 96.29 113.421 100.674 95.0061C104.203 80.1941 112.382 65.4191 124.051 52.9299C136.275 39.8446 134.258 28.6059 126.343 21.5292Z" fill="url(#paint2_linear_832_1308)"/>
<path d="M92.5972 52.2836H86.7689L83.6777 42.1773C83.0939 40.2441 81.3139 39 79.3902 39C78.9596 39 78.5097 39.067 78.0791 39.201L51.1865 47.4314C48.8226 48.1492 47.4924 50.6566 48.2101 53.0301L56.0387 78.5924C56.5842 80.382 58.1537 81.5879 59.9146 81.7506V83.5977C59.9146 86.0285 61.8861 88 64.317 88H92.5972C95.0281 88 96.9996 86.0285 96.9996 83.5977V56.6859C96.9996 54.2551 95.0281 52.2836 92.5972 52.2836ZM59.9051 56.6859V78.6402C59.4648 78.5063 59.1012 78.1521 58.9576 77.6928L51.1387 52.1305C50.9855 51.6424 51.1387 51.2404 51.2439 51.049C51.3492 50.8576 51.598 50.5035 52.0861 50.36L78.9787 42.1295C79.1127 42.0912 79.2562 42.0625 79.3998 42.0625C80.0219 42.0625 80.5769 42.474 80.7588 43.0674L83.582 52.2836H64.3074C61.8765 52.2836 59.9051 54.2551 59.9051 56.6859ZM93.9084 79.559L87.8695 73.5488L87.6207 73.3L87.1326 73.7785L80.8832 79.8174L77.6101 76.6975L75.0644 74.2762L69.1787 68.668L62.9676 74.9078V57.442C62.9676 56.2936 63.9055 55.3557 65.0539 55.3557H91.8316C92.9801 55.3557 93.918 56.2936 93.918 57.442V79.559H93.9084ZM80.7492 68.8211C78.2992 68.8211 76.3181 66.84 76.3181 64.39C76.3181 61.94 78.2992 59.959 80.7492 59.959C83.1992 59.959 85.1803 61.94 85.1803 64.39C85.1803 66.84 83.1992 68.8211 80.7492 68.8211Z" fill="white"/>
</g>
<defs>
<linearGradient id="paint0_linear_832_1308" x1="46.77" y1="126.997" x2="83.9869" y2="-12.0905" gradientUnits="userSpaceOnUse">
<stop stop-color="#FFB56A"/>
<stop offset="1" stop-color="#F78620"/>
</linearGradient>
<linearGradient id="paint1_linear_832_1308" x1="17.0744" y1="98.1445" x2="101.617" y2="13.4835" gradientUnits="userSpaceOnUse">
<stop stop-color="#FFB56A"/>
<stop offset="1" stop-color="#F78620"/>
</linearGradient>
<linearGradient id="paint2_linear_832_1308" x1="26.2405" y1="76.2943" x2="136.509" y2="46.7065" gradientUnits="userSpaceOnUse">
<stop stop-color="#8932A2"/>
<stop offset="1" stop-color="#FFB56A"/>
</linearGradient>
<clipPath id="clip0_832_1308">
<rect width="150" height="136.432" fill="white"/>
</clipPath>
</defs>
</svg>
