<svg width="150" height="137" viewBox="0 0 150 137" fill="none" xmlns="http://www.w3.org/2000/svg">
<g clip-path="url(#clip0_796_505)">
<path style="mix-blend-mode:multiply" d="M117.411 17.9545C107.996 11.7168 94.195 11.5385 83.6414 17.5267C72.0541 24.0995 65.2216 26.2609 54.6552 26.1084C44.56 25.9658 24.8894 20.2328 11.9613 32.3689C-3.56278 46.9415 -3.31717 69.3659 8.92128 88.8517C22.6005 110.627 53.0931 134.41 88.7404 133.099C124.388 131.787 139.686 100.293 140.811 78.3168C142.897 37.5757 127.016 24.3205 117.411 17.9545Z" fill="url(#paint0_radial_796_505)"/>
<path style="mix-blend-mode:multiply" d="M138.395 39.271C130.732 29.5873 118.769 21.8255 106.929 22.1619C93.9351 22.5269 84.708 21.335 74.8641 15.9627C65.4629 10.83 50.8013 -2.65053 34.9703 0.463325C15.2654 4.34139 8.55431 27.2262 13.6247 51.3629C19.2949 78.3325 39.1454 117.897 73.8389 131.904C107.761 145.6 133.867 125.594 143.092 107.374C155.888 82.1065 148.882 52.5306 138.395 39.271Z" fill="url(#paint1_radial_796_505)"/>
<path style="mix-blend-mode:multiply" d="M125.059 51.5995C116.979 13.2965 103.271 7.16577 94.2568 5.11981C85.4196 3.12375 74.6033 8.42614 67.7923 18.1227C60.3144 28.7674 55.4953 33.4681 47.2064 37.523C39.293 41.3982 22.5724 43.9332 15.3744 60.2296C6.72993 79.7939 12.2659 100.325 26.4634 113.39C42.3316 127.992 71.8018 137.771 99.3144 122.413C126.827 107.054 129.419 72.2587 125.059 51.5995Z" fill="url(#paint2_radial_796_505)"/>
<path d="M67.937 68.2171L77.1753 58.9968V79.3843C77.1753 81.5062 78.8959 83.2343 81.0329 83.2343C83.1589 83.2343 84.8904 81.5171 84.8904 79.3843L84.8795 58.9859L94.1726 68.2609C95.663 69.7484 98.063 69.7812 99.5753 68.3156C101.132 66.8281 101.11 64.2906 99.5753 62.7593L83.1589 46.3968C81.9644 45.2046 80.0466 45.2046 78.8521 46.3968L62.3918 62.825C61.0329 64.1812 60.7699 66.6312 62.3479 68.2171C63.8603 69.7812 66.4027 69.7484 67.937 68.2171ZM60.9452 79.789C63.126 79.789 64.8904 81.55 64.8904 83.7265V86.5921H97.1096V83.7265C97.1096 81.539 98.8959 79.7671 101.088 79.789C103.258 79.8109 105 81.5609 105 83.7265V91.2187C105 93.0343 103.532 94.5 101.712 94.5H60.2877C58.4685 94.5 57 93.0343 57 91.2187V83.7265C57 81.55 58.7644 79.789 60.9452 79.789Z" fill="white"/>
</g>
<defs>
<radialGradient id="paint0_radial_796_505" cx="0" cy="0" r="1" gradientUnits="userSpaceOnUse" gradientTransform="translate(68.8205 73.4275) scale(62.7882 69.2937)">
<stop stop-color="#FFB56A"/>
<stop offset="1" stop-color="#F78620"/>
</radialGradient>
<radialGradient id="paint1_radial_796_505" cx="0" cy="0" r="1" gradientUnits="userSpaceOnUse" gradientTransform="translate(79.2655 68.4888) scale(65.3682 72.1411)">
<stop stop-color="#FFB56A"/>
<stop offset="1" stop-color="#F78620"/>
</radialGradient>
<radialGradient id="paint2_radial_796_505" cx="0" cy="0" r="1" gradientUnits="userSpaceOnUse" gradientTransform="translate(67.3288 67.4368) scale(58.5776 61.5685)">
<stop stop-color="#8932A2"/>
<stop offset="1" stop-color="#FFB56A"/>
</radialGradient>
<clipPath id="clip0_796_505">
<rect width="150" height="136.432" fill="white"/>
</clipPath>
</defs>
</svg>
