<svg width="150" height="137" viewBox="0 0 150 137" fill="none" xmlns="http://www.w3.org/2000/svg">
<g clip-path="url(#clip0_796_515)">
<path style="mix-blend-mode:multiply" d="M122 39.6068C122 39.6068 117.755 35.4825 97.479 13.488C77.203 -8.50656 54.5666 13.488 49.1435 19.4442C43.7203 25.4005 33.5795 36.6273 18.2568 53.1231C2.93405 69.619 -2.24919 84.6536 2.46713 96.338C7.18346 108.022 24.2439 113.52 40.8917 109.254C59.1216 104.584 76.0278 103.914 90.1697 121.168C108.018 142.947 139.953 136.658 148.205 106.186C156.457 75.715 134.26 53.1231 122 39.6068Z" fill="url(#paint0_radial_796_515)"/>
<path style="mix-blend-mode:multiply" d="M129.901 60.1827C124.285 41.4799 107.189 32.7209 92.0865 38.077C82.4739 41.4856 70.2283 42.7886 51.7085 30.8562C31.8294 18.0455 -0.113926 19.4654 0.000305532 55.9229C0.143095 102.353 21.2659 119.363 33.8028 127.284C60.6143 144.226 98.1793 135.515 113.622 118.421C128.786 101.637 135.689 79.4528 129.901 60.1827Z" fill="url(#paint1_radial_796_515)"/>
<path style="mix-blend-mode:multiply" d="M136.175 8.27143C130.154 -0.407764 114.45 -4.49218 99.3197 7.32767C82.3006 20.6259 58.2864 27.2108 36.8137 30.6637C14.7085 34.2192 4.22782 50.5212 3.93367 60.6275C3.6124 71.7074 13.0522 85.5288 40.9903 102.42C68.9284 119.31 88.3963 123.986 105.07 121.824C121.743 119.661 132.661 109.814 138.098 93.4139C141.901 81.9462 139.772 68.1989 138.882 49.8141C137.771 26.8544 144.885 20.824 136.175 8.27143Z" fill="url(#paint2_radial_796_515)"/>
<g clip-path="url(#clip1_796_515)">
<path d="M102.022 62.6159V84.0742C102.022 85.1353 101.599 86.153 100.847 86.9033C100.094 87.6536 99.0742 88.0751 98.0104 88.0751H89.9123V80.2349H94.0855C94.412 80.2349 94.725 80.1055 94.9559 79.8753C95.1867 79.645 95.3164 79.3328 95.3164 79.0072V78.9802C95.315 78.6556 95.1847 78.3447 94.954 78.1156C94.7233 77.8865 94.411 77.7579 94.0855 77.7579H48.8983C48.7374 77.7579 48.578 77.7895 48.4293 77.8509C48.2806 77.9124 48.1455 78.0024 48.0317 78.1159C47.9179 78.2294 47.8277 78.3642 47.7661 78.5125C47.7045 78.6608 47.6728 78.8197 47.6728 78.9802C47.6721 79.1412 47.7033 79.3007 47.7645 79.4497C47.8258 79.5986 47.916 79.734 48.0298 79.848C48.1437 79.9621 48.279 80.0526 48.4281 80.1144C48.5771 80.1762 48.7369 80.208 48.8983 80.208H53.0769V88.0751H45.0112C43.9474 88.0751 42.9271 87.6536 42.1749 86.9033C41.4226 86.153 41 85.1353 41 84.0742V62.6159C41 62.0905 41.1037 61.5703 41.3053 61.0849C41.5069 60.5995 41.8024 60.1584 42.1749 59.7869C42.5473 59.4154 42.9895 59.1207 43.4762 58.9196C43.9629 58.7185 44.4845 58.615 45.0112 58.615H97.9888C98.5173 58.6122 99.0413 58.7136 99.5304 58.9134C100.02 59.1132 100.464 59.4074 100.839 59.7792C101.214 60.151 101.511 60.593 101.714 61.0799C101.917 61.5667 102.022 62.0887 102.022 62.6159Z" fill="white"/>
<path d="M87.655 47H55.3438V56.8487H87.655V47Z" fill="white"/>
<path d="M87.655 80.0786H55.3438V102H87.655V80.0786Z" fill="white"/>
<path d="M59.3176 91.2575C59.3153 91.1678 59.3314 91.0785 59.3648 90.9952C59.3982 90.9119 59.4482 90.8362 59.5118 90.7728C59.5755 90.7093 59.6513 90.6594 59.7349 90.6261C59.8184 90.5928 59.9079 90.5768 59.9978 90.579H76.8148C76.9042 90.5775 76.9931 90.5941 77.076 90.6277C77.1589 90.6614 77.2341 90.7114 77.2972 90.7748C77.3602 90.8381 77.4097 90.9135 77.4428 90.9965C77.4759 91.0795 77.4918 91.1682 77.4896 91.2575C77.4911 91.3463 77.4746 91.4344 77.4412 91.5168C77.4078 91.5991 77.3582 91.6739 77.2952 91.7367C77.2322 91.7995 77.1573 91.849 77.0747 91.8823C76.9922 91.9156 76.9038 91.932 76.8148 91.9306H59.9978C59.9083 91.9327 59.8193 91.9169 59.7362 91.8839C59.653 91.8509 59.5774 91.8015 59.5138 91.7386C59.4503 91.6758 59.4002 91.6007 59.3664 91.518C59.3327 91.4353 59.3161 91.3467 59.3176 91.2575ZM59.3176 94.6283C59.3289 94.4784 59.3941 94.3375 59.5013 94.2317C59.6084 94.1259 59.7502 94.0621 59.9006 94.0522H83.1151C83.2597 94.0693 83.3938 94.1363 83.4943 94.2414C83.5948 94.3466 83.6554 94.4834 83.6657 94.6283C83.6556 94.7792 83.5909 94.9214 83.4837 95.0283C83.3765 95.1353 83.234 95.1998 83.0827 95.2099H59.8682C59.7169 95.1998 59.5744 95.1353 59.4672 95.0283C59.36 94.9214 59.2953 94.7792 59.2852 94.6283H59.3176ZM59.3176 98.3977C59.3161 98.3084 59.3327 98.2198 59.3664 98.1371C59.4002 98.0544 59.4503 97.9794 59.5138 97.9165C59.5774 97.8536 59.653 97.8042 59.7362 97.7712C59.8193 97.7383 59.9083 97.7224 59.9978 97.7246H82.9045C82.9935 97.7231 83.0819 97.7395 83.1645 97.7728C83.247 97.8061 83.322 97.8557 83.3849 97.9185C83.4479 97.9813 83.4976 98.056 83.5309 98.1384C83.5643 98.2207 83.5808 98.3089 83.5793 98.3977C83.5815 98.4869 83.5656 98.5757 83.5326 98.6586C83.4995 98.7416 83.4499 98.817 83.3869 98.8804C83.3239 98.9438 83.2487 98.9938 83.1658 99.0274C83.0829 99.0611 82.994 99.0776 82.9045 99.0761H59.9978C59.9079 99.0784 59.8184 99.0623 59.7349 99.029C59.6513 98.9957 59.5755 98.9458 59.5118 98.8824C59.4482 98.8189 59.3982 98.7432 59.3648 98.6599C59.3314 98.5766 59.3153 98.4874 59.3176 98.3977ZM59.3176 85.0973C59.3153 85.0078 59.3314 84.9189 59.3648 84.8358C59.3983 84.7528 59.4484 84.6774 59.5121 84.6144C59.5758 84.5514 59.6517 84.502 59.7353 84.4693C59.8188 84.4366 59.9081 84.4212 59.9978 84.4242H71.3027C71.3924 84.4212 71.4817 84.4366 71.5652 84.4693C71.6487 84.502 71.7247 84.5514 71.7884 84.6144C71.8521 84.6774 71.9022 84.7528 71.9356 84.8358C71.9691 84.9189 71.9852 85.0078 71.9829 85.0973C71.9852 85.1867 71.9691 85.2757 71.9356 85.3588C71.9022 85.4418 71.8521 85.5172 71.7884 85.5802C71.7247 85.6432 71.6487 85.6926 71.5652 85.7253C71.4817 85.758 71.3924 85.7733 71.3027 85.7704H59.9978C59.9081 85.7733 59.8188 85.758 59.7353 85.7253C59.6517 85.6926 59.5758 85.6432 59.5121 85.5802C59.4484 85.5172 59.3983 85.4418 59.3648 85.3588C59.3314 85.2757 59.3153 85.1867 59.3176 85.0973ZM59.3176 88.1828C59.3153 88.0933 59.3314 88.0043 59.3648 87.9213C59.3983 87.8382 59.4484 87.7629 59.5121 87.6999C59.5758 87.6368 59.6517 87.5875 59.7353 87.5548C59.8188 87.522 59.9081 87.5067 59.9978 87.5097H71.3027C71.3924 87.5067 71.4817 87.522 71.5652 87.5548C71.6487 87.5875 71.7247 87.6368 71.7884 87.6999C71.8521 87.7629 71.9022 87.8382 71.9356 87.9213C71.9691 88.0043 71.9852 88.0933 71.9829 88.1828C71.9844 88.272 71.9678 88.3607 71.934 88.4433C71.9003 88.526 71.8502 88.6011 71.7866 88.6639C71.7231 88.7268 71.6475 88.7762 71.5643 88.8092C71.4811 88.8422 71.3922 88.858 71.3027 88.8559H59.9978C59.9081 88.8588 59.8188 88.8435 59.7353 88.8108C59.6517 88.7781 59.5758 88.7287 59.5121 88.6656C59.4484 88.6026 59.3983 88.5273 59.3648 88.4442C59.3314 88.3612 59.3153 88.2722 59.3176 88.1828Z" fill="#F6861F"/>
</g>
</g>
<defs>
<radialGradient id="paint0_radial_796_515" cx="0" cy="0" r="1" gradientUnits="userSpaceOnUse" gradientTransform="translate(75.9122 68.9989) scale(70.2423 70.1307)">
<stop stop-color="#F78620"/>
<stop offset="1" stop-color="#FFB56A"/>
</radialGradient>
<radialGradient id="paint1_radial_796_515" cx="0" cy="0" r="1" gradientUnits="userSpaceOnUse" gradientTransform="translate(66.2131 80.5972) scale(61.3679 61.8831)">
<stop stop-color="#FFB56A"/>
<stop offset="1" stop-color="#F78620"/>
</radialGradient>
<radialGradient id="paint2_radial_796_515" cx="0" cy="0" r="1" gradientUnits="userSpaceOnUse" gradientTransform="translate(72.6136 61.5014) scale(65.3678 64.6178)">
<stop stop-color="#8932A2"/>
<stop offset="1" stop-color="#FFB56A"/>
</radialGradient>
<clipPath id="clip0_796_515">
<rect width="150" height="136.432" fill="white"/>
</clipPath>
<clipPath id="clip1_796_515">
<rect width="61" height="55" fill="white" transform="translate(41 47)"/>
</clipPath>
</defs>
</svg>
