<svg width="150" height="137" viewBox="0 0 150 137" fill="none" xmlns="http://www.w3.org/2000/svg">
<g clip-path="url(#clip0_796_495)">
<path style="mix-blend-mode:multiply" d="M140.988 4.84525C130.362 -3.6216 112.262 0.906978 83.8809 4.20075C55.7186 7.46744 43.5915 7.70271 26.8509 3.7402C10.9571 -0.0212645 0.406379 7.13236 0.0251318 20.624C-0.356115 34.1157 3.65483 51.4629 8.34403 63.4003C28.0175 113.503 57.9761 131.614 80.2655 135.758C102.555 139.901 106.769 124.452 111.508 100.601C115.319 81.4177 125.16 61.9431 139.637 45.1348C154.811 27.5267 151.614 13.3121 140.988 4.84525Z" fill="url(#paint0_linear_796_495)"/>
<path style="mix-blend-mode:multiply" d="M133.568 46.2013C127.155 35.5599 111.558 32.9221 88.0391 25.6686C64.7031 18.4779 54.9435 14.4213 42.528 5.32138C30.7407 -3.31943 20.5384 -1.16636 16.9016 9.72734C13.2647 20.621 12.1895 36.2044 13.002 47.6058C16.3747 95.4539 35.8797 120.748 52.6888 131.945C69.498 143.142 76.6774 131.986 86.3557 114.151C94.1391 99.8057 106.816 87.3335 122.548 78.6656C139.031 69.5799 139.979 56.8426 133.568 46.2013Z" fill="url(#paint1_linear_796_495)"/>
<path style="mix-blend-mode:multiply" d="M126.343 21.5292C118.429 14.4512 104.353 17.1931 82.4152 18.5192C60.6398 19.8353 51.3 19.486 38.5404 15.6589C26.4261 12.0286 18.0887 17.1475 17.3747 27.6648C16.6608 38.182 19.2082 51.9047 22.4452 61.4324C36.0259 101.415 58.5166 116.872 75.5428 121.085C92.5689 125.299 96.29 113.421 100.674 95.0061C104.203 80.1941 112.382 65.4191 124.051 52.9299C136.275 39.8446 134.258 28.6059 126.343 21.5292Z" fill="url(#paint2_linear_796_495)"/>
<path d="M46.0009 41.032C45.9912 40.6313 46.0634 40.2329 46.213 39.8608C46.3626 39.4887 46.5866 39.1507 46.8714 38.8673C47.1561 38.5839 47.4957 38.361 47.8695 38.212C48.2434 38.0631 48.6437 37.9912 49.0463 38.0008H82.6866L94.8858 50.1429V95.7851C94.8954 96.1858 94.8233 96.5843 94.6736 96.9563C94.524 97.3284 94.3 97.6665 94.0153 97.9499C93.7305 98.2333 93.391 98.4562 93.0171 98.6051C92.6433 98.754 92.243 98.8259 91.8404 98.8163H49.0463C48.6437 98.8259 48.2434 98.754 47.8695 98.6051C47.4957 98.4562 47.1561 98.2333 46.8714 97.9499C46.5866 97.6665 46.3626 97.3284 46.213 96.9563C46.0634 96.5843 45.9912 96.1858 46.0009 95.7851V41.032Z" fill="white"/>
<path fill-rule="evenodd" clip-rule="evenodd" d="M49.0463 97.3796H91.8756C92.2753 97.3808 92.6607 97.2315 92.9545 96.9619C93.2483 96.6922 93.4288 96.3219 93.4599 95.9253V50.8262L82.1409 39.5602H49.0463C48.6601 39.5928 48.2955 39.7512 48.0091 40.0109C47.7226 40.2707 47.5303 40.6173 47.4619 40.997V95.8903C47.4663 96.0905 47.5112 96.2877 47.594 96.4703C47.6767 96.6528 47.7956 96.8168 47.9435 96.9526C48.0914 97.0884 48.2653 97.193 48.4548 97.2604C48.6442 97.3277 48.8454 97.3563 49.0463 97.3445V97.3796ZM82.6866 38.0008H49.0463C48.6437 37.9912 48.2434 38.0631 47.8695 38.212C47.4957 38.361 47.1561 38.5839 46.8714 38.8673C46.5866 39.1507 46.3626 39.4887 46.213 39.8608C46.0634 40.2329 45.9912 40.6313 46.0009 41.032V95.9253C45.9913 96.3268 46.0634 96.726 46.2128 97.0991C46.3623 97.4721 46.586 97.8112 46.8704 98.096C47.1549 98.3807 47.4943 98.6053 47.8682 98.7562C48.2421 98.9071 48.6429 98.9812 49.0463 98.974H91.8756C92.279 98.9812 92.6797 98.9071 93.0536 98.7562C93.4275 98.6053 93.767 98.3807 94.0514 98.096C94.3359 97.8112 94.5596 97.4721 94.709 97.0991C94.8585 96.726 94.9306 96.3268 94.921 95.9253V50.2831L82.6866 38.0008Z" fill="url(#paint3_linear_796_495)"/>
<path d="M82.6914 38.0012L94.8906 50.1433H82.6914V38.0012Z" fill="url(#paint4_linear_796_495)"/>
<path d="M50.8848 45.0622C50.8848 44.9646 50.9237 44.871 50.9931 44.802C51.0624 44.733 51.1564 44.6943 51.2545 44.6943H80.4587C80.5087 44.6919 80.5587 44.6996 80.6056 44.7171C80.6525 44.7345 80.6953 44.7612 80.7315 44.7956C80.7678 44.8301 80.7965 44.8714 80.8162 44.9172C80.8359 44.9631 80.846 45.0124 80.846 45.0622C80.846 45.1128 80.8359 45.1629 80.8165 45.2097C80.797 45.2565 80.7685 45.299 80.7325 45.3348C80.6965 45.3706 80.6538 45.399 80.6069 45.4183C80.5599 45.4377 80.5096 45.4477 80.4587 45.4477H51.2545C51.2044 45.4477 51.1548 45.4377 51.1088 45.4181C51.0627 45.3985 51.0212 45.3698 50.9866 45.3338C50.952 45.2977 50.9252 45.2551 50.9077 45.2084C50.8902 45.1617 50.8824 45.112 50.8848 45.0622ZM50.8848 77.1256C50.8848 77.0281 50.9237 76.9345 50.9931 76.8655C51.0624 76.7965 51.1564 76.7577 51.2545 76.7577H85.1588C85.2097 76.7554 85.2605 76.763 85.3084 76.7802C85.3563 76.7974 85.4003 76.8239 85.4379 76.8581C85.4755 76.8923 85.506 76.9335 85.5276 76.9794C85.5492 77.0253 85.5614 77.075 85.5637 77.1256C85.5614 77.1763 85.5492 77.226 85.5276 77.2719C85.506 77.3178 85.4755 77.359 85.4379 77.3932C85.4003 77.4274 85.3563 77.4538 85.3084 77.4711C85.2605 77.4883 85.2097 77.4959 85.1588 77.4936H51.2368C51.1388 77.4936 51.0448 77.4548 50.9754 77.3858C50.9061 77.3168 50.8672 77.2232 50.8672 77.1256H50.8848ZM50.8848 47.0246C50.8824 46.9762 50.8897 46.9279 50.9061 46.8824C50.9225 46.8368 50.9478 46.7949 50.9805 46.7591C51.0132 46.7233 51.0526 46.6943 51.0966 46.6737C51.1406 46.6531 51.1883 46.6413 51.2368 46.6391H83.6977C83.7486 46.6391 83.799 46.6491 83.846 46.6684C83.8929 46.6878 83.9356 46.7162 83.9716 46.752C84.0075 46.7878 84.0361 46.8303 84.0555 46.877C84.075 46.9238 84.085 46.9739 84.085 47.0246C84.0851 47.0744 84.0749 47.1237 84.0553 47.1695C84.0356 47.2153 84.0068 47.2567 83.9706 47.2911C83.9344 47.3255 83.8915 47.3523 83.8446 47.3697C83.7977 47.3871 83.7477 47.3949 83.6977 47.3925H51.2368C51.1433 47.3841 51.0561 47.3421 50.9913 47.2744C50.9265 47.2067 50.8886 47.118 50.8848 47.0246ZM50.8848 79.0354C50.889 78.9532 50.9238 78.8754 50.9823 78.8171C51.0408 78.7589 51.1189 78.7243 51.2016 78.7201H88.6443C88.727 78.7243 88.8051 78.7589 88.8637 78.8171C88.9222 78.8754 88.9569 78.9532 88.9612 79.0354C88.9612 79.1191 88.9278 79.1993 88.8684 79.2584C88.809 79.3176 88.7284 79.3508 88.6443 79.3508H51.184C51.1 79.3508 51.0194 79.3176 50.96 79.2584C50.9005 79.1993 50.8672 79.1191 50.8672 79.0354H50.8848ZM50.8848 49.1271C50.8824 49.0773 50.8902 49.0276 50.9077 48.9809C50.9252 48.9342 50.952 48.8915 50.9866 48.8555C51.0212 48.8195 51.0627 48.7908 51.1088 48.7712C51.1548 48.7516 51.2044 48.7416 51.2545 48.7416H74.7376C74.7941 48.7294 74.8526 48.73 74.9089 48.7432C74.9651 48.7565 75.0177 48.7821 75.0627 48.8183C75.1077 48.8544 75.144 48.9001 75.169 48.952C75.1939 49.0039 75.2069 49.0608 75.2069 49.1183C75.2069 49.1759 75.1939 49.2327 75.169 49.2846C75.144 49.3366 75.1077 49.3823 75.0627 49.4184C75.0177 49.4545 74.9651 49.4801 74.9089 49.4934C74.8526 49.5067 74.7941 49.5072 74.7376 49.495H51.2545C51.1564 49.495 51.0624 49.4563 50.9931 49.3873C50.9237 49.3183 50.8848 49.2247 50.8848 49.1271ZM50.8848 81.1555C50.8824 81.108 50.8897 81.0606 50.9064 81.016C50.923 80.9714 50.9485 80.9307 50.9815 80.8963C51.0144 80.8619 51.054 80.8345 51.0979 80.8158C51.1418 80.7971 51.1891 80.7875 51.2368 80.7875H88.5035C88.5535 80.7852 88.6034 80.7929 88.6503 80.8104C88.6972 80.8278 88.7401 80.8545 88.7763 80.8889C88.8125 80.9233 88.8414 80.9647 88.861 81.0105C88.8807 81.0563 88.8908 81.1056 88.8907 81.1555C88.8907 81.2061 88.8808 81.2562 88.8613 81.303C88.8418 81.3498 88.8133 81.3922 88.7773 81.428C88.7414 81.4638 88.6987 81.4922 88.6517 81.5116C88.6047 81.531 88.5543 81.5409 88.5035 81.5409H51.2192C51.1242 81.5286 51.0367 81.483 50.9722 81.4124C50.9077 81.3419 50.8705 81.2508 50.8672 81.1555H50.8848ZM50.8848 56.4509C50.8846 56.3562 50.9212 56.2652 50.9868 56.1967C51.0523 56.1282 51.1419 56.0874 51.2368 56.0829H89.4013C89.4578 56.0707 89.5163 56.0713 89.5726 56.0845C89.6288 56.0978 89.6814 56.1234 89.7264 56.1596C89.7714 56.1957 89.8078 56.2414 89.8327 56.2933C89.8577 56.3452 89.8706 56.4021 89.8706 56.4596C89.8706 56.5172 89.8577 56.574 89.8327 56.6259C89.8078 56.6779 89.7714 56.7236 89.7264 56.7597C89.6814 56.7958 89.6288 56.8214 89.5726 56.8347C89.5163 56.848 89.4578 56.8485 89.4013 56.8363H51.2368C51.1883 56.8341 51.1406 56.8223 51.0966 56.8017C51.0526 56.7811 51.0132 56.7521 50.9805 56.7163C50.9478 56.6805 50.9225 56.6386 50.9061 56.593C50.8897 56.5475 50.8824 56.4992 50.8848 56.4509ZM50.8848 88.4968C50.8824 88.4493 50.8897 88.4019 50.9064 88.3573C50.923 88.3127 50.9485 88.272 50.9815 88.2376C51.0144 88.2032 51.054 88.1758 51.0979 88.1571C51.1418 88.1384 51.1891 88.1288 51.2368 88.1288H89.4013C89.4993 88.1288 89.5933 88.1676 89.6627 88.2366C89.732 88.3056 89.7709 88.3992 89.7709 88.4968C89.7709 88.5944 89.732 88.688 89.6627 88.757C89.5933 88.826 89.4993 88.8647 89.4013 88.8647H51.2368C51.1433 88.8563 51.0561 88.8144 50.9913 88.7467C50.9265 88.679 50.8886 88.5902 50.8848 88.4968ZM50.8848 58.1679C50.8824 58.1181 50.8902 58.0684 50.9077 58.0217C50.9252 57.9751 50.952 57.9324 50.9866 57.8963C51.0212 57.8603 51.0627 57.8316 51.1088 57.8121C51.1548 57.7925 51.2044 57.7824 51.2545 57.7825H87.7993C87.8494 57.7824 87.899 57.7925 87.945 57.8121C87.9911 57.8316 88.0326 57.8603 88.0672 57.8963C88.1018 57.9324 88.1286 57.9751 88.1461 58.0217C88.1636 58.0684 88.1714 58.1181 88.169 58.1679C88.169 58.2655 88.1301 58.3591 88.0607 58.4281C87.9914 58.4971 87.8974 58.5358 87.7993 58.5358H51.2545C51.1564 58.5358 51.0624 58.4971 50.9931 58.4281C50.9237 58.3591 50.8848 58.2655 50.8848 58.1679ZM50.8848 90.1963C50.8824 90.1488 50.8897 90.1014 50.9064 90.0568C50.923 90.0123 50.9485 89.9715 50.9815 89.9371C51.0144 89.9027 51.054 89.8753 51.0979 89.8566C51.1418 89.8379 51.1891 89.8283 51.2368 89.8284H87.7818C87.8798 89.8284 87.9738 89.8671 88.0431 89.9361C88.1124 90.0051 88.1514 90.0987 88.1514 90.1963C88.1538 90.2461 88.146 90.2958 88.1285 90.3425C88.111 90.3892 88.0841 90.4318 88.0496 90.4679C88.015 90.5039 87.9734 90.5326 87.9274 90.5522C87.8814 90.5718 87.8318 90.5818 87.7818 90.5818H51.2368C51.1418 90.5694 51.0543 90.5239 50.9898 90.4533C50.9254 90.3827 50.8881 90.2916 50.8848 90.1963ZM50.8848 59.8675C50.8848 59.8191 50.8943 59.7713 50.9129 59.7266C50.9315 59.682 50.9587 59.6414 50.9931 59.6073C51.0274 59.5731 51.0681 59.546 51.113 59.5275C51.1578 59.509 51.2059 59.4995 51.2545 59.4995H88.6091C88.7071 59.4995 88.8012 59.5383 88.8705 59.6073C88.9398 59.6763 88.9788 59.7699 88.9788 59.8675C88.9788 59.965 88.9398 60.0586 88.8705 60.1276C88.8012 60.1966 88.7071 60.2354 88.6091 60.2354H51.2545C51.1564 60.2354 51.0624 60.1966 50.9931 60.1276C50.9237 60.0586 50.8848 59.965 50.8848 59.8675ZM50.8848 91.9134C50.8824 91.8651 50.8897 91.8167 50.9061 91.7712C50.9225 91.7256 50.9478 91.6838 50.9805 91.648C51.0132 91.6122 51.0526 91.5831 51.0966 91.5625C51.1406 91.5419 51.1883 91.5302 51.2368 91.5279H88.6091C88.7118 91.5279 88.8103 91.5685 88.8829 91.6408C88.9556 91.7131 88.9964 91.8112 88.9964 91.9134C88.9964 91.9632 88.9863 92.0125 88.9666 92.0584C88.947 92.1042 88.9182 92.1455 88.882 92.1799C88.8458 92.2143 88.8029 92.2411 88.756 92.2585C88.7091 92.2759 88.6591 92.2837 88.6091 92.2813H51.2545C51.1591 92.2734 51.0696 92.2321 51.0019 92.1647C50.9342 92.0973 50.8927 92.0083 50.8848 91.9134ZM50.8848 61.567C50.8846 61.4724 50.9212 61.3814 50.9868 61.3128C51.0523 61.2443 51.1419 61.2036 51.2368 61.199H88.6091C88.6656 61.1868 88.7242 61.1874 88.7804 61.2007C88.8367 61.2139 88.8893 61.2396 88.9343 61.2757C88.9793 61.3118 89.0156 61.3575 89.0406 61.4095C89.0655 61.4614 89.0785 61.5182 89.0785 61.5757C89.0785 61.6333 89.0655 61.6901 89.0406 61.7421C89.0156 61.794 88.9793 61.8397 88.9343 61.8758C88.8893 61.9119 88.8367 61.9376 88.7804 61.9508C88.7242 61.9641 88.6656 61.9647 88.6091 61.9525H51.2545C51.1548 61.948 51.0608 61.9054 50.9919 61.8335C50.9231 61.7617 50.8847 61.6663 50.8848 61.567ZM50.8848 63.3191C50.8824 63.2693 50.8902 63.2196 50.9077 63.1729C50.9252 63.1262 50.952 63.0836 50.9866 63.0475C51.0212 63.0115 51.0627 62.9828 51.1088 62.9632C51.1548 62.9436 51.2044 62.9336 51.2545 62.9336H86.215C86.2659 62.9336 86.3163 62.9436 86.3632 62.963C86.4102 62.9823 86.4529 63.0107 86.4889 63.0465C86.5249 63.0823 86.5533 63.1248 86.5728 63.1716C86.5923 63.2183 86.6023 63.2685 86.6023 63.3191C86.6024 63.3689 86.5923 63.4182 86.5726 63.4641C86.5529 63.5099 86.5241 63.5513 86.4879 63.5857C86.4517 63.6201 86.4088 63.6468 86.3619 63.6642C86.315 63.6816 86.265 63.6894 86.215 63.687H51.2545C51.1564 63.687 51.0624 63.6483 50.9931 63.5793C50.9237 63.5103 50.8848 63.4167 50.8848 63.3191ZM50.8848 65.0712C50.8848 64.9736 50.9237 64.88 50.9931 64.811C51.0624 64.742 51.1564 64.7032 51.2545 64.7032H86.215C86.3131 64.7032 86.4071 64.742 86.4764 64.811C86.5458 64.88 86.5847 64.9736 86.5847 65.0712C86.5847 65.1688 86.5458 65.2624 86.4764 65.3314C86.4071 65.4004 86.3131 65.4391 86.215 65.4391H51.2545C51.1564 65.4391 51.0624 65.4004 50.9931 65.3314C50.9237 65.2624 50.8848 65.1688 50.8848 65.0712ZM50.8848 66.8233C50.8848 66.7257 50.9237 66.6321 50.9931 66.5631C51.0624 66.4941 51.1564 66.4553 51.2545 66.4553H86.215C86.265 66.453 86.315 66.4607 86.3619 66.4782C86.4088 66.4956 86.4517 66.5223 86.4879 66.5567C86.5241 66.5911 86.5529 66.6325 86.5726 66.6783C86.5923 66.7241 86.6024 66.7735 86.6023 66.8233C86.5943 66.9229 86.5509 67.0163 86.4799 67.0869C86.409 67.1576 86.3151 67.2008 86.215 67.2088H51.2545C51.1563 67.2003 51.0645 67.1565 50.9964 67.0855C50.9284 67.0146 50.8887 66.9213 50.8848 66.8233ZM50.8848 68.5754C50.8824 68.5271 50.8897 68.4787 50.9061 68.4332C50.9225 68.3877 50.9478 68.3458 50.9805 68.31C51.0132 68.2742 51.0526 68.2451 51.0966 68.2245C51.1406 68.2039 51.1883 68.1922 51.2368 68.1899H86.215C86.2715 68.1777 86.3301 68.1783 86.3863 68.1915C86.4426 68.2048 86.4952 68.2304 86.5402 68.2666C86.5852 68.3027 86.6216 68.3484 86.6465 68.4003C86.6715 68.4522 86.6844 68.5091 86.6844 68.5666C86.6844 68.6242 86.6715 68.681 86.6465 68.733C86.6216 68.7849 86.5852 68.8306 86.5402 68.8667C86.4952 68.9028 86.4426 68.9285 86.3863 68.9417C86.3301 68.955 86.2715 68.9555 86.215 68.9433H51.2368C51.1433 68.9349 51.0561 68.893 50.9913 68.8253C50.9265 68.7576 50.8886 68.6688 50.8848 68.5754ZM50.8848 73.8317C50.8848 73.7341 50.9237 73.6405 50.9931 73.5715C51.0624 73.5025 51.1564 73.4638 51.2545 73.4638H67.3969C67.4469 73.4614 67.4968 73.4691 67.5437 73.4866C67.5906 73.504 67.6335 73.5307 67.6697 73.5651C67.7059 73.5995 67.7348 73.6409 67.7544 73.6867C67.7741 73.7325 67.7842 73.7819 67.7841 73.8317C67.7841 73.8823 67.7741 73.9324 67.7546 73.9792C67.7352 74.026 67.7067 74.0685 67.6707 74.1043C67.6348 74.1401 67.5921 74.1684 67.5451 74.1878C67.4981 74.2072 67.4477 74.2172 67.3969 74.2172H51.2545C51.2044 74.2172 51.1548 74.2072 51.1088 74.1876C51.0627 74.168 51.0212 74.1393 50.9866 74.1033C50.952 74.0672 50.9252 74.0246 50.9077 73.9779C50.8902 73.9312 50.8824 73.8815 50.8848 73.8317ZM50.8848 82.9601C50.8848 82.8625 50.9237 82.769 50.9931 82.7C51.0624 82.631 51.1564 82.5922 51.2545 82.5922H83.6097C83.6606 82.5899 83.7114 82.5975 83.7593 82.6147C83.8072 82.6319 83.8512 82.6584 83.8888 82.6926C83.9264 82.7268 83.9569 82.768 83.9785 82.8139C84.0001 82.8598 84.0123 82.9095 84.0146 82.9601C84.0123 83.0108 84.0001 83.0605 83.9785 83.1064C83.9569 83.1523 83.9264 83.1935 83.8888 83.2277C83.8512 83.2619 83.8072 83.2883 83.7593 83.3055C83.7114 83.3228 83.6606 83.3304 83.6097 83.3281H51.2368C51.1388 83.3281 51.0448 83.2893 50.9754 83.2203C50.9061 83.1513 50.8672 83.0577 50.8672 82.9601H50.8848ZM50.8848 75.5312C50.8846 75.4366 50.9212 75.3456 50.9868 75.2771C51.0523 75.2086 51.1419 75.1678 51.2368 75.1633H67.3792C67.4358 75.1511 67.4943 75.1516 67.5506 75.1649C67.6069 75.1782 67.6595 75.2038 67.7045 75.2399C67.7495 75.2761 67.7858 75.3218 67.8107 75.3737C67.8357 75.4256 67.8487 75.4824 67.8487 75.54C67.8487 75.5975 67.8357 75.6544 67.8107 75.7063C67.7858 75.7582 67.7495 75.8039 67.7045 75.8401C67.6595 75.8762 67.6069 75.9018 67.5506 75.9151C67.4943 75.9283 67.4358 75.9289 67.3792 75.9167H51.2368C51.1404 75.9079 51.0507 75.8635 50.9855 75.7921C50.9203 75.7208 50.8844 75.6277 50.8848 75.5312Z" fill="#F6861F"/>
</g>
<defs>
<linearGradient id="paint0_linear_796_495" x1="46.77" y1="126.997" x2="83.9869" y2="-12.0905" gradientUnits="userSpaceOnUse">
<stop stop-color="#FFB56A"/>
<stop offset="1" stop-color="#F78620"/>
</linearGradient>
<linearGradient id="paint1_linear_796_495" x1="17.0744" y1="98.1445" x2="101.617" y2="13.4835" gradientUnits="userSpaceOnUse">
<stop stop-color="#FFB56A"/>
<stop offset="1" stop-color="#F78620"/>
</linearGradient>
<linearGradient id="paint2_linear_796_495" x1="26.2405" y1="76.2943" x2="136.509" y2="46.7065" gradientUnits="userSpaceOnUse">
<stop stop-color="#8932A2"/>
<stop offset="1" stop-color="#FFB56A"/>
</linearGradient>
<linearGradient id="paint3_linear_796_495" x1="70.4697" y1="38.0008" x2="70.4697" y2="98.974" gradientUnits="userSpaceOnUse">
<stop stop-color="#F1CEAB"/>
<stop offset="0.8" stop-color="#F6861F"/>
<stop offset="1" stop-color="#F6861F"/>
</linearGradient>
<linearGradient id="paint4_linear_796_495" x1="88.835" y1="38.0012" x2="88.835" y2="50.1433" gradientUnits="userSpaceOnUse">
<stop stop-color="#F1CEAB"/>
<stop offset="0.8" stop-color="#F6861F"/>
<stop offset="1" stop-color="#F6861F"/>
</linearGradient>
<clipPath id="clip0_796_495">
<rect width="150" height="136.432" fill="white"/>
</clipPath>
</defs>
</svg>
