<svg width="459" height="458" viewBox="0 0 459 458" fill="none" xmlns="http://www.w3.org/2000/svg">
<g clip-path="url(#clip0_796_618)">
<path style="mix-blend-mode:multiply" d="M377.638 221.352C377.638 221.352 373.024 205.074 354.265 121.645C335.506 38.2152 248.031 60.3109 226.093 67.3049C204.154 74.299 163.003 87.5977 101.493 106.534C39.9833 125.471 5.66303 155.282 0.6384 190.949C-4.38623 226.615 29.9913 264.609 77.301 277.843C129.106 292.337 171.916 314.842 182.265 377.769C195.322 457.197 283.369 487.269 347.349 423.629C411.329 359.989 388.67 272.336 377.638 221.352Z" fill="url(#paint0_radial_796_618)"/>
<path style="mix-blend-mode:multiply" d="M367.788 283.582C380.617 229.255 350.813 183.136 305.769 174.809C277.1 169.509 244.923 155.232 216.13 99.2224C185.228 39.0956 104.12 -3.0453 52.2947 87.3717C-13.7129 202.517 14.2656 274.818 33.9807 312.345C76.14 392.608 181.585 424.735 244.248 404.488C305.777 384.612 354.572 339.559 367.788 283.582Z" fill="url(#paint1_radial_796_618)"/>
<path style="mix-blend-mode:multiply" d="M457.513 164.038C455.011 133.946 421.973 101.389 367.623 109.025C306.484 117.621 237.623 99.5998 179.53 77.4572C119.725 54.6647 70.479 80.0418 55.3062 104.64C38.6745 131.61 42.2888 179.319 87.3104 261.065C132.332 342.811 173.843 382.212 218.211 400.689C262.579 419.166 303.68 410.394 340.582 377.565C366.386 354.611 380.764 317.535 404.839 270.75C434.904 212.324 461.134 207.563 457.513 164.038Z" fill="url(#paint2_radial_796_618)"/>
<g opacity="0.31">
<path d="M285.966 31.3822C286.113 24.0423 280.403 17.9756 273.212 17.8318C266.021 17.688 260.073 23.5215 259.926 30.8614C259.779 38.2013 265.489 44.268 272.68 44.4118C279.871 44.5556 285.819 38.7221 285.966 31.3822Z" fill="#D9DADA"/>
</g>
<g opacity="0.31">
<path d="M105.016 74.2177C105.114 75.5356 105.598 76.7955 106.408 77.8396C107.218 78.8837 108.318 79.6658 109.571 80.0879C110.823 80.5101 112.172 80.5536 113.449 80.2131C114.726 79.8725 115.874 79.163 116.75 78.1732C117.626 77.1835 118.19 75.9575 118.373 74.6486C118.555 73.3397 118.348 72.0061 117.777 70.8144C117.205 69.6227 116.295 68.626 115.16 67.949C114.025 67.2719 112.716 66.9445 111.396 67.0077C110.501 67.056 109.625 67.2816 108.819 67.6713C108.012 68.0611 107.291 68.6073 106.697 69.2781C106.104 69.949 105.649 70.7311 105.361 71.5791C105.072 72.4271 104.955 73.324 105.016 74.2177Z" fill="#D9DADA"/>
</g>
<g opacity="0.31">
<path d="M455.501 185.61C455.565 186.483 455.886 187.318 456.422 188.01C456.958 188.702 457.687 189.221 458.516 189.501C459.346 189.781 460.24 189.81 461.086 189.585C461.932 189.359 462.692 188.889 463.272 188.233C463.853 187.578 464.226 186.765 464.347 185.898C464.468 185.031 464.33 184.147 463.951 183.358C463.572 182.569 462.968 181.909 462.216 181.461C461.464 181.013 460.596 180.797 459.721 180.84C459.131 180.874 458.552 181.025 458.02 181.284C457.487 181.543 457.012 181.904 456.619 182.347C456.227 182.791 455.926 183.307 455.735 183.867C455.543 184.427 455.463 185.019 455.501 185.61Z" fill="#E1E2FE"/>
</g>
<path d="M431.358 422.282C431.494 415.766 426.431 410.376 420.05 410.242C413.668 410.108 408.384 415.282 408.247 421.798C408.111 428.313 413.174 433.704 419.555 433.838C425.937 433.971 431.221 428.798 431.358 422.282Z" fill="#FA8617"/>
<g opacity="0.58">
<path d="M377.5 431C379.985 431 382 428.985 382 426.5C382 424.015 379.985 422 377.5 422C375.015 422 373 424.015 373 426.5C373 428.985 375.015 431 377.5 431Z" fill="#D9DADA"/>
</g>
<g opacity="0.58">
<path d="M237.25 23.4688C238.493 23.4688 239.5 22.4614 239.5 21.2188C239.5 19.9761 238.493 18.9688 237.25 18.9688C236.007 18.9688 235 19.9761 235 21.2188C235 22.4614 236.007 23.4688 237.25 23.4688Z" fill="#D9DADA"/>
</g>
<g opacity="0.58">
<path d="M114.719 430.78C117.204 430.78 119.219 428.765 119.219 426.28C119.219 423.795 117.204 421.78 114.719 421.78C112.233 421.78 110.219 423.795 110.219 426.28C110.219 428.765 112.233 430.78 114.719 430.78Z" fill="#D9DADA"/>
</g>
<path opacity="0.31" d="M397.5 445C399.433 445 401 443.433 401 441.5C401 439.567 399.433 438 397.5 438C395.567 438 394 439.567 394 441.5C394 443.433 395.567 445 397.5 445Z" fill="#FA8617"/>
<g opacity="0.58">
<path d="M83.5 54.0339C84.3284 54.0339 85 53.3624 85 52.5339C85 51.7055 84.3284 51.0339 83.5 51.0339C82.6716 51.0339 82 51.7055 82 52.5339C82 53.3624 82.6716 54.0339 83.5 54.0339Z" fill="#D9DADA"/>
</g>
<path d="M452.499 60.6701C454.709 66.0401 449.719 70.2301 445.319 68.2201C444.406 67.7943 443.631 67.1203 443.083 66.2751C442.534 65.4298 442.235 64.4474 442.219 63.4401C442.219 58.6001 448.049 55.7701 452.049 59.9701C452.237 60.1761 452.39 60.4129 452.499 60.6701Z" fill="#FA8617"/>
<path d="M100.64 38.0238C100.661 38.4877 100.529 38.9457 100.265 39.3274C100 39.7092 99.6179 39.9935 99.1761 40.1367C98.7344 40.2799 98.2578 40.2741 97.8197 40.1202C97.3815 39.9662 97.006 39.6727 96.7509 39.2847C96.4958 38.8966 96.3751 38.4355 96.4075 37.9723C96.4399 37.509 96.6234 37.0692 96.93 36.7204C97.2366 36.3716 97.6493 36.1331 98.1046 36.0416C98.5599 35.9501 99.0326 36.0106 99.4502 36.2138C99.7949 36.378 100.088 36.6335 100.298 36.9526C100.508 37.2717 100.626 37.6422 100.64 38.0238Z" fill="#FA8617"/>
<path opacity="0.58" d="M256.891 3.03903C256.909 3.50294 256.773 3.95985 256.506 4.33959C256.239 4.71932 255.855 5.0009 255.412 5.14107C254.97 5.28124 254.493 5.27225 254.056 5.11549C253.62 4.95873 253.246 4.66286 252.994 4.27331C252.741 3.88377 252.623 3.4221 252.658 2.95919C252.694 2.49627 252.88 2.05772 253.188 1.71086C253.497 1.36401 253.911 1.12804 254.367 1.03919C254.822 0.95034 255.295 1.01352 255.711 1.21903C256.053 1.38803 256.343 1.64634 256.551 1.96669C256.759 2.28703 256.876 2.65752 256.891 3.03903Z" fill="#FA8617"/>
<g opacity="0.58">
<path d="M422.049 69.11C422.005 69.3458 421.914 69.5703 421.781 69.7703C421.649 69.9703 421.477 70.1418 421.278 70.2747C421.078 70.4077 420.854 70.4993 420.618 70.5443C420.382 70.5893 420.14 70.5867 419.905 70.5367C419.671 70.4867 419.448 70.3903 419.252 70.2531C419.055 70.116 418.887 69.9409 418.759 69.7381C418.631 69.5353 418.544 69.3089 418.505 69.0722C418.466 68.8356 418.474 68.5934 418.529 68.36C418.574 68.1242 418.665 67.8998 418.797 67.6997C418.93 67.4997 419.101 67.3282 419.301 67.1953C419.501 67.0624 419.725 66.9707 419.961 66.9257C420.196 66.8807 420.438 66.8833 420.673 66.9333C420.908 66.9833 421.13 67.0797 421.327 67.2169C421.524 67.354 421.691 67.5291 421.819 67.7319C421.948 67.9347 422.034 68.1611 422.074 68.3978C422.113 68.6344 422.105 68.8766 422.049 69.11Z" fill="#D9DADA"/>
</g>
<path d="M24.5086 379.52C24.4333 379.868 24.2566 380.186 24.0008 380.433C23.745 380.681 23.4215 380.847 23.0713 380.911C22.7211 380.974 22.3598 380.933 22.0333 380.791C21.7067 380.65 21.4294 380.414 21.2365 380.115C21.0436 379.816 20.9437 379.466 20.9495 379.11C20.9552 378.755 21.0664 378.408 21.2689 378.116C21.4714 377.823 21.7562 377.597 22.0872 377.466C22.4182 377.335 22.7806 377.305 23.1286 377.38C23.3597 377.43 23.5788 377.525 23.7733 377.659C23.9677 377.794 24.1338 377.965 24.262 378.164C24.3901 378.363 24.4779 378.585 24.5202 378.818C24.5625 379.05 24.5585 379.289 24.5086 379.52Z" fill="#FA8617"/>
<path opacity="0.55" d="M368.468 171.615L330.008 265.555C326.487 274.163 316.705 278.232 308.098 274.75L214.157 236.289C205.55 232.768 201.481 222.987 204.963 214.379L243.423 120.439C246.945 111.831 256.726 107.762 265.334 111.244L359.274 149.704C367.842 153.187 371.99 163.046 368.468 171.615Z" fill="#F2F6FF"/>
<path opacity="0.3" d="M244.913 155.339L228.246 215.788C225.781 224.747 216.547 229.99 207.587 227.564L147.138 210.897C138.179 208.432 132.936 199.198 135.362 190.239L152.029 129.79C154.494 120.83 163.728 115.587 172.687 118.013L233.136 134.68C242.135 137.145 247.378 146.379 244.913 155.339Z" fill="#FA8617"/>
<path opacity="0.6" d="M362.721 273.732L321.326 328.156C316.631 334.338 307.867 335.512 301.803 330.817L247.379 289.422C241.197 284.727 240.023 275.963 244.718 269.898L286.113 215.474C290.808 209.293 299.572 208.119 305.637 212.814L360.061 254.209C366.242 258.786 367.416 267.551 362.721 273.732Z" fill="url(#paint3_linear_796_618)"/>
<path d="M303.835 151.465C303.835 150.33 302.935 149.352 301.722 149.352H148.82C147.646 149.352 146.707 150.252 146.707 151.465V345.332C146.707 346.467 147.607 347.445 148.82 347.445H301.722C302.857 347.445 303.835 346.545 303.835 345.332V151.465Z" fill="white"/>
<path d="M294.915 331.56H310.33C311.856 331.56 313.147 332.812 313.147 334.377V349.793C313.147 351.318 311.895 352.61 310.33 352.61H294.915C293.389 352.61 292.098 351.358 292.098 349.793V334.377C292.137 332.851 293.389 331.56 294.915 331.56Z" fill="#FF8000"/>
<path fill-rule="evenodd" clip-rule="evenodd" d="M300.51 336.842H307.591V345.097H304.031V347.484H296.949V338.642H300.51V336.842ZM297.575 339.228V346.936H303.444V345.176H300.51V339.307L297.575 339.228ZM301.096 338.642V337.468H306.965V344.55H301.096V338.642Z" fill="white"/>
<path d="M159.969 165.081C159.969 164.377 160.517 163.829 161.221 163.829H259.152C259.856 163.829 260.404 164.377 260.404 165.081C260.404 165.785 259.856 166.333 259.152 166.333H161.221C160.517 166.333 159.969 165.785 159.969 165.081ZM159.891 273.067C159.891 272.363 160.438 271.815 161.143 271.815H274.802C275.507 271.815 276.133 272.363 276.133 273.067C276.133 273.772 275.585 274.319 274.802 274.319H161.143C160.517 274.358 159.891 273.772 159.891 273.067ZM159.969 171.654C159.969 170.95 160.517 170.402 161.143 170.402H269.99C270.694 170.402 271.242 170.95 271.242 171.654C271.242 172.358 270.694 172.906 269.99 172.906H161.143C160.517 172.867 159.969 172.319 159.969 171.654ZM159.891 279.523C159.891 278.975 160.399 278.467 160.947 278.467H286.54C287.088 278.467 287.596 278.975 287.596 279.523C287.596 280.071 287.088 280.579 286.54 280.579H160.947C160.399 280.579 159.891 280.071 159.891 279.523ZM159.969 178.736C159.969 178.031 160.517 177.484 161.221 177.484H239.941C240.646 177.484 241.193 178.031 241.193 178.736C241.193 179.44 240.646 179.988 239.941 179.988H161.221C160.517 179.988 159.969 179.44 159.969 178.736ZM159.891 286.683C159.891 285.979 160.438 285.431 161.064 285.431H286.07C286.775 285.431 287.322 285.979 287.322 286.683C287.322 287.387 286.775 287.935 286.07 287.935H161.064C160.438 287.857 159.891 287.387 159.891 286.683ZM159.969 203.463C159.969 202.759 160.517 202.211 161.143 202.211H289.122C289.827 202.211 290.374 202.759 290.374 203.463C290.374 204.167 289.827 204.715 289.122 204.715H161.143C160.517 204.715 159.969 204.167 159.969 203.463ZM159.969 311.371C159.969 310.667 160.517 310.119 161.143 310.119H289.122C289.827 310.119 290.374 310.667 290.374 311.371C290.374 312.075 289.827 312.623 289.122 312.623H161.143C160.517 312.584 159.969 311.997 159.969 311.371ZM159.969 209.214C159.969 208.51 160.517 207.962 161.221 207.962H283.723C284.427 207.962 284.975 208.51 284.975 209.214C284.975 209.919 284.427 210.466 283.723 210.466H161.221C160.517 210.466 159.969 209.919 159.969 209.214ZM159.969 317.123C159.969 316.418 160.517 315.871 161.143 315.871H283.645C284.349 315.871 284.897 316.418 284.897 317.123C284.897 317.827 284.349 318.375 283.645 318.375H161.143C160.517 318.336 159.969 317.749 159.969 317.123ZM159.969 214.966C159.969 214.262 160.517 213.714 161.221 213.714H286.462C287.166 213.714 287.714 214.262 287.714 214.966C287.714 215.67 287.166 216.218 286.462 216.218H161.221C160.517 216.218 159.969 215.67 159.969 214.966ZM159.969 322.874C159.969 322.17 160.517 321.622 161.143 321.622H286.462C287.166 321.622 287.714 322.17 287.714 322.874C287.714 323.578 287.166 324.126 286.462 324.126H161.221C160.517 324.048 159.969 323.5 159.969 322.874ZM159.969 220.678C159.969 219.974 160.517 219.426 161.143 219.426H286.462C287.166 219.426 287.714 219.974 287.714 220.678C287.714 221.382 287.166 221.93 286.462 221.93H161.221C160.517 221.891 159.969 221.382 159.969 220.678ZM159.969 226.43C159.969 225.725 160.517 225.178 161.221 225.178H278.245C278.95 225.178 279.497 225.725 279.497 226.43C279.497 227.134 278.95 227.682 278.245 227.682H161.221C160.517 227.643 159.969 227.134 159.969 226.43ZM159.969 232.181C159.969 231.477 160.517 230.929 161.221 230.929H278.245C278.95 230.929 279.497 231.477 279.497 232.181C279.497 232.885 278.95 233.433 278.245 233.433H161.221C160.517 233.355 159.969 232.885 159.969 232.181ZM159.969 237.933C159.969 237.228 160.517 236.681 161.221 236.681H278.245C278.95 236.681 279.497 237.228 279.497 237.933C279.497 238.637 278.95 239.106 278.245 239.185H161.221C160.517 239.106 159.969 238.637 159.969 237.933ZM159.969 243.684C159.969 242.98 160.517 242.432 161.143 242.432H278.167C278.871 242.432 279.419 242.98 279.419 243.684C279.419 244.388 278.871 244.936 278.167 244.936H161.143C160.517 244.858 159.969 244.388 159.969 243.684ZM159.891 261.525C159.891 260.821 160.438 260.273 161.143 260.273H215.292C215.997 260.273 216.544 260.821 216.544 261.525C216.544 262.23 215.997 262.777 215.292 262.777H161.143C160.438 262.777 159.891 262.23 159.891 261.525ZM159.891 292.278C159.891 291.574 160.438 291.026 161.143 291.026H269.638C270.342 291.026 270.968 291.574 270.968 292.278C270.968 292.982 270.42 293.53 269.638 293.53H161.143C160.517 293.53 159.891 292.982 159.891 292.278ZM159.891 267.277C159.891 266.572 160.438 266.025 161.064 266.025H215.214C215.918 266.025 216.466 266.572 216.466 267.277C216.466 267.981 215.918 268.529 215.214 268.529H161.064C160.438 268.451 159.891 267.981 159.891 267.277Z" fill="#EEEEFE"/>
<path d="M100.499 176.232H212.007C214.472 176.232 216.507 178.266 216.507 180.731V219.387C216.507 221.852 214.472 223.887 212.007 223.887H100.499C98.0345 223.887 96 221.852 96 219.387V180.731C96 178.266 97.9563 176.232 100.499 176.232Z" fill="#F9EEE5" stroke="#F1CEAB"/>
<path d="M183.484 186.6C183.484 185.778 184.111 185.113 184.971 185.113H201.208L207.077 190.982V213.127C207.077 213.949 206.451 214.614 205.59 214.614H184.932C184.11 214.614 183.445 213.988 183.445 213.127V186.6H183.484Z" fill="white"/>
<path fill-rule="evenodd" clip-rule="evenodd" d="M184.971 213.909H205.629C206.06 213.909 206.412 213.557 206.412 213.205V191.334L200.934 185.856H184.971C184.541 185.856 184.267 186.209 184.189 186.561V213.166C184.189 213.636 184.541 213.909 184.971 213.909ZM201.208 185.113H184.971C184.15 185.113 183.484 185.739 183.484 186.6V213.205C183.484 214.027 184.11 214.692 184.971 214.692H205.629C206.451 214.692 207.116 214.066 207.116 213.205V191.06L201.208 185.113Z" fill="url(#paint4_linear_796_618)"/>
<path d="M201.207 185.113L207.076 190.982H201.207V185.113Z" fill="url(#paint5_linear_796_618)"/>
<path d="M117.324 163.32C117.324 162.186 118.224 161.286 119.359 161.286H141.895L150.072 169.463V200.216C150.072 201.35 149.172 202.25 148.038 202.25H119.398C118.263 202.25 117.363 201.35 117.363 200.216V163.32H117.324Z" fill="white"/>
<path fill-rule="evenodd" clip-rule="evenodd" d="M119.398 201.233H148.038C148.586 201.233 149.094 200.724 149.094 200.176V169.932L141.543 162.381H119.398C118.85 162.381 118.342 162.89 118.342 163.437V200.294C118.342 200.724 118.772 201.233 119.398 201.233ZM141.895 161.325H119.359C118.224 161.325 117.324 162.225 117.324 163.359V200.215C117.324 201.35 118.224 202.25 119.359 202.25H147.999C149.133 202.25 150.033 201.35 150.033 200.215V169.463L141.895 161.325Z" fill="url(#paint6_linear_796_618)"/>
<path d="M141.895 161.325L150.072 169.502H141.895V161.325Z" fill="url(#paint7_linear_796_618)"/>
<path d="M128.434 183.431H148.74C150.266 183.431 151.479 184.409 151.479 185.661V192.469C151.479 193.642 150.227 194.699 148.74 194.699H128.434C126.908 194.699 125.695 193.721 125.695 192.469V185.661C125.695 184.409 126.908 183.431 128.434 183.431Z" fill="#FF8000"/>
<path d="M130.742 209.566C130.742 208.666 131.446 207.962 132.346 207.962H149.992L156.448 214.418V238.519C156.448 239.419 155.743 240.123 154.844 240.123H132.346C131.446 240.123 130.742 239.419 130.742 238.519V209.566Z" fill="white"/>
<path fill-rule="evenodd" clip-rule="evenodd" d="M132.346 239.263H154.843C155.274 239.263 155.626 238.91 155.626 238.48V214.731L149.679 208.784H132.385C131.955 208.784 131.603 209.136 131.603 209.566V238.48C131.525 238.91 131.955 239.263 132.346 239.263ZM150.031 207.962H132.385C131.485 207.962 130.781 208.666 130.781 209.566V238.48C130.781 239.38 131.485 240.084 132.385 240.084H154.883C155.782 240.084 156.487 239.38 156.487 238.48V214.379L150.031 207.962Z" fill="url(#paint8_linear_796_618)"/>
<path d="M150.031 207.962L156.487 214.418H150.031V207.962Z" fill="url(#paint9_linear_796_618)"/>
<path d="M144.398 224.199H158.835C160.009 224.199 160.987 225.021 160.987 226.156V232.025C160.987 233.081 160.009 233.981 158.835 233.981H144.398C143.224 233.981 142.246 233.159 142.246 232.025V226.156C142.246 225.06 143.224 224.199 144.398 224.199Z" fill="#FF8000"/>
<path d="M99.5977 209.136C99.5977 208.51 100.145 207.962 100.771 207.962H113.878L118.652 212.736V230.577C118.652 231.203 118.104 231.75 117.478 231.75H100.811C100.185 231.75 99.6368 231.203 99.6368 230.577V209.136H99.5977Z" fill="white"/>
<path fill-rule="evenodd" clip-rule="evenodd" d="M100.771 231.203H117.439C117.791 231.203 117.987 230.929 118.065 230.655V213.009L113.644 208.588H100.771C100.419 208.588 100.145 208.862 100.145 209.214V230.655C100.224 230.929 100.497 231.203 100.771 231.203ZM113.957 207.962H100.85C100.224 207.962 99.6758 208.51 99.6758 209.136V230.577C99.6758 231.203 100.224 231.75 100.85 231.75H117.517C118.143 231.75 118.691 231.203 118.691 230.577V212.736L113.957 207.962Z" fill="url(#paint10_linear_796_618)"/>
<path d="M113.957 207.962L118.73 212.736H113.957V207.962Z" fill="url(#paint11_linear_796_618)"/>
<path d="M109.46 219.856H120.454C121.432 219.856 122.215 220.561 122.215 221.461V226.508C122.215 227.408 121.432 228.112 120.454 228.112H109.46C108.482 228.112 107.699 227.408 107.699 226.508V221.461C107.699 220.639 108.482 219.856 109.46 219.856Z" fill="#FF8000"/>
<path d="M173.977 202.72L169.439 206.867L170.143 207.493L175.816 202.328L170.143 197.164L169.439 197.79L173.977 201.937H161.301V202.759H173.977V202.72Z" fill="#FA8617"/>
<path opacity="0.3" fill-rule="evenodd" clip-rule="evenodd" d="M111.337 288.796L101.242 303.233L113.019 301.12C113.293 301.042 113.528 300.768 113.449 300.494L111.337 288.796ZM149.327 300.846L134.89 310.941L146.667 313.053C146.941 313.132 147.215 312.897 147.293 312.623L149.327 300.846Z" fill="white"/>
<path d="M185.949 193.447C185.949 193.173 186.145 192.938 186.458 192.938H198.626C198.9 192.938 199.135 193.134 199.135 193.447C199.135 193.76 198.939 193.955 198.626 193.955H186.458C186.145 193.955 185.949 193.721 185.949 193.447ZM185.949 195.912C185.949 195.716 186.145 195.481 186.38 195.481H203.204C203.399 195.481 203.634 195.677 203.634 195.912C203.634 196.107 203.438 196.342 203.204 196.342H186.38C186.145 196.342 185.949 196.107 185.949 195.912ZM185.949 198.65C185.949 198.377 186.145 198.142 186.458 198.142H203.047C203.321 198.142 203.556 198.337 203.556 198.65C203.556 198.924 203.36 199.159 203.047 199.159H186.458C186.145 199.12 185.949 198.924 185.949 198.65ZM185.949 206.71C185.949 206.436 186.145 206.202 186.458 206.202H204.182C204.456 206.202 204.69 206.397 204.69 206.71C204.69 206.984 204.495 207.219 204.182 207.219H186.458C186.145 207.101 185.949 206.906 185.949 206.71ZM185.949 208.862C185.949 208.588 186.145 208.354 186.458 208.354H202.069C202.343 208.354 202.578 208.549 202.578 208.862C202.578 209.136 202.382 209.371 202.069 209.371H186.458C186.145 209.371 185.949 209.136 185.949 208.862ZM185.949 211.092C185.949 210.818 186.145 210.584 186.458 210.584H203.125C203.399 210.584 203.634 210.779 203.634 211.092C203.634 211.366 203.438 211.601 203.125 211.601H186.458C186.145 211.601 185.949 211.405 185.949 211.092ZM185.949 188.986C185.949 188.713 186.145 188.478 186.458 188.478H194.635C194.909 188.478 195.144 188.673 195.144 188.986C195.144 189.26 194.948 189.495 194.635 189.495H186.458C186.145 189.456 185.949 189.26 185.949 188.986ZM185.949 200.802C185.949 200.528 186.145 200.294 186.458 200.294H196.67C196.943 200.294 197.178 200.489 197.178 200.802C197.178 201.076 196.983 201.311 196.67 201.311H186.458C186.145 201.311 185.949 201.076 185.949 200.802ZM185.949 191.217C185.949 190.943 186.145 190.708 186.458 190.708H194.635C194.909 190.708 195.144 190.904 195.144 191.217C195.144 191.53 194.948 191.725 194.635 191.725H186.458C186.145 191.686 185.949 191.49 185.949 191.217Z" fill="#F4F4F4"/>
<path d="M193.855 199.903H207.314C208.448 199.903 209.27 200.724 209.27 201.781V207.884C209.27 208.941 208.37 209.762 207.314 209.762H193.855C192.72 209.762 191.898 208.941 191.898 207.884V201.781C191.898 200.724 192.759 199.903 193.855 199.903Z" fill="#FF8000"/>
<path fill-rule="evenodd" clip-rule="evenodd" d="M316.355 276.667C316.355 276.393 316.199 276.119 315.847 276.119C315.299 276.041 314.712 275.923 314.164 275.845C313.891 275.767 313.617 275.923 313.538 276.197C313.46 276.471 313.617 276.745 313.891 276.823C314.438 276.98 315.064 277.097 315.729 277.175C316.003 277.136 316.277 276.941 316.355 276.667ZM314.595 180.496C314.517 181.67 314.517 182.805 314.399 183.939C314.399 184.213 314.556 184.487 314.908 184.487C315.182 184.487 315.456 184.331 315.456 183.978C315.534 182.805 315.612 181.67 315.651 180.457C315.651 180.183 315.456 179.949 315.143 179.909C314.908 179.988 314.595 180.222 314.595 180.496ZM315.26 175.253C315.534 175.253 315.769 175.058 315.808 174.745C315.808 174.197 315.886 173.571 315.886 172.984C315.886 172.436 315.964 171.85 315.886 171.302C315.886 171.028 315.69 170.793 315.377 170.793C315.064 170.793 314.869 170.989 314.869 171.302C314.869 171.85 314.869 172.436 314.869 172.984C314.869 173.532 314.79 174.119 314.79 174.745C314.673 174.98 314.947 175.253 315.26 175.253ZM314.047 189.182C313.773 189.104 313.499 189.26 313.421 189.534C313.264 190.082 313.069 190.591 312.873 191.138C312.599 191.686 312.365 192.312 312.247 192.899C312.169 193.173 312.326 193.447 312.521 193.525C312.795 193.603 313.069 193.447 313.147 193.251C313.147 193.251 313.147 193.251 313.147 193.173C313.343 192.625 313.499 192.038 313.773 191.491C313.969 190.943 314.204 190.356 314.399 189.808C314.477 189.534 314.321 189.26 314.047 189.182ZM314.908 166.215C315.182 166.137 315.416 165.942 315.338 165.589C315.143 164.455 314.908 163.359 314.634 162.225C314.556 161.951 314.282 161.794 314.008 161.873C313.734 161.951 313.578 162.225 313.656 162.499C313.93 163.555 314.164 164.65 314.282 165.707C314.321 166.059 314.595 166.294 314.908 166.215ZM309.156 274.163C309.313 273.967 309.313 273.615 309 273.459C308.1 272.754 307.161 272.05 306.418 271.228C306.222 271.033 305.87 271.033 305.713 271.228C305.518 271.424 305.518 271.737 305.713 271.933C306.535 272.833 307.474 273.615 308.452 274.319C308.648 274.437 309 274.437 309.156 274.163ZM311.895 201.937C311.895 202.993 311.817 204.089 311.7 205.145C311.7 205.419 311.856 205.693 312.208 205.693C312.482 205.693 312.756 205.537 312.756 205.184C312.912 204.05 312.952 202.954 312.952 201.82C312.952 201.546 312.756 201.311 312.443 201.272C312.091 201.428 311.895 201.663 311.895 201.937ZM311.308 210.193C311.034 210.114 310.76 210.271 310.682 210.545C310.526 211.092 310.408 211.679 310.252 212.071C310.095 212.579 309.9 213.127 309.704 213.596C309.626 213.87 309.782 214.144 310.056 214.222C310.33 214.301 310.604 214.144 310.682 213.949L311.23 212.344C311.387 211.836 311.504 211.288 311.739 210.74C311.817 210.545 311.621 210.271 311.308 210.193ZM312.013 197.046C312.286 196.968 312.443 196.694 312.365 196.42C312.091 195.247 311.543 194.112 310.682 193.212C310.487 193.016 310.135 193.016 309.978 193.212C309.782 193.408 309.782 193.721 309.9 193.916C310.604 194.699 311.074 195.677 311.308 196.733C311.465 196.968 311.739 197.085 312.013 197.046ZM310.761 198.22C310.565 198.064 310.213 198.142 310.056 198.377C309.782 198.885 309.352 199.277 309 199.707C308.726 199.981 308.452 200.216 308.1 200.411C307.826 200.568 307.748 200.92 307.904 201.115C308.061 201.311 308.413 201.468 308.609 201.311C308.609 201.311 308.609 201.311 308.687 201.311C309.039 201.115 309.469 200.802 309.743 200.489C310.252 200.059 310.643 199.511 310.995 199.003C311.034 198.69 310.956 198.377 310.761 198.22ZM312.638 157.53C312.912 157.451 313.069 157.099 312.912 156.825C312.482 155.769 312.091 154.713 311.582 153.656C311.426 153.382 311.152 153.304 310.878 153.382C310.604 153.539 310.526 153.813 310.604 154.087C311.113 155.065 311.504 156.121 311.934 157.177C312.091 157.53 312.443 157.647 312.638 157.53ZM308.374 218.526C308.1 218.37 307.826 218.526 307.67 218.8C307.239 219.857 306.77 220.835 306.339 221.813C306.183 222.008 306.261 222.361 306.496 222.517C306.731 222.674 307.044 222.595 307.2 222.361C307.2 222.361 307.278 222.282 307.278 222.204C307.787 221.148 308.178 220.17 308.687 219.113C308.804 218.957 308.648 218.683 308.374 218.526ZM302.779 267.198C303.053 267.042 303.131 266.69 302.975 266.494C302.427 265.516 301.84 264.46 301.37 263.403C301.214 263.129 300.94 263.051 300.666 263.129C300.392 263.286 300.314 263.56 300.392 263.834C300.901 264.89 301.449 265.986 302.075 267.003C302.231 267.277 302.583 267.355 302.779 267.198ZM304.579 226.664C304.305 226.508 304.031 226.586 303.874 226.86C303.601 227.369 303.366 227.838 303.092 228.347C302.896 228.777 302.661 229.168 302.466 229.521C302.309 229.794 302.466 230.068 302.74 230.225C302.935 230.381 303.248 230.225 303.366 230.029C303.561 229.599 303.796 229.247 303.992 228.855L304.774 227.369C304.931 227.095 304.892 226.782 304.579 226.664ZM308.609 149.626C308.804 149.47 308.882 149.118 308.765 148.922C308.061 148.022 307.357 147.083 306.535 146.261C306.339 146.066 306.026 146.066 305.831 146.183C305.635 146.301 305.635 146.692 305.752 146.887C306.535 147.67 307.239 148.492 307.865 149.392C308.022 149.665 308.374 149.744 308.609 149.626ZM305.792 191.217C305.792 190.943 305.596 190.669 305.283 190.669C304.657 190.591 304.109 190.591 303.444 190.669C302.818 190.747 302.27 190.865 301.683 191.099C301.409 191.256 301.331 191.53 301.488 191.804C301.644 191.999 301.918 192.156 302.114 192.077C302.544 191.882 303.014 191.804 303.522 191.725C304.07 191.647 304.657 191.647 305.205 191.725C305.518 191.686 305.792 191.491 305.792 191.217ZM304.931 201.937C304.931 201.663 304.657 201.428 304.383 201.428C303.601 201.507 302.857 201.428 302.153 201.155C301.879 201.076 301.605 201.233 301.527 201.507C301.449 201.781 301.605 202.054 301.879 202.133C302.701 202.407 303.64 202.485 304.54 202.407C304.735 202.485 304.931 202.289 304.931 201.937ZM301.096 233.394C300.823 233.237 300.549 233.394 300.392 233.668C299.962 234.49 299.61 235.35 299.258 236.172C299.179 236.446 299.336 236.72 299.61 236.798C299.884 236.876 300.118 236.798 300.236 236.524C300.588 235.702 300.94 234.842 301.292 234.02C301.449 233.785 301.37 233.511 301.096 233.394ZM298.866 258.669C299.14 258.591 299.297 258.239 299.219 258.043C299.023 257.495 298.866 256.908 298.671 256.361C298.514 255.93 298.397 255.539 298.319 255.109C298.24 254.835 297.966 254.678 297.693 254.757C297.419 254.835 297.262 255.109 297.34 255.383C297.497 255.813 297.614 256.282 297.771 256.713C297.966 257.261 298.123 257.847 298.319 258.395C298.279 258.591 298.592 258.747 298.866 258.669ZM298.436 240.163C298.162 240.084 297.888 240.241 297.81 240.515C297.536 241.415 297.301 242.354 297.106 243.254C297.027 243.528 297.262 243.801 297.536 243.88C297.81 243.958 298.084 243.723 298.162 243.449C298.358 242.549 298.592 241.689 298.788 240.867C298.866 240.593 298.71 240.319 298.436 240.163ZM297.027 251.157C297.301 251.157 297.536 250.883 297.536 250.609C297.458 249.709 297.458 248.77 297.536 247.949C297.614 247.675 297.38 247.401 297.106 247.401C296.832 247.323 296.558 247.557 296.558 247.831V247.91C296.48 248.809 296.48 249.788 296.558 250.727C296.558 250.961 296.754 251.157 297.027 251.157ZM299.336 199.394C299.61 199.316 299.844 199.042 299.766 198.768C299.688 198.416 299.688 198.064 299.688 197.633C299.688 197.085 299.766 196.577 299.844 196.029C299.923 195.755 299.688 195.481 299.414 195.403C299.14 195.325 298.866 195.56 298.788 195.833C298.788 195.833 298.788 195.834 298.788 195.912C298.71 196.46 298.632 197.046 298.632 197.594C298.632 198.103 298.632 198.494 298.71 199.003C298.788 199.277 299.062 199.472 299.336 199.394ZM302.153 143.523C302.309 143.249 302.153 142.975 301.957 142.818C301.449 142.545 300.901 142.31 300.353 142.192C299.649 141.997 298.945 141.762 298.24 141.566C297.966 141.488 297.693 141.645 297.614 141.84C297.536 142.114 297.693 142.388 297.888 142.466H297.966C298.671 142.662 299.297 142.897 300.001 143.092C300.51 143.249 300.979 143.444 301.488 143.718C301.644 143.875 301.996 143.797 302.153 143.523ZM291.432 140.784C291.432 140.51 291.237 140.236 290.924 140.236C290.22 140.158 289.437 140.08 288.772 140.08C288.498 140.001 288.224 140.236 288.224 140.51C288.224 140.784 288.381 141.058 288.655 141.058H288.733C289.437 141.136 290.22 141.136 290.846 141.214C291.159 141.293 291.432 141.058 291.432 140.784ZM286.894 145.283C287.246 145.088 287.403 144.579 287.168 144.227C286.268 142.701 285.016 141.371 283.451 140.432C284.938 139.61 286.19 138.397 287.168 136.989C287.363 136.637 287.246 136.167 286.894 135.932C286.542 135.737 286.111 135.776 285.838 136.128C284.781 137.615 283.373 138.788 281.69 139.571H281.612C281.182 139.649 280.908 140.08 280.986 140.471C280.986 140.627 281.064 140.667 281.142 140.823C281.221 140.901 281.299 140.98 281.338 141.019C281.416 141.097 281.495 141.175 281.534 141.175C283.373 141.958 284.82 143.288 285.72 144.97C286.033 145.322 286.542 145.479 286.894 145.283Z" fill="#EEEEFE"/>
<path fill-rule="evenodd" clip-rule="evenodd" d="M152.107 353.979V356.835H152.928V353.392V352.57H148.663V353.392H151.481C149.094 356.326 144.829 356.835 141.895 354.448C138.96 352.062 138.452 347.797 140.838 344.863C141.269 344.315 141.816 343.884 142.364 343.454L141.856 342.75C138.295 345.058 137.356 349.91 139.704 353.392C142.012 356.952 146.864 357.891 150.346 355.544C151.011 355.114 151.637 354.566 152.107 353.979ZM163.962 354.331C164.157 354.527 164.47 354.527 164.588 354.331C164.783 354.135 164.783 353.822 164.588 353.705L163.609 352.727C163.414 352.531 163.101 352.531 162.983 352.727C162.788 352.923 162.788 353.236 162.983 353.353L163.962 354.331ZM166.818 353.353C167.013 353.157 167.013 352.844 166.818 352.727C166.622 352.531 166.309 352.531 166.192 352.727L165.214 353.705C165.018 353.901 165.018 354.214 165.214 354.331C165.409 354.527 165.722 354.527 165.84 354.331L166.818 353.353ZM164.588 355.583C164.783 355.387 164.783 355.074 164.588 354.957C164.392 354.761 164.079 354.761 163.962 354.957L162.983 355.935C162.788 356.131 162.788 356.444 162.983 356.561C163.179 356.757 163.492 356.757 163.609 356.561L164.588 355.583ZM166.818 356.6C166.622 356.796 166.309 356.796 166.192 356.6L165.214 355.622C165.018 355.427 165.018 355.114 165.214 354.996C165.409 354.801 165.722 354.801 165.84 354.996L166.818 355.974C167.052 356.092 167.052 356.366 166.818 356.6ZM156.097 336.685C156.293 336.881 156.606 336.881 156.723 336.685C156.919 336.49 156.919 336.177 156.723 336.059L155.745 335.081C155.55 334.886 155.237 334.886 155.119 335.081C154.924 335.277 154.924 335.59 155.119 335.707L156.097 336.685ZM159.032 335.707C159.227 335.512 159.227 335.199 159.032 335.081C158.836 334.886 158.523 334.886 158.406 335.081L157.428 336.059C157.232 336.255 157.232 336.568 157.428 336.685C157.623 336.881 157.936 336.881 158.054 336.685L159.032 335.707ZM156.802 338.016C156.997 337.82 156.997 337.507 156.802 337.39C156.606 337.194 156.293 337.194 156.176 337.39L155.197 338.368C155.002 338.563 155.002 338.876 155.197 338.994C155.393 339.189 155.706 339.189 155.823 338.994L156.802 338.016ZM159.032 338.916C158.836 339.111 158.523 339.111 158.406 338.916L157.428 337.937C157.232 337.742 157.232 337.429 157.428 337.311C157.623 337.116 157.936 337.116 158.054 337.311L159.032 338.29C159.267 338.524 159.267 338.798 159.032 338.916Z" fill="#EEEEFE"/>
<path d="M135.906 189.926C135.906 190.512 135.749 190.943 135.475 191.295C135.201 191.608 134.81 191.764 134.341 191.764C134.106 191.764 133.949 191.725 133.793 191.686V190.904C133.91 190.982 134.106 191.021 134.302 191.021C134.849 191.021 135.123 190.591 135.123 189.769V186.756H135.945V189.926H135.906Z" fill="white"/>
<path d="M137.9 189.886V191.647H137.078V186.756H138.565C139.113 186.756 139.582 186.874 139.856 187.148C140.169 187.421 140.326 187.774 140.326 188.243C140.326 188.713 140.169 189.104 139.856 189.417C139.543 189.73 139.113 189.886 138.526 189.886H137.9ZM137.9 187.421V189.221H138.408C138.761 189.221 139.034 189.143 139.191 188.986C139.387 188.83 139.465 188.595 139.465 188.321C139.465 187.734 139.113 187.461 138.448 187.461H137.9V187.421Z" fill="white"/>
<path d="M145.022 191.334C144.514 191.608 143.927 191.764 143.301 191.764C142.557 191.764 141.97 191.53 141.54 191.099C141.11 190.669 140.875 190.043 140.875 189.299C140.875 188.556 141.11 187.93 141.618 187.421C142.127 186.952 142.753 186.678 143.496 186.678C144.044 186.678 144.514 186.756 144.866 186.913V187.734C144.475 187.5 144.044 187.343 143.536 187.343C143.027 187.343 142.597 187.5 142.244 187.852C141.892 188.204 141.736 188.634 141.736 189.182C141.736 189.73 141.892 190.199 142.166 190.512C142.44 190.825 142.831 190.982 143.34 190.982C143.692 190.982 143.966 190.904 144.201 190.786V189.612H143.183V188.947H145.022V191.334Z" fill="white"/>
<path d="M196.747 203.267H195.495V207.063H194.752V203.267H193.5V202.641H196.747V203.267Z" fill="white"/>
<path d="M199.879 207.063H197.414V202.641H199.801V203.267H198.158V204.519H199.683V205.145H198.158V206.437H199.918V207.063H199.879Z" fill="white"/>
<path d="M204.026 207.063H203.165L202.265 205.458C202.226 205.419 202.226 205.341 202.187 205.263C202.187 205.302 202.148 205.38 202.108 205.458L201.169 207.063H200.27L201.717 204.832L200.387 202.641H201.287L202.069 204.128C202.108 204.246 202.148 204.324 202.226 204.441C202.304 204.324 202.343 204.206 202.382 204.128L203.204 202.641H204.026L202.656 204.832L204.026 207.063Z" fill="white"/>
<path d="M207.548 203.267H206.296V207.063H205.553V203.267H204.301V202.641H207.548V203.267Z" fill="white"/>
<path d="M110.321 224.59V225.999H109.656V222.086H110.83C111.3 222.086 111.613 222.204 111.886 222.399C112.121 222.595 112.278 222.908 112.278 223.299C112.278 223.691 112.16 224.004 111.886 224.238C111.613 224.473 111.26 224.59 110.83 224.59H110.321ZM110.321 222.634V224.082H110.752C111.026 224.082 111.26 224.004 111.378 223.886C111.534 223.769 111.613 223.573 111.613 223.338C111.613 222.869 111.339 222.634 110.791 222.634H110.321Z" fill="white"/>
<path d="M116.267 225.999H115.563L113.685 223.104C113.646 223.025 113.606 222.947 113.567 222.869C113.567 222.947 113.606 223.143 113.606 223.417V225.999H112.98V222.086H113.724L115.524 224.903C115.602 225.021 115.641 225.099 115.68 225.138C115.68 225.021 115.641 224.864 115.641 224.63V222.086H116.267V225.999Z" fill="white"/>
<path d="M120.298 225.764C119.907 225.999 119.438 226.116 118.929 226.116C118.342 226.116 117.873 225.921 117.52 225.569C117.168 225.217 116.973 224.747 116.973 224.121C116.973 223.495 117.168 223.026 117.56 222.634C117.951 222.243 118.459 222.047 119.046 222.047C119.477 222.047 119.868 222.126 120.142 222.243V222.908C119.829 222.713 119.477 222.595 119.085 222.595C118.655 222.595 118.342 222.752 118.068 223.026C117.794 223.299 117.677 223.652 117.677 224.082C117.677 224.551 117.794 224.904 118.029 225.138C118.264 225.373 118.577 225.53 118.968 225.53C119.242 225.53 119.477 225.49 119.672 225.373V224.434H118.851V223.886H120.337V225.764H120.298Z" fill="white"/>
<path d="M147.019 229.99C147.019 230.499 146.901 230.929 146.627 231.203C146.354 231.477 146.041 231.633 145.61 231.633C145.415 231.633 145.258 231.594 145.102 231.555V230.851C145.219 230.929 145.375 230.968 145.571 230.968C146.041 230.968 146.314 230.577 146.314 229.833V227.134H147.058V229.99H147.019Z" fill="white"/>
<path d="M148.818 229.951V231.555H148.074V227.134H149.404C149.913 227.134 150.304 227.251 150.578 227.486C150.852 227.721 151.009 228.073 151.009 228.464C151.009 228.855 150.852 229.247 150.578 229.52C150.304 229.794 149.874 229.912 149.404 229.912H148.818V229.951ZM148.818 227.76V229.364H149.287C149.6 229.364 149.835 229.286 149.991 229.129C150.148 228.973 150.226 228.777 150.226 228.503C150.226 227.995 149.913 227.721 149.326 227.721H148.818V227.76Z" fill="white"/>
<path d="M154.219 231.555H151.754V227.134H154.141V227.76H152.497V229.012H154.023V229.638H152.497V230.929H154.258V231.555H154.219Z" fill="white"/>
<path d="M158.443 231.242C157.974 231.477 157.465 231.633 156.918 231.633C156.252 231.633 155.744 231.438 155.313 231.007C154.922 230.616 154.727 230.068 154.727 229.403C154.727 228.738 154.961 228.151 155.392 227.721C155.822 227.29 156.409 227.056 157.074 227.056C157.583 227.056 157.974 227.134 158.326 227.29V228.034C157.974 227.799 157.583 227.682 157.113 227.682C156.644 227.682 156.252 227.838 155.939 228.151C155.626 228.464 155.47 228.855 155.47 229.364C155.47 229.873 155.587 230.264 155.861 230.577C156.135 230.851 156.487 231.007 156.918 231.007C157.231 231.007 157.465 230.968 157.7 230.851V229.794H156.761V229.168H158.404V231.242H158.443Z" fill="white"/>
</g>
<defs>
<radialGradient id="paint0_radial_796_618" cx="0" cy="0" r="1" gradientUnits="userSpaceOnUse" gradientTransform="translate(221.533 228.242) rotate(30) scale(200.792 200.473)">
<stop stop-color="#F78620"/>
<stop offset="1" stop-color="#FFB56A"/>
</radialGradient>
<radialGradient id="paint1_radial_796_618" cx="0" cy="0" r="1" gradientUnits="userSpaceOnUse" gradientTransform="translate(180.944 243.092) rotate(30) scale(175.424 176.897)">
<stop stop-color="#FFB56A"/>
<stop offset="1" stop-color="#F78620"/>
</radialGradient>
<radialGradient id="paint2_radial_796_618" cx="0" cy="0" r="1" gradientUnits="userSpaceOnUse" gradientTransform="translate(224.08 204.967) rotate(30) scale(186.858 184.714)">
<stop stop-color="#8932A2"/>
<stop offset="1" stop-color="#FFB56A"/>
</radialGradient>
<linearGradient id="paint3_linear_796_618" x1="342.048" y1="300.935" x2="265.385" y2="242.667" gradientUnits="userSpaceOnUse">
<stop stop-color="#F1CEAB"/>
<stop offset="0.803" stop-color="#FA8617"/>
<stop offset="1" stop-color="#FA8617"/>
</linearGradient>
<linearGradient id="paint4_linear_796_618" x1="195.297" y1="185.12" x2="195.297" y2="214.678" gradientUnits="userSpaceOnUse">
<stop stop-color="#F1CEAB"/>
<stop offset="0.803" stop-color="#FA8617"/>
<stop offset="1" stop-color="#FA8617"/>
</linearGradient>
<linearGradient id="paint5_linear_796_618" x1="204.156" y1="185.12" x2="204.156" y2="191.004" gradientUnits="userSpaceOnUse">
<stop stop-color="#F1CEAB"/>
<stop offset="0.803" stop-color="#FA8617"/>
<stop offset="1" stop-color="#FA8617"/>
</linearGradient>
<linearGradient id="paint6_linear_796_618" x1="117.306" y1="181.758" x2="150.016" y2="181.758" gradientUnits="userSpaceOnUse">
<stop stop-color="#F1CEAB"/>
<stop offset="0.803" stop-color="#FA8617"/>
<stop offset="1" stop-color="#FA8617"/>
</linearGradient>
<linearGradient id="paint7_linear_796_618" x1="141.89" y1="165.403" x2="150.085" y2="165.403" gradientUnits="userSpaceOnUse">
<stop stop-color="#F1CEAB"/>
<stop offset="0.803" stop-color="#FA8617"/>
<stop offset="1" stop-color="#FA8617"/>
</linearGradient>
<linearGradient id="paint8_linear_796_618" x1="130.752" y1="224.028" x2="156.458" y2="224.028" gradientUnits="userSpaceOnUse">
<stop stop-color="#F1CEAB"/>
<stop offset="0.803" stop-color="#FA8617"/>
<stop offset="1" stop-color="#FA8617"/>
</linearGradient>
<linearGradient id="paint9_linear_796_618" x1="150.014" y1="211.176" x2="156.458" y2="211.176" gradientUnits="userSpaceOnUse">
<stop stop-color="#F1CEAB"/>
<stop offset="0.803" stop-color="#FA8617"/>
<stop offset="1" stop-color="#FA8617"/>
</linearGradient>
<linearGradient id="paint10_linear_796_618" x1="99.6528" y1="219.861" x2="118.704" y2="219.861" gradientUnits="userSpaceOnUse">
<stop stop-color="#F1CEAB"/>
<stop offset="0.803" stop-color="#FA8617"/>
<stop offset="1" stop-color="#FA8617"/>
</linearGradient>
<linearGradient id="paint11_linear_796_618" x1="113.942" y1="210.335" x2="118.705" y2="210.335" gradientUnits="userSpaceOnUse">
<stop stop-color="#F1CEAB"/>
<stop offset="0.803" stop-color="#FA8617"/>
<stop offset="1" stop-color="#FA8617"/>
</linearGradient>
<clipPath id="clip0_796_618">
<rect width="459" height="458" fill="white"/>
</clipPath>
</defs>
</svg>
