<?xml version="1.0" encoding="utf-8"?>
<!-- Generator: Adobe Illustrator 26.0.0, SVG Export Plug-In . SVG Version: 6.00 Build 0)  -->
<svg version="1.1" id="Layer_1" xmlns="http://www.w3.org/2000/svg" xmlns:xlink="http://www.w3.org/1999/xlink" x="0px" y="0px"
	 viewBox="0 0 35 33" style="enable-background:new 0 0 35 33;" xml:space="preserve">
<style type="text/css">
	.st0{fill:none;stroke:#CACACA;}
	.st1{display:none;fill:#F16334;}
	.st2{fill:#FA8617;}
</style>
<path class="st0" d="M20.6,0.7c8.5,1.1,14.6,8.9,13.8,17.4c-0.8,8.8-8.7,15.2-17.5,14.4C8.2,31.6,1.7,23.8,2.6,15"/>
<g>
	<path id="cla1" class="st1" d="M17.2,16.8h11.7c0.3,0,0.5,0.2,0.5,0.5s-0.2,0.5-0.5,0.5H17.2c-0.3,0-0.5-0.2-0.5-0.5
		S16.9,16.8,17.2,16.8z M10.1,16.8h3.2c0.3,0,0.5,0.2,0.5,0.5s-0.2,0.5-0.5,0.5h-3.2c-0.3,0-0.5-0.2-0.5-0.5S9.8,16.8,10.1,16.8z
		 M29,22.1H10.1c-0.3,0-0.5-0.2-0.5-0.5s0.2-0.5,0.5-0.5H29c0.3,0,0.5,0.2,0.5,0.5S29.3,22.1,29,22.1z"/>
	<path id="cla1_00000039095833794225735900000015667764030945566373_" class="st2" d="M17.2,16.8h11.7c0.3,0,0.5,0.2,0.5,0.5
		s-0.2,0.5-0.5,0.5H17.2c-0.3,0-0.5-0.2-0.5-0.5S16.9,16.8,17.2,16.8z M10.1,16.8h3.2c0.3,0,0.5,0.2,0.5,0.5s-0.2,0.5-0.5,0.5h-3.2
		c-0.3,0-0.5-0.2-0.5-0.5S9.8,16.8,10.1,16.8z M29,22.1H10.1c-0.3,0-0.5-0.2-0.5-0.5s0.2-0.5,0.5-0.5H29c0.3,0,0.5,0.2,0.5,0.5
		S29.3,22.1,29,22.1z"/>
</g>
<path class="st2" d="M10.5,5.3c0,0.4-0.1,0.7-0.2,1c-0.1-0.4-0.5-0.7-0.8-0.7C9,5.6,8.6,6,8.6,6.6c0,0.5,0.4,0.8,0.8,0.9
	C9,7.8,8.5,8,7.9,8C6.4,8,5.2,6.8,5.2,5.3s1.2-2.7,2.7-2.7C9.4,2.5,10.5,3.8,10.5,5.3z M7.9,0.8c2.9,0,5.4,2.2,6.9,4.2
	c-1.1,1.6-3.7,4.3-6.9,4.3S2.3,6.9,1,5.2C1.8,3.9,4.2,0.8,7.9,0.8 M7.9,0C2.9,0,0,5.1,0,5.1l0,0c0,0,3,5.1,7.9,5.1s7.7-5,7.8-5.1
	C15.6,4.9,12.6,0,7.9,0L7.9,0z"/>
</svg>
