<?xml version="1.0" encoding="utf-8"?>
<!-- Generator: Adobe Illustrator 26.0.0, SVG Export Plug-In . SVG Version: 6.00 Build 0)  -->
<svg version="1.1" id="Layer_1" xmlns="http://www.w3.org/2000/svg" xmlns:xlink="http://www.w3.org/1999/xlink" x="0px" y="0px"
	 viewBox="0 0 35 33" style="enable-background:new 0 0 35 33;" xml:space="preserve">
<style type="text/css">
	.st0{fill:none;stroke:#CACACA;}
	.st1{display:none;fill:#F16334;}
	.st2{fill:#FA8617;}
</style>
<path class="st0" d="M18.8,0.5c8.5,0.1,15.5,7.2,15.7,15.7c0.2,8.8-6.9,16.1-15.8,16.3S2.6,25.6,2.5,16.8"/>
<g>
	<path id="cla1" class="st1" d="M17.2,16.8h11.7c0.3,0,0.5,0.2,0.5,0.5s-0.2,0.5-0.5,0.5H17.2c-0.3,0-0.5-0.2-0.5-0.5
		S16.9,16.8,17.2,16.8z M10.1,16.8h3.2c0.3,0,0.5,0.2,0.5,0.5s-0.2,0.5-0.5,0.5h-3.2c-0.3,0-0.5-0.2-0.5-0.5S9.8,16.8,10.1,16.8z
		 M29,22.1H10.1c-0.3,0-0.5-0.2-0.5-0.5s0.2-0.5,0.5-0.5H29c0.3,0,0.5,0.2,0.5,0.5S29.3,22.1,29,22.1z"/>
	<path id="cla1_00000039095833794225735900000015667764030945566373_" class="st2" d="M17.2,16.8h11.7c0.3,0,0.5,0.2,0.5,0.5
		s-0.2,0.5-0.5,0.5H17.2c-0.3,0-0.5-0.2-0.5-0.5S16.9,16.8,17.2,16.8z M10.1,16.8h3.2c0.3,0,0.5,0.2,0.5,0.5s-0.2,0.5-0.5,0.5h-3.2
		c-0.3,0-0.5-0.2-0.5-0.5S9.8,16.8,10.1,16.8z M29,22.1H10.1c-0.3,0-0.5-0.2-0.5-0.5s0.2-0.5,0.5-0.5H29c0.3,0,0.5,0.2,0.5,0.5
		S29.3,22.1,29,22.1z"/>
</g>
<g>
	<path class="st2" d="M0.9,8.7C0.9,7.8,1,7.3,1,6.5C1,6,0.8,5.6,0,5.6V4.7c0.8,0,1-0.5,1-0.9C1,3,0.9,2.5,0.9,1.7
		C0.9,0.4,1.4,0,2.4,0H3v0.8H2.8C2.2,0.8,2,1,2,1.7S2.1,3,2.1,3.8S1.9,5,1.3,5.2l0,0c0.6,0.1,0.8,0.5,0.8,1.4c0,0.7-0.1,1.3-0.1,2
		s0.2,1,0.7,1H3v0.8H2.4C1.4,10.3,0.9,9.9,0.9,8.7z"/>
	<path class="st2" d="M11.5,9.6h0.3c0.6,0,0.7-0.2,0.7-1c0-0.7-0.1-1.3-0.1-2.1s0.2-1.2,0.8-1.4l0,0c-0.6-0.1-0.8-0.5-0.8-1.4
		c0-0.8,0.1-1.4,0.1-2.1s-0.2-1-0.7-1h-0.3V0h0.6c1,0,1.5,0.4,1.5,1.7c0,0.9-0.1,1.4-0.1,2.2c0,0.4,0.2,0.9,1,0.9v0.8
		c-0.8,0-1,0.5-1,0.9c0,0.8,0.1,1.3,0.1,2.2c0,1.3-0.5,1.7-1.5,1.7h-0.6V9.6z"/>
</g>
<path class="st2" d="M10.3,2.2c-0.3,0-0.4,0.2-0.4,0.2l-4,5.3L4.4,5.5C4.2,5.2,3.9,5.1,3.7,5.3C3.4,5.4,3.4,5.7,3.5,5.9l1.7,2.4
	c0.5,0.5,0.9,0.5,1.5-0.1c0,0,2.2-2.9,3.4-4.6c0.5-0.6,0.7-0.8,0.7-1S10.6,2.2,10.3,2.2L10.3,2.2z"/>
</svg>
