<?xml version="1.0" encoding="utf-8"?>
<svg height="20" width="20" xmlns="http://www.w3.org/2000/svg" xmlns:xlink="http://www.w3.org/1999/xlink" viewBox="0 0 80 80">
<path d="M76.7,24.1l-9.1,4.1l-0.5-1.2l9.1-4.1L76.7,24.1z M67.8,11.3l0.9,0.9l-9.9,9.9l-0.9-0.9L67.8,11.3z M53.5,2.3l1.2,0.5
	l-3.5,9.4L50,11.7L53.5,2.3z M39.4,0h1.3v14h-1.3V0z M24.1,3.3l4.1,9.1l-1.2,0.5L23,3.8L24.1,3.3z M12.2,11.3l9.9,9.9l-0.9,0.9
	l-9.9-9.9L12.2,11.3z M2.8,25.3l9.4,3.5L11.7,30l-9.4-3.5L2.8,25.3z M0,39.4h14v1.3H0V39.4z M3.3,55.9l9.1-4.1l0.5,1.2L3.8,57
	L3.3,55.9z M12.2,68.7l-0.9-0.9l9.9-9.9l0.9,0.9L12.2,68.7z M17.7,40c0-12.3,10-22.3,22.3-22.3s22.3,10,22.3,22.3S52.3,62.3,40,62.3
	S17.7,52.3,17.7,40L17.7,40z M26.5,77.7l-1.2-0.4l3.5-9.4l1.2,0.4L26.5,77.7z M40.6,80h-1.3V66h1.3V80z M55.9,76.7l-4.1-9.1l1.2-0.5
	l4.1,9.1L55.9,76.7z M67.8,68.7l-9.9-9.9l0.9-0.9l9.9,9.9L67.8,68.7z M77.2,54.7l-9.4-3.5l0.4-1.2l9.4,3.5L77.2,54.7z M80,40.6H66
	v-1.3h14V40.6z" fill="#ffbf00"/>
</svg>
