<?xml version="1.0" encoding="utf-8"?>
<!-- Generator: Adobe Illustrator 26.0.0, SVG Export Plug-In . SVG Version: 6.00 Build 0)  -->
<svg version="1.1" id="Layer_1" xmlns="http://www.w3.org/2000/svg" xmlns:xlink="http://www.w3.org/1999/xlink" x="0px" y="0px"
	 viewBox="0 0 35 33" style="enable-background:new 0 0 35 33;" xml:space="preserve">
<style type="text/css">
	.st0{fill:none;stroke:#CACACA;}
	.st1{display:none;fill:#F16334;}
	.st2{fill:#FA8617;}
</style>
<path class="st0" d="M19.8,0.6c8.5,0.7,15,8.2,14.7,16.7c-0.4,8.8-7.9,15.6-16.7,15.3C9,32.1,2.1,24.6,2.5,15.8"/>
<g>
	<path id="cla1" class="st1" d="M17.2,16.8h11.7c0.3,0,0.5,0.2,0.5,0.5s-0.2,0.5-0.5,0.5H17.2c-0.3,0-0.5-0.2-0.5-0.5
		S16.9,16.8,17.2,16.8z M10.1,16.8h3.2c0.3,0,0.5,0.2,0.5,0.5s-0.2,0.5-0.5,0.5h-3.2c-0.3,0-0.5-0.2-0.5-0.5S9.8,16.8,10.1,16.8z
		 M29,22.1H10.1c-0.3,0-0.5-0.2-0.5-0.5s0.2-0.5,0.5-0.5H29c0.3,0,0.5,0.2,0.5,0.5S29.3,22.1,29,22.1z"/>
	<path id="cla1_00000039095833794225735900000015667764030945566373_" class="st2" d="M17.2,16.8h11.7c0.3,0,0.5,0.2,0.5,0.5
		s-0.2,0.5-0.5,0.5H17.2c-0.3,0-0.5-0.2-0.5-0.5S16.9,16.8,17.2,16.8z M10.1,16.8h3.2c0.3,0,0.5,0.2,0.5,0.5s-0.2,0.5-0.5,0.5h-3.2
		c-0.3,0-0.5-0.2-0.5-0.5S9.8,16.8,10.1,16.8z M29,22.1H10.1c-0.3,0-0.5-0.2-0.5-0.5s0.2-0.5,0.5-0.5H29c0.3,0,0.5,0.2,0.5,0.5
		S29.3,22.1,29,22.1z"/>
</g>
<path class="st2" d="M12.8,4.1c-0.4-0.4-0.4-1,0-1.4s1-0.4,1.4,0s0.4,1,0,1.4C13.7,4.5,13.1,4.5,12.8,4.1L12.8,4.1z M16.7,5.5
	l-0.2-2.2c-0.1-0.8-0.4-1.5-0.9-2.1c-0.5-0.5-1.2-0.9-2-1L11.5,0c-0.7-0.1-1.4,0.1-1.9,0.6l-6,5.8c-0.3,0.3-0.3,0.8,0,1.1l5.3,5.6
	c0.3,0.3,0.8,0.3,1.1,0l6-5.8C16.5,6.9,16.7,6.2,16.7,5.5L16.7,5.5z M9.5,12.5L4.2,7l6-5.7C10.5,1,11,0.8,11.4,0.9l2.2,0.3
	c0.6,0.1,1.1,0.3,1.5,0.8c0.4,0.4,0.6,1,0.7,1.5L16,5.7c0,0.5-0.1,0.9-0.5,1.2L9.5,12.5z M1.7,6.4c-0.3,0.3-0.3,0.8,0,1.1L6.9,13
	l-0.2,0.2c-0.3,0.3-0.8,0.3-1.1,0L0.2,7.5c-0.3-0.3-0.3-0.8,0-1.1l6-5.8C6.7,0.2,7.4-0.1,8.1,0h0.1L7.6,0.6l-5,4.8l0,0L1.7,6.4z"/>
</svg>
