<svg width="523" height="380" viewBox="0 0 523 380" fill="none" xmlns="http://www.w3.org/2000/svg">
<g clip-path="url(#clip0_816_1317)">
<path d="M0.00393181 13.0241C-0.040481 11.1708 0.291756 9.32779 0.980668 7.60672C1.66958 5.88565 2.70084 4.32229 4.01179 3.01145C5.32274 1.70061 6.88611 0.669561 8.60732 -0.0192923C10.3285 -0.708146 12.1718 -1.04048 14.0253 -0.99607H168.907L225.073 55.1652V266.276C225.117 268.13 224.785 269.973 224.096 271.694C223.407 273.415 222.376 274.978 221.065 276.289C219.754 277.6 218.191 278.631 216.47 279.32C214.748 280.008 212.905 280.341 211.052 280.297H14.0253C12.1718 280.341 10.3285 280.008 8.60732 279.32C6.88611 278.631 5.32274 277.6 4.01179 276.289C2.70084 274.978 1.66958 273.415 0.980668 271.694C0.291756 269.973 -0.040481 268.13 0.00393181 266.276V13.0241Z" fill="white"/>
<path fill-rule="evenodd" clip-rule="evenodd" d="M14.0253 273.651H211.214C213.054 273.657 214.828 272.966 216.181 271.719C217.534 270.472 218.365 268.759 218.508 266.925V58.3258L166.395 6.21667H14.0253C12.2474 6.36709 10.5688 7.09979 9.24991 8.30131C7.93106 9.50282 7.04557 11.1059 6.73077 12.862V266.763C6.75095 267.689 6.95779 268.601 7.33873 269.445C7.71966 270.29 8.26696 271.048 8.94791 271.676C9.62885 272.304 10.4294 272.788 11.3018 273.1C12.1742 273.411 13.1006 273.544 14.0253 273.489V273.651ZM168.907 -0.99607H14.0253C12.1718 -1.04048 10.3285 -0.708146 8.60732 -0.0192924C6.88611 0.669561 5.32274 1.70061 4.01179 3.01145C2.70084 4.32229 1.66958 5.88565 0.980668 7.60672C0.291756 9.32778 -0.0404809 11.1708 0.0039318 13.0241V266.925C-0.0400756 268.782 0.291908 270.628 0.979926 272.354C1.66794 274.079 2.69783 275.647 4.00758 276.965C5.31734 278.282 6.87986 279.321 8.60139 280.019C10.3229 280.716 12.1679 281.059 14.0253 281.026H211.214C213.071 281.059 214.916 280.716 216.638 280.019C218.359 279.321 219.922 278.282 221.232 276.965C222.541 275.647 223.571 274.079 224.259 272.354C224.947 270.628 225.279 268.782 225.235 266.925V55.8136L168.907 -0.99607Z" fill="#DADBE2"/>
<path d="M168.906 -0.99585L225.072 55.1654H168.906V-0.99585Z" fill="#DADBE2"/>
<path d="M23.0195 179.887C23.0195 179.436 23.1987 179.003 23.5179 178.684C23.8371 178.364 24.2701 178.185 24.7215 178.185H180.9C181.359 178.185 181.801 178.361 182.133 178.678C182.465 178.995 182.662 179.428 182.683 179.887C182.684 180.118 182.637 180.346 182.546 180.558C182.456 180.77 182.323 180.961 182.157 181.12C181.99 181.279 181.792 181.403 181.577 181.483C181.361 181.564 181.131 181.6 180.9 181.589H24.7215C24.2764 181.569 23.8549 181.383 23.5399 181.068C23.2249 180.754 23.0394 180.332 23.0195 179.887ZM23.0195 73.0754C23.0191 72.6378 23.1871 72.2166 23.489 71.8997C23.7909 71.5828 24.2034 71.3944 24.6406 71.3735H141.673C142.125 71.3735 142.557 71.5528 142.877 71.872C143.196 72.1912 143.375 72.6241 143.375 73.0754C143.375 73.5268 143.196 73.9596 142.877 74.2788C142.557 74.5979 142.125 74.7772 141.673 74.7772H24.7215C24.2909 74.7383 23.8891 74.5442 23.5909 74.2312C23.2927 73.9181 23.1186 73.5074 23.1007 73.0754H23.0195ZM23.0195 188.72C23.0391 188.34 23.199 187.98 23.4685 187.711C23.7379 187.441 24.0978 187.281 24.4783 187.262H196.948C197.328 187.281 197.688 187.441 197.957 187.711C198.227 187.98 198.387 188.34 198.407 188.72C198.387 189.101 198.227 189.461 197.957 189.73C197.688 190 197.328 190.16 196.948 190.179H24.4783C24.0914 190.179 23.7205 190.026 23.4469 189.752C23.1734 189.478 23.0195 189.107 23.0195 188.72ZM23.0195 82.6382C23.0193 82.4077 23.0658 82.1795 23.1563 81.9676C23.2469 81.7556 23.3796 81.5643 23.5464 81.4052C23.7131 81.2461 23.9104 81.1225 24.1264 81.0419C24.3423 80.9613 24.5724 80.9253 24.8026 80.9363H100.42C100.643 80.9363 100.865 80.9803 101.071 81.0659C101.278 81.1514 101.465 81.2767 101.623 81.4347C101.781 81.5928 101.907 81.7804 101.992 81.9869C102.078 82.1934 102.122 82.4147 102.122 82.6382C102.122 82.8617 102.078 83.083 101.992 83.2895C101.907 83.496 101.781 83.6836 101.623 83.8416C101.465 83.9997 101.278 84.125 101.071 84.2105C100.865 84.296 100.643 84.3401 100.42 84.3401H24.8026C24.5724 84.3511 24.3423 84.3151 24.1264 84.2345C23.9104 84.1539 23.7131 84.0303 23.5464 83.8712C23.3796 83.712 23.2469 83.5207 23.1563 83.3088C23.0658 83.0968 23.0193 82.8687 23.0195 82.6382ZM23.0195 198.364C23.0191 197.927 23.1871 197.506 23.489 197.189C23.7909 196.872 24.2034 196.683 24.6406 196.663H196.38C196.832 196.663 197.265 196.842 197.584 197.161C197.903 197.48 198.082 197.913 198.082 198.364C198.083 198.823 197.906 199.265 197.589 199.597C197.272 199.929 196.839 200.126 196.38 200.147H24.6406C24.2093 200.075 23.8147 199.86 23.5207 199.537C23.2266 199.214 23.05 198.8 23.0195 198.364ZM23.0195 232.32C23.0191 231.883 23.1871 231.462 23.489 231.145C23.7909 230.828 24.2034 230.639 24.6406 230.619H200.514C200.737 230.619 200.959 230.663 201.165 230.748C201.372 230.834 201.559 230.959 201.717 231.117C201.875 231.275 202.001 231.463 202.086 231.669C202.172 231.876 202.216 232.097 202.216 232.32C202.216 232.544 202.172 232.765 202.086 232.972C202.001 233.178 201.875 233.366 201.717 233.524C201.559 233.682 201.372 233.807 201.165 233.893C200.959 233.978 200.737 234.022 200.514 234.022H24.7215C24.2909 233.983 23.8891 233.789 23.5909 233.476C23.2927 233.163 23.1186 232.752 23.1007 232.32H23.0195ZM23.0195 108.247C23.0193 108.017 23.0658 107.788 23.1563 107.576C23.2469 107.365 23.3796 107.173 23.5464 107.014C23.7131 106.855 23.9104 106.731 24.1264 106.651C24.3423 106.57 24.5724 106.534 24.8026 106.545H193.219C193.443 106.545 193.664 106.589 193.871 106.675C194.077 106.76 194.265 106.886 194.423 107.044C194.581 107.202 194.706 107.389 194.792 107.596C194.877 107.802 194.921 108.024 194.921 108.247C194.921 108.471 194.877 108.692 194.792 108.898C194.706 109.105 194.581 109.292 194.423 109.45C194.265 109.608 194.077 109.734 193.871 109.819C193.664 109.905 193.443 109.949 193.219 109.949H24.8837C24.6535 109.96 24.4235 109.924 24.2075 109.843C23.9916 109.763 23.7942 109.639 23.6275 109.48C23.4608 109.321 23.328 109.13 23.2375 108.918C23.1469 108.706 23.1004 108.478 23.1007 108.247H23.0195ZM23.0195 240.181C23.0191 239.744 23.1871 239.323 23.489 239.006C23.7909 238.689 24.2034 238.5 24.6406 238.479H193.219C193.671 238.479 194.104 238.659 194.423 238.978C194.742 239.297 194.921 239.73 194.921 240.181C194.932 240.412 194.897 240.642 194.816 240.858C194.735 241.073 194.612 241.271 194.452 241.438C194.293 241.604 194.102 241.737 193.89 241.827C193.678 241.918 193.45 241.965 193.219 241.964H24.7215C24.2902 241.892 23.8959 241.678 23.6018 241.354C23.3077 241.031 23.1312 240.617 23.1007 240.181H23.0195ZM23.0195 116.108C23.0193 115.878 23.0658 115.649 23.1563 115.437C23.2469 115.226 23.3796 115.034 23.5464 114.875C23.7131 114.716 23.9104 114.592 24.1264 114.512C24.3423 114.431 24.5724 114.395 24.8026 114.406H196.786C197.237 114.406 197.67 114.585 197.989 114.905C198.308 115.224 198.487 115.657 198.487 116.108C198.488 116.567 198.311 117.009 197.994 117.341C197.677 117.673 197.244 117.87 196.786 117.891H24.8837C24.4108 117.891 23.9572 117.703 23.6228 117.369C23.2884 117.034 23.1007 116.581 23.1007 116.108H23.0195ZM23.0195 248.123C23.0177 247.677 23.1832 247.247 23.4833 246.917C23.7834 246.586 24.1963 246.381 24.6406 246.341H196.786C197.244 246.361 197.677 246.558 197.994 246.89C198.311 247.222 198.488 247.664 198.487 248.123C198.487 248.575 198.308 249.007 197.989 249.327C197.67 249.646 197.237 249.825 196.786 249.825H24.8837C24.4357 249.791 24.0131 249.603 23.6881 249.293C23.3631 248.983 23.1555 248.569 23.1007 248.123H23.0195ZM23.0195 124.05C23.0177 123.604 23.1832 123.173 23.4833 122.843C23.7834 122.513 24.1963 122.308 24.6406 122.267H196.786C197.184 122.353 197.54 122.573 197.796 122.89C198.051 123.207 198.191 123.602 198.191 124.009C198.191 124.417 198.051 124.812 197.796 125.129C197.54 125.446 197.184 125.666 196.786 125.752H24.8837C24.4303 125.734 23.9988 125.551 23.6705 125.238C23.3423 124.924 23.1398 124.502 23.1007 124.05H23.0195ZM23.0195 132.154C23.0195 131.681 23.2073 131.228 23.5417 130.893C23.8761 130.559 24.3297 130.371 24.8026 130.371H185.52C185.75 130.371 185.979 130.418 186.191 130.508C186.403 130.599 186.594 130.731 186.753 130.898C186.912 131.065 187.036 131.262 187.116 131.478C187.197 131.694 187.233 131.924 187.222 132.154C187.222 132.605 187.043 133.038 186.723 133.358C186.404 133.677 185.971 133.856 185.52 133.856H24.8837C24.4245 133.856 23.9829 133.68 23.6508 133.363C23.3186 133.046 23.1215 132.613 23.1007 132.154H23.0195ZM23.0195 164.084C23.0195 163.633 23.1987 163.2 23.5179 162.881C23.8371 162.562 24.2701 162.382 24.7215 162.382H99.1233C99.5747 162.382 100.007 162.562 100.327 162.881C100.646 163.2 100.825 163.633 100.825 164.084C100.836 164.314 100.8 164.544 100.72 164.76C100.639 164.976 100.515 165.174 100.356 165.34C100.197 165.507 100.006 165.64 99.7939 165.73C99.5819 165.821 99.3538 165.867 99.1233 165.867H24.7215C24.2628 165.846 23.8298 165.649 23.5127 165.317C23.1957 164.985 23.0191 164.543 23.0195 164.084ZM23.0195 206.306C23.0195 205.855 23.1987 205.422 23.5179 205.103C23.8371 204.784 24.2701 204.605 24.7215 204.605H173.768C173.998 204.594 174.228 204.629 174.444 204.71C174.66 204.791 174.858 204.914 175.024 205.073C175.191 205.233 175.324 205.424 175.414 205.636C175.505 205.848 175.551 206.076 175.551 206.306C175.551 206.537 175.505 206.765 175.414 206.977C175.324 207.189 175.191 207.38 175.024 207.539C174.858 207.698 174.66 207.822 174.444 207.903C174.228 207.983 173.998 208.019 173.768 208.008H24.7215C24.2764 207.988 23.8549 207.803 23.5399 207.488C23.2249 207.173 23.0394 206.751 23.0195 206.306ZM23.0195 171.945C23.0374 171.513 23.2118 171.102 23.51 170.789C23.8082 170.476 24.21 170.282 24.6406 170.243H99.0422C99.4402 170.33 99.7965 170.549 100.052 170.866C100.308 171.183 100.447 171.578 100.447 171.986C100.447 172.393 100.308 172.788 100.052 173.105C99.7965 173.422 99.4402 173.642 99.0422 173.728H24.6406C24.2031 173.671 23.7999 173.46 23.5031 173.134C23.2063 172.807 23.035 172.386 23.0195 171.945Z" fill="#DADBE2"/>
<path d="M23.0195 55.9758C23.0404 55.5172 23.2375 55.0842 23.5696 54.7672C23.9018 54.4502 24.3434 54.2735 24.8026 54.2739H110.551C110.811 54.2175 111.081 54.22 111.34 54.2814C111.599 54.3427 111.841 54.4614 112.048 54.6285C112.255 54.7956 112.423 55.007 112.537 55.2471C112.652 55.4873 112.712 55.7501 112.712 56.0163C112.712 56.2825 112.652 56.5454 112.537 56.7856C112.423 57.0257 112.255 57.2371 112.048 57.4042C111.841 57.5713 111.599 57.6899 111.34 57.7512C111.081 57.8125 110.811 57.8151 110.551 57.7586H24.8837C24.4108 57.7586 23.9572 57.5709 23.6228 57.2365C23.2884 56.9022 23.1007 56.4487 23.1007 55.9758H23.0195Z" fill="#F6861F"/>
<path d="M266.564 182.666H243.06V179.586H266.564V172.698L275.479 180.802L266.564 188.906V182.666ZM265.673 194.093L278.64 181.855C278.834 181.646 278.942 181.371 278.942 181.086C278.942 180.8 278.834 180.525 278.64 180.316C276.533 178.209 268.671 170.996 265.673 167.997C265.511 167.861 265.315 167.773 265.105 167.743C264.896 167.712 264.683 167.741 264.489 167.825C264.296 167.909 264.129 168.046 264.009 168.219C263.889 168.393 263.819 168.597 263.808 168.808V176.912H240.305V185.502H264.133V193.606C264.191 193.749 264.281 193.876 264.394 193.98C264.508 194.084 264.642 194.162 264.789 194.209C264.936 194.255 265.091 194.269 265.244 194.249C265.396 194.229 265.543 194.175 265.673 194.093Z" fill="#DADBE2"/>
<g clip-path="url(#clip1_816_1317)">
<path d="M296.998 112.02C296.965 110.163 297.308 108.318 298.006 106.597C298.704 104.875 299.742 103.313 301.06 102.003C302.377 100.694 303.946 99.6638 305.671 98.9759C307.397 98.2879 309.243 97.956 311.101 98H466.063L522.23 154.161V365.272C522.274 367.126 521.942 368.969 521.253 370.69C520.564 372.411 519.533 373.974 518.222 375.285C516.911 376.596 515.347 377.627 513.626 378.316C511.905 379.004 510.062 379.337 508.208 379.292H311.101C309.243 379.336 307.397 379.004 305.671 378.316C303.946 377.628 302.377 376.599 301.06 375.289C299.742 373.979 298.704 372.417 298.006 370.696C297.308 368.974 296.965 367.129 296.998 365.272V112.02Z" fill="white"/>
<path fill-rule="evenodd" clip-rule="evenodd" d="M311.102 372.647H508.21C510.037 372.654 511.801 371.975 513.152 370.745C514.502 369.514 515.342 367.822 515.504 366.002V157.484L463.391 105.375H311.021C309.243 105.525 307.565 106.258 306.246 107.459C304.927 108.661 304.042 110.264 303.727 112.02V366.002C303.757 366.928 303.974 367.839 304.365 368.679C304.756 369.52 305.312 370.273 306.001 370.893C306.689 371.514 307.496 371.989 308.373 372.29C309.249 372.592 310.178 372.713 311.102 372.647ZM466.065 98H311.102C309.245 97.956 307.398 98.2879 305.673 98.9759C303.947 99.6638 302.379 100.694 301.061 102.003C299.744 103.313 298.705 104.875 298.007 106.597C297.309 108.318 296.967 110.163 297 112.02V365.921C296.956 367.785 297.29 369.638 297.983 371.369C298.676 373.1 299.713 374.672 301.032 375.99C302.35 377.309 303.922 378.346 305.653 379.039C307.385 379.732 309.238 380.066 311.102 380.022H508.21C510.067 380.055 511.912 379.712 513.634 379.015C515.355 378.317 516.918 377.278 518.228 375.961C519.537 374.643 520.567 373.075 521.255 371.35C521.943 369.624 522.275 367.778 522.231 365.921V155.215L466.065 98Z" fill="#DADBE2"/>
<path d="M466.066 98L522.233 154.161H466.066V98Z" fill="#DADBE2"/>
<path d="M321 270.948V267.055H495V270.948H321ZM321 255.973V252.079H495V255.973H321ZM321 225.921V222.027H495V225.921H321ZM495 195.87H321V191.976H495V195.87ZM495 301H321V297.106H495V301Z" fill="#E7A323"/>
<path opacity="0.48" d="M321 177H495V180.894H321V177ZM495 282.13V286.024H321V282.13H495ZM321 210.945V207.052H495V210.945H321ZM321 237.103H495V240.997H321V237.103Z" fill="#AEADAD"/>
<path d="M495 330.87H321V326.976H495V330.87Z" fill="#E7A323"/>
<path opacity="0.48" d="M321 312H495V315.894H321V312ZM321 345.945V342.052H495V345.945H321Z" fill="#AEADAD"/>
</g>
</g>
<defs>
<clipPath id="clip0_816_1317">
<rect width="523" height="380" fill="white"/>
</clipPath>
<clipPath id="clip1_816_1317">
<rect width="225" height="282" fill="white" transform="translate(297 98)"/>
</clipPath>
</defs>
</svg>
