<?xml version="1.0" encoding="utf-8"?>
<!-- Generator: Adobe Illustrator 26.0.0, SVG Export Plug-In . SVG Version: 6.00 Build 0)  -->
<svg version="1.1" id="Layer_1" xmlns="http://www.w3.org/2000/svg" xmlns:xlink="http://www.w3.org/1999/xlink" x="0px" y="0px"
	 viewBox="0 0 35 33" style="enable-background:new 0 0 35 33;" xml:space="preserve">
<style type="text/css">
	.st0{fill:#CACACA;}
	.st1{fill:#FA8617;}
</style>
<g>
	<path class="st0" d="M19.1,14.5h-0.7v-1.3H17v1.3h-0.7v-3.2H17v1.3h1.3v-1.3h0.7V14.5z"/>
	<path class="st0" d="M22.1,11.8h-0.9v2.7h-0.7v-2.7h-0.9v-0.6h2.6V11.8z"/>
	<path class="st0" d="M26.2,14.5h-0.7v-1.9c0-0.2,0-0.4,0-0.7h0c0,0.2-0.1,0.3-0.1,0.4l-0.8,2.2H24l-0.8-2.2c0-0.1-0.1-0.2-0.1-0.5
		h0c0,0.3,0,0.6,0,0.8v1.8h-0.7v-3.2h1.1l0.7,1.9c0.1,0.2,0.1,0.3,0.1,0.5h0c0-0.2,0.1-0.3,0.1-0.5l0.7-1.9h1V14.5z"/>
	<path class="st0" d="M28.9,14.5H27v-3.2h0.7v2.7h1.2V14.5z"/>
	<path class="st0" d="M18.5,33C9.4,33,2,25.6,2,16.5c0-1.5,0.2-3,0.6-4.5l1,0.3C3.2,13.7,3,15,3,16.5C3,25,10,32,18.5,32
		S34,25,34,16.5S27,1,18.5,1V0C27.6,0,35,7.4,35,16.5C35,25.6,27.6,33,18.5,33z"/>
</g>
<g>
	<path id="cla1_00000175307969456912917860000009567940107280654780_" class="st1" d="M28.9,21.1H10c-0.3,0-0.5,0.2-0.5,0.5
		s0.2,0.5,0.5,0.5h18.9c0.3,0,0.5-0.2,0.5-0.5C29.4,21.3,29.2,21.1,28.9,21.1z M28.9,16.8H17.1c-0.3,0-0.5,0.2-0.5,0.5
		s0.2,0.5,0.5,0.5h11.7c0.3,0,0.5-0.2,0.5-0.5C29.4,17,29.2,16.8,28.9,16.8z M13.2,16.8H10c-0.3,0-0.5,0.2-0.5,0.5s0.2,0.5,0.5,0.5
		h3.2c0.3,0,0.5-0.2,0.5-0.5S13.4,16.8,13.2,16.8z"/>
	<path class="st1" d="M9.8,4.9c0,0.3-0.1,0.6-0.2,0.9C9.5,5.5,9.2,5.3,8.8,5.3C8.4,5.3,8,5.7,8,6.1C8,6.6,8.3,6.9,8.8,7
		C8.4,7.3,7.8,7.5,7.3,7.5c-1.4,0-2.5-1.1-2.5-2.5c0-1.4,1.1-2.5,2.5-2.5C8.7,2.4,9.8,3.5,9.8,4.9z M7.3,0.8c2.7,0,5,2,6.3,3.9
		c-0.9,1.5-3.3,3.9-6.3,3.9c-3,0-5.2-2.4-6.3-4C1.7,3.7,3.9,0.8,7.3,0.8 M7.3,0C2.7,0,0,4.7,0,4.7v0c0,0,2.8,4.7,7.3,4.7
		c4.5,0,7.2-4.6,7.3-4.8C14.5,4.6,11.7,0,7.3,0L7.3,0z"/>
</g>
</svg>
