<svg width="637" height="594" viewBox="0 0 637 594" fill="none" xmlns="http://www.w3.org/2000/svg">
<g clip-path="url(#clip0_512_147)">
<g filter="url(#filter0_d_512_147)">
<path d="M637 581.661H390.583C383.273 581.661 377.352 575.743 377.352 568.436V13.8257C377.352 9.80285 380.61 6.54541 384.635 6.54541H637V581.661Z" fill="white"/>
</g>
<path d="M389.711 155.48C392.332 155.48 394.456 153.356 394.456 150.736C394.456 148.116 392.332 145.992 389.711 145.992C387.09 145.992 384.965 148.116 384.965 150.736C384.965 153.356 387.09 155.48 389.711 155.48Z" fill="#C8C8C8"/>
<g filter="url(#filter1_d_512_147)">
<path d="M204.739 292.479C204.739 294.713 202.932 296.52 200.697 296.52H22.9291C20.6942 296.52 18.8867 294.713 18.8867 292.479V231.763C18.8867 229.529 20.6942 227.722 22.9291 227.722H200.697C202.932 227.722 204.739 229.529 204.739 231.763" fill="white"/>
</g>
<path d="M392.484 261.453H212V262.343H392.484V261.453Z" fill="#C8C8C8"/>
<path d="M389.711 266.339C392.332 266.339 394.456 264.215 394.456 261.596C394.456 258.976 392.332 256.852 389.711 256.852C387.09 256.852 384.965 258.976 384.965 261.596C384.965 264.215 387.09 266.339 389.711 266.339Z" fill="#C8C8C8"/>
<path d="M386.549 392.756H341.521V393.646H386.549V392.756Z" fill="#C8C8C8"/>
<path d="M386.549 150.594H341.521V151.484H386.549V150.594Z" fill="#C8C8C8"/>
<path d="M389.711 397.643C392.332 397.643 394.456 395.519 394.456 392.899C394.456 390.279 392.332 388.155 389.711 388.155C387.09 388.155 384.965 390.279 384.965 392.899C384.965 395.519 387.09 397.643 389.711 397.643Z" fill="#C8C8C8"/>
<path d="M386.55 503.616H206.066V504.506H386.55V503.616Z" fill="#C8C8C8"/>
<path d="M389.711 508.502C392.332 508.502 394.456 506.378 394.456 503.759C394.456 501.139 392.332 499.015 389.711 499.015C387.09 499.015 384.965 501.139 384.965 503.759C384.965 506.378 387.09 508.502 389.711 508.502Z" fill="#C8C8C8"/>
<path d="M204.793 273.78C211.235 273.78 216.457 268.56 216.457 262.121C216.457 255.682 211.235 250.462 204.793 250.462C198.351 250.462 193.129 255.682 193.129 262.121C193.129 268.56 198.351 273.78 204.793 273.78Z" fill="#66C357"/>
<path d="M204.792 272.294C210.413 272.294 214.97 267.739 214.97 262.121C214.97 256.503 210.413 251.948 204.792 251.948C199.172 251.948 194.615 256.503 194.615 262.121C194.615 267.739 199.172 272.294 204.792 272.294Z" fill="white"/>
<g filter="url(#filter2_d_512_147)">
<path d="M332.581 181.094C332.581 183.328 330.774 185.135 328.539 185.135H150.771C148.536 185.135 146.729 183.328 146.729 181.094V120.378C146.729 118.144 148.536 116.337 150.771 116.337H328.539C330.774 116.337 332.581 118.144 332.581 120.378" fill="white"/>
</g>
<path d="M332.635 162.395C339.077 162.395 344.299 157.175 344.299 150.736C344.299 144.297 339.077 139.077 332.635 139.077C326.193 139.077 320.971 144.297 320.971 150.736C320.971 157.175 326.193 162.395 332.635 162.395Z" fill="#FA8617"/>
<path d="M332.636 160.909C338.257 160.909 342.813 156.354 342.813 150.736C342.813 145.118 338.257 140.563 332.636 140.563C327.015 140.563 322.459 145.118 322.459 150.736C322.459 156.354 327.015 160.909 332.636 160.909Z" fill="white"/>
<g filter="url(#filter3_d_512_147)">
<path d="M331.753 423.115C331.753 425.349 329.946 427.155 327.711 427.155H149.943C147.708 427.155 145.9 425.349 145.9 423.115V362.398C145.9 360.164 147.708 358.358 149.943 358.358H327.711C329.946 358.358 331.753 360.164 331.753 362.398" fill="white"/>
</g>
<path d="M331.807 404.416C338.249 404.416 343.471 399.196 343.471 392.757C343.471 386.317 338.249 381.097 331.807 381.097C325.365 381.097 320.143 386.317 320.143 392.757C320.143 399.196 325.365 404.416 331.807 404.416Z" fill="#EA4D6A"/>
<path d="M331.808 402.929C337.429 402.929 341.985 398.375 341.985 392.756C341.985 387.138 337.429 382.584 331.808 382.584C326.187 382.584 321.631 387.138 321.631 392.756C321.631 398.375 326.187 402.929 331.808 402.929Z" fill="white"/>
<g filter="url(#filter4_d_512_147)">
<path d="M195.853 533.974C195.853 536.208 194.045 538.015 191.81 538.015H14.0424C11.8075 538.015 10 536.208 10 533.974V473.258C10 471.024 11.8075 469.217 14.0424 469.217H191.81C194.045 469.217 195.853 471.024 195.853 473.258" fill="white"/>
</g>
<path d="M195.906 515.275C202.348 515.275 207.571 510.055 207.571 503.616C207.571 497.177 202.348 491.957 195.906 491.957C189.464 491.957 184.242 497.177 184.242 503.616C184.242 510.055 189.464 515.275 195.906 515.275Z" fill="#FA8617"/>
<path d="M195.906 513.789C201.526 513.789 206.083 509.234 206.083 503.616C206.083 497.998 201.526 493.443 195.906 493.443C190.285 493.443 185.729 497.998 185.729 503.616C185.729 509.234 190.285 513.789 195.906 513.789Z" fill="white"/>
<path d="M157.878 145.77C157.415 145.547 157.032 145.227 156.747 144.817C156.453 144.408 156.284 143.927 156.23 143.385L157.922 143.073C158.1 143.999 158.599 144.453 159.418 144.453C159.899 144.453 160.273 144.301 160.522 143.999C160.772 143.696 160.896 143.26 160.896 142.69C160.896 142.13 160.763 141.702 160.487 141.409C160.219 141.115 159.828 140.964 159.329 140.964C159.009 140.964 158.697 141.044 158.385 141.204C158.082 141.364 157.806 141.587 157.557 141.863L156.435 141.631L156.987 136.024H162.116V137.68H158.456L158.225 139.762C158.643 139.513 159.115 139.388 159.632 139.388C160.638 139.388 161.395 139.682 161.911 140.278C162.428 140.875 162.677 141.676 162.677 142.69C162.677 143.358 162.543 143.945 162.267 144.461C162 144.978 161.617 145.387 161.119 145.672C160.62 145.957 160.05 146.108 159.391 146.108C158.848 146.108 158.341 145.992 157.878 145.77Z" fill="#FA8617"/>
<path d="M167.744 137.564C167.521 137.341 167.414 137.074 167.414 136.754C167.414 136.434 167.521 136.158 167.744 135.944C167.966 135.722 168.233 135.615 168.554 135.615C168.874 135.615 169.15 135.722 169.364 135.944C169.587 136.167 169.693 136.434 169.693 136.754C169.693 137.074 169.587 137.35 169.364 137.564C169.141 137.786 168.874 137.893 168.554 137.893C168.233 137.893 167.966 137.777 167.744 137.564ZM167.672 138.819H169.435V145.992H167.672V138.819Z" fill="#FA8617"/>
<path d="M171.376 138.819H173.139V139.976C173.415 139.557 173.718 139.246 174.047 139.032C174.377 138.819 174.76 138.712 175.205 138.712C175.668 138.712 176.086 138.837 176.442 139.086C176.799 139.335 177.057 139.7 177.208 140.198C177.466 139.735 177.787 139.371 178.17 139.112C178.553 138.854 178.962 138.721 179.399 138.721C180.066 138.721 180.583 138.917 180.966 139.308C181.349 139.7 181.536 140.243 181.536 140.928V146.01H179.773V141.222C179.773 140.554 179.479 140.225 178.891 140.225C178.437 140.225 178.063 140.483 177.769 140.99C177.475 141.507 177.333 142.245 177.333 143.215V146.01H175.57V141.222C175.57 140.554 175.276 140.225 174.688 140.225C174.234 140.225 173.86 140.492 173.566 141.026C173.273 141.56 173.13 142.343 173.13 143.367V146.001H171.367V138.819H171.376Z" fill="#FA8617"/>
<path d="M183.558 145.538C183.148 145.156 182.943 144.622 182.943 143.927C182.943 143.215 183.21 142.646 183.754 142.219C184.297 141.791 185.027 141.578 185.944 141.578H187.199V141.266C187.199 140.919 187.084 140.652 186.843 140.474C186.603 140.296 186.309 140.207 185.944 140.207C185.33 140.207 184.911 140.483 184.706 141.035L183.21 140.697C183.326 140.1 183.629 139.62 184.128 139.255C184.626 138.89 185.232 138.703 185.944 138.703C186.906 138.703 187.645 138.961 188.17 139.469C188.695 139.976 188.962 140.723 188.962 141.711V146.001H187.511L187.324 145.093C186.763 145.779 186.024 146.117 185.116 146.117C184.493 146.108 183.967 145.912 183.558 145.538ZM186.728 144.194C187.048 143.927 187.208 143.563 187.208 143.118V142.975H186.024C185.632 142.975 185.33 143.055 185.116 143.207C184.902 143.358 184.795 143.589 184.795 143.901C184.795 144.114 184.867 144.275 185.018 144.408C185.169 144.533 185.356 144.604 185.597 144.604C186.024 144.595 186.398 144.461 186.728 144.194Z" fill="#FA8617"/>
<path d="M191.135 148.395C190.529 147.986 190.227 147.398 190.227 146.642C190.227 146.054 190.422 145.583 190.814 145.218C190.565 144.924 190.44 144.55 190.44 144.105C190.44 143.776 190.52 143.482 190.672 143.224C190.823 142.966 191.046 142.761 191.322 142.601C190.992 142.192 190.823 141.702 190.823 141.124C190.823 140.643 190.939 140.216 191.17 139.851C191.402 139.486 191.722 139.201 192.123 139.006C192.524 138.81 192.969 138.703 193.459 138.703C193.922 138.703 194.367 138.81 194.785 139.015L196.139 138.302L196.833 139.468L195.809 139.985C195.996 140.314 196.094 140.697 196.094 141.124C196.094 141.604 195.979 142.032 195.747 142.397C195.516 142.761 195.195 143.037 194.794 143.233C194.394 143.42 193.948 143.518 193.459 143.518C193.094 143.518 192.755 143.465 192.417 143.358C192.185 143.491 192.079 143.669 192.079 143.901C192.079 144.07 192.132 144.203 192.248 144.292C192.364 144.381 192.524 144.426 192.746 144.426H194.216C194.981 144.426 195.596 144.613 196.05 144.978C196.504 145.342 196.735 145.868 196.735 146.535C196.735 147.096 196.584 147.559 196.272 147.932C195.961 148.306 195.56 148.573 195.07 148.751C194.581 148.929 194.046 149.018 193.477 149.018C192.515 149.009 191.74 148.805 191.135 148.395ZM194.563 147.318C194.83 147.176 194.972 146.953 194.972 146.651C194.972 146.375 194.874 146.179 194.67 146.072C194.474 145.965 194.189 145.912 193.815 145.912H192.844C192.524 145.912 192.248 145.894 192.016 145.859C191.909 146.019 191.856 146.241 191.856 146.517C191.856 146.847 192.007 147.105 192.301 147.283C192.595 147.461 192.987 147.55 193.468 147.55C193.931 147.532 194.296 147.461 194.563 147.318ZM194.171 141.818C194.358 141.64 194.447 141.409 194.447 141.124C194.447 140.83 194.358 140.59 194.171 140.403C193.984 140.216 193.753 140.127 193.468 140.127C193.183 140.127 192.951 140.216 192.764 140.403C192.577 140.59 192.488 140.83 192.488 141.124C192.488 141.409 192.577 141.64 192.764 141.818C192.951 141.996 193.183 142.085 193.468 142.085C193.744 142.094 193.984 142.005 194.171 141.818Z" fill="#FA8617"/>
<path d="M199.022 145.556C198.506 145.191 198.123 144.728 197.883 144.159C197.642 143.598 197.518 143.011 197.518 142.397C197.518 141.783 197.642 141.204 197.883 140.634C198.123 140.065 198.506 139.602 199.022 139.237C199.539 138.872 200.189 138.685 200.963 138.685C201.711 138.685 202.344 138.863 202.842 139.219C203.35 139.575 203.715 140.02 203.955 140.563C204.196 141.106 204.311 141.658 204.311 142.228V142.957H199.37C199.387 143.393 199.548 143.776 199.85 144.097C200.153 144.417 200.554 144.577 201.07 144.577C201.471 144.577 201.8 144.488 202.076 144.31C202.344 144.132 202.593 143.847 202.807 143.474L204.231 143.999C203.937 144.675 203.528 145.191 203.002 145.547C202.477 145.912 201.8 146.09 200.972 146.09C200.189 146.108 199.539 145.921 199.022 145.556ZM202.504 141.578C202.415 141.177 202.246 140.848 201.996 140.599C201.747 140.341 201.4 140.216 200.963 140.216C200.545 140.216 200.198 140.35 199.922 140.617C199.646 140.884 199.476 141.204 199.405 141.587H202.504V141.578Z" fill="#FA8617"/>
<path d="M206.234 145.538C205.736 145.156 205.406 144.702 205.246 144.168L206.653 143.411C206.786 143.785 206.973 144.07 207.214 144.283C207.454 144.488 207.739 144.595 208.078 144.595C208.336 144.595 208.549 144.541 208.719 144.435C208.888 144.328 208.977 144.15 208.977 143.901C208.977 143.678 208.879 143.5 208.674 143.367C208.469 143.233 208.158 143.082 207.73 142.931C207.668 142.913 207.561 142.877 207.428 142.815C206.876 142.592 206.448 142.325 206.145 141.987C205.843 141.649 205.691 141.231 205.691 140.706C205.691 140.332 205.789 140.002 205.994 139.691C206.199 139.379 206.466 139.148 206.813 138.961C207.16 138.783 207.552 138.694 207.989 138.694C208.469 138.694 208.915 138.792 209.315 138.997C209.716 139.201 210.019 139.486 210.241 139.86L209.191 140.83C208.906 140.412 208.523 140.207 208.033 140.207C207.846 140.207 207.677 140.261 207.543 140.358C207.41 140.456 207.339 140.59 207.339 140.75C207.339 140.919 207.436 141.079 207.641 141.231C207.837 141.382 208.229 141.56 208.808 141.765C209.36 141.96 209.787 142.227 210.081 142.548C210.375 142.868 210.526 143.287 210.526 143.785C210.526 144.488 210.304 145.049 209.858 145.476C209.413 145.903 208.825 146.108 208.104 146.108C207.347 146.108 206.733 145.912 206.234 145.538Z" fill="#FA8617"/>
<path d="M215.646 135.908H217.409V139.967C217.65 139.584 217.962 139.282 218.353 139.05C218.745 138.819 219.19 138.703 219.689 138.703C220.383 138.703 220.927 138.89 221.327 139.255C221.728 139.62 221.924 140.163 221.924 140.875V146.001H220.161V141.498C220.161 141.062 220.072 140.741 219.894 140.528C219.716 140.323 219.448 140.216 219.092 140.216C218.807 140.216 218.54 140.314 218.282 140.519C218.024 140.714 217.819 141.026 217.659 141.427C217.499 141.836 217.418 142.352 217.418 142.966V146.001H215.655V135.908H215.646Z" fill="#FA8617"/>
<path d="M223.937 145.538C223.527 145.156 223.322 144.622 223.322 143.927C223.322 143.215 223.589 142.646 224.133 142.219C224.676 141.791 225.406 141.578 226.323 141.578H227.578V141.266C227.578 140.919 227.463 140.652 227.222 140.474C226.982 140.296 226.688 140.207 226.323 140.207C225.709 140.207 225.29 140.483 225.085 141.035L223.589 140.697C223.705 140.1 224.008 139.62 224.506 139.255C225.005 138.89 225.611 138.703 226.323 138.703C227.285 138.703 228.024 138.961 228.549 139.469C229.074 139.976 229.341 140.723 229.341 141.711V146.001H227.89L227.703 145.093C227.142 145.779 226.403 146.117 225.495 146.117C224.863 146.108 224.346 145.912 223.937 145.538ZM227.098 144.194C227.418 143.927 227.578 143.563 227.578 143.118V142.975H226.394C226.002 142.975 225.7 143.055 225.486 143.207C225.272 143.358 225.165 143.589 225.165 143.901C225.165 144.114 225.237 144.275 225.388 144.408C225.539 144.533 225.726 144.604 225.967 144.604C226.403 144.595 226.777 144.461 227.098 144.194Z" fill="#FA8617"/>
<path d="M230.133 138.819H231.914L233.365 143.821L234.816 138.819H236.597L234.157 145.992H232.564L230.133 138.819Z" fill="#FA8617"/>
<path d="M238.718 145.556C238.201 145.191 237.818 144.728 237.578 144.159C237.338 143.598 237.213 143.011 237.213 142.397C237.213 141.783 237.338 141.204 237.578 140.634C237.818 140.065 238.201 139.602 238.718 139.237C239.234 138.872 239.884 138.685 240.659 138.685C241.407 138.685 242.039 138.863 242.537 139.219C243.045 139.575 243.41 140.02 243.65 140.563C243.891 141.106 244.007 141.658 244.007 142.228V142.957H239.065C239.083 143.393 239.243 143.776 239.546 144.097C239.848 144.417 240.249 144.577 240.766 144.577C241.166 144.577 241.496 144.488 241.772 144.31C242.039 144.132 242.288 143.847 242.502 143.474L243.926 143.999C243.633 144.675 243.223 145.191 242.698 145.547C242.172 145.912 241.496 146.09 240.668 146.09C239.884 146.108 239.234 145.921 238.718 145.556ZM242.199 141.578C242.11 141.177 241.941 140.848 241.692 140.599C241.442 140.341 241.095 140.216 240.659 140.216C240.24 140.216 239.893 140.35 239.617 140.617C239.341 140.884 239.172 141.204 239.101 141.587H242.199V141.578Z" fill="#FA8617"/>
<path d="M249.135 138.819H250.898V139.976C251.174 139.584 251.503 139.282 251.877 139.05C252.26 138.819 252.67 138.712 253.115 138.712C253.783 138.712 254.317 138.899 254.718 139.264C255.118 139.638 255.323 140.172 255.323 140.875V146.001H253.56V141.4C253.56 140.99 253.471 140.697 253.284 140.501C253.097 140.305 252.848 140.216 252.536 140.216C252.242 140.216 251.975 140.332 251.726 140.554C251.477 140.786 251.281 141.115 251.129 141.56C250.978 142.005 250.898 142.53 250.898 143.135V146.001H249.135V138.819Z" fill="#FA8617"/>
<path d="M258.626 145.618C258.074 145.298 257.656 144.853 257.362 144.292C257.068 143.732 256.926 143.1 256.926 142.397C256.926 141.693 257.068 141.062 257.362 140.501C257.656 139.94 258.074 139.504 258.626 139.175C259.178 138.854 259.828 138.694 260.576 138.694C261.324 138.694 261.974 138.854 262.526 139.175C263.078 139.495 263.497 139.94 263.791 140.501C264.085 141.062 264.227 141.693 264.227 142.397C264.227 143.1 264.085 143.732 263.791 144.292C263.497 144.853 263.078 145.298 262.526 145.618C261.974 145.939 261.324 146.099 260.576 146.099C259.828 146.108 259.178 145.948 258.626 145.618ZM261.885 143.963C262.206 143.545 262.366 143.02 262.366 142.405C262.366 141.791 262.206 141.266 261.885 140.848C261.565 140.43 261.128 140.216 260.576 140.216C260.024 140.216 259.588 140.43 259.268 140.848C258.947 141.275 258.787 141.791 258.787 142.405C258.787 143.02 258.947 143.545 259.268 143.963C259.588 144.381 260.024 144.595 260.576 144.595C261.128 144.595 261.565 144.381 261.885 143.963Z" fill="#FA8617"/>
<path d="M156.88 160.491C156.47 160.108 156.266 159.574 156.266 158.88C156.266 158.168 156.533 157.598 157.076 157.171C157.619 156.744 158.349 156.53 159.266 156.53H160.522V156.219C160.522 155.871 160.406 155.604 160.166 155.426C159.925 155.248 159.631 155.159 159.266 155.159C158.652 155.159 158.233 155.435 158.029 155.987L156.533 155.649C156.648 155.053 156.951 154.572 157.45 154.207C157.948 153.842 158.554 153.655 159.266 153.655C160.228 153.655 160.967 153.913 161.492 154.421C162.018 154.928 162.285 155.676 162.285 156.664V160.953H160.833L160.646 160.046C160.085 160.731 159.346 161.069 158.438 161.069C157.806 161.06 157.281 160.864 156.88 160.491ZM160.041 159.147C160.361 158.88 160.522 158.515 160.522 158.07V157.927H159.337C158.946 157.927 158.643 158.007 158.429 158.159C158.216 158.31 158.109 158.541 158.109 158.853C158.109 159.067 158.18 159.227 158.331 159.36C158.483 159.485 158.67 159.556 158.91 159.556C159.337 159.547 159.72 159.414 160.041 159.147Z" fill="#FA8617"/>
<path d="M164.146 150.861H165.909V160.944H164.146V150.861Z" fill="#FA8617"/>
<path d="M168.847 160.393C168.384 159.948 168.152 159.289 168.152 158.417V155.284H167.039V153.771H168.152V151.973L169.915 150.861V153.762H171.812V155.275H169.915V158.381C169.915 158.808 169.995 159.111 170.147 159.289C170.307 159.467 170.538 159.556 170.85 159.556C171.09 159.556 171.313 159.503 171.536 159.387L171.945 160.811C171.571 160.98 171.188 161.069 170.779 161.069C169.951 161.06 169.31 160.838 168.847 160.393Z" fill="#FA8617"/>
<path d="M176.95 160.491C176.541 160.108 176.336 159.574 176.336 158.88C176.336 158.168 176.603 157.598 177.146 157.171C177.689 156.744 178.419 156.53 179.337 156.53H180.592V156.219C180.592 155.871 180.476 155.604 180.236 155.426C179.995 155.248 179.702 155.159 179.337 155.159C178.722 155.159 178.304 155.435 178.099 155.987L176.603 155.649C176.719 155.053 177.022 154.572 177.52 154.207C178.019 153.842 178.624 153.655 179.337 153.655C180.298 153.655 181.037 153.913 181.563 154.421C182.088 154.928 182.355 155.676 182.355 156.664V160.953H180.904L180.717 160.046C180.156 160.731 179.417 161.069 178.509 161.069C177.876 161.06 177.36 160.864 176.95 160.491ZM180.111 159.147C180.432 158.88 180.592 158.515 180.592 158.07V157.927H179.408C179.016 157.927 178.713 158.007 178.5 158.159C178.286 158.31 178.179 158.541 178.179 158.853C178.179 159.067 178.25 159.227 178.402 159.36C178.553 159.485 178.74 159.556 178.98 159.556C179.417 159.547 179.791 159.414 180.111 159.147Z" fill="#FA8617"/>
<path d="M185.159 160.393C184.696 159.948 184.465 159.289 184.465 158.417V155.284H183.352V153.771H184.465V151.973L186.228 150.861V153.762H188.124V155.275H186.228V158.381C186.228 158.808 186.308 159.111 186.459 159.289C186.619 159.467 186.851 159.556 187.162 159.556C187.403 159.556 187.625 159.503 187.848 159.387L188.258 160.811C187.884 160.98 187.501 161.069 187.091 161.069C186.263 161.06 185.622 160.838 185.159 160.393Z" fill="#FA8617"/>
<path d="M190.431 160.393C189.968 159.948 189.736 159.289 189.736 158.417V155.284H188.623V153.771H189.736V151.973L191.499 150.861V153.762H193.396V155.275H191.499V158.381C191.499 158.808 191.579 159.111 191.731 159.289C191.891 159.467 192.122 159.556 192.434 159.556C192.674 159.556 192.897 159.503 193.12 159.387L193.529 160.811C193.155 160.98 192.772 161.069 192.363 161.069C191.535 161.06 190.894 160.838 190.431 160.393Z" fill="#FA8617"/>
<path d="M194.643 153.771H196.406V154.937C196.664 154.527 196.975 154.216 197.349 153.993C197.723 153.771 198.115 153.655 198.534 153.655C198.801 153.655 199.086 153.7 199.406 153.798L199.077 155.435C198.854 155.302 198.614 155.239 198.338 155.239C197.777 155.239 197.314 155.498 196.958 156.005C196.593 156.512 196.414 157.313 196.414 158.408V160.953H194.651V153.771H194.643Z" fill="#FA8617"/>
<path d="M200.652 152.516C200.429 152.294 200.322 152.027 200.322 151.706C200.322 151.386 200.429 151.11 200.652 150.896C200.874 150.674 201.141 150.567 201.462 150.567C201.783 150.567 202.059 150.674 202.272 150.896C202.495 151.119 202.602 151.386 202.602 151.706C202.602 152.027 202.495 152.302 202.272 152.516C202.05 152.739 201.783 152.845 201.462 152.845C201.141 152.845 200.874 152.73 200.652 152.516ZM200.58 153.771H202.343V160.944H200.58V153.771Z" fill="#FA8617"/>
<path d="M206.761 160.784C206.44 160.606 206.226 160.411 206.111 160.197V160.936H204.348V150.852H206.111V154.412C206.271 154.207 206.511 154.02 206.841 153.869C207.161 153.718 207.5 153.638 207.856 153.638C208.906 153.638 209.717 153.976 210.287 154.643C210.848 155.311 211.132 156.21 211.132 157.34C211.132 158.47 210.848 159.369 210.287 160.037C209.726 160.704 208.915 161.042 207.856 161.042C207.437 161.06 207.081 160.971 206.761 160.784ZM208.809 158.969C209.12 158.577 209.28 158.043 209.28 157.358C209.28 156.664 209.12 156.13 208.809 155.738C208.497 155.355 208.096 155.159 207.615 155.159C207.135 155.159 206.734 155.355 206.422 155.738C206.111 156.121 205.959 156.664 205.959 157.358C205.959 158.052 206.111 158.586 206.422 158.978C206.734 159.36 207.126 159.556 207.615 159.556C208.105 159.556 208.488 159.351 208.809 158.969Z" fill="#FA8617"/>
<path d="M213.322 160.499C212.922 160.126 212.717 159.592 212.717 158.888V153.762H214.48V158.363C214.48 158.773 214.569 159.066 214.756 159.262C214.943 159.449 215.192 159.547 215.504 159.547C215.798 159.547 216.065 159.431 216.314 159.209C216.563 158.986 216.759 158.648 216.911 158.203C217.062 157.758 217.142 157.242 217.142 156.628V153.762H218.905V160.935H217.142V159.778C216.866 160.17 216.537 160.473 216.163 160.704C215.78 160.935 215.37 161.042 214.925 161.042C214.266 161.06 213.732 160.873 213.322 160.499Z" fill="#FA8617"/>
<path d="M221.852 160.393C221.389 159.948 221.158 159.289 221.158 158.417V155.284H220.045V153.771H221.158V151.973L222.921 150.861V153.762H224.817V155.275H222.921V158.381C222.921 158.808 223.001 159.111 223.152 159.289C223.313 159.467 223.544 159.556 223.856 159.556C224.096 159.556 224.319 159.503 224.541 159.387L224.951 160.811C224.577 160.98 224.194 161.069 223.785 161.069C222.965 161.06 222.315 160.838 221.852 160.393Z" fill="#FA8617"/>
<path d="M226.946 160.508C226.43 160.143 226.047 159.681 225.806 159.111C225.566 158.55 225.441 157.963 225.441 157.349C225.441 156.735 225.566 156.156 225.806 155.587C226.047 155.017 226.43 154.554 226.946 154.189C227.463 153.824 228.113 153.637 228.887 153.637C229.635 153.637 230.267 153.815 230.766 154.171C231.274 154.527 231.639 154.972 231.879 155.515C232.119 156.058 232.235 156.61 232.235 157.18V157.909H227.293C227.311 158.346 227.472 158.728 227.774 159.049C228.077 159.369 228.478 159.529 228.994 159.529C229.395 159.529 229.724 159.44 230 159.262C230.267 159.084 230.517 158.8 230.73 158.426L232.155 158.951C231.861 159.627 231.452 160.143 230.926 160.499C230.401 160.864 229.724 161.042 228.896 161.042C228.113 161.06 227.463 160.873 226.946 160.508ZM230.428 156.53C230.339 156.129 230.169 155.8 229.92 155.551C229.671 155.293 229.324 155.168 228.887 155.168C228.469 155.168 228.121 155.302 227.845 155.569C227.569 155.836 227.4 156.156 227.329 156.539H230.428V156.53Z" fill="#FA8617"/>
<path d="M233.944 160.686C233.712 160.455 233.605 160.17 233.605 159.832C233.605 159.494 233.721 159.209 233.944 158.978C234.166 158.746 234.46 158.639 234.799 158.639C235.137 158.639 235.422 158.755 235.653 158.978C235.885 159.2 235.992 159.494 235.992 159.832C235.992 160.17 235.876 160.455 235.653 160.686C235.431 160.918 235.137 161.025 234.799 161.025C234.46 161.025 234.175 160.918 233.944 160.686Z" fill="#FA8617"/>
<path d="M30.9148 249.625H28.1367V247.916H35.5448V249.625H32.7668V257.884H30.9148V249.625Z" fill="#66C357"/>
<path d="M36.8809 247.8H38.6438V251.859C38.8843 251.476 39.1959 251.173 39.5877 250.942C39.9794 250.711 40.4246 250.595 40.9233 250.595C41.6178 250.595 42.1609 250.782 42.5616 251.147C42.9623 251.512 43.1582 252.055 43.1582 252.767V257.893H41.3952V253.39C41.3952 252.953 41.3061 252.633 41.1281 252.419C40.95 252.206 40.6829 252.108 40.3267 252.108C40.0418 252.108 39.7747 252.206 39.5164 252.411C39.2582 252.606 39.0534 252.918 38.8932 253.318C38.7329 253.728 38.6527 254.244 38.6527 254.858V257.893H36.8898V247.8H36.8809Z" fill="#66C357"/>
<path d="M46.2665 257.448C45.7501 257.083 45.3672 256.62 45.1268 256.051C44.8864 255.481 44.7617 254.903 44.7617 254.289C44.7617 253.683 44.8864 253.096 45.1268 252.526C45.3672 251.957 45.7501 251.494 46.2665 251.129C46.7829 250.764 47.4329 250.577 48.2076 250.577C48.9555 250.577 49.5877 250.755 50.0863 251.111C50.5849 251.467 50.9589 251.912 51.1993 252.455C51.4397 252.998 51.5554 253.55 51.5554 254.119V254.849H46.6137C46.6316 255.285 46.7918 255.668 47.0946 255.988C47.3973 256.309 47.798 256.469 48.3144 256.469C48.7151 256.469 49.0445 256.38 49.3206 256.202C49.5877 256.024 49.837 255.739 50.0507 255.365L51.4753 255.891C51.1815 256.567 50.7719 257.083 50.2466 257.439C49.7212 257.804 49.0445 257.982 48.2165 257.982C47.4329 257.991 46.7829 257.813 46.2665 257.448ZM49.7479 253.47C49.6589 253.069 49.4897 252.74 49.2404 252.491C48.9911 252.233 48.6439 252.108 48.2076 252.108C47.7891 252.108 47.4418 252.241 47.1658 252.508C46.8898 252.775 46.7206 253.096 46.6494 253.479H49.7479V253.47Z" fill="#66C357"/>
<path d="M53.1484 250.702H54.9114V251.868C55.1696 251.458 55.4813 251.147 55.8552 250.924C56.2292 250.702 56.621 250.586 57.0395 250.586C57.3066 250.586 57.5915 250.631 57.9121 250.729L57.5826 252.366C57.36 252.233 57.1196 252.17 56.8436 252.17C56.2826 252.17 55.8196 252.429 55.4635 252.936C55.1073 253.443 54.9203 254.244 54.9203 255.339V257.884H53.1573V250.702H53.1484Z" fill="#66C357"/>
<path d="M59.872 257.448C59.3555 257.083 58.9727 256.62 58.7323 256.051C58.4918 255.481 58.3672 254.903 58.3672 254.289C58.3672 253.683 58.4918 253.096 58.7323 252.526C58.9727 251.957 59.3555 251.494 59.872 251.129C60.3884 250.764 61.0384 250.577 61.813 250.577C62.561 250.577 63.1931 250.755 63.6918 251.111C64.1904 251.467 64.5644 251.912 64.8048 252.455C65.0452 252.998 65.1609 253.55 65.1609 254.119V254.849H60.2192C60.237 255.285 60.3973 255.668 60.7 255.988C61.0028 256.309 61.4034 256.469 61.9199 256.469C62.3206 256.469 62.65 256.38 62.926 256.202C63.1931 256.024 63.4425 255.739 63.6561 255.365L65.0808 255.891C64.787 256.567 64.3774 257.083 63.852 257.439C63.3267 257.804 62.65 257.982 61.8219 257.982C61.0384 257.991 60.3884 257.813 59.872 257.448ZM63.3534 253.47C63.2644 253.069 63.0952 252.74 62.8459 252.491C62.5966 252.233 62.2493 252.108 61.813 252.108C61.3945 252.108 61.0473 252.241 60.7713 252.508C60.4952 252.775 60.3261 253.096 60.2548 253.479H63.3534V253.47Z" fill="#66C357"/>
<path d="M70.5284 257.421C70.1189 257.039 69.9141 256.505 69.9141 255.811C69.9141 255.099 70.1812 254.529 70.7243 254.102C71.2675 253.675 71.9976 253.461 72.9147 253.461H74.1702V253.149C74.1702 252.802 74.0544 252.535 73.814 252.357C73.5736 252.179 73.2798 252.09 72.9147 252.09C72.3003 252.09 71.8818 252.366 71.677 252.918L70.1812 252.58C70.2969 251.983 70.5997 251.503 71.0983 251.138C71.5969 250.773 72.2024 250.586 72.9147 250.586C73.8763 250.586 74.6154 250.844 75.1407 251.352C75.666 251.859 75.9332 252.607 75.9332 253.594V257.884H74.4818L74.2948 256.976C73.7339 257.662 72.9948 258 72.0866 258C71.4634 257.991 70.938 257.804 70.5284 257.421ZM73.6983 256.078C74.0188 255.811 74.1791 255.446 74.1791 255.001V254.858H72.9948C72.6031 254.858 72.3003 254.929 72.0866 255.09C71.8729 255.241 71.7661 255.472 71.7661 255.784C71.7661 255.989 71.8373 256.158 71.9887 256.291C72.1401 256.416 72.327 256.487 72.5674 256.487C72.9948 256.487 73.3688 256.353 73.6983 256.078Z" fill="#66C357"/>
<path d="M77.7422 250.702H79.5052V251.868C79.7634 251.458 80.075 251.147 80.449 250.924C80.823 250.702 81.2147 250.586 81.6332 250.586C81.9003 250.586 82.1853 250.631 82.5058 250.729L82.1764 252.366C81.9538 252.233 81.7134 252.17 81.4373 252.17C80.8764 252.17 80.4134 252.429 80.0572 252.936C79.7011 253.443 79.5141 254.244 79.5141 255.339V257.884H77.7511V250.702H77.7422Z" fill="#66C357"/>
<path d="M84.4559 257.448C83.9395 257.083 83.5566 256.62 83.3162 256.051C83.0758 255.481 82.9512 254.903 82.9512 254.289C82.9512 253.683 83.0758 253.096 83.3162 252.526C83.5566 251.957 83.9395 251.494 84.4559 251.129C84.9724 250.764 85.6224 250.577 86.397 250.577C87.1449 250.577 87.7771 250.755 88.2758 251.111C88.7744 251.467 89.1483 251.912 89.3887 252.455C89.6292 252.998 89.7449 253.55 89.7449 254.119V254.849H84.8032C84.821 255.285 84.9813 255.668 85.284 255.988C85.5868 256.309 85.9874 256.469 86.5039 256.469C86.9045 256.469 87.234 256.38 87.51 256.202C87.7771 256.024 88.0264 255.739 88.2401 255.365L89.6648 255.891C89.3709 256.567 88.9614 257.083 88.436 257.439C87.9107 257.804 87.234 257.982 86.4059 257.982C85.6224 257.991 84.9724 257.813 84.4559 257.448ZM87.9463 253.47C87.8573 253.069 87.6881 252.74 87.4388 252.491C87.1895 252.233 86.8422 252.108 86.4059 252.108C85.9874 252.108 85.6402 252.241 85.3641 252.508C85.0881 252.775 84.9189 253.096 84.8477 253.479H87.9463V253.47Z" fill="#66C357"/>
<path d="M94.8809 250.702H96.6438V251.859C96.9199 251.467 97.2493 251.165 97.6233 250.933C98.0062 250.702 98.4157 250.595 98.8609 250.595C99.5287 250.595 100.063 250.782 100.464 251.147C100.864 251.521 101.069 252.055 101.069 252.758V257.884H99.3061V253.283C99.3061 252.873 99.2171 252.58 99.0301 252.384C98.8431 252.197 98.5938 252.099 98.2822 252.099C97.9883 252.099 97.7212 252.215 97.4719 252.437C97.2226 252.669 97.0267 252.998 96.8753 253.443C96.724 253.888 96.6438 254.404 96.6438 255.018V257.884H94.8809V250.702Z" fill="#66C357"/>
<path d="M104.365 257.51C103.813 257.19 103.394 256.745 103.1 256.184C102.807 255.624 102.664 254.992 102.664 254.289C102.664 253.586 102.807 252.954 103.1 252.393C103.394 251.832 103.813 251.396 104.365 251.067C104.917 250.746 105.567 250.586 106.315 250.586C107.063 250.586 107.713 250.746 108.265 251.067C108.817 251.387 109.235 251.832 109.529 252.393C109.823 252.954 109.965 253.586 109.965 254.289C109.965 254.992 109.823 255.624 109.529 256.184C109.235 256.745 108.817 257.181 108.265 257.51C107.713 257.831 107.063 257.991 106.315 257.991C105.567 257.991 104.917 257.831 104.365 257.51ZM107.632 255.855C107.953 255.437 108.113 254.912 108.113 254.298C108.113 253.683 107.953 253.158 107.632 252.74C107.312 252.322 106.876 252.108 106.324 252.108C105.772 252.108 105.335 252.322 105.015 252.74C104.694 253.167 104.534 253.683 104.534 254.298C104.534 254.912 104.694 255.437 105.015 255.855C105.335 256.273 105.772 256.487 106.324 256.487C106.876 256.487 107.303 256.273 107.632 255.855Z" fill="#66C357"/>
<path d="M115.513 256.994C114.969 256.327 114.693 255.428 114.693 254.298C114.693 253.167 114.969 252.268 115.513 251.601C116.056 250.933 116.83 250.595 117.828 250.595C118.237 250.595 118.611 250.666 118.949 250.818C119.288 250.969 119.537 251.147 119.715 251.369V247.809H121.478V257.893H119.715V257.154C119.599 257.377 119.377 257.573 119.038 257.742C118.7 257.92 118.299 258.009 117.836 258.009C116.83 257.991 116.065 257.662 115.513 256.994ZM119.404 255.908C119.715 255.526 119.867 254.983 119.867 254.289C119.867 253.594 119.715 253.06 119.404 252.669C119.092 252.277 118.7 252.09 118.21 252.09C117.721 252.09 117.329 252.286 117.017 252.669C116.706 253.051 116.545 253.594 116.545 254.289C116.545 254.974 116.706 255.508 117.017 255.9C117.329 256.291 117.73 256.487 118.21 256.487C118.691 256.487 119.092 256.291 119.404 255.908Z" fill="#66C357"/>
<path d="M124.078 257.439C123.677 257.065 123.473 256.531 123.473 255.828V250.702H125.236V255.303C125.236 255.713 125.325 256.006 125.512 256.202C125.699 256.389 125.948 256.487 126.26 256.487C126.553 256.487 126.821 256.371 127.07 256.149C127.319 255.917 127.515 255.588 127.666 255.143C127.818 254.698 127.898 254.182 127.898 253.568V250.702H129.661V257.875H127.898V256.718C127.622 257.11 127.292 257.413 126.918 257.644C126.536 257.875 126.126 257.982 125.681 257.982C125.013 257.991 124.479 257.813 124.078 257.439Z" fill="#66C357"/>
<path d="M131.663 250.702H133.426V251.441C133.542 251.236 133.756 251.04 134.076 250.853C134.397 250.675 134.762 250.586 135.162 250.586C136.213 250.586 137.023 250.924 137.593 251.592C138.154 252.259 138.439 253.158 138.439 254.289C138.439 255.419 138.154 256.318 137.593 256.985C137.032 257.653 136.222 257.991 135.162 257.991C134.806 257.991 134.477 257.92 134.147 257.76C133.827 257.608 133.586 257.43 133.417 257.217V260.777H131.654V250.702H131.663ZM136.124 255.9C136.436 255.508 136.596 254.974 136.596 254.289C136.596 253.594 136.436 253.06 136.124 252.669C135.812 252.277 135.412 252.09 134.931 252.09C134.45 252.09 134.049 252.286 133.738 252.669C133.426 253.052 133.275 253.594 133.275 254.289C133.275 254.983 133.426 255.517 133.738 255.908C134.049 256.291 134.441 256.487 134.931 256.487C135.421 256.487 135.804 256.291 136.124 255.9Z" fill="#66C357"/>
<path d="M140.043 247.8H141.806V257.884H140.043V247.8Z" fill="#66C357"/>
<path d="M143.87 249.447C143.648 249.224 143.541 248.957 143.541 248.637C143.541 248.317 143.648 248.041 143.87 247.827C144.093 247.605 144.36 247.498 144.681 247.498C145.001 247.498 145.277 247.605 145.491 247.827C145.714 248.05 145.82 248.317 145.82 248.637C145.82 248.957 145.714 249.233 145.491 249.447C145.268 249.669 145.001 249.776 144.681 249.776C144.36 249.776 144.093 249.669 143.87 249.447ZM143.799 250.702H145.562V257.875H143.799V250.702Z" fill="#66C357"/>
<path d="M148.725 257.502C148.199 257.172 147.799 256.727 147.532 256.167C147.264 255.606 147.131 254.983 147.131 254.289C147.131 253.594 147.264 252.971 147.532 252.411C147.799 251.85 148.19 251.405 148.725 251.076C149.25 250.746 149.891 250.586 150.639 250.586C151.44 250.586 152.117 250.755 152.669 251.102C153.221 251.45 153.631 251.957 153.898 252.633L152.313 253.274C152.126 252.882 151.894 252.589 151.618 252.393C151.351 252.197 151.022 252.09 150.63 252.09C150.087 252.09 149.677 252.295 149.401 252.696C149.125 253.096 148.983 253.63 148.983 254.28C148.983 254.938 149.125 255.463 149.401 255.864C149.677 256.264 150.096 256.469 150.63 256.469C151.022 256.469 151.351 256.371 151.618 256.167C151.886 255.971 152.117 255.677 152.313 255.285L153.898 255.926C153.631 256.603 153.221 257.11 152.669 257.457C152.117 257.804 151.44 257.973 150.639 257.973C149.891 257.991 149.25 257.831 148.725 257.502Z" fill="#66C357"/>
<path d="M155.509 257.421C155.099 257.039 154.895 256.505 154.895 255.811C154.895 255.099 155.162 254.529 155.705 254.102C156.248 253.675 156.978 253.461 157.895 253.461H159.151V253.149C159.151 252.802 159.035 252.535 158.794 252.357C158.554 252.179 158.26 252.09 157.895 252.09C157.281 252.09 156.862 252.366 156.658 252.918L155.162 252.58C155.277 251.983 155.58 251.503 156.079 251.138C156.577 250.773 157.183 250.586 157.895 250.586C158.857 250.586 159.596 250.844 160.121 251.352C160.647 251.859 160.914 252.607 160.914 253.594V257.884H159.462L159.275 256.976C158.714 257.662 157.975 258 157.067 258C156.444 257.991 155.918 257.804 155.509 257.421ZM158.67 256.078C158.99 255.811 159.151 255.446 159.151 255.001V254.858H157.966C157.575 254.858 157.272 254.929 157.058 255.09C156.845 255.241 156.738 255.472 156.738 255.784C156.738 255.989 156.809 256.158 156.96 256.291C157.112 256.416 157.299 256.487 157.539 256.487C157.975 256.487 158.349 256.353 158.67 256.078Z" fill="#66C357"/>
<path d="M163.718 257.324C163.255 256.878 163.023 256.22 163.023 255.348V252.215H161.91V250.702H163.023V248.904L164.786 247.792V250.693H166.683V252.206H164.786V255.312C164.786 255.739 164.866 256.042 165.018 256.22C165.178 256.398 165.409 256.487 165.721 256.487C165.961 256.487 166.184 256.433 166.407 256.318L166.816 257.742C166.442 257.911 166.059 258 165.65 258C164.831 257.991 164.181 257.769 163.718 257.324Z" fill="#66C357"/>
<path d="M168.811 257.448C168.295 257.083 167.912 256.62 167.672 256.051C167.431 255.481 167.307 254.903 167.307 254.289C167.307 253.683 167.431 253.096 167.672 252.526C167.912 251.957 168.295 251.494 168.811 251.129C169.328 250.764 169.978 250.577 170.752 250.577C171.5 250.577 172.133 250.755 172.631 251.111C173.13 251.467 173.504 251.912 173.744 252.455C173.985 252.998 174.1 253.55 174.1 254.119V254.849H169.159C169.176 255.285 169.337 255.668 169.639 255.988C169.942 256.309 170.343 256.469 170.859 256.469C171.26 256.469 171.589 256.38 171.865 256.202C172.133 256.024 172.382 255.739 172.596 255.365L174.02 255.891C173.726 256.567 173.317 257.083 172.791 257.439C172.266 257.804 171.589 257.982 170.761 257.982C169.978 257.991 169.328 257.813 168.811 257.448ZM172.293 253.47C172.204 253.069 172.035 252.74 171.785 252.491C171.536 252.233 171.189 252.108 170.752 252.108C170.334 252.108 169.987 252.241 169.711 252.508C169.435 252.775 169.266 253.096 169.194 253.479H172.293V253.47Z" fill="#66C357"/>
<path d="M29.7313 272.276C29.2683 271.831 29.0368 271.172 29.0368 270.3V267.167H27.9238V265.654H29.0368V263.856L30.7998 262.744V265.645H32.6964V267.158H30.7998V270.264C30.7998 270.691 30.8799 270.994 31.0313 271.172C31.1916 271.35 31.4231 271.439 31.7347 271.439C31.9751 271.439 32.1977 271.386 32.4203 271.27L32.8299 272.694C32.456 272.863 32.0731 272.952 31.6635 272.952C30.8443 272.943 30.1943 272.721 29.7313 272.276Z" fill="#66C357"/>
<path d="M34.8251 272.4C34.3087 272.035 33.9258 271.572 33.6854 271.003C33.445 270.433 33.3203 269.855 33.3203 269.241C33.3203 268.635 33.445 268.048 33.6854 267.478C33.9258 266.909 34.3087 266.446 34.8251 266.081C35.3415 265.716 35.9915 265.529 36.7661 265.529C37.5141 265.529 38.1463 265.707 38.6449 266.063C39.1524 266.419 39.5175 266.864 39.7579 267.407C39.9983 267.95 40.114 268.502 40.114 269.072V269.801H35.1723C35.1901 270.237 35.3504 270.62 35.6532 270.941C35.9559 271.261 36.3566 271.421 36.873 271.421C37.2737 271.421 37.6031 271.332 37.8791 271.154C38.1463 270.976 38.3956 270.691 38.6093 270.318L40.0339 270.843C39.7401 271.519 39.3305 272.035 38.8052 272.391C38.2798 272.756 37.6031 272.934 36.7751 272.934C35.9915 272.943 35.3415 272.765 34.8251 272.4ZM38.3065 268.422C38.2175 268.021 38.0483 267.692 37.799 267.443C37.5497 267.185 37.2024 267.06 36.7661 267.06C36.3477 267.06 36.0004 267.194 35.7244 267.461C35.4484 267.728 35.2792 268.048 35.208 268.431H38.3065V268.422Z" fill="#66C357"/>
<path d="M42.855 269L40.7715 265.654H42.6235L43.7899 267.523L44.9564 265.654H46.8084L44.7248 269L47.1022 272.828H45.2591L43.7899 270.496L42.3208 272.828H40.4688L42.855 269Z" fill="#66C357"/>
<path d="M49.1513 272.276C48.6883 271.831 48.4567 271.172 48.4567 270.3V267.167H47.3438V265.654H48.4567V263.856L50.2197 262.744V265.645H52.1163V267.158H50.2197V270.264C50.2197 270.691 50.2999 270.994 50.4512 271.172C50.6115 271.35 50.843 271.439 51.1547 271.439C51.3951 271.439 51.6177 271.386 51.8403 271.27L52.2498 272.694C51.8759 272.863 51.493 272.952 51.0834 272.952C50.2643 272.943 49.6143 272.721 49.1513 272.276Z" fill="#66C357"/>
<path d="M59.4266 272.676C59.1061 272.498 58.8924 272.302 58.7767 272.089V272.827H57.0137V262.744H58.7767V266.304C58.9369 266.099 59.1773 265.912 59.5068 265.761C59.8362 265.609 60.1657 265.529 60.5218 265.529C61.5725 265.529 62.3828 265.868 62.9526 266.535C63.5136 267.203 63.7985 268.102 63.7985 269.232C63.7985 270.362 63.5136 271.261 62.9526 271.929C62.3917 272.596 61.5814 272.934 60.5218 272.934C60.1123 272.943 59.7472 272.854 59.4266 272.676ZM61.4746 270.852C61.7862 270.46 61.9465 269.926 61.9465 269.241C61.9465 268.547 61.7862 268.013 61.4746 267.621C61.1629 267.229 60.7622 267.042 60.2814 267.042C59.8006 267.042 59.3999 267.238 59.0883 267.621C58.7767 268.004 58.6253 268.547 58.6253 269.241C58.6253 269.935 58.7767 270.469 59.0883 270.861C59.3999 271.243 59.7917 271.439 60.2814 271.439C60.7712 271.439 61.1629 271.243 61.4746 270.852Z" fill="#66C357"/>
<path d="M65.3926 262.753H67.1556V272.836H65.3926V262.753Z" fill="#66C357"/>
<path d="M70.4487 272.463C69.8967 272.142 69.4782 271.697 69.1843 271.137C68.8905 270.576 68.748 269.944 68.748 269.241C68.748 268.538 68.8905 267.906 69.1843 267.345C69.4782 266.784 69.8967 266.348 70.4487 266.019C71.0007 265.699 71.6507 265.538 72.3987 265.538C73.1466 265.538 73.7966 265.699 74.3486 266.019C74.9007 266.339 75.3192 266.784 75.613 267.345C75.9068 267.906 76.0493 268.538 76.0493 269.241C76.0493 269.944 75.9068 270.576 75.613 271.137C75.3192 271.697 74.9007 272.133 74.3486 272.463C73.7966 272.783 73.1466 272.943 72.3987 272.943C71.6507 272.943 71.0007 272.783 70.4487 272.463ZM73.7076 270.807C74.0281 270.389 74.1884 269.864 74.1884 269.25C74.1884 268.636 74.0281 268.11 73.7076 267.692C73.387 267.274 72.9507 267.06 72.3987 267.06C71.8466 267.06 71.4103 267.274 71.0898 267.692C70.7692 268.119 70.609 268.636 70.609 269.25C70.609 269.864 70.7692 270.389 71.0898 270.807C71.4103 271.226 71.8466 271.439 72.3987 271.439C72.9507 271.439 73.387 271.226 73.7076 270.807Z" fill="#66C357"/>
<path d="M78.8282 272.454C78.3029 272.124 77.9022 271.679 77.6351 271.119C77.3679 270.558 77.2344 269.935 77.2344 269.241C77.2344 268.547 77.3679 267.924 77.6351 267.363C77.9022 266.802 78.2939 266.357 78.8282 266.028C79.3535 265.699 79.9946 265.538 80.7425 265.538C81.5439 265.538 82.2206 265.707 82.7726 266.055C83.3247 266.402 83.7343 266.909 84.0014 267.585L82.4165 268.226C82.2295 267.835 81.998 267.541 81.722 267.345C81.4549 267.149 81.1254 267.042 80.7336 267.042C80.1905 267.042 79.7809 267.247 79.5049 267.648C79.2289 268.048 79.0864 268.582 79.0864 269.232C79.0864 269.891 79.2289 270.416 79.5049 270.816C79.7809 271.217 80.1994 271.421 80.7336 271.421C81.1254 271.421 81.4549 271.323 81.722 271.119C81.9891 270.923 82.2206 270.629 82.4165 270.238L84.0014 270.878C83.7343 271.555 83.3247 272.062 82.7726 272.409C82.2206 272.756 81.5439 272.925 80.7425 272.925C79.9946 272.943 79.3624 272.783 78.8282 272.454Z" fill="#66C357"/>
<path d="M85.4355 262.753H87.1985V268.475L89.5314 265.654H91.7128L88.8369 268.956L91.8998 272.828H89.7362L87.1985 269.437V272.828H85.4355V262.753Z" fill="#66C357"/>
<path d="M93.1817 272.373C92.6831 271.991 92.3536 271.537 92.1934 271.003L93.6002 270.246C93.7337 270.62 93.9207 270.905 94.1611 271.119C94.4015 271.332 94.6865 271.43 95.0248 271.43C95.283 271.43 95.4967 271.377 95.6659 271.27C95.8351 271.163 95.9241 270.985 95.9241 270.736C95.9241 270.513 95.8262 270.335 95.6214 270.202C95.4166 270.068 95.105 269.917 94.6776 269.766C94.6152 269.748 94.5084 269.712 94.3748 269.65C93.8228 269.428 93.3954 269.161 93.0927 268.822C92.7899 268.493 92.6386 268.066 92.6386 267.541C92.6386 267.167 92.7365 266.838 92.9413 266.526C93.1372 266.224 93.4132 265.983 93.7605 265.796C94.1077 265.618 94.4995 265.529 94.9358 265.529C95.4166 265.529 95.8618 265.627 96.2625 265.832C96.6632 266.037 96.9659 266.321 97.1885 266.695L96.1378 267.665C95.8529 267.247 95.47 267.042 94.9803 267.042C94.7933 267.042 94.6241 267.096 94.4906 267.194C94.357 267.292 94.2858 267.425 94.2858 267.585C94.2858 267.754 94.3837 267.915 94.5885 268.066C94.7844 268.217 95.1762 268.395 95.7549 268.6C96.307 268.796 96.7344 269.063 97.0282 269.383C97.331 269.703 97.4734 270.122 97.4734 270.62C97.4734 271.323 97.2508 271.884 96.8056 272.311C96.3604 272.738 95.7728 272.943 95.0515 272.943C94.2947 272.943 93.6803 272.756 93.1817 272.373Z" fill="#66C357"/>
<path d="M103.884 272.463C103.332 272.142 102.914 271.697 102.62 271.137C102.326 270.576 102.184 269.944 102.184 269.241C102.184 268.538 102.326 267.906 102.62 267.345C102.914 266.784 103.332 266.348 103.884 266.019C104.436 265.699 105.086 265.538 105.834 265.538C106.582 265.538 107.232 265.699 107.784 266.019C108.336 266.339 108.755 266.784 109.049 267.345C109.342 267.906 109.485 268.538 109.485 269.241C109.485 269.944 109.342 270.576 109.049 271.137C108.755 271.697 108.336 272.133 107.784 272.463C107.232 272.783 106.582 272.943 105.834 272.943C105.086 272.943 104.436 272.783 103.884 272.463ZM107.143 270.807C107.464 270.389 107.624 269.864 107.624 269.25C107.624 268.636 107.464 268.11 107.143 267.692C106.823 267.274 106.386 267.06 105.834 267.06C105.282 267.06 104.846 267.274 104.525 267.692C104.205 268.119 104.045 268.636 104.045 269.25C104.045 269.864 104.205 270.389 104.525 270.807C104.846 271.226 105.282 271.439 105.834 271.439C106.386 271.439 106.823 271.226 107.143 270.807Z" fill="#66C357"/>
<path d="M111.078 265.654H112.841V266.811C113.117 266.419 113.447 266.117 113.821 265.885C114.203 265.654 114.613 265.547 115.058 265.547C115.726 265.547 116.26 265.734 116.661 266.099C117.062 266.473 117.266 267.007 117.266 267.71V272.836H115.503V268.235C115.503 267.826 115.414 267.532 115.227 267.336C115.04 267.149 114.791 267.051 114.479 267.051C114.186 267.051 113.918 267.167 113.669 267.389C113.42 267.621 113.224 267.95 113.073 268.395C112.921 268.84 112.841 269.356 112.841 269.97V272.836H111.078V265.654Z" fill="#66C357"/>
<path d="M123.739 272.276C123.276 271.831 123.045 271.172 123.045 270.3V267.167H121.932V265.654H123.045V263.856L124.808 262.744V265.645H126.704V267.158H124.808V270.264C124.808 270.691 124.888 270.994 125.039 271.172C125.199 271.35 125.431 271.439 125.743 271.439C125.983 271.439 126.206 271.386 126.428 271.27L126.838 272.694C126.464 272.863 126.081 272.952 125.671 272.952C124.852 272.943 124.211 272.721 123.739 272.276Z" fill="#66C357"/>
<path d="M127.916 262.753H129.679V266.811C129.919 266.428 130.231 266.126 130.623 265.894C131.015 265.663 131.46 265.547 131.958 265.547C132.653 265.547 133.196 265.734 133.597 266.099C133.997 266.464 134.193 267.007 134.193 267.719V272.845H132.43V268.333C132.43 267.897 132.341 267.577 132.163 267.363C131.985 267.149 131.718 267.051 131.362 267.051C131.077 267.051 130.81 267.149 130.552 267.354C130.293 267.55 130.089 267.861 129.928 268.262C129.768 268.671 129.688 269.187 129.688 269.802V272.836H127.925V262.753H127.916Z" fill="#66C357"/>
<path d="M137.3 272.4C136.783 272.035 136.4 271.572 136.16 271.003C135.92 270.433 135.795 269.855 135.795 269.241C135.795 268.635 135.92 268.048 136.16 267.478C136.4 266.909 136.783 266.446 137.3 266.081C137.816 265.716 138.466 265.529 139.241 265.529C139.989 265.529 140.621 265.707 141.119 266.063C141.618 266.419 141.992 266.864 142.232 267.407C142.473 267.95 142.589 268.502 142.589 269.072V269.801H137.647C137.665 270.237 137.825 270.62 138.128 270.941C138.43 271.261 138.831 271.421 139.348 271.421C139.748 271.421 140.078 271.332 140.354 271.154C140.621 270.976 140.87 270.691 141.084 270.318L142.509 270.843C142.215 271.519 141.805 272.035 141.28 272.391C140.754 272.756 140.078 272.934 139.25 272.934C138.466 272.943 137.816 272.765 137.3 272.4ZM140.781 268.422C140.692 268.021 140.523 267.692 140.274 267.443C140.024 267.185 139.677 267.06 139.241 267.06C138.822 267.06 138.475 267.194 138.199 267.461C137.923 267.728 137.754 268.048 137.683 268.431H140.781V268.422Z" fill="#66C357"/>
<path d="M148.199 272.373C147.701 271.991 147.371 271.537 147.211 271.003L148.618 270.246C148.751 270.62 148.938 270.905 149.179 271.119C149.419 271.332 149.704 271.43 150.042 271.43C150.301 271.43 150.514 271.377 150.683 271.27C150.853 271.163 150.942 270.985 150.942 270.736C150.942 270.513 150.844 270.335 150.639 270.202C150.434 270.068 150.123 269.917 149.695 269.766C149.633 269.748 149.526 269.712 149.392 269.65C148.84 269.428 148.413 269.161 148.11 268.822C147.807 268.493 147.656 268.066 147.656 267.541C147.656 267.167 147.754 266.838 147.959 266.526C148.155 266.224 148.431 265.983 148.778 265.796C149.125 265.618 149.517 265.529 149.953 265.529C150.434 265.529 150.879 265.627 151.28 265.832C151.681 266.037 151.983 266.321 152.206 266.695L151.155 267.665C150.87 267.247 150.488 267.042 149.998 267.042C149.811 267.042 149.642 267.096 149.508 267.194C149.375 267.292 149.303 267.425 149.303 267.585C149.303 267.754 149.401 267.915 149.606 268.066C149.802 268.217 150.194 268.395 150.773 268.6C151.325 268.796 151.752 269.063 152.046 269.383C152.349 269.703 152.491 270.122 152.491 270.62C152.491 271.323 152.268 271.884 151.823 272.311C151.378 272.738 150.79 272.943 150.069 272.943C149.312 272.943 148.698 272.756 148.199 272.373Z" fill="#66C357"/>
<path d="M154.146 264.399C153.923 264.177 153.816 263.91 153.816 263.589C153.816 263.269 153.923 262.993 154.146 262.779C154.368 262.557 154.636 262.45 154.956 262.45C155.277 262.45 155.553 262.557 155.766 262.779C155.989 263.002 156.096 263.269 156.096 263.589C156.096 263.91 155.989 264.185 155.766 264.399C155.544 264.622 155.277 264.728 154.956 264.728C154.636 264.728 154.36 264.622 154.146 264.399ZM154.075 265.654H155.838V272.827H154.075V265.654Z" fill="#66C357"/>
<path d="M158.776 272.276C158.313 271.831 158.082 271.172 158.082 270.3V267.167H156.969V265.654H158.082V263.856L159.845 262.744V265.645H161.741V267.158H159.845V270.264C159.845 270.691 159.925 270.994 160.076 271.172C160.237 271.35 160.468 271.439 160.78 271.439C161.02 271.439 161.243 271.386 161.465 271.27L161.875 272.694C161.501 272.863 161.118 272.952 160.708 272.952C159.88 272.943 159.239 272.721 158.776 272.276Z" fill="#66C357"/>
<path d="M163.87 272.4C163.354 272.035 162.971 271.572 162.73 271.003C162.49 270.433 162.365 269.855 162.365 269.241C162.365 268.635 162.49 268.048 162.73 267.478C162.971 266.909 163.354 266.446 163.87 266.081C164.386 265.716 165.036 265.529 165.811 265.529C166.559 265.529 167.191 265.707 167.69 266.063C168.188 266.419 168.562 266.864 168.803 267.407C169.043 267.95 169.159 268.502 169.159 269.072V269.801H164.217C164.235 270.237 164.395 270.62 164.698 270.941C165.001 271.261 165.401 271.421 165.918 271.421C166.319 271.421 166.648 271.332 166.924 271.154C167.191 270.976 167.441 270.691 167.654 270.318L169.079 270.843C168.785 271.519 168.375 272.035 167.85 272.391C167.325 272.756 166.648 272.934 165.82 272.934C165.036 272.943 164.386 272.765 163.87 272.4ZM167.351 268.422C167.262 268.021 167.093 267.692 166.844 267.443C166.595 267.185 166.247 267.06 165.811 267.06C165.393 267.06 165.045 267.194 164.769 267.461C164.493 267.728 164.324 268.048 164.253 268.431H167.351V268.422Z" fill="#66C357"/>
<path d="M170.868 272.578C170.636 272.347 170.529 272.062 170.529 271.724C170.529 271.386 170.645 271.101 170.868 270.869C171.09 270.638 171.384 270.531 171.722 270.531C172.061 270.531 172.346 270.647 172.577 270.869C172.809 271.092 172.916 271.386 172.916 271.724C172.916 272.062 172.8 272.347 172.577 272.578C172.355 272.81 172.061 272.916 171.722 272.916C171.384 272.916 171.099 272.801 170.868 272.578Z" fill="#66C357"/>
<path d="M157.93 380.483H155.152V378.774H162.56V380.483H159.782V388.743H157.93V380.483Z" fill="#EA4D6A"/>
<path d="M163.896 378.668H165.659V382.726C165.9 382.343 166.212 382.041 166.603 381.809C166.995 381.578 167.44 381.462 167.939 381.462C168.633 381.462 169.177 381.649 169.577 382.014C169.978 382.379 170.174 382.922 170.174 383.634V388.76H168.411V384.257C168.411 383.821 168.322 383.5 168.144 383.287C167.966 383.073 167.698 382.975 167.342 382.975C167.057 382.975 166.79 383.073 166.532 383.278C166.274 383.474 166.069 383.785 165.909 384.186C165.749 384.595 165.668 385.102 165.668 385.725V388.76H163.905V378.668H163.896Z" fill="#EA4D6A"/>
<path d="M173.28 388.315C172.764 387.95 172.381 387.488 172.14 386.918C171.9 386.357 171.775 385.77 171.775 385.156C171.775 384.542 171.9 383.963 172.14 383.394C172.381 382.833 172.764 382.361 173.28 381.996C173.797 381.631 174.447 381.444 175.221 381.444C175.969 381.444 176.601 381.622 177.1 381.978C177.607 382.334 177.973 382.779 178.213 383.322C178.453 383.865 178.569 384.417 178.569 384.987V385.717H173.627C173.645 386.153 173.805 386.535 174.108 386.856C174.411 387.176 174.812 387.336 175.328 387.336C175.729 387.336 176.058 387.247 176.334 387.069C176.601 386.891 176.851 386.607 177.064 386.233L178.489 386.758C178.195 387.434 177.786 387.95 177.26 388.306C176.735 388.671 176.058 388.849 175.23 388.849C174.447 388.858 173.797 388.68 173.28 388.315ZM176.762 384.328C176.673 383.928 176.503 383.598 176.254 383.349C176.005 383.091 175.658 382.966 175.221 382.966C174.803 382.966 174.455 383.1 174.179 383.367C173.903 383.634 173.734 383.954 173.663 384.337H176.762V384.328Z" fill="#EA4D6A"/>
<path d="M180.164 381.569H181.927V382.735C182.185 382.326 182.497 382.014 182.871 381.792C183.245 381.569 183.637 381.453 184.055 381.453C184.322 381.453 184.607 381.498 184.928 381.596L184.598 383.233C184.376 383.1 184.135 383.038 183.859 383.038C183.298 383.038 182.835 383.296 182.479 383.803C182.114 384.31 181.936 385.111 181.936 386.206V388.751H180.173V381.569H180.164Z" fill="#EA4D6A"/>
<path d="M186.886 388.315C186.369 387.95 185.986 387.488 185.746 386.918C185.506 386.357 185.381 385.77 185.381 385.156C185.381 384.542 185.506 383.963 185.746 383.394C185.986 382.833 186.369 382.361 186.886 381.996C187.402 381.631 188.052 381.444 188.827 381.444C189.575 381.444 190.207 381.622 190.705 381.978C191.213 382.334 191.578 382.779 191.818 383.322C192.059 383.865 192.175 384.417 192.175 384.987V385.717H187.233C187.251 386.153 187.411 386.535 187.714 386.856C188.016 387.176 188.417 387.336 188.934 387.336C189.334 387.336 189.664 387.247 189.94 387.069C190.207 386.891 190.456 386.607 190.67 386.233L192.094 386.758C191.801 387.434 191.391 387.95 190.866 388.306C190.34 388.671 189.664 388.849 188.836 388.849C188.052 388.858 187.402 388.68 186.886 388.315ZM190.367 384.328C190.278 383.928 190.109 383.598 189.86 383.349C189.61 383.091 189.263 382.966 188.827 382.966C188.408 382.966 188.061 383.1 187.785 383.367C187.509 383.634 187.34 383.954 187.268 384.337H190.367V384.328Z" fill="#EA4D6A"/>
<path d="M197.544 388.289C197.134 387.906 196.93 387.372 196.93 386.678C196.93 385.966 197.197 385.396 197.74 384.969C198.283 384.542 199.013 384.328 199.93 384.328H201.186V384.017C201.186 383.669 201.07 383.402 200.83 383.224C200.589 383.046 200.295 382.957 199.93 382.957C199.316 382.957 198.897 383.233 198.693 383.785L197.197 383.447C197.313 382.851 197.615 382.37 198.114 382.005C198.613 381.64 199.218 381.453 199.93 381.453C200.892 381.453 201.631 381.711 202.156 382.219C202.682 382.726 202.949 383.474 202.949 384.462V388.751H201.497L201.31 387.844C200.749 388.529 200.01 388.867 199.102 388.867C198.479 388.858 197.954 388.671 197.544 388.289ZM200.714 386.945C201.034 386.678 201.195 386.313 201.195 385.868V385.725H200.01C199.619 385.725 199.316 385.797 199.102 385.957C198.889 386.108 198.782 386.34 198.782 386.651C198.782 386.856 198.853 387.025 199.004 387.158C199.156 387.283 199.343 387.354 199.583 387.354C200.01 387.354 200.384 387.212 200.714 386.945Z" fill="#EA4D6A"/>
<path d="M204.756 381.569H206.519V382.735C206.777 382.326 207.089 382.014 207.463 381.792C207.837 381.569 208.228 381.453 208.647 381.453C208.914 381.453 209.199 381.498 209.519 381.596L209.19 383.233C208.967 383.1 208.727 383.038 208.451 383.038C207.89 383.038 207.427 383.296 207.071 383.803C206.706 384.31 206.528 385.111 206.528 386.206V388.751H204.765V381.569H204.756Z" fill="#EA4D6A"/>
<path d="M211.47 388.315C210.953 387.95 210.57 387.488 210.33 386.918C210.09 386.357 209.965 385.77 209.965 385.156C209.965 384.542 210.09 383.963 210.33 383.394C210.57 382.833 210.953 382.361 211.47 381.996C211.986 381.631 212.636 381.444 213.411 381.444C214.159 381.444 214.791 381.622 215.289 381.978C215.797 382.334 216.162 382.779 216.402 383.322C216.643 383.865 216.759 384.417 216.759 384.987V385.717H211.817C211.835 386.153 211.995 386.535 212.298 386.856C212.6 387.176 213.001 387.336 213.518 387.336C213.918 387.336 214.248 387.247 214.524 387.069C214.791 386.891 215.04 386.607 215.254 386.233L216.678 386.758C216.385 387.434 215.975 387.95 215.45 388.306C214.924 388.671 214.248 388.849 213.42 388.849C212.636 388.858 211.986 388.68 211.47 388.315ZM214.96 384.328C214.871 383.928 214.702 383.598 214.452 383.349C214.203 383.091 213.856 382.966 213.42 382.966C213.001 382.966 212.654 383.1 212.378 383.367C212.102 383.634 211.933 383.954 211.861 384.337H214.96V384.328Z" fill="#EA4D6A"/>
<path d="M223.187 388.378C222.635 388.057 222.216 387.612 221.923 387.052C221.629 386.491 221.486 385.859 221.486 385.156C221.486 384.453 221.629 383.821 221.923 383.26C222.216 382.699 222.635 382.263 223.187 381.934C223.739 381.614 224.389 381.453 225.137 381.453C225.885 381.453 226.535 381.614 227.087 381.934C227.639 382.254 228.057 382.699 228.351 383.26C228.645 383.821 228.788 384.453 228.788 385.156C228.788 385.859 228.645 386.491 228.351 387.052C228.057 387.612 227.639 388.057 227.087 388.378C226.535 388.698 225.885 388.858 225.137 388.858C224.389 388.858 223.739 388.698 223.187 388.378ZM226.455 386.713C226.775 386.295 226.936 385.77 226.936 385.156C226.936 384.542 226.775 384.017 226.455 383.598C226.134 383.18 225.698 382.966 225.146 382.966C224.594 382.966 224.158 383.18 223.837 383.598C223.516 384.017 223.356 384.542 223.356 385.156C223.356 385.77 223.516 386.295 223.837 386.713C224.158 387.132 224.594 387.345 225.146 387.345C225.689 387.354 226.125 387.141 226.455 386.713Z" fill="#EA4D6A"/>
<path d="M230.381 381.569H232.144V382.726C232.42 382.335 232.749 382.032 233.123 381.8C233.506 381.569 233.916 381.462 234.361 381.462C235.029 381.462 235.563 381.649 235.964 382.014C236.364 382.388 236.569 382.922 236.569 383.625V388.751H234.806V384.15C234.806 383.741 234.717 383.447 234.53 383.251C234.343 383.064 234.094 382.966 233.782 382.966C233.488 382.966 233.221 383.082 232.972 383.305C232.723 383.527 232.527 383.865 232.375 384.31C232.224 384.755 232.144 385.28 232.144 385.886V388.751H230.381V381.569Z" fill="#EA4D6A"/>
<path d="M238.572 378.668H240.335V388.751H238.572V378.668Z" fill="#EA4D6A"/>
<path d="M244.085 388.289L241.477 381.569H243.257L244.922 386.073L246.49 381.569H248.252L244.548 391.653H242.839L244.085 388.289Z" fill="#EA4D6A"/>
<path d="M254.503 381.284L252.598 382.423V380.483L255.518 378.774H256.302V388.743H254.503V381.284Z" fill="#EA4D6A"/>
<path d="M261.795 380.43H257.877V378.774H263.914V379.513L260.156 388.743H258.393L261.795 380.43Z" fill="#EA4D6A"/>
<path d="M266.425 388.529C265.962 388.306 265.579 387.986 265.294 387.577C265 387.167 264.831 386.687 264.777 386.144L266.469 385.832C266.647 386.758 267.146 387.212 267.965 387.212C268.446 387.212 268.82 387.06 269.069 386.758C269.318 386.455 269.443 386.019 269.443 385.449C269.443 384.889 269.309 384.462 269.033 384.168C268.766 383.874 268.375 383.723 267.876 383.723C267.555 383.723 267.244 383.803 266.932 383.963C266.629 384.123 266.353 384.346 266.104 384.622L264.982 384.39L265.534 378.783H270.663V380.439H267.003L266.772 382.521C267.19 382.272 267.662 382.148 268.179 382.148C269.185 382.148 269.942 382.441 270.458 383.038C270.974 383.634 271.224 384.435 271.224 385.449C271.224 386.117 271.09 386.704 270.814 387.221C270.538 387.737 270.164 388.137 269.666 388.431C269.176 388.725 268.597 388.867 267.938 388.867C267.404 388.858 266.888 388.751 266.425 388.529Z" fill="#EA4D6A"/>
<path d="M154.965 396.521H156.746L158.028 401.452L159.239 396.521H160.895L162.106 401.452L163.388 396.521H165.169L162.872 403.695H161.304L160.067 399.049L158.829 403.695H157.262L154.965 396.521Z" fill="#EA4D6A"/>
<path d="M167.519 403.33C166.967 403.009 166.548 402.564 166.255 402.004C165.961 401.443 165.818 400.811 165.818 400.108C165.818 399.405 165.961 398.773 166.255 398.212C166.548 397.652 166.967 397.215 167.519 396.886C168.071 396.566 168.721 396.406 169.469 396.406C170.217 396.406 170.867 396.566 171.419 396.886C171.971 397.207 172.389 397.652 172.683 398.212C172.977 398.773 173.12 399.405 173.12 400.108C173.12 400.811 172.977 401.443 172.683 402.004C172.389 402.564 171.971 403.009 171.419 403.33C170.867 403.65 170.217 403.81 169.469 403.81C168.721 403.81 168.062 403.65 167.519 403.33ZM170.778 401.665C171.098 401.247 171.259 400.722 171.259 400.108C171.259 399.494 171.098 398.969 170.778 398.55C170.457 398.132 170.021 397.919 169.469 397.919C168.917 397.919 168.481 398.132 168.16 398.55C167.84 398.969 167.679 399.494 167.679 400.108C167.679 400.722 167.84 401.247 168.16 401.665C168.481 402.084 168.917 402.297 169.469 402.297C170.021 402.297 170.457 402.093 170.778 401.665Z" fill="#EA4D6A"/>
<path d="M174.713 396.521H176.476V397.687C176.734 397.278 177.046 396.966 177.42 396.744C177.794 396.521 178.185 396.406 178.604 396.406C178.871 396.406 179.156 396.45 179.477 396.548L179.147 398.186C178.924 398.052 178.684 397.99 178.408 397.99C177.847 397.99 177.384 398.248 177.028 398.755C176.663 399.262 176.485 400.063 176.485 401.158V403.704H174.722V396.521H174.713Z" fill="#EA4D6A"/>
<path d="M180.741 402.805C180.198 402.137 179.922 401.238 179.922 400.108C179.922 398.978 180.198 398.079 180.741 397.411C181.284 396.744 182.059 396.405 183.056 396.405C183.466 396.405 183.84 396.477 184.178 396.628C184.516 396.779 184.766 396.957 184.944 397.18V393.62H186.707V403.704H184.944V402.965C184.828 403.187 184.605 403.383 184.267 403.552C183.929 403.721 183.528 403.819 183.065 403.819C182.059 403.81 181.293 403.481 180.741 402.805ZM184.632 401.728C184.944 401.345 185.095 400.802 185.095 400.108C185.095 399.414 184.944 398.88 184.632 398.488C184.32 398.105 183.929 397.91 183.439 397.91C182.949 397.91 182.557 398.105 182.246 398.488C181.934 398.871 181.774 399.414 181.774 400.108C181.774 400.793 181.934 401.327 182.246 401.719C182.557 402.11 182.958 402.306 183.439 402.306C183.92 402.306 184.32 402.11 184.632 401.728Z" fill="#EA4D6A"/>
<path d="M189.031 403.241C188.533 402.858 188.203 402.404 188.043 401.87L189.45 401.114C189.583 401.487 189.77 401.772 190.011 401.986C190.251 402.191 190.536 402.297 190.874 402.297C191.133 402.297 191.346 402.244 191.516 402.137C191.685 402.03 191.774 401.852 191.774 401.603C191.774 401.381 191.667 401.203 191.471 401.069C191.266 400.936 190.955 400.784 190.527 400.633C190.465 400.615 190.358 400.58 190.224 400.517C189.672 400.295 189.245 400.028 188.942 399.69C188.64 399.36 188.488 398.933 188.488 398.408C188.488 398.034 188.586 397.705 188.791 397.393C188.987 397.091 189.263 396.851 189.61 396.664C189.957 396.486 190.349 396.397 190.785 396.397C191.266 396.397 191.711 396.503 192.112 396.699C192.513 396.904 192.815 397.189 193.038 397.563L191.987 398.533C191.702 398.114 191.32 397.91 190.83 397.91C190.643 397.91 190.474 397.963 190.34 398.061C190.198 398.159 190.135 398.292 190.135 398.453C190.135 398.622 190.233 398.782 190.438 398.933C190.634 399.084 191.026 399.262 191.605 399.467C192.157 399.663 192.584 399.93 192.878 400.25C193.181 400.571 193.323 400.989 193.323 401.487C193.323 402.191 193.1 402.751 192.655 403.178C192.21 403.597 191.622 403.81 190.901 403.81C190.153 403.81 189.53 403.623 189.031 403.241Z" fill="#EA4D6A"/>
<path d="M199.744 403.33C199.192 403.009 198.773 402.564 198.479 402.004C198.185 401.443 198.043 400.811 198.043 400.108C198.043 399.405 198.185 398.773 198.479 398.212C198.773 397.652 199.192 397.215 199.744 396.886C200.296 396.566 200.946 396.406 201.694 396.406C202.442 396.406 203.092 396.566 203.644 396.886C204.196 397.207 204.614 397.652 204.908 398.212C205.202 398.773 205.344 399.405 205.344 400.108C205.344 400.811 205.202 401.443 204.908 402.004C204.614 402.564 204.196 403.009 203.644 403.33C203.092 403.65 202.442 403.81 201.694 403.81C200.946 403.81 200.296 403.65 199.744 403.33ZM203.002 401.665C203.323 401.247 203.483 400.722 203.483 400.108C203.483 399.494 203.323 398.969 203.002 398.55C202.682 398.132 202.246 397.919 201.694 397.919C201.142 397.919 200.705 398.132 200.385 398.55C200.064 398.969 199.904 399.494 199.904 400.108C199.904 400.722 200.064 401.247 200.385 401.665C200.705 402.084 201.142 402.297 201.694 402.297C202.246 402.297 202.682 402.093 203.002 401.665Z" fill="#EA4D6A"/>
<path d="M206.938 396.521H208.7V397.678C208.977 397.287 209.306 396.984 209.68 396.753C210.063 396.521 210.472 396.414 210.918 396.414C211.585 396.414 212.12 396.601 212.52 396.966C212.921 397.34 213.126 397.874 213.126 398.577V403.704H211.363V399.102C211.363 398.693 211.274 398.399 211.087 398.203C210.9 398.016 210.65 397.919 210.339 397.919C210.045 397.919 209.778 398.034 209.529 398.257C209.279 398.479 209.083 398.817 208.932 399.262C208.781 399.707 208.7 400.233 208.7 400.838V403.704H206.938V396.521Z" fill="#EA4D6A"/>
<path d="M219.599 403.143C219.136 402.698 218.904 402.039 218.904 401.167V398.034H217.791V396.521H218.904V394.723L220.667 393.611V396.512H222.564V398.025H220.667V401.131C220.667 401.559 220.747 401.861 220.899 402.039C221.059 402.217 221.29 402.306 221.602 402.306C221.842 402.306 222.065 402.253 222.288 402.137L222.697 403.561C222.323 403.73 221.94 403.819 221.531 403.819C220.712 403.81 220.07 403.588 219.599 403.143Z" fill="#EA4D6A"/>
<path d="M223.775 393.62H225.538V397.678C225.779 397.295 226.09 396.993 226.482 396.761C226.874 396.53 227.319 396.414 227.818 396.414C228.512 396.414 229.055 396.601 229.456 396.966C229.857 397.331 230.053 397.874 230.053 398.586V403.712H228.29V399.209C228.29 398.773 228.201 398.453 228.023 398.239C227.845 398.025 227.577 397.927 227.221 397.927C226.936 397.927 226.669 398.025 226.411 398.23C226.153 398.426 225.948 398.737 225.788 399.138C225.627 399.547 225.547 400.055 225.547 400.678V403.712H223.784V393.62H223.775Z" fill="#EA4D6A"/>
<path d="M233.159 403.259C232.643 402.894 232.26 402.431 232.019 401.861C231.779 401.301 231.654 400.713 231.654 400.099C231.654 399.485 231.779 398.906 232.019 398.337C232.26 397.776 232.643 397.304 233.159 396.939C233.676 396.575 234.325 396.388 235.1 396.388C235.848 396.388 236.48 396.566 236.979 396.922C237.486 397.278 237.851 397.723 238.092 398.266C238.332 398.809 238.448 399.36 238.448 399.93V400.66H233.506C233.524 401.096 233.684 401.479 233.987 401.799C234.29 402.119 234.691 402.28 235.207 402.28C235.608 402.28 235.937 402.191 236.213 402.013C236.48 401.835 236.73 401.55 236.943 401.176L238.368 401.701C238.074 402.377 237.664 402.894 237.139 403.25C236.614 403.615 235.937 403.793 235.109 403.793C234.325 403.81 233.676 403.632 233.159 403.259ZM236.641 399.28C236.551 398.88 236.382 398.55 236.133 398.301C235.884 398.043 235.536 397.919 235.1 397.919C234.682 397.919 234.334 398.052 234.058 398.319C233.782 398.586 233.613 398.906 233.542 399.289H236.641V399.28Z" fill="#EA4D6A"/>
<path d="M243.577 396.521H245.34V397.26C245.456 397.055 245.67 396.859 245.99 396.673C246.311 396.495 246.676 396.406 247.077 396.406C248.127 396.406 248.937 396.744 249.507 397.411C250.068 398.079 250.353 398.978 250.353 400.108C250.353 401.238 250.068 402.137 249.507 402.805C248.946 403.472 248.136 403.81 247.077 403.81C246.72 403.81 246.391 403.739 246.061 403.579C245.741 403.428 245.501 403.25 245.331 403.036V406.596H243.568V396.521H243.577ZM248.038 401.719C248.35 401.327 248.51 400.793 248.51 400.108C248.51 399.414 248.35 398.88 248.038 398.488C247.727 398.105 247.326 397.91 246.845 397.91C246.364 397.91 245.964 398.105 245.652 398.488C245.34 398.871 245.189 399.414 245.189 400.108C245.189 400.802 245.34 401.336 245.652 401.728C245.964 402.11 246.355 402.306 246.845 402.306C247.335 402.306 247.727 402.11 248.038 401.719Z" fill="#EA4D6A"/>
<path d="M252.107 403.241C251.697 402.858 251.492 402.324 251.492 401.63C251.492 400.918 251.759 400.348 252.302 399.921C252.846 399.494 253.576 399.28 254.493 399.28H255.748V398.969C255.748 398.622 255.633 398.355 255.392 398.177C255.152 397.999 254.858 397.91 254.493 397.91C253.878 397.91 253.46 398.186 253.255 398.737L251.759 398.399C251.875 397.803 252.178 397.322 252.676 396.957C253.175 396.592 253.781 396.406 254.493 396.406C255.454 396.406 256.193 396.664 256.719 397.171C257.244 397.678 257.511 398.426 257.511 399.414V403.704H256.06L255.873 402.796C255.312 403.481 254.573 403.819 253.665 403.819C253.041 403.81 252.516 403.623 252.107 403.241ZM255.276 401.897C255.597 401.63 255.757 401.265 255.757 400.82V400.678H254.573C254.181 400.678 253.878 400.749 253.665 400.909C253.451 401.06 253.344 401.292 253.344 401.603C253.344 401.808 253.415 401.977 253.567 402.11C253.718 402.235 253.905 402.306 254.146 402.306C254.573 402.297 254.947 402.164 255.276 401.897Z" fill="#EA4D6A"/>
<path d="M260.477 403.259C259.961 402.894 259.578 402.431 259.338 401.861C259.097 401.301 258.973 400.713 258.973 400.099C258.973 399.485 259.097 398.906 259.338 398.337C259.578 397.776 259.961 397.304 260.477 396.939C260.994 396.575 261.644 396.388 262.418 396.388C263.166 396.388 263.799 396.566 264.297 396.922C264.805 397.278 265.17 397.723 265.41 398.266C265.651 398.809 265.766 399.36 265.766 399.93V400.66H260.825C260.843 401.096 261.003 401.479 261.305 401.799C261.608 402.119 262.009 402.28 262.525 402.28C262.926 402.28 263.255 402.191 263.531 402.013C263.799 401.835 264.048 401.55 264.262 401.176L265.686 401.701C265.392 402.377 264.983 402.894 264.458 403.25C263.932 403.615 263.255 403.793 262.427 403.793C261.644 403.81 260.994 403.632 260.477 403.259ZM263.968 399.28C263.879 398.88 263.71 398.55 263.46 398.301C263.211 398.043 262.864 397.919 262.427 397.919C262.009 397.919 261.662 398.052 261.386 398.319C261.11 398.586 260.94 398.906 260.869 399.289H263.968V399.28Z" fill="#EA4D6A"/>
<path d="M267.485 403.445C267.253 403.214 267.146 402.929 267.146 402.591C267.146 402.253 267.262 401.968 267.485 401.737C267.707 401.505 268.001 401.398 268.34 401.398C268.678 401.398 268.963 401.514 269.194 401.737C269.426 401.959 269.533 402.253 269.533 402.591C269.533 402.929 269.417 403.214 269.194 403.445C268.972 403.677 268.678 403.784 268.34 403.784C268.001 403.784 267.707 403.668 267.485 403.445Z" fill="#EA4D6A"/>
<path d="M20.168 506.909L23.7296 502.308C24.0145 501.943 24.2104 501.631 24.3261 501.356C24.4419 501.08 24.4953 500.795 24.4953 500.501C24.4953 500.092 24.3885 499.771 24.1837 499.54C23.9789 499.309 23.6672 499.193 23.2755 499.193C22.9104 499.193 22.6255 499.309 22.4029 499.531C22.1803 499.762 22.0378 500.083 21.9844 500.501L20.3282 500.19C20.355 499.682 20.5063 499.237 20.7734 498.837C21.0406 498.436 21.3967 498.125 21.8419 497.893C22.2871 497.662 22.7857 497.546 23.32 497.546C24.246 497.546 24.9761 497.813 25.5104 498.347C26.0357 498.881 26.3028 499.575 26.3028 500.439C26.3028 501.267 26.0179 502.05 25.448 502.806L22.9994 505.966H26.5076V507.621H20.168V506.909Z" fill="#FA8617"/>
<path d="M33.737 499.362H30.959V497.653H38.3671V499.362H35.589V507.621H33.737V499.362Z" fill="#FA8617"/>
<path d="M40.7534 507.167L38.1445 500.448H39.9253L41.5904 504.951L43.1575 500.448H44.9205L41.2164 510.531H39.5068L40.7534 507.167Z" fill="#FA8617"/>
<path d="M46.0605 500.439H47.8235V501.177C47.9393 500.973 48.153 500.777 48.4735 500.59C48.7941 500.412 49.1591 500.323 49.5598 500.323C50.6105 500.323 51.4207 500.661 51.9906 501.329C52.5515 501.996 52.8365 502.895 52.8365 504.025C52.8365 505.156 52.5515 506.055 51.9906 506.722C51.4296 507.39 50.6194 507.728 49.5598 507.728C49.2036 507.728 48.8742 507.657 48.5448 507.496C48.2242 507.345 47.9838 507.167 47.8146 506.954V510.514H46.0605V500.439ZM50.5214 505.645C50.8331 505.254 50.9933 504.72 50.9933 504.034C50.9933 503.34 50.8331 502.806 50.5214 502.415C50.2098 502.032 49.8091 501.836 49.3283 501.836C48.8475 501.836 48.4468 502.032 48.1352 502.415C47.8235 502.797 47.6722 503.34 47.6722 504.034C47.6722 504.729 47.8235 505.263 48.1352 505.654C48.4468 506.037 48.8386 506.233 49.3283 506.233C49.818 506.233 50.2098 506.028 50.5214 505.645Z" fill="#FA8617"/>
<path d="M55.7397 507.247C55.1877 506.927 54.7692 506.482 54.4754 505.921C54.1815 505.36 54.0391 504.729 54.0391 504.025C54.0391 503.322 54.1815 502.69 54.4754 502.13C54.7692 501.569 55.1877 501.133 55.7397 500.804C56.2918 500.483 56.9418 500.323 57.6897 500.323C58.4376 500.323 59.0876 500.483 59.6397 500.804C60.1917 501.124 60.6102 501.569 60.904 502.13C61.1979 502.69 61.3403 503.322 61.3403 504.025C61.3403 504.729 61.1979 505.36 60.904 505.921C60.6102 506.482 60.1917 506.927 59.6397 507.247C59.0876 507.568 58.4376 507.728 57.6897 507.728C56.9418 507.737 56.2918 507.577 55.7397 507.247ZM58.9986 505.592C59.3191 505.174 59.4794 504.648 59.4794 504.034C59.4794 503.42 59.3191 502.895 58.9986 502.477C58.678 502.059 58.2417 501.845 57.6897 501.845C57.1376 501.845 56.7014 502.059 56.3808 502.477C56.0603 502.895 55.9 503.42 55.9 504.034C55.9 504.648 56.0603 505.174 56.3808 505.592C56.7014 506.01 57.1376 506.224 57.6897 506.224C58.2417 506.224 58.678 506.01 58.9986 505.592Z" fill="#FA8617"/>
<path d="M63.2364 507.167C62.7378 506.784 62.4083 506.331 62.248 505.797L63.6549 505.04C63.7884 505.414 63.9754 505.699 64.2158 505.912C64.4562 506.117 64.7412 506.224 65.0795 506.224C65.3377 506.224 65.5514 506.17 65.7206 506.064C65.8898 505.957 65.9788 505.779 65.9788 505.53C65.9788 505.307 65.872 505.129 65.6761 504.996C65.4713 504.862 65.1596 504.711 64.7323 504.559C64.6699 504.542 64.5631 504.506 64.4295 504.444C63.8775 504.221 63.4501 503.954 63.1473 503.616C62.8446 503.287 62.6932 502.86 62.6932 502.334C62.6932 501.961 62.7912 501.631 62.996 501.32C63.1919 501.017 63.4679 500.777 63.8151 500.59C64.1624 500.412 64.5542 500.323 64.9905 500.323C65.4713 500.323 65.9165 500.43 66.3172 500.626C66.7178 500.83 67.0206 501.115 67.2432 501.489L66.1925 502.459C65.9076 502.041 65.5247 501.836 65.035 501.836C64.848 501.836 64.6788 501.889 64.5453 501.987C64.4028 502.085 64.3405 502.219 64.3405 502.379C64.3405 502.548 64.4384 502.708 64.6432 502.86C64.8391 503.011 65.2309 503.189 65.8096 503.394C66.3617 503.589 66.7891 503.856 67.0829 504.177C67.3856 504.497 67.5281 504.915 67.5281 505.414C67.5281 506.117 67.3055 506.678 66.8603 507.105C66.4151 507.523 65.8274 507.737 65.1062 507.737C64.3583 507.737 63.735 507.541 63.2364 507.167Z" fill="#FA8617"/>
<path d="M71.8105 500.439H73.5913L74.8735 505.369L76.0845 500.439H77.7406L78.9515 505.369L80.2337 500.439H82.0145L79.7173 507.612H78.1502L76.9125 502.966L75.6749 507.612H74.1078L71.8105 500.439Z" fill="#FA8617"/>
<path d="M84.1688 507.185C83.6524 506.82 83.2695 506.357 83.0291 505.788C82.7887 505.227 82.6641 504.64 82.6641 504.026C82.6641 503.411 82.7887 502.833 83.0291 502.263C83.2695 501.703 83.6524 501.231 84.1688 500.866C84.6853 500.501 85.3353 500.314 86.1099 500.314C86.8578 500.314 87.49 500.492 87.9886 500.848C88.4962 501.204 88.8612 501.649 89.1016 502.192C89.342 502.735 89.4578 503.287 89.4578 503.856V504.586H84.5161C84.5339 505.022 84.6942 505.405 84.9969 505.725C85.2996 506.046 85.7003 506.206 86.2167 506.206C86.6174 506.206 86.9469 506.117 87.2229 505.939C87.49 505.761 87.7393 505.476 87.953 505.102L89.3777 505.628C89.0838 506.304 88.6742 506.82 88.1489 507.176C87.6236 507.541 86.9469 507.719 86.1188 507.719C85.3263 507.737 84.6853 507.55 84.1688 507.185ZM87.6503 503.207C87.5612 502.806 87.3921 502.477 87.1428 502.228C86.8934 501.97 86.5462 501.845 86.1099 501.845C85.6914 501.845 85.3442 501.979 85.0681 502.246C84.7921 502.513 84.6229 502.833 84.5517 503.216H87.6503V503.207Z" fill="#FA8617"/>
<path d="M91.0527 500.439H92.8157V501.605C93.0739 501.195 93.3856 500.884 93.7595 500.661C94.1335 500.439 94.5253 500.323 94.9438 500.323C95.2109 500.323 95.4958 500.368 95.8164 500.465L95.4869 502.103C95.2643 501.97 95.0239 501.907 94.7479 501.907C94.1869 501.907 93.7239 502.165 93.3678 502.673C93.0027 503.18 92.8246 503.981 92.8246 505.076V507.621H91.0616V500.439H91.0527Z" fill="#FA8617"/>
<path d="M97.7743 507.185C97.2579 506.82 96.875 506.357 96.6346 505.788C96.3942 505.227 96.2695 504.64 96.2695 504.026C96.2695 503.411 96.3942 502.833 96.6346 502.263C96.875 501.703 97.2579 501.231 97.7743 500.866C98.2907 500.501 98.9407 500.314 99.7154 500.314C100.463 500.314 101.095 500.492 101.594 500.848C102.102 501.204 102.467 501.649 102.707 502.192C102.948 502.735 103.063 503.287 103.063 503.856V504.586H98.1216C98.1394 505.022 98.2996 505.405 98.6024 505.725C98.9051 506.046 99.3058 506.206 99.8222 506.206C100.223 506.206 100.552 506.117 100.828 505.939C101.095 505.761 101.345 505.476 101.558 505.102L102.983 505.628C102.689 506.304 102.28 506.82 101.754 507.176C101.229 507.541 100.552 507.719 99.7243 507.719C98.9407 507.737 98.2907 507.55 97.7743 507.185ZM101.256 503.207C101.167 502.806 100.998 502.477 100.748 502.228C100.499 501.97 100.152 501.845 99.7154 501.845C99.2969 501.845 98.9496 501.979 98.6736 502.246C98.3976 502.513 98.2284 502.833 98.1572 503.216H101.256V503.207Z" fill="#FA8617"/>
<path d="M108.236 501.952H107.328V500.439H108.236V500.065C108.236 499.219 108.459 498.588 108.895 498.16C109.332 497.733 109.946 497.528 110.712 497.528C111.255 497.528 111.7 497.626 112.047 497.813L111.664 499.237C111.353 499.104 111.068 499.041 110.81 499.041C110.266 499.041 109.999 499.344 109.999 499.94V500.439H111.513V501.952H109.999V507.621H108.236V501.952Z" fill="#FA8617"/>
<path d="M113.945 507.247C113.393 506.927 112.974 506.482 112.68 505.921C112.387 505.36 112.244 504.729 112.244 504.025C112.244 503.322 112.387 502.69 112.68 502.13C112.974 501.569 113.393 501.133 113.945 500.804C114.497 500.483 115.147 500.323 115.895 500.323C116.643 500.323 117.293 500.483 117.845 500.804C118.397 501.124 118.815 501.569 119.109 502.13C119.403 502.69 119.545 503.322 119.545 504.025C119.545 504.729 119.403 505.36 119.109 505.921C118.815 506.482 118.397 506.927 117.845 507.247C117.293 507.568 116.643 507.728 115.895 507.728C115.147 507.737 114.497 507.577 113.945 507.247ZM117.213 505.592C117.533 505.174 117.693 504.648 117.693 504.034C117.693 503.42 117.533 502.895 117.213 502.477C116.892 502.059 116.456 501.845 115.904 501.845C115.352 501.845 114.915 502.059 114.595 502.477C114.274 502.895 114.114 503.42 114.114 504.034C114.114 504.648 114.274 505.174 114.595 505.592C114.915 506.01 115.352 506.224 115.904 506.224C116.447 506.224 116.883 506.01 117.213 505.592Z" fill="#FA8617"/>
<path d="M121.744 507.176C121.343 506.802 121.139 506.268 121.139 505.565V500.439H122.902V505.04C122.902 505.45 122.991 505.743 123.178 505.939C123.365 506.126 123.614 506.224 123.926 506.224C124.219 506.224 124.487 506.108 124.736 505.886C124.985 505.663 125.181 505.325 125.332 504.88C125.484 504.435 125.564 503.919 125.564 503.305V500.439H127.327V507.612H125.564V506.455C125.288 506.847 124.958 507.149 124.585 507.381C124.211 507.612 123.792 507.719 123.347 507.719C122.688 507.737 122.154 507.55 121.744 507.176Z" fill="#FA8617"/>
<path d="M129.33 500.439H131.093V501.596C131.369 501.204 131.699 500.902 132.073 500.67C132.455 500.439 132.865 500.332 133.31 500.332C133.978 500.332 134.512 500.519 134.913 500.884C135.314 501.249 135.518 501.792 135.518 502.495V507.621H133.764V503.02C133.764 502.61 133.675 502.317 133.488 502.121C133.301 501.934 133.052 501.836 132.74 501.836C132.446 501.836 132.179 501.952 131.93 502.174C131.681 502.406 131.485 502.735 131.333 503.18C131.182 503.625 131.102 504.15 131.102 504.755V507.621H129.339V500.439H129.33Z" fill="#FA8617"/>
<path d="M137.94 506.731C137.397 506.064 137.121 505.165 137.121 504.034C137.121 502.904 137.397 502.005 137.94 501.338C138.483 500.67 139.258 500.332 140.255 500.332C140.665 500.332 141.039 500.403 141.377 500.555C141.716 500.706 141.965 500.884 142.143 501.106V497.546H143.906V507.63H142.143V506.891C142.027 507.114 141.805 507.31 141.466 507.479C141.128 507.648 140.727 507.746 140.264 507.746C139.258 507.737 138.492 507.399 137.94 506.731ZM141.831 505.645C142.143 505.263 142.294 504.72 142.294 504.026C142.294 503.331 142.143 502.797 141.831 502.406C141.52 502.023 141.128 501.827 140.638 501.827C140.148 501.827 139.757 502.023 139.445 502.406C139.133 502.788 138.973 503.331 138.973 504.026C138.973 504.711 139.133 505.245 139.445 505.636C139.757 506.028 140.157 506.224 140.638 506.224C141.119 506.224 141.529 506.028 141.831 505.645Z" fill="#FA8617"/>
<path d="M146.016 507.363C145.785 507.132 145.678 506.847 145.678 506.509C145.678 506.17 145.793 505.886 146.016 505.654C146.239 505.423 146.533 505.316 146.871 505.316C147.209 505.316 147.494 505.432 147.726 505.654C147.957 505.877 148.064 506.17 148.064 506.509C148.064 506.847 147.948 507.132 147.726 507.363C147.503 507.594 147.209 507.701 146.871 507.701C146.533 507.701 146.239 507.594 146.016 507.363Z" fill="#FA8617"/>
<path d="M332.229 392.088L335.319 389L336.459 390.139L333.369 393.228L336.459 396.316L335.319 397.455L332.229 394.367L329.14 397.455L328 396.316L331.09 393.228L328 390.139L329.14 389L332.229 392.088Z" fill="#EA4D6A"/>
<path d="M209.252 258.365C209.208 258.151 209.083 257.947 208.878 257.813C208.478 257.546 207.943 257.653 207.676 258.053L203.83 263.972L201.542 262.575C201.141 262.334 200.624 262.45 200.366 262.833C200.357 262.842 200.357 262.851 200.348 262.86C200.099 263.269 200.233 263.803 200.642 264.052L203.883 266.028C204.141 266.188 204.48 266.108 204.649 265.859L209.119 259.006C209.252 258.819 209.288 258.579 209.252 258.365Z" fill="#66C357"/>
<path d="M337.275 151.777L333.642 145.574C333.214 144.835 332.155 144.835 331.727 145.574L328.095 151.777C327.649 152.525 328.193 153.477 329.056 153.477H336.322C337.177 153.477 337.72 152.525 337.275 151.777ZM332.716 151.973C332.44 151.973 332.217 151.751 332.217 151.475C332.217 151.199 332.44 150.976 332.716 150.976C332.992 150.976 333.214 151.199 333.214 151.475C333.214 151.751 332.992 151.973 332.716 151.973ZM333.099 149.695C333.01 150.211 332.965 150.505 332.965 150.576C332.965 150.683 332.956 150.718 332.929 150.754C332.894 150.79 332.84 150.798 332.805 150.798H332.627C332.582 150.798 332.529 150.79 332.502 150.754C332.475 150.727 332.466 150.683 332.466 150.594C332.466 150.54 332.44 150.309 332.279 149.33C332.137 148.422 332.137 148.36 332.137 148.342C332.137 148.2 332.19 148.066 332.297 147.968C332.395 147.87 332.547 147.817 332.734 147.817C332.912 147.817 333.054 147.87 333.152 147.986C333.25 148.102 333.295 148.226 333.295 148.369C333.295 148.404 333.295 148.502 333.099 149.695Z" fill="#FA8617"/>
<path d="M200.339 505.757L196.706 499.554C196.279 498.815 195.219 498.815 194.792 499.554L191.159 505.757C190.714 506.505 191.257 507.457 192.121 507.457H199.386C200.241 507.457 200.775 506.505 200.339 505.757ZM195.78 505.953C195.504 505.953 195.282 505.731 195.282 505.455C195.282 505.179 195.504 504.956 195.78 504.956C196.056 504.956 196.279 505.179 196.279 505.455C196.279 505.731 196.056 505.953 195.78 505.953ZM196.154 503.675C196.065 504.191 196.021 504.485 196.021 504.556C196.021 504.663 196.012 504.698 195.985 504.734C195.949 504.769 195.896 504.778 195.86 504.778H195.682C195.638 504.778 195.584 504.769 195.558 504.734C195.531 504.707 195.522 504.663 195.522 504.574C195.522 504.52 195.495 504.289 195.335 503.31C195.193 502.402 195.193 502.34 195.193 502.322C195.193 502.18 195.246 502.046 195.353 501.948C195.451 501.85 195.602 501.797 195.789 501.797C195.967 501.797 196.11 501.85 196.208 501.966C196.306 502.082 196.35 502.206 196.35 502.349C196.35 502.375 196.35 502.482 196.154 503.675Z" fill="#FA8617"/>
<path d="M637 41.4961H377.352V13.8168C377.352 9.80285 380.61 6.54541 384.626 6.54541H636.991V41.4961H637Z" fill="#D9DADA"/>
<path d="M525.281 168.75H415.175C412.664 168.75 410.625 166.712 410.625 164.202V91.8085C410.625 89.2986 412.664 87.2605 415.175 87.2605H525.281C527.792 87.2605 529.831 89.2986 529.831 91.8085V164.202C529.822 166.712 527.792 168.75 525.281 168.75Z" fill="#EDEDED"/>
<path d="M637 110.828H551.967C549.242 110.828 547.043 108.621 547.043 105.906C547.043 103.183 549.251 100.984 551.967 100.984H637V110.828Z" fill="#EDEDED"/>
<path d="M637 132.927H551.967C549.242 132.927 547.043 130.72 547.043 128.005C547.043 125.282 549.251 123.083 551.967 123.083H637V132.927Z" fill="#EDEDED"/>
<path d="M637 155.035H551.967C549.242 155.035 547.043 152.827 547.043 150.113C547.043 147.389 549.251 145.191 551.967 145.191H637V155.035Z" fill="#EDEDED"/>
<path d="M602.693 245.166H414.801C412.076 245.166 409.877 242.959 409.877 240.244C409.877 237.521 412.085 235.323 414.801 235.323H602.693C605.417 235.323 607.616 237.53 607.616 240.244C607.616 242.959 605.408 245.166 602.693 245.166Z" fill="#EDEDED"/>
<path d="M561.716 267.265H414.801C412.076 267.265 409.877 265.058 409.877 262.343C409.877 259.62 412.085 257.421 414.801 257.421H561.716C564.441 257.421 566.64 259.629 566.64 262.343C566.649 265.058 564.441 267.265 561.716 267.265Z" fill="#EDEDED"/>
<path d="M579.462 289.373H414.801C412.076 289.373 409.877 287.166 409.877 284.451C409.877 281.728 412.085 279.529 414.801 279.529H579.462C582.187 279.529 584.386 281.737 584.386 284.451C584.386 287.166 582.187 289.373 579.462 289.373Z" fill="#EDEDED"/>
<path d="M555.618 368.21H413.885C411.16 368.21 408.961 366.003 408.961 363.288C408.961 360.565 411.169 358.366 413.885 358.366H555.618C558.343 358.366 560.542 360.574 560.542 363.288C560.542 366.003 558.334 368.21 555.618 368.21Z" fill="#EDEDED"/>
<path d="M603.815 390.309H413.885C411.16 390.309 408.961 388.102 408.961 385.387C408.961 382.664 411.169 380.465 413.885 380.465H603.815C606.54 380.465 608.739 382.673 608.739 385.387C608.739 388.102 606.531 390.309 603.815 390.309Z" fill="#EDEDED"/>
<path d="M578.546 412.408H413.885C411.16 412.408 408.961 410.201 408.961 407.486C408.961 404.763 411.169 402.564 413.885 402.564H578.546C581.271 402.564 583.47 404.772 583.47 407.486C583.479 410.21 581.271 412.408 578.546 412.408Z" fill="#EDEDED"/>
<path d="M557.78 481.838H416.047C413.322 481.838 411.123 479.63 411.123 476.916C411.123 474.192 413.331 471.994 416.047 471.994H557.78C560.505 471.994 562.704 474.201 562.704 476.916C562.704 479.63 560.496 481.838 557.78 481.838Z" fill="#EDEDED"/>
<path d="M605.978 503.937H416.047C413.322 503.937 411.123 501.729 411.123 499.015C411.123 496.291 413.331 494.093 416.047 494.093H605.978C608.702 494.093 610.901 496.3 610.901 499.015C610.901 501.738 608.693 503.937 605.978 503.937Z" fill="#EDEDED"/>
<path d="M580.708 526.044H416.047C413.322 526.044 411.123 523.837 411.123 521.123C411.123 518.399 413.331 516.201 416.047 516.201H580.708C583.433 516.201 585.632 518.408 585.632 521.123C585.641 523.837 583.433 526.044 580.708 526.044Z" fill="#EDEDED"/>
</g>
<defs>
<filter id="filter0_d_512_147" x="368.352" y="-0.45459" width="277.648" height="593.116" filterUnits="userSpaceOnUse" color-interpolation-filters="sRGB">
<feFlood flood-opacity="0" result="BackgroundImageFix"/>
<feColorMatrix in="SourceAlpha" type="matrix" values="0 0 0 0 0 0 0 0 0 0 0 0 0 0 0 0 0 0 127 0" result="hardAlpha"/>
<feOffset dy="2"/>
<feGaussianBlur stdDeviation="4.5"/>
<feComposite in2="hardAlpha" operator="out"/>
<feColorMatrix type="matrix" values="0 0 0 0 0 0 0 0 0 0 0 0 0 0 0 0 0 0 0.15 0"/>
<feBlend mode="normal" in2="BackgroundImageFix" result="effect1_dropShadow_512_147"/>
<feBlend mode="normal" in="SourceGraphic" in2="effect1_dropShadow_512_147" result="shape"/>
</filter>
<filter id="filter1_d_512_147" x="9.88672" y="220.722" width="203.854" height="86.7979" filterUnits="userSpaceOnUse" color-interpolation-filters="sRGB">
<feFlood flood-opacity="0" result="BackgroundImageFix"/>
<feColorMatrix in="SourceAlpha" type="matrix" values="0 0 0 0 0 0 0 0 0 0 0 0 0 0 0 0 0 0 127 0" result="hardAlpha"/>
<feOffset dy="2"/>
<feGaussianBlur stdDeviation="4.5"/>
<feComposite in2="hardAlpha" operator="out"/>
<feColorMatrix type="matrix" values="0 0 0 0 0 0 0 0 0 0 0 0 0 0 0 0 0 0 0.15 0"/>
<feBlend mode="normal" in2="BackgroundImageFix" result="effect1_dropShadow_512_147"/>
<feBlend mode="normal" in="SourceGraphic" in2="effect1_dropShadow_512_147" result="shape"/>
</filter>
<filter id="filter2_d_512_147" x="137.729" y="109.337" width="203.854" height="86.7979" filterUnits="userSpaceOnUse" color-interpolation-filters="sRGB">
<feFlood flood-opacity="0" result="BackgroundImageFix"/>
<feColorMatrix in="SourceAlpha" type="matrix" values="0 0 0 0 0 0 0 0 0 0 0 0 0 0 0 0 0 0 127 0" result="hardAlpha"/>
<feOffset dy="2"/>
<feGaussianBlur stdDeviation="4.5"/>
<feComposite in2="hardAlpha" operator="out"/>
<feColorMatrix type="matrix" values="0 0 0 0 0 0 0 0 0 0 0 0 0 0 0 0 0 0 0.15 0"/>
<feBlend mode="normal" in2="BackgroundImageFix" result="effect1_dropShadow_512_147"/>
<feBlend mode="normal" in="SourceGraphic" in2="effect1_dropShadow_512_147" result="shape"/>
</filter>
<filter id="filter3_d_512_147" x="136.9" y="351.358" width="203.854" height="86.7979" filterUnits="userSpaceOnUse" color-interpolation-filters="sRGB">
<feFlood flood-opacity="0" result="BackgroundImageFix"/>
<feColorMatrix in="SourceAlpha" type="matrix" values="0 0 0 0 0 0 0 0 0 0 0 0 0 0 0 0 0 0 127 0" result="hardAlpha"/>
<feOffset dy="2"/>
<feGaussianBlur stdDeviation="4.5"/>
<feComposite in2="hardAlpha" operator="out"/>
<feColorMatrix type="matrix" values="0 0 0 0 0 0 0 0 0 0 0 0 0 0 0 0 0 0 0.15 0"/>
<feBlend mode="normal" in2="BackgroundImageFix" result="effect1_dropShadow_512_147"/>
<feBlend mode="normal" in="SourceGraphic" in2="effect1_dropShadow_512_147" result="shape"/>
</filter>
<filter id="filter4_d_512_147" x="1" y="462.217" width="203.854" height="86.7977" filterUnits="userSpaceOnUse" color-interpolation-filters="sRGB">
<feFlood flood-opacity="0" result="BackgroundImageFix"/>
<feColorMatrix in="SourceAlpha" type="matrix" values="0 0 0 0 0 0 0 0 0 0 0 0 0 0 0 0 0 0 127 0" result="hardAlpha"/>
<feOffset dy="2"/>
<feGaussianBlur stdDeviation="4.5"/>
<feComposite in2="hardAlpha" operator="out"/>
<feColorMatrix type="matrix" values="0 0 0 0 0 0 0 0 0 0 0 0 0 0 0 0 0 0 0.15 0"/>
<feBlend mode="normal" in2="BackgroundImageFix" result="effect1_dropShadow_512_147"/>
<feBlend mode="normal" in="SourceGraphic" in2="effect1_dropShadow_512_147" result="shape"/>
</filter>
<clipPath id="clip0_512_147">
<rect width="637" height="594" fill="white"/>
</clipPath>
</defs>
</svg>
