<svg width="418" height="266" viewBox="0 0 418 266" fill="none" xmlns="http://www.w3.org/2000/svg">
<g clip-path="url(#clip0_509_70)">
<path d="M115.574 70.3844C119.956 70.3844 123.509 66.8275 123.509 62.4398C123.509 58.0521 119.956 54.4951 115.574 54.4951C111.191 54.4951 107.639 58.0521 107.639 62.4398C107.639 66.8275 111.191 70.3844 115.574 70.3844Z" stroke="#FA8617" stroke-width="2" stroke-miterlimit="10"/>
<path d="M402.19 174.124C407.147 174.124 411.165 170.101 411.165 165.138C411.165 160.176 407.147 156.153 402.19 156.153C397.233 156.153 393.215 160.176 393.215 165.138C393.215 170.101 397.233 174.124 402.19 174.124Z" stroke="#CACACA" stroke-width="2" stroke-miterlimit="10"/>
<path d="M255.121 67.4912C258.034 67.4912 260.395 65.1268 260.395 62.2101C260.395 59.2934 258.034 56.929 255.121 56.929C252.207 56.929 249.846 59.2934 249.846 62.2101C249.846 65.1268 252.207 67.4912 255.121 67.4912Z" stroke="#0DB670" stroke-miterlimit="10"/>
<path d="M7.61337 229.2C11.3964 229.2 14.4631 226.13 14.4631 222.343C14.4631 218.555 11.3964 215.485 7.61337 215.485C3.83039 215.485 0.763672 218.555 0.763672 222.343C0.763672 226.13 3.83039 229.2 7.61337 229.2Z" stroke="#FA8617" stroke-miterlimit="10"/>
<path d="M96.9195 221.608C99.782 221.608 102.103 219.285 102.103 216.419C102.103 213.553 99.782 211.229 96.9195 211.229C94.0569 211.229 91.7363 213.553 91.7363 216.419C91.7363 219.285 94.0569 221.608 96.9195 221.608Z" stroke="#CACACA" stroke-miterlimit="10"/>
<path d="M24.8145 138.564L31.0526 149.157" stroke="#0DB670" stroke-width="1.5" stroke-miterlimit="10"/>
<path d="M33.2249 140.738L22.6445 146.984" stroke="#0DB670" stroke-width="1.5" stroke-miterlimit="10"/>
<path d="M293.467 0.489746L301.249 10.0111" stroke="#FA8617" stroke-miterlimit="10"/>
<path d="M302.121 1.34717L292.611 9.13873" stroke="#FA8617" stroke-miterlimit="10"/>
<path d="M43.1934 68.9302L47.398 76.7983" stroke="black" stroke-miterlimit="10"/>
<path d="M49.2319 70.7517L41.373 74.9766" stroke="black" stroke-miterlimit="10"/>
<path d="M36.1448 40.3508C37.8083 40.3508 39.1569 39.0006 39.1569 37.3352C39.1569 35.6697 37.8083 34.3196 36.1448 34.3196C34.4813 34.3196 33.1328 35.6697 33.1328 37.3352C33.1328 39.0006 34.4813 40.3508 36.1448 40.3508Z" stroke="#CACACA" stroke-miterlimit="10"/>
<path d="M365.037 79.9822L369.532 86.9624" stroke="#0DB670" stroke-miterlimit="10"/>
<path d="M370.771 81.2222L363.799 85.7379" stroke="#0DB670" stroke-miterlimit="10"/>
<path d="M338.908 144.595V129.533L328.557 139.651L338.908 144.595Z" stroke="#FA8617" stroke-miterlimit="10"/>
<path d="M408.443 223.858L412.984 232.522L401.425 232.645L408.443 223.858ZM408.978 218.286L394.988 235.783L417.999 235.538L408.978 218.286Z" fill="#0DB670"/>
<path d="M209.742 247.876C246.474 247.876 276.251 218.063 276.251 181.288C276.251 144.512 246.474 114.7 209.742 114.7C173.01 114.7 143.232 144.512 143.232 181.288C143.232 218.063 173.01 247.876 209.742 247.876Z" fill="#FA8617"/>
<path opacity="0.54" d="M209.612 266.424C256.342 266.424 294.224 228.497 294.224 181.712C294.224 134.927 256.342 97 209.612 97C162.882 97 125 134.927 125 181.712C125 228.497 162.882 266.424 209.612 266.424Z" fill="#FA8617"/>
<path d="M243.768 149.278C242.631 148.67 241.207 149.092 240.595 150.22L214.776 199.318L201.122 183.709C200.273 182.717 198.799 182.605 197.8 183.448C196.8 184.291 196.688 185.767 197.537 186.759L212.989 204.501C214.251 205.976 216.612 205.716 217.536 204.017L244.717 152.464C245.33 151.336 244.917 149.923 243.768 149.278ZM203.583 202.145L198.025 212.548C197.1 214.259 194.739 214.507 193.478 213.031L175.565 192.065C174.716 191.073 174.841 189.598 175.827 188.755C176.265 188.383 176.802 188.209 177.351 188.209C178.013 188.209 178.675 188.482 179.138 189.028L195.277 207.861L200.373 198.314L203.583 202.145ZM227.892 156.37C227.892 156.742 227.804 157.126 227.617 157.473L211.29 187.937L208.055 184.105L223.482 155.266C224.094 154.138 225.518 153.704 226.655 154.324C227.442 154.746 227.892 155.552 227.892 156.37Z" fill="white"/>
</g>
<defs>
<clipPath id="clip0_509_70">
<rect width="418" height="266" fill="white"/>
</clipPath>
</defs>
</svg>
