<?xml version="1.0" encoding="utf-8"?>
<svg version="1.1" id="Layer_1" xmlns="http://www.w3.org/2000/svg" xmlns:xlink="http://www.w3.org/1999/xlink" x="0px" y="0px"
	 viewBox="0 0 35 33" style="enable-background:new 0 0 35 33;" xml:space="preserve">
<style type="text/css">
	.st0{fill:none;stroke:#CACACA;}
	.st1{fill:#F16334;}
</style>
	<path class="st0" d="M12.1,1.8c2-0.9,4.1-1.3,6.4-1.3c8.8,0,16,7.2,16,16s-7.2,16-16,16s-16-7.2-16-16c0-1.3,0.2-2.6,0.5-3.8"/>
	<path class="st1" d="M14.3,13.7l-4-4c0.8-1,1.3-2.3,1.3-3.6 c0-3.1-2.5-5.7-5.7-5.7S0.3,2.9,0.3,6s2.5,5.7,5.7,5.7c1.4,0,2.7-0.5,3.6-1.3l4,4c0.1,0.1,0.2,0.2,0.3,0.2s0.3,0,0.3-0.2 C14.5,14.2,14.5,13.8,14.3,13.7z M6,10.7c-2.6,0-4.7-2.1-4.7-4.7S3.4,1.3,6,1.3s4.7,2.1,4.7,4.7S8.6,10.7,6,10.7z"/>
	<path class="st1" d="M28.9,21.1H10c-0.3,0-0.5,0.2-0.5,0.5 c0,0.3,0.2,0.5,0.5,0.5h18.9c0.3,0,0.5-0.2,0.5-0.5C29.4,21.3,29.2,21.1,28.9,21.1z M28.9,16.8H17.1c-0.3,0-0.5,0.2-0.5,0.5 c0,0.3,0.2,0.5,0.5,0.5h11.7c0.3,0,0.5-0.2,0.5-0.5C29.4,17,29.2,16.8,28.9,16.8z M13.2,16.8H10c-0.3,0-0.5,0.2-0.5,0.5 c0,0.3,0.2,0.5,0.5,0.5h3.2c0.3,0,0.5-0.2,0.5-0.5C13.7,17,13.4,16.8,13.2,16.8z"/>
</svg>
