<?xml version="1.0" encoding="utf-8"?>
<!-- Generator: Adobe Illustrator 26.0.0, SVG Export Plug-In . SVG Version: 6.00 Build 0)  -->
<svg version="1.1" id="Layer_1" xmlns="http://www.w3.org/2000/svg" xmlns:xlink="http://www.w3.org/1999/xlink" x="0px" y="0px"
	 viewBox="0 0 35 33" style="enable-background:new 0 0 35 33;" xml:space="preserve">
<style type="text/css">
	.st0{fill:none;stroke:#CACACA;}
	.st1{fill:#FA8617;}
</style>
<path class="st0" d="M18.5,0.5c8.8,0,16,7.2,16,16s-7.2,16-16,16s-16-7.2-16-16c0-1.3,0.2-2.5,0.4-3.7"/>
<g>
	<path class="st1" d="M29,21.1H10.1c-0.3,0-0.5,0.2-0.5,0.5s0.2,0.5,0.5,0.5H29c0.3,0,0.5-0.2,0.5-0.5C29.5,21.3,29.3,21.1,29,21.1z
		 M29,16.8H17.2c-0.3,0-0.5,0.2-0.5,0.5s0.2,0.5,0.5,0.5h11.7c0.3,0,0.5-0.2,0.5-0.5C29.5,17,29.3,16.8,29,16.8z M13.3,16.8h-3.2
		c-0.3,0-0.5,0.2-0.5,0.5s0.2,0.5,0.5,0.5h3.2c0.3,0,0.5-0.2,0.5-0.5S13.5,16.8,13.3,16.8z"/>
</g>
<path class="st1" d="M10,0C9,0,8.2,0.3,7.4,0.7C6.7,0.3,5.8,0,4.9,0C2.2,0,0,2.2,0,4.9s2.2,4.9,4.9,4.9c0.9,0,1.8-0.3,2.6-0.7
	C8.2,9.5,9,9.8,10,9.8c2.7,0,4.9-2.2,4.9-4.9S12.7,0,10,0z M4.9,9C2.6,9,0.8,7.2,0.8,4.9s1.9-4.1,4.1-4.1c0.7,0,1.3,0.2,1.9,0.5
	C5.8,2.2,5.1,3.5,5.1,5s0.7,2.8,1.7,3.7C6.2,8.8,5.6,9,4.9,9z M10,9C9.3,9,8.7,8.8,8.1,8.5c1-0.9,1.7-2.2,1.7-3.7S9.2,2,8.1,1.1
	C8.6,0.9,9.3,0.8,10,0.8c2.3,0,4.1,1.9,4.1,4.1C14.1,7.2,12.2,9,10,9z"/>
</svg>
