<svg width="14" height="14" viewBox="0 0 14 14" fill="none" xmlns="http://www.w3.org/2000/svg">
<path d="M12.0714 9.87722C11.5143 10.7819 10.7838 11.5131 9.89238 12.0583C9.00095 12.6036 8.03524 12.9134 6.99524 12.9878C5.95524 13.0622 4.95238 12.9011 4.01143 12.4921C3.8381 12.4301 3.66476 12.3558 3.49143 12.2566C3.25619 12.1451 3.10762 11.9468 3.04571 11.6866C2.98381 11.4263 3.00857 11.1909 3.13238 10.9802C3.25619 10.7695 3.44191 10.6208 3.66476 10.5588C3.88762 10.4969 4.12286 10.5093 4.34571 10.6332C4.56857 10.7571 4.74191 10.8315 4.8781 10.8934C5.55905 11.1413 6.25238 11.228 6.98286 11.1537C7.71333 11.0793 8.3819 10.8439 9.00095 10.4597C9.62 10.0755 10.1276 9.55501 10.5114 8.92298C10.9571 8.19181 11.18 7.41107 11.1924 6.58075C11.2048 5.75044 11.0067 4.98209 10.6105 4.25091C10.2143 3.51974 9.65714 2.94967 8.92667 2.50353C8.19619 2.0574 7.44095 1.83433 6.63619 1.82193C5.83143 1.80954 5.07619 1.98304 4.3581 2.35482C3.64 2.7266 3.0581 3.25949 2.61238 3.94109L3.62762 4.58552L0.433333 5.77522L0 2.37961L1.04 3.02403C1.65905 2.03261 2.46381 1.27665 3.46667 0.756156C4.46952 0.235661 5.5219 -0.0121945 6.66095 0.000198291C7.8 0.012591 8.86476 0.334803 9.86762 0.929655C10.8705 1.52451 11.6505 2.34243 12.2076 3.35863C12.7648 4.37484 13.0248 5.4654 13 6.63032C12.9752 7.79524 12.6657 8.87341 12.0714 9.87722Z" fill="#F16334"/>
</svg>
