<svg id="criss-cross" xmlns="http://www.w3.org/2000/svg" width="16" height="16" viewBox="0 0 16 16">
  <path id="Path_1751" data-name="Path 1751" d="M8,0a8,8,0,1,0,8,8A8.009,8.009,0,0,0,8,0ZM8,0" fill="#f40909"/>
  <path id="Path_1752" data-name="Path 1752" d="M161.285,160.385a.637.637,0,1,1-.9.9l-1.913-1.913-1.913,1.913a.637.637,0,0,1-.9-.9l1.913-1.913-1.913-1.913a.637.637,0,0,1,.9-.9l1.913,1.913,1.913-1.913a.637.637,0,0,1,.9.9l-1.913,1.913Zm0,0" transform="translate(-150.471 -150.53)" fill="#fafafa"/>
</svg>
