<?xml version="1.0" encoding="utf-8"?>
<!-- Generator: Adobe Illustrator 26.0.0, SVG Export Plug-In . SVG Version: 6.00 Build 0)  -->
<svg version="1.1" id="Layer_1" xmlns="http://www.w3.org/2000/svg" xmlns:xlink="http://www.w3.org/1999/xlink" x="0px" y="0px"
	 viewBox="0 0 35 33" style="enable-background:new 0 0 35 33;" xml:space="preserve">
<style type="text/css">
	.st0{fill:none;stroke:#CACACA;}
	.st1{fill:#FA8617;}
</style>
<path class="st0" d="M13.8,1.2c1.5-0.5,3.1-0.7,4.7-0.7c8.8,0,16,7.2,16,16s-7.2,16-16,16s-16-7.2-16-16c0-0.2,0-0.4,0-0.5"/>
<path id="cla1" class="st1" d="M17.2,16.8h11.7c0.3,0,0.5,0.2,0.5,0.5s-0.2,0.5-0.5,0.5H17.2c-0.3,0-0.5-0.2-0.5-0.5
	S16.9,16.8,17.2,16.8z M10.1,16.8h3.2c0.3,0,0.5,0.2,0.5,0.5s-0.2,0.5-0.5,0.5h-3.2c-0.3,0-0.5-0.2-0.5-0.5S9.8,16.8,10.1,16.8z
	 M29,22.1H10.1c-0.3,0-0.5-0.2-0.5-0.5s0.2-0.5,0.5-0.5H29c0.3,0,0.5,0.2,0.5,0.5S29.3,22.1,29,22.1z"/>
<g>
	<path class="st1" d="M5.5,13.1H5.2c-0.3,0-0.5-0.2-0.5-0.5v-0.4c0-0.3,0.2-0.5,0.5-0.5h0.4c0.3,0,0.5,0.2,0.5,0.5v0.4
		C6,12.9,5.8,13.1,5.5,13.1z M5.2,11.9c-0.1,0-0.3,0.1-0.3,0.3v0.4c0,0.1,0.1,0.3,0.3,0.3h0.4c0.1,0,0.3-0.1,0.3-0.3v-0.4
		c0-0.1-0.1-0.3-0.3-0.3H5.2z"/>
	<path class="st1" d="M15.2,9h-3.5l3-3c0.1-0.1,0.2-0.2,0.3-0.4c0.1-0.2,0.1-0.3,0.1-0.5s0-0.3-0.1-0.5s-0.2-0.3-0.3-0.4l-1.9-1.9
		c-0.2-0.2-0.6-0.4-0.9-0.4c-0.3,0-0.7,0.1-0.9,0.4l-3,3V1.8c0-0.7-0.6-1.3-1.3-1.3H4c-0.7,0-1.3,0.6-1.3,1.3V13
		c0,0.7,0.6,1.3,1.3,1.3h1.7l0,0h9.5c0.7,0,1.3-0.6,1.3-1.3v-2.7C16.5,9.6,15.9,9,15.2,9z M8,8.6l1.3,1.3L8,11.2V8.6z M11.7,3
		c0.1-0.1,0.1-0.1,0.2-0.1s0.2,0,0.2,0.1L14,4.8c0,0,0.1,0,0.1,0.1V5v0.1c0,0,0,0.1-0.1,0.1l-1.4,1.4l-2.3-2.3L11.7,3z M9.6,5.1
		l2.3,2.3L10,9.2l-2-2V6.7L9.6,5.1z M7.7,6.9L7.7,6.9L7.7,6.9L7.7,6.9L7.7,6.9z M3.7,1.8c0-0.2,0.1-0.3,0.3-0.3h2.7
		C6.9,1.5,7,1.6,7,1.8v2.1H3.7V1.8z M3.7,4.9H7V7H3.7V4.9z M3.7,8.1H7v2.1H3.7V8.1z M4,13.3c-0.2,0-0.3-0.1-0.3-0.3v-1.8H7V13
		c0,0.2-0.1,0.3-0.3,0.3H4z M8,13v-0.4l0.7-0.7v1.5H8C8,13.2,8,13.1,8,13z M9.8,10.9l0.9-0.9h1.2v3.4H9.8V10.9z M15.5,13
		c0,0.2-0.1,0.3-0.3,0.3h-2.3V10h2.3c0.2,0,0.3,0.1,0.3,0.3V13z"/>
</g>
</svg>
