<?xml version="1.0" encoding="utf-8"?>
<!-- Generator: Adobe Illustrator 26.0.0, SVG Export Plug-In . SVG Version: 6.00 Build 0)  -->
<svg version="1.1" id="Layer_1" xmlns="http://www.w3.org/2000/svg" xmlns:xlink="http://www.w3.org/1999/xlink" x="0px" y="0px"
	 viewBox="0 0 562 377" style="enable-background:new 0 0 562 377;" xml:space="preserve">
<style type="text/css">
	.st0{fill:#E1E2FE;fill-opacity:0.3;}
	.st1{opacity:0.58;fill:#3E479B;enable-background:new    ;}
	.st2{opacity:0.58;fill:#FA8617;enable-background:new    ;}
	.st3{opacity:0.15;}
	.st4{fill:#FFFFFF;filter:url(#Adobe_OpacityMaskFilter);}
	.st5{mask:url(#mask0_606_19699_00000181772357587692436760000003920681982069598876_);}
	.st6{fill:none;stroke:#2D293A;stroke-width:0.5;stroke-miterlimit:10;}
	.st7{fill:none;stroke:#B2B2B2;stroke-width:1;stroke-miterlimit:10;}
	.st8{fill:none;stroke:#F5851F;stroke-miterlimit:10;}
	.st9{opacity:0.15;fill:none;stroke:#F5851F;stroke-miterlimit:10;enable-background:new    ;}
	.st10{fill:#EDEDED;}
	.st11{fill:#FFFFFF;}
	.st12{fill:#FA8617;}
	.st13{opacity:0.66;fill:#737373;}
	.st14{fill:none;stroke:#FA8617;stroke-width:0.5;stroke-miterlimit:10;}
	.st15{opacity:0.49;fill:#D9DADA;}
	.st16{fill:#EAEAFE;}
	.st17{fill:#FEFFFE;}
	.st18{opacity:0.66;fill:#FEFFFE;}
	.st19{fill:#F6F6FF;}
	.st20{fill:#D9DADA;}
	.st21{fill:none;stroke:#FA8617;stroke-width:2;}
	.st22{opacity:0.66;fill:#D9DADA;}
</style>
<g>
	<g>
		<path class="st0" d="M347.2,8.9c0.2-7.3-5.5-13.4-12.7-13.6c-7.2-0.2-13.1,5.7-13.3,13c-0.2,7.3,5.5,13.4,12.7,13.6
			C341.1,22.1,347,16.3,347.2,8.9z"/>
		<path class="st0" d="M113.6,9c0.2,3.8,3.3,6.7,7.1,6.5c3.7-0.2,6.6-3.4,6.4-7.2c-0.2-3.8-3.3-6.7-7.1-6.5
			C116.3,2,113.4,5.2,113.6,9z"/>
		<path class="st0" d="M500.1,164c0.1,2.5,2.2,4.4,4.7,4.3c2.5-0.1,4.3-2.3,4.2-4.8s-2.2-4.4-4.7-4.3
			C501.9,159.4,500,161.5,500.1,164z"/>
		<path class="st0" d="M479.3,392.8c0.2-11.5-8.7-21.1-20.1-21.3c-11.3-0.2-20.7,8.9-20.9,20.5c-0.2,11.5,8.7,21.1,20.1,21.3
			C469.7,413.5,479.1,404.4,479.3,392.8z"/>
		<path class="st1" d="M298.2,0.8c1.2,0,2.2-1,2.2-2.2c0-1.2-1-2.2-2.2-2.2c-1.2,0-2.2,1-2.2,2.2C296-0.2,297,0.8,298.2,0.8z"/>
		<path class="st2" d="M35.5,292c2.5,0,4.5-2,4.5-4.5s-2-4.5-4.5-4.5s-4.5,2-4.5,4.5S33,292,35.5,292z"/>
		<path class="st1" d="M86.1,3.3c0.8,0,1.5-0.7,1.5-1.5c0-0.8-0.7-1.5-1.5-1.5S84.6,1,84.6,1.8C84.6,2.6,85.3,3.3,86.1,3.3z"/>
		<path class="st2" d="M424.1,18.7c1.4-2.7,0.3-5.9-2.4-7.3c-2.7-1.4-5.9-0.3-7.3,2.4c-1.4,2.7-0.3,5.9,2.4,7.3
			C419.5,22.4,422.7,21.4,424.1,18.7z"/>
		<path class="st1" d="M397.5,18.1c-0.2,1-1.2,1.6-2.1,1.4c-1-0.2-1.6-1.2-1.4-2.1c0.2-1,1.2-1.6,2.1-1.4
			C397.1,16.2,397.8,17.1,397.5,18.1z"/>
		<path class="st2" d="M69.1,357.9c-0.2,1-1.2,1.6-2.1,1.4c-1-0.2-1.6-1.2-1.4-2.1c0.2-1,1.2-1.6,2.1-1.4
			C68.7,356,69.3,356.9,69.1,357.9z"/>
		<g class="st3">
			<defs>
				<filter id="Adobe_OpacityMaskFilter" filterUnits="userSpaceOnUse" x="19.1" y="20.8" width="134.5" height="134.3">
					<feColorMatrix  type="matrix" values="1 0 0 0 0  0 1 0 0 0  0 0 1 0 0  0 0 0 1 0"/>
				</filter>
			</defs>
			
				<mask maskUnits="userSpaceOnUse" x="19.1" y="20.8" width="134.5" height="134.3" id="mask0_606_19699_00000181772357587692436760000003920681982069598876_">
				<path class="st4" d="M151.2,103c8.6-34.7-12.5-69.8-47.2-78.4C69.3,16,34.2,37.1,25.6,71.8c-8.6,34.7,12.5,69.8,47.2,78.4
					C107.5,158.8,142.6,137.7,151.2,103z"/>
			</mask>
			<g class="st5">
				<path class="st6" d="M153.1,21.1H19.3v133.8h133.8V21.1z"/>
				<path class="st6" d="M19.3,132.6H153"/>
				<path class="st6" d="M19.3,110.3H153"/>
				<path class="st6" d="M19.3,88H153"/>
				<path class="st6" d="M19.3,65.7H153"/>
				<path class="st6" d="M19.3,43.4H153"/>
				<path class="st6" d="M130.7,21.1v133.8"/>
				<path class="st6" d="M108.4,21.1v133.8"/>
				<path class="st6" d="M86.2,21.1v133.8"/>
				<path class="st6" d="M63.9,21.1v133.8"/>
				<path class="st6" d="M41.6,21.1v133.8"/>
				<path class="st7" d="M151.2,103c8.6-34.7-12.5-69.8-47.2-78.4C69.3,16,34.2,37.1,25.6,71.8c-8.6,34.7,12.5,69.8,47.2,78.4
					C107.5,158.8,142.6,137.7,151.2,103z"/>
			</g>
		</g>
		<path class="st8" d="M327.5,109.6c3.2,0,5.8-2.6,5.8-5.8c0-3.2-2.6-5.8-5.8-5.8s-5.8,2.6-5.8,5.8
			C321.7,107,324.3,109.6,327.5,109.6z"/>
		<path class="st9" d="M69.8,220.2c5.6,0,10.1-4.5,10.1-10.1c0-5.6-4.5-10.1-10.1-10.1c-5.6,0-10.1,4.5-10.1,10.1
			C59.7,215.7,64.2,220.2,69.8,220.2z"/>
		<path class="st10" d="M58.5,100.5H24.8l-13.6,7.2v-7.2H2.8c-0.7,0-1.4-0.3-1.9-0.8c-0.5-0.5-0.8-1.2-0.8-1.9V68
			c0-0.7,0.3-1.4,0.8-1.9c0.5-0.5,1.2-0.8,1.9-0.8h55.8c0.7,0,1.4,0.3,1.9,0.8c0.5,0.5,0.8,1.2,0.8,1.9v29.7c0,0.4,0,0.7-0.2,1.1
			c-0.1,0.3-0.3,0.7-0.6,0.9c-0.2,0.3-0.5,0.5-0.9,0.6C59.2,100.5,58.9,100.5,58.5,100.5z"/>
		<path class="st10" d="M33.1,130.7h32.6l13.2,7.2v-7.2H87c0.7,0,1.3-0.3,1.8-0.8c0.5-0.5,0.7-1.2,0.7-1.8V98.3
			c0-0.7-0.3-1.3-0.7-1.8c-0.5-0.5-1.1-0.8-1.8-0.8H33.1c-0.7,0-1.3,0.3-1.8,0.8c-0.5,0.5-0.7,1.2-0.7,1.8v29.7
			c0,0.7,0.3,1.3,0.7,1.8C31.8,130.4,32.4,130.7,33.1,130.7z"/>
		<path class="st11" d="M22,73H5.6v2.9H22V73z"/>
		<path class="st11" d="M50.1,85.2H5.6V88h44.5V85.2z"/>
		<path class="st11" d="M40.6,92.3H5.6v2.9h34.9V92.3z"/>
		<path class="st11" d="M16.6,78.3h-11v2.9h11V78.3z"/>
		<path class="st11" d="M67.7,103.7h16.4v-2.9H67.7V103.7z"/>
		<path class="st11" d="M39.7,115.9h44.5V113H39.7V115.9z"/>
		<path class="st11" d="M49.2,123h34.9v-2.9H49.2V123z"/>
		<path class="st11" d="M73.1,109h11v-2.9h-11V109z"/>
		<path class="st12" d="M93.4,78.2c0-0.7-0.3-1.5-0.7-2c-0.2-0.2-0.3-0.5-0.4-0.8c-0.1-0.3-0.1-0.6-0.1-0.9c0.1-0.7,0-1.5-0.4-2.2
			c-0.4-0.6-0.9-1.1-1.6-1.4c-0.3-0.1-0.5-0.3-0.8-0.5c-0.2-0.2-0.4-0.5-0.5-0.8c-0.3-0.7-0.8-1.2-1.4-1.6c-0.5-0.3-1.1-0.4-1.6-0.4
			h-0.5h-0.3c-0.5,0-1-0.2-1.3-0.5c-0.6-0.5-1.3-0.7-2-0.7s-1.5,0.3-2,0.7c-0.4,0.3-0.9,0.5-1.3,0.5h-0.3h-0.5
			c-0.6,0-1.2,0.2-1.7,0.4c-0.6,0.4-1.1,0.9-1.4,1.6c-0.1,0.3-0.3,0.5-0.5,0.8c-0.2,0.2-0.5,0.4-0.8,0.5c-0.7,0.3-1.2,0.8-1.6,1.4
			c-0.4,0.7-0.5,1.4-0.4,2.2c0,0.3,0,0.6-0.1,0.9c-0.1,0.3-0.2,0.5-0.4,0.8c-0.5,0.6-0.7,1.3-0.7,2.1c0,0.7,0.3,1.5,0.7,2.1
			c0.2,0.2,0.3,0.5,0.4,0.8c0.1,0.3,0.1,0.6,0,0.9c-0.1,0.7,0.1,1.5,0.4,2.2c0.4,0.6,0.9,1.1,1.6,1.4c0.3,0.1,0.5,0.3,0.8,0.5
			c0.2,0.2,0.4,0.5,0.5,0.7c0.3,0.7,0.8,1.3,1.4,1.6c0.5,0.3,1.1,0.4,1.6,0.4H78h0.3c0.5,0,1,0.2,1.4,0.5c0.6,0.5,1.3,0.7,2,0.7
			c0.7,0,1.5-0.2,2-0.7c0.4-0.3,0.9-0.5,1.4-0.5h0.3h0.5c0.6,0,1.1-0.2,1.6-0.4c0.6-0.4,1.1-1,1.4-1.6c0.1-0.3,0.3-0.5,0.5-0.7
			c0.2-0.2,0.5-0.4,0.8-0.5c0.7-0.3,1.3-0.8,1.6-1.4c0.4-0.7,0.5-1.4,0.4-2.2c0-0.3,0-0.6,0-0.9c0.1-0.3,0.2-0.5,0.4-0.8
			C93.2,79.7,93.4,78.9,93.4,78.2z M81.7,85.3c-0.5,0-0.9-0.2-1.2-0.5C80.2,84.4,80,84,80,83.6s0.2-0.9,0.5-1.2
			c0.3-0.3,0.8-0.5,1.2-0.5c0.5,0,0.9,0.2,1.2,0.5c0.3,0.3,0.5,0.8,0.5,1.2c0,0.2,0,0.5-0.1,0.7c-0.1,0.2-0.2,0.4-0.4,0.6
			c-0.2,0.2-0.4,0.3-0.6,0.4C82.2,85.3,82,85.4,81.7,85.3L81.7,85.3z M83,77.5c-0.3,1.8-0.4,2.8-0.4,3c0,0.2,0,0.5,0,0.6
			c-0.1,0.1-0.3,0.1-0.4,0h-0.6c-0.1,0.1-0.3,0.1-0.4,0c0,0,0-0.2,0-0.6c0-0.3,0-1-0.6-4.3C79.8,72.9,80,73,80,72.9
			c0-0.2,0.1-0.5,0.1-0.7c0.1-0.2,0.2-0.4,0.4-0.6c0.2-0.2,0.4-0.3,0.7-0.4c0.2-0.1,0.5-0.1,0.8-0.1c0.3,0,0.5,0,0.8,0.1
			c0.2,0.1,0.5,0.2,0.6,0.4c0.3,0.4,0.5,0.8,0.5,1.3c-0.2,1.5-0.4,3-0.7,4.5H83z"/>
		<path class="st13" d="M275.8,16.9h-18.9v83.9h18.9V16.9z"/>
		<path class="st13" d="M250.3,44.9h-18.9v55.9h18.9V44.9z"/>
		<path class="st13" d="M225.6,58.9h-18.9v42h18.9V58.9z"/>
		<path class="st13" d="M200.6,48.3h-18.9v52.6h18.9V48.3z"/>
		<path class="st13" d="M174.7,65.1h-18.9v35.8h18.9V65.1z"/>
		<path class="st14" d="M264.2,3.2l-25,14.9l-24.3,26.8l-23.7-14.1l-36.4,21.4"/>
		<path class="st15" d="M410.9,132H114.2v174.6h296.7V132z"/>
		<path class="st16" d="M239.5,21.6c1.8,0,3.2-1.4,3.2-3.2c0-1.8-1.4-3.2-3.2-3.2c-1.8,0-3.2,1.4-3.2,3.2
			C236.2,20.1,237.7,21.6,239.5,21.6z"/>
		<path class="st16" d="M263.2,7.1c1.8,0,3.2-1.4,3.2-3.2c0-1.8-1.4-3.2-3.2-3.2s-3.2,1.4-3.2,3.2C259.9,5.7,261.4,7.1,263.2,7.1z"
			/>
		<path class="st16" d="M214.7,47.1c1.8,0,3.2-1.4,3.2-3.2c0-1.8-1.4-3.2-3.2-3.2s-3.2,1.4-3.2,3.2
			C211.5,45.7,212.9,47.1,214.7,47.1z"/>
		<path class="st16" d="M191.1,34.1c1.8,0,3.2-1.4,3.2-3.2c0-1.8-1.4-3.2-3.2-3.2s-3.2,1.4-3.2,3.2
			C187.9,32.7,189.4,34.1,191.1,34.1z"/>
		<path class="st16" d="M155.8,54.7c1.8,0,3.2-1.4,3.2-3.2s-1.4-3.2-3.2-3.2c-1.8,0-3.2,1.4-3.2,3.2S154.1,54.7,155.8,54.7z"/>
		<path class="st17" d="M161.8,151.5h-28.3v3.9h28.3V151.5z"/>
		<path class="st17" d="M161.8,160.3h-28.3v3.9h28.3V160.3z"/>
		<path class="st17" d="M156,168h-22.4v3.9H156V168z"/>
		<path class="st17" d="M161.8,244.8h-28.3v3.9h28.3V244.8z"/>
		<path class="st17" d="M156,252.5h-22.4v3.9H156V252.5z"/>
		<path class="st18" d="M401.7,147.4H178.7v37.2h222.9V147.4z"/>
		<path class="st10" d="M253,156.5h-28.3v3.4H253V156.5z"/>
		<path class="st10" d="M253,164.2h-28.3v3.4H253V164.2z"/>
		<path class="st10" d="M247.1,171h-22.4v3.4h22.4V171z"/>
		<path class="st17" d="M265,177.9v-22.5h-1v22.5H265z"/>
		<path class="st10" d="M373.4,156.5h-96.8v3.4h96.8V156.5z"/>
		<path class="st10" d="M373.4,164.2h-96.8v3.4h96.8V164.2z"/>
		<path class="st10" d="M353.3,171h-76.7v3.4h76.7V171z"/>
		<path class="st10" d="M207.2,166.6c-0.1,1.8-0.8,3.5-1.9,4.9s-2.6,2.5-4.3,3.1c-1.7,0.6-3.5,0.7-5.2,0.2c-1.7-0.4-3.3-1.4-4.5-2.7
			c-1.2-1.3-2-2.9-2.3-4.7c-0.3-1.8-0.1-3.6,0.6-5.2c0.7-1.6,1.9-3,3.4-4c1.5-1,3.2-1.5,5-1.5c1,0,2,0.2,3,0.5l1.9-3.3
			c-1.6-0.6-3.2-1-4.9-1c-2.5,0-5,0.7-7.1,2.1c-2.1,1.4-3.8,3.4-4.8,5.7c-1,2.3-1.3,4.9-0.9,7.4c0.4,2.5,1.6,4.8,3.3,6.7
			c1.7,1.8,4,3.1,6.4,3.7c2.5,0.6,5,0.4,7.4-0.5c2.4-0.9,4.4-2.4,5.9-4.5c1.5-2,2.4-4.5,2.5-7H207.2z M212.5,156.5l-11.7,14
			c-0.1,0.1-0.2,0.3-0.4,0.3c-0.3,0.2-0.6,0.3-0.9,0.3c-0.3,0-0.7-0.1-1-0.3s-0.5-0.4-0.7-0.7l-4.5-5.6c-0.3-0.5-0.3-1-0.2-1.5
			c0.1-0.5,0.5-0.9,0.9-1.2c0.2-0.1,0.5-0.2,0.7-0.3c0.3,0,0.5,0,0.8,0c0.3,0.1,0.5,0.2,0.7,0.3c0.2,0.2,0.4,0.4,0.5,0.6l3.2,3.7
			L210,154c0.2-0.2,0.4-0.4,0.7-0.6c0.3-0.1,0.6-0.2,0.9-0.2c0.3,0,0.5,0.1,0.7,0.1c0.2,0.1,0.4,0.2,0.6,0.4
			c0.2,0.2,0.3,0.4,0.4,0.6c0.1,0.2,0.1,0.5,0.1,0.7C213.3,155.6,212.9,156.1,212.5,156.5L212.5,156.5z"/>
		<path class="st18" d="M401.7,192.1H178.7v37.2h222.9V192.1z"/>
		<path class="st10" d="M253,201.2h-28.3v3.4H253V201.2z"/>
		<path class="st10" d="M253,208.9h-28.3v3.4H253V208.9z"/>
		<path class="st10" d="M247.1,215.7h-22.4v3.4h22.4V215.7z"/>
		<path class="st19" d="M265,222.6v-22.5h-1v22.5H265z"/>
		<path class="st10" d="M373.4,201.2h-96.8v3.4h96.8V201.2z"/>
		<path class="st10" d="M373.4,208.9h-96.8v3.4h96.8V208.9z"/>
		<path class="st10" d="M353.3,215.7h-76.7v3.4h76.7V215.7z"/>
		<path class="st10" d="M207.2,211.3c-0.1,1.8-0.8,3.5-1.9,4.9s-2.6,2.5-4.3,3.1c-1.7,0.6-3.5,0.7-5.2,0.2c-1.7-0.4-3.3-1.4-4.5-2.7
			c-1.2-1.3-2-2.9-2.3-4.7c-0.3-1.8-0.1-3.6,0.6-5.2c0.7-1.6,1.9-3,3.4-4s3.2-1.5,5-1.5c1,0,2,0.2,3,0.5l1.9-3.3
			c-1.6-0.7-3.2-1-4.9-1c-2.5,0-5,0.7-7.1,2.1c-2.1,1.4-3.8,3.4-4.8,5.7c-1,2.3-1.3,4.9-0.9,7.4c0.4,2.5,1.6,4.8,3.3,6.7
			c1.7,1.8,4,3.1,6.4,3.7c2.5,0.6,5,0.4,7.4-0.5c2.4-0.9,4.4-2.4,5.9-4.5c1.5-2,2.4-4.5,2.5-7H207.2z M212.5,201.2L200.8,215
			c-0.1,0.1-0.2,0.2-0.4,0.3c-0.3,0.2-0.6,0.3-0.9,0.3c-0.3,0-0.7-0.1-1-0.3c-0.3-0.2-0.5-0.4-0.7-0.7l-4.5-5.6
			c-0.3-0.5-0.3-1-0.2-1.5c0.1-0.5,0.5-0.9,0.9-1.2c0.2-0.1,0.5-0.2,0.7-0.3c0.3,0,0.5,0,0.8,0c0.3,0.1,0.5,0.2,0.7,0.3
			c0.2,0.2,0.4,0.4,0.5,0.6l3.2,3.7l10.1-12.2c0.2-0.3,0.6-0.5,1-0.7c0.4-0.1,0.8-0.1,1.2,0c0.4,0.1,0.7,0.4,1,0.7
			c0.2,0.3,0.4,0.7,0.4,1.1C213.3,200.2,212.9,200.8,212.5,201.2L212.5,201.2z"/>
		<path class="st18" d="M401.7,238.7H178.7v37.2h222.9V238.7z"/>
		<path class="st20" d="M253,247.8h-28.3v3.4H253V247.8z"/>
		<path class="st20" d="M253,255.4h-28.3v3.4H253V255.4z"/>
		<path class="st20" d="M247.1,262.2h-22.4v3.4h22.4V262.2z"/>
		<path class="st20" d="M265,269.2v-22.5h-1v22.5H265z"/>
		<path class="st20" d="M373.4,247.8h-96.8v3.4h96.8V247.8z"/>
		<path class="st20" d="M373.4,255.4h-96.8v3.4h96.8V255.4z"/>
		<path class="st20" d="M353.3,262.2h-76.7v3.4h76.7V262.2z"/>
		<path class="st20" d="M207.2,257.9c-0.1,1.8-0.8,3.5-1.9,4.9s-2.6,2.5-4.3,3.1c-1.7,0.6-3.5,0.7-5.2,0.2c-1.7-0.4-3.3-1.4-4.5-2.7
			c-1.2-1.3-2-2.9-2.3-4.7c-0.3-1.8-0.1-3.6,0.6-5.2c0.7-1.6,1.9-3,3.4-4c1.5-1,3.2-1.5,5-1.5c1,0,2,0.2,3,0.5l1.9-3.3
			c-1.6-0.6-3.2-1-4.9-1c-2.5,0-5,0.7-7.1,2.1c-2.1,1.4-3.8,3.4-4.8,5.7c-1,2.3-1.3,4.9-0.9,7.4s1.6,4.8,3.3,6.7
			c1.7,1.8,4,3.1,6.4,3.7c2.5,0.6,5,0.4,7.4-0.5c2.4-0.9,4.4-2.4,5.9-4.5c1.5-2,2.4-4.5,2.5-7H207.2z M212.5,247.8l-11.7,13.8
			c-0.1,0.1-0.2,0.3-0.4,0.3c-0.3,0.2-0.6,0.3-0.9,0.3c-0.3,0-0.7-0.1-1-0.3c-0.3-0.2-0.5-0.4-0.7-0.7l-4.5-5.6
			c-0.3-0.5-0.3-1-0.2-1.5c0.1-0.5,0.5-0.9,0.9-1.2c0.2-0.1,0.5-0.2,0.7-0.3c0.3,0,0.5,0,0.8,0c0.3,0.1,0.5,0.2,0.7,0.3
			c0.2,0.2,0.4,0.4,0.5,0.6l3.2,3.7l10.1-12.2c0.2-0.2,0.4-0.4,0.7-0.6c0.3-0.1,0.6-0.2,0.9-0.2c0.3,0,0.5,0.1,0.7,0.1
			c0.2,0.1,0.4,0.2,0.6,0.4c0.2,0.2,0.3,0.4,0.4,0.6c0.1,0.2,0.1,0.5,0.1,0.7C213.3,246.8,212.9,247.4,212.5,247.8z"/>
		<path class="st20" d="M410.9,115.2H114.2V132h296.7V115.2z"/>
		<path class="st17" d="M137.9,127.2c2.4,0,4.4-2,4.4-4.4c0-2.4-2-4.4-4.4-4.4s-4.4,2-4.4,4.4C133.5,125.2,135.4,127.2,137.9,127.2z
			"/>
		<path class="st17" d="M150.4,127.2c2.4,0,4.4-2,4.4-4.4c0-2.4-2-4.4-4.4-4.4c-2.4,0-4.4,2-4.4,4.4
			C146.1,125.2,148,127.2,150.4,127.2z"/>
		<path class="st17" d="M162.2,127.2c2.4,0,4.4-2,4.4-4.4c0-2.4-2-4.4-4.4-4.4s-4.4,2-4.4,4.4C157.9,125.2,159.8,127.2,162.2,127.2z
			"/>
		<path class="st15" d="M466.9,123.8c5.8,0,11.5-1.7,16.4-4.9s8.7-7.9,10.9-13.3c2.2-5.4,2.8-11.4,1.7-17.1s-3.9-11-8.1-15.2
			c-4.1-4.1-9.4-7-15.1-8.1c-5.7-1.1-11.7-0.6-17.1,1.7c-5.4,2.2-10,6-13.3,10.9c-3.2,4.9-5,10.6-5,16.4c0,7.8,3.1,15.3,8.6,20.9
			C451.6,120.7,459.1,123.8,466.9,123.8z M466.9,78.4c3.1,0,6.2,0.9,8.8,2.7c2.6,1.7,4.7,4.2,5.9,7.1c1.2,2.9,1.5,6.1,0.9,9.2
			c-0.6,3.1-2.1,5.9-4.3,8.2c-2.2,2.2-5.1,3.8-8.1,4.4c-3.1,0.6-6.3,0.3-9.2-0.9c-2.9-1.2-5.4-3.3-7.1-5.9c-1.7-2.6-2.7-5.7-2.7-8.9
			c0-4.2,1.7-8.3,4.6-11.2C458.7,80.1,462.7,78.4,466.9,78.4z M466.9,144.7c9.9,0,19.6-3,27.9-8.5c8.3-5.5,14.7-13.4,18.5-22.6
			c3.8-9.2,4.8-19.3,2.9-29.1c-1.9-9.8-6.7-18.7-13.7-25.8c-7-7-16-11.8-25.7-13.8c-9.7-1.9-19.8-0.9-29,2.9
			c-9.2,3.8-17,10.3-22.5,18.5c-5.5,8.3-8.5,18-8.5,28c0,6.6,1.3,13.2,3.8,19.3c2.5,6.1,6.2,11.7,10.9,16.3
			c4.7,4.7,10.2,8.4,16.3,10.9C453.8,143.4,460.3,144.7,466.9,144.7z M466.9,58.6c7.1,0,14,2.1,19.9,6c5.9,3.9,10.5,9.5,13.2,16.1
			c2.7,6.6,3.5,13.8,2.1,20.7c-1.4,7-4.8,13.4-9.8,18.4c-5,5-11.4,8.5-18.3,9.8c-6.9,1.4-14.1,0.7-20.7-2
			c-6.5-2.7-12.1-7.3-16.1-13.2c-3.9-5.9-6-12.9-6-20c0-9.5,3.8-18.6,10.4-25.3S457.5,58.6,466.9,58.6z M466.9,104.7
			c-2,0-4-0.6-5.7-1.7c-1.7-1.1-3-2.7-3.7-4.6c-0.8-1.9-1-3.9-0.6-5.9s1.4-3.8,2.8-5.2c1.4-1.4,3.2-2.4,5.2-2.8c2-0.4,4-0.2,5.9,0.6
			c1.9,0.8,3.4,2.1,4.6,3.8c1.1,1.7,1.7,3.7,1.7,5.7c0,2.7-1.1,5.2-3,7.1c-1.9,1.9-4.5,2.9-7.1,2.9V104.7z"/>
		<path class="st20" d="M460.6,149.2v25.4c-0.1,0.9,0.1,1.7,0.3,2.5c0.3,0.8,0.7,1.5,1.3,2.2c0.6,0.6,1.3,1.1,2.1,1.5
			s1.6,0.5,2.5,0.5c0.9,0,1.7-0.2,2.5-0.5c0.8-0.3,1.5-0.8,2.1-1.5c0.6-0.6,1-1.4,1.3-2.2c0.3-0.8,0.4-1.7,0.3-2.5v-25.2
			C468.9,150.4,464.6,150.3,460.6,149.2z M448.1,146.8c-1.7-0.7-3.4-1.6-5-2.5l-3.2-1.8l-15.3,33c-0.5,1-0.7,2-0.6,3.1
			c0.1,1.1,0.4,2.1,0.9,3c0.6,0.9,1.3,1.7,2.3,2.2c0.9,0.5,2,0.8,3,0.8c1.3,0,2.5-0.3,3.6-1c1.1-0.7,1.9-1.6,2.5-2.7l15.3-32.6
			L448.1,146.8C448.1,146.8,448.1,146.9,448.1,146.8c0,0-0.1,0-0.1,0L448.1,146.8z M493,143.3l-3.2,1.7c-1.4,0.7-2.6,1.3-3.9,1.9
			l-0.7,0.3l-0.4,0.1l-3.4,1.4l15,32.3c0.5,1.1,1.3,2,2.3,2.7c1,0.7,2.2,1,3.4,1c1,0,1.9-0.2,2.8-0.6c1.5-0.7,2.7-2,3.3-3.6
			c0.6-1.6,0.5-3.4-0.2-4.9l-14.9-32.2H493z"/>
		<path class="st21" d="M482.7,83.6L471.1,91l7.3-11.6l0.3-0.5l-0.2-0.5c-1-2-1.3-4.3-0.9-6.6c0.4-2.2,1.4-4.3,3-5.9c0,0,0,0,0,0
			l30.7-30.7c1.6-1.6,3.7-2.6,5.9-2.9c2.2-0.4,4.5-0.1,6.5,0.9l0.6,0.3l0.5-0.5l3.8-3.8l0.7-0.7l-0.7-0.7l-3.1-3.1l-2.4-11.1
			l12-12.1l25.2,25.5l-12.1,12l-11.3-2.6l-2.9-2.9l-0.7-0.7l-0.7,0.7l-3.8,3.8l-0.5,0.5l0.3,0.6c1,2,1.3,4.3,0.9,6.6
			c-0.4,2.2-1.4,4.3-3,5.9c0,0,0,0,0,0L496,81.5l0,0c-1,1-2.2,1.8-3.5,2.4c-1.3,0.5-2.7,0.8-4.1,0.8h0c-1.6,0-3.2-0.4-4.7-1.1
			l-0.5-0.3L482.7,83.6z M532.2,24.1l0.7,0.7l0.7-0.7l8.4-8.4l0.7-0.7l-0.7-0.7l-6.1-6.2l-0.7-0.7l-0.7,0.7l-5.6,5.6l-0.4,0.4
			l0.1,0.5l1.3,6.9l0.1,0.3l0.2,0.2L532.2,24.1z M547.3,33.4l0.5,0.1l0.4-0.4l5.7-5.7l0.7-0.7l-0.7-0.7l-6.2-6.2L547,19l-0.7,0.7
			l-8.4,8.4l-0.7,0.7l0.7,0.7l2.2,2.2l0.2,0.2l0.3,0.1L547.3,33.4z"/>
		<path class="st22" d="M443.6,249.7c5.3,0,10.4,1.6,14.8,4.5c4.4,2.9,7.8,7.1,9.8,12c2,4.9,2.5,10.2,1.5,15.4
			c-1,5.2-3.6,9.9-7.3,13.7c-3.7,3.7-8.5,6.3-13.6,7.3c-5.2,1-10.5,0.5-15.4-1.5c-4.9-2-9-5.4-12-9.8c-2.9-4.4-4.5-9.6-4.5-14.8
			c0-7.1,2.8-13.9,7.8-18.9C429.8,252.6,436.5,249.7,443.6,249.7z M443.6,241.4c-6.9,0-13.7,2.1-19.4,5.9
			c-5.8,3.9-10.2,9.3-12.9,15.7c-2.6,6.4-3.3,13.5-2,20.3c1.4,6.8,4.7,13.1,9.6,18c4.9,4.9,11.1,8.2,17.9,9.6
			c6.8,1.4,13.8,0.7,20.2-2c6.4-2.7,11.9-7.2,15.7-12.9c3.8-5.8,5.9-12.6,5.9-19.5c0-9.3-3.7-18.2-10.3-24.8
			C461.8,245,452.9,241.4,443.6,241.4z"/>
		<path class="st12" d="M38.4,356.8l18-18l1.6,1.6l3.9-3.9c-8.2-10.1-13.1-22.9-13.1-36.9c0-32.4,26.2-58.6,58.6-58.6
			c32.4,0,58.6,26.2,58.6,58.6c0,32.3-26.2,58.6-58.6,58.6c-14,0-26.8-4.9-36.9-13.1l-3.9,3.9l1.6,1.6l-18,18
			c-1.6,1.6-3.8,2.4-5.9,2.4c-2.1,0-4.3-0.8-5.9-2.4C35.2,365.3,35.2,360,38.4,356.8z M107.4,350c27.9,0,50.5-22.6,50.5-50.5
			c0-27.9-22.6-50.5-50.5-50.5c-27.9,0-50.5,22.6-50.5,50.5C57,327.4,79.5,350,107.4,350z"/>
		<path class="st12" d="M443.6,241.4v8.4c5.3,0,10.4,1.6,14.8,4.5c4.4,2.9,7.8,7.1,9.8,12c2,4.9,2.5,10.2,1.5,15.4
			c-1,5.2-3.6,9.9-7.3,13.7c-3.7,3.7-8.5,6.3-13.6,7.3c-5.2,1-10.5,0.5-15.4-1.5c-4.9-2-9-5.4-12-9.8c-2.9-4.4-4.5-9.6-4.5-14.8
			h-8.4c0,6.9,2.1,13.7,5.9,19.5c3.8,5.8,9.3,10.3,15.7,12.9c6.4,2.7,13.4,3.4,20.2,2c6.8-1.4,13-4.7,17.9-9.6
			c4.9-4.9,8.2-11.2,9.6-18c1.4-6.8,0.7-13.9-2-20.3c-2.6-6.4-7.1-11.9-12.9-15.7C457.3,243.4,450.5,241.4,443.6,241.4z"/>
	</g>
</g>
</svg>
