<svg width="1920" height="666" viewBox="0 0 1920 666" fill="none" xmlns="http://www.w3.org/2000/svg">
<g opacity="0.5" clip-path="url(#clip0_606_19192)">
<g clip-path="url(#clip1_606_19192)">
<path d="M1891.45 -203.956C1751.54 -239.295 1613.31 -129.727 1516.38 -37.3058C1438.92 36.542 1360.45 111.361 1298.39 198.843C1235.3 287.852 1181.41 384.3 1104.54 462.914C1065.55 502.782 1020.81 537.443 970.716 561.13C868.556 609.348 751.581 608.472 642.545 590.702C484.537 564.929 335.419 506.931 192.893 439.002C33.3167 363 -127.533 289.527 -289.656 218.582C-301.799 213.265 -314.427 207.869 -327.887 208.311C-341.348 208.754 -355.85 216.842 -359.372 229.975C-363.154 244.133 -353.43 257.569 -343.649 267.894C-304.575 309.242 -255.893 340.155 -207.529 370.253" stroke="url(#paint0_linear_606_19192)" stroke-width="1.5" stroke-miterlimit="10"/>
<path d="M1893.88 -194.542C1755.14 -228.873 1617.91 -120.31 1521.24 -28.7185C1444.22 44.3051 1366.07 118.347 1304.14 204.655C1241.18 292.505 1187.55 387.903 1110.63 465.056C1071.52 504.367 1026.65 537.795 976.83 560.243C875.392 606.298 759.81 603.278 651.754 584.246C600.549 574.835 549.857 562.821 499.875 548.248C397.417 518.735 298.275 479.203 202.129 435.714C42.5354 362.975 -117.713 292.942 -278.615 225.616C-290.647 220.562 -303.201 215.485 -316.511 216.133C-329.821 216.782 -344.238 224.989 -347.622 238.133C-351.423 252.9 -341.21 266.834 -330.856 277.568C-289.808 320.193 -236.607 351.561 -188.601 384.234" stroke="url(#paint1_linear_606_19192)" stroke-width="0.25" stroke-miterlimit="10"/>
<path d="M1896.3 -185.104C1758.7 -218.356 1622.52 -110.883 1526.2 -20.2353C1449.54 52.0777 1371.78 125.219 1309.83 210.418C1247.01 297.142 1193.61 391.472 1116.73 467.084C1077.36 505.818 1032.39 537.856 982.914 559.25C882.129 602.785 767.937 598.387 660.884 577.755C609.82 567.98 559.572 554.863 509.404 540.681C407.129 511.541 307.623 473.98 211.371 432.387C51.6083 363.32 -108.07 296.754 -267.664 232.692C-279.584 227.9 -292.022 223.11 -305.257 223.954C-318.492 224.798 -332.749 233.135 -335.995 246.289C-339.796 261.699 -329.12 276.112 -318.085 287.309C-275.065 331.209 -217.339 363.057 -169.739 398.314" stroke="url(#paint2_linear_606_19192)" stroke-width="0.25" stroke-miterlimit="10"/>
<path d="M1898.74 -175.681C1762.36 -207.98 1627.11 -101.466 1531.15 -11.6999C1454.84 59.8406 1377.38 132.233 1315.63 216.282C1252.93 301.861 1199.76 395.108 1122.9 469.237C1083.31 507.431 1038.21 538.198 989.095 558.387C888.951 599.662 776.183 593.412 670.14 571.352C619.434 560.804 569.385 547.18 519.092 533.121C416.895 504.385 317.052 468.605 220.612 429.061C60.7239 363.507 -98.6829 300.208 -256.705 239.754C-268.522 235.239 -280.877 230.753 -293.895 231.828C-306.913 232.902 -321.095 241.373 -324.269 254.513C-328.081 270.579 -316.9 285.439 -305.25 297.073C-260.175 342.161 -198.006 374.577 -150.702 412.286" stroke="url(#paint3_linear_606_19192)" stroke-width="0.25" stroke-miterlimit="10"/>
<path d="M1901.13 -166.286C1765.93 -197.577 1631.73 -92.0765 1536.03 -3.18848C1460.12 67.5847 1383.02 139.043 1321.3 222.098C1258.74 306.527 1205.82 398.663 1128.96 471.36C1089.14 509.005 1043.99 538.349 995.142 557.475C895.678 596.435 784.318 588.383 679.238 564.904C628.851 553.641 579.04 539.453 528.555 525.615C426.545 497.214 326.341 463.22 229.77 425.763C69.8201 363.691 -89.1383 303.762 -245.724 246.874C-257.443 242.612 -269.691 238.427 -282.568 239.721C-295.446 241.015 -309.562 249.572 -312.57 262.743C-316.363 279.422 -304.643 294.71 -292.45 306.857C-245.665 353.457 -178.698 386.103 -131.829 426.439" stroke="url(#paint4_linear_606_19192)" stroke-width="0.25" stroke-miterlimit="10"/>
<path d="M1903.61 -156.833C1769.58 -187.102 1636.36 -82.5922 1540.97 5.40878C1465.45 75.3908 1388.75 146.02 1327.12 227.911C1264.68 311.203 1211.92 402.323 1135.14 473.46C1096.43 509.692 1050.96 537.935 1001.33 556.574C902.564 593.189 792.522 583.317 688.523 558.458C638.47 546.489 588.83 531.836 538.244 518.055C436.262 490.315 335.898 457.87 239.11 422.443C79.0852 363.842 -79.4725 307.294 -234.716 253.865C-246.347 249.87 -258.507 246.014 -271.225 247.499C-283.942 248.985 -297.959 257.671 -300.882 270.9C-304.656 288.193 -292.546 304.036 -279.652 316.555C-230.606 364.129 -159.417 397.546 -112.925 440.424" stroke="url(#paint5_linear_606_19192)" stroke-width="0.25" stroke-miterlimit="10"/>
<path d="M1906.04 -147.41C1773.2 -176.67 1640.98 -73.1795 1545.87 13.8534C1470.77 83.1633 1394.4 152.962 1332.85 233.727C1270.58 315.827 1218 405.925 1141.27 475.583C1102.5 511.007 1056.98 538.243 1007.44 555.662C909.341 589.953 800.76 578.294 697.724 552.016C647.977 539.321 598.536 524.099 547.878 510.455C446.002 483.14 345.342 452.504 248.381 419.074C88.309 363.964 -69.848 310.797 -223.703 260.88C-235.265 257.18 -247.294 253.558 -259.865 255.287C-272.437 257.017 -286.336 265.804 -289.097 278.977C-292.942 296.864 -280.303 313.211 -266.771 326.163C-215.742 375 -140.038 408.91 -93.9195 454.353" stroke="url(#paint6_linear_606_19192)" stroke-width="0.25" stroke-miterlimit="10"/>
<path d="M1908.47 -137.972C1776.8 -166.223 1645.58 -63.7381 1550.91 22.4946C1476.07 90.9266 1400.06 159.891 1338.6 239.553C1276.43 320.56 1224.05 409.518 1147.39 477.683C1108.57 512.328 1063.01 538.57 1013.56 554.761C916.197 586.75 808.929 573.247 706.832 545.616C657.428 532.201 608.258 516.458 557.361 502.983C455.667 476.04 354.788 447.225 257.54 415.837C97.4153 364.195 -60.3933 314.393 -212.831 268.008C-224.252 264.528 -236.202 261.249 -248.624 263.184C-261.045 265.12 -274.831 274.046 -277.511 287.252C-281.3 305.82 -268.283 322.527 -254.099 335.984C-201.059 386.102 -120.788 420.52 -75.1128 468.481" stroke="url(#paint7_linear_606_19192)" stroke-width="0.25" stroke-miterlimit="10"/>
<path d="M1910.9 -128.548C1780.41 -155.777 1650.02 -54.4887 1555.76 30.9862C1481.25 98.5409 1405.72 166.82 1344.34 245.355C1282.3 325.226 1230.09 413.115 1153.51 479.807C1114.62 513.66 1069.01 538.895 1019.67 553.849C922.986 583.585 817.169 568.248 716.097 539.136C666.999 524.996 618.056 508.703 567.03 495.389C465.413 468.913 364.254 441.732 266.846 412.473C106.755 364.356 -50.7995 317.877 -201.772 275.013C-213.105 271.801 -224.958 268.837 -237.229 270.978C-249.499 273.119 -263.163 282.169 -265.743 295.381C-269.509 314.587 -256.002 331.854 -241.221 345.654C-186.236 397.029 -101.483 431.898 -56.1241 482.462" stroke="url(#paint8_linear_606_19192)" stroke-width="0.25" stroke-miterlimit="10"/>
<path d="M1913.33 -119.11C1784 -145.364 1654.62 -45.0854 1560.67 39.5405C1486.54 106.294 1411.38 173.763 1350.09 251.181C1288.18 329.902 1236.13 416.713 1159.64 481.916C1120.69 515.002 1075.02 539.234 1025.78 552.938C929.864 580.292 825.279 563.138 725.298 532.694C676.449 517.79 627.763 500.966 576.592 487.803C475.177 461.733 373.68 436.395 276.103 409.157C115.922 364.44 -41.2799 321.412 -190.787 282.071C-202.022 279.111 -213.769 276.448 -225.884 278.818C-238 281.189 -251.583 290.397 -254.035 303.572C-257.778 323.415 -243.813 341.138 -228.402 355.385C-171.449 408.013 -82.1674 443.384 -37.1857 496.491" stroke="url(#paint9_linear_606_19192)" stroke-width="0.25" stroke-miterlimit="10"/>
<path d="M1915.78 -109.715C1787.63 -134.898 1659.17 -35.6968 1565.61 48.0523C1491.82 114.048 1416.99 180.663 1355.82 256.997C1294.05 334.568 1242.16 420.287 1165.75 484.03C1124.48 518.472 1078.95 539.665 1031.91 552.036C936.691 577.07 833.459 558.077 734.426 526.204C685.953 510.623 637.495 493.249 586.166 480.228C484.909 454.596 383.146 431.025 285.333 405.845C125.139 364.6 -31.7765 324.938 -179.795 289.114C-190.942 286.422 -202.562 284.031 -214.57 286.64C-226.578 289.249 -239.914 298.459 -242.348 311.73C-246.081 332.201 -231.664 350.417 -215.615 365.098C-156.679 418.988 -62.8723 454.838 -18.2776 510.501" stroke="url(#paint10_linear_606_19192)" stroke-width="0.25" stroke-miterlimit="10"/>
<path d="M1918.2 -100.263C1791.24 -124.452 1663.79 -26.246 1570.53 56.5922C1497.13 121.811 1422.7 187.621 1361.57 262.809C1299.93 339.258 1248.15 423.879 1171.87 486.153C1130.34 520.041 1084.79 539.893 1038.02 551.125C943.542 573.843 841.618 552.982 743.681 519.8C695.509 503.47 647.336 485.523 595.815 472.724C494.627 447.449 392.572 425.712 294.573 402.519C134.374 364.732 -22.312 328.458 -168.813 296.172C-179.876 293.723 -191.414 291.698 -203.233 294.456C-215.052 297.215 -228.328 306.673 -230.647 319.896C-234.367 341.019 -219.492 359.691 -202.804 374.805C-141.909 429.962 -43.5447 466.273 0.64383 524.519" stroke="url(#paint11_linear_606_19192)" stroke-width="0.25" stroke-miterlimit="10"/>
<path d="M1920.62 -90.8251C1794.84 -113.992 1668.4 -16.8572 1575.46 65.118C1502.42 129.55 1428.35 194.563 1367.31 268.625C1305.84 343.953 1254.15 427.447 1177.95 488.324C1136.14 521.696 1090.57 540.192 1044.1 550.294C950.361 570.697 849.746 547.968 752.833 513.429C704.967 496.373 656.983 477.933 605.391 465.209C504.361 440.312 402.098 420.257 303.829 399.202C143.612 364.864 -12.8547 331.993 -157.833 303.205C-168.794 301.033 -180.234 299.323 -191.903 302.287C-203.571 305.251 -216.711 314.844 -218.944 328.063C-222.626 349.833 -207.327 368.979 -190.001 384.527C-127.147 440.951 -24.2771 477.769 19.5675 538.539" stroke="url(#paint12_linear_606_19192)" stroke-width="0.25" stroke-miterlimit="10"/>
<path d="M1923.06 -81.401C1798.46 -103.573 1672.98 -7.44898 1580.38 73.6584C1507.71 137.304 1433.82 201.344 1373.09 274.395C1311.51 348.461 1260.13 431.03 1184.13 490.387C1142.04 523.219 1096.48 540.345 1050.27 549.322C957.289 567.419 857.969 542.812 762.08 506.916C714.51 489.15 666.816 470.16 615.022 457.611C514.093 433.176 411.568 414.912 313.083 395.886C152.886 365.001 -3.42289 335.532 -146.837 310.273C-157.724 308.358 -169.033 306.944 -180.589 310.171C-192.146 313.397 -205.11 323.067 -207.258 336.283C-210.907 358.676 -195.155 378.316 -177.214 394.301C-112.377 451.987 -4.98275 489.284 38.4749 552.61" stroke="url(#paint13_linear_606_19192)" stroke-width="0.25" stroke-miterlimit="10"/>
<path d="M1925.52 -72.0198C1802.08 -93.1409 1677.58 1.9685 1585.37 82.2467C1513.09 145.115 1439.54 208.311 1378.88 280.311C1317.46 353.185 1266.17 434.651 1190.31 492.525C1147.95 524.841 1102.36 540.625 1056.45 548.459C964.138 564.169 866.08 537.64 771.266 500.464C724.007 481.935 676.536 462.433 624.603 450.059C523.813 426.029 421.065 409.5 322.325 392.56C162.142 365.105 6.00566 339.11 -135.857 317.307C-146.656 315.659 -157.882 314.55 -169.245 317.949C-180.607 321.349 -193.454 331.181 -195.507 344.441C-199.142 367.486 -182.933 387.581 -164.357 403.976C-97.5568 462.953 14.3854 500.724 57.4561 566.606" stroke="url(#paint14_linear_606_19192)" stroke-width="0.25" stroke-miterlimit="10"/>
<path d="M1927.92 -62.5397C1805.68 -82.6949 1682.18 11.3714 1590.22 90.7383C1518.3 152.82 1445.13 215.191 1384.54 286.079C1323.25 357.794 1272.07 438.176 1196.36 494.6C1153.71 526.367 1108.14 540.777 1062.49 547.499C971.031 560.971 874.296 532.584 780.445 494.05C733.454 474.728 686.258 454.729 634.205 442.502C533.54 418.868 430.549 404.101 331.555 389.248C171.411 365.218 15.366 342.601 -124.875 324.364C-135.6 322.974 -146.705 322.175 -157.907 325.766C-169.468 329.487 -181.839 339.352 -183.849 352.578C-187.475 376.252 -170.813 396.84 -151.599 413.668C-82.825 473.922 33.6559 512.182 76.3396 580.62" stroke="url(#paint15_linear_606_19192)" stroke-width="0.25" stroke-miterlimit="10"/>
<path d="M1930.36 -53.116C1809.29 -72.2485 1686.78 20.7888 1595.15 99.2641C1523.62 160.569 1450.78 222.11 1390.31 291.877C1329.13 362.432 1278.08 441.63 1202.5 496.671C1159.57 527.936 1114.01 540.986 1068.63 546.569C977.931 557.735 882.472 527.437 789.659 487.556C743.011 467.514 696.034 446.979 643.813 434.907C543.245 411.712 440.13 398.747 340.81 385.931C180.715 365.312 24.6744 346.201 -113.892 331.421C-124.533 330.274 -135.569 329.771 -146.578 333.597C-158.012 337.528 -170.208 347.533 -172.147 360.745C-175.716 385.099 -158.625 406.124 -138.787 423.376C-68.0634 484.91 52.9373 523.626 95.2817 594.61" stroke="url(#paint16_linear_606_19192)" stroke-width="0.25" stroke-miterlimit="10"/>
<path d="M1932.79 -43.6923C1812.91 -61.8163 1691.38 30.1921 1600.11 107.786C1528.92 168.294 1456.44 229.001 1396.05 297.679C1335.01 367.098 1283.98 445.241 1208.62 498.795C1165.36 529.544 1119.87 541.209 1074.74 545.657C984.836 554.523 890.639 522.304 798.859 481.114C752.522 460.309 705.792 439.257 653.417 427.35C553.022 404.542 449.574 393.258 350.113 382.606C190.057 365.412 34.0547 349.787 -102.842 338.503C-113.38 337.571 -124.291 337.464 -135.173 341.438C-146.475 345.603 -158.506 355.7 -160.368 368.922C-163.9 393.923 -146.342 415.452 -125.908 433.108C-53.2255 495.909 72.2669 535.061 114.248 608.658" stroke="url(#paint17_linear_606_19192)" stroke-width="0.25" stroke-miterlimit="10"/>
<path d="M1935.22 -34.2544C1816.51 -51.37 1695.94 39.6662 1605.05 116.383C1534.24 176.105 1462.12 235.978 1401.82 303.562C1340.9 371.822 1289.92 448.857 1214.76 500.966C1171.24 531.146 1125.75 541.49 1080.87 544.841C991.749 551.421 898.804 517.233 808.063 474.757C762.012 453.193 715.529 431.626 663.024 419.879C562.721 397.423 459.046 387.912 359.306 379.288C199.308 365.491 43.2444 353.348 -91.9294 345.513C-102.418 344.904 -113.179 345.065 -123.92 349.259C-135.162 353.61 -146.951 363.87 -148.742 377.079C-152.237 402.727 -134.297 424.701 -113.181 442.819C-38.5258 506.897 91.5721 546.5 133.094 622.667" stroke="url(#paint18_linear_606_19192)" stroke-width="0.25" stroke-miterlimit="10"/>
<path d="M1937.65 -24.8307C1820.1 -40.957 1700.57 49.027 1609.94 124.88C1539.5 183.839 1467.71 242.882 1407.51 309.35C1346.71 376.449 1295.79 452.362 1220.85 503.047C1177 532.696 1131.57 541.708 1086.96 543.873C998.624 548.19 906.946 512.043 817.224 468.249C771.498 445.931 725.261 423.847 672.58 412.27C572.473 390.258 468.574 382.481 368.546 375.962C208.606 365.562 52.5513 357.01 -80.9374 352.556C-91.3614 352.22 -102.04 352.747 -112.582 357.075C-123.65 361.69 -135.312 372.037 -137.051 385.26C-140.498 411.542 -122.124 433.976 -100.37 452.527C-23.7652 517.886 110.842 558.02 152.016 636.686" stroke="url(#paint19_linear_606_19192)" stroke-width="0.25" stroke-miterlimit="10"/>
<path d="M1940.09 -15.4067C1823.74 -30.4911 1705.16 58.4208 1614.89 133.439C1544.84 191.607 1473.4 249.831 1413.29 315.181C1352.61 381.135 1301.72 455.907 1226.98 505.18C1182.84 534.295 1137.48 541.961 1093.11 542.991C1005.54 544.988 915.108 506.886 826.367 461.768C780.937 438.677 734.952 416.101 682.127 404.675C582.192 383.112 478.093 377.064 377.801 372.646C217.915 365.619 61.826 360.691 -69.9539 359.614C-80.2754 359.554 -90.8224 360.315 -101.253 364.907C-112.204 369.746 -123.671 380.203 -125.348 393.427C-128.758 420.356 -109.936 443.26 -87.5814 462.239C-9.0034 528.875 130.153 569.483 170.939 650.706" stroke="url(#paint20_linear_606_19192)" stroke-width="0.25" stroke-miterlimit="10"/>
<path d="M1942.51 -5.96896C1827.34 -20.0449 1709.77 67.8476 1619.81 141.918C1550.1 199.341 1479.02 256.73 1419 320.978C1358.44 385.796 1307.57 459.403 1233.09 507.27C1188.6 535.859 1143.31 542.189 1099.19 542.06C1012.46 541.809 923.278 501.715 835.621 455.364C790.488 431.501 744.75 408.407 691.785 397.157C591.919 375.951 487.564 371.595 387.031 369.334C227.245 365.67 71.0425 364.272 -58.9627 366.657C-69.2624 366.84 -79.6553 367.955 -89.9257 372.737C-100.769 377.815 -112.043 388.384 -113.648 401.594C-117.006 429.18 -97.7837 452.562 -74.7806 471.961C5.77057 539.873 149.461 580.946 189.86 664.725" stroke="url(#paint21_linear_606_19192)" stroke-width="0.25" stroke-miterlimit="10"/>
<path d="M1944.95 3.45491C1830.97 -9.62678 1714.37 77.251 1624.71 150.486C1555.41 207.09 1484.68 263.659 1424.74 326.804C1364.31 390.463 1313.46 462.918 1239.2 509.384C1194.39 537.428 1149.17 542.436 1105.32 541.158C1019.39 538.654 931.435 496.535 844.807 448.913C799.985 424.286 754.497 400.7 701.365 389.605C601.648 368.79 497.136 366.193 396.267 366.046C236.621 365.751 80.174 368.042 -47.979 373.715C-58.2047 374.155 -68.4764 375.58 -78.5963 380.568C-89.3131 385.857 -100.388 396.56 -101.946 409.761C-105.266 437.994 -85.596 461.908 -61.968 481.668C20.5325 550.862 168.747 592.414 208.784 678.744" stroke="url(#paint22_linear_606_19192)" stroke-width="0.25" stroke-miterlimit="10"/>
<path d="M1947.43 12.9072C1834.61 0.862397 1719.01 86.6971 1629.67 159.055C1560.72 214.877 1490.37 270.607 1430.48 332.706C1370.18 395.229 1319.28 466.58 1245.33 511.593C1200.18 539.097 1155.05 542.779 1111.42 540.347C1026.34 535.495 939.617 491.349 854.008 442.409C809.482 417.009 764.241 392.906 710.969 381.986C611.391 361.639 506.666 360.762 405.528 362.691C245.935 365.77 89.3487 371.778 -37.0093 380.763C-47.1564 381.484 -57.3212 383.209 -67.257 388.385C-77.8522 393.922 -88.7185 404.745 -90.2428 417.928C-93.5021 446.803 -73.4452 471.125 -49.1648 491.39C35.2851 561.864 188.058 603.877 227.707 692.763" stroke="url(#paint23_linear_606_19192)" stroke-width="0.25" stroke-miterlimit="10"/>
<path d="M1949.81 22.3161C1838.17 11.2797 1723.59 96.1047 1634.55 167.566C1566 222.607 1495.99 277.507 1436.23 338.432C1375.98 399.747 1325.18 469.92 1251.46 513.578C1206.01 540.609 1160.95 542.884 1117.55 539.345C1033.21 532.302 947.782 486.155 863.196 436.042C818.971 409.831 773.996 385.246 720.519 374.476C621.076 354.449 516.146 355.278 414.739 359.346C255.286 365.731 98.4784 375.548 -26.0177 387.806C-36.1242 388.804 -46.0817 390.773 -55.9293 396.216C-66.4074 401.977 -77.1273 412.921 -78.5517 426.109C-81.7496 455.627 -61.2685 480.423 -36.3636 501.112C50.0453 572.853 207.366 615.34 246.629 706.782" stroke="url(#paint24_linear_606_19192)" stroke-width="0.25" stroke-miterlimit="10"/>
<path d="M1952.24 31.7402C1841.79 21.7123 1728.14 105.47 1639.52 176.035C1571.33 230.327 1501.67 284.37 1442 344.191C1381.95 404.381 1331.06 473.35 1257.6 515.674C1211.78 542.073 1166.81 543.193 1123.7 538.377C1040.26 529.163 955.997 480.889 872.419 429.534C828.544 402.565 783.782 377.482 730.189 366.883C630.924 347.204 525.766 349.805 424.022 356.049C264.547 365.797 107.59 379.347 -15.0347 394.864C-25.413 395.877 -35.4745 399.002 -44.6005 404.047C-54.9144 410.085 -65.4777 421.073 -66.85 434.276C-69.9961 464.451 -49.1048 489.712 -23.5517 510.82C64.8207 583.852 226.652 626.808 265.522 720.844" stroke="url(#paint25_linear_606_19192)" stroke-width="0.25" stroke-miterlimit="10"/>
<path d="M1954.68 41.1638C1845.39 32.1586 1732.78 114.916 1644.4 184.632C1576.61 238.119 1507.28 291.346 1447.72 350.06C1387.79 409.104 1336.83 476.85 1263.68 517.83C1217.51 543.704 1172.7 543.474 1129.79 537.532C1047.16 526.098 964.164 475.695 881.581 423.149C837.983 395.373 793.444 369.778 739.754 359.383C640.576 340.156 535.252 344.407 433.264 352.723C273.923 365.754 116.688 383.197 -4.04109 401.907C-14.3519 403.234 -24.2888 406.629 -33.2567 411.888C-43.5102 418.112 -53.8226 429.249 -55.1472 442.443C-58.2177 473.27 -36.9402 499 -10.7343 520.551C79.6017 594.874 245.991 638.29 284.503 734.839" stroke="url(#paint26_linear_606_19192)" stroke-width="0.25" stroke-miterlimit="10"/>
<path d="M1957.1 50.5776C1849 42.5809 1737.37 124.309 1649.31 193.162C1581.91 245.896 1512.94 298.274 1453.46 355.862C1393.63 413.751 1342.67 480.336 1269.78 519.934C1223.25 545.234 1178.54 543.711 1135.87 536.601C1054.08 522.957 972.284 470.509 890.753 416.687C847.456 388.101 803.216 362.066 749.32 351.821C650.329 332.991 544.787 338.937 442.51 349.42C283.252 365.72 125.78 387.085 6.94271 408.964C-3.29984 410.594 -13.1146 414.25 -21.9271 419.718C-32.0636 426.167 -42.2102 437.396 -43.4928 450.681C-46.5115 482.164 -24.8144 508.345 1.9734 530.291C94.2588 605.894 265.196 649.785 303.364 748.919" stroke="url(#paint27_linear_606_19192)" stroke-width="0.25" stroke-miterlimit="10"/>
<path d="M1959.54 60.0251C1852.62 53.0368 1741.98 133.736 1654.25 201.698C1587.21 253.659 1518.59 305.193 1459.2 361.702C1399.53 418.436 1348.48 483.779 1275.94 522.063C1229.02 546.808 1184.4 543.973 1142.02 535.719C1061.06 519.879 980.484 465.295 899.966 410.255C856.99 380.891 812.986 354.353 758.937 344.274C660.057 325.83 554.33 333.454 451.75 346.094C292.608 365.705 134.843 391.017 17.8823 416.055C7.71223 418.006 -1.98086 421.918 -10.656 427.573C-20.6707 434.27 -30.5949 445.629 -31.8384 458.795C-34.7958 490.922 -12.6981 517.581 14.7567 539.979C109.13 616.813 284.563 661.225 322.321 762.858" stroke="url(#paint28_linear_606_19192)" stroke-width="0.25" stroke-miterlimit="10"/>
<path d="M1961.97 69.4488C1856.2 63.464 1746.58 143.164 1659.2 210.257C1592.53 261.432 1524.28 312.141 1464.97 367.523C1405.42 423.122 1354.31 487.256 1282.02 524.158C1234.76 548.338 1190.31 544.272 1148.07 534.831C1067.95 516.805 988.635 460.091 909.126 403.808C866.451 373.633 822.704 346.626 768.501 336.712C669.794 318.655 563.849 327.975 461.004 342.777C301.931 365.648 143.914 394.995 28.9027 423.055C18.8247 425.328 9.27764 429.517 0.78116 435.395C-9.12614 442.33 -18.8324 453.796 -20.0095 466.987C-22.8817 499.751 -0.383689 526.89 27.6956 549.711C123.889 627.863 303.909 672.693 341.256 776.949" stroke="url(#paint29_linear_606_19192)" stroke-width="0.25" stroke-miterlimit="10"/>
<path d="M1964.4 78.863C1859.84 73.9155 1751.15 152.538 1664.09 218.778C1597.82 269.147 1529.91 319.051 1470.69 373.33C1411.46 427.609 1360.03 490.618 1288.17 526.277C1240.5 549.893 1196.22 544.573 1154.24 533.896C1075.02 513.747 996.874 454.821 918.365 397.371C876.005 366.394 832.486 338.9 778.119 329.165C679.604 311.528 573.393 322.492 470.197 339.522C311.236 365.68 152.91 399.088 39.8104 430.165C29.8288 432.734 20.4184 437.154 12.0685 443.197C2.29247 450.367 -7.23373 461.934 -8.34903 475.125C-11.1071 508.485 11.7386 536.149 40.4661 559.39C138.595 638.875 323.192 684.137 360.166 790.896" stroke="url(#paint30_linear_606_19192)" stroke-width="0.25" stroke-miterlimit="10"/>
<path d="M1966.76 88.2623C1863.39 84.3232 1755.74 161.955 1668.98 227.275C1603.06 276.886 1535.5 325.932 1476.36 379.108C1417.22 432.284 1365.81 494.042 1294.26 528.381C1246.24 551.423 1202.07 544.858 1160.34 532.975C1081.87 510.62 1005.05 449.574 927.52 390.899C885.486 359.108 842.213 331.159 787.693 321.589C689.242 304.285 582.893 316.98 479.428 336.086C320.602 365.528 161.938 403.037 50.8077 437.108C40.8786 440.007 31.571 444.716 23.3537 450.999C13.6994 458.417 4.3769 470.081 3.30924 483.263C0.588231 517.332 23.8587 545.409 53.2249 569.083C153.346 649.816 342.49 695.614 379.045 804.886" stroke="url(#paint31_linear_606_19192)" stroke-width="0.25" stroke-miterlimit="10"/>
<path d="M1969.26 97.7244C1867.02 94.7649 1760.41 171.421 1673.92 235.825C1608.41 284.64 1541.18 332.87 1482.13 384.929C1423.08 436.988 1371.6 497.452 1300.45 530.543C1252.05 553.002 1208.02 545.201 1166.52 532.112C1088.87 507.599 1013.3 444.351 936.759 384.524C895.045 351.893 852.004 323.48 797.345 314.085C699.019 297.115 592.481 311.526 488.76 332.842C329.969 365.499 171.091 407.236 61.882 444.247C52.0327 447.452 42.8429 452.408 34.7549 458.878C25.2222 466.544 16.0939 478.319 15.0881 491.501C12.4285 526.213 36.0851 554.76 66.09 578.867C168.16 660.881 361.792 707.092 398.03 818.968" stroke="url(#paint32_linear_606_19192)" stroke-width="0.25" stroke-miterlimit="10"/>
<path d="M1971.69 107.148C1870.67 105.24 1765.08 180.872 1678.88 244.394C1613.73 292.46 1546.88 339.828 1487.95 390.803C1429.01 441.779 1377.44 500.9 1306.58 532.652C1257.77 554.523 1213.92 545.515 1172.65 531.196C1095.84 504.574 1021.56 439.053 945.98 378.078C904.592 344.631 861.825 315.782 806.951 306.552C708.736 289.969 601.985 305.976 497.985 329.506C339.292 365.38 180.127 411.357 72.887 451.3C63.1265 454.835 54.0631 460.057 46.1103 466.728C36.6283 474.595 27.7605 486.505 26.8165 499.688C24.2325 535.052 48.3281 564.02 78.9143 588.584C182.948 671.889 381.128 718.574 416.98 833.006" stroke="url(#paint33_linear_606_19192)" stroke-width="0.25" stroke-miterlimit="10"/>
<path d="M1974.12 116.586C1874.28 115.687 1769.62 190.251 1683.8 252.934C1618.99 300.294 1552.53 346.747 1493.65 396.6C1434.78 446.454 1383.16 504.262 1312.66 534.747C1263.47 556.001 1219.74 545.795 1178.73 530.266C1102.73 501.5 1029.7 433.801 955.124 371.597C914.104 337.364 871.484 307.993 816.532 298.938C718.476 282.794 611.526 300.469 507.227 326.18C348.622 365.284 189.194 415.559 83.8958 458.353C74.2185 462.192 65.2768 467.673 57.4647 474.555C48.1419 482.737 39.4404 494.677 38.5344 507.864C36.0356 543.866 60.4459 573.318 91.7423 598.302C197.725 682.888 400.463 730.033 435.928 847.021" stroke="url(#paint34_linear_606_19192)" stroke-width="0.25" stroke-miterlimit="10"/>
<path d="M1976.55 126.01C1877.89 126.119 1774.23 199.678 1688.73 261.46C1624.34 307.986 1558.19 353.676 1499.39 402.417C1440.58 451.158 1388.91 507.643 1318.77 536.861C1269.18 557.536 1225.58 546.171 1184.83 529.369C1109.66 498.493 1037.91 428.549 964.275 365.226C923.538 330.148 881.178 300.333 826.063 291.457C728.213 275.619 621.036 294.943 516.482 322.864C357.96 365.174 198.278 419.795 94.8172 465.349C85.2408 469.521 76.434 475.274 68.7649 482.366C59.6407 490.683 51.0658 502.834 50.2075 516.012C47.7984 552.676 72.6235 582.616 104.526 607.99C212.463 693.881 419.735 741.491 454.822 861.021" stroke="url(#paint35_linear_606_19192)" stroke-width="0.25" stroke-miterlimit="10"/>
<path d="M1978.99 135.433C1881.5 136.565 1778.85 209.091 1693.65 270C1629.61 315.792 1563.85 360.604 1505.14 408.228C1446.43 455.852 1394.66 510.986 1324.9 538.97C1274.95 558.962 1231.49 546.433 1190.97 528.452C1116.59 495.461 1046.14 423.255 973.522 358.713C933.119 322.805 890.983 292.54 835.709 283.867C737.999 268.373 630.57 289.411 525.722 319.537C367.293 365.04 207.399 424.098 105.8 472.406C96.3001 476.874 87.6008 482.875 80.0505 490.168C70.9903 498.818 62.6672 510.995 61.8565 524.164C59.5326 561.466 84.7343 591.89 117.265 617.711C227.161 704.869 438.968 752.944 473.682 875.039" stroke="url(#paint36_linear_606_19192)" stroke-width="0.25" stroke-miterlimit="10"/>
<path d="M1981.41 144.871C1885.1 147.011 1783.46 218.518 1698.57 278.54C1634.91 323.493 1569.51 367.533 1510.87 414.044C1452.23 460.556 1400.4 514.319 1331.02 541.07C1280.56 560.468 1237.36 546.766 1197.08 527.541C1123.49 492.435 1054.37 417.975 982.706 352.261C942.639 315.524 900.734 284.794 845.317 276.273C747.726 261.274 640.09 283.871 534.976 316.221C376.607 364.935 216.425 428.356 116.782 479.463C107.381 484.239 98.8077 490.492 91.3883 497.985C82.4736 506.879 74.3305 519.157 73.5674 532.317C71.3815 570.21 96.9213 601.174 130.086 627.404C241.932 715.843 458.296 764.378 492.623 889.03" stroke="url(#paint37_linear_606_19192)" stroke-width="0.25" stroke-miterlimit="10"/>
<path d="M1983.85 154.295C1888.74 157.453 1788.07 227.945 1703.45 287.137C1640.31 331.338 1575.13 374.533 1516.58 419.927C1458.04 465.322 1406.09 517.724 1337.1 543.264C1286.27 562.065 1243.24 547.208 1203.16 526.71C1130.38 489.523 1062.59 412.695 991.859 345.89C952.126 308.323 910.444 277.143 854.849 268.792C757.375 254.141 649.563 278.402 544.189 312.937C385.932 364.816 225.615 432.745 127.781 486.469C118.482 491.571 110.033 498.088 102.738 505.787C93.9447 514.93 86.048 527.333 85.2804 540.47C83.1553 579.067 109.067 610.49 142.919 637.083C256.767 726.756 477.617 775.827 511.567 903.02" stroke="url(#paint38_linear_606_19192)" stroke-width="0.25" stroke-miterlimit="10"/>
<path d="M1986.28 163.719C1892.29 167.861 1792.68 237.358 1708.42 295.606C1645.58 339.058 1580.84 381.391 1522.33 425.653C1464.11 469.775 1411.83 520.957 1343.23 545.288C1292.07 563.448 1249.07 547.412 1209.31 525.728C1137.33 486.463 1070.85 407.396 1001.11 339.377C961.708 300.98 920.234 269.34 864.481 261.192C767.17 246.881 659.083 272.861 553.449 309.583C395.228 364.677 234.792 437.148 138.745 493.555C129.547 498.969 121.22 505.743 114.047 513.647C105.375 523.037 97.6495 535.494 96.9625 548.665C94.9368 587.91 121.264 619.76 155.687 646.824C271.479 737.816 496.892 787.309 530.469 917.068" stroke="url(#paint39_linear_606_19192)" stroke-width="0.25" stroke-miterlimit="10"/>
<path d="M1988.71 173.157C1895.96 178.332 1797.29 246.785 1713.33 304.136C1650.89 346.807 1586.5 388.32 1528.11 431.499C1469.97 474.432 1417.48 524.309 1349.39 547.417C1297.73 564.945 1254.94 547.769 1215.48 524.855C1144.28 483.514 1079.09 402.089 1010.32 332.968C971.294 293.724 930.029 261.624 874.145 253.637C776.95 239.735 668.679 267.269 562.774 306.315C404.618 364.582 244.026 441.59 149.769 500.703C140.689 506.41 132.497 513.422 125.456 521.512C116.864 531.122 109.355 543.747 108.735 556.88C106.809 596.773 133.484 629.087 168.56 656.594C286.254 748.876 516.273 798.821 549.463 931.135" stroke="url(#paint40_linear_606_19192)" stroke-width="0.25" stroke-miterlimit="10"/>
<path d="M1991.14 182.581C1899.54 188.821 1801.92 256.222 1718.27 312.672C1656.22 354.565 1592.16 395.249 1533.83 437.329C1475.88 479.151 1423.29 527.591 1355.48 549.559C1303.42 566.423 1260.78 548.145 1221.56 523.963C1151.13 480.558 1087.35 396.852 1019.49 326.545C980.791 286.446 939.752 253.921 883.701 246.089C786.642 232.507 678.171 261.709 571.983 302.884C413.891 364.324 253.201 445.907 160.759 507.599C151.765 513.629 143.681 520.916 136.753 529.238C128.339 539.135 121.035 551.733 120.405 564.942C118.568 605.497 145.615 638.271 181.34 666.197C300.992 759.807 535.54 810.193 568.311 945.02" stroke="url(#paint41_linear_606_19192)" stroke-width="0.25" stroke-miterlimit="10"/>
<path d="M1993.58 192.004C1903.17 199.225 1806.52 265.649 1723.17 321.24C1661.53 362.314 1597.79 402.196 1539.58 443.155C1481.75 483.818 1429.01 530.867 1361.61 551.668C1309.16 567.892 1266.62 548.482 1227.71 522.995C1158.03 477.508 1095.64 391.472 1028.71 320.036C990.373 279.104 949.519 246.123 893.333 238.551C796.427 225.385 687.692 256.169 581.246 299.677C423.144 364.218 262.416 450.439 171.713 514.699C162.826 521.046 154.86 528.594 148.043 537.125C139.774 547.266 132.541 559.975 132.068 573.166C130.355 614.364 157.764 647.612 194.104 675.975C315.7 770.905 554.812 821.713 587.237 959.125" stroke="url(#paint42_linear_606_19192)" stroke-width="0.25" stroke-miterlimit="10"/>
<path d="M1996 201.442C1906.79 209.657 1811.13 275.076 1728.11 329.752C1666.85 370.072 1603.48 409.106 1545.33 448.943C1487.61 488.536 1434.74 534.114 1367.74 553.754C1314.83 569.274 1272.47 548.805 1233.78 522.102C1164.88 474.566 1103.82 386.263 1037.88 313.613C999.897 271.846 959.237 238.396 902.888 230.942C806.127 218.142 697.136 250.556 590.453 296.307C432.434 364.056 271.693 454.909 182.696 521.757C173.911 528.404 166.066 536.208 159.371 544.956C151.224 555.345 144.275 568.184 143.76 581.347C142.155 623.178 169.807 657.046 206.906 685.697C330.293 782.111 574.106 833.166 606.159 973.144" stroke="url(#paint43_linear_606_19192)" stroke-width="0.25" stroke-miterlimit="10"/>
<path d="M1998.44 210.866C1910.45 220.142 1815.73 284.555 1733.03 338.292C1672.18 377.831 1609.14 416.035 1551.08 454.755C1493.53 493.132 1440.45 537.367 1373.87 555.863C1320.52 570.69 1278.32 549.167 1239.89 521.191C1171.73 471.587 1112.12 380.87 1047.05 307.152C1009.42 264.527 968.975 230.64 912.463 223.366C815.86 210.944 706.618 245.011 599.694 292.981C441.739 363.903 280.998 459.399 193.674 528.79C185.005 535.748 177.285 543.811 170.709 552.773C162.699 563.42 155.93 576.361 155.462 589.514C153.961 632.017 182.033 666.274 219.718 695.405C345.045 793.114 593.406 844.644 625.082 987.163" stroke="url(#paint44_linear_606_19192)" stroke-width="0.25" stroke-miterlimit="10"/>
<path d="M2000.87 220.289C1914.01 230.535 1820.35 293.93 1737.98 346.827C1677.46 385.66 1614.81 422.964 1556.82 460.571C1499.41 497.807 1446.17 540.605 1379.98 557.977C1326.21 572.106 1284.17 549.528 1245.99 520.27C1178.58 468.608 1120.36 375.538 1056.23 300.7C1018.96 257.217 978.717 222.909 922.013 215.857C825.55 203.778 716.071 239.446 608.867 289.692C450.949 363.768 290.341 463.894 204.657 535.848C196.108 543.11 188.511 551.423 182.047 560.59C174.172 571.495 167.593 584.522 167.229 597.705C165.824 640.77 194.268 675.61 232.519 705.126C359.805 804.103 612.715 856.107 644.004 1001.18" stroke="url(#paint45_linear_606_19192)" stroke-width="0.25" stroke-miterlimit="10"/>
<path d="M2003.3 229.727C1917.62 240.982 1824.97 303.367 1742.91 355.353C1682.79 393.419 1620.53 429.831 1562.57 466.383C1505.31 502.469 1451.9 543.805 1386.1 560.115C1331.89 573.513 1289.98 549.885 1252.09 519.373C1185.41 465.657 1128.64 370.235 1065.41 294.262C1028.51 249.931 988.517 215.154 931.621 208.262C835.289 196.541 725.564 233.824 618.127 286.338C460.251 363.53 299.643 468.359 215.64 542.906C207.198 550.47 199.717 559.045 193.367 568.435C185.638 579.584 179.248 592.699 178.865 605.848C177.611 649.637 206.361 684.851 245.318 714.824C374.581 815.101 632.011 867.56 662.927 1015.2" stroke="url(#paint46_linear_606_19192)" stroke-width="0.25" stroke-miterlimit="10"/>
<path d="M2005.73 239.151C1921.22 251.428 1829.61 312.813 1747.83 363.893C1688.08 401.22 1626.17 436.788 1568.33 472.157C1511.21 507.117 1457.63 546.991 1392.27 562.168C1337.63 574.834 1295.82 550.184 1258.24 518.405C1192.29 462.636 1136.97 364.861 1074.63 287.754C1038.11 242.583 998.237 207.365 941.249 200.639C845.085 189.281 735.09 228.184 627.407 282.955C469.5 363.276 309.106 472.831 226.633 549.887C218.291 557.748 210.912 566.572 204.654 576.175C197.05 587.596 190.86 600.784 190.525 613.924C189.385 658.371 218.492 694.034 258.078 724.455C389.339 825.942 651.279 878.933 681.808 1029.13" stroke="url(#paint47_linear_606_19192)" stroke-width="0.25" stroke-miterlimit="10"/>
<path d="M2008.17 248.575C1924.84 261.86 1834.23 322.25 1752.77 372.405C1693.42 408.964 1631.85 443.727 1574.07 477.997C1517.05 511.849 1463.32 550.21 1398.37 564.296C1343.3 576.241 1301.68 550.507 1264.32 517.498C1199.08 459.68 1145.24 359.548 1083.79 281.321C1047.64 235.288 1007.94 199.629 950.766 193.148C854.823 182.168 744.567 222.676 636.675 279.71C478.777 363.166 318.564 477.403 237.616 557.007C229.4 565.167 222.158 574.253 216.035 584.083C208.577 595.747 202.556 609.051 202.26 622.196C201.252 667.271 230.712 703.423 270.923 734.268C404.128 837.074 670.607 890.491 700.773 1043.24" stroke="url(#paint48_linear_606_19192)" stroke-width="0.25" stroke-miterlimit="10"/>
<path d="M2010.6 258.013C1928.39 272.268 1838.86 331.686 1757.67 380.974C1698.72 416.766 1637.48 450.698 1579.8 483.851C1522.88 516.487 1469.02 553.414 1404.48 566.433C1348.98 577.623 1307.43 550.949 1270.42 516.615C1205.96 456.781 1153.58 354.307 1092.99 275.026C1057.3 228.017 1017.72 191.94 960.46 185.611C864.57 174.978 754.04 217.083 645.926 276.37C488.025 362.975 328.031 481.898 248.595 564.04C240.508 572.516 233.387 581.865 227.364 591.913C220.051 603.822 214.22 617.212 213.962 630.362C213.077 676.081 242.876 712.711 283.716 744.004C418.851 848.119 689.912 901.992 719.677 1057.29" stroke="url(#paint49_linear_606_19192)" stroke-width="0.25" stroke-miterlimit="10"/>
<path d="M2013.06 267.456C1932.1 282.682 1843.48 341.123 1762.63 389.457C1704.03 424.538 1643.15 457.613 1585.54 489.653C1528.81 521.192 1474.74 556.59 1410.59 568.547C1354.65 578.968 1313.24 551.305 1276.61 515.761C1212.8 453.816 1161.89 348.985 1102.22 268.504C1066.84 220.769 1027.5 184.214 970.048 178.045C874.303 167.78 763.503 211.504 655.17 273.067C497.273 362.783 337.526 486.414 259.577 571.098C251.598 579.862 244.595 589.467 238.691 599.744C231.515 611.911 225.874 625.389 225.643 638.558C224.867 684.972 255.029 722.014 296.536 753.697C433.602 859.122 709.197 913.46 738.617 1071.28" stroke="url(#paint50_linear_606_19192)" stroke-width="0.25" stroke-miterlimit="10"/>
<path d="M2015.47 276.86C1935.67 293.185 1848.1 350.559 1767.48 398.01C1709.31 432.282 1648.74 464.593 1591.24 495.45C1534.65 525.838 1480.41 559.728 1416.68 570.627C1360.37 580.317 1319.01 551.632 1282.68 514.821C1219.55 450.855 1170.16 343.648 1111.38 262.032C1076.38 213.421 1037.19 176.467 979.561 170.53C884.046 160.566 772.977 205.911 664.416 269.765C506.508 362.582 347.051 490.885 270.57 578.141C262.71 587.206 255.822 597.072 250.021 607.575C242.99 619.985 237.538 633.55 237.384 646.668C236.761 693.683 267.271 731.189 309.358 763.39C448.388 870.044 728.545 924.866 757.56 1085.27" stroke="url(#paint51_linear_606_19192)" stroke-width="0.25" stroke-miterlimit="10"/>
<path d="M2017.89 286.298C1939.28 303.632 1852.73 359.996 1772.44 406.58C1714.66 440.098 1654.47 471.508 1597.02 501.295C1540.59 530.553 1486.18 562.881 1422.84 572.771C1366.05 581.624 1324.86 552.018 1288.85 513.948C1226.4 447.914 1178.51 338.355 1120.62 255.619C1085.99 206.159 1046.96 168.693 989.245 162.946C893.794 153.377 782.44 200.332 673.657 266.439C515.733 362.395 356.662 495.416 281.554 585.199C273.818 594.554 267.052 604.67 261.36 615.392C254.464 628.06 249.207 641.736 249.081 654.873C248.553 702.512 279.372 740.601 322.137 773.117C463.159 881.08 747.836 936.358 776.45 1099.31" stroke="url(#paint52_linear_606_19192)" stroke-width="0.25" stroke-miterlimit="10"/>
<path d="M2020.33 295.722C1942.89 314.064 1857.36 369.457 1777.36 415.12C1719.93 447.842 1660.15 478.447 1602.78 507.107C1546.42 535.19 1491.9 566.033 1428.97 574.88C1371.72 582.897 1330.65 552.378 1294.98 512.994C1233.23 444.901 1186.86 332.991 1129.84 249.125C1095.59 198.802 1056.78 160.934 998.864 155.337C903.557 146.136 791.876 194.672 682.927 263.07C525.02 362.209 366.192 499.85 292.537 592.256C284.922 601.902 278.273 612.275 272.689 623.223C265.982 636.164 260.828 649.869 260.76 663.044C260.421 711.351 291.555 749.861 334.926 782.829C477.906 892.059 767.118 947.801 795.373 1113.33" stroke="url(#paint53_linear_606_19192)" stroke-width="0.25" stroke-miterlimit="10"/>
<path d="M2022.73 305.126C1946.47 324.491 1861.95 378.874 1782.27 423.626C1725.31 455.653 1665.77 485.37 1608.45 512.947C1552.29 539.942 1497.57 569.195 1435.02 577.017C1377.45 584.218 1336.44 552.725 1301.08 512.135C1239.99 441.988 1195.14 327.749 1139.01 242.725C1105.19 191.555 1066.51 153.231 1008.44 147.823C913.271 138.965 801.339 189.155 692.096 259.758C534.164 361.926 375.759 504.29 303.512 599.204C296.029 609.157 289.505 619.795 284.028 630.978C277.438 644.143 272.535 657.998 272.472 671.135C272.28 720.08 303.729 759.073 347.762 792.47C492.697 903.005 786.442 959.212 814.319 1127.28" stroke="url(#paint54_linear_606_19192)" stroke-width="0.25" stroke-miterlimit="10"/>
<path d="M2025.19 314.583C1950.1 334.956 1866.62 388.34 1787.21 432.185C1730.63 463.449 1671.47 492.328 1614.21 518.806C1558.2 544.652 1503.3 572.319 1441.16 579.174C1383.11 585.529 1342.19 553.143 1307.15 511.28C1246.73 439.079 1203.46 322.451 1148.17 236.34C1114.78 184.26 1076.17 145.489 1018.03 140.28C923.004 131.766 810.783 183.542 701.393 256.47C543.388 361.801 385.431 508.758 314.498 606.347C307.118 616.596 300.697 627.502 295.317 638.927C288.872 652.337 284.159 666.278 284.134 679.421C284.031 729.089 315.862 768.466 360.524 802.31C507.418 914.113 805.754 970.823 833.202 1141.42" stroke="url(#paint55_linear_606_19192)" stroke-width="0.25" stroke-miterlimit="10"/>
<path d="M2027.62 324.007C1953.72 345.388 1871.23 397.79 1792.13 440.725C1735.96 471.231 1677.12 499.309 1619.99 524.551C1564.12 549.271 1509.11 575.391 1447.32 581.217C1388.86 586.736 1348.03 553.456 1313.31 510.322C1253.55 436.057 1211.81 317.11 1157.38 229.846C1124.38 176.95 1086.05 137.682 1027.62 132.714C932.747 124.553 820.232 177.953 710.623 253.158C552.598 361.604 395.084 513.194 325.561 613.439C318.312 623.96 312.018 635.108 306.755 646.75C300.446 660.417 295.913 674.46 295.935 687.593C296.027 737.829 328.111 777.812 373.426 812.038C522.279 925.107 825.121 982.263 852.186 1155.5" stroke="url(#paint56_linear_606_19192)" stroke-width="0.25" stroke-miterlimit="10"/>
<path d="M2030.06 333.431C1957.31 355.74 1875.86 407.251 1797.06 449.252C1741.26 479.019 1682.81 506.219 1625.74 530.378C1570.01 553.971 1514.87 578.487 1453.41 583.398C1394.55 588.044 1353.76 553.864 1319.39 509.468C1260.31 433.082 1220.19 311.751 1166.58 223.404C1133.97 169.656 1095.76 129.994 1037.22 125.158C942.49 117.341 829.658 172.37 719.869 249.856C561.795 361.399 404.757 517.601 336.474 620.448C329.351 631.258 323.174 642.661 318.013 654.533C311.864 668.453 307.477 682.616 307.566 695.712C307.768 746.582 340.233 787.01 386.168 821.697C536.984 936.057 844.336 993.682 871.115 1169.35" stroke="url(#paint57_linear_606_19192)" stroke-width="0.25" stroke-miterlimit="10"/>
<path d="M2032.48 342.869C1960.94 366.267 1880.49 416.698 1801.98 457.792C1746.58 486.791 1688.45 513.215 1631.47 536.194C1575.92 558.604 1520.63 581.569 1459.6 585.384C1400.34 589.156 1359.62 554.088 1325.59 508.452C1267.15 430.055 1228.52 306.339 1175.82 216.905C1143.62 162.299 1105.55 122.191 1046.86 117.544C952.262 110.085 839.131 166.715 729.157 246.459C570.981 361.207 414.51 522.042 347.466 627.492C340.457 638.587 334.394 650.252 329.341 662.364C323.338 676.528 319.203 690.717 319.258 703.893C319.62 755.473 352.367 796.341 398.955 831.409C551.735 947.06 863.645 1005.15 889.989 1183.44" stroke="url(#paint58_linear_606_19192)" stroke-width="0.25" stroke-miterlimit="10"/>
<path d="M2034.92 352.292C1964.49 376.675 1885.12 426.158 1806.92 466.341C1751.74 494.549 1695.09 519.806 1637.23 542.006C1581.77 563.337 1526.38 584.641 1465.69 587.564C1406.03 590.425 1365.37 554.506 1331.66 507.598C1273.88 427.137 1236.9 301.118 1185.02 210.549C1153.24 155.085 1115.33 114.527 1056.46 110.087C962.024 102.967 848.529 161.173 738.389 243.209C580.178 361.001 424.16 526.392 358.436 634.54C351.564 645.914 345.63 657.829 340.69 670.166C334.832 684.574 330.858 698.893 330.952 712.013C331.476 764.179 364.547 805.516 411.735 841.074C566.559 958.049 882.933 1016.55 908.889 1197.41" stroke="url(#paint59_linear_606_19192)" stroke-width="0.25" stroke-miterlimit="10"/>
<path d="M2037.35 361.716C1968.16 387.16 1889.77 435.676 1811.85 474.867C1757.01 502.419 1700.62 526.778 1642.96 547.822C1587.66 568.023 1532.16 587.708 1471.81 589.664C1411.46 591.62 1371.1 554.828 1337.78 506.696C1280.63 424.152 1245.25 295.801 1194.15 204.082C1162.8 147.747 1125.01 106.733 1065.98 102.473C971.682 95.6964 857.94 155.579 747.587 239.854C589.323 360.78 433.857 530.732 369.363 641.559C362.637 653.226 356.841 665.405 352.029 677.983C346.202 692.681 342.513 707.069 342.697 720.208C343.391 773.009 376.768 814.843 424.59 850.81C581.293 969.019 902.261 1028.05 927.855 1211.45" stroke="url(#paint60_linear_606_19192)" stroke-width="0.25" stroke-miterlimit="10"/>
<path d="M2039.76 371.144C1971.79 397.564 1894.31 445.031 1816.77 483.407C1762.26 510.292 1706.13 533.751 1648.71 553.648C1593.54 572.713 1537.95 590.771 1477.99 591.826C1417.54 592.849 1376.96 555.246 1343.95 505.823C1287.39 421.176 1253.73 290.571 1203.42 197.664C1172.47 140.486 1134.82 99.0257 1075.67 94.9741C981.509 88.5411 867.43 150.02 756.925 236.595C598.607 360.655 443.633 535.107 380.425 648.65C373.784 660.593 368.076 673.03 363.351 685.852C357.808 700.743 354.17 715.269 354.392 728.413C355.248 781.862 388.911 824.16 437.386 860.57C596.047 980.045 921.564 1039.55 946.771 1225.51" stroke="url(#paint61_linear_606_19192)" stroke-width="0.25" stroke-miterlimit="10"/>
<path d="M2042.2 380.568C1975.38 408.038 1899.02 454.549 1821.69 491.947C1767.51 518.159 1711.64 540.71 1654.45 559.45C1599.43 577.412 1543.74 593.823 1484.04 593.901C1423.24 593.979 1382.68 555.559 1350.02 504.883C1294.14 418.191 1261.98 285.186 1212.59 191.203C1182.07 133.19 1144.61 91.1989 1085.23 87.4119C991.224 81.3084 876.785 144.387 766.1 233.244C607.709 360.405 453.35 539.48 391.394 655.698C384.897 667.935 379.324 680.642 374.723 693.711C369.33 708.87 365.868 723.473 366.127 736.623C367.164 790.691 401.132 833.486 450.212 870.349C610.78 991.076 940.898 1051.07 965.718 1239.59" stroke="url(#paint62_linear_606_19192)" stroke-width="0.25" stroke-miterlimit="10"/>
<path d="M2044.64 389.991C1979 418.47 1903.65 464.009 1826.66 500.502C1772.81 526.055 1717.19 547.711 1660.24 565.304C1605.32 582.112 1549.59 596.901 1490.19 596.02C1429 595.148 1388.42 555.991 1356.14 503.981C1300.91 415.216 1270.32 279.959 1221.71 184.812C1191.61 125.928 1154.23 83.5522 1094.76 79.9071C1000.84 74.2181 886.163 138.874 775.322 230.008C616.844 360.261 463.157 543.75 402.387 662.741C395.997 675.252 390.523 688.21 386.01 701.513C380.762 716.916 377.504 731.616 377.787 744.761C378.995 799.463 413.253 842.746 463.001 879.999C625.576 1002.05 960.171 1062.47 984.646 1253.57" stroke="url(#paint63_linear_606_19192)" stroke-width="0.25" stroke-miterlimit="10"/>
<path d="M2047.06 399.429C1982.63 428.874 1908.28 473.494 1831.54 509.013C1778 533.901 1722.64 554.655 1665.93 571.092C1611.19 586.802 1555.36 599.906 1496.3 598.134C1434.76 596.279 1394.18 556.208 1362.26 503.055C1307.63 412.212 1278.71 274.609 1230.94 178.29C1201.32 118.486 1164.03 75.7117 1104.4 72.2698C1010.67 66.8535 895.607 133.2 784.595 226.601C625.992 360.002 472.934 548.063 413.326 669.832C407.071 682.598 401.718 695.787 397.305 709.301C392.207 724.971 389.095 739.73 389.445 752.899C390.814 808.249 425.397 852.001 475.76 889.692C640.293 1013.01 979.436 1073.9 1003.5 1267.54" stroke="url(#paint64_linear_606_19192)" stroke-width="0.25" stroke-miterlimit="10"/>
<path d="M2049.5 408.853C1986.21 439.364 1912.91 482.954 1836.46 517.553C1783.24 541.772 1728.13 561.621 1671.69 576.904C1617.07 591.492 1561.19 602.927 1502.47 600.272C1440.58 597.449 1400.05 556.627 1368.42 502.197C1314.45 409.252 1287.17 269.298 1240.19 171.9C1210.97 111.292 1173.88 68.0336 1114.06 64.7757C1020.43 59.6503 905.02 127.606 793.813 223.342C635.155 359.876 482.68 552.395 424.31 676.889C418.163 689.954 412.922 703.425 408.624 717.208C403.682 733.108 400.769 748.001 401.138 761.142C402.668 817.141 437.552 861.366 488.549 899.466C655.05 1024.09 998.727 1085.45 1022.41 1281.63" stroke="url(#paint65_linear_606_19192)" stroke-width="0.25" stroke-miterlimit="10"/>
<path d="M2051.93 418.277C1989.83 449.796 1917.52 492.467 1841.39 526.079C1788.47 549.651 1733.62 568.598 1677.43 582.706C1622.96 596.178 1567.02 605.933 1508.55 602.343C1446.31 598.5 1405.76 556.916 1374.49 501.219C1321.14 406.229 1295.49 263.962 1249.32 165.41C1220.53 103.954 1183.53 60.1967 1123.64 57.1999C1030.2 52.4566 914.474 122.041 803.149 219.998C644.343 359.623 492.573 556.661 435.29 683.861C429.236 697.181 424.087 710.893 419.879 724.906C415.124 741.078 412.358 756.03 412.766 769.176C414.466 825.808 449.684 870.549 501.276 909.054C669.737 1034.95 1017.96 1096.78 1041.26 1295.52" stroke="url(#paint66_linear_606_19192)" stroke-width="0.25" stroke-miterlimit="10"/>
<path d="M2054.32 427.772C1993.43 460.242 1922.21 501.866 1846.31 534.619C1793.69 557.532 1739.08 575.582 1683.17 588.546C1628.84 600.892 1572.82 609.019 1514.66 604.457C1452.1 599.626 1411.51 557.272 1380.61 500.331C1327.85 403.277 1303.88 258.65 1258.52 158.968C1230.19 96.6209 1193.27 52.3176 1133.18 49.6046C1039.91 45.0149 923.862 116.452 812.362 216.652C653.511 359.459 502.347 560.888 446.354 690.953C440.437 704.568 435.425 718.558 431.35 732.833C426.722 749.215 424.164 764.287 424.6 777.453C426.505 834.701 461.947 879.905 514.221 918.872C684.64 1046.03 1037.39 1108.35 1060.32 1309.64" stroke="url(#paint67_linear_606_19192)" stroke-width="0.25" stroke-miterlimit="10"/>
<path d="M2056.79 437.138C1997.04 470.688 1926.81 511.393 1851.23 543.159C1799.81 564.766 1745.22 582.818 1688.91 594.348C1634.73 605.677 1578.73 611.987 1520.78 606.58C1457.9 600.724 1417.24 557.58 1386.72 499.42C1334.62 400.225 1312.26 253.353 1267.7 152.516C1239.8 89.3592 1203.05 44.5912 1142.79 42.048C1049.7 37.8784 933.229 110.83 821.577 213.33C662.644 359.252 512.168 565.044 457.307 697.991C451.515 711.876 446.622 726.118 442.658 740.63C438.18 757.28 435.803 772.454 436.272 785.6C438.409 843.545 474.104 889.17 527.003 928.561C699.386 1057.01 1056.67 1119.79 1079.22 1323.64" stroke="url(#paint68_linear_606_19192)" stroke-width="0.25" stroke-miterlimit="10"/>
<path d="M2059.23 446.562C2000.71 481.159 1931.48 521.006 1856.16 551.685C1804.13 573.347 1750.01 589.596 1694.65 600.174C1640.6 610.344 1584.57 614.955 1526.85 608.751C1463.66 601.855 1422.99 557.998 1392.8 498.575C1341.3 397.316 1320.63 248.107 1276.86 146.131C1249.39 82.1258 1212.75 36.9163 1152.33 34.5525C1059.33 30.7118 942.408 105.12 830.731 210.132C671.537 358.82 521.893 569.404 468.276 705.039C462.609 719.2 457.837 733.702 453.987 748.461C449.664 765.341 447.466 780.616 447.973 793.767C450.225 852.307 486.248 898.487 539.805 938.282C714.137 1068.02 1075.98 1131.25 1098.14 1337.65" stroke="url(#paint69_linear_606_19192)" stroke-width="0.25" stroke-miterlimit="10"/>
<path d="M2061.65 456C2004.28 491.686 1936.11 530.405 1861.04 560.296C1809.3 581.239 1755.46 596.574 1700.46 606.039C1646.56 615.068 1590.56 618.043 1533.1 610.852C1469.55 602.973 1428.79 558.368 1399.02 497.655C1347.97 394.273 1329.21 242.697 1286.1 139.632C1259.11 74.7937 1222.53 29.128 1161.97 26.9391C1069.11 23.4801 951.91 99.5459 840.073 206.688C680.8 358.762 531.716 573.622 479.25 712.111C473.712 726.552 469.052 741.316 465.297 756.32C461.158 773.449 459.136 788.801 459.657 801.963C462.203 861.137 498.413 907.775 552.589 948.032C728.951 1079.08 1095.25 1142.75 1117.04 1351.7" stroke="url(#paint70_linear_606_19192)" stroke-width="0.25" stroke-miterlimit="10"/>
<path d="M2064.06 465.466C1933.74 550.268 1744.64 641.938 1539.15 612.951C1298.15 578.928 1385.19 26.4742 1171.57 19.3824C913.353 10.8209 463.451 629.064 471.392 810.111C482.578 1064.48 1108.01 1089.17 1136 1365.7" stroke="url(#paint71_linear_606_19192)" stroke-width="1.5" stroke-miterlimit="10"/>
</g>
</g>
<defs>
<linearGradient id="paint0_linear_606_19192" x1="301.521" y1="-438.897" x2="1216.48" y2="473.653" gradientUnits="userSpaceOnUse">
<stop offset="0.01" stop-color="#CBD1DF"/>
<stop offset="0.09" stop-color="#DCE1EB"/>
<stop offset="0.19" stop-color="#F2F5FB"/>
<stop offset="0.6" stop-color="#BAC1D1"/>
<stop offset="0.87" stop-color="#CBD1DF"/>
<stop offset="1" stop-color="#F2F5FB"/>
</linearGradient>
<linearGradient id="paint1_linear_606_19192" x1="311.235" y1="-427.397" x2="1221.12" y2="480.091" gradientUnits="userSpaceOnUse">
<stop offset="0.01" stop-color="#CBD1DF"/>
<stop offset="0.09" stop-color="#DCE1EB"/>
<stop offset="0.19" stop-color="#F2F5FB"/>
<stop offset="0.6" stop-color="#BAC1D1"/>
<stop offset="0.87" stop-color="#CBD1DF"/>
<stop offset="1" stop-color="#F2F5FB"/>
</linearGradient>
<linearGradient id="paint2_linear_606_19192" x1="320.124" y1="-416.586" x2="1226.09" y2="486.974" gradientUnits="userSpaceOnUse">
<stop offset="0.01" stop-color="#CBD1DF"/>
<stop offset="0.09" stop-color="#DCE1EB"/>
<stop offset="0.19" stop-color="#F2F5FB"/>
<stop offset="0.6" stop-color="#BAC1D1"/>
<stop offset="0.87" stop-color="#CBD1DF"/>
<stop offset="1" stop-color="#F2F5FB"/>
</linearGradient>
<linearGradient id="paint3_linear_606_19192" x1="329.012" y1="-405.774" x2="1231.05" y2="493.881" gradientUnits="userSpaceOnUse">
<stop offset="0.01" stop-color="#CBD1DF"/>
<stop offset="0.09" stop-color="#DCE1EB"/>
<stop offset="0.19" stop-color="#F2F5FB"/>
<stop offset="0.6" stop-color="#BAC1D1"/>
<stop offset="0.87" stop-color="#CBD1DF"/>
<stop offset="1" stop-color="#F2F5FB"/>
</linearGradient>
<linearGradient id="paint4_linear_606_19192" x1="337.882" y1="-394.955" x2="1235.98" y2="500.78" gradientUnits="userSpaceOnUse">
<stop offset="0.01" stop-color="#CBD1DF"/>
<stop offset="0.09" stop-color="#DCE1EB"/>
<stop offset="0.19" stop-color="#F2F5FB"/>
<stop offset="0.6" stop-color="#BAC1D1"/>
<stop offset="0.87" stop-color="#CBD1DF"/>
<stop offset="1" stop-color="#F2F5FB"/>
</linearGradient>
<linearGradient id="paint5_linear_606_19192" x1="346.748" y1="-384.113" x2="1240.93" y2="507.695" gradientUnits="userSpaceOnUse">
<stop offset="0.01" stop-color="#CBD1DF"/>
<stop offset="0.09" stop-color="#DCE1EB"/>
<stop offset="0.19" stop-color="#F2F5FB"/>
<stop offset="0.6" stop-color="#BAC1D1"/>
<stop offset="0.87" stop-color="#CBD1DF"/>
<stop offset="1" stop-color="#F2F5FB"/>
</linearGradient>
<linearGradient id="paint6_linear_606_19192" x1="355.622" y1="-373.294" x2="1245.87" y2="514.609" gradientUnits="userSpaceOnUse">
<stop offset="0.01" stop-color="#CBD1DF"/>
<stop offset="0.09" stop-color="#DCE1EB"/>
<stop offset="0.19" stop-color="#F2F5FB"/>
<stop offset="0.6" stop-color="#BAC1D1"/>
<stop offset="0.87" stop-color="#CBD1DF"/>
<stop offset="1" stop-color="#F2F5FB"/>
</linearGradient>
<linearGradient id="paint7_linear_606_19192" x1="364.478" y1="-362.466" x2="1250.8" y2="521.532" gradientUnits="userSpaceOnUse">
<stop offset="0.01" stop-color="#CBD1DF"/>
<stop offset="0.09" stop-color="#DCE1EB"/>
<stop offset="0.19" stop-color="#F2F5FB"/>
<stop offset="0.6" stop-color="#BAC1D1"/>
<stop offset="0.87" stop-color="#CBD1DF"/>
<stop offset="1" stop-color="#F2F5FB"/>
</linearGradient>
<linearGradient id="paint8_linear_606_19192" x1="373.334" y1="-351.639" x2="1255.75" y2="528.447" gradientUnits="userSpaceOnUse">
<stop offset="0.01" stop-color="#CBD1DF"/>
<stop offset="0.09" stop-color="#DCE1EB"/>
<stop offset="0.19" stop-color="#F2F5FB"/>
<stop offset="0.6" stop-color="#BAC1D1"/>
<stop offset="0.87" stop-color="#CBD1DF"/>
<stop offset="1" stop-color="#F2F5FB"/>
</linearGradient>
<linearGradient id="paint9_linear_606_19192" x1="382.193" y1="-340.812" x2="1260.68" y2="535.369" gradientUnits="userSpaceOnUse">
<stop offset="0.01" stop-color="#CBD1DF"/>
<stop offset="0.09" stop-color="#DCE1EB"/>
<stop offset="0.19" stop-color="#F2F5FB"/>
<stop offset="0.6" stop-color="#BAC1D1"/>
<stop offset="0.87" stop-color="#CBD1DF"/>
<stop offset="1" stop-color="#F2F5FB"/>
</linearGradient>
<linearGradient id="paint10_linear_606_19192" x1="391.035" y1="-329.977" x2="1265.61" y2="542.292" gradientUnits="userSpaceOnUse">
<stop offset="0.01" stop-color="#CBD1DF"/>
<stop offset="0.09" stop-color="#DCE1EB"/>
<stop offset="0.19" stop-color="#F2F5FB"/>
<stop offset="0.6" stop-color="#BAC1D1"/>
<stop offset="0.87" stop-color="#CBD1DF"/>
<stop offset="1" stop-color="#F2F5FB"/>
</linearGradient>
<linearGradient id="paint11_linear_606_19192" x1="399.883" y1="-319.165" x2="1270.54" y2="549.215" gradientUnits="userSpaceOnUse">
<stop offset="0.01" stop-color="#CBD1DF"/>
<stop offset="0.09" stop-color="#DCE1EB"/>
<stop offset="0.19" stop-color="#F2F5FB"/>
<stop offset="0.6" stop-color="#BAC1D1"/>
<stop offset="0.87" stop-color="#CBD1DF"/>
<stop offset="1" stop-color="#F2F5FB"/>
</linearGradient>
<linearGradient id="paint12_linear_606_19192" x1="408.726" y1="-308.33" x2="1275.48" y2="556.129" gradientUnits="userSpaceOnUse">
<stop offset="0.01" stop-color="#CBD1DF"/>
<stop offset="0.09" stop-color="#DCE1EB"/>
<stop offset="0.19" stop-color="#F2F5FB"/>
<stop offset="0.6" stop-color="#BAC1D1"/>
<stop offset="0.87" stop-color="#CBD1DF"/>
<stop offset="1" stop-color="#F2F5FB"/>
</linearGradient>
<linearGradient id="paint13_linear_606_19192" x1="417.559" y1="-297.51" x2="1280.4" y2="563.06" gradientUnits="userSpaceOnUse">
<stop offset="0.01" stop-color="#CBD1DF"/>
<stop offset="0.09" stop-color="#DCE1EB"/>
<stop offset="0.19" stop-color="#F2F5FB"/>
<stop offset="0.6" stop-color="#BAC1D1"/>
<stop offset="0.87" stop-color="#CBD1DF"/>
<stop offset="1" stop-color="#F2F5FB"/>
</linearGradient>
<linearGradient id="paint14_linear_606_19192" x1="426.394" y1="-286.69" x2="1285.33" y2="569.983" gradientUnits="userSpaceOnUse">
<stop offset="0.01" stop-color="#CBD1DF"/>
<stop offset="0.09" stop-color="#DCE1EB"/>
<stop offset="0.19" stop-color="#F2F5FB"/>
<stop offset="0.6" stop-color="#BAC1D1"/>
<stop offset="0.87" stop-color="#CBD1DF"/>
<stop offset="1" stop-color="#F2F5FB"/>
</linearGradient>
<linearGradient id="paint15_linear_606_19192" x1="435.219" y1="-275.885" x2="1290.26" y2="576.905" gradientUnits="userSpaceOnUse">
<stop offset="0.01" stop-color="#CBD1DF"/>
<stop offset="0.09" stop-color="#DCE1EB"/>
<stop offset="0.19" stop-color="#F2F5FB"/>
<stop offset="0.6" stop-color="#BAC1D1"/>
<stop offset="0.87" stop-color="#CBD1DF"/>
<stop offset="1" stop-color="#F2F5FB"/>
</linearGradient>
<linearGradient id="paint16_linear_606_19192" x1="444.053" y1="-265.065" x2="1295.19" y2="583.843" gradientUnits="userSpaceOnUse">
<stop offset="0.01" stop-color="#CBD1DF"/>
<stop offset="0.09" stop-color="#DCE1EB"/>
<stop offset="0.19" stop-color="#F2F5FB"/>
<stop offset="0.6" stop-color="#BAC1D1"/>
<stop offset="0.87" stop-color="#CBD1DF"/>
<stop offset="1" stop-color="#F2F5FB"/>
</linearGradient>
<linearGradient id="paint17_linear_606_19192" x1="452.865" y1="-254.253" x2="1300.12" y2="590.766" gradientUnits="userSpaceOnUse">
<stop offset="0.01" stop-color="#CBD1DF"/>
<stop offset="0.09" stop-color="#DCE1EB"/>
<stop offset="0.19" stop-color="#F2F5FB"/>
<stop offset="0.6" stop-color="#BAC1D1"/>
<stop offset="0.87" stop-color="#CBD1DF"/>
<stop offset="1" stop-color="#F2F5FB"/>
</linearGradient>
<linearGradient id="paint18_linear_606_19192" x1="461.683" y1="-243.463" x2="1305.05" y2="597.688" gradientUnits="userSpaceOnUse">
<stop offset="0.01" stop-color="#CBD1DF"/>
<stop offset="0.09" stop-color="#DCE1EB"/>
<stop offset="0.19" stop-color="#F2F5FB"/>
<stop offset="0.6" stop-color="#BAC1D1"/>
<stop offset="0.87" stop-color="#CBD1DF"/>
<stop offset="1" stop-color="#F2F5FB"/>
</linearGradient>
<linearGradient id="paint19_linear_606_19192" x1="470.493" y1="-232.65" x2="1309.97" y2="604.619" gradientUnits="userSpaceOnUse">
<stop offset="0.01" stop-color="#CBD1DF"/>
<stop offset="0.09" stop-color="#DCE1EB"/>
<stop offset="0.19" stop-color="#F2F5FB"/>
<stop offset="0.6" stop-color="#BAC1D1"/>
<stop offset="0.87" stop-color="#CBD1DF"/>
<stop offset="1" stop-color="#F2F5FB"/>
</linearGradient>
<linearGradient id="paint20_linear_606_19192" x1="479.289" y1="-221.868" x2="1314.9" y2="611.542" gradientUnits="userSpaceOnUse">
<stop offset="0.01" stop-color="#CBD1DF"/>
<stop offset="0.09" stop-color="#DCE1EB"/>
<stop offset="0.19" stop-color="#F2F5FB"/>
<stop offset="0.6" stop-color="#BAC1D1"/>
<stop offset="0.87" stop-color="#CBD1DF"/>
<stop offset="1" stop-color="#F2F5FB"/>
</linearGradient>
<linearGradient id="paint21_linear_606_19192" x1="488.09" y1="-211.07" x2="1319.84" y2="618.48" gradientUnits="userSpaceOnUse">
<stop offset="0.01" stop-color="#CBD1DF"/>
<stop offset="0.09" stop-color="#DCE1EB"/>
<stop offset="0.19" stop-color="#F2F5FB"/>
<stop offset="0.6" stop-color="#BAC1D1"/>
<stop offset="0.87" stop-color="#CBD1DF"/>
<stop offset="1" stop-color="#F2F5FB"/>
</linearGradient>
<linearGradient id="paint22_linear_606_19192" x1="496.87" y1="-200.28" x2="1324.75" y2="625.411" gradientUnits="userSpaceOnUse">
<stop offset="0.01" stop-color="#CBD1DF"/>
<stop offset="0.09" stop-color="#DCE1EB"/>
<stop offset="0.19" stop-color="#F2F5FB"/>
<stop offset="0.6" stop-color="#BAC1D1"/>
<stop offset="0.87" stop-color="#CBD1DF"/>
<stop offset="1" stop-color="#F2F5FB"/>
</linearGradient>
<linearGradient id="paint23_linear_606_19192" x1="505.658" y1="-189.513" x2="1329.68" y2="632.333" gradientUnits="userSpaceOnUse">
<stop offset="0.01" stop-color="#CBD1DF"/>
<stop offset="0.09" stop-color="#DCE1EB"/>
<stop offset="0.19" stop-color="#F2F5FB"/>
<stop offset="0.6" stop-color="#BAC1D1"/>
<stop offset="0.87" stop-color="#CBD1DF"/>
<stop offset="1" stop-color="#F2F5FB"/>
</linearGradient>
<linearGradient id="paint24_linear_606_19192" x1="514.429" y1="-178.738" x2="1334.59" y2="639.263" gradientUnits="userSpaceOnUse">
<stop offset="0.01" stop-color="#CBD1DF"/>
<stop offset="0.09" stop-color="#DCE1EB"/>
<stop offset="0.19" stop-color="#F2F5FB"/>
<stop offset="0.6" stop-color="#BAC1D1"/>
<stop offset="0.87" stop-color="#CBD1DF"/>
<stop offset="1" stop-color="#F2F5FB"/>
</linearGradient>
<linearGradient id="paint25_linear_606_19192" x1="523.193" y1="-167.978" x2="1339.53" y2="646.202" gradientUnits="userSpaceOnUse">
<stop offset="0.01" stop-color="#CBD1DF"/>
<stop offset="0.09" stop-color="#DCE1EB"/>
<stop offset="0.19" stop-color="#F2F5FB"/>
<stop offset="0.6" stop-color="#BAC1D1"/>
<stop offset="0.87" stop-color="#CBD1DF"/>
<stop offset="1" stop-color="#F2F5FB"/>
</linearGradient>
<linearGradient id="paint26_linear_606_19192" x1="531.957" y1="-157.218" x2="1344.45" y2="653.132" gradientUnits="userSpaceOnUse">
<stop offset="0.01" stop-color="#CBD1DF"/>
<stop offset="0.09" stop-color="#DCE1EB"/>
<stop offset="0.19" stop-color="#F2F5FB"/>
<stop offset="0.6" stop-color="#BAC1D1"/>
<stop offset="0.87" stop-color="#CBD1DF"/>
<stop offset="1" stop-color="#F2F5FB"/>
</linearGradient>
<linearGradient id="paint27_linear_606_19192" x1="540.706" y1="-146.488" x2="1349.38" y2="660.055" gradientUnits="userSpaceOnUse">
<stop offset="0.01" stop-color="#CBD1DF"/>
<stop offset="0.09" stop-color="#DCE1EB"/>
<stop offset="0.19" stop-color="#F2F5FB"/>
<stop offset="0.6" stop-color="#BAC1D1"/>
<stop offset="0.87" stop-color="#CBD1DF"/>
<stop offset="1" stop-color="#F2F5FB"/>
</linearGradient>
<linearGradient id="paint28_linear_606_19192" x1="549.446" y1="-135.736" x2="1354.3" y2="667" gradientUnits="userSpaceOnUse">
<stop offset="0.01" stop-color="#CBD1DF"/>
<stop offset="0.09" stop-color="#DCE1EB"/>
<stop offset="0.19" stop-color="#F2F5FB"/>
<stop offset="0.6" stop-color="#BAC1D1"/>
<stop offset="0.87" stop-color="#CBD1DF"/>
<stop offset="1" stop-color="#F2F5FB"/>
</linearGradient>
<linearGradient id="paint29_linear_606_19192" x1="558.17" y1="-125.013" x2="1359.23" y2="673.923" gradientUnits="userSpaceOnUse">
<stop offset="0.01" stop-color="#CBD1DF"/>
<stop offset="0.09" stop-color="#DCE1EB"/>
<stop offset="0.19" stop-color="#F2F5FB"/>
<stop offset="0.6" stop-color="#BAC1D1"/>
<stop offset="0.87" stop-color="#CBD1DF"/>
<stop offset="1" stop-color="#F2F5FB"/>
</linearGradient>
<linearGradient id="paint30_linear_606_19192" x1="566.887" y1="-114.306" x2="1364.15" y2="680.854" gradientUnits="userSpaceOnUse">
<stop offset="0.01" stop-color="#CBD1DF"/>
<stop offset="0.09" stop-color="#DCE1EB"/>
<stop offset="0.19" stop-color="#F2F5FB"/>
<stop offset="0.6" stop-color="#BAC1D1"/>
<stop offset="0.87" stop-color="#CBD1DF"/>
<stop offset="1" stop-color="#F2F5FB"/>
</linearGradient>
<linearGradient id="paint31_linear_606_19192" x1="575.603" y1="-103.599" x2="1369.07" y2="687.776" gradientUnits="userSpaceOnUse">
<stop offset="0.01" stop-color="#CBD1DF"/>
<stop offset="0.09" stop-color="#DCE1EB"/>
<stop offset="0.19" stop-color="#F2F5FB"/>
<stop offset="0.6" stop-color="#BAC1D1"/>
<stop offset="0.87" stop-color="#CBD1DF"/>
<stop offset="1" stop-color="#F2F5FB"/>
</linearGradient>
<linearGradient id="paint32_linear_606_19192" x1="584.29" y1="-92.9143" x2="1374" y2="694.722" gradientUnits="userSpaceOnUse">
<stop offset="0.01" stop-color="#CBD1DF"/>
<stop offset="0.09" stop-color="#DCE1EB"/>
<stop offset="0.19" stop-color="#F2F5FB"/>
<stop offset="0.6" stop-color="#BAC1D1"/>
<stop offset="0.87" stop-color="#CBD1DF"/>
<stop offset="1" stop-color="#F2F5FB"/>
</linearGradient>
<linearGradient id="paint33_linear_606_19192" x1="592.966" y1="-82.2445" x2="1378.93" y2="701.645" gradientUnits="userSpaceOnUse">
<stop offset="0.01" stop-color="#CBD1DF"/>
<stop offset="0.09" stop-color="#DCE1EB"/>
<stop offset="0.19" stop-color="#F2F5FB"/>
<stop offset="0.6" stop-color="#BAC1D1"/>
<stop offset="0.87" stop-color="#CBD1DF"/>
<stop offset="1" stop-color="#F2F5FB"/>
</linearGradient>
<linearGradient id="paint34_linear_606_19192" x1="601.622" y1="-71.5821" x2="1383.84" y2="708.576" gradientUnits="userSpaceOnUse">
<stop offset="0.01" stop-color="#CBD1DF"/>
<stop offset="0.09" stop-color="#DCE1EB"/>
<stop offset="0.19" stop-color="#F2F5FB"/>
<stop offset="0.6" stop-color="#BAC1D1"/>
<stop offset="0.87" stop-color="#CBD1DF"/>
<stop offset="1" stop-color="#F2F5FB"/>
</linearGradient>
<linearGradient id="paint35_linear_606_19192" x1="610.261" y1="-60.95" x2="1388.78" y2="715.514" gradientUnits="userSpaceOnUse">
<stop offset="0.01" stop-color="#CBD1DF"/>
<stop offset="0.09" stop-color="#DCE1EB"/>
<stop offset="0.19" stop-color="#F2F5FB"/>
<stop offset="0.6" stop-color="#BAC1D1"/>
<stop offset="0.87" stop-color="#CBD1DF"/>
<stop offset="1" stop-color="#F2F5FB"/>
</linearGradient>
<linearGradient id="paint36_linear_606_19192" x1="618.891" y1="-50.3335" x2="1393.69" y2="722.444" gradientUnits="userSpaceOnUse">
<stop offset="0.01" stop-color="#CBD1DF"/>
<stop offset="0.09" stop-color="#DCE1EB"/>
<stop offset="0.19" stop-color="#F2F5FB"/>
<stop offset="0.6" stop-color="#BAC1D1"/>
<stop offset="0.87" stop-color="#CBD1DF"/>
<stop offset="1" stop-color="#F2F5FB"/>
</linearGradient>
<linearGradient id="paint37_linear_606_19192" x1="627.489" y1="-39.7391" x2="1398.62" y2="729.367" gradientUnits="userSpaceOnUse">
<stop offset="0.01" stop-color="#CBD1DF"/>
<stop offset="0.09" stop-color="#DCE1EB"/>
<stop offset="0.19" stop-color="#F2F5FB"/>
<stop offset="0.6" stop-color="#BAC1D1"/>
<stop offset="0.87" stop-color="#CBD1DF"/>
<stop offset="1" stop-color="#F2F5FB"/>
</linearGradient>
<linearGradient id="paint38_linear_606_19192" x1="636.059" y1="-29.1671" x2="1403.55" y2="736.312" gradientUnits="userSpaceOnUse">
<stop offset="0.01" stop-color="#CBD1DF"/>
<stop offset="0.09" stop-color="#DCE1EB"/>
<stop offset="0.19" stop-color="#F2F5FB"/>
<stop offset="0.6" stop-color="#BAC1D1"/>
<stop offset="0.87" stop-color="#CBD1DF"/>
<stop offset="1" stop-color="#F2F5FB"/>
</linearGradient>
<linearGradient id="paint39_linear_606_19192" x1="644.588" y1="-18.6328" x2="1408.46" y2="743.243" gradientUnits="userSpaceOnUse">
<stop offset="0.01" stop-color="#CBD1DF"/>
<stop offset="0.09" stop-color="#DCE1EB"/>
<stop offset="0.19" stop-color="#F2F5FB"/>
<stop offset="0.6" stop-color="#BAC1D1"/>
<stop offset="0.87" stop-color="#CBD1DF"/>
<stop offset="1" stop-color="#F2F5FB"/>
</linearGradient>
<linearGradient id="paint40_linear_606_19192" x1="653.07" y1="-8.15074" x2="1413.39" y2="750.166" gradientUnits="userSpaceOnUse">
<stop offset="0.01" stop-color="#CBD1DF"/>
<stop offset="0.09" stop-color="#DCE1EB"/>
<stop offset="0.19" stop-color="#F2F5FB"/>
<stop offset="0.6" stop-color="#BAC1D1"/>
<stop offset="0.87" stop-color="#CBD1DF"/>
<stop offset="1" stop-color="#F2F5FB"/>
</linearGradient>
<linearGradient id="paint41_linear_606_19192" x1="661.513" y1="2.29312" x2="1418.31" y2="757.097" gradientUnits="userSpaceOnUse">
<stop offset="0.01" stop-color="#CBD1DF"/>
<stop offset="0.09" stop-color="#DCE1EB"/>
<stop offset="0.19" stop-color="#F2F5FB"/>
<stop offset="0.6" stop-color="#BAC1D1"/>
<stop offset="0.87" stop-color="#CBD1DF"/>
<stop offset="1" stop-color="#F2F5FB"/>
</linearGradient>
<linearGradient id="paint42_linear_606_19192" x1="669.909" y1="12.6843" x2="1423.24" y2="764.034" gradientUnits="userSpaceOnUse">
<stop offset="0.01" stop-color="#CBD1DF"/>
<stop offset="0.09" stop-color="#DCE1EB"/>
<stop offset="0.19" stop-color="#F2F5FB"/>
<stop offset="0.6" stop-color="#BAC1D1"/>
<stop offset="0.87" stop-color="#CBD1DF"/>
<stop offset="1" stop-color="#F2F5FB"/>
</linearGradient>
<linearGradient id="paint43_linear_606_19192" x1="678.227" y1="23.0386" x2="1428.14" y2="770.973" gradientUnits="userSpaceOnUse">
<stop offset="0.01" stop-color="#CBD1DF"/>
<stop offset="0.09" stop-color="#DCE1EB"/>
<stop offset="0.19" stop-color="#F2F5FB"/>
<stop offset="0.6" stop-color="#BAC1D1"/>
<stop offset="0.87" stop-color="#CBD1DF"/>
<stop offset="1" stop-color="#F2F5FB"/>
</linearGradient>
<linearGradient id="paint44_linear_606_19192" x1="686.529" y1="33.3245" x2="1433.08" y2="777.911" gradientUnits="userSpaceOnUse">
<stop offset="0.01" stop-color="#CBD1DF"/>
<stop offset="0.09" stop-color="#DCE1EB"/>
<stop offset="0.19" stop-color="#F2F5FB"/>
<stop offset="0.6" stop-color="#BAC1D1"/>
<stop offset="0.87" stop-color="#CBD1DF"/>
<stop offset="1" stop-color="#F2F5FB"/>
</linearGradient>
<linearGradient id="paint45_linear_606_19192" x1="694.768" y1="43.5653" x2="1438" y2="784.841" gradientUnits="userSpaceOnUse">
<stop offset="0.01" stop-color="#CBD1DF"/>
<stop offset="0.09" stop-color="#DCE1EB"/>
<stop offset="0.19" stop-color="#F2F5FB"/>
<stop offset="0.6" stop-color="#BAC1D1"/>
<stop offset="0.87" stop-color="#CBD1DF"/>
<stop offset="1" stop-color="#F2F5FB"/>
</linearGradient>
<linearGradient id="paint46_linear_606_19192" x1="702.962" y1="53.7535" x2="1442.93" y2="791.764" gradientUnits="userSpaceOnUse">
<stop offset="0.01" stop-color="#CBD1DF"/>
<stop offset="0.09" stop-color="#DCE1EB"/>
<stop offset="0.19" stop-color="#F2F5FB"/>
<stop offset="0.6" stop-color="#BAC1D1"/>
<stop offset="0.87" stop-color="#CBD1DF"/>
<stop offset="1" stop-color="#F2F5FB"/>
</linearGradient>
<linearGradient id="paint47_linear_606_19192" x1="711.092" y1="63.8968" x2="1447.85" y2="798.71" gradientUnits="userSpaceOnUse">
<stop offset="0.01" stop-color="#CBD1DF"/>
<stop offset="0.09" stop-color="#DCE1EB"/>
<stop offset="0.19" stop-color="#F2F5FB"/>
<stop offset="0.6" stop-color="#BAC1D1"/>
<stop offset="0.87" stop-color="#CBD1DF"/>
<stop offset="1" stop-color="#F2F5FB"/>
</linearGradient>
<linearGradient id="paint48_linear_606_19192" x1="719.168" y1="73.9722" x2="1452.78" y2="805.633" gradientUnits="userSpaceOnUse">
<stop offset="0.01" stop-color="#CBD1DF"/>
<stop offset="0.09" stop-color="#DCE1EB"/>
<stop offset="0.19" stop-color="#F2F5FB"/>
<stop offset="0.6" stop-color="#BAC1D1"/>
<stop offset="0.87" stop-color="#CBD1DF"/>
<stop offset="1" stop-color="#F2F5FB"/>
</linearGradient>
<linearGradient id="paint49_linear_606_19192" x1="727.141" y1="83.9267" x2="1457.69" y2="812.563" gradientUnits="userSpaceOnUse">
<stop offset="0.01" stop-color="#CBD1DF"/>
<stop offset="0.09" stop-color="#DCE1EB"/>
<stop offset="0.19" stop-color="#F2F5FB"/>
<stop offset="0.6" stop-color="#BAC1D1"/>
<stop offset="0.87" stop-color="#CBD1DF"/>
<stop offset="1" stop-color="#F2F5FB"/>
</linearGradient>
<linearGradient id="paint50_linear_606_19192" x1="734.847" y1="93.6334" x2="1462.63" y2="819.501" gradientUnits="userSpaceOnUse">
<stop offset="0.01" stop-color="#CBD1DF"/>
<stop offset="0.09" stop-color="#DCE1EB"/>
<stop offset="0.19" stop-color="#F2F5FB"/>
<stop offset="0.6" stop-color="#BAC1D1"/>
<stop offset="0.87" stop-color="#CBD1DF"/>
<stop offset="1" stop-color="#F2F5FB"/>
</linearGradient>
<linearGradient id="paint51_linear_606_19192" x1="742.235" y1="103.024" x2="1467.55" y2="826.431" gradientUnits="userSpaceOnUse">
<stop offset="0.01" stop-color="#CBD1DF"/>
<stop offset="0.09" stop-color="#DCE1EB"/>
<stop offset="0.19" stop-color="#F2F5FB"/>
<stop offset="0.6" stop-color="#BAC1D1"/>
<stop offset="0.87" stop-color="#CBD1DF"/>
<stop offset="1" stop-color="#F2F5FB"/>
</linearGradient>
<linearGradient id="paint52_linear_606_19192" x1="749.302" y1="112.099" x2="1472.48" y2="833.354" gradientUnits="userSpaceOnUse">
<stop offset="0.01" stop-color="#CBD1DF"/>
<stop offset="0.09" stop-color="#DCE1EB"/>
<stop offset="0.19" stop-color="#F2F5FB"/>
<stop offset="0.6" stop-color="#BAC1D1"/>
<stop offset="0.87" stop-color="#CBD1DF"/>
<stop offset="1" stop-color="#F2F5FB"/>
</linearGradient>
<linearGradient id="paint53_linear_606_19192" x1="756.039" y1="120.843" x2="1477.39" y2="840.285" gradientUnits="userSpaceOnUse">
<stop offset="0.01" stop-color="#CBD1DF"/>
<stop offset="0.09" stop-color="#DCE1EB"/>
<stop offset="0.19" stop-color="#F2F5FB"/>
<stop offset="0.6" stop-color="#BAC1D1"/>
<stop offset="0.87" stop-color="#CBD1DF"/>
<stop offset="1" stop-color="#F2F5FB"/>
</linearGradient>
<linearGradient id="paint54_linear_606_19192" x1="762.432" y1="129.225" x2="1482.33" y2="847.223" gradientUnits="userSpaceOnUse">
<stop offset="0.01" stop-color="#CBD1DF"/>
<stop offset="0.09" stop-color="#DCE1EB"/>
<stop offset="0.19" stop-color="#F2F5FB"/>
<stop offset="0.6" stop-color="#BAC1D1"/>
<stop offset="0.87" stop-color="#CBD1DF"/>
<stop offset="1" stop-color="#F2F5FB"/>
</linearGradient>
<linearGradient id="paint55_linear_606_19192" x1="768.465" y1="137.253" x2="1487.24" y2="854.153" gradientUnits="userSpaceOnUse">
<stop offset="0.01" stop-color="#CBD1DF"/>
<stop offset="0.09" stop-color="#DCE1EB"/>
<stop offset="0.19" stop-color="#F2F5FB"/>
<stop offset="0.6" stop-color="#BAC1D1"/>
<stop offset="0.87" stop-color="#CBD1DF"/>
<stop offset="1" stop-color="#F2F5FB"/>
</linearGradient>
<linearGradient id="paint56_linear_606_19192" x1="774.123" y1="144.937" x2="1492.17" y2="861.076" gradientUnits="userSpaceOnUse">
<stop offset="0.01" stop-color="#CBD1DF"/>
<stop offset="0.09" stop-color="#DCE1EB"/>
<stop offset="0.19" stop-color="#F2F5FB"/>
<stop offset="0.6" stop-color="#BAC1D1"/>
<stop offset="0.87" stop-color="#CBD1DF"/>
<stop offset="1" stop-color="#F2F5FB"/>
</linearGradient>
<linearGradient id="paint57_linear_606_19192" x1="779.428" y1="152.243" x2="1497.1" y2="868.022" gradientUnits="userSpaceOnUse">
<stop offset="0.01" stop-color="#CBD1DF"/>
<stop offset="0.09" stop-color="#DCE1EB"/>
<stop offset="0.19" stop-color="#F2F5FB"/>
<stop offset="0.6" stop-color="#BAC1D1"/>
<stop offset="0.87" stop-color="#CBD1DF"/>
<stop offset="1" stop-color="#F2F5FB"/>
</linearGradient>
<linearGradient id="paint58_linear_606_19192" x1="784.397" y1="159.204" x2="1502.02" y2="874.945" gradientUnits="userSpaceOnUse">
<stop offset="0.01" stop-color="#CBD1DF"/>
<stop offset="0.09" stop-color="#DCE1EB"/>
<stop offset="0.19" stop-color="#F2F5FB"/>
<stop offset="0.6" stop-color="#BAC1D1"/>
<stop offset="0.87" stop-color="#CBD1DF"/>
<stop offset="1" stop-color="#F2F5FB"/>
</linearGradient>
<linearGradient id="paint59_linear_606_19192" x1="789.015" y1="165.826" x2="1506.96" y2="881.867" gradientUnits="userSpaceOnUse">
<stop offset="0.01" stop-color="#CBD1DF"/>
<stop offset="0.09" stop-color="#DCE1EB"/>
<stop offset="0.19" stop-color="#F2F5FB"/>
<stop offset="0.6" stop-color="#BAC1D1"/>
<stop offset="0.87" stop-color="#CBD1DF"/>
<stop offset="1" stop-color="#F2F5FB"/>
</linearGradient>
<linearGradient id="paint60_linear_606_19192" x1="793.312" y1="172.132" x2="1511.87" y2="888.798" gradientUnits="userSpaceOnUse">
<stop offset="0.01" stop-color="#CBD1DF"/>
<stop offset="0.09" stop-color="#DCE1EB"/>
<stop offset="0.19" stop-color="#F2F5FB"/>
<stop offset="0.6" stop-color="#BAC1D1"/>
<stop offset="0.87" stop-color="#CBD1DF"/>
<stop offset="1" stop-color="#F2F5FB"/>
</linearGradient>
<linearGradient id="paint61_linear_606_19192" x1="797.317" y1="178.144" x2="1516.81" y2="895.736" gradientUnits="userSpaceOnUse">
<stop offset="0.01" stop-color="#CBD1DF"/>
<stop offset="0.09" stop-color="#DCE1EB"/>
<stop offset="0.19" stop-color="#F2F5FB"/>
<stop offset="0.6" stop-color="#BAC1D1"/>
<stop offset="0.87" stop-color="#CBD1DF"/>
<stop offset="1" stop-color="#F2F5FB"/>
</linearGradient>
<linearGradient id="paint62_linear_606_19192" x1="801.043" y1="183.878" x2="1521.72" y2="902.666" gradientUnits="userSpaceOnUse">
<stop offset="0.01" stop-color="#CBD1DF"/>
<stop offset="0.09" stop-color="#DCE1EB"/>
<stop offset="0.19" stop-color="#F2F5FB"/>
<stop offset="0.6" stop-color="#BAC1D1"/>
<stop offset="0.87" stop-color="#CBD1DF"/>
<stop offset="1" stop-color="#F2F5FB"/>
</linearGradient>
<linearGradient id="paint63_linear_606_19192" x1="804.518" y1="189.356" x2="1526.65" y2="909.589" gradientUnits="userSpaceOnUse">
<stop offset="0.01" stop-color="#CBD1DF"/>
<stop offset="0.09" stop-color="#DCE1EB"/>
<stop offset="0.19" stop-color="#F2F5FB"/>
<stop offset="0.6" stop-color="#BAC1D1"/>
<stop offset="0.87" stop-color="#CBD1DF"/>
<stop offset="1" stop-color="#F2F5FB"/>
</linearGradient>
<linearGradient id="paint64_linear_606_19192" x1="807.765" y1="194.624" x2="1531.57" y2="916.535" gradientUnits="userSpaceOnUse">
<stop offset="0.01" stop-color="#CBD1DF"/>
<stop offset="0.09" stop-color="#DCE1EB"/>
<stop offset="0.19" stop-color="#F2F5FB"/>
<stop offset="0.6" stop-color="#BAC1D1"/>
<stop offset="0.87" stop-color="#CBD1DF"/>
<stop offset="1" stop-color="#F2F5FB"/>
</linearGradient>
<linearGradient id="paint65_linear_606_19192" x1="810.803" y1="199.674" x2="1536.51" y2="923.458" gradientUnits="userSpaceOnUse">
<stop offset="0.01" stop-color="#CBD1DF"/>
<stop offset="0.09" stop-color="#DCE1EB"/>
<stop offset="0.19" stop-color="#F2F5FB"/>
<stop offset="0.6" stop-color="#BAC1D1"/>
<stop offset="0.87" stop-color="#CBD1DF"/>
<stop offset="1" stop-color="#F2F5FB"/>
</linearGradient>
<linearGradient id="paint66_linear_606_19192" x1="813.661" y1="204.528" x2="1541.44" y2="930.38" gradientUnits="userSpaceOnUse">
<stop offset="0.01" stop-color="#CBD1DF"/>
<stop offset="0.09" stop-color="#DCE1EB"/>
<stop offset="0.19" stop-color="#F2F5FB"/>
<stop offset="0.6" stop-color="#BAC1D1"/>
<stop offset="0.87" stop-color="#CBD1DF"/>
<stop offset="1" stop-color="#F2F5FB"/>
</linearGradient>
<linearGradient id="paint67_linear_606_19192" x1="816.338" y1="209.224" x2="1546.35" y2="937.311" gradientUnits="userSpaceOnUse">
<stop offset="0.01" stop-color="#CBD1DF"/>
<stop offset="0.09" stop-color="#DCE1EB"/>
<stop offset="0.19" stop-color="#F2F5FB"/>
<stop offset="0.6" stop-color="#BAC1D1"/>
<stop offset="0.87" stop-color="#CBD1DF"/>
<stop offset="1" stop-color="#F2F5FB"/>
</linearGradient>
<linearGradient id="paint68_linear_606_19192" x1="818.872" y1="213.761" x2="1551.29" y2="944.249" gradientUnits="userSpaceOnUse">
<stop offset="0.01" stop-color="#CBD1DF"/>
<stop offset="0.09" stop-color="#DCE1EB"/>
<stop offset="0.19" stop-color="#F2F5FB"/>
<stop offset="0.6" stop-color="#BAC1D1"/>
<stop offset="0.87" stop-color="#CBD1DF"/>
<stop offset="1" stop-color="#F2F5FB"/>
</linearGradient>
<linearGradient id="paint69_linear_606_19192" x1="821.212" y1="218.111" x2="1556.2" y2="951.179" gradientUnits="userSpaceOnUse">
<stop offset="0.01" stop-color="#CBD1DF"/>
<stop offset="0.09" stop-color="#DCE1EB"/>
<stop offset="0.19" stop-color="#F2F5FB"/>
<stop offset="0.6" stop-color="#BAC1D1"/>
<stop offset="0.87" stop-color="#CBD1DF"/>
<stop offset="1" stop-color="#F2F5FB"/>
</linearGradient>
<linearGradient id="paint70_linear_606_19192" x1="823.514" y1="222.423" x2="1561.13" y2="958.102" gradientUnits="userSpaceOnUse">
<stop offset="0.01" stop-color="#CBD1DF"/>
<stop offset="0.09" stop-color="#DCE1EB"/>
<stop offset="0.19" stop-color="#F2F5FB"/>
<stop offset="0.6" stop-color="#BAC1D1"/>
<stop offset="0.87" stop-color="#CBD1DF"/>
<stop offset="1" stop-color="#F2F5FB"/>
</linearGradient>
<linearGradient id="paint71_linear_606_19192" x1="824.615" y1="226.145" x2="1566.5" y2="966.074" gradientUnits="userSpaceOnUse">
<stop offset="0.01" stop-color="#CBD1DF"/>
<stop offset="0.09" stop-color="#DCE1EB"/>
<stop offset="0.19" stop-color="#F2F5FB"/>
<stop offset="0.6" stop-color="#BAC1D1"/>
<stop offset="0.87" stop-color="#CBD1DF"/>
<stop offset="1" stop-color="#F2F5FB"/>
</linearGradient>
<clipPath id="clip0_606_19192">
<rect width="1920" height="666" fill="white"/>
</clipPath>
<clipPath id="clip1_606_19192">
<rect width="2141.41" height="1725.11" fill="white" transform="translate(550.254 -1115.35) rotate(34.1543)"/>
</clipPath>
</defs>
</svg>
