<svg width="1920" height="617" viewBox="0 0 1920 617" fill="none" xmlns="http://www.w3.org/2000/svg">
<g clip-path="url(#clip0_514_434)">
<path d="M1920 525.864C1920 538.089 1501.53 417.334 1312.17 430.44C1052.65 448.389 1129.83 531.101 807.357 544.248C709.169 548.251 580.179 467.809 475.229 472.787C395.1 476.581 337.838 555.239 271.095 570.036C122.475 602.977 1.06548 582.997 1.06548 582.997L0 387.358C59.9535 408.085 100.291 406.198 147.76 367.75C186.936 336.032 305.3 377.383 344.435 345.541C375.266 320.458 298.907 231.567 340.105 198.241C401.343 148.699 487.004 199.06 524.938 155.034C558.733 115.83 502.713 109.36 507.726 55.5457C509.693 34.3208 520.239 14.8689 536.972 0H1920C1920 0 1920 479.215 1920 525.864Z" fill="#FA8617"/>
<path d="M1920 554.05C1913.28 564.059 1500.06 445.207 1312.23 458.227C1052.68 476.2 1129.87 559.023 807.359 572.188C709.163 576.196 580.162 495.647 475.204 500.63C395.068 504.431 337.8 583.194 271.052 598.01C122.42 630.996 1 610.989 1 610.989V604.759C1 604.759 122.42 624.766 271.052 591.78C337.8 576.964 395.068 498.201 475.204 494.401C580.162 489.417 709.163 569.966 807.359 565.959C1129.87 552.793 1052.68 469.97 1312.23 451.998C1499.78 438.999 1912.09 557.486 1919.96 547.862C1919.97 550.021 1919.99 552.087 1920 554.05Z" fill="#FA8617"/>
<path opacity="0.33" d="M1126.05 100.906C1129.83 102.453 1133.96 103.312 1138.34 103.312C1156.39 103.312 1171 88.7031 1171 70.6562C1171 52.6094 1156.39 38 1138.34 38C1120.29 38 1105.68 52.6094 1105.68 70.6562C1105.68 76.6719 1107.31 82.2578 1110.15 87.0703L1037.52 166.305C1033.4 164.414 1028.67 163.297 1023.86 163.297C1016.73 163.297 1010.19 165.617 1004.78 169.484L927.684 116.461C928.286 113.797 928.715 111.047 928.715 108.297C928.715 90.25 914.104 75.6406 896.055 75.6406C878.007 75.6406 863.396 90.25 863.396 108.297C863.396 112.078 863.997 115.773 865.2 119.125L795.411 192.773C791.286 190.883 786.645 189.766 781.746 189.766C763.697 189.766 749.086 204.375 749.086 222.422C749.086 240.469 763.697 255.078 781.746 255.078C799.795 255.078 814.406 240.469 814.406 222.422C814.406 216.922 813.031 211.766 810.624 207.211L878.436 135.711C883.507 138.977 889.609 140.953 896.055 140.953C903.705 140.953 910.666 138.375 916.167 134.078L992.66 186.672C991.8 189.68 991.285 192.773 991.285 196.039C991.285 214.086 1005.9 228.695 1023.94 228.695C1041.99 228.695 1056.6 214.086 1056.6 196.039C1056.6 190.625 1055.23 185.469 1052.82 180.914L1126.05 100.906ZM1138.25 63.6953C1142.12 63.6953 1145.22 66.7891 1145.22 70.6562C1145.22 74.5234 1142.12 77.6172 1138.25 77.6172C1134.39 77.6172 1131.29 74.5234 1131.29 70.6562C1131.38 66.7891 1134.56 63.6953 1138.25 63.6953ZM781.746 229.297C777.878 229.297 774.784 226.203 774.784 222.336C774.784 218.469 777.878 215.375 781.746 215.375C785.613 215.375 788.708 218.469 788.708 222.336C788.622 226.203 785.442 229.297 781.746 229.297ZM895.969 115.258C892.102 115.258 889.008 112.164 889.008 108.297C889.008 104.43 892.102 101.336 895.969 101.336C899.837 101.336 902.931 104.43 902.931 108.297C902.931 112.078 899.837 115.258 895.969 115.258ZM1023.86 202.914C1019.99 202.914 1016.9 199.82 1016.9 195.953C1016.9 192.086 1019.99 188.992 1023.86 188.992C1027.73 188.992 1030.82 192.086 1030.82 195.953C1030.82 199.82 1027.73 202.914 1023.86 202.914ZM1171 423H1145.39V173.695H1171V423ZM1036.15 423H1010.54V285.156H1036.15V423ZM912.042 423H886.429V210.992H912.042V423ZM774.698 423H749V326.148H774.612V423H774.698Z" fill="white"/>
</g>
<defs>
<clipPath id="clip0_514_434">
<rect width="1920" height="617" fill="white"/>
</clipPath>
</defs>
</svg>
