<?xml version="1.0" encoding="utf-8"?>
<!-- Generator: Adobe Illustrator 26.0.0, SVG Export Plug-In . SVG Version: 6.00 Build 0)  -->
<svg version="1.1" id="Layer_1" xmlns="http://www.w3.org/2000/svg" xmlns:xlink="http://www.w3.org/1999/xlink" x="0px" y="0px"
	 viewBox="0 0 35 33" style="enable-background:new 0 0 35 33;" xml:space="preserve">
<style type="text/css">
	.st0{fill:#FA8617;}
	.st1{fill:#CACACA;}
</style>
<g>
	<path id="cla1_00000129889354294205908240000015338523547764660119_" class="st0" d="M28.9,21.1H10c-0.3,0-0.5,0.2-0.5,0.5
		s0.2,0.5,0.5,0.5h18.9c0.3,0,0.5-0.2,0.5-0.5C29.4,21.3,29.2,21.1,28.9,21.1z M28.9,16.8H17.1c-0.3,0-0.5,0.2-0.5,0.5
		s0.2,0.5,0.5,0.5h11.7c0.3,0,0.5-0.2,0.5-0.5C29.4,17,29.2,16.8,28.9,16.8z M13.2,16.8H10c-0.3,0-0.5,0.2-0.5,0.5s0.2,0.5,0.5,0.5
		h3.2c0.3,0,0.5-0.2,0.5-0.5S13.4,16.8,13.2,16.8z"/>
	<path class="st0" d="M0.6,3.3l2.6-2.4l0,1.7h8.9v1.5H3.2v1.7L0.6,3.3 M0,3.3c0,0.1,0,0.1,0.1,0.2C0.6,4,2.6,5.8,3.3,6.6
		c0.1,0.1,0.1,0.1,0.2,0.1c0.1,0,0.3-0.1,0.3-0.3V4.6h8.9V2H3.8l0-1.8C3.8,0.1,3.6,0,3.5,0C3.4,0,3.4,0,3.3,0.1l-3.2,3
		C0,3.2,0,3.3,0,3.3z"/>
	<path class="st0" d="M12,9.9l-2.6,2.4l0-1.7H0.5V9.2h8.9V7.5L12,9.9 M12.7,9.9c0-0.1,0-0.1-0.1-0.2c-0.5-0.5-2.5-2.3-3.2-3.1
		C9.3,6.6,9.2,6.6,9.2,6.6C9,6.6,8.9,6.7,8.9,6.9v1.8H0v2.6h8.9l0,1.8c0,0.2,0.1,0.3,0.3,0.3c0.1,0,0.1,0,0.2-0.1l3.2-3
		C12.6,10,12.7,10,12.7,9.9z"/>
</g>
<g id="cla2_00000008839459825259358980000002316836201950990214_">
	<path class="st1" d="M18.5,33C9.4,33,2,25.6,2,16.5h1C3,25,10,32,18.5,32S34,25,34,16.5S27,1,18.5,1V0C27.6,0,35,7.4,35,16.5
		C35,25.6,27.6,33,18.5,33z"/>
</g>
</svg>
