<svg width="536" height="375" viewBox="0 0 536 375" fill="none" xmlns="http://www.w3.org/2000/svg">
<path d="M124.5 175.3H311.7C314 175.3 315.8 173.5 315.8 171.2V30.7001C315.8 28.4001 314 26.6001 311.7 26.6001H124.5C122.2 26.6001 120.4 28.4001 120.4 30.7001V171.2C120.4 173.4 122.2 175.3 124.5 175.3Z" fill="#F6F6FF"/>
<path d="M126.201 164H255.001V160H126.201V164Z" fill="#C9D7FD"/>
<path d="M255.501 54.7001C247.401 54.7001 240.801 61.3001 240.801 69.5001C240.801 77.7001 247.401 84.2001 255.501 84.2001C263.601 84.2001 270.201 77.6001 270.201 69.5001C270.201 61.3001 263.601 54.7001 255.501 54.7001ZM255.501 54.7001C247.401 54.7001 240.801 61.3001 240.801 69.5001C240.801 77.7001 247.401 84.2001 255.501 84.2001C263.601 84.2001 270.201 77.6001 270.201 69.5001C270.201 61.3001 263.601 54.7001 255.501 54.7001ZM309.801 136.9L269.301 98.5001L235.901 133.2L177.001 66.1001L126.301 136.9L126.201 150.4H309.901V136.9H309.801ZM270.201 69.4001C270.201 61.3001 263.601 54.6001 255.501 54.6001C247.401 54.6001 240.801 61.2001 240.801 69.4001C240.801 77.6001 247.401 84.1001 255.501 84.1001C263.601 84.2001 270.201 77.6001 270.201 69.4001Z" fill="#C9D7FD"/>
<path d="M2.40655 170.659H0.651547V169.579H5.33155V170.659H3.57655V175.879H2.40655V170.659ZM6.18078 169.507H7.29678V172.072C7.44678 171.832 7.64478 171.64 7.89078 171.496C8.14278 171.346 8.42478 171.271 8.73678 171.271C9.17478 171.271 9.51978 171.388 9.77178 171.622C10.0238 171.85 10.1498 172.189 10.1498 172.639V175.879H9.03378V173.035C9.03378 172.759 8.97678 172.555 8.86278 172.423C8.75478 172.291 8.58678 172.225 8.35878 172.225C8.17878 172.225 8.00778 172.288 7.84578 172.414C7.68378 172.54 7.55178 172.732 7.44978 172.99C7.34778 173.248 7.29678 173.572 7.29678 173.962V175.879H6.18078V169.507ZM13.3363 175.951C12.8443 175.951 12.4333 175.837 12.1033 175.609C11.7793 175.375 11.5393 175.081 11.3833 174.727C11.2333 174.367 11.1583 173.995 11.1583 173.611C11.1583 173.227 11.2333 172.858 11.3833 172.504C11.5393 172.144 11.7793 171.85 12.1033 171.622C12.4333 171.388 12.8443 171.271 13.3363 171.271C13.8103 171.271 14.2063 171.385 14.5243 171.613C14.8423 171.835 15.0763 172.117 15.2263 172.459C15.3763 172.801 15.4513 173.152 15.4513 173.512V173.971H12.3283C12.3403 174.247 12.4393 174.487 12.6253 174.691C12.8173 174.895 13.0753 174.997 13.3993 174.997C13.6513 174.997 13.8613 174.94 14.0293 174.826C14.2033 174.712 14.3593 174.535 14.4973 174.295L15.3973 174.628C15.2113 175.054 14.9503 175.381 14.6143 175.609C14.2843 175.837 13.8583 175.951 13.3363 175.951ZM14.3083 173.089C14.2543 172.837 14.1463 172.63 13.9843 172.468C13.8283 172.306 13.6123 172.225 13.3363 172.225C13.0723 172.225 12.8533 172.309 12.6793 172.477C12.5053 172.645 12.3973 172.849 12.3553 173.089H14.3083ZM16.4552 171.343H17.5712V172.072C17.7452 171.808 17.9342 171.61 18.1382 171.478C18.3482 171.34 18.5942 171.271 18.8762 171.271C19.1702 171.271 19.4312 171.349 19.6592 171.505C19.8872 171.661 20.0492 171.895 20.1452 172.207C20.3072 171.913 20.5082 171.685 20.7482 171.523C20.9942 171.355 21.2552 171.271 21.5312 171.271C21.9512 171.271 22.2812 171.394 22.5212 171.64C22.7612 171.886 22.8812 172.228 22.8812 172.666V175.879H21.7652V172.855C21.7652 172.435 21.5792 172.225 21.2072 172.225C20.9192 172.225 20.6822 172.387 20.4962 172.711C20.3162 173.035 20.2262 173.503 20.2262 174.115V175.879H19.1102V172.855C19.1102 172.435 18.9242 172.225 18.5522 172.225C18.2642 172.225 18.0272 172.396 17.8412 172.738C17.6612 173.074 17.5712 173.566 17.5712 174.214V175.879H16.4552V171.343ZM26.0628 175.951C25.5708 175.951 25.1598 175.837 24.8298 175.609C24.5058 175.375 24.2658 175.081 24.1098 174.727C23.9598 174.367 23.8848 173.995 23.8848 173.611C23.8848 173.227 23.9598 172.858 24.1098 172.504C24.2658 172.144 24.5058 171.85 24.8298 171.622C25.1598 171.388 25.5708 171.271 26.0628 171.271C26.5368 171.271 26.9328 171.385 27.2508 171.613C27.5688 171.835 27.8028 172.117 27.9528 172.459C28.1028 172.801 28.1778 173.152 28.1778 173.512V173.971H25.0548C25.0668 174.247 25.1658 174.487 25.3518 174.691C25.5438 174.895 25.8018 174.997 26.1258 174.997C26.3778 174.997 26.5878 174.94 26.7558 174.826C26.9298 174.712 27.0858 174.535 27.2238 174.295L28.1238 174.628C27.9378 175.054 27.6768 175.381 27.3408 175.609C27.0108 175.837 26.5848 175.951 26.0628 175.951ZM27.0348 173.089C26.9808 172.837 26.8728 172.63 26.7108 172.468C26.5548 172.306 26.3388 172.225 26.0628 172.225C25.7988 172.225 25.5798 172.309 25.4058 172.477C25.2318 172.645 25.1238 172.849 25.0818 173.089H27.0348ZM30.5611 175.951C30.0931 175.951 29.7001 175.831 29.3821 175.591C29.0701 175.351 28.8631 175.063 28.7611 174.727L29.6521 174.25C29.7361 174.484 29.8531 174.667 30.0031 174.799C30.1591 174.931 30.3421 174.997 30.5521 174.997C30.7141 174.997 30.8491 174.964 30.9571 174.898C31.0651 174.826 31.1191 174.712 31.1191 174.556C31.1191 174.418 31.0531 174.307 30.9211 174.223C30.7951 174.133 30.5971 174.04 30.3271 173.944C30.2851 173.932 30.2221 173.908 30.1381 173.872C29.7901 173.734 29.5201 173.56 29.3281 173.35C29.1361 173.14 29.0401 172.87 29.0401 172.54C29.0401 172.306 29.1031 172.093 29.2291 171.901C29.3551 171.709 29.5261 171.556 29.7421 171.442C29.9641 171.328 30.2131 171.271 30.4891 171.271C30.7951 171.271 31.0741 171.337 31.3261 171.469C31.5781 171.595 31.7731 171.775 31.9111 172.009L31.2451 172.621C31.0651 172.357 30.8221 172.225 30.5161 172.225C30.3961 172.225 30.2911 172.258 30.2011 172.324C30.1171 172.384 30.0751 172.465 30.0751 172.567C30.0751 172.675 30.1381 172.777 30.2641 172.873C30.3901 172.963 30.6361 173.074 31.0021 173.206C31.3501 173.332 31.6171 173.497 31.8031 173.701C31.9951 173.905 32.0911 174.166 32.0911 174.484C32.0911 174.928 31.9501 175.285 31.6681 175.555C31.3861 175.819 31.0171 175.951 30.5611 175.951Z" fill="#FA8617"/>
<path d="M343.1 175.3H530.3C532.6 175.3 534.4 173.5 534.4 171.2V30.7001C534.4 28.4001 532.6 26.6001 530.3 26.6001H343.1C340.8 26.6001 339 28.4001 339 30.7001V171.2C339 173.4 340.8 175.3 343.1 175.3Z" fill="#F6F6FF"/>
<path d="M344.801 164H473.601V160H344.801V164Z" fill="#C9D7FD"/>
<path d="M474.1 54.7001C466 54.7001 459.4 61.3001 459.4 69.5001C459.4 77.7001 466 84.2001 474.1 84.2001C482.2 84.2001 488.8 77.6001 488.8 69.5001C488.8 61.3001 482.2 54.7001 474.1 54.7001ZM474.1 54.7001C466 54.7001 459.4 61.3001 459.4 69.5001C459.4 77.7001 466 84.2001 474.1 84.2001C482.2 84.2001 488.8 77.6001 488.8 69.5001C488.8 61.3001 482.2 54.7001 474.1 54.7001ZM528.5 136.9L488 98.5001L454.6 133.2L395.7 66.1001L345 136.9L344.9 150.4H528.6L528.5 136.9ZM488.8 69.4001C488.8 61.3001 482.2 54.6001 474.1 54.6001C466 54.6001 459.4 61.2001 459.4 69.4001C459.4 77.6001 466 84.1001 474.1 84.1001C482.2 84.2001 488.8 77.6001 488.8 69.4001Z" fill="#C9D7FD"/>
<path d="M124.5 349.1H311.7C314 349.1 315.8 347.3 315.8 345V204.5C315.8 202.2 314 200.4 311.7 200.4H124.5C122.2 200.4 120.4 202.2 120.4 204.5V345C120.4 347.3 122.2 349.1 124.5 349.1Z" fill="#F6F6FF"/>
<path d="M126.201 337.9H255.001V333.9H126.201V337.9Z" fill="#C9D7FD"/>
<path d="M255.501 228.5C247.401 228.5 240.801 235.1 240.801 243.3C240.801 251.5 247.401 258 255.501 258C263.601 258 270.201 251.4 270.201 243.3C270.201 235.1 263.601 228.5 255.501 228.5ZM255.501 228.5C247.401 228.5 240.801 235.1 240.801 243.3C240.801 251.5 247.401 258 255.501 258C263.601 258 270.201 251.4 270.201 243.3C270.201 235.1 263.601 228.5 255.501 228.5ZM309.801 310.8L269.301 272.4L235.901 307L177.001 239.9L126.301 310.7L126.201 324.2H309.901V310.8H309.801ZM270.201 243.3C270.201 235.2 263.601 228.5 255.501 228.5C247.401 228.5 240.801 235.1 240.801 243.3C240.801 251.5 247.401 258 255.501 258C263.601 258 270.201 251.4 270.201 243.3Z" fill="#C9D7FD"/>
<path d="M343.1 349.1H530.3C532.6 349.1 534.4 347.3 534.4 345V204.5C534.4 202.2 532.6 200.4 530.3 200.4H343.1C340.8 200.4 339 202.2 339 204.5V345C339 347.3 340.8 349.1 343.1 349.1Z" stroke="#C9D7FD" stroke-width="3" stroke-miterlimit="10" stroke-dasharray="11.88 11.88"/>
<path d="M396 329.2H477.5V325.2H396V329.2Z" fill="#C9D7FD"/>
<path d="M434.901 308.2C452.077 308.2 466.001 294.276 466.001 277.1C466.001 259.924 452.077 246 434.901 246C417.725 246 403.801 259.924 403.801 277.1C403.801 294.276 417.725 308.2 434.901 308.2Z" fill="#F6F6FF"/>
<path d="M433.4 263.3V290.8H437.4V263.3H433.4Z" fill="#C9D7FD"/>
<path d="M449.199 275.1H421.699V279.1H449.199V275.1Z" fill="#C9D7FD"/>
<path d="M422.501 170.6H471.301L473.701 165.8V153.4H415.301V158L422.501 170.6Z" fill="#C9D7FD"/>
<path d="M481.601 107.7L454.301 136.7L423.301 100.1L429.101 96.2L452.401 121.3L473.301 100.1L481.601 107.7Z" fill="#C9D7FD"/>
<path d="M500.599 178.1L486.699 164.2L485.499 165.4L482.499 162.4C488.799 154.6 492.599 144.7 492.599 134C492.599 109 472.399 88.8 447.399 88.8C422.399 88.8 402.199 109 402.199 134C402.199 159 422.399 179.2 447.399 179.2C458.199 179.2 468.099 175.4 475.799 169.1L478.799 172.1L477.599 173.3L491.499 187.2C492.799 188.5 494.399 189.1 495.999 189.1C497.599 189.1 499.299 188.5 500.499 187.2C503.099 184.7 503.099 180.6 500.599 178.1ZM447.399 173C425.899 173 408.499 155.6 408.499 134.1C408.499 112.6 425.899 95.2 447.399 95.2C468.899 95.2 486.299 112.6 486.299 134.1C486.299 155.6 468.899 173 447.399 173Z" fill="#FA8617"/>
<path d="M1.59961 37.3999H42.1996V33.3999H1.59961V37.3999Z" fill="#C9D7FD"/>
<path d="M1.59961 61.8999H42.1996V57.8999H1.59961V61.8999Z" fill="#C9D7FD"/>
<path d="M1.59961 84.8999H42.1996V80.8999H1.59961V84.8999Z" fill="#C9D7FD"/>
<path d="M1.59961 108.4H84.7996V104.4H1.59961V108.4Z" fill="#C9D7FD"/>
<path d="M1.59961 132.9H71.9996V128.9H1.59961V132.9Z" fill="#C9D7FD"/>
<path d="M1.59961 157.4H79.3996V153.4H1.59961V157.4Z" fill="#C9D7FD"/>
<path d="M1.59961 198.6H64.9996V194.6H1.59961V198.6Z" fill="#C9D7FD"/>
<path d="M1.59961 223.5H83.6996V219.5H1.59961V223.5Z" fill="#C9D7FD"/>
</svg>
