<?xml version="1.0" encoding="utf-8"?>
<!-- Generator: Adobe Illustrator 26.0.0, SVG Export Plug-In . SVG Version: 6.00 Build 0)  -->
<svg version="1.1" id="Layer_1" xmlns="http://www.w3.org/2000/svg" xmlns:xlink="http://www.w3.org/1999/xlink" x="0px" y="0px"
	 viewBox="0 0 35 33" style="enable-background:new 0 0 35 33;" xml:space="preserve">
<style type="text/css">
	.st0{fill:#FA8617;}
	.st1{fill:#CACACA;}
</style>
<g>
	<path id="cla1_00000129889354294205908240000015338523547764660119_" class="st0" d="M28.9,21.1H10c-0.3,0-0.5,0.2-0.5,0.5
		s0.2,0.5,0.5,0.5h18.9c0.3,0,0.5-0.2,0.5-0.5C29.4,21.3,29.2,21.1,28.9,21.1z M28.9,16.8H17.1c-0.3,0-0.5,0.2-0.5,0.5
		s0.2,0.5,0.5,0.5h11.7c0.3,0,0.5-0.2,0.5-0.5C29.4,17,29.2,16.8,28.9,16.8z M13.2,16.8H10c-0.3,0-0.5,0.2-0.5,0.5s0.2,0.5,0.5,0.5
		h3.2c0.3,0,0.5-0.2,0.5-0.5S13.4,16.8,13.2,16.8z"/>
	<path class="st0" d="M2.8,3v1.2c0,0.1,0.1,0.2,0.2,0.1l2.2-2c0.1-0.1,0.1-0.1,0-0.2C4.8,1.7,3.6,0.5,3,0C2.9-0.1,2.8,0,2.8,0.2v1.2
		H0V3H2.8L2.8,3L2.8,3z"/>
	<path class="st0" d="M17.8,6.1V4.9c0-0.1-0.1-0.2-0.2-0.1l-2.2,2c-0.1,0.1-0.1,0.1,0,0.2c0.4,0.4,1.6,1.6,2.2,2
		c0.1,0.1,0.2,0,0.2-0.1V7.8h2.8V6.1H17.8L17.8,6.1L17.8,6.1z"/>
</g>
<g>
	<path class="st1" d="M20.5,15.1h-1.1l-0.7-1.3c0,0-0.1-0.1-0.1-0.3h0c0,0.1,0,0.2-0.1,0.3l-0.7,1.3h-1.1l1.3-2l-1.2-2H18l0.6,1.2
		c0,0.1,0.1,0.2,0.1,0.3h0c0-0.1,0.1-0.2,0.1-0.3l0.6-1.2h1l-1.2,2L20.5,15.1z"/>
	<path class="st1" d="M25.7,15.1h-0.9v-2.4c0-0.3,0-0.5,0-0.9h0c0,0.2-0.1,0.4-0.1,0.5l-0.9,2.7H23l-0.9-2.7c0-0.1-0.1-0.3-0.1-0.6
		h0c0,0.4,0,0.7,0,1v2.2h-0.8v-4h1.3l0.8,2.4c0.1,0.2,0.1,0.4,0.1,0.6h0c0.1-0.2,0.1-0.4,0.2-0.6l0.8-2.4h1.3V15.1z"/>
	<path class="st1" d="M29.1,15.1h-2.4v-4h0.9v3.3h1.5V15.1z"/>
	<path id="cla1_00000074416413926537988010000016362991680365681050_" class="st1" d="M12.8,6.3H3.9c-0.3,0-0.5,0.2-0.5,0.5
		s0.2,0.5,0.5,0.5h8.9c0.3,0,0.5-0.2,0.5-0.5C13.3,6.4,13.1,6.3,12.8,6.3z M14.6,4H5C4.7,4,4.5,4.2,4.5,4.5S4.7,5,5,5h9.7
		c0.3,0,0.5-0.2,0.5-0.5C15.2,4.1,14.9,4,14.6,4z M16.1,2H6.9C6.6,2,6.4,2.2,6.4,2.5S6.6,3,6.9,3h9.2c0.3,0,0.5-0.2,0.5-0.5
		S16.3,2,16.1,2z"/>
	<path class="st1" d="M18.5,33C9.4,33,2,25.6,2,16.5c0-2.1,0.4-4,1.1-6l0.9,0.4C3.3,12.7,3,14.6,3,16.5C3,25,10,32,18.5,32
		S34,25,34,16.5C34,9.3,28.9,3,21.9,1.4l0.2-1C29.6,2.1,35,8.9,35,16.5C35,25.6,27.6,33,18.5,33z"/>
</g>
</svg>
