<?xml version="1.0" encoding="utf-8"?>
<!-- Generator: Adobe Illustrator 26.0.0, SVG Export Plug-In . SVG Version: 6.00 Build 0)  -->
<svg version="1.1" id="Layer_1" xmlns="http://www.w3.org/2000/svg" xmlns:xlink="http://www.w3.org/1999/xlink" x="0px" y="0px"
	 viewBox="0 0 35 33" style="enable-background:new 0 0 35 33;" xml:space="preserve">
<style type="text/css">
	.st0{fill:#FA8617;}
	.st1{display:none;fill:none;stroke:#CACACA;}
	.st2{fill:none;stroke:#CACACA;}
</style>
<g>
	<path class="st0" d="M29,21.1H10.1c-0.3,0-0.5,0.2-0.5,0.5s0.2,0.5,0.5,0.5H29c0.3,0,0.5-0.2,0.5-0.5C29.5,21.3,29.3,21.1,29,21.1z
		 M29,16.8H17.2c-0.3,0-0.5,0.2-0.5,0.5s0.2,0.5,0.5,0.5h11.7c0.3,0,0.5-0.2,0.5-0.5C29.5,17,29.3,16.8,29,16.8z M13.3,16.8h-3.2
		c-0.3,0-0.5,0.2-0.5,0.5s0.2,0.5,0.5,0.5h3.2c0.3,0,0.5-0.2,0.5-0.5S13.5,16.8,13.3,16.8z"/>
</g>
<g>
	<path class="st0" d="M1.8,0.1h1.6L5.3,6H3.9L3.1,3C2.9,2.4,2.8,1.7,2.6,1.1l0,0C2.4,1.7,2.3,2.4,2.1,3L1.4,6H0L1.8,0.1z M1.2,3.5H4
		v1H1.2V3.5z"/>
	<path class="st0" d="M5.5,3.1c0-2,1.3-3.1,2.9-3.1c0.9,0,1.5,0.4,1.9,0.8L9.6,1.6C9.3,1.3,8.9,1.1,8.4,1.1C7.5,1.1,6.9,1.9,6.9,3
		c0,1.2,0.5,1.9,1.7,1.9c0.2,0,0.5-0.1,0.6-0.2v-1h-1v-1h2.2v2.7c-0.5,0.4-1.2,0.7-2,0.7C6.8,6.1,5.5,5.1,5.5,3.1z"/>
	<path class="st0" d="M11.6,0.1h3.7v1.1h-2.4v1.2h2v1.1h-2v1.4h2.4V6h-3.8V0.1H11.6z"/>
</g>
<path class="st1" d="M12.1,1.8c2-0.9,4.1-1.3,6.4-1.3c8.8,0,16,7.2,16,16s-7.2,16-16,16s-16-7.2-16-16c0-1.3,0.2-2.6,0.5-3.8"/>
<path class="st2" d="M19.3,0.5c8.5,0.4,15.2,7.4,15.2,16c0,8.8-7.2,16-16,16s-16-7.2-16-16c0-2.8,0.7-5.4,2-7.7"/>
</svg>
