<?xml version="1.0" encoding="utf-8"?>
<!-- Generator: Adobe Illustrator 26.0.0, SVG Export Plug-In . SVG Version: 6.00 Build 0)  -->
<svg version="1.1" id="Layer_1" xmlns="http://www.w3.org/2000/svg" xmlns:xlink="http://www.w3.org/1999/xlink" x="0px" y="0px"
	 viewBox="0 0 35 33" style="enable-background:new 0 0 35 33;" xml:space="preserve">
<style type="text/css">
	.st0{fill:none;stroke:#CACACA;}
	.st1{fill:#FA8617;}
</style>
<path class="st0" d="M20.8,0.6c8.8,1.3,14.8,9.3,13.6,18.1c-1.2,8.8-9.3,14.8-18.1,13.6C7.5,31,1.4,23,2.6,14.2"/>
<g>
	<path class="st1" d="M28.9,21.1H10c-0.3,0-0.5,0.2-0.5,0.5s0.2,0.5,0.5,0.5h18.9c0.3,0,0.5-0.2,0.5-0.5
		C29.4,21.3,29.2,21.1,28.9,21.1z M28.9,16.8H17.1c-0.3,0-0.5,0.2-0.5,0.5s0.2,0.5,0.5,0.5h11.7c0.3,0,0.5-0.2,0.5-0.5
		C29.4,17,29.2,16.8,28.9,16.8z M13.2,16.8H10c-0.3,0-0.5,0.2-0.5,0.5s0.2,0.5,0.5,0.5h3.2c0.3,0,0.5-0.2,0.5-0.5
		S13.4,16.8,13.2,16.8z"/>
</g>
<g id="Group_3101">
	<g id="Group_3100" transform="translate(4.418 4.418)">
		<g id="Line_422">
			<path class="st1" d="M18.5,6.4V10c0,0.1,0,0.1,0,0.2l0,0c0,0.1-0.1,0.1-0.1,0.2c0,0-0.1,0.1-0.2,0.1l0,0c-0.1,0-0.1,0-0.2,0h-3.6
				c-0.3,0-0.5-0.2-0.5-0.5s0.2-0.5,0.5-0.5h2.4l-6.2-6.2c-0.2-0.2-0.2-0.5,0-0.7s0.5-0.2,0.7,0l6.2,6.2V6.4c0-0.3,0.2-0.5,0.5-0.5
				C18.3,5.9,18.5,6.1,18.5,6.4z"/>
		</g>
	</g>
</g>
<g id="Group_3103" transform="translate(13.333 13.333)">
	<g id="Group_3102" transform="translate(6.048 10.114)">
		<path id="Path_1897" class="st1" d="M-16.7-23.4c-1.5,0-2.7,1.4-2.7,3.2l0,0c0,1.9,1.1,3.2,2.7,3.2c1.5,0,2.7-1.4,2.7-3.2
			S-15.2-23.4-16.7-23.4z M-15.2-20.2c0,1.1-0.5,2.2-1.5,2.2s-1.5-1.1-1.5-2.2s0.5-2.2,1.5-2.2S-15.2-21.3-15.2-20.2L-15.2-20.2z"/>
		<path id="Path_1898" class="st1" d="M-11.7-23.4c-0.1,0-0.3,0-0.4,0.1l-1,0.3c-0.2,0.1-0.4,0.3-0.4,0.5s0.1,0.3,0.2,0.4
			C-13.2-22-13-22-12.8-22l0.5-0.2v4.6c0,0.3,0.2,0.6,0.6,0.6c0.3,0,0.6-0.3,0.6-0.6v-5.2C-11.1-23.2-11.4-23.4-11.7-23.4
			L-11.7-23.4z"/>
		<path id="Path_1899" class="st1" d="M-7.5-23.4c-1.5,0-2.7,1.4-2.7,3.2l0,0c0,1.9,1.1,3.2,2.7,3.2c1.5,0,2.7-1.4,2.7-3.2
			S-5.9-23.4-7.5-23.4z M-5.9-20.2c0,1.1-0.5,2.2-1.5,2.2S-9-19.2-9-20.2s0.5-2.2,1.5-2.2S-5.9-21.3-5.9-20.2L-5.9-20.2z"/>
	</g>
</g>
</svg>
