<?xml version="1.0" encoding="utf-8"?>
<!-- Generator: Adobe Illustrator 26.0.0, SVG Export Plug-In . SVG Version: 6.00 Build 0)  -->
<svg version="1.1" id="Layer_1" xmlns="http://www.w3.org/2000/svg" xmlns:xlink="http://www.w3.org/1999/xlink" x="0px" y="0px"
	 viewBox="0 0 35 33" style="enable-background:new 0 0 35 33;" xml:space="preserve">
<style type="text/css">
	.st0{fill:none;stroke:#CACACA;}
	.st1{display:none;fill:#F16334;}
	.st2{fill:#FA8617;}
</style>
<path class="st0" d="M21.2,0.7c8.4,1.4,14.3,9.3,13.2,17.9c-1.1,8.7-9.2,14.9-18,13.8c-8.7-1.1-14.9-9.2-13.8-18"/>
<g>
	<path id="cla1" class="st1" d="M17.2,16.8h11.7c0.3,0,0.5,0.2,0.5,0.5s-0.2,0.5-0.5,0.5H17.2c-0.3,0-0.5-0.2-0.5-0.5
		S16.9,16.8,17.2,16.8z M10.1,16.8h3.2c0.3,0,0.5,0.2,0.5,0.5s-0.2,0.5-0.5,0.5h-3.2c-0.3,0-0.5-0.2-0.5-0.5S9.8,16.8,10.1,16.8z
		 M29,22.1H10.1c-0.3,0-0.5-0.2-0.5-0.5s0.2-0.5,0.5-0.5H29c0.3,0,0.5,0.2,0.5,0.5S29.3,22.1,29,22.1z"/>
	<path id="cla1_00000039095833794225735900000015667764030945566373_" class="st2" d="M17.2,16.8h11.7c0.3,0,0.5,0.2,0.5,0.5
		s-0.2,0.5-0.5,0.5H17.2c-0.3,0-0.5-0.2-0.5-0.5S16.9,16.8,17.2,16.8z M10.1,16.8h3.2c0.3,0,0.5,0.2,0.5,0.5s-0.2,0.5-0.5,0.5h-3.2
		c-0.3,0-0.5-0.2-0.5-0.5S9.8,16.8,10.1,16.8z M29,22.1H10.1c-0.3,0-0.5-0.2-0.5-0.5s0.2-0.5,0.5-0.5H29c0.3,0,0.5,0.2,0.5,0.5
		S29.3,22.1,29,22.1z"/>
	<rect x="9.2" y="7" class="st2" width="8.5" height="1"/>
	<rect x="9.2" y="3.2" class="st2" width="8.5" height="1"/>
	<rect x="-1.4" y="5" transform="matrix(0.6027 -0.798 0.798 0.6027 -2.9985 4.9985)" class="st2" width="9.8" height="1"/>
	<g>
		<path class="st2" d="M3.6,3C5,3,6.2,4.1,6.2,5.5S5,8,3.6,8S1.1,6.9,1.1,5.5S2.3,3,3.6,3 M3.6,2C1.7,2,0.1,3.5,0.1,5.5S1.7,9,3.6,9
			s3.5-1.6,3.5-3.5S5.6,2,3.6,2L3.6,2z"/>
	</g>
</g>
</svg>
