<svg width="459" height="458" viewBox="0 0 459 458" fill="none" xmlns="http://www.w3.org/2000/svg">
<g clip-path="url(#clip0_811_635)">
<path style="mix-blend-mode:multiply" d="M377.638 221.352C377.638 221.352 373.024 205.074 354.265 121.645C335.506 38.2152 248.031 60.3109 226.093 67.3049C204.154 74.299 163.003 87.5977 101.493 106.534C39.9833 125.471 5.66303 155.282 0.6384 190.949C-4.38623 226.615 29.9913 264.609 77.301 277.843C129.106 292.337 171.916 314.842 182.265 377.769C195.322 457.197 283.369 487.269 347.349 423.629C411.329 359.989 388.67 272.336 377.638 221.352Z" fill="url(#paint0_radial_811_635)"/>
<path style="mix-blend-mode:multiply" d="M367.788 283.582C380.617 229.255 350.813 183.136 305.769 174.809C277.1 169.509 244.923 155.232 216.13 99.2224C185.228 39.0956 104.12 -3.0453 52.2947 87.3717C-13.7129 202.517 14.2656 274.818 33.9807 312.345C76.14 392.608 181.585 424.735 244.248 404.488C305.777 384.612 354.572 339.559 367.788 283.582Z" fill="url(#paint1_radial_811_635)"/>
<path style="mix-blend-mode:multiply" d="M457.513 164.038C455.011 133.946 421.973 101.389 367.623 109.025C306.484 117.621 237.623 99.5998 179.53 77.4572C119.725 54.6647 70.479 80.0418 55.3062 104.64C38.6745 131.61 42.2888 179.319 87.3104 261.065C132.332 342.811 173.843 382.212 218.211 400.689C262.579 419.166 303.68 410.394 340.582 377.565C366.386 354.611 380.764 317.535 404.839 270.75C434.904 212.324 461.134 207.563 457.513 164.038Z" fill="url(#paint2_radial_811_635)"/>
<g opacity="0.31">
<path d="M285.966 31.3822C286.113 24.0423 280.403 17.9756 273.212 17.8318C266.021 17.688 260.073 23.5215 259.926 30.8614C259.779 38.2013 265.489 44.268 272.68 44.4118C279.871 44.5556 285.819 38.7221 285.966 31.3822Z" fill="#D9DADA"/>
</g>
<g opacity="0.31">
<path d="M105.016 74.2177C105.114 75.5356 105.598 76.7955 106.408 77.8396C107.218 78.8837 108.318 79.6658 109.571 80.0879C110.823 80.5101 112.172 80.5536 113.449 80.2131C114.726 79.8725 115.874 79.163 116.75 78.1732C117.626 77.1835 118.19 75.9575 118.373 74.6486C118.555 73.3397 118.348 72.0061 117.777 70.8144C117.205 69.6227 116.295 68.626 115.16 67.949C114.025 67.2719 112.716 66.9445 111.396 67.0077C110.501 67.056 109.625 67.2816 108.819 67.6713C108.012 68.0611 107.291 68.6073 106.697 69.2781C106.104 69.949 105.649 70.7311 105.361 71.5791C105.072 72.4271 104.955 73.324 105.016 74.2177Z" fill="#D9DADA"/>
</g>
<g opacity="0.31">
<path d="M455.501 185.61C455.565 186.483 455.886 187.318 456.422 188.01C456.958 188.702 457.687 189.221 458.516 189.501C459.346 189.781 460.24 189.81 461.086 189.585C461.932 189.359 462.692 188.889 463.272 188.233C463.853 187.578 464.226 186.765 464.347 185.898C464.468 185.031 464.33 184.147 463.951 183.358C463.572 182.569 462.968 181.909 462.216 181.461C461.464 181.013 460.596 180.797 459.721 180.84C459.131 180.874 458.552 181.025 458.02 181.284C457.487 181.543 457.012 181.904 456.619 182.347C456.227 182.791 455.926 183.307 455.735 183.867C455.543 184.427 455.463 185.019 455.501 185.61Z" fill="#E1E2FE"/>
</g>
<path d="M431.358 422.282C431.494 415.766 426.431 410.376 420.05 410.242C413.668 410.108 408.384 415.282 408.247 421.798C408.111 428.313 413.174 433.704 419.555 433.838C425.937 433.971 431.221 428.798 431.358 422.282Z" fill="#FA8617"/>
<g opacity="0.58">
<path d="M377.5 431C379.985 431 382 428.985 382 426.5C382 424.015 379.985 422 377.5 422C375.015 422 373 424.015 373 426.5C373 428.985 375.015 431 377.5 431Z" fill="#D9DADA"/>
</g>
<g opacity="0.58">
<path d="M237.25 23.4688C238.493 23.4688 239.5 22.4614 239.5 21.2188C239.5 19.9761 238.493 18.9688 237.25 18.9688C236.007 18.9688 235 19.9761 235 21.2188C235 22.4614 236.007 23.4688 237.25 23.4688Z" fill="#D9DADA"/>
</g>
<g opacity="0.58">
<path d="M114.719 430.78C117.204 430.78 119.219 428.765 119.219 426.28C119.219 423.795 117.204 421.78 114.719 421.78C112.233 421.78 110.219 423.795 110.219 426.28C110.219 428.765 112.233 430.78 114.719 430.78Z" fill="#D9DADA"/>
</g>
<path opacity="0.31" d="M397.5 445C399.433 445 401 443.433 401 441.5C401 439.567 399.433 438 397.5 438C395.567 438 394 439.567 394 441.5C394 443.433 395.567 445 397.5 445Z" fill="#FA8617"/>
<g opacity="0.58">
<path d="M83.5 54.0339C84.3284 54.0339 85 53.3624 85 52.5339C85 51.7055 84.3284 51.0339 83.5 51.0339C82.6716 51.0339 82 51.7055 82 52.5339C82 53.3624 82.6716 54.0339 83.5 54.0339Z" fill="#D9DADA"/>
</g>
<path d="M452.499 60.6701C454.709 66.0401 449.719 70.2301 445.319 68.2201C444.406 67.7943 443.631 67.1203 443.083 66.2751C442.534 65.4298 442.235 64.4474 442.219 63.4401C442.219 58.6001 448.049 55.7701 452.049 59.9701C452.237 60.1761 452.39 60.4129 452.499 60.6701Z" fill="#FA8617"/>
<path d="M100.64 38.0238C100.661 38.4877 100.529 38.9457 100.265 39.3274C100 39.7092 99.6179 39.9935 99.1761 40.1367C98.7344 40.2799 98.2578 40.2741 97.8197 40.1202C97.3815 39.9662 97.006 39.6727 96.7509 39.2847C96.4958 38.8966 96.3751 38.4355 96.4075 37.9723C96.4399 37.509 96.6234 37.0692 96.93 36.7204C97.2366 36.3716 97.6493 36.1331 98.1046 36.0416C98.5599 35.9501 99.0326 36.0106 99.4502 36.2138C99.7949 36.378 100.088 36.6335 100.298 36.9526C100.508 37.2717 100.626 37.6422 100.64 38.0238Z" fill="#FA8617"/>
<path opacity="0.58" d="M256.891 3.03903C256.909 3.50294 256.773 3.95985 256.506 4.33959C256.239 4.71932 255.855 5.0009 255.412 5.14107C254.97 5.28124 254.493 5.27225 254.056 5.11549C253.62 4.95873 253.246 4.66286 252.994 4.27331C252.741 3.88377 252.623 3.4221 252.658 2.95919C252.694 2.49627 252.88 2.05772 253.188 1.71086C253.497 1.36401 253.911 1.12804 254.367 1.03919C254.822 0.95034 255.295 1.01352 255.711 1.21903C256.053 1.38803 256.343 1.64634 256.551 1.96669C256.759 2.28703 256.876 2.65752 256.891 3.03903Z" fill="#FA8617"/>
<g opacity="0.58">
<path d="M422.049 69.11C422.005 69.3458 421.914 69.5703 421.781 69.7703C421.649 69.9703 421.477 70.1418 421.278 70.2747C421.078 70.4077 420.854 70.4993 420.618 70.5443C420.382 70.5893 420.14 70.5867 419.905 70.5367C419.671 70.4867 419.448 70.3903 419.252 70.2531C419.055 70.116 418.887 69.9409 418.759 69.7381C418.631 69.5353 418.544 69.3089 418.505 69.0722C418.466 68.8356 418.474 68.5934 418.529 68.36C418.574 68.1242 418.665 67.8998 418.797 67.6997C418.93 67.4997 419.101 67.3282 419.301 67.1953C419.501 67.0624 419.725 66.9707 419.961 66.9257C420.196 66.8807 420.438 66.8833 420.673 66.9333C420.908 66.9833 421.13 67.0797 421.327 67.2169C421.524 67.354 421.691 67.5291 421.819 67.7319C421.948 67.9347 422.034 68.1611 422.074 68.3978C422.113 68.6344 422.105 68.8766 422.049 69.11Z" fill="#D9DADA"/>
</g>
<path d="M24.5086 379.52C24.4333 379.868 24.2566 380.186 24.0008 380.433C23.745 380.681 23.4215 380.847 23.0713 380.911C22.7211 380.974 22.3598 380.933 22.0333 380.791C21.7067 380.65 21.4294 380.414 21.2365 380.115C21.0436 379.816 20.9437 379.466 20.9495 379.11C20.9552 378.755 21.0664 378.408 21.2689 378.116C21.4714 377.823 21.7562 377.597 22.0872 377.466C22.4182 377.335 22.7806 377.305 23.1286 377.38C23.3597 377.43 23.5788 377.525 23.7733 377.659C23.9677 377.794 24.1338 377.965 24.262 378.164C24.3901 378.363 24.4779 378.585 24.5202 378.818C24.5625 379.05 24.5585 379.289 24.5086 379.52Z" fill="#FA8617"/>
<g clip-path="url(#clip1_811_635)">
<path d="M313.002 327.714C313.002 338.048 304.568 346.469 294.218 346.469C283.867 346.469 255.883 346.469 255.883 346.469L275.05 309.151C275.05 309.151 289.043 309.151 294.218 309.151C304.76 308.96 313.002 317.38 313.002 327.714Z" fill="url(#paint3_linear_811_635)"/>
<path d="M277.395 119.219C287.438 119.219 295.397 126.141 295.397 134.512V276.488C295.397 285.02 287.249 291.781 277.395 291.781H154.792C144.749 291.781 136.79 284.859 136.79 276.488V134.512C136.79 126.141 144.938 119.219 154.792 119.219H277.395ZM277.395 116H154.792C142.854 116 133 124.371 133 134.512V276.488C133 286.79 142.854 295 154.792 295H277.205C289.333 295 298.997 286.629 298.997 276.488V134.512C299.187 124.371 289.333 116 277.395 116Z" fill="#F8F2BC"/>
<path d="M137.043 348H260.864C273.132 348 282.907 338.049 282.907 325.992V157.008C283.099 144.951 273.132 135 261.056 135H177.294L115 196.814V325.801C115 338.049 124.967 348 137.043 348Z" fill="white"/>
<path d="M150.078 167.252C150.078 166.548 150.626 166 151.33 166H239.261C239.966 166 240.513 166.548 240.513 167.252C240.513 167.956 239.966 168.504 239.261 168.504H151.33C150.626 168.504 150.078 167.956 150.078 167.252ZM140 275.238C140 274.534 140.548 273.986 141.252 273.986H254.912C255.616 273.986 256.242 274.534 256.242 275.238C256.242 275.943 255.694 276.49 254.912 276.49H141.252C140.626 276.53 140 275.943 140 275.238ZM150.078 173.825C150.078 173.121 150.626 172.573 151.252 172.573H250.099C250.803 172.573 251.351 173.121 251.351 173.825C251.351 174.529 250.803 175.077 250.099 175.077H151.252C150.626 175.038 150.078 174.49 150.078 173.825ZM140 281.694C140 281.146 140.509 280.638 141.056 280.638H266.649C267.197 280.638 267.706 281.146 267.706 281.694C267.706 282.242 267.197 282.751 266.649 282.751H141.056C140.509 282.751 140 282.242 140 281.694ZM150.078 180.907C150.078 180.203 150.626 179.655 151.33 179.655H220.051C220.755 179.655 221.303 180.203 221.303 180.907C221.303 181.611 220.755 182.159 220.051 182.159H151.33C150.626 182.159 150.078 181.611 150.078 180.907ZM140 288.854C140 288.15 140.548 287.602 141.174 287.602H266.18C266.884 287.602 267.432 288.15 267.432 288.854C267.432 289.558 266.884 290.106 266.18 290.106H141.174C140.548 290.028 140 289.558 140 288.854ZM140.078 205.634C140.078 204.93 140.626 204.382 141.252 204.382H269.232C269.936 204.382 270.484 204.93 270.484 205.634C270.484 206.338 269.936 206.886 269.232 206.886H141.252C140.626 206.886 140.078 206.338 140.078 205.634ZM140.078 313.542C140.078 312.838 140.626 312.29 141.252 312.29H269.232C269.936 312.29 270.484 312.838 270.484 313.542C270.484 314.247 269.936 314.794 269.232 314.794H141.252C140.626 314.755 140.078 314.168 140.078 313.542ZM140.078 211.386C140.078 210.681 140.626 210.134 141.33 210.134H263.832C264.537 210.134 265.084 210.681 265.084 211.386C265.084 212.09 264.537 212.638 263.832 212.638H141.33C140.626 212.638 140.078 212.09 140.078 211.386ZM140.078 319.294C140.078 318.59 140.626 318.042 141.252 318.042H263.754C264.458 318.042 265.006 318.59 265.006 319.294C265.006 319.998 264.458 320.546 263.754 320.546H141.252C140.626 320.507 140.078 319.92 140.078 319.294ZM140.078 217.137C140.078 216.433 140.626 215.885 141.33 215.885H266.571C267.275 215.885 267.823 216.433 267.823 217.137C267.823 217.841 267.275 218.389 266.571 218.389H141.33C140.626 218.389 140.078 217.841 140.078 217.137ZM140.078 325.045C140.078 324.341 140.626 323.793 141.252 323.793H266.571C267.275 323.793 267.823 324.341 267.823 325.045C267.823 325.75 267.275 326.297 266.571 326.297H141.33C140.626 326.219 140.078 325.671 140.078 325.045ZM140.078 222.849C140.078 222.145 140.626 221.597 141.252 221.597H266.571C267.275 221.597 267.823 222.145 267.823 222.849C267.823 223.554 267.275 224.101 266.571 224.101H141.33C140.626 224.062 140.078 223.554 140.078 222.849ZM140.078 228.601C140.078 227.897 140.626 227.349 141.33 227.349H258.355C259.059 227.349 259.607 227.897 259.607 228.601C259.607 229.305 259.059 229.853 258.355 229.853H141.33C140.626 229.814 140.078 229.305 140.078 228.601ZM140.078 234.352C140.078 233.648 140.626 233.1 141.33 233.1H258.355C259.059 233.1 259.607 233.648 259.607 234.352C259.607 235.057 259.059 235.604 258.355 235.604H141.33C140.626 235.526 140.078 235.057 140.078 234.352ZM140.078 240.104C140.078 239.399 140.626 238.852 141.33 238.852H258.355C259.059 238.852 259.607 239.399 259.607 240.104C259.607 240.808 259.059 241.278 258.355 241.356H141.33C140.626 241.278 140.078 240.808 140.078 240.104ZM140.078 245.855C140.078 245.151 140.626 244.603 141.252 244.603H258.276C258.981 244.603 259.528 245.151 259.528 245.855C259.528 246.559 258.981 247.107 258.276 247.107H141.252C140.626 247.029 140.078 246.559 140.078 245.855ZM140 263.696C140 262.992 140.548 262.444 141.252 262.444H195.402C196.106 262.444 196.654 262.992 196.654 263.696C196.654 264.401 196.106 264.948 195.402 264.948H141.252C140.548 264.948 140 264.401 140 263.696ZM140 294.449C140 293.745 140.548 293.197 141.252 293.197H249.747C250.451 293.197 251.077 293.745 251.077 294.449C251.077 295.153 250.53 295.701 249.747 295.701H141.252C140.626 295.701 140 295.153 140 294.449ZM140 269.448C140 268.744 140.548 268.196 141.174 268.196H195.323C196.028 268.196 196.576 268.744 196.576 269.448C196.576 270.152 196.028 270.7 195.323 270.7H141.174C140.548 270.622 140 270.152 140 269.448Z" fill="#EEEEFE"/>
<path d="M311.465 227.434V320.059C308.59 313.553 302.073 308.96 294.406 308.96C294.214 308.96 294.023 308.96 293.831 308.96H173.842C166.559 308.96 160.809 303.218 160.809 295.946V223.224C160.809 215.951 166.559 210.21 173.842 210.21H294.214C303.798 210.21 311.465 217.865 311.465 227.434Z" fill="#FF8000"/>
<path d="M115 196.814H142.601C161.769 196.814 177.294 181.313 177.294 162.175V135L115 196.814Z" fill="#FF8000"/>
<path d="M218.504 252.887H205.47V244.084C205.47 241.596 205.278 240.065 205.087 239.299C204.895 238.725 204.128 238.342 203.17 238.342C202.02 238.342 201.445 238.725 201.061 239.491C200.87 240.256 200.678 241.979 200.678 244.466V267.623C200.678 270.111 200.87 271.642 201.061 272.407C201.253 273.173 202.02 273.555 202.978 273.555C203.937 273.555 204.512 273.173 204.895 272.407C205.278 271.642 205.278 269.919 205.278 267.24V260.925H218.504V262.838C218.504 268.006 218.121 271.642 217.354 273.747C216.587 275.852 215.054 277.766 212.562 279.488C210.07 281.019 207.003 281.976 203.362 281.976C199.528 281.976 196.461 281.21 193.97 279.871C191.478 278.531 189.944 276.617 188.986 274.129C188.219 271.642 187.836 268.005 187.836 263.221V248.677C187.836 245.041 188.028 242.361 188.219 240.639C188.411 238.917 189.178 237.194 190.328 235.472C191.478 233.749 193.203 232.601 195.311 231.644C197.42 230.687 199.911 230.305 202.787 230.305C206.62 230.305 209.687 231.07 212.179 232.601C214.67 234.132 216.204 235.855 217.162 238.151C217.929 240.256 218.312 243.701 218.312 248.485V252.887H218.504Z" fill="white"/>
<path d="M250.704 246.189H238.628V242.553C238.628 240.83 238.436 239.682 238.245 239.299C237.861 238.917 237.478 238.534 236.711 238.534C235.945 238.534 235.37 238.917 234.986 239.491C234.603 240.065 234.411 241.022 234.411 242.361C234.411 244.084 234.603 245.232 235.178 246.189C235.561 246.954 236.903 248.102 238.82 249.251C244.57 252.695 248.212 255.566 249.745 257.671C251.279 259.776 252.045 263.412 252.045 268.197C252.045 271.833 251.662 274.321 250.704 276.043C249.937 277.766 248.212 279.105 245.912 280.253C243.612 281.402 240.736 281.976 237.67 281.976C234.22 281.976 231.153 281.402 228.853 280.062C226.361 278.722 224.827 277 224.061 275.086C223.294 273.173 222.911 270.111 222.911 266.474V263.221H234.986V269.345C234.986 271.259 235.178 272.407 235.561 272.981C235.945 273.555 236.52 273.747 237.286 273.747C238.053 273.747 238.82 273.364 239.203 272.79C239.586 272.024 239.778 271.067 239.778 269.728C239.778 266.857 239.395 264.943 238.628 263.987C237.861 263.03 235.753 261.499 232.494 259.394C229.236 257.288 227.128 255.757 226.169 254.801C225.211 253.844 224.252 252.504 223.486 250.782C222.719 249.059 222.527 246.954 222.527 244.275C222.527 240.448 223.102 237.768 224.061 235.855C225.019 234.132 226.553 232.793 228.853 231.644C230.961 230.687 233.644 230.113 236.711 230.113C240.161 230.113 243.037 230.687 245.337 231.836C247.637 232.984 249.362 234.324 250.129 235.855C250.895 237.577 251.279 240.256 251.279 244.275V246.189H250.704Z" fill="white"/>
<path d="M283.289 246.189H271.214V242.553C271.214 240.83 271.022 239.682 270.831 239.299C270.447 238.917 270.064 238.534 269.297 238.534C268.531 238.534 267.955 238.917 267.572 239.491C267.189 240.065 266.997 241.022 266.997 242.361C266.997 244.084 267.189 245.232 267.764 246.189C268.147 246.954 269.489 248.102 271.406 249.251C277.156 252.695 280.798 255.566 282.331 257.671C283.865 259.776 284.631 263.412 284.631 268.197C284.631 271.833 284.248 274.321 283.289 276.043C282.523 277.766 280.798 279.105 278.498 280.253C276.198 281.402 273.322 281.976 270.256 281.976C266.805 281.976 263.739 281.402 261.439 280.062C258.947 278.722 257.413 277 256.647 275.086C255.88 272.981 255.497 270.111 255.497 266.474V263.221H267.572V269.345C267.572 271.259 267.764 272.407 268.147 272.981C268.531 273.555 269.106 273.747 269.872 273.747C270.639 273.747 271.406 273.364 271.789 272.79C272.172 272.024 272.364 271.067 272.364 269.728C272.364 266.857 271.981 264.943 271.214 263.987C270.447 263.03 268.339 261.499 265.08 259.394C261.822 257.288 259.713 255.757 258.755 254.801C257.797 253.844 256.838 252.504 256.072 250.782C255.305 249.059 255.113 246.954 255.113 244.275C255.113 240.448 255.688 237.768 256.647 235.855C257.605 234.132 259.138 232.793 261.439 231.644C263.547 230.687 266.23 230.113 269.297 230.113C272.747 230.113 275.622 230.687 277.923 231.836C280.223 232.984 281.948 234.324 282.714 235.855C283.481 237.577 283.864 240.256 283.864 244.275V246.189H283.289Z" fill="white"/>
</g>
</g>
<defs>
<radialGradient id="paint0_radial_811_635" cx="0" cy="0" r="1" gradientUnits="userSpaceOnUse" gradientTransform="translate(221.533 228.242) rotate(30) scale(200.792 200.473)">
<stop stop-color="#F78620"/>
<stop offset="1" stop-color="#FFB56A"/>
</radialGradient>
<radialGradient id="paint1_radial_811_635" cx="0" cy="0" r="1" gradientUnits="userSpaceOnUse" gradientTransform="translate(180.944 243.092) rotate(30) scale(175.424 176.897)">
<stop stop-color="#FFB56A"/>
<stop offset="1" stop-color="#F78620"/>
</radialGradient>
<radialGradient id="paint2_radial_811_635" cx="0" cy="0" r="1" gradientUnits="userSpaceOnUse" gradientTransform="translate(224.08 204.967) rotate(30) scale(186.858 184.714)">
<stop stop-color="#8932A2"/>
<stop offset="1" stop-color="#FFB56A"/>
</radialGradient>
<linearGradient id="paint3_linear_811_635" x1="308.296" y1="314.648" x2="256.519" y2="347.052" gradientUnits="userSpaceOnUse">
<stop stop-color="#994F04"/>
<stop offset="1" stop-color="#FF8000"/>
</linearGradient>
<clipPath id="clip0_811_635">
<rect width="459" height="458" fill="white"/>
</clipPath>
<clipPath id="clip1_811_635">
<rect width="198" height="232" fill="white" transform="translate(115 116)"/>
</clipPath>
</defs>
</svg>
