
<svg width="68" height="105" viewBox="0 0 68 105" fill="none" xmlns="http://www.w3.org/2000/svg">
<g filter="url(#filter0_d_7746_81884)">
<rect x="24" y="16" width="20" height="56.082" rx="4" fill="white"/>
<rect x="24.5" y="16.5" width="19" height="55.082" rx="3.5" stroke="#D3DCE6"/>
</g>
<path d="M38.2422 41.4023L40.3635 43.5268L38.2422 45.6512" stroke="#25265E" stroke-opacity="0.87" stroke-width="1.00346" stroke-linecap="round" stroke-linejoin="round"/>
<path d="M29.7578 45.6512L27.6365 43.5268L29.7578 41.4023" stroke="#25265E" stroke-opacity="0.87" stroke-width="1.00346" stroke-linecap="round" stroke-linejoin="round"/>
<path d="M40.3635 43.5254L35.4138 43.5254" stroke="#25265E" stroke-opacity="0.87" stroke-width="1.00346" stroke-linecap="round" stroke-linejoin="round"/>
<path d="M27.6365 43.5254L32.5862 43.5254" stroke="#25265E" stroke-opacity="0.87" stroke-width="1.00346" stroke-linecap="round" stroke-linejoin="round"/>
<ellipse cx="30" cy="21.0054" rx="1" ry="1.00146" fill="#25265E" fill-opacity="0.67"/>
<ellipse cx="34" cy="21.0054" rx="1" ry="1.00146" fill="#25265E" fill-opacity="0.67"/>
<ellipse cx="38" cy="21.0054" rx="1" ry="1.00146" fill="#25265E" fill-opacity="0.67"/>
<ellipse cx="30" cy="25.0093" rx="1" ry="1.00146" fill="#25265E" fill-opacity="0.67"/>
<ellipse cx="34" cy="25.0093" rx="1" ry="1.00146" fill="#25265E" fill-opacity="0.67"/>
<ellipse cx="38" cy="25.0093" rx="1" ry="1.00146" fill="#25265E" fill-opacity="0.67"/>
<ellipse cx="30" cy="62.0679" rx="1" ry="1.00146" fill="#25265E" fill-opacity="0.67"/>
<ellipse cx="34" cy="62.0679" rx="1" ry="1.00146" fill="#25265E" fill-opacity="0.67"/>
<ellipse cx="38" cy="62.0679" rx="1" ry="1.00146" fill="#25265E" fill-opacity="0.67"/>
<ellipse cx="30" cy="66.0757" rx="1" ry="1.00146" fill="#25265E" fill-opacity="0.67"/>
<ellipse cx="34" cy="66.0757" rx="1" ry="1.00146" fill="#25265E" fill-opacity="0.67"/>
<ellipse cx="38" cy="66.0757" rx="1" ry="1.00146" fill="#25265E" fill-opacity="0.67"/>
<defs>
<filter id="filter0_d_7746_81884" x="0" y="0" width="68" height="104.082" filterUnits="userSpaceOnUse" color-interpolation-filters="sRGB">
<feFlood flood-opacity="0" result="BackgroundImageFix"/>
<feColorMatrix in="SourceAlpha" type="matrix" values="0 0 0 0 0 0 0 0 0 0 0 0 0 0 0 0 0 0 127 0" result="hardAlpha"/>
<feOffset dy="8"/>
<feGaussianBlur stdDeviation="12"/>
<feColorMatrix type="matrix" values="0 0 0 0 0.0190986 0 0 0 0 0.593584 0 0 0 0 0.916732 0 0 0 0.08 0"/>
<feBlend mode="normal" in2="BackgroundImageFix" result="effect1_dropShadow_7746_81884"/>
<feBlend mode="normal" in="SourceGraphic" in2="effect1_dropShadow_7746_81884" result="shape"/>
</filter>
</defs>
</svg>
