<svg width="459" height="369" viewBox="0 0 459 369" fill="none" xmlns="http://www.w3.org/2000/svg">
<g clip-path="url(#clip0_748_3243)">
<path d="M362.538 312.854C380.817 304.908 462.146 266.902 456.071 222.192C453.949 206.571 422.334 194.638 393.849 169.626C371.159 149.7 347.538 96.3396 324.373 83.4758C232.709 32.5497 98.2564 164.126 45.8137 227.039C37.9995 236.412 -11.5036 292.799 2.87246 322.155C14.9112 346.737 77.4294 350.191 91.0249 350.653" stroke="#FA8617" stroke-miterlimit="10" stroke-dasharray="12.02 12.02"/>
<path d="M486.832 367.852H31.2891V369H486.832V367.852Z" fill="#FFB66B"/>
<path d="M104.464 123.085C104.464 123.085 116.947 79.5662 93.4626 85.8538C65.2648 93.4042 91.9145 123.259 103.262 124.458" stroke="#EFEFEF" stroke-miterlimit="10" stroke-dasharray="12 12"/>
<path d="M90.4909 133.914C73.0013 102.326 31.7363 94.4021 28.1271 124.458C23.7938 160.537 84.59 148.181 91.6149 136.044" stroke="#EFEFEF" stroke-miterlimit="10" stroke-dasharray="12 12"/>
<path style="mix-blend-mode:multiply" opacity="0.31" d="M367.158 131.725C367.158 131.725 355.608 120.51 300.44 60.7008C245.272 0.891964 183.682 60.7008 168.927 76.8974C154.171 93.094 126.58 123.623 84.8889 168.479C43.1984 213.336 29.0956 254.219 41.9279 285.992C54.7603 317.765 101.179 332.713 146.475 321.114C196.076 308.414 242.075 306.592 280.552 353.511C329.116 412.735 416.005 395.631 438.457 312.772C460.908 229.912 400.515 168.479 367.158 131.725Z" fill="url(#paint0_radial_748_3243)"/>
<path style="mix-blend-mode:multiply" opacity="0.31" d="M388.651 187.677C373.371 136.819 326.856 113.001 285.763 127.565C259.609 136.834 226.291 140.378 175.901 107.93C121.814 73.0947 34.901 76.9558 35.2118 176.093C35.6003 302.348 93.072 348.604 127.183 370.142C200.133 416.212 302.341 392.526 344.358 346.041C385.617 300.401 404.397 240.077 388.651 187.677Z" fill="url(#paint1_radial_748_3243)"/>
<path style="mix-blend-mode:multiply" opacity="0.31" d="M405.723 46.5161C389.34 22.9151 346.612 11.8086 305.446 43.9498C259.14 80.1111 193.801 98.0173 135.377 107.407C75.2327 117.075 46.7163 161.404 45.916 188.886C45.0419 219.015 70.726 256.599 146.741 302.53C222.756 348.46 275.725 361.175 321.091 355.294C366.457 349.414 396.162 322.638 410.956 278.041C421.302 246.857 415.51 209.475 413.089 159.481C410.067 97.0481 429.422 80.65 405.723 46.5161Z" fill="url(#paint2_radial_748_3243)"/>
<path d="M102.268 204.639H110.7V210.714H102.268V220.224H95.8454V210.714H87.3984V204.639H95.8541V195.527H102.277L102.268 204.639Z" fill="white"/>
<path d="M371.382 209.845L377.344 203.896L381.656 208.203L375.694 214.152L382.434 220.878L377.892 225.41L371.152 218.684L365.173 224.651L360.863 220.353L366.84 214.388L360.383 207.945L364.925 203.412L371.382 209.845Z" fill="white"/>
<path d="M128.783 311.421H107.91V305.919H128.783V311.421ZM128.783 321.512H107.91V316.012H128.783V321.512Z" fill="white"/>
<path d="M252.649 79.563L231.73 100.437L227.832 96.5492L248.75 75.6729L252.649 79.563ZM251.492 94.9893L247.344 99.129L243.445 95.2409L247.594 91.1013L251.492 94.9893Z" fill="white"/>
<path d="M365.818 300.385H343.969V294.961H365.822L365.818 300.385Z" fill="white"/>
<path d="M236.855 80.3873L232.707 84.5096L228.809 80.6216L232.957 76.4819L236.855 80.3873Z" fill="white"/>
<path opacity="0.31" d="M349.211 10.7904C349.331 5.06588 344.879 0.330035 339.267 0.212587C333.656 0.0951387 329.009 4.64056 328.889 10.3651C328.769 16.0896 333.221 20.8254 338.833 20.9429C344.444 21.0603 349.091 16.5149 349.211 10.7904Z" fill="#F3F4F4"/>
<path opacity="0.31" d="M301.851 18.4499C304.037 18.4499 305.808 16.6798 305.808 14.4963C305.808 12.3128 304.037 10.5427 301.851 10.5427C299.666 10.5427 297.895 12.3128 297.895 14.4963C297.895 16.6798 299.666 18.4499 301.851 18.4499Z" fill="#D9DADA"/>
<path opacity="0.31" d="M98.0428 36.0214C100.228 36.0214 102 34.2513 102 32.0678C102 29.8843 100.228 28.1143 98.0428 28.1143C95.8575 28.1143 94.0859 29.8843 94.0859 32.0678C94.0859 34.2513 95.8575 36.0214 98.0428 36.0214Z" fill="#D9DADA"/>
<path opacity="0.31" d="M167.511 59.7428C169.211 59.7428 170.589 58.366 170.589 56.6678C170.589 54.9695 169.211 53.5928 167.511 53.5928C165.811 53.5928 164.434 54.9695 164.434 56.6678C164.434 58.366 165.811 59.7428 167.511 59.7428Z" fill="#FA8617"/>
<path opacity="0.31" d="M37.2013 78.9051C37.3304 72.4565 32.3093 67.1265 25.9864 67.0001C19.6635 66.8738 14.4331 71.999 14.304 78.4476C14.175 84.8962 19.196 90.2262 25.5189 90.3526C31.8418 90.4789 37.0722 85.3537 37.2013 78.9051Z" fill="#D9DADA"/>
<path opacity="0.31" d="M131.912 56.4199C131.998 57.5778 132.424 58.6846 133.137 59.602C133.849 60.5193 134.816 61.2064 135.917 61.5773C137.019 61.9482 138.205 61.9864 139.328 61.6872C140.45 61.388 141.46 60.7647 142.23 59.8951C143 59.0256 143.497 57.9484 143.657 56.7985C143.818 55.6485 143.635 54.4768 143.133 53.4298C142.631 52.3829 141.83 51.5072 140.832 50.9123C139.834 50.3175 138.683 50.0298 137.522 50.0854C136.736 50.1278 135.965 50.326 135.256 50.6684C134.547 51.0109 133.913 51.4907 133.391 52.0801C132.869 52.6695 132.47 53.3567 132.216 54.1017C131.962 54.8467 131.859 55.6347 131.912 56.4199Z" fill="#D9DADA"/>
<path opacity="0.58" d="M432.184 174.493C432.24 175.26 432.522 175.994 432.993 176.602C433.465 177.21 434.105 177.665 434.835 177.911C435.564 178.157 436.35 178.183 437.094 177.985C437.838 177.787 438.507 177.374 439.017 176.798C439.527 176.221 439.856 175.508 439.962 174.746C440.068 173.984 439.947 173.208 439.614 172.514C439.28 171.821 438.75 171.241 438.088 170.848C437.427 170.454 436.664 170.264 435.895 170.302C435.375 170.332 434.867 170.465 434.398 170.692C433.93 170.919 433.512 171.237 433.167 171.626C432.822 172.016 432.558 172.47 432.389 172.962C432.22 173.453 432.151 173.974 432.184 174.493Z" fill="#E1E2FE"/>
<path d="M194.549 38.2177C195.641 38.2177 196.527 37.3327 196.527 36.2409C196.527 35.1492 195.641 34.2642 194.549 34.2642C193.456 34.2642 192.57 35.1492 192.57 36.2409C192.57 37.3327 193.456 38.2177 194.549 38.2177Z" fill="#D9DADA" fill-opacity="0.58"/>
<path d="M429.543 64.7241C431.486 69.4421 427.099 73.1233 423.23 71.3574C422.427 70.9833 421.746 70.3912 421.263 69.6485C420.781 68.9059 420.518 68.0428 420.504 67.1578C420.504 62.9055 425.63 60.4192 429.148 64.1092C429.313 64.2902 429.447 64.4982 429.543 64.7241Z" fill="#FA8617"/>
<path d="M37.1404 59.7637C37.159 60.1712 37.043 60.5736 36.8104 60.909C36.5779 61.2444 36.2415 61.4941 35.8531 61.62C35.4646 61.7458 35.0456 61.7407 34.6603 61.6054C34.2751 61.4702 33.9449 61.2123 33.7206 60.8714C33.4962 60.5305 33.3901 60.1254 33.4186 59.7184C33.4471 59.3114 33.6085 58.9249 33.8781 58.6185C34.1477 58.312 34.5105 58.1025 34.9109 58.0221C35.3112 57.9417 35.7269 57.9949 36.094 58.1734C36.3972 58.3177 36.655 58.5422 36.8395 58.8225C37.024 59.1029 37.1281 59.4284 37.1404 59.7637Z" fill="#FA8617"/>
<path d="M299.727 29.7914C299.743 30.199 299.624 30.6004 299.389 30.9341C299.154 31.2677 298.816 31.5151 298.427 31.6382C298.038 31.7614 297.619 31.7535 297.235 31.6157C296.85 31.478 296.522 31.2181 296.3 30.8758C296.078 30.5336 295.974 30.128 296.005 29.7213C296.036 29.3146 296.2 28.9293 296.471 28.6245C296.743 28.3198 297.107 28.1125 297.507 28.0344C297.908 27.9564 298.323 28.0119 298.689 28.1924C298.99 28.3409 299.246 28.5679 299.428 28.8493C299.611 29.1308 299.714 29.4563 299.727 29.7914Z" fill="#FA8617"/>
<g clip-path="url(#clip1_748_3243)">
<path d="M161.096 120.33H315.078C321.084 120.33 325.952 125.197 325.952 131.201V357.629C325.952 363.633 321.084 368.5 315.078 368.5H161.096C155.091 368.5 150.223 363.633 150.223 357.629V131.201C150.223 125.197 155.091 120.33 161.096 120.33Z" fill="#FA8617" stroke="#F2C08F"/>
<path d="M269.232 130.795H206.941V141.248H269.232V130.795Z" fill="#FFC996"/>
<path d="M308.823 157.184H167.352V188.552H308.823V157.184Z" fill="#FFC163"/>
<path d="M302.633 161.473H173.543V184.261H302.633V161.473Z" fill="white"/>
<path d="M181.416 203.1H173.433C170.098 203.1 167.395 205.803 167.395 209.137V209.73C167.395 213.064 170.098 215.767 173.433 215.767H181.416C184.751 215.767 187.454 213.064 187.454 209.73V209.137C187.454 205.803 184.751 203.1 181.416 203.1Z" fill="white"/>
<path d="M213.088 203.1H205.105C201.77 203.1 199.066 205.803 199.066 209.137V209.73C199.066 213.064 201.77 215.767 205.105 215.767H213.088C216.423 215.767 219.126 213.064 219.126 209.73V209.137C219.126 205.803 216.423 203.1 213.088 203.1Z" fill="white"/>
<path d="M305.944 231.074H287.415C285.827 231.074 284.539 232.361 284.539 233.95V244.737C284.539 246.325 285.827 247.612 287.415 247.612H305.944C307.532 247.612 308.82 246.325 308.82 244.737V233.95C308.82 232.361 307.532 231.074 305.944 231.074Z" fill="#FFC996"/>
<path d="M267.205 231.074H248.677C247.089 231.074 245.801 232.361 245.801 233.95V244.737C245.801 246.325 247.089 247.612 248.677 247.612H267.205C268.794 247.612 270.082 246.325 270.082 244.737V233.95C270.082 232.361 268.794 231.074 267.205 231.074Z" fill="#FFC996"/>
<path d="M228.467 231.074H209.939C208.35 231.074 207.062 232.361 207.062 233.95V244.737C207.062 246.325 208.35 247.612 209.939 247.612H228.467C230.056 247.612 231.343 246.325 231.343 244.737V233.95C231.343 232.361 230.056 231.074 228.467 231.074Z" fill="#FFC996"/>
<path d="M189.725 231.074H171.197C169.608 231.074 168.32 232.361 168.32 233.95V244.737C168.32 246.325 169.608 247.612 171.197 247.612H189.725C191.314 247.612 192.601 246.325 192.601 244.737V233.95C192.601 232.361 191.314 231.074 189.725 231.074Z" fill="#FFC996"/>
<path d="M305.944 260.982H287.415C285.827 260.982 284.539 262.27 284.539 263.858V274.645C284.539 276.233 285.827 277.52 287.415 277.52H305.944C307.532 277.52 308.82 276.233 308.82 274.645V263.858C308.82 262.27 307.532 260.982 305.944 260.982Z" fill="#FFC996"/>
<path d="M267.205 260.982H248.677C247.089 260.982 245.801 262.27 245.801 263.858V274.645C245.801 276.233 247.089 277.52 248.677 277.52H267.205C268.794 277.52 270.082 276.233 270.082 274.645V263.858C270.082 262.27 268.794 260.982 267.205 260.982Z" fill="white"/>
<path d="M228.467 260.982H209.939C208.35 260.982 207.062 262.27 207.062 263.858V274.645C207.062 276.233 208.35 277.52 209.939 277.52H228.467C230.056 277.52 231.343 276.233 231.343 274.645V263.858C231.343 262.27 230.056 260.982 228.467 260.982Z" fill="white"/>
<path d="M189.725 260.982H171.197C169.608 260.982 168.32 262.27 168.32 263.858V274.645C168.32 276.233 169.608 277.52 171.197 277.52H189.725C191.314 277.52 192.601 276.233 192.601 274.645V263.858C192.601 262.27 191.314 260.982 189.725 260.982Z" fill="white"/>
<path d="M305.944 290.888H287.415C285.827 290.888 284.539 292.176 284.539 293.764V304.551C284.539 306.139 285.827 307.427 287.415 307.427H305.944C307.532 307.427 308.82 306.139 308.82 304.551V293.764C308.82 292.176 307.532 290.888 305.944 290.888Z" fill="#FFC996"/>
<path d="M267.205 290.888H248.677C247.089 290.888 245.801 292.176 245.801 293.764V304.551C245.801 306.139 247.089 307.427 248.677 307.427H267.205C268.794 307.427 270.082 306.139 270.082 304.551V293.764C270.082 292.176 268.794 290.888 267.205 290.888Z" fill="white"/>
<path d="M228.467 290.888H209.939C208.35 290.888 207.062 292.176 207.062 293.764V304.551C207.062 306.139 208.35 307.427 209.939 307.427H228.467C230.056 307.427 231.343 306.139 231.343 304.551V293.764C231.343 292.176 230.056 290.888 228.467 290.888Z" fill="white"/>
<path d="M189.725 290.888H171.197C169.608 290.888 168.32 292.176 168.32 293.764V304.551C168.32 306.139 169.608 307.427 171.197 307.427H189.725C191.314 307.427 192.601 306.139 192.601 304.551V293.764C192.601 292.176 191.314 290.888 189.725 290.888Z" fill="white"/>
<path d="M305.944 321.853H287.415C285.827 321.853 284.539 323.14 284.539 324.728V335.515C284.539 337.103 285.827 338.391 287.415 338.391H305.944C307.532 338.391 308.82 337.103 308.82 335.515V324.728C308.82 323.14 307.532 321.853 305.944 321.853Z" fill="#FFC996"/>
<path d="M267.205 321.853H248.677C247.089 321.853 245.801 323.14 245.801 324.728V335.515C245.801 337.103 247.089 338.391 248.677 338.391H267.205C268.794 338.391 270.082 337.103 270.082 335.515V324.728C270.082 323.14 268.794 321.853 267.205 321.853Z" fill="white"/>
<path d="M228.467 321.853H209.939C208.35 321.853 207.062 323.14 207.062 324.728V335.515C207.062 337.103 208.35 338.391 209.939 338.391H228.467C230.056 338.391 231.343 337.103 231.343 335.515V324.728C231.343 323.14 230.056 321.853 228.467 321.853Z" fill="white"/>
<path d="M189.725 321.853H171.197C169.608 321.853 168.32 323.14 168.32 324.728V335.515C168.32 337.103 169.608 338.391 171.197 338.391H189.725C191.314 338.391 192.601 337.103 192.601 335.515V324.728C192.601 323.14 191.314 321.853 189.725 321.853Z" fill="white"/>
<path d="M274.525 178.035C274.988 178.06 275.451 178.04 275.909 177.975C276.906 177.852 277.84 177.42 278.578 176.739C279.422 175.975 280.031 174.857 280.264 173.347H280.209C279.847 173.789 279.388 174.142 278.869 174.38C278.349 174.618 277.782 174.734 277.21 174.719C274.904 174.719 273.441 172.992 273.441 170.815C273.441 168.4 275.187 166.281 277.798 166.281C280.409 166.281 282.017 168.4 282.017 171.659C282.017 174.465 281.076 176.425 279.819 177.654C278.803 178.614 277.5 179.214 276.11 179.361C275.585 179.446 275.053 179.479 274.521 179.46L274.525 178.035ZM275.153 170.697C275.153 172.286 276.115 173.404 277.607 173.404C278.106 173.421 278.6 173.306 279.041 173.072C279.482 172.837 279.853 172.492 280.119 172.069C280.23 171.88 280.284 171.662 280.273 171.442C280.273 169.265 279.471 167.596 277.665 167.596C276.205 167.596 275.153 168.892 275.153 170.697Z" fill="#FA8617"/>
<path d="M284.596 178.035C285.058 178.06 285.521 178.04 285.98 177.975C286.977 177.853 287.91 177.42 288.648 176.739C289.493 175.975 290.102 174.857 290.337 173.347H290.279C289.917 173.789 289.459 174.142 288.939 174.38C288.419 174.618 287.852 174.734 287.281 174.719C284.974 174.719 283.512 172.992 283.512 170.815C283.512 168.4 285.26 166.281 287.869 166.281C290.477 166.281 292.087 168.4 292.087 171.659C292.087 174.465 291.146 176.425 289.889 177.654C288.874 178.614 287.57 179.214 286.18 179.361C285.655 179.446 285.123 179.479 284.591 179.46L284.596 178.035ZM285.223 170.697C285.223 172.286 286.185 173.404 287.677 173.404C288.176 173.421 288.671 173.306 289.111 173.072C289.552 172.837 289.924 172.492 290.189 172.069C290.301 171.88 290.356 171.662 290.346 171.442C290.346 169.265 289.541 167.596 287.735 167.596C286.263 167.596 285.223 168.892 285.223 170.697Z" fill="#FA8617"/>
</g>
</g>
<defs>
<radialGradient id="paint0_radial_748_3243" cx="0" cy="0" r="1" gradientUnits="userSpaceOnUse" gradientTransform="translate(241.76 211.649) scale(191.118 190.704)">
<stop stop-color="#ACAFBD"/>
<stop offset="1" stop-color="#ACAFBD"/>
</radialGradient>
<radialGradient id="paint1_radial_748_3243" cx="0" cy="0" r="1" gradientUnits="userSpaceOnUse" gradientTransform="translate(215.366 243.189) scale(166.972 168.276)">
<stop stop-color="#FBFCFF"/>
<stop offset="1" stop-color="#EAEBF0"/>
</radialGradient>
<radialGradient id="paint2_radial_748_3243" cx="0" cy="0" r="1" gradientUnits="userSpaceOnUse" gradientTransform="translate(232.783 191.262) scale(177.855 175.713)">
<stop stop-color="#ACAFBD"/>
<stop offset="1" stop-color="#F5F5F5"/>
</radialGradient>
<clipPath id="clip0_748_3243">
<rect width="459" height="369" fill="white"/>
</clipPath>
<clipPath id="clip1_748_3243">
<rect width="176.729" height="249.17" fill="white" transform="translate(149.723 119.83)"/>
</clipPath>
</defs>
</svg>
