<svg width="395" height="308" viewBox="0 0 395 308" fill="none" xmlns="http://www.w3.org/2000/svg">
<g clip-path="url(#clip0_889_287)">
<path d="M346.09 65H109.03C105.305 65.0132 101.737 66.4987 99.1026 69.1326C96.4687 71.7665 94.9832 75.3351 94.97 79.06V237.85H360.1V79.06C360.108 77.2156 359.751 75.3878 359.051 73.6817C358.35 71.9756 357.319 70.4247 356.017 69.1181C354.715 67.8116 353.168 66.7752 351.465 66.0685C349.761 65.3618 347.934 64.9987 346.09 65ZM350.39 233.09H104.52V82.33C104.536 80.2894 105.357 78.3376 106.805 76.8993C108.252 75.461 110.209 74.6526 112.25 74.65H342.66C344.698 74.6604 346.651 75.4712 348.097 76.9079C349.543 78.3445 350.366 80.2918 350.39 82.33V233.09ZM82 240.49V247.99C82 252.45 84.54 255.05 89.73 255.83C95.8477 256.698 102.021 257.113 108.2 257.07H346.4C352.58 257.139 358.755 256.725 364.87 255.83C370.06 255.05 372.6 252.35 372.6 247.99V240.49H82ZM115.93 250.94C115.633 251.176 115.284 251.339 114.913 251.417C114.541 251.495 114.156 251.485 113.789 251.387C113.422 251.29 113.083 251.109 112.798 250.858C112.514 250.606 112.292 250.292 112.15 249.94C112.021 249.636 111.955 249.31 111.955 248.98C111.955 248.65 112.021 248.324 112.15 248.02C112.245 247.712 112.405 247.428 112.619 247.186C112.833 246.945 113.096 246.752 113.39 246.62C113.896 246.341 114.478 246.232 115.05 246.31C115.325 246.336 115.591 246.419 115.832 246.554C116.072 246.688 116.283 246.87 116.45 247.09C116.822 247.505 117.025 248.043 117.02 248.6C117.125 249.056 117.074 249.533 116.877 249.957C116.68 250.381 116.346 250.727 115.93 250.94ZM124.03 250.94C123.732 251.176 123.383 251.339 123.01 251.417C122.638 251.494 122.253 251.484 121.885 251.387C121.517 251.29 121.177 251.109 120.892 250.858C120.606 250.607 120.383 250.292 120.24 249.94C120.111 249.636 120.045 249.31 120.045 248.98C120.045 248.65 120.111 248.324 120.24 248.02C120.327 247.706 120.485 247.417 120.702 247.174C120.918 246.931 121.188 246.742 121.49 246.62C121.995 246.34 122.578 246.231 123.15 246.31C123.425 246.336 123.691 246.419 123.932 246.554C124.172 246.688 124.383 246.87 124.55 247.09C124.752 247.283 124.908 247.519 125.006 247.78C125.105 248.042 125.144 248.322 125.12 248.6C125.22 249.056 125.167 249.531 124.97 249.954C124.773 250.377 124.443 250.723 124.03 250.94ZM240.35 250.94H213.99C213.11 250.899 212.273 250.549 211.627 249.95C210.981 249.352 210.568 248.544 210.46 247.67C210.473 246.861 210.801 246.088 211.374 245.517C211.947 244.946 212.721 244.62 213.53 244.61H240.97C241.374 244.602 241.776 244.675 242.151 244.826C242.526 244.977 242.866 245.202 243.152 245.488C243.438 245.774 243.663 246.114 243.814 246.489C243.965 246.864 244.038 247.266 244.03 247.67C244.08 249.28 242.11 250.94 240.35 250.94Z" fill="#CACACA"/>
<path d="M321.491 155.22C356.351 155.22 384.611 126.96 384.611 92.1C384.611 57.2398 356.351 28.98 321.491 28.98C286.631 28.98 258.371 57.2398 258.371 92.1C258.371 126.96 286.631 155.22 321.491 155.22Z" stroke="#FA8617" stroke-width="0.33" stroke-miterlimit="10" stroke-dasharray="1.99 1.99"/>
<path d="M161.402 217.86C180.859 217.86 196.632 202.087 196.632 182.63C196.632 163.173 180.859 147.4 161.402 147.4C141.945 147.4 126.172 163.173 126.172 182.63C126.172 202.087 141.945 217.86 161.402 217.86Z" stroke="#CACACA" stroke-width="0.33" stroke-miterlimit="10" stroke-dasharray="1.99 1.99"/>
<path d="M254.59 15.95V54.43C254.59 55.1286 254.865 55.7991 255.355 56.2969C255.845 56.7946 256.511 57.0794 257.21 57.09L296.01 57.2299L254.59 15.95Z" fill="#F2F2F2"/>
<path d="M165.211 177.73L165.431 15.99H249.761V58.33C249.763 59.224 250.117 60.0813 250.745 60.7173C251.374 61.3532 252.227 61.7169 253.121 61.73L296.011 61.91V177.58L165.211 177.73Z" fill="#F2F2F2"/>
<path opacity="0.67" d="M127.822 114.78C128.733 114.78 129.472 114.041 129.472 113.13C129.472 112.219 128.733 111.48 127.822 111.48C126.911 111.48 126.172 112.219 126.172 113.13C126.172 114.041 126.911 114.78 127.822 114.78Z" fill="#0DB670"/>
<path d="M303 164C303.593 164 304.173 163.824 304.667 163.494C305.16 163.165 305.545 162.696 305.772 162.148C305.999 161.6 306.058 160.997 305.942 160.415C305.827 159.833 305.541 159.298 305.121 158.879C304.702 158.459 304.167 158.173 303.585 158.058C303.003 157.942 302.4 158.001 301.852 158.228C301.304 158.455 300.835 158.84 300.506 159.333C300.176 159.827 300 160.407 300 161C299.998 161.395 300.074 161.786 300.224 162.15C300.374 162.515 300.595 162.847 300.874 163.126C301.153 163.405 301.485 163.626 301.85 163.776C302.214 163.926 302.605 164.002 303 164Z" fill="#0DB670"/>
<path d="M159.891 55.34C160.192 55.34 160.486 55.2509 160.736 55.0839C160.986 54.9169 161.18 54.6795 161.295 54.4017C161.41 54.124 161.441 53.8184 161.382 53.5235C161.323 53.2287 161.178 52.9578 160.966 52.7452C160.753 52.5327 160.482 52.3879 160.188 52.3293C159.893 52.2706 159.587 52.3007 159.309 52.4158C159.032 52.5308 158.794 52.7256 158.627 52.9756C158.46 53.2255 158.371 53.5194 158.371 53.8201C158.371 54.2232 158.531 54.6098 158.816 54.8949C159.101 55.1799 159.488 55.34 159.891 55.34Z" fill="#FF106C"/>
<path d="M184.779 187.85C185.209 187.85 185.629 187.722 185.986 187.484C186.343 187.245 186.621 186.905 186.785 186.508C186.949 186.111 186.991 185.674 186.907 185.253C186.822 184.832 186.615 184.445 186.31 184.142C186.006 183.839 185.618 183.633 185.197 183.55C184.775 183.468 184.338 183.512 183.942 183.678C183.546 183.844 183.207 184.124 182.97 184.482C182.733 184.84 182.607 185.26 182.609 185.69C182.609 185.974 182.666 186.256 182.775 186.519C182.884 186.782 183.044 187.02 183.246 187.221C183.447 187.422 183.687 187.581 183.95 187.688C184.213 187.796 184.495 187.851 184.779 187.85Z" fill="#FFAC64"/>
<path d="M379.308 131.48C379.65 131.48 379.985 131.379 380.269 131.188C380.554 130.998 380.776 130.728 380.906 130.412C381.037 130.096 381.072 129.748 381.005 129.413C380.938 129.077 380.773 128.769 380.531 128.527C380.29 128.285 379.981 128.12 379.646 128.053C379.31 127.987 378.962 128.021 378.646 128.152C378.33 128.283 378.06 128.504 377.87 128.789C377.68 129.073 377.578 129.408 377.578 129.75C377.577 129.978 377.621 130.203 377.707 130.414C377.794 130.624 377.921 130.815 378.082 130.976C378.243 131.137 378.434 131.265 378.645 131.351C378.855 131.438 379.081 131.481 379.308 131.48Z" fill="#45C6E4"/>
<path d="M348.998 108.13C349.2 108.13 349.393 108.05 349.536 107.908C349.678 107.765 349.758 107.572 349.758 107.37C349.758 107.169 349.678 106.975 349.536 106.833C349.393 106.69 349.2 106.61 348.998 106.61C348.797 106.61 348.603 106.69 348.461 106.833C348.318 106.975 348.238 107.169 348.238 107.37C348.238 107.572 348.318 107.765 348.461 107.908C348.603 108.05 348.797 108.13 348.998 108.13Z" fill="#3645BD"/>
<path d="M152.302 3.46997C152.773 3.46997 153.233 3.60956 153.624 3.87108C154.016 4.1326 154.321 4.50429 154.501 4.93918C154.681 5.37407 154.728 5.85261 154.636 6.31429C154.544 6.77596 154.318 7.20003 153.985 7.53288C153.652 7.86573 153.228 8.0924 152.766 8.18423C152.305 8.27607 151.826 8.22893 151.391 8.0488C150.956 7.86866 150.585 7.56361 150.323 7.17223C150.061 6.78084 149.922 6.3207 149.922 5.84998C149.922 5.21876 150.173 4.61339 150.619 4.16705C151.065 3.72072 151.671 3.46997 152.302 3.46997Z" fill="#0DB670"/>
<path d="M237.092 3.46999C237.436 3.46999 237.772 3.36794 238.058 3.17675C238.344 2.98555 238.567 2.71381 238.699 2.39586C238.831 2.07792 238.865 1.72806 238.798 1.39053C238.731 1.053 238.565 0.742965 238.322 0.499621C238.079 0.256278 237.769 0.0905634 237.431 0.0234251C237.093 -0.0437132 236.744 -0.00925712 236.426 0.122439C236.108 0.254136 235.836 0.477159 235.645 0.763301C235.454 1.04944 235.352 1.38585 235.352 1.72999C235.352 2.19147 235.535 2.63405 235.861 2.96036C236.187 3.28667 236.63 3.46999 237.092 3.46999Z" fill="#FFAC64"/>
<path d="M378.096 56.9671C378.453 57.0257 378.82 57.0058 379.169 56.9088C379.518 56.8118 379.842 56.64 380.119 56.4053C380.395 56.1706 380.617 55.8787 380.769 55.5497C380.921 55.2207 381 54.8625 381 54.5C381 54.1375 380.921 53.7793 380.769 53.4503C380.617 53.1213 380.395 52.8294 380.119 52.5947C379.842 52.36 379.518 52.1882 379.169 52.0912C378.82 51.9942 378.453 51.9743 378.096 52.0329C377.511 52.1288 376.979 52.4295 376.595 52.8814C376.211 53.3334 376 53.907 376 54.5C376 55.093 376.211 55.6666 376.595 56.1186C376.979 56.5705 377.511 56.8712 378.096 56.9671Z" fill="#E1555F"/>
<path d="M246 80C244.22 80 242.48 80.5278 241 81.5168C239.52 82.5057 238.366 83.9113 237.685 85.5558C237.004 87.2004 236.826 89.01 237.173 90.7558C237.52 92.5016 238.377 94.1053 239.636 95.364C240.895 96.6226 242.498 97.4798 244.244 97.8271C245.99 98.1743 247.8 97.9961 249.444 97.3149C251.089 96.6337 252.494 95.4802 253.483 94.0001C254.472 92.5201 255 90.78 255 89C255 86.613 254.052 84.3239 252.364 82.636C250.676 80.9482 248.387 80 246 80ZM246 94.6875C244.874 94.6906 243.773 94.3597 242.836 93.7366C241.899 93.1135 241.167 92.2263 240.734 91.1874C240.301 90.1484 240.187 89.0043 240.404 87.9C240.622 86.7957 241.162 85.7809 241.957 84.9839C242.752 84.1869 243.765 83.6437 244.869 83.423C245.973 83.2022 247.117 83.3139 248.157 83.744C249.197 84.174 250.087 84.9029 250.712 85.8386C251.338 86.7742 251.672 87.8744 251.672 89C251.672 90.5057 251.075 91.95 250.012 93.0162C248.948 94.0823 247.506 94.6834 246 94.6875Z" fill="#666666"/>
<path d="M202 121C214.533 104.116 244.484 103.223 257 121" stroke="#666666" stroke-width="3" stroke-miterlimit="10"/>
<path d="M212.984 79C211.205 79.0031 209.467 79.5336 207.989 80.5244C206.511 81.5152 205.359 82.9219 204.681 84.5667C204.002 86.2115 203.826 88.0206 204.175 89.7654C204.524 91.5102 205.382 93.1124 206.642 94.3695C207.901 95.6266 209.505 96.4822 211.25 96.8282C212.995 97.1742 214.804 96.9951 216.448 96.3134C218.091 95.6318 219.496 94.4782 220.484 92.9985C221.473 91.5188 222 89.7794 222 88C222 86.8168 221.767 85.6452 221.313 84.5522C220.86 83.4593 220.196 82.4664 219.358 81.6305C218.521 80.7946 217.527 80.132 216.433 79.6806C215.34 79.2292 214.168 78.998 212.984 79ZM212.984 93.6875C211.86 93.6875 210.76 93.3539 209.825 92.729C208.889 92.104 208.16 91.2158 207.73 90.1765C207.299 89.1373 207.187 87.9937 207.406 86.8904C207.626 85.7872 208.167 84.7738 208.963 83.9783C209.758 83.1829 210.772 82.6413 211.875 82.4218C212.978 82.2023 214.122 82.315 215.161 82.7455C216.2 83.1759 217.088 83.9049 217.713 84.8402C218.338 85.7755 218.672 86.8751 218.672 88C218.674 88.7475 218.528 89.488 218.243 90.179C217.958 90.8699 217.539 91.4977 217.011 92.0263C216.482 92.5548 215.854 92.9737 215.163 93.2588C214.472 93.5439 213.732 93.6896 212.984 93.6875Z" fill="#666666"/>
<path d="M200.848 150.144L199.163 149.741L199.771 144.336H205.762V146.042H201.507L201.243 148.408C201.385 148.325 201.6 148.237 201.888 148.145C202.176 148.047 202.498 147.998 202.854 147.998C203.372 147.998 203.831 148.079 204.231 148.24C204.632 148.401 204.971 148.635 205.25 148.943C205.533 149.25 205.748 149.626 205.894 150.071C206.041 150.515 206.114 151.018 206.114 151.58C206.114 152.053 206.041 152.505 205.894 152.935C205.748 153.359 205.525 153.74 205.228 154.077C204.93 154.409 204.556 154.67 204.107 154.861C203.658 155.051 203.125 155.146 202.51 155.146C202.051 155.146 201.607 155.078 201.177 154.941C200.752 154.805 200.369 154.602 200.027 154.333C199.69 154.065 199.419 153.74 199.214 153.359C199.014 152.974 198.909 152.534 198.899 152.041H200.994C201.023 152.344 201.102 152.605 201.229 152.825C201.36 153.04 201.534 153.206 201.749 153.323C201.963 153.44 202.215 153.499 202.503 153.499C202.771 153.499 203.001 153.447 203.191 153.345C203.382 153.242 203.536 153.101 203.653 152.92C203.77 152.734 203.855 152.52 203.909 152.275C203.968 152.026 203.997 151.758 203.997 151.47C203.997 151.182 203.963 150.92 203.895 150.686C203.826 150.452 203.721 150.249 203.58 150.078C203.438 149.907 203.257 149.775 203.038 149.683C202.823 149.59 202.571 149.543 202.283 149.543C201.893 149.543 201.59 149.604 201.375 149.727C201.165 149.849 200.989 149.988 200.848 150.144ZM214.654 148.73V150.576C214.654 151.377 214.568 152.068 214.397 152.649C214.227 153.225 213.98 153.699 213.658 154.07C213.34 154.436 212.962 154.707 212.522 154.883C212.083 155.059 211.595 155.146 211.058 155.146C210.628 155.146 210.228 155.093 209.856 154.985C209.485 154.873 209.151 154.7 208.853 154.465C208.56 154.231 208.306 153.936 208.091 153.579C207.881 153.218 207.72 152.788 207.608 152.29C207.496 151.792 207.439 151.221 207.439 150.576V148.73C207.439 147.93 207.525 147.244 207.696 146.672C207.872 146.096 208.118 145.625 208.436 145.259C208.758 144.893 209.139 144.624 209.578 144.453C210.018 144.277 210.506 144.189 211.043 144.189C211.473 144.189 211.871 144.246 212.237 144.358C212.608 144.465 212.942 144.634 213.24 144.863C213.538 145.093 213.792 145.388 214.002 145.75C214.212 146.106 214.373 146.533 214.485 147.031C214.598 147.524 214.654 148.091 214.654 148.73ZM212.537 150.854V148.445C212.537 148.059 212.515 147.722 212.471 147.434C212.432 147.146 212.371 146.902 212.288 146.702C212.205 146.497 212.103 146.331 211.98 146.204C211.858 146.077 211.719 145.984 211.563 145.925C211.407 145.867 211.233 145.837 211.043 145.837C210.804 145.837 210.591 145.884 210.406 145.977C210.225 146.069 210.071 146.218 209.944 146.423C209.817 146.624 209.72 146.892 209.651 147.229C209.588 147.561 209.556 147.966 209.556 148.445V150.854C209.556 151.24 209.576 151.58 209.615 151.873C209.659 152.166 209.722 152.417 209.805 152.627C209.893 152.832 209.996 153 210.113 153.132C210.235 153.259 210.374 153.352 210.53 153.411C210.691 153.469 210.867 153.499 211.058 153.499C211.292 153.499 211.5 153.452 211.68 153.359C211.866 153.262 212.022 153.11 212.149 152.905C212.281 152.695 212.378 152.422 212.442 152.085C212.505 151.748 212.537 151.338 212.537 150.854ZM218.25 148.752H219.378C219.739 148.752 220.037 148.691 220.271 148.569C220.506 148.442 220.679 148.267 220.792 148.042C220.909 147.812 220.967 147.546 220.967 147.244C220.967 146.97 220.914 146.729 220.806 146.519C220.704 146.304 220.545 146.138 220.33 146.021C220.115 145.898 219.844 145.837 219.517 145.837C219.258 145.837 219.019 145.889 218.799 145.991C218.58 146.094 218.404 146.238 218.272 146.423C218.14 146.609 218.074 146.833 218.074 147.097H215.958C215.958 146.511 216.114 146.001 216.426 145.566C216.744 145.132 217.168 144.792 217.701 144.548C218.233 144.304 218.819 144.182 219.458 144.182C220.181 144.182 220.813 144.299 221.355 144.534C221.897 144.763 222.32 145.103 222.623 145.552C222.925 146.001 223.077 146.558 223.077 147.222C223.077 147.559 222.999 147.886 222.842 148.203C222.686 148.516 222.461 148.799 222.168 149.053C221.88 149.302 221.529 149.502 221.114 149.653C220.699 149.8 220.232 149.873 219.715 149.873H218.25V148.752ZM218.25 150.356V149.265H219.715C220.296 149.265 220.806 149.331 221.246 149.463C221.685 149.595 222.054 149.785 222.352 150.034C222.649 150.278 222.874 150.569 223.025 150.906C223.177 151.238 223.252 151.606 223.252 152.012C223.252 152.51 223.157 152.954 222.967 153.345C222.776 153.73 222.508 154.058 222.161 154.326C221.819 154.595 221.419 154.8 220.96 154.941C220.501 155.078 220 155.146 219.458 155.146C219.009 155.146 218.567 155.085 218.133 154.963C217.703 154.836 217.312 154.648 216.961 154.399C216.614 154.146 216.336 153.828 216.126 153.447C215.921 153.062 215.818 152.605 215.818 152.078H217.935C217.935 152.351 218.003 152.595 218.14 152.81C218.277 153.025 218.465 153.193 218.704 153.315C218.948 153.438 219.219 153.499 219.517 153.499C219.854 153.499 220.142 153.438 220.381 153.315C220.625 153.188 220.811 153.013 220.938 152.788C221.07 152.559 221.136 152.292 221.136 151.99C221.136 151.599 221.065 151.287 220.923 151.052C220.782 150.813 220.579 150.637 220.315 150.525C220.052 150.413 219.739 150.356 219.378 150.356H218.25ZM235.813 153.286V155H230.137V153.286H235.813ZM230.855 144.336V155H228.658V144.336H230.855ZM235.074 148.679V150.349H230.137V148.679H235.074ZM235.806 144.336V146.057H230.137V144.336H235.806ZM239.073 148.804V155H236.963V147.075H238.948L239.073 148.804ZM241.46 147.024L241.424 148.979C241.321 148.965 241.197 148.953 241.05 148.943C240.909 148.928 240.779 148.921 240.662 148.921C240.364 148.921 240.105 148.96 239.886 149.038C239.671 149.111 239.49 149.221 239.344 149.368C239.202 149.514 239.095 149.692 239.021 149.902C238.953 150.112 238.914 150.352 238.904 150.62L238.479 150.488C238.479 149.976 238.531 149.504 238.633 149.075C238.736 148.64 238.885 148.262 239.08 147.939C239.28 147.617 239.524 147.368 239.812 147.192C240.101 147.017 240.43 146.929 240.801 146.929C240.918 146.929 241.038 146.938 241.16 146.958C241.282 146.973 241.382 146.995 241.46 147.024ZM244.566 148.804V155H242.457V147.075H244.441L244.566 148.804ZM246.954 147.024L246.917 148.979C246.814 148.965 246.69 148.953 246.543 148.943C246.402 148.928 246.272 148.921 246.155 148.921C245.857 148.921 245.599 148.96 245.379 149.038C245.164 149.111 244.983 149.221 244.837 149.368C244.695 149.514 244.588 149.692 244.515 149.902C244.446 150.112 244.407 150.352 244.397 150.62L243.973 150.488C243.973 149.976 244.024 149.504 244.126 149.075C244.229 148.64 244.378 148.262 244.573 147.939C244.773 147.617 245.018 147.368 245.306 147.192C245.594 147.017 245.923 146.929 246.294 146.929C246.412 146.929 246.531 146.938 246.653 146.958C246.775 146.973 246.875 146.995 246.954 147.024ZM247.393 151.118V150.964C247.393 150.383 247.476 149.849 247.642 149.36C247.808 148.867 248.05 148.44 248.367 148.079C248.685 147.717 249.075 147.437 249.539 147.236C250.003 147.031 250.535 146.929 251.136 146.929C251.736 146.929 252.271 147.031 252.74 147.236C253.208 147.437 253.602 147.717 253.919 148.079C254.241 148.44 254.485 148.867 254.651 149.36C254.817 149.849 254.9 150.383 254.9 150.964V151.118C254.9 151.694 254.817 152.229 254.651 152.722C254.485 153.21 254.241 153.638 253.919 154.004C253.602 154.365 253.211 154.646 252.747 154.846C252.283 155.046 251.751 155.146 251.15 155.146C250.55 155.146 250.015 155.046 249.546 154.846C249.083 154.646 248.689 154.365 248.367 154.004C248.05 153.638 247.808 153.21 247.642 152.722C247.476 152.229 247.393 151.694 247.393 151.118ZM249.502 150.964V151.118C249.502 151.45 249.532 151.76 249.59 152.048C249.649 152.336 249.742 152.59 249.869 152.81C250 153.025 250.171 153.193 250.381 153.315C250.591 153.438 250.848 153.499 251.15 153.499C251.443 153.499 251.695 153.438 251.905 153.315C252.115 153.193 252.283 153.025 252.41 152.81C252.537 152.59 252.63 152.336 252.688 152.048C252.752 151.76 252.784 151.45 252.784 151.118V150.964C252.784 150.642 252.752 150.339 252.688 150.056C252.63 149.768 252.535 149.514 252.403 149.294C252.276 149.07 252.107 148.894 251.897 148.767C251.688 148.64 251.434 148.577 251.136 148.577C250.838 148.577 250.584 148.64 250.374 148.767C250.169 148.894 250 149.07 249.869 149.294C249.742 149.514 249.649 149.768 249.59 150.056C249.532 150.339 249.502 150.642 249.502 150.964ZM258.306 148.804V155H256.197V147.075H258.182L258.306 148.804ZM260.694 147.024L260.657 148.979C260.555 148.965 260.43 148.953 260.284 148.943C260.142 148.928 260.013 148.921 259.896 148.921C259.598 148.921 259.339 148.96 259.119 149.038C258.904 149.111 258.724 149.221 258.577 149.368C258.436 149.514 258.328 149.692 258.255 149.902C258.187 150.112 258.147 150.352 258.138 150.62L257.713 150.488C257.713 149.976 257.764 149.504 257.867 149.075C257.969 148.64 258.118 148.262 258.313 147.939C258.514 147.617 258.758 147.368 259.046 147.192C259.334 147.017 259.664 146.929 260.035 146.929C260.152 146.929 260.271 146.938 260.394 146.958C260.516 146.973 260.616 146.995 260.694 147.024Z" fill="black"/>
<path d="M97.9086 95.9775C92.1053 89.987 81.6019 76.3787 81.6019 76.3787L75.6396 55.7016C75.4906 55.7615 78.6704 55.7714 79.6144 55.7016C86.0338 56.1309 87.9218 56.7 91.9165 61.073C95.0865 64.5575 107.18 81.1611 111.393 86.7422L122.552 72.4549C125.226 68.3914 124.788 63.8486 126.18 60.5339C127.571 57.2191 129.807 55.7515 131.605 52.7463C133.404 49.741 133.831 47.7542 135.302 49.3217C136.772 50.8892 135.073 54.9927 134.855 55.9312C134.636 56.8697 132.39 59.6752 136.146 58.2175C139.903 56.7599 145.706 49.8608 147.206 48.4431C148.707 47.0254 149.492 49.2219 149.194 50.9491C148.896 52.6764 150.466 56.5702 149.879 59.4256C149.263 62.4209 148.816 63.8486 145.905 66.7939C143.202 69.5395 136.564 72.8942 133.98 76.4985C131.396 80.1027 125.852 91.285 122.463 98.0242C118.17 106.591 114.513 109.416 109.664 106.531C104.815 103.645 100.065 98.2039 97.9086 95.9775Z" fill="#EFC5C7"/>
<path d="M77.5478 55.5017C80.8328 55.1859 84.1459 55.6405 87.2265 56.8296C90.7144 58.4071 93.0794 61.8216 96.4779 66.3744C99.8763 70.9271 108.402 81.9995 108.402 81.9995C103.317 85.4695 99.6416 90.6607 98.0479 96.6263L77.2794 73.563L77.5478 55.5017Z" fill="#E0E0E0"/>
<path d="M111.383 86.7521C109.288 88.7679 107.895 91.4072 107.408 94.2801C107.408 94.2801 106.156 90.1367 110.498 85.4741L111.383 86.7521Z" fill="#D1B8B9"/>
<path d="M57.5653 55.4318C55.3095 55.981 49.2479 56.7597 45.2532 57.9079C42.2721 58.7565 39.291 62.4307 38.7146 65.1464C36.7272 73.8425 38.496 79.3138 39.2314 86.9317C39.9667 94.5496 40.0164 132.559 40.0164 132.559C44.2198 140.806 76.0681 142.483 91.4805 131.171C91.4805 131.171 89.5924 80.5718 89.5924 72.6944C89.5924 64.8169 85.24 55.3619 73.2161 54.6531L57.5653 55.4318Z" fill="#F5F5F5"/>
<path d="M71.1794 30.5114C71.1677 30.8408 71.0596 31.1594 70.8688 31.4274C70.6779 31.6955 70.4127 31.9011 70.1063 32.0186C69.7998 32.1361 69.4657 32.1603 69.1456 32.0882C68.8256 32.016 68.5338 31.8507 68.3066 31.613C68.0795 31.3752 67.9271 31.0755 67.8685 30.7512C67.8099 30.4269 67.8476 30.0925 67.9771 29.7897C68.1065 29.4868 68.3219 29.229 68.5963 29.0484C68.8706 28.8678 69.1919 28.7724 69.5199 28.7742C69.9689 28.7847 70.3954 28.9733 70.7064 29.2988C71.0174 29.6243 71.1874 30.0603 71.1794 30.5114Z" fill="#263238"/>
<path d="M69.5195 24.8604L66.0813 26.7673C65.836 26.295 65.7818 25.7457 65.9299 25.2341C66.0781 24.7225 66.4171 24.2882 66.8763 24.0217C67.1034 23.8965 67.3534 23.8189 67.6112 23.7934C67.869 23.768 68.1292 23.7953 68.3763 23.8736C68.6233 23.952 68.8519 24.0798 69.0484 24.2494C69.2449 24.419 69.4052 24.6269 69.5195 24.8604Z" fill="#263238"/>
<path d="M70.7616 40.7153L74.6172 42.163C74.5383 42.4258 74.4063 42.6694 74.2295 42.8786C74.0528 43.0878 73.8349 43.2581 73.5897 43.379C73.3445 43.4999 73.077 43.5686 72.8042 43.581C72.5313 43.5934 72.2588 43.5491 72.0037 43.451C71.4846 43.2451 71.0651 42.8451 70.8334 42.3349C70.6018 41.8247 70.576 41.2442 70.7616 40.7153Z" fill="#F28F8F"/>
<path d="M84.453 26.2483L81.3228 23.8221C81.4698 23.6094 81.6583 23.4289 81.877 23.2918C82.0956 23.1547 82.3397 23.0637 82.5945 23.0245C82.8493 22.9852 83.1093 22.9985 83.3588 23.0636C83.6083 23.1286 83.8419 23.244 84.0456 23.4028C84.4636 23.7342 84.7389 24.2142 84.8148 24.7438C84.8906 25.2733 84.7611 25.8119 84.453 26.2483Z" fill="#263238"/>
<path d="M83.7497 30.5116C83.738 30.8286 83.6338 31.1353 83.4499 31.3933C83.2661 31.6512 83.0108 31.8492 82.7158 31.9625C82.4208 32.0758 82.0992 32.0994 81.7909 32.0304C81.4827 31.9614 81.2014 31.8028 80.9822 31.5744C80.763 31.346 80.6155 31.0578 80.5581 30.7458C80.5006 30.4338 80.5358 30.1117 80.6592 29.8196C80.7826 29.5276 80.9888 29.2784 81.2521 29.1032C81.5153 28.928 81.8241 28.8344 82.1399 28.8342C82.3553 28.8381 82.5677 28.8846 82.7651 28.971C82.9626 29.0574 83.1412 29.1821 83.2907 29.3378C83.4401 29.4936 83.5576 29.6774 83.6364 29.8788C83.7152 30.0802 83.7537 30.2952 83.7497 30.5116Z" fill="#263238"/>
<path d="M75.0224 27.7258L75.5789 37.8897L80.8555 36.0825L75.0224 27.7258Z" fill="#F28F8F"/>
<path d="M71.1562 28.1752L47.4961 26.418C42.9151 29.9024 34.409 37.2308 34.4189 39.2575V40.6653C34.4236 40.7279 34.4405 40.789 34.4686 40.845C35.3033 42.4425 38.3242 43.4309 43.0244 43.5108C48.5991 43.6006 57.2543 43.0914 59.5299 41.1246C62.9483 38.1293 71.1562 29.513 71.1562 29.513L69.9638 29.4232L71.1562 28.1752Z" fill="#FA8617"/>
<path opacity="0.2" d="M71.1562 28.1752L47.4961 26.418C42.9151 29.9024 34.409 37.2308 34.4189 39.2575V40.6653C34.4236 40.7279 34.4405 40.789 34.4686 40.845C35.3033 42.4425 38.3242 43.4309 43.0244 43.5108C48.5991 43.6006 57.2543 43.0914 59.5299 41.1246C62.9483 38.1293 71.1562 29.513 71.1562 29.513L69.9638 29.4232L71.1562 28.1752Z" fill="#FA8617"/>
<path d="M47.4961 27.7559C42.7164 31.4001 33.5842 39.2376 34.4686 40.845C35.353 42.4525 38.3242 43.4309 43.0244 43.5108C48.5991 43.6007 57.2543 43.0915 59.5299 41.1246C62.9483 38.1294 71.1562 29.5131 71.1562 29.5131L47.4961 27.7559Z" fill="#D06B0A"/>
<path opacity="0.4" d="M47.4961 27.7559C42.7164 31.4001 33.5842 39.2376 34.4686 40.845C35.353 42.4525 38.3242 43.4309 43.0244 43.5108C48.5991 43.6007 57.2543 43.0915 59.5299 41.1246C62.9483 38.1294 71.1562 29.5131 71.1562 29.5131L47.4961 27.7559Z" fill="#D06B0A"/>
<path d="M47.4968 27.756C47.4173 28.4449 49.832 29.8826 49.832 29.8826L49.1563 25.7092L47.4968 27.756Z" fill="#D06B0A"/>
<path opacity="0.3" d="M47.4968 27.756C47.4173 28.4449 49.832 29.8826 49.832 29.8826L49.1563 25.7092L47.4968 27.756Z" fill="#D06B0A"/>
<path d="M53.7471 13.8679C53.7471 13.8679 50.0505 14.3871 48.6892 17.1826C47.5166 19.6188 47.9339 25.4994 49.5139 31.9092C50.4082 36.0343 51.7408 40.051 53.4887 43.8902C54.1034 44.9851 55.114 45.8002 56.3109 46.1665L56.1221 38.5586L55.8438 33.2671C55.8438 33.2671 59.2324 28.6244 59.6001 24.8205C60.087 19.9183 59.0535 17.9215 59.0535 17.9215L53.7471 13.8679Z" fill="black"/>
<path d="M59.7098 21.2262C59.723 24.9899 61.223 28.5943 63.8802 31.2472C66.5373 33.9001 70.1342 35.3843 73.8801 35.3737C81.6807 35.3737 87.5336 28.914 87.5038 21.0765C87.474 13.2389 81.5913 6.95892 73.7907 6.98888C70.0447 7.0021 66.4573 8.5092 63.8169 11.1789C61.1765 13.8487 59.6993 17.4626 59.7098 21.2262Z" fill="black"/>
<path d="M56.0234 32.4684C54.7515 33.5767 53.718 30.7112 52.6448 29.593C51.5716 28.4748 48.0837 26.9572 46.3646 30.6413C44.6455 34.3255 47.8849 39.627 50.5679 40.6953C51.3719 41.0149 52.2601 41.0506 53.087 40.7966C53.9138 40.5427 54.6303 40.0141 55.1191 39.2975V56.1408C59.0939 63.4192 66.2288 63.1995 70.0247 62.7802C73.8207 62.3609 74.6454 58.4171 71.873 55.2222V50.0105C73.9791 50.3418 76.1145 50.4456 78.2427 50.32C81.7107 49.7709 83.5292 47.1351 84.5627 43.3311C86.242 37.2608 86.9078 27.057 84.5627 15.2658C80.6773 12.2706 67.1927 12.7398 59.0343 17.9415C59.6206 28.4248 57.2854 31.3602 56.0234 32.4684Z" fill="#EFC5C7"/>
<path d="M83.1023 10.114C81.4933 8.39074 79.5391 7.02963 77.3685 6.12033C75.6244 5.36953 73.7508 4.96928 71.8535 4.94221C69.3891 4.94221 66.885 4.57279 64.4703 4.65267C60.1973 4.79244 55.03 6.53966 53.1022 10.713C52.2178 12.63 52.1085 14.6468 53.8177 15.9647C55.3745 17.0295 57.1577 17.7134 59.0247 17.9615C62.1947 18.5106 65.3348 19.2095 68.5246 19.6388C71.9333 20.2185 75.4188 20.1678 78.8094 19.4891C80.403 19.1267 81.918 18.4772 83.2811 17.5721C83.9786 17.1027 84.6248 16.5605 85.2089 15.9547C85.4375 15.7251 86.0436 15.2458 86.1132 14.9563C86.1827 14.6667 85.7753 13.9579 85.6064 13.6983C84.9408 12.3928 84.0981 11.1865 83.1023 10.114Z" fill="black"/>
<path d="M71.8455 50.0504C71.8455 50.0504 64.0847 48.5128 61.3719 47.0552C59.7769 46.2243 58.468 44.9301 57.6157 43.3411C58.0306 44.9303 58.7569 46.4204 59.7521 47.7241C61.7395 50.2601 71.8555 52.1071 71.8555 52.1071L71.8455 50.0504Z" fill="#D1B8B9"/>
<path d="M69.7458 29.8425C69.7341 30.1655 69.6281 30.478 69.441 30.7409C69.2539 31.0038 68.9939 31.2056 68.6934 31.3211C68.393 31.4367 68.0654 31.4609 67.7513 31.3907C67.4373 31.3206 67.1508 31.1591 66.9274 30.9265C66.704 30.6939 66.5537 30.4004 66.4951 30.0826C66.4365 29.7648 66.4723 29.4367 66.5979 29.1391C66.7236 28.8416 66.9336 28.5878 67.2018 28.4093C67.47 28.2308 67.7845 28.1355 68.1062 28.1353C68.3255 28.1392 68.5418 28.1864 68.7428 28.2743C68.9439 28.3622 69.1258 28.4891 69.278 28.6476C69.4303 28.8062 69.55 28.9933 69.6302 29.1983C69.7105 29.4033 69.7498 29.6222 69.7458 29.8425Z" fill="black"/>
<path d="M73.4839 42.4824C73.4722 42.8054 73.3662 43.1178 73.1791 43.3808C72.9919 43.6437 72.732 43.8455 72.4315 43.961C72.1311 44.0766 71.8035 44.1008 71.4894 44.0306C71.1754 43.9604 70.8889 43.799 70.6655 43.5664C70.4421 43.3338 70.2918 43.0403 70.2332 42.7225C70.1746 42.4047 70.2104 42.0766 70.336 41.779C70.4617 41.4815 70.6717 41.2277 70.9399 41.0492C71.2081 40.8706 71.5226 40.7754 71.8443 40.7751C72.0639 40.7777 72.2809 40.8241 72.4825 40.9115C72.6842 40.999 72.8666 41.1258 73.0191 41.2846C73.1716 41.4434 73.2912 41.6311 73.371 41.8367C73.4508 42.0423 73.4892 42.2618 73.4839 42.4824Z" fill="#D99FA2"/>
<path d="M67.5117 23.4826L64.3617 25.9586C64.0445 25.529 63.901 24.9947 63.96 24.4631C64.019 23.9315 64.2761 23.4421 64.6796 23.0932C64.8893 22.9275 65.13 22.8059 65.3874 22.7356C65.6448 22.6654 65.9136 22.6479 66.1779 22.6842C66.4422 22.7205 66.6965 22.81 66.9256 22.9471C67.1548 23.0843 67.3541 23.2664 67.5117 23.4826Z" fill="black"/>
<path d="M84.244 26.0086L81.2033 23.3528C81.3694 23.1499 81.5738 22.9819 81.8047 22.8585C82.0355 22.7351 82.2884 22.6586 82.5487 22.6336C82.809 22.6086 83.0717 22.6354 83.3217 22.7125C83.5717 22.7897 83.8041 22.9157 84.0055 23.0832C84.4096 23.448 84.6595 23.9543 84.7038 24.4983C84.7482 25.0422 84.5837 25.5826 84.244 26.0086Z" fill="black"/>
<path d="M83.2107 29.3533C83.199 29.6763 83.093 29.9887 82.9058 30.2516C82.7187 30.5145 82.4588 30.7163 82.1583 30.8319C81.8579 30.9474 81.5302 30.9716 81.2162 30.9015C80.9022 30.8313 80.6156 30.6699 80.3922 30.4373C80.1689 30.2047 80.0185 29.9112 79.96 29.5934C79.9014 29.2755 79.9371 28.9474 80.0628 28.6499C80.1884 28.3523 80.3984 28.0985 80.6666 27.92C80.9348 27.7415 81.2494 27.6462 81.5711 27.646C81.7903 27.6499 82.0066 27.6972 82.2077 27.7851C82.4087 27.873 82.5906 27.9998 82.7429 28.1584C82.8951 28.3169 83.0148 28.5041 83.0951 28.7091C83.1753 28.9141 83.2146 29.133 83.2107 29.3533Z" fill="black"/>
<path d="M74.2204 26.5378L74.8464 38.1993L80.3516 36.7416L74.2204 26.5378Z" fill="#D99FA2"/>
<path d="M46.4853 21.975C46.5289 23.9799 46.8637 25.9678 47.479 27.8756C47.876 27.2552 48.3653 26.6996 48.9299 26.2282C52.0908 23.5663 55.6979 21.4906 59.5824 20.0979C68.5257 16.6235 78.9597 16.1043 87.2969 19.0396C87.1535 17.3325 86.7791 15.653 86.1839 14.0476C83.1432 6.06027 76.9921 1.91686 67.1743 2.94522C55.6771 4.12334 46.1773 10.5332 46.4853 21.975Z" fill="#FA8617"/>
<path d="M67.562 14.9363C70.235 14.0278 77.0519 13.4986 79.0393 14.1276C79.962 13.3642 80.7688 12.4695 81.4341 11.4718C82.3682 9.98419 82.0502 8.11716 81.1757 7.72778C80.3013 7.3384 80.2417 8.50654 76.8531 10.1939C77.3003 9.10273 77.3975 7.89863 77.1314 6.74933C76.5749 5.37152 75.4122 7.84758 72.8882 9.45503C70.3642 11.0625 67.8799 11.8612 67.562 14.9363Z" fill="black"/>
<path d="M32.681 48.7723C30.4551 46.9353 16.9605 62.9997 22.6048 67.6224C28.249 72.245 35.1454 60.6335 34.2113 54.9026C33.2772 49.1717 32.681 48.7723 32.681 48.7723Z" fill="#1E1E1E"/>
<path d="M21.8323 39.7468C25.2109 35.5834 34.184 25.5793 36.1715 23.7722C38.1589 21.9651 39.3513 22.2047 40.5835 21.7754C41.9636 21.278 43.221 20.488 44.2702 19.4591C44.9051 18.7973 45.4992 18.0971 46.0489 17.3624C47.9773 14.9689 50.2359 12.8643 52.7564 11.1123C55.4196 9.26528 58.341 7.89745 61.0638 6.12028C62.6935 5.07195 64.4623 3.30476 62.614 1.49764C62.0537 0.976141 61.3693 0.60825 60.6266 0.429335C56.0059 -0.788727 51.872 0.648982 47.2612 1.62743C45.2551 2.04758 43.2848 2.62511 41.3686 3.35468C40.4278 3.68065 39.5404 4.14497 38.7352 4.73249C37.1745 6.07265 35.7285 7.54216 34.4126 9.1255C31.2427 13.0293 28.5597 14.2374 25.4692 16.9431C21.8223 20.108 5.47588 31.7196 2.02771 35.1741C-0.834161 38.0395 0.0402751 40.4057 0.417884 41.2244C2.45498 45.927 4.87965 47.6742 7.74153 50.6494C8.68555 51.6479 9.6395 52.6463 10.5935 53.6447C14.3099 57.4287 18.0463 60.993 21.9217 64.6272C26.0555 68.501 27.7448 70.3581 31.4315 74.0921C33.7414 76.5055 35.6234 79.2981 36.9962 82.349C43.664 83.8766 48.2152 69.6991 45.8303 61.4822C45.0965 59.4135 43.7425 57.6241 41.9548 56.3604C35.1579 50.909 21.8323 39.7468 21.8323 39.7468Z" fill="#EFC5C7"/>
<path d="M21.8289 39.7468C19.5759 42.3004 16.641 44.1508 13.3725 45.0784C13.3725 45.0784 17.6156 46.3563 23.707 41.3143L21.8289 39.7468Z" fill="#D1B8B9"/>
<path d="M45.2529 57.9079C43.7325 56.7098 40.0359 54.1539 32.6824 48.7725C32.6824 48.7725 33.6762 51.3284 31.4801 57.4586C29.284 63.5889 25.1005 67.323 22.6063 67.6225C22.6063 67.6225 26.6904 71.2767 30.4069 75.3502C34.1233 79.4237 37.2138 82.3391 39.231 86.9318C39.231 86.9318 44.9647 85.8135 46.803 76.2887C48.1048 69.5993 48.0352 61.6619 45.2529 57.9079Z" fill="#E0E0E0"/>
<path d="M58.1013 301.431C58.4591 301.81 58.2305 304.566 57.7833 305.195C57.3362 305.824 54.8022 307.92 50.1914 308C45.7694 308.08 41.8641 307.271 39.36 305.474C36.8559 303.677 35.7131 301.8 35.6038 299.264C35.4945 296.728 35.9019 294.272 34.8088 292.275C33.8151 290.428 32.424 288.601 32.0861 287.603C31.698 285.816 31.698 283.967 32.0861 282.181L58.1013 301.431Z" fill="#263238"/>
<path d="M47.3694 280.045C47.3824 281.002 47.5126 281.954 47.7569 282.88C48.3255 284.868 49.1331 286.779 50.1617 288.571C50.6621 289.511 51.2265 290.415 51.851 291.277C53.1031 292.944 54.693 294.342 56.0146 295.939C57.4428 297.462 58.3029 299.434 58.4492 301.52C58.4492 305.005 54.6334 305.983 51.7218 306.343C48.5665 306.719 45.3675 306.378 42.3611 305.344C40.7776 304.839 39.3729 303.885 38.3154 302.598C37.2578 301.31 36.5924 299.744 36.3989 298.086C36.2896 297.087 36.3989 296.089 36.3392 295.151C36.0747 292.914 35.2658 290.778 33.9841 288.93C33.2347 287.864 32.6017 286.719 32.0961 285.516C31.3111 283.319 32.1557 280.933 32.8513 278.827C33.4476 276.999 33.9245 274.833 34.5605 275.013C34.5605 275.392 34.5605 276.201 34.5605 276.201C34.7592 276.62 35.2163 276.92 35.3256 277.389C35.4293 277.888 35.5791 278.376 35.7728 278.846C36.0558 279.579 36.5596 280.204 37.2137 280.634C37.3329 279.326 37.4422 278.018 37.5615 276.71C37.5474 276.3 37.6737 275.899 37.9192 275.572C38.2375 275.305 38.6376 275.157 39.052 275.152C41.5009 274.701 44.004 274.627 46.475 274.933C46.6658 274.939 46.8531 274.985 47.0244 275.07C47.1958 275.154 47.3473 275.274 47.4687 275.422C47.6005 275.702 47.6389 276.017 47.5781 276.321C47.4444 277.557 47.3747 278.8 47.3694 280.045Z" fill="#27DEBF"/>
<path d="M47.3694 280.045C47.3824 281.002 47.5126 281.954 47.7569 282.88C48.3255 284.868 49.1331 286.779 50.1617 288.571C50.6621 289.511 51.2265 290.415 51.851 291.277C53.1031 292.944 54.693 294.342 56.0146 295.939C57.4428 297.462 58.3029 299.434 58.4492 301.52C58.4492 305.005 54.6334 305.983 51.7218 306.343C48.5665 306.719 45.3675 306.378 42.3611 305.344C40.7776 304.839 39.3729 303.885 38.3154 302.598C37.2578 301.31 36.5924 299.744 36.3989 298.086C36.2896 297.087 36.3989 296.089 36.3392 295.151C36.0747 292.914 35.2658 290.778 33.9841 288.93C33.2347 287.864 32.6017 286.719 32.0961 285.516C31.3111 283.319 32.1557 280.933 32.8513 278.827C33.4476 276.999 33.9245 274.833 34.5605 275.013C34.5605 275.392 34.5605 276.201 34.5605 276.201C34.7592 276.62 35.2163 276.92 35.3256 277.389C35.4293 277.888 35.5791 278.376 35.7728 278.846C36.0558 279.579 36.5596 280.204 37.2137 280.634C37.3329 279.326 37.4422 278.018 37.5615 276.71C37.5474 276.3 37.6737 275.899 37.9192 275.572C38.2375 275.305 38.6376 275.157 39.052 275.152C41.5009 274.701 44.004 274.627 46.475 274.933C46.6658 274.939 46.8531 274.985 47.0244 275.07C47.1958 275.154 47.3473 275.274 47.4687 275.422C47.6005 275.702 47.6389 276.017 47.5781 276.321C47.4444 277.557 47.3747 278.8 47.3694 280.045Z" fill="black"/>
<path d="M50.5896 289.33C49.3475 288.331 46.4657 288.122 44.8857 288.201C43.275 288.258 41.7038 288.718 40.3147 289.539C40.1123 289.677 39.8667 289.734 39.6248 289.701C39.3828 289.668 39.1615 289.546 39.003 289.36C38.9125 289.254 38.8449 289.131 38.8046 288.998C38.7643 288.864 38.7522 288.724 38.769 288.586C38.7858 288.448 38.8313 288.315 38.9024 288.195C38.9735 288.076 39.0687 287.972 39.1819 287.892C40.7094 286.881 42.4903 286.323 44.3194 286.285C48.2147 286.225 49.2879 286.953 49.2879 286.953C49.2879 286.953 51.0269 288.191 50.5896 289.33Z" fill="#FA8617"/>
<path d="M53.3516 293.044C51.7914 291.995 48.6116 291.965 47.0217 292.045C45.4393 292.123 43.9046 292.616 42.5698 293.473C42.3686 293.611 42.1237 293.671 41.8818 293.639C41.6399 293.608 41.418 293.488 41.2581 293.303C41.1659 293.198 41.0969 293.074 41.0557 292.94C41.0144 292.805 41.0018 292.664 41.0187 292.524C41.0355 292.385 41.0815 292.251 41.1536 292.13C41.2257 292.01 41.3223 291.906 41.437 291.826C42.9939 290.764 44.814 290.159 46.6937 290.078C50.589 290.019 51.5629 290.867 51.5629 290.867C52.0053 291.071 52.3962 291.372 52.706 291.749C53.0158 292.126 53.2365 292.569 53.3516 293.044Z" fill="#FA8617"/>
<path d="M42.977 282.471C44.6246 282.271 46.2955 282.505 47.8263 283.149C48.492 283.569 48.8895 284.677 48.4324 284.937C47.0926 284.304 45.6176 284.016 44.1396 284.098C42.6793 284.167 41.2411 284.484 39.8865 285.036C39.5107 285.18 39.1426 285.344 38.7835 285.526C38.6711 285.58 38.5488 285.612 38.4241 285.618C38.2993 285.623 38.1746 285.604 38.0576 285.56C37.9406 285.516 37.8336 285.449 37.7432 285.362C37.6528 285.276 37.5807 285.172 37.5314 285.056C37.4499 284.856 37.4454 284.633 37.5189 284.43C37.5924 284.227 37.7386 284.059 37.9289 283.958C39.4871 283.107 41.2081 282.6 42.977 282.471Z" fill="#FA8617"/>
<path d="M111.681 287.493C111.96 288.524 111.839 289.623 111.343 290.568C110.866 291.446 106.017 293.863 99.7065 293.084C95.0214 292.501 90.5775 290.667 86.838 287.772C84.5028 286.035 82.0086 285.596 78.8883 285.246C75.7681 284.897 73.4031 283.799 72.7969 282.251C72.1908 280.703 73.1149 278.257 73.1149 278.257L111.681 287.493Z" fill="#263238"/>
<path d="M87.0679 267.305C87.6374 267.182 88.1984 267.021 88.7473 266.826C89.0457 266.697 89.3792 266.676 89.6913 266.766C89.8725 266.887 90.0226 267.05 90.1296 267.241C90.2366 267.432 90.2975 267.645 90.3074 267.864C90.4071 268.813 90.5899 269.752 90.8539 270.669C91.2821 271.436 91.8521 272.114 92.5333 272.666C94.0363 274.025 95.6785 275.22 97.4323 276.231C99.4197 277.459 101.407 278.437 103.514 279.525C105.62 280.614 108.482 281.382 110.152 282.63C112.547 284.448 112.646 288.701 109.724 290.218C107.2 291.536 100.682 292.744 94.0338 290.458C90.4068 289.22 86.5413 285.047 81.7317 284.408C78.681 283.998 74.6068 283.519 72.7884 281.073C72.1226 279.995 72.7089 276.989 73.2554 273.425C73.7423 270.23 74.1895 265.238 75.2428 265.568C75.2428 265.568 75.6204 266.746 75.69 266.875C75.9433 267.275 76.2256 267.656 76.5346 268.014C76.808 268.302 77.0966 268.575 77.3991 268.832C77.7372 269.227 78.0989 269.6 78.4823 269.951C78.9791 270.379 79.5985 270.638 80.2511 270.689C80.5575 270.708 80.8632 270.642 81.1355 270.5C81.6621 270.2 81.7317 269.501 82.1292 269.082C82.6171 268.596 83.1987 268.215 83.8384 267.964C84.7293 267.638 85.6639 267.45 86.6108 267.405L87.0679 267.305Z" fill="#27DEBF"/>
<path d="M87.0679 267.305C87.6374 267.182 88.1984 267.021 88.7473 266.826C89.0457 266.697 89.3792 266.676 89.6913 266.766C89.8725 266.887 90.0226 267.05 90.1296 267.241C90.2366 267.432 90.2975 267.645 90.3074 267.864C90.4071 268.813 90.5899 269.752 90.8539 270.669C91.2821 271.436 91.8521 272.114 92.5333 272.666C94.0363 274.025 95.6785 275.22 97.4323 276.231C99.4197 277.459 101.407 278.437 103.514 279.525C105.62 280.614 108.482 281.382 110.152 282.63C112.547 284.448 112.646 288.701 109.724 290.218C107.2 291.536 100.682 292.744 94.0338 290.458C90.4068 289.22 86.5413 285.047 81.7317 284.408C78.681 283.998 74.6068 283.519 72.7884 281.073C72.1226 279.995 72.7089 276.989 73.2554 273.425C73.7423 270.23 74.1895 265.238 75.2428 265.568C75.2428 265.568 75.6204 266.746 75.69 266.875C75.9433 267.275 76.2256 267.656 76.5346 268.014C76.808 268.302 77.0966 268.575 77.3991 268.832C77.7372 269.227 78.0989 269.6 78.4823 269.951C78.9791 270.379 79.5985 270.638 80.2511 270.689C80.5575 270.708 80.8632 270.642 81.1355 270.5C81.6621 270.2 81.7317 269.501 82.1292 269.082C82.6171 268.596 83.1987 268.215 83.8384 267.964C84.7293 267.638 85.6639 267.45 86.6108 267.405L87.0679 267.305Z" fill="black"/>
<path d="M94.6602 274.374C94.4687 273.935 94.1711 273.552 93.7945 273.259C93.4178 272.966 92.9741 272.773 92.5038 272.696C91.1225 272.357 88.5985 273.255 86.9987 274.443C86.8461 274.553 86.7227 274.699 86.6396 274.868C86.5564 275.037 86.516 275.224 86.5219 275.413C86.5278 275.601 86.5798 275.786 86.6734 275.949C86.7669 276.113 86.8991 276.25 87.0583 276.35C87.257 276.477 87.4902 276.539 87.7253 276.526C87.9603 276.513 88.1857 276.428 88.37 276.281C90.1398 274.847 92.3963 274.162 94.6602 274.374Z" fill="#FA8617"/>
<path d="M98.8516 277.039C98.571 276.591 98.187 276.217 97.7321 275.949C97.2771 275.681 96.7647 275.528 96.2381 275.502C96.2381 275.502 92.5912 275.412 90.2162 277.399C90.0719 277.507 89.9557 277.65 89.8776 277.813C89.7996 277.976 89.7619 278.156 89.7677 278.338C89.7736 278.519 89.8228 278.696 89.9112 278.854C89.9997 279.012 90.1248 279.146 90.2759 279.246C90.4675 279.368 90.693 279.427 90.9198 279.412C91.1466 279.398 91.363 279.312 91.5379 279.166C92.5224 278.286 93.6899 277.639 94.9553 277.271C96.2206 276.903 97.5518 276.824 98.8516 277.039Z" fill="#FA8617"/>
<path d="M103.512 279.495C103.186 279.077 102.774 278.735 102.304 278.492C101.834 278.249 101.317 278.111 100.789 278.088C98.7086 278.101 96.6866 278.779 95.0155 280.025C94.8712 280.133 94.755 280.276 94.677 280.439C94.5989 280.602 94.5611 280.782 94.567 280.964C94.5728 281.145 94.6221 281.322 94.7106 281.48C94.799 281.638 94.9241 281.772 95.0752 281.872C95.2687 281.989 95.4931 282.044 95.7185 282.029C95.944 282.015 96.1597 281.932 96.3372 281.792C97.2713 280.872 98.4069 280.186 99.6528 279.787C100.899 279.388 102.22 279.288 103.512 279.495Z" fill="#FA8617"/>
<path d="M93.3274 129.474C93.4963 144.061 92.5623 193.263 92.2443 200.601C91.966 207.031 90.8531 270.31 90.8531 270.31C83.5195 272.596 73.4831 270.23 73.4831 270.23C73.4831 270.23 68.3755 230.763 68.0475 223.774C67.8629 217.341 68.1952 210.904 69.0412 204.525L65.285 164.259C65.285 164.259 61.181 194.411 59.2035 207.61C56.9379 222.736 48.4616 280.664 48.4616 280.664C41.7143 283.299 32.2642 279.555 32.2642 279.555C32.2642 279.555 32.7511 234.487 33.4268 219.171C33.9038 208.598 36.8352 203.456 37.1532 200.521C37.1532 200.521 38.6139 145.608 38.7729 131.691C38.8723 122.365 39.8759 112.122 39.8759 112.122C39.8759 112.122 50.0118 112.94 50.9061 109.975C51.8004 107.01 50.9061 78.5052 50.5285 72.964C50.5285 72.964 71.8336 68.2016 90.2767 71.716C90.2668 71.6761 93.1485 114.887 93.3274 129.474Z" fill="#353535"/>
<path d="M50.4599 117.942C50.5692 127.637 48.8699 133.657 46.3062 135.754C43.7424 137.851 38.6944 137.691 38.6944 137.691V136.243C38.6944 136.243 43.4642 136.952 45.6006 134.706C47.7371 132.459 49.6848 129.224 50.4599 117.942Z" fill="#1E1E1E"/>
<path d="M83.2514 81.9995C83.2514 81.9995 72.1914 81.9995 61.7277 82.7184C61.7277 82.7184 61.6581 90.8355 62.5624 93.7908C63.4667 96.746 70.4326 101.169 73.3242 101.159C75.8284 101.159 82.7943 96.167 83.3408 93.5511C83.8873 90.9353 83.2514 81.9995 83.2514 81.9995Z" fill="#1E1E1E"/>
<path d="M65.3047 164.219L66.2984 157.989C69.2795 157.539 76.9609 152.747 81.4922 148.554C78.269 153.453 73.9068 157.49 68.7827 160.315L68.4647 200.052L65.3047 164.219Z" fill="#1E1E1E"/>
<path d="M45.2507 57.908C47.2382 57.3988 48.361 57.8181 49.3647 60.3441C50.3683 62.8701 51.521 71.077 51.9086 78.7548C51.9086 78.7548 56.5094 79.5935 59.6992 78.2356C59.6992 78.2356 59.3117 68.1517 58.2385 62.9499C57.9295 61.4151 57.4287 59.9256 56.7479 58.517C56.307 57.6093 55.583 56.8713 54.686 56.4153C53.7891 55.9593 52.7684 55.8103 51.7794 55.991L44.5055 57.3289L45.2507 57.908Z" fill="#353535"/>
<path d="M53.9571 75.3601C53.9571 75.7195 54.0632 76.0708 54.2619 76.3696C54.4606 76.6684 54.7431 76.9013 55.0736 77.0389C55.404 77.1764 55.7677 77.2124 56.1185 77.1423C56.4693 77.0722 56.7916 76.8991 57.0445 76.645C57.2974 76.3908 57.4697 76.0671 57.5395 75.7146C57.6093 75.3621 57.5734 74.9967 57.4365 74.6647C57.2997 74.3327 57.0679 74.0489 56.7704 73.8492C56.473 73.6495 56.1234 73.543 55.7657 73.543C55.286 73.543 54.826 73.7344 54.4868 74.0752C54.1477 74.416 53.9571 74.8782 53.9571 75.3601Z" fill="#FA8617"/>
<path d="M71.8739 55.222C73.463 55.2827 75.0021 55.7965 76.3113 56.7035C77.6205 57.6105 78.6457 58.8731 79.2671 60.3439C80.7676 64.1778 80.7775 72.6843 80.867 76.9075C83.1679 77.7881 85.7108 77.7881 88.0117 76.9075C88.0117 76.9075 88.0117 63.5189 85.7361 59.0859C83.4605 54.653 79.0783 54.3834 76.7928 54.2137C75.1612 54.1166 73.5254 54.1166 71.8938 54.2137L71.8739 55.222Z" fill="#353535"/>
<path d="M82.4376 73.9423C82.4376 74.3017 82.5437 74.6531 82.7424 74.9519C82.9411 75.2507 83.2236 75.4836 83.554 75.6211C83.8845 75.7587 84.2482 75.7947 84.599 75.7245C84.9498 75.6544 85.272 75.4814 85.525 75.2272C85.7779 74.9731 85.9502 74.6493 86.0199 74.2969C86.0897 73.9444 86.0539 73.579 85.917 73.247C85.7801 72.9149 85.5483 72.6312 85.2509 72.4315C84.9535 72.2318 84.6038 72.1252 84.2461 72.1252C83.7665 72.1252 83.3065 72.3167 82.9673 72.6575C82.6281 72.9982 82.4376 73.4604 82.4376 73.9423Z" fill="#FA8617"/>
</g>
<defs>
<clipPath id="clip0_889_287">
<rect width="395" height="308" fill="white"/>
</clipPath>
</defs>
</svg>
