<svg width="286" height="192" viewBox="0 0 286 192" fill="none" xmlns="http://www.w3.org/2000/svg">
<g clip-path="url(#clip0_889_131)">
<path d="M183.61 21.8741C186.214 21.8741 188.325 19.766 188.325 17.1655C188.325 14.5651 186.214 12.457 183.61 12.457C181.006 12.457 178.895 14.5651 178.895 17.1655C178.895 19.766 181.006 21.8741 183.61 21.8741Z" fill="#FA8617"/>
<path d="M282.691 2.47817C282.91 2.47817 283.121 2.5652 283.276 2.72011C283.431 2.87503 283.518 3.08514 283.518 3.30422V188.696C283.518 188.915 283.431 189.125 283.276 189.28C283.121 189.435 282.91 189.522 282.691 189.522H161.762C161.543 189.522 161.332 189.435 161.177 189.28C161.022 189.125 160.935 188.915 160.935 188.696V3.30422C160.935 3.08514 161.022 2.87503 161.177 2.72011C161.332 2.5652 161.543 2.47817 161.762 2.47817H282.691ZM282.691 0H161.762C160.885 0 160.043 0.34812 159.422 0.967781C158.802 1.58744 158.453 2.42789 158.453 3.30422V188.696C158.453 189.572 158.802 190.413 159.422 191.032C160.043 191.652 160.885 192 161.762 192H282.691C283.568 192 284.41 191.652 285.031 191.032C285.651 190.413 286 189.572 286 188.696V3.30422C286 2.42789 285.651 1.58744 285.031 0.967781C284.41 0.34812 283.568 0 282.691 0Z" fill="#CACACA"/>
<path d="M183.61 53.0906C186.214 53.0906 188.325 50.9825 188.325 48.3821C188.325 45.7817 186.214 43.6736 183.61 43.6736C181.006 43.6736 178.895 45.7817 178.895 48.3821C178.895 50.9825 181.006 53.0906 183.61 53.0906Z" fill="#FA8617"/>
<path d="M183.61 85.6868C186.214 85.6868 188.325 83.5787 188.325 80.9783C188.325 78.3778 186.214 76.2698 183.61 76.2698C181.006 76.2698 178.895 78.3778 178.895 80.9783C178.895 83.5787 181.006 85.6868 183.61 85.6868Z" fill="#FA8617"/>
<path d="M183.61 116.623C186.214 116.623 188.325 114.515 188.325 111.914C188.325 109.314 186.214 107.206 183.61 107.206C181.006 107.206 178.895 109.314 178.895 111.914C178.895 114.515 181.006 116.623 183.61 116.623Z" fill="#FA8617"/>
<path d="M207.032 116.623C209.636 116.623 211.747 114.515 211.747 111.914C211.747 109.314 209.636 107.206 207.032 107.206C204.428 107.206 202.316 109.314 202.316 111.914C202.316 114.515 204.428 116.623 207.032 116.623Z" fill="#0DB670"/>
<path d="M183.61 149.219C186.214 149.219 188.325 147.11 188.325 144.51C188.325 141.91 186.214 139.802 183.61 139.802C181.006 139.802 178.895 141.91 178.895 144.51C178.895 147.11 181.006 149.219 183.61 149.219Z" fill="#FA8617"/>
<path d="M183.61 179.766C186.214 179.766 188.325 177.658 188.325 175.058C188.325 172.457 186.214 170.349 183.61 170.349C181.006 170.349 178.895 172.457 178.895 175.058C178.895 177.658 181.006 179.766 183.61 179.766Z" fill="#FA8617"/>
<path d="M112.226 91.5681H11.4906C9.90789 91.5725 8.39121 92.2022 7.27204 93.3198C6.15286 94.4373 5.52219 95.9518 5.51782 97.5322V167.433C5.51673 168.217 5.67048 168.993 5.97026 169.717C6.27003 170.441 6.70995 171.099 7.26479 171.653C7.81964 172.207 8.4785 172.646 9.20364 172.945C9.92879 173.245 10.706 173.398 11.4906 173.397H112.201C112.986 173.398 113.763 173.245 114.488 172.945C115.213 172.646 115.872 172.207 116.427 171.653C116.982 171.099 117.422 170.441 117.722 169.717C118.021 168.993 118.175 168.217 118.174 167.433V97.5322C118.176 96.7505 118.024 95.976 117.726 95.253C117.428 94.5301 116.991 93.8728 116.438 93.3189C115.886 92.7649 115.229 92.3252 114.507 92.0248C113.784 91.7244 113.009 91.5692 112.226 91.5681ZM114.029 165.996C114.019 166.865 113.665 167.695 113.046 168.305C112.426 168.916 111.591 169.259 110.72 169.259H12.8556C11.9851 169.259 11.1497 168.916 10.5303 168.305C9.91088 167.695 9.55745 166.865 9.54657 165.996V98.9448C9.54657 98.0684 9.8952 97.228 10.5158 96.6083C11.1363 95.9887 11.978 95.6406 12.8556 95.6406H110.77C111.648 95.6406 112.489 95.9887 113.11 96.6083C113.73 97.228 114.079 98.0684 114.079 98.9448L114.029 165.996ZM0 170.275V177.28C0 179.171 1.08372 180.27 3.30904 180.584C5.90911 180.955 8.5333 181.132 11.1597 181.112H112.358C114.982 181.143 117.605 180.966 120.201 180.584C122.41 180.253 123.51 179.113 123.51 177.28V170.275H0ZM14.4191 177.255C14.2371 177.4 14.0116 177.48 13.7787 177.482C13.5459 177.484 13.319 177.408 13.1343 177.266C12.9497 177.125 12.8178 176.926 12.7598 176.7C12.7018 176.475 12.7209 176.237 12.8142 176.024C12.8521 175.892 12.9193 175.769 13.011 175.666C13.1026 175.563 13.2164 175.482 13.3437 175.429C13.5554 175.304 13.8042 175.258 14.0469 175.297C14.1639 175.307 14.2776 175.341 14.3803 175.398C14.483 175.455 14.5724 175.533 14.6425 175.627C14.7997 175.802 14.8853 176.029 14.8824 176.264C14.9249 176.457 14.9025 176.658 14.8188 176.837C14.7351 177.017 14.5946 177.163 14.4191 177.255ZM17.8605 177.255C17.7121 177.379 17.5307 177.458 17.3383 177.481C17.1459 177.505 16.9509 177.472 16.7768 177.387C16.5353 177.278 16.3456 177.079 16.2474 176.834C16.1919 176.703 16.1632 176.562 16.1632 176.421C16.1632 176.279 16.1919 176.138 16.2474 176.007C16.2835 175.874 16.3501 175.751 16.442 175.648C16.5339 175.545 16.6485 175.464 16.7768 175.413C16.9918 175.289 17.243 175.242 17.4883 175.281C17.6053 175.29 17.719 175.325 17.8217 175.382C17.9244 175.439 18.0138 175.517 18.0839 175.611C18.1696 175.692 18.2357 175.791 18.2772 175.901C18.3188 176.012 18.3347 176.13 18.3238 176.247C18.3703 176.443 18.3499 176.648 18.266 176.831C18.182 177.013 18.0393 177.163 17.8605 177.255ZM67.2893 177.255H56.0882C55.715 177.236 55.3603 177.087 55.0864 176.833C54.8126 176.579 54.6371 176.237 54.5908 175.867C54.5951 175.524 54.7333 175.197 54.976 174.955C55.2186 174.712 55.5465 174.574 55.8896 174.57H67.554C67.7261 174.564 67.8976 174.594 68.0577 174.657C68.2179 174.72 68.3634 174.816 68.4852 174.937C68.607 175.059 68.7024 175.204 68.7657 175.364C68.8289 175.524 68.8585 175.695 68.8528 175.867C68.7921 176.243 68.6034 176.586 68.3185 176.839C68.0337 177.092 67.6701 177.239 67.2893 177.255Z" fill="#CACACA"/>
<path d="M160.34 32.8604H284.652" stroke="#CACACA" stroke-width="3" stroke-miterlimit="10"/>
<path d="M158.831 47.2834H116.641" stroke="#CACACA" stroke-miterlimit="10" stroke-dasharray="4.98 4.98"/>
<path d="M61.8477 90.4531V56.6344C61.8477 54.1544 62.8343 51.7759 64.5905 50.0223C66.3467 48.2686 68.7286 47.2834 71.2122 47.2834H98.8923" stroke="#CACACA" stroke-miterlimit="10" stroke-dasharray="4.92 4.92"/>
<path d="M100.926 47.2834H102.994" stroke="#231F20" stroke-miterlimit="10"/>
<path d="M160.34 64.0771H284.652" stroke="#CACACA" stroke-width="3" stroke-miterlimit="10"/>
<path d="M160.34 96.6733H284.652" stroke="#CACACA" stroke-width="3" stroke-miterlimit="10"/>
<path d="M160.34 127.617H284.652" stroke="#CACACA" stroke-width="3" stroke-miterlimit="10"/>
<path d="M160.34 160.213H284.652" stroke="#CACACA" stroke-width="3" stroke-miterlimit="10"/>
<path d="M65.189 122.248L75.0417 132.086L71.6665 135.457L61.8138 125.618L51.9612 135.457L48.5859 132.086L58.4386 122.248L48.5859 112.41L51.9612 109.039L61.8138 118.878L71.6665 109.039L75.0417 112.41L65.189 122.248Z" fill="#E12B26"/>
<path d="M120.713 53.231L111.464 37.4698C111.215 37.0447 110.86 36.6921 110.432 36.447C110.005 36.2019 109.521 36.073 109.028 36.073C108.535 36.073 108.05 36.2019 107.623 36.447C107.196 36.6921 106.84 37.0447 106.591 37.4698L97.3509 53.231C97.0939 53.6635 96.9555 54.1559 96.9494 54.6588C96.9434 55.1617 97.0699 55.6573 97.3164 56.0959C97.5628 56.5345 97.9204 56.9006 98.3534 57.1575C98.7864 57.4144 99.2794 57.553 99.783 57.5595H118.272C118.777 57.5545 119.271 57.4169 119.705 57.1606C120.139 56.9043 120.498 56.5382 120.745 56.0994C120.993 55.6606 121.12 55.1644 121.114 54.6609C121.108 54.1573 120.97 53.6641 120.713 53.231ZM109.131 53.7348C108.879 53.7332 108.634 53.6572 108.426 53.5165C108.217 53.3757 108.055 53.1764 107.96 52.9439C107.865 52.7113 107.841 52.4558 107.891 52.2095C107.941 51.9633 108.063 51.7374 108.241 51.5603C108.42 51.3832 108.647 51.2629 108.894 51.2145C109.141 51.1661 109.396 51.1917 109.629 51.2882C109.861 51.3848 110.06 51.5478 110.199 51.7568C110.339 51.9658 110.413 52.2115 110.413 52.4627C110.412 52.6323 110.377 52.7999 110.311 52.956C110.245 53.112 110.148 53.2533 110.026 53.3716C109.904 53.49 109.761 53.583 109.603 53.6454C109.445 53.7077 109.276 53.7381 109.106 53.7348H109.131ZM110.099 47.9525C109.884 49.2576 109.768 50.0176 109.768 50.1993C109.768 50.3811 109.768 50.5628 109.685 50.6371C109.643 50.6788 109.593 50.7107 109.537 50.7307C109.481 50.7507 109.422 50.7582 109.363 50.7528H108.916C108.858 50.7593 108.799 50.7531 108.743 50.7345C108.687 50.716 108.636 50.6856 108.593 50.6454C108.535 50.5711 108.519 50.4719 108.519 50.2406C108.519 50.0094 108.453 49.522 108.047 47.019C107.675 44.7143 107.675 44.5409 107.675 44.5409C107.673 44.3632 107.709 44.187 107.778 44.0236C107.848 43.8601 107.951 43.7128 108.08 43.5909C108.384 43.321 108.783 43.1815 109.189 43.2026C109.386 43.1908 109.582 43.2225 109.766 43.2953C109.949 43.3681 110.113 43.4803 110.248 43.6239C110.484 43.8908 110.613 44.2346 110.612 44.5904C110.612 44.6896 110.612 44.9539 110.099 47.9855V47.9525Z" fill="#E12B26"/>
<path d="M231.234 11.259V23.2534" stroke="#0DB670" stroke-width="2" stroke-miterlimit="10"/>
<path d="M241.512 11.259V23.2534" stroke="#FA8617" stroke-width="2" stroke-miterlimit="10"/>
<path d="M250.992 11.259V23.2534" stroke="#CACACA" stroke-width="2" stroke-miterlimit="10"/>
<path d="M260.688 11.259V23.2534" stroke="#0DB670" stroke-width="2" stroke-miterlimit="10"/>
<path d="M270.457 11.259V23.2534" stroke="#FA8617" stroke-width="2" stroke-miterlimit="10"/>
<path d="M231.234 42.4758V54.4702" stroke="#0DB670" stroke-width="2" stroke-miterlimit="10"/>
<path d="M241.512 42.4758V54.4702" stroke="#FA8617" stroke-width="2" stroke-miterlimit="10"/>
<path d="M250.992 42.4758V54.4702" stroke="#CACACA" stroke-width="2" stroke-miterlimit="10"/>
<path d="M260.688 42.4758V54.4702" stroke="#CACACA" stroke-width="2" stroke-miterlimit="10"/>
<path d="M231.234 169.151V181.146" stroke="#0DB670" stroke-width="2" stroke-miterlimit="10"/>
<path d="M241.512 169.151V181.146" stroke="#CACACA" stroke-width="2" stroke-miterlimit="10"/>
<path d="M250.992 169.151V181.146" stroke="#FA8617" stroke-width="2" stroke-miterlimit="10"/>
<path d="M260.688 169.151V181.146" stroke="#CACACA" stroke-width="2" stroke-miterlimit="10"/>
<path d="M231.234 138.604V150.598" stroke="#FA8617" stroke-width="2" stroke-miterlimit="10"/>
<path d="M241.512 138.604V150.598" stroke="#0DB670" stroke-width="2" stroke-miterlimit="10"/>
<path d="M250.992 138.604V150.598" stroke="#CACACA" stroke-width="2" stroke-miterlimit="10"/>
<path d="M260.688 138.604V150.598" stroke="#CACACA" stroke-width="2" stroke-miterlimit="10"/>
<path d="M231.234 106.008V118.002" stroke="#0DB670" stroke-width="2" stroke-miterlimit="10"/>
<path d="M241.512 106.008V118.002" stroke="#FA8617" stroke-width="2" stroke-miterlimit="10"/>
<path d="M250.992 106.008V118.002" stroke="#0DB670" stroke-width="2" stroke-miterlimit="10"/>
<path d="M260.688 106.008V118.002" stroke="#CACACA" stroke-width="2" stroke-miterlimit="10"/>
<path d="M270.836 106.008V118.002" stroke="#0DB670" stroke-width="2" stroke-miterlimit="10"/>
<path d="M231.234 75.0637V87.0663" stroke="#FA8617" stroke-width="2" stroke-miterlimit="10"/>
<path d="M241.512 75.0637V87.0663" stroke="#CACACA" stroke-width="2" stroke-miterlimit="10"/>
<path d="M250.992 75.0637V87.0663" stroke="#CACACA" stroke-width="2" stroke-miterlimit="10"/>
<path d="M260.688 75.0637V87.0663" stroke="#CACACA" stroke-width="2" stroke-miterlimit="10"/>
<path d="M51.7974 152.144L50.1128 151.741L50.7207 146.336H56.7119V148.042H52.4565L52.1929 150.408C52.3345 150.325 52.5493 150.237 52.8374 150.145C53.1255 150.047 53.4478 149.998 53.8042 149.998C54.3218 149.998 54.7808 150.079 55.1812 150.24C55.5815 150.401 55.9209 150.635 56.1992 150.943C56.4824 151.25 56.6973 151.626 56.8438 152.071C56.9902 152.515 57.0635 153.018 57.0635 153.58C57.0635 154.053 56.9902 154.505 56.8438 154.935C56.6973 155.359 56.4751 155.74 56.1772 156.077C55.8794 156.409 55.5059 156.67 55.0566 156.861C54.6074 157.051 54.0752 157.146 53.46 157.146C53.001 157.146 52.5566 157.078 52.127 156.941C51.7021 156.805 51.3188 156.602 50.9771 156.333C50.6401 156.065 50.3691 155.74 50.1641 155.359C49.9639 154.974 49.8589 154.534 49.8491 154.041H51.9438C51.9731 154.344 52.0513 154.605 52.1782 154.825C52.3101 155.04 52.4834 155.206 52.6982 155.323C52.9131 155.44 53.1646 155.499 53.4526 155.499C53.7212 155.499 53.9507 155.447 54.1411 155.345C54.3315 155.242 54.4854 155.101 54.6025 154.92C54.7197 154.734 54.8052 154.52 54.8589 154.275C54.9175 154.026 54.9468 153.758 54.9468 153.47C54.9468 153.182 54.9126 152.92 54.8442 152.686C54.7759 152.452 54.6709 152.249 54.5293 152.078C54.3877 151.907 54.207 151.775 53.9873 151.683C53.7725 151.59 53.521 151.543 53.2329 151.543C52.8423 151.543 52.5396 151.604 52.3247 151.727C52.1147 151.849 51.939 151.988 51.7974 152.144ZM65.6035 150.73V152.576C65.6035 153.377 65.5181 154.068 65.3472 154.649C65.1763 155.225 64.9297 155.699 64.6074 156.07C64.29 156.436 63.9116 156.707 63.4722 156.883C63.0327 157.059 62.5444 157.146 62.0073 157.146C61.5776 157.146 61.1772 157.093 60.8062 156.985C60.4351 156.873 60.1006 156.7 59.8027 156.465C59.5098 156.231 59.2559 155.936 59.041 155.579C58.8311 155.218 58.6699 154.788 58.5576 154.29C58.4453 153.792 58.3892 153.221 58.3892 152.576V150.73C58.3892 149.93 58.4746 149.244 58.6455 148.672C58.8213 148.096 59.0679 147.625 59.3853 147.259C59.7075 146.893 60.0884 146.624 60.5278 146.453C60.9673 146.277 61.4556 146.189 61.9927 146.189C62.4224 146.189 62.8203 146.246 63.1865 146.358C63.5576 146.465 63.8921 146.634 64.1899 146.863C64.4878 147.093 64.7417 147.388 64.9517 147.75C65.1616 148.106 65.3228 148.533 65.4351 149.031C65.5474 149.524 65.6035 150.091 65.6035 150.73ZM63.4868 152.854V150.445C63.4868 150.059 63.4648 149.722 63.4209 149.434C63.3818 149.146 63.3208 148.902 63.2378 148.702C63.1548 148.497 63.0522 148.331 62.9302 148.204C62.8081 148.077 62.6689 147.984 62.5127 147.925C62.3564 147.867 62.1831 147.837 61.9927 147.837C61.7534 147.837 61.541 147.884 61.3555 147.977C61.1748 148.069 61.021 148.218 60.894 148.423C60.7671 148.624 60.6694 148.892 60.6011 149.229C60.5376 149.561 60.5059 149.966 60.5059 150.445V152.854C60.5059 153.24 60.5254 153.58 60.5645 153.873C60.6084 154.166 60.6719 154.417 60.7549 154.627C60.8428 154.832 60.9453 155 61.0625 155.132C61.1846 155.259 61.3237 155.352 61.48 155.411C61.6411 155.469 61.8169 155.499 62.0073 155.499C62.2417 155.499 62.4492 155.452 62.6299 155.359C62.8154 155.262 62.9717 155.11 63.0986 154.905C63.2305 154.695 63.3281 154.422 63.3916 154.085C63.4551 153.748 63.4868 153.338 63.4868 152.854ZM74.2168 150.73V152.576C74.2168 153.377 74.1313 154.068 73.9604 154.649C73.7896 155.225 73.543 155.699 73.2207 156.07C72.9033 156.436 72.5249 156.707 72.0854 156.883C71.646 157.059 71.1577 157.146 70.6206 157.146C70.1909 157.146 69.7905 157.093 69.4194 156.985C69.0483 156.873 68.7139 156.7 68.416 156.465C68.123 156.231 67.8691 155.936 67.6543 155.579C67.4443 155.218 67.2832 154.788 67.1709 154.29C67.0586 153.792 67.0024 153.221 67.0024 152.576V150.73C67.0024 149.93 67.0879 149.244 67.2588 148.672C67.4346 148.096 67.6812 147.625 67.9985 147.259C68.3208 146.893 68.7017 146.624 69.1411 146.453C69.5806 146.277 70.0688 146.189 70.606 146.189C71.0356 146.189 71.4336 146.246 71.7998 146.358C72.1709 146.465 72.5054 146.634 72.8032 146.863C73.1011 147.093 73.355 147.388 73.5649 147.75C73.7749 148.106 73.936 148.533 74.0483 149.031C74.1606 149.524 74.2168 150.091 74.2168 150.73ZM72.1001 152.854V150.445C72.1001 150.059 72.0781 149.722 72.0342 149.434C71.9951 149.146 71.9341 148.902 71.8511 148.702C71.7681 148.497 71.6655 148.331 71.5435 148.204C71.4214 148.077 71.2822 147.984 71.126 147.925C70.9697 147.867 70.7964 147.837 70.606 147.837C70.3667 147.837 70.1543 147.884 69.9688 147.977C69.7881 148.069 69.6343 148.218 69.5073 148.423C69.3804 148.624 69.2827 148.892 69.2144 149.229C69.1509 149.561 69.1191 149.966 69.1191 150.445V152.854C69.1191 153.24 69.1387 153.58 69.1777 153.873C69.2217 154.166 69.2852 154.417 69.3682 154.627C69.4561 154.832 69.5586 155 69.6758 155.132C69.7979 155.259 69.937 155.352 70.0933 155.411C70.2544 155.469 70.4302 155.499 70.6206 155.499C70.855 155.499 71.0625 155.452 71.2432 155.359C71.4287 155.262 71.585 155.11 71.7119 154.905C71.8438 154.695 71.9414 154.422 72.0049 154.085C72.0684 153.748 72.1001 153.338 72.1001 152.854Z" fill="black"/>
</g>
<defs>
<clipPath id="clip0_889_131">
<rect width="286" height="192" fill="white"/>
</clipPath>
</defs>
</svg>
