<svg width="150" height="137" viewBox="0 0 150 137" fill="none" xmlns="http://www.w3.org/2000/svg">
<g clip-path="url(#clip0_739_895)">
<path style="mix-blend-mode:multiply" d="M122 39.6068C122 39.6068 117.755 35.4825 97.479 13.488C77.203 -8.50656 54.5666 13.488 49.1435 19.4442C43.7203 25.4005 33.5795 36.6273 18.2568 53.1231C2.93405 69.619 -2.24919 84.6536 2.46713 96.338C7.18346 108.022 24.2439 113.52 40.8917 109.254C59.1216 104.584 76.0278 103.914 90.1697 121.168C108.018 142.947 139.953 136.658 148.205 106.186C156.457 75.715 134.26 53.1231 122 39.6068Z" fill="url(#paint0_radial_739_895)"/>
<path style="mix-blend-mode:multiply" d="M129.901 60.1827C124.285 41.4799 107.189 32.7209 92.0865 38.077C82.4739 41.4856 70.2283 42.7886 51.7085 30.8562C31.8294 18.0455 -0.113926 19.4654 0.000305532 55.9229C0.143095 102.353 21.2659 119.363 33.8028 127.284C60.6143 144.226 98.1793 135.515 113.622 118.421C128.786 101.637 135.689 79.4528 129.901 60.1827Z" fill="url(#paint1_radial_739_895)"/>
<path style="mix-blend-mode:multiply" d="M136.175 8.27143C130.154 -0.407764 114.45 -4.49218 99.3197 7.32767C82.3006 20.6259 58.2864 27.2108 36.8137 30.6637C14.7085 34.2192 4.22782 50.5212 3.93367 60.6275C3.6124 71.7074 13.0522 85.5288 40.9903 102.42C68.9284 119.31 88.3963 123.986 105.07 121.824C121.743 119.661 132.661 109.814 138.098 93.4139C141.901 81.9462 139.772 68.1989 138.882 49.8141C137.771 26.8544 144.885 20.824 136.175 8.27143Z" fill="url(#paint2_radial_739_895)"/>
<path d="M66.6787 83.3763C67.2498 80.8102 67.8067 78.2441 68.3493 75.6779C68.5778 74.5945 68.8157 73.4468 69.0632 72.235C69.3107 71.0233 69.5535 69.8115 69.7915 68.5997C70.0342 67.3879 70.2722 66.1833 70.5054 64.9858C70.7386 63.7882 70.9385 62.662 71.1051 61.607C70.4197 61.666 69.7486 61.7515 69.0918 61.8636C68.5492 61.9492 67.9852 62.0442 67.3997 62.1488C66.8143 62.25 66.3217 62.327 65.9219 62.384C65.979 61.9848 66.0647 61.3789 66.1789 60.5663C66.2931 59.7537 66.4216 58.9197 66.5644 58.0643C66.6787 57.0968 66.8214 56.0419 66.9928 54.8995C67.6496 54.7569 68.5635 54.5716 69.7343 54.3435C70.7339 54.1724 72.0618 53.9586 73.7182 53.7019C75.3745 53.4453 77.4307 53.1174 79.8867 52.7183C79.2869 55.2274 78.7372 57.6652 78.2374 60.0317C77.7377 62.3983 77.2665 64.7648 76.8238 67.1313C76.3812 69.4998 75.9528 71.8877 75.5387 74.2951C75.1246 76.7025 74.7177 79.1735 74.3179 81.7083C73.661 81.9079 72.9043 82.1075 72.0475 82.3071C71.1908 82.5067 70.3483 82.6777 69.5202 82.8203C68.5968 83.0199 67.6496 83.2052 66.6787 83.3763Z" fill="white"/>
</g>
<defs>
<radialGradient id="paint0_radial_739_895" cx="0" cy="0" r="1" gradientUnits="userSpaceOnUse" gradientTransform="translate(75.9122 68.9989) scale(70.2423 70.1307)">
<stop stop-color="#F78620"/>
<stop offset="1" stop-color="#FFB56A"/>
</radialGradient>
<radialGradient id="paint1_radial_739_895" cx="0" cy="0" r="1" gradientUnits="userSpaceOnUse" gradientTransform="translate(66.2131 80.5972) scale(61.3679 61.8831)">
<stop stop-color="#FFB56A"/>
<stop offset="1" stop-color="#F78620"/>
</radialGradient>
<radialGradient id="paint2_radial_739_895" cx="0" cy="0" r="1" gradientUnits="userSpaceOnUse" gradientTransform="translate(72.6136 61.5014) scale(65.3678 64.6178)">
<stop stop-color="#8932A2"/>
<stop offset="1" stop-color="#FFB56A"/>
</radialGradient>
<clipPath id="clip0_739_895">
<rect width="150" height="136.432" fill="white"/>
</clipPath>
</defs>
</svg>
