<svg width="150" height="137" viewBox="0 0 150 137" fill="none" xmlns="http://www.w3.org/2000/svg">
<g clip-path="url(#clip0_739_902)">
<path style="mix-blend-mode:multiply" d="M140.988 4.84525C130.362 -3.6216 112.262 0.906978 83.8809 4.20075C55.7186 7.46744 43.5915 7.70271 26.8509 3.7402C10.9571 -0.0212645 0.406379 7.13236 0.0251318 20.624C-0.356115 34.1157 3.65483 51.4629 8.34403 63.4003C28.0175 113.503 57.9761 131.614 80.2655 135.758C102.555 139.901 106.769 124.452 111.508 100.601C115.319 81.4177 125.16 61.9431 139.637 45.1348C154.811 27.5267 151.614 13.3121 140.988 4.84525Z" fill="url(#paint0_linear_739_902)"/>
<path style="mix-blend-mode:multiply" d="M133.568 46.2013C127.155 35.5599 111.558 32.9221 88.0391 25.6686C64.7031 18.4779 54.9435 14.4213 42.528 5.32138C30.7407 -3.31943 20.5384 -1.16636 16.9016 9.72734C13.2647 20.621 12.1895 36.2044 13.002 47.6058C16.3747 95.4539 35.8797 120.748 52.6888 131.945C69.498 143.142 76.6774 131.986 86.3557 114.151C94.1391 99.8057 106.816 87.3335 122.548 78.6656C139.031 69.5799 139.979 56.8426 133.568 46.2013Z" fill="url(#paint1_linear_739_902)"/>
<path style="mix-blend-mode:multiply" d="M126.343 21.5292C118.429 14.4512 104.353 17.1931 82.4152 18.5192C60.6398 19.8353 51.3 19.486 38.5404 15.6589C26.4261 12.0286 18.0887 17.1475 17.3747 27.6648C16.6608 38.182 19.2082 51.9047 22.4452 61.4324C36.0259 101.415 58.5166 116.872 75.5428 121.085C92.5689 125.299 96.29 113.421 100.674 95.0061C104.203 80.1941 112.382 65.4191 124.051 52.9299C136.275 39.8446 134.258 28.6059 126.343 21.5292Z" fill="url(#paint2_linear_739_902)"/>
<path d="M79.1775 76.621C78.4436 78.0196 77.4643 79.2753 76.286 80.3283C75.0408 81.446 73.6233 82.356 72.088 83.0232C70.545 83.7129 68.8737 84.07 67.1832 84.0712C66.2583 84.077 65.3367 83.962 64.4417 83.729C63.6329 83.5233 62.8701 83.1678 62.1927 82.681C61.5501 82.2112 61.0288 81.5953 60.672 80.8844C60.283 80.0782 60.0921 79.191 60.1151 78.2964C60.13 77.5537 60.2601 76.8177 60.5007 76.1148L67.9971 75.687C67.9971 76.2574 68.1399 76.6709 68.4255 76.9275C68.7201 77.1878 69.1033 77.3255 69.4964 77.3125C69.9116 77.3011 70.32 77.204 70.6958 77.0274C71.1356 76.8357 71.5465 76.5837 71.9167 76.2788C72.2904 75.9794 72.6093 75.6176 72.8591 75.2094C73.1014 74.8097 73.2275 74.3505 73.2232 73.8833C73.2232 73.1989 72.8948 72.5715 72.2379 72.0011C71.5811 71.4308 70.4959 71.1456 68.9823 71.1456C67.8787 71.1456 66.7764 71.2242 65.6839 71.3809C64.5968 71.5377 63.683 71.6447 62.9424 71.7017L63.7134 65.3708C64.5702 64.8299 65.4555 64.2525 66.3693 63.6384C67.2832 63.0243 68.1113 62.4326 68.8538 61.8632C69.7382 61.2367 70.5806 60.5951 71.3812 59.9382L64.4845 60.0666L64.9985 52.709C67.5963 52.5969 70.0095 52.4828 72.2379 52.3668C73.1803 52.3668 74.1442 52.3454 75.1294 52.3027C76.1147 52.2599 77.0357 52.2171 77.8924 52.1743C78.7491 52.1315 79.5259 52.1045 80.227 52.0888C80.9281 52.0731 81.475 52.0674 81.8762 52.0674L80.8481 61.1787L72.2808 65.6702C73.5404 65.8778 74.7702 66.2368 75.9433 66.7397C76.8562 67.1306 77.6962 67.6729 78.4279 68.3438C79.0336 68.9041 79.5089 69.5905 79.82 70.3543C80.1026 71.0694 80.2479 71.8312 80.2484 72.6C80.2484 73.9118 79.8914 75.2521 79.1775 76.621Z" fill="white"/>
</g>
<defs>
<linearGradient id="paint0_linear_739_902" x1="46.77" y1="126.997" x2="83.9869" y2="-12.0905" gradientUnits="userSpaceOnUse">
<stop stop-color="#FFB56A"/>
<stop offset="1" stop-color="#F78620"/>
</linearGradient>
<linearGradient id="paint1_linear_739_902" x1="17.0744" y1="98.1445" x2="101.617" y2="13.4835" gradientUnits="userSpaceOnUse">
<stop stop-color="#FFB56A"/>
<stop offset="1" stop-color="#F78620"/>
</linearGradient>
<linearGradient id="paint2_linear_739_902" x1="26.2405" y1="76.2943" x2="136.509" y2="46.7065" gradientUnits="userSpaceOnUse">
<stop stop-color="#8932A2"/>
<stop offset="1" stop-color="#FFB56A"/>
</linearGradient>
<clipPath id="clip0_739_902">
<rect width="150" height="136.432" fill="white"/>
</clipPath>
</defs>
</svg>
