<svg width="150" height="137" viewBox="0 0 150 137" fill="none" xmlns="http://www.w3.org/2000/svg">
<g clip-path="url(#clip0_832_1326)">
<path style="mix-blend-mode:multiply" d="M122 39.6068C122 39.6068 117.755 35.4825 97.479 13.488C77.203 -8.50656 54.5666 13.488 49.1435 19.4442C43.7203 25.4005 33.5795 36.6273 18.2568 53.1231C2.93405 69.619 -2.24919 84.6536 2.46713 96.338C7.18346 108.022 24.2439 113.52 40.8917 109.254C59.1216 104.584 76.0278 103.914 90.1697 121.168C108.018 142.947 139.953 136.658 148.205 106.186C156.457 75.715 134.26 53.1231 122 39.6068Z" fill="url(#paint0_radial_832_1326)"/>
<path style="mix-blend-mode:multiply" d="M129.901 60.1827C124.285 41.4799 107.189 32.7209 92.0865 38.077C82.4739 41.4856 70.2283 42.7886 51.7085 30.8562C31.8294 18.0455 -0.113926 19.4654 0.000305532 55.9229C0.143095 102.353 21.2659 119.363 33.8028 127.284C60.6143 144.226 98.1793 135.515 113.622 118.421C128.786 101.637 135.689 79.4528 129.901 60.1827Z" fill="url(#paint1_radial_832_1326)"/>
<path style="mix-blend-mode:multiply" d="M136.175 8.27143C130.154 -0.407764 114.45 -4.49218 99.3197 7.32767C82.3006 20.6259 58.2864 27.2108 36.8137 30.6637C14.7085 34.2192 4.22782 50.5212 3.93367 60.6275C3.6124 71.7074 13.0522 85.5288 40.9903 102.42C68.9284 119.31 88.3963 123.986 105.07 121.824C121.743 119.661 132.661 109.814 138.098 93.4139C141.901 81.9462 139.772 68.1989 138.882 49.8141C137.771 26.8544 144.885 20.824 136.175 8.27143Z" fill="url(#paint2_radial_832_1326)"/>
<path d="M87.4304 54.2671C87.7076 53.8219 85.6438 51.8758 82.7893 49.8987C79.9451 47.9112 77.3884 46.6587 77.0701 47.0831L53.0125 82.5682L51.9857 84.0899C52.4991 86.8538 57.9 91.2325 62.3049 90.9944L63.4446 89.3692L87.4304 54.2671ZM81.3107 50.0333C81.3621 49.9504 81.8241 50.1782 82.3478 50.5405C82.8612 50.9028 83.2411 51.2547 83.1897 51.3376C83.1384 51.4204 82.6661 51.1926 82.1527 50.8303C81.629 50.4577 81.2594 50.1057 81.3107 50.0333ZM97 96.6878H64.4098L69.4719 89.2346H97V96.6878ZM51.2054 85.5184L51 96.6567L61.5246 92.4229C60.0049 92.071 57.3866 91.6155 55.1996 90.1145C53.1871 88.7378 52.0268 86.7088 51.2054 85.5184Z" fill="white"/>
</g>
<defs>
<radialGradient id="paint0_radial_832_1326" cx="0" cy="0" r="1" gradientUnits="userSpaceOnUse" gradientTransform="translate(75.9122 68.9989) scale(70.2423 70.1307)">
<stop stop-color="#F78620"/>
<stop offset="1" stop-color="#FFB56A"/>
</radialGradient>
<radialGradient id="paint1_radial_832_1326" cx="0" cy="0" r="1" gradientUnits="userSpaceOnUse" gradientTransform="translate(66.2131 80.5972) scale(61.3679 61.8831)">
<stop stop-color="#FFB56A"/>
<stop offset="1" stop-color="#F78620"/>
</radialGradient>
<radialGradient id="paint2_radial_832_1326" cx="0" cy="0" r="1" gradientUnits="userSpaceOnUse" gradientTransform="translate(72.6136 61.5014) scale(65.3678 64.6178)">
<stop stop-color="#8932A2"/>
<stop offset="1" stop-color="#FFB56A"/>
</radialGradient>
<clipPath id="clip0_832_1326">
<rect width="150" height="136.432" fill="white"/>
</clipPath>
</defs>
</svg>
