<?xml version="1.0" encoding="utf-8"?>
<!-- Generator: Adobe Illustrator 26.0.0, SVG Export Plug-In . SVG Version: 6.00 Build 0)  -->
<svg version="1.1" id="Layer_1" xmlns="http://www.w3.org/2000/svg" xmlns:xlink="http://www.w3.org/1999/xlink" x="0px" y="0px"
	 viewBox="0 0 35 33" style="enable-background:new 0 0 35 33;" xml:space="preserve">
<style type="text/css">
	.st0{fill:#CACACA;}
	.st1{fill:#FA8617;}
</style>
<g>
	<path class="st0" d="M19.1,14.5h-0.7v-1.3H17v1.3h-0.7v-3.2H17v1.3h1.3v-1.3h0.7V14.5z"/>
	<path class="st0" d="M22.1,11.8h-0.9v2.7h-0.7v-2.7h-0.9v-0.6h2.6V11.8z"/>
	<path class="st0" d="M26.2,14.5h-0.7v-1.9c0-0.2,0-0.4,0-0.7h0c0,0.2-0.1,0.3-0.1,0.4l-0.8,2.2H24l-0.8-2.2c0-0.1-0.1-0.2-0.1-0.5
		h0c0,0.3,0,0.6,0,0.8v1.8h-0.7v-3.2h1.1l0.7,1.9c0.1,0.2,0.1,0.3,0.1,0.5h0c0-0.2,0.1-0.3,0.1-0.5l0.7-1.9h1V14.5z"/>
	<path class="st0" d="M28.9,14.5H27v-3.2h0.7v2.7h1.2V14.5z"/>
	<path class="st0" d="M18.5,33C9.4,33,2,25.6,2,16.5c0-0.9,0.1-1.8,0.2-2.7l1,0.2C3.1,14.8,3,15.6,3,16.5C3,25,10,32,18.5,32
		S34,25,34,16.5c0-7.3-5.2-13.7-12.4-15.2l0.2-1C29.4,1.9,35,8.7,35,16.5C35,25.6,27.6,33,18.5,33z"/>
</g>
<g>
	<path id="cla1_00000129889354294205908240000015338523547764660119_" class="st1" d="M28.9,21.1H10c-0.3,0-0.5,0.2-0.5,0.5
		s0.2,0.5,0.5,0.5h18.9c0.3,0,0.5-0.2,0.5-0.5C29.4,21.3,29.2,21.1,28.9,21.1z M28.9,16.8H17.1c-0.3,0-0.5,0.2-0.5,0.5
		s0.2,0.5,0.5,0.5h11.7c0.3,0,0.5-0.2,0.5-0.5C29.4,17,29.2,16.8,28.9,16.8z M13.2,16.8H10c-0.3,0-0.5,0.2-0.5,0.5s0.2,0.5,0.5,0.5
		h3.2c0.3,0,0.5-0.2,0.5-0.5S13.4,16.8,13.2,16.8z"/>
	<path class="st1" d="M5.6,5.9v1C5.6,7,5.8,7.1,5.8,7l1.8-1.7c0.1-0.1,0.1-0.1,0-0.2C7.3,4.8,6.3,3.8,5.8,3.4
		c-0.1-0.1-0.2,0-0.2,0.1v1H3.3v1.4H5.6L5.6,5.9L5.6,5.9z"/>
	<path class="st1" d="M12.1,5.9v1c0,0.1-0.2,0.2-0.2,0.1l-1.8-1.7c-0.1-0.1-0.1-0.1,0-0.2c0.3-0.4,1.4-1.4,1.8-1.8
		c0.1-0.1,0.2,0,0.2,0.1v1h2.3v1.4H12.1L12.1,5.9L12.1,5.9z"/>
	<path class="st1" d="M0.9,8.7C0.9,7.8,1,7.3,1,6.5C1,6,0.8,5.6,0,5.6V4.7c0.8,0,1-0.5,1-0.9C1,3,0.9,2.5,0.9,1.7
		C0.9,0.4,1.4,0,2.4,0H3v0.8H2.8C2.2,0.8,2,1,2,1.7S2.1,3,2.1,3.8S1.9,5,1.3,5.2l0,0c0.6,0.1,0.8,0.5,0.8,1.4c0,0.7-0.1,1.3-0.1,2
		s0.2,1,0.7,1H3v0.8H2.4C1.4,10.3,0.9,9.9,0.9,8.7z"/>
	<path class="st1" d="M14.5,9.6h0.3c0.6,0,0.7-0.2,0.7-1c0-0.7-0.1-1.3-0.1-2.1s0.2-1.2,0.8-1.4l0,0c-0.5-0.1-0.7-0.5-0.7-1.3
		s0.1-1.4,0.1-2.1s-0.2-1-0.7-1h-0.4V0h0.6c1,0,1.5,0.4,1.5,1.7c0,0.9-0.1,1.4-0.1,2.2c0,0.4,0.2,0.9,1,0.9v0.8c-0.8,0-1,0.5-1,0.9
		c0,0.8,0.1,1.3,0.1,2.2c0,1.3-0.5,1.7-1.5,1.7h-0.6V9.6z"/>
</g>
</svg>
