<?xml version="1.0" encoding="utf-8"?>
<!-- Generator: Adobe Illustrator 26.0.0, SVG Export Plug-In . SVG Version: 6.00 Build 0)  -->
<svg version="1.1" id="Layer_1" xmlns="http://www.w3.org/2000/svg" xmlns:xlink="http://www.w3.org/1999/xlink" x="0px" y="0px"
	 viewBox="0 0 35 33" style="enable-background:new 0 0 35 33;" xml:space="preserve">
<style type="text/css">
	.st0{fill:none;stroke:#CACACA;}
	.st1{fill:#F16334;}
	.st2{fill-rule:evenodd;clip-rule:evenodd;fill:#F16334;}
</style>
<g>
	<path id="cla2" class="st0" d="M12.1,1.8c2-0.8,4.1-1.3,6.4-1.3c8.8,0,16,7.2,16,16s-7.2,16-16,16s-16-7.2-16-16
		c0-1.5,0.2-3,0.6-4.3"/>
	<path id="cla1" class="st1" d="M17.1,16.8h11.7c0.3,0,0.5,0.2,0.5,0.5c0,0.3-0.2,0.5-0.5,0.5H17.1c-0.3,0-0.5-0.2-0.5-0.5
		C16.6,17,16.8,16.8,17.1,16.8z M10,16.8h3.2c0.3,0,0.5,0.2,0.5,0.5c0,0.3-0.2,0.5-0.5,0.5H10c-0.3,0-0.5-0.2-0.5-0.5
		C9.5,17,9.7,16.8,10,16.8z M28.9,22.1H10c-0.3,0-0.5-0.2-0.5-0.5c0-0.3,0.2-0.5,0.5-0.5h18.9c0.3,0,0.5,0.2,0.5,0.5
		C29.4,21.9,29.2,22.1,28.9,22.1z"/>
	<path id="cla1_00000043442316759066183780000010502907569889891263_" class="st2" d="M9.2,0H1.8C0.8,0,0,0.8,0,1.8v7.5
		c0,1,0.8,1.8,1.8,1.8h7.5c1,0,1.8-0.8,1.8-1.8V1.8C11,0.8,10.2,0,9.2,0z M10.3,9.2c0,0.6-0.5,1.1-1.1,1.1H1.8
		c-0.6,0-1.1-0.5-1.1-1.1V8.7c0,0,0.1-0.1,0.1-0.1L3.1,6l2.7,2.6c0.2,0.2,0.4,0.2,0.6,0L8,7.2l2.2,1.5c0,0,0,0,0,0V9.2z M10.3,7.7
		l-2-1.4c-0.2-0.1-0.4-0.1-0.5,0L6.1,7.7L3.3,5.1C3.1,4.9,2.9,5,2.7,5.2l-2,2.2V1.8c0-0.6,0.5-1.1,1.1-1.1h7.5
		c0.6,0,1.1,0.5,1.1,1.1V7.7z"/>
	<path id="cla1_00000049919645850269036780000003891882797389772164_" class="st2" d="M7.8,2.6c-0.4,0-0.7,0.3-0.7,0.7S7.4,4,7.8,4
		c0.4,0,0.7-0.3,0.7-0.7S8.2,2.6,7.8,2.6z M6.4,3.3c0-0.8,0.6-1.4,1.4-1.4s1.4,0.6,1.4,1.4S8.6,4.6,7.8,4.6S6.4,4,6.4,3.3z"/>
	<path id="cla1_00000036935181445711500310000008634419422428566945_" class="st1" d="M20.8,14.5c-0.2,0-0.4-0.1-0.5-0.3L18.5,10
		l-1.8,4.2c-0.1,0.2-0.3,0.3-0.5,0.3c-0.2,0-0.4-0.1-0.5-0.3l-2.2-6c-0.1-0.3,0-0.5,0.3-0.6c0.3-0.1,0.5,0,0.6,0.3l1.8,4.8L18,8.6
		c0.2-0.4,0.8-0.4,0.9,0l1.8,4.1l1.8-4.8c0.1-0.3,0.4-0.4,0.6-0.3c0.3,0.1,0.4,0.4,0.3,0.6l-2.2,6C21.1,14.4,21,14.5,20.8,14.5
		C20.8,14.5,20.8,14.5,20.8,14.5z"/>
</g>
</svg>
