<?xml version="1.0" encoding="utf-8"?>
<!-- Generator: Adobe Illustrator 26.0.0, SVG Export Plug-In . SVG Version: 6.00 Build 0)  -->
<svg version="1.1" id="Layer_1" xmlns="http://www.w3.org/2000/svg" xmlns:xlink="http://www.w3.org/1999/xlink" x="0px" y="0px"
	 viewBox="0 0 35 33" style="enable-background:new 0 0 35 33;" xml:space="preserve">
<style type="text/css">
	.st0{fill:none;stroke:#CACACA;}
	.st1{fill:#FA8617;}
	.st2{display:none;fill:#F16334;}
</style>
<path class="st0" d="M13.8,1.2c1.5-0.5,3.1-0.7,4.7-0.7c8.8,0,16,7.2,16,16s-7.2,16-16,16s-16-7.2-16-16"/>
<g>
	<path class="st1" d="M3.3,3.9h1.1v5H3.3V3.9z"/>
	<path class="st1" d="M5.6,3.9h1.7c1.1,0,2,0.4,2,1.6s-0.9,1.7-2,1.7H6.7v1.7H5.6V3.9z M7.3,6.3c0.6,0,0.9-0.3,0.9-0.8
		S7.9,4.8,7.3,4.8H6.7v1.5H7.3z"/>
	<path id="cla1" class="st2" d="M17.2,16.8h11.7c0.3,0,0.5,0.2,0.5,0.5s-0.2,0.5-0.5,0.5H17.2c-0.3,0-0.5-0.2-0.5-0.5
		S16.9,16.8,17.2,16.8z M10.1,16.8h3.2c0.3,0,0.5,0.2,0.5,0.5s-0.2,0.5-0.5,0.5h-3.2c-0.3,0-0.5-0.2-0.5-0.5S9.8,16.8,10.1,16.8z
		 M29,22.1H10.1c-0.3,0-0.5-0.2-0.5-0.5s0.2-0.5,0.5-0.5H29c0.3,0,0.5,0.2,0.5,0.5S29.3,22.1,29,22.1z"/>
	<path id="cla1_00000039095833794225735900000015667764030945566373_" class="st1" d="M17.2,16.8h11.7c0.3,0,0.5,0.2,0.5,0.5
		s-0.2,0.5-0.5,0.5H17.2c-0.3,0-0.5-0.2-0.5-0.5S16.9,16.8,17.2,16.8z M10.1,16.8h3.2c0.3,0,0.5,0.2,0.5,0.5s-0.2,0.5-0.5,0.5h-3.2
		c-0.3,0-0.5-0.2-0.5-0.5S9.8,16.8,10.1,16.8z M29,22.1H10.1c-0.3,0-0.5-0.2-0.5-0.5s0.2-0.5,0.5-0.5H29c0.3,0,0.5,0.2,0.5,0.5
		S29.3,22.1,29,22.1z"/>
	<path class="st1" d="M9.1,2.4c0.9,0.9,1.4,2.1,1.4,3.3S9.6,9,7.8,11.6c-0.7,1.1-1.5,2.1-2,2.8c-0.5-0.7-1.3-1.7-2-2.8
		C1.3,8.1,1,6.4,1,5.7c0-1.3,0.5-2.4,1.4-3.3S4.4,1,5.7,1S8.2,1.5,9.1,2.4z M5.7,0C2.6,0,0,2.6,0,5.7C0,9.2,5.7,16,5.7,16
		s5.7-6.7,5.7-10.2C11.4,2.6,8.9,0,5.7,0z"/>
</g>
</svg>
