<?xml version="1.0" encoding="utf-8"?>
<!-- Generator: Adobe Illustrator 26.0.0, SVG Export Plug-In . SVG Version: 6.00 Build 0)  -->
<svg version="1.1" id="Layer_1" xmlns="http://www.w3.org/2000/svg" xmlns:xlink="http://www.w3.org/1999/xlink" x="0px" y="0px"
	 viewBox="0 0 35 33" style="enable-background:new 0 0 35 33;" xml:space="preserve">
<style type="text/css">
	.st0{fill:#FA8617;}
	.st1{fill:#CACACA;}
</style>
<g>
	<path id="cla1_00000129889354294205908240000015338523547764660119_" class="st0" d="M28.9,21.1H10c-0.3,0-0.5,0.2-0.5,0.5
		s0.2,0.5,0.5,0.5h18.9c0.3,0,0.5-0.2,0.5-0.5C29.4,21.3,29.2,21.1,28.9,21.1z M28.9,16.8H17.1c-0.3,0-0.5,0.2-0.5,0.5
		s0.2,0.5,0.5,0.5h11.7c0.3,0,0.5-0.2,0.5-0.5C29.4,17,29.2,16.8,28.9,16.8z M13.2,16.8H10c-0.3,0-0.5,0.2-0.5,0.5s0.2,0.5,0.5,0.5
		h3.2c0.3,0,0.5-0.2,0.5-0.5S13.4,16.8,13.2,16.8z"/>
	<path class="st0" d="M19,12.7v1c0,0.1,0.2,0.2,0.2,0.1l1.8-1.7c0.1-0.1,0.1-0.1,0-0.2c-0.3-0.3-1.3-1.3-1.8-1.7
		c-0.1-0.1-0.2,0-0.2,0.1v1h-2.3v1.4H19L19,12.7L19,12.7z"/>
	<path class="st0" d="M26.9,12.7v1c0,0.1-0.2,0.2-0.2,0.1l-1.8-1.7c-0.1-0.1-0.1-0.1,0-0.2c0.3-0.4,1.4-1.4,1.8-1.8
		c0.1-0.1,0.2,0,0.2,0.1v1h2.3v1.4L26.9,12.7L26.9,12.7L26.9,12.7z"/>
	<path class="st0" d="M3.9,4.7c0,1-0.2,1.8-0.7,2.3C2.7,7.6,2,7.9,1.1,7.9C0.7,7.9,0.3,7.8,0,7.7V6.1c0.3,0.2,0.6,0.3,1,0.3
		c0.8,0,1.2-0.6,1.2-1.7V0.1h1.7V4.7z"/>
	<path class="st0" d="M5.5,7.5V5.8c0.3,0.3,0.6,0.5,1,0.6c0.4,0.1,0.7,0.2,1.1,0.2c0.2,0,0.4,0,0.6-0.1c0.2,0,0.3-0.1,0.4-0.2
		c0.1-0.1,0.2-0.2,0.2-0.2C8.8,6,8.9,5.9,8.9,5.8c0-0.1,0-0.3-0.1-0.4C8.6,5.2,8.5,5.1,8.4,5C8.2,4.9,8.1,4.8,7.9,4.8
		C7.7,4.7,7.4,4.6,7.2,4.5c-0.6-0.2-1-0.6-1.3-0.9C5.6,3.2,5.4,2.8,5.4,2.3c0-0.4,0.1-0.7,0.2-1C5.8,1,6,0.7,6.3,0.5
		c0.3-0.2,0.6-0.3,1-0.4C7.6,0,8,0,8.4,0c0.4,0,0.7,0,1.1,0.1c0.3,0,0.6,0.1,0.8,0.2v1.6c-0.1-0.1-0.3-0.2-0.4-0.2
		C9.8,1.6,9.6,1.5,9.4,1.5C9.3,1.4,9.1,1.4,9,1.4s-0.3,0-0.4,0c-0.2,0-0.4,0-0.5,0.1c-0.2,0-0.3,0.1-0.4,0.2
		C7.5,1.6,7.4,1.7,7.3,1.8C7.3,1.9,7.2,2,7.2,2.1c0,0.1,0,0.2,0.1,0.3c0.1,0.1,0.2,0.2,0.3,0.3C7.8,2.8,7.9,2.9,8.1,3
		s0.4,0.2,0.6,0.3C9,3.4,9.3,3.5,9.5,3.7C9.7,3.8,10,4,10.1,4.2c0.2,0.2,0.3,0.4,0.4,0.6c0.1,0.2,0.1,0.5,0.1,0.8
		c0,0.4-0.1,0.8-0.2,1.1C10.3,7,10,7.2,9.8,7.4c-0.3,0.2-0.6,0.3-1,0.4C8.4,7.8,8,7.9,7.6,7.9c-0.4,0-0.8,0-1.2-0.1
		C6.1,7.7,5.7,7.6,5.5,7.5z"/>
</g>
<g id="cla2_00000021822079461518687230000000102307893131826864_">
	<path class="st1" d="M18.5,33C9.4,33,2,25.6,2,16.5c0-1.6,0.2-3,0.6-4.5l1,0.3C3.2,13.7,3,15,3,16.5C3,25,10,32,18.5,32
		S34,25,34,16.5S27,1,18.5,1c-1,0-1.9,0.1-2.9,0.3l-0.2-1c1-0.2,2.1-0.3,3.1-0.3C27.6,0,35,7.4,35,16.5C35,25.6,27.6,33,18.5,33z"/>
</g>
</svg>
