<svg width="459" height="458" viewBox="0 0 459 458" fill="none" xmlns="http://www.w3.org/2000/svg">
<g clip-path="url(#clip0_825_402)">
<path style="mix-blend-mode:multiply" d="M377.638 221.352C377.638 221.352 373.024 205.074 354.265 121.645C335.506 38.2152 248.031 60.3109 226.093 67.3049C204.154 74.299 163.003 87.5977 101.493 106.534C39.9833 125.471 5.66303 155.282 0.6384 190.949C-4.38623 226.615 29.9913 264.609 77.301 277.843C129.106 292.337 171.916 314.842 182.265 377.769C195.322 457.197 283.369 487.269 347.349 423.629C411.329 359.989 388.67 272.336 377.638 221.352Z" fill="url(#paint0_radial_825_402)"/>
<path style="mix-blend-mode:multiply" d="M367.788 283.582C380.617 229.255 350.813 183.136 305.769 174.809C277.1 169.509 244.923 155.232 216.13 99.2224C185.228 39.0956 104.12 -3.0453 52.2947 87.3717C-13.7129 202.517 14.2656 274.818 33.9807 312.345C76.14 392.608 181.585 424.735 244.248 404.488C305.777 384.612 354.572 339.559 367.788 283.582Z" fill="url(#paint1_radial_825_402)"/>
<path style="mix-blend-mode:multiply" d="M457.513 164.038C455.011 133.946 421.973 101.389 367.623 109.025C306.484 117.621 237.623 99.5998 179.53 77.4572C119.725 54.6647 70.479 80.0418 55.3062 104.64C38.6745 131.61 42.2888 179.319 87.3104 261.065C132.332 342.811 173.843 382.212 218.211 400.689C262.579 419.166 303.68 410.394 340.582 377.565C366.386 354.611 380.764 317.535 404.839 270.75C434.904 212.324 461.134 207.563 457.513 164.038Z" fill="url(#paint2_radial_825_402)"/>
<g opacity="0.31">
<path d="M372.306 64.8109C372.453 57.471 366.742 51.4043 359.552 51.2605C352.361 51.1167 346.413 56.9502 346.266 64.2901C346.119 71.63 351.829 77.6967 359.02 77.8405C366.211 77.9843 372.159 72.1508 372.306 64.8109Z" fill="#D9DADA"/>
</g>
<g opacity="0.31">
<path d="M53.0157 34.2177C53.1135 35.5356 53.5979 36.7955 54.408 37.8396C55.2182 38.8837 56.3183 39.6658 57.5706 40.0879C58.8229 40.5101 60.1719 40.5536 61.4489 40.2131C62.7258 39.8725 63.874 39.163 64.7498 38.1732C65.6256 37.1835 66.1901 35.9575 66.3727 34.6486C66.5554 33.3397 66.348 32.0061 65.7766 30.8144C65.2051 29.6227 64.295 28.626 63.1601 27.949C62.0251 27.2719 60.7157 26.9445 59.3957 27.0077C58.5012 27.056 57.6252 27.2816 56.8187 27.6713C56.0121 28.0611 55.2911 28.6073 54.6975 29.2781C54.1038 29.949 53.6495 30.7311 53.3607 31.5791C53.072 32.4271 52.9547 33.324 53.0157 34.2177Z" fill="#D9DADA"/>
</g>
<g opacity="0.31">
<path d="M455.501 185.61C455.565 186.483 455.886 187.318 456.422 188.01C456.958 188.702 457.687 189.221 458.516 189.501C459.346 189.781 460.24 189.81 461.086 189.585C461.932 189.359 462.692 188.889 463.272 188.233C463.853 187.578 464.226 186.765 464.347 185.898C464.468 185.031 464.33 184.147 463.951 183.358C463.572 182.569 462.968 181.909 462.216 181.461C461.464 181.013 460.596 180.797 459.721 180.84C459.131 180.874 458.552 181.025 458.02 181.284C457.487 181.543 457.012 181.904 456.619 182.347C456.227 182.791 455.926 183.307 455.735 183.867C455.543 184.427 455.463 185.019 455.501 185.61Z" fill="#E1E2FE"/>
</g>
<path d="M429.358 310.282C429.494 303.766 424.431 298.376 418.05 298.242C411.668 298.108 406.384 303.282 406.247 309.798C406.111 316.313 411.174 321.704 417.555 321.838C423.937 321.971 429.221 316.798 429.358 310.282Z" fill="#FA8617"/>
<g opacity="0.58">
<path d="M377.5 431C379.985 431 382 428.985 382 426.5C382 424.015 379.985 422 377.5 422C375.015 422 373 424.015 373 426.5C373 428.985 375.015 431 377.5 431Z" fill="#D9DADA"/>
</g>
<g opacity="0.58">
<path d="M220.25 44.5C221.493 44.5 222.5 43.4926 222.5 42.25C222.5 41.0074 221.493 40 220.25 40C219.007 40 218 41.0074 218 42.25C218 43.4926 219.007 44.5 220.25 44.5Z" fill="#D9DADA"/>
</g>
<g opacity="0.58">
<path d="M168.5 435C170.985 435 173 432.985 173 430.5C173 428.015 170.985 426 168.5 426C166.015 426 164 428.015 164 430.5C164 432.985 166.015 435 168.5 435Z" fill="#D9DADA"/>
</g>
<path opacity="0.31" d="M402.5 383C404.433 383 406 381.433 406 379.5C406 377.567 404.433 376 402.5 376C400.567 376 399 377.567 399 379.5C399 381.433 400.567 383 402.5 383Z" fill="#FA8617"/>
<g opacity="0.58">
<path d="M76.5 44C77.3284 44 78 43.3284 78 42.5C78 41.6716 77.3284 41 76.5 41C75.6716 41 75 41.6716 75 42.5C75 43.3284 75.6716 44 76.5 44Z" fill="#D9DADA"/>
</g>
<path d="M22.28 113.743C24.49 119.113 19.5 123.303 15.1 121.293C14.1869 120.868 13.412 120.194 12.8638 119.348C12.3157 118.503 12.0163 117.521 12 116.513C12 111.673 17.83 108.843 21.83 113.043C22.0187 113.249 22.1708 113.486 22.28 113.743Z" fill="#FA8617"/>
<path d="M82.2378 25.0238C82.2589 25.4877 82.1271 25.9457 81.8626 26.3274C81.5981 26.7092 81.2155 26.9935 80.7738 27.1367C80.332 27.2799 79.8555 27.2741 79.4173 27.1202C78.9792 26.9662 78.6037 26.6727 78.3486 26.2847C78.0934 25.8966 77.9728 25.4355 78.0052 24.9723C78.0375 24.509 78.2211 24.0692 78.5277 23.7204C78.8343 23.3716 79.2469 23.1331 79.7022 23.0416C80.1575 22.9501 80.6303 23.0106 81.0478 23.2138C81.3926 23.378 81.6858 23.6335 81.8956 23.9526C82.1054 24.2717 82.2238 24.6422 82.2378 25.0238Z" fill="#FA8617"/>
<path opacity="0.58" d="M268.238 25.039C268.256 25.5029 268.121 25.9598 267.854 26.3396C267.587 26.7193 267.203 27.0009 266.76 27.1411C266.317 27.2812 265.841 27.2722 265.404 27.1155C264.967 26.9587 264.594 26.6629 264.341 26.2733C264.089 25.8838 263.971 25.4221 264.006 24.9592C264.041 24.4963 264.228 24.0577 264.536 23.7109C264.845 23.364 265.259 23.128 265.714 23.0392C266.17 22.9503 266.642 23.0135 267.058 23.219C267.401 23.388 267.691 23.6463 267.899 23.9667C268.107 24.287 268.224 24.6575 268.238 25.039Z" fill="#FA8617"/>
<g opacity="0.58">
<path d="M422.049 69.11C422.005 69.3458 421.914 69.5703 421.781 69.7703C421.649 69.9703 421.477 70.1418 421.278 70.2747C421.078 70.4077 420.854 70.4993 420.618 70.5443C420.382 70.5893 420.14 70.5867 419.905 70.5367C419.671 70.4867 419.448 70.3903 419.252 70.2531C419.055 70.116 418.887 69.9409 418.759 69.7381C418.631 69.5353 418.544 69.3089 418.505 69.0722C418.466 68.8356 418.474 68.5934 418.529 68.36C418.574 68.1242 418.665 67.8998 418.797 67.6997C418.93 67.4997 419.101 67.3282 419.301 67.1953C419.501 67.0624 419.725 66.9707 419.961 66.9257C420.196 66.8807 420.438 66.8833 420.673 66.9333C420.908 66.9833 421.13 67.0797 421.327 67.2169C421.524 67.354 421.691 67.5291 421.819 67.7319C421.948 67.9347 422.034 68.1611 422.074 68.3978C422.113 68.6344 422.105 68.8766 422.049 69.11Z" fill="#D9DADA"/>
</g>
<path d="M144.559 437.18C144.484 437.528 144.307 437.846 144.052 438.094C143.796 438.341 143.472 438.507 143.122 438.571C142.772 438.635 142.411 438.593 142.084 438.451C141.757 438.31 141.48 438.075 141.287 437.775C141.094 437.476 140.994 437.127 141 436.771C141.006 436.415 141.117 436.069 141.32 435.776C141.522 435.483 141.807 435.257 142.138 435.126C142.469 434.995 142.831 434.965 143.179 435.04C143.411 435.09 143.63 435.185 143.824 435.32C144.019 435.454 144.185 435.626 144.313 435.825C144.441 436.023 144.529 436.245 144.571 436.478C144.613 436.711 144.609 436.949 144.559 437.18Z" fill="#FA8617"/>
<g clip-path="url(#clip1_825_402)">
<path d="M355.332 334.23C355.332 336.101 354.62 337.793 353.375 339.04C352.13 340.287 350.44 341 348.573 341H81.7593C78.0239 341 75 337.971 75 334.23C75 332.36 75.7115 330.667 76.9566 329.42C78.2018 328.173 79.8916 327.461 81.7593 327.461H98.8353V191.443C98.8353 187.88 101.77 184.941 105.328 184.941H324.915C328.473 184.941 331.408 187.88 331.408 191.443V327.461H348.484C352.308 327.461 355.332 330.489 355.332 334.23Z" fill="white"/>
<path d="M319.934 328.084H110.397C108.173 328.084 106.395 326.303 106.395 324.076V196.432C106.395 194.205 108.173 192.423 110.397 192.423H319.934C322.158 192.423 323.936 194.205 323.936 196.432V324.076C323.936 326.303 322.158 328.084 319.934 328.084Z" fill="#E6E7E7"/>
<path d="M212.853 301.451H220.502V304.925H212.853V301.451ZM135.833 291.564V288.09H188.306V291.564H135.833ZM119.646 278.113V274.639H172.12V278.113H119.646ZM135.833 251.302V247.828H188.306V251.302H135.833ZM172.12 224.49H119.646V221.016H172.12V224.49ZM126.317 318.375H118.668V314.901H126.317V318.375ZM188.306 318.375H135.833V314.901H188.306V318.375ZM300.724 318.375H269.773V314.901H300.724V318.375ZM319.223 304.925H288.272V301.451H319.223V304.925Z" fill="#FF8000"/>
<path opacity="0.48" d="M228.862 301.451H281.335V304.925H228.862V301.451ZM135.833 207.655H188.306V211.129H135.833V207.655ZM172.12 301.451V304.925H119.646V301.451H172.12ZM135.833 237.94V234.467H188.306V237.94H135.833ZM118.668 207.655H126.317V211.129H118.668V207.655ZM118.668 234.467H126.317V237.94H118.668V234.467ZM118.668 247.828H126.317V251.302H118.668V247.828ZM118.668 261.278H171.141V264.752H118.668V261.278ZM118.668 288.09H126.317V291.563H118.668V288.09ZM202.447 318.375H194.799V314.901H202.447V318.375ZM203.426 304.925H180.747V301.451H203.426V304.925ZM203.426 237.94H195.777V234.467H203.426V237.94ZM203.426 224.49H180.747V221.016H203.426V224.49ZM203.426 211.129H195.777V207.655H203.426V211.129ZM261.769 318.375H209.296V314.901H261.769V318.375ZM319.223 318.375H307.483V314.901H319.223V318.375Z" fill="#AEADAD"/>
<path d="M352.13 291.118H147.573C144.371 291.118 141.703 288.446 141.703 285.239V165.879C141.703 162.672 144.282 160 147.573 160H352.13C355.332 160 358 162.672 358 165.879V285.239C358 288.446 355.421 291.118 352.13 291.118Z" fill="white"/>
<path d="M225.481 233.843L206.715 225.915V221.907L225.481 214.068V219.235L213.83 223.956L225.481 228.588V233.843Z" fill="#FF8000"/>
<path d="M245.494 208.457V229.657C245.494 232.863 245.494 234.823 245.405 235.803C245.316 236.693 245.05 237.495 244.516 238.297C243.982 239.009 243.271 239.544 242.381 239.811C241.492 240.078 240.069 240.256 238.29 240.256H234.199V234.734C234.733 234.734 235.089 234.823 235.266 234.823C235.889 234.823 236.334 234.645 236.689 234.378C237.045 234.11 237.223 233.754 237.312 233.309C237.401 232.863 237.401 232.062 237.401 230.904V208.635H245.494V208.457Z" fill="#FF8000"/>
<path d="M264.614 222.441H257.588V221.016C257.588 219.858 257.499 219.057 257.41 218.7C257.232 218.344 256.965 218.255 256.343 218.255C255.898 218.255 255.542 218.433 255.364 218.7C255.187 218.968 255.009 219.413 255.009 220.036C255.009 220.838 255.098 221.373 255.187 221.818C255.275 222.174 255.631 222.62 256.165 223.065C256.698 223.51 257.855 224.134 259.544 225.025C261.857 226.183 263.369 227.162 264.08 228.231C264.792 229.3 265.148 230.636 265.148 232.596C265.148 234.734 264.881 236.337 264.347 237.406C263.813 238.475 262.924 239.277 261.59 239.9C260.345 240.524 258.744 240.791 256.965 240.791C254.92 240.791 253.23 240.435 251.807 239.811C250.384 239.188 249.406 238.297 248.872 237.228C248.338 236.159 248.072 234.556 248.072 232.418V231.171H255.098V232.774C255.098 234.199 255.187 235.09 255.364 235.535C255.542 235.981 255.898 236.159 256.432 236.159C256.965 236.159 257.41 235.981 257.588 235.714C257.766 235.446 257.944 234.823 257.944 233.932C257.944 232.685 257.766 231.883 257.499 231.616C257.232 231.26 255.631 230.369 252.874 228.855C250.562 227.519 249.139 226.361 248.605 225.292C248.071 224.223 247.805 222.976 247.805 221.462C247.805 219.413 248.071 217.899 248.605 216.83C249.139 215.85 250.117 215.048 251.362 214.514C252.696 213.979 254.208 213.712 255.898 213.712C257.588 213.712 259.1 213.89 260.256 214.336C261.501 214.781 262.39 215.316 263.013 216.028C263.636 216.741 264.08 217.453 264.169 217.988C264.347 218.611 264.347 219.591 264.347 220.838V222.441H264.614Z" fill="#FF8000"/>
<path d="M274.219 214.068L292.985 221.907V225.915L274.219 233.843V228.588L285.781 223.867L274.219 219.235V214.068Z" fill="#FF8000"/>
</g>
</g>
<defs>
<radialGradient id="paint0_radial_825_402" cx="0" cy="0" r="1" gradientUnits="userSpaceOnUse" gradientTransform="translate(221.533 228.242) rotate(30) scale(200.792 200.473)">
<stop stop-color="#F78620"/>
<stop offset="1" stop-color="#FFB56A"/>
</radialGradient>
<radialGradient id="paint1_radial_825_402" cx="0" cy="0" r="1" gradientUnits="userSpaceOnUse" gradientTransform="translate(180.944 243.092) rotate(30) scale(175.424 176.897)">
<stop stop-color="#FFB56A"/>
<stop offset="1" stop-color="#F78620"/>
</radialGradient>
<radialGradient id="paint2_radial_825_402" cx="0" cy="0" r="1" gradientUnits="userSpaceOnUse" gradientTransform="translate(224.08 204.967) rotate(30) scale(186.858 184.714)">
<stop stop-color="#8932A2"/>
<stop offset="1" stop-color="#FFB56A"/>
</radialGradient>
<clipPath id="clip0_825_402">
<rect width="459" height="458" fill="white"/>
</clipPath>
<clipPath id="clip1_825_402">
<rect width="283" height="181" fill="white" transform="translate(75 160)"/>
</clipPath>
</defs>
</svg>
