<svg width="1003" height="550" viewBox="0 0 1003 550" fill="none" xmlns="http://www.w3.org/2000/svg">
<g clip-path="url(#clip0_123_35105)">
<path d="M97.9263 0H904.746C906.451 0 908.139 0.335333 909.715 0.986854C911.29 1.63837 912.721 2.59332 913.926 3.79718C915.132 5.00103 916.088 6.43021 916.741 8.00312C917.393 9.57603 917.729 11.2619 917.729 12.9644V536.848H84.9976V12.9644C84.9975 9.53526 86.358 6.24581 88.781 3.81605C91.2041 1.38629 94.4925 0.0141601 97.9263 0V0Z" fill="#C9C9C9"/>
<path d="M97.2205 1.49898H905.425C908.184 1.5037 910.828 2.60066 912.777 4.54927C914.727 6.49789 915.823 9.1391 915.826 11.8937V535.349H86.8024V11.8937C86.8048 9.13601 87.9034 6.4921 89.8569 4.54297C91.8105 2.59384 94.459 1.49898 97.2205 1.49898Z" fill="black"/>
<path d="M100.339 4.95198H902.316C904.97 4.95198 907.516 6.00483 909.392 7.87892C911.269 9.753 912.323 12.2948 912.323 14.9452V518.397H90.3138V14.9452C90.3138 13.6313 90.5732 12.3304 91.0773 11.1168C91.5813 9.90322 92.32 8.80079 93.2511 7.8726C94.1823 6.94441 95.2875 6.20869 96.5037 5.70754C97.7199 5.20639 99.0231 4.94964 100.339 4.95198Z" fill="#EBF5FF"/>
<path d="M996.749 550H5.87022C3.77945 550 1.73337 548.439 -0.0178719 545.539V542.621C-0.0178719 538.936 1.16153 535.947 2.66259 535.947H1000.01C1001.47 535.947 1002.69 538.936 1002.69 542.621V545.503C1000.89 548.439 998.849 550 996.749 550Z" fill="url(#paint0_linear_123_35105)"/>
<path d="M996.749 541.479H5.87022C3.77508 541.472 1.72807 540.851 -0.0178719 539.695V538.553C-0.00383763 537.852 0.284753 537.185 0.785925 536.694C1.2871 536.204 1.96088 535.929 2.66259 535.929H1000.01C1000.71 535.929 1001.39 536.204 1001.89 536.694C1002.39 537.185 1002.68 537.852 1002.69 538.553V539.695C1000.93 540.861 998.862 541.482 996.749 541.479Z" fill="#C9C9C9"/>
</g>
<defs>
<linearGradient id="paint0_linear_123_35105" x1="501.319" y1="550" x2="501.319" y2="535.956" gradientUnits="userSpaceOnUse">
<stop stop-color="white" stop-opacity="0.66"/>
<stop offset="1"/>
</linearGradient>
<clipPath id="clip0_123_35105">
<rect width="1002.65" height="550" fill="white"/>
</clipPath>
</defs>
</svg>
