<?xml version="1.0" encoding="utf-8"?>
<!-- Generator: Adobe Illustrator 26.0.0, SVG Export Plug-In . SVG Version: 6.00 Build 0)  -->
<svg version="1.1" id="Layer_1" xmlns="http://www.w3.org/2000/svg" xmlns:xlink="http://www.w3.org/1999/xlink" x="0px" y="0px"
	 viewBox="0 0 35 33" style="enable-background:new 0 0 35 33;" xml:space="preserve">
<style type="text/css">
	.st0{fill:none;stroke:#CACACA;}
	.st1{fill:#FA8617;}
</style>
<path class="st0" d="M15.3,0.8C24-0.9,32.4,4.6,34.2,13.3s-3.8,17.1-12.5,18.9C13,33.9,4.6,28.4,2.8,19.7"/>
<g>
	<path class="st1" d="M28.9,21.1H10c-0.3,0-0.5,0.2-0.5,0.5s0.2,0.5,0.5,0.5h18.9c0.3,0,0.5-0.2,0.5-0.5
		C29.4,21.3,29.2,21.1,28.9,21.1z M28.9,16.8H17.1c-0.3,0-0.5,0.2-0.5,0.5s0.2,0.5,0.5,0.5h11.7c0.3,0,0.5-0.2,0.5-0.5
		C29.4,17,29.2,16.8,28.9,16.8z M13.2,16.8H10c-0.3,0-0.5,0.2-0.5,0.5s0.2,0.5,0.5,0.5h3.2c0.3,0,0.5-0.2,0.5-0.5
		S13.4,16.8,13.2,16.8z"/>
	<path class="st1" d="M4.2,8.6V0H0v13.2h11.4V8.6H4.2z M4,9.4v1.3h0.7V9.4h1v1.3h0.7V9.4h1.1v1.3h0.7V9.4h1.1v1.3H10V9.4h0.6v3H0.9
		V0.8h2.5v0.7H2.3v0.8h1.1v1.2H2.3v0.8h1.1v1.2H2.3v0.8h1.1v1.2H2.3v0.8h1.1v0.8L4,9.4L4,9.4z"/>
</g>
</svg>
