<svg width="500" height="500" viewBox="0 0 500 500" fill="none" xmlns="http://www.w3.org/2000/svg">
<path opacity="0.32" d="M44.999 148.2C39.199 165 37.599 183.3 41.399 200.6C46.499 223.9 63.899 244.4 60.899 269.2C59.099 284.1 59.399 297.8 59.099 312.4C58.399 342.5 79.399 367.4 103.999 379.8C123.999 389.9 146.799 392.6 168.799 390.7C188.599 389 208.099 383.8 226.899 377.3C244.999 371.1 262.599 363.4 282.099 364C298.299 364.5 313.399 370.5 328.799 374.7C365.599 384.7 409.199 383.3 440.399 361.6C474.699 337.8 488.499 292.7 476.599 253.3C470.199 232.1 461.599 213.8 464.699 191.3C466.199 180.2 468.499 168.9 466.399 157.9C464.499 147.8 458.899 138.7 452.299 130.8C434.599 109.4 409.299 95.8 383.099 87.8C353.299 78.7 320.299 73.7 289.299 78.5C229.199 87.6 216.099 78.8 153.199 69.8C111.099 63.8 71.499 97.3 52.399 131.9C49.499 137 46.999 142.5 44.999 148.2Z" fill="#D9DADA"/>
<path opacity="0.3" d="M74.0994 196.6C82.7994 185.2 96.1994 177.4 102.699 164.3C110.599 148.6 108.899 130 115.899 114C126.299 90.3001 144.999 70.1001 168.599 59.0001C179.899 53.7001 192.399 50.4001 204.499 51.3001C223.199 52.7001 239.299 63.9001 251.899 77.2001C270.699 97.0001 283.899 125.1 306.499 140.9C318.899 149.6 333.499 140.4 346.699 137.4C361.599 134.1 377.099 134.9 391.299 138.9C417.499 146.4 440.099 165.1 451.399 189.9C463.499 216.3 461.699 252.9 439.099 275.6C428.599 286.1 414.399 293.1 406.699 305.7C396.999 321.5 395.799 342.9 393.099 360.4C390.099 379.8 381.799 398.7 369.299 414.4C369.199 414.6 368.999 414.8 368.899 414.9C347.199 441.8 310.299 450.9 279.099 437.4L212.799 408.7C145.599 379.6 94.4994 332.7 69.9994 264.6C64.6994 249.9 62.7994 218.5 69.4994 204.1C70.7994 201.4 72.3994 198.9 74.0994 196.6Z" fill="#D9DADA"/>
<path opacity="0.3" d="M28.7999 302.9C27.9999 295.3 27.7999 287.7 28.2999 280C30.4999 244.2 46.6999 209.7 71.7999 184.7C80.7999 175.8 91.0999 167.6 96.5999 156.2C105.9 136.9 104.1 115.4 115.9 96.0999C127.8 76.8999 145.7 61.3999 166.3 52.8999C227.8 27.3999 317.3 58.7999 313.3 136.3C313.3 136.6 313.3 137 313.3 137.5C313.1 153.6 326 166.4 341.7 165.9C399.6 164.2 451.6 207.1 465.1 264.1C473.8 300.8 464.6 342 439.4 369.6C420.6 390.2 394.5 402.4 368.3 411.2C315.7 428.8 259.7 434.9 204.4 432.2C152.7 429.6 97.5999 417.4 62.2999 378.7C43.3999 358.1 31.7999 331 28.7999 302.9Z" fill="#D9DADA"/>
<g opacity="0.31">
<path d="M319.162 47.9174C319.317 40.5735 313.624 34.4972 306.446 34.3457C299.267 34.1942 293.322 40.0247 293.167 47.3687C293.012 54.7126 298.706 60.7889 305.884 60.9404C313.062 61.0919 319.007 55.2613 319.162 47.9174Z" fill="#D9DADA"/>
<path d="M85.5996 48C85.7996 51.8 88.8996 54.7 92.6996 54.5C96.3996 54.3 99.2996 51.1 99.0996 47.3C98.8996 43.5 95.7996 40.6 91.9996 40.8C88.2996 41 85.3996 44.2 85.5996 48Z" fill="#D9DADA"/>
<path d="M472.099 203C472.199 205.5 474.299 207.4 476.799 207.3C479.299 207.2 481.099 205 480.999 202.5C480.899 200 478.799 198.1 476.299 198.2C473.899 198.4 471.999 200.5 472.099 203Z" fill="#D9DADA"/>
<path d="M451.345 431.815C451.587 420.274 442.606 410.727 431.287 410.49C419.967 410.253 410.595 419.416 410.353 430.956C410.112 442.497 419.092 452.044 430.412 452.281C441.731 452.518 451.104 443.355 451.345 431.815Z" fill="#D9DADA"/>
<path opacity="0.47" d="M25.6994 98.0001C19.2994 86.7001 23.0994 72.2001 34.0994 65.7001C45.1994 59.1001 66.9994 58.4001 73.3994 69.7001C79.7994 81.0001 62.7994 91.9001 56.1994 103.1C47.0994 118.7 32.0994 109.3 25.6994 98.0001Z" fill="#ECF1F7"/>
<path opacity="0.47" d="M93.2994 452.1C85.2994 458 74.2994 456.1 68.4994 448C62.6994 439.9 60.5994 422.9 68.4994 417.1C76.3994 411.3 85.8994 423.6 94.6994 427.9C107.099 433.8 101.199 446.2 93.2994 452.1Z" fill="#D9DADA"/>
<path opacity="0.47" d="M408.4 24.3C417 15.2 431.2 15 440 23.8C448.8 32.6 455.2 53.2 446.6 62.2C438 71.3 423.6 58 411.7 54.7C395.2 50.1 399.8 33.4 408.4 24.3Z" fill="#FA8617"/>
</g>
<path opacity="0.58" d="M384.1 437.4C386.585 437.4 388.6 435.385 388.6 432.9C388.6 430.415 386.585 428.4 384.1 428.4C381.614 428.4 379.6 430.415 379.6 432.9C379.6 435.385 381.614 437.4 384.1 437.4Z" fill="#3E479B"/>
<path opacity="0.58" d="M270.2 39.7999C271.415 39.7999 272.4 38.8149 272.4 37.5999C272.4 36.3849 271.415 35.3999 270.2 35.3999C268.985 35.3999 268 36.3849 268 37.5999C268 38.8149 268.985 39.7999 270.2 39.7999Z" fill="#3E479B"/>
<path opacity="0.58" d="M131.301 448.2C133.786 448.2 135.801 446.185 135.801 443.7C135.801 441.215 133.786 439.2 131.301 439.2C128.815 439.2 126.801 441.215 126.801 443.7C126.801 446.185 128.815 448.2 131.301 448.2Z" fill="#FA8617"/>
<path opacity="0.58" d="M402.4 467.5C404.333 467.5 405.9 465.933 405.9 464C405.9 462.067 404.333 460.5 402.4 460.5C400.467 460.5 398.9 462.067 398.9 464C398.9 465.933 400.467 467.5 402.4 467.5Z" fill="#FA8617"/>
<path opacity="0.58" d="M58.0996 42.3C58.928 42.3 59.5996 41.6285 59.5996 40.8C59.5996 39.9716 58.928 39.3 58.0996 39.3C57.2712 39.3 56.5996 39.9716 56.5996 40.8C56.5996 41.6285 57.2712 42.3 58.0996 42.3Z" fill="#3E479B"/>
<path opacity="0.58" d="M469.012 83.1857C470.364 80.5276 469.305 77.2765 466.647 75.9244C463.989 74.5722 460.738 75.6309 459.386 78.289C458.034 80.9472 459.092 84.1982 461.751 85.5504C464.409 86.9026 467.66 85.8439 469.012 83.1857Z" fill="#FA8617"/>
<path opacity="0.58" d="M75.0991 26.7999C74.8991 27.8999 73.6991 28.6999 72.5991 28.3999C71.4991 28.1999 70.6991 26.9999 70.9991 25.8999C71.1991 24.7999 72.3991 23.9999 73.4991 24.2999C74.6991 24.4999 75.3991 25.6999 75.0991 26.7999Z" fill="#FA8617"/>
<path opacity="0.58" d="M289.8 20.0001C289.6 21.1001 288.4 21.9001 287.3 21.6001C286.2 21.4001 285.4 20.2001 285.7 19.1001C285.9 18.0001 287.1 17.2001 288.2 17.5001C289.3 17.7001 290 18.8001 289.8 20.0001Z" fill="#FA8617"/>
<path opacity="0.58" d="M438.601 86.4999C438.401 87.4999 437.401 88.0999 436.501 87.8999C435.501 87.6999 434.901 86.6999 435.101 85.7999C435.301 84.7999 436.301 84.1999 437.201 84.3999C438.201 84.5999 438.901 85.4999 438.601 86.4999Z" fill="#3E479B"/>
<path opacity="0.58" d="M41.1008 396.9C40.9008 397.9 39.9008 398.5 39.0008 398.3C38.0008 398.1 37.4008 397.1 37.6008 396.2C37.8008 395.2 38.8008 394.6 39.7008 394.8C40.7008 395 41.3008 395.9 41.1008 396.9Z" fill="#FA8617"/>
<g clip-path="url(#clip0_604_1633)">
<g opacity="0.66">
<path d="M355.741 206.74H347.921C346.349 206.724 344.845 206.092 343.734 204.979C342.624 203.867 341.994 202.362 341.981 200.79V192.01C341.972 191.204 341.72 190.42 341.258 189.759C340.796 189.099 340.145 188.594 339.391 188.31C338.471 187.97 337.551 187.59 336.661 187.18C335.923 186.836 335.098 186.726 334.296 186.863C333.493 187.001 332.752 187.38 332.171 187.95L325.961 194.16C324.847 195.274 323.336 195.899 321.761 195.899C320.186 195.899 318.675 195.274 317.561 194.16L312.041 188.64C310.939 187.518 310.321 186.008 310.321 184.435C310.321 182.862 310.939 181.352 312.041 180.23L318.251 174.03C318.821 173.449 319.2 172.708 319.338 171.905C319.475 171.103 319.365 170.278 319.021 169.54C318.601 168.64 318.221 167.72 317.891 166.81C317.606 166.054 317.099 165.402 316.437 164.94C315.775 164.478 314.988 164.227 314.181 164.22H305.401C303.82 164.204 302.309 163.565 301.197 162.441C300.085 161.318 299.461 159.801 299.461 158.22V150.42C299.461 148.839 300.085 147.322 301.197 146.198C302.309 145.075 303.82 144.436 305.401 144.42H314.181C314.988 144.413 315.775 144.162 316.437 143.7C317.099 143.238 317.606 142.586 317.891 141.83C318.221 140.92 318.601 140 319.021 139.1C319.365 138.362 319.475 137.537 319.338 136.735C319.2 135.932 318.821 135.191 318.251 134.61L312.041 128.4C310.927 127.286 310.301 125.775 310.301 124.2C310.301 122.625 310.927 121.114 312.041 120L317.561 114.48C318.675 113.366 320.186 112.74 321.761 112.74C323.336 112.74 324.847 113.366 325.961 114.48L332.171 120.69C332.752 121.26 333.493 121.639 334.296 121.777C335.098 121.914 335.923 121.804 336.661 121.46C337.561 121.04 338.481 120.66 339.391 120.33C340.145 120.046 340.796 119.541 341.258 118.88C341.72 118.22 341.972 117.436 341.981 116.63V107.85C341.994 106.278 342.624 104.773 343.734 103.661C344.845 102.548 346.349 101.916 347.921 101.9H355.731C357.303 101.916 358.806 102.548 359.917 103.661C361.028 104.773 361.658 106.278 361.671 107.85V116.63C361.68 117.436 361.932 118.22 362.394 118.88C362.856 119.541 363.507 120.046 364.261 120.33C365.181 120.66 366.101 121.04 366.991 121.46C367.729 121.804 368.554 121.914 369.356 121.777C370.158 121.639 370.9 121.26 371.481 120.69L377.691 114.48C378.813 113.378 380.323 112.76 381.896 112.76C383.469 112.76 384.979 113.378 386.101 114.48L391.621 120C392.72 121.121 393.336 122.629 393.336 124.2C393.336 125.77 392.72 127.278 391.621 128.4L385.411 134.61C384.841 135.191 384.462 135.932 384.324 136.735C384.187 137.537 384.297 138.362 384.641 139.1C385.051 140 385.431 140.92 385.771 141.83C386.055 142.584 386.56 143.235 387.22 143.697C387.881 144.159 388.665 144.411 389.471 144.42H398.251C399.832 144.436 401.343 145.075 402.455 146.198C403.567 147.322 404.191 148.839 404.191 150.42V158.29C404.191 159.871 403.567 161.388 402.455 162.511C401.343 163.635 399.832 164.274 398.251 164.29H389.471C388.665 164.299 387.881 164.551 387.22 165.013C386.56 165.475 386.055 166.126 385.771 166.88C385.431 167.79 385.051 168.71 384.641 169.6C384.295 170.339 384.183 171.166 384.321 171.971C384.458 172.775 384.839 173.518 385.411 174.1L391.621 180.3C392.723 181.422 393.341 182.932 393.341 184.505C393.341 186.078 392.723 187.588 391.621 188.71L386.101 194.23C384.979 195.332 383.469 195.95 381.896 195.95C380.323 195.95 378.813 195.332 377.691 194.23L371.481 188.02C370.9 187.45 370.158 187.071 369.356 186.933C368.554 186.796 367.729 186.906 366.991 187.25C366.101 187.66 365.181 188.04 364.261 188.38C363.507 188.664 362.856 189.169 362.394 189.829C361.932 190.49 361.68 191.274 361.671 192.08V200.86C361.64 202.418 361.004 203.903 359.897 205.001C358.79 206.098 357.299 206.722 355.741 206.74ZM334.981 184.81C335.855 184.81 336.718 185.001 337.511 185.37C338.351 185.75 339.221 186.11 340.091 186.43C341.23 186.855 342.212 187.617 342.909 188.613C343.605 189.61 343.983 190.794 343.991 192.01V200.79C344.004 201.832 344.423 202.827 345.159 203.565C345.894 204.303 346.889 204.724 347.931 204.74H355.741C356.783 204.724 357.777 204.303 358.513 203.565C359.249 202.827 359.668 201.832 359.681 200.79V192.01C359.689 190.794 360.066 189.61 360.763 188.613C361.459 187.617 362.442 186.855 363.581 186.43C364.451 186.11 365.321 185.75 366.161 185.37C367.27 184.852 368.511 184.685 369.718 184.892C370.924 185.1 372.038 185.671 372.911 186.53L379.111 192.74C379.858 193.467 380.859 193.874 381.901 193.874C382.943 193.874 383.944 193.467 384.691 192.74L390.211 187.23C390.938 186.483 391.345 185.482 391.345 184.44C391.345 183.398 390.938 182.397 390.211 181.65L384.001 175.44C383.14 174.569 382.567 173.455 382.358 172.248C382.149 171.042 382.314 169.8 382.831 168.69C383.221 167.85 383.581 166.98 383.901 166.12C384.326 164.981 385.088 163.998 386.084 163.302C387.081 162.605 388.265 162.228 389.481 162.22H398.261C399.311 162.204 400.313 161.776 401.051 161.027C401.788 160.279 402.201 159.27 402.201 158.22V150.42C402.201 149.369 401.788 148.361 401.051 147.612C400.313 146.864 399.311 146.436 398.261 146.42H389.481C388.265 146.412 387.081 146.034 386.084 145.338C385.088 144.641 384.326 143.659 383.901 142.52C383.581 141.66 383.221 140.79 382.831 139.94C382.316 138.831 382.152 137.591 382.361 136.387C382.57 135.182 383.142 134.07 384.001 133.2L390.211 126.99C390.938 126.243 391.345 125.242 391.345 124.2C391.345 123.158 390.938 122.157 390.211 121.41L384.691 115.89C383.944 115.163 382.943 114.756 381.901 114.756C380.859 114.756 379.858 115.163 379.111 115.89L372.911 122.1C372.04 122.96 370.926 123.534 369.719 123.743C368.513 123.952 367.271 123.787 366.161 123.27C365.311 122.88 364.451 122.52 363.581 122.21C362.442 121.784 361.459 121.023 360.763 120.027C360.066 119.03 359.689 117.846 359.681 116.63V107.85C359.668 106.808 359.249 105.812 358.513 105.075C357.777 104.337 356.783 103.915 355.741 103.9H347.921C346.879 103.915 345.884 104.337 345.149 105.075C344.413 105.812 343.994 106.808 343.981 107.85V116.63C343.973 117.846 343.595 119.03 342.899 120.027C342.202 121.023 341.22 121.784 340.081 122.21C339.211 122.52 338.351 122.88 337.501 123.27C336.392 123.785 335.152 123.949 333.948 123.74C332.743 123.53 331.631 122.958 330.761 122.1L324.551 115.89C323.804 115.163 322.803 114.756 321.761 114.756C320.719 114.756 319.718 115.163 318.971 115.89L313.451 121.41C312.724 122.157 312.317 123.158 312.317 124.2C312.317 125.242 312.724 126.243 313.451 126.99L319.661 133.2C320.521 134.071 321.095 135.185 321.304 136.392C321.513 137.598 321.348 138.84 320.831 139.95C320.441 140.79 320.081 141.66 319.761 142.52C319.335 143.659 318.574 144.641 317.578 145.338C316.581 146.034 315.397 146.412 314.181 146.42H305.401C304.35 146.436 303.348 146.864 302.611 147.612C301.874 148.361 301.461 149.369 301.461 150.42V158.29C301.461 159.34 301.874 160.349 302.611 161.097C303.348 161.846 304.35 162.274 305.401 162.29H314.181C315.397 162.298 316.581 162.675 317.578 163.372C318.574 164.068 319.335 165.051 319.761 166.19C320.081 167.05 320.441 167.92 320.831 168.77C321.346 169.879 321.51 171.118 321.301 172.323C321.091 173.528 320.519 174.639 319.661 175.51L313.451 181.72C312.724 182.467 312.317 183.468 312.317 184.51C312.317 185.552 312.724 186.553 313.451 187.3L318.971 192.81C319.718 193.537 320.719 193.944 321.761 193.944C322.803 193.944 323.804 193.537 324.551 192.81L330.761 186.6C331.31 186.036 331.966 185.588 332.691 185.281C333.415 184.973 334.194 184.813 334.981 184.81ZM351.841 181.81C346.412 181.81 341.105 180.2 336.59 177.184C332.076 174.168 328.558 169.88 326.48 164.865C324.403 159.849 323.859 154.329 324.918 149.005C325.977 143.68 328.592 138.789 332.431 134.95C336.27 131.111 341.161 128.497 346.486 127.437C351.81 126.378 357.33 126.922 362.346 128.999C367.361 131.077 371.649 134.595 374.665 139.109C377.681 143.624 379.291 148.931 379.291 154.36C379.286 161.639 376.392 168.619 371.246 173.768C366.099 178.916 359.12 181.812 351.841 181.82V181.81ZM351.841 128.91C346.807 128.91 341.887 130.403 337.702 133.199C333.516 135.995 330.254 139.97 328.328 144.621C326.402 149.271 325.898 154.388 326.88 159.325C327.862 164.262 330.286 168.797 333.845 172.356C337.404 175.915 341.939 178.339 346.876 179.321C351.813 180.303 356.93 179.799 361.58 177.873C366.231 175.946 370.205 172.684 373.002 168.499C375.798 164.314 377.291 159.393 377.291 154.36C377.28 147.614 374.595 141.148 369.824 136.379C365.054 131.61 358.587 128.928 351.841 128.92V128.91Z" fill="white"/>
<g opacity="0.84">
<path d="M341.21 349.43H331.47C330.347 349.429 329.25 349.083 328.329 348.44C327.409 347.796 326.707 346.885 326.32 345.83C325.95 344.83 325.55 343.83 325.1 342.83C324.622 341.806 324.469 340.659 324.662 339.545C324.855 338.432 325.385 337.404 326.18 336.6L333.06 329.72C334.089 328.691 334.666 327.295 334.666 325.84C334.666 324.385 334.089 322.989 333.06 321.96L326.92 315.89C326.412 315.381 325.807 314.977 325.143 314.702C324.478 314.427 323.765 314.285 323.045 314.285C322.326 314.285 321.613 314.427 320.948 314.702C320.283 314.977 319.679 315.381 319.17 315.89L312.28 322.78C311.478 323.576 310.45 324.107 309.335 324.3C308.221 324.494 307.074 324.34 306.05 323.86C305.05 323.41 304.11 323 303.11 322.64C302.056 322.252 301.146 321.55 300.503 320.63C299.859 319.709 299.513 318.613 299.51 317.49V307.75C299.51 306.297 298.933 304.903 297.905 303.875C296.878 302.847 295.484 302.27 294.03 302.27H285.37C283.917 302.27 282.523 302.847 281.495 303.875C280.468 304.903 279.89 306.297 279.89 307.75V317.49C279.888 318.613 279.542 319.709 278.898 320.63C278.255 321.55 277.345 322.252 276.29 322.64C275.29 323 274.29 323.41 273.35 323.86C272.326 324.34 271.18 324.494 270.065 324.3C268.951 324.107 267.923 323.576 267.12 322.78L260.23 315.89C259.722 315.381 259.117 314.977 258.453 314.702C257.788 314.427 257.075 314.285 256.355 314.285C255.636 314.285 254.923 314.427 254.258 314.702C253.593 314.977 252.989 315.381 252.48 315.89L246.36 322.01C245.332 323.039 244.754 324.435 244.754 325.89C244.754 327.345 245.332 328.741 246.36 329.77L253.24 336.65C254.036 337.454 254.566 338.482 254.759 339.595C254.952 340.709 254.799 341.856 254.32 342.88C253.87 343.88 253.47 344.88 253.1 345.88C252.715 346.936 252.014 347.847 251.093 348.491C250.171 349.135 249.074 349.481 247.95 349.48H238.22C237.5 349.479 236.786 349.619 236.12 349.894C235.454 350.169 234.849 350.573 234.339 351.082C233.829 351.591 233.425 352.195 233.149 352.861C232.873 353.526 232.73 354.24 232.73 354.96V363.61C232.73 365.066 233.309 366.462 234.338 367.492C235.368 368.522 236.764 369.1 238.22 369.1H247.95C249.074 369.099 250.171 369.445 251.093 370.089C252.014 370.733 252.715 371.644 253.1 372.7C253.47 373.7 253.87 374.7 254.32 375.64C254.799 376.664 254.952 377.811 254.759 378.925C254.566 380.039 254.036 381.066 253.24 381.87L246.36 388.75C245.332 389.779 244.754 391.175 244.754 392.63C244.754 394.085 245.332 395.481 246.36 396.51L252.48 402.63C252.989 403.139 253.593 403.543 254.258 403.818C254.923 404.093 255.636 404.235 256.355 404.235C257.075 404.235 257.788 404.093 258.453 403.818C259.117 403.543 259.722 403.139 260.23 402.63L267.12 395.74C267.923 394.943 268.951 394.412 270.066 394.221C271.181 394.029 272.328 394.186 273.35 394.67C274.35 395.11 275.29 395.52 276.29 395.89C277.345 396.274 278.257 396.973 278.901 397.892C279.545 398.812 279.89 399.907 279.89 401.03V410.77C279.89 412.223 280.468 413.617 281.495 414.645C282.523 415.673 283.917 416.25 285.37 416.25H294.03C295.484 416.25 296.878 415.673 297.905 414.645C298.933 413.617 299.51 412.223 299.51 410.77V401.03C299.51 399.907 299.856 398.812 300.5 397.892C301.144 396.973 302.055 396.274 303.11 395.89C304.11 395.52 305.11 395.11 306.05 394.67C307.073 394.186 308.22 394.029 309.334 394.221C310.449 394.412 311.478 394.943 312.28 395.74L319.17 402.63C319.679 403.139 320.283 403.543 320.948 403.818C321.613 404.093 322.326 404.235 323.045 404.235C323.765 404.235 324.478 404.093 325.143 403.818C325.807 403.543 326.412 403.139 326.92 402.63L333.04 396.51C334.069 395.481 334.646 394.085 334.646 392.63C334.646 391.175 334.069 389.779 333.04 388.75L326.16 381.87C325.365 381.066 324.835 380.039 324.642 378.925C324.449 377.811 324.602 376.664 325.08 375.64C325.53 374.64 325.93 373.7 326.3 372.7C326.687 371.645 327.388 370.734 328.309 370.09C329.23 369.447 330.327 369.101 331.45 369.1H341.19C342.645 369.097 344.039 368.518 345.066 367.488C346.093 366.459 346.67 365.064 346.67 363.61V354.96C346.677 354.238 346.541 353.522 346.27 352.852C345.998 352.183 345.598 351.574 345.09 351.06C344.583 350.546 343.979 350.137 343.313 349.858C342.647 349.578 341.933 349.433 341.21 349.43ZM289.72 388.57C283.915 388.572 278.239 386.851 273.411 383.626C268.583 380.401 264.821 375.815 262.601 370.451C260.381 365.086 259.802 359.184 260.937 353.49C262.073 347.796 264.873 342.568 268.982 338.466C273.091 334.364 278.324 331.573 284.02 330.447C289.715 329.321 295.617 329.91 300.978 332.14C306.338 334.369 310.917 338.139 314.134 342.972C317.351 347.805 319.062 353.484 319.05 359.29C319.037 367.06 315.941 374.507 310.442 379.997C304.943 385.487 297.491 388.57 289.72 388.57Z" fill="white"/>
</g>
<path d="M188.92 407.75H182.37C181.003 407.75 179.692 407.208 178.725 406.242C177.758 405.277 177.213 403.967 177.21 402.6V395.22C177.219 394.567 177.024 393.927 176.653 393.39C176.282 392.853 175.754 392.444 175.14 392.22C174.37 391.94 173.59 391.62 172.84 391.22C172.25 390.946 171.59 390.858 170.948 390.969C170.307 391.08 169.714 391.384 169.25 391.84L164.03 397.05C163.552 397.529 162.984 397.909 162.358 398.169C161.733 398.428 161.062 398.562 160.385 398.562C159.708 398.562 159.038 398.428 158.412 398.169C157.787 397.909 157.218 397.529 156.74 397.05L152.11 392.42C151.631 391.941 151.251 391.373 150.991 390.748C150.732 390.122 150.598 389.452 150.598 388.775C150.598 388.098 150.732 387.427 150.991 386.802C151.251 386.176 151.631 385.608 152.11 385.13L157.32 379.92C157.778 379.456 158.082 378.864 158.193 378.222C158.304 377.58 158.216 376.92 157.94 376.33C157.594 375.57 157.26 374.8 156.94 374.02C156.716 373.406 156.307 372.878 155.77 372.507C155.233 372.136 154.593 371.941 153.94 371.95H146.57C145.203 371.95 143.892 371.408 142.925 370.442C141.958 369.477 141.413 368.167 141.41 366.8V360.29C141.413 358.923 141.958 357.613 142.925 356.648C143.892 355.682 145.203 355.14 146.57 355.14H153.94C154.593 355.148 155.233 354.954 155.77 354.583C156.307 354.212 156.716 353.683 156.94 353.07C157.227 352.276 157.56 351.506 157.94 350.76C158.217 350.17 158.306 349.509 158.195 348.867C158.084 348.225 157.779 347.633 157.32 347.17L152.11 341.95C151.631 341.472 151.251 340.905 150.992 340.28C150.733 339.656 150.599 338.986 150.599 338.31C150.599 337.634 150.733 336.964 150.992 336.339C151.251 335.715 151.631 335.147 152.11 334.67L156.74 330.03C157.707 329.064 159.018 328.522 160.385 328.522C161.752 328.522 163.063 329.064 164.03 330.03L169.25 335.25C169.714 335.707 170.307 336.01 170.949 336.12C171.591 336.229 172.251 336.138 172.84 335.86C173.58 335.52 174.36 335.19 175.14 334.86C175.752 334.634 176.279 334.224 176.649 333.687C177.02 333.15 177.216 332.512 177.21 331.86V324.48C177.213 323.113 177.758 321.803 178.725 320.838C179.692 319.872 181.003 319.33 182.37 319.33H188.92C190.287 319.33 191.598 319.872 192.565 320.838C193.533 321.803 194.078 323.113 194.08 324.48V331.86C194.075 332.512 194.27 333.15 194.641 333.687C195.011 334.224 195.538 334.634 196.15 334.86C196.93 335.14 197.71 335.47 198.45 335.86C199.039 336.138 199.699 336.229 200.341 336.12C200.983 336.01 201.576 335.707 202.04 335.25L207.26 330.03C208.228 329.064 209.538 328.522 210.905 328.522C212.272 328.522 213.583 329.064 214.55 330.03L219.18 334.67C219.659 335.147 220.039 335.715 220.298 336.339C220.558 336.964 220.691 337.634 220.691 338.31C220.691 338.986 220.558 339.656 220.298 340.28C220.039 340.905 219.659 341.472 219.18 341.95L213.97 347.17C213.514 347.634 213.21 348.227 213.099 348.868C212.989 349.509 213.076 350.169 213.35 350.76C213.697 351.513 214.03 352.283 214.35 353.07C214.574 353.683 214.983 354.212 215.52 354.583C216.058 354.954 216.697 355.148 217.35 355.14H224.72C226.087 355.14 227.398 355.682 228.365 356.648C229.333 357.613 229.877 358.923 229.88 360.29V366.85C229.877 368.217 229.333 369.527 228.365 370.492C227.398 371.458 226.087 372 224.72 372H217.35C216.697 371.991 216.058 372.186 215.52 372.557C214.983 372.928 214.574 373.456 214.35 374.07C214.064 374.85 213.73 375.62 213.35 376.38C213.075 376.97 212.986 377.63 213.097 378.272C213.208 378.914 213.513 379.506 213.97 379.97L219.18 385.18C219.659 385.658 220.04 386.226 220.299 386.852C220.558 387.477 220.692 388.148 220.692 388.825C220.692 389.502 220.558 390.172 220.299 390.798C220.04 391.423 219.659 391.991 219.18 392.47L214.55 397.1C214.072 397.579 213.504 397.959 212.878 398.219C212.253 398.478 211.582 398.612 210.905 398.612C210.228 398.612 209.558 398.478 208.932 398.219C208.307 397.959 207.738 397.579 207.26 397.1L202.04 391.89C201.576 391.434 200.983 391.13 200.342 391.019C199.701 390.908 199.041 390.996 198.45 391.27C197.69 391.63 196.92 391.95 196.15 392.27C195.537 392.494 195.008 392.903 194.637 393.44C194.266 393.977 194.072 394.617 194.08 395.27V402.65C194.064 404.008 193.514 405.305 192.548 406.26C191.582 407.215 190.278 407.75 188.92 407.75ZM171.48 389.01C172.24 389.01 172.99 389.174 173.68 389.49C174.39 389.82 175.11 390.12 175.83 390.38C176.819 390.746 177.673 391.406 178.277 392.271C178.881 393.136 179.207 394.165 179.21 395.22V402.6C179.213 403.436 179.547 404.237 180.139 404.828C180.732 405.418 181.534 405.75 182.37 405.75H188.92C189.757 405.75 190.559 405.418 191.151 404.828C191.743 404.237 192.078 403.436 192.08 402.6V395.22C192.084 394.165 192.409 393.136 193.013 392.271C193.617 391.406 194.471 390.746 195.46 390.38C196.18 390.12 196.9 389.82 197.61 389.49C198.571 389.041 199.646 388.897 200.692 389.075C201.737 389.254 202.703 389.748 203.46 390.49L208.67 395.71C209.271 396.283 210.07 396.603 210.9 396.603C211.731 396.603 212.529 396.283 213.13 395.71L217.77 391.07C218.359 390.479 218.69 389.679 218.69 388.845C218.69 388.011 218.359 387.21 217.77 386.62L212.55 381.4C211.807 380.643 211.312 379.677 211.134 378.632C210.955 377.586 211.1 376.511 211.55 375.55C211.87 374.85 212.17 374.13 212.44 373.4C212.807 372.411 213.467 371.557 214.332 370.953C215.196 370.349 216.225 370.023 217.28 370.02H224.65C225.487 370.02 226.289 369.688 226.881 369.098C227.473 368.507 227.808 367.706 227.81 366.87V360.29C227.808 359.453 227.473 358.652 226.881 358.062C226.289 357.471 225.487 357.14 224.65 357.14H217.28C216.225 357.136 215.196 356.811 214.332 356.207C213.467 355.603 212.807 354.749 212.44 353.76C212.17 353.02 211.87 352.3 211.55 351.6C211.1 350.641 210.954 349.567 211.133 348.523C211.312 347.478 211.806 346.514 212.55 345.76L217.77 340.54C218.36 339.948 218.691 339.146 218.691 338.31C218.691 337.474 218.36 336.672 217.77 336.08L213.13 331.44C212.537 330.852 211.735 330.523 210.9 330.523C210.065 330.523 209.264 330.852 208.67 331.44L203.46 336.66C202.702 337.401 201.736 337.893 200.691 338.072C199.646 338.251 198.571 338.107 197.61 337.66C196.92 337.33 196.19 337.03 195.46 336.76C194.471 336.396 193.617 335.739 193.012 334.875C192.408 334.012 192.083 332.984 192.08 331.93V324.55C192.078 323.713 191.743 322.912 191.151 322.322C190.559 321.731 189.757 321.4 188.92 321.4H182.37C181.534 321.4 180.732 321.731 180.139 322.322C179.547 322.912 179.213 323.713 179.21 324.55V331.93C179.207 332.984 178.882 334.012 178.278 334.875C177.674 335.739 176.819 336.396 175.83 336.76C175.1 337.03 174.38 337.33 173.68 337.66C172.719 338.107 171.644 338.251 170.599 338.072C169.554 337.893 168.588 337.401 167.83 336.66L162.62 331.44C162.027 330.852 161.225 330.523 160.39 330.523C159.555 330.523 158.754 330.852 158.16 331.44L153.52 336.08C152.93 336.672 152.599 337.474 152.599 338.31C152.599 339.146 152.93 339.948 153.52 340.54L158.74 345.76C159.484 346.514 159.979 347.478 160.158 348.523C160.336 349.567 160.191 350.641 159.74 351.6C159.42 352.3 159.12 353.02 158.85 353.76C158.485 354.75 157.825 355.604 156.96 356.209C156.095 356.813 155.065 357.138 154.01 357.14H146.64C145.804 357.14 145.002 357.471 144.409 358.062C143.817 358.652 143.483 359.453 143.48 360.29V366.85C143.483 367.686 143.817 368.487 144.409 369.078C145.002 369.668 145.804 370 146.64 370H154.01C155.065 370.002 156.095 370.327 156.96 370.931C157.825 371.535 158.485 372.39 158.85 373.38C159.12 374.11 159.42 374.83 159.74 375.53C160.19 376.491 160.335 377.566 160.157 378.612C159.978 379.657 159.484 380.623 158.74 381.38L153.52 386.6C152.931 387.19 152.6 387.991 152.6 388.825C152.6 389.659 152.931 390.459 153.52 391.05L158.16 395.69C158.761 396.263 159.56 396.583 160.39 396.583C161.221 396.583 162.019 396.263 162.62 395.69L167.83 390.47C168.802 389.525 170.105 389.001 171.46 389.01H171.48ZM185.65 386.82C181.057 386.822 176.567 385.462 172.747 382.911C168.927 380.361 165.95 376.735 164.191 372.493C162.432 368.25 161.97 363.581 162.865 359.076C163.76 354.571 165.971 350.433 169.218 347.184C172.465 343.936 176.602 341.723 181.106 340.827C185.611 339.93 190.28 340.389 194.524 342.146C198.767 343.904 202.394 346.88 204.946 350.698C207.498 354.517 208.86 359.007 208.86 363.6C208.855 369.758 206.405 375.663 202.05 380.017C197.694 384.37 191.789 386.817 185.63 386.82H185.65ZM185.65 342.38C181.453 342.378 177.349 343.621 173.858 345.951C170.367 348.282 167.646 351.595 166.038 355.472C164.431 359.35 164.009 363.617 164.827 367.734C165.644 371.85 167.665 375.632 170.632 378.601C173.599 381.57 177.38 383.592 181.497 384.411C185.613 385.231 189.88 384.811 193.758 383.206C197.636 381.6 200.951 378.88 203.283 375.39C205.615 371.9 206.86 367.797 206.86 363.6C206.855 357.972 204.616 352.576 200.636 348.597C196.655 344.619 191.258 342.382 185.63 342.38H185.65Z" fill="white"/>
</g>
<g opacity="0.81">
<path d="M401.049 299.29H388.049C387.784 299.29 387.529 299.185 387.342 298.997C387.154 298.81 387.049 298.555 387.049 298.29C387.049 298.025 387.154 297.77 387.342 297.583C387.529 297.395 387.784 297.29 388.049 297.29H401.049C401.314 297.29 401.568 297.395 401.756 297.583C401.944 297.77 402.049 298.025 402.049 298.29C402.049 298.555 401.944 298.81 401.756 298.997C401.568 299.185 401.314 299.29 401.049 299.29Z" fill="white"/>
<path d="M401.049 320.76H388.049C387.784 320.76 387.529 320.655 387.342 320.467C387.154 320.28 387.049 320.025 387.049 319.76C387.049 319.495 387.154 319.24 387.342 319.053C387.529 318.865 387.784 318.76 388.049 318.76H401.049C401.314 318.76 401.568 318.865 401.756 319.053C401.944 319.24 402.049 319.495 402.049 319.76C402.049 320.025 401.944 320.28 401.756 320.467C401.568 320.655 401.314 320.76 401.049 320.76Z" fill="white"/>
<path d="M410.259 342.45H330.999C330.28 342.45 329.591 342.165 329.083 341.656C328.575 341.148 328.289 340.459 328.289 339.74V273.47C328.289 272.751 328.575 272.062 329.083 271.554C329.591 271.046 330.28 270.76 330.999 270.76H410.259C410.978 270.76 411.667 271.046 412.175 271.554C412.684 272.062 412.969 272.751 412.969 273.47V339.74C412.969 340.459 412.684 341.148 412.175 341.656C411.667 342.165 410.978 342.45 410.259 342.45ZM330.999 272.76C330.811 272.76 330.63 272.835 330.497 272.968C330.364 273.101 330.289 273.282 330.289 273.47V339.74C330.289 339.928 330.364 340.109 330.497 340.242C330.63 340.375 330.811 340.45 330.999 340.45H410.259C410.447 340.45 410.628 340.375 410.761 340.242C410.894 340.109 410.969 339.928 410.969 339.74V273.47C410.969 273.282 410.894 273.101 410.761 272.968C410.628 272.835 410.447 272.76 410.259 272.76H330.999Z" fill="white"/>
<path opacity="0.66" d="M410.259 342.45H330.999C330.28 342.45 329.591 342.165 329.083 341.656C328.575 341.148 328.289 340.459 328.289 339.74V273.47C328.289 272.751 328.575 272.062 329.083 271.554C329.591 271.046 330.28 270.76 330.999 270.76H410.259C410.978 270.76 411.667 271.046 412.175 271.554C412.684 272.062 412.969 272.751 412.969 273.47V339.74C412.969 340.459 412.684 341.148 412.175 341.656C411.667 342.165 410.978 342.45 410.259 342.45ZM330.999 272.76C330.811 272.76 330.63 272.835 330.497 272.968C330.364 273.101 330.289 273.282 330.289 273.47V339.74C330.289 339.928 330.364 340.109 330.497 340.242C330.63 340.375 330.811 340.45 330.999 340.45H410.259C410.447 340.45 410.628 340.375 410.761 340.242C410.894 340.109 410.969 339.928 410.969 339.74V273.47C410.969 273.282 410.894 273.101 410.761 272.968C410.628 272.835 410.447 272.76 410.259 272.76H330.999Z" fill="white"/>
<path d="M401.05 288.85H338.92C338.655 288.85 338.4 288.745 338.213 288.557C338.025 288.37 337.92 288.115 337.92 287.85C337.92 287.585 338.025 287.331 338.213 287.143C338.4 286.955 338.655 286.85 338.92 286.85H401.05C401.315 286.85 401.57 286.955 401.757 287.143C401.945 287.331 402.05 287.585 402.05 287.85C402.05 288.115 401.945 288.37 401.757 288.557C401.57 288.745 401.315 288.85 401.05 288.85Z" fill="white"/>
<path d="M401.05 309.7H338.92C338.655 309.7 338.4 309.595 338.213 309.407C338.025 309.22 337.92 308.965 337.92 308.7C337.92 308.435 338.025 308.18 338.213 307.993C338.4 307.805 338.655 307.7 338.92 307.7H401.05C401.315 307.7 401.57 307.805 401.757 307.993C401.945 308.18 402.05 308.435 402.05 308.7C402.05 308.965 401.945 309.22 401.757 309.407C401.57 309.595 401.315 309.7 401.05 309.7Z" fill="white"/>
<path d="M372.42 299.29H338.92C338.655 299.29 338.4 299.185 338.213 298.997C338.025 298.81 337.92 298.555 337.92 298.29C337.92 298.025 338.025 297.77 338.213 297.583C338.4 297.395 338.655 297.29 338.92 297.29H372.42C372.685 297.29 372.94 297.395 373.127 297.583C373.315 297.77 373.42 298.025 373.42 298.29C373.42 298.555 373.315 298.81 373.127 298.997C372.94 299.185 372.685 299.29 372.42 299.29Z" fill="white"/>
<path d="M372.42 320.76H338.92C338.655 320.76 338.4 320.655 338.213 320.467C338.025 320.28 337.92 320.025 337.92 319.76C337.92 319.495 338.025 319.24 338.213 319.053C338.4 318.865 338.655 318.76 338.92 318.76H372.42C372.685 318.76 372.94 318.865 373.127 319.053C373.315 319.24 373.42 319.495 373.42 319.76C373.42 320.025 373.315 320.28 373.127 320.467C372.94 320.655 372.685 320.76 372.42 320.76Z" fill="white"/>
<path d="M361.51 330.71H338.92C338.655 330.71 338.4 330.605 338.213 330.417C338.025 330.23 337.92 329.975 337.92 329.71C337.92 329.445 338.025 329.19 338.213 329.003C338.4 328.815 338.655 328.71 338.92 328.71H361.51C361.775 328.71 362.03 328.815 362.217 329.003C362.405 329.19 362.51 329.445 362.51 329.71C362.51 329.975 362.405 330.23 362.217 330.417C362.03 330.605 361.775 330.71 361.51 330.71Z" fill="white"/>
</g>
<g opacity="0.81">
<path d="M147.409 189.91H132.619C132.354 189.91 132.1 189.805 131.912 189.617C131.725 189.43 131.619 189.175 131.619 188.91C131.619 188.645 131.725 188.391 131.912 188.203C132.1 188.016 132.354 187.91 132.619 187.91H147.409C147.674 187.91 147.929 188.016 148.116 188.203C148.304 188.391 148.409 188.645 148.409 188.91C148.409 189.175 148.304 189.43 148.116 189.617C147.929 189.805 147.674 189.91 147.409 189.91Z" fill="white"/>
<path d="M147.409 214.29H132.619C132.354 214.29 132.1 214.185 131.912 213.997C131.725 213.81 131.619 213.555 131.619 213.29C131.619 213.025 131.725 212.77 131.912 212.583C132.1 212.395 132.354 212.29 132.619 212.29H147.409C147.674 212.29 147.929 212.395 148.116 212.583C148.304 212.77 148.409 213.025 148.409 213.29C148.409 213.555 148.304 213.81 148.116 213.997C147.929 214.185 147.674 214.29 147.409 214.29Z" fill="white"/>
<path d="M158.1 238.9H67.71C66.992 238.897 66.3043 238.611 65.7966 238.103C65.289 237.596 65.0026 236.908 65 236.19V160.54C65.0026 159.822 65.289 159.134 65.7966 158.627C66.3043 158.119 66.992 157.833 67.71 157.83H158.1C158.818 157.833 159.506 158.119 160.013 158.627C160.521 159.134 160.807 159.822 160.81 160.54V236.19C160.807 236.908 160.521 237.596 160.013 238.103C159.506 238.611 158.818 238.897 158.1 238.9ZM67.71 159.83C67.5217 159.83 67.3411 159.905 67.2079 160.038C67.0748 160.171 67 160.352 67 160.54V236.19C67 236.378 67.0748 236.559 67.2079 236.692C67.3411 236.825 67.5217 236.9 67.71 236.9H158.1C158.288 236.9 158.469 236.825 158.602 236.692C158.735 236.559 158.81 236.378 158.81 236.19V160.54C158.81 160.352 158.735 160.171 158.602 160.038C158.469 159.905 158.288 159.83 158.1 159.83H67.71Z" fill="white"/>
<path opacity="0.66" d="M158.1 238.9H67.71C66.992 238.897 66.3043 238.611 65.7966 238.103C65.289 237.596 65.0026 236.908 65 236.19V160.54C65.0026 159.822 65.289 159.134 65.7966 158.627C66.3043 158.119 66.992 157.833 67.71 157.83H158.1C158.818 157.833 159.506 158.119 160.013 158.627C160.521 159.134 160.807 159.822 160.81 160.54V236.19C160.807 236.908 160.521 237.596 160.013 238.103C159.506 238.611 158.818 238.897 158.1 238.9ZM67.71 159.83C67.5217 159.83 67.3411 159.905 67.2079 160.038C67.0748 160.171 67 160.352 67 160.54V236.19C67 236.378 67.0748 236.559 67.2079 236.692C67.3411 236.825 67.5217 236.9 67.71 236.9H158.1C158.288 236.9 158.469 236.825 158.602 236.692C158.735 236.559 158.81 236.378 158.81 236.19V160.54C158.81 160.352 158.735 160.171 158.602 160.038C158.469 159.905 158.288 159.83 158.1 159.83H67.71Z" fill="white"/>
<path d="M147.41 178.08H76.9199C76.6547 178.08 76.4004 177.975 76.2128 177.787C76.0253 177.6 75.9199 177.345 75.9199 177.08C75.9199 176.815 76.0253 176.561 76.2128 176.373C76.4004 176.185 76.6547 176.08 76.9199 176.08H147.4C147.665 176.08 147.92 176.185 148.107 176.373C148.295 176.561 148.4 176.815 148.4 177.08C148.4 177.345 148.295 177.6 148.107 177.787C147.92 177.975 147.665 178.08 147.4 178.08H147.41Z" fill="white"/>
<path d="M147.41 201.74H76.9199C76.6547 201.74 76.4004 201.635 76.2128 201.447C76.0253 201.26 75.9199 201.005 75.9199 200.74C75.9199 200.475 76.0253 200.22 76.2128 200.033C76.4004 199.845 76.6547 199.74 76.9199 199.74H147.4C147.665 199.74 147.92 199.845 148.107 200.033C148.295 200.22 148.4 200.475 148.4 200.74C148.4 201.005 148.295 201.26 148.107 201.447C147.92 201.635 147.665 201.74 147.4 201.74H147.41Z" fill="white"/>
<path d="M114.92 189.91H76.9199C76.6547 189.91 76.4004 189.805 76.2128 189.617C76.0253 189.43 75.9199 189.175 75.9199 188.91C75.9199 188.645 76.0253 188.391 76.2128 188.203C76.4004 188.016 76.6547 187.91 76.9199 187.91H114.92C115.185 187.91 115.439 188.016 115.627 188.203C115.815 188.391 115.92 188.645 115.92 188.91C115.92 189.175 115.815 189.43 115.627 189.617C115.439 189.805 115.185 189.91 114.92 189.91Z" fill="white"/>
<path d="M114.92 214.29H76.9199C76.6547 214.29 76.4004 214.185 76.2128 213.997C76.0253 213.81 75.9199 213.555 75.9199 213.29C75.9199 213.025 76.0253 212.77 76.2128 212.583C76.4004 212.395 76.6547 212.29 76.9199 212.29H114.92C115.185 212.29 115.439 212.395 115.627 212.583C115.815 212.77 115.92 213.025 115.92 213.29C115.92 213.555 115.815 213.81 115.627 213.997C115.439 214.185 115.185 214.29 114.92 214.29Z" fill="white"/>
<path d="M102.56 225.58H76.9199C76.6547 225.58 76.4004 225.475 76.2128 225.287C76.0253 225.1 75.9199 224.845 75.9199 224.58C75.9199 224.315 76.0253 224.06 76.2128 223.873C76.4004 223.685 76.6547 223.58 76.9199 223.58H102.55C102.815 223.58 103.069 223.685 103.257 223.873C103.445 224.06 103.55 224.315 103.55 224.58C103.55 224.845 103.445 225.1 103.257 225.287C103.069 225.475 102.815 225.58 102.55 225.58H102.56Z" fill="white"/>
</g>
</g>
<g clip-path="url(#clip1_604_1633)">
<path d="M425.64 151H380.64C379.601 151.047 378.606 151.429 377.802 152.089C376.998 152.749 376.429 153.65 376.18 154.66L374.69 159.6C374.441 160.61 373.872 161.511 373.068 162.171C372.264 162.831 371.269 163.213 370.23 163.26H305.89C303.28 163.26 301.17 165.7 301.17 168.71V241.56C301.17 244.56 303.28 247.01 305.89 247.01H425.59C426.973 246.943 428.273 246.332 429.209 245.312C430.146 244.292 430.642 242.944 430.59 241.56V156.45C430.642 155.075 430.153 153.734 429.227 152.715C428.302 151.696 427.014 151.08 425.64 151Z" fill="#4E5093"/>
<path opacity="0.12" d="M379.75 164.03L381.34 159.09C381.641 158.053 382.265 157.14 383.121 156.481C383.977 155.823 385.02 155.455 386.1 155.43H425.67C427.053 155.497 428.354 156.107 429.29 157.128C430.226 158.148 430.722 159.496 430.67 160.88V245.98C430.722 247.364 430.226 248.712 429.29 249.732C428.354 250.752 427.053 251.362 425.67 251.43H306.26C304.876 251.365 303.574 250.756 302.637 249.735C301.701 248.714 301.206 247.364 301.26 245.98V173.13C301.206 171.746 301.701 170.396 302.637 169.375C303.574 168.354 304.876 167.745 306.26 167.68H374.96C376.043 167.66 377.091 167.296 377.953 166.639C378.814 165.983 379.444 165.069 379.75 164.03Z" fill="#ABADE7"/>
<path opacity="0.12" d="M382.651 169.05L384.141 164.39C384.428 163.414 385.017 162.554 385.824 161.934C386.631 161.314 387.613 160.966 388.631 160.94H425.931C427.237 161.005 428.467 161.579 429.355 162.54C430.243 163.501 430.719 164.772 430.681 166.08V246.3C430.716 247.606 430.239 248.874 429.351 249.833C428.463 250.792 427.236 251.365 425.931 251.43H313.401C312.096 251.365 310.868 250.792 309.98 249.833C309.092 248.874 308.615 247.606 308.651 246.3V177.63C308.612 176.322 309.088 175.051 309.976 174.09C310.864 173.129 312.094 172.555 313.401 172.49H378.161C379.177 172.466 380.159 172.12 380.966 171.502C381.773 170.883 382.363 170.025 382.651 169.05Z" fill="#ABADE7"/>
<path d="M417.04 245.29H387.51C387.245 245.29 386.99 245.185 386.803 244.997C386.615 244.81 386.51 244.555 386.51 244.29C386.51 244.025 386.615 243.77 386.803 243.583C386.99 243.395 387.245 243.29 387.51 243.29H417.04C417.957 243.29 418.837 242.925 419.486 242.277C420.135 241.628 420.5 240.748 420.5 239.83V216.41C420.5 216.145 420.605 215.89 420.793 215.703C420.98 215.515 421.235 215.41 421.5 215.41C421.765 215.41 422.019 215.515 422.207 215.703C422.394 215.89 422.5 216.145 422.5 216.41V239.83C422.497 241.277 421.921 242.664 420.898 243.688C419.874 244.711 418.487 245.287 417.04 245.29Z" fill="white"/>
<path d="M73.07 233.86H118.31C120.31 233.86 122.13 235.51 122.8 237.97L124.3 243.53C124.96 245.99 126.76 247.64 128.79 247.64H193.55C196.17 247.64 198.3 250.39 198.3 253.77V335.72C198.3 339.11 196.17 341.85 193.55 341.85H73.07C70.27 341.85 68 339.11 68 335.72V239.99C68 236.6 70.27 233.86 73.07 233.86Z" fill="black"/>
<path opacity="0.12" d="M119.29 248.51L117.69 242.95C117.447 241.838 116.847 240.835 115.983 240.093C115.119 239.351 114.037 238.912 112.9 238.84H73.07C70.27 238.84 68 241.58 68 244.96V340.7C68 344.09 70.27 346.83 73.07 346.83H193.22C196.03 346.83 198.3 344.09 198.3 340.7V258.75C198.3 255.37 196.03 252.62 193.22 252.62H124.08C122.943 252.549 121.861 252.109 120.997 251.367C120.132 250.626 119.533 249.623 119.29 248.51Z" fill="white"/>
<path opacity="0.12" d="M116.341 254.16L114.841 248.92C114.612 247.87 114.047 246.922 113.231 246.222C112.416 245.522 111.394 245.107 110.321 245.04H72.7507C70.1107 245.04 67.9707 247.63 67.9707 250.82V341.05C67.9707 344.24 70.1107 346.83 72.7507 346.83H186.001C188.641 346.83 190.781 344.24 190.781 341.05V263.81C190.781 260.62 188.641 258.03 186.001 258.03H120.861C119.789 257.964 118.768 257.55 117.953 256.852C117.137 256.154 116.571 255.209 116.341 254.16Z" fill="white"/>
<path d="M77.2401 269.04C76.9944 269.013 76.7675 268.896 76.6031 268.711C76.4388 268.526 76.3486 268.287 76.3501 268.04V254.16C76.3059 253.312 76.595 252.481 77.1556 251.844C77.7162 251.207 78.5038 250.814 79.3501 250.75H97.9901C98.2553 250.75 98.5097 250.855 98.6972 251.043C98.8848 251.23 98.9901 251.485 98.9901 251.75C98.9901 252.015 98.8848 252.27 98.6972 252.457C98.5097 252.645 98.2553 252.75 97.9901 252.75H79.4002C79.0464 252.771 78.7152 252.931 78.479 253.195C78.2429 253.459 78.121 253.806 78.1402 254.16V268.04C78.1414 268.289 78.0499 268.529 77.8834 268.714C77.717 268.899 77.4877 269.015 77.2401 269.04Z" fill="white"/>
</g>
<g clip-path="url(#clip2_604_1633)">
<path d="M316.4 112.82H187.89C166.55 112.82 149.25 130.12 149.25 151.46C149.25 172.8 166.55 190.1 187.89 190.1H316.4C337.74 190.1 355.04 172.8 355.04 151.46C355.04 130.12 337.74 112.82 316.4 112.82Z" fill="#C9D7FD"/>
<path d="M252.141 173.07C282.152 173.07 306.481 148.741 306.481 118.73C306.481 88.7187 282.152 64.3899 252.141 64.3899C222.13 64.3899 197.801 88.7187 197.801 118.73C197.801 148.741 222.13 173.07 252.141 173.07Z" fill="#7098EE"/>
<path d="M316.4 101.43H187.89C166.55 101.43 149.25 118.73 149.25 140.07C149.25 161.41 166.55 178.71 187.89 178.71H316.4C337.74 178.71 355.04 161.41 355.04 140.07C355.04 118.73 337.74 101.43 316.4 101.43Z" fill="#FA8617"/>
<path d="M273.64 157.221C301.202 145.345 313.918 113.375 302.042 85.8136C290.167 58.252 258.197 45.536 230.635 57.4116C203.074 69.2872 190.358 101.257 202.233 128.819C214.109 156.38 246.079 169.096 273.64 157.221Z" fill="#FA8617"/>
<g opacity="0.35">
<path d="M316.4 101.43H187.89C166.55 101.43 149.25 118.73 149.25 140.07C149.25 161.41 166.55 178.71 187.89 178.71H316.4C337.74 178.71 355.04 161.41 355.04 140.07C355.04 118.73 337.74 101.43 316.4 101.43Z" fill="#FA8617"/>
<path d="M273.64 157.221C301.202 145.345 313.918 113.375 302.042 85.8136C290.167 58.252 258.197 45.536 230.635 57.4116C203.074 69.2872 190.358 101.257 202.233 128.819C214.109 156.38 246.079 169.096 273.64 157.221Z" fill="#FA8617"/>
</g>
<g clip-path="url(#clip3_604_1633)">
<path d="M266.499 113.075C265.107 111.686 263.423 110.992 261.448 110.992C259.472 110.992 257.765 111.686 256.33 113.075C254.893 114.465 254.175 116.144 254.175 118.113C254.175 120.085 254.893 121.787 256.33 123.219C257.765 124.654 259.472 125.369 261.448 125.369C263.423 125.369 265.107 124.654 266.499 123.219C267.891 121.787 268.588 120.085 268.588 118.113C268.588 116.144 267.891 114.465 266.499 113.075ZM266.499 113.075C265.107 111.686 263.423 110.992 261.448 110.992C259.472 110.992 257.765 111.686 256.33 113.075C254.893 114.465 254.175 116.144 254.175 118.113C254.175 120.085 254.893 121.787 256.33 123.219C257.765 124.654 259.472 125.369 261.448 125.369C263.423 125.369 265.107 124.654 266.499 123.219C267.891 121.787 268.588 120.085 268.588 118.113C268.588 116.144 267.891 114.465 266.499 113.075ZM285.762 101.787C284.37 100.4 282.686 99.7046 280.711 99.7046H234.643C232.667 99.7046 230.983 100.4 229.592 101.787C228.198 103.178 227.504 104.857 227.504 106.826V152.78C227.504 154.751 228.198 156.429 229.592 157.819C230.983 159.206 232.667 159.902 234.643 159.902H278.895C276.928 157.859 275.72 155.085 275.72 152.032C275.72 147.933 277.896 144.341 281.159 142.343L272.63 133.834L261.583 144.315L242.591 126.31L229.373 139.495L229.376 106.773C229.377 103.883 231.725 101.542 234.621 101.542H280.683C283.568 101.542 285.913 103.867 285.928 106.745L285.95 140.728C286.332 140.69 286.719 140.67 287.11 140.67C287.359 140.67 287.605 140.678 287.85 140.694V106.826C287.85 104.857 287.154 103.178 285.762 101.787ZM256.33 113.075C254.893 114.465 254.175 116.144 254.175 118.113C254.175 120.085 254.893 121.787 256.33 123.219C257.765 124.654 259.472 125.369 261.448 125.369C263.423 125.369 265.107 124.654 266.499 123.219C267.891 121.787 268.588 120.085 268.588 118.113C268.588 116.144 267.891 114.465 266.499 113.075C265.107 111.686 263.423 110.992 261.448 110.992C259.472 110.992 257.765 111.686 256.33 113.075Z" fill="#FDFDFF"/>
<path d="M262.241 87.1724C261.438 85.2547 259.576 84.0986 257.615 84.0986C256.972 84.0986 256.317 84.2232 255.686 84.4865L213.082 102.233C210.528 103.296 209.322 106.224 210.388 108.772L228.171 151.25C228.23 151.389 228.293 151.524 228.363 151.655V146.812L212.135 108.044C211.471 106.462 212.224 104.636 213.811 103.975L256.415 86.2277C256.8 86.0673 257.203 85.9861 257.615 85.9861C258.878 85.9861 260.008 86.7374 260.496 87.9001L265.84 100.667L267.848 100.566L262.241 87.1724Z" fill="#FDFDFF"/>
<path d="M289.367 144.488C288.652 144.276 287.896 144.162 287.111 144.162C282.746 144.162 279.223 147.677 279.223 152.031C279.223 153.337 279.539 154.566 280.101 155.648C281.41 158.177 284.054 159.9 287.111 159.9C291.477 159.9 295 156.386 295 152.031C295.001 148.459 292.629 145.451 289.367 144.488ZM287.111 146.785L289.215 150.405H287.636L287.637 154.129H286.585V150.405H285.008L287.111 146.785ZM290.266 156.753H283.957V155.704H290.266V156.753Z" fill="#FDFDFF"/>
</g>
<path opacity="0.36" d="M327.72 316.16L191.39 361.16C189.798 361.681 188.065 361.553 186.568 360.804C185.07 360.055 183.928 358.746 183.39 357.16L138.39 220.83C137.869 219.238 137.997 217.506 138.746 216.008C139.495 214.51 140.804 213.368 142.39 212.83L278.72 167.83C280.311 167.309 282.044 167.437 283.541 168.186C285.039 168.935 286.181 170.244 286.72 171.83L331.72 308.16C332.24 309.751 332.112 311.484 331.363 312.982C330.614 314.48 329.305 315.622 327.72 316.16Z" fill="#5565B5"/>
<path d="M268.7 162.784L132.375 207.816C129.04 208.918 127.229 212.515 128.331 215.85L173.363 352.175C174.465 355.51 178.062 357.32 181.397 356.219L317.722 311.186C321.057 310.085 322.868 306.488 321.766 303.152L276.734 166.828C275.632 163.492 272.035 161.682 268.7 162.784Z" fill="white"/>
<path d="M266.189 177.628L143.062 218.301L183.735 341.427L306.861 300.755L266.189 177.628Z" fill="#C9D7FD"/>
<path opacity="0.47" d="M182.72 342.41L173.51 314.53L186.98 282.06C187.867 279.9 189.533 278.151 191.647 277.16C193.762 276.169 196.172 276.009 198.4 276.71L223.34 284.45C224.053 284.674 224.822 284.651 225.52 284.385C226.219 284.118 226.807 283.623 227.19 282.98L247.95 248.43C250.102 244.875 253.464 242.216 257.419 240.941C261.374 239.666 265.657 239.861 269.48 241.49L292.35 251.33L292.56 251.97L308.69 300.79L307.26 301.26L182.72 342.41ZM176.72 314.65L184.64 338.65L304.91 298.91L289.91 253.58L268.29 244.28C265.133 242.932 261.596 242.769 258.329 243.822C255.062 244.875 252.285 247.072 250.51 250.01L229.72 284.53C228.993 285.75 227.876 286.688 226.549 287.195C225.223 287.701 223.764 287.745 222.41 287.32L197.47 279.57C195.955 279.095 194.318 279.206 192.881 279.88C191.445 280.554 190.313 281.742 189.71 283.21L176.72 314.65Z" fill="white"/>
<path opacity="0.47" d="M223.79 246.4C219.767 246.407 215.888 244.897 212.928 242.172C209.968 239.447 208.142 235.707 207.816 231.697C207.49 227.686 208.687 223.7 211.168 220.533C213.65 217.366 217.233 215.249 221.205 214.606C225.177 213.962 229.245 214.839 232.6 217.061C235.954 219.283 238.348 222.687 239.305 226.595C240.262 230.504 239.711 234.629 237.762 238.149C235.813 241.669 232.61 244.326 228.79 245.59C227.177 246.124 225.489 246.397 223.79 246.4ZM223.79 217.48C222.43 217.485 221.08 217.708 219.79 218.14C216.7 219.167 214.111 221.32 212.539 224.172C210.967 227.023 210.528 230.362 211.308 233.523C212.089 236.684 214.033 239.434 216.752 241.225C219.471 243.017 222.765 243.717 225.977 243.187C229.19 242.657 232.084 240.935 234.084 238.366C236.083 235.796 237.04 232.567 236.764 229.323C236.488 226.078 234.999 223.058 232.595 220.863C230.19 218.667 227.046 217.46 223.79 217.48Z" fill="white"/>
<path opacity="0.36" d="M368.77 221.56H262.35C258.838 221.56 255.99 224.408 255.99 227.92V334.34C255.99 337.853 258.838 340.7 262.35 340.7H368.77C372.283 340.7 375.13 337.853 375.13 334.34V227.92C375.13 224.408 372.283 221.56 368.77 221.56Z" fill="#5565B5"/>
<path d="M362.729 215.51H256.309C252.797 215.51 249.949 218.357 249.949 221.87V328.29C249.949 331.803 252.797 334.65 256.309 334.65H362.729C366.242 334.65 369.089 331.803 369.089 328.29V221.87C369.089 218.357 366.242 215.51 362.729 215.51Z" fill="white"/>
<path opacity="0.39" d="M358.879 225.66H260.029V324.51H358.879V225.66Z" fill="#28B473"/>
<path opacity="0.47" d="M360.51 325.37H258.66V302.5L276.26 282.12C277.477 280.709 279.177 279.803 281.028 279.581C282.878 279.359 284.744 279.837 286.26 280.92L302.46 292.49C302.858 292.777 303.341 292.921 303.831 292.899C304.321 292.877 304.789 292.691 305.16 292.37L328.45 272.37C330.923 270.255 334.076 269.104 337.329 269.128C340.583 269.152 343.719 270.349 346.16 272.5L360.48 285.2L360.51 325.37ZM261.66 322.37H357.51V286.5L344.2 274.7C342.304 273.028 339.867 272.097 337.339 272.079C334.811 272.06 332.361 272.956 330.44 274.6L307.15 294.6C306.271 295.361 305.162 295.803 304 295.856C302.839 295.908 301.694 295.568 300.75 294.89L284.55 283.32C283.641 282.67 282.521 282.383 281.411 282.516C280.3 282.649 279.28 283.193 278.55 284.04L261.68 303.58L261.66 322.37Z" fill="white"/>
<path opacity="0.47" d="M315.54 266.32C313.061 266.322 310.637 265.589 308.575 264.213C306.513 262.836 304.905 260.88 303.956 258.59C303.006 256.3 302.757 253.78 303.24 251.348C303.723 248.916 304.917 246.683 306.67 244.93C308.423 243.177 310.656 241.983 313.088 241.5C315.519 241.017 318.04 241.266 320.33 242.216C322.62 243.165 324.576 244.773 325.952 246.835C327.328 248.897 328.062 251.321 328.06 253.8C328.055 257.119 326.734 260.3 324.387 262.647C322.04 264.994 318.859 266.315 315.54 266.32ZM315.54 244.27C313.655 244.268 311.811 244.825 310.243 245.871C308.674 246.917 307.451 248.405 306.728 250.146C306.005 251.887 305.815 253.804 306.182 255.653C306.549 257.502 307.455 259.201 308.788 260.535C310.12 261.869 311.818 262.778 313.667 263.146C315.516 263.515 317.433 263.327 319.175 262.606C320.917 261.885 322.406 260.663 323.453 259.096C324.501 257.528 325.06 255.685 325.06 253.8C325.057 251.275 324.054 248.854 322.269 247.068C320.485 245.281 318.065 244.275 315.54 244.27Z" fill="white"/>
<path opacity="0.36" d="M265.801 278.838L205.645 301.377C202.356 302.61 200.689 306.275 201.921 309.565L224.46 369.721C225.693 373.01 229.358 374.677 232.647 373.445L292.803 350.906C296.093 349.673 297.76 346.008 296.528 342.718L273.988 282.562C272.756 279.273 269.09 277.606 265.801 278.838Z" fill="#5565B5"/>
<path d="M264.522 278.86L204.137 301.344C200.835 302.574 199.155 306.247 200.384 309.549L222.868 369.934C224.098 373.236 227.771 374.916 231.073 373.687L291.458 351.203C294.76 349.973 296.44 346.3 295.211 342.998L272.727 282.613C271.497 279.311 267.824 277.631 264.522 278.86Z" fill="white"/>
<path d="M266.84 284.784L207.049 307.187L229.451 366.978L289.242 344.575L266.84 284.784Z" fill="#FA8617"/>
<path opacity="0.47" d="M227.51 369.49L222.07 354.97L228.17 338.47C228.63 337.21 229.545 336.169 230.736 335.552C231.927 334.935 233.306 334.788 234.6 335.14L247.02 338.47C247.211 338.521 247.413 338.506 247.595 338.428C247.776 338.35 247.926 338.214 248.02 338.04L257.57 320.63C258.65 318.679 260.398 317.183 262.492 316.417C264.586 315.651 266.886 315.666 268.97 316.46L280.73 320.98L290.12 346.03L227.51 369.49ZM225.28 354.96L229.28 365.62L286.28 344.27L278.42 323.27L267.92 319.27C266.514 318.736 264.962 318.727 263.549 319.245C262.136 319.763 260.958 320.773 260.23 322.09L250.68 339.49C250.264 340.254 249.602 340.856 248.802 341.198C248.003 341.541 247.111 341.605 246.27 341.38L233.85 338.05C233.28 337.892 232.671 337.956 232.146 338.228C231.621 338.501 231.219 338.963 231.02 339.52L225.28 354.96Z" fill="white"/>
<path opacity="0.47" d="M246.02 321.23C244.446 321.232 242.901 320.804 241.553 319.99C240.205 319.177 239.106 318.01 238.374 316.616C237.643 315.222 237.307 313.655 237.403 312.083C237.499 310.512 238.024 308.997 238.92 307.703C239.816 306.408 241.05 305.384 242.487 304.741C243.924 304.099 245.509 303.862 247.072 304.056C248.634 304.25 250.113 304.869 251.348 305.845C252.584 306.82 253.529 308.115 254.08 309.59C254.573 310.893 254.741 312.296 254.571 313.678C254.402 315.06 253.899 316.381 253.106 317.526C252.313 318.671 251.254 319.606 250.02 320.251C248.786 320.897 247.413 321.232 246.02 321.23ZM246.02 307C244.823 307.002 243.657 307.387 242.694 308.098C241.73 308.809 241.019 309.809 240.664 310.952C240.308 312.096 240.328 313.323 240.718 314.454C241.109 315.586 241.852 316.564 242.837 317.244C243.822 317.925 244.999 318.273 246.196 318.238C247.393 318.202 248.547 317.786 249.49 317.049C250.434 316.312 251.118 315.292 251.441 314.139C251.765 312.987 251.712 311.761 251.29 310.64C250.888 309.564 250.165 308.638 249.219 307.986C248.273 307.335 247.149 306.991 246 307H246.02Z" fill="white"/>
</g>
<defs>
<clipPath id="clip0_604_1633">
<rect width="347.98" height="314.2" fill="white" transform="translate(65 102)"/>
</clipPath>
<clipPath id="clip1_604_1633">
<rect width="362.68" height="195.83" fill="white" transform="translate(68 151)"/>
</clipPath>
<clipPath id="clip2_604_1633">
<rect width="247.14" height="320.86" fill="white" transform="translate(128 53)"/>
</clipPath>
<clipPath id="clip3_604_1633">
<rect width="85" height="76" fill="white" transform="translate(210 84)"/>
</clipPath>
</defs>
</svg>
