<svg width="586" height="375" viewBox="0 0 586 375" fill="none" xmlns="http://www.w3.org/2000/svg">
<g clip-path="url(#clip0_511_2)">
<g filter="url(#filter0_d_511_2)">
<path d="M223.476 368.768H522.906C531.587 368.768 538.632 361.73 538.632 353.038V20.786C538.632 12.1026 531.596 5.05627 522.906 5.05627H223.476C214.795 5.05627 207.75 12.0935 207.75 20.786V353.038C207.75 361.721 214.795 368.768 223.476 368.768Z" fill="white"/>
</g>
<g filter="url(#filter1_d_511_2)">
<path d="M22.6441 231.876H125.701C134.382 231.876 141.427 224.839 141.427 216.146V67.7764C141.427 59.0929 134.391 52.0466 125.701 52.0466H22.6441C13.9626 52.0466 6.91797 59.0839 6.91797 67.7764V216.146C6.92701 224.83 13.9626 231.876 22.6441 231.876Z" fill="white"/>
</g>
<path d="M207.749 30.8625H183.612C178.458 30.8625 174.271 35.0324 174.262 40.1883L174.008 126.734C173.99 131.89 169.812 136.059 164.658 136.059H141.426" stroke="#C8C8C8"/>
<path d="M211.132 36.0455C213.864 36.0455 216.079 33.8303 216.079 31.0977C216.079 28.3651 213.864 26.1499 211.132 26.1499C208.4 26.1499 206.186 28.3651 206.186 31.0977C206.186 33.8303 208.4 36.0455 211.132 36.0455Z" fill="#FA8617"/>
<path d="M136.48 140.627C139.212 140.627 141.426 138.412 141.426 135.679C141.426 132.947 139.212 130.732 136.48 130.732C133.748 130.732 131.533 132.947 131.533 135.679C131.533 138.412 133.748 140.627 136.48 140.627Z" stroke="#FA8617"/>
<path d="M325.654 209.968H512.903C515.173 209.968 517.009 208.132 517.009 205.861V195.107C517.009 192.836 515.173 191 512.903 191H325.654C323.385 191 321.549 192.836 321.549 195.107V205.861C321.549 208.132 323.394 209.968 325.654 209.968Z" fill="#EDEDED"/>
<path d="M332.301 202H461.103C462.315 202 463.301 201.454 463.301 200.783V199.217C463.301 198.546 462.315 198 461.103 198H332.301C331.089 198 330.104 198.546 330.104 199.217V200.783C330.104 201.459 331.089 202 332.301 202Z" fill="#C8C8C8"/>
<path d="M325.654 243.968H512.903C515.173 243.968 517.009 242.132 517.009 239.861V229.107C517.009 226.836 515.173 225 512.903 225H325.654C323.385 225 321.549 226.836 321.549 229.107V239.861C321.549 242.123 323.394 243.968 325.654 243.968Z" fill="#EDEDED"/>
<path d="M332.301 237H461.103C462.315 237 463.301 236.454 463.301 235.783V234.217C463.301 233.546 462.315 233 461.103 233H332.301C331.089 233 330.104 233.546 330.104 234.217V235.783C330.104 236.454 331.089 237 332.301 237Z" fill="#C8C8C8"/>
<path d="M325.654 278.968H512.903C515.173 278.968 517.009 277.132 517.009 274.861V264.107C517.009 261.836 515.173 260 512.903 260H325.654C323.385 260 321.549 261.836 321.549 264.107V274.861C321.549 277.132 323.394 278.968 325.654 278.968Z" fill="#EDEDED"/>
<path d="M332.301 271H461.103C462.315 271 463.301 270.454 463.301 269.783V268.217C463.301 267.546 462.315 267 461.103 267H332.301C331.089 267 330.104 267.546 330.104 268.217V269.783C330.104 270.454 331.089 271 332.301 271Z" fill="#C8C8C8"/>
<path d="M325.654 311.968H512.903C515.173 311.968 517.009 310.132 517.009 307.861V297.107C517.009 294.836 515.173 293 512.903 293H325.654C323.385 293 321.549 294.836 321.549 297.107V307.861C321.549 310.123 323.394 311.968 325.654 311.968Z" fill="#EDEDED"/>
<path d="M332.301 305H461.103C462.315 305 463.301 304.454 463.301 303.783V302.217C463.301 301.546 462.315 301 461.103 301H332.301C331.089 301 330.104 301.546 330.104 302.217V303.783C330.104 304.454 331.089 305 332.301 305Z" fill="#C8C8C8"/>
<path d="M325.654 346.968H512.903C515.173 346.968 517.009 345.132 517.009 342.861V332.107C517.009 329.836 515.173 328 512.903 328H325.654C323.385 328 321.549 329.836 321.549 332.107V342.861C321.549 345.132 323.394 346.968 325.654 346.968Z" fill="#EDEDED"/>
<path d="M332.301 340H461.103C462.315 340 463.301 339.454 463.301 338.783V337.217C463.301 336.546 462.315 336 461.103 336H332.301C331.089 336 330.104 336.546 330.104 337.217V338.783C330.104 339.454 331.089 340 332.301 340Z" fill="#C8C8C8"/>
<path d="M324.307 175.968H511.556C513.825 175.968 515.661 174.132 515.661 171.861V161.107C515.661 158.836 513.825 157 511.556 157H324.307C322.037 157 320.201 158.836 320.201 161.107V171.861C320.21 174.123 322.046 175.968 324.307 175.968Z" fill="#EDEDED"/>
<path d="M330.955 168H459.758C460.97 168 461.955 167.454 461.955 166.783V165.217C461.955 164.546 460.97 164 459.758 164H330.955C329.744 164 328.758 164.546 328.758 165.217V166.783C328.758 167.454 329.744 168 330.955 168Z" fill="#C8C8C8"/>
<path d="M322.752 84.7906H510.001C512.271 84.7906 514.106 82.9544 514.106 80.684V69.9382C514.106 67.6679 512.271 65.8317 510.001 65.8317H322.752C320.482 65.8317 318.646 67.6679 318.646 69.9382V80.684C318.646 82.9544 320.482 84.7906 322.752 84.7906Z" fill="#EDEDED"/>
<path d="M329.399 78.9292H458.201C459.413 78.9292 460.399 77.9433 460.399 76.7312V73.9C460.399 72.688 459.413 71.702 458.201 71.702H329.399C328.187 71.702 327.201 72.688 327.201 73.9V76.7312C327.192 77.9433 328.178 78.9292 329.399 78.9292Z" fill="#C8C8C8"/>
<path d="M325.654 141.959H512.903C515.173 141.959 517.009 140.123 517.009 137.852V127.107C517.009 124.836 515.173 123 512.903 123H325.654C323.385 123 321.549 124.836 321.549 127.107V137.861C321.549 140.123 323.394 141.959 325.654 141.959Z" fill="#EDEDED"/>
<path d="M332.301 134H461.103C462.315 134 463.301 133.454 463.301 132.783V131.217C463.301 130.546 462.315 130 461.103 130H332.301C331.089 130 330.104 130.546 330.104 131.217V132.783C330.104 133.454 331.089 134 332.301 134Z" fill="#C8C8C8"/>
<path d="M322.752 84.9589H510.001C512.271 84.9589 514.106 83.1227 514.106 80.8524V70.1066C514.106 67.8362 512.271 66 510.001 66H322.752C320.482 66 318.646 67.8362 318.646 70.1066V80.8524C318.646 83.1227 320.482 84.9589 322.752 84.9589Z" fill="#EDEDED"/>
<path d="M329.399 77H458.201C459.413 77 460.399 76.4543 460.399 75.7835V74.2165C460.399 73.5457 459.413 73 458.201 73H329.399C328.187 73 327.201 73.5457 327.201 74.2165V75.7835C327.192 76.4543 328.178 77 329.399 77Z" fill="#C8C8C8"/>
<path d="M228.938 74.5966H230.674L233.929 80.4489V74.5966H235.575V83.4609H233.839L230.583 77.6086V83.4609H228.938V74.5966Z" fill="#C8C8C8"/>
<path d="M237.547 83.0539C237.185 82.7192 237.004 82.2398 237.004 81.6248C237.004 80.9916 237.248 80.4851 237.727 80.1052C238.207 79.7252 238.858 79.5353 239.681 79.5353H240.793V79.2549C240.793 78.9383 240.685 78.7122 240.477 78.5494C240.269 78.3865 239.997 78.3142 239.681 78.3142C239.129 78.3142 238.767 78.5584 238.577 79.0469L237.248 78.7393C237.348 78.2056 237.619 77.7805 238.062 77.4549C238.505 77.1292 239.039 76.9664 239.681 76.9664C240.531 76.9664 241.191 77.1926 241.661 77.6448C242.131 78.0971 242.367 78.7574 242.367 79.6438V83.4519H241.073L240.911 82.6378C240.413 83.2439 239.762 83.5514 238.948 83.5514C238.378 83.5605 237.917 83.3976 237.547 83.0539ZM240.359 81.8599C240.648 81.6157 240.793 81.2991 240.793 80.9011V80.7745H239.744C239.4 80.7745 239.129 80.8378 238.939 80.9735C238.749 81.1092 238.65 81.3172 238.65 81.5976C238.65 81.7876 238.713 81.9323 238.849 82.0499C238.975 82.1675 239.147 82.2218 239.364 82.2218C239.744 82.2218 240.079 82.1042 240.359 81.8599Z" fill="#C8C8C8"/>
<path d="M243.958 77.084H245.532V78.1061C245.776 77.7353 246.047 77.4549 246.337 77.2649C246.626 77.0749 246.97 76.9845 247.368 76.9845C247.784 76.9845 248.145 77.093 248.471 77.3101C248.787 77.5272 249.022 77.8619 249.158 78.2961C249.384 77.88 249.674 77.5634 250.017 77.3282C250.361 77.093 250.723 76.9845 251.111 76.9845C251.699 76.9845 252.169 77.1564 252.504 77.5001C252.839 77.8438 253.011 78.3322 253.011 78.9473V83.47H251.437V79.2187C251.437 78.6307 251.175 78.3322 250.65 78.3322C250.243 78.3322 249.918 78.5584 249.655 79.0197C249.393 79.472 249.267 80.1323 249.267 80.9916V83.47H247.693V79.2187C247.693 78.6307 247.431 78.3322 246.906 78.3322C246.499 78.3322 246.174 78.5674 245.912 79.0468C245.658 79.5262 245.523 80.2137 245.523 81.1272V83.47H243.949V77.084H243.958Z" fill="#C8C8C8"/>
<path d="M255.751 83.081C255.289 82.7554 254.955 82.3393 254.738 81.8418C254.521 81.3353 254.412 80.8197 254.412 80.277C254.412 79.7343 254.521 79.2187 254.738 78.7121C254.955 78.2056 255.289 77.7986 255.751 77.4729C256.212 77.1473 256.79 76.9845 257.478 76.9845C258.147 76.9845 258.699 77.1383 259.151 77.4548C259.594 77.7714 259.928 78.1694 260.136 78.6488C260.344 79.1282 260.453 79.6257 260.453 80.1323V80.7745H256.058C256.076 81.1634 256.212 81.4981 256.483 81.7875C256.745 82.077 257.107 82.2217 257.568 82.2217C257.921 82.2217 258.219 82.1403 258.463 81.9775C258.708 81.8147 258.925 81.5705 259.115 81.2267L260.381 81.6971C260.118 82.2941 259.757 82.7554 259.286 83.081C258.816 83.3976 258.219 83.5604 257.478 83.5604C256.79 83.5604 256.212 83.4067 255.751 83.081ZM258.843 79.5353C258.771 79.1825 258.617 78.8931 258.391 78.6579C258.165 78.4317 257.858 78.3142 257.469 78.3142C257.098 78.3142 256.79 78.4317 256.546 78.6669C256.302 78.9021 256.148 79.1915 256.094 79.5262H258.843V79.5353Z" fill="#C8C8C8"/>
<path d="M228.938 126.815H231.714C232.446 126.815 233.125 126.978 233.748 127.294C234.372 127.611 234.879 128.109 235.259 128.769C235.639 129.429 235.837 130.261 235.837 131.247C235.837 132.233 235.648 133.056 235.259 133.726C234.879 134.386 234.372 134.883 233.748 135.2C233.125 135.517 232.446 135.679 231.714 135.679H228.938V126.815ZM231.198 134.16C232.039 134.16 232.745 133.943 233.314 133.509C233.884 133.074 234.174 132.324 234.174 131.247C234.174 130.171 233.884 129.42 233.314 128.986C232.745 128.552 232.039 128.335 231.198 128.335H230.592V134.16H231.198Z" fill="#C8C8C8"/>
<path d="M238.288 135.3C237.826 134.974 237.492 134.558 237.275 134.06C237.058 133.554 236.949 133.038 236.949 132.495C236.949 131.953 237.058 131.437 237.275 130.931C237.492 130.424 237.826 130.017 238.288 129.691C238.749 129.366 239.328 129.203 240.015 129.203C240.684 129.203 241.236 129.357 241.688 129.673C242.131 129.99 242.466 130.388 242.674 130.867C242.882 131.347 242.99 131.844 242.99 132.351V132.993H238.595C238.613 133.382 238.749 133.717 239.02 134.006C239.282 134.296 239.644 134.44 240.105 134.44C240.458 134.44 240.756 134.359 241.001 134.196C241.245 134.033 241.462 133.789 241.652 133.445L242.918 133.916C242.655 134.513 242.294 134.974 241.824 135.3C241.353 135.616 240.756 135.779 240.015 135.779C239.328 135.779 238.749 135.625 238.288 135.3ZM241.389 131.754C241.317 131.401 241.163 131.112 240.937 130.876C240.711 130.65 240.404 130.533 240.015 130.533C239.644 130.533 239.337 130.65 239.092 130.885C238.848 131.121 238.695 131.41 238.64 131.745H241.389V131.754Z" fill="#C8C8C8"/>
<path d="M244.699 135.272C244.256 134.938 243.967 134.531 243.822 134.06L245.079 133.391C245.197 133.717 245.36 133.979 245.577 134.16C245.794 134.35 246.047 134.44 246.345 134.44C246.571 134.44 246.761 134.395 246.915 134.295C247.069 134.196 247.141 134.042 247.141 133.825C247.141 133.635 247.051 133.472 246.87 133.355C246.689 133.228 246.409 133.102 246.029 132.966C245.966 132.948 245.884 132.912 245.767 132.866C245.278 132.676 244.898 132.423 244.627 132.134C244.356 131.835 244.22 131.455 244.22 130.994C244.22 130.668 244.311 130.361 244.482 130.098C244.654 129.836 244.898 129.61 245.206 129.456C245.513 129.302 245.866 129.212 246.255 129.212C246.689 129.212 247.078 129.302 247.43 129.483C247.783 129.664 248.064 129.918 248.253 130.252L247.313 131.112C247.06 130.741 246.716 130.551 246.291 130.551C246.119 130.551 245.975 130.596 245.857 130.686C245.739 130.777 245.676 130.894 245.676 131.039C245.676 131.193 245.767 131.329 245.938 131.464C246.119 131.6 246.463 131.754 246.978 131.935C247.467 132.116 247.846 132.342 248.109 132.631C248.371 132.921 248.507 133.282 248.507 133.735C248.507 134.359 248.308 134.856 247.91 135.236C247.512 135.616 246.996 135.797 246.354 135.797C245.694 135.779 245.143 135.616 244.699 135.272Z" fill="#C8C8C8"/>
<path d="M250.786 135.345C250.315 135.055 249.963 134.657 249.728 134.16C249.493 133.662 249.375 133.102 249.375 132.486C249.375 131.871 249.493 131.311 249.728 130.813C249.963 130.316 250.315 129.918 250.786 129.628C251.256 129.339 251.826 129.194 252.486 129.194C253.191 129.194 253.797 129.348 254.295 129.655C254.792 129.963 255.154 130.415 255.389 131.021L253.987 131.591C253.815 131.247 253.616 130.985 253.372 130.804C253.128 130.623 252.839 130.542 252.495 130.542C252.016 130.542 251.645 130.723 251.401 131.084C251.147 131.446 251.03 131.917 251.03 132.495C251.03 133.074 251.157 133.545 251.401 133.907C251.645 134.268 252.016 134.44 252.495 134.44C252.839 134.44 253.137 134.35 253.372 134.178C253.616 133.997 253.815 133.735 253.987 133.391L255.389 133.961C255.154 134.558 254.783 135.01 254.295 135.318C253.806 135.625 253.2 135.779 252.486 135.779C251.826 135.779 251.256 135.634 250.786 135.345Z" fill="#C8C8C8"/>
<path d="M256.736 129.303H258.309V130.343C258.535 129.981 258.816 129.7 259.141 129.501C259.467 129.303 259.819 129.203 260.19 129.203C260.425 129.203 260.687 129.248 260.959 129.33L260.669 130.786C260.479 130.668 260.253 130.605 260.009 130.605C259.512 130.605 259.105 130.831 258.779 131.283C258.463 131.736 258.3 132.45 258.3 133.418V135.679H256.727V129.303H256.736Z" fill="#C8C8C8"/>
<path d="M262.071 128.181C261.881 127.991 261.781 127.747 261.781 127.457C261.781 127.168 261.881 126.933 262.071 126.734C262.261 126.535 262.505 126.444 262.794 126.444C263.083 126.444 263.319 126.544 263.518 126.734C263.707 126.924 263.807 127.168 263.807 127.457C263.807 127.747 263.707 127.982 263.518 128.181C263.328 128.371 263.083 128.47 262.794 128.47C262.505 128.47 262.27 128.38 262.071 128.181ZM262.007 129.303H263.581V135.679H262.007V129.303Z" fill="#C8C8C8"/>
<path d="M265.354 129.303H266.927V129.963C267.027 129.773 267.216 129.601 267.506 129.447C267.786 129.284 268.112 129.203 268.473 129.203C269.414 129.203 270.128 129.502 270.635 130.098C271.141 130.695 271.385 131.491 271.385 132.495C271.385 133.5 271.132 134.296 270.635 134.893C270.137 135.489 269.414 135.788 268.473 135.788C268.157 135.788 267.859 135.725 267.578 135.589C267.289 135.453 267.081 135.29 266.936 135.11V138.275H265.363V129.303H265.354ZM269.314 133.925C269.595 133.581 269.73 133.102 269.73 132.495C269.73 131.88 269.595 131.401 269.314 131.057C269.034 130.714 268.681 130.542 268.247 130.542C267.813 130.542 267.461 130.714 267.189 131.057C266.918 131.401 266.773 131.88 266.773 132.495C266.773 133.111 266.909 133.59 267.189 133.934C267.461 134.277 267.813 134.449 268.247 134.449C268.681 134.44 269.034 134.268 269.314 133.925Z" fill="#C8C8C8"/>
<path d="M273.584 135.191C273.168 134.793 272.96 134.205 272.96 133.427V130.641H271.975V129.303H272.96V127.711L274.534 126.725V129.312H276.216V130.65H274.534V133.409C274.534 133.789 274.606 134.06 274.742 134.214C274.877 134.368 275.095 134.449 275.366 134.449C275.574 134.449 275.782 134.395 275.972 134.296L276.342 135.562C276.017 135.716 275.664 135.788 275.303 135.788C274.57 135.779 273.991 135.58 273.584 135.191Z" fill="#C8C8C8"/>
<path d="M277.491 128.181C277.301 127.991 277.201 127.747 277.201 127.457C277.201 127.168 277.301 126.933 277.491 126.734C277.68 126.535 277.925 126.444 278.214 126.444C278.503 126.444 278.739 126.544 278.937 126.734C279.127 126.924 279.227 127.168 279.227 127.457C279.227 127.747 279.127 127.982 278.937 128.181C278.748 128.371 278.503 128.47 278.214 128.47C277.925 128.47 277.69 128.38 277.491 128.181ZM277.427 129.303H279.001V135.679H277.427V129.303Z" fill="#C8C8C8"/>
<path d="M281.903 135.354C281.414 135.064 281.044 134.675 280.781 134.178C280.528 133.68 280.393 133.12 280.393 132.495C280.393 131.871 280.519 131.311 280.781 130.813C281.044 130.316 281.414 129.927 281.903 129.637C282.391 129.348 282.97 129.203 283.639 129.203C284.308 129.203 284.887 129.348 285.375 129.637C285.864 129.927 286.234 130.316 286.497 130.813C286.75 131.311 286.886 131.871 286.886 132.495C286.886 133.12 286.759 133.68 286.497 134.178C286.234 134.675 285.864 135.064 285.375 135.354C284.887 135.643 284.308 135.788 283.639 135.788C282.97 135.788 282.391 135.643 281.903 135.354ZM284.797 133.879C285.086 133.5 285.231 133.038 285.231 132.495C285.231 131.944 285.086 131.482 284.797 131.112C284.507 130.732 284.118 130.551 283.63 130.551C283.142 130.551 282.753 130.741 282.463 131.112C282.174 131.491 282.029 131.953 282.029 132.495C282.029 133.047 282.174 133.509 282.463 133.879C282.753 134.259 283.142 134.44 283.63 134.44C284.118 134.44 284.507 134.25 284.797 133.879Z" fill="#C8C8C8"/>
<path d="M288.297 129.303H289.87V130.325C290.115 129.981 290.404 129.701 290.748 129.502C291.082 129.303 291.453 129.194 291.851 129.194C292.439 129.194 292.918 129.357 293.271 129.691C293.632 130.017 293.813 130.496 293.813 131.121V135.679H292.24V131.591C292.24 131.229 292.158 130.958 291.996 130.795C291.833 130.623 291.607 130.542 291.335 130.542C291.073 130.542 290.829 130.641 290.612 130.849C290.395 131.048 290.214 131.347 290.078 131.745C289.943 132.134 289.879 132.604 289.879 133.147V135.679H288.306V129.303H288.297Z" fill="#C8C8C8"/>
<path d="M228.051 162.092H229.878L231.867 168.65L233.857 162.092H235.683L232.708 170.956H231.035L228.051 162.092Z" fill="#C8C8C8"/>
<path d="M236.75 163.467C236.56 163.277 236.461 163.032 236.461 162.743C236.461 162.454 236.56 162.218 236.75 162.019C236.94 161.82 237.184 161.73 237.474 161.73C237.763 161.73 237.998 161.829 238.197 162.019C238.387 162.209 238.487 162.454 238.487 162.743C238.487 163.032 238.387 163.268 238.197 163.467C238.007 163.657 237.763 163.756 237.474 163.756C237.184 163.756 236.949 163.657 236.75 163.467ZM236.687 164.579H238.261V170.956H236.687V164.579Z" fill="#C8C8C8"/>
<path d="M240.991 170.576C240.53 170.251 240.195 169.835 239.978 169.337C239.761 168.831 239.652 168.315 239.652 167.772C239.652 167.23 239.761 166.714 239.978 166.207C240.195 165.701 240.53 165.294 240.991 164.968C241.452 164.643 242.031 164.48 242.718 164.48C243.387 164.48 243.939 164.634 244.391 164.959C244.834 165.276 245.169 165.674 245.377 166.153C245.585 166.633 245.693 167.13 245.693 167.637V168.279H241.298C241.316 168.668 241.452 169.002 241.723 169.292C241.995 169.581 242.347 169.726 242.808 169.726C243.161 169.726 243.46 169.645 243.704 169.482C243.948 169.319 244.165 169.075 244.355 168.731L245.621 169.201C245.359 169.798 244.997 170.26 244.527 170.585C244.056 170.902 243.46 171.065 242.718 171.065C242.022 171.065 241.443 170.902 240.991 170.576ZM244.084 167.031C244.011 166.678 243.857 166.388 243.631 166.153C243.405 165.927 243.098 165.809 242.709 165.809C242.338 165.809 242.031 165.927 241.787 166.162C241.542 166.397 241.389 166.687 241.334 167.021H244.084V167.031Z" fill="#C8C8C8"/>
<path d="M246.301 164.579H247.883L249.023 168.957L250.099 164.579H251.564L252.64 168.957L253.78 164.579H255.362L253.327 170.965H251.935L250.831 166.841L249.728 170.965H248.336L246.301 164.579Z" fill="#C8C8C8"/>
<path d="M256.393 164.579H257.966V165.24C258.066 165.05 258.255 164.878 258.545 164.724C258.825 164.561 259.151 164.48 259.512 164.48C260.453 164.48 261.167 164.778 261.674 165.375C262.18 165.972 262.424 166.768 262.424 167.772C262.424 168.776 262.171 169.581 261.674 170.169C261.167 170.766 260.453 171.065 259.512 171.065C259.196 171.065 258.898 170.992 258.617 170.866C258.328 170.73 258.111 170.567 257.975 170.386V173.552H256.402V164.579H256.393ZM260.354 169.201C260.634 168.858 260.769 168.378 260.769 167.772C260.769 167.157 260.634 166.678 260.354 166.334C260.073 165.99 259.72 165.818 259.286 165.818C258.852 165.818 258.5 165.99 258.228 166.334C257.957 166.678 257.812 167.157 257.812 167.772C257.812 168.387 257.948 168.867 258.228 169.21C258.5 169.554 258.852 169.726 259.286 169.726C259.72 169.726 260.073 169.545 260.354 169.201Z" fill="#C8C8C8"/>
<path d="M264.983 170.631C264.495 170.341 264.124 169.952 263.862 169.455C263.599 168.957 263.473 168.396 263.473 167.772C263.473 167.148 263.599 166.587 263.862 166.09C264.115 165.592 264.495 165.194 264.983 164.914C265.471 164.624 266.05 164.48 266.719 164.48C267.388 164.48 267.967 164.624 268.455 164.914C268.944 165.203 269.315 165.592 269.577 166.09C269.83 166.587 269.966 167.148 269.966 167.772C269.966 168.396 269.839 168.957 269.577 169.455C269.315 169.952 268.944 170.341 268.455 170.631C267.967 170.92 267.388 171.065 266.719 171.065C266.05 171.065 265.471 170.92 264.983 170.631ZM267.886 169.156C268.175 168.776 268.32 168.315 268.32 167.772C268.32 167.22 268.175 166.759 267.886 166.388C267.596 166.008 267.207 165.827 266.719 165.827C266.231 165.827 265.842 166.017 265.553 166.388C265.263 166.768 265.119 167.23 265.119 167.772C265.119 168.324 265.263 168.785 265.553 169.156C265.842 169.527 266.231 169.717 266.719 169.717C267.207 169.717 267.596 169.527 267.886 169.156Z" fill="#C8C8C8"/>
<path d="M271.376 164.579H272.95V165.619C273.176 165.258 273.456 164.977 273.782 164.778C274.107 164.579 274.46 164.48 274.831 164.48C275.066 164.48 275.328 164.525 275.599 164.606L275.31 166.063C275.12 165.945 274.894 165.882 274.65 165.882C274.153 165.882 273.746 166.108 273.42 166.56C273.104 167.012 272.941 167.727 272.941 168.695V170.956H271.367V164.579H271.376Z" fill="#C8C8C8"/>
<path d="M277.869 170.468C277.453 170.07 277.245 169.482 277.245 168.704V165.918H276.26V164.579H277.245V162.987L278.819 162.001V164.588H280.501V165.927H278.819V168.686C278.819 169.066 278.891 169.337 279.027 169.491C279.163 169.645 279.371 169.726 279.651 169.726C279.859 169.726 280.067 169.672 280.257 169.572L280.628 170.839C280.302 170.992 279.949 171.065 279.588 171.065C278.864 171.065 278.285 170.866 277.869 170.468Z" fill="#C8C8C8"/>
<path d="M228.938 194.836H230.583V202.18H234.345V203.7H228.938V194.836Z" fill="#C8C8C8"/>
<path d="M235.828 203.302C235.466 202.967 235.285 202.488 235.285 201.873C235.285 201.24 235.529 200.733 236.009 200.353C236.488 199.973 237.139 199.783 237.962 199.783H239.074V199.503C239.074 199.196 238.966 198.96 238.758 198.798C238.55 198.644 238.278 198.562 237.962 198.562C237.41 198.562 237.049 198.807 236.859 199.295L235.529 198.987C235.629 198.454 235.9 198.029 236.343 197.703C236.786 197.377 237.32 197.215 237.953 197.215C238.803 197.215 239.463 197.441 239.933 197.893C240.404 198.345 240.639 199.006 240.639 199.892V203.7H239.346L239.183 202.886C238.685 203.492 238.034 203.8 237.22 203.8C236.66 203.809 236.189 203.637 235.828 203.302ZM238.64 202.099C238.93 201.855 239.074 201.538 239.074 201.14V201.014H238.025C237.682 201.014 237.41 201.077 237.22 201.213C237.031 201.348 236.94 201.556 236.94 201.837C236.94 202.027 237.003 202.171 237.139 202.289C237.275 202.407 237.437 202.461 237.654 202.461C238.016 202.461 238.351 202.343 238.64 202.099Z" fill="#C8C8C8"/>
<path d="M242.23 197.323H243.804V198.345C244.048 198.002 244.338 197.721 244.681 197.522C245.016 197.323 245.387 197.215 245.784 197.215C246.372 197.215 246.852 197.377 247.213 197.712C247.575 198.038 247.747 198.517 247.747 199.141V203.7H246.173V199.612C246.173 199.25 246.092 198.987 245.929 198.816C245.766 198.644 245.54 198.562 245.269 198.562C245.007 198.562 244.763 198.662 244.546 198.87C244.329 199.069 244.148 199.367 244.012 199.765C243.876 200.154 243.813 200.625 243.813 201.167V203.709H242.24V197.323H242.23Z" fill="#C8C8C8"/>
<path d="M230.583 237.846C229.95 237.512 229.443 236.996 229.072 236.318C228.693 235.639 228.512 234.807 228.512 233.812C228.512 232.826 228.702 231.994 229.072 231.315C229.452 230.637 229.95 230.131 230.583 229.787C231.216 229.452 231.912 229.28 232.681 229.28C233.449 229.28 234.146 229.452 234.779 229.787C235.412 230.121 235.918 230.637 236.289 231.315C236.669 231.994 236.85 232.826 236.85 233.812C236.85 234.798 236.66 235.63 236.289 236.318C235.909 236.996 235.412 237.502 234.779 237.846C234.146 238.181 233.449 238.353 232.681 238.353C231.921 238.353 231.216 238.19 230.583 237.846ZM233.947 236.517C234.327 236.299 234.625 235.965 234.851 235.512C235.077 235.06 235.195 234.499 235.195 233.821C235.195 233.143 235.077 232.582 234.851 232.13C234.625 231.677 234.317 231.343 233.947 231.126C233.567 230.908 233.151 230.8 232.69 230.8C232.228 230.8 231.803 230.908 231.433 231.126C231.053 231.343 230.754 231.677 230.528 232.13C230.302 232.582 230.185 233.143 230.185 233.821C230.185 234.499 230.302 235.06 230.528 235.512C230.754 235.965 231.062 236.299 231.433 236.517C231.812 236.734 232.228 236.842 232.69 236.842C233.151 236.833 233.576 236.725 233.947 236.517Z" fill="#C8C8C8"/>
<path d="M238.649 240.397C238.115 240.035 237.844 239.51 237.844 238.841C237.844 238.316 238.016 237.9 238.359 237.575C238.142 237.312 238.034 236.987 238.034 236.589C238.034 236.29 238.106 236.028 238.242 235.802C238.377 235.576 238.576 235.386 238.82 235.241C238.522 234.879 238.377 234.436 238.377 233.92C238.377 233.486 238.477 233.115 238.685 232.79C238.893 232.464 239.173 232.211 239.535 232.039C239.897 231.858 240.285 231.777 240.719 231.777C241.135 231.777 241.524 231.867 241.895 232.057L243.098 231.424L243.722 232.464L242.808 232.916C242.98 233.215 243.062 233.55 243.062 233.929C243.062 234.364 242.962 234.735 242.754 235.06C242.546 235.386 242.266 235.63 241.904 235.802C241.542 235.974 241.154 236.055 240.719 236.055C240.403 236.055 240.086 236.01 239.797 235.919C239.598 236.037 239.49 236.2 239.49 236.399C239.49 236.553 239.544 236.67 239.643 236.743C239.743 236.824 239.897 236.86 240.086 236.86H241.389C242.076 236.86 242.619 237.023 243.025 237.349C243.432 237.674 243.631 238.136 243.631 238.733C243.631 239.23 243.496 239.646 243.215 239.972C242.944 240.297 242.582 240.542 242.148 240.695C241.714 240.849 241.235 240.931 240.729 240.931C239.878 240.94 239.182 240.759 238.649 240.397ZM241.696 239.429C241.94 239.302 242.058 239.103 242.058 238.832C242.058 238.588 241.967 238.416 241.796 238.316C241.615 238.217 241.362 238.172 241.036 238.172H240.177C239.888 238.172 239.643 238.154 239.444 238.117C239.354 238.262 239.309 238.452 239.309 238.696C239.309 238.995 239.435 239.221 239.698 239.375C239.96 239.529 240.303 239.61 240.738 239.61C241.135 239.619 241.452 239.556 241.696 239.429ZM241.343 234.545C241.506 234.382 241.588 234.174 241.588 233.92C241.588 233.658 241.506 233.441 241.343 233.278C241.181 233.115 240.973 233.034 240.719 233.034C240.466 233.034 240.258 233.115 240.096 233.278C239.933 233.441 239.851 233.658 239.851 233.92C239.851 234.174 239.933 234.382 240.096 234.545C240.258 234.707 240.466 234.789 240.719 234.789C240.964 234.78 241.181 234.707 241.343 234.545Z" fill="#C8C8C8"/>
<path d="M244.88 233.595C244.681 233.396 244.572 233.143 244.572 232.835C244.572 232.527 244.672 232.274 244.88 232.075C245.079 231.876 245.332 231.768 245.639 231.768C245.947 231.768 246.2 231.867 246.399 232.075C246.598 232.283 246.706 232.527 246.706 232.835C246.706 233.143 246.607 233.396 246.399 233.595C246.2 233.794 245.947 233.902 245.639 233.902C245.332 233.902 245.079 233.794 244.88 233.595ZM244.88 238.027C244.681 237.828 244.572 237.575 244.572 237.267C244.572 236.96 244.672 236.706 244.88 236.507C245.079 236.308 245.332 236.2 245.639 236.2C245.947 236.2 246.2 236.299 246.399 236.507C246.598 236.706 246.706 236.96 246.706 237.267C246.706 237.575 246.607 237.828 246.399 238.027C246.191 238.226 245.947 238.335 245.639 238.335C245.332 238.335 245.079 238.226 244.88 238.027Z" fill="#C8C8C8"/>
<path d="M248.334 230.755C248.144 230.565 248.045 230.32 248.045 230.031C248.045 229.742 248.144 229.506 248.334 229.307C248.524 229.108 248.768 229.018 249.058 229.018C249.347 229.018 249.582 229.117 249.781 229.307C249.971 229.497 250.071 229.742 250.071 230.031C250.071 230.32 249.971 230.556 249.781 230.755C249.591 230.945 249.347 231.044 249.058 231.044C248.768 231.053 248.533 230.954 248.334 230.755ZM248.271 231.876H249.845V238.262H248.271V231.876Z" fill="#C8C8C8"/>
<path d="M251.563 231.876H253.137V232.898C253.381 232.528 253.652 232.247 253.941 232.057C254.231 231.867 254.574 231.768 254.972 231.768C255.388 231.768 255.75 231.876 256.076 232.093C256.392 232.31 256.627 232.645 256.763 233.079C256.989 232.663 257.278 232.347 257.613 232.111C257.948 231.876 258.318 231.768 258.707 231.768C259.295 231.768 259.765 231.94 260.1 232.283C260.434 232.627 260.606 233.115 260.606 233.731V238.253H259.033V234.002C259.033 233.414 258.77 233.115 258.246 233.115C257.839 233.115 257.513 233.342 257.251 233.803C256.989 234.264 256.862 234.915 256.862 235.775V238.253H255.289V234.002C255.289 233.414 255.027 233.115 254.502 233.115C254.095 233.115 253.77 233.351 253.507 233.83C253.245 234.309 253.118 234.997 253.118 235.91V238.253H251.545V231.876H251.563Z" fill="#C8C8C8"/>
<path d="M262.388 237.846C262.027 237.511 261.846 237.032 261.846 236.417C261.846 235.784 262.09 235.277 262.569 234.897C263.048 234.517 263.7 234.328 264.523 234.328H265.635V234.047C265.635 233.74 265.526 233.504 265.318 233.342C265.11 233.188 264.839 233.106 264.523 233.106C263.971 233.106 263.609 233.351 263.419 233.839L262.09 233.532C262.189 232.998 262.461 232.573 262.904 232.247C263.347 231.921 263.88 231.759 264.513 231.759C265.364 231.759 266.024 231.985 266.494 232.437C266.964 232.889 267.199 233.55 267.199 234.436V238.244H265.906L265.743 237.43C265.246 238.036 264.595 238.344 263.781 238.344C263.22 238.353 262.75 238.19 262.388 237.846ZM265.201 236.652C265.49 236.408 265.635 236.091 265.635 235.693V235.567H264.586C264.242 235.567 263.971 235.63 263.781 235.766C263.591 235.901 263.501 236.109 263.501 236.39C263.501 236.58 263.564 236.725 263.7 236.842C263.835 236.96 263.998 237.014 264.215 237.014C264.577 237.014 264.911 236.896 265.201 236.652Z" fill="#C8C8C8"/>
<path d="M269.115 240.397C268.582 240.035 268.311 239.51 268.311 238.841C268.311 238.316 268.482 237.9 268.826 237.575C268.609 237.312 268.5 236.987 268.5 236.589C268.5 236.29 268.573 236.028 268.708 235.802C268.844 235.576 269.043 235.386 269.287 235.241C268.989 234.879 268.844 234.436 268.844 233.92C268.844 233.486 268.944 233.115 269.152 232.79C269.36 232.464 269.64 232.211 270.002 232.039C270.363 231.858 270.752 231.777 271.186 231.777C271.602 231.777 271.991 231.867 272.362 232.057L273.565 231.424L274.189 232.464L273.275 232.916C273.447 233.215 273.528 233.55 273.528 233.929C273.528 234.364 273.429 234.735 273.221 235.06C273.013 235.386 272.733 235.63 272.371 235.802C272.009 235.974 271.62 236.055 271.186 236.055C270.87 236.055 270.553 236.01 270.264 235.919C270.065 236.037 269.956 236.2 269.956 236.399C269.956 236.553 270.011 236.67 270.11 236.743C270.21 236.824 270.363 236.86 270.553 236.86H271.855C272.543 236.86 273.085 237.023 273.492 237.349C273.899 237.674 274.098 238.136 274.098 238.733C274.098 239.23 273.963 239.646 273.682 239.972C273.411 240.297 273.049 240.542 272.615 240.695C272.181 240.849 271.702 240.931 271.195 240.931C270.345 240.94 269.658 240.759 269.115 240.397ZM272.172 239.429C272.416 239.302 272.534 239.103 272.534 238.832C272.534 238.588 272.443 238.416 272.271 238.316C272.091 238.217 271.837 238.172 271.512 238.172H270.653C270.363 238.172 270.119 238.154 269.92 238.117C269.83 238.262 269.785 238.452 269.785 238.696C269.785 238.995 269.911 239.221 270.173 239.375C270.436 239.529 270.779 239.61 271.213 239.61C271.602 239.619 271.928 239.556 272.172 239.429ZM271.819 234.545C271.982 234.382 272.063 234.174 272.063 233.92C272.063 233.658 271.982 233.441 271.819 233.278C271.657 233.115 271.449 233.034 271.195 233.034C270.942 233.034 270.734 233.115 270.571 233.278C270.409 233.441 270.327 233.658 270.327 233.92C270.327 234.174 270.409 234.382 270.571 234.545C270.734 234.707 270.942 234.789 271.195 234.789C271.439 234.78 271.647 234.707 271.819 234.545Z" fill="#C8C8C8"/>
<path d="M276.133 237.864C275.672 237.539 275.338 237.123 275.12 236.625C274.903 236.118 274.795 235.603 274.795 235.06C274.795 234.517 274.903 234.002 275.12 233.495C275.338 232.989 275.672 232.582 276.133 232.256C276.595 231.93 277.173 231.768 277.861 231.768C278.53 231.768 279.081 231.921 279.534 232.247C279.977 232.564 280.311 232.962 280.519 233.441C280.727 233.92 280.836 234.418 280.836 234.925V235.567H276.441C276.459 235.956 276.595 236.29 276.866 236.58C277.137 236.869 277.49 237.014 277.951 237.014C278.304 237.014 278.602 236.933 278.846 236.77C279.09 236.607 279.307 236.363 279.497 236.019L280.763 236.489C280.501 237.086 280.139 237.548 279.669 237.873C279.199 238.19 278.602 238.353 277.861 238.353C277.164 238.353 276.595 238.19 276.133 237.864ZM279.226 234.328C279.154 233.975 279 233.685 278.774 233.45C278.548 233.224 278.24 233.106 277.852 233.106C277.481 233.106 277.173 233.224 276.929 233.459C276.685 233.694 276.531 233.984 276.477 234.318H279.226V234.328Z" fill="#C8C8C8"/>
<path d="M230.583 272.625C229.95 272.291 229.443 271.775 229.072 271.097C228.693 270.418 228.512 269.586 228.512 268.591C228.512 267.605 228.702 266.773 229.072 266.095C229.452 265.416 229.95 264.91 230.583 264.566C231.216 264.231 231.912 264.059 232.681 264.059C233.449 264.059 234.146 264.231 234.779 264.566C235.412 264.901 235.918 265.416 236.289 266.095C236.669 266.773 236.85 267.605 236.85 268.591C236.85 269.577 236.66 270.409 236.289 271.097C235.909 271.775 235.412 272.282 234.779 272.625C234.146 272.96 233.449 273.132 232.681 273.132C231.921 273.132 231.216 272.969 230.583 272.625ZM233.947 271.296C234.327 271.078 234.625 270.744 234.851 270.292C235.077 269.839 235.195 269.278 235.195 268.6C235.195 267.922 235.077 267.361 234.851 266.909C234.625 266.456 234.317 266.122 233.947 265.905C233.567 265.687 233.151 265.579 232.69 265.579C232.228 265.579 231.803 265.687 231.433 265.905C231.053 266.122 230.754 266.456 230.528 266.909C230.302 267.361 230.185 267.922 230.185 268.6C230.185 269.278 230.302 269.839 230.528 270.292C230.754 270.744 231.062 271.078 231.433 271.296C231.812 271.513 232.228 271.621 232.69 271.621C233.151 271.612 233.576 271.504 233.947 271.296Z" fill="#C8C8C8"/>
<path d="M238.649 275.176C238.115 274.814 237.844 274.29 237.844 273.62C237.844 273.096 238.016 272.68 238.359 272.354C238.142 272.092 238.034 271.766 238.034 271.368C238.034 271.07 238.106 270.807 238.242 270.581C238.377 270.355 238.576 270.165 238.82 270.02C238.522 269.658 238.377 269.215 238.377 268.7C238.377 268.265 238.477 267.895 238.685 267.569C238.893 267.243 239.173 266.99 239.535 266.818C239.897 266.637 240.285 266.556 240.719 266.556C241.135 266.556 241.524 266.646 241.895 266.836L243.098 266.203L243.722 267.243L242.808 267.696C242.98 267.994 243.062 268.329 243.062 268.709C243.062 269.143 242.962 269.514 242.754 269.839C242.546 270.165 242.266 270.409 241.904 270.581C241.542 270.753 241.154 270.834 240.719 270.834C240.403 270.834 240.086 270.789 239.797 270.699C239.598 270.816 239.49 270.979 239.49 271.178C239.49 271.332 239.544 271.449 239.643 271.522C239.743 271.603 239.897 271.639 240.086 271.639H241.389C242.076 271.639 242.619 271.802 243.025 272.128C243.432 272.453 243.631 272.915 243.631 273.512C243.631 274.009 243.496 274.425 243.215 274.751C242.944 275.077 242.582 275.321 242.148 275.475C241.714 275.628 241.235 275.71 240.729 275.71C239.878 275.719 239.182 275.538 238.649 275.176ZM241.696 274.208C241.94 274.082 242.058 273.883 242.058 273.611C242.058 273.367 241.967 273.195 241.796 273.096C241.615 272.996 241.362 272.951 241.036 272.951H240.177C239.888 272.951 239.643 272.933 239.444 272.897C239.354 273.041 239.309 273.231 239.309 273.476C239.309 273.774 239.435 274 239.698 274.154C239.96 274.308 240.303 274.389 240.738 274.389C241.135 274.398 241.452 274.335 241.696 274.208ZM241.343 269.324C241.506 269.161 241.588 268.953 241.588 268.7C241.588 268.437 241.506 268.22 241.343 268.057C241.181 267.895 240.973 267.813 240.719 267.813C240.466 267.813 240.258 267.895 240.096 268.057C239.933 268.22 239.851 268.437 239.851 268.7C239.851 268.953 239.933 269.161 240.096 269.324C240.258 269.487 240.466 269.568 240.719 269.568C240.964 269.559 241.181 269.487 241.343 269.324Z" fill="#C8C8C8"/>
<path d="M244.88 268.374C244.681 268.175 244.572 267.922 244.572 267.614C244.572 267.307 244.672 267.053 244.88 266.854C245.079 266.655 245.332 266.547 245.639 266.547C245.947 266.547 246.2 266.646 246.399 266.854C246.598 267.062 246.706 267.307 246.706 267.614C246.706 267.922 246.607 268.175 246.399 268.374C246.2 268.573 245.947 268.682 245.639 268.682C245.332 268.682 245.079 268.573 244.88 268.374ZM244.88 272.806C244.681 272.607 244.572 272.354 244.572 272.046C244.572 271.739 244.672 271.486 244.88 271.287C245.079 271.088 245.332 270.979 245.639 270.979C245.947 270.979 246.2 271.079 246.399 271.287C246.598 271.486 246.706 271.739 246.706 272.046C246.706 272.354 246.607 272.607 246.399 272.806C246.191 273.005 245.947 273.114 245.639 273.114C245.332 273.114 245.079 273.005 244.88 272.806Z" fill="#C8C8C8"/>
<path d="M248.65 272.245C248.162 271.648 247.918 270.852 247.918 269.848C247.918 268.844 248.162 268.039 248.65 267.451C249.139 266.854 249.817 266.556 250.703 266.556C251.065 266.556 251.4 266.619 251.698 266.755C251.996 266.882 252.223 267.044 252.376 267.243V264.078H253.95V273.041H252.376V272.381C252.277 272.571 252.078 272.752 251.77 272.906C251.472 273.059 251.11 273.141 250.703 273.141C249.817 273.132 249.13 272.833 248.65 272.245ZM252.105 271.278C252.376 270.934 252.521 270.454 252.521 269.839C252.521 269.224 252.385 268.745 252.105 268.401C251.825 268.057 251.481 267.886 251.047 267.886C250.613 267.886 250.26 268.057 249.98 268.401C249.699 268.745 249.564 269.224 249.564 269.839C249.564 270.445 249.699 270.925 249.98 271.269C250.26 271.612 250.613 271.784 251.047 271.784C251.481 271.784 251.825 271.621 252.105 271.278Z" fill="#C8C8C8"/>
<path d="M256.7 272.643C256.239 272.318 255.904 271.902 255.687 271.404C255.47 270.898 255.361 270.382 255.361 269.839C255.361 269.297 255.47 268.781 255.687 268.275C255.904 267.768 256.239 267.361 256.7 267.035C257.161 266.71 257.74 266.547 258.427 266.547C259.096 266.547 259.648 266.701 260.1 267.026C260.543 267.343 260.878 267.741 261.086 268.22C261.294 268.7 261.402 269.197 261.402 269.704V270.346H257.007C257.025 270.735 257.161 271.07 257.432 271.359C257.704 271.648 258.056 271.793 258.517 271.793C258.87 271.793 259.169 271.712 259.413 271.549C259.657 271.386 259.874 271.142 260.064 270.798L261.33 271.269C261.068 271.866 260.706 272.327 260.236 272.652C259.765 272.969 259.169 273.132 258.427 273.132C257.731 273.132 257.161 272.969 256.7 272.643ZM259.792 269.107C259.72 268.754 259.566 268.464 259.34 268.229C259.114 268.003 258.807 267.886 258.418 267.886C258.047 267.886 257.74 268.003 257.496 268.238C257.251 268.474 257.098 268.763 257.043 269.098H259.792V269.107Z" fill="#C8C8C8"/>
<path d="M263.102 272.625C262.659 272.291 262.369 271.884 262.225 271.413L263.482 270.744C263.599 271.07 263.762 271.332 263.979 271.513C264.196 271.703 264.449 271.793 264.748 271.793C264.974 271.793 265.164 271.748 265.317 271.648C265.471 271.549 265.543 271.395 265.543 271.178C265.543 270.988 265.453 270.825 265.272 270.699C265.091 270.581 264.811 270.445 264.431 270.31C264.368 270.292 264.286 270.255 264.169 270.21C263.681 270.02 263.301 269.767 263.029 269.478C262.758 269.179 262.623 268.799 262.623 268.338C262.623 268.012 262.713 267.705 262.885 267.442C263.066 267.171 263.301 266.954 263.608 266.8C263.916 266.637 264.268 266.556 264.657 266.556C265.091 266.556 265.48 266.646 265.833 266.827C266.186 267.008 266.466 267.261 266.656 267.596L265.715 268.455C265.462 268.085 265.118 267.895 264.693 267.895C264.522 267.895 264.377 267.94 264.259 268.03C264.133 268.121 264.078 268.238 264.078 268.374C264.078 268.528 264.169 268.673 264.341 268.799C264.513 268.926 264.865 269.089 265.381 269.269C265.869 269.45 266.249 269.677 266.511 269.966C266.773 270.255 266.909 270.617 266.909 271.07C266.909 271.694 266.71 272.191 266.312 272.571C265.914 272.951 265.399 273.132 264.757 273.132C264.097 273.132 263.545 272.969 263.102 272.625Z" fill="#C8C8C8"/>
<path d="M269.198 272.698C268.728 272.408 268.375 272.01 268.14 271.513C267.905 271.015 267.787 270.454 267.787 269.839C267.787 269.224 267.905 268.663 268.14 268.166C268.375 267.668 268.728 267.271 269.198 266.981C269.668 266.692 270.238 266.547 270.898 266.547C271.603 266.547 272.209 266.701 272.698 267.008C273.195 267.316 273.557 267.768 273.792 268.365L272.39 268.935C272.218 268.591 272.019 268.329 271.775 268.148C271.531 267.967 271.242 267.886 270.898 267.886C270.419 267.886 270.048 268.066 269.804 268.419C269.56 268.772 269.433 269.251 269.433 269.83C269.433 270.409 269.56 270.889 269.804 271.241C270.048 271.594 270.419 271.775 270.898 271.775C271.242 271.775 271.54 271.685 271.775 271.513C272.01 271.341 272.218 271.07 272.39 270.726L273.792 271.296C273.557 271.893 273.195 272.354 272.698 272.652C272.2 272.96 271.603 273.114 270.898 273.114C270.229 273.132 269.659 272.987 269.198 272.698Z" fill="#C8C8C8"/>
<path d="M275.138 266.646H276.711V267.687C276.938 267.325 277.218 267.044 277.543 266.845C277.869 266.646 278.222 266.547 278.592 266.547C278.828 266.547 279.09 266.592 279.361 266.674L279.072 268.13C278.882 268.012 278.656 267.949 278.412 267.949C277.914 267.949 277.507 268.175 277.182 268.627C276.865 269.08 276.702 269.794 276.702 270.762V273.032H275.129V266.646H275.138Z" fill="#C8C8C8"/>
<path d="M280.483 265.534C280.293 265.344 280.193 265.1 280.193 264.81C280.193 264.521 280.293 264.286 280.483 264.087C280.673 263.888 280.917 263.797 281.206 263.797C281.496 263.797 281.731 263.897 281.93 264.087C282.12 264.276 282.219 264.521 282.219 264.81C282.219 265.1 282.12 265.335 281.93 265.534C281.74 265.724 281.496 265.823 281.206 265.823C280.917 265.823 280.673 265.733 280.483 265.534ZM280.419 266.646H281.993V273.032H280.419V266.646Z" fill="#C8C8C8"/>
<path d="M283.758 266.646H285.331V267.307C285.431 267.117 285.621 266.945 285.91 266.791C286.19 266.628 286.516 266.547 286.878 266.547C287.818 266.547 288.533 266.845 289.039 267.442C289.545 268.039 289.79 268.835 289.79 269.839C289.79 270.843 289.536 271.648 289.039 272.236C288.533 272.833 287.818 273.132 286.878 273.132C286.561 273.132 286.263 273.059 285.982 272.933C285.693 272.797 285.476 272.634 285.34 272.453V275.619H283.767V266.646H283.758ZM287.728 271.269C288.008 270.925 288.144 270.445 288.144 269.839C288.144 269.224 288.008 268.745 287.728 268.401C287.447 268.057 287.095 267.886 286.661 267.886C286.227 267.886 285.874 268.057 285.603 268.401C285.331 268.745 285.187 269.224 285.187 269.839C285.187 270.454 285.322 270.934 285.603 271.278C285.874 271.621 286.227 271.793 286.661 271.793C287.095 271.793 287.447 271.621 287.728 271.269Z" fill="#C8C8C8"/>
<path d="M291.987 272.535C291.571 272.137 291.363 271.549 291.363 270.771V267.985H290.377V266.646H291.363V265.054L292.936 264.068V266.655H294.618V267.994H292.936V270.753C292.936 271.133 293.009 271.404 293.144 271.558C293.28 271.712 293.488 271.793 293.768 271.793C293.976 271.793 294.184 271.739 294.374 271.639L294.745 272.906C294.419 273.059 294.067 273.132 293.705 273.132C292.981 273.132 292.403 272.933 291.987 272.535Z" fill="#C8C8C8"/>
<path d="M295.903 265.534C295.713 265.344 295.613 265.1 295.613 264.81C295.613 264.521 295.713 264.286 295.903 264.087C296.093 263.888 296.337 263.797 296.626 263.797C296.915 263.797 297.151 263.897 297.35 264.087C297.539 264.276 297.639 264.521 297.639 264.81C297.639 265.1 297.539 265.335 297.35 265.534C297.16 265.724 296.915 265.823 296.626 265.823C296.337 265.823 296.093 265.733 295.903 265.534ZM295.839 266.646H297.413V273.032H295.839V266.646Z" fill="#C8C8C8"/>
<path d="M300.305 272.707C299.817 272.417 299.446 272.028 299.184 271.531C298.931 271.033 298.795 270.473 298.795 269.848C298.795 269.224 298.922 268.663 299.184 268.166C299.446 267.668 299.817 267.27 300.305 266.99C300.793 266.701 301.372 266.556 302.041 266.556C302.711 266.556 303.289 266.701 303.778 266.99C304.266 267.28 304.637 267.668 304.899 268.166C305.152 268.663 305.288 269.224 305.288 269.848C305.288 270.473 305.161 271.033 304.899 271.531C304.637 272.028 304.266 272.417 303.778 272.707C303.289 272.996 302.711 273.141 302.041 273.141C301.372 273.141 300.793 272.987 300.305 272.707ZM303.208 271.223C303.497 270.843 303.642 270.382 303.642 269.839C303.642 269.288 303.497 268.826 303.208 268.455C302.919 268.076 302.53 267.895 302.041 267.895C301.553 267.895 301.164 268.085 300.875 268.455C300.585 268.835 300.441 269.297 300.441 269.839C300.441 270.391 300.585 270.852 300.875 271.223C301.164 271.594 301.553 271.784 302.041 271.784C302.53 271.784 302.919 271.603 303.208 271.223Z" fill="#C8C8C8"/>
<path d="M306.699 266.646H308.273V267.669C308.517 267.325 308.806 267.044 309.15 266.845C309.485 266.646 309.855 266.538 310.253 266.538C310.841 266.538 311.32 266.701 311.673 267.035C312.035 267.361 312.216 267.84 312.216 268.464V273.023H310.642V268.935C310.642 268.573 310.561 268.311 310.398 268.139C310.235 267.967 310.009 267.886 309.738 267.886C309.475 267.886 309.231 267.985 309.014 268.193C308.797 268.392 308.616 268.691 308.481 269.089C308.345 269.478 308.282 269.948 308.282 270.491V273.032H306.708V266.646H306.699Z" fill="#C8C8C8"/>
<path d="M230.61 305.984C229.977 305.632 229.461 305.116 229.081 304.438C228.702 303.75 228.512 302.936 228.512 301.977C228.512 301.028 228.702 300.204 229.081 299.517C229.461 298.829 229.968 298.314 230.61 297.97C231.243 297.617 231.948 297.446 232.708 297.446C233.666 297.446 234.471 297.681 235.104 298.151C235.737 298.621 236.162 299.282 236.379 300.132L234.896 300.512C234.706 300.023 234.444 299.644 234.1 299.372C233.757 299.101 233.287 298.965 232.708 298.965C232.238 298.965 231.812 299.074 231.433 299.3C231.053 299.526 230.754 299.861 230.528 300.313C230.302 300.765 230.194 301.317 230.194 301.977C230.194 302.638 230.302 303.189 230.528 303.642C230.754 304.094 231.053 304.429 231.433 304.655C231.812 304.881 232.238 304.989 232.708 304.989C233.287 304.989 233.757 304.854 234.1 304.582C234.444 304.311 234.715 303.931 234.896 303.443L236.379 303.823C236.171 304.673 235.746 305.333 235.104 305.803C234.462 306.274 233.666 306.509 232.708 306.509C231.939 306.509 231.243 306.337 230.61 305.984Z" fill="#C8C8C8"/>
<path d="M237.79 297.446H239.364V301.055C239.572 300.72 239.852 300.449 240.205 300.241C240.558 300.033 240.946 299.933 241.389 299.933C242.004 299.933 242.493 300.096 242.845 300.421C243.198 300.747 243.379 301.226 243.379 301.86V306.419H241.805V302.42C241.805 302.032 241.724 301.742 241.57 301.561C241.417 301.371 241.172 301.281 240.856 301.281C240.603 301.281 240.359 301.371 240.132 301.543C239.906 301.724 239.717 301.986 239.572 302.357C239.427 302.728 239.355 303.18 239.355 303.723V306.419H237.781V297.446H237.79Z" fill="#C8C8C8"/>
<path d="M245.16 306.002C244.798 305.668 244.617 305.188 244.617 304.573C244.617 303.94 244.861 303.434 245.341 303.054C245.82 302.674 246.471 302.484 247.294 302.484H248.406V302.203C248.406 301.896 248.298 301.661 248.09 301.498C247.882 301.344 247.61 301.263 247.294 301.263C246.742 301.263 246.381 301.507 246.191 301.995L244.861 301.688C244.961 301.154 245.232 300.729 245.675 300.403C246.118 300.078 246.652 299.915 247.285 299.915C248.135 299.915 248.795 300.141 249.265 300.593C249.736 301.046 249.971 301.706 249.971 302.592V306.4H248.678L248.515 305.586C248.017 306.192 247.366 306.5 246.552 306.5C245.983 306.509 245.522 306.346 245.16 306.002ZM247.972 304.808C248.262 304.564 248.406 304.248 248.406 303.85V303.723H247.357C247.014 303.723 246.742 303.786 246.552 303.922C246.363 304.058 246.272 304.266 246.272 304.546C246.272 304.736 246.335 304.881 246.471 304.998C246.607 305.116 246.769 305.17 246.987 305.17C247.348 305.17 247.683 305.053 247.972 304.808Z" fill="#C8C8C8"/>
<path d="M251.564 300.033H253.137V301.073C253.363 300.711 253.644 300.431 253.969 300.232C254.295 300.033 254.647 299.933 255.018 299.933C255.253 299.933 255.516 299.978 255.787 300.06L255.498 301.516C255.308 301.398 255.082 301.335 254.837 301.335C254.34 301.335 253.933 301.561 253.607 302.014C253.291 302.466 253.128 303.18 253.128 304.148V306.419H251.555V300.033H251.564Z" fill="#C8C8C8"/>
<path d="M257.026 306.002C256.583 305.668 256.293 305.261 256.148 304.79L257.405 304.121C257.523 304.447 257.686 304.709 257.903 304.89C258.12 305.08 258.373 305.17 258.672 305.17C258.898 305.17 259.087 305.125 259.241 305.026C259.395 304.926 259.467 304.772 259.467 304.555C259.467 304.365 259.377 304.203 259.196 304.076C259.015 303.958 258.735 303.823 258.355 303.687C258.292 303.669 258.21 303.633 258.093 303.587C257.604 303.397 257.225 303.144 256.953 302.855C256.682 302.556 256.546 302.176 256.546 301.715C256.546 301.389 256.637 301.082 256.809 300.82C256.989 300.548 257.225 300.331 257.532 300.177C257.84 300.015 258.192 299.933 258.581 299.933C259.015 299.933 259.404 300.024 259.757 300.204C260.109 300.385 260.39 300.639 260.58 300.973L259.639 301.833C259.386 301.462 259.042 301.272 258.617 301.272C258.445 301.272 258.301 301.317 258.183 301.407C258.057 301.498 258.002 301.616 258.002 301.751C258.002 301.905 258.093 302.05 258.265 302.176C258.436 302.303 258.789 302.466 259.305 302.647C259.793 302.828 260.173 303.054 260.435 303.343C260.697 303.633 260.833 303.994 260.833 304.447C260.833 305.071 260.634 305.568 260.236 305.948C259.838 306.328 259.323 306.509 258.681 306.509C258.02 306.509 257.469 306.346 257.026 306.002Z" fill="#C8C8C8"/>
<path d="M263.04 306.03C262.578 305.704 262.244 305.288 262.027 304.79C261.81 304.284 261.701 303.768 261.701 303.226C261.701 302.683 261.81 302.167 262.027 301.661C262.244 301.154 262.578 300.747 263.04 300.422C263.501 300.096 264.08 299.933 264.767 299.933C265.436 299.933 265.988 300.087 266.44 300.413C266.883 300.729 267.218 301.127 267.426 301.606C267.634 302.086 267.742 302.583 267.742 303.09V303.732H263.347C263.365 304.121 263.501 304.456 263.772 304.745C264.043 305.035 264.396 305.179 264.857 305.179C265.21 305.179 265.508 305.098 265.753 304.935C265.997 304.772 266.214 304.528 266.404 304.184L267.67 304.655C267.407 305.252 267.046 305.713 266.575 306.039C266.105 306.355 265.508 306.518 264.767 306.518C264.08 306.509 263.501 306.346 263.04 306.03ZM266.141 302.484C266.069 302.131 265.915 301.842 265.689 301.606C265.463 301.38 265.156 301.263 264.767 301.263C264.396 301.263 264.089 301.38 263.844 301.616C263.6 301.851 263.447 302.14 263.392 302.475H266.141V302.484Z" fill="#C8C8C8"/>
<path d="M270.002 305.921C269.586 305.523 269.378 304.935 269.378 304.157V301.371H268.393V300.033H269.378V298.441L270.952 297.455V300.042H272.634V301.38H270.952V304.139C270.952 304.519 271.024 304.79 271.16 304.944C271.295 305.098 271.503 305.179 271.784 305.179C271.992 305.179 272.2 305.125 272.39 305.026L272.76 306.292C272.435 306.446 272.082 306.518 271.72 306.518C270.988 306.509 270.409 306.31 270.002 305.921Z" fill="#C8C8C8"/>
<g filter="url(#filter2_d_511_2)">
<path d="M531 113.071V150.929C531 153.18 529.353 155 527.316 155H365.316C363.279 155 361.632 153.18 361.632 150.929V138.071H353.493C351.976 138.071 350.605 137.389 349.607 136.295C348.617 135.192 348 133.677 348 132C348 128.646 350.459 125.929 353.493 125.929H361.632V113.071C361.632 110.82 363.279 109 365.316 109H527.316C529.353 109 531 110.82 531 113.071Z" fill="white"/>
</g>
<path d="M385.891 120.954H383.422V119.434H390.005V120.954H387.537V128.298H385.891V120.954Z" fill="#FA8617"/>
<path d="M391.199 119.326H392.772V122.935C392.98 122.6 393.26 122.329 393.613 122.121C393.966 121.913 394.355 121.813 394.798 121.813C395.413 121.813 395.901 121.976 396.254 122.301C396.606 122.627 396.787 123.107 396.787 123.74V128.298H395.214V124.3C395.214 123.912 395.132 123.622 394.979 123.441C394.825 123.251 394.581 123.161 394.264 123.161C394.011 123.161 393.767 123.251 393.541 123.423C393.315 123.604 393.125 123.875 392.98 124.237C392.835 124.599 392.763 125.06 392.763 125.603V128.298H391.189V119.326H391.199Z" fill="#FA8617"/>
<path d="M399.538 127.91C399.076 127.584 398.742 127.168 398.525 126.67C398.308 126.164 398.199 125.648 398.199 125.105C398.199 124.563 398.308 124.047 398.525 123.541C398.742 123.034 399.076 122.627 399.538 122.301C399.999 121.976 400.578 121.813 401.265 121.813C401.934 121.813 402.486 121.967 402.938 122.283C403.381 122.6 403.716 122.998 403.924 123.477C404.132 123.957 404.24 124.454 404.24 124.961V125.603H399.845C399.863 125.992 399.999 126.327 400.27 126.616C400.532 126.905 400.894 127.05 401.355 127.05C401.708 127.05 402.006 126.969 402.251 126.806C402.495 126.643 402.712 126.399 402.902 126.055L404.168 126.526C403.905 127.123 403.544 127.584 403.074 127.91C402.603 128.226 402.006 128.389 401.265 128.389C400.569 128.398 399.999 128.235 399.538 127.91ZM402.63 124.373C402.558 124.02 402.404 123.731 402.178 123.495C401.952 123.269 401.645 123.152 401.256 123.152C400.885 123.152 400.578 123.269 400.333 123.504C400.089 123.74 399.936 124.029 399.881 124.364H402.63V124.373Z" fill="#FA8617"/>
<path d="M408.798 121.912H410.372V122.935C410.616 122.564 410.887 122.283 411.176 122.093C411.466 121.903 411.809 121.813 412.207 121.813C412.623 121.813 412.985 121.922 413.311 122.139C413.627 122.356 413.862 122.69 413.998 123.125C414.224 122.708 414.513 122.392 414.857 122.157C415.201 121.922 415.562 121.813 415.951 121.813C416.539 121.813 417.009 121.985 417.344 122.329C417.679 122.672 417.85 123.161 417.85 123.776V128.298H416.277V124.047C416.277 123.459 416.015 123.161 415.49 123.161C415.083 123.161 414.758 123.387 414.495 123.848C414.233 124.3 414.106 124.961 414.106 125.82V128.298H412.533V124.047C412.533 123.459 412.271 123.161 411.746 123.161C411.339 123.161 411.014 123.396 410.751 123.875C410.498 124.355 410.363 125.042 410.363 125.956V128.298H408.789V121.912H408.798Z" fill="#FA8617"/>
<path d="M420.59 127.91C420.129 127.584 419.795 127.168 419.578 126.67C419.36 126.164 419.252 125.648 419.252 125.105C419.252 124.563 419.36 124.047 419.578 123.541C419.795 123.034 420.129 122.627 420.59 122.301C421.052 121.976 421.63 121.813 422.318 121.813C422.987 121.813 423.538 121.967 423.991 122.283C424.434 122.6 424.768 122.998 424.976 123.477C425.184 123.957 425.293 124.454 425.293 124.961V125.603H420.898C420.916 125.992 421.052 126.327 421.323 126.616C421.585 126.905 421.947 127.05 422.408 127.05C422.761 127.05 423.059 126.969 423.303 126.806C423.547 126.643 423.765 126.399 423.954 126.055L425.22 126.526C424.958 127.123 424.597 127.584 424.126 127.91C423.656 128.226 423.059 128.389 422.318 128.389C421.621 128.398 421.052 128.235 420.59 127.91ZM423.683 124.373C423.611 124.02 423.457 123.731 423.231 123.495C423.005 123.269 422.697 123.152 422.309 123.152C421.938 123.152 421.63 123.269 421.386 123.504C421.142 123.74 420.988 124.029 420.934 124.364H423.683V124.373Z" fill="#FA8617"/>
<path d="M427.543 127.801C427.127 127.403 426.919 126.815 426.919 126.037V123.251H425.934V121.913H426.919V120.321L428.493 119.335V121.922H430.175V123.26H428.493V126.019C428.493 126.399 428.565 126.67 428.701 126.824C428.836 126.978 429.054 127.059 429.325 127.059C429.533 127.059 429.741 127.005 429.931 126.906L430.301 128.172C429.976 128.326 429.623 128.398 429.261 128.398C428.529 128.398 427.959 128.199 427.543 127.801Z" fill="#FA8617"/>
<path d="M431.496 127.891C431.134 127.557 430.953 127.077 430.953 126.462C430.953 125.829 431.197 125.323 431.677 124.943C432.156 124.563 432.807 124.373 433.63 124.373H434.742V124.092C434.742 123.776 434.634 123.55 434.426 123.387C434.218 123.224 433.946 123.152 433.63 123.152C433.078 123.152 432.717 123.396 432.527 123.884L431.197 123.577C431.297 123.043 431.568 122.618 432.011 122.292C432.454 121.967 432.988 121.804 433.63 121.804C434.48 121.804 435.14 122.03 435.61 122.482C436.081 122.935 436.316 123.595 436.316 124.481V128.289H435.023L434.86 127.475C434.362 128.081 433.711 128.389 432.897 128.389C432.319 128.398 431.857 128.226 431.496 127.891ZM434.308 126.688C434.598 126.444 434.742 126.128 434.742 125.73V125.603H433.693C433.35 125.603 433.078 125.666 432.888 125.802C432.698 125.938 432.599 126.146 432.599 126.426C432.599 126.616 432.662 126.761 432.798 126.878C432.925 126.996 433.096 127.05 433.313 127.05C433.684 127.05 434.019 126.933 434.308 126.688Z" fill="#FA8617"/>
<path d="M441.462 127.503C440.973 126.906 440.738 126.11 440.738 125.106C440.738 124.101 440.982 123.296 441.462 122.709C441.95 122.112 442.637 121.813 443.524 121.813C443.885 121.813 444.22 121.876 444.518 122.012C444.817 122.148 445.043 122.301 445.197 122.5V119.335H446.77V128.298H445.197V127.638C445.097 127.828 444.898 128.009 444.591 128.163C444.292 128.317 443.931 128.398 443.524 128.398C442.637 128.398 441.95 128.1 441.462 127.503ZM444.925 126.544C445.197 126.2 445.341 125.721 445.341 125.106C445.341 124.49 445.206 124.011 444.925 123.667C444.654 123.324 444.301 123.152 443.867 123.152C443.433 123.152 443.08 123.324 442.8 123.667C442.52 124.011 442.384 124.49 442.384 125.106C442.384 125.712 442.52 126.191 442.8 126.535C443.08 126.878 443.433 127.05 443.867 127.05C444.292 127.05 444.645 126.878 444.925 126.544Z" fill="#FA8617"/>
<path d="M449.52 127.91C449.059 127.584 448.724 127.168 448.507 126.67C448.29 126.164 448.182 125.648 448.182 125.105C448.182 124.563 448.29 124.047 448.507 123.541C448.724 123.034 449.059 122.627 449.52 122.301C449.981 121.976 450.56 121.813 451.247 121.813C451.916 121.813 452.468 121.967 452.92 122.283C453.363 122.6 453.698 122.998 453.906 123.477C454.114 123.957 454.222 124.454 454.222 124.961V125.603H449.828C449.846 125.992 449.981 126.327 450.253 126.616C450.515 126.905 450.877 127.05 451.338 127.05C451.69 127.05 451.989 126.969 452.233 126.806C452.477 126.643 452.694 126.399 452.884 126.055L454.15 126.526C453.888 127.123 453.526 127.584 453.056 127.91C452.586 128.226 451.989 128.389 451.247 128.389C450.551 128.398 449.981 128.235 449.52 127.91ZM452.613 124.373C452.54 124.02 452.387 123.731 452.161 123.495C451.935 123.269 451.627 123.152 451.238 123.152C450.867 123.152 450.56 123.269 450.316 123.504C450.072 123.74 449.918 124.029 449.864 124.364H452.613V124.373Z" fill="#FA8617"/>
<path d="M455.922 127.891C455.479 127.557 455.19 127.15 455.045 126.679L456.302 126.01C456.42 126.336 456.582 126.598 456.799 126.779C457.016 126.969 457.27 127.059 457.568 127.059C457.794 127.059 457.984 127.014 458.138 126.915C458.291 126.815 458.364 126.661 458.364 126.444C458.364 126.254 458.273 126.091 458.092 125.974C457.912 125.847 457.631 125.721 457.251 125.585C457.188 125.567 457.107 125.531 456.989 125.485C456.501 125.295 456.121 125.042 455.85 124.753C455.578 124.454 455.443 124.074 455.443 123.613C455.443 123.287 455.533 122.98 455.705 122.717C455.877 122.455 456.121 122.229 456.429 122.075C456.736 121.922 457.089 121.831 457.478 121.831C457.912 121.831 458.3 121.922 458.653 122.102C459.006 122.283 459.286 122.537 459.476 122.871L458.536 123.731C458.282 123.36 457.939 123.17 457.514 123.17C457.342 123.17 457.197 123.215 457.08 123.305C456.962 123.396 456.899 123.513 456.899 123.658C456.899 123.812 456.989 123.948 457.161 124.083C457.342 124.219 457.686 124.373 458.201 124.554C458.689 124.735 459.069 124.961 459.331 125.25C459.594 125.54 459.729 125.901 459.729 126.354C459.729 126.978 459.53 127.475 459.132 127.855C458.735 128.235 458.219 128.416 457.577 128.416C456.917 128.398 456.365 128.226 455.922 127.891Z" fill="#FA8617"/>
<path d="M462.016 127.955C461.546 127.665 461.193 127.267 460.958 126.77C460.723 126.272 460.605 125.712 460.605 125.096C460.605 124.481 460.723 123.921 460.958 123.423C461.193 122.926 461.546 122.528 462.016 122.238C462.486 121.949 463.056 121.804 463.716 121.804C464.422 121.804 465.028 121.958 465.525 122.265C466.022 122.573 466.384 123.025 466.619 123.631L465.217 124.201C465.046 123.857 464.847 123.595 464.603 123.414C464.358 123.233 464.069 123.152 463.725 123.152C463.246 123.152 462.875 123.333 462.631 123.694C462.378 124.056 462.26 124.527 462.26 125.105C462.26 125.684 462.387 126.155 462.631 126.517C462.875 126.878 463.246 127.05 463.725 127.05C464.069 127.05 464.367 126.96 464.603 126.788C464.847 126.607 465.046 126.345 465.217 126.001L466.619 126.571C466.384 127.168 466.013 127.62 465.525 127.928C465.037 128.235 464.431 128.389 463.716 128.389C463.047 128.398 462.477 128.253 462.016 127.955Z" fill="#FA8617"/>
<path d="M467.958 121.912H469.532V122.953C469.758 122.591 470.038 122.31 470.364 122.111C470.689 121.912 471.042 121.813 471.413 121.813C471.648 121.813 471.91 121.858 472.181 121.94L471.892 123.396C471.702 123.278 471.476 123.215 471.232 123.215C470.735 123.215 470.328 123.441 470.002 123.893C469.686 124.346 469.523 125.06 469.523 126.028V128.298H467.949V121.912H467.958Z" fill="#FA8617"/>
<path d="M473.303 120.8C473.113 120.61 473.014 120.366 473.014 120.076C473.014 119.787 473.113 119.552 473.303 119.353C473.493 119.154 473.737 119.063 474.027 119.063C474.316 119.063 474.551 119.163 474.75 119.353C474.94 119.543 475.039 119.787 475.039 120.076C475.039 120.366 474.94 120.601 474.75 120.8C474.56 120.99 474.316 121.089 474.027 121.089C473.737 121.089 473.493 120.99 473.303 120.8ZM473.24 121.912H474.813V128.298H473.24V121.912Z" fill="#FA8617"/>
<path d="M476.576 121.912H478.15V122.573C478.249 122.383 478.439 122.211 478.728 122.057C479.009 121.894 479.334 121.813 479.696 121.813C480.637 121.813 481.351 122.111 481.857 122.708C482.364 123.305 482.608 124.101 482.608 125.105C482.608 126.11 482.355 126.905 481.857 127.502C481.36 128.099 480.637 128.398 479.696 128.398C479.38 128.398 479.081 128.335 478.801 128.199C478.511 128.063 478.303 127.9 478.159 127.72V130.885H476.585V121.912H476.576ZM480.537 126.535C480.817 126.191 480.953 125.712 480.953 125.105C480.953 124.49 480.817 124.011 480.537 123.667C480.257 123.324 479.904 123.152 479.47 123.152C479.036 123.152 478.683 123.324 478.412 123.667C478.141 124.011 477.996 124.49 477.996 125.105C477.996 125.721 478.132 126.2 478.412 126.544C478.683 126.887 479.036 127.059 479.47 127.059C479.904 127.05 480.266 126.878 480.537 126.535Z" fill="#FA8617"/>
<path d="M484.805 127.801C484.389 127.403 484.181 126.815 484.181 126.037V123.251H483.195V121.913H484.181V120.321L485.755 119.335V121.922H487.437V123.26H485.755V126.019C485.755 126.399 485.827 126.67 485.963 126.824C486.098 126.978 486.315 127.059 486.587 127.059C486.795 127.059 487.002 127.005 487.192 126.906L487.563 128.172C487.238 128.326 486.885 128.398 486.523 128.398C485.8 128.398 485.221 128.199 484.805 127.801Z" fill="#FA8617"/>
<path d="M488.721 120.8C488.531 120.61 488.432 120.366 488.432 120.076C488.432 119.787 488.531 119.552 488.721 119.353C488.911 119.154 489.155 119.063 489.444 119.063C489.734 119.063 489.969 119.163 490.168 119.353C490.358 119.543 490.457 119.787 490.457 120.076C490.457 120.366 490.358 120.601 490.168 120.8C489.978 120.99 489.734 121.089 489.444 121.089C489.155 121.089 488.911 120.99 488.721 120.8ZM488.658 121.912H490.231V128.298H488.658V121.912Z" fill="#FA8617"/>
<path d="M493.125 127.964C492.637 127.674 492.266 127.285 492.004 126.788C491.751 126.29 491.615 125.73 491.615 125.105C491.615 124.481 491.742 123.921 492.004 123.423C492.266 122.926 492.637 122.537 493.125 122.247C493.614 121.958 494.193 121.813 494.862 121.813C495.531 121.813 496.11 121.958 496.598 122.247C497.086 122.537 497.457 122.926 497.719 123.423C497.973 123.921 498.108 124.481 498.108 125.105C498.108 125.73 497.982 126.29 497.719 126.788C497.457 127.285 497.086 127.674 496.598 127.964C496.11 128.253 495.531 128.398 494.862 128.398C494.193 128.398 493.614 128.253 493.125 127.964ZM496.028 126.489C496.318 126.11 496.462 125.648 496.462 125.105C496.462 124.554 496.318 124.092 496.028 123.722C495.739 123.342 495.35 123.161 494.862 123.161C494.373 123.161 493.985 123.351 493.695 123.722C493.406 124.101 493.261 124.563 493.261 125.105C493.261 125.657 493.406 126.119 493.695 126.489C493.985 126.869 494.373 127.05 494.862 127.05C495.35 127.05 495.739 126.869 496.028 126.489Z" fill="#FA8617"/>
<path d="M499.52 121.912H501.093V122.935C501.337 122.591 501.627 122.31 501.97 122.111C502.305 121.912 502.676 121.804 503.074 121.804C503.661 121.804 504.141 121.967 504.493 122.301C504.855 122.627 505.036 123.106 505.036 123.731V128.289H503.462V124.201C503.462 123.839 503.381 123.568 503.218 123.405C503.055 123.233 502.829 123.152 502.558 123.152C502.296 123.152 502.052 123.251 501.835 123.459C501.618 123.658 501.437 123.957 501.301 124.355C501.165 124.744 501.102 125.214 501.102 125.757V128.298H499.529V121.912H499.52Z" fill="#FA8617"/>
<path d="M510 120.8C509.81 120.61 509.711 120.366 509.711 120.076C509.711 119.787 509.81 119.552 510 119.353C510.19 119.154 510.434 119.063 510.724 119.063C511.013 119.063 511.248 119.163 511.447 119.353C511.637 119.543 511.737 119.787 511.737 120.076C511.737 120.366 511.637 120.601 511.447 120.8C511.257 120.99 511.013 121.089 510.724 121.089C510.434 121.089 510.199 120.99 510 120.8ZM509.937 121.912H511.511V128.298H509.937V121.912Z" fill="#FA8617"/>
<path d="M513.58 127.891C513.137 127.557 512.848 127.15 512.703 126.679L513.96 126.01C514.078 126.336 514.24 126.598 514.458 126.779C514.675 126.969 514.928 127.059 515.226 127.059C515.452 127.059 515.642 127.014 515.796 126.915C515.95 126.815 516.022 126.661 516.022 126.444C516.022 126.254 515.932 126.091 515.751 125.974C515.57 125.847 515.289 125.721 514.91 125.585C514.846 125.567 514.765 125.531 514.647 125.485C514.159 125.295 513.779 125.042 513.508 124.753C513.237 124.454 513.101 124.074 513.101 123.613C513.101 123.287 513.191 122.98 513.363 122.717C513.535 122.455 513.779 122.229 514.087 122.075C514.394 121.922 514.747 121.831 515.136 121.831C515.57 121.831 515.959 121.922 516.311 122.102C516.664 122.283 516.944 122.537 517.134 122.871L516.194 123.731C515.941 123.36 515.597 123.17 515.172 123.17C515 123.17 514.855 123.215 514.738 123.305C514.62 123.396 514.557 123.513 514.557 123.658C514.557 123.812 514.647 123.948 514.819 124.083C515 124.219 515.344 124.373 515.859 124.554C516.348 124.735 516.727 124.961 516.99 125.25C517.252 125.54 517.388 125.901 517.388 126.354C517.388 126.978 517.189 127.475 516.791 127.855C516.393 128.235 515.877 128.416 515.235 128.416C514.575 128.398 514.023 128.226 513.58 127.891Z" fill="#FA8617"/>
<path d="M384.842 142.997C384.426 142.599 384.218 142.011 384.218 141.233V138.447H383.232V137.109H384.218V135.517L385.792 134.531V137.118H387.474V138.456H385.792V141.215C385.792 141.595 385.864 141.866 386 142.02C386.135 142.174 386.352 142.255 386.624 142.255C386.832 142.255 387.04 142.201 387.23 142.102L387.6 143.368C387.275 143.522 386.922 143.594 386.56 143.594C385.828 143.594 385.258 143.395 384.842 142.997Z" fill="#FA8617"/>
<path d="M389.536 143.16C389.047 142.871 388.676 142.482 388.414 141.984C388.161 141.487 388.025 140.926 388.025 140.302C388.025 139.678 388.152 139.117 388.414 138.619C388.676 138.122 389.047 137.724 389.536 137.443C390.024 137.154 390.603 137.009 391.272 137.009C391.941 137.009 392.52 137.154 393.008 137.443C393.497 137.733 393.867 138.122 394.13 138.619C394.383 139.117 394.518 139.678 394.518 140.302C394.518 140.926 394.392 141.487 394.13 141.984C393.867 142.482 393.497 142.871 393.008 143.16C392.52 143.449 391.941 143.594 391.272 143.594C390.603 143.594 390.024 143.449 389.536 143.16ZM392.438 141.686C392.728 141.306 392.873 140.844 392.873 140.302C392.873 139.75 392.728 139.289 392.438 138.918C392.149 138.538 391.76 138.357 391.272 138.357C390.784 138.357 390.395 138.547 390.105 138.918C389.816 139.298 389.671 139.759 389.671 140.302C389.671 140.853 389.816 141.315 390.105 141.686C390.395 142.056 390.784 142.246 391.272 142.246C391.76 142.246 392.149 142.065 392.438 141.686Z" fill="#FA8617"/>
<path d="M397.086 143.16C396.598 142.871 396.227 142.482 395.965 141.984C395.712 141.487 395.576 140.926 395.576 140.302C395.576 139.678 395.703 139.117 395.965 138.619C396.227 138.122 396.598 137.724 397.086 137.443C397.575 137.154 398.153 137.009 398.823 137.009C399.492 137.009 400.071 137.154 400.559 137.443C401.047 137.733 401.418 138.122 401.68 138.619C401.934 139.117 402.069 139.678 402.069 140.302C402.069 140.926 401.943 141.487 401.68 141.984C401.418 142.482 401.047 142.871 400.559 143.16C400.071 143.449 399.492 143.594 398.823 143.594C398.153 143.594 397.575 143.449 397.086 143.16ZM399.98 141.686C400.27 141.306 400.414 140.844 400.414 140.302C400.414 139.75 400.27 139.289 399.98 138.918C399.691 138.538 399.302 138.357 398.814 138.357C398.325 138.357 397.936 138.547 397.647 138.918C397.358 139.298 397.213 139.759 397.213 140.302C397.213 140.853 397.358 141.315 397.647 141.686C397.936 142.056 398.325 142.246 398.814 142.246C399.302 142.246 399.7 142.065 399.98 141.686Z" fill="#FA8617"/>
<path d="M407.043 143.088C406.6 142.753 406.311 142.346 406.166 141.876L407.423 141.206C407.541 141.532 407.703 141.794 407.92 141.975C408.137 142.156 408.391 142.255 408.689 142.255C408.915 142.255 409.105 142.21 409.259 142.111C409.413 142.011 409.485 141.857 409.485 141.64C409.485 141.45 409.394 141.288 409.214 141.161C409.033 141.043 408.752 140.908 408.373 140.772C408.309 140.754 408.228 140.718 408.11 140.672C407.622 140.483 407.242 140.229 406.971 139.94C406.7 139.641 406.564 139.261 406.564 138.8C406.564 138.474 406.654 138.167 406.826 137.905C407.007 137.633 407.242 137.416 407.55 137.262C407.857 137.1 408.21 137.018 408.599 137.018C409.033 137.018 409.422 137.109 409.774 137.29C410.127 137.47 410.407 137.724 410.597 138.058L409.657 138.918C409.403 138.547 409.06 138.357 408.635 138.357C408.463 138.357 408.318 138.402 408.201 138.493C408.083 138.583 408.02 138.701 408.02 138.836C408.02 138.99 408.11 139.135 408.282 139.261C408.463 139.388 408.807 139.551 409.322 139.732C409.81 139.913 410.19 140.139 410.452 140.428C410.715 140.718 410.85 141.08 410.85 141.532C410.85 142.156 410.651 142.653 410.254 143.033C409.856 143.413 409.34 143.594 408.698 143.594C408.038 143.594 407.486 143.422 407.043 143.088Z" fill="#FA8617"/>
<path d="M412.216 134.522H413.79V138.131C413.998 137.796 414.278 137.525 414.631 137.317C414.983 137.109 415.372 137.009 415.815 137.009C416.43 137.009 416.919 137.172 417.271 137.498C417.624 137.823 417.805 138.303 417.805 138.936V143.495H416.231V139.497C416.231 139.108 416.15 138.818 415.996 138.637C415.842 138.456 415.598 138.357 415.282 138.357C415.029 138.357 414.784 138.447 414.558 138.619C414.332 138.8 414.142 139.062 413.998 139.433C413.853 139.795 413.781 140.256 413.781 140.799V143.495H412.207V134.522H412.216Z" fill="#FA8617"/>
<path d="M420.725 143.16C420.237 142.871 419.866 142.482 419.604 141.984C419.351 141.487 419.215 140.926 419.215 140.302C419.215 139.678 419.341 139.117 419.604 138.619C419.866 138.122 420.237 137.724 420.725 137.443C421.213 137.154 421.792 137.009 422.461 137.009C423.131 137.009 423.709 137.154 424.198 137.443C424.686 137.733 425.057 138.122 425.319 138.619C425.572 139.117 425.708 139.678 425.708 140.302C425.708 140.926 425.581 141.487 425.319 141.984C425.057 142.482 424.686 142.871 424.198 143.16C423.709 143.449 423.131 143.594 422.461 143.594C421.792 143.594 421.213 143.449 420.725 143.16ZM423.619 141.686C423.908 141.306 424.053 140.844 424.053 140.302C424.053 139.75 423.908 139.289 423.619 138.918C423.33 138.538 422.941 138.357 422.452 138.357C421.964 138.357 421.575 138.547 421.286 138.918C420.996 139.298 420.852 139.759 420.852 140.302C420.852 140.853 420.996 141.315 421.286 141.686C421.575 142.056 421.964 142.246 422.452 142.246C422.941 142.246 423.33 142.065 423.619 141.686Z" fill="#FA8617"/>
<path d="M427.118 137.109H428.692V138.149C428.918 137.787 429.198 137.507 429.524 137.308C429.849 137.109 430.202 137.009 430.573 137.009C430.808 137.009 431.07 137.054 431.342 137.136L431.052 138.592C430.862 138.474 430.636 138.411 430.392 138.411C429.895 138.411 429.488 138.637 429.162 139.09C428.846 139.542 428.683 140.256 428.683 141.224V143.495H427.109V137.109H427.118Z" fill="#FA8617"/>
<path d="M433.612 142.997C433.196 142.599 432.988 142.011 432.988 141.233V138.447H432.002V137.109H432.988V135.517L434.561 134.531V137.118H436.243V138.456H434.561V141.215C434.561 141.595 434.634 141.866 434.769 142.02C434.905 142.174 435.122 142.255 435.393 142.255C435.601 142.255 435.809 142.201 435.999 142.102L436.37 143.368C436.044 143.522 435.692 143.594 435.33 143.594C434.597 143.594 434.028 143.395 433.612 142.997Z" fill="#FA8617"/>
<path d="M352.475 133.518H363.616C364.53 133.518 365.271 132.776 365.271 131.862C365.271 130.949 364.53 130.207 363.616 130.207H352.475C351.562 130.207 350.82 130.949 350.82 131.862C350.82 132.776 351.562 133.518 352.475 133.518Z" fill="#FA8617"/>
<path d="M26.1974 71.3604H66.8285C68.8271 71.3604 70.4458 70.4654 70.4458 69.3604C70.4458 68.2554 68.8271 67.3604 66.8285 67.3604H26.1974C24.1988 67.3604 22.5801 68.2554 22.5801 69.3604C22.5801 70.4654 24.1988 71.3604 26.1974 71.3604Z" fill="#C8C8C8"/>
<path d="M26.1974 113.918H66.8285C68.8271 113.918 70.4458 113.023 70.4458 111.918C70.4458 110.813 68.8271 109.918 66.8285 109.918H26.1974C24.1988 109.918 22.5801 110.813 22.5801 111.918C22.5801 113.023 24.1988 113.918 26.1974 113.918Z" fill="#FA8617"/>
<path d="M26.1974 127.351H109.359C111.357 127.351 112.976 126.456 112.976 125.351C112.976 124.246 111.357 123.351 109.359 123.351H26.1974C24.1988 123.351 22.5801 124.246 22.5801 125.351C22.5801 126.456 24.1988 127.351 26.1974 127.351Z" fill="#FA8617"/>
<path d="M26.1974 141.868H96.6078C98.6063 141.868 100.225 140.973 100.225 139.868C100.225 138.763 98.6063 137.868 96.6078 137.868H26.1974C24.1988 137.868 22.5801 138.763 22.5801 139.868C22.5801 140.973 24.1988 141.868 26.1974 141.868Z" fill="#FA8617"/>
<path d="M26.1974 156.386H103.987C105.986 156.386 107.604 155.491 107.604 154.386C107.604 153.281 105.986 152.386 103.987 152.386H26.1974C24.1988 152.386 22.5801 153.281 22.5801 154.386C22.5801 155.491 24.1988 156.386 26.1974 156.386Z" fill="#FA8617"/>
<path d="M26.1974 197.551H89.5812C91.5798 197.551 93.1985 196.656 93.1985 195.551C93.1985 194.446 91.5798 193.551 89.5812 193.551H26.1974C24.1988 193.551 22.5801 194.446 22.5801 195.551C22.5801 196.656 24.1988 197.551 26.1974 197.551Z" fill="#C8C8C8"/>
<path d="M26.1974 212.494H108.346C110.344 212.494 111.963 211.599 111.963 210.494C111.963 209.389 110.344 208.494 108.346 208.494H26.1974C24.1988 208.494 22.5801 209.389 22.5801 210.494C22.5801 211.599 24.1988 212.494 26.1974 212.494Z" fill="#C8C8C8"/>
<path d="M23.1875 92.2439V90.7786L28.1341 88.1917V89.8469L24.9419 91.5022L28.1341 93.1575V94.8128L23.1875 92.2439Z" fill="#C8C8C8"/>
<path d="M29.7258 86.464H31.2994V90.0731C31.5074 89.7384 31.7877 89.467 32.1404 89.259C32.4931 89.0509 32.8819 88.9514 33.325 88.9514C33.94 88.9514 34.4283 89.1143 34.781 89.4399C35.1337 89.7655 35.3145 90.2449 35.3145 90.8781V95.4369H33.741V91.4389C33.741 91.05 33.6596 90.7605 33.5059 90.5796C33.3522 90.3897 33.108 90.2992 32.7915 90.2992C32.5383 90.2992 32.2941 90.3897 32.068 90.5615C31.8419 90.7424 31.652 91.0138 31.5074 91.3756C31.3627 91.7374 31.2903 92.1987 31.2903 92.7414V95.4369H29.7168V86.464H29.7258Z" fill="#C8C8C8"/>
<path d="M38.063 95.048C37.6018 94.7223 37.2672 94.3062 37.0502 93.8087C36.8331 93.3022 36.7246 92.7866 36.7246 92.2439C36.7246 91.7012 36.8331 91.1856 37.0502 90.6791C37.2672 90.1725 37.6018 89.7655 38.063 89.4399C38.5242 89.1142 39.103 88.9514 39.7903 88.9514C40.4595 88.9514 41.0111 89.1052 41.4632 89.4218C41.9064 89.7384 42.241 90.1364 42.449 90.6158C42.657 91.0952 42.7655 91.5926 42.7655 92.0992V92.7414H38.3705C38.3886 93.1303 38.5242 93.465 38.7955 93.7545C39.0578 94.0439 39.4195 94.1886 39.8807 94.1886C40.2334 94.1886 40.5318 94.1072 40.776 93.9444C41.0201 93.7816 41.2372 93.5374 41.4271 93.1937L42.6931 93.664C42.4309 94.261 42.0691 94.7223 41.5989 95.048C41.1287 95.3645 40.5318 95.5274 39.7903 95.5274C39.0939 95.5364 38.5152 95.3736 38.063 95.048ZM41.1558 91.5022C41.0834 91.1494 40.9297 90.86 40.7036 90.6248C40.4775 90.3987 40.1701 90.2811 39.7812 90.2811C39.4104 90.2811 39.103 90.3987 38.8588 90.6338C38.6146 90.869 38.4609 91.1585 38.4066 91.4931H41.1558V91.5022Z" fill="#C8C8C8"/>
<path d="M44.3492 95.0299C43.9875 94.6952 43.8066 94.2158 43.8066 93.6007C43.8066 92.9675 44.0508 92.461 44.5301 92.0811C45.0094 91.7012 45.6605 91.5112 46.4834 91.5112H47.5957V91.2308C47.5957 90.9143 47.4872 90.6881 47.2792 90.5253C47.0712 90.3715 46.7999 90.2901 46.4834 90.2901C45.9318 90.2901 45.5701 90.5344 45.3802 91.0228L44.0508 90.7153C44.1503 90.1816 44.4216 89.7565 44.8647 89.4308C45.3078 89.1052 45.8414 88.9424 46.4744 88.9424C47.3244 88.9424 47.9846 89.1685 48.4549 89.6208C48.9251 90.073 49.1602 90.7334 49.1602 91.6198V95.4279H47.867L47.7043 94.6138C47.2069 95.2198 46.5558 95.5274 45.7419 95.5274C45.1722 95.5364 44.711 95.3645 44.3492 95.0299ZM47.1617 93.8268C47.4511 93.5826 47.5957 93.266 47.5957 92.868V92.7414H46.5467C46.2031 92.7414 45.9318 92.8047 45.7419 92.9404C45.552 93.0761 45.4615 93.2841 45.4615 93.5645C45.4615 93.7545 45.5249 93.8992 45.6605 94.0168C45.7961 94.1344 45.9589 94.1887 46.176 94.1887C46.5377 94.1887 46.8723 94.0711 47.1617 93.8268Z" fill="#C8C8C8"/>
<path d="M51.1759 94.6409C50.6875 94.0439 50.4434 93.248 50.4434 92.2439C50.4434 91.2399 50.6875 90.4349 51.1759 89.8469C51.6642 89.2499 52.3424 88.9514 53.2287 88.9514C53.5904 88.9514 53.925 89.0148 54.2234 89.1504C54.5218 89.2861 54.7479 89.4399 54.9017 89.6389V86.473H56.4752V95.4369H54.9017V94.7766C54.8022 94.9666 54.6032 95.1475 54.2958 95.3012C53.9973 95.455 53.6356 95.5364 53.2287 95.5364C52.3424 95.5364 51.6642 95.2379 51.1759 94.6409ZM54.6304 93.6731C54.9017 93.3294 55.0464 92.85 55.0464 92.2349C55.0464 91.6198 54.9107 91.1404 54.6304 90.7967C54.3591 90.453 54.0064 90.2811 53.5723 90.2811C53.1382 90.2811 52.7856 90.453 52.5052 90.7967C52.2249 91.1404 52.0892 91.6198 52.0892 92.2349C52.0892 92.8409 52.2249 93.3203 52.5052 93.664C52.7856 94.0078 53.1382 94.1796 53.5723 94.1796C54.0064 94.1796 54.3591 94.0168 54.6304 93.6731Z" fill="#C8C8C8"/>
<path d="M58.0586 93.1666L61.2509 91.5113L58.0586 89.856V88.1917L63.0052 90.7786V92.2439L58.0586 94.8309V93.1666Z" fill="#C8C8C8"/>
<path d="M23.1875 178.165V176.7L28.1341 174.113V175.768L24.9419 177.423L28.1341 179.079V180.734L23.1875 178.165Z" fill="#C8C8C8"/>
<path d="M34.3731 171.861H35.8923L30.376 181.991H28.8477L34.3731 171.861Z" fill="#C8C8C8"/>
<path d="M36.7883 172.385H38.3619V175.994C38.5699 175.66 38.8502 175.388 39.2029 175.18C39.5556 174.972 39.9444 174.873 40.3875 174.873C41.0025 174.873 41.4908 175.036 41.8435 175.361C42.1962 175.687 42.377 176.166 42.377 176.799V181.358H40.8035V177.36C40.8035 176.971 40.7221 176.682 40.5684 176.501C40.4147 176.311 40.1705 176.22 39.854 176.22C39.6008 176.22 39.3566 176.311 39.1305 176.483C38.9045 176.664 38.7145 176.935 38.5699 177.297C38.4252 177.659 38.3528 178.12 38.3528 178.663V181.358H36.7793V172.385H36.7883Z" fill="#C8C8C8"/>
<path d="M45.1255 180.969C44.6643 180.644 44.3297 180.228 44.1127 179.73C43.8956 179.224 43.7871 178.708 43.7871 178.165C43.7871 177.623 43.8956 177.107 44.1127 176.6C44.3297 176.094 44.6643 175.687 45.1255 175.361C45.5867 175.036 46.1655 174.873 46.8528 174.873C47.522 174.873 48.0736 175.027 48.5258 175.343C48.9689 175.66 49.3035 176.058 49.5115 176.537C49.7195 177.017 49.828 177.514 49.828 178.021V178.663H45.433C45.4511 179.052 45.5867 179.386 45.858 179.676C46.1203 179.965 46.482 180.11 46.9432 180.11C47.2959 180.11 47.5943 180.029 47.8385 179.866C48.0826 179.703 48.2997 179.459 48.4896 179.115L49.7556 179.585C49.4934 180.182 49.1316 180.644 48.6614 180.969C48.1912 181.286 47.5943 181.449 46.8528 181.449C46.1564 181.458 45.5867 181.295 45.1255 180.969ZM48.2183 177.433C48.1459 177.08 47.9922 176.79 47.7661 176.555C47.54 176.329 47.2326 176.212 46.8437 176.212C46.4729 176.212 46.1655 176.329 45.9213 176.564C45.6771 176.799 45.5234 177.089 45.4691 177.424H48.2183V177.433Z" fill="#C8C8C8"/>
<path d="M51.4117 180.951C51.05 180.617 50.8691 180.137 50.8691 179.522C50.8691 178.889 51.1133 178.382 51.5926 178.002C52.0719 177.623 52.723 177.433 53.5459 177.433H54.6582V177.152C54.6582 176.845 54.5497 176.61 54.3417 176.447C54.1337 176.293 53.8624 176.212 53.5459 176.212C52.9943 176.212 52.6326 176.456 52.4427 176.944L51.1133 176.637C51.2128 176.103 51.4841 175.678 51.9272 175.352C52.3703 175.027 52.9039 174.864 53.5369 174.864C54.3869 174.864 55.0471 175.09 55.5173 175.542C55.9876 175.994 56.2227 176.655 56.2227 177.541V181.349H54.9295L54.7668 180.535C54.2694 181.141 53.6183 181.449 52.8044 181.449C52.2347 181.458 51.7735 181.286 51.4117 180.951ZM54.2242 179.748C54.5136 179.504 54.6582 179.187 54.6582 178.789V178.663H53.6092C53.2656 178.663 52.9943 178.726 52.8044 178.862C52.6145 178.997 52.524 179.206 52.524 179.486C52.524 179.676 52.5873 179.821 52.723 179.938C52.8586 180.056 53.0214 180.11 53.2385 180.11C53.6002 180.11 53.9348 179.992 54.2242 179.748Z" fill="#C8C8C8"/>
<path d="M58.2384 180.562C57.75 179.965 57.5059 179.169 57.5059 178.165C57.5059 177.161 57.75 176.356 58.2384 175.768C58.7267 175.171 59.4049 174.873 60.2912 174.873C60.6529 174.873 60.9875 174.936 61.2859 175.072C61.5843 175.198 61.8104 175.361 61.9642 175.56V172.394H63.5377V181.358H61.9642V180.698C61.8647 180.888 61.6657 181.069 61.3583 181.223C61.0598 181.376 60.6981 181.458 60.2912 181.458C59.414 181.458 58.7267 181.159 58.2384 180.562ZM61.6929 179.603C61.9642 179.26 62.1089 178.78 62.1089 178.165C62.1089 177.55 61.9732 177.071 61.6929 176.727C61.4125 176.383 61.0689 176.211 60.6348 176.211C60.2007 176.211 59.8481 176.383 59.5677 176.727C59.2874 177.071 59.1517 177.55 59.1517 178.165C59.1517 178.771 59.2874 179.251 59.5677 179.594C59.8481 179.938 60.2007 180.11 60.6348 180.11C61.0689 180.11 61.4216 179.938 61.6929 179.603Z" fill="#C8C8C8"/>
<path d="M65.1211 179.088L68.3133 177.433L65.1211 175.777V174.122L70.0677 176.709V178.174L65.1211 180.761V179.088Z" fill="#C8C8C8"/>
<path d="M230.313 24.0153H232.818L235.658 31.5229L238.488 24.0153H240.993V36.0455H238.759V28.6193L236.453 34.942H234.835L232.529 28.6193V36.0455H230.295V24.0153H230.313Z" fill="black"/>
<path d="M244.918 35.521C244.294 35.0777 243.833 34.5169 243.543 33.8385C243.254 33.1601 243.109 32.4456 243.109 31.7129C243.109 30.9802 243.254 30.2747 243.543 29.5872C243.833 28.9088 244.294 28.348 244.918 27.9048C245.542 27.4616 246.32 27.2445 247.26 27.2445C248.165 27.2445 248.924 27.4616 249.53 27.8867C250.136 28.3119 250.588 28.8546 250.868 29.5149C251.158 30.1661 251.293 30.8355 251.293 31.5229V32.4003H245.334C245.361 32.925 245.551 33.3863 245.913 33.7752C246.275 34.1642 246.763 34.3632 247.378 34.3632C247.857 34.3632 248.264 34.2546 248.59 34.0375C248.915 33.8204 249.214 33.4858 249.476 33.0245L251.194 33.6576C250.841 34.4717 250.344 35.0958 249.711 35.53C249.078 35.9642 248.255 36.1813 247.26 36.1813C246.32 36.1813 245.542 35.9642 244.918 35.521ZM249.114 30.7179C249.015 30.2385 248.807 29.8405 248.508 29.533C248.201 29.2254 247.794 29.0717 247.26 29.0717C246.754 29.0717 246.338 29.2345 246.003 29.5511C245.669 29.8676 245.461 30.2656 245.388 30.7179H249.114Z" fill="black"/>
<path d="M254.359 35.3762C253.798 34.8335 253.518 34.0375 253.518 32.9882V29.2073H252.18V27.3892H253.518V25.2274L255.652 23.8887V27.3982H257.94V29.2164H255.652V32.9611C255.652 33.4767 255.743 33.8385 255.933 34.0556C256.123 34.2636 256.403 34.3722 256.783 34.3722C257.072 34.3722 257.343 34.2998 257.606 34.1641L258.103 35.8827C257.66 36.0908 257.19 36.1903 256.692 36.1903C255.698 36.1812 254.92 35.9099 254.359 35.3762Z" fill="black"/>
<path d="M259.712 35.4938C259.224 35.0325 258.971 34.3903 258.971 33.5491C258.971 32.6898 259.296 32.0023 259.947 31.4868C260.598 30.9712 261.485 30.7179 262.597 30.7179H264.107V30.338C264.107 29.9129 263.963 29.5963 263.673 29.3882C263.384 29.1802 263.022 29.0717 262.588 29.0717C261.846 29.0717 261.349 29.4063 261.096 30.0666L259.287 29.6506C259.423 28.9269 259.794 28.348 260.4 27.9048C261.005 27.4616 261.729 27.2445 262.588 27.2445C263.746 27.2445 264.641 27.552 265.274 28.1671C265.907 28.7822 266.223 29.6867 266.223 30.8717V36.0456H264.469L264.243 34.9421C263.565 35.7652 262.678 36.1813 261.584 36.1813C260.834 36.1813 260.21 35.9551 259.712 35.4938ZM263.528 33.8657C263.917 33.54 264.116 33.1059 264.116 32.5722V32.4003H262.687C262.217 32.4003 261.855 32.4908 261.593 32.6717C261.34 32.8526 261.204 33.133 261.204 33.5129C261.204 33.7662 261.295 33.9652 261.467 34.1189C261.648 34.2727 261.874 34.3541 262.163 34.3541C262.687 34.3632 263.14 34.1913 263.528 33.8657Z" fill="black"/>
<path d="M273.875 35.3762C273.314 34.8335 273.034 34.0375 273.034 32.9882V29.2073H271.695V27.3892H273.034V25.2274L275.168 23.8887V27.3982H277.456V29.2164H275.168V32.9611C275.168 33.4767 275.258 33.8385 275.448 34.0556C275.638 34.2636 275.918 34.3722 276.298 34.3722C276.588 34.3722 276.859 34.2998 277.121 34.1641L277.619 35.8827C277.175 36.0908 276.705 36.1903 276.208 36.1903C275.213 36.1812 274.435 35.9099 273.875 35.3762Z" fill="black"/>
<path d="M279.238 35.4938C278.749 35.0325 278.496 34.3903 278.496 33.5491C278.496 32.6898 278.822 32.0023 279.473 31.4868C280.124 30.9712 281.01 30.7179 282.122 30.7179H283.633V30.338C283.633 29.9129 283.488 29.5963 283.199 29.3882C282.909 29.1802 282.547 29.0717 282.113 29.0717C281.372 29.0717 280.874 29.4063 280.621 30.0666L278.813 29.6506C278.948 28.9269 279.319 28.348 279.925 27.9048C280.531 27.4616 281.254 27.2445 282.113 27.2445C283.271 27.2445 284.166 27.552 284.799 28.1671C285.432 28.7822 285.749 29.6867 285.749 30.8717V36.0456H283.994L283.768 34.9421C283.09 35.7652 282.204 36.1813 281.11 36.1813C280.359 36.1813 279.726 35.9551 279.238 35.4938ZM283.054 33.8657C283.443 33.54 283.642 33.1059 283.642 32.5722V32.4003H282.213C281.743 32.4003 281.381 32.4908 281.119 32.6717C280.865 32.8526 280.73 33.133 280.73 33.5129C280.73 33.7662 280.82 33.9652 280.992 34.1189C281.173 34.2727 281.399 34.3541 281.688 34.3541C282.204 34.3632 282.656 34.1913 283.054 33.8657Z" fill="black"/>
<path d="M288.37 38.949C287.646 38.4606 287.275 37.7551 287.275 36.8324C287.275 36.1179 287.511 35.548 287.981 35.1138C287.682 34.7611 287.538 34.3088 287.538 33.7751C287.538 33.3771 287.628 33.0153 287.818 32.7078C288.008 32.4002 288.27 32.147 288.605 31.948C288.207 31.4595 287.999 30.8625 287.999 30.157C287.999 29.5691 288.144 29.0625 288.424 28.6193C288.704 28.1761 289.084 27.8414 289.572 27.5972C290.061 27.353 290.594 27.2354 291.182 27.2354C291.743 27.2354 292.276 27.362 292.783 27.6153L294.41 26.756L295.251 28.167L294.013 28.7821C294.239 29.1801 294.356 29.6414 294.356 30.157C294.356 30.745 294.212 31.2515 293.931 31.6947C293.651 32.1379 293.271 32.4726 292.783 32.6987C292.294 32.9249 291.761 33.0425 291.173 33.0425C290.739 33.0425 290.323 32.9791 289.916 32.8525C289.645 33.0153 289.5 33.2324 289.5 33.5038C289.5 33.7118 289.572 33.8656 289.708 33.9741C289.844 34.0827 290.043 34.1369 290.314 34.1369H292.086C293.018 34.1369 293.75 34.354 294.302 34.7973C294.854 35.2405 295.125 35.8646 295.125 36.6787C295.125 37.3571 294.935 37.9179 294.564 38.3611C294.193 38.8043 293.705 39.139 293.108 39.347C292.511 39.5551 291.869 39.6636 291.182 39.6636C290.034 39.6817 289.093 39.4375 288.37 38.949ZM292.502 37.6375C292.828 37.4656 292.991 37.1943 292.991 36.8324C292.991 36.4978 292.873 36.2716 292.629 36.136C292.385 36.0003 292.041 35.937 291.598 35.937H290.431C290.043 35.937 289.708 35.9098 289.437 35.8646C289.31 36.0636 289.247 36.3259 289.247 36.6515C289.247 37.0495 289.428 37.3571 289.78 37.5742C290.133 37.7822 290.603 37.8907 291.191 37.8907C291.743 37.8998 292.177 37.8093 292.502 37.6375ZM292.023 31.0073C292.249 30.7902 292.358 30.5098 292.358 30.1661C292.358 29.8133 292.249 29.5238 292.023 29.2977C291.797 29.0716 291.517 28.963 291.173 28.963C290.829 28.963 290.549 29.0716 290.323 29.2977C290.097 29.5238 289.988 29.8133 289.988 30.1661C289.988 30.5098 290.097 30.7902 290.323 31.0073C290.549 31.2244 290.829 31.3329 291.173 31.3329C291.517 31.3329 291.806 31.2244 292.023 31.0073Z" fill="black"/>
<path d="M297.233 35.4938C296.627 35.0325 296.229 34.4898 296.039 33.8476L297.739 32.934C297.902 33.3772 298.128 33.73 298.417 33.9832C298.707 34.2365 299.06 34.3631 299.457 34.3631C299.765 34.3631 300.027 34.2998 300.235 34.1642C300.443 34.0285 300.543 33.8204 300.543 33.5219C300.543 33.2596 300.416 33.0425 300.172 32.8797C299.928 32.7169 299.548 32.536 299.032 32.3551C298.951 32.328 298.833 32.2827 298.671 32.2194C298.01 31.9571 297.495 31.6224 297.124 31.2244C296.753 30.8264 296.573 30.3109 296.573 29.6777C296.573 29.2345 296.69 28.8274 296.934 28.4566C297.179 28.0857 297.504 27.7963 297.92 27.5792C298.336 27.3621 298.806 27.2535 299.34 27.2535C299.928 27.2535 300.461 27.3802 300.94 27.6244C301.42 27.8686 301.791 28.2214 302.062 28.6646L300.787 29.8315C300.443 29.3249 299.982 29.0716 299.394 29.0716C299.168 29.0716 298.969 29.135 298.797 29.2526C298.634 29.3701 298.544 29.533 298.544 29.7229C298.544 29.931 298.662 30.1209 298.906 30.3018C299.15 30.4827 299.62 30.6908 300.317 30.944C300.977 31.1882 301.492 31.4958 301.854 31.8847C302.216 32.2737 302.396 32.7712 302.396 33.3772C302.396 34.2275 302.125 34.9059 301.592 35.4124C301.049 35.9189 300.344 36.1813 299.475 36.1813C298.58 36.1813 297.839 35.9551 297.233 35.4938Z" fill="black"/>
</g>
<defs>
<filter id="filter0_d_511_2" x="198.75" y="-1.94373" width="348.883" height="381.712" filterUnits="userSpaceOnUse" color-interpolation-filters="sRGB">
<feFlood flood-opacity="0" result="BackgroundImageFix"/>
<feColorMatrix in="SourceAlpha" type="matrix" values="0 0 0 0 0 0 0 0 0 0 0 0 0 0 0 0 0 0 127 0" result="hardAlpha"/>
<feOffset dy="2"/>
<feGaussianBlur stdDeviation="4.5"/>
<feComposite in2="hardAlpha" operator="out"/>
<feColorMatrix type="matrix" values="0 0 0 0 0 0 0 0 0 0 0 0 0 0 0 0 0 0 0.15 0"/>
<feBlend mode="normal" in2="BackgroundImageFix" result="effect1_dropShadow_511_2"/>
<feBlend mode="normal" in="SourceGraphic" in2="effect1_dropShadow_511_2" result="shape"/>
</filter>
<filter id="filter1_d_511_2" x="-2.08203" y="45.0466" width="152.508" height="197.83" filterUnits="userSpaceOnUse" color-interpolation-filters="sRGB">
<feFlood flood-opacity="0" result="BackgroundImageFix"/>
<feColorMatrix in="SourceAlpha" type="matrix" values="0 0 0 0 0 0 0 0 0 0 0 0 0 0 0 0 0 0 127 0" result="hardAlpha"/>
<feOffset dy="2"/>
<feGaussianBlur stdDeviation="4.5"/>
<feComposite in2="hardAlpha" operator="out"/>
<feColorMatrix type="matrix" values="0 0 0 0 0 0 0 0 0 0 0 0 0 0 0 0 0 0 0.15 0"/>
<feBlend mode="normal" in2="BackgroundImageFix" result="effect1_dropShadow_511_2"/>
<feBlend mode="normal" in="SourceGraphic" in2="effect1_dropShadow_511_2" result="shape"/>
</filter>
<filter id="filter2_d_511_2" x="338" y="100" width="203" height="66" filterUnits="userSpaceOnUse" color-interpolation-filters="sRGB">
<feFlood flood-opacity="0" result="BackgroundImageFix"/>
<feColorMatrix in="SourceAlpha" type="matrix" values="0 0 0 0 0 0 0 0 0 0 0 0 0 0 0 0 0 0 127 0" result="hardAlpha"/>
<feOffset dy="1"/>
<feGaussianBlur stdDeviation="5"/>
<feComposite in2="hardAlpha" operator="out"/>
<feColorMatrix type="matrix" values="0 0 0 0 0 0 0 0 0 0 0 0 0 0 0 0 0 0 0.25 0"/>
<feBlend mode="normal" in2="BackgroundImageFix" result="effect1_dropShadow_511_2"/>
<feBlend mode="normal" in="SourceGraphic" in2="effect1_dropShadow_511_2" result="shape"/>
</filter>
<clipPath id="clip0_511_2">
<rect width="586" height="375" fill="white"/>
</clipPath>
</defs>
</svg>
