<?xml version="1.0" encoding="utf-8"?>
<!-- Generator: Adobe Illustrator 26.0.0, SVG Export Plug-In . SVG Version: 6.00 Build 0)  -->
<svg version="1.1" id="Layer_1" xmlns="http://www.w3.org/2000/svg" xmlns:xlink="http://www.w3.org/1999/xlink" x="0px" y="0px"
	 viewBox="0 0 35 33" style="enable-background:new 0 0 35 33;" xml:space="preserve">
<style type="text/css">
	.st0{fill:none;stroke:#CACACA;}
	.st1{fill:#FA8617;}
</style>
<path class="st0" d="M12.6,1.6c1.8-0.7,3.8-1.1,5.9-1.1c8.8,0,16,7.2,16,16s-7.2,16-16,16s-16-7.2-16-16c0-1.9,0.3-3.7,1-5.5"/>
<g>
	<path class="st1" d="M0,2.5C0,0.9,0.8,0,1.9,0s1.8,0.9,1.8,2.5C3.7,4,3,5,1.9,5S0,4,0,2.5z M2.7,2.5c0-1.2-0.4-1.7-0.9-1.7
		C1.4,0.8,1,1.3,1,2.5s0.4,1.7,0.9,1.7S2.7,3.7,2.7,2.5z M6.4,0h0.8L3,8.1H2.1L6.4,0z M5.6,5.6c0-1.6,0.8-2.5,1.9-2.5S9.4,4,9.4,5.6
		S8.6,8.1,7.5,8.1S5.6,7.2,5.6,5.6z M8.4,5.6C8.4,4.5,8,4,7.5,4S6.6,4.5,6.6,5.6c0,1.2,0.4,1.7,0.9,1.7S8.4,6.8,8.4,5.6z"/>
	<path class="st1" d="M29,21.1H10.1c-0.3,0-0.5,0.2-0.5,0.5s0.2,0.5,0.5,0.5H29c0.3,0,0.5-0.2,0.5-0.5C29.5,21.3,29.3,21.1,29,21.1z
		 M29,16.8H17.2c-0.3,0-0.5,0.2-0.5,0.5s0.2,0.5,0.5,0.5h11.7c0.3,0,0.5-0.2,0.5-0.5C29.5,17,29.3,16.8,29,16.8z M13.3,16.8h-3.2
		c-0.3,0-0.5,0.2-0.5,0.5s0.2,0.5,0.5,0.5h3.2c0.3,0,0.5-0.2,0.5-0.5S13.5,16.8,13.3,16.8z"/>
</g>
</svg>
