<svg width="429" height="390" viewBox="0 0 429 390" fill="none" xmlns="http://www.w3.org/2000/svg">
<g clip-path="url(#clip0_761_65)">
<path style="mix-blend-mode:multiply" d="M348.747 113.218C348.747 113.218 336.612 101.428 278.652 38.5556C220.691 -24.3171 155.984 38.5557 140.481 55.582C124.979 72.6083 95.9907 104.701 52.1898 151.855C8.38884 199.01 -6.42779 241.987 7.05413 275.388C20.536 308.788 69.3044 324.503 116.893 312.31C169.004 298.959 217.332 297.044 257.757 346.366C308.779 408.624 400.066 390.644 423.655 303.54C447.243 216.436 383.793 151.855 348.747 113.218Z" fill="url(#paint0_radial_761_65)"/>
<path style="mix-blend-mode:multiply" d="M371.331 172.036C355.278 118.573 306.407 93.5349 263.235 108.846C235.757 118.589 200.752 122.314 147.812 88.2045C90.9865 51.5845 -0.325664 55.6434 0.000873382 159.859C0.409045 292.582 60.7899 341.207 96.6274 363.849C173.27 412.279 280.652 387.38 324.795 338.514C368.143 290.536 387.874 227.121 371.331 172.036Z" fill="url(#paint1_radial_761_65)"/>
<path style="mix-blend-mode:multiply" d="M389.265 23.6446C372.053 -1.16548 327.162 -12.841 283.912 20.9468C235.262 58.9605 166.616 77.7841 105.235 87.6543C42.0459 97.8179 12.0861 144.418 11.2452 173.308C10.3268 204.98 37.3111 244.49 117.174 292.773C197.037 341.056 252.687 354.423 300.349 348.241C348.011 342.059 379.22 313.911 394.763 267.03C405.633 234.249 399.547 194.951 397.004 142.397C393.829 76.7652 414.164 59.527 389.265 23.6446Z" fill="url(#paint2_radial_761_65)"/>
<path opacity="0.36" d="M282.74 262.77L146.42 307.77C144.828 308.288 143.097 308.159 141.6 307.411C140.103 306.662 138.96 305.354 138.42 303.77L93.4197 167.44C92.9013 165.842 93.0363 164.104 93.7951 162.605C94.5539 161.106 95.8749 159.969 97.4697 159.44L233.79 114.44C235.381 113.92 237.114 114.048 238.612 114.796C240.109 115.545 241.251 116.855 241.79 118.44L286.79 254.77C287.308 256.368 287.173 258.107 286.414 259.605C285.656 261.104 284.335 262.242 282.74 262.77Z" fill="#924A07"/>
<path d="M223.692 109.338L87.3672 154.37C84.0319 155.472 82.2213 159.069 83.323 162.404L128.355 298.729C129.457 302.064 133.054 303.874 136.389 302.773L272.714 257.74C276.049 256.639 277.86 253.042 276.758 249.706L231.726 113.382C230.624 110.046 227.027 108.236 223.692 109.338Z" fill="url(#paint3_linear_761_65)"/>
<path d="M221.173 124.192L98.0469 164.865L138.719 287.991L261.845 247.319L221.173 124.192Z" fill="white"/>
<path opacity="0.47" d="M178.8 193.01C174.776 193.016 170.898 191.507 167.938 188.782C164.977 186.057 163.152 182.317 162.826 178.306C162.5 174.296 163.697 170.31 166.178 167.143C168.659 163.975 172.243 161.859 176.215 161.216C180.187 160.572 184.255 161.449 187.609 163.671C190.964 165.893 193.358 169.297 194.315 173.205C195.271 177.113 194.72 181.239 192.772 184.759C190.823 188.279 187.62 190.936 183.8 192.2C182.188 192.737 180.499 193.011 178.8 193.01ZM178.8 164.09C177.42 164.088 176.048 164.311 174.74 164.75C171.652 165.776 169.065 167.927 167.492 170.775C165.919 173.623 165.477 176.958 166.254 180.118C167.03 183.277 168.968 186.028 171.681 187.823C174.395 189.617 177.685 190.324 180.896 189.802C184.107 189.28 187.004 187.568 189.009 185.006C191.015 182.444 191.981 179.221 191.717 175.978C191.453 172.736 189.977 169.712 187.583 167.509C185.189 165.305 182.053 164.085 178.8 164.09Z" fill="white"/>
<path opacity="0.36" d="M113.192 167.32L141.192 158.06C141.317 158.019 141.449 158.002 141.58 158.012C141.711 158.021 141.839 158.057 141.956 158.116C142.074 158.175 142.178 158.256 142.264 158.356C142.35 158.455 142.416 158.57 142.457 158.695C142.499 158.82 142.515 158.952 142.505 159.083C142.496 159.214 142.461 159.342 142.402 159.459C142.343 159.577 142.261 159.681 142.162 159.767C142.062 159.853 141.947 159.919 141.822 159.96L113.822 169.22C112.951 169.508 112.23 170.13 111.817 170.95C111.405 171.769 111.335 172.719 111.622 173.59L118.992 195.83C119.034 195.955 119.05 196.087 119.04 196.218C119.031 196.349 118.996 196.477 118.937 196.594C118.878 196.712 118.796 196.816 118.697 196.902C118.597 196.988 118.482 197.054 118.357 197.095C118.232 197.137 118.101 197.153 117.97 197.143C117.839 197.134 117.711 197.099 117.593 197.04C117.476 196.981 117.371 196.899 117.285 196.8C117.199 196.7 117.134 196.585 117.092 196.46L109.722 174.19C109.279 172.819 109.395 171.328 110.045 170.042C110.694 168.755 111.825 167.777 113.192 167.32Z" fill="white"/>
<path opacity="0.36" d="M210.743 135.1L182.743 144.36C182.617 144.401 182.501 144.466 182.4 144.552C182.3 144.638 182.217 144.743 182.158 144.862C182.098 144.98 182.063 145.108 182.053 145.24C182.044 145.372 182.061 145.505 182.103 145.63C182.187 145.88 182.367 146.087 182.603 146.205C182.839 146.323 183.112 146.343 183.363 146.26L211.363 137C212.234 136.712 213.184 136.783 214.003 137.195C214.823 137.608 215.445 138.329 215.733 139.2L223.083 161.44C223.167 161.69 223.347 161.897 223.583 162.015C223.819 162.133 224.092 162.153 224.343 162.07C224.595 161.988 224.804 161.809 224.924 161.573C225.044 161.336 225.065 161.062 224.983 160.81L217.633 138.57C217.176 137.199 216.195 136.064 214.904 135.414C213.613 134.763 212.117 134.651 210.743 135.1Z" fill="white"/>
<path d="M200.203 162.616L191.012 166.442C190.427 166.687 189.925 167.096 189.567 167.62C189.203 168.142 188.998 168.757 188.976 169.393C188.955 170.029 189.117 170.657 189.445 171.202C189.768 171.746 190.239 172.187 190.804 172.473L195.248 174.676L191.211 182.785C191.078 183.063 191.029 183.373 191.069 183.678C191.112 183.99 191.245 184.282 191.453 184.52C191.656 184.756 191.926 184.926 192.228 185.007C192.529 185.088 192.848 185.077 193.143 184.974C193.339 184.904 193.522 184.8 193.682 184.667C193.837 184.527 193.965 184.361 194.059 184.175L198.1 176.077L202.517 178.276C202.902 178.472 203.323 178.588 203.754 178.617C204.398 178.667 205.043 178.529 205.61 178.22C206.177 177.911 206.643 177.445 206.951 176.877C207.349 176.136 207.455 175.273 207.249 174.458L204.745 164.849C204.623 164.393 204.407 163.968 204.112 163.599C203.811 163.232 203.436 162.933 203.011 162.721C202.586 162.509 202.121 162.39 201.646 162.372C201.171 162.367 200.699 162.452 200.256 162.624L200.203 162.616ZM204.122 175.28C204.137 175.304 204.146 175.331 204.148 175.359C204.148 175.359 204.148 175.359 204.08 175.382C204.063 175.413 204.035 175.436 204.001 175.447C203.968 175.458 203.932 175.457 203.899 175.443L192.234 169.599C192.217 169.576 192.208 169.548 192.208 169.52C192.187 169.494 192.176 169.462 192.177 169.429C192.177 169.429 192.177 169.429 192.155 169.361C192.181 169.342 192.213 169.331 192.245 169.331L201.425 165.509L201.538 165.471C201.551 165.491 201.559 165.515 201.561 165.539L204.122 175.28Z" fill="#FA8617"/>
<path d="M186.862 211.532C186.431 210.238 185.565 209.133 184.411 208.406C183.257 207.679 181.886 207.375 180.533 207.546C179.18 207.717 177.928 208.352 176.991 209.343C176.054 210.334 175.489 211.62 175.394 212.98C175.299 214.341 175.679 215.692 176.469 216.804C177.259 217.916 178.411 218.719 179.727 219.077C181.043 219.434 182.442 219.324 183.686 218.765C184.931 218.206 185.942 217.232 186.548 216.011C186.894 215.324 187.097 214.574 187.145 213.806C187.202 213.037 187.105 212.264 186.862 211.532ZM178.704 214.267C178.532 213.759 178.516 213.21 178.656 212.692C178.797 212.174 179.088 211.709 179.492 211.356C179.898 211.007 180.398 210.783 180.929 210.712C181.46 210.641 182.001 210.727 182.484 210.958C182.966 211.195 183.368 211.569 183.639 212.033C183.907 212.495 184.036 213.025 184.012 213.559C183.971 214.083 183.78 214.584 183.463 215.003C183.145 215.434 182.706 215.761 182.202 215.943C181.859 216.062 181.496 216.115 181.133 216.1C180.397 216.054 179.708 215.718 179.219 215.166C178.995 214.9 178.82 214.596 178.704 214.267Z" fill="#FA8617"/>
<path d="M186.053 190.428L133.652 207.999C133.161 208.161 132.708 208.42 132.32 208.761C131.926 209.101 131.604 209.515 131.373 209.98C131.141 210.445 131.005 210.951 130.972 211.47C130.934 211.985 131 212.503 131.167 212.992L132.641 217.388C132.692 217.602 132.789 217.801 132.926 217.973C133.052 218.147 133.217 218.291 133.406 218.392C133.6 218.501 133.816 218.566 134.038 218.584C134.255 218.603 134.474 218.576 134.68 218.507C134.886 218.435 135.076 218.325 135.239 218.181C135.409 218.037 135.542 217.854 135.627 217.647C135.721 217.451 135.77 217.237 135.77 217.02C135.769 216.801 135.726 216.584 135.644 216.381L134.158 211.951C134.11 211.863 134.077 211.767 134.063 211.668C134.071 211.561 134.1 211.457 134.15 211.362C134.194 211.27 134.256 211.189 134.334 211.123C134.42 211.07 134.517 211.037 134.618 211.028L187.053 193.445C187.138 193.391 187.235 193.359 187.336 193.35C187.441 193.353 187.544 193.378 187.638 193.425C187.733 193.472 187.815 193.539 187.881 193.621C187.934 193.707 187.967 193.804 187.976 193.904L198.591 225.56L190.326 240.343L168.465 227.508C167.811 227.121 167.081 226.88 166.325 226.801C165.566 226.724 164.8 226.809 164.077 227.051C163.354 227.294 162.691 227.688 162.133 228.207C161.577 228.725 161.14 229.358 160.851 230.061L149.398 257.66L137.928 223.455C137.77 223.091 137.479 222.8 137.114 222.644C136.77 222.48 136.378 222.45 136.014 222.559C135.637 222.684 135.322 222.946 135.13 223.293C134.938 223.64 134.884 224.046 134.978 224.432L148.716 265.401C148.879 265.891 149.137 266.345 149.476 266.735C149.815 267.125 150.227 267.445 150.69 267.675C151.152 267.905 151.656 268.042 152.171 268.077C152.687 268.112 153.204 268.044 153.694 267.878L190.834 255.424C191.033 255.361 191.217 255.256 191.373 255.117C191.529 254.986 191.655 254.824 191.743 254.64C191.839 254.455 191.895 254.251 191.908 254.043C191.923 253.838 191.897 253.633 191.831 253.438C191.766 253.244 191.663 253.064 191.528 252.91C191.392 252.752 191.225 252.623 191.036 252.533C190.853 252.44 190.654 252.383 190.45 252.364C190.242 252.353 190.033 252.381 189.834 252.444L152.729 264.887C152.533 264.952 152.32 264.937 152.135 264.847C151.95 264.75 151.808 264.585 151.741 264.386L151.023 262.245L163.858 231.322C163.974 231.033 164.155 230.774 164.385 230.565C164.73 230.244 165.169 230.043 165.637 229.99C166.105 229.938 166.577 230.037 166.985 230.273L188.824 243.116C189.194 243.343 189.607 243.491 190.037 243.551C190.467 243.611 190.904 243.581 191.322 243.463C191.72 243.354 192.092 243.166 192.415 242.91C192.739 242.655 193.007 242.336 193.205 241.974L200.034 229.601L205.638 246.313C205.672 246.41 205.687 246.513 205.681 246.616C205.675 246.719 205.649 246.82 205.604 246.912C205.558 247.005 205.495 247.087 205.418 247.155C205.34 247.223 205.25 247.275 205.152 247.308L196.836 250.096C196.64 250.163 196.459 250.267 196.304 250.403C196.148 250.54 196.022 250.706 195.931 250.892C195.791 251.169 195.737 251.483 195.776 251.791C195.815 252.099 195.945 252.389 196.149 252.624C196.354 252.858 196.623 253.026 196.923 253.107C197.224 253.187 197.541 253.177 197.835 253.076L206.152 250.288C206.642 250.125 207.095 249.867 207.486 249.528C207.876 249.189 208.196 248.777 208.426 248.314C208.656 247.851 208.793 247.348 208.827 246.832C208.862 246.317 208.795 245.799 208.629 245.31L191.057 192.909C190.894 192.418 190.636 191.964 190.297 191.573C189.959 191.182 189.546 190.862 189.083 190.631C188.621 190.399 188.117 190.262 187.601 190.226C187.085 190.189 186.566 190.255 186.076 190.42L186.053 190.428Z" fill="#FA8617"/>
<path d="M129.777 181.154L126.776 172.203C126.561 171.57 126.105 171.048 125.507 170.75C125.211 170.602 124.889 170.513 124.559 170.49C124.229 170.466 123.897 170.509 123.583 170.614L114.633 173.615C114.001 173.831 113.479 174.287 113.182 174.885C112.884 175.482 112.835 176.174 113.044 176.808L116.045 185.758C116.15 186.072 116.316 186.361 116.534 186.61C116.751 186.859 117.015 187.063 117.312 187.21C117.608 187.356 117.93 187.443 118.26 187.465C118.59 187.486 118.921 187.443 119.234 187.336L128.23 184.319C128.544 184.216 128.834 184.051 129.084 183.835C129.334 183.619 129.539 183.355 129.687 183.06C129.835 182.764 129.923 182.442 129.947 182.113C129.97 181.783 129.928 181.452 129.823 181.138L129.777 181.154ZM126.555 181.541L118.827 184.132L116.236 176.405L123.963 173.814L126.555 181.541Z" fill="#FA8617"/>
<path d="M211.76 141.12L202.832 144.114C202.197 144.332 201.672 144.788 201.368 145.386C201.077 145.985 201.032 146.674 201.243 147.306L204.241 156.246C204.345 156.56 204.51 156.852 204.727 157.102C204.944 157.353 205.209 157.558 205.506 157.706C205.802 157.853 206.126 157.941 206.456 157.963C206.787 157.985 207.119 157.941 207.433 157.834L216.361 154.841C216.676 154.737 216.967 154.571 217.218 154.354C217.468 154.137 217.673 153.873 217.821 153.576C217.969 153.279 218.056 152.956 218.078 152.625C218.101 152.294 218.057 151.962 217.95 151.648L214.952 142.709C214.85 142.397 214.685 142.109 214.467 141.863C214.255 141.608 213.992 141.4 213.695 141.253C213.398 141.105 213.074 141.02 212.742 141.005C212.411 140.974 212.076 141.014 211.76 141.12ZM214.765 152.036L207.027 154.631L204.432 146.892L212.17 144.297L214.765 152.036Z" fill="#FA8617"/>
<path d="M241.33 229.29L232.402 232.284C231.77 232.499 231.248 232.955 230.95 233.552C230.801 233.848 230.713 234.17 230.689 234.501C230.666 234.831 230.708 235.162 230.813 235.476L233.815 244.427C233.919 244.742 234.084 245.033 234.301 245.283C234.518 245.534 234.783 245.739 235.08 245.887C235.377 246.035 235.7 246.122 236.031 246.144C236.361 246.166 236.693 246.123 237.007 246.016L245.935 243.022C246.25 242.918 246.541 242.753 246.792 242.536C247.042 242.318 247.248 242.054 247.395 241.757C247.543 241.46 247.63 241.137 247.653 240.806C247.675 240.475 247.631 240.143 247.524 239.83L244.523 230.879C244.419 230.564 244.253 230.273 244.036 230.022C243.819 229.772 243.555 229.567 243.258 229.419C242.961 229.271 242.638 229.184 242.307 229.161C241.976 229.139 241.644 229.183 241.33 229.29ZM244.335 240.206L236.597 242.801L234.006 235.074L241.744 232.479L244.335 240.206Z" fill="#FA8617"/>
<path d="M127.12 191.044C126.96 190.678 126.668 190.384 126.303 190.222C125.943 190.062 125.536 190.041 125.161 190.164C124.783 190.289 124.466 190.553 124.275 190.903C124.084 191.252 124.032 191.661 124.129 192.047L124.889 194.313C124.941 194.526 125.034 194.726 125.162 194.902C125.3 195.074 125.468 195.218 125.658 195.329C125.856 195.429 126.069 195.493 126.289 195.52C126.507 195.539 126.725 195.513 126.932 195.443C127.137 195.372 127.327 195.261 127.49 195.117C127.649 194.967 127.777 194.787 127.867 194.588C127.957 194.387 128.004 194.169 128.006 193.949C128.006 193.73 127.963 193.513 127.88 193.31L127.12 191.044Z" fill="#FA8617"/>
<path d="M128.511 200.194C128.116 200.329 127.791 200.615 127.605 200.989C127.419 201.362 127.387 201.794 127.517 202.191L128.277 204.457C128.434 204.821 128.722 205.113 129.085 205.274C129.447 205.435 129.857 205.454 130.232 205.326C130.608 205.204 130.922 204.94 131.108 204.592C131.305 204.247 131.362 203.84 131.268 203.454L130.508 201.188C130.372 200.793 130.087 200.468 129.713 200.282C129.529 200.188 129.328 200.131 129.121 200.116C128.915 200.101 128.707 200.127 128.511 200.194Z" fill="#FA8617"/>
<path d="M215.076 165.797C215.272 165.731 215.453 165.627 215.608 165.49C215.764 165.354 215.891 165.188 215.982 165.002C216.075 164.818 216.129 164.617 216.143 164.411C216.156 164.205 216.127 163.999 216.059 163.804L215.299 161.538C215.236 161.341 215.135 161.16 215 161.003C214.865 160.847 214.7 160.72 214.515 160.629C214.331 160.534 214.129 160.478 213.923 160.462C213.716 160.447 213.509 160.473 213.313 160.538C213.116 160.604 212.935 160.709 212.78 160.846C212.624 160.982 212.498 161.149 212.408 161.335C212.315 161.52 212.26 161.721 212.247 161.927C212.233 162.132 212.262 162.339 212.33 162.533L213.09 164.799C213.153 164.996 213.255 165.178 213.389 165.334C213.524 165.491 213.689 165.618 213.874 165.709C214.059 165.802 214.26 165.858 214.466 165.873C214.673 165.889 214.88 165.863 215.076 165.797Z" fill="#FA8617"/>
<path d="M216.488 174.928C216.62 175.322 216.903 175.647 217.275 175.832C217.646 176.017 218.076 176.047 218.47 175.915C218.864 175.783 219.189 175.5 219.374 175.128C219.559 174.757 219.589 174.327 219.457 173.933L218.697 171.667C218.633 171.468 218.529 171.284 218.39 171.127C218.259 170.971 218.096 170.845 217.913 170.758C217.727 170.662 217.524 170.606 217.315 170.593C217.111 170.578 216.905 170.604 216.711 170.669C216.517 170.734 216.337 170.837 216.182 170.972C216.024 171.109 215.896 171.276 215.805 171.464C215.712 171.645 215.658 171.844 215.648 172.047C215.631 172.255 215.659 172.465 215.728 172.662L216.488 174.928Z" fill="#FA8617"/>
<path d="M219.89 185.08C219.953 185.275 220.056 185.455 220.193 185.608C220.327 185.765 220.49 185.895 220.673 185.989C220.86 186.077 221.061 186.129 221.267 186.143C221.472 186.158 221.677 186.132 221.872 186.066C222.066 186.001 222.246 185.898 222.4 185.763C222.556 185.628 222.685 185.465 222.781 185.283C222.87 185.097 222.922 184.895 222.935 184.689C222.951 184.484 222.925 184.278 222.858 184.084L222.079 181.762C222.015 181.566 221.913 181.384 221.779 181.228C221.644 181.072 221.48 180.944 221.295 180.852C220.921 180.671 220.491 180.644 220.098 180.776C219.704 180.908 219.377 181.189 219.188 181.559C219.096 181.744 219.042 181.945 219.029 182.15C219.016 182.356 219.044 182.562 219.111 182.757L219.89 185.08Z" fill="#FA8617"/>
<path d="M223.291 195.22C223.354 195.419 223.459 195.603 223.598 195.76C223.728 195.916 223.891 196.042 224.075 196.129C224.262 196.221 224.464 196.276 224.672 196.294C224.876 196.309 225.082 196.283 225.276 196.218C225.471 196.153 225.65 196.049 225.805 195.914C225.96 195.775 226.087 195.608 226.182 195.423C226.259 195.228 226.292 195.019 226.279 194.81C226.296 194.602 226.268 194.392 226.199 194.194L225.439 191.928C225.304 191.536 225.023 191.21 224.655 191.019C224.468 190.928 224.265 190.872 224.057 190.854C223.853 190.839 223.647 190.865 223.453 190.931C223.259 190.996 223.079 191.099 222.924 191.234C222.77 191.373 222.642 191.54 222.547 191.726C222.369 192.1 222.341 192.529 222.47 192.924L223.291 195.22Z" fill="#FA8617"/>
<path d="M226.691 205.361C226.756 205.556 226.858 205.737 226.993 205.893C227.127 206.049 227.291 206.177 227.475 206.27C227.662 206.361 227.865 206.417 228.072 206.435C228.277 206.45 228.482 206.424 228.677 206.358C228.871 206.293 229.051 206.19 229.205 206.055C229.36 205.916 229.488 205.749 229.582 205.563C229.674 205.378 229.727 205.178 229.74 204.972C229.754 204.766 229.726 204.56 229.66 204.365L228.9 202.099C228.837 201.903 228.734 201.723 228.597 201.571C228.465 201.411 228.301 201.282 228.116 201.19C227.929 201.099 227.726 201.043 227.519 201.025C227.314 201.01 227.109 201.036 226.914 201.101C226.72 201.167 226.54 201.27 226.386 201.405C226.231 201.544 226.103 201.711 226.009 201.897C225.916 202.081 225.864 202.284 225.855 202.49C225.837 202.695 225.863 202.901 225.931 203.095L226.691 205.361Z" fill="#FA8617"/>
<path d="M230.094 215.512C230.226 215.906 230.509 216.231 230.88 216.416C231.252 216.601 231.682 216.631 232.076 216.499C232.469 216.367 232.794 216.084 232.979 215.712C233.164 215.341 233.194 214.911 233.062 214.517L232.302 212.251C232.239 212.056 232.136 211.876 231.999 211.722C231.865 211.566 231.702 211.436 231.518 211.342C231.332 211.254 231.13 211.202 230.925 211.188C230.72 211.173 230.515 211.199 230.32 211.264C230.126 211.33 229.946 211.433 229.792 211.568C229.636 211.703 229.507 211.866 229.411 212.048C229.322 212.234 229.269 212.436 229.257 212.642C229.24 212.847 229.267 213.052 229.334 213.246L230.094 215.512Z" fill="#FA8617"/>
<path d="M233.5 225.664C233.631 226.059 233.913 226.386 234.284 226.574C234.658 226.755 235.088 226.782 235.481 226.65C235.875 226.518 236.202 226.237 236.391 225.867C236.574 225.493 236.601 225.063 236.468 224.669L235.708 222.403C235.576 222.009 235.293 221.684 234.922 221.499C234.55 221.314 234.12 221.284 233.726 221.416C233.333 221.548 233.008 221.831 232.823 222.203C232.638 222.575 232.608 223.005 232.74 223.398L233.5 225.664Z" fill="#FA8617"/>
<path d="M195.303 155.928L197.569 155.169C197.964 155.037 198.291 154.756 198.479 154.385C198.572 154.2 198.628 153.999 198.643 153.793C198.658 153.586 198.633 153.379 198.567 153.183C198.432 152.788 198.146 152.463 197.772 152.277C197.399 152.091 196.967 152.059 196.57 152.189L194.304 152.949C193.909 153.084 193.584 153.37 193.398 153.744C193.212 154.117 193.18 154.549 193.31 154.946C193.376 155.142 193.481 155.323 193.617 155.478C193.754 155.634 193.919 155.76 194.105 155.851C194.479 156.034 194.909 156.062 195.303 155.928Z" fill="#FA8617"/>
<path d="M185.151 159.333L187.417 158.573C187.812 158.442 188.138 158.16 188.326 157.79C188.42 157.605 188.476 157.404 188.491 157.197C188.506 156.991 188.48 156.784 188.415 156.588C188.279 156.193 187.994 155.867 187.62 155.681C187.246 155.495 186.815 155.464 186.418 155.594L184.152 156.353C183.956 156.42 183.775 156.524 183.619 156.66C183.464 156.797 183.337 156.963 183.246 157.149C183.152 157.333 183.095 157.534 183.08 157.741C183.065 157.947 183.091 158.155 183.158 158.351C183.224 158.547 183.328 158.727 183.465 158.883C183.601 159.038 183.767 159.165 183.953 159.256C184.327 159.436 184.757 159.464 185.151 159.333Z" fill="#FA8617"/>
<path d="M174.999 162.737L177.265 161.977C177.657 161.841 177.982 161.561 178.174 161.193C178.355 160.819 178.382 160.389 178.252 159.995C178.187 159.799 178.085 159.617 177.95 159.46C177.816 159.304 177.651 159.175 177.467 159.083C177.282 158.99 177.081 158.935 176.875 158.92C176.669 158.905 176.462 158.932 176.266 158.997L174 159.757C173.804 159.823 173.623 159.928 173.468 160.064C173.312 160.201 173.185 160.367 173.094 160.552C172.912 160.926 172.884 161.357 173.017 161.75C173.081 161.946 173.183 162.127 173.318 162.283C173.453 162.439 173.617 162.567 173.802 162.659C173.986 162.75 174.187 162.805 174.392 162.818C174.598 162.832 174.804 162.804 174.999 162.737Z" fill="#FA8617"/>
<path d="M164.862 166.137L167.128 165.377C167.324 165.313 167.505 165.211 167.661 165.076C167.817 164.941 167.945 164.777 168.037 164.593C168.128 164.408 168.183 164.207 168.196 164.002C168.21 163.796 168.182 163.59 168.115 163.395C167.984 163 167.702 162.674 167.331 162.486C167.146 162.392 166.945 162.336 166.739 162.321C166.533 162.306 166.325 162.332 166.129 162.397L163.863 163.157C163.667 163.223 163.486 163.327 163.331 163.462C163.175 163.598 163.048 163.764 162.957 163.949C162.865 164.134 162.812 164.336 162.799 164.542C162.785 164.748 162.813 164.955 162.88 165.15C163.014 165.544 163.295 165.87 163.664 166.06C164.039 166.237 164.468 166.265 164.862 166.137Z" fill="#FA8617"/>
<path d="M154.78 169.518L157.046 168.758C157.439 168.625 157.765 168.344 157.955 167.975C158.049 167.79 158.105 167.589 158.12 167.383C158.135 167.176 158.109 166.969 158.044 166.773C157.979 166.576 157.875 166.395 157.738 166.239C157.602 166.083 157.435 165.957 157.249 165.867C157.064 165.774 156.863 165.718 156.657 165.703C156.45 165.687 156.243 165.713 156.047 165.779L153.781 166.539C153.386 166.674 153.06 166.96 152.874 167.333C152.688 167.707 152.657 168.139 152.787 168.536C152.853 168.732 152.957 168.913 153.094 169.068C153.23 169.223 153.396 169.35 153.582 169.441C153.955 169.624 154.386 169.652 154.78 169.518Z" fill="#FA8617"/>
<path d="M144.581 172.938L146.847 172.178C147.241 172.047 147.568 171.765 147.756 171.394C147.849 171.209 147.905 171.008 147.921 170.802C147.936 170.596 147.91 170.388 147.845 170.192C147.709 169.797 147.423 169.472 147.05 169.286C146.676 169.1 146.244 169.068 145.848 169.198L143.582 169.958C143.386 170.024 143.205 170.128 143.049 170.265C142.894 170.401 142.767 170.567 142.676 170.753C142.581 170.937 142.525 171.139 142.509 171.345C142.494 171.552 142.521 171.759 142.587 171.955C142.654 172.151 142.758 172.332 142.894 172.487C143.031 172.643 143.197 172.77 143.383 172.861C143.757 173.041 144.186 173.068 144.581 172.938Z" fill="#FA8617"/>
<path d="M134.382 176.358L136.705 175.579C137.098 175.447 137.423 175.164 137.608 174.793C137.793 174.421 137.823 173.991 137.691 173.597C137.556 173.204 137.273 172.88 136.902 172.694C136.53 172.507 136.101 172.473 135.705 172.599L133.383 173.378C133.187 173.444 133.006 173.549 132.85 173.685C132.695 173.822 132.568 173.988 132.477 174.173C132.295 174.547 132.267 174.978 132.4 175.372C132.464 175.567 132.566 175.749 132.701 175.904C132.836 176.06 133 176.188 133.184 176.28C133.369 176.372 133.57 176.426 133.775 176.439C133.981 176.453 134.187 176.425 134.382 176.358Z" fill="#FA8617"/>
<path d="M226.15 240.354L223.884 241.114C223.67 241.164 223.47 241.261 223.299 241.398C223.123 241.528 222.976 241.693 222.869 241.883C222.764 242.079 222.699 242.293 222.677 242.514C222.658 242.731 222.684 242.95 222.754 243.157C222.823 243.363 222.934 243.553 223.08 243.715C223.227 243.878 223.408 244.006 223.61 244.092C223.809 244.188 224.028 244.235 224.248 244.231C224.467 244.232 224.684 244.189 224.887 244.105L227.153 243.345C227.365 243.289 227.563 243.193 227.738 243.061C227.915 242.929 228.061 242.76 228.164 242.565C228.268 242.373 228.335 242.162 228.36 241.945C228.378 241.728 228.352 241.509 228.283 241.303C228.214 241.096 228.103 240.906 227.957 240.744C227.803 240.585 227.622 240.453 227.423 240.356C227.222 240.271 227.006 240.228 226.788 240.228C226.569 240.222 226.351 240.265 226.15 240.354Z" fill="#FA8617"/>
<path d="M216.022 243.751L213.756 244.511C213.359 244.644 213.031 244.929 212.845 245.304C212.658 245.678 212.628 246.112 212.761 246.508C212.894 246.905 213.18 247.233 213.554 247.419C213.929 247.605 214.362 247.635 214.759 247.502L217.025 246.742C217.236 246.687 217.435 246.59 217.61 246.458C217.789 246.328 217.935 246.159 218.036 245.962C218.145 245.772 218.211 245.56 218.231 245.342C218.25 245.125 218.224 244.906 218.155 244.7C218.085 244.493 217.974 244.303 217.829 244.141C217.678 243.978 217.497 243.846 217.295 243.753C217.095 243.666 216.878 243.622 216.66 243.626C216.44 243.619 216.222 243.662 216.022 243.751Z" fill="#FA8617"/>
<path opacity="0.36" d="M323.772 168.17H217.352C213.84 168.17 210.992 171.017 210.992 174.53V280.95C210.992 284.462 213.84 287.31 217.352 287.31H323.772C327.285 287.31 330.132 284.462 330.132 280.95V174.53C330.132 171.017 327.285 168.17 323.772 168.17Z" fill="#B73408"/>
<path d="M317.733 162.12H211.313C207.801 162.12 204.953 164.968 204.953 168.48V274.9C204.953 278.413 207.801 281.26 211.313 281.26H317.733C321.246 281.26 324.093 278.413 324.093 274.9V168.48C324.093 164.968 321.246 162.12 317.733 162.12Z" fill="white"/>
<path style="mix-blend-mode:multiply" d="M313.881 172.27H215.031V271.12H313.881V172.27Z" fill="url(#paint4_linear_761_65)"/>
<path opacity="0.47" d="M315.51 271.98H213.66V249.11L231.27 228.73C232.484 227.315 234.185 226.406 236.037 226.184C237.888 225.962 239.756 226.442 241.27 227.53L257.47 239.1C257.868 239.387 258.351 239.531 258.841 239.509C259.331 239.487 259.799 239.301 260.17 238.98L283.46 218.93C285.933 216.816 289.086 215.664 292.339 215.688C295.593 215.712 298.729 216.909 301.17 219.06L315.49 231.76L315.51 271.98ZM216.66 268.98H312.51V233.11L299.2 221.31C297.304 219.638 294.867 218.707 292.339 218.689C289.811 218.67 287.361 219.566 285.44 221.21L262.15 241.21C261.271 241.971 260.162 242.413 259 242.466C257.839 242.518 256.694 242.178 255.75 241.5L239.55 229.93C238.64 229.282 237.52 228.996 236.411 229.13C235.301 229.263 234.281 229.805 233.55 230.65L216.66 250.19V268.98Z" fill="white"/>
<path opacity="0.47" d="M270.54 212.93C268.063 212.93 265.643 212.196 263.584 210.82C261.525 209.444 259.92 207.489 258.973 205.201C258.025 202.914 257.777 200.396 258.26 197.968C258.743 195.539 259.936 193.308 261.687 191.557C263.438 189.806 265.668 188.614 268.097 188.131C270.526 187.648 273.043 187.896 275.331 188.843C277.618 189.791 279.574 191.396 280.95 193.454C282.325 195.513 283.06 197.934 283.06 200.41C283.054 203.729 281.733 206.91 279.387 209.257C277.04 211.604 273.858 212.925 270.54 212.93ZM270.54 190.93C268.657 190.93 266.816 191.488 265.251 192.535C263.685 193.581 262.465 195.067 261.744 196.807C261.024 198.547 260.835 200.461 261.202 202.307C261.57 204.154 262.476 205.85 263.808 207.182C265.139 208.513 266.836 209.42 268.682 209.787C270.529 210.155 272.443 209.966 274.183 209.245C275.922 208.525 277.409 207.305 278.455 205.739C279.501 204.174 280.06 202.333 280.06 200.45C280.063 199.197 279.82 197.955 279.344 196.796C278.867 195.637 278.167 194.584 277.282 193.696C276.398 192.808 275.347 192.103 274.19 191.621C273.033 191.14 271.793 190.891 270.54 190.89V190.93Z" fill="white"/>
<path opacity="0.36" d="M220.791 225.456L160.635 247.996C157.346 249.228 155.679 252.894 156.911 256.183L179.45 316.339C180.683 319.628 184.348 321.295 187.638 320.063L247.794 297.524C251.083 296.291 252.75 292.626 251.518 289.337L228.979 229.18C227.746 225.891 224.081 224.224 220.791 225.456Z" fill="#853305"/>
<path d="M215.768 223.167L155.612 245.706C152.323 246.938 150.655 250.604 151.888 253.893L174.427 314.049C175.659 317.339 179.325 319.006 182.614 317.774L242.77 295.234C246.06 294.002 247.727 290.336 246.495 287.047L223.955 226.891C222.723 223.602 219.057 221.934 215.768 223.167Z" fill="white"/>
<path style="mix-blend-mode:multiply" d="M217.838 229.383L158.047 251.786L180.449 311.577L240.24 289.174L217.838 229.383Z" fill="url(#paint5_linear_761_65)"/>
<path opacity="0.47" d="M179.522 313.1L174.082 298.58L180.172 282.08C180.633 280.821 181.549 279.781 182.74 279.165C183.93 278.549 185.308 278.4 186.602 278.75L198.992 282.08C199.183 282.131 199.385 282.116 199.566 282.038C199.748 281.96 199.898 281.823 199.992 281.65L209.542 264.24C210.622 262.289 212.369 260.793 214.463 260.026C216.558 259.26 218.858 259.276 220.942 260.07L232.702 264.59L242.092 289.64L179.522 313.1ZM177.282 298.57L181.282 309.24L238.282 287.88L230.422 266.88L219.912 262.88C218.505 262.346 216.953 262.337 215.541 262.855C214.128 263.373 212.95 264.383 212.222 265.7L202.672 283.1C202.258 283.864 201.599 284.467 200.801 284.81C200.002 285.153 199.111 285.216 198.272 284.99L185.852 281.66C185.281 281.501 184.67 281.565 184.143 281.837C183.617 282.11 183.213 282.572 183.012 283.13L177.282 298.57Z" fill="white"/>
<path opacity="0.47" d="M197.991 264.85C196.419 264.845 194.878 264.411 193.535 263.595C192.192 262.778 191.098 261.61 190.372 260.216C189.645 258.822 189.313 257.257 189.412 255.688C189.51 254.119 190.036 252.607 190.932 251.316C191.828 250.025 193.06 249.003 194.495 248.361C195.93 247.719 197.513 247.482 199.073 247.675C200.633 247.868 202.11 248.484 203.345 249.456C204.58 250.428 205.526 251.719 206.081 253.19C206.573 254.496 206.741 255.903 206.569 257.288C206.398 258.674 205.893 259.997 205.097 261.144C204.301 262.291 203.238 263.227 202.001 263.873C200.763 264.518 199.387 264.854 197.991 264.85ZM197.991 250.61C196.793 250.612 195.628 250.997 194.664 251.708C193.701 252.418 192.99 253.419 192.634 254.562C192.279 255.705 192.298 256.933 192.689 258.064C193.08 259.196 193.822 260.174 194.807 260.854C195.792 261.535 196.969 261.883 198.166 261.847C199.363 261.812 200.517 261.396 201.461 260.659C202.404 259.921 203.088 258.902 203.412 257.749C203.735 256.597 203.683 255.37 203.261 254.25C202.855 253.18 202.134 252.259 201.193 251.609C200.251 250.959 199.135 250.611 197.991 250.61Z" fill="white"/>
<path opacity="0.54" d="M223.891 197.27C223.645 197.243 223.418 197.126 223.254 196.941C223.089 196.756 222.999 196.517 223.001 196.27V182.39C222.954 181.534 223.249 180.694 223.821 180.055C224.393 179.415 225.195 179.029 226.051 178.98H244.691C244.956 178.98 245.21 179.085 245.398 179.273C245.585 179.46 245.691 179.715 245.691 179.98C245.691 180.245 245.585 180.5 245.398 180.687C245.21 180.875 244.956 180.98 244.691 180.98H226.051C225.697 181.001 225.366 181.161 225.13 181.425C224.894 181.689 224.772 182.036 224.791 182.39V196.27C224.792 196.519 224.701 196.759 224.534 196.944C224.368 197.129 224.138 197.245 223.891 197.27Z" fill="white"/>
<path opacity="0.54" d="M306.062 197.27C306.309 197.245 306.539 197.129 306.705 196.944C306.871 196.759 306.963 196.519 306.962 196.27V182.39C307.005 181.534 306.71 180.696 306.138 180.057C305.567 179.419 304.767 179.032 303.912 178.98H285.262C284.997 178.98 284.742 179.085 284.555 179.273C284.367 179.46 284.262 179.715 284.262 179.98C284.262 180.245 284.367 180.5 284.555 180.687C284.742 180.875 284.997 180.98 285.262 180.98H303.912C304.266 181.001 304.597 181.161 304.833 181.425C305.069 181.689 305.191 182.036 305.172 182.39V196.27C305.17 196.517 305.26 196.756 305.425 196.941C305.589 197.126 305.816 197.243 306.062 197.27Z" fill="white"/>
<path opacity="0.54" d="M306.062 246.4C306.309 246.425 306.539 246.541 306.705 246.726C306.871 246.911 306.963 247.151 306.962 247.4V261.28C307.005 262.136 306.71 262.974 306.138 263.612C305.567 264.251 304.767 264.638 303.912 264.69H285.262C284.997 264.69 284.742 264.585 284.555 264.397C284.367 264.209 284.262 263.955 284.262 263.69C284.262 263.425 284.367 263.17 284.555 262.983C284.742 262.795 284.997 262.69 285.262 262.69H303.912C304.265 262.667 304.594 262.506 304.83 262.242C305.065 261.979 305.188 261.633 305.172 261.28V247.4C305.17 247.153 305.26 246.914 305.425 246.729C305.589 246.544 305.816 246.427 306.062 246.4Z" fill="white"/>
<path d="M169.773 265.66C169.7 265.683 169.623 265.692 169.547 265.685C169.471 265.679 169.397 265.657 169.329 265.622C169.261 265.587 169.201 265.538 169.152 265.479C169.103 265.421 169.066 265.353 169.043 265.28L166.043 257.28C165.836 256.8 165.824 256.259 166.011 255.771C166.198 255.284 166.568 254.888 167.043 254.67L177.743 250.67C177.89 250.626 178.049 250.641 178.185 250.712C178.321 250.783 178.425 250.904 178.473 251.05C178.531 251.192 178.532 251.352 178.477 251.495C178.421 251.638 178.312 251.755 178.173 251.82L167.473 255.82C167.375 255.862 167.286 255.924 167.212 256.001C167.138 256.077 167.079 256.168 167.04 256.268C167.001 256.367 166.982 256.473 166.984 256.58C166.987 256.687 167.01 256.792 167.053 256.89L170.053 264.89C170.115 265.03 170.121 265.188 170.068 265.332C170.016 265.475 169.91 265.593 169.773 265.66Z" fill="white"/>
<path d="M216.903 248C216.974 247.971 217.037 247.927 217.091 247.873C217.144 247.819 217.186 247.754 217.214 247.683C217.242 247.612 217.255 247.537 217.253 247.461C217.252 247.384 217.235 247.309 217.203 247.24L214.203 239.24C214.042 238.742 213.692 238.327 213.229 238.084C212.765 237.841 212.225 237.789 211.723 237.94L201.023 241.94C200.882 242.003 200.772 242.12 200.716 242.264C200.66 242.408 200.663 242.568 200.723 242.71C200.774 242.854 200.877 242.974 201.013 243.045C201.149 243.116 201.306 243.132 201.453 243.09L212.153 239.09C212.358 239.033 212.576 239.058 212.762 239.159C212.948 239.259 213.089 239.428 213.153 239.63L216.153 247.63C216.176 247.705 216.213 247.775 216.264 247.835C216.315 247.895 216.377 247.944 216.448 247.979C216.518 248.014 216.595 248.033 216.673 248.037C216.752 248.041 216.83 248.028 216.903 248Z" fill="white"/>
<path d="M180.3 292.19C180.16 292.251 180.05 292.366 179.994 292.508C179.937 292.65 179.94 292.809 180 292.95L182.92 300.75C183.089 301.238 183.441 301.643 183.901 301.877C184.362 302.112 184.895 302.16 185.39 302.01L196.08 298.01C196.15 297.98 196.214 297.937 196.268 297.883C196.322 297.829 196.364 297.765 196.393 297.694C196.422 297.624 196.436 297.548 196.436 297.472C196.435 297.396 196.42 297.32 196.39 297.25C196.367 297.178 196.329 297.111 196.279 297.054C196.229 296.997 196.169 296.95 196.101 296.917C196.033 296.883 195.959 296.863 195.883 296.859C195.808 296.854 195.732 296.865 195.66 296.89L184.97 300.89C184.769 300.95 184.552 300.929 184.365 300.832C184.178 300.735 184.037 300.569 183.97 300.37L181.05 292.57C181.026 292.495 180.988 292.426 180.937 292.367C180.887 292.307 180.825 292.258 180.755 292.223C180.685 292.188 180.609 292.166 180.531 292.161C180.453 292.155 180.374 292.165 180.3 292.19Z" fill="white"/>
<path d="M227.442 274.49C227.514 274.467 227.589 274.458 227.664 274.464C227.739 274.47 227.812 274.491 227.879 274.525C227.946 274.559 228.006 274.607 228.054 274.664C228.103 274.722 228.14 274.788 228.162 274.86L231.082 282.66C231.277 283.135 231.282 283.666 231.096 284.145C230.91 284.623 230.547 285.012 230.082 285.23L219.392 289.23C219.246 289.277 219.088 289.265 218.951 289.196C218.814 289.126 218.71 289.006 218.662 288.86C218.633 288.79 218.618 288.716 218.617 288.64C218.617 288.565 218.632 288.49 218.66 288.42C218.689 288.35 218.732 288.287 218.785 288.234C218.839 288.181 218.902 288.138 218.972 288.11L229.662 284.11C229.86 284.024 230.017 283.864 230.097 283.663C230.178 283.463 230.176 283.239 230.092 283.04L227.172 275.24C227.14 275.173 227.122 275.1 227.118 275.026C227.114 274.952 227.125 274.878 227.15 274.809C227.176 274.739 227.214 274.675 227.264 274.62C227.314 274.565 227.375 274.521 227.442 274.49Z" fill="white"/>
</g>
<defs>
<radialGradient id="paint0_radial_761_65" cx="0" cy="0" r="1" gradientUnits="userSpaceOnUse" gradientTransform="translate(217.001 197.237) scale(200.792 200.473)">
<stop stop-color="#F78620"/>
<stop offset="1" stop-color="#FFB56A"/>
</radialGradient>
<radialGradient id="paint1_radial_761_65" cx="0" cy="0" r="1" gradientUnits="userSpaceOnUse" gradientTransform="translate(189.274 230.392) scale(175.424 176.897)">
<stop stop-color="#FFB56A"/>
<stop offset="1" stop-color="#F78620"/>
</radialGradient>
<radialGradient id="paint2_radial_761_65" cx="0" cy="0" r="1" gradientUnits="userSpaceOnUse" gradientTransform="translate(207.571 175.806) scale(186.858 184.714)">
<stop stop-color="#8932A2"/>
<stop offset="1" stop-color="#FFB56A"/>
</radialGradient>
<linearGradient id="paint3_linear_761_65" x1="96.5" y1="175" x2="275" y2="235.5" gradientUnits="userSpaceOnUse">
<stop stop-color="#88150F"/>
<stop offset="0.975841" stop-color="#FA8617"/>
</linearGradient>
<linearGradient id="paint4_linear_761_65" x1="215.031" y1="221.69" x2="313.871" y2="221.69" gradientUnits="userSpaceOnUse">
<stop stop-color="#88150F"/>
<stop offset="1" stop-color="#FA8617"/>
</linearGradient>
<linearGradient id="paint5_linear_761_65" x1="158.048" y1="270.467" x2="240.248" y2="270.467" gradientUnits="userSpaceOnUse">
<stop stop-color="#88150F"/>
<stop offset="1" stop-color="#FA8617"/>
</linearGradient>
<clipPath id="clip0_761_65">
<rect width="429" height="390" fill="white"/>
</clipPath>
</defs>
</svg>
