<svg width="48" height="50" viewBox="0 0 48 50" fill="none" xmlns="http://www.w3.org/2000/svg">
<g clip-path="url(#clip0_489_22)">
<path d="M40.6416 22.1909V50.0001H47.5218V22.1909H40.6416ZM27.2256 34.6241V50.0001H34.1058V34.6241H27.2256ZM13.8863 26.3513V50.0001H20.7665V26.3513H13.8863ZM0.546875 39.1966V50.0001H7.42708V39.1966H0.546875Z" fill="#FA8617"/>
<path d="M47.5216 11.2436C47.5216 11.2819 47.5216 11.3107 47.5216 11.3394C47.4737 13.6017 45.6173 15.4231 43.3494 15.4231C42.8806 15.4231 42.4404 15.3464 42.0193 15.2026L34.7659 22.4784C35.1391 23.1111 35.3592 23.8397 35.3592 24.6353C35.3592 26.9455 33.4932 28.8244 31.1775 28.8244C28.8713 28.8244 26.9958 26.9551 26.9958 24.6353C26.9958 24.1848 27.0628 23.7534 27.1967 23.3412L20.1538 18.2893C19.4074 18.9891 18.4027 19.4109 17.3022 19.4109C16.4123 19.4109 15.5894 19.1329 14.91 18.6632L8.00104 26.0349C8.55605 26.7442 8.89097 27.6453 8.89097 28.6135C8.89097 30.9238 7.02498 32.8026 4.70925 32.8026C2.40309 32.8026 0.537109 30.9238 0.537109 28.6135C0.537109 26.3033 2.40309 24.4244 4.71882 24.4244C5.25469 24.4244 5.77143 24.5203 6.24032 24.712L13.5129 16.976C13.2736 16.4488 13.1301 15.8545 13.1301 15.2314C13.1301 12.9211 14.9961 11.0423 17.3118 11.0423C19.618 11.0423 21.4935 12.9211 21.4935 15.2314C21.4935 15.6436 21.4361 16.0462 21.3213 16.42L28.4216 21.5007C29.1584 20.8488 30.1249 20.4462 31.1871 20.4462C31.9047 20.4462 32.5937 20.6283 33.187 20.9542L40.1725 13.9564C39.5505 13.2279 39.1773 12.2789 39.1773 11.2436C39.1773 8.93331 41.0433 7.05444 43.359 7.05444C45.6365 7.05444 47.4929 8.88538 47.5311 11.1573C47.5216 11.186 47.5216 11.2148 47.5216 11.2436Z" fill="#FA8617"/>
<path d="M32.9452 4.99722C34.3385 6.39295 36.1135 7.17326 37.9336 7.33718C36.1126 7.50206 34.3385 8.28141 32.9452 9.67714C31.5519 11.0729 30.774 12.8501 30.6094 14.6744C30.4457 12.8511 29.6668 11.0729 28.2735 9.67714C26.8803 8.28141 25.1052 7.5011 23.2852 7.33718C25.1062 7.1723 26.8803 6.39295 28.2735 4.99722C29.6668 3.60149 30.4448 1.82423 30.6094 0C30.773 1.82327 31.5519 3.60149 32.9452 4.99722Z" fill="#FA8617"/>
<path d="M5.48886 8.96586C6.28023 9.75863 7.28881 10.2025 8.32324 10.2954C7.28881 10.3894 6.28023 10.8323 5.48886 11.625C4.69749 12.4178 4.2554 13.4282 4.16162 14.4644C4.0688 13.4282 3.62575 12.4178 2.83438 11.625C2.04301 10.8323 1.03442 10.3884 0 10.2954C1.03442 10.2015 2.04301 9.75863 2.83438 8.96586C3.62575 8.17309 4.06784 7.16272 4.16162 6.12646C4.25444 7.16272 4.69749 8.17309 5.48886 8.96586Z" fill="#FA8617"/>
</g>
<defs>
<clipPath id="clip0_489_22">
<rect width="47.5309" height="50" fill="white"/>
</clipPath>
</defs>
</svg>
