<?xml version="1.0" encoding="utf-8"?>
<!-- Generator: Adobe Illustrator 26.0.0, SVG Export Plug-In . SVG Version: 6.00 Build 0)  -->
<svg version="1.1" id="Layer_1" xmlns="http://www.w3.org/2000/svg" xmlns:xlink="http://www.w3.org/1999/xlink" x="0px" y="0px"
	 viewBox="0 0 35 33" style="enable-background:new 0 0 35 33;" xml:space="preserve">
<style type="text/css">
	.st0{fill:none;stroke:#CACACA;}
	.st1{fill:#F16334;}
</style>
<g>
	<path id="cla2" class="st0" d="M10.6,2.6c2.3-1.3,5-2.1,7.9-2.1c8.8,0,16,7.2,16,16s-7.2,16-16,16s-16-7.2-16-16
		c0-2.1,0.4-4.1,1.1-6"/>
	<path id="cla1" class="st1" d="M17.2,16.8h11.7c0.3,0,0.5,0.2,0.5,0.5c0,0.3-0.2,0.5-0.5,0.5H17.2c-0.3,0-0.5-0.2-0.5-0.5
		C16.7,17,16.9,16.8,17.2,16.8z M10.1,16.8h3.2c0.3,0,0.5,0.2,0.5,0.5c0,0.3-0.2,0.5-0.5,0.5h-3.2c-0.3,0-0.5-0.2-0.5-0.5
		C9.6,17,9.8,16.8,10.1,16.8z M29,22.1H10.1c-0.3,0-0.5-0.2-0.5-0.5c0-0.3,0.2-0.5,0.5-0.5H29c0.3,0,0.5,0.2,0.5,0.5
		C29.5,21.9,29.3,22.1,29,22.1z"/>
	<path id="cla1_00000090291388970147169030000012092027830504285319_" class="st1" d="M10,3.5L10,3.5L10,3.5l-3.5,0
		c-0.2,0-0.3,0.1-0.5,0.2C6,3.8,5.9,4,5.9,4.2v0.7c0,0.1,0,0.2,0,0.2c0,0.1,0.1,0.1,0.1,0.2c0.1,0.1,0.1,0.1,0.2,0.1
		c0.1,0,0.2,0,0.3,0c0.1,0,0.2,0,0.3,0C6.9,5.4,7,5.3,7,5.3c0.1-0.1,0.1-0.1,0.1-0.2c0-0.1,0-0.2,0-0.2v0h0.5v3.4H7.6h0l0,0
		c-0.2,0-0.3,0.1-0.4,0.2C7.1,8.5,7,8.7,7,8.8C7,9,7.1,9.1,7.2,9.2c0.1,0.1,0.3,0.2,0.4,0.2l0,0h0H9h0l0,0c0.2,0,0.3-0.1,0.4-0.2
		C9.6,9.1,9.6,9,9.6,8.8c0-0.2-0.1-0.3-0.2-0.4C9.3,8.3,9.2,8.2,9,8.2l0,0h0H8.9V4.8h0.5v0.1v0l0,0c0,0.2,0.1,0.3,0.2,0.4
		C9.7,5.4,9.9,5.4,10,5.4c0.2,0,0.3-0.1,0.4-0.2s0.2-0.3,0.2-0.4l0,0v0V4.2c0,0,0,0,0,0c0-0.2-0.1-0.3-0.2-0.4
		C10.4,3.6,10.2,3.5,10,3.5z"/>
	<path id="cla1_00000170991600071563161920000011781868560748458149_" class="st1" d="M7.1,0.6v1.2c0,0.1-0.1,0.3-0.2,0.4
		c-0.2,0.2-0.6,0.2-0.8,0C6,2.1,5.9,1.9,5.9,1.7V1.2H4.1v6.6l0.1,0.5h0.5c0.2,0,0.3,0.1,0.4,0.2c0.1,0.1,0.2,0.2,0.2,0.4
		c0,0.2-0.1,0.3-0.2,0.4S4.9,9.4,4.7,9.4H2.4C2.2,9.4,2.1,9.4,2,9.2C1.8,9.1,1.8,9,1.8,8.8c0-0.2,0.1-0.3,0.2-0.4
		c0.1-0.1,0.2-0.2,0.5-0.2H3V1.2H1.7L1.2,1.3l0,0.5c0,0.1,0,0.2,0,0.2c0,0.1-0.1,0.1-0.1,0.2C1,2.3,0.9,2.3,0.8,2.3
		c-0.2,0.1-0.3,0.1-0.5,0c-0.1,0-0.1-0.1-0.2-0.1C0.1,2.1,0.1,2.1,0,2c0-0.1,0-0.2,0-0.2V0.6c0-0.2,0.1-0.3,0.2-0.4
		C0.3,0.1,0.4,0,0.6,0h5.9c0.2,0,0.3,0.1,0.4,0.2C7,0.3,7.1,0.4,7.1,0.6z"/>
</g>
</svg>
