<?xml version="1.0" encoding="utf-8"?>
<!-- Generator: Adobe Illustrator 26.0.0, SVG Export Plug-In . SVG Version: 6.00 Build 0)  -->
<svg version="1.1" id="Layer_1" xmlns="http://www.w3.org/2000/svg" xmlns:xlink="http://www.w3.org/1999/xlink" x="0px" y="0px"
	 viewBox="0 0 35 33" style="enable-background:new 0 0 35 33;" xml:space="preserve">
<style type="text/css">
	.st0{fill:#FA8617;}
	.st1{fill:#CACACA;}
</style>
<g>
	<path id="cla1_00000129889354294205908240000015338523547764660119_" class="st0" d="M28.9,21.1H10c-0.3,0-0.5,0.2-0.5,0.5
		s0.2,0.5,0.5,0.5h18.9c0.3,0,0.5-0.2,0.5-0.5C29.4,21.3,29.2,21.1,28.9,21.1z M28.9,16.8H17.1c-0.3,0-0.5,0.2-0.5,0.5
		s0.2,0.5,0.5,0.5h11.7c0.3,0,0.5-0.2,0.5-0.5C29.4,17,29.2,16.8,28.9,16.8z M13.2,16.8H10c-0.3,0-0.5,0.2-0.5,0.5s0.2,0.5,0.5,0.5
		h3.2c0.3,0,0.5-0.2,0.5-0.5S13.4,16.8,13.2,16.8z"/>
	<path class="st0" d="M11.6,8L9.7,6.3C8.8,5.4,7.5,5.4,6.5,6L6.3,5.6c0.9-0.9,0.6-2.2-0.2-3L4.3,0.6c-0.9-0.9-2.4-0.9-3.2,0L0.6,1.1
		c-0.9,0.9-0.9,2.4,0,3.2l1.7,1.9c0.4,0.4,1.1,0.6,1.7,0.6c0.4,0,0.9-0.2,1.3-0.4l0.4,0.4C5.2,7.8,5.2,9.1,6,9.9l1.7,1.9
		c0.4,0.4,1.1,0.6,1.7,0.6c0.6,0,1.3-0.2,1.7-0.6l0.4-0.4C12.5,10.6,12.5,9.1,11.6,8z M10.8,10.6L10.3,11c-0.4,0.4-1.3,0.4-1.7,0
		L6.9,9.1C6.5,8.8,6.5,8.2,6.7,7.8l0.4,0.4c0.2,0.2,0.2,0.2,0.4,0.2c0.2,0,0.2,0,0.4-0.2C8.2,8,8.2,7.5,8,7.3L7.5,6.9
		C7.8,6.7,8,6.7,8.2,6.7c0.2,0,0.6,0.2,0.9,0.4l1.7,1.9C11.2,9.3,11.2,10.1,10.8,10.6z M3.2,5.4L1.5,3.7c-0.4-0.4-0.4-1.3,0-1.7
		l0.4-0.4c0.2-0.2,0.4-0.4,0.6-0.4s0.6,0.2,0.9,0.4l1.8,1.8c0.5,0.6,0.6,1,0.1,1.6L5.2,4.5C5,4.3,4.5,4.3,4.3,4.5
		c-0.2,0.2-0.2,0.6,0,0.9l0.4,0.4C4.1,5.8,3.7,5.8,3.2,5.4z"/>
</g>
<g id="cla2_00000008839459825259358980000002316836201950990214_">
	<path class="st1" d="M18.5,33C9.4,33,2,25.6,2,16.5h1C3,25,10,32,18.5,32S34,25,34,16.5S27,1,18.5,1V0C27.6,0,35,7.4,35,16.5
		C35,25.6,27.6,33,18.5,33z"/>
	<path class="st1" d="M22,7.9h3.7c0.2,0,0.4,0.2,0.4,0.4l0,3.7c0,0.3-0.2,0.5-0.5,0.5c-0.3,0-0.5-0.2-0.5-0.5V9.6L21,13.8
		c-0.2,0.2-0.5,0.2-0.7,0c-0.2-0.2-0.2-0.5,0-0.7L24.4,9H22c-0.3,0-0.5-0.2-0.5-0.5C21.5,8.2,21.8,7.9,22,7.9z"/>
</g>
</svg>
