<?xml version="1.0" encoding="utf-8"?>
<!-- Generator: Adobe Illustrator 26.0.0, SVG Export Plug-In . SVG Version: 6.00 Build 0)  -->
<svg version="1.1" id="Layer_1" xmlns="http://www.w3.org/2000/svg" xmlns:xlink="http://www.w3.org/1999/xlink" x="0px" y="0px"
	 viewBox="0 0 35 33" style="enable-background:new 0 0 35 33;" xml:space="preserve">
<style type="text/css">
	.st0{fill:#FA8617;}
	.st1{fill:#CACACA;}
</style>
<g>
	<path id="cla1_00000129889354294205908240000015338523547764660119_" class="st0" d="M28.9,21.1H10c-0.3,0-0.5,0.2-0.5,0.5
		s0.2,0.5,0.5,0.5h18.9c0.3,0,0.5-0.2,0.5-0.5C29.4,21.3,29.2,21.1,28.9,21.1z M28.9,16.8H17.1c-0.3,0-0.5,0.2-0.5,0.5
		s0.2,0.5,0.5,0.5h11.7c0.3,0,0.5-0.2,0.5-0.5C29.4,17,29.2,16.8,28.9,16.8z M13.2,16.8H10c-0.3,0-0.5,0.2-0.5,0.5s0.2,0.5,0.5,0.5
		h3.2c0.3,0,0.5-0.2,0.5-0.5S13.4,16.8,13.2,16.8z"/>
	<path class="st0" d="M7.4,4.6c0,0-0.1-0.1-0.2,0v0C7.1,4.7,7,4.9,7,5c0,0.1,0.1,0.1,0.1,0.1c0.1,0,0.1-0.1,0.1-0.1
		c0-0.1,0.1-0.2,0.1-0.3l0,0C7.5,4.7,7.5,4.6,7.4,4.6C7.4,4.6,7.4,4.6,7.4,4.6L7.4,4.6z M6.8,5c0-0.4,0.4-0.8,0.8-0.8S8.3,4.5,8.3,5
		c0,0.4-0.4,0.8-0.8,0.8C7.1,5.8,6.8,5.4,6.8,5z M2.1,0H1.4C1.3,0,1.1,0.1,1.1,0.3v0.2h1.3c0,0,0,0,0-0.2C2.4,0.1,2.3,0,2.1,0z
		 M10.2,0H9.5C9.3,0,9.2,0.5,9.2,0.5h1.3C10.5,0.5,10.4,0,10.2,0z M10.9,0.6h-10C0.4,0.6,0,1,0,1.5v3.1h4.9c0.1-1.3,1.2-2.3,2.6-2.3
		c1.4,0,2.6,1.2,2.6,2.6S8.9,7.5,7.5,7.5c-1.3,0-2.5-1-2.6-2.3H0v3.1c0,0.5,0.4,0.9,0.9,0.9h10c0.5,0,0.9-0.4,0.9-0.9V1.5
		C11.8,1,11.4,0.6,10.9,0.6z M11.2,8.3c0,0.2-0.2,0.3-0.3,0.3h-10c-0.2,0-0.3-0.2-0.3-0.3V5.8h3.9c0.4,1.5,1.8,2.5,3.4,2.3
		c1.5-0.1,2.7-1.3,2.9-2.8c0.2-1.9-1.3-3.6-3.2-3.6c-1.5,0-2.7,1-3.1,2.3H0.6V1.6c0-0.2,0.2-0.3,0.3-0.3h10c0.2,0,0.3,0.2,0.3,0.3
		L11.2,8.3L11.2,8.3z"/>
</g>
<g id="cla2_00000021822079461518687230000000102307893131826864_">
	<path class="st1" d="M18.5,33C9.4,33,2,25.6,2,16.5c0-1.6,0.2-3,0.6-4.5l1,0.3C3.2,13.7,3,15,3,16.5C3,25,10,32,18.5,32
		S34,25,34,16.5S27,1,18.5,1c-1,0-1.9,0.1-2.9,0.3l-0.2-1c1-0.2,2.1-0.3,3.1-0.3C27.6,0,35,7.4,35,16.5C35,25.6,27.6,33,18.5,33z"/>
</g>
</svg>
