<svg width="639" height="447" viewBox="0 0 639 447" fill="none" xmlns="http://www.w3.org/2000/svg">
<path d="M147.947 181.303H216.735C216.735 181.303 235.69 172.006 237.001 144.113C237.478 133.146 216.735 105.254 216.735 105.254H156.888L133.521 141.729L147.947 181.303Z" fill="#EDEDED"/>
<path d="M147.948 93.6912H631.133C633.875 93.6912 636.02 91.5456 636.02 88.804V40.1704C636.02 37.4288 633.875 35.2832 631.133 35.2832H147.948C145.206 35.2832 143.061 37.4288 143.061 40.1704V88.804C143.061 91.4264 145.206 93.6912 147.948 93.6912Z" fill="#F6F6FF"/>
<path d="M215.307 66.2753H368.857V61.5073H215.307V66.2753Z" fill="#C9D7FD"/>
<path d="M179.421 54.7128H179.063V50.7792C179.063 50.5408 178.944 50.4216 178.825 50.1832C178.706 50.064 178.467 49.9448 178.348 49.9448C178.229 49.9448 177.99 50.064 177.752 50.1832C177.633 50.3024 177.514 50.5408 177.514 50.7792V54.7128H172.983V50.7792C172.983 50.5408 172.864 50.4216 172.745 50.1832C172.626 50.064 172.387 49.9448 172.149 49.9448C171.91 49.9448 171.791 50.064 171.553 50.1832C171.433 50.3024 171.314 50.5408 171.314 50.7792V54.7128H170.957C170.241 54.7128 169.645 55.3088 169.645 56.024V60.3152C169.645 62.6992 171.195 64.8448 173.46 65.56V70.8048C173.46 72.4736 172.03 74.0232 170.241 74.0232C168.572 74.0232 167.142 72.5928 167.142 70.8048V69.732C167.142 66.0368 163.804 62.9376 160.108 62.9376C155.697 62.9376 153.193 67.1096 153.193 68.8976H157.247C157.485 67.944 158.558 66.6328 160.346 66.6328C162.135 66.6328 163.446 68.0632 163.446 69.8512V71.1624C163.446 74.3808 166.546 77.7184 170.48 77.7184C174.414 77.7184 177.156 74.2616 177.156 71.0432V65.56C179.302 64.8448 180.732 62.6992 180.732 60.3152V56.024C180.732 55.3088 180.136 54.7128 179.421 54.7128ZM172.745 51.7328H171.433V50.7792C171.433 50.5408 171.433 50.4216 171.672 50.3024C171.791 50.1832 171.91 50.064 172.149 50.064C172.387 50.064 172.506 50.1832 172.626 50.3024C172.745 50.4216 172.864 50.5408 172.864 50.7792L172.745 51.7328ZM178.944 51.7328H177.633V50.7792C177.633 50.5408 177.752 50.4216 177.871 50.3024C177.99 50.1832 178.11 50.064 178.348 50.064C178.586 50.064 178.706 50.1832 178.825 50.3024C178.944 50.4216 179.063 50.5408 179.063 50.7792L178.944 51.7328Z" fill="#C9D7FD"/>
<path d="M586.426 66.2753H612.534V61.5073H586.426V66.2753Z" fill="#C9D7FD"/>
<path d="M540.646 66.2753H566.755V61.5073H540.646V66.2753Z" fill="#C9D7FD"/>
<path d="M1.42969 44.5807H49.8316V39.8127H1.42969V44.5807Z" fill="#C9D7FD"/>
<path d="M1.42969 73.7848H49.8316V69.0168H1.42969V73.7848Z" fill="#C9D7FD"/>
<path d="M1.42969 101.201H49.8316V96.4329H1.42969V101.201Z" fill="#C9D7FD"/>
<path d="M1.42969 129.213H100.618V124.445H1.42969V129.213Z" fill="#C9D7FD"/>
<path d="M1.42969 158.417H85.358V153.649H1.42969V158.417Z" fill="#C9D7FD"/>
<path d="M1.42969 187.621H94.1801V182.853H1.42969V187.621Z" fill="#C9D7FD"/>
<path d="M1.42969 236.731H77.0129V231.963H1.42969V236.731Z" fill="#C9D7FD"/>
<path d="M1.42969 266.412H99.3064V261.644H1.42969V266.412Z" fill="#C9D7FD"/>
<path d="M0.815703 203.196H3.1917C3.8337 203.196 4.3227 203.373 4.6587 203.727C4.9947 204.075 5.1627 204.537 5.1627 205.113C5.1627 205.689 4.9947 206.154 4.6587 206.508C4.3227 206.856 3.8337 207.03 3.1917 207.03H1.9857V209.496H0.815703V203.196ZM3.1467 205.95C3.4107 205.95 3.6147 205.881 3.7587 205.743C3.9027 205.605 3.9747 205.395 3.9747 205.113C3.9747 204.831 3.9027 204.621 3.7587 204.483C3.6147 204.345 3.4107 204.276 3.1467 204.276H1.9857V205.95H3.1467ZM6.09582 203.124H7.21182V209.496H6.09582V203.124ZM9.86387 209.568C9.44387 209.568 9.10487 209.451 8.84687 209.217C8.59487 208.983 8.46887 208.644 8.46887 208.2V204.96H9.58487V207.867C9.58487 208.125 9.64187 208.314 9.75587 208.434C9.87587 208.554 10.0349 208.614 10.2329 208.614C10.4189 208.614 10.5899 208.542 10.7459 208.398C10.9019 208.254 11.0279 208.044 11.1239 207.768C11.2199 207.486 11.2679 207.153 11.2679 206.769V204.96H12.3839V209.496H11.2679V208.767C11.0939 209.013 10.8869 209.208 10.6469 209.352C10.4069 209.496 10.1459 209.568 9.86387 209.568ZM15.3466 211.404C14.7406 211.404 14.2456 211.275 13.8616 211.017C13.4836 210.759 13.2946 210.39 13.2946 209.91C13.2946 209.538 13.4176 209.238 13.6636 209.01C13.5076 208.824 13.4296 208.59 13.4296 208.308C13.4296 208.098 13.4776 207.912 13.5736 207.75C13.6756 207.588 13.8136 207.456 13.9876 207.354C13.7776 207.096 13.6726 206.784 13.6726 206.418C13.6726 206.112 13.7446 205.845 13.8886 205.617C14.0386 205.383 14.2396 205.203 14.4916 205.077C14.7496 204.951 15.0316 204.888 15.3376 204.888C15.6316 204.888 15.9106 204.954 16.1746 205.086L17.0296 204.636L17.4706 205.374L16.8226 205.698C16.9426 205.908 17.0026 206.148 17.0026 206.418C17.0026 206.724 16.9276 206.994 16.7776 207.228C16.6336 207.456 16.4326 207.63 16.1746 207.75C15.9226 207.87 15.6436 207.93 15.3376 207.93C15.1096 207.93 14.8906 207.897 14.6806 207.831C14.5366 207.915 14.4646 208.029 14.4646 208.173C14.4646 208.281 14.5006 208.365 14.5726 208.425C14.6446 208.479 14.7496 208.506 14.8876 208.506H15.8146C16.3006 208.506 16.6876 208.623 16.9756 208.857C17.2636 209.085 17.4076 209.412 17.4076 209.838C17.4076 210.192 17.3086 210.486 17.1106 210.72C16.9186 210.954 16.6666 211.125 16.3546 211.233C16.0426 211.347 15.7066 211.404 15.3466 211.404ZM15.3376 207.03C15.5176 207.03 15.6646 206.973 15.7786 206.859C15.8986 206.745 15.9586 206.598 15.9586 206.418C15.9586 206.232 15.8986 206.082 15.7786 205.968C15.6646 205.848 15.5176 205.788 15.3376 205.788C15.1576 205.788 15.0076 205.848 14.8876 205.968C14.7736 206.082 14.7166 206.232 14.7166 206.418C14.7166 206.598 14.7736 206.745 14.8876 206.859C15.0076 206.973 15.1576 207.03 15.3376 207.03ZM15.3466 210.468C15.6346 210.468 15.8626 210.423 16.0306 210.333C16.2046 210.243 16.2916 210.102 16.2916 209.91C16.2916 209.736 16.2286 209.613 16.1026 209.541C15.9766 209.475 15.7966 209.442 15.5626 209.442H14.9506C14.7466 209.442 14.5726 209.43 14.4286 209.406C14.3626 209.508 14.3296 209.646 14.3296 209.82C14.3296 210.03 14.4226 210.189 14.6086 210.297C14.7946 210.411 15.0406 210.468 15.3466 210.468ZM18.7827 204.375C18.5787 204.375 18.4077 204.306 18.2697 204.168C18.1317 204.03 18.0627 203.859 18.0627 203.655C18.0627 203.451 18.1317 203.28 18.2697 203.142C18.4077 203.004 18.5787 202.935 18.7827 202.935C18.9867 202.935 19.1577 203.004 19.2957 203.142C19.4337 203.28 19.5027 203.451 19.5027 203.655C19.5027 203.859 19.4337 204.03 19.2957 204.168C19.1577 204.306 18.9867 204.375 18.7827 204.375ZM18.2247 204.96H19.3407V209.496H18.2247V204.96ZM20.5626 204.96H21.6786V205.689C21.8526 205.443 22.0596 205.248 22.2996 205.104C22.5396 204.96 22.8006 204.888 23.0826 204.888C23.5026 204.888 23.8386 205.005 24.0906 205.239C24.3486 205.473 24.4776 205.812 24.4776 206.256V209.496H23.3616V206.589C23.3616 206.331 23.3016 206.142 23.1816 206.022C23.0676 205.902 22.9116 205.842 22.7136 205.842C22.5276 205.842 22.3566 205.914 22.2006 206.058C22.0446 206.202 21.9186 206.415 21.8226 206.697C21.7266 206.973 21.6786 207.303 21.6786 207.687V209.496H20.5626V204.96ZM27.1451 209.568C26.6771 209.568 26.2841 209.448 25.9661 209.208C25.6541 208.968 25.4471 208.68 25.3451 208.344L26.2361 207.867C26.3201 208.101 26.4371 208.284 26.5871 208.416C26.7431 208.548 26.9261 208.614 27.1361 208.614C27.2981 208.614 27.4331 208.581 27.5411 208.515C27.6491 208.443 27.7031 208.329 27.7031 208.173C27.7031 208.035 27.6371 207.924 27.5051 207.84C27.3791 207.75 27.1811 207.657 26.9111 207.561C26.8691 207.549 26.8061 207.525 26.7221 207.489C26.3741 207.351 26.1041 207.177 25.9121 206.967C25.7201 206.757 25.6241 206.487 25.6241 206.157C25.6241 205.923 25.6871 205.71 25.8131 205.518C25.9391 205.326 26.1101 205.173 26.3261 205.059C26.5481 204.945 26.7971 204.888 27.0731 204.888C27.3791 204.888 27.6581 204.954 27.9101 205.086C28.1621 205.212 28.3571 205.392 28.4951 205.626L27.8291 206.238C27.6491 205.974 27.4061 205.842 27.1001 205.842C26.9801 205.842 26.8751 205.875 26.7851 205.941C26.7011 206.001 26.6591 206.082 26.6591 206.184C26.6591 206.292 26.7221 206.394 26.8481 206.49C26.9741 206.58 27.2201 206.691 27.5861 206.823C27.9341 206.949 28.2011 207.114 28.3871 207.318C28.5791 207.522 28.6751 207.783 28.6751 208.101C28.6751 208.545 28.5341 208.902 28.2521 209.172C27.9701 209.436 27.6011 209.568 27.1451 209.568Z" fill="#FA8617"/>
<path d="M147.948 170.933H631.133C633.875 170.933 636.02 168.787 636.02 166.046V117.412C636.02 114.671 633.875 112.525 631.133 112.525H147.948C145.206 112.525 143.061 114.671 143.061 117.412V166.046C143.061 168.668 145.206 170.933 147.948 170.933Z" fill="#F6F6FF"/>
<path d="M215.307 143.517H368.857V138.749H215.307V143.517Z" fill="#C9D7FD"/>
<path d="M182.282 131.12H181.805V125.756C181.805 125.399 181.686 125.16 181.448 125.041C181.209 124.803 180.971 124.683 180.733 124.683C180.494 124.683 180.136 124.803 180.017 125.041C179.779 125.279 179.66 125.518 179.66 125.756V131.12H173.58V125.756C173.58 125.399 173.46 125.16 173.222 125.041C172.983 124.803 172.745 124.683 172.507 124.683C172.149 124.683 171.911 124.803 171.791 125.041C171.553 125.279 171.553 125.518 171.553 125.756V131.12H171.076C170.003 131.12 169.288 131.955 169.288 132.908V138.749C169.288 142.087 171.434 144.947 174.414 145.901V153.053C174.414 155.437 172.507 157.344 170.003 157.344C167.619 157.344 165.711 155.437 165.711 153.053V151.503C165.711 146.378 161.3 142.325 156.174 142.325C150.213 142.325 146.756 148.047 146.756 150.431H152.24C152.597 149.119 154.028 147.331 156.412 147.331C158.797 147.331 160.704 149.239 160.704 151.742V153.53C160.704 157.94 164.877 162.351 170.241 162.351C175.606 162.351 179.421 157.702 179.421 153.291V145.901C182.402 144.947 184.309 142.087 184.309 138.749V132.908C184.071 131.955 183.236 131.12 182.282 131.12ZM173.222 126.948H171.434V125.637C171.434 125.399 171.553 125.16 171.672 125.041C171.911 124.803 172.03 124.803 172.268 124.803C172.507 124.803 172.745 124.922 172.864 125.041C172.983 125.16 173.103 125.399 173.103 125.637L173.222 126.948ZM181.567 126.948H179.779V125.637C179.779 125.399 179.898 125.16 180.017 125.041C180.136 124.803 180.375 124.803 180.613 124.803C180.852 124.803 181.09 124.922 181.209 125.041C181.329 125.16 181.448 125.399 181.448 125.637L181.567 126.948Z" fill="#C9D7FD"/>
<path d="M586.426 143.517H612.534V138.749H586.426V143.517Z" fill="#C9D7FD"/>
<path d="M540.646 143.517H566.755V138.749H540.646V143.517Z" fill="#C9D7FD"/>
<path d="M147.948 248.055H631.133C633.875 248.055 636.02 245.91 636.02 243.168V194.534C636.02 191.793 633.875 189.647 631.133 189.647H147.948C145.206 189.647 143.061 191.793 143.061 194.534V243.168C143.061 245.91 145.206 248.055 147.948 248.055Z" fill="#F6F6FF"/>
<path d="M215.307 220.758H368.857V215.99H215.307V220.758Z" fill="#C9D7FD"/>
<path d="M179.421 209.196H179.063V205.262C179.063 205.024 178.944 204.905 178.825 204.666C178.706 204.547 178.467 204.428 178.348 204.428C178.229 204.428 177.99 204.547 177.752 204.666C177.633 204.786 177.514 205.024 177.514 205.262V209.196H172.983V205.262C172.983 205.024 172.864 204.905 172.745 204.666C172.626 204.547 172.387 204.428 172.149 204.428C171.91 204.428 171.791 204.547 171.553 204.666C171.433 204.786 171.314 205.024 171.314 205.262V209.196H170.957C170.241 209.196 169.645 209.792 169.645 210.507V214.798C169.645 217.182 171.195 219.328 173.46 220.043V225.288C173.46 226.957 172.03 228.506 170.241 228.506C168.572 228.506 167.142 227.076 167.142 225.288V224.215C167.142 220.52 163.804 217.421 160.108 217.421C155.697 217.421 153.193 221.593 153.193 223.381H157.247C157.485 222.427 158.558 221.116 160.346 221.116C162.135 221.116 163.446 222.546 163.446 224.334V225.646C163.446 228.864 166.546 232.202 170.48 232.202C174.414 232.202 177.156 228.745 177.156 225.526V220.043C179.302 219.328 180.732 217.182 180.732 214.798V210.507C180.732 209.792 180.136 209.196 179.421 209.196ZM172.745 206.216H171.433V205.262C171.433 205.024 171.433 204.905 171.672 204.786C171.791 204.666 171.91 204.547 172.149 204.547C172.387 204.547 172.506 204.666 172.626 204.786C172.745 204.905 172.864 205.024 172.864 205.262L172.745 206.216ZM178.944 206.216H177.633V205.262C177.633 205.024 177.752 204.905 177.871 204.786C177.99 204.666 178.11 204.547 178.348 204.547C178.586 204.547 178.706 204.666 178.825 204.786C178.944 204.905 179.063 205.024 179.063 205.262L178.944 206.216Z" fill="#C9D7FD"/>
<path d="M586.426 220.758H612.534V215.99H586.426V220.758Z" fill="#C9D7FD"/>
<path d="M540.646 220.758H566.755V215.99H540.646V220.758Z" fill="#C9D7FD"/>
<path d="M147.948 325.297H631.133C633.875 325.297 636.02 323.151 636.02 320.409V271.776C636.02 269.034 633.875 266.889 631.133 266.889H147.948C145.206 266.889 143.061 269.034 143.061 271.776V320.409C143.061 323.151 145.206 325.297 147.948 325.297Z" fill="#F6F6FF"/>
<path d="M215.307 298H368.857V293.232H215.307V298Z" fill="#C9D7FD"/>
<path d="M179.421 286.437H179.063V282.504C179.063 282.265 178.944 282.146 178.825 281.908C178.706 281.789 178.467 281.669 178.348 281.669C178.229 281.669 177.99 281.789 177.752 281.908C177.633 282.027 177.514 282.265 177.514 282.504V286.437H172.983V282.504C172.983 282.265 172.864 282.146 172.745 281.908C172.626 281.789 172.387 281.669 172.149 281.669C171.91 281.669 171.791 281.789 171.553 281.908C171.433 282.027 171.314 282.265 171.314 282.504V286.437H170.957C170.241 286.437 169.645 287.033 169.645 287.749V292.04C169.645 294.424 171.195 296.569 173.46 297.285V302.529C173.46 304.198 172.03 305.748 170.241 305.748C168.572 305.748 167.142 304.317 167.142 302.529V301.457C167.142 297.761 163.804 294.662 160.108 294.662C155.697 294.662 153.193 298.834 153.193 300.622H157.247C157.485 299.669 158.558 298.357 160.346 298.357C162.135 298.357 163.446 299.788 163.446 301.576V302.887C163.446 306.105 166.546 309.443 170.48 309.443C174.414 309.443 177.156 305.986 177.156 302.768V297.285C179.302 296.569 180.732 294.424 180.732 292.04V287.749C180.732 287.033 180.136 286.437 179.421 286.437ZM172.745 283.457H171.433V282.504C171.433 282.265 171.433 282.146 171.672 282.027C171.791 281.908 171.91 281.789 172.149 281.789C172.387 281.789 172.506 281.908 172.626 282.027C172.745 282.146 172.864 282.265 172.864 282.504L172.745 283.457ZM178.944 283.457H177.633V282.504C177.633 282.265 177.752 282.146 177.871 282.027C177.99 281.908 178.11 281.789 178.348 281.789C178.586 281.789 178.706 281.908 178.825 282.027C178.944 282.146 179.063 282.265 179.063 282.504L178.944 283.457Z" fill="#C9D7FD"/>
<path d="M586.426 298H612.534V293.232H586.426V298Z" fill="#C9D7FD"/>
<path d="M540.646 298H566.755V293.232H540.646V298Z" fill="#C9D7FD"/>
<path d="M147.948 402.538H631.133C633.875 402.538 636.02 400.393 636.02 397.651V349.018C636.02 346.276 633.875 344.13 631.133 344.13H147.948C145.206 344.13 143.061 346.276 143.061 349.018V397.651C143.061 400.393 145.206 402.538 147.948 402.538Z" fill="#F6F6FF"/>
<path d="M215.307 375.242H368.857V370.474H215.307V375.242Z" fill="#C9D7FD"/>
<path d="M179.421 363.679H179.063V359.746C179.063 359.507 178.944 359.388 178.825 359.15C178.706 359.03 178.467 358.911 178.348 358.911C178.229 358.911 177.99 359.03 177.752 359.15C177.633 359.269 177.514 359.507 177.514 359.746V363.679H172.983V359.746C172.983 359.507 172.864 359.388 172.745 359.15C172.626 359.03 172.387 358.911 172.149 358.911C171.91 358.911 171.791 359.03 171.553 359.15C171.433 359.269 171.314 359.507 171.314 359.746V363.679H170.957C170.241 363.679 169.645 364.275 169.645 364.99V369.282C169.645 371.666 171.195 373.811 173.46 374.526V379.771C173.46 381.44 172.03 382.99 170.241 382.99C168.572 382.99 167.142 381.559 167.142 379.771V378.698C167.142 375.003 163.804 371.904 160.108 371.904C155.697 371.904 153.193 376.076 153.193 377.864H157.247C157.485 376.91 158.558 375.599 160.346 375.599C162.135 375.599 163.446 377.03 163.446 378.818V380.129C163.446 383.347 166.546 386.685 170.48 386.685C174.414 386.685 177.156 383.228 177.156 380.01V374.526C179.302 373.811 180.732 371.666 180.732 369.282V364.99C180.732 364.275 180.136 363.679 179.421 363.679ZM172.745 360.58H171.433V359.626C171.433 359.388 171.433 359.269 171.672 359.15C171.791 359.03 171.91 358.911 172.149 358.911C172.387 358.911 172.506 359.03 172.626 359.15C172.745 359.269 172.864 359.388 172.864 359.626L172.745 360.58ZM178.944 360.58H177.633V359.626C177.633 359.388 177.752 359.269 177.871 359.15C177.99 359.03 178.11 358.911 178.348 358.911C178.586 358.911 178.706 359.03 178.825 359.15C178.944 359.269 179.063 359.388 179.063 359.626L178.944 360.58Z" fill="#C9D7FD"/>
<path d="M586.426 375.242H612.534V370.474H586.426V375.242Z" fill="#C9D7FD"/>
<path d="M540.646 375.242H566.755V370.474H540.646V375.242Z" fill="#C9D7FD"/>
<path d="M233.307 131.835H202.311V152.457H233.307V131.835Z" fill="#C9D7FD"/>
<path d="M248.567 197.634L231.996 181.065L230.565 182.495L226.989 178.919C234.499 169.622 239.029 157.821 239.029 145.066C239.029 115.266 214.948 91.188 185.144 91.188C155.34 91.188 131.258 115.266 131.258 145.066C131.258 174.866 155.34 198.945 185.144 198.945C198.019 198.945 209.821 194.415 219.001 186.906L222.578 190.482L221.147 191.912L237.718 208.481C239.268 210.03 241.175 210.746 243.083 210.746C244.99 210.746 247.017 210.03 248.448 208.481C251.547 205.501 251.547 200.614 248.567 197.634ZM185.263 191.435C159.631 191.435 138.888 170.694 138.888 145.066C138.888 119.438 159.631 98.6976 185.263 98.6976C210.894 98.6976 231.638 119.438 231.638 145.066C231.638 170.694 210.775 191.435 185.263 191.435Z" fill="#FA8617"/>
</svg>
