<?xml version="1.0" encoding="utf-8"?>
<!-- Generator: Adobe Illustrator 26.0.0, SVG Export Plug-In . SVG Version: 6.00 Build 0)  -->
<svg version="1.1" id="Layer_1" xmlns="http://www.w3.org/2000/svg" xmlns:xlink="http://www.w3.org/1999/xlink" x="0px" y="0px"
	 viewBox="0 0 35 33" style="enable-background:new 0 0 35 33;" xml:space="preserve">
<style type="text/css">
	.st0{fill:none;stroke:#CACACA;}
	.st1{fill:#FA8617;}
</style>
<path class="st0" d="M12.1,1.8c2-0.9,4.1-1.3,6.4-1.3c8.8,0,16,7.2,16,16s-7.2,16-16,16s-16-7.2-16-16c0-1.3,0.2-2.6,0.5-3.8"/>
<g>
	<path class="st1" d="M3.3,4.1h0.9l0.3,1.8c0.1,0.4,0.1,0.8,0.2,1.2l0,0c0.1-0.4,0.2-0.8,0.2-1.2l0.4-1.8H6l0.4,1.8
		c0.1,0.4,0.2,0.8,0.2,1.2l0,0c0.1-0.4,0.1-0.8,0.2-1.2l0.3-1.8H8L7.3,8H6.2L5.8,6.2C5.7,5.9,5.7,5.6,5.6,5.3l0,0
		c0,0.3-0.1,0.6-0.2,0.9L5.1,8H4L3.3,4.1z"/>
	<path class="st1" d="M14.3,13.7l-4-4c0.8-1,1.3-2.3,1.3-3.6c0-3.1-2.5-5.7-5.7-5.7S0.3,2.9,0.3,6s2.5,5.7,5.7,5.7
		c1.4,0,2.7-0.5,3.6-1.3l4,4c0.1,0.1,0.2,0.2,0.3,0.2s0.3,0,0.3-0.2C14.5,14.2,14.5,13.8,14.3,13.7z M6,10.7c-2.6,0-4.7-2.1-4.7-4.7
		S3.4,1.3,6,1.3s4.7,2.1,4.7,4.7S8.6,10.7,6,10.7z"/>
	<path class="st1" d="M28.9,21.1H10c-0.3,0-0.5,0.2-0.5,0.5s0.2,0.5,0.5,0.5h18.9c0.3,0,0.5-0.2,0.5-0.5
		C29.4,21.3,29.2,21.1,28.9,21.1z M28.9,16.8H17.1c-0.3,0-0.5,0.2-0.5,0.5s0.2,0.5,0.5,0.5h11.7c0.3,0,0.5-0.2,0.5-0.5
		C29.4,17,29.2,16.8,28.9,16.8z M13.2,16.8H10c-0.3,0-0.5,0.2-0.5,0.5s0.2,0.5,0.5,0.5h3.2c0.3,0,0.5-0.2,0.5-0.5
		S13.4,16.8,13.2,16.8z"/>
</g>
</svg>
