<svg xmlns="http://www.w3.org/2000/svg" width="47" height="47" viewBox="0 0 47 47">
  <g id="Group_2078" data-name="Group 2078" transform="translate(-425 -1728)">
    <rect id="Rectangle_424" data-name="Rectangle 424" width="47" height="47" transform="translate(425 1728)" fill="#f40909"/>
    <path id="Path_1525" data-name="Path 1525" d="M509.342,257.411a.963.963,0,0,0-.789-.411h-2.061a.958.958,0,0,0-.919.677L501.436,271l-3.879-10.84a.964.964,0,0,0-.906-.638h-2.033a.962.962,0,0,0-.9,1.3c.888,2.337,3.907,10.283,5.494,14.433a2.3,2.3,0,0,1,.162.854c-.007,2.216-.008,6.271-.008,7.912a1.184,1.184,0,0,0,1.183,1.183h1.314a1.185,1.185,0,0,0,1.183-1.18c0-1.568.012-5.436,0-7.5a3.916,3.916,0,0,1,.253-1.412c1.809-4.935,5.247-14.335,6.157-16.821A.962.962,0,0,0,509.342,257.411Z" transform="translate(-53.092 1480.916)" fill="#fff"/>
  </g>
</svg>
