<svg xmlns="http://www.w3.org/2000/svg" viewBox="0 0 350 530.7" xmlns:v="https://vecta.io/nano"><path d="M0 501v29.7h350V501H0zm25.1-187.8v133.5h307V313.2h-307zm161.3-139.1l-8.3 8.1-14.5-13.9-8.3 8.3v7.4c0 1.4 1.1 2.5 2.5 2.5h34.4c1.4 0 2.5-1.1 2.5-2.5v-1.7l-8.3-8.2zm5.8-27h-34.4c-1.4 0-2.5 1.1-2.5 2.5v23l8.4-8.5 14.2 13.6 8.2-7.9 8.6 8.5v-28.7c0-1.3-1.1-2.5-2.5-2.5zm-14.4 16.4c-3 0-5.4-2.4-5.4-5.4s2.4-5.4 5.4-5.4 5.4 2.4 5.4 5.4-2.4 5.4-5.4 5.4zm0-8a2.65 2.65 0 0 0-2.6 2.6 2.65 2.65 0 0 0 2.6 2.6 2.65 2.65 0 0 0 2.6-2.6 2.65 2.65 0 0 0-2.6-2.6zm14.4-8.4h-34.4c-1.4 0-2.5 1.1-2.5 2.5v23l8.4-8.5 14.2 13.6 8.2-7.9 8.6 8.5v-28.7c0-1.3-1.1-2.5-2.5-2.5zm-14.4 16.4c-3 0-5.4-2.4-5.4-5.4s2.4-5.4 5.4-5.4 5.4 2.4 5.4 5.4-2.4 5.4-5.4 5.4zm.3 18.7l-14.5-13.9-8.3 8.3v7.4c0 1.4 1.1 2.5 2.5 2.5h34.4c1.4 0 2.5-1.1 2.5-2.5v-1.7l-8.3-8.3-8.3 8.2zm-.3-26.7a2.65 2.65 0 0 0-2.6 2.6 2.65 2.65 0 0 0 2.6 2.6 2.65 2.65 0 0 0 2.6-2.6 2.65 2.65 0 0 0-2.6-2.6zM25.1 83.8V259h307V83.8h-307zM197.5 184c0 3-2.4 5.4-5.4 5.4h-34.4c-3 0-5.4-2.4-5.4-5.3v-34.4c0-3 2.4-5.3 5.4-5.3h34.4c3 0 5.3 2.4 5.4 5.3V184zm-5.3-36.9h-34.4c-1.4 0-2.5 1.1-2.5 2.5v23l8.4-8.5 14.2 13.6 8.2-7.9 8.6 8.5v-28.7c0-1.3-1.1-2.5-2.5-2.5zm-14.4 16.4c-3 0-5.4-2.4-5.4-5.4s2.4-5.4 5.4-5.4 5.4 2.4 5.4 5.4-2.4 5.4-5.4 5.4zm.3 18.7l-14.5-13.9-8.3 8.3v7.4c0 1.4 1.1 2.5 2.5 2.5h34.4c1.4 0 2.5-1.1 2.5-2.5v-1.7l-8.3-8.3-8.3 8.2zm-.3-26.7a2.65 2.65 0 0 0-2.6 2.6 2.65 2.65 0 0 0 2.6 2.6 2.65 2.65 0 0 0 2.6-2.6 2.65 2.65 0 0 0-2.6-2.6zM0 0v29.7h350V0H0z" fill="#dbdcdc"/><path d="M291.7 12.3h16v3h-16v-3zm-24.4 0h16v3h-16v-3zm-24.5 0h16v3h-16v-3zm-229.4-3h43.3v8.3H13.4V9.3zm93.7 325v3.3h-66v-3.3h66zm39.3 183.1h-16v-3h16v3zm24.4 0h-16v-3h16v3zm24.4 0h-16v-3h16v3zm24.5 0h-16v-3h16v3zm95.6-86.9H41.1v-3.3h274.2v3.3zm0-12.5H41.1v-3.3h274.2v3.3zm0-12.4H41.1v-3.3h274.2v3.3zm0-12.5H41.1v-3.3h274.2v3.3zm0-12.4H41.1v-3.3h274.2v3.3zm0-12.5H41.1v-3.3h274.2v3.3zm0-12.4H41.1v-3.3h274.2v3.3zm16.8-340.5h-16v-3h16v3z" fill="#fff"/><g fill="#f68b1f"><path d="M331.1 461.6v24.5h-305v-24.5h305m1-1h-307v26.5h307v-26.5h0zm-1-186.7v24.5h-305v-24.5h305m1-1h-307v26.5h307v-26.5h0zm-17.8-48.2v19.4H43v-19.4h271.3m1-1H42v21.4h273.3v-21.4h0zm-1-125v19.4H43V98.7h271.3m1-1H42v21.4h273.3V97.7h0zM25.6 44h306v25.5h-306z"/><path d="M331.1 44.5V69h-305V44.5h305m1-1h-307V70h307V43.5h0z"/></g></svg>